<?xml version="1.0" encoding="UTF-8"?>
<svg xmlns="http://www.w3.org/2000/svg" xmlns:xlink="http://www.w3.org/1999/xlink" width="600" height="600" viewBox="0 0 600 600">
<rect x="-60" y="-60" width="720" height="720" fill="rgb(100%, 100%, 100%)" fill-opacity="1"/>
<path fill-rule="nonzero" fill="rgb(100%, 0%, 0%)" fill-opacity="1" stroke-width="0.01" stroke-linecap="butt" stroke-linejoin="miter" stroke="rgb(0%, 0%, 0%)" stroke-opacity="1" stroke-miterlimit="10" d="M 426.296875 524.988281 C 426.296875 526.320312 424.296875 526.320312 424.296875 524.988281 C 424.296875 523.65625 426.296875 523.65625 426.296875 524.988281 "/>
<path fill-rule="nonzero" fill="rgb(100%, 0%, 0%)" fill-opacity="1" stroke-width="0.01" stroke-linecap="butt" stroke-linejoin="miter" stroke="rgb(0%, 0%, 0%)" stroke-opacity="1" stroke-miterlimit="10" d="M 530.746094 250.710938 C 530.746094 252.042969 528.746094 252.042969 528.746094 250.710938 C 528.746094 249.375 530.746094 249.375 530.746094 250.710938 "/>
<path fill-rule="nonzero" fill="rgb(100%, 0%, 0%)" fill-opacity="1" stroke-width="0.01" stroke-linecap="butt" stroke-linejoin="miter" stroke="rgb(0%, 0%, 0%)" stroke-opacity="1" stroke-miterlimit="10" d="M 520.578125 182.738281 C 520.578125 184.070312 518.578125 184.070312 518.578125 182.738281 C 518.578125 181.402344 520.578125 181.402344 520.578125 182.738281 "/>
<path fill-rule="nonzero" fill="rgb(100%, 0%, 0%)" fill-opacity="1" stroke-width="0.01" stroke-linecap="butt" stroke-linejoin="miter" stroke="rgb(0%, 0%, 0%)" stroke-opacity="1" stroke-miterlimit="10" d="M 340.144531 533.945312 C 340.144531 535.277344 338.144531 535.277344 338.144531 533.945312 C 338.144531 532.609375 340.144531 532.609375 340.144531 533.945312 "/>
<path fill-rule="nonzero" fill="rgb(100%, 0%, 0%)" fill-opacity="1" stroke-width="0.01" stroke-linecap="butt" stroke-linejoin="miter" stroke="rgb(0%, 0%, 0%)" stroke-opacity="1" stroke-miterlimit="10" d="M 514.257812 103.679688 C 514.257812 105.011719 512.257812 105.011719 512.257812 103.679688 C 512.257812 102.34375 514.257812 102.34375 514.257812 103.679688 "/>
<path fill-rule="nonzero" fill="rgb(100%, 0%, 0%)" fill-opacity="1" stroke-width="0.01" stroke-linecap="butt" stroke-linejoin="miter" stroke="rgb(0%, 0%, 0%)" stroke-opacity="1" stroke-miterlimit="10" d="M 134.070312 166.175781 C 134.070312 167.507812 132.070312 167.507812 132.070312 166.175781 C 132.070312 164.84375 134.070312 164.84375 134.070312 166.175781 "/>
<path fill-rule="nonzero" fill="rgb(100%, 0%, 0%)" fill-opacity="1" stroke-width="0.01" stroke-linecap="butt" stroke-linejoin="miter" stroke="rgb(0%, 0%, 0%)" stroke-opacity="1" stroke-miterlimit="10" d="M 337.429688 21.046875 C 337.429688 22.378906 335.429688 22.378906 335.429688 21.046875 C 335.429688 19.710938 337.429688 19.710938 337.429688 21.046875 "/>
<path fill-rule="nonzero" fill="rgb(100%, 0%, 0%)" fill-opacity="1" stroke-width="0.01" stroke-linecap="butt" stroke-linejoin="miter" stroke="rgb(0%, 0%, 0%)" stroke-opacity="1" stroke-miterlimit="10" d="M 247.652344 477.28125 C 247.652344 478.617188 245.652344 478.617188 245.652344 477.28125 C 245.652344 475.949219 247.652344 475.949219 247.652344 477.28125 "/>
<path fill-rule="nonzero" fill="rgb(100%, 0%, 0%)" fill-opacity="1" stroke-width="0.01" stroke-linecap="butt" stroke-linejoin="miter" stroke="rgb(0%, 0%, 0%)" stroke-opacity="1" stroke-miterlimit="10" d="M 258.660156 204.792969 C 258.660156 206.125 256.660156 206.125 256.660156 204.792969 C 256.660156 203.460938 258.660156 203.460938 258.660156 204.792969 "/>
<path fill-rule="nonzero" fill="rgb(100%, 0%, 0%)" fill-opacity="1" stroke-width="0.01" stroke-linecap="butt" stroke-linejoin="miter" stroke="rgb(0%, 0%, 0%)" stroke-opacity="1" stroke-miterlimit="10" d="M 544.140625 455.542969 C 544.140625 456.878906 542.140625 456.878906 542.140625 455.542969 C 542.140625 454.210938 544.140625 454.210938 544.140625 455.542969 "/>
<path fill-rule="nonzero" fill="rgb(100%, 0%, 0%)" fill-opacity="1" stroke-width="0.01" stroke-linecap="butt" stroke-linejoin="miter" stroke="rgb(0%, 0%, 0%)" stroke-opacity="1" stroke-miterlimit="10" d="M 338.890625 398.191406 C 338.890625 399.523438 336.890625 399.523438 336.890625 398.191406 C 336.890625 396.859375 338.890625 396.859375 338.890625 398.191406 "/>
<path fill-rule="nonzero" fill="rgb(100%, 0%, 0%)" fill-opacity="1" stroke-width="0.01" stroke-linecap="butt" stroke-linejoin="miter" stroke="rgb(0%, 0%, 0%)" stroke-opacity="1" stroke-miterlimit="10" d="M 115.703125 119.75 C 115.703125 121.082031 113.703125 121.082031 113.703125 119.75 C 113.703125 118.417969 115.703125 118.417969 115.703125 119.75 "/>
<path fill-rule="nonzero" fill="rgb(100%, 0%, 0%)" fill-opacity="1" stroke-width="0.01" stroke-linecap="butt" stroke-linejoin="miter" stroke="rgb(0%, 0%, 0%)" stroke-opacity="1" stroke-miterlimit="10" d="M 476.011719 77.964844 C 476.011719 79.300781 474.011719 79.300781 474.011719 77.964844 C 474.011719 76.632812 476.011719 76.632812 476.011719 77.964844 "/>
<path fill-rule="nonzero" fill="rgb(100%, 0%, 0%)" fill-opacity="1" stroke-width="0.01" stroke-linecap="butt" stroke-linejoin="miter" stroke="rgb(0%, 0%, 0%)" stroke-opacity="1" stroke-miterlimit="10" d="M 105.019531 518.363281 C 105.019531 519.695312 103.019531 519.695312 103.019531 518.363281 C 103.019531 517.03125 105.019531 517.03125 105.019531 518.363281 "/>
<path fill-rule="nonzero" fill="rgb(100%, 0%, 0%)" fill-opacity="1" stroke-width="0.01" stroke-linecap="butt" stroke-linejoin="miter" stroke="rgb(0%, 0%, 0%)" stroke-opacity="1" stroke-miterlimit="10" d="M 339.3125 362.09375 C 339.3125 363.429688 337.3125 363.429688 337.3125 362.09375 C 337.3125 360.761719 339.3125 360.761719 339.3125 362.09375 "/>
<path fill-rule="nonzero" fill="rgb(100%, 0%, 0%)" fill-opacity="1" stroke-width="0.01" stroke-linecap="butt" stroke-linejoin="miter" stroke="rgb(0%, 0%, 0%)" stroke-opacity="1" stroke-miterlimit="10" d="M 345.023438 261.601562 C 345.023438 262.933594 343.023438 262.933594 343.023438 261.601562 C 343.023438 260.269531 345.023438 260.269531 345.023438 261.601562 "/>
<path fill-rule="nonzero" fill="rgb(100%, 0%, 0%)" fill-opacity="1" stroke-width="0.01" stroke-linecap="butt" stroke-linejoin="miter" stroke="rgb(0%, 0%, 0%)" stroke-opacity="1" stroke-miterlimit="10" d="M 182.707031 517.746094 C 182.707031 519.082031 180.707031 519.082031 180.707031 517.746094 C 180.707031 516.414062 182.707031 516.414062 182.707031 517.746094 "/>
<path fill-rule="nonzero" fill="rgb(100%, 0%, 0%)" fill-opacity="1" stroke-width="0.01" stroke-linecap="butt" stroke-linejoin="miter" stroke="rgb(0%, 0%, 0%)" stroke-opacity="1" stroke-miterlimit="10" d="M 90.664062 261.949219 C 90.664062 263.28125 88.664062 263.28125 88.664062 261.949219 C 88.664062 260.617188 90.664062 260.617188 90.664062 261.949219 "/>
<path fill-rule="nonzero" fill="rgb(100%, 0%, 0%)" fill-opacity="1" stroke-width="0.01" stroke-linecap="butt" stroke-linejoin="miter" stroke="rgb(0%, 0%, 0%)" stroke-opacity="1" stroke-miterlimit="10" d="M 203.445312 63.984375 C 203.445312 65.316406 201.445312 65.316406 201.445312 63.984375 C 201.445312 62.648438 203.445312 62.648438 203.445312 63.984375 "/>
<path fill-rule="nonzero" fill="rgb(100%, 0%, 0%)" fill-opacity="1" stroke-width="0.01" stroke-linecap="butt" stroke-linejoin="miter" stroke="rgb(0%, 0%, 0%)" stroke-opacity="1" stroke-miterlimit="10" d="M 331.34375 209.191406 C 331.34375 210.527344 329.34375 210.527344 329.34375 209.191406 C 329.34375 207.859375 331.34375 207.859375 331.34375 209.191406 "/>
<path fill-rule="nonzero" fill="rgb(100%, 0%, 0%)" fill-opacity="1" stroke-width="0.01" stroke-linecap="butt" stroke-linejoin="miter" stroke="rgb(0%, 0%, 0%)" stroke-opacity="1" stroke-miterlimit="10" d="M 222.875 127.980469 C 222.875 129.316406 220.875 129.316406 220.875 127.980469 C 220.875 126.648438 222.875 126.648438 222.875 127.980469 "/>
<path fill-rule="nonzero" fill="rgb(100%, 0%, 0%)" fill-opacity="1" stroke-width="0.01" stroke-linecap="butt" stroke-linejoin="miter" stroke="rgb(0%, 0%, 0%)" stroke-opacity="1" stroke-miterlimit="10" d="M 315.566406 421.277344 C 315.566406 422.613281 313.566406 422.613281 313.566406 421.277344 C 313.566406 419.945312 315.566406 419.945312 315.566406 421.277344 "/>
<path fill-rule="nonzero" fill="rgb(100%, 0%, 0%)" fill-opacity="1" stroke-width="0.01" stroke-linecap="butt" stroke-linejoin="miter" stroke="rgb(0%, 0%, 0%)" stroke-opacity="1" stroke-miterlimit="10" d="M 290.980469 72.699219 C 290.980469 74.035156 288.980469 74.035156 288.980469 72.699219 C 288.980469 71.367188 290.980469 71.367188 290.980469 72.699219 "/>
<path fill-rule="nonzero" fill="rgb(100%, 0%, 0%)" fill-opacity="1" stroke-width="0.01" stroke-linecap="butt" stroke-linejoin="miter" stroke="rgb(0%, 0%, 0%)" stroke-opacity="1" stroke-miterlimit="10" d="M 452.746094 352.378906 C 452.746094 353.710938 450.746094 353.710938 450.746094 352.378906 C 450.746094 351.046875 452.746094 351.046875 452.746094 352.378906 "/>
<path fill-rule="nonzero" fill="rgb(100%, 0%, 0%)" fill-opacity="1" stroke-width="0.01" stroke-linecap="butt" stroke-linejoin="miter" stroke="rgb(0%, 0%, 0%)" stroke-opacity="1" stroke-miterlimit="10" d="M 474.386719 517.933594 C 474.386719 519.265625 472.386719 519.265625 472.386719 517.933594 C 472.386719 516.601562 474.386719 516.601562 474.386719 517.933594 "/>
<path fill-rule="nonzero" fill="rgb(100%, 0%, 0%)" fill-opacity="1" stroke-width="0.01" stroke-linecap="butt" stroke-linejoin="miter" stroke="rgb(0%, 0%, 0%)" stroke-opacity="1" stroke-miterlimit="10" d="M 431.652344 436.355469 C 431.652344 437.6875 429.652344 437.6875 429.652344 436.355469 C 429.652344 435.023438 431.652344 435.023438 431.652344 436.355469 "/>
<path fill-rule="nonzero" fill="rgb(100%, 0%, 0%)" fill-opacity="1" stroke-width="0.01" stroke-linecap="butt" stroke-linejoin="miter" stroke="rgb(0%, 0%, 0%)" stroke-opacity="1" stroke-miterlimit="10" d="M 513.914062 492.660156 C 513.914062 493.996094 511.914062 493.996094 511.914062 492.660156 C 511.914062 491.328125 513.914062 491.328125 513.914062 492.660156 "/>
<path fill-rule="nonzero" fill="rgb(100%, 0%, 0%)" fill-opacity="1" stroke-width="0.01" stroke-linecap="butt" stroke-linejoin="miter" stroke="rgb(0%, 0%, 0%)" stroke-opacity="1" stroke-miterlimit="10" d="M 179.074219 308.046875 C 179.074219 309.378906 177.074219 309.378906 177.074219 308.046875 C 177.074219 306.714844 179.074219 306.714844 179.074219 308.046875 "/>
<path fill-rule="nonzero" fill="rgb(100%, 0%, 0%)" fill-opacity="1" stroke-width="0.01" stroke-linecap="butt" stroke-linejoin="miter" stroke="rgb(0%, 0%, 0%)" stroke-opacity="1" stroke-miterlimit="10" d="M 86.207031 435.839844 C 86.207031 437.171875 84.207031 437.171875 84.207031 435.839844 C 84.207031 434.507812 86.207031 434.507812 86.207031 435.839844 "/>
<path fill-rule="nonzero" fill="rgb(100%, 0%, 0%)" fill-opacity="1" stroke-width="0.01" stroke-linecap="butt" stroke-linejoin="miter" stroke="rgb(0%, 0%, 0%)" stroke-opacity="1" stroke-miterlimit="10" d="M 124.105469 277.605469 C 124.105469 278.9375 122.105469 278.9375 122.105469 277.605469 C 122.105469 276.269531 124.105469 276.269531 124.105469 277.605469 "/>
<path fill-rule="nonzero" fill="rgb(100%, 0%, 0%)" fill-opacity="1" stroke-width="0.01" stroke-linecap="butt" stroke-linejoin="miter" stroke="rgb(0%, 0%, 0%)" stroke-opacity="1" stroke-miterlimit="10" d="M 437.851562 473.511719 C 437.851562 474.84375 435.851562 474.84375 435.851562 473.511719 C 435.851562 472.179688 437.851562 472.179688 437.851562 473.511719 "/>
<path fill-rule="nonzero" fill="rgb(100%, 0%, 0%)" fill-opacity="1" stroke-width="0.01" stroke-linecap="butt" stroke-linejoin="miter" stroke="rgb(0%, 0%, 0%)" stroke-opacity="1" stroke-miterlimit="10" d="M 192.363281 439.085938 C 192.363281 440.417969 190.363281 440.417969 190.363281 439.085938 C 190.363281 437.753906 192.363281 437.753906 192.363281 439.085938 "/>
<path fill-rule="nonzero" fill="rgb(100%, 0%, 0%)" fill-opacity="1" stroke-width="0.01" stroke-linecap="butt" stroke-linejoin="miter" stroke="rgb(0%, 0%, 0%)" stroke-opacity="1" stroke-miterlimit="10" d="M 231.910156 359.171875 C 231.910156 360.507812 229.910156 360.507812 229.910156 359.171875 C 229.910156 357.839844 231.910156 357.839844 231.910156 359.171875 "/>
<path fill-rule="nonzero" fill="rgb(100%, 0%, 0%)" fill-opacity="1" stroke-width="0.01" stroke-linecap="butt" stroke-linejoin="miter" stroke="rgb(0%, 0%, 0%)" stroke-opacity="1" stroke-miterlimit="10" d="M 498.132812 264.675781 C 498.132812 266.007812 496.132812 266.007812 496.132812 264.675781 C 496.132812 263.339844 498.132812 263.339844 498.132812 264.675781 "/>
<path fill-rule="nonzero" fill="rgb(100%, 0%, 0%)" fill-opacity="1" stroke-width="0.01" stroke-linecap="butt" stroke-linejoin="miter" stroke="rgb(0%, 0%, 0%)" stroke-opacity="1" stroke-miterlimit="10" d="M 394.496094 342.925781 C 394.496094 344.261719 392.496094 344.261719 392.496094 342.925781 C 392.496094 341.59375 394.496094 341.59375 394.496094 342.925781 "/>
<path fill-rule="nonzero" fill="rgb(100%, 0%, 0%)" fill-opacity="1" stroke-width="0.01" stroke-linecap="butt" stroke-linejoin="miter" stroke="rgb(0%, 0%, 0%)" stroke-opacity="1" stroke-miterlimit="10" d="M 400.25 312.351562 C 400.25 313.6875 398.25 313.6875 398.25 312.351562 C 398.25 311.019531 400.25 311.019531 400.25 312.351562 "/>
<path fill-rule="nonzero" fill="rgb(100%, 0%, 0%)" fill-opacity="1" stroke-width="0.01" stroke-linecap="butt" stroke-linejoin="miter" stroke="rgb(0%, 0%, 0%)" stroke-opacity="1" stroke-miterlimit="10" d="M 398.898438 78.363281 C 398.898438 79.695312 396.898438 79.695312 396.898438 78.363281 C 396.898438 77.03125 398.898438 77.03125 398.898438 78.363281 "/>
<path fill-rule="nonzero" fill="rgb(100%, 0%, 0%)" fill-opacity="1" stroke-width="0.01" stroke-linecap="butt" stroke-linejoin="miter" stroke="rgb(0%, 0%, 0%)" stroke-opacity="1" stroke-miterlimit="10" d="M 189.613281 261.65625 C 189.613281 262.988281 187.613281 262.988281 187.613281 261.65625 C 187.613281 260.320312 189.613281 260.320312 189.613281 261.65625 "/>
<path fill-rule="nonzero" fill="rgb(100%, 0%, 0%)" fill-opacity="1" stroke-width="0.01" stroke-linecap="butt" stroke-linejoin="miter" stroke="rgb(0%, 0%, 0%)" stroke-opacity="1" stroke-miterlimit="10" d="M 447.496094 298.441406 C 447.496094 299.773438 445.496094 299.773438 445.496094 298.441406 C 445.496094 297.105469 447.496094 297.105469 447.496094 298.441406 "/>
<path fill-rule="nonzero" fill="rgb(100%, 0%, 0%)" fill-opacity="1" stroke-width="0.01" stroke-linecap="butt" stroke-linejoin="miter" stroke="rgb(0%, 0%, 0%)" stroke-opacity="1" stroke-miterlimit="10" d="M 368.332031 154.964844 C 368.332031 156.296875 366.332031 156.296875 366.332031 154.964844 C 366.332031 153.632812 368.332031 153.632812 368.332031 154.964844 "/>
<path fill-rule="nonzero" fill="rgb(100%, 0%, 0%)" fill-opacity="1" stroke-width="0.01" stroke-linecap="butt" stroke-linejoin="miter" stroke="rgb(0%, 0%, 0%)" stroke-opacity="1" stroke-miterlimit="10" d="M 21 292.132812 C 21 293.46875 19 293.46875 19 292.132812 C 19 290.800781 21 290.800781 21 292.132812 "/>
<path fill-rule="nonzero" fill="rgb(100%, 0%, 0%)" fill-opacity="1" stroke-width="0.01" stroke-linecap="butt" stroke-linejoin="miter" stroke="rgb(0%, 0%, 0%)" stroke-opacity="1" stroke-miterlimit="10" d="M 253.144531 526.933594 C 253.144531 528.265625 251.144531 528.265625 251.144531 526.933594 C 251.144531 525.597656 253.144531 525.597656 253.144531 526.933594 "/>
<path fill-rule="nonzero" fill="rgb(100%, 0%, 0%)" fill-opacity="1" stroke-width="0.01" stroke-linecap="butt" stroke-linejoin="miter" stroke="rgb(0%, 0%, 0%)" stroke-opacity="1" stroke-miterlimit="10" d="M 309.992188 349.675781 C 309.992188 351.007812 307.992188 351.007812 307.992188 349.675781 C 307.992188 348.34375 309.992188 348.34375 309.992188 349.675781 "/>
<path fill-rule="nonzero" fill="rgb(100%, 0%, 0%)" fill-opacity="1" stroke-width="0.01" stroke-linecap="butt" stroke-linejoin="miter" stroke="rgb(0%, 0%, 0%)" stroke-opacity="1" stroke-miterlimit="10" d="M 121.5 76.171875 C 121.5 77.503906 119.5 77.503906 119.5 76.171875 C 119.5 74.835938 121.5 74.835938 121.5 76.171875 "/>
<path fill-rule="nonzero" fill="rgb(100%, 0%, 0%)" fill-opacity="1" stroke-width="0.01" stroke-linecap="butt" stroke-linejoin="miter" stroke="rgb(0%, 0%, 0%)" stroke-opacity="1" stroke-miterlimit="10" d="M 288.539062 540.1875 C 288.539062 541.519531 286.539062 541.519531 286.539062 540.1875 C 286.539062 538.855469 288.539062 538.855469 288.539062 540.1875 "/>
<path fill-rule="nonzero" fill="rgb(100%, 0%, 0%)" fill-opacity="1" stroke-width="0.01" stroke-linecap="butt" stroke-linejoin="miter" stroke="rgb(0%, 0%, 0%)" stroke-opacity="1" stroke-miterlimit="10" d="M 470.824219 120.933594 C 470.824219 122.265625 468.824219 122.265625 468.824219 120.933594 C 468.824219 119.597656 470.824219 119.597656 470.824219 120.933594 "/>
<path fill-rule="nonzero" fill="rgb(100%, 0%, 0%)" fill-opacity="1" stroke-width="0.01" stroke-linecap="butt" stroke-linejoin="miter" stroke="rgb(0%, 0%, 0%)" stroke-opacity="1" stroke-miterlimit="10" d="M 477.105469 446.035156 C 477.105469 447.371094 475.105469 447.371094 475.105469 446.035156 C 475.105469 444.703125 477.105469 444.703125 477.105469 446.035156 "/>
<path fill-rule="nonzero" fill="rgb(100%, 0%, 0%)" fill-opacity="1" stroke-width="0.01" stroke-linecap="butt" stroke-linejoin="miter" stroke="rgb(0%, 0%, 0%)" stroke-opacity="1" stroke-miterlimit="10" d="M 283.804688 276.390625 C 283.804688 277.726562 281.804688 277.726562 281.804688 276.390625 C 281.804688 275.058594 283.804688 275.058594 283.804688 276.390625 "/>
<path fill-rule="nonzero" fill="rgb(100%, 0%, 0%)" fill-opacity="1" stroke-width="0.01" stroke-linecap="butt" stroke-linejoin="miter" stroke="rgb(0%, 0%, 0%)" stroke-opacity="1" stroke-miterlimit="10" d="M 172.714844 154.734375 C 172.714844 156.066406 170.714844 156.066406 170.714844 154.734375 C 170.714844 153.402344 172.714844 153.402344 172.714844 154.734375 "/>
<path fill-rule="nonzero" fill="rgb(100%, 0%, 0%)" fill-opacity="1" stroke-width="0.01" stroke-linecap="butt" stroke-linejoin="miter" stroke="rgb(0%, 0%, 0%)" stroke-opacity="1" stroke-miterlimit="10" d="M 225.722656 209.066406 C 225.722656 210.398438 223.722656 210.398438 223.722656 209.066406 C 223.722656 207.730469 225.722656 207.730469 225.722656 209.066406 "/>
<path fill-rule="nonzero" fill="rgb(100%, 0%, 0%)" fill-opacity="1" stroke-width="0.01" stroke-linecap="butt" stroke-linejoin="miter" stroke="rgb(0%, 0%, 0%)" stroke-opacity="1" stroke-miterlimit="10" d="M 198.160156 190.976562 C 198.160156 192.3125 196.160156 192.3125 196.160156 190.976562 C 196.160156 189.644531 198.160156 189.644531 198.160156 190.976562 "/>
<path fill-rule="nonzero" fill="rgb(100%, 0%, 0%)" fill-opacity="1" stroke-width="0.01" stroke-linecap="butt" stroke-linejoin="miter" stroke="rgb(0%, 0%, 0%)" stroke-opacity="1" stroke-miterlimit="10" d="M 400.613281 567.730469 C 400.613281 569.0625 398.613281 569.0625 398.613281 567.730469 C 398.613281 566.394531 400.613281 566.394531 400.613281 567.730469 "/>
<path fill-rule="nonzero" fill="rgb(100%, 0%, 0%)" fill-opacity="1" stroke-width="0.01" stroke-linecap="butt" stroke-linejoin="miter" stroke="rgb(0%, 0%, 0%)" stroke-opacity="1" stroke-miterlimit="10" d="M 199.132812 367.777344 C 199.132812 369.109375 197.132812 369.109375 197.132812 367.777344 C 197.132812 366.445312 199.132812 366.445312 199.132812 367.777344 "/>
<path fill-rule="nonzero" fill="rgb(100%, 0%, 0%)" fill-opacity="1" stroke-width="0.01" stroke-linecap="butt" stroke-linejoin="miter" stroke="rgb(0%, 0%, 0%)" stroke-opacity="1" stroke-miterlimit="10" d="M 283.867188 394.078125 C 283.867188 395.410156 281.867188 395.410156 281.867188 394.078125 C 281.867188 392.742188 283.867188 392.742188 283.867188 394.078125 "/>
<path fill-rule="nonzero" fill="rgb(100%, 0%, 0%)" fill-opacity="1" stroke-width="0.01" stroke-linecap="butt" stroke-linejoin="miter" stroke="rgb(0%, 0%, 0%)" stroke-opacity="1" stroke-miterlimit="10" d="M 59.5 465.300781 C 59.5 466.636719 57.5 466.636719 57.5 465.300781 C 57.5 463.96875 59.5 463.96875 59.5 465.300781 "/>
<path fill-rule="nonzero" fill="rgb(100%, 0%, 0%)" fill-opacity="1" stroke-width="0.01" stroke-linecap="butt" stroke-linejoin="miter" stroke="rgb(0%, 0%, 0%)" stroke-opacity="1" stroke-miterlimit="10" d="M 340.398438 296.484375 C 340.398438 297.816406 338.398438 297.816406 338.398438 296.484375 C 338.398438 295.152344 340.398438 295.152344 340.398438 296.484375 "/>
<path fill-rule="nonzero" fill="rgb(100%, 0%, 0%)" fill-opacity="1" stroke-width="0.01" stroke-linecap="butt" stroke-linejoin="miter" stroke="rgb(0%, 0%, 0%)" stroke-opacity="1" stroke-miterlimit="10" d="M 447.769531 207.886719 C 447.769531 209.222656 445.769531 209.222656 445.769531 207.886719 C 445.769531 206.554688 447.769531 206.554688 447.769531 207.886719 "/>
<path fill-rule="nonzero" fill="rgb(100%, 0%, 0%)" fill-opacity="1" stroke-width="0.01" stroke-linecap="butt" stroke-linejoin="miter" stroke="rgb(0%, 0%, 0%)" stroke-opacity="1" stroke-miterlimit="10" d="M 321.410156 577.160156 C 321.410156 578.496094 319.410156 578.496094 319.410156 577.160156 C 319.410156 575.828125 321.410156 575.828125 321.410156 577.160156 "/>
<path fill-rule="nonzero" fill="rgb(100%, 0%, 0%)" fill-opacity="1" stroke-width="0.01" stroke-linecap="butt" stroke-linejoin="miter" stroke="rgb(0%, 0%, 0%)" stroke-opacity="1" stroke-miterlimit="10" d="M 451.1875 554.6875 C 451.1875 556.019531 449.1875 556.019531 449.1875 554.6875 C 449.1875 553.351562 451.1875 553.351562 451.1875 554.6875 "/>
<path fill-rule="nonzero" fill="rgb(100%, 0%, 0%)" fill-opacity="1" stroke-width="0.01" stroke-linecap="butt" stroke-linejoin="miter" stroke="rgb(0%, 0%, 0%)" stroke-opacity="1" stroke-miterlimit="10" d="M 400.160156 246.230469 C 400.160156 247.5625 398.160156 247.5625 398.160156 246.230469 C 398.160156 244.898438 400.160156 244.898438 400.160156 246.230469 "/>
<path fill-rule="nonzero" fill="rgb(100%, 0%, 0%)" fill-opacity="1" stroke-width="0.01" stroke-linecap="butt" stroke-linejoin="miter" stroke="rgb(0%, 0%, 0%)" stroke-opacity="1" stroke-miterlimit="10" d="M 356.636719 193.167969 C 356.636719 194.5 354.636719 194.5 354.636719 193.167969 C 354.636719 191.835938 356.636719 191.835938 356.636719 193.167969 "/>
<path fill-rule="nonzero" fill="rgb(100%, 0%, 0%)" fill-opacity="1" stroke-width="0.01" stroke-linecap="butt" stroke-linejoin="miter" stroke="rgb(0%, 0%, 0%)" stroke-opacity="1" stroke-miterlimit="10" d="M 336.582031 166.59375 C 336.582031 167.929688 334.582031 167.929688 334.582031 166.59375 C 334.582031 165.261719 336.582031 165.261719 336.582031 166.59375 "/>
<path fill-rule="nonzero" fill="rgb(100%, 0%, 0%)" fill-opacity="1" stroke-width="0.01" stroke-linecap="butt" stroke-linejoin="miter" stroke="rgb(0%, 0%, 0%)" stroke-opacity="1" stroke-miterlimit="10" d="M 402.535156 30.289062 C 402.535156 31.621094 400.535156 31.621094 400.535156 30.289062 C 400.535156 28.953125 402.535156 28.953125 402.535156 30.289062 "/>
<path fill-rule="nonzero" fill="rgb(100%, 0%, 0%)" fill-opacity="1" stroke-width="0.01" stroke-linecap="butt" stroke-linejoin="miter" stroke="rgb(0%, 0%, 0%)" stroke-opacity="1" stroke-miterlimit="10" d="M 40.183594 373.875 C 40.183594 375.210938 38.183594 375.210938 38.183594 373.875 C 38.183594 372.542969 40.183594 372.542969 40.183594 373.875 "/>
<path fill-rule="nonzero" fill="rgb(100%, 0%, 0%)" fill-opacity="1" stroke-width="0.01" stroke-linecap="butt" stroke-linejoin="miter" stroke="rgb(0%, 0%, 0%)" stroke-opacity="1" stroke-miterlimit="10" d="M 75.320312 121.6875 C 75.320312 123.019531 73.320312 123.019531 73.320312 121.6875 C 73.320312 120.355469 75.320312 120.355469 75.320312 121.6875 "/>
<path fill-rule="nonzero" fill="rgb(100%, 0%, 0%)" fill-opacity="1" stroke-width="0.01" stroke-linecap="butt" stroke-linejoin="miter" stroke="rgb(0%, 0%, 0%)" stroke-opacity="1" stroke-miterlimit="10" d="M 220.746094 509.011719 C 220.746094 510.34375 218.746094 510.34375 218.746094 509.011719 C 218.746094 507.679688 220.746094 507.679688 220.746094 509.011719 "/>
<path fill-rule="nonzero" fill="rgb(100%, 0%, 0%)" fill-opacity="1" stroke-width="0.01" stroke-linecap="butt" stroke-linejoin="miter" stroke="rgb(0%, 0%, 0%)" stroke-opacity="1" stroke-miterlimit="10" d="M 155.753906 417.339844 C 155.753906 418.671875 153.753906 418.671875 153.753906 417.339844 C 153.753906 416.003906 155.753906 416.003906 155.753906 417.339844 "/>
<path fill-rule="nonzero" fill="rgb(100%, 0%, 0%)" fill-opacity="1" stroke-width="0.01" stroke-linecap="butt" stroke-linejoin="miter" stroke="rgb(0%, 0%, 0%)" stroke-opacity="1" stroke-miterlimit="10" d="M 257.480469 106.101562 C 257.480469 107.433594 255.480469 107.433594 255.480469 106.101562 C 255.480469 104.769531 257.480469 104.769531 257.480469 106.101562 "/>
<path fill-rule="nonzero" fill="rgb(100%, 0%, 0%)" fill-opacity="1" stroke-width="0.01" stroke-linecap="butt" stroke-linejoin="miter" stroke="rgb(0%, 0%, 0%)" stroke-opacity="1" stroke-miterlimit="10" d="M 394.359375 381.679688 C 394.359375 383.011719 392.359375 383.011719 392.359375 381.679688 C 392.359375 380.34375 394.359375 380.34375 394.359375 381.679688 "/>
<path fill-rule="nonzero" fill="rgb(100%, 0%, 0%)" fill-opacity="1" stroke-width="0.01" stroke-linecap="butt" stroke-linejoin="miter" stroke="rgb(0%, 0%, 0%)" stroke-opacity="1" stroke-miterlimit="10" d="M 440.117188 52.761719 C 440.117188 54.09375 438.117188 54.09375 438.117188 52.761719 C 438.117188 51.429688 440.117188 51.429688 440.117188 52.761719 "/>
<path fill-rule="nonzero" fill="rgb(100%, 0%, 0%)" fill-opacity="1" stroke-width="0.01" stroke-linecap="butt" stroke-linejoin="miter" stroke="rgb(0%, 0%, 0%)" stroke-opacity="1" stroke-miterlimit="10" d="M 448.425781 386.691406 C 448.425781 388.023438 446.425781 388.023438 446.425781 386.691406 C 446.425781 385.359375 448.425781 385.359375 448.425781 386.691406 "/>
<path fill-rule="nonzero" fill="rgb(100%, 0%, 0%)" fill-opacity="1" stroke-width="0.01" stroke-linecap="butt" stroke-linejoin="miter" stroke="rgb(0%, 0%, 0%)" stroke-opacity="1" stroke-miterlimit="10" d="M 206.265625 157.21875 C 206.265625 158.550781 204.265625 158.550781 204.265625 157.21875 C 204.265625 155.886719 206.265625 155.886719 206.265625 157.21875 "/>
<path fill-rule="nonzero" fill="rgb(100%, 0%, 0%)" fill-opacity="1" stroke-width="0.01" stroke-linecap="butt" stroke-linejoin="miter" stroke="rgb(0%, 0%, 0%)" stroke-opacity="1" stroke-miterlimit="10" d="M 434.917969 237.730469 C 434.917969 239.0625 432.917969 239.0625 432.917969 237.730469 C 432.917969 236.394531 434.917969 236.394531 434.917969 237.730469 "/>
<path fill-rule="nonzero" fill="rgb(100%, 0%, 0%)" fill-opacity="1" stroke-width="0.01" stroke-linecap="butt" stroke-linejoin="miter" stroke="rgb(0%, 0%, 0%)" stroke-opacity="1" stroke-miterlimit="10" d="M 326.375 238.332031 C 326.375 239.664062 324.375 239.664062 324.375 238.332031 C 324.375 237 326.375 237 326.375 238.332031 "/>
<path fill-rule="nonzero" fill="rgb(100%, 0%, 0%)" fill-opacity="1" stroke-width="0.01" stroke-linecap="butt" stroke-linejoin="miter" stroke="rgb(0%, 0%, 0%)" stroke-opacity="1" stroke-miterlimit="10" d="M 332.914062 486.410156 C 332.914062 487.746094 330.914062 487.746094 330.914062 486.410156 C 330.914062 485.078125 332.914062 485.078125 332.914062 486.410156 "/>
<path fill-rule="nonzero" fill="rgb(100%, 0%, 0%)" fill-opacity="1" stroke-width="0.01" stroke-linecap="butt" stroke-linejoin="miter" stroke="rgb(0%, 0%, 0%)" stroke-opacity="1" stroke-miterlimit="10" d="M 546.964844 327.445312 C 546.964844 328.78125 544.964844 328.78125 544.964844 327.445312 C 544.964844 326.113281 546.964844 326.113281 546.964844 327.445312 "/>
<path fill-rule="nonzero" fill="rgb(100%, 0%, 0%)" fill-opacity="1" stroke-width="0.01" stroke-linecap="butt" stroke-linejoin="miter" stroke="rgb(0%, 0%, 0%)" stroke-opacity="1" stroke-miterlimit="10" d="M 265.46875 20 C 265.46875 21.332031 263.46875 21.332031 263.46875 20 C 263.46875 18.667969 265.46875 18.667969 265.46875 20 "/>
<path fill-rule="nonzero" fill="rgb(100%, 0%, 0%)" fill-opacity="1" stroke-width="0.01" stroke-linecap="butt" stroke-linejoin="miter" stroke="rgb(0%, 0%, 0%)" stroke-opacity="1" stroke-miterlimit="10" d="M 242.675781 241.320312 C 242.675781 242.65625 240.675781 242.65625 240.675781 241.320312 C 240.675781 239.988281 242.675781 239.988281 242.675781 241.320312 "/>
<path fill-rule="nonzero" fill="rgb(100%, 0%, 0%)" fill-opacity="1" stroke-width="0.01" stroke-linecap="butt" stroke-linejoin="miter" stroke="rgb(0%, 0%, 0%)" stroke-opacity="1" stroke-miterlimit="10" d="M 472.480469 480.394531 C 472.480469 481.726562 470.480469 481.726562 470.480469 480.394531 C 470.480469 479.058594 472.480469 479.058594 472.480469 480.394531 "/>
<path fill-rule="nonzero" fill="rgb(100%, 0%, 0%)" fill-opacity="1" stroke-width="0.01" stroke-linecap="butt" stroke-linejoin="miter" stroke="rgb(0%, 0%, 0%)" stroke-opacity="1" stroke-miterlimit="10" d="M 519.246094 358.011719 C 519.246094 359.34375 517.246094 359.34375 517.246094 358.011719 C 517.246094 356.675781 519.246094 356.675781 519.246094 358.011719 "/>
<path fill-rule="nonzero" fill="rgb(100%, 0%, 0%)" fill-opacity="1" stroke-width="0.01" stroke-linecap="butt" stroke-linejoin="miter" stroke="rgb(0%, 0%, 0%)" stroke-opacity="1" stroke-miterlimit="10" d="M 72.09375 195.515625 C 72.09375 196.847656 70.09375 196.847656 70.09375 195.515625 C 70.09375 194.183594 72.09375 194.183594 72.09375 195.515625 "/>
<path fill-rule="nonzero" fill="rgb(100%, 0%, 0%)" fill-opacity="1" stroke-width="0.01" stroke-linecap="butt" stroke-linejoin="miter" stroke="rgb(0%, 0%, 0%)" stroke-opacity="1" stroke-miterlimit="10" d="M 275.148438 178.617188 C 275.148438 179.953125 273.148438 179.953125 273.148438 178.617188 C 273.148438 177.285156 275.148438 177.285156 275.148438 178.617188 "/>
<path fill-rule="nonzero" fill="rgb(100%, 0%, 0%)" fill-opacity="1" stroke-width="0.01" stroke-linecap="butt" stroke-linejoin="miter" stroke="rgb(0%, 0%, 0%)" stroke-opacity="1" stroke-miterlimit="10" d="M 227.257812 436.777344 C 227.257812 438.109375 225.257812 438.109375 225.257812 436.777344 C 225.257812 435.445312 227.257812 435.445312 227.257812 436.777344 "/>
<path fill-rule="nonzero" fill="rgb(100%, 0%, 0%)" fill-opacity="1" stroke-width="0.01" stroke-linecap="butt" stroke-linejoin="miter" stroke="rgb(0%, 0%, 0%)" stroke-opacity="1" stroke-miterlimit="10" d="M 183.785156 480.03125 C 183.785156 481.363281 181.785156 481.363281 181.785156 480.03125 C 181.785156 478.695312 183.785156 478.695312 183.785156 480.03125 "/>
<path fill-rule="nonzero" fill="rgb(100%, 0%, 0%)" fill-opacity="1" stroke-width="0.01" stroke-linecap="butt" stroke-linejoin="miter" stroke="rgb(0%, 0%, 0%)" stroke-opacity="1" stroke-miterlimit="10" d="M 284.070312 146.300781 C 284.070312 147.636719 282.070312 147.636719 282.070312 146.300781 C 282.070312 144.96875 284.070312 144.96875 284.070312 146.300781 "/>
<path fill-rule="nonzero" fill="rgb(100%, 0%, 0%)" fill-opacity="1" stroke-width="0.01" stroke-linecap="butt" stroke-linejoin="miter" stroke="rgb(0%, 0%, 0%)" stroke-opacity="1" stroke-miterlimit="10" d="M 431.980469 132.710938 C 431.980469 134.046875 429.980469 134.046875 429.980469 132.710938 C 429.980469 131.378906 431.980469 131.378906 431.980469 132.710938 "/>
<path fill-rule="nonzero" fill="rgb(100%, 0%, 0%)" fill-opacity="1" stroke-width="0.01" stroke-linecap="butt" stroke-linejoin="miter" stroke="rgb(0%, 0%, 0%)" stroke-opacity="1" stroke-miterlimit="10" d="M 144.515625 487.144531 C 144.515625 488.476562 142.515625 488.476562 142.515625 487.144531 C 142.515625 485.808594 144.515625 485.808594 144.515625 487.144531 "/>
<path fill-rule="nonzero" fill="rgb(100%, 0%, 0%)" fill-opacity="1" stroke-width="0.01" stroke-linecap="butt" stroke-linejoin="miter" stroke="rgb(0%, 0%, 0%)" stroke-opacity="1" stroke-miterlimit="10" d="M 365.179688 497.429688 C 365.179688 498.761719 363.179688 498.761719 363.179688 497.429688 C 363.179688 496.09375 365.179688 496.09375 365.179688 497.429688 "/>
<path fill-rule="nonzero" fill="rgb(100%, 0%, 0%)" fill-opacity="1" stroke-width="0.01" stroke-linecap="butt" stroke-linejoin="miter" stroke="rgb(0%, 0%, 0%)" stroke-opacity="1" stroke-miterlimit="10" d="M 98.421875 331.574219 C 98.421875 332.910156 96.421875 332.910156 96.421875 331.574219 C 96.421875 330.242188 98.421875 330.242188 98.421875 331.574219 "/>
<path fill-rule="nonzero" fill="rgb(100%, 0%, 0%)" fill-opacity="1" stroke-width="0.01" stroke-linecap="butt" stroke-linejoin="miter" stroke="rgb(0%, 0%, 0%)" stroke-opacity="1" stroke-miterlimit="10" d="M 70.765625 231.023438 C 70.765625 232.359375 68.765625 232.359375 68.765625 231.023438 C 68.765625 229.691406 70.765625 229.691406 70.765625 231.023438 "/>
<path fill-rule="nonzero" fill="rgb(100%, 0%, 0%)" fill-opacity="1" stroke-width="0.01" stroke-linecap="butt" stroke-linejoin="miter" stroke="rgb(0%, 0%, 0%)" stroke-opacity="1" stroke-miterlimit="10" d="M 158.898438 452.171875 C 158.898438 453.503906 156.898438 453.503906 156.898438 452.171875 C 156.898438 450.835938 158.898438 450.835938 158.898438 452.171875 "/>
<path fill-rule="nonzero" fill="rgb(100%, 0%, 0%)" fill-opacity="1" stroke-width="0.01" stroke-linecap="butt" stroke-linejoin="miter" stroke="rgb(0%, 0%, 0%)" stroke-opacity="1" stroke-miterlimit="10" d="M 405.125 215.855469 C 405.125 217.1875 403.125 217.1875 403.125 215.855469 C 403.125 214.519531 405.125 214.519531 405.125 215.855469 "/>
<path fill-rule="nonzero" fill="rgb(100%, 0%, 0%)" fill-opacity="1" stroke-width="0.01" stroke-linecap="butt" stroke-linejoin="miter" stroke="rgb(0%, 0%, 0%)" stroke-opacity="1" stroke-miterlimit="10" d="M 568.308594 220.933594 C 568.308594 222.265625 566.308594 222.265625 566.308594 220.933594 C 566.308594 219.601562 568.308594 219.601562 568.308594 220.933594 "/>
<path fill-rule="nonzero" fill="rgb(100%, 0%, 0%)" fill-opacity="1" stroke-width="0.01" stroke-linecap="butt" stroke-linejoin="miter" stroke="rgb(0%, 0%, 0%)" stroke-opacity="1" stroke-miterlimit="10" d="M 226.40625 395.460938 C 226.40625 396.792969 224.40625 396.792969 224.40625 395.460938 C 224.40625 394.125 226.40625 394.125 226.40625 395.460938 "/>
<path fill-rule="nonzero" fill="rgb(100%, 0%, 0%)" fill-opacity="1" stroke-width="0.01" stroke-linecap="butt" stroke-linejoin="miter" stroke="rgb(0%, 0%, 0%)" stroke-opacity="1" stroke-miterlimit="10" d="M 168.109375 44.210938 C 168.109375 45.542969 166.109375 45.542969 166.109375 44.210938 C 166.109375 42.875 168.109375 42.875 168.109375 44.210938 "/>
<path fill-rule="nonzero" fill="rgb(100%, 0%, 0%)" fill-opacity="1" stroke-width="0.01" stroke-linecap="butt" stroke-linejoin="miter" stroke="rgb(0%, 0%, 0%)" stroke-opacity="1" stroke-miterlimit="10" d="M 472.25 327.585938 C 472.25 328.917969 470.25 328.917969 470.25 327.585938 C 470.25 326.25 472.25 326.25 472.25 327.585938 "/>
<path fill-rule="nonzero" fill="rgb(100%, 0%, 0%)" fill-opacity="1" stroke-width="0.01" stroke-linecap="butt" stroke-linejoin="miter" stroke="rgb(0%, 0%, 0%)" stroke-opacity="1" stroke-miterlimit="10" d="M 394.019531 119.34375 C 394.019531 120.675781 392.019531 120.675781 392.019531 119.34375 C 392.019531 118.007812 394.019531 118.007812 394.019531 119.34375 "/>
<path fill-rule="nonzero" fill="rgb(100%, 0%, 0%)" fill-opacity="1" stroke-width="0.01" stroke-linecap="butt" stroke-linejoin="miter" stroke="rgb(0%, 0%, 0%)" stroke-opacity="1" stroke-miterlimit="10" d="M 402.195312 460.816406 C 402.195312 462.148438 400.195312 462.148438 400.195312 460.816406 C 400.195312 459.480469 402.195312 459.480469 402.195312 460.816406 "/>
<path fill-rule="nonzero" fill="rgb(100%, 0%, 0%)" fill-opacity="1" stroke-width="0.01" stroke-linecap="butt" stroke-linejoin="miter" stroke="rgb(0%, 0%, 0%)" stroke-opacity="1" stroke-miterlimit="10" d="M 253.125 418.484375 C 253.125 419.820312 251.125 419.820312 251.125 418.484375 C 251.125 417.152344 253.125 417.152344 253.125 418.484375 "/>
<path fill-rule="nonzero" fill="rgb(100%, 0%, 0%)" fill-opacity="1" stroke-width="0.01" stroke-linecap="butt" stroke-linejoin="miter" stroke="rgb(0%, 0%, 0%)" stroke-opacity="1" stroke-miterlimit="10" d="M 307.558594 180.539062 C 307.558594 181.871094 305.558594 181.871094 305.558594 180.539062 C 305.558594 179.207031 307.558594 179.207031 307.558594 180.539062 "/>
<path fill-rule="nonzero" fill="rgb(100%, 0%, 0%)" fill-opacity="1" stroke-width="0.01" stroke-linecap="butt" stroke-linejoin="miter" stroke="rgb(0%, 0%, 0%)" stroke-opacity="1" stroke-miterlimit="10" d="M 238.417969 306.339844 C 238.417969 307.671875 236.417969 307.671875 236.417969 306.339844 C 236.417969 305.003906 238.417969 305.003906 238.417969 306.339844 "/>
<path fill-rule="nonzero" fill="rgb(100%, 0%, 0%)" fill-opacity="1" stroke-width="0.01" stroke-linecap="butt" stroke-linejoin="miter" stroke="rgb(0%, 0%, 0%)" stroke-opacity="1" stroke-miterlimit="10" d="M 125.433594 398.34375 C 125.433594 399.675781 123.433594 399.675781 123.433594 398.34375 C 123.433594 397.011719 125.433594 397.011719 125.433594 398.34375 "/>
<path fill-rule="nonzero" fill="rgb(100%, 0%, 0%)" fill-opacity="1" stroke-width="0.01" stroke-linecap="butt" stroke-linejoin="miter" stroke="rgb(0%, 0%, 0%)" stroke-opacity="1" stroke-miterlimit="10" d="M 154.035156 360.886719 C 154.035156 362.21875 152.035156 362.21875 152.035156 360.886719 C 152.035156 359.554688 154.035156 359.554688 154.035156 360.886719 "/>
<path fill-rule="nonzero" fill="rgb(100%, 0%, 0%)" fill-opacity="1" stroke-width="0.01" stroke-linecap="butt" stroke-linejoin="miter" stroke="rgb(0%, 0%, 0%)" stroke-opacity="1" stroke-miterlimit="10" d="M 24.75 337.054688 C 24.75 338.390625 22.75 338.390625 22.75 337.054688 C 22.75 335.722656 24.75 335.722656 24.75 337.054688 "/>
<path fill-rule="nonzero" fill="rgb(100%, 0%, 0%)" fill-opacity="1" stroke-width="0.01" stroke-linecap="butt" stroke-linejoin="miter" stroke="rgb(0%, 0%, 0%)" stroke-opacity="1" stroke-miterlimit="10" d="M 429.59375 325.304688 C 429.59375 326.636719 427.59375 326.636719 427.59375 325.304688 C 427.59375 323.96875 429.59375 323.96875 429.59375 325.304688 "/>
<path fill-rule="nonzero" fill="rgb(100%, 0%, 0%)" fill-opacity="1" stroke-width="0.01" stroke-linecap="butt" stroke-linejoin="miter" stroke="rgb(0%, 0%, 0%)" stroke-opacity="1" stroke-miterlimit="10" d="M 182.242188 223.734375 C 182.242188 225.066406 180.242188 225.066406 180.242188 223.734375 C 180.242188 222.398438 182.242188 222.398438 182.242188 223.734375 "/>
<path fill-rule="nonzero" fill="rgb(100%, 0%, 0%)" fill-opacity="1" stroke-width="0.01" stroke-linecap="butt" stroke-linejoin="miter" stroke="rgb(0%, 0%, 0%)" stroke-opacity="1" stroke-miterlimit="10" d="M 391.1875 427.8125 C 391.1875 429.144531 389.1875 429.144531 389.1875 427.8125 C 389.1875 426.480469 391.1875 426.480469 391.1875 427.8125 "/>
<path fill-rule="nonzero" fill="rgb(100%, 0%, 0%)" fill-opacity="1" stroke-width="0.01" stroke-linecap="butt" stroke-linejoin="miter" stroke="rgb(0%, 0%, 0%)" stroke-opacity="1" stroke-miterlimit="10" d="M 518.691406 217.699219 C 518.691406 219.035156 516.691406 219.035156 516.691406 217.699219 C 516.691406 216.367188 518.691406 216.367188 518.691406 217.699219 "/>
<path fill-rule="nonzero" fill="rgb(100%, 0%, 0%)" fill-opacity="1" stroke-width="0.01" stroke-linecap="butt" stroke-linejoin="miter" stroke="rgb(0%, 0%, 0%)" stroke-opacity="1" stroke-miterlimit="10" d="M 253.785156 271.789062 C 253.785156 273.125 251.785156 273.125 251.785156 271.789062 C 251.785156 270.457031 253.785156 270.457031 253.785156 271.789062 "/>
<path fill-rule="nonzero" fill="rgb(100%, 0%, 0%)" fill-opacity="1" stroke-width="0.01" stroke-linecap="butt" stroke-linejoin="miter" stroke="rgb(0%, 0%, 0%)" stroke-opacity="1" stroke-miterlimit="10" d="M 51.558594 268.667969 C 51.558594 270.003906 49.558594 270.003906 49.558594 268.667969 C 49.558594 267.335938 51.558594 267.335938 51.558594 268.667969 "/>
<path fill-rule="nonzero" fill="rgb(100%, 0%, 0%)" fill-opacity="1" stroke-width="0.01" stroke-linecap="butt" stroke-linejoin="miter" stroke="rgb(0%, 0%, 0%)" stroke-opacity="1" stroke-miterlimit="10" d="M 46.582031 166.8125 C 46.582031 168.148438 44.582031 168.148438 44.582031 166.8125 C 44.582031 165.480469 46.582031 165.480469 46.582031 166.8125 "/>
<path fill-rule="nonzero" fill="rgb(100%, 0%, 0%)" fill-opacity="1" stroke-width="0.01" stroke-linecap="butt" stroke-linejoin="miter" stroke="rgb(0%, 0%, 0%)" stroke-opacity="1" stroke-miterlimit="10" d="M 144.398438 304.925781 C 144.398438 306.261719 142.398438 306.261719 142.398438 304.925781 C 142.398438 303.59375 144.398438 303.59375 144.398438 304.925781 "/>
<path fill-rule="nonzero" fill="rgb(100%, 0%, 0%)" fill-opacity="1" stroke-width="0.01" stroke-linecap="butt" stroke-linejoin="miter" stroke="rgb(0%, 0%, 0%)" stroke-opacity="1" stroke-miterlimit="10" d="M 576.742188 354.984375 C 576.742188 356.320312 574.742188 356.320312 574.742188 354.984375 C 574.742188 353.652344 576.742188 353.652344 576.742188 354.984375 "/>
<path fill-rule="nonzero" fill="rgb(100%, 0%, 0%)" fill-opacity="1" stroke-width="0.01" stroke-linecap="butt" stroke-linejoin="miter" stroke="rgb(0%, 0%, 0%)" stroke-opacity="1" stroke-miterlimit="10" d="M 112.96875 198.183594 C 112.96875 199.515625 110.96875 199.515625 110.96875 198.183594 C 110.96875 196.847656 112.96875 196.847656 112.96875 198.183594 "/>
<path fill-rule="nonzero" fill="rgb(100%, 0%, 0%)" fill-opacity="1" stroke-width="0.01" stroke-linecap="butt" stroke-linejoin="miter" stroke="rgb(0%, 0%, 0%)" stroke-opacity="1" stroke-miterlimit="10" d="M 323.8125 104.5625 C 323.8125 105.894531 321.8125 105.894531 321.8125 104.5625 C 321.8125 103.226562 323.8125 103.226562 323.8125 104.5625 "/>
<path fill-rule="nonzero" fill="rgb(100%, 0%, 0%)" fill-opacity="1" stroke-width="0.01" stroke-linecap="butt" stroke-linejoin="miter" stroke="rgb(0%, 0%, 0%)" stroke-opacity="1" stroke-miterlimit="10" d="M 353.992188 431.539062 C 353.992188 432.871094 351.992188 432.871094 351.992188 431.539062 C 351.992188 430.203125 353.992188 430.203125 353.992188 431.539062 "/>
<path fill-rule="nonzero" fill="rgb(100%, 0%, 0%)" fill-opacity="1" stroke-width="0.01" stroke-linecap="butt" stroke-linejoin="miter" stroke="rgb(0%, 0%, 0%)" stroke-opacity="1" stroke-miterlimit="10" d="M 222.34375 272.308594 C 222.34375 273.644531 220.34375 273.644531 220.34375 272.308594 C 220.34375 270.976562 222.34375 270.976562 222.34375 272.308594 "/>
<path fill-rule="nonzero" fill="rgb(100%, 0%, 0%)" fill-opacity="1" stroke-width="0.01" stroke-linecap="butt" stroke-linejoin="miter" stroke="rgb(0%, 0%, 0%)" stroke-opacity="1" stroke-miterlimit="10" d="M 366.019531 226.914062 C 366.019531 228.25 364.019531 228.25 364.019531 226.914062 C 364.019531 225.582031 366.019531 225.582031 366.019531 226.914062 "/>
<path fill-rule="nonzero" fill="rgb(100%, 0%, 0%)" fill-opacity="1" stroke-width="0.01" stroke-linecap="butt" stroke-linejoin="miter" stroke="rgb(0%, 0%, 0%)" stroke-opacity="1" stroke-miterlimit="10" d="M 197.570312 406.183594 C 197.570312 407.519531 195.570312 407.519531 195.570312 406.183594 C 195.570312 404.851562 197.570312 404.851562 197.570312 406.183594 "/>
<path fill-rule="nonzero" fill="rgb(100%, 0%, 0%)" fill-opacity="1" stroke-width="0.01" stroke-linecap="butt" stroke-linejoin="miter" stroke="rgb(0%, 0%, 0%)" stroke-opacity="1" stroke-miterlimit="10" d="M 373.355469 260.96875 C 373.355469 262.300781 371.355469 262.300781 371.355469 260.96875 C 371.355469 259.632812 373.355469 259.632812 373.355469 260.96875 "/>
<path fill-rule="nonzero" fill="rgb(100%, 0%, 0%)" fill-opacity="1" stroke-width="0.01" stroke-linecap="butt" stroke-linejoin="miter" stroke="rgb(0%, 0%, 0%)" stroke-opacity="1" stroke-miterlimit="10" d="M 310.5 512.410156 C 310.5 513.742188 308.5 513.742188 308.5 512.410156 C 308.5 511.074219 310.5 511.074219 310.5 512.410156 "/>
<path fill-rule="nonzero" fill="rgb(100%, 0%, 0%)" fill-opacity="1" stroke-width="0.01" stroke-linecap="butt" stroke-linejoin="miter" stroke="rgb(0%, 0%, 0%)" stroke-opacity="1" stroke-miterlimit="10" d="M 417.957031 404.496094 C 417.957031 405.828125 415.957031 405.828125 415.957031 404.496094 C 415.957031 403.164062 417.957031 403.164062 417.957031 404.496094 "/>
<path fill-rule="nonzero" fill="rgb(100%, 0%, 0%)" fill-opacity="1" stroke-width="0.01" stroke-linecap="butt" stroke-linejoin="miter" stroke="rgb(0%, 0%, 0%)" stroke-opacity="1" stroke-miterlimit="10" d="M 529.96875 291.132812 C 529.96875 292.464844 527.96875 292.464844 527.96875 291.132812 C 527.96875 289.800781 529.96875 289.800781 529.96875 291.132812 "/>
<path fill-rule="nonzero" fill="rgb(100%, 0%, 0%)" fill-opacity="1" stroke-width="0.01" stroke-linecap="butt" stroke-linejoin="miter" stroke="rgb(0%, 0%, 0%)" stroke-opacity="1" stroke-miterlimit="10" d="M 297.226562 212.015625 C 297.226562 213.347656 295.226562 213.347656 295.226562 212.015625 C 295.226562 210.683594 297.226562 210.683594 297.226562 212.015625 "/>
<path fill-rule="nonzero" fill="rgb(100%, 0%, 0%)" fill-opacity="1" stroke-width="0.01" stroke-linecap="butt" stroke-linejoin="miter" stroke="rgb(0%, 0%, 0%)" stroke-opacity="1" stroke-miterlimit="10" d="M 27.699219 228.136719 C 27.699219 229.472656 25.699219 229.472656 25.699219 228.136719 C 25.699219 226.804688 27.699219 226.804688 27.699219 228.136719 "/>
<path fill-rule="nonzero" fill="rgb(100%, 0%, 0%)" fill-opacity="1" stroke-width="0.01" stroke-linecap="butt" stroke-linejoin="miter" stroke="rgb(0%, 0%, 0%)" stroke-opacity="1" stroke-miterlimit="10" d="M 353.015625 125.546875 C 353.015625 126.878906 351.015625 126.878906 351.015625 125.546875 C 351.015625 124.210938 353.015625 124.210938 353.015625 125.546875 "/>
<path fill-rule="nonzero" fill="rgb(100%, 0%, 0%)" fill-opacity="1" stroke-width="0.01" stroke-linecap="butt" stroke-linejoin="miter" stroke="rgb(0%, 0%, 0%)" stroke-opacity="1" stroke-miterlimit="10" d="M 286.023438 426.902344 C 286.023438 428.238281 284.023438 428.238281 284.023438 426.902344 C 284.023438 425.570312 286.023438 425.570312 286.023438 426.902344 "/>
<path fill-rule="nonzero" fill="rgb(100%, 0%, 0%)" fill-opacity="1" stroke-width="0.01" stroke-linecap="butt" stroke-linejoin="miter" stroke="rgb(0%, 0%, 0%)" stroke-opacity="1" stroke-miterlimit="10" d="M 560.730469 174.070312 C 560.730469 175.402344 558.730469 175.402344 558.730469 174.070312 C 558.730469 172.734375 560.730469 172.734375 560.730469 174.070312 "/>
<path fill-rule="nonzero" fill="rgb(100%, 0%, 0%)" fill-opacity="1" stroke-width="0.01" stroke-linecap="butt" stroke-linejoin="miter" stroke="rgb(0%, 0%, 0%)" stroke-opacity="1" stroke-miterlimit="10" d="M 105.609375 476.9375 C 105.609375 478.269531 103.609375 478.269531 103.609375 476.9375 C 103.609375 475.605469 105.609375 475.605469 105.609375 476.9375 "/>
<path fill-rule="nonzero" fill="rgb(100%, 0%, 0%)" fill-opacity="1" stroke-width="0.01" stroke-linecap="butt" stroke-linejoin="miter" stroke="rgb(0%, 0%, 0%)" stroke-opacity="1" stroke-miterlimit="10" d="M 169.867188 387.808594 C 169.867188 389.140625 167.867188 389.140625 167.867188 387.808594 C 167.867188 386.476562 169.867188 386.476562 169.867188 387.808594 "/>
<path fill-rule="nonzero" fill="rgb(100%, 0%, 0%)" fill-opacity="1" stroke-width="0.01" stroke-linecap="butt" stroke-linejoin="miter" stroke="rgb(0%, 0%, 0%)" stroke-opacity="1" stroke-miterlimit="10" d="M 306.140625 305.082031 C 306.140625 306.414062 304.140625 306.414062 304.140625 305.082031 C 304.140625 303.75 306.140625 303.75 306.140625 305.082031 "/>
<path fill-rule="nonzero" fill="rgb(100%, 0%, 0%)" fill-opacity="1" stroke-width="0.01" stroke-linecap="butt" stroke-linejoin="miter" stroke="rgb(0%, 0%, 0%)" stroke-opacity="1" stroke-miterlimit="10" d="M 499.136719 401.128906 C 499.136719 402.464844 497.136719 402.464844 497.136719 401.128906 C 497.136719 399.796875 499.136719 399.796875 499.136719 401.128906 "/>
<path fill-rule="nonzero" fill="rgb(100%, 0%, 0%)" fill-opacity="1" stroke-width="0.01" stroke-linecap="butt" stroke-linejoin="miter" stroke="rgb(0%, 0%, 0%)" stroke-opacity="1" stroke-miterlimit="10" d="M 401.980469 154.839844 C 401.980469 156.171875 399.980469 156.171875 399.980469 154.839844 C 399.980469 153.503906 401.980469 153.503906 401.980469 154.839844 "/>
<path fill-rule="nonzero" fill="rgb(100%, 0%, 0%)" fill-opacity="1" stroke-width="0.01" stroke-linecap="butt" stroke-linejoin="miter" stroke="rgb(0%, 0%, 0%)" stroke-opacity="1" stroke-miterlimit="10" d="M 421.148438 362.605469 C 421.148438 363.941406 419.148438 363.941406 419.148438 362.605469 C 419.148438 361.273438 421.148438 361.273438 421.148438 362.605469 "/>
<path fill-rule="nonzero" fill="rgb(100%, 0%, 0%)" fill-opacity="1" stroke-width="0.01" stroke-linecap="butt" stroke-linejoin="miter" stroke="rgb(0%, 0%, 0%)" stroke-opacity="1" stroke-miterlimit="10" d="M 367.671875 462.523438 C 367.671875 463.855469 365.671875 463.855469 365.671875 462.523438 C 365.671875 461.191406 367.671875 461.191406 367.671875 462.523438 "/>
<path fill-rule="nonzero" fill="rgb(100%, 0%, 0%)" fill-opacity="1" stroke-width="0.01" stroke-linecap="butt" stroke-linejoin="miter" stroke="rgb(0%, 0%, 0%)" stroke-opacity="1" stroke-miterlimit="10" d="M 367.199219 46.765625 C 367.199219 48.097656 365.199219 48.097656 365.199219 46.765625 C 365.199219 45.429688 367.199219 45.429688 367.199219 46.765625 "/>
<path fill-rule="nonzero" fill="rgb(100%, 0%, 0%)" fill-opacity="1" stroke-width="0.01" stroke-linecap="butt" stroke-linejoin="miter" stroke="rgb(0%, 0%, 0%)" stroke-opacity="1" stroke-miterlimit="10" d="M 364.394531 91.265625 C 364.394531 92.597656 362.394531 92.597656 362.394531 91.265625 C 362.394531 89.933594 364.394531 89.933594 364.394531 91.265625 "/>
<path fill-rule="nonzero" fill="rgb(100%, 0%, 0%)" fill-opacity="1" stroke-width="0.01" stroke-linecap="butt" stroke-linejoin="miter" stroke="rgb(0%, 0%, 0%)" stroke-opacity="1" stroke-miterlimit="10" d="M 180.679688 564.625 C 180.679688 565.957031 178.679688 565.957031 178.679688 564.625 C 178.679688 563.289062 180.679688 563.289062 180.679688 564.625 "/>
<path fill-rule="nonzero" fill="rgb(100%, 0%, 0%)" fill-opacity="1" stroke-width="0.01" stroke-linecap="butt" stroke-linejoin="miter" stroke="rgb(0%, 0%, 0%)" stroke-opacity="1" stroke-miterlimit="10" d="M 331.425781 68.746094 C 331.425781 70.078125 329.425781 70.078125 329.425781 68.746094 C 329.425781 67.410156 331.425781 67.410156 331.425781 68.746094 "/>
<path fill-rule="nonzero" fill="rgb(100%, 0%, 0%)" fill-opacity="1" stroke-width="0.01" stroke-linecap="butt" stroke-linejoin="miter" stroke="rgb(0%, 0%, 0%)" stroke-opacity="1" stroke-miterlimit="10" d="M 298.820312 469.203125 C 298.820312 470.535156 296.820312 470.535156 296.820312 469.203125 C 296.820312 467.871094 298.820312 467.871094 298.820312 469.203125 "/>
<path fill-rule="nonzero" fill="rgb(100%, 0%, 0%)" fill-opacity="1" stroke-width="0.01" stroke-linecap="butt" stroke-linejoin="miter" stroke="rgb(0%, 0%, 0%)" stroke-opacity="1" stroke-miterlimit="10" d="M 401.359375 281.769531 C 401.359375 283.101562 399.359375 283.101562 399.359375 281.769531 C 399.359375 280.433594 401.359375 280.433594 401.359375 281.769531 "/>
<path fill-rule="nonzero" fill="rgb(100%, 0%, 0%)" fill-opacity="1" stroke-width="0.01" stroke-linecap="butt" stroke-linejoin="miter" stroke="rgb(0%, 0%, 0%)" stroke-opacity="1" stroke-miterlimit="10" d="M 269.039062 303.835938 C 269.039062 305.167969 267.039062 305.167969 267.039062 303.835938 C 267.039062 302.5 269.039062 302.5 269.039062 303.835938 "/>
<path fill-rule="nonzero" fill="rgb(100%, 0%, 0%)" fill-opacity="1" stroke-width="0.01" stroke-linecap="butt" stroke-linejoin="miter" stroke="rgb(0%, 0%, 0%)" stroke-opacity="1" stroke-miterlimit="10" d="M 301.167969 32.988281 C 301.167969 34.324219 299.167969 34.324219 299.167969 32.988281 C 299.167969 31.65625 301.167969 31.65625 301.167969 32.988281 "/>
<path fill-rule="nonzero" fill="rgb(100%, 0%, 0%)" fill-opacity="1" stroke-width="0.01" stroke-linecap="butt" stroke-linejoin="miter" stroke="rgb(0%, 0%, 0%)" stroke-opacity="1" stroke-miterlimit="10" d="M 276.230469 497.210938 C 276.230469 498.546875 274.230469 498.546875 274.230469 497.210938 C 274.230469 495.878906 276.230469 495.878906 276.230469 497.210938 "/>
<path fill-rule="nonzero" fill="rgb(100%, 0%, 0%)" fill-opacity="1" stroke-width="0.01" stroke-linecap="butt" stroke-linejoin="miter" stroke="rgb(0%, 0%, 0%)" stroke-opacity="1" stroke-miterlimit="10" d="M 421.273438 184.636719 C 421.273438 185.96875 419.273438 185.96875 419.273438 184.636719 C 419.273438 183.300781 421.273438 183.300781 421.273438 184.636719 "/>
<path fill-rule="nonzero" fill="rgb(100%, 0%, 0%)" fill-opacity="1" stroke-width="0.01" stroke-linecap="butt" stroke-linejoin="miter" stroke="rgb(0%, 0%, 0%)" stroke-opacity="1" stroke-miterlimit="10" d="M 43.074219 414.746094 C 43.074219 416.078125 41.074219 416.078125 41.074219 414.746094 C 41.074219 413.414062 43.074219 413.414062 43.074219 414.746094 "/>
<path fill-rule="nonzero" fill="rgb(100%, 0%, 0%)" fill-opacity="1" stroke-width="0.01" stroke-linecap="butt" stroke-linejoin="miter" stroke="rgb(0%, 0%, 0%)" stroke-opacity="1" stroke-miterlimit="10" d="M 252.925781 335.820312 C 252.925781 337.15625 250.925781 337.15625 250.925781 335.820312 C 250.925781 334.488281 252.925781 334.488281 252.925781 335.820312 "/>
<path fill-rule="nonzero" fill="rgb(100%, 0%, 0%)" fill-opacity="1" stroke-width="0.01" stroke-linecap="butt" stroke-linejoin="miter" stroke="rgb(0%, 0%, 0%)" stroke-opacity="1" stroke-miterlimit="10" d="M 148.464844 250.320312 C 148.464844 251.65625 146.464844 251.65625 146.464844 250.320312 C 146.464844 248.988281 148.464844 248.988281 148.464844 250.320312 "/>
<path fill-rule="nonzero" fill="rgb(100%, 0%, 0%)" fill-opacity="1" stroke-width="0.01" stroke-linecap="butt" stroke-linejoin="miter" stroke="rgb(0%, 0%, 0%)" stroke-opacity="1" stroke-miterlimit="10" d="M 277.699219 359.390625 C 277.699219 360.722656 275.699219 360.722656 275.699219 359.390625 C 275.699219 358.058594 277.699219 358.058594 277.699219 359.390625 "/>
<path fill-rule="nonzero" fill="rgb(100%, 0%, 0%)" fill-opacity="1" stroke-width="0.01" stroke-linecap="butt" stroke-linejoin="miter" stroke="rgb(0%, 0%, 0%)" stroke-opacity="1" stroke-miterlimit="10" d="M 236.386719 176.019531 C 236.386719 177.355469 234.386719 177.355469 234.386719 176.019531 C 234.386719 174.6875 236.386719 174.6875 236.386719 176.019531 "/>
<path fill-rule="nonzero" fill="rgb(100%, 0%, 0%)" fill-opacity="1" stroke-width="0.01" stroke-linecap="butt" stroke-linejoin="miter" stroke="rgb(0%, 0%, 0%)" stroke-opacity="1" stroke-miterlimit="10" d="M 164.75 278.203125 C 164.75 279.539062 162.75 279.539062 162.75 278.203125 C 162.75 276.871094 164.75 276.871094 164.75 278.203125 "/>
<path fill-rule="nonzero" fill="rgb(100%, 0%, 0%)" fill-opacity="1" stroke-width="0.01" stroke-linecap="butt" stroke-linejoin="miter" stroke="rgb(0%, 0%, 0%)" stroke-opacity="1" stroke-miterlimit="10" d="M 86.625 397.925781 C 86.625 399.257812 84.625 399.257812 84.625 397.925781 C 84.625 396.59375 86.625 396.59375 86.625 397.925781 "/>
<path fill-rule="nonzero" fill="rgb(100%, 0%, 0%)" fill-opacity="1" stroke-width="0.01" stroke-linecap="butt" stroke-linejoin="miter" stroke="rgb(0%, 0%, 0%)" stroke-opacity="1" stroke-miterlimit="10" d="M 433.324219 95.796875 C 433.324219 97.128906 431.324219 97.128906 431.324219 95.796875 C 431.324219 94.464844 433.324219 94.464844 433.324219 95.796875 "/>
<path fill-rule="nonzero" fill="rgb(100%, 0%, 0%)" fill-opacity="1" stroke-width="0.01" stroke-linecap="butt" stroke-linejoin="miter" stroke="rgb(0%, 0%, 0%)" stroke-opacity="1" stroke-miterlimit="10" d="M 448.402344 164.855469 C 448.402344 166.191406 446.402344 166.191406 446.402344 164.855469 C 446.402344 163.523438 448.402344 163.523438 448.402344 164.855469 "/>
<path fill-rule="nonzero" fill="rgb(100%, 0%, 0%)" fill-opacity="1" stroke-width="0.01" stroke-linecap="butt" stroke-linejoin="miter" stroke="rgb(0%, 0%, 0%)" stroke-opacity="1" stroke-miterlimit="10" d="M 117.875 365.3125 C 117.875 366.648438 115.875 366.648438 115.875 365.3125 C 115.875 363.980469 117.875 363.980469 117.875 365.3125 "/>
<path fill-rule="nonzero" fill="rgb(100%, 0%, 0%)" fill-opacity="1" stroke-width="0.01" stroke-linecap="butt" stroke-linejoin="miter" stroke="rgb(0%, 0%, 0%)" stroke-opacity="1" stroke-miterlimit="10" d="M 462.507812 260.472656 C 462.507812 261.804688 460.507812 261.804688 460.507812 260.472656 C 460.507812 259.136719 462.507812 259.136719 462.507812 260.472656 "/>
<path fill-rule="nonzero" fill="rgb(100%, 0%, 0%)" fill-opacity="1" stroke-width="0.01" stroke-linecap="butt" stroke-linejoin="miter" stroke="rgb(0%, 0%, 0%)" stroke-opacity="1" stroke-miterlimit="10" d="M 363.109375 327.929688 C 363.109375 329.261719 361.109375 329.261719 361.109375 327.929688 C 361.109375 326.597656 363.109375 326.597656 363.109375 327.929688 "/>
<path fill-rule="nonzero" fill="rgb(100%, 0%, 0%)" fill-opacity="1" stroke-width="0.01" stroke-linecap="butt" stroke-linejoin="miter" stroke="rgb(0%, 0%, 0%)" stroke-opacity="1" stroke-miterlimit="10" d="M 484.054688 368.835938 C 484.054688 370.167969 482.054688 370.167969 482.054688 368.835938 C 482.054688 367.5 484.054688 367.5 484.054688 368.835938 "/>
<path fill-rule="nonzero" fill="rgb(100%, 0%, 0%)" fill-opacity="1" stroke-width="0.01" stroke-linecap="butt" stroke-linejoin="miter" stroke="rgb(0%, 0%, 0%)" stroke-opacity="1" stroke-miterlimit="10" d="M 568.46875 263.46875 C 568.46875 264.804688 566.46875 264.804688 566.46875 263.46875 C 566.46875 262.136719 568.46875 262.136719 568.46875 263.46875 "/>
<path fill-rule="nonzero" fill="rgb(100%, 0%, 0%)" fill-opacity="1" stroke-width="0.01" stroke-linecap="butt" stroke-linejoin="miter" stroke="rgb(0%, 0%, 0%)" stroke-opacity="1" stroke-miterlimit="10" d="M 145.863281 532.90625 C 145.863281 534.238281 143.863281 534.238281 143.863281 532.90625 C 143.863281 531.574219 145.863281 531.574219 145.863281 532.90625 "/>
<path fill-rule="nonzero" fill="rgb(100%, 0%, 0%)" fill-opacity="1" stroke-width="0.01" stroke-linecap="butt" stroke-linejoin="miter" stroke="rgb(0%, 0%, 0%)" stroke-opacity="1" stroke-miterlimit="10" d="M 369.460938 400.414062 C 369.460938 401.75 367.460938 401.75 367.460938 400.414062 C 367.460938 399.082031 369.460938 399.082031 369.460938 400.414062 "/>
<path fill-rule="nonzero" fill="rgb(100%, 0%, 0%)" fill-opacity="1" stroke-width="0.01" stroke-linecap="butt" stroke-linejoin="miter" stroke="rgb(0%, 0%, 0%)" stroke-opacity="1" stroke-miterlimit="10" d="M 370.59375 295.539062 C 370.59375 296.875 368.59375 296.875 368.59375 295.539062 C 368.59375 294.207031 370.59375 294.207031 370.59375 295.539062 "/>
<path fill-rule="nonzero" fill="rgb(100%, 0%, 0%)" fill-opacity="1" stroke-width="0.01" stroke-linecap="butt" stroke-linejoin="miter" stroke="rgb(0%, 0%, 0%)" stroke-opacity="1" stroke-miterlimit="10" d="M 224.636719 91.714844 C 224.636719 93.046875 222.636719 93.046875 222.636719 91.714844 C 222.636719 90.382812 224.636719 90.382812 224.636719 91.714844 "/>
<path fill-rule="nonzero" fill="rgb(100%, 0%, 0%)" fill-opacity="1" stroke-width="0.01" stroke-linecap="butt" stroke-linejoin="miter" stroke="rgb(0%, 0%, 0%)" stroke-opacity="1" stroke-miterlimit="10" d="M 123.164062 438.613281 C 123.164062 439.945312 121.164062 439.945312 121.164062 438.613281 C 121.164062 437.277344 123.164062 437.277344 123.164062 438.613281 "/>
<path fill-rule="nonzero" fill="rgb(100%, 0%, 0%)" fill-opacity="1" stroke-width="0.01" stroke-linecap="butt" stroke-linejoin="miter" stroke="rgb(0%, 0%, 0%)" stroke-opacity="1" stroke-miterlimit="10" d="M 483.699219 157.136719 C 483.699219 158.46875 481.699219 158.46875 481.699219 157.136719 C 481.699219 155.804688 483.699219 155.804688 483.699219 157.136719 "/>
<path fill-rule="nonzero" fill="rgb(100%, 0%, 0%)" fill-opacity="1" stroke-width="0.01" stroke-linecap="butt" stroke-linejoin="miter" stroke="rgb(0%, 0%, 0%)" stroke-opacity="1" stroke-miterlimit="10" d="M 60.808594 316.101562 C 60.808594 317.433594 58.808594 317.433594 58.808594 316.101562 C 58.808594 314.769531 60.808594 314.769531 60.808594 316.101562 "/>
<path fill-rule="nonzero" fill="rgb(100%, 0%, 0%)" fill-opacity="1" stroke-width="0.01" stroke-linecap="butt" stroke-linejoin="miter" stroke="rgb(0%, 0%, 0%)" stroke-opacity="1" stroke-miterlimit="10" d="M 381.535156 529.421875 C 381.535156 530.753906 379.535156 530.753906 379.535156 529.421875 C 379.535156 528.089844 381.535156 528.089844 381.535156 529.421875 "/>
<path fill-rule="nonzero" fill="rgb(100%, 0%, 0%)" fill-opacity="1" stroke-width="0.01" stroke-linecap="butt" stroke-linejoin="miter" stroke="rgb(0%, 0%, 0%)" stroke-opacity="1" stroke-miterlimit="10" d="M 367.972656 362.140625 C 367.972656 363.472656 365.972656 363.472656 365.972656 362.140625 C 365.972656 360.808594 367.972656 360.808594 367.972656 362.140625 "/>
<path fill-rule="nonzero" fill="rgb(100%, 0%, 0%)" fill-opacity="1" stroke-width="0.01" stroke-linecap="butt" stroke-linejoin="miter" stroke="rgb(0%, 0%, 0%)" stroke-opacity="1" stroke-miterlimit="10" d="M 479.996094 193.996094 C 479.996094 195.328125 477.996094 195.328125 477.996094 193.996094 C 477.996094 192.664062 479.996094 192.664062 479.996094 193.996094 "/>
<path fill-rule="nonzero" fill="rgb(100%, 0%, 0%)" fill-opacity="1" stroke-width="0.01" stroke-linecap="butt" stroke-linejoin="miter" stroke="rgb(0%, 0%, 0%)" stroke-opacity="1" stroke-miterlimit="10" d="M 150.949219 127.046875 C 150.949219 128.382812 148.949219 128.382812 148.949219 127.046875 C 148.949219 125.714844 150.949219 125.714844 150.949219 127.046875 "/>
<path fill-rule="nonzero" fill="rgb(100%, 0%, 0%)" fill-opacity="1" stroke-width="0.01" stroke-linecap="butt" stroke-linejoin="miter" stroke="rgb(0%, 0%, 0%)" stroke-opacity="1" stroke-miterlimit="10" d="M 507.289062 324.207031 C 507.289062 325.542969 505.289062 325.542969 505.289062 324.207031 C 505.289062 322.875 507.289062 322.875 507.289062 324.207031 "/>
<path fill-rule="nonzero" fill="rgb(100%, 0%, 0%)" fill-opacity="1" stroke-width="0.01" stroke-linecap="butt" stroke-linejoin="miter" stroke="rgb(0%, 0%, 0%)" stroke-opacity="1" stroke-miterlimit="10" d="M 429.96875 271.816406 C 429.96875 273.148438 427.96875 273.148438 427.96875 271.816406 C 427.96875 270.480469 429.96875 270.480469 429.96875 271.816406 "/>
<path fill-rule="nonzero" fill="rgb(100%, 0%, 0%)" fill-opacity="1" stroke-width="0.01" stroke-linecap="butt" stroke-linejoin="miter" stroke="rgb(0%, 0%, 0%)" stroke-opacity="1" stroke-miterlimit="10" d="M 207.886719 299.96875 C 207.886719 301.300781 205.886719 301.300781 205.886719 299.96875 C 205.886719 298.632812 207.886719 298.632812 207.886719 299.96875 "/>
<path fill-rule="nonzero" fill="rgb(100%, 0%, 0%)" fill-opacity="1" stroke-width="0.01" stroke-linecap="butt" stroke-linejoin="miter" stroke="rgb(0%, 0%, 0%)" stroke-opacity="1" stroke-miterlimit="10" d="M 406.265625 496.042969 C 406.265625 497.375 404.265625 497.375 404.265625 496.042969 C 404.265625 494.710938 406.265625 494.710938 406.265625 496.042969 "/>
<path fill-rule="nonzero" fill="rgb(100%, 0%, 0%)" fill-opacity="1" stroke-width="0.01" stroke-linecap="butt" stroke-linejoin="miter" stroke="rgb(0%, 0%, 0%)" stroke-opacity="1" stroke-miterlimit="10" d="M 331.550781 327.144531 C 331.550781 328.480469 329.550781 328.480469 329.550781 327.144531 C 329.550781 325.8125 331.550781 325.8125 331.550781 327.144531 "/>
<path fill-rule="nonzero" fill="rgb(100%, 0%, 0%)" fill-opacity="1" stroke-width="0.01" stroke-linecap="butt" stroke-linejoin="miter" stroke="rgb(0%, 0%, 0%)" stroke-opacity="1" stroke-miterlimit="10" d="M 311.535156 382.304688 C 311.535156 383.636719 309.535156 383.636719 309.535156 382.304688 C 309.535156 380.96875 311.535156 380.96875 311.535156 382.304688 "/>
<path fill-rule="nonzero" fill="rgb(100%, 0%, 0%)" fill-opacity="1" stroke-width="0.01" stroke-linecap="butt" stroke-linejoin="miter" stroke="rgb(0%, 0%, 0%)" stroke-opacity="1" stroke-miterlimit="10" d="M 567.980469 409.40625 C 567.980469 410.742188 565.980469 410.742188 565.980469 409.40625 C 565.980469 408.074219 567.980469 408.074219 567.980469 409.40625 "/>
<path fill-rule="nonzero" fill="rgb(100%, 0%, 0%)" fill-opacity="1" stroke-width="0.01" stroke-linecap="butt" stroke-linejoin="miter" stroke="rgb(0%, 0%, 0%)" stroke-opacity="1" stroke-miterlimit="10" d="M 513.222656 435.0625 C 513.222656 436.398438 511.222656 436.398438 511.222656 435.0625 C 511.222656 433.730469 513.222656 433.730469 513.222656 435.0625 "/>
<path fill-rule="nonzero" fill="rgb(100%, 0%, 0%)" fill-opacity="1" stroke-width="0.01" stroke-linecap="butt" stroke-linejoin="miter" stroke="rgb(0%, 0%, 0%)" stroke-opacity="1" stroke-miterlimit="10" d="M 268.410156 452.820312 C 268.410156 454.152344 266.410156 454.152344 266.410156 452.820312 C 266.410156 451.484375 268.410156 451.484375 268.410156 452.820312 "/>
<path fill-rule="nonzero" fill="rgb(100%, 0%, 0%)" fill-opacity="1" stroke-width="0.01" stroke-linecap="butt" stroke-linejoin="miter" stroke="rgb(0%, 0%, 0%)" stroke-opacity="1" stroke-miterlimit="10" d="M 133.796875 332.832031 C 133.796875 334.164062 131.796875 334.164062 131.796875 332.832031 C 131.796875 331.496094 133.796875 331.496094 133.796875 332.832031 "/>
<path fill-rule="nonzero" fill="rgb(100%, 0%, 0%)" fill-opacity="1" stroke-width="0.01" stroke-linecap="butt" stroke-linejoin="miter" stroke="rgb(0%, 0%, 0%)" stroke-opacity="1" stroke-miterlimit="10" d="M 581 302.148438 C 581 303.484375 579 303.484375 579 302.148438 C 579 300.816406 581 300.816406 581 302.148438 "/>
<path fill-rule="nonzero" fill="rgb(100%, 0%, 0%)" fill-opacity="1" stroke-width="0.01" stroke-linecap="butt" stroke-linejoin="miter" stroke="rgb(0%, 0%, 0%)" stroke-opacity="1" stroke-miterlimit="10" d="M 222.621094 26.496094 C 222.621094 27.832031 220.621094 27.832031 220.621094 26.496094 C 220.621094 25.164062 222.621094 25.164062 222.621094 26.496094 "/>
<path fill-rule="nonzero" fill="rgb(100%, 0%, 0%)" fill-opacity="1" stroke-width="0.01" stroke-linecap="butt" stroke-linejoin="miter" stroke="rgb(0%, 0%, 0%)" stroke-opacity="1" stroke-miterlimit="10" d="M 251.523438 145.773438 C 251.523438 147.109375 249.523438 147.109375 249.523438 145.773438 C 249.523438 144.441406 251.523438 144.441406 251.523438 145.773438 "/>
<path fill-rule="nonzero" fill="rgb(100%, 0%, 0%)" fill-opacity="1" stroke-width="0.01" stroke-linecap="butt" stroke-linejoin="miter" stroke="rgb(0%, 0%, 0%)" stroke-opacity="1" stroke-miterlimit="10" d="M 386.335938 189.621094 C 386.335938 190.953125 384.335938 190.953125 384.335938 189.621094 C 384.335938 188.289062 386.335938 188.289062 386.335938 189.621094 "/>
<path fill-rule="nonzero" fill="rgb(100%, 0%, 0%)" fill-opacity="1" stroke-width="0.01" stroke-linecap="butt" stroke-linejoin="miter" stroke="rgb(0%, 0%, 0%)" stroke-opacity="1" stroke-miterlimit="10" d="M 359.683594 572.285156 C 359.683594 573.621094 357.683594 573.621094 357.683594 572.285156 C 357.683594 570.953125 359.683594 570.953125 359.683594 572.285156 "/>
<path fill-rule="nonzero" fill="rgb(100%, 0%, 0%)" fill-opacity="1" stroke-width="0.01" stroke-linecap="butt" stroke-linejoin="miter" stroke="rgb(0%, 0%, 0%)" stroke-opacity="1" stroke-miterlimit="10" d="M 189.253906 114.59375 C 189.253906 115.925781 187.253906 115.925781 187.253906 114.59375 C 187.253906 113.261719 189.253906 113.261719 189.253906 114.59375 "/>
<path fill-rule="nonzero" fill="rgb(100%, 0%, 0%)" fill-opacity="1" stroke-width="0.01" stroke-linecap="butt" stroke-linejoin="miter" stroke="rgb(0%, 0%, 0%)" stroke-opacity="1" stroke-miterlimit="10" d="M 483.5 294.949219 C 483.5 296.285156 481.5 296.285156 481.5 294.949219 C 481.5 293.617188 483.5 293.617188 483.5 294.949219 "/>
<path fill-rule="nonzero" fill="rgb(100%, 0%, 0%)" fill-opacity="1" stroke-width="0.01" stroke-linecap="butt" stroke-linejoin="miter" stroke="rgb(0%, 0%, 0%)" stroke-opacity="1" stroke-miterlimit="10" d="M 286.96875 329.011719 C 286.96875 330.34375 284.96875 330.34375 284.96875 329.011719 C 284.96875 327.675781 286.96875 327.675781 286.96875 329.011719 "/>
<path fill-rule="nonzero" fill="rgb(100%, 0%, 0%)" fill-opacity="1" stroke-width="0.01" stroke-linecap="butt" stroke-linejoin="miter" stroke="rgb(0%, 0%, 0%)" stroke-opacity="1" stroke-miterlimit="10" d="M 212.910156 333.386719 C 212.910156 334.722656 210.910156 334.722656 210.910156 333.386719 C 210.910156 332.054688 212.910156 332.054688 212.910156 333.386719 "/>
<path fill-rule="nonzero" fill="rgb(100%, 0%, 0%)" fill-opacity="1" stroke-width="0.01" stroke-linecap="butt" stroke-linejoin="miter" stroke="rgb(0%, 0%, 0%)" stroke-opacity="1" stroke-miterlimit="10" d="M 162.816406 87.328125 C 162.816406 88.660156 160.816406 88.660156 160.816406 87.328125 C 160.816406 85.996094 162.816406 85.996094 162.816406 87.328125 "/>
<path fill-rule="nonzero" fill="rgb(100%, 0%, 0%)" fill-opacity="1" stroke-width="0.01" stroke-linecap="butt" stroke-linejoin="miter" stroke="rgb(0%, 0%, 0%)" stroke-opacity="1" stroke-miterlimit="10" d="M 93.984375 297.429688 C 93.984375 298.761719 91.984375 298.761719 91.984375 297.429688 C 91.984375 296.097656 93.984375 296.097656 93.984375 297.429688 "/>
<path fill-rule="nonzero" fill="rgb(100%, 0%, 0%)" fill-opacity="1" stroke-width="0.01" stroke-linecap="butt" stroke-linejoin="miter" stroke="rgb(0%, 0%, 0%)" stroke-opacity="1" stroke-miterlimit="10" d="M 211.085938 238.460938 C 211.085938 239.796875 209.085938 239.796875 209.085938 238.460938 C 209.085938 237.128906 211.085938 237.128906 211.085938 238.460938 "/>
<path fill-rule="nonzero" fill="rgb(100%, 0%, 0%)" fill-opacity="1" stroke-width="0.01" stroke-linecap="butt" stroke-linejoin="miter" stroke="rgb(0%, 0%, 0%)" stroke-opacity="1" stroke-miterlimit="10" d="M 271.480469 234.210938 C 271.480469 235.546875 269.480469 235.546875 269.480469 234.210938 C 269.480469 232.878906 271.480469 232.878906 271.480469 234.210938 "/>
<path fill-rule="nonzero" fill="rgb(100%, 0%, 0%)" fill-opacity="1" stroke-width="0.01" stroke-linecap="butt" stroke-linejoin="miter" stroke="rgb(0%, 0%, 0%)" stroke-opacity="1" stroke-miterlimit="10" d="M 218.644531 550.136719 C 218.644531 551.46875 216.644531 551.46875 216.644531 550.136719 C 216.644531 548.800781 218.644531 548.800781 218.644531 550.136719 "/>
<path fill-rule="nonzero" fill="rgb(100%, 0%, 0%)" fill-opacity="1" stroke-width="0.01" stroke-linecap="butt" stroke-linejoin="miter" stroke="rgb(0%, 0%, 0%)" stroke-opacity="1" stroke-miterlimit="10" d="M 327.601562 452.207031 C 327.601562 453.542969 325.601562 453.542969 325.601562 452.207031 C 325.601562 450.875 327.601562 450.875 327.601562 452.207031 "/>
<path fill-rule="nonzero" fill="rgb(100%, 0%, 0%)" fill-opacity="1" stroke-width="0.01" stroke-linecap="butt" stroke-linejoin="miter" stroke="rgb(0%, 0%, 0%)" stroke-opacity="1" stroke-miterlimit="10" d="M 147.914062 217.691406 C 147.914062 219.023438 145.914062 219.023438 145.914062 217.691406 C 145.914062 216.359375 147.914062 216.359375 147.914062 217.691406 "/>
<path fill-rule="nonzero" fill="rgb(100%, 0%, 0%)" fill-opacity="1" stroke-width="0.01" stroke-linecap="butt" stroke-linejoin="miter" stroke="rgb(0%, 0%, 0%)" stroke-opacity="1" stroke-miterlimit="10" d="M 537.929688 388.074219 C 537.929688 389.410156 535.929688 389.410156 535.929688 388.074219 C 535.929688 386.742188 537.929688 386.742188 537.929688 388.074219 "/>
<path fill-rule="nonzero" fill="rgb(100%, 0%, 0%)" fill-opacity="1" stroke-width="0.01" stroke-linecap="butt" stroke-linejoin="miter" stroke="rgb(0%, 0%, 0%)" stroke-opacity="1" stroke-miterlimit="10" d="M 282.894531 579.519531 C 282.894531 580.855469 280.894531 580.855469 280.894531 579.519531 C 280.894531 578.1875 282.894531 578.1875 282.894531 579.519531 "/>
<path fill-rule="nonzero" fill="rgb(100%, 0%, 0%)" fill-opacity="1" stroke-width="0.01" stroke-linecap="butt" stroke-linejoin="miter" stroke="rgb(0%, 0%, 0%)" stroke-opacity="1" stroke-miterlimit="10" d="M 253.523438 63.335938 C 253.523438 64.667969 251.523438 64.667969 251.523438 63.335938 C 251.523438 62.003906 253.523438 62.003906 253.523438 63.335938 "/>
<path fill-rule="nonzero" fill="rgb(100%, 0%, 0%)" fill-opacity="1" stroke-width="0.01" stroke-linecap="butt" stroke-linejoin="miter" stroke="rgb(0%, 0%, 0%)" stroke-opacity="1" stroke-miterlimit="10" d="M 289.820312 110.683594 C 289.820312 112.015625 287.820312 112.015625 287.820312 110.683594 C 287.820312 109.347656 289.820312 109.347656 289.820312 110.683594 "/>
<path fill-rule="nonzero" fill="rgb(100%, 0%, 0%)" fill-opacity="1" stroke-width="0.01" stroke-linecap="butt" stroke-linejoin="miter" stroke="rgb(0%, 0%, 0%)" stroke-opacity="1" stroke-miterlimit="10" d="M 316.269531 274.96875 C 316.269531 276.300781 314.269531 276.300781 314.269531 274.96875 C 314.269531 273.632812 316.269531 273.632812 316.269531 274.96875 "/>
<path fill-rule="nonzero" fill="rgb(100%, 0%, 0%)" fill-opacity="1" stroke-width="0.01" stroke-linecap="butt" stroke-linejoin="miter" stroke="rgb(0%, 0%, 0%)" stroke-opacity="1" stroke-miterlimit="10" d="M 77.097656 360.890625 C 77.097656 362.222656 75.097656 362.222656 75.097656 360.890625 C 75.097656 359.558594 77.097656 359.558594 77.097656 360.890625 "/>
<path fill-rule="nonzero" fill="rgb(100%, 0%, 0%)" fill-opacity="1" stroke-width="0.01" stroke-linecap="butt" stroke-linejoin="miter" stroke="rgb(0%, 0%, 0%)" stroke-opacity="1" stroke-miterlimit="10" d="M 316.65625 140.804688 C 316.65625 142.136719 314.65625 142.136719 314.65625 140.804688 C 314.65625 139.46875 316.65625 139.46875 316.65625 140.804688 "/>
<path fill-rule="nonzero" fill="rgb(100%, 0%, 0%)" fill-opacity="1" stroke-width="0.01" stroke-linecap="butt" stroke-linejoin="miter" stroke="rgb(0%, 0%, 0%)" stroke-opacity="1" stroke-miterlimit="10" d="M 178.21875 339.425781 C 178.21875 340.761719 176.21875 340.761719 176.21875 339.425781 C 176.21875 338.09375 178.21875 338.09375 178.21875 339.425781 "/>
<path fill-rule="nonzero" fill="rgb(100%, 0%, 0%)" fill-opacity="1" stroke-width="0.01" stroke-linecap="butt" stroke-linejoin="miter" stroke="rgb(0%, 0%, 0%)" stroke-opacity="1" stroke-miterlimit="10" d="M 255.035156 381.546875 C 255.035156 382.882812 253.035156 382.882812 253.035156 381.546875 C 253.035156 380.214844 255.035156 380.214844 255.035156 381.546875 "/>
<path fill-rule="nonzero" fill="rgb(100%, 0%, 0%)" fill-opacity="1" stroke-width="0.01" stroke-linecap="butt" stroke-linejoin="miter" stroke="rgb(0%, 0%, 0%)" stroke-opacity="1" stroke-miterlimit="10" d="M 216.300781 470.597656 C 216.300781 471.929688 214.300781 471.929688 214.300781 470.597656 C 214.300781 469.261719 216.300781 469.261719 216.300781 470.597656 "/>
<path fill-rule="nonzero" fill="rgb(100%, 0%, 0%)" fill-opacity="1" stroke-width="0.01" stroke-linecap="butt" stroke-linejoin="miter" stroke="rgb(0%, 0%, 0%)" stroke-opacity="1" stroke-miterlimit="10" d="M 522.292969 143.015625 C 522.292969 144.351562 520.292969 144.351562 520.292969 143.015625 C 520.292969 141.683594 522.292969 141.683594 522.292969 143.015625 "/>
<path fill-rule="nonzero" fill="rgb(100%, 0%, 0%)" fill-opacity="1" stroke-width="0.01" stroke-linecap="butt" stroke-linejoin="miter" stroke="rgb(0%, 0%, 0%)" stroke-opacity="1" stroke-miterlimit="10" d="M 162.964844 188.808594 C 162.964844 190.144531 160.964844 190.144531 160.964844 188.808594 C 160.964844 187.476562 162.964844 187.476562 162.964844 188.808594 "/>
<path fill-rule="nonzero" fill="rgb(100%, 0%, 0%)" fill-opacity="1" stroke-width="0.01" stroke-linecap="butt" stroke-linejoin="miter" stroke="rgb(0%, 0%, 0%)" stroke-opacity="1" stroke-miterlimit="10" d="M 297.042969 248.113281 C 297.042969 249.445312 295.042969 249.445312 295.042969 248.113281 C 295.042969 246.777344 297.042969 246.777344 297.042969 248.113281 "/>
<path fill-rule="nonzero" fill="rgb(100%, 0%, 0%)" fill-opacity="1" stroke-width="0.01" stroke-linecap="butt" stroke-linejoin="miter" stroke="rgb(0%, 0%, 0%)" stroke-opacity="1" stroke-miterlimit="10" d="M 96.40625 160.125 C 96.40625 161.460938 94.40625 161.460938 94.40625 160.125 C 94.40625 158.792969 96.40625 158.792969 96.40625 160.125 "/>
<path fill-rule="nonzero" fill="rgb(100%, 0%, 0%)" fill-opacity="1" stroke-width="0.01" stroke-linecap="butt" stroke-linejoin="miter" stroke="rgb(0%, 0%, 0%)" stroke-opacity="1" stroke-miterlimit="10" d="M 243.703125 580 C 243.703125 581.332031 241.703125 581.332031 241.703125 580 C 241.703125 578.667969 243.703125 578.667969 243.703125 580 "/>
<path fill-rule="nonzero" fill="rgb(100%, 0%, 0%)" fill-opacity="1" stroke-width="0.01" stroke-linecap="butt" stroke-linejoin="miter" stroke="rgb(0%, 0%, 0%)" stroke-opacity="1" stroke-miterlimit="10" d="M 481.210938 230.050781 C 481.210938 231.382812 479.210938 231.382812 479.210938 230.050781 C 479.210938 228.714844 481.210938 228.714844 481.210938 230.050781 "/>
<path fill-rule="nonzero" fill="rgb(100%, 0%, 0%)" fill-opacity="1" stroke-width="0.01" stroke-linecap="butt" stroke-linejoin="miter" stroke="rgb(0%, 0%, 0%)" stroke-opacity="1" stroke-miterlimit="10" d="M 114.097656 234.03125 C 114.097656 235.363281 112.097656 235.363281 112.097656 234.03125 C 112.097656 232.695312 114.097656 232.695312 114.097656 234.03125 "/>
<path fill-rule="nonzero" fill="rgb(100%, 0%, 0%)" fill-opacity="1" stroke-width="0.01" stroke-linecap="butt" stroke-linejoin="miter" stroke="rgb(0%, 0%, 0%)" stroke-opacity="1" stroke-miterlimit="10" d="M 462.640625 415.480469 C 462.640625 416.816406 460.640625 416.816406 460.640625 415.480469 C 460.640625 414.148438 462.640625 414.148438 462.640625 415.480469 "/>
</svg>
