<?xml version="1.0" encoding="UTF-8"?>
<svg xmlns="http://www.w3.org/2000/svg" xmlns:xlink="http://www.w3.org/1999/xlink" width="600pt" height="600pt" viewBox="0 0 600 600" version="1.1">
<g id="surface1">
<rect x="0" y="0" width="600" height="600" style="fill:rgb(100%,100%,100%);fill-opacity:1;stroke:none;"/>
<path style="fill:none;stroke-width:0.2;stroke-linecap:butt;stroke-linejoin:miter;stroke:rgb(26.666667%,26.666667%,26.666667%);stroke-opacity:1;stroke-miterlimit:10;" d="M 358.054688 417.765625 L 363.652344 408.480469 "/>
<path style="fill:none;stroke-width:0.2;stroke-linecap:butt;stroke-linejoin:miter;stroke:rgb(26.666667%,26.666667%,26.666667%);stroke-opacity:1;stroke-miterlimit:10;" d="M 368.582031 515.054688 L 358.257812 519.210938 "/>
<path style="fill:none;stroke-width:0.2;stroke-linecap:butt;stroke-linejoin:miter;stroke:rgb(26.666667%,26.666667%,26.666667%);stroke-opacity:1;stroke-miterlimit:10;" d="M 97.65625 201.148438 L 88.738281 207.660156 "/>
<path style="fill:none;stroke-width:0.2;stroke-linecap:butt;stroke-linejoin:miter;stroke:rgb(26.666667%,26.666667%,26.666667%);stroke-opacity:1;stroke-miterlimit:10;" d="M 308.445312 65.789062 L 317.25 72.472656 "/>
<path style="fill:none;stroke-width:0.2;stroke-linecap:butt;stroke-linejoin:miter;stroke:rgb(26.666667%,26.666667%,26.666667%);stroke-opacity:1;stroke-miterlimit:10;" d="M 248.945312 38.636719 L 248.148438 27.734375 "/>
<path style="fill:none;stroke-width:0.2;stroke-linecap:butt;stroke-linejoin:miter;stroke:rgb(26.666667%,26.666667%,26.666667%);stroke-opacity:1;stroke-miterlimit:10;" d="M 238.929688 506.90625 L 244.0625 497.257812 "/>
<path style="fill:none;stroke-width:0.2;stroke-linecap:butt;stroke-linejoin:miter;stroke:rgb(26.666667%,26.666667%,26.666667%);stroke-opacity:1;stroke-miterlimit:10;" d="M 305.667969 138.90625 L 314.382812 145.644531 "/>
<path style="fill:none;stroke-width:0.2;stroke-linecap:butt;stroke-linejoin:miter;stroke:rgb(26.666667%,26.666667%,26.666667%);stroke-opacity:1;stroke-miterlimit:10;" d="M 419.640625 164.515625 L 429.976562 160.078125 "/>
<path style="fill:none;stroke-width:0.2;stroke-linecap:butt;stroke-linejoin:miter;stroke:rgb(26.666667%,26.666667%,26.666667%);stroke-opacity:1;stroke-miterlimit:10;" d="M 129.066406 518.847656 L 126.085938 508.273438 "/>
<path style="fill:none;stroke-width:0.2;stroke-linecap:butt;stroke-linejoin:miter;stroke:rgb(26.666667%,26.666667%,26.666667%);stroke-opacity:1;stroke-miterlimit:10;" d="M 70.164062 328.710938 L 87.417969 334.289062 "/>
<path style="fill:none;stroke-width:0.2;stroke-linecap:butt;stroke-linejoin:miter;stroke:rgb(26.666667%,26.666667%,26.666667%);stroke-opacity:1;stroke-miterlimit:10;" d="M 358.847656 467.191406 L 356.945312 456.4375 "/>
<path style="fill:none;stroke-width:0.2;stroke-linecap:butt;stroke-linejoin:miter;stroke:rgb(26.666667%,26.666667%,26.666667%);stroke-opacity:1;stroke-miterlimit:10;" d="M 79.828125 407.0625 L 89.160156 391.996094 "/>
<path style="fill:none;stroke-width:0.2;stroke-linecap:butt;stroke-linejoin:miter;stroke:rgb(26.666667%,26.666667%,26.666667%);stroke-opacity:1;stroke-miterlimit:10;" d="M 126.667969 444.851562 L 134.125 436.621094 "/>
<path style="fill:none;stroke-width:0.2;stroke-linecap:butt;stroke-linejoin:miter;stroke:rgb(26.666667%,26.666667%,26.666667%);stroke-opacity:1;stroke-miterlimit:10;" d="M 267.09375 261.464844 L 262.210938 251.761719 "/>
<path style="fill:none;stroke-width:0.2;stroke-linecap:butt;stroke-linejoin:miter;stroke:rgb(26.666667%,26.666667%,26.666667%);stroke-opacity:1;stroke-miterlimit:10;" d="M 529.261719 472.421875 L 521.34375 480.296875 "/>
<path style="fill:none;stroke-width:0.2;stroke-linecap:butt;stroke-linejoin:miter;stroke:rgb(26.666667%,26.666667%,26.666667%);stroke-opacity:1;stroke-miterlimit:10;" d="M 135.855469 78.609375 L 124.921875 81.210938 "/>
<path style="fill:none;stroke-width:0.2;stroke-linecap:butt;stroke-linejoin:miter;stroke:rgb(26.666667%,26.666667%,26.666667%);stroke-opacity:1;stroke-miterlimit:10;" d="M 181.324219 527.488281 L 184.394531 538.023438 "/>
<path style="fill:none;stroke-width:0.2;stroke-linecap:butt;stroke-linejoin:miter;stroke:rgb(26.666667%,26.666667%,26.666667%);stroke-opacity:1;stroke-miterlimit:10;" d="M 404.78125 413.074219 L 415.808594 414.488281 "/>
<path style="fill:none;stroke-width:0.2;stroke-linecap:butt;stroke-linejoin:miter;stroke:rgb(26.666667%,26.666667%,26.666667%);stroke-opacity:1;stroke-miterlimit:10;" d="M 219.789062 204.5 L 210.183594 209.921875 "/>
<path style="fill:none;stroke-width:0.2;stroke-linecap:butt;stroke-linejoin:miter;stroke:rgb(26.666667%,26.666667%,26.666667%);stroke-opacity:1;stroke-miterlimit:10;" d="M 123.691406 303.355469 L 116.945312 294.582031 "/>
<path style="fill:none;stroke-width:0.2;stroke-linecap:butt;stroke-linejoin:miter;stroke:rgb(26.666667%,26.666667%,26.666667%);stroke-opacity:1;stroke-miterlimit:10;" d="M 277.050781 469.804688 L 279.953125 480.355469 "/>
<path style="fill:none;stroke-width:0.2;stroke-linecap:butt;stroke-linejoin:miter;stroke:rgb(26.666667%,26.666667%,26.666667%);stroke-opacity:1;stroke-miterlimit:10;" d="M 399.582031 89.582031 L 388.464844 91.390625 "/>
<path style="fill:none;stroke-width:0.2;stroke-linecap:butt;stroke-linejoin:miter;stroke:rgb(26.666667%,26.666667%,26.666667%);stroke-opacity:1;stroke-miterlimit:10;" d="M 429.90625 288.40625 L 440.851562 286.199219 "/>
<path style="fill:none;stroke-width:0.2;stroke-linecap:butt;stroke-linejoin:miter;stroke:rgb(26.666667%,26.666667%,26.666667%);stroke-opacity:1;stroke-miterlimit:10;" d="M 157.441406 272.292969 L 146.988281 268.230469 "/>
<path style="fill:none;stroke-width:0.2;stroke-linecap:butt;stroke-linejoin:miter;stroke:rgb(26.666667%,26.666667%,26.666667%);stroke-opacity:1;stroke-miterlimit:10;" d="M 559.40625 303.792969 L 566.398438 295.269531 "/>
<path style="fill:none;stroke-width:0.2;stroke-linecap:butt;stroke-linejoin:miter;stroke:rgb(26.666667%,26.666667%,26.666667%);stroke-opacity:1;stroke-miterlimit:10;" d="M 310.394531 185.210938 L 313.8125 195.460938 "/>
<path style="fill:none;stroke-width:0.2;stroke-linecap:butt;stroke-linejoin:miter;stroke:rgb(26.666667%,26.666667%,26.666667%);stroke-opacity:1;stroke-miterlimit:10;" d="M 76.4375 394.335938 L 92.078125 403.351562 "/>
<path style="fill:none;stroke-width:0.2;stroke-linecap:butt;stroke-linejoin:miter;stroke:rgb(26.666667%,26.666667%,26.666667%);stroke-opacity:1;stroke-miterlimit:10;" d="M 21.589844 312.046875 L 20.132812 323.027344 "/>
<path style="fill:none;stroke-width:0.2;stroke-linecap:butt;stroke-linejoin:miter;stroke:rgb(26.666667%,26.666667%,26.666667%);stroke-opacity:1;stroke-miterlimit:10;" d="M 189.921875 171.585938 L 200.738281 168.734375 "/>
<path style="fill:none;stroke-width:0.2;stroke-linecap:butt;stroke-linejoin:miter;stroke:rgb(26.666667%,26.666667%,26.666667%);stroke-opacity:1;stroke-miterlimit:10;" d="M 222.582031 290.238281 L 237.835938 299.921875 "/>
<path style="fill:none;stroke-width:0.2;stroke-linecap:butt;stroke-linejoin:miter;stroke:rgb(26.666667%,26.666667%,26.666667%);stroke-opacity:1;stroke-miterlimit:10;" d="M 492.960938 443.3125 L 485.820312 434.980469 "/>
<path style="fill:none;stroke-width:0.2;stroke-linecap:butt;stroke-linejoin:miter;stroke:rgb(26.666667%,26.666667%,26.666667%);stroke-opacity:1;stroke-miterlimit:10;" d="M 259.535156 555.355469 L 245.285156 566.386719 "/>
<path style="fill:none;stroke-width:0.2;stroke-linecap:butt;stroke-linejoin:miter;stroke:rgb(26.666667%,26.666667%,26.666667%);stroke-opacity:1;stroke-miterlimit:10;" d="M 428.351562 200.632812 L 439.429688 200.136719 "/>
<path style="fill:none;stroke-width:0.2;stroke-linecap:butt;stroke-linejoin:miter;stroke:rgb(26.666667%,26.666667%,26.666667%);stroke-opacity:1;stroke-miterlimit:10;" d="M 180.136719 115.378906 L 185.636719 124.96875 "/>
<path style="fill:none;stroke-width:0.2;stroke-linecap:butt;stroke-linejoin:miter;stroke:rgb(26.666667%,26.666667%,26.666667%);stroke-opacity:1;stroke-miterlimit:10;" d="M 513.378906 304.914062 L 513.167969 315.757812 "/>
<path style="fill:none;stroke-width:0.2;stroke-linecap:butt;stroke-linejoin:miter;stroke:rgb(26.666667%,26.666667%,26.666667%);stroke-opacity:1;stroke-miterlimit:10;" d="M 82.066406 322.828125 L 76.492188 339.480469 "/>
<path style="fill:none;stroke-width:0.2;stroke-linecap:butt;stroke-linejoin:miter;stroke:rgb(26.666667%,26.666667%,26.666667%);stroke-opacity:1;stroke-miterlimit:10;" d="M 185.789062 58.105469 L 196.210938 54.054688 "/>
<path style="fill:none;stroke-width:0.2;stroke-linecap:butt;stroke-linejoin:miter;stroke:rgb(26.666667%,26.666667%,26.666667%);stroke-opacity:1;stroke-miterlimit:10;" d="M 283.355469 301.667969 L 282.976562 312.476562 "/>
<path style="fill:none;stroke-width:0.2;stroke-linecap:butt;stroke-linejoin:miter;stroke:rgb(26.666667%,26.666667%,26.666667%);stroke-opacity:1;stroke-miterlimit:10;" d="M 429.558594 375.328125 L 429.894531 364.5 "/>
<path style="fill:none;stroke-width:0.2;stroke-linecap:butt;stroke-linejoin:miter;stroke:rgb(26.666667%,26.666667%,26.666667%);stroke-opacity:1;stroke-miterlimit:10;" d="M 456.742188 496.097656 L 445.671875 498.339844 "/>
<path style="fill:none;stroke-width:0.2;stroke-linecap:butt;stroke-linejoin:miter;stroke:rgb(26.666667%,26.666667%,26.666667%);stroke-opacity:1;stroke-miterlimit:10;" d="M 71.753906 462.019531 L 78.335938 470.949219 "/>
<path style="fill:none;stroke-width:0.2;stroke-linecap:butt;stroke-linejoin:miter;stroke:rgb(26.666667%,26.666667%,26.666667%);stroke-opacity:1;stroke-miterlimit:10;" d="M 254.300781 347.554688 L 248.691406 356.929688 "/>
<path style="fill:none;stroke-width:0.2;stroke-linecap:butt;stroke-linejoin:miter;stroke:rgb(26.666667%,26.666667%,26.666667%);stroke-opacity:1;stroke-miterlimit:10;" d="M 458.457031 317.894531 L 448.765625 323.453125 "/>
<path style="fill:none;stroke-width:0.2;stroke-linecap:butt;stroke-linejoin:miter;stroke:rgb(26.666667%,26.666667%,26.666667%);stroke-opacity:1;stroke-miterlimit:10;" d="M 167.515625 462.042969 L 164.238281 472.511719 "/>
<path style="fill:none;stroke-width:0.2;stroke-linecap:butt;stroke-linejoin:miter;stroke:rgb(26.666667%,26.666667%,26.666667%);stroke-opacity:1;stroke-miterlimit:10;" d="M 162.90625 371.03125 L 145.886719 376.003906 "/>
<path style="fill:none;stroke-width:0.2;stroke-linecap:butt;stroke-linejoin:miter;stroke:rgb(26.666667%,26.666667%,26.666667%);stroke-opacity:1;stroke-miterlimit:10;" d="M 484.453125 164.859375 L 479.109375 155.296875 "/>
<path style="fill:none;stroke-width:0.2;stroke-linecap:butt;stroke-linejoin:miter;stroke:rgb(26.666667%,26.666667%,26.666667%);stroke-opacity:1;stroke-miterlimit:10;" d="M 158.8125 234.246094 L 169.402344 230.769531 "/>
<path style="fill:none;stroke-width:0.2;stroke-linecap:butt;stroke-linejoin:miter;stroke:rgb(26.666667%,26.666667%,26.666667%);stroke-opacity:1;stroke-miterlimit:10;" d="M 221.789062 101.210938 L 224.824219 111.761719 "/>
<path style="fill:none;stroke-width:0.2;stroke-linecap:butt;stroke-linejoin:miter;stroke:rgb(26.666667%,26.666667%,26.666667%);stroke-opacity:1;stroke-miterlimit:10;" d="M 313.644531 534.25 L 305.269531 527.015625 "/>
<path style="fill:none;stroke-width:0.2;stroke-linecap:butt;stroke-linejoin:miter;stroke:rgb(26.666667%,26.666667%,26.666667%);stroke-opacity:1;stroke-miterlimit:10;" d="M 147.625 195.046875 L 139.089844 202.140625 "/>
<path style="fill:none;stroke-width:0.2;stroke-linecap:butt;stroke-linejoin:miter;stroke:rgb(26.666667%,26.666667%,26.666667%);stroke-opacity:1;stroke-miterlimit:10;" d="M 75.34375 138.15625 L 89.414062 149.070312 "/>
<path style="fill:none;stroke-width:0.2;stroke-linecap:butt;stroke-linejoin:miter;stroke:rgb(26.666667%,26.666667%,26.666667%);stroke-opacity:1;stroke-miterlimit:10;" d="M 214.234375 467.554688 L 208.109375 476.734375 "/>
<path style="fill:none;stroke-width:0.2;stroke-linecap:butt;stroke-linejoin:miter;stroke:rgb(26.666667%,26.666667%,26.666667%);stroke-opacity:1;stroke-miterlimit:10;" d="M 212.324219 339.761719 L 201.25 339.671875 "/>
<path style="fill:none;stroke-width:0.2;stroke-linecap:butt;stroke-linejoin:miter;stroke:rgb(26.666667%,26.666667%,26.666667%);stroke-opacity:1;stroke-miterlimit:10;" d="M 206.84375 426.210938 L 195.671875 425.398438 "/>
<path style="fill:none;stroke-width:0.2;stroke-linecap:butt;stroke-linejoin:miter;stroke:rgb(26.666667%,26.666667%,26.666667%);stroke-opacity:1;stroke-miterlimit:10;" d="M 144.300781 139.464844 L 145.101562 150.355469 "/>
<path style="fill:none;stroke-width:0.2;stroke-linecap:butt;stroke-linejoin:miter;stroke:rgb(26.666667%,26.666667%,26.666667%);stroke-opacity:1;stroke-miterlimit:10;" d="M 329.859375 295.613281 L 319.414062 292.082031 "/>
<path style="fill:none;stroke-width:0.2;stroke-linecap:butt;stroke-linejoin:miter;stroke:rgb(26.666667%,26.666667%,26.666667%);stroke-opacity:1;stroke-miterlimit:10;" d="M 479.773438 350.464844 L 490.878906 349.3125 "/>
<path style="fill:none;stroke-width:0.2;stroke-linecap:butt;stroke-linejoin:miter;stroke:rgb(26.666667%,26.666667%,26.666667%);stroke-opacity:1;stroke-miterlimit:10;" d="M 436.898438 449.53125 L 447.507812 452.695312 "/>
<path style="fill:none;stroke-width:0.2;stroke-linecap:butt;stroke-linejoin:miter;stroke:rgb(26.666667%,26.666667%,26.666667%);stroke-opacity:1;stroke-miterlimit:10;" d="M 476.578125 391.140625 L 466.230469 395.210938 "/>
<path style="fill:none;stroke-width:0.2;stroke-linecap:butt;stroke-linejoin:miter;stroke:rgb(26.666667%,26.666667%,26.666667%);stroke-opacity:1;stroke-miterlimit:10;" d="M 90.820312 254.683594 L 82.023438 261.527344 "/>
<path style="fill:none;stroke-width:0.2;stroke-linecap:butt;stroke-linejoin:miter;stroke:rgb(26.666667%,26.666667%,26.666667%);stroke-opacity:1;stroke-miterlimit:10;" d="M 406.308594 540.339844 L 401.695312 550.375 "/>
<path style="fill:none;stroke-width:0.2;stroke-linecap:butt;stroke-linejoin:miter;stroke:rgb(26.666667%,26.666667%,26.666667%);stroke-opacity:1;stroke-miterlimit:10;" d="M 571.054688 404.992188 L 566.78125 415.195312 "/>
<path style="fill:none;stroke-width:0.2;stroke-linecap:butt;stroke-linejoin:miter;stroke:rgb(26.666667%,26.666667%,26.666667%);stroke-opacity:1;stroke-miterlimit:10;" d="M 335.007812 580 L 345.84375 576.933594 "/>
<path style="fill:none;stroke-width:0.2;stroke-linecap:butt;stroke-linejoin:miter;stroke:rgb(26.666667%,26.666667%,26.666667%);stroke-opacity:1;stroke-miterlimit:10;" d="M 164.433594 318.699219 L 171.070312 309.90625 "/>
<path style="fill:none;stroke-width:0.2;stroke-linecap:butt;stroke-linejoin:miter;stroke:rgb(26.666667%,26.666667%,26.666667%);stroke-opacity:1;stroke-miterlimit:10;" d="M 318.507812 468.855469 L 320.703125 479.597656 "/>
<path style="fill:none;stroke-width:0.2;stroke-linecap:butt;stroke-linejoin:miter;stroke:rgb(26.666667%,26.666667%,26.666667%);stroke-opacity:1;stroke-miterlimit:10;" d="M 341.554688 251.605469 L 346.738281 261.117188 "/>
<path style="fill:none;stroke-width:0.2;stroke-linecap:butt;stroke-linejoin:miter;stroke:rgb(26.666667%,26.666667%,26.666667%);stroke-opacity:1;stroke-miterlimit:10;" d="M 235.777344 287.652344 L 226.132812 301.992188 "/>
<path style="fill:none;stroke-width:0.2;stroke-linecap:butt;stroke-linejoin:miter;stroke:rgb(26.666667%,26.666667%,26.666667%);stroke-opacity:1;stroke-miterlimit:10;" d="M 399.5 474.554688 L 398.03125 463.683594 "/>
<path style="fill:none;stroke-width:0.2;stroke-linecap:butt;stroke-linejoin:miter;stroke:rgb(26.666667%,26.666667%,26.666667%);stroke-opacity:1;stroke-miterlimit:10;" d="M 335.222656 109.75 L 346.277344 108.433594 "/>
<path style="fill:none;stroke-width:0.2;stroke-linecap:butt;stroke-linejoin:miter;stroke:rgb(26.666667%,26.666667%,26.666667%);stroke-opacity:1;stroke-miterlimit:10;" d="M 399.246094 222.085938 L 391.5625 214.246094 "/>
<path style="fill:none;stroke-width:0.2;stroke-linecap:butt;stroke-linejoin:miter;stroke:rgb(26.666667%,26.666667%,26.666667%);stroke-opacity:1;stroke-miterlimit:10;" d="M 300.703125 426.742188 L 311.671875 425.152344 "/>
<path style="fill:none;stroke-width:0.2;stroke-linecap:butt;stroke-linejoin:miter;stroke:rgb(26.666667%,26.666667%,26.666667%);stroke-opacity:1;stroke-miterlimit:10;" d="M 303.25 252.53125 L 304.816406 241.773438 "/>
<path style="fill:none;stroke-width:0.2;stroke-linecap:butt;stroke-linejoin:miter;stroke:rgb(26.666667%,26.666667%,26.666667%);stroke-opacity:1;stroke-miterlimit:10;" d="M 214.117188 248.402344 L 204.242188 253.503906 "/>
<path style="fill:none;stroke-width:0.2;stroke-linecap:butt;stroke-linejoin:miter;stroke:rgb(26.666667%,26.666667%,26.666667%);stroke-opacity:1;stroke-miterlimit:10;" d="M 270.085938 385.996094 L 277.460938 393.957031 "/>
<path style="fill:none;stroke-width:0.2;stroke-linecap:butt;stroke-linejoin:miter;stroke:rgb(26.666667%,26.666667%,26.666667%);stroke-opacity:1;stroke-miterlimit:10;" d="M 353.871094 204.8125 L 348.707031 214.398438 "/>
<path style="fill:none;stroke-width:0.2;stroke-linecap:butt;stroke-linejoin:miter;stroke:rgb(26.666667%,26.666667%,26.666667%);stroke-opacity:1;stroke-miterlimit:10;" d="M 385.453125 256.164062 L 395.800781 260.152344 "/>
<path style="fill:none;stroke-width:0.2;stroke-linecap:butt;stroke-linejoin:miter;stroke:rgb(26.666667%,26.666667%,26.666667%);stroke-opacity:1;stroke-miterlimit:10;" d="M 151.125 364.691406 L 156.398438 381.75 "/>
<path style="fill:none;stroke-width:0.2;stroke-linecap:butt;stroke-linejoin:miter;stroke:rgb(26.666667%,26.666667%,26.666667%);stroke-opacity:1;stroke-miterlimit:10;" d="M 443.375 247.136719 L 454.011719 250.519531 "/>
<path style="fill:none;stroke-width:0.2;stroke-linecap:butt;stroke-linejoin:miter;stroke:rgb(26.666667%,26.666667%,26.666667%);stroke-opacity:1;stroke-miterlimit:10;" d="M 317.769531 20 L 328.390625 23.714844 "/>
<path style="fill:none;stroke-width:0.2;stroke-linecap:butt;stroke-linejoin:miter;stroke:rgb(26.666667%,26.666667%,26.666667%);stroke-opacity:1;stroke-miterlimit:10;" d="M 477.765625 212.589844 L 486.300781 219.558594 "/>
<path style="fill:none;stroke-width:0.2;stroke-linecap:butt;stroke-linejoin:miter;stroke:rgb(26.666667%,26.666667%,26.666667%);stroke-opacity:1;stroke-miterlimit:10;" d="M 382.03125 35.804688 L 382.800781 46.703125 "/>
<path style="fill:none;stroke-width:0.2;stroke-linecap:butt;stroke-linejoin:miter;stroke:rgb(26.666667%,26.666667%,26.666667%);stroke-opacity:1;stroke-miterlimit:10;" d="M 251.539062 424.257812 L 252.503906 435.046875 "/>
<path style="fill:none;stroke-width:0.2;stroke-linecap:butt;stroke-linejoin:miter;stroke:rgb(26.666667%,26.666667%,26.666667%);stroke-opacity:1;stroke-miterlimit:10;" d="M 385.148438 296.042969 L 374.03125 296.867188 "/>
<path style="fill:none;stroke-width:0.2;stroke-linecap:butt;stroke-linejoin:miter;stroke:rgb(26.666667%,26.666667%,26.666667%);stroke-opacity:1;stroke-miterlimit:10;" d="M 524.4375 385.492188 L 522.773438 396.363281 "/>
<path style="fill:none;stroke-width:0.2;stroke-linecap:butt;stroke-linejoin:miter;stroke:rgb(26.666667%,26.666667%,26.666667%);stroke-opacity:1;stroke-miterlimit:10;" d="M 37.761719 239.335938 L 41.269531 228.890625 "/>
<path style="fill:none;stroke-width:0.2;stroke-linecap:butt;stroke-linejoin:miter;stroke:rgb(26.666667%,26.666667%,26.666667%);stroke-opacity:1;stroke-miterlimit:10;" d="M 261.132812 84.359375 L 272.097656 86.351562 "/>
<path style="fill:none;stroke-width:0.2;stroke-linecap:butt;stroke-linejoin:miter;stroke:rgb(26.666667%,26.666667%,26.666667%);stroke-opacity:1;stroke-miterlimit:10;" d="M 386.332031 369.742188 L 375.261719 369.140625 "/>
<path style="fill:none;stroke-width:0.2;stroke-linecap:butt;stroke-linejoin:miter;stroke:rgb(26.666667%,26.666667%,26.666667%);stroke-opacity:1;stroke-miterlimit:10;" d="M 534.042969 146.667969 L 531.691406 135.917969 "/>
<path style="fill:none;stroke-width:0.2;stroke-linecap:butt;stroke-linejoin:miter;stroke:rgb(26.666667%,26.666667%,26.666667%);stroke-opacity:1;stroke-miterlimit:10;" d="M 568.566406 350.609375 L 579.066406 346.554688 "/>
<path style="fill:none;stroke-width:0.2;stroke-linecap:butt;stroke-linejoin:miter;stroke:rgb(26.666667%,26.666667%,26.666667%);stroke-opacity:1;stroke-miterlimit:10;" d="M 464.882812 108.8125 L 475.90625 106.441406 "/>
<path style="fill:none;stroke-width:0.2;stroke-linecap:butt;stroke-linejoin:miter;stroke:rgb(26.666667%,26.666667%,26.666667%);stroke-opacity:1;stroke-miterlimit:10;" d="M 266.328125 175.410156 L 255.113281 175.90625 "/>
<path style="fill:none;stroke-width:0.2;stroke-linecap:butt;stroke-linejoin:miter;stroke:rgb(26.666667%,26.666667%,26.666667%);stroke-opacity:1;stroke-miterlimit:10;" d="M 345.011719 335.886719 L 335.089844 331.15625 "/>
<path style="fill:none;stroke-width:0.2;stroke-linecap:butt;stroke-linejoin:miter;stroke:rgb(26.666667%,26.666667%,26.666667%);stroke-opacity:1;stroke-miterlimit:10;" d="M 211.890625 390.820312 L 212.644531 380.15625 "/>
<path style="fill:none;stroke-width:0.2;stroke-linecap:butt;stroke-linejoin:miter;stroke:rgb(26.666667%,26.666667%,26.666667%);stroke-opacity:1;stroke-miterlimit:10;" d="M 258.023438 568.488281 L 246.71875 554.683594 "/>
<path style="fill:none;stroke-width:0.2;stroke-linecap:butt;stroke-linejoin:miter;stroke:rgb(26.666667%,26.666667%,26.666667%);stroke-opacity:1;stroke-miterlimit:10;" d="M 400.527344 330.769531 L 389.402344 331.757812 "/>
<path style="fill:none;stroke-width:0.2;stroke-linecap:butt;stroke-linejoin:miter;stroke:rgb(26.666667%,26.666667%,26.666667%);stroke-opacity:1;stroke-miterlimit:10;" d="M 88.757812 136.523438 L 77.375 150.542969 "/>
<path style="fill:none;stroke-width:0.2;stroke-linecap:butt;stroke-linejoin:miter;stroke:rgb(26.666667%,26.666667%,26.666667%);stroke-opacity:1;stroke-miterlimit:10;" d="M 304.648438 352.914062 L 294.265625 349.417969 "/>
<path style="fill:none;stroke-width:0.2;stroke-linecap:butt;stroke-linejoin:miter;stroke:rgb(26.666667%,26.666667%,26.666667%);stroke-opacity:1;stroke-miterlimit:10;" d="M 260.222656 215.015625 L 271.339844 213.859375 "/>
<path style="fill:none;stroke-width:0.2;stroke-linecap:butt;stroke-linejoin:miter;stroke:rgb(26.666667%,26.666667%,26.666667%);stroke-opacity:1;stroke-miterlimit:10;" d="M 358.902344 156.679688 L 363.503906 166.550781 "/>
<path style="fill:none;stroke-width:0.2;stroke-linecap:butt;stroke-linejoin:miter;stroke:rgb(26.666667%,26.666667%,26.666667%);stroke-opacity:1;stroke-miterlimit:10;" d="M 469.535156 540.222656 L 460.308594 546.59375 "/>
<path style="fill:none;stroke-width:0.2;stroke-linecap:butt;stroke-linejoin:miter;stroke:rgb(26.666667%,26.666667%,26.666667%);stroke-opacity:1;stroke-miterlimit:10;" d="M 567.417969 248.347656 L 562.175781 238.726562 "/>
<path style="fill:none;stroke-width:0.2;stroke-linecap:butt;stroke-linejoin:miter;stroke:rgb(26.666667%,26.666667%,26.666667%);stroke-opacity:1;stroke-miterlimit:10;" d="M 537.5625 198.167969 L 526.875 201.398438 "/>
<path style="fill:none;stroke-width:0.2;stroke-linecap:butt;stroke-linejoin:miter;stroke:rgb(26.666667%,26.666667%,26.666667%);stroke-opacity:1;stroke-miterlimit:10;" d="M 442.671875 58.816406 L 453.878906 59.78125 "/>
<path style="fill:none;stroke-width:0.2;stroke-linecap:butt;stroke-linejoin:miter;stroke:rgb(26.666667%,26.666667%,26.666667%);stroke-opacity:1;stroke-miterlimit:10;" d="M 508.363281 260.773438 L 499.191406 267.105469 "/>
<path style="fill:none;stroke-width:0.2;stroke-linecap:butt;stroke-linejoin:miter;stroke:rgb(26.666667%,26.666667%,26.666667%);stroke-opacity:1;stroke-miterlimit:10;" d="M 265.359375 133.59375 L 255.289062 138.390625 "/>
<path style="fill:none;stroke-width:0.2;stroke-linecap:butt;stroke-linejoin:miter;stroke:rgb(26.666667%,26.666667%,26.666667%);stroke-opacity:1;stroke-miterlimit:10;" d="M 407.972656 128.417969 L 397.605469 132.765625 "/>
<path style="fill:none;stroke-width:0.2;stroke-linecap:butt;stroke-linejoin:miter;stroke:rgb(26.666667%,26.666667%,26.666667%);stroke-opacity:1;stroke-miterlimit:10;" d="M 324.667969 386.527344 L 332.984375 379.339844 "/>
<path style=" stroke:none;fill-rule:nonzero;fill:rgb(100%,0%,0%);fill-opacity:1;" d="M 359.054688 417.765625 C 359.054688 419.101562 357.054688 419.101562 357.054688 417.765625 C 357.054688 416.433594 359.054688 416.433594 359.054688 417.765625 "/>
<path style=" stroke:none;fill-rule:nonzero;fill:rgb(100%,0%,0%);fill-opacity:1;" d="M 365.167969 407.625 C 365.167969 408.960938 363.167969 408.960938 363.167969 407.625 C 363.167969 406.292969 365.167969 406.292969 365.167969 407.625 "/>
<path style=" stroke:none;fill-rule:nonzero;fill:rgb(100%,0%,0%);fill-opacity:1;" d="M 369.582031 515.054688 C 369.582031 516.390625 367.582031 516.390625 367.582031 515.054688 C 367.582031 513.722656 369.582031 513.722656 369.582031 515.054688 "/>
<path style=" stroke:none;fill-rule:nonzero;fill:rgb(100%,0%,0%);fill-opacity:1;" d="M 358.332031 519.585938 C 358.332031 520.917969 356.332031 520.917969 356.332031 519.585938 C 356.332031 518.25 358.332031 518.25 358.332031 519.585938 "/>
<path style=" stroke:none;fill-rule:nonzero;fill:rgb(100%,0%,0%);fill-opacity:1;" d="M 98.65625 201.148438 C 98.65625 202.480469 96.65625 202.480469 96.65625 201.148438 C 96.65625 199.8125 98.65625 199.8125 98.65625 201.148438 "/>
<path style=" stroke:none;fill-rule:nonzero;fill:rgb(100%,0%,0%);fill-opacity:1;" d="M 88.929688 208.25 C 88.929688 209.582031 86.929688 209.582031 86.929688 208.25 C 86.929688 206.914062 88.929688 206.914062 88.929688 208.25 "/>
<path style=" stroke:none;fill-rule:nonzero;fill:rgb(100%,0%,0%);fill-opacity:1;" d="M 309.445312 65.789062 C 309.445312 67.121094 307.445312 67.121094 307.445312 65.789062 C 307.445312 64.457031 309.445312 64.457031 309.445312 65.789062 "/>
<path style=" stroke:none;fill-rule:nonzero;fill:rgb(100%,0%,0%);fill-opacity:1;" d="M 319.046875 73.078125 C 319.046875 74.410156 317.046875 74.410156 317.046875 73.078125 C 317.046875 71.742188 319.046875 71.742188 319.046875 73.078125 "/>
<path style=" stroke:none;fill-rule:nonzero;fill:rgb(100%,0%,0%);fill-opacity:1;" d="M 249.945312 38.636719 C 249.945312 39.972656 247.945312 39.972656 247.945312 38.636719 C 247.945312 37.304688 249.945312 37.304688 249.945312 38.636719 "/>
<path style=" stroke:none;fill-rule:nonzero;fill:rgb(100%,0%,0%);fill-opacity:1;" d="M 249.074219 26.734375 C 249.074219 28.070312 247.074219 28.070312 247.074219 26.734375 C 247.074219 25.402344 249.074219 25.402344 249.074219 26.734375 "/>
<path style=" stroke:none;fill-rule:nonzero;fill:rgb(100%,0%,0%);fill-opacity:1;" d="M 239.929688 506.90625 C 239.929688 508.242188 237.929688 508.242188 237.929688 506.90625 C 237.929688 505.574219 239.929688 505.574219 239.929688 506.90625 "/>
<path style=" stroke:none;fill-rule:nonzero;fill:rgb(100%,0%,0%);fill-opacity:1;" d="M 245.53125 496.375 C 245.53125 497.707031 243.53125 497.707031 243.53125 496.375 C 243.53125 495.042969 245.53125 495.042969 245.53125 496.375 "/>
<path style=" stroke:none;fill-rule:nonzero;fill:rgb(100%,0%,0%);fill-opacity:1;" d="M 306.667969 138.90625 C 306.667969 140.242188 304.667969 140.242188 304.667969 138.90625 C 304.667969 137.574219 306.667969 137.574219 306.667969 138.90625 "/>
<path style=" stroke:none;fill-rule:nonzero;fill:rgb(100%,0%,0%);fill-opacity:1;" d="M 316.175781 146.257812 C 316.175781 147.589844 314.175781 147.589844 314.175781 146.257812 C 314.175781 144.921875 316.175781 144.921875 316.175781 146.257812 "/>
<path style=" stroke:none;fill-rule:nonzero;fill:rgb(100%,0%,0%);fill-opacity:1;" d="M 420.640625 164.515625 C 420.640625 165.847656 418.640625 165.847656 418.640625 164.515625 C 418.640625 163.179688 420.640625 163.179688 420.640625 164.515625 "/>
<path style=" stroke:none;fill-rule:nonzero;fill:rgb(100%,0%,0%);fill-opacity:1;" d="M 431.894531 159.683594 C 431.894531 161.019531 429.894531 161.019531 429.894531 159.683594 C 429.894531 158.351562 431.894531 158.351562 431.894531 159.683594 "/>
<path style=" stroke:none;fill-rule:nonzero;fill:rgb(100%,0%,0%);fill-opacity:1;" d="M 130.066406 518.847656 C 130.066406 520.183594 128.066406 520.183594 128.066406 518.847656 C 128.066406 517.515625 130.066406 517.515625 130.066406 518.847656 "/>
<path style=" stroke:none;fill-rule:nonzero;fill:rgb(100%,0%,0%);fill-opacity:1;" d="M 126.8125 507.308594 C 126.8125 508.644531 124.8125 508.644531 124.8125 507.308594 C 124.8125 505.976562 126.8125 505.976562 126.8125 507.308594 "/>
<path style=" stroke:none;fill-rule:nonzero;fill:rgb(100%,0%,0%);fill-opacity:1;" d="M 71.164062 328.710938 C 71.164062 330.046875 69.164062 330.046875 69.164062 328.710938 C 69.164062 327.378906 71.164062 327.378906 71.164062 328.710938 "/>
<path style=" stroke:none;fill-rule:nonzero;fill:rgb(100%,0%,0%);fill-opacity:1;" d="M 89.367188 334.597656 C 89.367188 335.929688 87.367188 335.929688 87.367188 334.597656 C 87.367188 333.265625 89.367188 333.265625 89.367188 334.597656 "/>
<path style=" stroke:none;fill-rule:nonzero;fill:rgb(100%,0%,0%);fill-opacity:1;" d="M 359.847656 467.191406 C 359.847656 468.527344 357.847656 468.527344 357.847656 467.191406 C 357.847656 465.859375 359.847656 465.859375 359.847656 467.191406 "/>
<path style=" stroke:none;fill-rule:nonzero;fill:rgb(100%,0%,0%);fill-opacity:1;" d="M 357.769531 455.453125 C 357.769531 456.785156 355.769531 456.785156 355.769531 455.453125 C 355.769531 454.121094 357.769531 454.121094 357.769531 455.453125 "/>
<path style=" stroke:none;fill-rule:nonzero;fill:rgb(100%,0%,0%);fill-opacity:1;" d="M 80.828125 407.0625 C 80.828125 408.394531 78.828125 408.394531 78.828125 407.0625 C 78.828125 405.730469 80.828125 405.730469 80.828125 407.0625 "/>
<path style=" stroke:none;fill-rule:nonzero;fill:rgb(100%,0%,0%);fill-opacity:1;" d="M 90.6875 391.144531 C 90.6875 392.476562 88.6875 392.476562 88.6875 391.144531 C 88.6875 389.8125 90.6875 389.8125 90.6875 391.144531 "/>
<path style=" stroke:none;fill-rule:nonzero;fill:rgb(100%,0%,0%);fill-opacity:1;" d="M 127.667969 444.851562 C 127.667969 446.183594 125.667969 446.183594 125.667969 444.851562 C 125.667969 443.519531 127.667969 443.519531 127.667969 444.851562 "/>
<path style=" stroke:none;fill-rule:nonzero;fill:rgb(100%,0%,0%);fill-opacity:1;" d="M 135.796875 435.878906 C 135.796875 437.210938 133.796875 437.210938 133.796875 435.878906 C 133.796875 434.546875 135.796875 434.546875 135.796875 435.878906 "/>
<path style=" stroke:none;fill-rule:nonzero;fill:rgb(100%,0%,0%);fill-opacity:1;" d="M 268.09375 261.464844 C 268.09375 262.800781 266.09375 262.800781 266.09375 261.464844 C 266.09375 260.132812 268.09375 260.132812 268.09375 261.464844 "/>
<path style=" stroke:none;fill-rule:nonzero;fill:rgb(100%,0%,0%);fill-opacity:1;" d="M 262.761719 250.871094 C 262.761719 252.203125 260.761719 252.203125 260.761719 250.871094 C 260.761719 249.535156 262.761719 249.535156 262.761719 250.871094 "/>
<path style=" stroke:none;fill-rule:nonzero;fill:rgb(100%,0%,0%);fill-opacity:1;" d="M 530.261719 472.421875 C 530.261719 473.753906 528.261719 473.753906 528.261719 472.421875 C 528.261719 471.085938 530.261719 471.085938 530.261719 472.421875 "/>
<path style=" stroke:none;fill-rule:nonzero;fill:rgb(100%,0%,0%);fill-opacity:1;" d="M 521.636719 481 C 521.636719 482.335938 519.636719 482.335938 519.636719 481 C 519.636719 479.667969 521.636719 479.667969 521.636719 481 "/>
<path style=" stroke:none;fill-rule:nonzero;fill:rgb(100%,0%,0%);fill-opacity:1;" d="M 136.855469 78.609375 C 136.855469 79.945312 134.855469 79.945312 134.855469 78.609375 C 134.855469 77.277344 136.855469 77.277344 136.855469 78.609375 "/>
<path style=" stroke:none;fill-rule:nonzero;fill:rgb(100%,0%,0%);fill-opacity:1;" d="M 124.949219 81.441406 C 124.949219 82.777344 122.949219 82.777344 122.949219 81.441406 C 122.949219 80.109375 124.949219 80.109375 124.949219 81.441406 "/>
<path style=" stroke:none;fill-rule:nonzero;fill:rgb(100%,0%,0%);fill-opacity:1;" d="M 182.324219 527.488281 C 182.324219 528.820312 180.324219 528.820312 180.324219 527.488281 C 180.324219 526.152344 182.324219 526.152344 182.324219 527.488281 "/>
<path style=" stroke:none;fill-rule:nonzero;fill:rgb(100%,0%,0%);fill-opacity:1;" d="M 185.675781 538.984375 C 185.675781 540.316406 183.675781 540.316406 183.675781 538.984375 C 183.675781 537.648438 185.675781 537.648438 185.675781 538.984375 "/>
<path style=" stroke:none;fill-rule:nonzero;fill:rgb(100%,0%,0%);fill-opacity:1;" d="M 405.78125 413.074219 C 405.78125 414.40625 403.78125 414.40625 403.78125 413.074219 C 403.78125 411.742188 405.78125 411.742188 405.78125 413.074219 "/>
<path style=" stroke:none;fill-rule:nonzero;fill:rgb(100%,0%,0%);fill-opacity:1;" d="M 417.800781 414.613281 C 417.800781 415.949219 415.800781 415.949219 415.800781 414.613281 C 415.800781 413.28125 417.800781 413.28125 417.800781 414.613281 "/>
<path style=" stroke:none;fill-rule:nonzero;fill:rgb(100%,0%,0%);fill-opacity:1;" d="M 220.789062 204.5 C 220.789062 205.835938 218.789062 205.835938 218.789062 204.5 C 218.789062 203.167969 220.789062 203.167969 220.789062 204.5 "/>
<path style=" stroke:none;fill-rule:nonzero;fill:rgb(100%,0%,0%);fill-opacity:1;" d="M 210.3125 210.414062 C 210.3125 211.746094 208.3125 211.746094 208.3125 210.414062 C 208.3125 209.078125 210.3125 209.078125 210.3125 210.414062 "/>
<path style=" stroke:none;fill-rule:nonzero;fill:rgb(100%,0%,0%);fill-opacity:1;" d="M 124.691406 303.355469 C 124.691406 304.6875 122.691406 304.6875 122.691406 303.355469 C 122.691406 302.019531 124.691406 302.019531 124.691406 303.355469 "/>
<path style=" stroke:none;fill-rule:nonzero;fill:rgb(100%,0%,0%);fill-opacity:1;" d="M 117.335938 293.789062 C 117.335938 295.121094 115.335938 295.121094 115.335938 293.789062 C 115.335938 292.453125 117.335938 292.453125 117.335938 293.789062 "/>
<path style=" stroke:none;fill-rule:nonzero;fill:rgb(100%,0%,0%);fill-opacity:1;" d="M 278.050781 469.804688 C 278.050781 471.136719 276.050781 471.136719 276.050781 469.804688 C 276.050781 468.472656 278.050781 468.472656 278.050781 469.804688 "/>
<path style=" stroke:none;fill-rule:nonzero;fill:rgb(100%,0%,0%);fill-opacity:1;" d="M 281.214844 481.320312 C 281.214844 482.65625 279.214844 482.65625 279.214844 481.320312 C 279.214844 479.988281 281.214844 479.988281 281.214844 481.320312 "/>
<path style=" stroke:none;fill-rule:nonzero;fill:rgb(100%,0%,0%);fill-opacity:1;" d="M 400.582031 89.582031 C 400.582031 90.914062 398.582031 90.914062 398.582031 89.582031 C 398.582031 88.246094 400.582031 88.246094 400.582031 89.582031 "/>
<path style=" stroke:none;fill-rule:nonzero;fill:rgb(100%,0%,0%);fill-opacity:1;" d="M 388.476562 91.550781 C 388.476562 92.882812 386.476562 92.882812 386.476562 91.550781 C 386.476562 90.214844 388.476562 90.214844 388.476562 91.550781 "/>
<path style=" stroke:none;fill-rule:nonzero;fill:rgb(100%,0%,0%);fill-opacity:1;" d="M 430.90625 288.40625 C 430.90625 289.738281 428.90625 289.738281 428.90625 288.40625 C 428.90625 287.074219 430.90625 287.074219 430.90625 288.40625 "/>
<path style=" stroke:none;fill-rule:nonzero;fill:rgb(100%,0%,0%);fill-opacity:1;" d="M 442.832031 286 C 442.832031 287.335938 440.832031 287.335938 440.832031 286 C 440.832031 284.667969 442.832031 284.667969 442.832031 286 "/>
<path style=" stroke:none;fill-rule:nonzero;fill:rgb(100%,0%,0%);fill-opacity:1;" d="M 158.441406 272.292969 C 158.441406 273.625 156.441406 273.625 156.441406 272.292969 C 156.441406 270.957031 158.441406 270.957031 158.441406 272.292969 "/>
<path style=" stroke:none;fill-rule:nonzero;fill:rgb(100%,0%,0%);fill-opacity:1;" d="M 147.054688 267.867188 C 147.054688 269.199219 145.054688 269.199219 145.054688 267.867188 C 145.054688 266.535156 147.054688 266.535156 147.054688 267.867188 "/>
<path style=" stroke:none;fill-rule:nonzero;fill:rgb(100%,0%,0%);fill-opacity:1;" d="M 560.40625 303.792969 C 560.40625 305.125 558.40625 305.125 558.40625 303.792969 C 558.40625 302.457031 560.40625 302.457031 560.40625 303.792969 "/>
<path style=" stroke:none;fill-rule:nonzero;fill:rgb(100%,0%,0%);fill-opacity:1;" d="M 568.03125 294.496094 C 568.03125 295.828125 566.03125 295.828125 566.03125 294.496094 C 566.03125 293.164062 568.03125 293.164062 568.03125 294.496094 "/>
<path style=" stroke:none;fill-rule:nonzero;fill:rgb(100%,0%,0%);fill-opacity:1;" d="M 311.394531 185.210938 C 311.394531 186.542969 309.394531 186.542969 309.394531 185.210938 C 309.394531 183.878906 311.394531 183.878906 311.394531 185.210938 "/>
<path style=" stroke:none;fill-rule:nonzero;fill:rgb(100%,0%,0%);fill-opacity:1;" d="M 315.128906 196.410156 C 315.128906 197.742188 313.128906 197.742188 313.128906 196.410156 C 313.128906 195.074219 315.128906 195.074219 315.128906 196.410156 "/>
<path style=" stroke:none;fill-rule:nonzero;fill:rgb(100%,0%,0%);fill-opacity:1;" d="M 77.4375 394.335938 C 77.4375 395.671875 75.4375 395.671875 75.4375 394.335938 C 75.4375 393.003906 77.4375 393.003906 77.4375 394.335938 "/>
<path style=" stroke:none;fill-rule:nonzero;fill:rgb(100%,0%,0%);fill-opacity:1;" d="M 93.945312 403.851562 C 93.945312 405.1875 91.945312 405.1875 91.945312 403.851562 C 91.945312 402.519531 93.945312 402.519531 93.945312 403.851562 "/>
<path style=" stroke:none;fill-rule:nonzero;fill:rgb(100%,0%,0%);fill-opacity:1;" d="M 22.589844 312.046875 C 22.589844 313.378906 20.589844 313.378906 20.589844 312.046875 C 20.589844 310.714844 22.589844 310.714844 22.589844 312.046875 "/>
<path style=" stroke:none;fill-rule:nonzero;fill:rgb(100%,0%,0%);fill-opacity:1;" d="M 21 324.019531 C 21 325.355469 19 325.355469 19 324.019531 C 19 322.6875 21 322.6875 21 324.019531 "/>
<path style=" stroke:none;fill-rule:nonzero;fill:rgb(100%,0%,0%);fill-opacity:1;" d="M 190.921875 171.585938 C 190.921875 172.921875 188.921875 172.921875 188.921875 171.585938 C 188.921875 170.253906 190.921875 170.253906 190.921875 171.585938 "/>
<path style=" stroke:none;fill-rule:nonzero;fill:rgb(100%,0%,0%);fill-opacity:1;" d="M 202.707031 168.480469 C 202.707031 169.8125 200.707031 169.8125 200.707031 168.480469 C 200.707031 167.144531 202.707031 167.144531 202.707031 168.480469 "/>
<path style=" stroke:none;fill-rule:nonzero;fill:rgb(100%,0%,0%);fill-opacity:1;" d="M 223.582031 290.238281 C 223.582031 291.574219 221.582031 291.574219 221.582031 290.238281 C 221.582031 288.90625 223.582031 288.90625 223.582031 290.238281 "/>
<path style=" stroke:none;fill-rule:nonzero;fill:rgb(100%,0%,0%);fill-opacity:1;" d="M 239.679688 300.457031 C 239.679688 301.789062 237.679688 301.789062 237.679688 300.457031 C 237.679688 299.125 239.679688 299.125 239.679688 300.457031 "/>
<path style=" stroke:none;fill-rule:nonzero;fill:rgb(100%,0%,0%);fill-opacity:1;" d="M 493.960938 443.3125 C 493.960938 444.644531 491.960938 444.644531 491.960938 443.3125 C 491.960938 441.976562 493.960938 441.976562 493.960938 443.3125 "/>
<path style=" stroke:none;fill-rule:nonzero;fill:rgb(100%,0%,0%);fill-opacity:1;" d="M 486.167969 434.21875 C 486.167969 435.550781 484.167969 435.550781 484.167969 434.21875 C 484.167969 432.886719 486.167969 432.886719 486.167969 434.21875 "/>
<path style=" stroke:none;fill-rule:nonzero;fill:rgb(100%,0%,0%);fill-opacity:1;" d="M 260.535156 555.355469 C 260.535156 556.6875 258.535156 556.6875 258.535156 555.355469 C 258.535156 554.023438 260.535156 554.023438 260.535156 555.355469 "/>
<path style=" stroke:none;fill-rule:nonzero;fill:rgb(100%,0%,0%);fill-opacity:1;" d="M 245.492188 566.996094 C 245.492188 568.332031 243.492188 568.332031 243.492188 566.996094 C 243.492188 565.664062 245.492188 565.664062 245.492188 566.996094 "/>
<path style=" stroke:none;fill-rule:nonzero;fill:rgb(100%,0%,0%);fill-opacity:1;" d="M 429.351562 200.632812 C 429.351562 201.964844 427.351562 201.964844 427.351562 200.632812 C 427.351562 199.296875 429.351562 199.296875 429.351562 200.632812 "/>
<path style=" stroke:none;fill-rule:nonzero;fill:rgb(100%,0%,0%);fill-opacity:1;" d="M 441.429688 200.09375 C 441.429688 201.425781 439.429688 201.425781 439.429688 200.09375 C 439.429688 198.757812 441.429688 198.757812 441.429688 200.09375 "/>
<path style=" stroke:none;fill-rule:nonzero;fill:rgb(100%,0%,0%);fill-opacity:1;" d="M 181.136719 115.378906 C 181.136719 116.710938 179.136719 116.710938 179.136719 115.378906 C 179.136719 114.042969 181.136719 114.042969 181.136719 115.378906 "/>
<path style=" stroke:none;fill-rule:nonzero;fill:rgb(100%,0%,0%);fill-opacity:1;" d="M 187.132812 125.835938 C 187.132812 127.167969 185.132812 127.167969 185.132812 125.835938 C 185.132812 124.503906 187.132812 124.503906 187.132812 125.835938 "/>
<path style=" stroke:none;fill-rule:nonzero;fill:rgb(100%,0%,0%);fill-opacity:1;" d="M 514.378906 304.914062 C 514.378906 306.246094 512.378906 306.246094 512.378906 304.914062 C 512.378906 303.582031 514.378906 303.582031 514.378906 304.914062 "/>
<path style=" stroke:none;fill-rule:nonzero;fill:rgb(100%,0%,0%);fill-opacity:1;" d="M 514.148438 316.757812 C 514.148438 318.09375 512.148438 318.09375 512.148438 316.757812 C 512.148438 315.425781 514.148438 315.425781 514.148438 316.757812 "/>
<path style=" stroke:none;fill-rule:nonzero;fill:rgb(100%,0%,0%);fill-opacity:1;" d="M 83.066406 322.828125 C 83.066406 324.160156 81.066406 324.160156 81.066406 322.828125 C 81.066406 321.496094 83.066406 321.496094 83.066406 322.828125 "/>
<path style=" stroke:none;fill-rule:nonzero;fill:rgb(100%,0%,0%);fill-opacity:1;" d="M 77.175781 340.425781 C 77.175781 341.761719 75.175781 341.761719 75.175781 340.425781 C 75.175781 339.09375 77.175781 339.09375 77.175781 340.425781 "/>
<path style=" stroke:none;fill-rule:nonzero;fill:rgb(100%,0%,0%);fill-opacity:1;" d="M 186.789062 58.105469 C 186.789062 59.4375 184.789062 59.4375 184.789062 58.105469 C 184.789062 56.769531 186.789062 56.769531 186.789062 58.105469 "/>
<path style=" stroke:none;fill-rule:nonzero;fill:rgb(100%,0%,0%);fill-opacity:1;" d="M 198.140625 53.691406 C 198.140625 55.027344 196.140625 55.027344 196.140625 53.691406 C 196.140625 52.359375 198.140625 52.359375 198.140625 53.691406 "/>
<path style=" stroke:none;fill-rule:nonzero;fill:rgb(100%,0%,0%);fill-opacity:1;" d="M 284.355469 301.667969 C 284.355469 303.003906 282.355469 303.003906 282.355469 301.667969 C 282.355469 300.335938 284.355469 300.335938 284.355469 301.667969 "/>
<path style=" stroke:none;fill-rule:nonzero;fill:rgb(100%,0%,0%);fill-opacity:1;" d="M 283.941406 313.476562 C 283.941406 314.8125 281.941406 314.8125 281.941406 313.476562 C 281.941406 312.144531 283.941406 312.144531 283.941406 313.476562 "/>
<path style=" stroke:none;fill-rule:nonzero;fill:rgb(100%,0%,0%);fill-opacity:1;" d="M 430.558594 375.328125 C 430.558594 376.660156 428.558594 376.660156 428.558594 375.328125 C 428.558594 373.996094 430.558594 373.996094 430.558594 375.328125 "/>
<path style=" stroke:none;fill-rule:nonzero;fill:rgb(100%,0%,0%);fill-opacity:1;" d="M 430.925781 363.5 C 430.925781 364.832031 428.925781 364.832031 428.925781 363.5 C 428.925781 362.164062 430.925781 362.164062 430.925781 363.5 "/>
<path style=" stroke:none;fill-rule:nonzero;fill:rgb(100%,0%,0%);fill-opacity:1;" d="M 457.742188 496.097656 C 457.742188 497.433594 455.742188 497.433594 455.742188 496.097656 C 455.742188 494.765625 457.742188 494.765625 457.742188 496.097656 "/>
<path style=" stroke:none;fill-rule:nonzero;fill:rgb(100%,0%,0%);fill-opacity:1;" d="M 445.691406 498.539062 C 445.691406 499.871094 443.691406 499.871094 443.691406 498.539062 C 443.691406 497.207031 445.691406 497.207031 445.691406 498.539062 "/>
<path style=" stroke:none;fill-rule:nonzero;fill:rgb(100%,0%,0%);fill-opacity:1;" d="M 72.753906 462.019531 C 72.753906 463.351562 70.753906 463.351562 70.753906 462.019531 C 70.753906 460.683594 72.753906 460.683594 72.753906 462.019531 "/>
<path style=" stroke:none;fill-rule:nonzero;fill:rgb(100%,0%,0%);fill-opacity:1;" d="M 79.929688 471.753906 C 79.929688 473.089844 77.929688 473.089844 77.929688 471.753906 C 77.929688 470.421875 79.929688 470.421875 79.929688 471.753906 "/>
<path style=" stroke:none;fill-rule:nonzero;fill:rgb(100%,0%,0%);fill-opacity:1;" d="M 255.300781 347.554688 C 255.300781 348.886719 253.300781 348.886719 253.300781 347.554688 C 253.300781 346.222656 255.300781 346.222656 255.300781 347.554688 "/>
<path style=" stroke:none;fill-rule:nonzero;fill:rgb(100%,0%,0%);fill-opacity:1;" d="M 249.179688 357.789062 C 249.179688 359.121094 247.179688 359.121094 247.179688 357.789062 C 247.179688 356.453125 249.179688 356.453125 249.179688 357.789062 "/>
<path style=" stroke:none;fill-rule:nonzero;fill:rgb(100%,0%,0%);fill-opacity:1;" d="M 459.457031 317.894531 C 459.457031 319.226562 457.457031 319.226562 457.457031 317.894531 C 457.457031 316.558594 459.457031 316.558594 459.457031 317.894531 "/>
<path style=" stroke:none;fill-rule:nonzero;fill:rgb(100%,0%,0%);fill-opacity:1;" d="M 448.894531 323.953125 C 448.894531 325.285156 446.894531 325.285156 446.894531 323.953125 C 446.894531 322.621094 448.894531 322.621094 448.894531 323.953125 "/>
<path style=" stroke:none;fill-rule:nonzero;fill:rgb(100%,0%,0%);fill-opacity:1;" d="M 168.515625 462.042969 C 168.515625 463.378906 166.515625 463.378906 166.515625 462.042969 C 166.515625 460.710938 168.515625 460.710938 168.515625 462.042969 "/>
<path style=" stroke:none;fill-rule:nonzero;fill:rgb(100%,0%,0%);fill-opacity:1;" d="M 164.941406 473.464844 C 164.941406 474.800781 162.941406 474.800781 162.941406 473.464844 C 162.941406 472.132812 164.941406 472.132812 164.941406 473.464844 "/>
<path style=" stroke:none;fill-rule:nonzero;fill:rgb(100%,0%,0%);fill-opacity:1;" d="M 163.90625 371.03125 C 163.90625 372.367188 161.90625 372.367188 161.90625 371.03125 C 161.90625 369.699219 163.90625 369.699219 163.90625 371.03125 "/>
<path style=" stroke:none;fill-rule:nonzero;fill:rgb(100%,0%,0%);fill-opacity:1;" d="M 145.925781 376.285156 C 145.925781 377.617188 143.925781 377.617188 143.925781 376.285156 C 143.925781 374.949219 145.925781 374.949219 145.925781 376.285156 "/>
<path style=" stroke:none;fill-rule:nonzero;fill:rgb(100%,0%,0%);fill-opacity:1;" d="M 485.453125 164.859375 C 485.453125 166.191406 483.453125 166.191406 483.453125 164.859375 C 483.453125 163.527344 485.453125 163.527344 485.453125 164.859375 "/>
<path style=" stroke:none;fill-rule:nonzero;fill:rgb(100%,0%,0%);fill-opacity:1;" d="M 479.621094 154.425781 C 479.621094 155.757812 477.621094 155.757812 477.621094 154.425781 C 477.621094 153.089844 479.621094 153.089844 479.621094 154.425781 "/>
<path style=" stroke:none;fill-rule:nonzero;fill:rgb(100%,0%,0%);fill-opacity:1;" d="M 159.8125 234.246094 C 159.8125 235.578125 157.8125 235.578125 157.8125 234.246094 C 157.8125 232.910156 159.8125 232.910156 159.8125 234.246094 "/>
<path style=" stroke:none;fill-rule:nonzero;fill:rgb(100%,0%,0%);fill-opacity:1;" d="M 171.351562 230.457031 C 171.351562 231.792969 169.351562 231.792969 169.351562 230.457031 C 169.351562 229.125 171.351562 229.125 171.351562 230.457031 "/>
<path style=" stroke:none;fill-rule:nonzero;fill:rgb(100%,0%,0%);fill-opacity:1;" d="M 222.789062 101.210938 C 222.789062 102.542969 220.789062 102.542969 220.789062 101.210938 C 220.789062 99.878906 222.789062 99.878906 222.789062 101.210938 "/>
<path style=" stroke:none;fill-rule:nonzero;fill:rgb(100%,0%,0%);fill-opacity:1;" d="M 226.097656 112.722656 C 226.097656 114.054688 224.097656 114.054688 224.097656 112.722656 C 224.097656 111.386719 226.097656 111.386719 226.097656 112.722656 "/>
<path style=" stroke:none;fill-rule:nonzero;fill:rgb(100%,0%,0%);fill-opacity:1;" d="M 314.644531 534.25 C 314.644531 535.582031 312.644531 535.582031 312.644531 534.25 C 312.644531 532.914062 314.644531 532.914062 314.644531 534.25 "/>
<path style=" stroke:none;fill-rule:nonzero;fill:rgb(100%,0%,0%);fill-opacity:1;" d="M 305.515625 526.363281 C 305.515625 527.695312 303.515625 527.695312 303.515625 526.363281 C 303.515625 525.03125 305.515625 525.03125 305.515625 526.363281 "/>
<path style=" stroke:none;fill-rule:nonzero;fill:rgb(100%,0%,0%);fill-opacity:1;" d="M 148.625 195.046875 C 148.625 196.378906 146.625 196.378906 146.625 195.046875 C 146.625 193.710938 148.625 193.710938 148.625 195.046875 "/>
<path style=" stroke:none;fill-rule:nonzero;fill:rgb(100%,0%,0%);fill-opacity:1;" d="M 139.320312 202.78125 C 139.320312 204.113281 137.320312 204.113281 137.320312 202.78125 C 137.320312 201.449219 139.320312 201.449219 139.320312 202.78125 "/>
<path style=" stroke:none;fill-rule:nonzero;fill:rgb(100%,0%,0%);fill-opacity:1;" d="M 76.34375 138.15625 C 76.34375 139.488281 74.34375 139.488281 74.34375 138.15625 C 74.34375 136.820312 76.34375 136.820312 76.34375 138.15625 "/>
<path style=" stroke:none;fill-rule:nonzero;fill:rgb(100%,0%,0%);fill-opacity:1;" d="M 91.203125 149.683594 C 91.203125 151.015625 89.203125 151.015625 89.203125 149.683594 C 89.203125 148.347656 91.203125 148.347656 91.203125 149.683594 "/>
<path style=" stroke:none;fill-rule:nonzero;fill:rgb(100%,0%,0%);fill-opacity:1;" d="M 215.234375 467.554688 C 215.234375 468.886719 213.234375 468.886719 213.234375 467.554688 C 213.234375 466.222656 215.234375 466.222656 215.234375 467.554688 "/>
<path style=" stroke:none;fill-rule:nonzero;fill:rgb(100%,0%,0%);fill-opacity:1;" d="M 208.554688 477.566406 C 208.554688 478.898438 206.554688 478.898438 206.554688 477.566406 C 206.554688 476.230469 208.554688 476.230469 208.554688 477.566406 "/>
<path style=" stroke:none;fill-rule:nonzero;fill:rgb(100%,0%,0%);fill-opacity:1;" d="M 213.324219 339.761719 C 213.324219 341.09375 211.324219 341.09375 211.324219 339.761719 C 211.324219 338.425781 213.324219 338.425781 213.324219 339.761719 "/>
<path style=" stroke:none;fill-rule:nonzero;fill:rgb(100%,0%,0%);fill-opacity:1;" d="M 201.25 339.664062 C 201.25 341 199.25 341 199.25 339.664062 C 199.25 338.332031 201.25 338.332031 201.25 339.664062 "/>
<path style=" stroke:none;fill-rule:nonzero;fill:rgb(100%,0%,0%);fill-opacity:1;" d="M 207.84375 426.210938 C 207.84375 427.546875 205.84375 427.546875 205.84375 426.210938 C 205.84375 424.878906 207.84375 424.878906 207.84375 426.210938 "/>
<path style=" stroke:none;fill-rule:nonzero;fill:rgb(100%,0%,0%);fill-opacity:1;" d="M 195.675781 425.328125 C 195.675781 426.660156 193.675781 426.660156 193.675781 425.328125 C 193.675781 423.992188 195.675781 423.992188 195.675781 425.328125 "/>
<path style=" stroke:none;fill-rule:nonzero;fill:rgb(100%,0%,0%);fill-opacity:1;" d="M 145.300781 139.464844 C 145.300781 140.796875 143.300781 140.796875 143.300781 139.464844 C 143.300781 138.128906 145.300781 138.128906 145.300781 139.464844 "/>
<path style=" stroke:none;fill-rule:nonzero;fill:rgb(100%,0%,0%);fill-opacity:1;" d="M 146.175781 151.351562 C 146.175781 152.6875 144.175781 152.6875 144.175781 151.351562 C 144.175781 150.019531 146.175781 150.019531 146.175781 151.351562 "/>
<path style=" stroke:none;fill-rule:nonzero;fill:rgb(100%,0%,0%);fill-opacity:1;" d="M 330.859375 295.613281 C 330.859375 296.949219 328.859375 296.949219 328.859375 295.613281 C 328.859375 294.28125 330.859375 294.28125 330.859375 295.613281 "/>
<path style=" stroke:none;fill-rule:nonzero;fill:rgb(100%,0%,0%);fill-opacity:1;" d="M 319.46875 291.761719 C 319.46875 293.09375 317.46875 293.09375 317.46875 291.761719 C 317.46875 290.425781 319.46875 290.425781 319.46875 291.761719 "/>
<path style=" stroke:none;fill-rule:nonzero;fill:rgb(100%,0%,0%);fill-opacity:1;" d="M 480.773438 350.464844 C 480.773438 351.796875 478.773438 351.796875 478.773438 350.464844 C 478.773438 349.128906 480.773438 349.128906 480.773438 350.464844 "/>
<path style=" stroke:none;fill-rule:nonzero;fill:rgb(100%,0%,0%);fill-opacity:1;" d="M 492.871094 349.207031 C 492.871094 350.542969 490.871094 350.542969 490.871094 349.207031 C 490.871094 347.875 492.871094 347.875 492.871094 349.207031 "/>
<path style=" stroke:none;fill-rule:nonzero;fill:rgb(100%,0%,0%);fill-opacity:1;" d="M 437.898438 449.53125 C 437.898438 450.867188 435.898438 450.867188 435.898438 449.53125 C 435.898438 448.199219 437.898438 448.199219 437.898438 449.53125 "/>
<path style=" stroke:none;fill-rule:nonzero;fill:rgb(100%,0%,0%);fill-opacity:1;" d="M 449.464844 452.980469 C 449.464844 454.316406 447.464844 454.316406 447.464844 452.980469 C 447.464844 451.648438 449.464844 451.648438 449.464844 452.980469 "/>
<path style=" stroke:none;fill-rule:nonzero;fill:rgb(100%,0%,0%);fill-opacity:1;" d="M 477.578125 391.140625 C 477.578125 392.472656 475.578125 392.472656 475.578125 391.140625 C 475.578125 389.808594 477.578125 389.808594 477.578125 391.140625 "/>
<path style=" stroke:none;fill-rule:nonzero;fill:rgb(100%,0%,0%);fill-opacity:1;" d="M 466.296875 395.578125 C 466.296875 396.910156 464.296875 396.910156 464.296875 395.578125 C 464.296875 394.246094 466.296875 394.246094 466.296875 395.578125 "/>
<path style=" stroke:none;fill-rule:nonzero;fill:rgb(100%,0%,0%);fill-opacity:1;" d="M 91.820312 254.683594 C 91.820312 256.015625 89.820312 256.015625 89.820312 254.683594 C 89.820312 253.347656 91.820312 253.347656 91.820312 254.683594 "/>
<path style=" stroke:none;fill-rule:nonzero;fill:rgb(100%,0%,0%);fill-opacity:1;" d="M 82.234375 262.144531 C 82.234375 263.476562 80.234375 263.476562 80.234375 262.144531 C 80.234375 260.808594 82.234375 260.808594 82.234375 262.144531 "/>
<path style=" stroke:none;fill-rule:nonzero;fill:rgb(100%,0%,0%);fill-opacity:1;" d="M 407.308594 540.339844 C 407.308594 541.671875 405.308594 541.671875 405.308594 540.339844 C 405.308594 539.007812 407.308594 539.007812 407.308594 540.339844 "/>
<path style=" stroke:none;fill-rule:nonzero;fill:rgb(100%,0%,0%);fill-opacity:1;" d="M 402.277344 551.285156 C 402.277344 552.617188 400.277344 552.617188 400.277344 551.285156 C 400.277344 549.953125 402.277344 549.953125 402.277344 551.285156 "/>
<path style=" stroke:none;fill-rule:nonzero;fill:rgb(100%,0%,0%);fill-opacity:1;" d="M 572.054688 404.992188 C 572.054688 406.324219 570.054688 406.324219 570.054688 404.992188 C 570.054688 403.65625 572.054688 403.65625 572.054688 404.992188 "/>
<path style=" stroke:none;fill-rule:nonzero;fill:rgb(100%,0%,0%);fill-opacity:1;" d="M 567.394531 416.117188 C 567.394531 417.449219 565.394531 417.449219 565.394531 416.117188 C 565.394531 414.78125 567.394531 414.78125 567.394531 416.117188 "/>
<path style=" stroke:none;fill-rule:nonzero;fill:rgb(100%,0%,0%);fill-opacity:1;" d="M 336.007812 580 C 336.007812 581.332031 334.007812 581.332031 334.007812 580 C 334.007812 578.667969 336.007812 578.667969 336.007812 580 "/>
<path style=" stroke:none;fill-rule:nonzero;fill:rgb(100%,0%,0%);fill-opacity:1;" d="M 347.804688 576.660156 C 347.804688 577.996094 345.804688 577.996094 345.804688 576.660156 C 345.804688 575.328125 347.804688 575.328125 347.804688 576.660156 "/>
<path style=" stroke:none;fill-rule:nonzero;fill:rgb(100%,0%,0%);fill-opacity:1;" d="M 165.433594 318.699219 C 165.433594 320.03125 163.433594 320.03125 163.433594 318.699219 C 163.433594 317.367188 165.433594 317.367188 165.433594 318.699219 "/>
<path style=" stroke:none;fill-rule:nonzero;fill:rgb(100%,0%,0%);fill-opacity:1;" d="M 172.671875 309.109375 C 172.671875 310.441406 170.671875 310.441406 170.671875 309.109375 C 170.671875 307.773438 172.671875 307.773438 172.671875 309.109375 "/>
<path style=" stroke:none;fill-rule:nonzero;fill:rgb(100%,0%,0%);fill-opacity:1;" d="M 319.507812 468.855469 C 319.507812 470.1875 317.507812 470.1875 317.507812 468.855469 C 317.507812 467.519531 319.507812 467.519531 319.507812 468.855469 "/>
<path style=" stroke:none;fill-rule:nonzero;fill:rgb(100%,0%,0%);fill-opacity:1;" d="M 321.902344 480.578125 C 321.902344 481.910156 319.902344 481.910156 319.902344 480.578125 C 319.902344 479.242188 321.902344 479.242188 321.902344 480.578125 "/>
<path style=" stroke:none;fill-rule:nonzero;fill:rgb(100%,0%,0%);fill-opacity:1;" d="M 342.554688 251.605469 C 342.554688 252.9375 340.554688 252.9375 340.554688 251.605469 C 340.554688 250.273438 342.554688 250.273438 342.554688 251.605469 "/>
<path style=" stroke:none;fill-rule:nonzero;fill:rgb(100%,0%,0%);fill-opacity:1;" d="M 348.214844 261.996094 C 348.214844 263.328125 346.214844 263.328125 346.214844 261.996094 C 346.214844 260.664062 348.214844 260.664062 348.214844 261.996094 "/>
<path style=" stroke:none;fill-rule:nonzero;fill:rgb(100%,0%,0%);fill-opacity:1;" d="M 236.777344 287.652344 C 236.777344 288.984375 234.777344 288.984375 234.777344 287.652344 C 234.777344 286.316406 236.777344 286.316406 236.777344 287.652344 "/>
<path style=" stroke:none;fill-rule:nonzero;fill:rgb(100%,0%,0%);fill-opacity:1;" d="M 226.574219 302.824219 C 226.574219 304.15625 224.574219 304.15625 224.574219 302.824219 C 224.574219 301.488281 226.574219 301.488281 226.574219 302.824219 "/>
<path style=" stroke:none;fill-rule:nonzero;fill:rgb(100%,0%,0%);fill-opacity:1;" d="M 400.5 474.554688 C 400.5 475.890625 398.5 475.890625 398.5 474.554688 C 398.5 473.222656 400.5 473.222656 400.5 474.554688 "/>
<path style=" stroke:none;fill-rule:nonzero;fill:rgb(100%,0%,0%);fill-opacity:1;" d="M 398.898438 462.691406 C 398.898438 464.023438 396.898438 464.023438 396.898438 462.691406 C 396.898438 461.359375 398.898438 461.359375 398.898438 462.691406 "/>
<path style=" stroke:none;fill-rule:nonzero;fill:rgb(100%,0%,0%);fill-opacity:1;" d="M 336.222656 109.75 C 336.222656 111.082031 334.222656 111.082031 334.222656 109.75 C 334.222656 108.417969 336.222656 108.417969 336.222656 109.75 "/>
<path style=" stroke:none;fill-rule:nonzero;fill:rgb(100%,0%,0%);fill-opacity:1;" d="M 348.269531 108.316406 C 348.269531 109.648438 346.269531 109.648438 346.269531 108.316406 C 346.269531 106.984375 348.269531 106.984375 348.269531 108.316406 "/>
<path style=" stroke:none;fill-rule:nonzero;fill:rgb(100%,0%,0%);fill-opacity:1;" d="M 400.246094 222.085938 C 400.246094 223.421875 398.246094 223.421875 398.246094 222.085938 C 398.246094 220.753906 400.246094 220.753906 400.246094 222.085938 "/>
<path style=" stroke:none;fill-rule:nonzero;fill:rgb(100%,0%,0%);fill-opacity:1;" d="M 391.863281 213.53125 C 391.863281 214.863281 389.863281 214.863281 389.863281 213.53125 C 389.863281 212.199219 391.863281 212.199219 391.863281 213.53125 "/>
<path style=" stroke:none;fill-rule:nonzero;fill:rgb(100%,0%,0%);fill-opacity:1;" d="M 301.703125 426.742188 C 301.703125 428.074219 299.703125 428.074219 299.703125 426.742188 C 299.703125 425.40625 301.703125 425.40625 301.703125 426.742188 "/>
<path style=" stroke:none;fill-rule:nonzero;fill:rgb(100%,0%,0%);fill-opacity:1;" d="M 313.664062 425.011719 C 313.664062 426.34375 311.664062 426.34375 311.664062 425.011719 C 311.664062 423.675781 313.664062 423.675781 313.664062 425.011719 "/>
<path style=" stroke:none;fill-rule:nonzero;fill:rgb(100%,0%,0%);fill-opacity:1;" d="M 304.25 252.53125 C 304.25 253.863281 302.25 253.863281 302.25 252.53125 C 302.25 251.199219 304.25 251.199219 304.25 252.53125 "/>
<path style=" stroke:none;fill-rule:nonzero;fill:rgb(100%,0%,0%);fill-opacity:1;" d="M 305.960938 240.78125 C 305.960938 242.117188 303.960938 242.117188 303.960938 240.78125 C 303.960938 239.449219 305.960938 239.449219 305.960938 240.78125 "/>
<path style=" stroke:none;fill-rule:nonzero;fill:rgb(100%,0%,0%);fill-opacity:1;" d="M 215.117188 248.402344 C 215.117188 249.734375 213.117188 249.734375 213.117188 248.402344 C 213.117188 247.066406 215.117188 247.066406 215.117188 248.402344 "/>
<path style=" stroke:none;fill-rule:nonzero;fill:rgb(100%,0%,0%);fill-opacity:1;" d="M 204.355469 253.964844 C 204.355469 255.296875 202.355469 255.296875 202.355469 253.964844 C 202.355469 252.632812 204.355469 252.632812 204.355469 253.964844 "/>
<path style=" stroke:none;fill-rule:nonzero;fill:rgb(100%,0%,0%);fill-opacity:1;" d="M 271.085938 385.996094 C 271.085938 387.332031 269.085938 387.332031 269.085938 385.996094 C 269.085938 384.664062 271.085938 384.664062 271.085938 385.996094 "/>
<path style=" stroke:none;fill-rule:nonzero;fill:rgb(100%,0%,0%);fill-opacity:1;" d="M 279.140625 394.691406 C 279.140625 396.023438 277.140625 396.023438 277.140625 394.691406 C 277.140625 393.355469 279.140625 393.355469 279.140625 394.691406 "/>
<path style=" stroke:none;fill-rule:nonzero;fill:rgb(100%,0%,0%);fill-opacity:1;" d="M 354.871094 204.8125 C 354.871094 206.144531 352.871094 206.144531 352.871094 204.8125 C 352.871094 203.476562 354.871094 203.476562 354.871094 204.8125 "/>
<path style=" stroke:none;fill-rule:nonzero;fill:rgb(100%,0%,0%);fill-opacity:1;" d="M 349.234375 215.277344 C 349.234375 216.609375 347.234375 216.609375 347.234375 215.277344 C 347.234375 213.945312 349.234375 213.945312 349.234375 215.277344 "/>
<path style=" stroke:none;fill-rule:nonzero;fill:rgb(100%,0%,0%);fill-opacity:1;" d="M 386.453125 256.164062 C 386.453125 257.5 384.453125 257.5 384.453125 256.164062 C 384.453125 254.832031 386.453125 254.832031 386.453125 256.164062 "/>
<path style=" stroke:none;fill-rule:nonzero;fill:rgb(100%,0%,0%);fill-opacity:1;" d="M 397.734375 260.511719 C 397.734375 261.847656 395.734375 261.847656 395.734375 260.511719 C 395.734375 259.179688 397.734375 259.179688 397.734375 260.511719 "/>
<path style=" stroke:none;fill-rule:nonzero;fill:rgb(100%,0%,0%);fill-opacity:1;" d="M 152.125 364.691406 C 152.125 366.023438 150.125 366.023438 150.125 364.691406 C 150.125 363.355469 152.125 363.355469 152.125 364.691406 "/>
<path style=" stroke:none;fill-rule:nonzero;fill:rgb(100%,0%,0%);fill-opacity:1;" d="M 157.691406 382.703125 C 157.691406 384.035156 155.691406 384.035156 155.691406 382.703125 C 155.691406 381.371094 157.691406 381.371094 157.691406 382.703125 "/>
<path style=" stroke:none;fill-rule:nonzero;fill:rgb(100%,0%,0%);fill-opacity:1;" d="M 444.375 247.136719 C 444.375 248.472656 442.375 248.472656 442.375 247.136719 C 442.375 245.804688 444.375 245.804688 444.375 247.136719 "/>
<path style=" stroke:none;fill-rule:nonzero;fill:rgb(100%,0%,0%);fill-opacity:1;" d="M 455.964844 250.824219 C 455.964844 252.15625 453.964844 252.15625 453.964844 250.824219 C 453.964844 249.488281 455.964844 249.488281 455.964844 250.824219 "/>
<path style=" stroke:none;fill-rule:nonzero;fill:rgb(100%,0%,0%);fill-opacity:1;" d="M 318.769531 20 C 318.769531 21.332031 316.769531 21.332031 316.769531 20 C 316.769531 18.667969 318.769531 18.667969 318.769531 20 "/>
<path style=" stroke:none;fill-rule:nonzero;fill:rgb(100%,0%,0%);fill-opacity:1;" d="M 330.332031 24.046875 C 330.332031 25.378906 328.332031 25.378906 328.332031 24.046875 C 328.332031 22.710938 330.332031 22.710938 330.332031 24.046875 "/>
<path style=" stroke:none;fill-rule:nonzero;fill:rgb(100%,0%,0%);fill-opacity:1;" d="M 478.765625 212.589844 C 478.765625 213.925781 476.765625 213.925781 476.765625 212.589844 C 476.765625 211.257812 478.765625 211.257812 478.765625 212.589844 "/>
<path style=" stroke:none;fill-rule:nonzero;fill:rgb(100%,0%,0%);fill-opacity:1;" d="M 488.074219 220.191406 C 488.074219 221.527344 486.074219 221.527344 486.074219 220.191406 C 486.074219 218.859375 488.074219 218.859375 488.074219 220.191406 "/>
<path style=" stroke:none;fill-rule:nonzero;fill:rgb(100%,0%,0%);fill-opacity:1;" d="M 383.03125 35.804688 C 383.03125 37.140625 381.03125 37.140625 381.03125 35.804688 C 381.03125 34.472656 383.03125 34.472656 383.03125 35.804688 "/>
<path style=" stroke:none;fill-rule:nonzero;fill:rgb(100%,0%,0%);fill-opacity:1;" d="M 383.871094 47.699219 C 383.871094 49.035156 381.871094 49.035156 381.871094 47.699219 C 381.871094 46.367188 383.871094 46.367188 383.871094 47.699219 "/>
<path style=" stroke:none;fill-rule:nonzero;fill:rgb(100%,0%,0%);fill-opacity:1;" d="M 252.539062 424.257812 C 252.539062 425.589844 250.539062 425.589844 250.539062 424.257812 C 250.539062 422.925781 252.539062 422.925781 252.539062 424.257812 "/>
<path style=" stroke:none;fill-rule:nonzero;fill:rgb(100%,0%,0%);fill-opacity:1;" d="M 253.59375 436.042969 C 253.59375 437.378906 251.59375 437.378906 251.59375 436.042969 C 251.59375 434.710938 253.59375 434.710938 253.59375 436.042969 "/>
<path style=" stroke:none;fill-rule:nonzero;fill:rgb(100%,0%,0%);fill-opacity:1;" d="M 386.148438 296.042969 C 386.148438 297.375 384.148438 297.375 384.148438 296.042969 C 384.148438 294.707031 386.148438 294.707031 386.148438 296.042969 "/>
<path style=" stroke:none;fill-rule:nonzero;fill:rgb(100%,0%,0%);fill-opacity:1;" d="M 374.035156 296.941406 C 374.035156 298.277344 372.035156 298.277344 372.035156 296.941406 C 372.035156 295.609375 374.035156 295.609375 374.035156 296.941406 "/>
<path style=" stroke:none;fill-rule:nonzero;fill:rgb(100%,0%,0%);fill-opacity:1;" d="M 525.4375 385.492188 C 525.4375 386.824219 523.4375 386.824219 523.4375 385.492188 C 523.4375 384.15625 525.4375 384.15625 525.4375 385.492188 "/>
<path style=" stroke:none;fill-rule:nonzero;fill:rgb(100%,0%,0%);fill-opacity:1;" d="M 523.621094 397.351562 C 523.621094 398.683594 521.621094 398.683594 521.621094 397.351562 C 521.621094 396.015625 523.621094 396.015625 523.621094 397.351562 "/>
<path style=" stroke:none;fill-rule:nonzero;fill:rgb(100%,0%,0%);fill-opacity:1;" d="M 38.761719 239.335938 C 38.761719 240.667969 36.761719 240.667969 36.761719 239.335938 C 36.761719 238.003906 38.761719 238.003906 38.761719 239.335938 "/>
<path style=" stroke:none;fill-rule:nonzero;fill:rgb(100%,0%,0%);fill-opacity:1;" d="M 42.589844 227.941406 C 42.589844 229.277344 40.589844 229.277344 40.589844 227.941406 C 40.589844 226.609375 42.589844 226.609375 42.589844 227.941406 "/>
<path style=" stroke:none;fill-rule:nonzero;fill:rgb(100%,0%,0%);fill-opacity:1;" d="M 262.132812 84.359375 C 262.132812 85.691406 260.132812 85.691406 260.132812 84.359375 C 260.132812 83.027344 262.132812 83.027344 262.132812 84.359375 "/>
<path style=" stroke:none;fill-rule:nonzero;fill:rgb(100%,0%,0%);fill-opacity:1;" d="M 274.082031 86.53125 C 274.082031 87.863281 272.082031 87.863281 272.082031 86.53125 C 272.082031 85.199219 274.082031 85.199219 274.082031 86.53125 "/>
<path style=" stroke:none;fill-rule:nonzero;fill:rgb(100%,0%,0%);fill-opacity:1;" d="M 387.332031 369.742188 C 387.332031 371.074219 385.332031 371.074219 385.332031 369.742188 C 385.332031 368.40625 387.332031 368.40625 387.332031 369.742188 "/>
<path style=" stroke:none;fill-rule:nonzero;fill:rgb(100%,0%,0%);fill-opacity:1;" d="M 375.265625 369.085938 C 375.265625 370.421875 373.265625 370.421875 373.265625 369.085938 C 373.265625 367.753906 375.265625 367.753906 375.265625 369.085938 "/>
<path style=" stroke:none;fill-rule:nonzero;fill:rgb(100%,0%,0%);fill-opacity:1;" d="M 535.042969 146.667969 C 535.042969 148 533.042969 148 533.042969 146.667969 C 533.042969 145.335938 535.042969 145.335938 535.042969 146.667969 "/>
<path style=" stroke:none;fill-rule:nonzero;fill:rgb(100%,0%,0%);fill-opacity:1;" d="M 532.476562 134.941406 C 532.476562 136.277344 530.476562 136.277344 530.476562 134.941406 C 530.476562 133.609375 532.476562 133.609375 532.476562 134.941406 "/>
<path style=" stroke:none;fill-rule:nonzero;fill:rgb(100%,0%,0%);fill-opacity:1;" d="M 569.566406 350.609375 C 569.566406 351.941406 567.566406 351.941406 567.566406 350.609375 C 567.566406 349.273438 569.566406 349.273438 569.566406 350.609375 "/>
<path style=" stroke:none;fill-rule:nonzero;fill:rgb(100%,0%,0%);fill-opacity:1;" d="M 581 346.195312 C 581 347.527344 579 347.527344 579 346.195312 C 579 344.863281 581 344.863281 581 346.195312 "/>
<path style=" stroke:none;fill-rule:nonzero;fill:rgb(100%,0%,0%);fill-opacity:1;" d="M 465.882812 108.8125 C 465.882812 110.144531 463.882812 110.144531 463.882812 108.8125 C 463.882812 107.480469 465.882812 107.480469 465.882812 108.8125 "/>
<path style=" stroke:none;fill-rule:nonzero;fill:rgb(100%,0%,0%);fill-opacity:1;" d="M 477.882812 106.230469 C 477.882812 107.566406 475.882812 107.566406 475.882812 106.230469 C 475.882812 104.898438 477.882812 104.898438 477.882812 106.230469 "/>
<path style=" stroke:none;fill-rule:nonzero;fill:rgb(100%,0%,0%);fill-opacity:1;" d="M 267.328125 175.410156 C 267.328125 176.742188 265.328125 176.742188 265.328125 175.410156 C 265.328125 174.074219 267.328125 174.074219 267.328125 175.410156 "/>
<path style=" stroke:none;fill-rule:nonzero;fill:rgb(100%,0%,0%);fill-opacity:1;" d="M 255.113281 175.949219 C 255.113281 177.28125 253.113281 177.28125 253.113281 175.949219 C 253.113281 174.617188 255.113281 174.617188 255.113281 175.949219 "/>
<path style=" stroke:none;fill-rule:nonzero;fill:rgb(100%,0%,0%);fill-opacity:1;" d="M 346.011719 335.886719 C 346.011719 337.21875 344.011719 337.21875 344.011719 335.886719 C 344.011719 334.554688 346.011719 334.554688 346.011719 335.886719 "/>
<path style=" stroke:none;fill-rule:nonzero;fill:rgb(100%,0%,0%);fill-opacity:1;" d="M 335.1875 330.726562 C 335.1875 332.058594 333.1875 332.058594 333.1875 330.726562 C 333.1875 329.394531 335.1875 329.394531 335.1875 330.726562 "/>
<path style=" stroke:none;fill-rule:nonzero;fill:rgb(100%,0%,0%);fill-opacity:1;" d="M 212.890625 390.820312 C 212.890625 392.152344 210.890625 392.152344 210.890625 390.820312 C 210.890625 389.488281 212.890625 389.488281 212.890625 390.820312 "/>
<path style=" stroke:none;fill-rule:nonzero;fill:rgb(100%,0%,0%);fill-opacity:1;" d="M 213.714844 379.160156 C 213.714844 380.492188 211.714844 380.492188 211.714844 379.160156 C 211.714844 377.828125 213.714844 377.828125 213.714844 379.160156 "/>
<path style=" stroke:none;fill-rule:nonzero;fill:rgb(100%,0%,0%);fill-opacity:1;" d="M 259.023438 568.488281 C 259.023438 569.824219 257.023438 569.824219 257.023438 568.488281 C 257.023438 567.15625 259.023438 567.15625 259.023438 568.488281 "/>
<path style=" stroke:none;fill-rule:nonzero;fill:rgb(100%,0%,0%);fill-opacity:1;" d="M 247.085938 553.910156 C 247.085938 555.242188 245.085938 555.242188 245.085938 553.910156 C 245.085938 552.578125 247.085938 552.578125 247.085938 553.910156 "/>
<path style=" stroke:none;fill-rule:nonzero;fill:rgb(100%,0%,0%);fill-opacity:1;" d="M 401.527344 330.769531 C 401.527344 332.101562 399.527344 332.101562 399.527344 330.769531 C 399.527344 329.4375 401.527344 329.4375 401.527344 330.769531 "/>
<path style=" stroke:none;fill-rule:nonzero;fill:rgb(100%,0%,0%);fill-opacity:1;" d="M 389.40625 331.847656 C 389.40625 333.179688 387.40625 333.179688 387.40625 331.847656 C 387.40625 330.511719 389.40625 330.511719 389.40625 331.847656 "/>
<path style=" stroke:none;fill-rule:nonzero;fill:rgb(100%,0%,0%);fill-opacity:1;" d="M 89.757812 136.523438 C 89.757812 137.855469 87.757812 137.855469 87.757812 136.523438 C 87.757812 135.191406 89.757812 135.191406 89.757812 136.523438 "/>
<path style=" stroke:none;fill-rule:nonzero;fill:rgb(100%,0%,0%);fill-opacity:1;" d="M 77.746094 151.320312 C 77.746094 152.652344 75.746094 152.652344 75.746094 151.320312 C 75.746094 149.984375 77.746094 149.984375 77.746094 151.320312 "/>
<path style=" stroke:none;fill-rule:nonzero;fill:rgb(100%,0%,0%);fill-opacity:1;" d="M 305.648438 352.914062 C 305.648438 354.25 303.648438 354.25 303.648438 352.914062 C 303.648438 351.582031 305.648438 351.582031 305.648438 352.914062 "/>
<path style=" stroke:none;fill-rule:nonzero;fill:rgb(100%,0%,0%);fill-opacity:1;" d="M 294.316406 349.101562 C 294.316406 350.433594 292.316406 350.433594 292.316406 349.101562 C 292.316406 347.765625 294.316406 347.765625 294.316406 349.101562 "/>
<path style=" stroke:none;fill-rule:nonzero;fill:rgb(100%,0%,0%);fill-opacity:1;" d="M 261.222656 215.015625 C 261.222656 216.347656 259.222656 216.347656 259.222656 215.015625 C 259.222656 213.679688 261.222656 213.679688 261.222656 215.015625 "/>
<path style=" stroke:none;fill-rule:nonzero;fill:rgb(100%,0%,0%);fill-opacity:1;" d="M 273.335938 213.753906 C 273.335938 215.085938 271.335938 215.085938 271.335938 213.753906 C 271.335938 212.421875 273.335938 212.421875 273.335938 213.753906 "/>
<path style=" stroke:none;fill-rule:nonzero;fill:rgb(100%,0%,0%);fill-opacity:1;" d="M 359.902344 156.679688 C 359.902344 158.015625 357.902344 158.015625 357.902344 156.679688 C 357.902344 155.347656 359.902344 155.347656 359.902344 156.679688 "/>
<path style=" stroke:none;fill-rule:nonzero;fill:rgb(100%,0%,0%);fill-opacity:1;" d="M 364.929688 167.457031 C 364.929688 168.792969 362.929688 168.792969 362.929688 167.457031 C 362.929688 166.125 364.929688 166.125 364.929688 167.457031 "/>
<path style=" stroke:none;fill-rule:nonzero;fill:rgb(100%,0%,0%);fill-opacity:1;" d="M 470.535156 540.222656 C 470.535156 541.554688 468.535156 541.554688 468.535156 540.222656 C 468.535156 538.890625 470.535156 538.890625 470.535156 540.222656 "/>
<path style=" stroke:none;fill-rule:nonzero;fill:rgb(100%,0%,0%);fill-opacity:1;" d="M 460.484375 547.164062 C 460.484375 548.496094 458.484375 548.496094 458.484375 547.164062 C 458.484375 545.832031 460.484375 545.832031 460.484375 547.164062 "/>
<path style=" stroke:none;fill-rule:nonzero;fill:rgb(100%,0%,0%);fill-opacity:1;" d="M 568.417969 248.347656 C 568.417969 249.679688 566.417969 249.679688 566.417969 248.347656 C 566.417969 247.015625 568.417969 247.015625 568.417969 248.347656 "/>
<path style=" stroke:none;fill-rule:nonzero;fill:rgb(100%,0%,0%);fill-opacity:1;" d="M 562.695312 237.847656 C 562.695312 239.183594 560.695312 239.183594 560.695312 237.847656 C 560.695312 236.515625 562.695312 236.515625 562.695312 237.847656 "/>
<path style=" stroke:none;fill-rule:nonzero;fill:rgb(100%,0%,0%);fill-opacity:1;" d="M 538.5625 198.167969 C 538.5625 199.503906 536.5625 199.503906 536.5625 198.167969 C 536.5625 196.835938 538.5625 196.835938 538.5625 198.167969 "/>
<path style=" stroke:none;fill-rule:nonzero;fill:rgb(100%,0%,0%);fill-opacity:1;" d="M 526.914062 201.6875 C 526.914062 203.023438 524.914062 203.023438 524.914062 201.6875 C 524.914062 200.355469 526.914062 200.355469 526.914062 201.6875 "/>
<path style=" stroke:none;fill-rule:nonzero;fill:rgb(100%,0%,0%);fill-opacity:1;" d="M 443.671875 58.816406 C 443.671875 60.152344 441.671875 60.152344 441.671875 58.816406 C 441.671875 57.484375 443.671875 57.484375 443.671875 58.816406 "/>
<path style=" stroke:none;fill-rule:nonzero;fill:rgb(100%,0%,0%);fill-opacity:1;" d="M 455.875 59.867188 C 455.875 61.199219 453.875 61.199219 453.875 59.867188 C 453.875 58.53125 455.875 58.53125 455.875 59.867188 "/>
<path style=" stroke:none;fill-rule:nonzero;fill:rgb(100%,0%,0%);fill-opacity:1;" d="M 509.363281 260.773438 C 509.363281 262.105469 507.363281 262.105469 507.363281 260.773438 C 507.363281 259.441406 509.363281 259.441406 509.363281 260.773438 "/>
<path style=" stroke:none;fill-rule:nonzero;fill:rgb(100%,0%,0%);fill-opacity:1;" d="M 499.371094 267.675781 C 499.371094 269.007812 497.371094 269.007812 497.371094 267.675781 C 497.371094 266.339844 499.371094 266.339844 499.371094 267.675781 "/>
<path style=" stroke:none;fill-rule:nonzero;fill:rgb(100%,0%,0%);fill-opacity:1;" d="M 266.359375 133.59375 C 266.359375 134.925781 264.359375 134.925781 264.359375 133.59375 C 264.359375 132.257812 266.359375 132.257812 266.359375 133.59375 "/>
<path style=" stroke:none;fill-rule:nonzero;fill:rgb(100%,0%,0%);fill-opacity:1;" d="M 255.386719 138.820312 C 255.386719 140.15625 253.386719 140.15625 253.386719 138.820312 C 253.386719 137.488281 255.386719 137.488281 255.386719 138.820312 "/>
<path style=" stroke:none;fill-rule:nonzero;fill:rgb(100%,0%,0%);fill-opacity:1;" d="M 408.972656 128.417969 C 408.972656 129.75 406.972656 129.75 406.972656 128.417969 C 406.972656 127.082031 408.972656 127.082031 408.972656 128.417969 "/>
<path style=" stroke:none;fill-rule:nonzero;fill:rgb(100%,0%,0%);fill-opacity:1;" d="M 397.683594 133.152344 C 397.683594 134.488281 395.683594 134.488281 395.683594 133.152344 C 395.683594 131.820312 397.683594 131.820312 397.683594 133.152344 "/>
<path style=" stroke:none;fill-rule:nonzero;fill:rgb(100%,0%,0%);fill-opacity:1;" d="M 325.667969 386.527344 C 325.667969 387.859375 323.667969 387.859375 323.667969 386.527344 C 323.667969 385.191406 325.667969 385.191406 325.667969 386.527344 "/>
<path style=" stroke:none;fill-rule:nonzero;fill:rgb(100%,0%,0%);fill-opacity:1;" d="M 334.738281 378.6875 C 334.738281 380.019531 332.738281 380.019531 332.738281 378.6875 C 332.738281 377.351562 334.738281 377.351562 334.738281 378.6875 "/>
</g>
</svg>
