<?xml version="1.0" encoding="UTF-8"?>
<svg xmlns="http://www.w3.org/2000/svg" xmlns:xlink="http://www.w3.org/1999/xlink" width="600" height="600" viewBox="0 0 600 600">
<rect x="-60" y="-60" width="720" height="720" fill="rgb(100%, 100%, 100%)" fill-opacity="1"/>
<path fill-rule="nonzero" fill="rgb(100%, 0%, 0%)" fill-opacity="1" stroke-width="0.01" stroke-linecap="butt" stroke-linejoin="miter" stroke="rgb(0%, 0%, 0%)" stroke-opacity="1" stroke-miterlimit="10" d="M 163.242188 111.460938 C 163.242188 112.796875 161.242188 112.796875 161.242188 111.460938 C 161.242188 110.128906 163.242188 110.128906 163.242188 111.460938 "/>
<path fill-rule="nonzero" fill="rgb(100%, 0%, 0%)" fill-opacity="1" stroke-width="0.01" stroke-linecap="butt" stroke-linejoin="miter" stroke="rgb(0%, 0%, 0%)" stroke-opacity="1" stroke-miterlimit="10" d="M 220.210938 294.792969 C 220.210938 296.128906 218.210938 296.128906 218.210938 294.792969 C 218.210938 293.460938 220.210938 293.460938 220.210938 294.792969 "/>
<path fill-rule="nonzero" fill="rgb(100%, 0%, 0%)" fill-opacity="1" stroke-width="0.01" stroke-linecap="butt" stroke-linejoin="miter" stroke="rgb(0%, 0%, 0%)" stroke-opacity="1" stroke-miterlimit="10" d="M 261.242188 452.105469 C 261.242188 453.4375 259.242188 453.4375 259.242188 452.105469 C 259.242188 450.773438 261.242188 450.773438 261.242188 452.105469 "/>
<path fill-rule="nonzero" fill="rgb(100%, 0%, 0%)" fill-opacity="1" stroke-width="0.01" stroke-linecap="butt" stroke-linejoin="miter" stroke="rgb(0%, 0%, 0%)" stroke-opacity="1" stroke-miterlimit="10" d="M 324.410156 309.824219 C 324.410156 311.15625 322.410156 311.15625 322.410156 309.824219 C 322.410156 308.492188 324.410156 308.492188 324.410156 309.824219 "/>
<path fill-rule="nonzero" fill="rgb(100%, 0%, 0%)" fill-opacity="1" stroke-width="0.01" stroke-linecap="butt" stroke-linejoin="miter" stroke="rgb(0%, 0%, 0%)" stroke-opacity="1" stroke-miterlimit="10" d="M 109.042969 513.9375 C 109.042969 515.273438 107.042969 515.273438 107.042969 513.9375 C 107.042969 512.605469 109.042969 512.605469 109.042969 513.9375 "/>
<path fill-rule="nonzero" fill="rgb(100%, 0%, 0%)" fill-opacity="1" stroke-width="0.01" stroke-linecap="butt" stroke-linejoin="miter" stroke="rgb(0%, 0%, 0%)" stroke-opacity="1" stroke-miterlimit="10" d="M 371.511719 577.726562 C 371.511719 579.058594 369.511719 579.058594 369.511719 577.726562 C 369.511719 576.394531 371.511719 576.394531 371.511719 577.726562 "/>
<path fill-rule="nonzero" fill="rgb(100%, 0%, 0%)" fill-opacity="1" stroke-width="0.01" stroke-linecap="butt" stroke-linejoin="miter" stroke="rgb(0%, 0%, 0%)" stroke-opacity="1" stroke-miterlimit="10" d="M 269.34375 304.296875 C 269.34375 305.628906 267.34375 305.628906 267.34375 304.296875 C 267.34375 302.960938 269.34375 302.960938 269.34375 304.296875 "/>
<path fill-rule="nonzero" fill="rgb(100%, 0%, 0%)" fill-opacity="1" stroke-width="0.01" stroke-linecap="butt" stroke-linejoin="miter" stroke="rgb(0%, 0%, 0%)" stroke-opacity="1" stroke-miterlimit="10" d="M 449.589844 225.574219 C 449.589844 226.910156 447.589844 226.910156 447.589844 225.574219 C 447.589844 224.242188 449.589844 224.242188 449.589844 225.574219 "/>
<path fill-rule="nonzero" fill="rgb(100%, 0%, 0%)" fill-opacity="1" stroke-width="0.01" stroke-linecap="butt" stroke-linejoin="miter" stroke="rgb(0%, 0%, 0%)" stroke-opacity="1" stroke-miterlimit="10" d="M 425.453125 283.070312 C 425.453125 284.402344 423.453125 284.402344 423.453125 283.070312 C 423.453125 281.738281 425.453125 281.738281 425.453125 283.070312 "/>
<path fill-rule="nonzero" fill="rgb(100%, 0%, 0%)" fill-opacity="1" stroke-width="0.01" stroke-linecap="butt" stroke-linejoin="miter" stroke="rgb(0%, 0%, 0%)" stroke-opacity="1" stroke-miterlimit="10" d="M 132.628906 330.40625 C 132.628906 331.738281 130.628906 331.738281 130.628906 330.40625 C 130.628906 329.070312 132.628906 329.070312 132.628906 330.40625 "/>
<path fill-rule="nonzero" fill="rgb(100%, 0%, 0%)" fill-opacity="1" stroke-width="0.01" stroke-linecap="butt" stroke-linejoin="miter" stroke="rgb(0%, 0%, 0%)" stroke-opacity="1" stroke-miterlimit="10" d="M 321.339844 458.988281 C 321.339844 460.324219 319.339844 460.324219 319.339844 458.988281 C 319.339844 457.65625 321.339844 457.65625 321.339844 458.988281 "/>
<path fill-rule="nonzero" fill="rgb(100%, 0%, 0%)" fill-opacity="1" stroke-width="0.01" stroke-linecap="butt" stroke-linejoin="miter" stroke="rgb(0%, 0%, 0%)" stroke-opacity="1" stroke-miterlimit="10" d="M 551.449219 165.246094 C 551.449219 166.578125 549.449219 166.578125 549.449219 165.246094 C 549.449219 163.910156 551.449219 163.910156 551.449219 165.246094 "/>
<path fill-rule="nonzero" fill="rgb(100%, 0%, 0%)" fill-opacity="1" stroke-width="0.01" stroke-linecap="butt" stroke-linejoin="miter" stroke="rgb(0%, 0%, 0%)" stroke-opacity="1" stroke-miterlimit="10" d="M 166.335938 288.804688 C 166.335938 290.136719 164.335938 290.136719 164.335938 288.804688 C 164.335938 287.472656 166.335938 287.472656 166.335938 288.804688 "/>
<path fill-rule="nonzero" fill="rgb(100%, 0%, 0%)" fill-opacity="1" stroke-width="0.01" stroke-linecap="butt" stroke-linejoin="miter" stroke="rgb(0%, 0%, 0%)" stroke-opacity="1" stroke-miterlimit="10" d="M 173.855469 553.132812 C 173.855469 554.464844 171.855469 554.464844 171.855469 553.132812 C 171.855469 551.796875 173.855469 551.796875 173.855469 553.132812 "/>
<path fill-rule="nonzero" fill="rgb(100%, 0%, 0%)" fill-opacity="1" stroke-width="0.01" stroke-linecap="butt" stroke-linejoin="miter" stroke="rgb(0%, 0%, 0%)" stroke-opacity="1" stroke-miterlimit="10" d="M 464.855469 484.042969 C 464.855469 485.375 462.855469 485.375 462.855469 484.042969 C 462.855469 482.707031 464.855469 482.707031 464.855469 484.042969 "/>
<path fill-rule="nonzero" fill="rgb(100%, 0%, 0%)" fill-opacity="1" stroke-width="0.01" stroke-linecap="butt" stroke-linejoin="miter" stroke="rgb(0%, 0%, 0%)" stroke-opacity="1" stroke-miterlimit="10" d="M 359.585938 494.734375 C 359.585938 496.070312 357.585938 496.070312 357.585938 494.734375 C 357.585938 493.402344 359.585938 493.402344 359.585938 494.734375 "/>
<path fill-rule="nonzero" fill="rgb(100%, 0%, 0%)" fill-opacity="1" stroke-width="0.01" stroke-linecap="butt" stroke-linejoin="miter" stroke="rgb(0%, 0%, 0%)" stroke-opacity="1" stroke-miterlimit="10" d="M 215.167969 118.367188 C 215.167969 119.699219 213.167969 119.699219 213.167969 118.367188 C 213.167969 117.035156 215.167969 117.035156 215.167969 118.367188 "/>
<path fill-rule="nonzero" fill="rgb(100%, 0%, 0%)" fill-opacity="1" stroke-width="0.01" stroke-linecap="butt" stroke-linejoin="miter" stroke="rgb(0%, 0%, 0%)" stroke-opacity="1" stroke-miterlimit="10" d="M 46.246094 356.171875 C 46.246094 357.503906 44.246094 357.503906 44.246094 356.171875 C 44.246094 354.835938 46.246094 354.835938 46.246094 356.171875 "/>
<path fill-rule="nonzero" fill="rgb(100%, 0%, 0%)" fill-opacity="1" stroke-width="0.01" stroke-linecap="butt" stroke-linejoin="miter" stroke="rgb(0%, 0%, 0%)" stroke-opacity="1" stroke-miterlimit="10" d="M 121.09375 219.109375 C 121.09375 220.441406 119.09375 220.441406 119.09375 219.109375 C 119.09375 217.773438 121.09375 217.773438 121.09375 219.109375 "/>
<path fill-rule="nonzero" fill="rgb(100%, 0%, 0%)" fill-opacity="1" stroke-width="0.01" stroke-linecap="butt" stroke-linejoin="miter" stroke="rgb(0%, 0%, 0%)" stroke-opacity="1" stroke-miterlimit="10" d="M 105.695312 281 C 105.695312 282.335938 103.695312 282.335938 103.695312 281 C 103.695312 279.667969 105.695312 279.667969 105.695312 281 "/>
<path fill-rule="nonzero" fill="rgb(100%, 0%, 0%)" fill-opacity="1" stroke-width="0.01" stroke-linecap="butt" stroke-linejoin="miter" stroke="rgb(0%, 0%, 0%)" stroke-opacity="1" stroke-miterlimit="10" d="M 69.480469 224.457031 C 69.480469 225.792969 67.480469 225.792969 67.480469 224.457031 C 67.480469 223.125 69.480469 223.125 69.480469 224.457031 "/>
<path fill-rule="nonzero" fill="rgb(100%, 0%, 0%)" fill-opacity="1" stroke-width="0.01" stroke-linecap="butt" stroke-linejoin="miter" stroke="rgb(0%, 0%, 0%)" stroke-opacity="1" stroke-miterlimit="10" d="M 44.953125 413.71875 C 44.953125 415.054688 42.953125 415.054688 42.953125 413.71875 C 42.953125 412.386719 44.953125 412.386719 44.953125 413.71875 "/>
<path fill-rule="nonzero" fill="rgb(100%, 0%, 0%)" fill-opacity="1" stroke-width="0.01" stroke-linecap="butt" stroke-linejoin="miter" stroke="rgb(0%, 0%, 0%)" stroke-opacity="1" stroke-miterlimit="10" d="M 284.179688 580 C 284.179688 581.332031 282.179688 581.332031 282.179688 580 C 282.179688 578.667969 284.179688 578.667969 284.179688 580 "/>
<path fill-rule="nonzero" fill="rgb(100%, 0%, 0%)" fill-opacity="1" stroke-width="0.01" stroke-linecap="butt" stroke-linejoin="miter" stroke="rgb(0%, 0%, 0%)" stroke-opacity="1" stroke-miterlimit="10" d="M 391.089844 339.929688 C 391.089844 341.261719 389.089844 341.261719 389.089844 339.929688 C 389.089844 338.59375 391.089844 338.59375 391.089844 339.929688 "/>
<path fill-rule="nonzero" fill="rgb(100%, 0%, 0%)" fill-opacity="1" stroke-width="0.01" stroke-linecap="butt" stroke-linejoin="miter" stroke="rgb(0%, 0%, 0%)" stroke-opacity="1" stroke-miterlimit="10" d="M 242.003906 355.988281 C 242.003906 357.324219 240.003906 357.324219 240.003906 355.988281 C 240.003906 354.65625 242.003906 354.65625 242.003906 355.988281 "/>
<path fill-rule="nonzero" fill="rgb(100%, 0%, 0%)" fill-opacity="1" stroke-width="0.01" stroke-linecap="butt" stroke-linejoin="miter" stroke="rgb(0%, 0%, 0%)" stroke-opacity="1" stroke-miterlimit="10" d="M 424.234375 169.925781 C 424.234375 171.257812 422.234375 171.257812 422.234375 169.925781 C 422.234375 168.589844 424.234375 168.589844 424.234375 169.925781 "/>
<path fill-rule="nonzero" fill="rgb(100%, 0%, 0%)" fill-opacity="1" stroke-width="0.01" stroke-linecap="butt" stroke-linejoin="miter" stroke="rgb(0%, 0%, 0%)" stroke-opacity="1" stroke-miterlimit="10" d="M 191.617188 440.6875 C 191.617188 442.023438 189.617188 442.023438 189.617188 440.6875 C 189.617188 439.355469 191.617188 439.355469 191.617188 440.6875 "/>
<path fill-rule="nonzero" fill="rgb(100%, 0%, 0%)" fill-opacity="1" stroke-width="0.01" stroke-linecap="butt" stroke-linejoin="miter" stroke="rgb(0%, 0%, 0%)" stroke-opacity="1" stroke-miterlimit="10" d="M 211.71875 237.164062 C 211.71875 238.496094 209.71875 238.496094 209.71875 237.164062 C 209.71875 235.832031 211.71875 235.832031 211.71875 237.164062 "/>
<path fill-rule="nonzero" fill="rgb(100%, 0%, 0%)" fill-opacity="1" stroke-width="0.01" stroke-linecap="butt" stroke-linejoin="miter" stroke="rgb(0%, 0%, 0%)" stroke-opacity="1" stroke-miterlimit="10" d="M 558.125 447.472656 C 558.125 448.808594 556.125 448.808594 556.125 447.472656 C 556.125 446.140625 558.125 446.140625 558.125 447.472656 "/>
<path fill-rule="nonzero" fill="rgb(100%, 0%, 0%)" fill-opacity="1" stroke-width="0.01" stroke-linecap="butt" stroke-linejoin="miter" stroke="rgb(0%, 0%, 0%)" stroke-opacity="1" stroke-miterlimit="10" d="M 479.820312 180.8125 C 479.820312 182.148438 477.820312 182.148438 477.820312 180.8125 C 477.820312 179.480469 479.820312 179.480469 479.820312 180.8125 "/>
<path fill-rule="nonzero" fill="rgb(100%, 0%, 0%)" fill-opacity="1" stroke-width="0.01" stroke-linecap="butt" stroke-linejoin="miter" stroke="rgb(0%, 0%, 0%)" stroke-opacity="1" stroke-miterlimit="10" d="M 409.238281 35.921875 C 409.238281 37.257812 407.238281 37.257812 407.238281 35.921875 C 407.238281 34.589844 409.238281 34.589844 409.238281 35.921875 "/>
<path fill-rule="nonzero" fill="rgb(100%, 0%, 0%)" fill-opacity="1" stroke-width="0.01" stroke-linecap="butt" stroke-linejoin="miter" stroke="rgb(0%, 0%, 0%)" stroke-opacity="1" stroke-miterlimit="10" d="M 375.78125 294.304688 C 375.78125 295.636719 373.78125 295.636719 373.78125 294.304688 C 373.78125 292.972656 375.78125 292.972656 375.78125 294.304688 "/>
<path fill-rule="nonzero" fill="rgb(100%, 0%, 0%)" fill-opacity="1" stroke-width="0.01" stroke-linecap="butt" stroke-linejoin="miter" stroke="rgb(0%, 0%, 0%)" stroke-opacity="1" stroke-miterlimit="10" d="M 56.851562 166.023438 C 56.851562 167.355469 54.851562 167.355469 54.851562 166.023438 C 54.851562 164.691406 56.851562 164.691406 56.851562 166.023438 "/>
<path fill-rule="nonzero" fill="rgb(100%, 0%, 0%)" fill-opacity="1" stroke-width="0.01" stroke-linecap="butt" stroke-linejoin="miter" stroke="rgb(0%, 0%, 0%)" stroke-opacity="1" stroke-miterlimit="10" d="M 229.089844 405.578125 C 229.089844 406.914062 227.089844 406.914062 227.089844 405.578125 C 227.089844 404.246094 229.089844 404.246094 229.089844 405.578125 "/>
<path fill-rule="nonzero" fill="rgb(100%, 0%, 0%)" fill-opacity="1" stroke-width="0.01" stroke-linecap="butt" stroke-linejoin="miter" stroke="rgb(0%, 0%, 0%)" stroke-opacity="1" stroke-miterlimit="10" d="M 410.890625 503.167969 C 410.890625 504.5 408.890625 504.5 408.890625 503.167969 C 408.890625 501.832031 410.890625 501.832031 410.890625 503.167969 "/>
<path fill-rule="nonzero" fill="rgb(100%, 0%, 0%)" fill-opacity="1" stroke-width="0.01" stroke-linecap="butt" stroke-linejoin="miter" stroke="rgb(0%, 0%, 0%)" stroke-opacity="1" stroke-miterlimit="10" d="M 21 254.976562 C 21 256.308594 19 256.308594 19 254.976562 C 19 253.640625 21 253.640625 21 254.976562 "/>
<path fill-rule="nonzero" fill="rgb(100%, 0%, 0%)" fill-opacity="1" stroke-width="0.01" stroke-linecap="butt" stroke-linejoin="miter" stroke="rgb(0%, 0%, 0%)" stroke-opacity="1" stroke-miterlimit="10" d="M 165.300781 236.078125 C 165.300781 237.410156 163.300781 237.410156 163.300781 236.078125 C 163.300781 234.742188 165.300781 234.742188 165.300781 236.078125 "/>
<path fill-rule="nonzero" fill="rgb(100%, 0%, 0%)" fill-opacity="1" stroke-width="0.01" stroke-linecap="butt" stroke-linejoin="miter" stroke="rgb(0%, 0%, 0%)" stroke-opacity="1" stroke-miterlimit="10" d="M 391.703125 445.035156 C 391.703125 446.367188 389.703125 446.367188 389.703125 445.035156 C 389.703125 443.703125 391.703125 443.703125 391.703125 445.035156 "/>
<path fill-rule="nonzero" fill="rgb(100%, 0%, 0%)" fill-opacity="1" stroke-width="0.01" stroke-linecap="butt" stroke-linejoin="miter" stroke="rgb(0%, 0%, 0%)" stroke-opacity="1" stroke-miterlimit="10" d="M 215 45.628906 C 215 46.964844 213 46.964844 213 45.628906 C 213 44.296875 215 44.296875 215 45.628906 "/>
<path fill-rule="nonzero" fill="rgb(100%, 0%, 0%)" fill-opacity="1" stroke-width="0.01" stroke-linecap="butt" stroke-linejoin="miter" stroke="rgb(0%, 0%, 0%)" stroke-opacity="1" stroke-miterlimit="10" d="M 286.351562 405.648438 C 286.351562 406.980469 284.351562 406.980469 284.351562 405.648438 C 284.351562 404.3125 286.351562 404.3125 286.351562 405.648438 "/>
<path fill-rule="nonzero" fill="rgb(100%, 0%, 0%)" fill-opacity="1" stroke-width="0.01" stroke-linecap="butt" stroke-linejoin="miter" stroke="rgb(0%, 0%, 0%)" stroke-opacity="1" stroke-miterlimit="10" d="M 133.914062 425.195312 C 133.914062 426.53125 131.914062 426.53125 131.914062 425.195312 C 131.914062 423.863281 133.914062 423.863281 133.914062 425.195312 "/>
<path fill-rule="nonzero" fill="rgb(100%, 0%, 0%)" fill-opacity="1" stroke-width="0.01" stroke-linecap="butt" stroke-linejoin="miter" stroke="rgb(0%, 0%, 0%)" stroke-opacity="1" stroke-miterlimit="10" d="M 230.058594 184.890625 C 230.058594 186.222656 228.058594 186.222656 228.058594 184.890625 C 228.058594 183.554688 230.058594 183.554688 230.058594 184.890625 "/>
<path fill-rule="nonzero" fill="rgb(100%, 0%, 0%)" fill-opacity="1" stroke-width="0.01" stroke-linecap="butt" stroke-linejoin="miter" stroke="rgb(0%, 0%, 0%)" stroke-opacity="1" stroke-miterlimit="10" d="M 581 374.5 C 581 375.832031 579 375.832031 579 374.5 C 579 373.164062 581 373.164062 581 374.5 "/>
<path fill-rule="nonzero" fill="rgb(100%, 0%, 0%)" fill-opacity="1" stroke-width="0.01" stroke-linecap="butt" stroke-linejoin="miter" stroke="rgb(0%, 0%, 0%)" stroke-opacity="1" stroke-miterlimit="10" d="M 438.707031 344.285156 C 438.707031 345.617188 436.707031 345.617188 436.707031 344.285156 C 436.707031 342.949219 438.707031 342.949219 438.707031 344.285156 "/>
<path fill-rule="nonzero" fill="rgb(100%, 0%, 0%)" fill-opacity="1" stroke-width="0.01" stroke-linecap="butt" stroke-linejoin="miter" stroke="rgb(0%, 0%, 0%)" stroke-opacity="1" stroke-miterlimit="10" d="M 476.761719 271.628906 C 476.761719 272.960938 474.761719 272.960938 474.761719 271.628906 C 474.761719 270.292969 476.761719 270.292969 476.761719 271.628906 "/>
<path fill-rule="nonzero" fill="rgb(100%, 0%, 0%)" fill-opacity="1" stroke-width="0.01" stroke-linecap="butt" stroke-linejoin="miter" stroke="rgb(0%, 0%, 0%)" stroke-opacity="1" stroke-miterlimit="10" d="M 304.171875 259.160156 C 304.171875 260.492188 302.171875 260.492188 302.171875 259.160156 C 302.171875 257.828125 304.171875 257.828125 304.171875 259.160156 "/>
<path fill-rule="nonzero" fill="rgb(100%, 0%, 0%)" fill-opacity="1" stroke-width="0.01" stroke-linecap="butt" stroke-linejoin="miter" stroke="rgb(0%, 0%, 0%)" stroke-opacity="1" stroke-miterlimit="10" d="M 352.742188 252.925781 C 352.742188 254.257812 350.742188 254.257812 350.742188 252.925781 C 350.742188 251.59375 352.742188 251.59375 352.742188 252.925781 "/>
<path fill-rule="nonzero" fill="rgb(100%, 0%, 0%)" fill-opacity="1" stroke-width="0.01" stroke-linecap="butt" stroke-linejoin="miter" stroke="rgb(0%, 0%, 0%)" stroke-opacity="1" stroke-miterlimit="10" d="M 162.519531 487.964844 C 162.519531 489.300781 160.519531 489.300781 160.519531 487.964844 C 160.519531 486.632812 162.519531 486.632812 162.519531 487.964844 "/>
<path fill-rule="nonzero" fill="rgb(100%, 0%, 0%)" fill-opacity="1" stroke-width="0.01" stroke-linecap="butt" stroke-linejoin="miter" stroke="rgb(0%, 0%, 0%)" stroke-opacity="1" stroke-miterlimit="10" d="M 509.710938 421.511719 C 509.710938 422.84375 507.710938 422.84375 507.710938 421.511719 C 507.710938 420.175781 509.710938 420.175781 509.710938 421.511719 "/>
<path fill-rule="nonzero" fill="rgb(100%, 0%, 0%)" fill-opacity="1" stroke-width="0.01" stroke-linecap="butt" stroke-linejoin="miter" stroke="rgb(0%, 0%, 0%)" stroke-opacity="1" stroke-miterlimit="10" d="M 283.734375 503.796875 C 283.734375 505.132812 281.734375 505.132812 281.734375 503.796875 C 281.734375 502.464844 283.734375 502.464844 283.734375 503.796875 "/>
<path fill-rule="nonzero" fill="rgb(100%, 0%, 0%)" fill-opacity="1" stroke-width="0.01" stroke-linecap="butt" stroke-linejoin="miter" stroke="rgb(0%, 0%, 0%)" stroke-opacity="1" stroke-miterlimit="10" d="M 580.882812 309.886719 C 580.882812 311.222656 578.882812 311.222656 578.882812 309.886719 C 578.882812 308.554688 580.882812 308.554688 580.882812 309.886719 "/>
<path fill-rule="nonzero" fill="rgb(100%, 0%, 0%)" fill-opacity="1" stroke-width="0.01" stroke-linecap="butt" stroke-linejoin="miter" stroke="rgb(0%, 0%, 0%)" stroke-opacity="1" stroke-miterlimit="10" d="M 348.046875 203.539062 C 348.046875 204.875 346.046875 204.875 346.046875 203.539062 C 346.046875 202.207031 348.046875 202.207031 348.046875 203.539062 "/>
<path fill-rule="nonzero" fill="rgb(100%, 0%, 0%)" fill-opacity="1" stroke-width="0.01" stroke-linecap="butt" stroke-linejoin="miter" stroke="rgb(0%, 0%, 0%)" stroke-opacity="1" stroke-miterlimit="10" d="M 350.527344 33.988281 C 350.527344 35.320312 348.527344 35.320312 348.527344 33.988281 C 348.527344 32.65625 350.527344 32.65625 350.527344 33.988281 "/>
<path fill-rule="nonzero" fill="rgb(100%, 0%, 0%)" fill-opacity="1" stroke-width="0.01" stroke-linecap="butt" stroke-linejoin="miter" stroke="rgb(0%, 0%, 0%)" stroke-opacity="1" stroke-miterlimit="10" d="M 516.246094 222.902344 C 516.246094 224.238281 514.246094 224.238281 514.246094 222.902344 C 514.246094 221.570312 516.246094 221.570312 516.246094 222.902344 "/>
<path fill-rule="nonzero" fill="rgb(100%, 0%, 0%)" fill-opacity="1" stroke-width="0.01" stroke-linecap="butt" stroke-linejoin="miter" stroke="rgb(0%, 0%, 0%)" stroke-opacity="1" stroke-miterlimit="10" d="M 395.773438 393.082031 C 395.773438 394.414062 393.773438 394.414062 393.773438 393.082031 C 393.773438 391.75 395.773438 391.75 395.773438 393.082031 "/>
<path fill-rule="nonzero" fill="rgb(100%, 0%, 0%)" fill-opacity="1" stroke-width="0.01" stroke-linecap="butt" stroke-linejoin="miter" stroke="rgb(0%, 0%, 0%)" stroke-opacity="1" stroke-miterlimit="10" d="M 580.714844 232.019531 C 580.714844 233.355469 578.714844 233.355469 578.714844 232.019531 C 578.714844 230.6875 580.714844 230.6875 580.714844 232.019531 "/>
<path fill-rule="nonzero" fill="rgb(100%, 0%, 0%)" fill-opacity="1" stroke-width="0.01" stroke-linecap="butt" stroke-linejoin="miter" stroke="rgb(0%, 0%, 0%)" stroke-opacity="1" stroke-miterlimit="10" d="M 327.929688 540.128906 C 327.929688 541.460938 325.929688 541.460938 325.929688 540.128906 C 325.929688 538.792969 327.929688 538.792969 327.929688 540.128906 "/>
<path fill-rule="nonzero" fill="rgb(100%, 0%, 0%)" fill-opacity="1" stroke-width="0.01" stroke-linecap="butt" stroke-linejoin="miter" stroke="rgb(0%, 0%, 0%)" stroke-opacity="1" stroke-miterlimit="10" d="M 94.714844 108.464844 C 94.714844 109.800781 92.714844 109.800781 92.714844 108.464844 C 92.714844 107.132812 94.714844 107.132812 94.714844 108.464844 "/>
<path fill-rule="nonzero" fill="rgb(100%, 0%, 0%)" fill-opacity="1" stroke-width="0.01" stroke-linecap="butt" stroke-linejoin="miter" stroke="rgb(0%, 0%, 0%)" stroke-opacity="1" stroke-miterlimit="10" d="M 257.109375 245.703125 C 257.109375 247.039062 255.109375 247.039062 255.109375 245.703125 C 255.109375 244.371094 257.109375 244.371094 257.109375 245.703125 "/>
<path fill-rule="nonzero" fill="rgb(100%, 0%, 0%)" fill-opacity="1" stroke-width="0.01" stroke-linecap="butt" stroke-linejoin="miter" stroke="rgb(0%, 0%, 0%)" stroke-opacity="1" stroke-miterlimit="10" d="M 269.332031 152.917969 C 269.332031 154.253906 267.332031 154.253906 267.332031 152.917969 C 267.332031 151.585938 269.332031 151.585938 269.332031 152.917969 "/>
<path fill-rule="nonzero" fill="rgb(100%, 0%, 0%)" fill-opacity="1" stroke-width="0.01" stroke-linecap="butt" stroke-linejoin="miter" stroke="rgb(0%, 0%, 0%)" stroke-opacity="1" stroke-miterlimit="10" d="M 222.703125 492.613281 C 222.703125 493.945312 220.703125 493.945312 220.703125 492.613281 C 220.703125 491.28125 222.703125 491.28125 222.703125 492.613281 "/>
<path fill-rule="nonzero" fill="rgb(100%, 0%, 0%)" fill-opacity="1" stroke-width="0.01" stroke-linecap="butt" stroke-linejoin="miter" stroke="rgb(0%, 0%, 0%)" stroke-opacity="1" stroke-miterlimit="10" d="M 180.035156 174.640625 C 180.035156 175.972656 178.035156 175.972656 178.035156 174.640625 C 178.035156 173.308594 180.035156 173.308594 180.035156 174.640625 "/>
<path fill-rule="nonzero" fill="rgb(100%, 0%, 0%)" fill-opacity="1" stroke-width="0.01" stroke-linecap="butt" stroke-linejoin="miter" stroke="rgb(0%, 0%, 0%)" stroke-opacity="1" stroke-miterlimit="10" d="M 445.21875 86.066406 C 445.21875 87.398438 443.21875 87.398438 443.21875 86.066406 C 443.21875 84.730469 445.21875 84.730469 445.21875 86.066406 "/>
<path fill-rule="nonzero" fill="rgb(100%, 0%, 0%)" fill-opacity="1" stroke-width="0.01" stroke-linecap="butt" stroke-linejoin="miter" stroke="rgb(0%, 0%, 0%)" stroke-opacity="1" stroke-miterlimit="10" d="M 170.683594 384.722656 C 170.683594 386.058594 168.683594 386.058594 168.683594 384.722656 C 168.683594 383.390625 170.683594 383.390625 170.683594 384.722656 "/>
<path fill-rule="nonzero" fill="rgb(100%, 0%, 0%)" fill-opacity="1" stroke-width="0.01" stroke-linecap="butt" stroke-linejoin="miter" stroke="rgb(0%, 0%, 0%)" stroke-opacity="1" stroke-miterlimit="10" d="M 437.300781 555.613281 C 437.300781 556.945312 435.300781 556.945312 435.300781 555.613281 C 435.300781 554.28125 437.300781 554.28125 437.300781 555.613281 "/>
<path fill-rule="nonzero" fill="rgb(100%, 0%, 0%)" fill-opacity="1" stroke-width="0.01" stroke-linecap="butt" stroke-linejoin="miter" stroke="rgb(0%, 0%, 0%)" stroke-opacity="1" stroke-miterlimit="10" d="M 263.984375 100.078125 C 263.984375 101.410156 261.984375 101.410156 261.984375 100.078125 C 261.984375 98.742188 263.984375 98.742188 263.984375 100.078125 "/>
<path fill-rule="nonzero" fill="rgb(100%, 0%, 0%)" fill-opacity="1" stroke-width="0.01" stroke-linecap="butt" stroke-linejoin="miter" stroke="rgb(0%, 0%, 0%)" stroke-opacity="1" stroke-miterlimit="10" d="M 524.265625 359.867188 C 524.265625 361.203125 522.265625 361.203125 522.265625 359.867188 C 522.265625 358.535156 524.265625 358.535156 524.265625 359.867188 "/>
<path fill-rule="nonzero" fill="rgb(100%, 0%, 0%)" fill-opacity="1" stroke-width="0.01" stroke-linecap="butt" stroke-linejoin="miter" stroke="rgb(0%, 0%, 0%)" stroke-opacity="1" stroke-miterlimit="10" d="M 233.421875 551.75 C 233.421875 553.082031 231.421875 553.082031 231.421875 551.75 C 231.421875 550.417969 233.421875 550.417969 233.421875 551.75 "/>
<path fill-rule="nonzero" fill="rgb(100%, 0%, 0%)" fill-opacity="1" stroke-width="0.01" stroke-linecap="butt" stroke-linejoin="miter" stroke="rgb(0%, 0%, 0%)" stroke-opacity="1" stroke-miterlimit="10" d="M 397.828125 107.8125 C 397.828125 109.144531 395.828125 109.144531 395.828125 107.8125 C 395.828125 106.476562 397.828125 106.476562 397.828125 107.8125 "/>
<path fill-rule="nonzero" fill="rgb(100%, 0%, 0%)" fill-opacity="1" stroke-width="0.01" stroke-linecap="butt" stroke-linejoin="miter" stroke="rgb(0%, 0%, 0%)" stroke-opacity="1" stroke-miterlimit="10" d="M 86.875 455.996094 C 86.875 457.328125 84.875 457.328125 84.875 455.996094 C 84.875 454.660156 86.875 454.660156 86.875 455.996094 "/>
<path fill-rule="nonzero" fill="rgb(100%, 0%, 0%)" fill-opacity="1" stroke-width="0.01" stroke-linecap="butt" stroke-linejoin="miter" stroke="rgb(0%, 0%, 0%)" stroke-opacity="1" stroke-miterlimit="10" d="M 150.679688 54.011719 C 150.679688 55.34375 148.679688 55.34375 148.679688 54.011719 C 148.679688 52.675781 150.679688 52.675781 150.679688 54.011719 "/>
<path fill-rule="nonzero" fill="rgb(100%, 0%, 0%)" fill-opacity="1" stroke-width="0.01" stroke-linecap="butt" stroke-linejoin="miter" stroke="rgb(0%, 0%, 0%)" stroke-opacity="1" stroke-miterlimit="10" d="M 375.320312 157.457031 C 375.320312 158.789062 373.320312 158.789062 373.320312 157.457031 C 373.320312 156.121094 375.320312 156.121094 375.320312 157.457031 "/>
<path fill-rule="nonzero" fill="rgb(100%, 0%, 0%)" fill-opacity="1" stroke-width="0.01" stroke-linecap="butt" stroke-linejoin="miter" stroke="rgb(0%, 0%, 0%)" stroke-opacity="1" stroke-miterlimit="10" d="M 341.292969 105.390625 C 341.292969 106.726562 339.292969 106.726562 339.292969 105.390625 C 339.292969 104.058594 341.292969 104.058594 341.292969 105.390625 "/>
<path fill-rule="nonzero" fill="rgb(100%, 0%, 0%)" fill-opacity="1" stroke-width="0.01" stroke-linecap="butt" stroke-linejoin="miter" stroke="rgb(0%, 0%, 0%)" stroke-opacity="1" stroke-miterlimit="10" d="M 126.472656 161.792969 C 126.472656 163.128906 124.472656 163.128906 124.472656 161.792969 C 124.472656 160.460938 126.472656 160.460938 126.472656 161.792969 "/>
<path fill-rule="nonzero" fill="rgb(100%, 0%, 0%)" fill-opacity="1" stroke-width="0.01" stroke-linecap="butt" stroke-linejoin="miter" stroke="rgb(0%, 0%, 0%)" stroke-opacity="1" stroke-miterlimit="10" d="M 465.183594 386.53125 C 465.183594 387.867188 463.183594 387.867188 463.183594 386.53125 C 463.183594 385.199219 465.183594 385.199219 465.183594 386.53125 "/>
<path fill-rule="nonzero" fill="rgb(100%, 0%, 0%)" fill-opacity="1" stroke-width="0.01" stroke-linecap="butt" stroke-linejoin="miter" stroke="rgb(0%, 0%, 0%)" stroke-opacity="1" stroke-miterlimit="10" d="M 105.210938 373.976562 C 105.210938 375.308594 103.210938 375.308594 103.210938 373.976562 C 103.210938 372.644531 105.210938 372.644531 105.210938 373.976562 "/>
<path fill-rule="nonzero" fill="rgb(100%, 0%, 0%)" fill-opacity="1" stroke-width="0.01" stroke-linecap="butt" stroke-linejoin="miter" stroke="rgb(0%, 0%, 0%)" stroke-opacity="1" stroke-miterlimit="10" d="M 344.617188 360.609375 C 344.617188 361.941406 342.617188 361.941406 342.617188 360.609375 C 342.617188 359.273438 344.617188 359.273438 344.617188 360.609375 "/>
<path fill-rule="nonzero" fill="rgb(100%, 0%, 0%)" fill-opacity="1" stroke-width="0.01" stroke-linecap="butt" stroke-linejoin="miter" stroke="rgb(0%, 0%, 0%)" stroke-opacity="1" stroke-miterlimit="10" d="M 271.734375 20 C 271.734375 21.332031 269.734375 21.332031 269.734375 20 C 269.734375 18.667969 271.734375 18.667969 271.734375 20 "/>
<path fill-rule="nonzero" fill="rgb(100%, 0%, 0%)" fill-opacity="1" stroke-width="0.01" stroke-linecap="butt" stroke-linejoin="miter" stroke="rgb(0%, 0%, 0%)" stroke-opacity="1" stroke-miterlimit="10" d="M 533.890625 279.910156 C 533.890625 281.242188 531.890625 281.242188 531.890625 279.910156 C 531.890625 278.578125 533.890625 278.578125 533.890625 279.910156 "/>
<path fill-rule="nonzero" fill="rgb(100%, 0%, 0%)" fill-opacity="1" stroke-width="0.01" stroke-linecap="butt" stroke-linejoin="miter" stroke="rgb(0%, 0%, 0%)" stroke-opacity="1" stroke-miterlimit="10" d="M 511.707031 510.726562 C 511.707031 512.0625 509.707031 512.0625 509.707031 510.726562 C 509.707031 509.394531 511.707031 509.394531 511.707031 510.726562 "/>
<path fill-rule="nonzero" fill="rgb(100%, 0%, 0%)" fill-opacity="1" stroke-width="0.01" stroke-linecap="butt" stroke-linejoin="miter" stroke="rgb(0%, 0%, 0%)" stroke-opacity="1" stroke-miterlimit="10" d="M 446.4375 434.289062 C 446.4375 435.625 444.4375 435.625 444.4375 434.289062 C 444.4375 432.957031 446.4375 432.957031 446.4375 434.289062 "/>
<path fill-rule="nonzero" fill="rgb(100%, 0%, 0%)" fill-opacity="1" stroke-width="0.01" stroke-linecap="butt" stroke-linejoin="miter" stroke="rgb(0%, 0%, 0%)" stroke-opacity="1" stroke-miterlimit="10" d="M 399.039062 227.089844 C 399.039062 228.425781 397.039062 228.425781 397.039062 227.089844 C 397.039062 225.757812 399.039062 225.757812 399.039062 227.089844 "/>
<path fill-rule="nonzero" fill="rgb(100%, 0%, 0%)" fill-opacity="1" stroke-width="0.01" stroke-linecap="butt" stroke-linejoin="miter" stroke="rgb(0%, 0%, 0%)" stroke-opacity="1" stroke-miterlimit="10" d="M 487.777344 131.898438 C 487.777344 133.230469 485.777344 133.230469 485.777344 131.898438 C 485.777344 130.566406 487.777344 130.566406 487.777344 131.898438 "/>
<path fill-rule="nonzero" fill="rgb(100%, 0%, 0%)" fill-opacity="1" stroke-width="0.01" stroke-linecap="butt" stroke-linejoin="miter" stroke="rgb(0%, 0%, 0%)" stroke-opacity="1" stroke-miterlimit="10" d="M 290.1875 204.734375 C 290.1875 206.066406 288.1875 206.066406 288.1875 204.734375 C 288.1875 203.402344 290.1875 203.402344 290.1875 204.734375 "/>
<path fill-rule="nonzero" fill="rgb(100%, 0%, 0%)" fill-opacity="1" stroke-width="0.01" stroke-linecap="butt" stroke-linejoin="miter" stroke="rgb(0%, 0%, 0%)" stroke-opacity="1" stroke-miterlimit="10" d="M 486.816406 322.792969 C 486.816406 324.125 484.816406 324.125 484.816406 322.792969 C 484.816406 321.460938 486.816406 321.460938 486.816406 322.792969 "/>
<path fill-rule="nonzero" fill="rgb(100%, 0%, 0%)" fill-opacity="1" stroke-width="0.01" stroke-linecap="butt" stroke-linejoin="miter" stroke="rgb(0%, 0%, 0%)" stroke-opacity="1" stroke-miterlimit="10" d="M 304.125 67.40625 C 304.125 68.742188 302.125 68.742188 302.125 67.40625 C 302.125 66.074219 304.125 66.074219 304.125 67.40625 "/>
<path fill-rule="nonzero" fill="rgb(100%, 0%, 0%)" fill-opacity="1" stroke-width="0.01" stroke-linecap="butt" stroke-linejoin="miter" stroke="rgb(0%, 0%, 0%)" stroke-opacity="1" stroke-miterlimit="10" d="M 507.257812 79.257812 C 507.257812 80.59375 505.257812 80.59375 505.257812 79.257812 C 505.257812 77.925781 507.257812 77.925781 507.257812 79.257812 "/>
<path fill-rule="nonzero" fill="rgb(100%, 0%, 0%)" fill-opacity="1" stroke-width="0.01" stroke-linecap="butt" stroke-linejoin="miter" stroke="rgb(0%, 0%, 0%)" stroke-opacity="1" stroke-miterlimit="10" d="M 340.769531 411.929688 C 340.769531 413.265625 338.769531 413.265625 338.769531 411.929688 C 338.769531 410.597656 340.769531 410.597656 340.769531 411.929688 "/>
<path fill-rule="nonzero" fill="rgb(100%, 0%, 0%)" fill-opacity="1" stroke-width="0.01" stroke-linecap="butt" stroke-linejoin="miter" stroke="rgb(0%, 0%, 0%)" stroke-opacity="1" stroke-miterlimit="10" d="M 320.390625 156.09375 C 320.390625 157.429688 318.390625 157.429688 318.390625 156.09375 C 318.390625 154.761719 320.390625 154.761719 320.390625 156.09375 "/>
<path fill-rule="nonzero" fill="rgb(100%, 0%, 0%)" fill-opacity="1" stroke-width="0.01" stroke-linecap="butt" stroke-linejoin="miter" stroke="rgb(0%, 0%, 0%)" stroke-opacity="1" stroke-miterlimit="10" d="M 293 354.511719 C 293 355.84375 291 355.84375 291 354.511719 C 291 353.175781 293 353.175781 293 354.511719 "/>
<path fill-rule="nonzero" fill="rgb(100%, 0%, 0%)" fill-opacity="1" stroke-width="0.01" stroke-linecap="butt" stroke-linejoin="miter" stroke="rgb(0%, 0%, 0%)" stroke-opacity="1" stroke-miterlimit="10" d="M 192.742188 340.457031 C 192.742188 341.789062 190.742188 341.789062 190.742188 340.457031 C 190.742188 339.121094 192.742188 339.121094 192.742188 340.457031 "/>
<path fill-rule="nonzero" fill="rgb(100%, 0%, 0%)" fill-opacity="1" stroke-width="0.01" stroke-linecap="butt" stroke-linejoin="miter" stroke="rgb(0%, 0%, 0%)" stroke-opacity="1" stroke-miterlimit="10" d="M 52.929688 304.496094 C 52.929688 305.828125 50.929688 305.828125 50.929688 304.496094 C 50.929688 303.160156 52.929688 303.160156 52.929688 304.496094 "/>
</svg>
