<?xml version="1.0" encoding="UTF-8"?>
<svg xmlns="http://www.w3.org/2000/svg" xmlns:xlink="http://www.w3.org/1999/xlink" width="600" height="600" viewBox="0 0 600 600">
<rect x="-60" y="-60" width="720" height="720" fill="rgb(100%, 100%, 100%)" fill-opacity="1"/>
<path fill-rule="nonzero" fill="rgb(100%, 0%, 0%)" fill-opacity="1" stroke-width="0.01" stroke-linecap="butt" stroke-linejoin="miter" stroke="rgb(0%, 0%, 0%)" stroke-opacity="1" stroke-miterlimit="10" d="M 488.285156 345.589844 C 488.285156 346.921875 486.285156 346.921875 486.285156 345.589844 C 486.285156 344.253906 488.285156 344.253906 488.285156 345.589844 "/>
<path fill-rule="nonzero" fill="rgb(100%, 0%, 0%)" fill-opacity="1" stroke-width="0.01" stroke-linecap="butt" stroke-linejoin="miter" stroke="rgb(0%, 0%, 0%)" stroke-opacity="1" stroke-miterlimit="10" d="M 252.9375 20 C 252.9375 21.332031 250.9375 21.332031 250.9375 20 C 250.9375 18.667969 252.9375 18.667969 252.9375 20 "/>
<path fill-rule="nonzero" fill="rgb(100%, 0%, 0%)" fill-opacity="1" stroke-width="0.01" stroke-linecap="butt" stroke-linejoin="miter" stroke="rgb(0%, 0%, 0%)" stroke-opacity="1" stroke-miterlimit="10" d="M 579.714844 287.214844 C 579.714844 288.546875 577.714844 288.546875 577.714844 287.214844 C 577.714844 285.882812 579.714844 285.882812 579.714844 287.214844 "/>
<path fill-rule="nonzero" fill="rgb(100%, 0%, 0%)" fill-opacity="1" stroke-width="0.01" stroke-linecap="butt" stroke-linejoin="miter" stroke="rgb(0%, 0%, 0%)" stroke-opacity="1" stroke-miterlimit="10" d="M 522.632812 100.058594 C 522.632812 101.390625 520.632812 101.390625 520.632812 100.058594 C 520.632812 98.722656 522.632812 98.722656 522.632812 100.058594 "/>
<path fill-rule="nonzero" fill="rgb(100%, 0%, 0%)" fill-opacity="1" stroke-width="0.01" stroke-linecap="butt" stroke-linejoin="miter" stroke="rgb(0%, 0%, 0%)" stroke-opacity="1" stroke-miterlimit="10" d="M 465.554688 441.183594 C 465.554688 442.515625 463.554688 442.515625 463.554688 441.183594 C 463.554688 439.851562 465.554688 439.851562 465.554688 441.183594 "/>
<path fill-rule="nonzero" fill="rgb(100%, 0%, 0%)" fill-opacity="1" stroke-width="0.01" stroke-linecap="butt" stroke-linejoin="miter" stroke="rgb(0%, 0%, 0%)" stroke-opacity="1" stroke-miterlimit="10" d="M 259.390625 432.085938 C 259.390625 433.421875 257.390625 433.421875 257.390625 432.085938 C 257.390625 430.753906 259.390625 430.753906 259.390625 432.085938 "/>
<path fill-rule="nonzero" fill="rgb(100%, 0%, 0%)" fill-opacity="1" stroke-width="0.01" stroke-linecap="butt" stroke-linejoin="miter" stroke="rgb(0%, 0%, 0%)" stroke-opacity="1" stroke-miterlimit="10" d="M 333.582031 487.964844 C 333.582031 489.300781 331.582031 489.300781 331.582031 487.964844 C 331.582031 486.632812 333.582031 486.632812 333.582031 487.964844 "/>
<path fill-rule="nonzero" fill="rgb(100%, 0%, 0%)" fill-opacity="1" stroke-width="0.01" stroke-linecap="butt" stroke-linejoin="miter" stroke="rgb(0%, 0%, 0%)" stroke-opacity="1" stroke-miterlimit="10" d="M 495.410156 530.710938 C 495.410156 532.042969 493.410156 532.042969 493.410156 530.710938 C 493.410156 529.375 495.410156 529.375 495.410156 530.710938 "/>
<path fill-rule="nonzero" fill="rgb(100%, 0%, 0%)" fill-opacity="1" stroke-width="0.01" stroke-linecap="butt" stroke-linejoin="miter" stroke="rgb(0%, 0%, 0%)" stroke-opacity="1" stroke-miterlimit="10" d="M 359.375 88.996094 C 359.375 90.328125 357.375 90.328125 357.375 88.996094 C 357.375 87.664062 359.375 87.664062 359.375 88.996094 "/>
<path fill-rule="nonzero" fill="rgb(100%, 0%, 0%)" fill-opacity="1" stroke-width="0.01" stroke-linecap="butt" stroke-linejoin="miter" stroke="rgb(0%, 0%, 0%)" stroke-opacity="1" stroke-miterlimit="10" d="M 377.011719 397.898438 C 377.011719 399.230469 375.011719 399.230469 375.011719 397.898438 C 375.011719 396.566406 377.011719 396.566406 377.011719 397.898438 "/>
<path fill-rule="nonzero" fill="rgb(100%, 0%, 0%)" fill-opacity="1" stroke-width="0.01" stroke-linecap="butt" stroke-linejoin="miter" stroke="rgb(0%, 0%, 0%)" stroke-opacity="1" stroke-miterlimit="10" d="M 146.785156 394.011719 C 146.785156 395.347656 144.785156 395.347656 144.785156 394.011719 C 144.785156 392.679688 146.785156 392.679688 146.785156 394.011719 "/>
<path fill-rule="nonzero" fill="rgb(100%, 0%, 0%)" fill-opacity="1" stroke-width="0.01" stroke-linecap="butt" stroke-linejoin="miter" stroke="rgb(0%, 0%, 0%)" stroke-opacity="1" stroke-miterlimit="10" d="M 259.664062 580 C 259.664062 581.332031 257.664062 581.332031 257.664062 580 C 257.664062 578.667969 259.664062 578.667969 259.664062 580 "/>
<path fill-rule="nonzero" fill="rgb(100%, 0%, 0%)" fill-opacity="1" stroke-width="0.01" stroke-linecap="butt" stroke-linejoin="miter" stroke="rgb(0%, 0%, 0%)" stroke-opacity="1" stroke-miterlimit="10" d="M 21 215.746094 C 21 217.078125 19 217.078125 19 215.746094 C 19 214.410156 21 214.410156 21 215.746094 "/>
<path fill-rule="nonzero" fill="rgb(100%, 0%, 0%)" fill-opacity="1" stroke-width="0.01" stroke-linecap="butt" stroke-linejoin="miter" stroke="rgb(0%, 0%, 0%)" stroke-opacity="1" stroke-miterlimit="10" d="M 540.734375 200.929688 C 540.734375 202.261719 538.734375 202.261719 538.734375 200.929688 C 538.734375 199.597656 540.734375 199.597656 540.734375 200.929688 "/>
<path fill-rule="nonzero" fill="rgb(100%, 0%, 0%)" fill-opacity="1" stroke-width="0.01" stroke-linecap="butt" stroke-linejoin="miter" stroke="rgb(0%, 0%, 0%)" stroke-opacity="1" stroke-miterlimit="10" d="M 581 404.375 C 581 405.707031 579 405.707031 579 404.375 C 579 403.039062 581 403.039062 581 404.375 "/>
<path fill-rule="nonzero" fill="rgb(100%, 0%, 0%)" fill-opacity="1" stroke-width="0.01" stroke-linecap="butt" stroke-linejoin="miter" stroke="rgb(0%, 0%, 0%)" stroke-opacity="1" stroke-miterlimit="10" d="M 387.050781 566.023438 C 387.050781 567.355469 385.050781 567.355469 385.050781 566.023438 C 385.050781 564.6875 387.050781 564.6875 387.050781 566.023438 "/>
<path fill-rule="nonzero" fill="rgb(100%, 0%, 0%)" fill-opacity="1" stroke-width="0.01" stroke-linecap="butt" stroke-linejoin="miter" stroke="rgb(0%, 0%, 0%)" stroke-opacity="1" stroke-miterlimit="10" d="M 427.574219 30.410156 C 427.574219 31.742188 425.574219 31.742188 425.574219 30.410156 C 425.574219 29.078125 427.574219 29.078125 427.574219 30.410156 "/>
<path fill-rule="nonzero" fill="rgb(100%, 0%, 0%)" fill-opacity="1" stroke-width="0.01" stroke-linecap="butt" stroke-linejoin="miter" stroke="rgb(0%, 0%, 0%)" stroke-opacity="1" stroke-miterlimit="10" d="M 34.121094 399.203125 C 34.121094 400.535156 32.121094 400.535156 32.121094 399.203125 C 32.121094 397.871094 34.121094 397.871094 34.121094 399.203125 "/>
<path fill-rule="nonzero" fill="rgb(100%, 0%, 0%)" fill-opacity="1" stroke-width="0.01" stroke-linecap="butt" stroke-linejoin="miter" stroke="rgb(0%, 0%, 0%)" stroke-opacity="1" stroke-miterlimit="10" d="M 439.707031 175.933594 C 439.707031 177.269531 437.707031 177.269531 437.707031 175.933594 C 437.707031 174.601562 439.707031 174.601562 439.707031 175.933594 "/>
<path fill-rule="nonzero" fill="rgb(100%, 0%, 0%)" fill-opacity="1" stroke-width="0.01" stroke-linecap="butt" stroke-linejoin="miter" stroke="rgb(0%, 0%, 0%)" stroke-opacity="1" stroke-miterlimit="10" d="M 349.582031 207.859375 C 349.582031 209.195312 347.582031 209.195312 347.582031 207.859375 C 347.582031 206.527344 349.582031 206.527344 349.582031 207.859375 "/>
<path fill-rule="nonzero" fill="rgb(100%, 0%, 0%)" fill-opacity="1" stroke-width="0.01" stroke-linecap="butt" stroke-linejoin="miter" stroke="rgb(0%, 0%, 0%)" stroke-opacity="1" stroke-miterlimit="10" d="M 189.359375 127.988281 C 189.359375 129.320312 187.359375 129.320312 187.359375 127.988281 C 187.359375 126.652344 189.359375 126.652344 189.359375 127.988281 "/>
<path fill-rule="nonzero" fill="rgb(100%, 0%, 0%)" fill-opacity="1" stroke-width="0.01" stroke-linecap="butt" stroke-linejoin="miter" stroke="rgb(0%, 0%, 0%)" stroke-opacity="1" stroke-miterlimit="10" d="M 254.925781 230.320312 C 254.925781 231.652344 252.925781 231.652344 252.925781 230.320312 C 252.925781 228.988281 254.925781 228.988281 254.925781 230.320312 "/>
<path fill-rule="nonzero" fill="rgb(100%, 0%, 0%)" fill-opacity="1" stroke-width="0.01" stroke-linecap="butt" stroke-linejoin="miter" stroke="rgb(0%, 0%, 0%)" stroke-opacity="1" stroke-miterlimit="10" d="M 77.613281 306.5625 C 77.613281 307.894531 75.613281 307.894531 75.613281 306.5625 C 75.613281 305.230469 77.613281 305.230469 77.613281 306.5625 "/>
<path fill-rule="nonzero" fill="rgb(100%, 0%, 0%)" fill-opacity="1" stroke-width="0.01" stroke-linecap="butt" stroke-linejoin="miter" stroke="rgb(0%, 0%, 0%)" stroke-opacity="1" stroke-miterlimit="10" d="M 103.652344 83.140625 C 103.652344 84.472656 101.652344 84.472656 101.652344 83.140625 C 101.652344 81.804688 103.652344 81.804688 103.652344 83.140625 "/>
<path fill-rule="nonzero" fill="rgb(100%, 0%, 0%)" fill-opacity="1" stroke-width="0.01" stroke-linecap="butt" stroke-linejoin="miter" stroke="rgb(0%, 0%, 0%)" stroke-opacity="1" stroke-miterlimit="10" d="M 429.476562 278.777344 C 429.476562 280.113281 427.476562 280.113281 427.476562 278.777344 C 427.476562 277.445312 429.476562 277.445312 429.476562 278.777344 "/>
<path fill-rule="nonzero" fill="rgb(100%, 0%, 0%)" fill-opacity="1" stroke-width="0.01" stroke-linecap="butt" stroke-linejoin="miter" stroke="rgb(0%, 0%, 0%)" stroke-opacity="1" stroke-miterlimit="10" d="M 191.394531 497.800781 C 191.394531 499.132812 189.394531 499.132812 189.394531 497.800781 C 189.394531 496.464844 191.394531 496.464844 191.394531 497.800781 "/>
<path fill-rule="nonzero" fill="rgb(100%, 0%, 0%)" fill-opacity="1" stroke-width="0.01" stroke-linecap="butt" stroke-linejoin="miter" stroke="rgb(0%, 0%, 0%)" stroke-opacity="1" stroke-miterlimit="10" d="M 180.097656 287.449219 C 180.097656 288.785156 178.097656 288.785156 178.097656 287.449219 C 178.097656 286.117188 180.097656 286.117188 180.097656 287.449219 "/>
<path fill-rule="nonzero" fill="rgb(100%, 0%, 0%)" fill-opacity="1" stroke-width="0.01" stroke-linecap="butt" stroke-linejoin="miter" stroke="rgb(0%, 0%, 0%)" stroke-opacity="1" stroke-miterlimit="10" d="M 97.082031 513.226562 C 97.082031 514.558594 95.082031 514.558594 95.082031 513.226562 C 95.082031 511.894531 97.082031 511.894531 97.082031 513.226562 "/>
<path fill-rule="nonzero" fill="rgb(100%, 0%, 0%)" fill-opacity="1" stroke-width="0.01" stroke-linecap="butt" stroke-linejoin="miter" stroke="rgb(0%, 0%, 0%)" stroke-opacity="1" stroke-miterlimit="10" d="M 124.671875 202.699219 C 124.671875 204.035156 122.671875 204.035156 122.671875 202.699219 C 122.671875 201.367188 124.671875 201.367188 124.671875 202.699219 "/>
<path fill-rule="nonzero" fill="rgb(100%, 0%, 0%)" fill-opacity="1" stroke-width="0.01" stroke-linecap="butt" stroke-linejoin="miter" stroke="rgb(0%, 0%, 0%)" stroke-opacity="1" stroke-miterlimit="10" d="M 279.078125 129.640625 C 279.078125 130.972656 277.078125 130.972656 277.078125 129.640625 C 277.078125 128.308594 279.078125 128.308594 279.078125 129.640625 "/>
<path fill-rule="nonzero" fill="rgb(100%, 0%, 0%)" fill-opacity="1" stroke-width="0.01" stroke-linecap="butt" stroke-linejoin="miter" stroke="rgb(0%, 0%, 0%)" stroke-opacity="1" stroke-miterlimit="10" d="M 337.910156 310.332031 C 337.910156 311.664062 335.910156 311.664062 335.910156 310.332031 C 335.910156 309 337.910156 309 337.910156 310.332031 "/>
<path fill-rule="nonzero" fill="rgb(100%, 0%, 0%)" fill-opacity="1" stroke-width="0.01" stroke-linecap="butt" stroke-linejoin="miter" stroke="rgb(0%, 0%, 0%)" stroke-opacity="1" stroke-miterlimit="10" d="M 253.613281 344.964844 C 253.613281 346.296875 251.613281 346.296875 251.613281 344.964844 C 251.613281 343.628906 253.613281 343.628906 253.613281 344.964844 "/>
</svg>
