<?xml version="1.0" encoding="UTF-8"?>
<svg xmlns="http://www.w3.org/2000/svg" xmlns:xlink="http://www.w3.org/1999/xlink" width="600pt" height="600pt" viewBox="0 0 600 600" version="1.1">
<g id="surface1">
<rect x="0" y="0" width="600" height="600" style="fill:rgb(100%,100%,100%);fill-opacity:1;stroke:none;"/>
<path style="fill:none;stroke-width:0.2;stroke-linecap:butt;stroke-linejoin:miter;stroke:rgb(26.666667%,26.666667%,26.666667%);stroke-opacity:1;stroke-miterlimit:10;" d="M 297.042969 44.078125 L 296.050781 87.191406 "/>
<path style="fill:none;stroke-width:0.2;stroke-linecap:butt;stroke-linejoin:miter;stroke:rgb(26.666667%,26.666667%,26.666667%);stroke-opacity:1;stroke-miterlimit:10;" d="M 22.378906 206.8125 L 20.085938 233.84375 "/>
<path style="fill:none;stroke-width:0.2;stroke-linecap:butt;stroke-linejoin:miter;stroke:rgb(26.666667%,26.666667%,26.666667%);stroke-opacity:1;stroke-miterlimit:10;" d="M 360.414062 240.863281 L 380.1875 259.210938 "/>
<path style="fill:none;stroke-width:0.2;stroke-linecap:butt;stroke-linejoin:miter;stroke:rgb(26.666667%,26.666667%,26.666667%);stroke-opacity:1;stroke-miterlimit:10;" d="M 223.015625 318.539062 L 249.851562 315.167969 "/>
<path style="fill:none;stroke-width:0.2;stroke-linecap:butt;stroke-linejoin:miter;stroke:rgb(26.666667%,26.666667%,26.666667%);stroke-opacity:1;stroke-miterlimit:10;" d="M 50.152344 412.914062 L 71.023438 395.726562 "/>
<path style="fill:none;stroke-width:0.2;stroke-linecap:butt;stroke-linejoin:miter;stroke:rgb(26.666667%,26.666667%,26.666667%);stroke-opacity:1;stroke-miterlimit:10;" d="M 248.011719 436.820312 L 222.515625 445.867188 "/>
<path style="fill:none;stroke-width:0.2;stroke-linecap:butt;stroke-linejoin:miter;stroke:rgb(26.666667%,26.666667%,26.666667%);stroke-opacity:1;stroke-miterlimit:10;" d="M 356.578125 527.25 L 383.390625 524.738281 "/>
<path style="fill:none;stroke-width:0.2;stroke-linecap:butt;stroke-linejoin:miter;stroke:rgb(26.666667%,26.666667%,26.666667%);stroke-opacity:1;stroke-miterlimit:10;" d="M 179.21875 570.578125 L 204.78125 579.664062 "/>
<path style="fill:none;stroke-width:0.2;stroke-linecap:butt;stroke-linejoin:miter;stroke:rgb(26.666667%,26.666667%,26.666667%);stroke-opacity:1;stroke-miterlimit:10;" d="M 125.246094 20 L 106.5 39.574219 "/>
<path style="fill:none;stroke-width:0.2;stroke-linecap:butt;stroke-linejoin:miter;stroke:rgb(26.666667%,26.666667%,26.666667%);stroke-opacity:1;stroke-miterlimit:10;" d="M 180.613281 206.371094 L 154.5625 199.601562 "/>
<path style="fill:none;stroke-width:0.2;stroke-linecap:butt;stroke-linejoin:miter;stroke:rgb(26.666667%,26.666667%,26.666667%);stroke-opacity:1;stroke-miterlimit:10;" d="M 580 74.339844 L 565.300781 51.417969 "/>
<path style="fill:none;stroke-width:0.2;stroke-linecap:butt;stroke-linejoin:miter;stroke:rgb(26.666667%,26.666667%,26.666667%);stroke-opacity:1;stroke-miterlimit:10;" d="M 550.210938 484.667969 L 533.519531 506.074219 "/>
<path style="fill:none;stroke-width:0.2;stroke-linecap:butt;stroke-linejoin:miter;stroke:rgb(26.666667%,26.666667%,26.666667%);stroke-opacity:1;stroke-miterlimit:10;" d="M 428.042969 384.265625 L 455.042969 385.035156 "/>
<path style="fill:none;stroke-width:0.2;stroke-linecap:butt;stroke-linejoin:miter;stroke:rgb(26.666667%,26.666667%,26.666667%);stroke-opacity:1;stroke-miterlimit:10;" d="M 472.585938 140.082031 L 456.382812 118.371094 "/>
<path style="fill:none;stroke-width:0.2;stroke-linecap:butt;stroke-linejoin:miter;stroke:rgb(26.666667%,26.666667%,26.666667%);stroke-opacity:1;stroke-miterlimit:10;" d="M 543.261719 260.558594 L 550.277344 286.648438 "/>
<path style="fill:none;stroke-width:0.2;stroke-linecap:butt;stroke-linejoin:miter;stroke:rgb(26.666667%,26.666667%,26.666667%);stroke-opacity:1;stroke-miterlimit:10;" d="M 274.761719 65.664062 L 317.304688 66.53125 "/>
<path style=" stroke:none;fill-rule:nonzero;fill:rgb(100%,0%,0%);fill-opacity:1;" d="M 298.042969 44.078125 C 298.042969 45.410156 296.042969 45.410156 296.042969 44.078125 C 296.042969 42.742188 298.042969 42.742188 298.042969 44.078125 "/>
<path style=" stroke:none;fill-rule:nonzero;fill:rgb(100%,0%,0%);fill-opacity:1;" d="M 297.027344 88.191406 C 297.027344 89.523438 295.027344 89.523438 295.027344 88.191406 C 295.027344 86.855469 297.027344 86.855469 297.027344 88.191406 "/>
<path style=" stroke:none;fill-rule:nonzero;fill:rgb(100%,0%,0%);fill-opacity:1;" d="M 23.378906 206.8125 C 23.378906 208.148438 21.378906 208.148438 21.378906 206.8125 C 21.378906 205.480469 23.378906 205.480469 23.378906 206.8125 "/>
<path style=" stroke:none;fill-rule:nonzero;fill:rgb(100%,0%,0%);fill-opacity:1;" d="M 21 234.839844 C 21 236.175781 19 236.175781 19 234.839844 C 19 233.507812 21 233.507812 21 234.839844 "/>
<path style=" stroke:none;fill-rule:nonzero;fill:rgb(100%,0%,0%);fill-opacity:1;" d="M 361.414062 240.863281 C 361.414062 242.199219 359.414062 242.199219 359.414062 240.863281 C 359.414062 239.53125 361.414062 239.53125 361.414062 240.863281 "/>
<path style=" stroke:none;fill-rule:nonzero;fill:rgb(100%,0%,0%);fill-opacity:1;" d="M 381.917969 259.890625 C 381.917969 261.222656 379.917969 261.222656 379.917969 259.890625 C 379.917969 258.558594 381.917969 258.558594 381.917969 259.890625 "/>
<path style=" stroke:none;fill-rule:nonzero;fill:rgb(100%,0%,0%);fill-opacity:1;" d="M 224.015625 318.539062 C 224.015625 319.871094 222.015625 319.871094 222.015625 318.539062 C 222.015625 317.203125 224.015625 317.203125 224.015625 318.539062 "/>
<path style=" stroke:none;fill-rule:nonzero;fill:rgb(100%,0%,0%);fill-opacity:1;" d="M 251.84375 315.046875 C 251.84375 316.378906 249.84375 316.378906 249.84375 315.046875 C 249.84375 313.710938 251.84375 313.710938 251.84375 315.046875 "/>
<path style=" stroke:none;fill-rule:nonzero;fill:rgb(100%,0%,0%);fill-opacity:1;" d="M 51.152344 412.914062 C 51.152344 414.246094 49.152344 414.246094 49.152344 412.914062 C 49.152344 411.578125 51.152344 411.578125 51.152344 412.914062 "/>
<path style=" stroke:none;fill-rule:nonzero;fill:rgb(100%,0%,0%);fill-opacity:1;" d="M 72.796875 395.089844 C 72.796875 396.425781 70.796875 396.425781 70.796875 395.089844 C 70.796875 393.757812 72.796875 393.757812 72.796875 395.089844 "/>
<path style=" stroke:none;fill-rule:nonzero;fill:rgb(100%,0%,0%);fill-opacity:1;" d="M 249.011719 436.820312 C 249.011719 438.15625 247.011719 438.15625 247.011719 436.820312 C 247.011719 435.488281 249.011719 435.488281 249.011719 436.820312 "/>
<path style=" stroke:none;fill-rule:nonzero;fill:rgb(100%,0%,0%);fill-opacity:1;" d="M 222.574219 446.203125 C 222.574219 447.535156 220.574219 447.535156 220.574219 446.203125 C 220.574219 444.867188 222.574219 444.867188 222.574219 446.203125 "/>
<path style=" stroke:none;fill-rule:nonzero;fill:rgb(100%,0%,0%);fill-opacity:1;" d="M 357.578125 527.25 C 357.578125 528.585938 355.578125 528.585938 355.578125 527.25 C 355.578125 525.917969 357.578125 525.917969 357.578125 527.25 "/>
<path style=" stroke:none;fill-rule:nonzero;fill:rgb(100%,0%,0%);fill-opacity:1;" d="M 385.386719 524.644531 C 385.386719 525.976562 383.386719 525.976562 383.386719 524.644531 C 383.386719 523.3125 385.386719 523.3125 385.386719 524.644531 "/>
<path style=" stroke:none;fill-rule:nonzero;fill:rgb(100%,0%,0%);fill-opacity:1;" d="M 180.21875 570.578125 C 180.21875 571.914062 178.21875 571.914062 178.21875 570.578125 C 178.21875 569.246094 180.21875 569.246094 180.21875 570.578125 "/>
<path style=" stroke:none;fill-rule:nonzero;fill:rgb(100%,0%,0%);fill-opacity:1;" d="M 206.722656 580 C 206.722656 581.332031 204.722656 581.332031 204.722656 580 C 204.722656 578.667969 206.722656 578.667969 206.722656 580 "/>
<path style=" stroke:none;fill-rule:nonzero;fill:rgb(100%,0%,0%);fill-opacity:1;" d="M 126.246094 20 C 126.246094 21.332031 124.246094 21.332031 124.246094 20 C 124.246094 18.667969 126.246094 18.667969 126.246094 20 "/>
<path style=" stroke:none;fill-rule:nonzero;fill:rgb(100%,0%,0%);fill-opacity:1;" d="M 106.808594 40.296875 C 106.808594 41.628906 104.808594 41.628906 104.808594 40.296875 C 104.808594 38.960938 106.808594 38.960938 106.808594 40.296875 "/>
<path style=" stroke:none;fill-rule:nonzero;fill:rgb(100%,0%,0%);fill-opacity:1;" d="M 181.613281 206.371094 C 181.613281 207.707031 179.613281 207.707031 179.613281 206.371094 C 179.613281 205.039062 181.613281 205.039062 181.613281 206.371094 "/>
<path style=" stroke:none;fill-rule:nonzero;fill:rgb(100%,0%,0%);fill-opacity:1;" d="M 154.59375 199.351562 C 154.59375 200.683594 152.59375 200.683594 152.59375 199.351562 C 152.59375 198.015625 154.59375 198.015625 154.59375 199.351562 "/>
<path style=" stroke:none;fill-rule:nonzero;fill:rgb(100%,0%,0%);fill-opacity:1;" d="M 581 74.339844 C 581 75.671875 579 75.671875 579 74.339844 C 579 73.003906 581 73.003906 581 74.339844 "/>
<path style=" stroke:none;fill-rule:nonzero;fill:rgb(100%,0%,0%);fill-opacity:1;" d="M 565.761719 50.578125 C 565.761719 51.910156 563.761719 51.910156 563.761719 50.578125 C 563.761719 49.242188 565.761719 49.242188 565.761719 50.578125 "/>
<path style=" stroke:none;fill-rule:nonzero;fill:rgb(100%,0%,0%);fill-opacity:1;" d="M 551.210938 484.667969 C 551.210938 486 549.210938 486 549.210938 484.667969 C 549.210938 483.332031 551.210938 483.332031 551.210938 484.667969 "/>
<path style=" stroke:none;fill-rule:nonzero;fill:rgb(100%,0%,0%);fill-opacity:1;" d="M 533.902344 506.863281 C 533.902344 508.195312 531.902344 508.195312 531.902344 506.863281 C 531.902344 505.53125 533.902344 505.53125 533.902344 506.863281 "/>
<path style=" stroke:none;fill-rule:nonzero;fill:rgb(100%,0%,0%);fill-opacity:1;" d="M 429.042969 384.265625 C 429.042969 385.601562 427.042969 385.601562 427.042969 384.265625 C 427.042969 382.933594 429.042969 382.933594 429.042969 384.265625 "/>
<path style=" stroke:none;fill-rule:nonzero;fill:rgb(100%,0%,0%);fill-opacity:1;" d="M 457.042969 385.066406 C 457.042969 386.398438 455.042969 386.398438 455.042969 385.066406 C 455.042969 383.730469 457.042969 383.730469 457.042969 385.066406 "/>
<path style=" stroke:none;fill-rule:nonzero;fill:rgb(100%,0%,0%);fill-opacity:1;" d="M 473.585938 140.082031 C 473.585938 141.414062 471.585938 141.414062 471.585938 140.082031 C 471.585938 138.746094 473.585938 138.746094 473.585938 140.082031 "/>
<path style=" stroke:none;fill-rule:nonzero;fill:rgb(100%,0%,0%);fill-opacity:1;" d="M 456.785156 117.570312 C 456.785156 118.902344 454.785156 118.902344 454.785156 117.570312 C 454.785156 116.238281 456.785156 116.238281 456.785156 117.570312 "/>
<path style=" stroke:none;fill-rule:nonzero;fill:rgb(100%,0%,0%);fill-opacity:1;" d="M 544.261719 260.558594 C 544.261719 261.890625 542.261719 261.890625 542.261719 260.558594 C 542.261719 259.222656 544.261719 259.222656 544.261719 260.558594 "/>
<path style=" stroke:none;fill-rule:nonzero;fill:rgb(100%,0%,0%);fill-opacity:1;" d="M 551.535156 287.617188 C 551.535156 288.949219 549.535156 288.949219 549.535156 287.617188 C 549.535156 286.28125 551.535156 286.28125 551.535156 287.617188 "/>
<path style=" stroke:none;fill-rule:nonzero;fill:rgb(100%,0%,0%);fill-opacity:1;" d="M 275.761719 65.664062 C 275.761719 67 273.761719 67 273.761719 65.664062 C 273.761719 64.332031 275.761719 64.332031 275.761719 65.664062 "/>
<path style=" stroke:none;fill-rule:nonzero;fill:rgb(100%,0%,0%);fill-opacity:1;" d="M 319.304688 66.554688 C 319.304688 67.886719 317.304688 67.886719 317.304688 66.554688 C 317.304688 65.21875 319.304688 65.21875 319.304688 66.554688 "/>
</g>
</svg>
