<?xml version="1.0" encoding="UTF-8"?>
<svg xmlns="http://www.w3.org/2000/svg" xmlns:xlink="http://www.w3.org/1999/xlink" width="600pt" height="600pt" viewBox="0 0 600 600" version="1.1">
<g id="surface1">
<rect x="0" y="0" width="600" height="600" style="fill:rgb(100%,100%,100%);fill-opacity:1;stroke:none;"/>
<path style="fill:none;stroke-width:0.2;stroke-linecap:butt;stroke-linejoin:miter;stroke:rgb(26.666667%,26.666667%,26.666667%);stroke-opacity:1;stroke-miterlimit:10;" d="M 158.84375 322.316406 L 146.949219 324.542969 "/>
<path style="fill:none;stroke-width:0.2;stroke-linecap:butt;stroke-linejoin:miter;stroke:rgb(26.666667%,26.666667%,26.666667%);stroke-opacity:1;stroke-miterlimit:10;" d="M 171.78125 224.277344 L 167.269531 235.191406 "/>
<path style="fill:none;stroke-width:0.2;stroke-linecap:butt;stroke-linejoin:miter;stroke:rgb(26.666667%,26.666667%,26.666667%);stroke-opacity:1;stroke-miterlimit:10;" d="M 30.933594 301.582031 L 29.792969 282.527344 "/>
<path style="fill:none;stroke-width:0.2;stroke-linecap:butt;stroke-linejoin:miter;stroke:rgb(26.666667%,26.666667%,26.666667%);stroke-opacity:1;stroke-miterlimit:10;" d="M 249.09375 405.109375 L 243.28125 429.457031 "/>
<path style="fill:none;stroke-width:0.2;stroke-linecap:butt;stroke-linejoin:miter;stroke:rgb(26.666667%,26.666667%,26.666667%);stroke-opacity:1;stroke-miterlimit:10;" d="M 254.144531 421.035156 L 243.8125 429.78125 "/>
<path style="fill:none;stroke-width:0.2;stroke-linecap:butt;stroke-linejoin:miter;stroke:rgb(26.666667%,26.666667%,26.666667%);stroke-opacity:1;stroke-miterlimit:10;" d="M 231.695312 438.316406 L 242.226562 431 "/>
<path style="fill:none;stroke-width:0.2;stroke-linecap:butt;stroke-linejoin:miter;stroke:rgb(26.666667%,26.666667%,26.666667%);stroke-opacity:1;stroke-miterlimit:10;" d="M 573.695312 377.667969 L 571.714844 365.964844 "/>
<path style="fill:none;stroke-width:0.2;stroke-linecap:butt;stroke-linejoin:miter;stroke:rgb(26.666667%,26.666667%,26.666667%);stroke-opacity:1;stroke-miterlimit:10;" d="M 382.5 432.027344 L 393.109375 437.757812 "/>
<path style="fill:none;stroke-width:0.2;stroke-linecap:butt;stroke-linejoin:miter;stroke:rgb(26.666667%,26.666667%,26.666667%);stroke-opacity:1;stroke-miterlimit:10;" d="M 164.335938 369.484375 L 152.25 367.3125 "/>
<path style="fill:none;stroke-width:0.2;stroke-linecap:butt;stroke-linejoin:miter;stroke:rgb(26.666667%,26.666667%,26.666667%);stroke-opacity:1;stroke-miterlimit:10;" d="M 301.707031 101.683594 L 298.257812 82.945312 "/>
<path style="fill:none;stroke-width:0.2;stroke-linecap:butt;stroke-linejoin:miter;stroke:rgb(26.666667%,26.666667%,26.666667%);stroke-opacity:1;stroke-miterlimit:10;" d="M 334.5625 419.882812 L 334.328125 431.738281 "/>
<path style="fill:none;stroke-width:0.2;stroke-linecap:butt;stroke-linejoin:miter;stroke:rgb(26.666667%,26.666667%,26.666667%);stroke-opacity:1;stroke-miterlimit:10;" d="M 254.226562 439.199219 L 243.835938 431.046875 "/>
<path style="fill:none;stroke-width:0.2;stroke-linecap:butt;stroke-linejoin:miter;stroke:rgb(26.666667%,26.666667%,26.666667%);stroke-opacity:1;stroke-miterlimit:10;" d="M 227.667969 453.460938 L 242.492188 431.261719 "/>
<path style="fill:none;stroke-width:0.2;stroke-linecap:butt;stroke-linejoin:miter;stroke:rgb(26.666667%,26.666667%,26.666667%);stroke-opacity:1;stroke-miterlimit:10;" d="M 267.339844 414.84375 L 243.890625 429.890625 "/>
<path style="fill:none;stroke-width:0.2;stroke-linecap:butt;stroke-linejoin:miter;stroke:rgb(26.666667%,26.666667%,26.666667%);stroke-opacity:1;stroke-miterlimit:10;" d="M 327.972656 489.957031 L 333.359375 500.585938 "/>
<path style="fill:none;stroke-width:0.2;stroke-linecap:butt;stroke-linejoin:miter;stroke:rgb(26.666667%,26.666667%,26.666667%);stroke-opacity:1;stroke-miterlimit:10;" d="M 469.179688 72.460938 L 479.523438 78.96875 "/>
<path style="fill:none;stroke-width:0.2;stroke-linecap:butt;stroke-linejoin:miter;stroke:rgb(26.666667%,26.666667%,26.666667%);stroke-opacity:1;stroke-miterlimit:10;" d="M 324.359375 248.949219 L 316.050781 257.597656 "/>
<path style="fill:none;stroke-width:0.2;stroke-linecap:butt;stroke-linejoin:miter;stroke:rgb(26.666667%,26.666667%,26.666667%);stroke-opacity:1;stroke-miterlimit:10;" d="M 371.730469 96.375 L 383.546875 93.253906 "/>
<path style="fill:none;stroke-width:0.2;stroke-linecap:butt;stroke-linejoin:miter;stroke:rgb(26.666667%,26.666667%,26.666667%);stroke-opacity:1;stroke-miterlimit:10;" d="M 74.070312 229.390625 L 61.871094 229.890625 "/>
<path style="fill:none;stroke-width:0.2;stroke-linecap:butt;stroke-linejoin:miter;stroke:rgb(26.666667%,26.666667%,26.666667%);stroke-opacity:1;stroke-miterlimit:10;" d="M 229.507812 405.414062 L 242.574219 429.550781 "/>
<path style="fill:none;stroke-width:0.2;stroke-linecap:butt;stroke-linejoin:miter;stroke:rgb(26.666667%,26.666667%,26.666667%);stroke-opacity:1;stroke-miterlimit:10;" d="M 458.835938 317.875 L 466.253906 327.304688 "/>
<path style="fill:none;stroke-width:0.2;stroke-linecap:butt;stroke-linejoin:miter;stroke:rgb(26.666667%,26.666667%,26.666667%);stroke-opacity:1;stroke-miterlimit:10;" d="M 202.238281 328.308594 L 212.425781 321.980469 "/>
<path style="fill:none;stroke-width:0.2;stroke-linecap:butt;stroke-linejoin:miter;stroke:rgb(26.666667%,26.666667%,26.666667%);stroke-opacity:1;stroke-miterlimit:10;" d="M 580 258.585938 L 561.574219 265.203125 "/>
<path style="fill:none;stroke-width:0.2;stroke-linecap:butt;stroke-linejoin:miter;stroke:rgb(26.666667%,26.666667%,26.666667%);stroke-opacity:1;stroke-miterlimit:10;" d="M 216.035156 437.589844 L 242.082031 430.683594 "/>
<path style="fill:none;stroke-width:0.2;stroke-linecap:butt;stroke-linejoin:miter;stroke:rgb(26.666667%,26.666667%,26.666667%);stroke-opacity:1;stroke-miterlimit:10;" d="M 393.425781 482.96875 L 381.550781 479.898438 "/>
<path style="fill:none;stroke-width:0.2;stroke-linecap:butt;stroke-linejoin:miter;stroke:rgb(26.666667%,26.666667%,26.666667%);stroke-opacity:1;stroke-miterlimit:10;" d="M 267.488281 142.929688 L 258.101562 135.453125 "/>
<path style="fill:none;stroke-width:0.2;stroke-linecap:butt;stroke-linejoin:miter;stroke:rgb(26.666667%,26.666667%,26.666667%);stroke-opacity:1;stroke-miterlimit:10;" d="M 566.699219 252.632812 L 573.625 270.648438 "/>
<path style="fill:none;stroke-width:0.2;stroke-linecap:butt;stroke-linejoin:miter;stroke:rgb(26.666667%,26.666667%,26.666667%);stroke-opacity:1;stroke-miterlimit:10;" d="M 358.949219 142.304688 L 360.015625 154.011719 "/>
<path style="fill:none;stroke-width:0.2;stroke-linecap:butt;stroke-linejoin:miter;stroke:rgb(26.666667%,26.666667%,26.666667%);stroke-opacity:1;stroke-miterlimit:10;" d="M 167.105469 105.273438 L 157.195312 112.292969 "/>
<path style="fill:none;stroke-width:0.2;stroke-linecap:butt;stroke-linejoin:miter;stroke:rgb(26.666667%,26.666667%,26.666667%);stroke-opacity:1;stroke-miterlimit:10;" d="M 434.925781 546.515625 L 425.289062 553.933594 "/>
<path style="fill:none;stroke-width:0.2;stroke-linecap:butt;stroke-linejoin:miter;stroke:rgb(26.666667%,26.666667%,26.666667%);stroke-opacity:1;stroke-miterlimit:10;" d="M 269.78125 433.421875 L 244.042969 430.539062 "/>
<path style="fill:none;stroke-width:0.2;stroke-linecap:butt;stroke-linejoin:miter;stroke:rgb(26.666667%,26.666667%,26.666667%);stroke-opacity:1;stroke-miterlimit:10;" d="M 470.199219 465.601562 L 468.5 478.140625 "/>
<path style="fill:none;stroke-width:0.2;stroke-linecap:butt;stroke-linejoin:miter;stroke:rgb(26.666667%,26.666667%,26.666667%);stroke-opacity:1;stroke-miterlimit:10;" d="M 345.136719 292.234375 L 350.570312 281.726562 "/>
<path style="fill:none;stroke-width:0.2;stroke-linecap:butt;stroke-linejoin:miter;stroke:rgb(26.666667%,26.666667%,26.666667%);stroke-opacity:1;stroke-miterlimit:10;" d="M 466.558594 492.671875 L 468.234375 480.121094 "/>
<path style="fill:none;stroke-width:0.2;stroke-linecap:butt;stroke-linejoin:miter;stroke:rgb(26.666667%,26.666667%,26.666667%);stroke-opacity:1;stroke-miterlimit:10;" d="M 398.757812 193.707031 L 397.9375 182.027344 "/>
<path style="fill:none;stroke-width:0.2;stroke-linecap:butt;stroke-linejoin:miter;stroke:rgb(26.666667%,26.666667%,26.666667%);stroke-opacity:1;stroke-miterlimit:10;" d="M 219.082031 421.261719 L 242.113281 430.070312 "/>
<path style="fill:none;stroke-width:0.2;stroke-linecap:butt;stroke-linejoin:miter;stroke:rgb(26.666667%,26.666667%,26.666667%);stroke-opacity:1;stroke-miterlimit:10;" d="M 226.441406 530.9375 L 222.273438 542.085938 "/>
<path style="fill:none;stroke-width:0.2;stroke-linecap:butt;stroke-linejoin:miter;stroke:rgb(26.666667%,26.666667%,26.666667%);stroke-opacity:1;stroke-miterlimit:10;" d="M 139.386719 488.324219 L 151.394531 485.730469 "/>
<path style="fill:none;stroke-width:0.2;stroke-linecap:butt;stroke-linejoin:miter;stroke:rgb(26.666667%,26.666667%,26.666667%);stroke-opacity:1;stroke-miterlimit:10;" d="M 285.871094 223.261719 L 282.054688 234.496094 "/>
<path style="fill:none;stroke-width:0.2;stroke-linecap:butt;stroke-linejoin:miter;stroke:rgb(26.666667%,26.666667%,26.666667%);stroke-opacity:1;stroke-miterlimit:10;" d="M 213.957031 213.511719 L 223.65625 221.992188 "/>
<path style="fill:none;stroke-width:0.2;stroke-linecap:butt;stroke-linejoin:miter;stroke:rgb(26.666667%,26.666667%,26.666667%);stroke-opacity:1;stroke-miterlimit:10;" d="M 235.3125 52.707031 L 223.511719 49.496094 "/>
<path style="fill:none;stroke-width:0.2;stroke-linecap:butt;stroke-linejoin:miter;stroke:rgb(26.666667%,26.666667%,26.666667%);stroke-opacity:1;stroke-miterlimit:10;" d="M 543.65625 178.707031 L 544.136719 190.523438 "/>
<path style="fill:none;stroke-width:0.2;stroke-linecap:butt;stroke-linejoin:miter;stroke:rgb(26.666667%,26.666667%,26.666667%);stroke-opacity:1;stroke-miterlimit:10;" d="M 370.453125 541.257812 L 378.707031 532.460938 "/>
<path style="fill:none;stroke-width:0.2;stroke-linecap:butt;stroke-linejoin:miter;stroke:rgb(26.666667%,26.666667%,26.666667%);stroke-opacity:1;stroke-miterlimit:10;" d="M 495.945312 218.699219 L 499.292969 230.050781 "/>
<path style="fill:none;stroke-width:0.2;stroke-linecap:butt;stroke-linejoin:miter;stroke:rgb(26.666667%,26.666667%,26.666667%);stroke-opacity:1;stroke-miterlimit:10;" d="M 235.734375 418.546875 L 242.523438 429.578125 "/>
<path style="fill:none;stroke-width:0.2;stroke-linecap:butt;stroke-linejoin:miter;stroke:rgb(26.666667%,26.666667%,26.666667%);stroke-opacity:1;stroke-miterlimit:10;" d="M 125.398438 265.917969 L 113.203125 265.546875 "/>
<path style="fill:none;stroke-width:0.2;stroke-linecap:butt;stroke-linejoin:miter;stroke:rgb(26.666667%,26.666667%,26.666667%);stroke-opacity:1;stroke-miterlimit:10;" d="M 464.136719 372.863281 L 451.964844 374.015625 "/>
<path style="fill:none;stroke-width:0.2;stroke-linecap:butt;stroke-linejoin:miter;stroke:rgb(26.666667%,26.666667%,26.666667%);stroke-opacity:1;stroke-miterlimit:10;" d="M 371.808594 386.785156 L 383.726562 384.167969 "/>
<path style="fill:none;stroke-width:0.2;stroke-linecap:butt;stroke-linejoin:miter;stroke:rgb(26.666667%,26.666667%,26.666667%);stroke-opacity:1;stroke-miterlimit:10;" d="M 304.328125 356.285156 L 312.199219 365.269531 "/>
<path style="fill:none;stroke-width:0.2;stroke-linecap:butt;stroke-linejoin:miter;stroke:rgb(26.666667%,26.666667%,26.666667%);stroke-opacity:1;stroke-miterlimit:10;" d="M 293.707031 528.515625 L 282.171875 524.589844 "/>
<path style="fill:none;stroke-width:0.2;stroke-linecap:butt;stroke-linejoin:miter;stroke:rgb(26.666667%,26.666667%,26.666667%);stroke-opacity:1;stroke-miterlimit:10;" d="M 391.328125 246.964844 L 384.652344 237.234375 "/>
<path style="fill:none;stroke-width:0.2;stroke-linecap:butt;stroke-linejoin:miter;stroke:rgb(26.666667%,26.666667%,26.666667%);stroke-opacity:1;stroke-miterlimit:10;" d="M 244.171875 453.800781 L 243.097656 431.429688 "/>
<path style="fill:none;stroke-width:0.2;stroke-linecap:butt;stroke-linejoin:miter;stroke:rgb(26.666667%,26.666667%,26.666667%);stroke-opacity:1;stroke-miterlimit:10;" d="M 348.667969 208.433594 L 336.824219 205.9375 "/>
<path style="fill:none;stroke-width:0.2;stroke-linecap:butt;stroke-linejoin:miter;stroke:rgb(26.666667%,26.666667%,26.666667%);stroke-opacity:1;stroke-miterlimit:10;" d="M 176.625 281.027344 L 187.898438 276.597656 "/>
<path style="fill:none;stroke-width:0.2;stroke-linecap:butt;stroke-linejoin:miter;stroke:rgb(26.666667%,26.666667%,26.666667%);stroke-opacity:1;stroke-miterlimit:10;" d="M 121.828125 405.320312 L 128.746094 417.46875 "/>
<path style="fill:none;stroke-width:0.2;stroke-linecap:butt;stroke-linejoin:miter;stroke:rgb(26.666667%,26.666667%,26.666667%);stroke-opacity:1;stroke-miterlimit:10;" d="M 121.78125 431.183594 L 128.738281 419.203125 "/>
<path style="fill:none;stroke-width:0.2;stroke-linecap:butt;stroke-linejoin:miter;stroke:rgb(26.666667%,26.666667%,26.666667%);stroke-opacity:1;stroke-miterlimit:10;" d="M 397.328125 291.199219 L 389.066406 299.84375 "/>
<path style="fill:none;stroke-width:0.2;stroke-linecap:butt;stroke-linejoin:miter;stroke:rgb(26.666667%,26.666667%,26.666667%);stroke-opacity:1;stroke-miterlimit:10;" d="M 144.421875 419.128906 L 130.238281 418.386719 "/>
<path style="fill:none;stroke-width:0.2;stroke-linecap:butt;stroke-linejoin:miter;stroke:rgb(26.666667%,26.666667%,26.666667%);stroke-opacity:1;stroke-miterlimit:10;" d="M 259.03125 291.109375 L 249.128906 283.160156 "/>
<path style="fill:none;stroke-width:0.2;stroke-linecap:butt;stroke-linejoin:miter;stroke:rgb(26.666667%,26.666667%,26.666667%);stroke-opacity:1;stroke-miterlimit:10;" d="M 117.949219 155.507812 L 108.679688 147.785156 "/>
<path style="fill:none;stroke-width:0.2;stroke-linecap:butt;stroke-linejoin:miter;stroke:rgb(26.666667%,26.666667%,26.666667%);stroke-opacity:1;stroke-miterlimit:10;" d="M 261.625 452.140625 L 243.699219 431.1875 "/>
<path style="fill:none;stroke-width:0.2;stroke-linecap:butt;stroke-linejoin:miter;stroke:rgb(26.666667%,26.666667%,26.666667%);stroke-opacity:1;stroke-miterlimit:10;" d="M 438.867188 423.574219 L 431.570312 414.078125 "/>
<path style="fill:none;stroke-width:0.2;stroke-linecap:butt;stroke-linejoin:miter;stroke:rgb(26.666667%,26.666667%,26.666667%);stroke-opacity:1;stroke-miterlimit:10;" d="M 259.019531 340.847656 L 248.042969 345.882812 "/>
<path style="fill:none;stroke-width:0.2;stroke-linecap:butt;stroke-linejoin:miter;stroke:rgb(26.666667%,26.666667%,26.666667%);stroke-opacity:1;stroke-miterlimit:10;" d="M 510.011719 422.976562 L 519.03125 406.082031 "/>
<path style="fill:none;stroke-width:0.2;stroke-linecap:butt;stroke-linejoin:miter;stroke:rgb(26.666667%,26.666667%,26.666667%);stroke-opacity:1;stroke-miterlimit:10;" d="M 499.214844 145.859375 L 506.070312 136.023438 "/>
<path style="fill:none;stroke-width:0.2;stroke-linecap:butt;stroke-linejoin:miter;stroke:rgb(26.666667%,26.666667%,26.666667%);stroke-opacity:1;stroke-miterlimit:10;" d="M 438.515625 115.152344 L 430.453125 125.121094 "/>
<path style="fill:none;stroke-width:0.2;stroke-linecap:butt;stroke-linejoin:miter;stroke:rgb(26.666667%,26.666667%,26.666667%);stroke-opacity:1;stroke-miterlimit:10;" d="M 447.875 263.964844 L 443.691406 252.003906 "/>
<path style="fill:none;stroke-width:0.2;stroke-linecap:butt;stroke-linejoin:miter;stroke:rgb(26.666667%,26.666667%,26.666667%);stroke-opacity:1;stroke-miterlimit:10;" d="M 235.492188 230.976562 L 225.207031 223.253906 "/>
<path style="fill:none;stroke-width:0.2;stroke-linecap:butt;stroke-linejoin:miter;stroke:rgb(26.666667%,26.666667%,26.666667%);stroke-opacity:1;stroke-miterlimit:10;" d="M 420.78125 136.378906 L 429.167969 126.65625 "/>
<path style="fill:none;stroke-width:0.2;stroke-linecap:butt;stroke-linejoin:miter;stroke:rgb(26.666667%,26.666667%,26.666667%);stroke-opacity:1;stroke-miterlimit:10;" d="M 532.875 332.675781 L 537.777344 321.824219 "/>
<path style="fill:none;stroke-width:0.2;stroke-linecap:butt;stroke-linejoin:miter;stroke:rgb(26.666667%,26.666667%,26.666667%);stroke-opacity:1;stroke-miterlimit:10;" d="M 458.429688 179.347656 L 451.308594 188.914062 "/>
<path style="fill:none;stroke-width:0.2;stroke-linecap:butt;stroke-linejoin:miter;stroke:rgb(26.666667%,26.666667%,26.666667%);stroke-opacity:1;stroke-miterlimit:10;" d="M 495.738281 282.960938 L 496.871094 294.6875 "/>
<path style="fill:none;stroke-width:0.2;stroke-linecap:butt;stroke-linejoin:miter;stroke:rgb(26.666667%,26.666667%,26.666667%);stroke-opacity:1;stroke-miterlimit:10;" d="M 242.675781 179.269531 L 253.902344 184.070312 "/>
<path style="fill:none;stroke-width:0.2;stroke-linecap:butt;stroke-linejoin:miter;stroke:rgb(26.666667%,26.666667%,26.666667%);stroke-opacity:1;stroke-miterlimit:10;" d="M 289.660156 93.460938 L 309.0625 90.316406 "/>
<path style="fill:none;stroke-width:0.2;stroke-linecap:butt;stroke-linejoin:miter;stroke:rgb(26.666667%,26.666667%,26.666667%);stroke-opacity:1;stroke-miterlimit:10;" d="M 76.835938 473.8125 L 66.746094 466.996094 "/>
<path style="fill:none;stroke-width:0.2;stroke-linecap:butt;stroke-linejoin:miter;stroke:rgb(26.666667%,26.666667%,26.666667%);stroke-opacity:1;stroke-miterlimit:10;" d="M 40.714844 290.996094 L 21 292.117188 "/>
<path style="fill:none;stroke-width:0.2;stroke-linecap:butt;stroke-linejoin:miter;stroke:rgb(26.666667%,26.666667%,26.666667%);stroke-opacity:1;stroke-miterlimit:10;" d="M 131.320312 202.851562 L 120.058594 207.351562 "/>
<path style="fill:none;stroke-width:0.2;stroke-linecap:butt;stroke-linejoin:miter;stroke:rgb(26.666667%,26.666667%,26.666667%);stroke-opacity:1;stroke-miterlimit:10;" d="M 315.664062 163.339844 L 305.96875 170.371094 "/>
<path style="fill:none;stroke-width:0.2;stroke-linecap:butt;stroke-linejoin:miter;stroke:rgb(26.666667%,26.666667%,26.666667%);stroke-opacity:1;stroke-miterlimit:10;" d="M 438.710938 238.203125 L 443.023438 250.121094 "/>
<path style="fill:none;stroke-width:0.2;stroke-linecap:butt;stroke-linejoin:miter;stroke:rgb(26.666667%,26.666667%,26.666667%);stroke-opacity:1;stroke-miterlimit:10;" d="M 288.90625 580 L 301.25 579.246094 "/>
<path style="fill:none;stroke-width:0.2;stroke-linecap:butt;stroke-linejoin:miter;stroke:rgb(26.666667%,26.666667%,26.666667%);stroke-opacity:1;stroke-miterlimit:10;" d="M 524 418.839844 L 506.523438 409.890625 "/>
<path style="fill:none;stroke-width:0.2;stroke-linecap:butt;stroke-linejoin:miter;stroke:rgb(26.666667%,26.666667%,26.666667%);stroke-opacity:1;stroke-miterlimit:10;" d="M 416.914062 330.429688 L 413.171875 341.621094 "/>
<path style="fill:none;stroke-width:0.2;stroke-linecap:butt;stroke-linejoin:miter;stroke:rgb(26.666667%,26.666667%,26.666667%);stroke-opacity:1;stroke-miterlimit:10;" d="M 104.863281 313.574219 L 95.589844 321.164062 "/>
<path style="fill:none;stroke-width:0.2;stroke-linecap:butt;stroke-linejoin:miter;stroke:rgb(26.666667%,26.666667%,26.666667%);stroke-opacity:1;stroke-miterlimit:10;" d="M 363.042969 343.726562 L 350.984375 343.765625 "/>
<path style="fill:none;stroke-width:0.2;stroke-linecap:butt;stroke-linejoin:miter;stroke:rgb(26.666667%,26.666667%,26.666667%);stroke-opacity:1;stroke-miterlimit:10;" d="M 237.207031 274.476562 L 247.539062 281.945312 "/>
<path style="fill:none;stroke-width:0.2;stroke-linecap:butt;stroke-linejoin:miter;stroke:rgb(26.666667%,26.666667%,26.666667%);stroke-opacity:1;stroke-miterlimit:10;" d="M 216.398438 111.28125 L 214.128906 122.957031 "/>
<path style="fill:none;stroke-width:0.2;stroke-linecap:butt;stroke-linejoin:miter;stroke:rgb(26.666667%,26.666667%,26.666667%);stroke-opacity:1;stroke-miterlimit:10;" d="M 143.195312 61.363281 L 133.078125 68.273438 "/>
<path style="fill:none;stroke-width:0.2;stroke-linecap:butt;stroke-linejoin:miter;stroke:rgb(26.666667%,26.666667%,26.666667%);stroke-opacity:1;stroke-miterlimit:10;" d="M 53.992188 169.796875 L 56.734375 158.199219 "/>
<path style="fill:none;stroke-width:0.2;stroke-linecap:butt;stroke-linejoin:miter;stroke:rgb(26.666667%,26.666667%,26.666667%);stroke-opacity:1;stroke-miterlimit:10;" d="M 306.726562 313.296875 L 299.101562 304.234375 "/>
<path style="fill:none;stroke-width:0.2;stroke-linecap:butt;stroke-linejoin:miter;stroke:rgb(26.666667%,26.666667%,26.666667%);stroke-opacity:1;stroke-miterlimit:10;" d="M 171.519531 168.707031 L 182.078125 162.886719 "/>
<path style="fill:none;stroke-width:0.2;stroke-linecap:butt;stroke-linejoin:miter;stroke:rgb(26.666667%,26.666667%,26.666667%);stroke-opacity:1;stroke-miterlimit:10;" d="M 385.203125 40.980469 L 373.195312 43.636719 "/>
<path style="fill:none;stroke-width:0.2;stroke-linecap:butt;stroke-linejoin:miter;stroke:rgb(26.666667%,26.666667%,26.666667%);stroke-opacity:1;stroke-miterlimit:10;" d="M 49.957031 356.601562 L 38.699219 361.53125 "/>
<path style="fill:none;stroke-width:0.2;stroke-linecap:butt;stroke-linejoin:miter;stroke:rgb(26.666667%,26.666667%,26.666667%);stroke-opacity:1;stroke-miterlimit:10;" d="M 303.167969 20 L 314.984375 23.339844 "/>
<path style="fill:none;stroke-width:0.2;stroke-linecap:butt;stroke-linejoin:miter;stroke:rgb(26.666667%,26.666667%,26.666667%);stroke-opacity:1;stroke-miterlimit:10;" d="M 163.960938 540.339844 L 151.664062 540.132812 "/>
<path style="fill:none;stroke-width:0.2;stroke-linecap:butt;stroke-linejoin:miter;stroke:rgb(26.666667%,26.666667%,26.666667%);stroke-opacity:1;stroke-miterlimit:10;" d="M 68.34375 399.652344 L 61.882812 409.761719 "/>
<path style=" stroke:none;fill-rule:nonzero;fill:rgb(100%,0%,0%);fill-opacity:1;" d="M 159.84375 322.316406 C 159.84375 323.648438 157.84375 323.648438 157.84375 322.316406 C 157.84375 320.984375 159.84375 320.984375 159.84375 322.316406 "/>
<path style=" stroke:none;fill-rule:nonzero;fill:rgb(100%,0%,0%);fill-opacity:1;" d="M 146.96875 324.726562 C 146.96875 326.058594 144.96875 326.058594 144.96875 324.726562 C 144.96875 323.394531 146.96875 323.394531 146.96875 324.726562 "/>
<path style=" stroke:none;fill-rule:nonzero;fill:rgb(100%,0%,0%);fill-opacity:1;" d="M 172.78125 224.277344 C 172.78125 225.609375 170.78125 225.609375 170.78125 224.277344 C 170.78125 222.945312 172.78125 222.945312 172.78125 224.277344 "/>
<path style=" stroke:none;fill-rule:nonzero;fill:rgb(100%,0%,0%);fill-opacity:1;" d="M 167.886719 236.113281 C 167.886719 237.449219 165.886719 237.449219 165.886719 236.113281 C 165.886719 234.78125 167.886719 234.78125 167.886719 236.113281 "/>
<path style=" stroke:none;fill-rule:nonzero;fill:rgb(100%,0%,0%);fill-opacity:1;" d="M 31.933594 301.582031 C 31.933594 302.917969 29.933594 302.917969 29.933594 301.582031 C 29.933594 300.25 31.933594 300.25 31.933594 301.582031 "/>
<path style=" stroke:none;fill-rule:nonzero;fill:rgb(100%,0%,0%);fill-opacity:1;" d="M 30.734375 281.53125 C 30.734375 282.863281 28.734375 282.863281 28.734375 281.53125 C 28.734375 280.199219 30.734375 280.199219 30.734375 281.53125 "/>
<path style=" stroke:none;fill-rule:nonzero;fill:rgb(100%,0%,0%);fill-opacity:1;" d="M 250.09375 405.109375 C 250.09375 406.441406 248.09375 406.441406 248.09375 405.109375 C 248.09375 403.777344 250.09375 403.777344 250.09375 405.109375 "/>
<path style=" stroke:none;fill-rule:nonzero;fill:rgb(100%,0%,0%);fill-opacity:1;" d="M 244.046875 430.429688 C 244.046875 431.761719 242.046875 431.761719 242.046875 430.429688 C 242.046875 429.097656 244.046875 429.097656 244.046875 430.429688 "/>
<path style=" stroke:none;fill-rule:nonzero;fill:rgb(100%,0%,0%);fill-opacity:1;" d="M 255.144531 421.035156 C 255.144531 422.371094 253.144531 422.371094 253.144531 421.035156 C 253.144531 419.703125 255.144531 419.703125 255.144531 421.035156 "/>
<path style=" stroke:none;fill-rule:nonzero;fill:rgb(100%,0%,0%);fill-opacity:1;" d="M 232.695312 438.316406 C 232.695312 439.648438 230.695312 439.648438 230.695312 438.316406 C 230.695312 436.980469 232.695312 436.980469 232.695312 438.316406 "/>
<path style=" stroke:none;fill-rule:nonzero;fill:rgb(100%,0%,0%);fill-opacity:1;" d="M 574.695312 377.667969 C 574.695312 379 572.695312 379 572.695312 377.667969 C 572.695312 376.332031 574.695312 376.332031 574.695312 377.667969 "/>
<path style=" stroke:none;fill-rule:nonzero;fill:rgb(100%,0%,0%);fill-opacity:1;" d="M 572.546875 364.976562 C 572.546875 366.3125 570.546875 366.3125 570.546875 364.976562 C 570.546875 363.644531 572.546875 363.644531 572.546875 364.976562 "/>
<path style=" stroke:none;fill-rule:nonzero;fill:rgb(100%,0%,0%);fill-opacity:1;" d="M 383.5 432.027344 C 383.5 433.359375 381.5 433.359375 381.5 432.027344 C 381.5 430.691406 383.5 430.691406 383.5 432.027344 "/>
<path style=" stroke:none;fill-rule:nonzero;fill:rgb(100%,0%,0%);fill-opacity:1;" d="M 394.988281 438.234375 C 394.988281 439.566406 392.988281 439.566406 392.988281 438.234375 C 392.988281 436.898438 394.988281 436.898438 394.988281 438.234375 "/>
<path style=" stroke:none;fill-rule:nonzero;fill:rgb(100%,0%,0%);fill-opacity:1;" d="M 165.335938 369.484375 C 165.335938 370.816406 163.335938 370.816406 163.335938 369.484375 C 163.335938 368.148438 165.335938 368.148438 165.335938 369.484375 "/>
<path style=" stroke:none;fill-rule:nonzero;fill:rgb(100%,0%,0%);fill-opacity:1;" d="M 152.265625 367.136719 C 152.265625 368.46875 150.265625 368.46875 150.265625 367.136719 C 150.265625 365.804688 152.265625 365.804688 152.265625 367.136719 "/>
<path style=" stroke:none;fill-rule:nonzero;fill:rgb(100%,0%,0%);fill-opacity:1;" d="M 302.707031 101.683594 C 302.707031 103.015625 300.707031 103.015625 300.707031 101.683594 C 300.707031 100.347656 302.707031 100.347656 302.707031 101.683594 "/>
<path style=" stroke:none;fill-rule:nonzero;fill:rgb(100%,0%,0%);fill-opacity:1;" d="M 299.074219 81.964844 C 299.074219 83.296875 297.074219 83.296875 297.074219 81.964844 C 297.074219 80.628906 299.074219 80.628906 299.074219 81.964844 "/>
<path style=" stroke:none;fill-rule:nonzero;fill:rgb(100%,0%,0%);fill-opacity:1;" d="M 335.5625 419.882812 C 335.5625 421.214844 333.5625 421.214844 333.5625 419.882812 C 333.5625 418.546875 335.5625 418.546875 335.5625 419.882812 "/>
<path style=" stroke:none;fill-rule:nonzero;fill:rgb(100%,0%,0%);fill-opacity:1;" d="M 335.308594 432.738281 C 335.308594 434.070312 333.308594 434.070312 333.308594 432.738281 C 333.308594 431.40625 335.308594 431.40625 335.308594 432.738281 "/>
<path style=" stroke:none;fill-rule:nonzero;fill:rgb(100%,0%,0%);fill-opacity:1;" d="M 255.226562 439.199219 C 255.226562 440.53125 253.226562 440.53125 253.226562 439.199219 C 253.226562 437.867188 255.226562 437.867188 255.226562 439.199219 "/>
<path style=" stroke:none;fill-rule:nonzero;fill:rgb(100%,0%,0%);fill-opacity:1;" d="M 228.667969 453.460938 C 228.667969 454.792969 226.667969 454.792969 226.667969 453.460938 C 226.667969 452.128906 228.667969 452.128906 228.667969 453.460938 "/>
<path style=" stroke:none;fill-rule:nonzero;fill:rgb(100%,0%,0%);fill-opacity:1;" d="M 268.339844 414.84375 C 268.339844 416.175781 266.339844 416.175781 266.339844 414.84375 C 266.339844 413.507812 268.339844 413.507812 268.339844 414.84375 "/>
<path style=" stroke:none;fill-rule:nonzero;fill:rgb(100%,0%,0%);fill-opacity:1;" d="M 328.972656 489.957031 C 328.972656 491.289062 326.972656 491.289062 326.972656 489.957031 C 326.972656 488.625 328.972656 488.625 328.972656 489.957031 "/>
<path style=" stroke:none;fill-rule:nonzero;fill:rgb(100%,0%,0%);fill-opacity:1;" d="M 334.8125 501.480469 C 334.8125 502.8125 332.8125 502.8125 332.8125 501.480469 C 332.8125 500.144531 334.8125 500.144531 334.8125 501.480469 "/>
<path style=" stroke:none;fill-rule:nonzero;fill:rgb(100%,0%,0%);fill-opacity:1;" d="M 470.179688 72.460938 C 470.179688 73.792969 468.179688 73.792969 468.179688 72.460938 C 468.179688 71.125 470.179688 71.125 470.179688 72.460938 "/>
<path style=" stroke:none;fill-rule:nonzero;fill:rgb(100%,0%,0%);fill-opacity:1;" d="M 481.367188 79.503906 C 481.367188 80.835938 479.367188 80.835938 479.367188 79.503906 C 479.367188 78.167969 481.367188 78.167969 481.367188 79.503906 "/>
<path style=" stroke:none;fill-rule:nonzero;fill:rgb(100%,0%,0%);fill-opacity:1;" d="M 325.359375 248.949219 C 325.359375 250.28125 323.359375 250.28125 323.359375 248.949219 C 323.359375 247.613281 325.359375 247.613281 325.359375 248.949219 "/>
<path style=" stroke:none;fill-rule:nonzero;fill:rgb(100%,0%,0%);fill-opacity:1;" d="M 316.359375 258.320312 C 316.359375 259.652344 314.359375 259.652344 314.359375 258.320312 C 314.359375 256.988281 316.359375 256.988281 316.359375 258.320312 "/>
<path style=" stroke:none;fill-rule:nonzero;fill:rgb(100%,0%,0%);fill-opacity:1;" d="M 372.730469 96.375 C 372.730469 97.710938 370.730469 97.710938 370.730469 96.375 C 370.730469 95.042969 372.730469 95.042969 372.730469 96.375 "/>
<path style=" stroke:none;fill-rule:nonzero;fill:rgb(100%,0%,0%);fill-opacity:1;" d="M 385.511719 92.996094 C 385.511719 94.332031 383.511719 94.332031 383.511719 92.996094 C 383.511719 91.664062 385.511719 91.664062 385.511719 92.996094 "/>
<path style=" stroke:none;fill-rule:nonzero;fill:rgb(100%,0%,0%);fill-opacity:1;" d="M 75.070312 229.390625 C 75.070312 230.722656 73.070312 230.722656 73.070312 229.390625 C 73.070312 228.054688 75.070312 228.054688 75.070312 229.390625 "/>
<path style=" stroke:none;fill-rule:nonzero;fill:rgb(100%,0%,0%);fill-opacity:1;" d="M 61.871094 229.933594 C 61.871094 231.265625 59.871094 231.265625 59.871094 229.933594 C 59.871094 228.597656 61.871094 228.597656 61.871094 229.933594 "/>
<path style=" stroke:none;fill-rule:nonzero;fill:rgb(100%,0%,0%);fill-opacity:1;" d="M 230.507812 405.414062 C 230.507812 406.746094 228.507812 406.746094 228.507812 405.414062 C 228.507812 404.078125 230.507812 404.078125 230.507812 405.414062 "/>
<path style=" stroke:none;fill-rule:nonzero;fill:rgb(100%,0%,0%);fill-opacity:1;" d="M 459.835938 317.875 C 459.835938 319.210938 457.835938 319.210938 457.835938 317.875 C 457.835938 316.542969 459.835938 316.542969 459.835938 317.875 "/>
<path style=" stroke:none;fill-rule:nonzero;fill:rgb(100%,0%,0%);fill-opacity:1;" d="M 467.871094 328.09375 C 467.871094 329.425781 465.871094 329.425781 465.871094 328.09375 C 465.871094 326.757812 467.871094 326.757812 467.871094 328.09375 "/>
<path style=" stroke:none;fill-rule:nonzero;fill:rgb(100%,0%,0%);fill-opacity:1;" d="M 203.238281 328.308594 C 203.238281 329.640625 201.238281 329.640625 201.238281 328.308594 C 201.238281 326.972656 203.238281 326.972656 203.238281 328.308594 "/>
<path style=" stroke:none;fill-rule:nonzero;fill:rgb(100%,0%,0%);fill-opacity:1;" d="M 214.277344 321.453125 C 214.277344 322.785156 212.277344 322.785156 212.277344 321.453125 C 212.277344 320.117188 214.277344 320.117188 214.277344 321.453125 "/>
<path style=" stroke:none;fill-rule:nonzero;fill:rgb(100%,0%,0%);fill-opacity:1;" d="M 581 258.585938 C 581 259.917969 579 259.917969 579 258.585938 C 579 257.25 581 257.25 581 258.585938 "/>
<path style=" stroke:none;fill-rule:nonzero;fill:rgb(100%,0%,0%);fill-opacity:1;" d="M 561.632812 265.539062 C 561.632812 266.875 559.632812 266.875 559.632812 265.539062 C 559.632812 264.207031 561.632812 264.207031 561.632812 265.539062 "/>
<path style=" stroke:none;fill-rule:nonzero;fill:rgb(100%,0%,0%);fill-opacity:1;" d="M 217.035156 437.589844 C 217.035156 438.921875 215.035156 438.921875 215.035156 437.589844 C 215.035156 436.257812 217.035156 436.257812 217.035156 437.589844 "/>
<path style=" stroke:none;fill-rule:nonzero;fill:rgb(100%,0%,0%);fill-opacity:1;" d="M 394.425781 482.96875 C 394.425781 484.300781 392.425781 484.300781 392.425781 482.96875 C 392.425781 481.632812 394.425781 481.632812 394.425781 482.96875 "/>
<path style=" stroke:none;fill-rule:nonzero;fill:rgb(100%,0%,0%);fill-opacity:1;" d="M 381.582031 479.648438 C 381.582031 480.984375 379.582031 480.984375 379.582031 479.648438 C 379.582031 478.316406 381.582031 478.316406 381.582031 479.648438 "/>
<path style=" stroke:none;fill-rule:nonzero;fill:rgb(100%,0%,0%);fill-opacity:1;" d="M 268.488281 142.929688 C 268.488281 144.265625 266.488281 144.265625 266.488281 142.929688 C 266.488281 141.597656 268.488281 141.597656 268.488281 142.929688 "/>
<path style=" stroke:none;fill-rule:nonzero;fill:rgb(100%,0%,0%);fill-opacity:1;" d="M 258.320312 134.832031 C 258.320312 136.164062 256.320312 136.164062 256.320312 134.832031 C 256.320312 133.496094 258.320312 133.496094 258.320312 134.832031 "/>
<path style=" stroke:none;fill-rule:nonzero;fill:rgb(100%,0%,0%);fill-opacity:1;" d="M 567.699219 252.632812 C 567.699219 253.964844 565.699219 253.964844 565.699219 252.632812 C 565.699219 251.300781 567.699219 251.300781 567.699219 252.632812 "/>
<path style=" stroke:none;fill-rule:nonzero;fill:rgb(100%,0%,0%);fill-opacity:1;" d="M 574.984375 271.582031 C 574.984375 272.914062 572.984375 272.914062 572.984375 271.582031 C 572.984375 270.246094 574.984375 270.246094 574.984375 271.582031 "/>
<path style=" stroke:none;fill-rule:nonzero;fill:rgb(100%,0%,0%);fill-opacity:1;" d="M 359.949219 142.304688 C 359.949219 143.636719 357.949219 143.636719 357.949219 142.304688 C 357.949219 140.96875 359.949219 140.96875 359.949219 142.304688 "/>
<path style=" stroke:none;fill-rule:nonzero;fill:rgb(100%,0%,0%);fill-opacity:1;" d="M 361.105469 155.007812 C 361.105469 156.34375 359.105469 156.34375 359.105469 155.007812 C 359.105469 153.675781 361.105469 153.675781 361.105469 155.007812 "/>
<path style=" stroke:none;fill-rule:nonzero;fill:rgb(100%,0%,0%);fill-opacity:1;" d="M 168.105469 105.273438 C 168.105469 106.609375 166.105469 106.609375 166.105469 105.273438 C 166.105469 103.941406 168.105469 103.941406 168.105469 105.273438 "/>
<path style=" stroke:none;fill-rule:nonzero;fill:rgb(100%,0%,0%);fill-opacity:1;" d="M 157.378906 112.871094 C 157.378906 114.203125 155.378906 114.203125 155.378906 112.871094 C 155.378906 111.535156 157.378906 111.535156 157.378906 112.871094 "/>
<path style=" stroke:none;fill-rule:nonzero;fill:rgb(100%,0%,0%);fill-opacity:1;" d="M 435.925781 546.515625 C 435.925781 547.847656 433.925781 547.847656 433.925781 546.515625 C 433.925781 545.183594 435.925781 545.183594 435.925781 546.515625 "/>
<path style=" stroke:none;fill-rule:nonzero;fill:rgb(100%,0%,0%);fill-opacity:1;" d="M 425.5 554.542969 C 425.5 555.878906 423.5 555.878906 423.5 554.542969 C 423.5 553.210938 425.5 553.210938 425.5 554.542969 "/>
<path style=" stroke:none;fill-rule:nonzero;fill:rgb(100%,0%,0%);fill-opacity:1;" d="M 270.78125 433.421875 C 270.78125 434.757812 268.78125 434.757812 268.78125 433.421875 C 268.78125 432.089844 270.78125 432.089844 270.78125 433.421875 "/>
<path style=" stroke:none;fill-rule:nonzero;fill:rgb(100%,0%,0%);fill-opacity:1;" d="M 471.199219 465.601562 C 471.199219 466.933594 469.199219 466.933594 469.199219 465.601562 C 469.199219 464.269531 471.199219 464.269531 471.199219 465.601562 "/>
<path style=" stroke:none;fill-rule:nonzero;fill:rgb(100%,0%,0%);fill-opacity:1;" d="M 469.367188 479.132812 C 469.367188 480.464844 467.367188 480.464844 467.367188 479.132812 C 467.367188 477.796875 469.367188 477.796875 469.367188 479.132812 "/>
<path style=" stroke:none;fill-rule:nonzero;fill:rgb(100%,0%,0%);fill-opacity:1;" d="M 346.136719 292.234375 C 346.136719 293.566406 344.136719 293.566406 344.136719 292.234375 C 344.136719 290.902344 346.136719 290.902344 346.136719 292.234375 "/>
<path style=" stroke:none;fill-rule:nonzero;fill:rgb(100%,0%,0%);fill-opacity:1;" d="M 352.027344 280.839844 C 352.027344 282.171875 350.027344 282.171875 350.027344 280.839844 C 350.027344 279.507812 352.027344 279.507812 352.027344 280.839844 "/>
<path style=" stroke:none;fill-rule:nonzero;fill:rgb(100%,0%,0%);fill-opacity:1;" d="M 467.558594 492.671875 C 467.558594 494.003906 465.558594 494.003906 465.558594 492.671875 C 465.558594 491.335938 467.558594 491.335938 467.558594 492.671875 "/>
<path style=" stroke:none;fill-rule:nonzero;fill:rgb(100%,0%,0%);fill-opacity:1;" d="M 399.757812 193.707031 C 399.757812 195.042969 397.757812 195.042969 397.757812 193.707031 C 397.757812 192.375 399.757812 192.375 399.757812 193.707031 "/>
<path style=" stroke:none;fill-rule:nonzero;fill:rgb(100%,0%,0%);fill-opacity:1;" d="M 398.867188 181.027344 C 398.867188 182.363281 396.867188 182.363281 396.867188 181.027344 C 396.867188 179.695312 398.867188 179.695312 398.867188 181.027344 "/>
<path style=" stroke:none;fill-rule:nonzero;fill:rgb(100%,0%,0%);fill-opacity:1;" d="M 220.082031 421.261719 C 220.082031 422.59375 218.082031 422.59375 218.082031 421.261719 C 218.082031 419.929688 220.082031 419.929688 220.082031 421.261719 "/>
<path style=" stroke:none;fill-rule:nonzero;fill:rgb(100%,0%,0%);fill-opacity:1;" d="M 227.441406 530.9375 C 227.441406 532.269531 225.441406 532.269531 225.441406 530.9375 C 225.441406 529.601562 227.441406 529.601562 227.441406 530.9375 "/>
<path style=" stroke:none;fill-rule:nonzero;fill:rgb(100%,0%,0%);fill-opacity:1;" d="M 222.925781 543.023438 C 222.925781 544.355469 220.925781 544.355469 220.925781 543.023438 C 220.925781 541.6875 222.925781 541.6875 222.925781 543.023438 "/>
<path style=" stroke:none;fill-rule:nonzero;fill:rgb(100%,0%,0%);fill-opacity:1;" d="M 140.386719 488.324219 C 140.386719 489.660156 138.386719 489.660156 138.386719 488.324219 C 138.386719 486.992188 140.386719 486.992188 140.386719 488.324219 "/>
<path style=" stroke:none;fill-rule:nonzero;fill:rgb(100%,0%,0%);fill-opacity:1;" d="M 153.371094 485.519531 C 153.371094 486.855469 151.371094 486.855469 151.371094 485.519531 C 151.371094 484.1875 153.371094 484.1875 153.371094 485.519531 "/>
<path style=" stroke:none;fill-rule:nonzero;fill:rgb(100%,0%,0%);fill-opacity:1;" d="M 286.871094 223.261719 C 286.871094 224.59375 284.871094 224.59375 284.871094 223.261719 C 284.871094 221.925781 286.871094 221.925781 286.871094 223.261719 "/>
<path style=" stroke:none;fill-rule:nonzero;fill:rgb(100%,0%,0%);fill-opacity:1;" d="M 282.734375 235.441406 C 282.734375 236.777344 280.734375 236.777344 280.734375 235.441406 C 280.734375 234.109375 282.734375 234.109375 282.734375 235.441406 "/>
<path style=" stroke:none;fill-rule:nonzero;fill:rgb(100%,0%,0%);fill-opacity:1;" d="M 214.957031 213.511719 C 214.957031 214.847656 212.957031 214.847656 212.957031 213.511719 C 212.957031 212.179688 214.957031 212.179688 214.957031 213.511719 "/>
<path style=" stroke:none;fill-rule:nonzero;fill:rgb(100%,0%,0%);fill-opacity:1;" d="M 225.40625 222.652344 C 225.40625 223.984375 223.40625 223.984375 223.40625 222.652344 C 223.40625 221.316406 225.40625 221.316406 225.40625 222.652344 "/>
<path style=" stroke:none;fill-rule:nonzero;fill:rgb(100%,0%,0%);fill-opacity:1;" d="M 236.3125 52.707031 C 236.3125 54.039062 234.3125 54.039062 234.3125 52.707031 C 234.3125 51.375 236.3125 51.375 236.3125 52.707031 "/>
<path style=" stroke:none;fill-rule:nonzero;fill:rgb(100%,0%,0%);fill-opacity:1;" d="M 223.546875 49.234375 C 223.546875 50.570312 221.546875 50.570312 221.546875 49.234375 C 221.546875 47.902344 223.546875 47.902344 223.546875 49.234375 "/>
<path style=" stroke:none;fill-rule:nonzero;fill:rgb(100%,0%,0%);fill-opacity:1;" d="M 544.65625 178.707031 C 544.65625 180.039062 542.65625 180.039062 542.65625 178.707031 C 542.65625 177.375 544.65625 177.375 544.65625 178.707031 "/>
<path style=" stroke:none;fill-rule:nonzero;fill:rgb(100%,0%,0%);fill-opacity:1;" d="M 545.175781 191.519531 C 545.175781 192.855469 543.175781 192.855469 543.175781 191.519531 C 543.175781 190.1875 545.175781 190.1875 545.175781 191.519531 "/>
<path style=" stroke:none;fill-rule:nonzero;fill:rgb(100%,0%,0%);fill-opacity:1;" d="M 371.453125 541.257812 C 371.453125 542.59375 369.453125 542.59375 369.453125 541.257812 C 369.453125 539.925781 371.453125 539.925781 371.453125 541.257812 "/>
<path style=" stroke:none;fill-rule:nonzero;fill:rgb(100%,0%,0%);fill-opacity:1;" d="M 380.394531 531.730469 C 380.394531 533.0625 378.394531 533.0625 378.394531 531.730469 C 378.394531 530.398438 380.394531 530.398438 380.394531 531.730469 "/>
<path style=" stroke:none;fill-rule:nonzero;fill:rgb(100%,0%,0%);fill-opacity:1;" d="M 496.945312 218.699219 C 496.945312 220.03125 494.945312 220.03125 494.945312 218.699219 C 494.945312 217.367188 496.945312 217.367188 496.945312 218.699219 "/>
<path style=" stroke:none;fill-rule:nonzero;fill:rgb(100%,0%,0%);fill-opacity:1;" d="M 500.574219 231.007812 C 500.574219 232.34375 498.574219 232.34375 498.574219 231.007812 C 498.574219 229.675781 500.574219 229.675781 500.574219 231.007812 "/>
<path style=" stroke:none;fill-rule:nonzero;fill:rgb(100%,0%,0%);fill-opacity:1;" d="M 236.734375 418.546875 C 236.734375 419.878906 234.734375 419.878906 234.734375 418.546875 C 234.734375 417.210938 236.734375 417.210938 236.734375 418.546875 "/>
<path style=" stroke:none;fill-rule:nonzero;fill:rgb(100%,0%,0%);fill-opacity:1;" d="M 126.398438 265.917969 C 126.398438 267.253906 124.398438 267.253906 124.398438 265.917969 C 124.398438 264.585938 126.398438 264.585938 126.398438 265.917969 "/>
<path style=" stroke:none;fill-rule:nonzero;fill:rgb(100%,0%,0%);fill-opacity:1;" d="M 113.203125 265.515625 C 113.203125 266.847656 111.203125 266.847656 111.203125 265.515625 C 111.203125 264.179688 113.203125 264.179688 113.203125 265.515625 "/>
<path style=" stroke:none;fill-rule:nonzero;fill:rgb(100%,0%,0%);fill-opacity:1;" d="M 465.136719 372.863281 C 465.136719 374.195312 463.136719 374.195312 463.136719 372.863281 C 463.136719 371.53125 465.136719 371.53125 465.136719 372.863281 "/>
<path style=" stroke:none;fill-rule:nonzero;fill:rgb(100%,0%,0%);fill-opacity:1;" d="M 451.96875 374.109375 C 451.96875 375.445312 449.96875 375.445312 449.96875 374.109375 C 449.96875 372.777344 451.96875 372.777344 451.96875 374.109375 "/>
<path style=" stroke:none;fill-rule:nonzero;fill:rgb(100%,0%,0%);fill-opacity:1;" d="M 372.808594 386.785156 C 372.808594 388.121094 370.808594 388.121094 370.808594 386.785156 C 370.808594 385.453125 372.808594 385.453125 372.808594 386.785156 "/>
<path style=" stroke:none;fill-rule:nonzero;fill:rgb(100%,0%,0%);fill-opacity:1;" d="M 385.703125 383.953125 C 385.703125 385.289062 383.703125 385.289062 383.703125 383.953125 C 383.703125 382.621094 385.703125 382.621094 385.703125 383.953125 "/>
<path style=" stroke:none;fill-rule:nonzero;fill:rgb(100%,0%,0%);fill-opacity:1;" d="M 305.328125 356.285156 C 305.328125 357.621094 303.328125 357.621094 303.328125 356.285156 C 303.328125 354.953125 305.328125 354.953125 305.328125 356.285156 "/>
<path style=" stroke:none;fill-rule:nonzero;fill:rgb(100%,0%,0%);fill-opacity:1;" d="M 313.859375 366.023438 C 313.859375 367.355469 311.859375 367.355469 311.859375 366.023438 C 311.859375 364.6875 313.859375 364.6875 313.859375 366.023438 "/>
<path style=" stroke:none;fill-rule:nonzero;fill:rgb(100%,0%,0%);fill-opacity:1;" d="M 294.707031 528.515625 C 294.707031 529.847656 292.707031 529.847656 292.707031 528.515625 C 292.707031 527.179688 294.707031 527.179688 294.707031 528.515625 "/>
<path style=" stroke:none;fill-rule:nonzero;fill:rgb(100%,0%,0%);fill-opacity:1;" d="M 282.226562 524.269531 C 282.226562 525.601562 280.226562 525.601562 280.226562 524.269531 C 280.226562 522.933594 282.226562 522.933594 282.226562 524.269531 "/>
<path style=" stroke:none;fill-rule:nonzero;fill:rgb(100%,0%,0%);fill-opacity:1;" d="M 392.328125 246.964844 C 392.328125 248.300781 390.328125 248.300781 390.328125 246.964844 C 390.328125 245.632812 392.328125 245.632812 392.328125 246.964844 "/>
<path style=" stroke:none;fill-rule:nonzero;fill:rgb(100%,0%,0%);fill-opacity:1;" d="M 385.089844 236.410156 C 385.089844 237.742188 383.089844 237.742188 383.089844 236.410156 C 383.089844 235.078125 385.089844 235.078125 385.089844 236.410156 "/>
<path style=" stroke:none;fill-rule:nonzero;fill:rgb(100%,0%,0%);fill-opacity:1;" d="M 245.171875 453.800781 C 245.171875 455.132812 243.171875 455.132812 243.171875 453.800781 C 243.171875 452.464844 245.171875 452.464844 245.171875 453.800781 "/>
<path style=" stroke:none;fill-rule:nonzero;fill:rgb(100%,0%,0%);fill-opacity:1;" d="M 349.667969 208.433594 C 349.667969 209.765625 347.667969 209.765625 347.667969 208.433594 C 347.667969 207.101562 349.667969 207.101562 349.667969 208.433594 "/>
<path style=" stroke:none;fill-rule:nonzero;fill:rgb(100%,0%,0%);fill-opacity:1;" d="M 336.84375 205.734375 C 336.84375 207.066406 334.84375 207.066406 334.84375 205.734375 C 334.84375 204.398438 336.84375 204.398438 336.84375 205.734375 "/>
<path style=" stroke:none;fill-rule:nonzero;fill:rgb(100%,0%,0%);fill-opacity:1;" d="M 177.625 281.027344 C 177.625 282.359375 175.625 282.359375 175.625 281.027344 C 175.625 279.695312 177.625 279.695312 177.625 281.027344 "/>
<path style=" stroke:none;fill-rule:nonzero;fill:rgb(100%,0%,0%);fill-opacity:1;" d="M 189.832031 276.230469 C 189.832031 277.5625 187.832031 277.5625 187.832031 276.230469 C 187.832031 274.898438 189.832031 274.898438 189.832031 276.230469 "/>
<path style=" stroke:none;fill-rule:nonzero;fill:rgb(100%,0%,0%);fill-opacity:1;" d="M 122.828125 405.320312 C 122.828125 406.65625 120.828125 406.65625 120.828125 405.320312 C 120.828125 403.988281 122.828125 403.988281 122.828125 405.320312 "/>
<path style=" stroke:none;fill-rule:nonzero;fill:rgb(100%,0%,0%);fill-opacity:1;" d="M 130.242188 418.335938 C 130.242188 419.667969 128.242188 419.667969 128.242188 418.335938 C 128.242188 417.003906 130.242188 417.003906 130.242188 418.335938 "/>
<path style=" stroke:none;fill-rule:nonzero;fill:rgb(100%,0%,0%);fill-opacity:1;" d="M 122.78125 431.183594 C 122.78125 432.519531 120.78125 432.519531 120.78125 431.183594 C 120.78125 429.851562 122.78125 429.851562 122.78125 431.183594 "/>
<path style=" stroke:none;fill-rule:nonzero;fill:rgb(100%,0%,0%);fill-opacity:1;" d="M 398.328125 291.199219 C 398.328125 292.535156 396.328125 292.535156 396.328125 291.199219 C 396.328125 289.867188 398.328125 289.867188 398.328125 291.199219 "/>
<path style=" stroke:none;fill-rule:nonzero;fill:rgb(100%,0%,0%);fill-opacity:1;" d="M 389.378906 300.566406 C 389.378906 301.898438 387.378906 301.898438 387.378906 300.566406 C 387.378906 299.234375 389.378906 299.234375 389.378906 300.566406 "/>
<path style=" stroke:none;fill-rule:nonzero;fill:rgb(100%,0%,0%);fill-opacity:1;" d="M 145.421875 419.128906 C 145.421875 420.460938 143.421875 420.460938 143.421875 419.128906 C 143.421875 417.792969 145.421875 417.792969 145.421875 419.128906 "/>
<path style=" stroke:none;fill-rule:nonzero;fill:rgb(100%,0%,0%);fill-opacity:1;" d="M 260.03125 291.109375 C 260.03125 292.445312 258.03125 292.445312 258.03125 291.109375 C 258.03125 289.777344 260.03125 289.777344 260.03125 291.109375 "/>
<path style=" stroke:none;fill-rule:nonzero;fill:rgb(100%,0%,0%);fill-opacity:1;" d="M 249.351562 282.53125 C 249.351562 283.867188 247.351562 283.867188 247.351562 282.53125 C 247.351562 281.199219 249.351562 281.199219 249.351562 282.53125 "/>
<path style=" stroke:none;fill-rule:nonzero;fill:rgb(100%,0%,0%);fill-opacity:1;" d="M 118.949219 155.507812 C 118.949219 156.839844 116.949219 156.839844 116.949219 155.507812 C 116.949219 154.175781 118.949219 154.175781 118.949219 155.507812 "/>
<path style=" stroke:none;fill-rule:nonzero;fill:rgb(100%,0%,0%);fill-opacity:1;" d="M 108.910156 147.148438 C 108.910156 148.480469 106.910156 148.480469 106.910156 147.148438 C 106.910156 145.8125 108.910156 145.8125 108.910156 147.148438 "/>
<path style=" stroke:none;fill-rule:nonzero;fill:rgb(100%,0%,0%);fill-opacity:1;" d="M 262.625 452.140625 C 262.625 453.476562 260.625 453.476562 260.625 452.140625 C 260.625 450.808594 262.625 450.808594 262.625 452.140625 "/>
<path style=" stroke:none;fill-rule:nonzero;fill:rgb(100%,0%,0%);fill-opacity:1;" d="M 439.867188 423.574219 C 439.867188 424.90625 437.867188 424.90625 437.867188 423.574219 C 437.867188 422.242188 439.867188 422.242188 439.867188 423.574219 "/>
<path style=" stroke:none;fill-rule:nonzero;fill:rgb(100%,0%,0%);fill-opacity:1;" d="M 431.960938 413.285156 C 431.960938 414.621094 429.960938 414.621094 429.960938 413.285156 C 429.960938 411.953125 431.960938 411.953125 431.960938 413.285156 "/>
<path style=" stroke:none;fill-rule:nonzero;fill:rgb(100%,0%,0%);fill-opacity:1;" d="M 260.019531 340.847656 C 260.019531 342.183594 258.019531 342.183594 258.019531 340.847656 C 258.019531 339.515625 260.019531 339.515625 260.019531 340.847656 "/>
<path style=" stroke:none;fill-rule:nonzero;fill:rgb(100%,0%,0%);fill-opacity:1;" d="M 248.132812 346.300781 C 248.132812 347.632812 246.132812 347.632812 246.132812 346.300781 C 246.132812 344.96875 248.132812 344.96875 248.132812 346.300781 "/>
<path style=" stroke:none;fill-rule:nonzero;fill:rgb(100%,0%,0%);fill-opacity:1;" d="M 511.011719 422.976562 C 511.011719 424.308594 509.011719 424.308594 509.011719 422.976562 C 509.011719 421.640625 511.011719 421.640625 511.011719 422.976562 "/>
<path style=" stroke:none;fill-rule:nonzero;fill:rgb(100%,0%,0%);fill-opacity:1;" d="M 520.5 405.199219 C 520.5 406.53125 518.5 406.53125 518.5 405.199219 C 518.5 403.863281 520.5 403.863281 520.5 405.199219 "/>
<path style=" stroke:none;fill-rule:nonzero;fill:rgb(100%,0%,0%);fill-opacity:1;" d="M 500.214844 145.859375 C 500.214844 147.191406 498.214844 147.191406 498.214844 145.859375 C 498.214844 144.527344 500.214844 144.527344 500.214844 145.859375 "/>
<path style=" stroke:none;fill-rule:nonzero;fill:rgb(100%,0%,0%);fill-opacity:1;" d="M 507.644531 135.203125 C 507.644531 136.535156 505.644531 136.535156 505.644531 135.203125 C 505.644531 133.867188 507.644531 133.867188 507.644531 135.203125 "/>
<path style=" stroke:none;fill-rule:nonzero;fill:rgb(100%,0%,0%);fill-opacity:1;" d="M 439.515625 115.152344 C 439.515625 116.488281 437.515625 116.488281 437.515625 115.152344 C 437.515625 113.820312 439.515625 113.820312 439.515625 115.152344 "/>
<path style=" stroke:none;fill-rule:nonzero;fill:rgb(100%,0%,0%);fill-opacity:1;" d="M 430.824219 125.898438 C 430.824219 127.234375 428.824219 127.234375 428.824219 125.898438 C 428.824219 124.566406 430.824219 124.566406 430.824219 125.898438 "/>
<path style=" stroke:none;fill-rule:nonzero;fill:rgb(100%,0%,0%);fill-opacity:1;" d="M 448.875 263.964844 C 448.875 265.296875 446.875 265.296875 446.875 263.964844 C 446.875 262.632812 448.875 262.632812 448.875 263.964844 "/>
<path style=" stroke:none;fill-rule:nonzero;fill:rgb(100%,0%,0%);fill-opacity:1;" d="M 444.363281 251.0625 C 444.363281 252.394531 442.363281 252.394531 442.363281 251.0625 C 442.363281 249.726562 444.363281 249.726562 444.363281 251.0625 "/>
<path style=" stroke:none;fill-rule:nonzero;fill:rgb(100%,0%,0%);fill-opacity:1;" d="M 236.492188 230.976562 C 236.492188 232.3125 234.492188 232.3125 234.492188 230.976562 C 234.492188 229.644531 236.492188 229.644531 236.492188 230.976562 "/>
<path style=" stroke:none;fill-rule:nonzero;fill:rgb(100%,0%,0%);fill-opacity:1;" d="M 421.78125 136.378906 C 421.78125 137.714844 419.78125 137.714844 419.78125 136.378906 C 419.78125 135.046875 421.78125 135.046875 421.78125 136.378906 "/>
<path style=" stroke:none;fill-rule:nonzero;fill:rgb(100%,0%,0%);fill-opacity:1;" d="M 533.875 332.675781 C 533.875 334.007812 531.875 334.007812 531.875 332.675781 C 531.875 331.34375 533.875 331.34375 533.875 332.675781 "/>
<path style=" stroke:none;fill-rule:nonzero;fill:rgb(100%,0%,0%);fill-opacity:1;" d="M 539.1875 320.914062 C 539.1875 322.246094 537.1875 322.246094 537.1875 320.914062 C 537.1875 319.578125 539.1875 319.578125 539.1875 320.914062 "/>
<path style=" stroke:none;fill-rule:nonzero;fill:rgb(100%,0%,0%);fill-opacity:1;" d="M 459.429688 179.347656 C 459.429688 180.683594 457.429688 180.683594 457.429688 179.347656 C 457.429688 178.015625 459.429688 178.015625 459.429688 179.347656 "/>
<path style=" stroke:none;fill-rule:nonzero;fill:rgb(100%,0%,0%);fill-opacity:1;" d="M 451.710938 189.714844 C 451.710938 191.050781 449.710938 191.050781 449.710938 189.714844 C 449.710938 188.382812 451.710938 188.382812 451.710938 189.714844 "/>
<path style=" stroke:none;fill-rule:nonzero;fill:rgb(100%,0%,0%);fill-opacity:1;" d="M 496.738281 282.960938 C 496.738281 284.292969 494.738281 284.292969 494.738281 282.960938 C 494.738281 281.625 496.738281 281.625 496.738281 282.960938 "/>
<path style=" stroke:none;fill-rule:nonzero;fill:rgb(100%,0%,0%);fill-opacity:1;" d="M 497.964844 295.679688 C 497.964844 297.015625 495.964844 297.015625 495.964844 295.679688 C 495.964844 294.347656 497.964844 294.347656 497.964844 295.679688 "/>
<path style=" stroke:none;fill-rule:nonzero;fill:rgb(100%,0%,0%);fill-opacity:1;" d="M 243.675781 179.269531 C 243.675781 180.605469 241.675781 180.605469 241.675781 179.269531 C 241.675781 177.9375 243.675781 177.9375 243.675781 179.269531 "/>
<path style=" stroke:none;fill-rule:nonzero;fill:rgb(100%,0%,0%);fill-opacity:1;" d="M 255.820312 184.464844 C 255.820312 185.796875 253.820312 185.796875 253.820312 184.464844 C 253.820312 183.132812 255.820312 183.132812 255.820312 184.464844 "/>
<path style=" stroke:none;fill-rule:nonzero;fill:rgb(100%,0%,0%);fill-opacity:1;" d="M 290.660156 93.460938 C 290.660156 94.792969 288.660156 94.792969 288.660156 93.460938 C 288.660156 92.128906 290.660156 92.128906 290.660156 93.460938 "/>
<path style=" stroke:none;fill-rule:nonzero;fill:rgb(100%,0%,0%);fill-opacity:1;" d="M 311.046875 90.15625 C 311.046875 91.488281 309.046875 91.488281 309.046875 90.15625 C 309.046875 88.824219 311.046875 88.824219 311.046875 90.15625 "/>
<path style=" stroke:none;fill-rule:nonzero;fill:rgb(100%,0%,0%);fill-opacity:1;" d="M 77.835938 473.8125 C 77.835938 475.144531 75.835938 475.144531 75.835938 473.8125 C 75.835938 472.480469 77.835938 472.480469 77.835938 473.8125 "/>
<path style=" stroke:none;fill-rule:nonzero;fill:rgb(100%,0%,0%);fill-opacity:1;" d="M 66.917969 466.4375 C 66.917969 467.769531 64.917969 467.769531 64.917969 466.4375 C 64.917969 465.105469 66.917969 465.105469 66.917969 466.4375 "/>
<path style=" stroke:none;fill-rule:nonzero;fill:rgb(100%,0%,0%);fill-opacity:1;" d="M 41.714844 290.996094 C 41.714844 292.328125 39.714844 292.328125 39.714844 290.996094 C 39.714844 289.660156 41.714844 289.660156 41.714844 290.996094 "/>
<path style=" stroke:none;fill-rule:nonzero;fill:rgb(100%,0%,0%);fill-opacity:1;" d="M 21 292.175781 C 21 293.507812 19 293.507812 19 292.175781 C 19 290.839844 21 290.839844 21 292.175781 "/>
<path style=" stroke:none;fill-rule:nonzero;fill:rgb(100%,0%,0%);fill-opacity:1;" d="M 132.320312 202.851562 C 132.320312 204.1875 130.320312 204.1875 130.320312 202.851562 C 130.320312 201.519531 132.320312 201.519531 132.320312 202.851562 "/>
<path style=" stroke:none;fill-rule:nonzero;fill:rgb(100%,0%,0%);fill-opacity:1;" d="M 120.128906 207.722656 C 120.128906 209.054688 118.128906 209.054688 118.128906 207.722656 C 118.128906 206.386719 120.128906 206.386719 120.128906 207.722656 "/>
<path style=" stroke:none;fill-rule:nonzero;fill:rgb(100%,0%,0%);fill-opacity:1;" d="M 316.664062 163.339844 C 316.664062 164.671875 314.664062 164.671875 314.664062 163.339844 C 314.664062 162.007812 316.664062 162.007812 316.664062 163.339844 "/>
<path style=" stroke:none;fill-rule:nonzero;fill:rgb(100%,0%,0%);fill-opacity:1;" d="M 306.15625 170.957031 C 306.15625 172.289062 304.15625 172.289062 304.15625 170.957031 C 304.15625 169.625 306.15625 169.625 306.15625 170.957031 "/>
<path style=" stroke:none;fill-rule:nonzero;fill:rgb(100%,0%,0%);fill-opacity:1;" d="M 439.710938 238.203125 C 439.710938 239.535156 437.710938 239.535156 437.710938 238.203125 C 437.710938 236.867188 439.710938 236.867188 439.710938 238.203125 "/>
<path style=" stroke:none;fill-rule:nonzero;fill:rgb(100%,0%,0%);fill-opacity:1;" d="M 289.90625 580 C 289.90625 581.332031 287.90625 581.332031 287.90625 580 C 287.90625 578.667969 289.90625 578.667969 289.90625 580 "/>
<path style=" stroke:none;fill-rule:nonzero;fill:rgb(100%,0%,0%);fill-opacity:1;" d="M 303.246094 579.1875 C 303.246094 580.519531 301.246094 580.519531 301.246094 579.1875 C 301.246094 577.851562 303.246094 577.851562 303.246094 579.1875 "/>
<path style=" stroke:none;fill-rule:nonzero;fill:rgb(100%,0%,0%);fill-opacity:1;" d="M 525 418.839844 C 525 420.171875 523 420.171875 523 418.839844 C 523 417.507812 525 417.507812 525 418.839844 "/>
<path style=" stroke:none;fill-rule:nonzero;fill:rgb(100%,0%,0%);fill-opacity:1;" d="M 506.632812 409.4375 C 506.632812 410.769531 504.632812 410.769531 504.632812 409.4375 C 504.632812 408.101562 506.632812 408.101562 506.632812 409.4375 "/>
<path style=" stroke:none;fill-rule:nonzero;fill:rgb(100%,0%,0%);fill-opacity:1;" d="M 417.914062 330.429688 C 417.914062 331.761719 415.914062 331.761719 415.914062 330.429688 C 415.914062 329.097656 417.914062 329.097656 417.914062 330.429688 "/>
<path style=" stroke:none;fill-rule:nonzero;fill:rgb(100%,0%,0%);fill-opacity:1;" d="M 413.855469 342.566406 C 413.855469 343.902344 411.855469 343.902344 411.855469 342.566406 C 411.855469 341.234375 413.855469 341.234375 413.855469 342.566406 "/>
<path style=" stroke:none;fill-rule:nonzero;fill:rgb(100%,0%,0%);fill-opacity:1;" d="M 105.863281 313.574219 C 105.863281 314.910156 103.863281 314.910156 103.863281 313.574219 C 103.863281 312.242188 105.863281 312.242188 105.863281 313.574219 "/>
<path style=" stroke:none;fill-rule:nonzero;fill:rgb(100%,0%,0%);fill-opacity:1;" d="M 95.816406 321.796875 C 95.816406 323.128906 93.816406 323.128906 93.816406 321.796875 C 93.816406 320.464844 95.816406 320.464844 95.816406 321.796875 "/>
<path style=" stroke:none;fill-rule:nonzero;fill:rgb(100%,0%,0%);fill-opacity:1;" d="M 364.042969 343.726562 C 364.042969 345.058594 362.042969 345.058594 362.042969 343.726562 C 362.042969 342.394531 364.042969 342.394531 364.042969 343.726562 "/>
<path style=" stroke:none;fill-rule:nonzero;fill:rgb(100%,0%,0%);fill-opacity:1;" d="M 350.984375 343.769531 C 350.984375 345.105469 348.984375 345.105469 348.984375 343.769531 C 348.984375 342.4375 350.984375 342.4375 350.984375 343.769531 "/>
<path style=" stroke:none;fill-rule:nonzero;fill:rgb(100%,0%,0%);fill-opacity:1;" d="M 238.207031 274.476562 C 238.207031 275.808594 236.207031 275.808594 236.207031 274.476562 C 236.207031 273.144531 238.207031 273.144531 238.207031 274.476562 "/>
<path style=" stroke:none;fill-rule:nonzero;fill:rgb(100%,0%,0%);fill-opacity:1;" d="M 217.398438 111.28125 C 217.398438 112.613281 215.398438 112.613281 215.398438 111.28125 C 215.398438 109.945312 217.398438 109.945312 217.398438 111.28125 "/>
<path style=" stroke:none;fill-rule:nonzero;fill:rgb(100%,0%,0%);fill-opacity:1;" d="M 214.941406 123.9375 C 214.941406 125.269531 212.941406 125.269531 212.941406 123.9375 C 212.941406 122.601562 214.941406 122.601562 214.941406 123.9375 "/>
<path style=" stroke:none;fill-rule:nonzero;fill:rgb(100%,0%,0%);fill-opacity:1;" d="M 144.195312 61.363281 C 144.195312 62.699219 142.195312 62.699219 142.195312 61.363281 C 142.195312 60.03125 144.195312 60.03125 144.195312 61.363281 "/>
<path style=" stroke:none;fill-rule:nonzero;fill:rgb(100%,0%,0%);fill-opacity:1;" d="M 133.25 68.835938 C 133.25 70.171875 131.25 70.171875 131.25 68.835938 C 131.25 67.503906 133.25 67.503906 133.25 68.835938 "/>
<path style=" stroke:none;fill-rule:nonzero;fill:rgb(100%,0%,0%);fill-opacity:1;" d="M 54.992188 169.796875 C 54.992188 171.128906 52.992188 171.128906 52.992188 169.796875 C 52.992188 168.460938 54.992188 168.460938 54.992188 169.796875 "/>
<path style=" stroke:none;fill-rule:nonzero;fill:rgb(100%,0%,0%);fill-opacity:1;" d="M 57.964844 157.226562 C 57.964844 158.558594 55.964844 158.558594 55.964844 157.226562 C 55.964844 155.894531 57.964844 155.894531 57.964844 157.226562 "/>
<path style=" stroke:none;fill-rule:nonzero;fill:rgb(100%,0%,0%);fill-opacity:1;" d="M 307.726562 313.296875 C 307.726562 314.628906 305.726562 314.628906 305.726562 313.296875 C 305.726562 311.964844 307.726562 311.964844 307.726562 313.296875 "/>
<path style=" stroke:none;fill-rule:nonzero;fill:rgb(100%,0%,0%);fill-opacity:1;" d="M 299.457031 303.46875 C 299.457031 304.800781 297.457031 304.800781 297.457031 303.46875 C 297.457031 302.132812 299.457031 302.132812 299.457031 303.46875 "/>
<path style=" stroke:none;fill-rule:nonzero;fill:rgb(100%,0%,0%);fill-opacity:1;" d="M 172.519531 168.707031 C 172.519531 170.042969 170.519531 170.042969 170.519531 168.707031 C 170.519531 167.375 172.519531 167.375 172.519531 168.707031 "/>
<path style=" stroke:none;fill-rule:nonzero;fill:rgb(100%,0%,0%);fill-opacity:1;" d="M 183.953125 162.40625 C 183.953125 163.738281 181.953125 163.738281 181.953125 162.40625 C 181.953125 161.070312 183.953125 161.070312 183.953125 162.40625 "/>
<path style=" stroke:none;fill-rule:nonzero;fill:rgb(100%,0%,0%);fill-opacity:1;" d="M 386.203125 40.980469 C 386.203125 42.316406 384.203125 42.316406 384.203125 40.980469 C 384.203125 39.648438 386.203125 39.648438 386.203125 40.980469 "/>
<path style=" stroke:none;fill-rule:nonzero;fill:rgb(100%,0%,0%);fill-opacity:1;" d="M 373.21875 43.851562 C 373.21875 45.183594 371.21875 45.183594 371.21875 43.851562 C 371.21875 42.515625 373.21875 42.515625 373.21875 43.851562 "/>
<path style=" stroke:none;fill-rule:nonzero;fill:rgb(100%,0%,0%);fill-opacity:1;" d="M 50.957031 356.601562 C 50.957031 357.933594 48.957031 357.933594 48.957031 356.601562 C 48.957031 355.269531 50.957031 355.269531 50.957031 356.601562 "/>
<path style=" stroke:none;fill-rule:nonzero;fill:rgb(100%,0%,0%);fill-opacity:1;" d="M 38.78125 361.929688 C 38.78125 363.265625 36.78125 363.265625 36.78125 361.929688 C 36.78125 360.597656 38.78125 360.597656 38.78125 361.929688 "/>
<path style=" stroke:none;fill-rule:nonzero;fill:rgb(100%,0%,0%);fill-opacity:1;" d="M 304.167969 20 C 304.167969 21.332031 302.167969 21.332031 302.167969 20 C 302.167969 18.667969 304.167969 18.667969 304.167969 20 "/>
<path style=" stroke:none;fill-rule:nonzero;fill:rgb(100%,0%,0%);fill-opacity:1;" d="M 316.945312 23.609375 C 316.945312 24.945312 314.945312 24.945312 314.945312 23.609375 C 314.945312 22.277344 316.945312 22.277344 316.945312 23.609375 "/>
<path style=" stroke:none;fill-rule:nonzero;fill:rgb(100%,0%,0%);fill-opacity:1;" d="M 164.960938 540.339844 C 164.960938 541.675781 162.960938 541.675781 162.960938 540.339844 C 162.960938 539.007812 164.960938 539.007812 164.960938 540.339844 "/>
<path style=" stroke:none;fill-rule:nonzero;fill:rgb(100%,0%,0%);fill-opacity:1;" d="M 151.664062 540.117188 C 151.664062 541.449219 149.664062 541.449219 149.664062 540.117188 C 149.664062 538.78125 151.664062 538.78125 151.664062 540.117188 "/>
<path style=" stroke:none;fill-rule:nonzero;fill:rgb(100%,0%,0%);fill-opacity:1;" d="M 69.34375 399.652344 C 69.34375 400.984375 67.34375 400.984375 67.34375 399.652344 C 67.34375 398.320312 69.34375 398.320312 69.34375 399.652344 "/>
<path style=" stroke:none;fill-rule:nonzero;fill:rgb(100%,0%,0%);fill-opacity:1;" d="M 62.34375 410.605469 C 62.34375 411.9375 60.34375 411.9375 60.34375 410.605469 C 60.34375 409.273438 62.34375 409.273438 62.34375 410.605469 "/>
</g>
</svg>
