<?xml version="1.0" encoding="UTF-8"?>
<svg xmlns="http://www.w3.org/2000/svg" xmlns:xlink="http://www.w3.org/1999/xlink" width="600pt" height="600pt" viewBox="0 0 600 600" version="1.1">
<g id="surface1">
<rect x="0" y="0" width="600" height="600" style="fill:rgb(100%,100%,100%);fill-opacity:1;stroke:none;"/>
<path style="fill:none;stroke-width:0.2;stroke-linecap:butt;stroke-linejoin:miter;stroke:rgb(26.666667%,26.666667%,26.666667%);stroke-opacity:1;stroke-miterlimit:10;" d="M 375.152344 514.195312 L 375.773438 501.242188 "/>
<path style="fill:none;stroke-width:0.2;stroke-linecap:butt;stroke-linejoin:miter;stroke:rgb(26.666667%,26.666667%,26.666667%);stroke-opacity:1;stroke-miterlimit:10;" d="M 243.136719 485.636719 L 232.464844 492.960938 "/>
<path style="fill:none;stroke-width:0.2;stroke-linecap:butt;stroke-linejoin:miter;stroke:rgb(26.666667%,26.666667%,26.666667%);stroke-opacity:1;stroke-miterlimit:10;" d="M 416.867188 247.195312 L 429.078125 243.09375 "/>
<path style="fill:none;stroke-width:0.2;stroke-linecap:butt;stroke-linejoin:miter;stroke:rgb(26.666667%,26.666667%,26.666667%);stroke-opacity:1;stroke-miterlimit:10;" d="M 432.855469 150.738281 L 440.546875 140.371094 "/>
<path style="fill:none;stroke-width:0.2;stroke-linecap:butt;stroke-linejoin:miter;stroke:rgb(26.666667%,26.666667%,26.666667%);stroke-opacity:1;stroke-miterlimit:10;" d="M 333.511719 76.65625 L 346.375 78.328125 "/>
<path style="fill:none;stroke-width:0.2;stroke-linecap:butt;stroke-linejoin:miter;stroke:rgb(26.666667%,26.666667%,26.666667%);stroke-opacity:1;stroke-miterlimit:10;" d="M 286.539062 525.695312 L 285.925781 512.808594 "/>
<path style="fill:none;stroke-width:0.2;stroke-linecap:butt;stroke-linejoin:miter;stroke:rgb(26.666667%,26.666667%,26.666667%);stroke-opacity:1;stroke-miterlimit:10;" d="M 399.007812 191.414062 L 411.820312 192.882812 "/>
<path style="fill:none;stroke-width:0.2;stroke-linecap:butt;stroke-linejoin:miter;stroke:rgb(26.666667%,26.666667%,26.666667%);stroke-opacity:1;stroke-miterlimit:10;" d="M 226.3125 336.703125 L 220.171875 325.414062 "/>
<path style="fill:none;stroke-width:0.2;stroke-linecap:butt;stroke-linejoin:miter;stroke:rgb(26.666667%,26.666667%,26.666667%);stroke-opacity:1;stroke-miterlimit:10;" d="M 361.542969 234.679688 L 348.683594 236.191406 "/>
<path style="fill:none;stroke-width:0.2;stroke-linecap:butt;stroke-linejoin:miter;stroke:rgb(26.666667%,26.666667%,26.666667%);stroke-opacity:1;stroke-miterlimit:10;" d="M 176.472656 123.527344 L 163.601562 121.78125 "/>
<path style="fill:none;stroke-width:0.2;stroke-linecap:butt;stroke-linejoin:miter;stroke:rgb(26.666667%,26.666667%,26.666667%);stroke-opacity:1;stroke-miterlimit:10;" d="M 426.054688 572.910156 L 413.023438 572.035156 "/>
<path style="fill:none;stroke-width:0.2;stroke-linecap:butt;stroke-linejoin:miter;stroke:rgb(26.666667%,26.666667%,26.666667%);stroke-opacity:1;stroke-miterlimit:10;" d="M 168.074219 307.578125 L 166.933594 320.421875 "/>
<path style="fill:none;stroke-width:0.2;stroke-linecap:butt;stroke-linejoin:miter;stroke:rgb(26.666667%,26.666667%,26.666667%);stroke-opacity:1;stroke-miterlimit:10;" d="M 503.480469 353.925781 L 499.871094 366.355469 "/>
<path style="fill:none;stroke-width:0.2;stroke-linecap:butt;stroke-linejoin:miter;stroke:rgb(26.666667%,26.666667%,26.666667%);stroke-opacity:1;stroke-miterlimit:10;" d="M 259.429688 153.109375 L 250.574219 143.675781 "/>
<path style="fill:none;stroke-width:0.2;stroke-linecap:butt;stroke-linejoin:miter;stroke:rgb(26.666667%,26.666667%,26.666667%);stroke-opacity:1;stroke-miterlimit:10;" d="M 329.09375 492.171875 L 327.789062 479.371094 "/>
<path style="fill:none;stroke-width:0.2;stroke-linecap:butt;stroke-linejoin:miter;stroke:rgb(26.666667%,26.666667%,26.666667%);stroke-opacity:1;stroke-miterlimit:10;" d="M 411.589844 309.222656 L 407.414062 321.398438 "/>
<path style="fill:none;stroke-width:0.2;stroke-linecap:butt;stroke-linejoin:miter;stroke:rgb(26.666667%,26.666667%,26.666667%);stroke-opacity:1;stroke-miterlimit:10;" d="M 352.945312 353.613281 L 359.347656 342.433594 "/>
<path style="fill:none;stroke-width:0.2;stroke-linecap:butt;stroke-linejoin:miter;stroke:rgb(26.666667%,26.666667%,26.666667%);stroke-opacity:1;stroke-miterlimit:10;" d="M 261.730469 80.835938 L 274.355469 78.054688 "/>
<path style="fill:none;stroke-width:0.2;stroke-linecap:butt;stroke-linejoin:miter;stroke:rgb(26.666667%,26.666667%,26.666667%);stroke-opacity:1;stroke-miterlimit:10;" d="M 188.507812 370.832031 L 196.324219 381.101562 "/>
<path style="fill:none;stroke-width:0.2;stroke-linecap:butt;stroke-linejoin:miter;stroke:rgb(26.666667%,26.666667%,26.666667%);stroke-opacity:1;stroke-miterlimit:10;" d="M 285.324219 371.914062 L 265.816406 379.667969 "/>
<path style="fill:none;stroke-width:0.2;stroke-linecap:butt;stroke-linejoin:miter;stroke:rgb(26.666667%,26.666667%,26.666667%);stroke-opacity:1;stroke-miterlimit:10;" d="M 202.816406 269.679688 L 214.441406 264.222656 "/>
<path style="fill:none;stroke-width:0.2;stroke-linecap:butt;stroke-linejoin:miter;stroke:rgb(26.666667%,26.666667%,26.666667%);stroke-opacity:1;stroke-miterlimit:10;" d="M 24.476562 256.957031 L 23.042969 243.988281 "/>
<path style="fill:none;stroke-width:0.2;stroke-linecap:butt;stroke-linejoin:miter;stroke:rgb(26.666667%,26.666667%,26.666667%);stroke-opacity:1;stroke-miterlimit:10;" d="M 197.582031 175.378906 L 187.5625 185.019531 "/>
<path style="fill:none;stroke-width:0.2;stroke-linecap:butt;stroke-linejoin:miter;stroke:rgb(26.666667%,26.666667%,26.666667%);stroke-opacity:1;stroke-miterlimit:10;" d="M 556.242188 340.839844 L 567.050781 333.59375 "/>
<path style="fill:none;stroke-width:0.2;stroke-linecap:butt;stroke-linejoin:miter;stroke:rgb(26.666667%,26.666667%,26.666667%);stroke-opacity:1;stroke-miterlimit:10;" d="M 195.910156 544.347656 L 194.34375 557.265625 "/>
<path style="fill:none;stroke-width:0.2;stroke-linecap:butt;stroke-linejoin:miter;stroke:rgb(26.666667%,26.666667%,26.666667%);stroke-opacity:1;stroke-miterlimit:10;" d="M 502.796875 502.121094 L 500.417969 489.296875 "/>
<path style="fill:none;stroke-width:0.2;stroke-linecap:butt;stroke-linejoin:miter;stroke:rgb(26.666667%,26.666667%,26.666667%);stroke-opacity:1;stroke-miterlimit:10;" d="M 487.816406 424.792969 L 499.753906 419.753906 "/>
<path style="fill:none;stroke-width:0.2;stroke-linecap:butt;stroke-linejoin:miter;stroke:rgb(26.666667%,26.666667%,26.666667%);stroke-opacity:1;stroke-miterlimit:10;" d="M 256.613281 580 L 251.199219 568.226562 "/>
<path style="fill:none;stroke-width:0.2;stroke-linecap:butt;stroke-linejoin:miter;stroke:rgb(26.666667%,26.666667%,26.666667%);stroke-opacity:1;stroke-miterlimit:10;" d="M 70.378906 351.433594 L 76.199219 363.121094 "/>
<path style="fill:none;stroke-width:0.2;stroke-linecap:butt;stroke-linejoin:miter;stroke:rgb(26.666667%,26.666667%,26.666667%);stroke-opacity:1;stroke-miterlimit:10;" d="M 277.902344 20 L 290.996094 20.144531 "/>
<path style="fill:none;stroke-width:0.2;stroke-linecap:butt;stroke-linejoin:miter;stroke:rgb(26.666667%,26.666667%,26.666667%);stroke-opacity:1;stroke-miterlimit:10;" d="M 359.960938 419.347656 L 356.207031 406.917969 "/>
<path style="fill:none;stroke-width:0.2;stroke-linecap:butt;stroke-linejoin:miter;stroke:rgb(26.666667%,26.666667%,26.666667%);stroke-opacity:1;stroke-miterlimit:10;" d="M 340.667969 133.917969 L 326.617188 134.40625 "/>
<path style="fill:none;stroke-width:0.2;stroke-linecap:butt;stroke-linejoin:miter;stroke:rgb(26.666667%,26.666667%,26.666667%);stroke-opacity:1;stroke-miterlimit:10;" d="M 310.636719 134.839844 L 324.617188 134.464844 "/>
<path style="fill:none;stroke-width:0.2;stroke-linecap:butt;stroke-linejoin:miter;stroke:rgb(26.666667%,26.666667%,26.666667%);stroke-opacity:1;stroke-miterlimit:10;" d="M 267.511719 303.152344 L 258.019531 294.425781 "/>
<path style="fill:none;stroke-width:0.2;stroke-linecap:butt;stroke-linejoin:miter;stroke:rgb(26.666667%,26.666667%,26.666667%);stroke-opacity:1;stroke-miterlimit:10;" d="M 456.90625 336.613281 L 453.25 349.023438 "/>
<path style="fill:none;stroke-width:0.2;stroke-linecap:butt;stroke-linejoin:miter;stroke:rgb(26.666667%,26.666667%,26.666667%);stroke-opacity:1;stroke-miterlimit:10;" d="M 453.078125 514.523438 L 442.941406 522.488281 "/>
<path style="fill:none;stroke-width:0.2;stroke-linecap:butt;stroke-linejoin:miter;stroke:rgb(26.666667%,26.666667%,26.666667%);stroke-opacity:1;stroke-miterlimit:10;" d="M 480.992188 221.941406 L 492.652344 227.691406 "/>
<path style="fill:none;stroke-width:0.2;stroke-linecap:butt;stroke-linejoin:miter;stroke:rgb(26.666667%,26.666667%,26.666667%);stroke-opacity:1;stroke-miterlimit:10;" d="M 130.582031 532.320312 L 133.5625 544.933594 "/>
<path style="fill:none;stroke-width:0.2;stroke-linecap:butt;stroke-linejoin:miter;stroke:rgb(26.666667%,26.666667%,26.666667%);stroke-opacity:1;stroke-miterlimit:10;" d="M 143.765625 398.707031 L 133.117188 391.441406 "/>
<path style="fill:none;stroke-width:0.2;stroke-linecap:butt;stroke-linejoin:miter;stroke:rgb(26.666667%,26.666667%,26.666667%);stroke-opacity:1;stroke-miterlimit:10;" d="M 543.117188 283.050781 L 530.503906 286.148438 "/>
<path style="fill:none;stroke-width:0.2;stroke-linecap:butt;stroke-linejoin:miter;stroke:rgb(26.666667%,26.666667%,26.666667%);stroke-opacity:1;stroke-miterlimit:10;" d="M 75.445312 494.371094 L 67.03125 484.433594 "/>
<path style="fill:none;stroke-width:0.2;stroke-linecap:butt;stroke-linejoin:miter;stroke:rgb(26.666667%,26.666667%,26.666667%);stroke-opacity:1;stroke-miterlimit:10;" d="M 339.351562 186.636719 L 351.363281 181.855469 "/>
<path style="fill:none;stroke-width:0.2;stroke-linecap:butt;stroke-linejoin:miter;stroke:rgb(26.666667%,26.666667%,26.666667%);stroke-opacity:1;stroke-miterlimit:10;" d="M 399.148438 381.230469 L 411.253906 376.816406 "/>
<path style="fill:none;stroke-width:0.2;stroke-linecap:butt;stroke-linejoin:miter;stroke:rgb(26.666667%,26.666667%,26.666667%);stroke-opacity:1;stroke-miterlimit:10;" d="M 239.824219 430.203125 L 250.746094 437.144531 "/>
<path style="fill:none;stroke-width:0.2;stroke-linecap:butt;stroke-linejoin:miter;stroke:rgb(26.666667%,26.666667%,26.666667%);stroke-opacity:1;stroke-miterlimit:10;" d="M 419.570312 94.996094 L 407.777344 100.738281 "/>
<path style="fill:none;stroke-width:0.2;stroke-linecap:butt;stroke-linejoin:miter;stroke:rgb(26.666667%,26.666667%,26.666667%);stroke-opacity:1;stroke-miterlimit:10;" d="M 413.308594 426.832031 L 425.566406 422.242188 "/>
<path style="fill:none;stroke-width:0.2;stroke-linecap:butt;stroke-linejoin:miter;stroke:rgb(26.666667%,26.666667%,26.666667%);stroke-opacity:1;stroke-miterlimit:10;" d="M 434.257812 467.273438 L 421.820312 471.3125 "/>
<path style="fill:none;stroke-width:0.2;stroke-linecap:butt;stroke-linejoin:miter;stroke:rgb(26.666667%,26.666667%,26.666667%);stroke-opacity:1;stroke-miterlimit:10;" d="M 20 365.8125 L 23.261719 378.492188 "/>
<path style="fill:none;stroke-width:0.2;stroke-linecap:butt;stroke-linejoin:miter;stroke:rgb(26.666667%,26.666667%,26.666667%);stroke-opacity:1;stroke-miterlimit:10;" d="M 144.425781 245.597656 L 157.039062 248.207031 "/>
<path style="fill:none;stroke-width:0.2;stroke-linecap:butt;stroke-linejoin:miter;stroke:rgb(26.666667%,26.666667%,26.666667%);stroke-opacity:1;stroke-miterlimit:10;" d="M 238.339844 207.0625 L 234.910156 219.484375 "/>
<path style="fill:none;stroke-width:0.2;stroke-linecap:butt;stroke-linejoin:miter;stroke:rgb(26.666667%,26.666667%,26.666667%);stroke-opacity:1;stroke-miterlimit:10;" d="M 111.949219 322.730469 L 120.203125 332.664062 "/>
<path style="fill:none;stroke-width:0.2;stroke-linecap:butt;stroke-linejoin:miter;stroke:rgb(26.666667%,26.666667%,26.666667%);stroke-opacity:1;stroke-miterlimit:10;" d="M 580 393.996094 L 569.550781 401.761719 "/>
<path style="fill:none;stroke-width:0.2;stroke-linecap:butt;stroke-linejoin:miter;stroke:rgb(26.666667%,26.666667%,26.666667%);stroke-opacity:1;stroke-miterlimit:10;" d="M 517.570312 151.625 L 497.601562 157.511719 "/>
<path style="fill:none;stroke-width:0.2;stroke-linecap:butt;stroke-linejoin:miter;stroke:rgb(26.666667%,26.666667%,26.666667%);stroke-opacity:1;stroke-miterlimit:10;" d="M 99.859375 116.019531 L 90.773438 125.402344 "/>
<path style="fill:none;stroke-width:0.2;stroke-linecap:butt;stroke-linejoin:miter;stroke:rgb(26.666667%,26.666667%,26.666667%);stroke-opacity:1;stroke-miterlimit:10;" d="M 556.820312 467.105469 L 556.148438 480.085938 "/>
<path style="fill:none;stroke-width:0.2;stroke-linecap:butt;stroke-linejoin:miter;stroke:rgb(26.666667%,26.666667%,26.666667%);stroke-opacity:1;stroke-miterlimit:10;" d="M 309.148438 436.339844 L 312.753906 424.015625 "/>
<path style="fill:none;stroke-width:0.2;stroke-linecap:butt;stroke-linejoin:miter;stroke:rgb(26.666667%,26.666667%,26.666667%);stroke-opacity:1;stroke-miterlimit:10;" d="M 566.882812 217.089844 L 566.492188 230.042969 "/>
<path style="fill:none;stroke-width:0.2;stroke-linecap:butt;stroke-linejoin:miter;stroke:rgb(26.666667%,26.666667%,26.666667%);stroke-opacity:1;stroke-miterlimit:10;" d="M 475.675781 279.574219 L 463.914062 284.847656 "/>
<path style="fill:none;stroke-width:0.2;stroke-linecap:butt;stroke-linejoin:miter;stroke:rgb(26.666667%,26.666667%,26.666667%);stroke-opacity:1;stroke-miterlimit:10;" d="M 209.238281 82.472656 L 200.292969 73.011719 "/>
<path style="fill:none;stroke-width:0.2;stroke-linecap:butt;stroke-linejoin:miter;stroke:rgb(26.666667%,26.666667%,26.666667%);stroke-opacity:1;stroke-miterlimit:10;" d="M 390.191406 37.25 L 402.652344 41.207031 "/>
<path style="fill:none;stroke-width:0.2;stroke-linecap:butt;stroke-linejoin:miter;stroke:rgb(26.666667%,26.666667%,26.666667%);stroke-opacity:1;stroke-miterlimit:10;" d="M 279.101562 385.871094 L 271.476562 366.957031 "/>
<path style="fill:none;stroke-width:0.2;stroke-linecap:butt;stroke-linejoin:miter;stroke:rgb(26.666667%,26.666667%,26.666667%);stroke-opacity:1;stroke-miterlimit:10;" d="M 160.664062 484.582031 L 150.535156 476.414062 "/>
<path style="fill:none;stroke-width:0.2;stroke-linecap:butt;stroke-linejoin:miter;stroke:rgb(26.666667%,26.666667%,26.666667%);stroke-opacity:1;stroke-miterlimit:10;" d="M 318.507812 311.90625 L 313.308594 323.652344 "/>
<path style="fill:none;stroke-width:0.2;stroke-linecap:butt;stroke-linejoin:miter;stroke:rgb(26.666667%,26.666667%,26.666667%);stroke-opacity:1;stroke-miterlimit:10;" d="M 503.960938 144.128906 L 509.875 164.21875 "/>
<path style="fill:none;stroke-width:0.2;stroke-linecap:butt;stroke-linejoin:miter;stroke:rgb(26.666667%,26.666667%,26.666667%);stroke-opacity:1;stroke-miterlimit:10;" d="M 373.085938 282.511719 L 360.265625 283.886719 "/>
<path style="fill:none;stroke-width:0.2;stroke-linecap:butt;stroke-linejoin:miter;stroke:rgb(26.666667%,26.666667%,26.666667%);stroke-opacity:1;stroke-miterlimit:10;" d="M 176.214844 196.109375 L 186.128906 186.410156 "/>
<path style="fill:none;stroke-width:0.2;stroke-linecap:butt;stroke-linejoin:miter;stroke:rgb(26.666667%,26.666667%,26.666667%);stroke-opacity:1;stroke-miterlimit:10;" d="M 338.933594 573.851562 L 326.109375 575.832031 "/>
<path style="fill:none;stroke-width:0.2;stroke-linecap:butt;stroke-linejoin:miter;stroke:rgb(26.666667%,26.666667%,26.666667%);stroke-opacity:1;stroke-miterlimit:10;" d="M 187.5 433.03125 L 191.195312 445.355469 "/>
<path style="fill:none;stroke-width:0.2;stroke-linecap:butt;stroke-linejoin:miter;stroke:rgb(26.666667%,26.666667%,26.666667%);stroke-opacity:1;stroke-miterlimit:10;" d="M 71.382812 209.628906 L 77.511719 221.089844 "/>
<path style="fill:none;stroke-width:0.2;stroke-linecap:butt;stroke-linejoin:miter;stroke:rgb(26.666667%,26.666667%,26.666667%);stroke-opacity:1;stroke-miterlimit:10;" d="M 99.308594 275.003906 L 86.910156 278.921875 "/>
<path style="fill:none;stroke-width:0.2;stroke-linecap:butt;stroke-linejoin:miter;stroke:rgb(26.666667%,26.666667%,26.666667%);stroke-opacity:1;stroke-miterlimit:10;" d="M 119.058594 186.433594 L 121.316406 173.730469 "/>
<path style="fill:none;stroke-width:0.2;stroke-linecap:butt;stroke-linejoin:miter;stroke:rgb(26.666667%,26.666667%,26.666667%);stroke-opacity:1;stroke-miterlimit:10;" d="M 283.617188 211.921875 L 294.761719 205.644531 "/>
<path style="fill:none;stroke-width:0.2;stroke-linecap:butt;stroke-linejoin:miter;stroke:rgb(26.666667%,26.666667%,26.666667%);stroke-opacity:1;stroke-miterlimit:10;" d="M 301.0625 262.132812 L 288.492188 259.128906 "/>
<path style="fill:none;stroke-width:0.2;stroke-linecap:butt;stroke-linejoin:miter;stroke:rgb(26.666667%,26.666667%,26.666667%);stroke-opacity:1;stroke-miterlimit:10;" d="M 87 428.652344 L 97.851562 435.847656 "/>
<path style=" stroke:none;fill-rule:nonzero;fill:rgb(100%,0%,0%);fill-opacity:1;" d="M 376.152344 514.195312 C 376.152344 515.527344 374.152344 515.527344 374.152344 514.195312 C 374.152344 512.859375 376.152344 512.859375 376.152344 514.195312 "/>
<path style=" stroke:none;fill-rule:nonzero;fill:rgb(100%,0%,0%);fill-opacity:1;" d="M 376.820312 500.242188 C 376.820312 501.574219 374.820312 501.574219 374.820312 500.242188 C 374.820312 498.910156 376.820312 498.910156 376.820312 500.242188 "/>
<path style=" stroke:none;fill-rule:nonzero;fill:rgb(100%,0%,0%);fill-opacity:1;" d="M 244.136719 485.636719 C 244.136719 486.972656 242.136719 486.972656 242.136719 485.636719 C 242.136719 484.304688 244.136719 484.304688 244.136719 485.636719 "/>
<path style=" stroke:none;fill-rule:nonzero;fill:rgb(100%,0%,0%);fill-opacity:1;" d="M 232.636719 493.527344 C 232.636719 494.863281 230.636719 494.863281 230.636719 493.527344 C 230.636719 492.195312 232.636719 492.195312 232.636719 493.527344 "/>
<path style=" stroke:none;fill-rule:nonzero;fill:rgb(100%,0%,0%);fill-opacity:1;" d="M 417.867188 247.195312 C 417.867188 248.53125 415.867188 248.53125 415.867188 247.195312 C 415.867188 245.863281 417.867188 245.863281 417.867188 247.195312 "/>
<path style=" stroke:none;fill-rule:nonzero;fill:rgb(100%,0%,0%);fill-opacity:1;" d="M 431.023438 242.773438 C 431.023438 244.105469 429.023438 244.105469 429.023438 242.773438 C 429.023438 241.441406 431.023438 241.441406 431.023438 242.773438 "/>
<path style=" stroke:none;fill-rule:nonzero;fill:rgb(100%,0%,0%);fill-opacity:1;" d="M 433.855469 150.738281 C 433.855469 152.070312 431.855469 152.070312 431.855469 150.738281 C 431.855469 149.40625 433.855469 149.40625 433.855469 150.738281 "/>
<path style=" stroke:none;fill-rule:nonzero;fill:rgb(100%,0%,0%);fill-opacity:1;" d="M 442.140625 139.566406 C 442.140625 140.902344 440.140625 140.902344 440.140625 139.566406 C 440.140625 138.234375 442.140625 138.234375 442.140625 139.566406 "/>
<path style=" stroke:none;fill-rule:nonzero;fill:rgb(100%,0%,0%);fill-opacity:1;" d="M 334.511719 76.65625 C 334.511719 77.992188 332.511719 77.992188 332.511719 76.65625 C 332.511719 75.324219 334.511719 75.324219 334.511719 76.65625 "/>
<path style=" stroke:none;fill-rule:nonzero;fill:rgb(100%,0%,0%);fill-opacity:1;" d="M 348.367188 78.457031 C 348.367188 79.789062 346.367188 79.789062 346.367188 78.457031 C 346.367188 77.121094 348.367188 77.121094 348.367188 78.457031 "/>
<path style=" stroke:none;fill-rule:nonzero;fill:rgb(100%,0%,0%);fill-opacity:1;" d="M 287.539062 525.695312 C 287.539062 527.027344 285.539062 527.027344 285.539062 525.695312 C 285.539062 524.363281 287.539062 524.363281 287.539062 525.695312 "/>
<path style=" stroke:none;fill-rule:nonzero;fill:rgb(100%,0%,0%);fill-opacity:1;" d="M 286.878906 511.808594 C 286.878906 513.144531 284.878906 513.144531 284.878906 511.808594 C 284.878906 510.476562 286.878906 510.476562 286.878906 511.808594 "/>
<path style=" stroke:none;fill-rule:nonzero;fill:rgb(100%,0%,0%);fill-opacity:1;" d="M 400.007812 191.414062 C 400.007812 192.746094 398.007812 192.746094 398.007812 191.414062 C 398.007812 190.082031 400.007812 190.082031 400.007812 191.414062 "/>
<path style=" stroke:none;fill-rule:nonzero;fill:rgb(100%,0%,0%);fill-opacity:1;" d="M 413.8125 192.996094 C 413.8125 194.328125 411.8125 194.328125 411.8125 192.996094 C 411.8125 191.664062 413.8125 191.664062 413.8125 192.996094 "/>
<path style=" stroke:none;fill-rule:nonzero;fill:rgb(100%,0%,0%);fill-opacity:1;" d="M 227.3125 336.703125 C 227.3125 338.035156 225.3125 338.035156 225.3125 336.703125 C 225.3125 335.371094 227.3125 335.371094 227.3125 336.703125 "/>
<path style=" stroke:none;fill-rule:nonzero;fill:rgb(100%,0%,0%);fill-opacity:1;" d="M 220.695312 324.535156 C 220.695312 325.867188 218.695312 325.867188 218.695312 324.535156 C 218.695312 323.199219 220.695312 323.199219 220.695312 324.535156 "/>
<path style=" stroke:none;fill-rule:nonzero;fill:rgb(100%,0%,0%);fill-opacity:1;" d="M 362.542969 234.679688 C 362.542969 236.011719 360.542969 236.011719 360.542969 234.679688 C 360.542969 233.34375 362.542969 233.34375 362.542969 234.679688 "/>
<path style=" stroke:none;fill-rule:nonzero;fill:rgb(100%,0%,0%);fill-opacity:1;" d="M 348.691406 236.308594 C 348.691406 237.640625 346.691406 237.640625 346.691406 236.308594 C 346.691406 234.972656 348.691406 234.972656 348.691406 236.308594 "/>
<path style=" stroke:none;fill-rule:nonzero;fill:rgb(100%,0%,0%);fill-opacity:1;" d="M 177.472656 123.527344 C 177.472656 124.859375 175.472656 124.859375 175.472656 123.527344 C 175.472656 122.195312 177.472656 122.195312 177.472656 123.527344 "/>
<path style=" stroke:none;fill-rule:nonzero;fill:rgb(100%,0%,0%);fill-opacity:1;" d="M 163.609375 121.648438 C 163.609375 122.980469 161.609375 122.980469 161.609375 121.648438 C 161.609375 120.3125 163.609375 120.3125 163.609375 121.648438 "/>
<path style=" stroke:none;fill-rule:nonzero;fill:rgb(100%,0%,0%);fill-opacity:1;" d="M 427.054688 572.910156 C 427.054688 574.246094 425.054688 574.246094 425.054688 572.910156 C 425.054688 571.578125 427.054688 571.578125 427.054688 572.910156 "/>
<path style=" stroke:none;fill-rule:nonzero;fill:rgb(100%,0%,0%);fill-opacity:1;" d="M 413.027344 571.964844 C 413.027344 573.300781 411.027344 573.300781 411.027344 571.964844 C 411.027344 570.632812 413.027344 570.632812 413.027344 571.964844 "/>
<path style=" stroke:none;fill-rule:nonzero;fill:rgb(100%,0%,0%);fill-opacity:1;" d="M 169.074219 307.578125 C 169.074219 308.914062 167.074219 308.914062 167.074219 307.578125 C 167.074219 306.246094 169.074219 306.246094 169.074219 307.578125 "/>
<path style=" stroke:none;fill-rule:nonzero;fill:rgb(100%,0%,0%);fill-opacity:1;" d="M 167.84375 321.417969 C 167.84375 322.75 165.84375 322.75 165.84375 321.417969 C 165.84375 320.085938 167.84375 320.085938 167.84375 321.417969 "/>
<path style=" stroke:none;fill-rule:nonzero;fill:rgb(100%,0%,0%);fill-opacity:1;" d="M 504.480469 353.925781 C 504.480469 355.261719 502.480469 355.261719 502.480469 353.925781 C 502.480469 352.59375 504.480469 352.59375 504.480469 353.925781 "/>
<path style=" stroke:none;fill-rule:nonzero;fill:rgb(100%,0%,0%);fill-opacity:1;" d="M 500.589844 367.316406 C 500.589844 368.648438 498.589844 368.648438 498.589844 367.316406 C 498.589844 365.984375 500.589844 365.984375 500.589844 367.316406 "/>
<path style=" stroke:none;fill-rule:nonzero;fill:rgb(100%,0%,0%);fill-opacity:1;" d="M 260.429688 153.109375 C 260.429688 154.445312 258.429688 154.445312 258.429688 153.109375 C 258.429688 151.777344 260.429688 151.777344 260.429688 153.109375 "/>
<path style=" stroke:none;fill-rule:nonzero;fill:rgb(100%,0%,0%);fill-opacity:1;" d="M 250.890625 142.949219 C 250.890625 144.28125 248.890625 144.28125 248.890625 142.949219 C 248.890625 141.613281 250.890625 141.613281 250.890625 142.949219 "/>
<path style=" stroke:none;fill-rule:nonzero;fill:rgb(100%,0%,0%);fill-opacity:1;" d="M 330.09375 492.171875 C 330.09375 493.503906 328.09375 493.503906 328.09375 492.171875 C 328.09375 490.839844 330.09375 490.839844 330.09375 492.171875 "/>
<path style=" stroke:none;fill-rule:nonzero;fill:rgb(100%,0%,0%);fill-opacity:1;" d="M 328.6875 478.375 C 328.6875 479.710938 326.6875 479.710938 326.6875 478.375 C 326.6875 477.042969 328.6875 477.042969 328.6875 478.375 "/>
<path style=" stroke:none;fill-rule:nonzero;fill:rgb(100%,0%,0%);fill-opacity:1;" d="M 412.589844 309.222656 C 412.589844 310.554688 410.589844 310.554688 410.589844 309.222656 C 410.589844 307.890625 412.589844 307.890625 412.589844 309.222656 "/>
<path style=" stroke:none;fill-rule:nonzero;fill:rgb(100%,0%,0%);fill-opacity:1;" d="M 408.089844 322.34375 C 408.089844 323.679688 406.089844 323.679688 406.089844 322.34375 C 406.089844 321.011719 408.089844 321.011719 408.089844 322.34375 "/>
<path style=" stroke:none;fill-rule:nonzero;fill:rgb(100%,0%,0%);fill-opacity:1;" d="M 353.945312 353.613281 C 353.945312 354.949219 351.945312 354.949219 351.945312 353.613281 C 351.945312 352.28125 353.945312 352.28125 353.945312 353.613281 "/>
<path style=" stroke:none;fill-rule:nonzero;fill:rgb(100%,0%,0%);fill-opacity:1;" d="M 360.84375 341.566406 C 360.84375 342.898438 358.84375 342.898438 358.84375 341.566406 C 358.84375 340.230469 360.84375 340.230469 360.84375 341.566406 "/>
<path style=" stroke:none;fill-rule:nonzero;fill:rgb(100%,0%,0%);fill-opacity:1;" d="M 262.730469 80.835938 C 262.730469 82.167969 260.730469 82.167969 260.730469 80.835938 C 260.730469 79.503906 262.730469 79.503906 262.730469 80.835938 "/>
<path style=" stroke:none;fill-rule:nonzero;fill:rgb(100%,0%,0%);fill-opacity:1;" d="M 276.332031 77.839844 C 276.332031 79.171875 274.332031 79.171875 274.332031 77.839844 C 274.332031 76.503906 276.332031 76.503906 276.332031 77.839844 "/>
<path style=" stroke:none;fill-rule:nonzero;fill:rgb(100%,0%,0%);fill-opacity:1;" d="M 189.507812 370.832031 C 189.507812 372.164062 187.507812 372.164062 187.507812 370.832031 C 187.507812 369.5 189.507812 369.5 189.507812 370.832031 "/>
<path style=" stroke:none;fill-rule:nonzero;fill:rgb(100%,0%,0%);fill-opacity:1;" d="M 197.929688 381.894531 C 197.929688 383.230469 195.929688 383.230469 195.929688 381.894531 C 195.929688 380.5625 197.929688 380.5625 197.929688 381.894531 "/>
<path style=" stroke:none;fill-rule:nonzero;fill:rgb(100%,0%,0%);fill-opacity:1;" d="M 286.324219 371.914062 C 286.324219 373.25 284.324219 373.25 284.324219 371.914062 C 284.324219 370.582031 286.324219 370.582031 286.324219 371.914062 "/>
<path style=" stroke:none;fill-rule:nonzero;fill:rgb(100%,0%,0%);fill-opacity:1;" d="M 265.886719 380.035156 C 265.886719 381.367188 263.886719 381.367188 263.886719 380.035156 C 263.886719 378.703125 265.886719 378.703125 265.886719 380.035156 "/>
<path style=" stroke:none;fill-rule:nonzero;fill:rgb(100%,0%,0%);fill-opacity:1;" d="M 203.816406 269.679688 C 203.816406 271.011719 201.816406 271.011719 201.816406 269.679688 C 201.816406 268.347656 203.816406 268.347656 203.816406 269.679688 "/>
<path style=" stroke:none;fill-rule:nonzero;fill:rgb(100%,0%,0%);fill-opacity:1;" d="M 216.34375 263.796875 C 216.34375 265.132812 214.34375 265.132812 214.34375 263.796875 C 214.34375 262.464844 216.34375 262.464844 216.34375 263.796875 "/>
<path style=" stroke:none;fill-rule:nonzero;fill:rgb(100%,0%,0%);fill-opacity:1;" d="M 25.476562 256.957031 C 25.476562 258.289062 23.476562 258.289062 23.476562 256.957031 C 23.476562 255.621094 25.476562 255.621094 25.476562 256.957031 "/>
<path style=" stroke:none;fill-rule:nonzero;fill:rgb(100%,0%,0%);fill-opacity:1;" d="M 23.933594 242.992188 C 23.933594 244.328125 21.933594 244.328125 21.933594 242.992188 C 21.933594 241.660156 23.933594 241.660156 23.933594 242.992188 "/>
<path style=" stroke:none;fill-rule:nonzero;fill:rgb(100%,0%,0%);fill-opacity:1;" d="M 198.582031 175.378906 C 198.582031 176.714844 196.582031 176.714844 196.582031 175.378906 C 196.582031 174.046875 198.582031 174.046875 198.582031 175.378906 "/>
<path style=" stroke:none;fill-rule:nonzero;fill:rgb(100%,0%,0%);fill-opacity:1;" d="M 187.84375 185.710938 C 187.84375 187.046875 185.84375 187.046875 185.84375 185.710938 C 185.84375 184.378906 187.84375 184.378906 187.84375 185.710938 "/>
<path style=" stroke:none;fill-rule:nonzero;fill:rgb(100%,0%,0%);fill-opacity:1;" d="M 557.242188 340.839844 C 557.242188 342.171875 555.242188 342.171875 555.242188 340.839844 C 555.242188 339.507812 557.242188 339.507812 557.242188 340.839844 "/>
<path style=" stroke:none;fill-rule:nonzero;fill:rgb(100%,0%,0%);fill-opacity:1;" d="M 568.882812 333.039062 C 568.882812 334.371094 566.882812 334.371094 566.882812 333.039062 C 566.882812 331.707031 568.882812 331.707031 568.882812 333.039062 "/>
<path style=" stroke:none;fill-rule:nonzero;fill:rgb(100%,0%,0%);fill-opacity:1;" d="M 196.910156 544.347656 C 196.910156 545.683594 194.910156 545.683594 194.910156 544.347656 C 194.910156 543.015625 196.910156 543.015625 196.910156 544.347656 "/>
<path style=" stroke:none;fill-rule:nonzero;fill:rgb(100%,0%,0%);fill-opacity:1;" d="M 195.222656 558.257812 C 195.222656 559.589844 193.222656 559.589844 193.222656 558.257812 C 193.222656 556.925781 195.222656 556.925781 195.222656 558.257812 "/>
<path style=" stroke:none;fill-rule:nonzero;fill:rgb(100%,0%,0%);fill-opacity:1;" d="M 503.796875 502.121094 C 503.796875 503.453125 501.796875 503.453125 501.796875 502.121094 C 501.796875 500.785156 503.796875 500.785156 503.796875 502.121094 "/>
<path style=" stroke:none;fill-rule:nonzero;fill:rgb(100%,0%,0%);fill-opacity:1;" d="M 501.234375 488.3125 C 501.234375 489.648438 499.234375 489.648438 499.234375 488.3125 C 499.234375 486.980469 501.234375 486.980469 501.234375 488.3125 "/>
<path style=" stroke:none;fill-rule:nonzero;fill:rgb(100%,0%,0%);fill-opacity:1;" d="M 488.816406 424.792969 C 488.816406 426.125 486.816406 426.125 486.816406 424.792969 C 486.816406 423.457031 488.816406 423.457031 488.816406 424.792969 "/>
<path style=" stroke:none;fill-rule:nonzero;fill:rgb(100%,0%,0%);fill-opacity:1;" d="M 501.675781 419.363281 C 501.675781 420.699219 499.675781 420.699219 499.675781 419.363281 C 499.675781 418.03125 501.675781 418.03125 501.675781 419.363281 "/>
<path style=" stroke:none;fill-rule:nonzero;fill:rgb(100%,0%,0%);fill-opacity:1;" d="M 257.613281 580 C 257.613281 581.332031 255.613281 581.332031 255.613281 580 C 255.613281 578.667969 257.613281 578.667969 257.613281 580 "/>
<path style=" stroke:none;fill-rule:nonzero;fill:rgb(100%,0%,0%);fill-opacity:1;" d="M 251.78125 567.316406 C 251.78125 568.652344 249.78125 568.652344 249.78125 567.316406 C 249.78125 565.984375 251.78125 565.984375 251.78125 567.316406 "/>
<path style=" stroke:none;fill-rule:nonzero;fill:rgb(100%,0%,0%);fill-opacity:1;" d="M 71.378906 351.433594 C 71.378906 352.765625 69.378906 352.765625 69.378906 351.433594 C 69.378906 350.101562 71.378906 350.101562 71.378906 351.433594 "/>
<path style=" stroke:none;fill-rule:nonzero;fill:rgb(100%,0%,0%);fill-opacity:1;" d="M 77.644531 364.015625 C 77.644531 365.347656 75.644531 365.347656 75.644531 364.015625 C 75.644531 362.679688 77.644531 362.679688 77.644531 364.015625 "/>
<path style=" stroke:none;fill-rule:nonzero;fill:rgb(100%,0%,0%);fill-opacity:1;" d="M 278.902344 20 C 278.902344 21.332031 276.902344 21.332031 276.902344 20 C 276.902344 18.667969 278.902344 18.667969 278.902344 20 "/>
<path style=" stroke:none;fill-rule:nonzero;fill:rgb(100%,0%,0%);fill-opacity:1;" d="M 292.996094 20.152344 C 292.996094 21.488281 290.996094 21.488281 290.996094 20.152344 C 290.996094 18.820312 292.996094 18.820312 292.996094 20.152344 "/>
<path style=" stroke:none;fill-rule:nonzero;fill:rgb(100%,0%,0%);fill-opacity:1;" d="M 360.960938 419.347656 C 360.960938 420.679688 358.960938 420.679688 358.960938 419.347656 C 358.960938 418.015625 360.960938 418.015625 360.960938 419.347656 "/>
<path style=" stroke:none;fill-rule:nonzero;fill:rgb(100%,0%,0%);fill-opacity:1;" d="M 356.917969 405.960938 C 356.917969 407.292969 354.917969 407.292969 354.917969 405.960938 C 354.917969 404.628906 356.917969 404.628906 356.917969 405.960938 "/>
<path style=" stroke:none;fill-rule:nonzero;fill:rgb(100%,0%,0%);fill-opacity:1;" d="M 341.667969 133.917969 C 341.667969 135.25 339.667969 135.25 339.667969 133.917969 C 339.667969 132.585938 341.667969 132.585938 341.667969 133.917969 "/>
<path style=" stroke:none;fill-rule:nonzero;fill:rgb(100%,0%,0%);fill-opacity:1;" d="M 326.617188 134.441406 C 326.617188 135.773438 324.617188 135.773438 324.617188 134.441406 C 324.617188 133.105469 326.617188 133.105469 326.617188 134.441406 "/>
<path style=" stroke:none;fill-rule:nonzero;fill:rgb(100%,0%,0%);fill-opacity:1;" d="M 311.636719 134.839844 C 311.636719 136.171875 309.636719 136.171875 309.636719 134.839844 C 309.636719 133.507812 311.636719 133.507812 311.636719 134.839844 "/>
<path style=" stroke:none;fill-rule:nonzero;fill:rgb(100%,0%,0%);fill-opacity:1;" d="M 268.511719 303.152344 C 268.511719 304.484375 266.511719 304.484375 266.511719 303.152344 C 266.511719 301.820312 268.511719 301.820312 268.511719 303.152344 "/>
<path style=" stroke:none;fill-rule:nonzero;fill:rgb(100%,0%,0%);fill-opacity:1;" d="M 258.285156 293.746094 C 258.285156 295.082031 256.285156 295.082031 256.285156 293.746094 C 256.285156 292.414062 258.285156 292.414062 258.285156 293.746094 "/>
<path style=" stroke:none;fill-rule:nonzero;fill:rgb(100%,0%,0%);fill-opacity:1;" d="M 457.90625 336.613281 C 457.90625 337.949219 455.90625 337.949219 455.90625 336.613281 C 455.90625 335.28125 457.90625 335.28125 457.90625 336.613281 "/>
<path style=" stroke:none;fill-rule:nonzero;fill:rgb(100%,0%,0%);fill-opacity:1;" d="M 453.96875 349.980469 C 453.96875 351.3125 451.96875 351.3125 451.96875 349.980469 C 451.96875 348.648438 453.96875 348.648438 453.96875 349.980469 "/>
<path style=" stroke:none;fill-rule:nonzero;fill:rgb(100%,0%,0%);fill-opacity:1;" d="M 454.078125 514.523438 C 454.078125 515.855469 452.078125 515.855469 452.078125 514.523438 C 452.078125 513.191406 454.078125 513.191406 454.078125 514.523438 "/>
<path style=" stroke:none;fill-rule:nonzero;fill:rgb(100%,0%,0%);fill-opacity:1;" d="M 443.15625 523.105469 C 443.15625 524.441406 441.15625 524.441406 441.15625 523.105469 C 441.15625 521.773438 443.15625 521.773438 443.15625 523.105469 "/>
<path style=" stroke:none;fill-rule:nonzero;fill:rgb(100%,0%,0%);fill-opacity:1;" d="M 481.992188 221.941406 C 481.992188 223.273438 479.992188 223.273438 479.992188 221.941406 C 479.992188 220.605469 481.992188 220.605469 481.992188 221.941406 "/>
<path style=" stroke:none;fill-rule:nonzero;fill:rgb(100%,0%,0%);fill-opacity:1;" d="M 494.546875 228.132812 C 494.546875 229.464844 492.546875 229.464844 492.546875 228.132812 C 492.546875 226.800781 494.546875 226.800781 494.546875 228.132812 "/>
<path style=" stroke:none;fill-rule:nonzero;fill:rgb(100%,0%,0%);fill-opacity:1;" d="M 131.582031 532.320312 C 131.582031 533.65625 129.582031 533.65625 129.582031 532.320312 C 129.582031 530.988281 131.582031 530.988281 131.582031 532.320312 "/>
<path style=" stroke:none;fill-rule:nonzero;fill:rgb(100%,0%,0%);fill-opacity:1;" d="M 134.789062 545.90625 C 134.789062 547.238281 132.789062 547.238281 132.789062 545.90625 C 132.789062 544.574219 134.789062 544.574219 134.789062 545.90625 "/>
<path style=" stroke:none;fill-rule:nonzero;fill:rgb(100%,0%,0%);fill-opacity:1;" d="M 144.765625 398.707031 C 144.765625 400.039062 142.765625 400.039062 142.765625 398.707031 C 142.765625 397.371094 144.765625 397.371094 144.765625 398.707031 "/>
<path style=" stroke:none;fill-rule:nonzero;fill:rgb(100%,0%,0%);fill-opacity:1;" d="M 133.292969 390.878906 C 133.292969 392.210938 131.292969 392.210938 131.292969 390.878906 C 131.292969 389.542969 133.292969 389.542969 133.292969 390.878906 "/>
<path style=" stroke:none;fill-rule:nonzero;fill:rgb(100%,0%,0%);fill-opacity:1;" d="M 544.117188 283.050781 C 544.117188 284.386719 542.117188 284.386719 542.117188 283.050781 C 542.117188 281.71875 544.117188 281.71875 544.117188 283.050781 "/>
<path style=" stroke:none;fill-rule:nonzero;fill:rgb(100%,0%,0%);fill-opacity:1;" d="M 530.53125 286.386719 C 530.53125 287.71875 528.53125 287.71875 528.53125 286.386719 C 528.53125 285.054688 530.53125 285.054688 530.53125 286.386719 "/>
<path style=" stroke:none;fill-rule:nonzero;fill:rgb(100%,0%,0%);fill-opacity:1;" d="M 76.445312 494.371094 C 76.445312 495.703125 74.445312 495.703125 74.445312 494.371094 C 74.445312 493.039062 76.445312 493.039062 76.445312 494.371094 "/>
<path style=" stroke:none;fill-rule:nonzero;fill:rgb(100%,0%,0%);fill-opacity:1;" d="M 67.386719 483.671875 C 67.386719 485.003906 65.386719 485.003906 65.386719 483.671875 C 65.386719 482.339844 67.386719 482.339844 67.386719 483.671875 "/>
<path style=" stroke:none;fill-rule:nonzero;fill:rgb(100%,0%,0%);fill-opacity:1;" d="M 340.351562 186.636719 C 340.351562 187.96875 338.351562 187.96875 338.351562 186.636719 C 338.351562 185.300781 340.351562 185.300781 340.351562 186.636719 "/>
<path style=" stroke:none;fill-rule:nonzero;fill:rgb(100%,0%,0%);fill-opacity:1;" d="M 353.292969 181.484375 C 353.292969 182.816406 351.292969 182.816406 351.292969 181.484375 C 351.292969 180.152344 353.292969 180.152344 353.292969 181.484375 "/>
<path style=" stroke:none;fill-rule:nonzero;fill:rgb(100%,0%,0%);fill-opacity:1;" d="M 400.148438 381.230469 C 400.148438 382.566406 398.148438 382.566406 398.148438 381.230469 C 398.148438 379.898438 400.148438 379.898438 400.148438 381.230469 "/>
<path style=" stroke:none;fill-rule:nonzero;fill:rgb(100%,0%,0%);fill-opacity:1;" d="M 413.191406 376.472656 C 413.191406 377.804688 411.191406 377.804688 411.191406 376.472656 C 411.191406 375.140625 413.191406 375.140625 413.191406 376.472656 "/>
<path style=" stroke:none;fill-rule:nonzero;fill:rgb(100%,0%,0%);fill-opacity:1;" d="M 240.824219 430.203125 C 240.824219 431.535156 238.824219 431.535156 238.824219 430.203125 C 238.824219 428.871094 240.824219 428.871094 240.824219 430.203125 "/>
<path style=" stroke:none;fill-rule:nonzero;fill:rgb(100%,0%,0%);fill-opacity:1;" d="M 252.589844 437.683594 C 252.589844 439.015625 250.589844 439.015625 250.589844 437.683594 C 250.589844 436.347656 252.589844 436.347656 252.589844 437.683594 "/>
<path style=" stroke:none;fill-rule:nonzero;fill:rgb(100%,0%,0%);fill-opacity:1;" d="M 420.570312 94.996094 C 420.570312 96.332031 418.570312 96.332031 418.570312 94.996094 C 418.570312 93.664062 420.570312 93.664062 420.570312 94.996094 "/>
<path style=" stroke:none;fill-rule:nonzero;fill:rgb(100%,0%,0%);fill-opacity:1;" d="M 407.875 101.175781 C 407.875 102.507812 405.875 102.507812 405.875 101.175781 C 405.875 99.84375 407.875 99.84375 407.875 101.175781 "/>
<path style=" stroke:none;fill-rule:nonzero;fill:rgb(100%,0%,0%);fill-opacity:1;" d="M 414.308594 426.832031 C 414.308594 428.167969 412.308594 428.167969 412.308594 426.832031 C 412.308594 425.5 414.308594 425.5 414.308594 426.832031 "/>
<path style=" stroke:none;fill-rule:nonzero;fill:rgb(100%,0%,0%);fill-opacity:1;" d="M 427.503906 421.894531 C 427.503906 423.226562 425.503906 423.226562 425.503906 421.894531 C 425.503906 420.558594 427.503906 420.558594 427.503906 421.894531 "/>
<path style=" stroke:none;fill-rule:nonzero;fill:rgb(100%,0%,0%);fill-opacity:1;" d="M 435.257812 467.273438 C 435.257812 468.609375 433.257812 468.609375 433.257812 467.273438 C 433.257812 465.941406 435.257812 465.941406 435.257812 467.273438 "/>
<path style=" stroke:none;fill-rule:nonzero;fill:rgb(100%,0%,0%);fill-opacity:1;" d="M 421.867188 471.621094 C 421.867188 472.957031 419.867188 472.957031 419.867188 471.621094 C 419.867188 470.289062 421.867188 470.289062 421.867188 471.621094 "/>
<path style=" stroke:none;fill-rule:nonzero;fill:rgb(100%,0%,0%);fill-opacity:1;" d="M 21 365.8125 C 21 367.144531 19 367.144531 19 365.8125 C 19 364.476562 21 364.476562 21 365.8125 "/>
<path style=" stroke:none;fill-rule:nonzero;fill:rgb(100%,0%,0%);fill-opacity:1;" d="M 24.511719 379.460938 C 24.511719 380.792969 22.511719 380.792969 22.511719 379.460938 C 22.511719 378.128906 24.511719 378.128906 24.511719 379.460938 "/>
<path style=" stroke:none;fill-rule:nonzero;fill:rgb(100%,0%,0%);fill-opacity:1;" d="M 145.425781 245.597656 C 145.425781 246.929688 143.425781 246.929688 143.425781 245.597656 C 143.425781 244.261719 145.425781 244.261719 145.425781 245.597656 "/>
<path style=" stroke:none;fill-rule:nonzero;fill:rgb(100%,0%,0%);fill-opacity:1;" d="M 159.015625 248.410156 C 159.015625 249.746094 157.015625 249.746094 157.015625 248.410156 C 157.015625 247.078125 159.015625 247.078125 159.015625 248.410156 "/>
<path style=" stroke:none;fill-rule:nonzero;fill:rgb(100%,0%,0%);fill-opacity:1;" d="M 239.339844 207.0625 C 239.339844 208.394531 237.339844 208.394531 237.339844 207.0625 C 237.339844 205.726562 239.339844 205.726562 239.339844 207.0625 "/>
<path style=" stroke:none;fill-rule:nonzero;fill:rgb(100%,0%,0%);fill-opacity:1;" d="M 235.640625 220.445312 C 235.640625 221.78125 233.640625 221.78125 233.640625 220.445312 C 233.640625 219.113281 235.640625 219.113281 235.640625 220.445312 "/>
<path style=" stroke:none;fill-rule:nonzero;fill:rgb(100%,0%,0%);fill-opacity:1;" d="M 112.949219 322.730469 C 112.949219 324.0625 110.949219 324.0625 110.949219 322.730469 C 110.949219 321.394531 112.949219 321.394531 112.949219 322.730469 "/>
<path style=" stroke:none;fill-rule:nonzero;fill:rgb(100%,0%,0%);fill-opacity:1;" d="M 121.839844 333.433594 C 121.839844 334.765625 119.839844 334.765625 119.839844 333.433594 C 119.839844 332.101562 121.839844 332.101562 121.839844 333.433594 "/>
<path style=" stroke:none;fill-rule:nonzero;fill:rgb(100%,0%,0%);fill-opacity:1;" d="M 581 393.996094 C 581 395.328125 579 395.328125 579 393.996094 C 579 392.664062 581 392.664062 581 393.996094 "/>
<path style=" stroke:none;fill-rule:nonzero;fill:rgb(100%,0%,0%);fill-opacity:1;" d="M 569.75 402.355469 C 569.75 403.691406 567.75 403.691406 567.75 402.355469 C 567.75 401.023438 569.75 401.023438 569.75 402.355469 "/>
<path style=" stroke:none;fill-rule:nonzero;fill:rgb(100%,0%,0%);fill-opacity:1;" d="M 518.570312 151.625 C 518.570312 152.957031 516.570312 152.957031 516.570312 151.625 C 516.570312 150.292969 518.570312 150.292969 518.570312 151.625 "/>
<path style=" stroke:none;fill-rule:nonzero;fill:rgb(100%,0%,0%);fill-opacity:1;" d="M 497.644531 157.796875 C 497.644531 159.128906 495.644531 159.128906 495.644531 157.796875 C 495.644531 156.464844 497.644531 156.464844 497.644531 157.796875 "/>
<path style=" stroke:none;fill-rule:nonzero;fill:rgb(100%,0%,0%);fill-opacity:1;" d="M 100.859375 116.019531 C 100.859375 117.351562 98.859375 117.351562 98.859375 116.019531 C 98.859375 114.6875 100.859375 114.6875 100.859375 116.019531 "/>
<path style=" stroke:none;fill-rule:nonzero;fill:rgb(100%,0%,0%);fill-opacity:1;" d="M 91.078125 126.121094 C 91.078125 127.453125 89.078125 127.453125 89.078125 126.121094 C 89.078125 124.789062 91.078125 124.789062 91.078125 126.121094 "/>
<path style=" stroke:none;fill-rule:nonzero;fill:rgb(100%,0%,0%);fill-opacity:1;" d="M 557.820312 467.105469 C 557.820312 468.441406 555.820312 468.441406 555.820312 467.105469 C 555.820312 465.773438 557.820312 465.773438 557.820312 467.105469 "/>
<path style=" stroke:none;fill-rule:nonzero;fill:rgb(100%,0%,0%);fill-opacity:1;" d="M 557.097656 481.082031 C 557.097656 482.417969 555.097656 482.417969 555.097656 481.082031 C 555.097656 479.75 557.097656 479.75 557.097656 481.082031 "/>
<path style=" stroke:none;fill-rule:nonzero;fill:rgb(100%,0%,0%);fill-opacity:1;" d="M 310.148438 436.339844 C 310.148438 437.671875 308.148438 437.671875 308.148438 436.339844 C 308.148438 435.003906 310.148438 435.003906 310.148438 436.339844 "/>
<path style=" stroke:none;fill-rule:nonzero;fill:rgb(100%,0%,0%);fill-opacity:1;" d="M 314.035156 423.054688 C 314.035156 424.386719 312.035156 424.386719 312.035156 423.054688 C 312.035156 421.722656 314.035156 421.722656 314.035156 423.054688 "/>
<path style=" stroke:none;fill-rule:nonzero;fill:rgb(100%,0%,0%);fill-opacity:1;" d="M 567.882812 217.089844 C 567.882812 218.421875 565.882812 218.421875 565.882812 217.089844 C 565.882812 215.753906 567.882812 215.753906 567.882812 217.089844 "/>
<path style=" stroke:none;fill-rule:nonzero;fill:rgb(100%,0%,0%);fill-opacity:1;" d="M 567.464844 231.042969 C 567.464844 232.375 565.464844 232.375 565.464844 231.042969 C 565.464844 229.707031 567.464844 229.707031 567.464844 231.042969 "/>
<path style=" stroke:none;fill-rule:nonzero;fill:rgb(100%,0%,0%);fill-opacity:1;" d="M 476.675781 279.574219 C 476.675781 280.910156 474.675781 280.910156 474.675781 279.574219 C 474.675781 278.242188 476.675781 278.242188 476.675781 279.574219 "/>
<path style=" stroke:none;fill-rule:nonzero;fill:rgb(100%,0%,0%);fill-opacity:1;" d="M 464 285.257812 C 464 286.59375 462 286.59375 462 285.257812 C 462 283.925781 464 283.925781 464 285.257812 "/>
<path style=" stroke:none;fill-rule:nonzero;fill:rgb(100%,0%,0%);fill-opacity:1;" d="M 210.238281 82.472656 C 210.238281 83.804688 208.238281 83.804688 208.238281 82.472656 C 208.238281 81.140625 210.238281 81.140625 210.238281 82.472656 "/>
<path style=" stroke:none;fill-rule:nonzero;fill:rgb(100%,0%,0%);fill-opacity:1;" d="M 200.605469 72.285156 C 200.605469 73.617188 198.605469 73.617188 198.605469 72.285156 C 198.605469 70.949219 200.605469 70.949219 200.605469 72.285156 "/>
<path style=" stroke:none;fill-rule:nonzero;fill:rgb(100%,0%,0%);fill-opacity:1;" d="M 391.191406 37.25 C 391.191406 38.585938 389.191406 38.585938 389.191406 37.25 C 389.191406 35.917969 391.191406 35.917969 391.191406 37.25 "/>
<path style=" stroke:none;fill-rule:nonzero;fill:rgb(100%,0%,0%);fill-opacity:1;" d="M 404.605469 41.511719 C 404.605469 42.84375 402.605469 42.84375 402.605469 41.511719 C 402.605469 40.179688 404.605469 40.179688 404.605469 41.511719 "/>
<path style=" stroke:none;fill-rule:nonzero;fill:rgb(100%,0%,0%);fill-opacity:1;" d="M 280.101562 385.871094 C 280.101562 387.207031 278.101562 387.207031 278.101562 385.871094 C 278.101562 384.539062 280.101562 384.539062 280.101562 385.871094 "/>
<path style=" stroke:none;fill-rule:nonzero;fill:rgb(100%,0%,0%);fill-opacity:1;" d="M 272.101562 366.027344 C 272.101562 367.359375 270.101562 367.359375 270.101562 366.027344 C 270.101562 364.695312 272.101562 364.695312 272.101562 366.027344 "/>
<path style=" stroke:none;fill-rule:nonzero;fill:rgb(100%,0%,0%);fill-opacity:1;" d="M 161.664062 484.582031 C 161.664062 485.917969 159.664062 485.917969 159.664062 484.582031 C 159.664062 483.25 161.664062 483.25 161.664062 484.582031 "/>
<path style=" stroke:none;fill-rule:nonzero;fill:rgb(100%,0%,0%);fill-opacity:1;" d="M 150.757812 475.785156 C 150.757812 477.121094 148.757812 477.121094 148.757812 475.785156 C 148.757812 474.453125 150.757812 474.453125 150.757812 475.785156 "/>
<path style=" stroke:none;fill-rule:nonzero;fill:rgb(100%,0%,0%);fill-opacity:1;" d="M 319.507812 311.90625 C 319.507812 313.238281 317.507812 313.238281 317.507812 311.90625 C 317.507812 310.574219 319.507812 310.574219 319.507812 311.90625 "/>
<path style=" stroke:none;fill-rule:nonzero;fill:rgb(100%,0%,0%);fill-opacity:1;" d="M 313.902344 324.566406 C 313.902344 325.898438 311.902344 325.898438 311.902344 324.566406 C 311.902344 323.234375 313.902344 323.234375 313.902344 324.566406 "/>
<path style=" stroke:none;fill-rule:nonzero;fill:rgb(100%,0%,0%);fill-opacity:1;" d="M 504.960938 144.128906 C 504.960938 145.460938 502.960938 145.460938 502.960938 144.128906 C 502.960938 142.796875 504.960938 142.796875 504.960938 144.128906 "/>
<path style=" stroke:none;fill-rule:nonzero;fill:rgb(100%,0%,0%);fill-opacity:1;" d="M 511.160156 165.175781 C 511.160156 166.511719 509.160156 166.511719 509.160156 165.175781 C 509.160156 163.84375 511.160156 163.84375 511.160156 165.175781 "/>
<path style=" stroke:none;fill-rule:nonzero;fill:rgb(100%,0%,0%);fill-opacity:1;" d="M 374.085938 282.511719 C 374.085938 283.847656 372.085938 283.847656 372.085938 282.511719 C 372.085938 281.179688 374.085938 281.179688 374.085938 282.511719 "/>
<path style=" stroke:none;fill-rule:nonzero;fill:rgb(100%,0%,0%);fill-opacity:1;" d="M 360.269531 283.996094 C 360.269531 285.328125 358.269531 285.328125 358.269531 283.996094 C 358.269531 282.660156 360.269531 282.660156 360.269531 283.996094 "/>
<path style=" stroke:none;fill-rule:nonzero;fill:rgb(100%,0%,0%);fill-opacity:1;" d="M 177.214844 196.109375 C 177.214844 197.445312 175.214844 197.445312 175.214844 196.109375 C 175.214844 194.777344 177.214844 194.777344 177.214844 196.109375 "/>
<path style=" stroke:none;fill-rule:nonzero;fill:rgb(100%,0%,0%);fill-opacity:1;" d="M 339.933594 573.851562 C 339.933594 575.183594 337.933594 575.183594 337.933594 573.851562 C 337.933594 572.519531 339.933594 572.519531 339.933594 573.851562 "/>
<path style=" stroke:none;fill-rule:nonzero;fill:rgb(100%,0%,0%);fill-opacity:1;" d="M 326.121094 575.984375 C 326.121094 577.316406 324.121094 577.316406 324.121094 575.984375 C 324.121094 574.652344 326.121094 574.652344 326.121094 575.984375 "/>
<path style=" stroke:none;fill-rule:nonzero;fill:rgb(100%,0%,0%);fill-opacity:1;" d="M 188.5 433.03125 C 188.5 434.363281 186.5 434.363281 186.5 433.03125 C 186.5 431.695312 188.5 431.695312 188.5 433.03125 "/>
<path style=" stroke:none;fill-rule:nonzero;fill:rgb(100%,0%,0%);fill-opacity:1;" d="M 192.484375 446.3125 C 192.484375 447.644531 190.484375 447.644531 190.484375 446.3125 C 190.484375 444.980469 192.484375 444.980469 192.484375 446.3125 "/>
<path style=" stroke:none;fill-rule:nonzero;fill:rgb(100%,0%,0%);fill-opacity:1;" d="M 72.382812 209.628906 C 72.382812 210.960938 70.382812 210.960938 70.382812 209.628906 C 70.382812 208.292969 72.382812 208.292969 72.382812 209.628906 "/>
<path style=" stroke:none;fill-rule:nonzero;fill:rgb(100%,0%,0%);fill-opacity:1;" d="M 78.984375 221.96875 C 78.984375 223.304688 76.984375 223.304688 76.984375 221.96875 C 76.984375 220.636719 78.984375 220.636719 78.984375 221.96875 "/>
<path style=" stroke:none;fill-rule:nonzero;fill:rgb(100%,0%,0%);fill-opacity:1;" d="M 100.308594 275.003906 C 100.308594 276.335938 98.308594 276.335938 98.308594 275.003906 C 98.308594 273.671875 100.308594 273.671875 100.308594 275.003906 "/>
<path style=" stroke:none;fill-rule:nonzero;fill:rgb(100%,0%,0%);fill-opacity:1;" d="M 86.957031 279.222656 C 86.957031 280.554688 84.957031 280.554688 84.957031 279.222656 C 84.957031 277.886719 86.957031 277.886719 86.957031 279.222656 "/>
<path style=" stroke:none;fill-rule:nonzero;fill:rgb(100%,0%,0%);fill-opacity:1;" d="M 120.058594 186.433594 C 120.058594 187.769531 118.058594 187.769531 118.058594 186.433594 C 118.058594 185.101562 120.058594 185.101562 120.058594 186.433594 "/>
<path style=" stroke:none;fill-rule:nonzero;fill:rgb(100%,0%,0%);fill-opacity:1;" d="M 122.492188 172.746094 C 122.492188 174.078125 120.492188 174.078125 120.492188 172.746094 C 120.492188 171.414062 122.492188 171.414062 122.492188 172.746094 "/>
<path style=" stroke:none;fill-rule:nonzero;fill:rgb(100%,0%,0%);fill-opacity:1;" d="M 284.617188 211.921875 C 284.617188 213.253906 282.617188 213.253906 282.617188 211.921875 C 282.617188 210.589844 284.617188 210.589844 284.617188 211.921875 "/>
<path style=" stroke:none;fill-rule:nonzero;fill:rgb(100%,0%,0%);fill-opacity:1;" d="M 296.632812 205.152344 C 296.632812 206.484375 294.632812 206.484375 294.632812 205.152344 C 294.632812 203.820312 296.632812 203.820312 296.632812 205.152344 "/>
<path style=" stroke:none;fill-rule:nonzero;fill:rgb(100%,0%,0%);fill-opacity:1;" d="M 302.0625 262.132812 C 302.0625 263.464844 300.0625 263.464844 300.0625 262.132812 C 300.0625 260.796875 302.0625 260.796875 302.0625 262.132812 "/>
<path style=" stroke:none;fill-rule:nonzero;fill:rgb(100%,0%,0%);fill-opacity:1;" d="M 288.519531 258.898438 C 288.519531 260.230469 286.519531 260.230469 286.519531 258.898438 C 286.519531 257.5625 288.519531 257.5625 288.519531 258.898438 "/>
<path style=" stroke:none;fill-rule:nonzero;fill:rgb(100%,0%,0%);fill-opacity:1;" d="M 88 428.652344 C 88 429.984375 86 429.984375 86 428.652344 C 86 427.320312 88 427.320312 88 428.652344 "/>
<path style=" stroke:none;fill-rule:nonzero;fill:rgb(100%,0%,0%);fill-opacity:1;" d="M 99.683594 436.402344 C 99.683594 437.734375 97.683594 437.734375 97.683594 436.402344 C 97.683594 435.070312 99.683594 435.070312 99.683594 436.402344 "/>
</g>
</svg>
