<?xml version="1.0" encoding="UTF-8"?>
<svg xmlns="http://www.w3.org/2000/svg" xmlns:xlink="http://www.w3.org/1999/xlink" width="600" height="600" viewBox="0 0 600 600">
<rect x="-60" y="-60" width="720" height="720" fill="rgb(100%, 100%, 100%)" fill-opacity="1"/>
<path fill="none" stroke-width="0.2" stroke-linecap="butt" stroke-linejoin="miter" stroke="rgb(26.666667%, 26.666667%, 26.666667%)" stroke-opacity="1" stroke-miterlimit="10" d="M 242.089844 233.144531 L 253.960938 239.664062 "/>
<path fill="none" stroke-width="0.2" stroke-linecap="butt" stroke-linejoin="miter" stroke="rgb(26.666667%, 26.666667%, 26.666667%)" stroke-opacity="1" stroke-miterlimit="10" d="M 269.207031 348.539062 L 259.601562 358.113281 "/>
<path fill-rule="nonzero" fill="rgb(100%, 0%, 0%)" fill-opacity="1" stroke-width="0.01" stroke-linecap="butt" stroke-linejoin="miter" stroke="rgb(0%, 0%, 0%)" stroke-opacity="1" stroke-miterlimit="10" d="M 385.519531 228.484375 C 385.519531 229.816406 383.519531 229.816406 383.519531 228.484375 C 383.519531 227.152344 385.519531 227.152344 385.519531 228.484375 "/>
<path fill-rule="nonzero" fill="rgb(100%, 0%, 0%)" fill-opacity="1" stroke-width="0.01" stroke-linecap="butt" stroke-linejoin="miter" stroke="rgb(0%, 0%, 0%)" stroke-opacity="1" stroke-miterlimit="10" d="M 381.527344 296.410156 C 381.527344 297.742188 379.527344 297.742188 379.527344 296.410156 C 379.527344 295.074219 381.527344 295.074219 381.527344 296.410156 "/>
<path fill-rule="nonzero" fill="rgb(100%, 0%, 0%)" fill-opacity="1" stroke-width="0.01" stroke-linecap="butt" stroke-linejoin="miter" stroke="rgb(0%, 0%, 0%)" stroke-opacity="1" stroke-miterlimit="10" d="M 403.234375 469.265625 C 403.234375 470.597656 401.234375 470.597656 401.234375 469.265625 C 401.234375 467.933594 403.234375 467.933594 403.234375 469.265625 "/>
<path fill-rule="nonzero" fill="rgb(100%, 0%, 0%)" fill-opacity="1" stroke-width="0.01" stroke-linecap="butt" stroke-linejoin="miter" stroke="rgb(0%, 0%, 0%)" stroke-opacity="1" stroke-miterlimit="10" d="M 422.605469 303.304688 C 422.605469 304.636719 420.605469 304.636719 420.605469 303.304688 C 420.605469 301.96875 422.605469 301.96875 422.605469 303.304688 "/>
<path fill-rule="nonzero" fill="rgb(100%, 0%, 0%)" fill-opacity="1" stroke-width="0.01" stroke-linecap="butt" stroke-linejoin="miter" stroke="rgb(0%, 0%, 0%)" stroke-opacity="1" stroke-miterlimit="10" d="M 21 355.941406 C 21 357.277344 19 357.277344 19 355.941406 C 19 354.609375 21 354.609375 21 355.941406 "/>
<path fill-rule="nonzero" fill="rgb(100%, 0%, 0%)" fill-opacity="1" stroke-width="0.01" stroke-linecap="butt" stroke-linejoin="miter" stroke="rgb(0%, 0%, 0%)" stroke-opacity="1" stroke-miterlimit="10" d="M 371.824219 434.765625 C 371.824219 436.097656 369.824219 436.097656 369.824219 434.765625 C 369.824219 433.433594 371.824219 433.433594 371.824219 434.765625 "/>
<path fill-rule="nonzero" fill="rgb(100%, 0%, 0%)" fill-opacity="1" stroke-width="0.01" stroke-linecap="butt" stroke-linejoin="miter" stroke="rgb(0%, 0%, 0%)" stroke-opacity="1" stroke-miterlimit="10" d="M 367.832031 55.996094 C 367.832031 57.332031 365.832031 57.332031 365.832031 55.996094 C 365.832031 54.664062 367.832031 54.664062 367.832031 55.996094 "/>
<path fill-rule="nonzero" fill="rgb(100%, 0%, 0%)" fill-opacity="1" stroke-width="0.01" stroke-linecap="butt" stroke-linejoin="miter" stroke="rgb(0%, 0%, 0%)" stroke-opacity="1" stroke-miterlimit="10" d="M 236.632812 575.621094 C 236.632812 576.953125 234.632812 576.953125 234.632812 575.621094 C 234.632812 574.285156 236.632812 574.285156 236.632812 575.621094 "/>
<path fill-rule="nonzero" fill="rgb(100%, 0%, 0%)" fill-opacity="1" stroke-width="0.01" stroke-linecap="butt" stroke-linejoin="miter" stroke="rgb(0%, 0%, 0%)" stroke-opacity="1" stroke-miterlimit="10" d="M 178.433594 365.246094 C 178.433594 366.578125 176.433594 366.578125 176.433594 365.246094 C 176.433594 363.914062 178.433594 363.914062 178.433594 365.246094 "/>
<path fill-rule="nonzero" fill="rgb(100%, 0%, 0%)" fill-opacity="1" stroke-width="0.01" stroke-linecap="butt" stroke-linejoin="miter" stroke="rgb(0%, 0%, 0%)" stroke-opacity="1" stroke-miterlimit="10" d="M 418.535156 344.414062 C 418.535156 345.746094 416.535156 345.746094 416.535156 344.414062 C 416.535156 343.082031 418.535156 343.082031 418.535156 344.414062 "/>
<path fill-rule="nonzero" fill="rgb(100%, 0%, 0%)" fill-opacity="1" stroke-width="0.01" stroke-linecap="butt" stroke-linejoin="miter" stroke="rgb(0%, 0%, 0%)" stroke-opacity="1" stroke-miterlimit="10" d="M 345.550781 356.859375 C 345.550781 358.191406 343.550781 358.191406 343.550781 356.859375 C 343.550781 355.527344 345.550781 355.527344 345.550781 356.859375 "/>
<path fill-rule="nonzero" fill="rgb(100%, 0%, 0%)" fill-opacity="1" stroke-width="0.01" stroke-linecap="butt" stroke-linejoin="miter" stroke="rgb(0%, 0%, 0%)" stroke-opacity="1" stroke-miterlimit="10" d="M 466.402344 312.703125 C 466.402344 314.035156 464.402344 314.035156 464.402344 312.703125 C 464.402344 311.371094 466.402344 311.371094 466.402344 312.703125 "/>
<path fill-rule="nonzero" fill="rgb(100%, 0%, 0%)" fill-opacity="1" stroke-width="0.01" stroke-linecap="butt" stroke-linejoin="miter" stroke="rgb(0%, 0%, 0%)" stroke-opacity="1" stroke-miterlimit="10" d="M 418.863281 146.363281 C 418.863281 147.699219 416.863281 147.699219 416.863281 146.363281 C 416.863281 145.03125 418.863281 145.03125 418.863281 146.363281 "/>
<path fill-rule="nonzero" fill="rgb(100%, 0%, 0%)" fill-opacity="1" stroke-width="0.01" stroke-linecap="butt" stroke-linejoin="miter" stroke="rgb(0%, 0%, 0%)" stroke-opacity="1" stroke-miterlimit="10" d="M 198.484375 54.917969 C 198.484375 56.253906 196.484375 56.253906 196.484375 54.917969 C 196.484375 53.585938 198.484375 53.585938 198.484375 54.917969 "/>
<path fill-rule="nonzero" fill="rgb(100%, 0%, 0%)" fill-opacity="1" stroke-width="0.01" stroke-linecap="butt" stroke-linejoin="miter" stroke="rgb(0%, 0%, 0%)" stroke-opacity="1" stroke-miterlimit="10" d="M 456.984375 353.777344 C 456.984375 355.109375 454.984375 355.109375 454.984375 353.777344 C 454.984375 352.441406 456.984375 352.441406 456.984375 353.777344 "/>
<path fill-rule="nonzero" fill="rgb(100%, 0%, 0%)" fill-opacity="1" stroke-width="0.01" stroke-linecap="butt" stroke-linejoin="miter" stroke="rgb(0%, 0%, 0%)" stroke-opacity="1" stroke-miterlimit="10" d="M 489.996094 380.632812 C 489.996094 381.964844 487.996094 381.964844 487.996094 380.632812 C 487.996094 379.296875 489.996094 379.296875 489.996094 380.632812 "/>
<path fill-rule="nonzero" fill="rgb(100%, 0%, 0%)" fill-opacity="1" stroke-width="0.01" stroke-linecap="butt" stroke-linejoin="miter" stroke="rgb(0%, 0%, 0%)" stroke-opacity="1" stroke-miterlimit="10" d="M 536.054688 304.433594 C 536.054688 305.765625 534.054688 305.765625 534.054688 304.433594 C 534.054688 303.101562 536.054688 303.101562 536.054688 304.433594 "/>
<path fill-rule="nonzero" fill="rgb(100%, 0%, 0%)" fill-opacity="1" stroke-width="0.01" stroke-linecap="butt" stroke-linejoin="miter" stroke="rgb(0%, 0%, 0%)" stroke-opacity="1" stroke-miterlimit="10" d="M 358.707031 393.730469 C 358.707031 395.0625 356.707031 395.0625 356.707031 393.730469 C 356.707031 392.398438 358.707031 392.398438 358.707031 393.730469 "/>
<path fill-rule="nonzero" fill="rgb(100%, 0%, 0%)" fill-opacity="1" stroke-width="0.01" stroke-linecap="butt" stroke-linejoin="miter" stroke="rgb(0%, 0%, 0%)" stroke-opacity="1" stroke-miterlimit="10" d="M 410.085938 261.113281 C 410.085938 262.449219 408.085938 262.449219 408.085938 261.113281 C 408.085938 259.78125 410.085938 259.78125 410.085938 261.113281 "/>
<path fill-rule="nonzero" fill="rgb(100%, 0%, 0%)" fill-opacity="1" stroke-width="0.01" stroke-linecap="butt" stroke-linejoin="miter" stroke="rgb(0%, 0%, 0%)" stroke-opacity="1" stroke-miterlimit="10" d="M 533.183594 246.539062 C 533.183594 247.875 531.183594 247.875 531.183594 246.539062 C 531.183594 245.207031 533.183594 245.207031 533.183594 246.539062 "/>
<path fill-rule="nonzero" fill="rgb(100%, 0%, 0%)" fill-opacity="1" stroke-width="0.01" stroke-linecap="butt" stroke-linejoin="miter" stroke="rgb(0%, 0%, 0%)" stroke-opacity="1" stroke-miterlimit="10" d="M 446.90625 184.375 C 446.90625 185.707031 444.90625 185.707031 444.90625 184.375 C 444.90625 183.039062 446.90625 183.039062 446.90625 184.375 "/>
<path fill-rule="nonzero" fill="rgb(100%, 0%, 0%)" fill-opacity="1" stroke-width="0.01" stroke-linecap="butt" stroke-linejoin="miter" stroke="rgb(0%, 0%, 0%)" stroke-opacity="1" stroke-miterlimit="10" d="M 427.644531 558.109375 C 427.644531 559.441406 425.644531 559.441406 425.644531 558.109375 C 425.644531 556.777344 427.644531 556.777344 427.644531 558.109375 "/>
<path fill-rule="nonzero" fill="rgb(100%, 0%, 0%)" fill-opacity="1" stroke-width="0.01" stroke-linecap="butt" stroke-linejoin="miter" stroke="rgb(0%, 0%, 0%)" stroke-opacity="1" stroke-miterlimit="10" d="M 471.8125 473.964844 C 471.8125 475.296875 469.8125 475.296875 469.8125 473.964844 C 469.8125 472.628906 471.8125 472.628906 471.8125 473.964844 "/>
<path fill-rule="nonzero" fill="rgb(100%, 0%, 0%)" fill-opacity="1" stroke-width="0.01" stroke-linecap="butt" stroke-linejoin="miter" stroke="rgb(0%, 0%, 0%)" stroke-opacity="1" stroke-miterlimit="10" d="M 193.539062 194.648438 C 193.539062 195.980469 191.539062 195.980469 191.539062 194.648438 C 191.539062 193.3125 193.539062 193.3125 193.539062 194.648438 "/>
<path fill-rule="nonzero" fill="rgb(100%, 0%, 0%)" fill-opacity="1" stroke-width="0.01" stroke-linecap="butt" stroke-linejoin="miter" stroke="rgb(0%, 0%, 0%)" stroke-opacity="1" stroke-miterlimit="10" d="M 110.542969 466.917969 C 110.542969 468.25 108.542969 468.25 108.542969 466.917969 C 108.542969 465.582031 110.542969 465.582031 110.542969 466.917969 "/>
<path fill-rule="nonzero" fill="rgb(100%, 0%, 0%)" fill-opacity="1" stroke-width="0.01" stroke-linecap="butt" stroke-linejoin="miter" stroke="rgb(0%, 0%, 0%)" stroke-opacity="1" stroke-miterlimit="10" d="M 197.351562 239.714844 C 197.351562 241.046875 195.351562 241.046875 195.351562 239.714844 C 195.351562 238.382812 197.351562 238.382812 197.351562 239.714844 "/>
<path fill-rule="nonzero" fill="rgb(100%, 0%, 0%)" fill-opacity="1" stroke-width="0.01" stroke-linecap="butt" stroke-linejoin="miter" stroke="rgb(0%, 0%, 0%)" stroke-opacity="1" stroke-miterlimit="10" d="M 332.785156 229.507812 C 332.785156 230.839844 330.785156 230.839844 330.785156 229.507812 C 330.785156 228.171875 332.785156 228.171875 332.785156 229.507812 "/>
<path fill-rule="nonzero" fill="rgb(100%, 0%, 0%)" fill-opacity="1" stroke-width="0.01" stroke-linecap="butt" stroke-linejoin="miter" stroke="rgb(0%, 0%, 0%)" stroke-opacity="1" stroke-miterlimit="10" d="M 355.820312 197.785156 C 355.820312 199.121094 353.820312 199.121094 353.820312 197.785156 C 353.820312 196.453125 355.820312 196.453125 355.820312 197.785156 "/>
<path fill-rule="nonzero" fill="rgb(100%, 0%, 0%)" fill-opacity="1" stroke-width="0.01" stroke-linecap="butt" stroke-linejoin="miter" stroke="rgb(0%, 0%, 0%)" stroke-opacity="1" stroke-miterlimit="10" d="M 330.292969 78.050781 C 330.292969 79.382812 328.292969 79.382812 328.292969 78.050781 C 328.292969 76.71875 330.292969 76.71875 330.292969 78.050781 "/>
<path fill-rule="nonzero" fill="rgb(100%, 0%, 0%)" fill-opacity="1" stroke-width="0.01" stroke-linecap="butt" stroke-linejoin="miter" stroke="rgb(0%, 0%, 0%)" stroke-opacity="1" stroke-miterlimit="10" d="M 176.089844 324.039062 C 176.089844 325.371094 174.089844 325.371094 174.089844 324.039062 C 174.089844 322.703125 176.089844 322.703125 176.089844 324.039062 "/>
<path fill-rule="nonzero" fill="rgb(100%, 0%, 0%)" fill-opacity="1" stroke-width="0.01" stroke-linecap="butt" stroke-linejoin="miter" stroke="rgb(0%, 0%, 0%)" stroke-opacity="1" stroke-miterlimit="10" d="M 537.636719 188.871094 C 537.636719 190.203125 535.636719 190.203125 535.636719 188.871094 C 535.636719 187.539062 537.636719 187.539062 537.636719 188.871094 "/>
<path fill-rule="nonzero" fill="rgb(100%, 0%, 0%)" fill-opacity="1" stroke-width="0.01" stroke-linecap="butt" stroke-linejoin="miter" stroke="rgb(0%, 0%, 0%)" stroke-opacity="1" stroke-miterlimit="10" d="M 576.417969 223.203125 C 576.417969 224.539062 574.417969 224.539062 574.417969 223.203125 C 574.417969 221.871094 576.417969 221.871094 576.417969 223.203125 "/>
<path fill-rule="nonzero" fill="rgb(100%, 0%, 0%)" fill-opacity="1" stroke-width="0.01" stroke-linecap="butt" stroke-linejoin="miter" stroke="rgb(0%, 0%, 0%)" stroke-opacity="1" stroke-miterlimit="10" d="M 178.292969 559.734375 C 178.292969 561.070312 176.292969 561.070312 176.292969 559.734375 C 176.292969 558.402344 178.292969 558.402344 178.292969 559.734375 "/>
<path fill-rule="nonzero" fill="rgb(100%, 0%, 0%)" fill-opacity="1" stroke-width="0.01" stroke-linecap="butt" stroke-linejoin="miter" stroke="rgb(0%, 0%, 0%)" stroke-opacity="1" stroke-miterlimit="10" d="M 146.199219 117.09375 C 146.199219 118.425781 144.199219 118.425781 144.199219 117.09375 C 144.199219 115.761719 146.199219 115.761719 146.199219 117.09375 "/>
<path fill-rule="nonzero" fill="rgb(100%, 0%, 0%)" fill-opacity="1" stroke-width="0.01" stroke-linecap="butt" stroke-linejoin="miter" stroke="rgb(0%, 0%, 0%)" stroke-opacity="1" stroke-miterlimit="10" d="M 579.089844 384.246094 C 579.089844 385.578125 577.089844 385.578125 577.089844 384.246094 C 577.089844 382.910156 579.089844 382.910156 579.089844 384.246094 "/>
<path fill-rule="nonzero" fill="rgb(100%, 0%, 0%)" fill-opacity="1" stroke-width="0.01" stroke-linecap="butt" stroke-linejoin="miter" stroke="rgb(0%, 0%, 0%)" stroke-opacity="1" stroke-miterlimit="10" d="M 458.910156 65.640625 C 458.910156 66.976562 456.910156 66.976562 456.910156 65.640625 C 456.910156 64.308594 458.910156 64.308594 458.910156 65.640625 "/>
<path fill-rule="nonzero" fill="rgb(100%, 0%, 0%)" fill-opacity="1" stroke-width="0.01" stroke-linecap="butt" stroke-linejoin="miter" stroke="rgb(0%, 0%, 0%)" stroke-opacity="1" stroke-miterlimit="10" d="M 102.847656 100.773438 C 102.847656 102.105469 100.847656 102.105469 100.847656 100.773438 C 100.847656 99.441406 102.847656 99.441406 102.847656 100.773438 "/>
<path fill-rule="nonzero" fill="rgb(100%, 0%, 0%)" fill-opacity="1" stroke-width="0.01" stroke-linecap="butt" stroke-linejoin="miter" stroke="rgb(0%, 0%, 0%)" stroke-opacity="1" stroke-miterlimit="10" d="M 49.28125 191.902344 C 49.28125 193.234375 47.28125 193.234375 47.28125 191.902344 C 47.28125 190.570312 49.28125 190.570312 49.28125 191.902344 "/>
<path fill-rule="nonzero" fill="rgb(100%, 0%, 0%)" fill-opacity="1" stroke-width="0.01" stroke-linecap="butt" stroke-linejoin="miter" stroke="rgb(0%, 0%, 0%)" stroke-opacity="1" stroke-miterlimit="10" d="M 334.308594 441.816406 C 334.308594 443.152344 332.308594 443.152344 332.308594 441.816406 C 332.308594 440.484375 334.308594 440.484375 334.308594 441.816406 "/>
<path fill-rule="nonzero" fill="rgb(100%, 0%, 0%)" fill-opacity="1" stroke-width="0.01" stroke-linecap="butt" stroke-linejoin="miter" stroke="rgb(0%, 0%, 0%)" stroke-opacity="1" stroke-miterlimit="10" d="M 150.148438 62.722656 C 150.148438 64.058594 148.148438 64.058594 148.148438 62.722656 C 148.148438 61.390625 150.148438 61.390625 150.148438 62.722656 "/>
<path fill-rule="nonzero" fill="rgb(100%, 0%, 0%)" fill-opacity="1" stroke-width="0.01" stroke-linecap="butt" stroke-linejoin="miter" stroke="rgb(0%, 0%, 0%)" stroke-opacity="1" stroke-miterlimit="10" d="M 503.917969 103.414062 C 503.917969 104.746094 501.917969 104.746094 501.917969 103.414062 C 501.917969 102.082031 503.917969 102.082031 503.917969 103.414062 "/>
<path fill-rule="nonzero" fill="rgb(100%, 0%, 0%)" fill-opacity="1" stroke-width="0.01" stroke-linecap="butt" stroke-linejoin="miter" stroke="rgb(0%, 0%, 0%)" stroke-opacity="1" stroke-miterlimit="10" d="M 408.796875 35.652344 C 408.796875 36.984375 406.796875 36.984375 406.796875 35.652344 C 406.796875 34.316406 408.796875 34.316406 408.796875 35.652344 "/>
<path fill-rule="nonzero" fill="rgb(100%, 0%, 0%)" fill-opacity="1" stroke-width="0.01" stroke-linecap="butt" stroke-linejoin="miter" stroke="rgb(0%, 0%, 0%)" stroke-opacity="1" stroke-miterlimit="10" d="M 581 281.449219 C 581 282.785156 579 282.785156 579 281.449219 C 579 280.117188 581 280.117188 581 281.449219 "/>
<path fill-rule="nonzero" fill="rgb(100%, 0%, 0%)" fill-opacity="1" stroke-width="0.01" stroke-linecap="butt" stroke-linejoin="miter" stroke="rgb(0%, 0%, 0%)" stroke-opacity="1" stroke-miterlimit="10" d="M 187.5625 476.765625 C 187.5625 478.097656 185.5625 478.097656 185.5625 476.765625 C 185.5625 475.429688 187.5625 475.429688 187.5625 476.765625 "/>
<path fill-rule="nonzero" fill="rgb(100%, 0%, 0%)" fill-opacity="1" stroke-width="0.01" stroke-linecap="butt" stroke-linejoin="miter" stroke="rgb(0%, 0%, 0%)" stroke-opacity="1" stroke-miterlimit="10" d="M 243.089844 233.144531 C 243.089844 234.480469 241.089844 234.480469 241.089844 233.144531 C 241.089844 231.8125 243.089844 231.8125 243.089844 233.144531 "/>
<path fill-rule="nonzero" fill="rgb(100%, 0%, 0%)" fill-opacity="1" stroke-width="0.01" stroke-linecap="butt" stroke-linejoin="miter" stroke="rgb(0%, 0%, 0%)" stroke-opacity="1" stroke-miterlimit="10" d="M 483.652344 239.265625 C 483.652344 240.601562 481.652344 240.601562 481.652344 239.265625 C 481.652344 237.933594 483.652344 237.933594 483.652344 239.265625 "/>
<path fill-rule="nonzero" fill="rgb(100%, 0%, 0%)" fill-opacity="1" stroke-width="0.01" stroke-linecap="butt" stroke-linejoin="miter" stroke="rgb(0%, 0%, 0%)" stroke-opacity="1" stroke-miterlimit="10" d="M 301.234375 259.785156 C 301.234375 261.117188 299.234375 261.117188 299.234375 259.785156 C 299.234375 258.449219 301.234375 258.449219 301.234375 259.785156 "/>
<path fill-rule="nonzero" fill="rgb(100%, 0%, 0%)" fill-opacity="1" stroke-width="0.01" stroke-linecap="butt" stroke-linejoin="miter" stroke="rgb(0%, 0%, 0%)" stroke-opacity="1" stroke-miterlimit="10" d="M 300.882812 315.375 C 300.882812 316.707031 298.882812 316.707031 298.882812 315.375 C 298.882812 314.042969 300.882812 314.042969 300.882812 315.375 "/>
<path fill-rule="nonzero" fill="rgb(100%, 0%, 0%)" fill-opacity="1" stroke-width="0.01" stroke-linecap="butt" stroke-linejoin="miter" stroke="rgb(0%, 0%, 0%)" stroke-opacity="1" stroke-miterlimit="10" d="M 97.886719 220.957031 C 97.886719 222.289062 95.886719 222.289062 95.886719 220.957031 C 95.886719 219.621094 97.886719 219.621094 97.886719 220.957031 "/>
<path fill-rule="nonzero" fill="rgb(100%, 0%, 0%)" fill-opacity="1" stroke-width="0.01" stroke-linecap="butt" stroke-linejoin="miter" stroke="rgb(0%, 0%, 0%)" stroke-opacity="1" stroke-miterlimit="10" d="M 74.824219 264.515625 C 74.824219 265.847656 72.824219 265.847656 72.824219 264.515625 C 72.824219 263.183594 74.824219 263.183594 74.824219 264.515625 "/>
<path fill-rule="nonzero" fill="rgb(100%, 0%, 0%)" fill-opacity="1" stroke-width="0.01" stroke-linecap="butt" stroke-linejoin="miter" stroke="rgb(0%, 0%, 0%)" stroke-opacity="1" stroke-miterlimit="10" d="M 298.554688 185.914062 C 298.554688 187.246094 296.554688 187.246094 296.554688 185.914062 C 296.554688 184.582031 298.554688 184.582031 298.554688 185.914062 "/>
<path fill-rule="nonzero" fill="rgb(100%, 0%, 0%)" fill-opacity="1" stroke-width="0.01" stroke-linecap="butt" stroke-linejoin="miter" stroke="rgb(0%, 0%, 0%)" stroke-opacity="1" stroke-miterlimit="10" d="M 145.238281 195.070312 C 145.238281 196.402344 143.238281 196.402344 143.238281 195.070312 C 143.238281 193.734375 145.238281 193.734375 145.238281 195.070312 "/>
<path fill-rule="nonzero" fill="rgb(100%, 0%, 0%)" fill-opacity="1" stroke-width="0.01" stroke-linecap="butt" stroke-linejoin="miter" stroke="rgb(0%, 0%, 0%)" stroke-opacity="1" stroke-miterlimit="10" d="M 455.019531 119.527344 C 455.019531 120.859375 453.019531 120.859375 453.019531 119.527344 C 453.019531 118.195312 455.019531 118.195312 455.019531 119.527344 "/>
<path fill-rule="nonzero" fill="rgb(100%, 0%, 0%)" fill-opacity="1" stroke-width="0.01" stroke-linecap="butt" stroke-linejoin="miter" stroke="rgb(0%, 0%, 0%)" stroke-opacity="1" stroke-miterlimit="10" d="M 180.835938 426.75 C 180.835938 428.082031 178.835938 428.082031 178.835938 426.75 C 178.835938 425.414062 180.835938 425.414062 180.835938 426.75 "/>
<path fill-rule="nonzero" fill="rgb(100%, 0%, 0%)" fill-opacity="1" stroke-width="0.01" stroke-linecap="butt" stroke-linejoin="miter" stroke="rgb(0%, 0%, 0%)" stroke-opacity="1" stroke-miterlimit="10" d="M 217.253906 354.882812 C 217.253906 356.214844 215.253906 356.214844 215.253906 354.882812 C 215.253906 353.546875 217.253906 353.546875 217.253906 354.882812 "/>
<path fill-rule="nonzero" fill="rgb(100%, 0%, 0%)" fill-opacity="1" stroke-width="0.01" stroke-linecap="butt" stroke-linejoin="miter" stroke="rgb(0%, 0%, 0%)" stroke-opacity="1" stroke-miterlimit="10" d="M 506.316406 338.0625 C 506.316406 339.394531 504.316406 339.394531 504.316406 338.0625 C 504.316406 336.726562 506.316406 336.726562 506.316406 338.0625 "/>
<path fill-rule="nonzero" fill="rgb(100%, 0%, 0%)" fill-opacity="1" stroke-width="0.01" stroke-linecap="butt" stroke-linejoin="miter" stroke="rgb(0%, 0%, 0%)" stroke-opacity="1" stroke-miterlimit="10" d="M 217.4375 443.40625 C 217.4375 444.738281 215.4375 444.738281 215.4375 443.40625 C 215.4375 442.070312 217.4375 442.070312 217.4375 443.40625 "/>
<path fill-rule="nonzero" fill="rgb(100%, 0%, 0%)" fill-opacity="1" stroke-width="0.01" stroke-linecap="butt" stroke-linejoin="miter" stroke="rgb(0%, 0%, 0%)" stroke-opacity="1" stroke-miterlimit="10" d="M 135.984375 300.792969 C 135.984375 302.125 133.984375 302.125 133.984375 300.792969 C 133.984375 299.460938 135.984375 299.460938 135.984375 300.792969 "/>
<path fill-rule="nonzero" fill="rgb(100%, 0%, 0%)" fill-opacity="1" stroke-width="0.01" stroke-linecap="butt" stroke-linejoin="miter" stroke="rgb(0%, 0%, 0%)" stroke-opacity="1" stroke-miterlimit="10" d="M 291.257812 447.203125 C 291.257812 448.535156 289.257812 448.535156 289.257812 447.203125 C 289.257812 445.867188 291.257812 445.867188 291.257812 447.203125 "/>
<path fill-rule="nonzero" fill="rgb(100%, 0%, 0%)" fill-opacity="1" stroke-width="0.01" stroke-linecap="butt" stroke-linejoin="miter" stroke="rgb(0%, 0%, 0%)" stroke-opacity="1" stroke-miterlimit="10" d="M 413.855469 92.238281 C 413.855469 93.574219 411.855469 93.574219 411.855469 92.238281 C 411.855469 90.90625 413.855469 90.90625 413.855469 92.238281 "/>
<path fill-rule="nonzero" fill="rgb(100%, 0%, 0%)" fill-opacity="1" stroke-width="0.01" stroke-linecap="butt" stroke-linejoin="miter" stroke="rgb(0%, 0%, 0%)" stroke-opacity="1" stroke-miterlimit="10" d="M 476.53125 526.011719 C 476.53125 527.347656 474.53125 527.347656 474.53125 526.011719 C 474.53125 524.679688 476.53125 524.679688 476.53125 526.011719 "/>
<path fill-rule="nonzero" fill="rgb(100%, 0%, 0%)" fill-opacity="1" stroke-width="0.01" stroke-linecap="butt" stroke-linejoin="miter" stroke="rgb(0%, 0%, 0%)" stroke-opacity="1" stroke-miterlimit="10" d="M 34.042969 240 C 34.042969 241.332031 32.042969 241.332031 32.042969 240 C 32.042969 238.664062 34.042969 238.664062 34.042969 240 "/>
<path fill-rule="nonzero" fill="rgb(100%, 0%, 0%)" fill-opacity="1" stroke-width="0.01" stroke-linecap="butt" stroke-linejoin="miter" stroke="rgb(0%, 0%, 0%)" stroke-opacity="1" stroke-miterlimit="10" d="M 270.207031 348.539062 C 270.207031 349.871094 268.207031 349.871094 268.207031 348.539062 C 268.207031 347.207031 270.207031 347.207031 270.207031 348.539062 "/>
<path fill-rule="nonzero" fill="rgb(100%, 0%, 0%)" fill-opacity="1" stroke-width="0.01" stroke-linecap="butt" stroke-linejoin="miter" stroke="rgb(0%, 0%, 0%)" stroke-opacity="1" stroke-miterlimit="10" d="M 380.578125 339.386719 C 380.578125 340.71875 378.578125 340.71875 378.578125 339.386719 C 378.578125 338.054688 380.578125 338.054688 380.578125 339.386719 "/>
<path fill-rule="nonzero" fill="rgb(100%, 0%, 0%)" fill-opacity="1" stroke-width="0.01" stroke-linecap="butt" stroke-linejoin="miter" stroke="rgb(0%, 0%, 0%)" stroke-opacity="1" stroke-miterlimit="10" d="M 260.601562 358.113281 C 260.601562 359.449219 258.601562 359.449219 258.601562 358.113281 C 258.601562 356.78125 260.601562 356.78125 260.601562 358.113281 "/>
<path fill-rule="nonzero" fill="rgb(100%, 0%, 0%)" fill-opacity="1" stroke-width="0.01" stroke-linecap="butt" stroke-linejoin="miter" stroke="rgb(0%, 0%, 0%)" stroke-opacity="1" stroke-miterlimit="10" d="M 122.28125 259.589844 C 122.28125 260.921875 120.28125 260.921875 120.28125 259.589844 C 120.28125 258.257812 122.28125 258.257812 122.28125 259.589844 "/>
<path fill-rule="nonzero" fill="rgb(100%, 0%, 0%)" fill-opacity="1" stroke-width="0.01" stroke-linecap="butt" stroke-linejoin="miter" stroke="rgb(0%, 0%, 0%)" stroke-opacity="1" stroke-miterlimit="10" d="M 362.152344 577.226562 C 362.152344 578.558594 360.152344 578.558594 360.152344 577.226562 C 360.152344 575.894531 362.152344 575.894531 362.152344 577.226562 "/>
<path fill-rule="nonzero" fill="rgb(100%, 0%, 0%)" fill-opacity="1" stroke-width="0.01" stroke-linecap="butt" stroke-linejoin="miter" stroke="rgb(0%, 0%, 0%)" stroke-opacity="1" stroke-miterlimit="10" d="M 376.304688 157.535156 C 376.304688 158.867188 374.304688 158.867188 374.304688 157.535156 C 374.304688 156.203125 376.304688 156.203125 376.304688 157.535156 "/>
<path fill-rule="nonzero" fill="rgb(100%, 0%, 0%)" fill-opacity="1" stroke-width="0.01" stroke-linecap="butt" stroke-linejoin="miter" stroke="rgb(0%, 0%, 0%)" stroke-opacity="1" stroke-miterlimit="10" d="M 398.691406 382.6875 C 398.691406 384.019531 396.691406 384.019531 396.691406 382.6875 C 396.691406 381.355469 398.691406 381.355469 398.691406 382.6875 "/>
<path fill-rule="nonzero" fill="rgb(100%, 0%, 0%)" fill-opacity="1" stroke-width="0.01" stroke-linecap="butt" stroke-linejoin="miter" stroke="rgb(0%, 0%, 0%)" stroke-opacity="1" stroke-miterlimit="10" d="M 443.519531 394.105469 C 443.519531 395.441406 441.519531 395.441406 441.519531 394.105469 C 441.519531 392.773438 443.519531 392.773438 443.519531 394.105469 "/>
<path fill-rule="nonzero" fill="rgb(100%, 0%, 0%)" fill-opacity="1" stroke-width="0.01" stroke-linecap="butt" stroke-linejoin="miter" stroke="rgb(0%, 0%, 0%)" stroke-opacity="1" stroke-miterlimit="10" d="M 532.472656 389.148438 C 532.472656 390.484375 530.472656 390.484375 530.472656 389.148438 C 530.472656 387.816406 532.472656 387.816406 532.472656 389.148438 "/>
<path fill-rule="nonzero" fill="rgb(100%, 0%, 0%)" fill-opacity="1" stroke-width="0.01" stroke-linecap="butt" stroke-linejoin="miter" stroke="rgb(0%, 0%, 0%)" stroke-opacity="1" stroke-miterlimit="10" d="M 214.347656 396.164062 C 214.347656 397.5 212.347656 397.5 212.347656 396.164062 C 212.347656 394.832031 214.347656 394.832031 214.347656 396.164062 "/>
<path fill-rule="nonzero" fill="rgb(100%, 0%, 0%)" fill-opacity="1" stroke-width="0.01" stroke-linecap="butt" stroke-linejoin="miter" stroke="rgb(0%, 0%, 0%)" stroke-opacity="1" stroke-miterlimit="10" d="M 29.335938 295.636719 C 29.335938 296.96875 27.335938 296.96875 27.335938 295.636719 C 27.335938 294.304688 29.335938 294.304688 29.335938 295.636719 "/>
<path fill-rule="nonzero" fill="rgb(100%, 0%, 0%)" fill-opacity="1" stroke-width="0.01" stroke-linecap="butt" stroke-linejoin="miter" stroke="rgb(0%, 0%, 0%)" stroke-opacity="1" stroke-miterlimit="10" d="M 105.417969 368.488281 C 105.417969 369.820312 103.417969 369.820312 103.417969 368.488281 C 103.417969 367.15625 105.417969 367.15625 105.417969 368.488281 "/>
<path fill-rule="nonzero" fill="rgb(100%, 0%, 0%)" fill-opacity="1" stroke-width="0.01" stroke-linecap="butt" stroke-linejoin="miter" stroke="rgb(0%, 0%, 0%)" stroke-opacity="1" stroke-miterlimit="10" d="M 170.894531 274.949219 C 170.894531 276.285156 168.894531 276.285156 168.894531 274.949219 C 168.894531 273.617188 170.894531 273.617188 170.894531 274.949219 "/>
<path fill-rule="nonzero" fill="rgb(100%, 0%, 0%)" fill-opacity="1" stroke-width="0.01" stroke-linecap="butt" stroke-linejoin="miter" stroke="rgb(0%, 0%, 0%)" stroke-opacity="1" stroke-miterlimit="10" d="M 342.929688 317.808594 C 342.929688 319.144531 340.929688 319.144531 340.929688 317.808594 C 340.929688 316.476562 342.929688 316.476562 342.929688 317.808594 "/>
<path fill-rule="nonzero" fill="rgb(100%, 0%, 0%)" fill-opacity="1" stroke-width="0.01" stroke-linecap="butt" stroke-linejoin="miter" stroke="rgb(0%, 0%, 0%)" stroke-opacity="1" stroke-miterlimit="10" d="M 66.976562 339.046875 C 66.976562 340.378906 64.976562 340.378906 64.976562 339.046875 C 64.976562 337.714844 66.976562 337.714844 66.976562 339.046875 "/>
<path fill-rule="nonzero" fill="rgb(100%, 0%, 0%)" fill-opacity="1" stroke-width="0.01" stroke-linecap="butt" stroke-linejoin="miter" stroke="rgb(0%, 0%, 0%)" stroke-opacity="1" stroke-miterlimit="10" d="M 410.070312 425.164062 C 410.070312 426.496094 408.070312 426.496094 408.070312 425.164062 C 408.070312 423.832031 410.070312 423.832031 410.070312 425.164062 "/>
<path fill-rule="nonzero" fill="rgb(100%, 0%, 0%)" fill-opacity="1" stroke-width="0.01" stroke-linecap="butt" stroke-linejoin="miter" stroke="rgb(0%, 0%, 0%)" stroke-opacity="1" stroke-miterlimit="10" d="M 73.511719 143.183594 C 73.511719 144.519531 71.511719 144.519531 71.511719 143.183594 C 71.511719 141.851562 73.511719 141.851562 73.511719 143.183594 "/>
<path fill-rule="nonzero" fill="rgb(100%, 0%, 0%)" fill-opacity="1" stroke-width="0.01" stroke-linecap="butt" stroke-linejoin="miter" stroke="rgb(0%, 0%, 0%)" stroke-opacity="1" stroke-miterlimit="10" d="M 483.425781 155.949219 C 483.425781 157.285156 481.425781 157.285156 481.425781 155.949219 C 481.425781 154.617188 483.425781 154.617188 483.425781 155.949219 "/>
<path fill-rule="nonzero" fill="rgb(100%, 0%, 0%)" fill-opacity="1" stroke-width="0.01" stroke-linecap="butt" stroke-linejoin="miter" stroke="rgb(0%, 0%, 0%)" stroke-opacity="1" stroke-miterlimit="10" d="M 368.890625 495.351562 C 368.890625 496.683594 366.890625 496.683594 366.890625 495.351562 C 366.890625 494.015625 368.890625 494.015625 368.890625 495.351562 "/>
<path fill-rule="nonzero" fill="rgb(100%, 0%, 0%)" fill-opacity="1" stroke-width="0.01" stroke-linecap="butt" stroke-linejoin="miter" stroke="rgb(0%, 0%, 0%)" stroke-opacity="1" stroke-miterlimit="10" d="M 277.25 397.027344 C 277.25 398.363281 275.25 398.363281 275.25 397.027344 C 275.25 395.695312 277.25 395.695312 277.25 397.027344 "/>
<path fill-rule="nonzero" fill="rgb(100%, 0%, 0%)" fill-opacity="1" stroke-width="0.01" stroke-linecap="butt" stroke-linejoin="miter" stroke="rgb(0%, 0%, 0%)" stroke-opacity="1" stroke-miterlimit="10" d="M 289.316406 145.867188 C 289.316406 147.199219 287.316406 147.199219 287.316406 145.867188 C 287.316406 144.535156 289.316406 144.535156 289.316406 145.867188 "/>
<path fill-rule="nonzero" fill="rgb(100%, 0%, 0%)" fill-opacity="1" stroke-width="0.01" stroke-linecap="butt" stroke-linejoin="miter" stroke="rgb(0%, 0%, 0%)" stroke-opacity="1" stroke-miterlimit="10" d="M 242.457031 316.421875 C 242.457031 317.757812 240.457031 317.757812 240.457031 316.421875 C 240.457031 315.089844 242.457031 315.089844 242.457031 316.421875 "/>
<path fill-rule="nonzero" fill="rgb(100%, 0%, 0%)" fill-opacity="1" stroke-width="0.01" stroke-linecap="butt" stroke-linejoin="miter" stroke="rgb(0%, 0%, 0%)" stroke-opacity="1" stroke-miterlimit="10" d="M 376.121094 112.101562 C 376.121094 113.433594 374.121094 113.433594 374.121094 112.101562 C 374.121094 110.769531 376.121094 110.769531 376.121094 112.101562 "/>
<path fill-rule="nonzero" fill="rgb(100%, 0%, 0%)" fill-opacity="1" stroke-width="0.01" stroke-linecap="butt" stroke-linejoin="miter" stroke="rgb(0%, 0%, 0%)" stroke-opacity="1" stroke-miterlimit="10" d="M 499.6875 281.53125 C 499.6875 282.867188 497.6875 282.867188 497.6875 281.53125 C 497.6875 280.199219 499.6875 280.199219 499.6875 281.53125 "/>
<path fill-rule="nonzero" fill="rgb(100%, 0%, 0%)" fill-opacity="1" stroke-width="0.01" stroke-linecap="butt" stroke-linejoin="miter" stroke="rgb(0%, 0%, 0%)" stroke-opacity="1" stroke-miterlimit="10" d="M 309.925781 363.09375 C 309.925781 364.425781 307.925781 364.425781 307.925781 363.09375 C 307.925781 361.761719 309.925781 361.761719 309.925781 363.09375 "/>
<path fill-rule="nonzero" fill="rgb(100%, 0%, 0%)" fill-opacity="1" stroke-width="0.01" stroke-linecap="butt" stroke-linejoin="miter" stroke="rgb(0%, 0%, 0%)" stroke-opacity="1" stroke-miterlimit="10" d="M 156.285156 232.804688 C 156.285156 234.140625 154.285156 234.140625 154.285156 232.804688 C 154.285156 231.472656 156.285156 231.472656 156.285156 232.804688 "/>
<path fill-rule="nonzero" fill="rgb(100%, 0%, 0%)" fill-opacity="1" stroke-width="0.01" stroke-linecap="butt" stroke-linejoin="miter" stroke="rgb(0%, 0%, 0%)" stroke-opacity="1" stroke-miterlimit="10" d="M 331.066406 482.191406 C 331.066406 483.523438 329.066406 483.523438 329.066406 482.191406 C 329.066406 480.855469 331.066406 480.855469 331.066406 482.191406 "/>
<path fill-rule="nonzero" fill="rgb(100%, 0%, 0%)" fill-opacity="1" stroke-width="0.01" stroke-linecap="butt" stroke-linejoin="miter" stroke="rgb(0%, 0%, 0%)" stroke-opacity="1" stroke-miterlimit="10" d="M 289.535156 103.183594 C 289.535156 104.515625 287.535156 104.515625 287.535156 103.183594 C 287.535156 101.851562 289.535156 101.851562 289.535156 103.183594 "/>
<path fill-rule="nonzero" fill="rgb(100%, 0%, 0%)" fill-opacity="1" stroke-width="0.01" stroke-linecap="butt" stroke-linejoin="miter" stroke="rgb(0%, 0%, 0%)" stroke-opacity="1" stroke-miterlimit="10" d="M 94.441406 508.796875 C 94.441406 510.128906 92.441406 510.128906 92.441406 508.796875 C 92.441406 507.460938 94.441406 507.460938 94.441406 508.796875 "/>
<path fill-rule="nonzero" fill="rgb(100%, 0%, 0%)" fill-opacity="1" stroke-width="0.01" stroke-linecap="butt" stroke-linejoin="miter" stroke="rgb(0%, 0%, 0%)" stroke-opacity="1" stroke-miterlimit="10" d="M 272.21875 287.285156 C 272.21875 288.621094 270.21875 288.621094 270.21875 287.285156 C 270.21875 285.953125 272.21875 285.953125 272.21875 287.285156 "/>
<path fill-rule="nonzero" fill="rgb(100%, 0%, 0%)" fill-opacity="1" stroke-width="0.01" stroke-linecap="butt" stroke-linejoin="miter" stroke="rgb(0%, 0%, 0%)" stroke-opacity="1" stroke-miterlimit="10" d="M 106 413.671875 C 106 415.003906 104 415.003906 104 413.671875 C 104 412.339844 106 412.339844 106 413.671875 "/>
<path fill-rule="nonzero" fill="rgb(100%, 0%, 0%)" fill-opacity="1" stroke-width="0.01" stroke-linecap="butt" stroke-linejoin="miter" stroke="rgb(0%, 0%, 0%)" stroke-opacity="1" stroke-miterlimit="10" d="M 237.203125 193.21875 C 237.203125 194.554688 235.203125 194.554688 235.203125 193.21875 C 235.203125 191.886719 237.203125 191.886719 237.203125 193.21875 "/>
<path fill-rule="nonzero" fill="rgb(100%, 0%, 0%)" fill-opacity="1" stroke-width="0.01" stroke-linecap="butt" stroke-linejoin="miter" stroke="rgb(0%, 0%, 0%)" stroke-opacity="1" stroke-miterlimit="10" d="M 404.058594 192.652344 C 404.058594 193.984375 402.058594 193.984375 402.058594 192.652344 C 402.058594 191.316406 404.058594 191.316406 404.058594 192.652344 "/>
<path fill-rule="nonzero" fill="rgb(100%, 0%, 0%)" fill-opacity="1" stroke-width="0.01" stroke-linecap="butt" stroke-linejoin="miter" stroke="rgb(0%, 0%, 0%)" stroke-opacity="1" stroke-miterlimit="10" d="M 136.257812 342.921875 C 136.257812 344.257812 134.257812 344.257812 134.257812 342.921875 C 134.257812 341.589844 136.257812 341.589844 136.257812 342.921875 "/>
<path fill-rule="nonzero" fill="rgb(100%, 0%, 0%)" fill-opacity="1" stroke-width="0.01" stroke-linecap="butt" stroke-linejoin="miter" stroke="rgb(0%, 0%, 0%)" stroke-opacity="1" stroke-miterlimit="10" d="M 243.261719 510.679688 C 243.261719 512.015625 241.261719 512.015625 241.261719 510.679688 C 241.261719 509.347656 243.261719 509.347656 243.261719 510.679688 "/>
<path fill-rule="nonzero" fill="rgb(100%, 0%, 0%)" fill-opacity="1" stroke-width="0.01" stroke-linecap="butt" stroke-linejoin="miter" stroke="rgb(0%, 0%, 0%)" stroke-opacity="1" stroke-miterlimit="10" d="M 58.351562 392.449219 C 58.351562 393.78125 56.351562 393.78125 56.351562 392.449219 C 56.351562 391.113281 58.351562 391.113281 58.351562 392.449219 "/>
<path fill-rule="nonzero" fill="rgb(100%, 0%, 0%)" fill-opacity="1" stroke-width="0.01" stroke-linecap="butt" stroke-linejoin="miter" stroke="rgb(0%, 0%, 0%)" stroke-opacity="1" stroke-miterlimit="10" d="M 286.835938 54.113281 C 286.835938 55.449219 284.835938 55.449219 284.835938 54.113281 C 284.835938 52.78125 286.835938 52.78125 286.835938 54.113281 "/>
<path fill-rule="nonzero" fill="rgb(100%, 0%, 0%)" fill-opacity="1" stroke-width="0.01" stroke-linecap="butt" stroke-linejoin="miter" stroke="rgb(0%, 0%, 0%)" stroke-opacity="1" stroke-miterlimit="10" d="M 273.707031 544.925781 C 273.707031 546.257812 271.707031 546.257812 271.707031 544.925781 C 271.707031 543.589844 273.707031 543.589844 273.707031 544.925781 "/>
<path fill-rule="nonzero" fill="rgb(100%, 0%, 0%)" fill-opacity="1" stroke-width="0.01" stroke-linecap="butt" stroke-linejoin="miter" stroke="rgb(0%, 0%, 0%)" stroke-opacity="1" stroke-miterlimit="10" d="M 251.941406 422.609375 C 251.941406 423.945312 249.941406 423.945312 249.941406 422.609375 C 249.941406 421.277344 251.941406 421.277344 251.941406 422.609375 "/>
<path fill-rule="nonzero" fill="rgb(100%, 0%, 0%)" fill-opacity="1" stroke-width="0.01" stroke-linecap="butt" stroke-linejoin="miter" stroke="rgb(0%, 0%, 0%)" stroke-opacity="1" stroke-miterlimit="10" d="M 106.429688 174.777344 C 106.429688 176.109375 104.429688 176.109375 104.429688 174.777344 C 104.429688 173.441406 106.429688 173.441406 106.429688 174.777344 "/>
<path fill-rule="nonzero" fill="rgb(100%, 0%, 0%)" fill-opacity="1" stroke-width="0.01" stroke-linecap="butt" stroke-linejoin="miter" stroke="rgb(0%, 0%, 0%)" stroke-opacity="1" stroke-miterlimit="10" d="M 251.707031 159.808594 C 251.707031 161.140625 249.707031 161.140625 249.707031 159.808594 C 249.707031 158.476562 251.707031 158.476562 251.707031 159.808594 "/>
<path fill-rule="nonzero" fill="rgb(100%, 0%, 0%)" fill-opacity="1" stroke-width="0.01" stroke-linecap="butt" stroke-linejoin="miter" stroke="rgb(0%, 0%, 0%)" stroke-opacity="1" stroke-miterlimit="10" d="M 201.878906 519.089844 C 201.878906 520.421875 199.878906 520.421875 199.878906 519.089844 C 199.878906 517.753906 201.878906 517.753906 201.878906 519.089844 "/>
<path fill-rule="nonzero" fill="rgb(100%, 0%, 0%)" fill-opacity="1" stroke-width="0.01" stroke-linecap="butt" stroke-linejoin="miter" stroke="rgb(0%, 0%, 0%)" stroke-opacity="1" stroke-miterlimit="10" d="M 205.851562 150.898438 C 205.851562 152.230469 203.851562 152.230469 203.851562 150.898438 C 203.851562 149.5625 205.851562 149.5625 205.851562 150.898438 "/>
<path fill-rule="nonzero" fill="rgb(100%, 0%, 0%)" fill-opacity="1" stroke-width="0.01" stroke-linecap="butt" stroke-linejoin="miter" stroke="rgb(0%, 0%, 0%)" stroke-opacity="1" stroke-miterlimit="10" d="M 205.195312 301.980469 C 205.195312 303.3125 203.195312 303.3125 203.195312 301.980469 C 203.195312 300.644531 205.195312 300.644531 205.195312 301.980469 "/>
<path fill-rule="nonzero" fill="rgb(100%, 0%, 0%)" fill-opacity="1" stroke-width="0.01" stroke-linecap="butt" stroke-linejoin="miter" stroke="rgb(0%, 0%, 0%)" stroke-opacity="1" stroke-miterlimit="10" d="M 495.121094 427.460938 C 495.121094 428.796875 493.121094 428.796875 493.121094 427.460938 C 493.121094 426.128906 495.121094 426.128906 495.121094 427.460938 "/>
<path fill-rule="nonzero" fill="rgb(100%, 0%, 0%)" fill-opacity="1" stroke-width="0.01" stroke-linecap="butt" stroke-linejoin="miter" stroke="rgb(0%, 0%, 0%)" stroke-opacity="1" stroke-miterlimit="10" d="M 228.773438 273.875 C 228.773438 275.207031 226.773438 275.207031 226.773438 273.875 C 226.773438 272.542969 228.773438 272.542969 228.773438 273.875 "/>
<path fill-rule="nonzero" fill="rgb(100%, 0%, 0%)" fill-opacity="1" stroke-width="0.01" stroke-linecap="butt" stroke-linejoin="miter" stroke="rgb(0%, 0%, 0%)" stroke-opacity="1" stroke-miterlimit="10" d="M 568.636719 336.722656 C 568.636719 338.054688 566.636719 338.054688 566.636719 336.722656 C 566.636719 335.390625 568.636719 335.390625 568.636719 336.722656 "/>
<path fill-rule="nonzero" fill="rgb(100%, 0%, 0%)" fill-opacity="1" stroke-width="0.01" stroke-linecap="butt" stroke-linejoin="miter" stroke="rgb(0%, 0%, 0%)" stroke-opacity="1" stroke-miterlimit="10" d="M 194.128906 106.746094 C 194.128906 108.082031 192.128906 108.082031 192.128906 106.746094 C 192.128906 105.414062 194.128906 105.414062 194.128906 106.746094 "/>
<path fill-rule="nonzero" fill="rgb(100%, 0%, 0%)" fill-opacity="1" stroke-width="0.01" stroke-linecap="butt" stroke-linejoin="miter" stroke="rgb(0%, 0%, 0%)" stroke-opacity="1" stroke-miterlimit="10" d="M 493.34375 200.121094 C 493.34375 201.453125 491.34375 201.453125 491.34375 200.121094 C 491.34375 198.789062 493.34375 198.789062 493.34375 200.121094 "/>
<path fill-rule="nonzero" fill="rgb(100%, 0%, 0%)" fill-opacity="1" stroke-width="0.01" stroke-linecap="butt" stroke-linejoin="miter" stroke="rgb(0%, 0%, 0%)" stroke-opacity="1" stroke-miterlimit="10" d="M 324.503906 20 C 324.503906 21.332031 322.503906 21.332031 322.503906 20 C 322.503906 18.667969 324.503906 18.667969 324.503906 20 "/>
<path fill-rule="nonzero" fill="rgb(100%, 0%, 0%)" fill-opacity="1" stroke-width="0.01" stroke-linecap="butt" stroke-linejoin="miter" stroke="rgb(0%, 0%, 0%)" stroke-opacity="1" stroke-miterlimit="10" d="M 329.855469 283.0625 C 329.855469 284.394531 327.855469 284.394531 327.855469 283.0625 C 327.855469 281.730469 329.855469 281.730469 329.855469 283.0625 "/>
<path fill-rule="nonzero" fill="rgb(100%, 0%, 0%)" fill-opacity="1" stroke-width="0.01" stroke-linecap="butt" stroke-linejoin="miter" stroke="rgb(0%, 0%, 0%)" stroke-opacity="1" stroke-miterlimit="10" d="M 429.855469 503.152344 C 429.855469 504.484375 427.855469 504.484375 427.855469 503.152344 C 427.855469 501.816406 429.855469 501.816406 429.855469 503.152344 "/>
<path fill-rule="nonzero" fill="rgb(100%, 0%, 0%)" fill-opacity="1" stroke-width="0.01" stroke-linecap="butt" stroke-linejoin="miter" stroke="rgb(0%, 0%, 0%)" stroke-opacity="1" stroke-miterlimit="10" d="M 383.257812 535.085938 C 383.257812 536.421875 381.257812 536.421875 381.257812 535.085938 C 381.257812 533.753906 383.257812 533.753906 383.257812 535.085938 "/>
<path fill-rule="nonzero" fill="rgb(100%, 0%, 0%)" fill-opacity="1" stroke-width="0.01" stroke-linecap="butt" stroke-linejoin="miter" stroke="rgb(0%, 0%, 0%)" stroke-opacity="1" stroke-miterlimit="10" d="M 246.335938 21.652344 C 246.335938 22.984375 244.335938 22.984375 244.335938 21.652344 C 244.335938 20.316406 246.335938 20.316406 246.335938 21.652344 "/>
<path fill-rule="nonzero" fill="rgb(100%, 0%, 0%)" fill-opacity="1" stroke-width="0.01" stroke-linecap="butt" stroke-linejoin="miter" stroke="rgb(0%, 0%, 0%)" stroke-opacity="1" stroke-miterlimit="10" d="M 289.289062 494.390625 C 289.289062 495.726562 287.289062 495.726562 287.289062 494.390625 C 287.289062 493.058594 289.289062 493.058594 289.289062 494.390625 "/>
<path fill-rule="nonzero" fill="rgb(100%, 0%, 0%)" fill-opacity="1" stroke-width="0.01" stroke-linecap="butt" stroke-linejoin="miter" stroke="rgb(0%, 0%, 0%)" stroke-opacity="1" stroke-miterlimit="10" d="M 243.320312 118.058594 C 243.320312 119.394531 241.320312 119.394531 241.320312 118.058594 C 241.320312 116.726562 243.320312 116.726562 243.320312 118.058594 "/>
<path fill-rule="nonzero" fill="rgb(100%, 0%, 0%)" fill-opacity="1" stroke-width="0.01" stroke-linecap="butt" stroke-linejoin="miter" stroke="rgb(0%, 0%, 0%)" stroke-opacity="1" stroke-miterlimit="10" d="M 148.816406 510.542969 C 148.816406 511.878906 146.816406 511.878906 146.816406 510.542969 C 146.816406 509.210938 148.816406 509.210938 148.816406 510.542969 "/>
<path fill-rule="nonzero" fill="rgb(100%, 0%, 0%)" fill-opacity="1" stroke-width="0.01" stroke-linecap="butt" stroke-linejoin="miter" stroke="rgb(0%, 0%, 0%)" stroke-opacity="1" stroke-miterlimit="10" d="M 150.941406 393.859375 C 150.941406 395.191406 148.941406 395.191406 148.941406 393.859375 C 148.941406 392.527344 150.941406 392.527344 150.941406 393.859375 "/>
<path fill-rule="nonzero" fill="rgb(100%, 0%, 0%)" fill-opacity="1" stroke-width="0.01" stroke-linecap="butt" stroke-linejoin="miter" stroke="rgb(0%, 0%, 0%)" stroke-opacity="1" stroke-miterlimit="10" d="M 323.605469 529.824219 C 323.605469 531.15625 321.605469 531.15625 321.605469 529.824219 C 321.605469 528.488281 323.605469 528.488281 323.605469 529.824219 "/>
<path fill-rule="nonzero" fill="rgb(100%, 0%, 0%)" fill-opacity="1" stroke-width="0.01" stroke-linecap="butt" stroke-linejoin="miter" stroke="rgb(0%, 0%, 0%)" stroke-opacity="1" stroke-miterlimit="10" d="M 59.394531 443.214844 C 59.394531 444.546875 57.394531 444.546875 57.394531 443.214844 C 57.394531 441.882812 59.394531 441.882812 59.394531 443.214844 "/>
<path fill-rule="nonzero" fill="rgb(100%, 0%, 0%)" fill-opacity="1" stroke-width="0.01" stroke-linecap="butt" stroke-linejoin="miter" stroke="rgb(0%, 0%, 0%)" stroke-opacity="1" stroke-miterlimit="10" d="M 309.121094 580 C 309.121094 581.332031 307.121094 581.332031 307.121094 580 C 307.121094 578.667969 309.121094 578.667969 309.121094 580 "/>
<path fill-rule="nonzero" fill="rgb(100%, 0%, 0%)" fill-opacity="1" stroke-width="0.01" stroke-linecap="butt" stroke-linejoin="miter" stroke="rgb(0%, 0%, 0%)" stroke-opacity="1" stroke-miterlimit="10" d="M 332.496094 164.351562 C 332.496094 165.683594 330.496094 165.683594 330.496094 164.351562 C 330.496094 163.019531 332.496094 163.019531 332.496094 164.351562 "/>
<path fill-rule="nonzero" fill="rgb(100%, 0%, 0%)" fill-opacity="1" stroke-width="0.01" stroke-linecap="butt" stroke-linejoin="miter" stroke="rgb(0%, 0%, 0%)" stroke-opacity="1" stroke-miterlimit="10" d="M 92.769531 306.046875 C 92.769531 307.382812 90.769531 307.382812 90.769531 306.046875 C 90.769531 304.714844 92.769531 304.714844 92.769531 306.046875 "/>
<path fill-rule="nonzero" fill="rgb(100%, 0%, 0%)" fill-opacity="1" stroke-width="0.01" stroke-linecap="butt" stroke-linejoin="miter" stroke="rgb(0%, 0%, 0%)" stroke-opacity="1" stroke-miterlimit="10" d="M 254.960938 239.664062 C 254.960938 240.996094 252.960938 240.996094 252.960938 239.664062 C 252.960938 238.328125 254.960938 238.328125 254.960938 239.664062 "/>
<path fill-rule="nonzero" fill="rgb(100%, 0%, 0%)" fill-opacity="1" stroke-width="0.01" stroke-linecap="butt" stroke-linejoin="miter" stroke="rgb(0%, 0%, 0%)" stroke-opacity="1" stroke-miterlimit="10" d="M 316.625 405.914062 C 316.625 407.25 314.625 407.25 314.625 405.914062 C 314.625 404.582031 316.625 404.582031 316.625 405.914062 "/>
<path fill-rule="nonzero" fill="rgb(100%, 0%, 0%)" fill-opacity="1" stroke-width="0.01" stroke-linecap="butt" stroke-linejoin="miter" stroke="rgb(0%, 0%, 0%)" stroke-opacity="1" stroke-miterlimit="10" d="M 449.476562 438.136719 C 449.476562 439.472656 447.476562 439.472656 447.476562 438.136719 C 447.476562 436.804688 449.476562 436.804688 449.476562 438.136719 "/>
<path fill-rule="nonzero" fill="rgb(100%, 0%, 0%)" fill-opacity="1" stroke-width="0.01" stroke-linecap="butt" stroke-linejoin="miter" stroke="rgb(0%, 0%, 0%)" stroke-opacity="1" stroke-miterlimit="10" d="M 334.203125 122.902344 C 334.203125 124.234375 332.203125 124.234375 332.203125 122.902344 C 332.203125 121.566406 334.203125 121.566406 334.203125 122.902344 "/>
<path fill-rule="nonzero" fill="rgb(100%, 0%, 0%)" fill-opacity="1" stroke-width="0.01" stroke-linecap="butt" stroke-linejoin="miter" stroke="rgb(0%, 0%, 0%)" stroke-opacity="1" stroke-miterlimit="10" d="M 546.789062 440.445312 C 546.789062 441.777344 544.789062 441.777344 544.789062 440.445312 C 544.789062 439.113281 546.789062 439.113281 546.789062 440.445312 "/>
<path fill-rule="nonzero" fill="rgb(100%, 0%, 0%)" fill-opacity="1" stroke-width="0.01" stroke-linecap="butt" stroke-linejoin="miter" stroke="rgb(0%, 0%, 0%)" stroke-opacity="1" stroke-miterlimit="10" d="M 542.425781 141.839844 C 542.425781 143.175781 540.425781 143.175781 540.425781 141.839844 C 540.425781 140.507812 542.425781 140.507812 542.425781 141.839844 "/>
<path fill-rule="nonzero" fill="rgb(100%, 0%, 0%)" fill-opacity="1" stroke-width="0.01" stroke-linecap="butt" stroke-linejoin="miter" stroke="rgb(0%, 0%, 0%)" stroke-opacity="1" stroke-miterlimit="10" d="M 361.808594 260.59375 C 361.808594 261.925781 359.808594 261.925781 359.808594 260.59375 C 359.808594 259.257812 361.808594 259.257812 361.808594 260.59375 "/>
<path fill-rule="nonzero" fill="rgb(100%, 0%, 0%)" fill-opacity="1" stroke-width="0.01" stroke-linecap="butt" stroke-linejoin="miter" stroke="rgb(0%, 0%, 0%)" stroke-opacity="1" stroke-miterlimit="10" d="M 452.914062 270.371094 C 452.914062 271.703125 450.914062 271.703125 450.914062 270.371094 C 450.914062 269.035156 452.914062 269.035156 452.914062 270.371094 "/>
<path fill-rule="nonzero" fill="rgb(100%, 0%, 0%)" fill-opacity="1" stroke-width="0.01" stroke-linecap="butt" stroke-linejoin="miter" stroke="rgb(0%, 0%, 0%)" stroke-opacity="1" stroke-miterlimit="10" d="M 160.011719 156.316406 C 160.011719 157.652344 158.011719 157.652344 158.011719 156.316406 C 158.011719 154.984375 160.011719 154.984375 160.011719 156.316406 "/>
<path fill-rule="nonzero" fill="rgb(100%, 0%, 0%)" fill-opacity="1" stroke-width="0.01" stroke-linecap="butt" stroke-linejoin="miter" stroke="rgb(0%, 0%, 0%)" stroke-opacity="1" stroke-miterlimit="10" d="M 520.726562 487.160156 C 520.726562 488.492188 518.726562 488.492188 518.726562 487.160156 C 518.726562 485.824219 520.726562 485.824219 520.726562 487.160156 "/>
<path fill-rule="nonzero" fill="rgb(100%, 0%, 0%)" fill-opacity="1" stroke-width="0.01" stroke-linecap="butt" stroke-linejoin="miter" stroke="rgb(0%, 0%, 0%)" stroke-opacity="1" stroke-miterlimit="10" d="M 242.1875 75.039062 C 242.1875 76.375 240.1875 76.375 240.1875 75.039062 C 240.1875 73.707031 242.1875 73.707031 242.1875 75.039062 "/>
<path fill-rule="nonzero" fill="rgb(100%, 0%, 0%)" fill-opacity="1" stroke-width="0.01" stroke-linecap="butt" stroke-linejoin="miter" stroke="rgb(0%, 0%, 0%)" stroke-opacity="1" stroke-miterlimit="10" d="M 291.34375 220.257812 C 291.34375 221.589844 289.34375 221.589844 289.34375 220.257812 C 289.34375 218.925781 291.34375 218.925781 291.34375 220.257812 "/>
<path fill-rule="nonzero" fill="rgb(100%, 0%, 0%)" fill-opacity="1" stroke-width="0.01" stroke-linecap="butt" stroke-linejoin="miter" stroke="rgb(0%, 0%, 0%)" stroke-opacity="1" stroke-miterlimit="10" d="M 250.246094 468.992188 C 250.246094 470.324219 248.246094 470.324219 248.246094 468.992188 C 248.246094 467.65625 250.246094 467.65625 250.246094 468.992188 "/>
<path fill-rule="nonzero" fill="rgb(100%, 0%, 0%)" fill-opacity="1" stroke-width="0.01" stroke-linecap="butt" stroke-linejoin="miter" stroke="rgb(0%, 0%, 0%)" stroke-opacity="1" stroke-miterlimit="10" d="M 144.574219 444.304688 C 144.574219 445.636719 142.574219 445.636719 142.574219 444.304688 C 142.574219 442.96875 144.574219 442.96875 144.574219 444.304688 "/>
<path fill-rule="nonzero" fill="rgb(100%, 0%, 0%)" fill-opacity="1" stroke-width="0.01" stroke-linecap="butt" stroke-linejoin="miter" stroke="rgb(0%, 0%, 0%)" stroke-opacity="1" stroke-miterlimit="10" d="M 437.9375 226.675781 C 437.9375 228.007812 435.9375 228.007812 435.9375 226.675781 C 435.9375 225.34375 437.9375 225.34375 437.9375 226.675781 "/>
</svg>
