<?xml version="1.0" encoding="UTF-8"?>
<svg xmlns="http://www.w3.org/2000/svg" xmlns:xlink="http://www.w3.org/1999/xlink" width="600pt" height="600pt" viewBox="0 0 600 600" version="1.1">
<g id="surface1">
<rect x="0" y="0" width="600" height="600" style="fill:rgb(100%,100%,100%);fill-opacity:1;stroke:none;"/>
<path style="fill:none;stroke-width:0.2;stroke-linecap:butt;stroke-linejoin:miter;stroke:rgb(26.666667%,26.666667%,26.666667%);stroke-opacity:1;stroke-miterlimit:10;" d="M 200.136719 542.5625 L 209.621094 550.125 "/>
<path style="fill:none;stroke-width:0.2;stroke-linecap:butt;stroke-linejoin:miter;stroke:rgb(26.666667%,26.666667%,26.666667%);stroke-opacity:1;stroke-miterlimit:10;" d="M 479.691406 468.636719 L 495.355469 456.589844 "/>
<path style="fill:none;stroke-width:0.2;stroke-linecap:butt;stroke-linejoin:miter;stroke:rgb(26.666667%,26.666667%,26.666667%);stroke-opacity:1;stroke-miterlimit:10;" d="M 115.898438 107.082031 L 119.175781 95.152344 "/>
<path style="fill:none;stroke-width:0.2;stroke-linecap:butt;stroke-linejoin:miter;stroke:rgb(26.666667%,26.666667%,26.666667%);stroke-opacity:1;stroke-miterlimit:10;" d="M 134.289062 305.839844 L 134.472656 293.417969 "/>
<path style="fill:none;stroke-width:0.2;stroke-linecap:butt;stroke-linejoin:miter;stroke:rgb(26.666667%,26.666667%,26.666667%);stroke-opacity:1;stroke-miterlimit:10;" d="M 383.535156 59.109375 L 378.921875 47.648438 "/>
<path style="fill:none;stroke-width:0.2;stroke-linecap:butt;stroke-linejoin:miter;stroke:rgb(26.666667%,26.666667%,26.666667%);stroke-opacity:1;stroke-miterlimit:10;" d="M 338.0625 136.40625 L 341.121094 124.535156 "/>
<path style="fill:none;stroke-width:0.2;stroke-linecap:butt;stroke-linejoin:miter;stroke:rgb(26.666667%,26.666667%,26.666667%);stroke-opacity:1;stroke-miterlimit:10;" d="M 409.214844 180.378906 L 415.125 169.640625 "/>
<path style="fill:none;stroke-width:0.2;stroke-linecap:butt;stroke-linejoin:miter;stroke:rgb(26.666667%,26.666667%,26.666667%);stroke-opacity:1;stroke-miterlimit:10;" d="M 488.277344 183.425781 L 484.332031 195.132812 "/>
<path style="fill:none;stroke-width:0.2;stroke-linecap:butt;stroke-linejoin:miter;stroke:rgb(26.666667%,26.666667%,26.666667%);stroke-opacity:1;stroke-miterlimit:10;" d="M 223.003906 308.132812 L 223.949219 295.980469 "/>
<path style="fill:none;stroke-width:0.2;stroke-linecap:butt;stroke-linejoin:miter;stroke:rgb(26.666667%,26.666667%,26.666667%);stroke-opacity:1;stroke-miterlimit:10;" d="M 320.9375 215.746094 L 332.636719 217.148438 "/>
<path style="fill:none;stroke-width:0.2;stroke-linecap:butt;stroke-linejoin:miter;stroke:rgb(26.666667%,26.666667%,26.666667%);stroke-opacity:1;stroke-miterlimit:10;" d="M 404.433594 525.160156 L 415.230469 519.796875 "/>
<path style="fill:none;stroke-width:0.2;stroke-linecap:butt;stroke-linejoin:miter;stroke:rgb(26.666667%,26.666667%,26.666667%);stroke-opacity:1;stroke-miterlimit:10;" d="M 185.085938 145.195312 L 188.136719 157.117188 "/>
<path style="fill:none;stroke-width:0.2;stroke-linecap:butt;stroke-linejoin:miter;stroke:rgb(26.666667%,26.666667%,26.666667%);stroke-opacity:1;stroke-miterlimit:10;" d="M 342.378906 577.195312 L 330.539062 579.785156 "/>
<path style="fill:none;stroke-width:0.2;stroke-linecap:butt;stroke-linejoin:miter;stroke:rgb(26.666667%,26.666667%,26.666667%);stroke-opacity:1;stroke-miterlimit:10;" d="M 301.089844 267.046875 L 300.71875 254.773438 "/>
<path style="fill:none;stroke-width:0.2;stroke-linecap:butt;stroke-linejoin:miter;stroke:rgb(26.666667%,26.666667%,26.666667%);stroke-opacity:1;stroke-miterlimit:10;" d="M 85.828125 271.882812 L 89.035156 283.699219 "/>
<path style="fill:none;stroke-width:0.2;stroke-linecap:butt;stroke-linejoin:miter;stroke:rgb(26.666667%,26.666667%,26.666667%);stroke-opacity:1;stroke-miterlimit:10;" d="M 323.195312 407.027344 L 326.882812 395.363281 "/>
<path style="fill:none;stroke-width:0.2;stroke-linecap:butt;stroke-linejoin:miter;stroke:rgb(26.666667%,26.666667%,26.666667%);stroke-opacity:1;stroke-miterlimit:10;" d="M 20.996094 338.253906 L 20.074219 325.785156 "/>
<path style="fill:none;stroke-width:0.2;stroke-linecap:butt;stroke-linejoin:miter;stroke:rgb(26.666667%,26.666667%,26.666667%);stroke-opacity:1;stroke-miterlimit:10;" d="M 131.007812 511.957031 L 137.714844 522.28125 "/>
<path style="fill:none;stroke-width:0.2;stroke-linecap:butt;stroke-linejoin:miter;stroke:rgb(26.666667%,26.666667%,26.666667%);stroke-opacity:1;stroke-miterlimit:10;" d="M 379.421875 304.023438 L 389.601562 310.292969 "/>
<path style="fill:none;stroke-width:0.2;stroke-linecap:butt;stroke-linejoin:miter;stroke:rgb(26.666667%,26.666667%,26.666667%);stroke-opacity:1;stroke-miterlimit:10;" d="M 273.839844 397.019531 L 262.046875 398.191406 "/>
<path style="fill:none;stroke-width:0.2;stroke-linecap:butt;stroke-linejoin:miter;stroke:rgb(26.666667%,26.666667%,26.666667%);stroke-opacity:1;stroke-miterlimit:10;" d="M 288.945312 21.40625 L 300.875 20.109375 "/>
<path style="fill:none;stroke-width:0.2;stroke-linecap:butt;stroke-linejoin:miter;stroke:rgb(26.666667%,26.666667%,26.666667%);stroke-opacity:1;stroke-miterlimit:10;" d="M 481.972656 453.976562 L 493.292969 469.871094 "/>
<path style="fill:none;stroke-width:0.2;stroke-linecap:butt;stroke-linejoin:miter;stroke:rgb(26.666667%,26.666667%,26.666667%);stroke-opacity:1;stroke-miterlimit:10;" d="M 301.636719 353.71875 L 300.808594 341.4375 "/>
<path style="fill:none;stroke-width:0.2;stroke-linecap:butt;stroke-linejoin:miter;stroke:rgb(26.666667%,26.666667%,26.666667%);stroke-opacity:1;stroke-miterlimit:10;" d="M 518.199219 319.722656 L 510.773438 310.003906 "/>
<path style="fill:none;stroke-width:0.2;stroke-linecap:butt;stroke-linejoin:miter;stroke:rgb(26.666667%,26.666667%,26.666667%);stroke-opacity:1;stroke-miterlimit:10;" d="M 126.410156 443.847656 L 123.335938 431.824219 "/>
<path style="fill:none;stroke-width:0.2;stroke-linecap:butt;stroke-linejoin:miter;stroke:rgb(26.666667%,26.666667%,26.666667%);stroke-opacity:1;stroke-miterlimit:10;" d="M 243.613281 154.023438 L 235.710938 144.859375 "/>
<path style="fill:none;stroke-width:0.2;stroke-linecap:butt;stroke-linejoin:miter;stroke:rgb(26.666667%,26.666667%,26.666667%);stroke-opacity:1;stroke-miterlimit:10;" d="M 419.554688 452.121094 L 414.394531 463.277344 "/>
<path style="fill:none;stroke-width:0.2;stroke-linecap:butt;stroke-linejoin:miter;stroke:rgb(26.666667%,26.666667%,26.666667%);stroke-opacity:1;stroke-miterlimit:10;" d="M 449.832031 71.105469 L 442.542969 61.246094 "/>
<path style="fill:none;stroke-width:0.2;stroke-linecap:butt;stroke-linejoin:miter;stroke:rgb(26.666667%,26.666667%,26.666667%);stroke-opacity:1;stroke-miterlimit:10;" d="M 265.679688 528.65625 L 256.222656 521.164062 "/>
<path style="fill:none;stroke-width:0.2;stroke-linecap:butt;stroke-linejoin:miter;stroke:rgb(26.666667%,26.666667%,26.666667%);stroke-opacity:1;stroke-miterlimit:10;" d="M 72.035156 389.828125 L 84 388.945312 "/>
<path style="fill:none;stroke-width:0.2;stroke-linecap:butt;stroke-linejoin:miter;stroke:rgb(26.666667%,26.666667%,26.666667%);stroke-opacity:1;stroke-miterlimit:10;" d="M 227.238281 200.074219 L 237.25 206.777344 "/>
<path style="fill:none;stroke-width:0.2;stroke-linecap:butt;stroke-linejoin:miter;stroke:rgb(26.666667%,26.666667%,26.666667%);stroke-opacity:1;stroke-miterlimit:10;" d="M 73.636719 170.253906 L 69.6875 158.53125 "/>
<path style="fill:none;stroke-width:0.2;stroke-linecap:butt;stroke-linejoin:miter;stroke:rgb(26.666667%,26.666667%,26.666667%);stroke-opacity:1;stroke-miterlimit:10;" d="M 144.058594 356.558594 L 139.425781 367.890625 "/>
<path style="fill:none;stroke-width:0.2;stroke-linecap:butt;stroke-linejoin:miter;stroke:rgb(26.666667%,26.666667%,26.666667%);stroke-opacity:1;stroke-miterlimit:10;" d="M 580 279.328125 L 577.449219 291.550781 "/>
<path style="fill:none;stroke-width:0.2;stroke-linecap:butt;stroke-linejoin:miter;stroke:rgb(26.666667%,26.666667%,26.666667%);stroke-opacity:1;stroke-miterlimit:10;" d="M 364.902344 243.945312 L 362.21875 255.953125 "/>
<path style="fill:none;stroke-width:0.2;stroke-linecap:butt;stroke-linejoin:miter;stroke:rgb(26.666667%,26.666667%,26.666667%);stroke-opacity:1;stroke-miterlimit:10;" d="M 232.132812 453.347656 L 236.539062 464.851562 "/>
<path style="fill:none;stroke-width:0.2;stroke-linecap:butt;stroke-linejoin:miter;stroke:rgb(26.666667%,26.666667%,26.666667%);stroke-opacity:1;stroke-miterlimit:10;" d="M 121.230469 232.820312 L 111.683594 225.363281 "/>
<path style="fill:none;stroke-width:0.2;stroke-linecap:butt;stroke-linejoin:miter;stroke:rgb(26.666667%,26.666667%,26.666667%);stroke-opacity:1;stroke-miterlimit:10;" d="M 206.863281 350.175781 L 195.367188 346.960938 "/>
<path style="fill:none;stroke-width:0.2;stroke-linecap:butt;stroke-linejoin:miter;stroke:rgb(26.666667%,26.666667%,26.666667%);stroke-opacity:1;stroke-miterlimit:10;" d="M 67.664062 450.367188 L 74.816406 460.378906 "/>
<path style="fill:none;stroke-width:0.2;stroke-linecap:butt;stroke-linejoin:miter;stroke:rgb(26.666667%,26.666667%,26.666667%);stroke-opacity:1;stroke-miterlimit:10;" d="M 461.726562 399.507812 L 450.042969 402.082031 "/>
<path style="fill:none;stroke-width:0.2;stroke-linecap:butt;stroke-linejoin:miter;stroke:rgb(26.666667%,26.666667%,26.666667%);stroke-opacity:1;stroke-miterlimit:10;" d="M 203.394531 245.683594 L 215.171875 247.039062 "/>
<path style="fill:none;stroke-width:0.2;stroke-linecap:butt;stroke-linejoin:miter;stroke:rgb(26.666667%,26.666667%,26.666667%);stroke-opacity:1;stroke-miterlimit:10;" d="M 168.582031 420.296875 L 177.085938 428.972656 "/>
<path style="fill:none;stroke-width:0.2;stroke-linecap:butt;stroke-linejoin:miter;stroke:rgb(26.666667%,26.666667%,26.666667%);stroke-opacity:1;stroke-miterlimit:10;" d="M 244.625 75.828125 L 234.769531 82.863281 "/>
<path style="fill:none;stroke-width:0.2;stroke-linecap:butt;stroke-linejoin:miter;stroke:rgb(26.666667%,26.666667%,26.666667%);stroke-opacity:1;stroke-miterlimit:10;" d="M 174.871094 210.4375 L 163.261719 212.660156 "/>
<path style="fill:none;stroke-width:0.2;stroke-linecap:butt;stroke-linejoin:miter;stroke:rgb(26.666667%,26.666667%,26.666667%);stroke-opacity:1;stroke-miterlimit:10;" d="M 176.988281 294.632812 L 175.386719 282.355469 "/>
<path style="fill:none;stroke-width:0.2;stroke-linecap:butt;stroke-linejoin:miter;stroke:rgb(26.666667%,26.666667%,26.666667%);stroke-opacity:1;stroke-miterlimit:10;" d="M 395.597656 115.339844 L 407.507812 115.65625 "/>
<path style="fill:none;stroke-width:0.2;stroke-linecap:butt;stroke-linejoin:miter;stroke:rgb(26.666667%,26.666667%,26.666667%);stroke-opacity:1;stroke-miterlimit:10;" d="M 283.097656 118.148438 L 281.335938 105.96875 "/>
<path style="fill:none;stroke-width:0.2;stroke-linecap:butt;stroke-linejoin:miter;stroke:rgb(26.666667%,26.666667%,26.666667%);stroke-opacity:1;stroke-miterlimit:10;" d="M 332.558594 74.371094 L 321.296875 70.371094 "/>
<path style="fill:none;stroke-width:0.2;stroke-linecap:butt;stroke-linejoin:miter;stroke:rgb(26.666667%,26.666667%,26.666667%);stroke-opacity:1;stroke-miterlimit:10;" d="M 215.539062 398.109375 L 204.660156 393.152344 "/>
<path style="fill:none;stroke-width:0.2;stroke-linecap:butt;stroke-linejoin:miter;stroke:rgb(26.666667%,26.666667%,26.666667%);stroke-opacity:1;stroke-miterlimit:10;" d="M 289.441406 451.179688 L 278.628906 446.378906 "/>
<path style="fill:none;stroke-width:0.2;stroke-linecap:butt;stroke-linejoin:miter;stroke:rgb(26.666667%,26.666667%,26.666667%);stroke-opacity:1;stroke-miterlimit:10;" d="M 360.214844 354.59375 L 350.597656 347.484375 "/>
<path style="fill:none;stroke-width:0.2;stroke-linecap:butt;stroke-linejoin:miter;stroke:rgb(26.666667%,26.666667%,26.666667%);stroke-opacity:1;stroke-miterlimit:10;" d="M 180.371094 481.246094 L 191.417969 485.878906 "/>
<path style="fill:none;stroke-width:0.2;stroke-linecap:butt;stroke-linejoin:miter;stroke:rgb(26.666667%,26.666667%,26.666667%);stroke-opacity:1;stroke-miterlimit:10;" d="M 318.496094 481.851562 L 330.179688 484.320312 "/>
<path style="fill:none;stroke-width:0.2;stroke-linecap:butt;stroke-linejoin:miter;stroke:rgb(26.666667%,26.666667%,26.666667%);stroke-opacity:1;stroke-miterlimit:10;" d="M 463.214844 141.347656 L 469.707031 130.941406 "/>
<path style="fill:none;stroke-width:0.2;stroke-linecap:butt;stroke-linejoin:miter;stroke:rgb(26.666667%,26.666667%,26.666667%);stroke-opacity:1;stroke-miterlimit:10;" d="M 364.121094 185.332031 L 365.710938 173.117188 "/>
<path style="fill:none;stroke-width:0.2;stroke-linecap:butt;stroke-linejoin:miter;stroke:rgb(26.666667%,26.666667%,26.666667%);stroke-opacity:1;stroke-miterlimit:10;" d="M 411.234375 351.859375 L 412.164062 364.132812 "/>
<path style="fill:none;stroke-width:0.2;stroke-linecap:butt;stroke-linejoin:miter;stroke:rgb(26.666667%,26.666667%,26.666667%);stroke-opacity:1;stroke-miterlimit:10;" d="M 135.789062 160.75 L 127.867188 169.96875 "/>
<path style="fill:none;stroke-width:0.2;stroke-linecap:butt;stroke-linejoin:miter;stroke:rgb(26.666667%,26.666667%,26.666667%);stroke-opacity:1;stroke-miterlimit:10;" d="M 282.972656 191.902344 L 289.84375 180.707031 "/>
<path style="fill:none;stroke-width:0.2;stroke-linecap:butt;stroke-linejoin:miter;stroke:rgb(26.666667%,26.666667%,26.666667%);stroke-opacity:1;stroke-miterlimit:10;" d="M 377.621094 401.839844 L 388.3125 407.242188 "/>
<path style="fill:none;stroke-width:0.2;stroke-linecap:butt;stroke-linejoin:miter;stroke:rgb(26.666667%,26.666667%,26.666667%);stroke-opacity:1;stroke-miterlimit:10;" d="M 331.691406 529.214844 L 319.710938 530.792969 "/>
<path style="fill:none;stroke-width:0.2;stroke-linecap:butt;stroke-linejoin:miter;stroke:rgb(26.666667%,26.666667%,26.666667%);stroke-opacity:1;stroke-miterlimit:10;" d="M 298.109375 168.070312 L 290.914062 179.019531 "/>
<path style="fill:none;stroke-width:0.2;stroke-linecap:butt;stroke-linejoin:miter;stroke:rgb(26.666667%,26.666667%,26.666667%);stroke-opacity:1;stroke-miterlimit:10;" d="M 433.484375 214.320312 L 442.308594 222.488281 "/>
<path style="fill:none;stroke-width:0.2;stroke-linecap:butt;stroke-linejoin:miter;stroke:rgb(26.666667%,26.666667%,26.666667%);stroke-opacity:1;stroke-miterlimit:10;" d="M 527.164062 261.839844 L 531.140625 250.234375 "/>
<path style="fill:none;stroke-width:0.2;stroke-linecap:butt;stroke-linejoin:miter;stroke:rgb(26.666667%,26.666667%,26.666667%);stroke-opacity:1;stroke-miterlimit:10;" d="M 322.378906 304.441406 L 331.414062 296.53125 "/>
<path style="fill:none;stroke-width:0.2;stroke-linecap:butt;stroke-linejoin:miter;stroke:rgb(26.666667%,26.666667%,26.666667%);stroke-opacity:1;stroke-miterlimit:10;" d="M 71.960938 328.675781 L 81.617188 335.949219 "/>
<path style="fill:none;stroke-width:0.2;stroke-linecap:butt;stroke-linejoin:miter;stroke:rgb(26.666667%,26.666667%,26.666667%);stroke-opacity:1;stroke-miterlimit:10;" d="M 470.597656 347.140625 L 462.042969 337.148438 "/>
<path style="fill:none;stroke-width:0.2;stroke-linecap:butt;stroke-linejoin:miter;stroke:rgb(26.666667%,26.666667%,26.666667%);stroke-opacity:1;stroke-miterlimit:10;" d="M 452.242188 325.601562 L 460.746094 335.628906 "/>
<path style="fill:none;stroke-width:0.2;stroke-linecap:butt;stroke-linejoin:miter;stroke:rgb(26.666667%,26.666667%,26.666667%);stroke-opacity:1;stroke-miterlimit:10;" d="M 218.695312 27.417969 L 207.03125 30.441406 "/>
<path style="fill:none;stroke-width:0.2;stroke-linecap:butt;stroke-linejoin:miter;stroke:rgb(26.666667%,26.666667%,26.666667%);stroke-opacity:1;stroke-miterlimit:10;" d="M 261.4375 274.667969 L 259.507812 262.414062 "/>
<path style="fill:none;stroke-width:0.2;stroke-linecap:butt;stroke-linejoin:miter;stroke:rgb(26.666667%,26.666667%,26.666667%);stroke-opacity:1;stroke-miterlimit:10;" d="M 467.796875 263.085938 L 464.386719 274.871094 "/>
<path style="fill:none;stroke-width:0.2;stroke-linecap:butt;stroke-linejoin:miter;stroke:rgb(26.666667%,26.666667%,26.666667%);stroke-opacity:1;stroke-miterlimit:10;" d="M 172.582031 86.15625 L 182 93.726562 "/>
<path style="fill:none;stroke-width:0.2;stroke-linecap:butt;stroke-linejoin:miter;stroke:rgb(26.666667%,26.666667%,26.666667%);stroke-opacity:1;stroke-miterlimit:10;" d="M 413.320312 268.4375 L 408.257812 257.273438 "/>
<path style="fill:none;stroke-width:0.2;stroke-linecap:butt;stroke-linejoin:miter;stroke:rgb(26.666667%,26.666667%,26.666667%);stroke-opacity:1;stroke-miterlimit:10;" d="M 540.558594 186.027344 L 535.75 197.402344 "/>
<path style="fill:none;stroke-width:0.2;stroke-linecap:butt;stroke-linejoin:miter;stroke:rgb(26.666667%,26.666667%,26.666667%);stroke-opacity:1;stroke-miterlimit:10;" d="M 255.824219 345.6875 L 259.515625 333.921875 "/>
<path style="fill:none;stroke-width:0.2;stroke-linecap:butt;stroke-linejoin:miter;stroke:rgb(26.666667%,26.666667%,26.666667%);stroke-opacity:1;stroke-miterlimit:10;" d="M 527.847656 384.519531 L 536.703125 376.171875 "/>
<path style="fill:none;stroke-width:0.2;stroke-linecap:butt;stroke-linejoin:miter;stroke:rgb(26.666667%,26.666667%,26.666667%);stroke-opacity:1;stroke-miterlimit:10;" d="M 356.339844 447.585938 L 365.273438 455.824219 "/>
<path style="fill:none;stroke-width:0.2;stroke-linecap:butt;stroke-linejoin:miter;stroke:rgb(26.666667%,26.666667%,26.666667%);stroke-opacity:1;stroke-miterlimit:10;" d="M 46.355469 228.964844 L 45.0625 241.3125 "/>
<path style=" stroke:none;fill-rule:nonzero;fill:rgb(100%,0%,0%);fill-opacity:1;" d="M 201.136719 542.5625 C 201.136719 543.894531 199.136719 543.894531 199.136719 542.5625 C 199.136719 541.230469 201.136719 541.230469 201.136719 542.5625 "/>
<path style=" stroke:none;fill-rule:nonzero;fill:rgb(100%,0%,0%);fill-opacity:1;" d="M 211.402344 550.75 C 211.402344 552.082031 209.402344 552.082031 209.402344 550.75 C 209.402344 549.414062 211.402344 549.414062 211.402344 550.75 "/>
<path style=" stroke:none;fill-rule:nonzero;fill:rgb(100%,0%,0%);fill-opacity:1;" d="M 480.691406 468.636719 C 480.691406 469.972656 478.691406 469.972656 478.691406 468.636719 C 478.691406 467.304688 480.691406 467.304688 480.691406 468.636719 "/>
<path style=" stroke:none;fill-rule:nonzero;fill:rgb(100%,0%,0%);fill-opacity:1;" d="M 497.148438 455.980469 C 497.148438 457.316406 495.148438 457.316406 495.148438 455.980469 C 495.148438 454.648438 497.148438 454.648438 497.148438 455.980469 "/>
<path style=" stroke:none;fill-rule:nonzero;fill:rgb(100%,0%,0%);fill-opacity:1;" d="M 116.898438 107.082031 C 116.898438 108.414062 114.898438 108.414062 114.898438 107.082031 C 114.898438 105.746094 116.898438 105.746094 116.898438 107.082031 "/>
<path style=" stroke:none;fill-rule:nonzero;fill:rgb(100%,0%,0%);fill-opacity:1;" d="M 120.441406 94.1875 C 120.441406 95.523438 118.441406 95.523438 118.441406 94.1875 C 118.441406 92.855469 120.441406 92.855469 120.441406 94.1875 "/>
<path style=" stroke:none;fill-rule:nonzero;fill:rgb(100%,0%,0%);fill-opacity:1;" d="M 135.289062 305.839844 C 135.289062 307.175781 133.289062 307.175781 133.289062 305.839844 C 133.289062 304.507812 135.289062 304.507812 135.289062 305.839844 "/>
<path style=" stroke:none;fill-rule:nonzero;fill:rgb(100%,0%,0%);fill-opacity:1;" d="M 135.488281 292.421875 C 135.488281 293.753906 133.488281 293.753906 133.488281 292.421875 C 133.488281 291.085938 135.488281 291.085938 135.488281 292.421875 "/>
<path style=" stroke:none;fill-rule:nonzero;fill:rgb(100%,0%,0%);fill-opacity:1;" d="M 384.535156 59.109375 C 384.535156 60.441406 382.535156 60.441406 382.535156 59.109375 C 382.535156 57.773438 384.535156 57.773438 384.535156 59.109375 "/>
<path style=" stroke:none;fill-rule:nonzero;fill:rgb(100%,0%,0%);fill-opacity:1;" d="M 379.546875 46.722656 C 379.546875 48.054688 377.546875 48.054688 377.546875 46.722656 C 377.546875 45.390625 379.546875 45.390625 379.546875 46.722656 "/>
<path style=" stroke:none;fill-rule:nonzero;fill:rgb(100%,0%,0%);fill-opacity:1;" d="M 339.0625 136.40625 C 339.0625 137.742188 337.0625 137.742188 337.0625 136.40625 C 337.0625 135.074219 339.0625 135.074219 339.0625 136.40625 "/>
<path style=" stroke:none;fill-rule:nonzero;fill:rgb(100%,0%,0%);fill-opacity:1;" d="M 342.371094 123.566406 C 342.371094 124.898438 340.371094 124.898438 340.371094 123.566406 C 340.371094 122.234375 342.371094 122.234375 342.371094 123.566406 "/>
<path style=" stroke:none;fill-rule:nonzero;fill:rgb(100%,0%,0%);fill-opacity:1;" d="M 410.214844 180.378906 C 410.214844 181.710938 408.214844 181.710938 408.214844 180.378906 C 408.214844 179.046875 410.214844 179.046875 410.214844 180.378906 "/>
<path style=" stroke:none;fill-rule:nonzero;fill:rgb(100%,0%,0%);fill-opacity:1;" d="M 416.605469 168.765625 C 416.605469 170.097656 414.605469 170.097656 414.605469 168.765625 C 414.605469 167.433594 416.605469 167.433594 416.605469 168.765625 "/>
<path style=" stroke:none;fill-rule:nonzero;fill:rgb(100%,0%,0%);fill-opacity:1;" d="M 489.277344 183.425781 C 489.277344 184.761719 487.277344 184.761719 487.277344 183.425781 C 487.277344 182.09375 489.277344 182.09375 489.277344 183.425781 "/>
<path style=" stroke:none;fill-rule:nonzero;fill:rgb(100%,0%,0%);fill-opacity:1;" d="M 485.011719 196.078125 C 485.011719 197.414062 483.011719 197.414062 483.011719 196.078125 C 483.011719 194.746094 485.011719 194.746094 485.011719 196.078125 "/>
<path style=" stroke:none;fill-rule:nonzero;fill:rgb(100%,0%,0%);fill-opacity:1;" d="M 224.003906 308.132812 C 224.003906 309.46875 222.003906 309.46875 222.003906 308.132812 C 222.003906 306.800781 224.003906 306.800781 224.003906 308.132812 "/>
<path style=" stroke:none;fill-rule:nonzero;fill:rgb(100%,0%,0%);fill-opacity:1;" d="M 225.027344 294.984375 C 225.027344 296.316406 223.027344 296.316406 223.027344 294.984375 C 223.027344 293.648438 225.027344 293.648438 225.027344 294.984375 "/>
<path style=" stroke:none;fill-rule:nonzero;fill:rgb(100%,0%,0%);fill-opacity:1;" d="M 321.9375 215.746094 C 321.9375 217.078125 319.9375 217.078125 319.9375 215.746094 C 319.9375 214.414062 321.9375 214.414062 321.9375 215.746094 "/>
<path style=" stroke:none;fill-rule:nonzero;fill:rgb(100%,0%,0%);fill-opacity:1;" d="M 334.628906 217.269531 C 334.628906 218.601562 332.628906 218.601562 332.628906 217.269531 C 332.628906 215.933594 334.628906 215.933594 334.628906 217.269531 "/>
<path style=" stroke:none;fill-rule:nonzero;fill:rgb(100%,0%,0%);fill-opacity:1;" d="M 405.433594 525.160156 C 405.433594 526.492188 403.433594 526.492188 403.433594 525.160156 C 403.433594 523.824219 405.433594 523.824219 405.433594 525.160156 "/>
<path style=" stroke:none;fill-rule:nonzero;fill:rgb(100%,0%,0%);fill-opacity:1;" d="M 417.125 519.351562 C 417.125 520.683594 415.125 520.683594 415.125 519.351562 C 415.125 518.019531 417.125 518.019531 417.125 519.351562 "/>
<path style=" stroke:none;fill-rule:nonzero;fill:rgb(100%,0%,0%);fill-opacity:1;" d="M 186.085938 145.195312 C 186.085938 146.527344 184.085938 146.527344 184.085938 145.195312 C 184.085938 143.863281 186.085938 143.863281 186.085938 145.195312 "/>
<path style=" stroke:none;fill-rule:nonzero;fill:rgb(100%,0%,0%);fill-opacity:1;" d="M 189.386719 158.085938 C 189.386719 159.417969 187.386719 159.417969 187.386719 158.085938 C 187.386719 156.753906 189.386719 156.753906 189.386719 158.085938 "/>
<path style=" stroke:none;fill-rule:nonzero;fill:rgb(100%,0%,0%);fill-opacity:1;" d="M 343.378906 577.195312 C 343.378906 578.527344 341.378906 578.527344 341.378906 577.195312 C 341.378906 575.863281 343.378906 575.863281 343.378906 577.195312 "/>
<path style=" stroke:none;fill-rule:nonzero;fill:rgb(100%,0%,0%);fill-opacity:1;" d="M 330.5625 580 C 330.5625 581.332031 328.5625 581.332031 328.5625 580 C 328.5625 578.667969 330.5625 578.667969 330.5625 580 "/>
<path style=" stroke:none;fill-rule:nonzero;fill:rgb(100%,0%,0%);fill-opacity:1;" d="M 302.089844 267.046875 C 302.089844 268.378906 300.089844 268.378906 300.089844 267.046875 C 300.089844 265.714844 302.089844 265.714844 302.089844 267.046875 "/>
<path style=" stroke:none;fill-rule:nonzero;fill:rgb(100%,0%,0%);fill-opacity:1;" d="M 301.6875 253.773438 C 301.6875 255.109375 299.6875 255.109375 299.6875 253.773438 C 299.6875 252.441406 301.6875 252.441406 301.6875 253.773438 "/>
<path style=" stroke:none;fill-rule:nonzero;fill:rgb(100%,0%,0%);fill-opacity:1;" d="M 86.828125 271.882812 C 86.828125 273.214844 84.828125 273.214844 84.828125 271.882812 C 84.828125 270.550781 86.828125 270.550781 86.828125 271.882812 "/>
<path style=" stroke:none;fill-rule:nonzero;fill:rgb(100%,0%,0%);fill-opacity:1;" d="M 90.296875 284.664062 C 90.296875 286 88.296875 286 88.296875 284.664062 C 88.296875 283.332031 90.296875 283.332031 90.296875 284.664062 "/>
<path style=" stroke:none;fill-rule:nonzero;fill:rgb(100%,0%,0%);fill-opacity:1;" d="M 324.195312 407.027344 C 324.195312 408.363281 322.195312 408.363281 322.195312 407.027344 C 322.195312 405.695312 324.195312 405.695312 324.195312 407.027344 "/>
<path style=" stroke:none;fill-rule:nonzero;fill:rgb(100%,0%,0%);fill-opacity:1;" d="M 328.183594 394.410156 C 328.183594 395.742188 326.183594 395.742188 326.183594 394.410156 C 326.183594 393.074219 328.183594 393.074219 328.183594 394.410156 "/>
<path style=" stroke:none;fill-rule:nonzero;fill:rgb(100%,0%,0%);fill-opacity:1;" d="M 21.996094 338.253906 C 21.996094 339.585938 19.996094 339.585938 19.996094 338.253906 C 19.996094 336.917969 21.996094 336.917969 21.996094 338.253906 "/>
<path style=" stroke:none;fill-rule:nonzero;fill:rgb(100%,0%,0%);fill-opacity:1;" d="M 21 324.789062 C 21 326.121094 19 326.121094 19 324.789062 C 19 323.453125 21 323.453125 21 324.789062 "/>
<path style=" stroke:none;fill-rule:nonzero;fill:rgb(100%,0%,0%);fill-opacity:1;" d="M 132.007812 511.957031 C 132.007812 513.292969 130.007812 513.292969 130.007812 511.957031 C 130.007812 510.625 132.007812 510.625 132.007812 511.957031 "/>
<path style=" stroke:none;fill-rule:nonzero;fill:rgb(100%,0%,0%);fill-opacity:1;" d="M 139.261719 523.121094 C 139.261719 524.453125 137.261719 524.453125 137.261719 523.121094 C 137.261719 521.789062 139.261719 521.789062 139.261719 523.121094 "/>
<path style=" stroke:none;fill-rule:nonzero;fill:rgb(100%,0%,0%);fill-opacity:1;" d="M 380.421875 304.023438 C 380.421875 305.355469 378.421875 305.355469 378.421875 304.023438 C 378.421875 302.691406 380.421875 302.691406 380.421875 304.023438 "/>
<path style=" stroke:none;fill-rule:nonzero;fill:rgb(100%,0%,0%);fill-opacity:1;" d="M 391.453125 310.816406 C 391.453125 312.148438 389.453125 312.148438 389.453125 310.816406 C 389.453125 309.484375 391.453125 309.484375 391.453125 310.816406 "/>
<path style=" stroke:none;fill-rule:nonzero;fill:rgb(100%,0%,0%);fill-opacity:1;" d="M 274.839844 397.019531 C 274.839844 398.355469 272.839844 398.355469 272.839844 397.019531 C 272.839844 395.6875 274.839844 395.6875 274.839844 397.019531 "/>
<path style=" stroke:none;fill-rule:nonzero;fill:rgb(100%,0%,0%);fill-opacity:1;" d="M 262.054688 398.289062 C 262.054688 399.625 260.054688 399.625 260.054688 398.289062 C 260.054688 396.957031 262.054688 396.957031 262.054688 398.289062 "/>
<path style=" stroke:none;fill-rule:nonzero;fill:rgb(100%,0%,0%);fill-opacity:1;" d="M 289.945312 21.40625 C 289.945312 22.738281 287.945312 22.738281 287.945312 21.40625 C 287.945312 20.074219 289.945312 20.074219 289.945312 21.40625 "/>
<path style=" stroke:none;fill-rule:nonzero;fill:rgb(100%,0%,0%);fill-opacity:1;" d="M 302.871094 20 C 302.871094 21.332031 300.871094 21.332031 300.871094 20 C 300.871094 18.667969 302.871094 18.667969 302.871094 20 "/>
<path style=" stroke:none;fill-rule:nonzero;fill:rgb(100%,0%,0%);fill-opacity:1;" d="M 482.972656 453.976562 C 482.972656 455.308594 480.972656 455.308594 480.972656 453.976562 C 480.972656 452.644531 482.972656 452.644531 482.972656 453.976562 "/>
<path style=" stroke:none;fill-rule:nonzero;fill:rgb(100%,0%,0%);fill-opacity:1;" d="M 494.871094 470.6875 C 494.871094 472.019531 492.871094 472.019531 492.871094 470.6875 C 492.871094 469.355469 494.871094 469.355469 494.871094 470.6875 "/>
<path style=" stroke:none;fill-rule:nonzero;fill:rgb(100%,0%,0%);fill-opacity:1;" d="M 302.636719 353.71875 C 302.636719 355.050781 300.636719 355.050781 300.636719 353.71875 C 300.636719 352.386719 302.636719 352.386719 302.636719 353.71875 "/>
<path style=" stroke:none;fill-rule:nonzero;fill:rgb(100%,0%,0%);fill-opacity:1;" d="M 301.738281 340.4375 C 301.738281 341.769531 299.738281 341.769531 299.738281 340.4375 C 299.738281 339.105469 301.738281 339.105469 301.738281 340.4375 "/>
<path style=" stroke:none;fill-rule:nonzero;fill:rgb(100%,0%,0%);fill-opacity:1;" d="M 519.199219 319.722656 C 519.199219 321.054688 517.199219 321.054688 517.199219 319.722656 C 517.199219 318.386719 519.199219 318.386719 519.199219 319.722656 "/>
<path style=" stroke:none;fill-rule:nonzero;fill:rgb(100%,0%,0%);fill-opacity:1;" d="M 511.167969 309.210938 C 511.167969 310.542969 509.167969 310.542969 509.167969 309.210938 C 509.167969 307.878906 511.167969 307.878906 511.167969 309.210938 "/>
<path style=" stroke:none;fill-rule:nonzero;fill:rgb(100%,0%,0%);fill-opacity:1;" d="M 127.410156 443.847656 C 127.410156 445.183594 125.410156 445.183594 125.410156 443.847656 C 125.410156 442.515625 127.410156 442.515625 127.410156 443.847656 "/>
<path style=" stroke:none;fill-rule:nonzero;fill:rgb(100%,0%,0%);fill-opacity:1;" d="M 124.089844 430.855469 C 124.089844 432.191406 122.089844 432.191406 122.089844 430.855469 C 122.089844 429.523438 124.089844 429.523438 124.089844 430.855469 "/>
<path style=" stroke:none;fill-rule:nonzero;fill:rgb(100%,0%,0%);fill-opacity:1;" d="M 244.613281 154.023438 C 244.613281 155.359375 242.613281 155.359375 242.613281 154.023438 C 242.613281 152.691406 244.613281 152.691406 244.613281 154.023438 "/>
<path style=" stroke:none;fill-rule:nonzero;fill:rgb(100%,0%,0%);fill-opacity:1;" d="M 236.058594 144.105469 C 236.058594 145.4375 234.058594 145.4375 234.058594 144.105469 C 234.058594 142.769531 236.058594 142.769531 236.058594 144.105469 "/>
<path style=" stroke:none;fill-rule:nonzero;fill:rgb(100%,0%,0%);fill-opacity:1;" d="M 420.554688 452.121094 C 420.554688 453.457031 418.554688 453.457031 418.554688 452.121094 C 418.554688 450.789062 420.554688 450.789062 420.554688 452.121094 "/>
<path style=" stroke:none;fill-rule:nonzero;fill:rgb(100%,0%,0%);fill-opacity:1;" d="M 414.976562 464.183594 C 414.976562 465.519531 412.976562 465.519531 412.976562 464.183594 C 412.976562 462.851562 414.976562 462.851562 414.976562 464.183594 "/>
<path style=" stroke:none;fill-rule:nonzero;fill:rgb(100%,0%,0%);fill-opacity:1;" d="M 450.832031 71.105469 C 450.832031 72.4375 448.832031 72.4375 448.832031 71.105469 C 448.832031 69.773438 450.832031 69.773438 450.832031 71.105469 "/>
<path style=" stroke:none;fill-rule:nonzero;fill:rgb(100%,0%,0%);fill-opacity:1;" d="M 442.949219 60.441406 C 442.949219 61.773438 440.949219 61.773438 440.949219 60.441406 C 440.949219 59.109375 442.949219 59.109375 442.949219 60.441406 "/>
<path style=" stroke:none;fill-rule:nonzero;fill:rgb(100%,0%,0%);fill-opacity:1;" d="M 266.679688 528.65625 C 266.679688 529.992188 264.679688 529.992188 264.679688 528.65625 C 264.679688 527.324219 266.679688 527.324219 266.679688 528.65625 "/>
<path style=" stroke:none;fill-rule:nonzero;fill:rgb(100%,0%,0%);fill-opacity:1;" d="M 256.4375 520.542969 C 256.4375 521.875 254.4375 521.875 254.4375 520.542969 C 254.4375 519.210938 256.4375 519.210938 256.4375 520.542969 "/>
<path style=" stroke:none;fill-rule:nonzero;fill:rgb(100%,0%,0%);fill-opacity:1;" d="M 73.035156 389.828125 C 73.035156 391.160156 71.035156 391.160156 71.035156 389.828125 C 71.035156 388.496094 73.035156 388.496094 73.035156 389.828125 "/>
<path style=" stroke:none;fill-rule:nonzero;fill:rgb(100%,0%,0%);fill-opacity:1;" d="M 85.996094 388.871094 C 85.996094 390.203125 83.996094 390.203125 83.996094 388.871094 C 83.996094 387.539062 85.996094 387.539062 85.996094 388.871094 "/>
<path style=" stroke:none;fill-rule:nonzero;fill:rgb(100%,0%,0%);fill-opacity:1;" d="M 228.238281 200.074219 C 228.238281 201.40625 226.238281 201.40625 226.238281 200.074219 C 226.238281 198.742188 228.238281 198.742188 228.238281 200.074219 "/>
<path style=" stroke:none;fill-rule:nonzero;fill:rgb(100%,0%,0%);fill-opacity:1;" d="M 239.078125 207.335938 C 239.078125 208.667969 237.078125 208.667969 237.078125 207.335938 C 237.078125 206.003906 239.078125 206.003906 239.078125 207.335938 "/>
<path style=" stroke:none;fill-rule:nonzero;fill:rgb(100%,0%,0%);fill-opacity:1;" d="M 74.636719 170.253906 C 74.636719 171.585938 72.636719 171.585938 72.636719 170.253906 C 72.636719 168.921875 74.636719 168.921875 74.636719 170.253906 "/>
<path style=" stroke:none;fill-rule:nonzero;fill:rgb(100%,0%,0%);fill-opacity:1;" d="M 70.367188 157.582031 C 70.367188 158.917969 68.367188 158.917969 68.367188 157.582031 C 68.367188 156.25 70.367188 156.25 70.367188 157.582031 "/>
<path style=" stroke:none;fill-rule:nonzero;fill:rgb(100%,0%,0%);fill-opacity:1;" d="M 145.058594 356.558594 C 145.058594 357.890625 143.058594 357.890625 143.058594 356.558594 C 143.058594 355.226562 145.058594 355.226562 145.058594 356.558594 "/>
<path style=" stroke:none;fill-rule:nonzero;fill:rgb(100%,0%,0%);fill-opacity:1;" d="M 140.046875 368.816406 C 140.046875 370.152344 138.046875 370.152344 138.046875 368.816406 C 138.046875 367.484375 140.046875 367.484375 140.046875 368.816406 "/>
<path style=" stroke:none;fill-rule:nonzero;fill:rgb(100%,0%,0%);fill-opacity:1;" d="M 581 279.328125 C 581 280.660156 579 280.660156 579 279.328125 C 579 277.992188 581 277.992188 581 279.328125 "/>
<path style=" stroke:none;fill-rule:nonzero;fill:rgb(100%,0%,0%);fill-opacity:1;" d="M 578.242188 292.53125 C 578.242188 293.863281 576.242188 293.863281 576.242188 292.53125 C 576.242188 291.199219 578.242188 291.199219 578.242188 292.53125 "/>
<path style=" stroke:none;fill-rule:nonzero;fill:rgb(100%,0%,0%);fill-opacity:1;" d="M 365.902344 243.945312 C 365.902344 245.277344 363.902344 245.277344 363.902344 243.945312 C 363.902344 242.613281 365.902344 242.613281 365.902344 243.945312 "/>
<path style=" stroke:none;fill-rule:nonzero;fill:rgb(100%,0%,0%);fill-opacity:1;" d="M 363 256.925781 C 363 258.261719 361 258.261719 361 256.925781 C 361 255.59375 363 255.59375 363 256.925781 "/>
<path style=" stroke:none;fill-rule:nonzero;fill:rgb(100%,0%,0%);fill-opacity:1;" d="M 233.132812 453.347656 C 233.132812 454.679688 231.132812 454.679688 231.132812 453.347656 C 231.132812 452.011719 233.132812 452.011719 233.132812 453.347656 "/>
<path style=" stroke:none;fill-rule:nonzero;fill:rgb(100%,0%,0%);fill-opacity:1;" d="M 237.894531 465.785156 C 237.894531 467.117188 235.894531 467.117188 235.894531 465.785156 C 235.894531 464.449219 237.894531 464.449219 237.894531 465.785156 "/>
<path style=" stroke:none;fill-rule:nonzero;fill:rgb(100%,0%,0%);fill-opacity:1;" d="M 122.230469 232.820312 C 122.230469 234.152344 120.230469 234.152344 120.230469 232.820312 C 120.230469 231.484375 122.230469 231.484375 122.230469 232.820312 "/>
<path style=" stroke:none;fill-rule:nonzero;fill:rgb(100%,0%,0%);fill-opacity:1;" d="M 111.894531 224.75 C 111.894531 226.082031 109.894531 226.082031 109.894531 224.75 C 109.894531 223.414062 111.894531 223.414062 111.894531 224.75 "/>
<path style=" stroke:none;fill-rule:nonzero;fill:rgb(100%,0%,0%);fill-opacity:1;" d="M 207.863281 350.175781 C 207.863281 351.507812 205.863281 351.507812 205.863281 350.175781 C 205.863281 348.839844 207.863281 348.839844 207.863281 350.175781 "/>
<path style=" stroke:none;fill-rule:nonzero;fill:rgb(100%,0%,0%);fill-opacity:1;" d="M 195.402344 346.691406 C 195.402344 348.023438 193.402344 348.023438 193.402344 346.691406 C 193.402344 345.359375 195.402344 345.359375 195.402344 346.691406 "/>
<path style=" stroke:none;fill-rule:nonzero;fill:rgb(100%,0%,0%);fill-opacity:1;" d="M 68.664062 450.367188 C 68.664062 451.699219 66.664062 451.699219 66.664062 450.367188 C 66.664062 449.03125 68.664062 449.03125 68.664062 450.367188 "/>
<path style=" stroke:none;fill-rule:nonzero;fill:rgb(100%,0%,0%);fill-opacity:1;" d="M 76.398438 461.191406 C 76.398438 462.523438 74.398438 462.523438 74.398438 461.191406 C 74.398438 459.859375 76.398438 459.859375 76.398438 461.191406 "/>
<path style=" stroke:none;fill-rule:nonzero;fill:rgb(100%,0%,0%);fill-opacity:1;" d="M 462.726562 399.507812 C 462.726562 400.839844 460.726562 400.839844 460.726562 399.507812 C 460.726562 398.175781 462.726562 398.175781 462.726562 399.507812 "/>
<path style=" stroke:none;fill-rule:nonzero;fill:rgb(100%,0%,0%);fill-opacity:1;" d="M 450.066406 402.296875 C 450.066406 403.628906 448.066406 403.628906 448.066406 402.296875 C 448.066406 400.960938 450.066406 400.960938 450.066406 402.296875 "/>
<path style=" stroke:none;fill-rule:nonzero;fill:rgb(100%,0%,0%);fill-opacity:1;" d="M 204.394531 245.683594 C 204.394531 247.015625 202.394531 247.015625 202.394531 245.683594 C 202.394531 244.351562 204.394531 244.351562 204.394531 245.683594 "/>
<path style=" stroke:none;fill-rule:nonzero;fill:rgb(100%,0%,0%);fill-opacity:1;" d="M 217.164062 247.152344 C 217.164062 248.488281 215.164062 248.488281 215.164062 247.152344 C 215.164062 245.820312 217.164062 245.820312 217.164062 247.152344 "/>
<path style=" stroke:none;fill-rule:nonzero;fill:rgb(100%,0%,0%);fill-opacity:1;" d="M 169.582031 420.296875 C 169.582031 421.632812 167.582031 421.632812 167.582031 420.296875 C 167.582031 418.964844 169.582031 418.964844 169.582031 420.296875 "/>
<path style=" stroke:none;fill-rule:nonzero;fill:rgb(100%,0%,0%);fill-opacity:1;" d="M 178.785156 429.6875 C 178.785156 431.019531 176.785156 431.019531 176.785156 429.6875 C 176.785156 428.355469 178.785156 428.355469 178.785156 429.6875 "/>
<path style=" stroke:none;fill-rule:nonzero;fill:rgb(100%,0%,0%);fill-opacity:1;" d="M 245.625 75.828125 C 245.625 77.164062 243.625 77.164062 243.625 75.828125 C 243.625 74.496094 245.625 74.496094 245.625 75.828125 "/>
<path style=" stroke:none;fill-rule:nonzero;fill:rgb(100%,0%,0%);fill-opacity:1;" d="M 234.957031 83.441406 C 234.957031 84.777344 232.957031 84.777344 232.957031 83.441406 C 232.957031 82.109375 234.957031 82.109375 234.957031 83.441406 "/>
<path style=" stroke:none;fill-rule:nonzero;fill:rgb(100%,0%,0%);fill-opacity:1;" d="M 175.871094 210.4375 C 175.871094 211.773438 173.871094 211.773438 173.871094 210.4375 C 173.871094 209.105469 175.871094 209.105469 175.871094 210.4375 "/>
<path style=" stroke:none;fill-rule:nonzero;fill:rgb(100%,0%,0%);fill-opacity:1;" d="M 163.277344 212.847656 C 163.277344 214.183594 161.277344 214.183594 161.277344 212.847656 C 161.277344 211.515625 163.277344 211.515625 163.277344 212.847656 "/>
<path style=" stroke:none;fill-rule:nonzero;fill:rgb(100%,0%,0%);fill-opacity:1;" d="M 177.988281 294.632812 C 177.988281 295.964844 175.988281 295.964844 175.988281 294.632812 C 175.988281 293.296875 177.988281 293.296875 177.988281 294.632812 "/>
<path style=" stroke:none;fill-rule:nonzero;fill:rgb(100%,0%,0%);fill-opacity:1;" d="M 176.257812 281.363281 C 176.257812 282.699219 174.257812 282.699219 174.257812 281.363281 C 174.257812 280.03125 176.257812 280.03125 176.257812 281.363281 "/>
<path style=" stroke:none;fill-rule:nonzero;fill:rgb(100%,0%,0%);fill-opacity:1;" d="M 396.597656 115.339844 C 396.597656 116.671875 394.597656 116.671875 394.597656 115.339844 C 394.597656 114.003906 396.597656 114.003906 396.597656 115.339844 "/>
<path style=" stroke:none;fill-rule:nonzero;fill:rgb(100%,0%,0%);fill-opacity:1;" d="M 409.507812 115.683594 C 409.507812 117.019531 407.507812 117.019531 407.507812 115.683594 C 407.507812 114.351562 409.507812 114.351562 409.507812 115.683594 "/>
<path style=" stroke:none;fill-rule:nonzero;fill:rgb(100%,0%,0%);fill-opacity:1;" d="M 284.097656 118.148438 C 284.097656 119.484375 282.097656 119.484375 282.097656 118.148438 C 282.097656 116.816406 284.097656 116.816406 284.097656 118.148438 "/>
<path style=" stroke:none;fill-rule:nonzero;fill:rgb(100%,0%,0%);fill-opacity:1;" d="M 282.191406 104.980469 C 282.191406 106.3125 280.191406 106.3125 280.191406 104.980469 C 280.191406 103.648438 282.191406 103.648438 282.191406 104.980469 "/>
<path style=" stroke:none;fill-rule:nonzero;fill:rgb(100%,0%,0%);fill-opacity:1;" d="M 333.558594 74.371094 C 333.558594 75.707031 331.558594 75.707031 331.558594 74.371094 C 331.558594 73.039062 333.558594 73.039062 333.558594 74.371094 "/>
<path style=" stroke:none;fill-rule:nonzero;fill:rgb(100%,0%,0%);fill-opacity:1;" d="M 321.355469 70.035156 C 321.355469 71.371094 319.355469 71.371094 319.355469 70.035156 C 319.355469 68.703125 321.355469 68.703125 321.355469 70.035156 "/>
<path style=" stroke:none;fill-rule:nonzero;fill:rgb(100%,0%,0%);fill-opacity:1;" d="M 216.539062 398.109375 C 216.539062 399.441406 214.539062 399.441406 214.539062 398.109375 C 214.539062 396.777344 216.539062 396.777344 216.539062 398.109375 "/>
<path style=" stroke:none;fill-rule:nonzero;fill:rgb(100%,0%,0%);fill-opacity:1;" d="M 204.75 392.738281 C 204.75 394.070312 202.75 394.070312 202.75 392.738281 C 202.75 391.402344 204.75 391.402344 204.75 392.738281 "/>
<path style=" stroke:none;fill-rule:nonzero;fill:rgb(100%,0%,0%);fill-opacity:1;" d="M 290.441406 451.179688 C 290.441406 452.511719 288.441406 452.511719 288.441406 451.179688 C 288.441406 449.847656 290.441406 449.847656 290.441406 451.179688 "/>
<path style=" stroke:none;fill-rule:nonzero;fill:rgb(100%,0%,0%);fill-opacity:1;" d="M 278.714844 445.976562 C 278.714844 447.308594 276.714844 447.308594 276.714844 445.976562 C 276.714844 444.640625 278.714844 444.640625 278.714844 445.976562 "/>
<path style=" stroke:none;fill-rule:nonzero;fill:rgb(100%,0%,0%);fill-opacity:1;" d="M 361.214844 354.59375 C 361.214844 355.925781 359.214844 355.925781 359.214844 354.59375 C 359.214844 353.257812 361.214844 353.257812 361.214844 354.59375 "/>
<path style=" stroke:none;fill-rule:nonzero;fill:rgb(100%,0%,0%);fill-opacity:1;" d="M 350.792969 346.890625 C 350.792969 348.222656 348.792969 348.222656 348.792969 346.890625 C 348.792969 345.558594 350.792969 345.558594 350.792969 346.890625 "/>
<path style=" stroke:none;fill-rule:nonzero;fill:rgb(100%,0%,0%);fill-opacity:1;" d="M 181.371094 481.246094 C 181.371094 482.578125 179.371094 482.578125 179.371094 481.246094 C 179.371094 479.914062 181.371094 479.914062 181.371094 481.246094 "/>
<path style=" stroke:none;fill-rule:nonzero;fill:rgb(100%,0%,0%);fill-opacity:1;" d="M 193.339844 486.265625 C 193.339844 487.597656 191.339844 487.597656 191.339844 486.265625 C 191.339844 484.929688 193.339844 484.929688 193.339844 486.265625 "/>
<path style=" stroke:none;fill-rule:nonzero;fill:rgb(100%,0%,0%);fill-opacity:1;" d="M 319.496094 481.851562 C 319.496094 483.183594 317.496094 483.183594 317.496094 481.851562 C 317.496094 480.519531 319.496094 480.519531 319.496094 481.851562 "/>
<path style=" stroke:none;fill-rule:nonzero;fill:rgb(100%,0%,0%);fill-opacity:1;" d="M 332.15625 484.527344 C 332.15625 485.859375 330.15625 485.859375 330.15625 484.527344 C 330.15625 483.195312 332.15625 483.195312 332.15625 484.527344 "/>
<path style=" stroke:none;fill-rule:nonzero;fill:rgb(100%,0%,0%);fill-opacity:1;" d="M 464.214844 141.347656 C 464.214844 142.679688 462.214844 142.679688 462.214844 141.347656 C 462.214844 140.015625 464.214844 140.015625 464.214844 141.347656 "/>
<path style=" stroke:none;fill-rule:nonzero;fill:rgb(100%,0%,0%);fill-opacity:1;" d="M 471.238281 130.09375 C 471.238281 131.429688 469.238281 131.429688 469.238281 130.09375 C 469.238281 128.761719 471.238281 128.761719 471.238281 130.09375 "/>
<path style=" stroke:none;fill-rule:nonzero;fill:rgb(100%,0%,0%);fill-opacity:1;" d="M 365.121094 185.332031 C 365.121094 186.664062 363.121094 186.664062 363.121094 185.332031 C 363.121094 183.996094 365.121094 183.996094 365.121094 185.332031 "/>
<path style=" stroke:none;fill-rule:nonzero;fill:rgb(100%,0%,0%);fill-opacity:1;" d="M 366.839844 172.125 C 366.839844 173.457031 364.839844 173.457031 364.839844 172.125 C 364.839844 170.792969 366.839844 170.792969 366.839844 172.125 "/>
<path style=" stroke:none;fill-rule:nonzero;fill:rgb(100%,0%,0%);fill-opacity:1;" d="M 412.234375 351.859375 C 412.234375 353.191406 410.234375 353.191406 410.234375 351.859375 C 410.234375 350.523438 412.234375 350.523438 412.234375 351.859375 "/>
<path style=" stroke:none;fill-rule:nonzero;fill:rgb(100%,0%,0%);fill-opacity:1;" d="M 413.238281 365.128906 C 413.238281 366.460938 411.238281 366.460938 411.238281 365.128906 C 411.238281 363.796875 413.238281 363.796875 413.238281 365.128906 "/>
<path style=" stroke:none;fill-rule:nonzero;fill:rgb(100%,0%,0%);fill-opacity:1;" d="M 136.789062 160.75 C 136.789062 162.085938 134.789062 162.085938 134.789062 160.75 C 134.789062 159.417969 136.789062 159.417969 136.789062 160.75 "/>
<path style=" stroke:none;fill-rule:nonzero;fill:rgb(100%,0%,0%);fill-opacity:1;" d="M 128.21875 170.726562 C 128.21875 172.058594 126.21875 172.058594 126.21875 170.726562 C 126.21875 169.390625 128.21875 169.390625 128.21875 170.726562 "/>
<path style=" stroke:none;fill-rule:nonzero;fill:rgb(100%,0%,0%);fill-opacity:1;" d="M 283.972656 191.902344 C 283.972656 193.234375 281.972656 193.234375 281.972656 191.902344 C 281.972656 190.566406 283.972656 190.566406 283.972656 191.902344 "/>
<path style=" stroke:none;fill-rule:nonzero;fill:rgb(100%,0%,0%);fill-opacity:1;" d="M 291.367188 179.855469 C 291.367188 181.1875 289.367188 181.1875 289.367188 179.855469 C 289.367188 178.519531 291.367188 178.519531 291.367188 179.855469 "/>
<path style=" stroke:none;fill-rule:nonzero;fill:rgb(100%,0%,0%);fill-opacity:1;" d="M 378.621094 401.839844 C 378.621094 403.171875 376.621094 403.171875 376.621094 401.839844 C 376.621094 400.503906 378.621094 400.503906 378.621094 401.839844 "/>
<path style=" stroke:none;fill-rule:nonzero;fill:rgb(100%,0%,0%);fill-opacity:1;" d="M 390.207031 407.695312 C 390.207031 409.027344 388.207031 409.027344 388.207031 407.695312 C 388.207031 406.359375 390.207031 406.359375 390.207031 407.695312 "/>
<path style=" stroke:none;fill-rule:nonzero;fill:rgb(100%,0%,0%);fill-opacity:1;" d="M 332.691406 529.214844 C 332.691406 530.546875 330.691406 530.546875 330.691406 529.214844 C 330.691406 527.882812 332.691406 527.882812 332.691406 529.214844 "/>
<path style=" stroke:none;fill-rule:nonzero;fill:rgb(100%,0%,0%);fill-opacity:1;" d="M 319.71875 530.921875 C 319.71875 532.257812 317.71875 532.257812 317.71875 530.921875 C 317.71875 529.589844 319.71875 529.589844 319.71875 530.921875 "/>
<path style=" stroke:none;fill-rule:nonzero;fill:rgb(100%,0%,0%);fill-opacity:1;" d="M 299.109375 168.070312 C 299.109375 169.402344 297.109375 169.402344 297.109375 168.070312 C 297.109375 166.738281 299.109375 166.738281 299.109375 168.070312 "/>
<path style=" stroke:none;fill-rule:nonzero;fill:rgb(100%,0%,0%);fill-opacity:1;" d="M 434.484375 214.320312 C 434.484375 215.652344 432.484375 215.652344 432.484375 214.320312 C 432.484375 212.988281 434.484375 212.988281 434.484375 214.320312 "/>
<path style=" stroke:none;fill-rule:nonzero;fill:rgb(100%,0%,0%);fill-opacity:1;" d="M 444.042969 223.164062 C 444.042969 224.5 442.042969 224.5 442.042969 223.164062 C 442.042969 221.832031 444.042969 221.832031 444.042969 223.164062 "/>
<path style=" stroke:none;fill-rule:nonzero;fill:rgb(100%,0%,0%);fill-opacity:1;" d="M 528.164062 261.839844 C 528.164062 263.171875 526.164062 263.171875 526.164062 261.839844 C 526.164062 260.507812 528.164062 260.507812 528.164062 261.839844 "/>
<path style=" stroke:none;fill-rule:nonzero;fill:rgb(100%,0%,0%);fill-opacity:1;" d="M 532.464844 249.289062 C 532.464844 250.625 530.464844 250.625 530.464844 249.289062 C 530.464844 247.957031 532.464844 247.957031 532.464844 249.289062 "/>
<path style=" stroke:none;fill-rule:nonzero;fill:rgb(100%,0%,0%);fill-opacity:1;" d="M 323.378906 304.441406 C 323.378906 305.773438 321.378906 305.773438 321.378906 304.441406 C 321.378906 303.109375 323.378906 303.109375 323.378906 304.441406 "/>
<path style=" stroke:none;fill-rule:nonzero;fill:rgb(100%,0%,0%);fill-opacity:1;" d="M 333.167969 295.871094 C 333.167969 297.203125 331.167969 297.203125 331.167969 295.871094 C 331.167969 294.539062 333.167969 294.539062 333.167969 295.871094 "/>
<path style=" stroke:none;fill-rule:nonzero;fill:rgb(100%,0%,0%);fill-opacity:1;" d="M 72.960938 328.675781 C 72.960938 330.011719 70.960938 330.011719 70.960938 328.675781 C 70.960938 327.34375 72.960938 327.34375 72.960938 328.675781 "/>
<path style=" stroke:none;fill-rule:nonzero;fill:rgb(100%,0%,0%);fill-opacity:1;" d="M 83.414062 336.550781 C 83.414062 337.882812 81.414062 337.882812 81.414062 336.550781 C 81.414062 335.21875 83.414062 335.21875 83.414062 336.550781 "/>
<path style=" stroke:none;fill-rule:nonzero;fill:rgb(100%,0%,0%);fill-opacity:1;" d="M 471.597656 347.140625 C 471.597656 348.476562 469.597656 348.476562 469.597656 347.140625 C 469.597656 345.808594 471.597656 345.808594 471.597656 347.140625 "/>
<path style=" stroke:none;fill-rule:nonzero;fill:rgb(100%,0%,0%);fill-opacity:1;" d="M 462.394531 336.390625 C 462.394531 337.722656 460.394531 337.722656 460.394531 336.390625 C 460.394531 335.054688 462.394531 335.054688 462.394531 336.390625 "/>
<path style=" stroke:none;fill-rule:nonzero;fill:rgb(100%,0%,0%);fill-opacity:1;" d="M 453.242188 325.601562 C 453.242188 326.933594 451.242188 326.933594 451.242188 325.601562 C 451.242188 324.269531 453.242188 324.269531 453.242188 325.601562 "/>
<path style=" stroke:none;fill-rule:nonzero;fill:rgb(100%,0%,0%);fill-opacity:1;" d="M 219.695312 27.417969 C 219.695312 28.75 217.695312 28.75 217.695312 27.417969 C 217.695312 26.085938 219.695312 26.085938 219.695312 27.417969 "/>
<path style=" stroke:none;fill-rule:nonzero;fill:rgb(100%,0%,0%);fill-opacity:1;" d="M 207.0625 30.691406 C 207.0625 32.027344 205.0625 32.027344 205.0625 30.691406 C 205.0625 29.359375 207.0625 29.359375 207.0625 30.691406 "/>
<path style=" stroke:none;fill-rule:nonzero;fill:rgb(100%,0%,0%);fill-opacity:1;" d="M 262.4375 274.667969 C 262.4375 276.003906 260.4375 276.003906 260.4375 274.667969 C 260.4375 273.335938 262.4375 273.335938 262.4375 274.667969 "/>
<path style=" stroke:none;fill-rule:nonzero;fill:rgb(100%,0%,0%);fill-opacity:1;" d="M 260.351562 261.425781 C 260.351562 262.761719 258.351562 262.761719 258.351562 261.425781 C 258.351562 260.09375 260.351562 260.09375 260.351562 261.425781 "/>
<path style=" stroke:none;fill-rule:nonzero;fill:rgb(100%,0%,0%);fill-opacity:1;" d="M 468.796875 263.085938 C 468.796875 264.417969 466.796875 264.417969 466.796875 263.085938 C 466.796875 261.753906 468.796875 261.753906 468.796875 263.085938 "/>
<path style=" stroke:none;fill-rule:nonzero;fill:rgb(100%,0%,0%);fill-opacity:1;" d="M 465.109375 275.832031 C 465.109375 277.167969 463.109375 277.167969 463.109375 275.832031 C 463.109375 274.5 465.109375 274.5 465.109375 275.832031 "/>
<path style=" stroke:none;fill-rule:nonzero;fill:rgb(100%,0%,0%);fill-opacity:1;" d="M 173.582031 86.15625 C 173.582031 87.492188 171.582031 87.492188 171.582031 86.15625 C 171.582031 84.824219 173.582031 84.824219 173.582031 86.15625 "/>
<path style=" stroke:none;fill-rule:nonzero;fill:rgb(100%,0%,0%);fill-opacity:1;" d="M 183.777344 94.355469 C 183.777344 95.6875 181.777344 95.6875 181.777344 94.355469 C 181.777344 93.023438 183.777344 93.023438 183.777344 94.355469 "/>
<path style=" stroke:none;fill-rule:nonzero;fill:rgb(100%,0%,0%);fill-opacity:1;" d="M 414.320312 268.4375 C 414.320312 269.769531 412.320312 269.769531 412.320312 268.4375 C 412.320312 267.105469 414.320312 267.105469 414.320312 268.4375 "/>
<path style=" stroke:none;fill-rule:nonzero;fill:rgb(100%,0%,0%);fill-opacity:1;" d="M 408.84375 256.359375 C 408.84375 257.695312 406.84375 257.695312 406.84375 256.359375 C 406.84375 255.027344 408.84375 255.027344 408.84375 256.359375 "/>
<path style=" stroke:none;fill-rule:nonzero;fill:rgb(100%,0%,0%);fill-opacity:1;" d="M 541.558594 186.027344 C 541.558594 187.359375 539.558594 187.359375 539.558594 186.027344 C 539.558594 184.695312 541.558594 184.695312 541.558594 186.027344 "/>
<path style=" stroke:none;fill-rule:nonzero;fill:rgb(100%,0%,0%);fill-opacity:1;" d="M 536.359375 198.324219 C 536.359375 199.65625 534.359375 199.65625 534.359375 198.324219 C 534.359375 196.988281 536.359375 196.988281 536.359375 198.324219 "/>
<path style=" stroke:none;fill-rule:nonzero;fill:rgb(100%,0%,0%);fill-opacity:1;" d="M 256.824219 345.6875 C 256.824219 347.023438 254.824219 347.023438 254.824219 345.6875 C 254.824219 344.355469 256.824219 344.355469 256.824219 345.6875 "/>
<path style=" stroke:none;fill-rule:nonzero;fill:rgb(100%,0%,0%);fill-opacity:1;" d="M 260.816406 332.96875 C 260.816406 334.300781 258.816406 334.300781 258.816406 332.96875 C 258.816406 331.636719 260.816406 331.636719 260.816406 332.96875 "/>
<path style=" stroke:none;fill-rule:nonzero;fill:rgb(100%,0%,0%);fill-opacity:1;" d="M 528.847656 384.519531 C 528.847656 385.851562 526.847656 385.851562 526.847656 384.519531 C 526.847656 383.183594 528.847656 383.183594 528.847656 384.519531 "/>
<path style=" stroke:none;fill-rule:nonzero;fill:rgb(100%,0%,0%);fill-opacity:1;" d="M 538.429688 375.484375 C 538.429688 376.816406 536.429688 376.816406 536.429688 375.484375 C 536.429688 374.152344 538.429688 374.152344 538.429688 375.484375 "/>
<path style=" stroke:none;fill-rule:nonzero;fill:rgb(100%,0%,0%);fill-opacity:1;" d="M 357.339844 447.585938 C 357.339844 448.917969 355.339844 448.917969 355.339844 447.585938 C 355.339844 446.25 357.339844 446.25 357.339844 447.585938 "/>
<path style=" stroke:none;fill-rule:nonzero;fill:rgb(100%,0%,0%);fill-opacity:1;" d="M 367.011719 456.503906 C 367.011719 457.835938 365.011719 457.835938 365.011719 456.503906 C 365.011719 455.167969 367.011719 455.167969 367.011719 456.503906 "/>
<path style=" stroke:none;fill-rule:nonzero;fill:rgb(100%,0%,0%);fill-opacity:1;" d="M 47.355469 228.964844 C 47.355469 230.296875 45.355469 230.296875 45.355469 228.964844 C 45.355469 227.632812 47.355469 227.632812 47.355469 228.964844 "/>
<path style=" stroke:none;fill-rule:nonzero;fill:rgb(100%,0%,0%);fill-opacity:1;" d="M 45.957031 242.308594 C 45.957031 243.640625 43.957031 243.640625 43.957031 242.308594 C 43.957031 240.972656 45.957031 240.972656 45.957031 242.308594 "/>
</g>
</svg>
