<?xml version="1.0" encoding="UTF-8"?>
<svg xmlns="http://www.w3.org/2000/svg" xmlns:xlink="http://www.w3.org/1999/xlink" width="600" height="600" viewBox="0 0 600 600">
<rect x="-60" y="-60" width="720" height="720" fill="rgb(100%, 100%, 100%)" fill-opacity="1"/>
<path fill="none" stroke-width="0.2" stroke-linecap="butt" stroke-linejoin="miter" stroke="rgb(26.666667%, 26.666667%, 26.666667%)" stroke-opacity="1" stroke-miterlimit="10" d="M 344.871094 315.738281 L 346.308594 302.433594 "/>
<path fill="none" stroke-width="0.2" stroke-linecap="butt" stroke-linejoin="miter" stroke="rgb(26.666667%, 26.666667%, 26.666667%)" stroke-opacity="1" stroke-miterlimit="10" d="M 147.089844 324.460938 L 147.582031 337.824219 "/>
<path fill-rule="nonzero" fill="rgb(100%, 0%, 0%)" fill-opacity="1" stroke-width="0.01" stroke-linecap="butt" stroke-linejoin="miter" stroke="rgb(0%, 0%, 0%)" stroke-opacity="1" stroke-miterlimit="10" d="M 410.421875 120.179688 C 410.421875 121.511719 408.421875 121.511719 408.421875 120.179688 C 408.421875 118.847656 410.421875 118.847656 410.421875 120.179688 "/>
<path fill-rule="nonzero" fill="rgb(100%, 0%, 0%)" fill-opacity="1" stroke-width="0.01" stroke-linecap="butt" stroke-linejoin="miter" stroke="rgb(0%, 0%, 0%)" stroke-opacity="1" stroke-miterlimit="10" d="M 171.800781 155.527344 C 171.800781 156.859375 169.800781 156.859375 169.800781 155.527344 C 169.800781 154.191406 171.800781 154.191406 171.800781 155.527344 "/>
<path fill-rule="nonzero" fill="rgb(100%, 0%, 0%)" fill-opacity="1" stroke-width="0.01" stroke-linecap="butt" stroke-linejoin="miter" stroke="rgb(0%, 0%, 0%)" stroke-opacity="1" stroke-miterlimit="10" d="M 102.773438 318.449219 C 102.773438 319.785156 100.773438 319.785156 100.773438 318.449219 C 100.773438 317.117188 102.773438 317.117188 102.773438 318.449219 "/>
<path fill-rule="nonzero" fill="rgb(100%, 0%, 0%)" fill-opacity="1" stroke-width="0.01" stroke-linecap="butt" stroke-linejoin="miter" stroke="rgb(0%, 0%, 0%)" stroke-opacity="1" stroke-miterlimit="10" d="M 387.058594 308.152344 C 387.058594 309.484375 385.058594 309.484375 385.058594 308.152344 C 385.058594 306.816406 387.058594 306.816406 387.058594 308.152344 "/>
<path fill-rule="nonzero" fill="rgb(100%, 0%, 0%)" fill-opacity="1" stroke-width="0.01" stroke-linecap="butt" stroke-linejoin="miter" stroke="rgb(0%, 0%, 0%)" stroke-opacity="1" stroke-miterlimit="10" d="M 166.246094 232.632812 C 166.246094 233.964844 164.246094 233.964844 164.246094 232.632812 C 164.246094 231.296875 166.246094 231.296875 166.246094 232.632812 "/>
<path fill-rule="nonzero" fill="rgb(100%, 0%, 0%)" fill-opacity="1" stroke-width="0.01" stroke-linecap="butt" stroke-linejoin="miter" stroke="rgb(0%, 0%, 0%)" stroke-opacity="1" stroke-miterlimit="10" d="M 300.664062 146.445312 C 300.664062 147.777344 298.664062 147.777344 298.664062 146.445312 C 298.664062 145.109375 300.664062 145.109375 300.664062 146.445312 "/>
<path fill-rule="nonzero" fill="rgb(100%, 0%, 0%)" fill-opacity="1" stroke-width="0.01" stroke-linecap="butt" stroke-linejoin="miter" stroke="rgb(0%, 0%, 0%)" stroke-opacity="1" stroke-miterlimit="10" d="M 296.121094 266.613281 C 296.121094 267.945312 294.121094 267.945312 294.121094 266.613281 C 294.121094 265.277344 296.121094 265.277344 296.121094 266.613281 "/>
<path fill-rule="nonzero" fill="rgb(100%, 0%, 0%)" fill-opacity="1" stroke-width="0.01" stroke-linecap="butt" stroke-linejoin="miter" stroke="rgb(0%, 0%, 0%)" stroke-opacity="1" stroke-miterlimit="10" d="M 429.898438 84.066406 C 429.898438 85.398438 427.898438 85.398438 427.898438 84.066406 C 427.898438 82.730469 429.898438 82.730469 429.898438 84.066406 "/>
<path fill-rule="nonzero" fill="rgb(100%, 0%, 0%)" fill-opacity="1" stroke-width="0.01" stroke-linecap="butt" stroke-linejoin="miter" stroke="rgb(0%, 0%, 0%)" stroke-opacity="1" stroke-miterlimit="10" d="M 21 353.917969 C 21 355.25 19 355.25 19 353.917969 C 19 352.585938 21 352.585938 21 353.917969 "/>
<path fill-rule="nonzero" fill="rgb(100%, 0%, 0%)" fill-opacity="1" stroke-width="0.01" stroke-linecap="butt" stroke-linejoin="miter" stroke="rgb(0%, 0%, 0%)" stroke-opacity="1" stroke-miterlimit="10" d="M 269.117188 103.449219 C 269.117188 104.78125 267.117188 104.78125 267.117188 103.449219 C 267.117188 102.117188 269.117188 102.117188 269.117188 103.449219 "/>
<path fill-rule="nonzero" fill="rgb(100%, 0%, 0%)" fill-opacity="1" stroke-width="0.01" stroke-linecap="butt" stroke-linejoin="miter" stroke="rgb(0%, 0%, 0%)" stroke-opacity="1" stroke-miterlimit="10" d="M 490.019531 452.136719 C 490.019531 453.46875 488.019531 453.46875 488.019531 452.136719 C 488.019531 450.804688 490.019531 450.804688 490.019531 452.136719 "/>
<path fill-rule="nonzero" fill="rgb(100%, 0%, 0%)" fill-opacity="1" stroke-width="0.01" stroke-linecap="butt" stroke-linejoin="miter" stroke="rgb(0%, 0%, 0%)" stroke-opacity="1" stroke-miterlimit="10" d="M 313.910156 110.003906 C 313.910156 111.335938 311.910156 111.335938 311.910156 110.003906 C 311.910156 108.671875 313.910156 108.671875 313.910156 110.003906 "/>
<path fill-rule="nonzero" fill="rgb(100%, 0%, 0%)" fill-opacity="1" stroke-width="0.01" stroke-linecap="butt" stroke-linejoin="miter" stroke="rgb(0%, 0%, 0%)" stroke-opacity="1" stroke-miterlimit="10" d="M 360.4375 476.988281 C 360.4375 478.320312 358.4375 478.320312 358.4375 476.988281 C 358.4375 475.652344 360.4375 475.652344 360.4375 476.988281 "/>
<path fill-rule="nonzero" fill="rgb(100%, 0%, 0%)" fill-opacity="1" stroke-width="0.01" stroke-linecap="butt" stroke-linejoin="miter" stroke="rgb(0%, 0%, 0%)" stroke-opacity="1" stroke-miterlimit="10" d="M 379.875 80.1875 C 379.875 81.519531 377.875 81.519531 377.875 80.1875 C 377.875 78.851562 379.875 78.851562 379.875 80.1875 "/>
<path fill-rule="nonzero" fill="rgb(100%, 0%, 0%)" fill-opacity="1" stroke-width="0.01" stroke-linecap="butt" stroke-linejoin="miter" stroke="rgb(0%, 0%, 0%)" stroke-opacity="1" stroke-miterlimit="10" d="M 393.003906 439.308594 C 393.003906 440.644531 391.003906 440.644531 391.003906 439.308594 C 391.003906 437.976562 393.003906 437.976562 393.003906 439.308594 "/>
<path fill-rule="nonzero" fill="rgb(100%, 0%, 0%)" fill-opacity="1" stroke-width="0.01" stroke-linecap="butt" stroke-linejoin="miter" stroke="rgb(0%, 0%, 0%)" stroke-opacity="1" stroke-miterlimit="10" d="M 47.59375 419.664062 C 47.59375 421 45.59375 421 45.59375 419.664062 C 45.59375 418.332031 47.59375 418.332031 47.59375 419.664062 "/>
<path fill-rule="nonzero" fill="rgb(100%, 0%, 0%)" fill-opacity="1" stroke-width="0.01" stroke-linecap="butt" stroke-linejoin="miter" stroke="rgb(0%, 0%, 0%)" stroke-opacity="1" stroke-miterlimit="10" d="M 106.410156 403.941406 C 106.410156 405.273438 104.410156 405.273438 104.410156 403.941406 C 104.410156 402.609375 106.410156 402.609375 106.410156 403.941406 "/>
<path fill-rule="nonzero" fill="rgb(100%, 0%, 0%)" fill-opacity="1" stroke-width="0.01" stroke-linecap="butt" stroke-linejoin="miter" stroke="rgb(0%, 0%, 0%)" stroke-opacity="1" stroke-miterlimit="10" d="M 169.453125 271.03125 C 169.453125 272.363281 167.453125 272.363281 167.453125 271.03125 C 167.453125 269.695312 169.453125 269.695312 169.453125 271.03125 "/>
<path fill-rule="nonzero" fill="rgb(100%, 0%, 0%)" fill-opacity="1" stroke-width="0.01" stroke-linecap="butt" stroke-linejoin="miter" stroke="rgb(0%, 0%, 0%)" stroke-opacity="1" stroke-miterlimit="10" d="M 70.21875 338.136719 C 70.21875 339.46875 68.21875 339.46875 68.21875 338.136719 C 68.21875 336.804688 70.21875 336.804688 70.21875 338.136719 "/>
<path fill-rule="nonzero" fill="rgb(100%, 0%, 0%)" fill-opacity="1" stroke-width="0.01" stroke-linecap="butt" stroke-linejoin="miter" stroke="rgb(0%, 0%, 0%)" stroke-opacity="1" stroke-miterlimit="10" d="M 362.128906 359.820312 C 362.128906 361.152344 360.128906 361.152344 360.128906 359.820312 C 360.128906 358.484375 362.128906 358.484375 362.128906 359.820312 "/>
<path fill-rule="nonzero" fill="rgb(100%, 0%, 0%)" fill-opacity="1" stroke-width="0.01" stroke-linecap="butt" stroke-linejoin="miter" stroke="rgb(0%, 0%, 0%)" stroke-opacity="1" stroke-miterlimit="10" d="M 271.472656 459.757812 C 271.472656 461.089844 269.472656 461.089844 269.472656 459.757812 C 269.472656 458.425781 271.472656 458.425781 271.472656 459.757812 "/>
<path fill-rule="nonzero" fill="rgb(100%, 0%, 0%)" fill-opacity="1" stroke-width="0.01" stroke-linecap="butt" stroke-linejoin="miter" stroke="rgb(0%, 0%, 0%)" stroke-opacity="1" stroke-miterlimit="10" d="M 134.207031 376.042969 C 134.207031 377.375 132.207031 377.375 132.207031 376.042969 C 132.207031 374.710938 134.207031 374.710938 134.207031 376.042969 "/>
<path fill-rule="nonzero" fill="rgb(100%, 0%, 0%)" fill-opacity="1" stroke-width="0.01" stroke-linecap="butt" stroke-linejoin="miter" stroke="rgb(0%, 0%, 0%)" stroke-opacity="1" stroke-miterlimit="10" d="M 444.574219 283.65625 C 444.574219 284.988281 442.574219 284.988281 442.574219 283.65625 C 442.574219 282.324219 444.574219 282.324219 444.574219 283.65625 "/>
<path fill-rule="nonzero" fill="rgb(100%, 0%, 0%)" fill-opacity="1" stroke-width="0.01" stroke-linecap="butt" stroke-linejoin="miter" stroke="rgb(0%, 0%, 0%)" stroke-opacity="1" stroke-miterlimit="10" d="M 309.652344 379.417969 C 309.652344 380.75 307.652344 380.75 307.652344 379.417969 C 307.652344 378.085938 309.652344 378.085938 309.652344 379.417969 "/>
<path fill-rule="nonzero" fill="rgb(100%, 0%, 0%)" fill-opacity="1" stroke-width="0.01" stroke-linecap="butt" stroke-linejoin="miter" stroke="rgb(0%, 0%, 0%)" stroke-opacity="1" stroke-miterlimit="10" d="M 507.066406 414.394531 C 507.066406 415.726562 505.066406 415.726562 505.066406 414.394531 C 505.066406 413.0625 507.066406 413.0625 507.066406 414.394531 "/>
<path fill-rule="nonzero" fill="rgb(100%, 0%, 0%)" fill-opacity="1" stroke-width="0.01" stroke-linecap="butt" stroke-linejoin="miter" stroke="rgb(0%, 0%, 0%)" stroke-opacity="1" stroke-miterlimit="10" d="M 313.855469 22.632812 C 313.855469 23.96875 311.855469 23.96875 311.855469 22.632812 C 311.855469 21.300781 313.855469 21.300781 313.855469 22.632812 "/>
<path fill-rule="nonzero" fill="rgb(100%, 0%, 0%)" fill-opacity="1" stroke-width="0.01" stroke-linecap="butt" stroke-linejoin="miter" stroke="rgb(0%, 0%, 0%)" stroke-opacity="1" stroke-miterlimit="10" d="M 521.292969 488.203125 C 521.292969 489.535156 519.292969 489.535156 519.292969 488.203125 C 519.292969 486.871094 521.292969 486.871094 521.292969 488.203125 "/>
<path fill-rule="nonzero" fill="rgb(100%, 0%, 0%)" fill-opacity="1" stroke-width="0.01" stroke-linecap="butt" stroke-linejoin="miter" stroke="rgb(0%, 0%, 0%)" stroke-opacity="1" stroke-miterlimit="10" d="M 513.890625 90.996094 C 513.890625 92.328125 511.890625 92.328125 511.890625 90.996094 C 511.890625 89.660156 513.890625 89.660156 513.890625 90.996094 "/>
<path fill-rule="nonzero" fill="rgb(100%, 0%, 0%)" fill-opacity="1" stroke-width="0.01" stroke-linecap="butt" stroke-linejoin="miter" stroke="rgb(0%, 0%, 0%)" stroke-opacity="1" stroke-miterlimit="10" d="M 104.199219 252.980469 C 104.199219 254.3125 102.199219 254.3125 102.199219 252.980469 C 102.199219 251.648438 104.199219 251.648438 104.199219 252.980469 "/>
<path fill-rule="nonzero" fill="rgb(100%, 0%, 0%)" fill-opacity="1" stroke-width="0.01" stroke-linecap="butt" stroke-linejoin="miter" stroke="rgb(0%, 0%, 0%)" stroke-opacity="1" stroke-miterlimit="10" d="M 460.367188 150.386719 C 460.367188 151.71875 458.367188 151.71875 458.367188 150.386719 C 458.367188 149.050781 460.367188 149.050781 460.367188 150.386719 "/>
<path fill-rule="nonzero" fill="rgb(100%, 0%, 0%)" fill-opacity="1" stroke-width="0.01" stroke-linecap="butt" stroke-linejoin="miter" stroke="rgb(0%, 0%, 0%)" stroke-opacity="1" stroke-miterlimit="10" d="M 379.113281 187.5625 C 379.113281 188.894531 377.113281 188.894531 377.113281 187.5625 C 377.113281 186.226562 379.113281 186.226562 379.113281 187.5625 "/>
<path fill-rule="nonzero" fill="rgb(100%, 0%, 0%)" fill-opacity="1" stroke-width="0.01" stroke-linecap="butt" stroke-linejoin="miter" stroke="rgb(0%, 0%, 0%)" stroke-opacity="1" stroke-miterlimit="10" d="M 382.101562 149.824219 C 382.101562 151.15625 380.101562 151.15625 380.101562 149.824219 C 380.101562 148.488281 382.101562 148.488281 382.101562 149.824219 "/>
<path fill-rule="nonzero" fill="rgb(100%, 0%, 0%)" fill-opacity="1" stroke-width="0.01" stroke-linecap="butt" stroke-linejoin="miter" stroke="rgb(0%, 0%, 0%)" stroke-opacity="1" stroke-miterlimit="10" d="M 446.925781 380.21875 C 446.925781 381.550781 444.925781 381.550781 444.925781 380.21875 C 444.925781 378.886719 446.925781 378.886719 446.925781 380.21875 "/>
<path fill-rule="nonzero" fill="rgb(100%, 0%, 0%)" fill-opacity="1" stroke-width="0.01" stroke-linecap="butt" stroke-linejoin="miter" stroke="rgb(0%, 0%, 0%)" stroke-opacity="1" stroke-miterlimit="10" d="M 532.890625 370.53125 C 532.890625 371.867188 530.890625 371.867188 530.890625 370.53125 C 530.890625 369.199219 532.890625 369.199219 532.890625 370.53125 "/>
<path fill-rule="nonzero" fill="rgb(100%, 0%, 0%)" fill-opacity="1" stroke-width="0.01" stroke-linecap="butt" stroke-linejoin="miter" stroke="rgb(0%, 0%, 0%)" stroke-opacity="1" stroke-miterlimit="10" d="M 468.269531 252.46875 C 468.269531 253.800781 466.269531 253.800781 466.269531 252.46875 C 466.269531 251.132812 468.269531 251.132812 468.269531 252.46875 "/>
<path fill-rule="nonzero" fill="rgb(100%, 0%, 0%)" fill-opacity="1" stroke-width="0.01" stroke-linecap="butt" stroke-linejoin="miter" stroke="rgb(0%, 0%, 0%)" stroke-opacity="1" stroke-miterlimit="10" d="M 289.316406 66.070312 C 289.316406 67.402344 287.316406 67.402344 287.316406 66.070312 C 287.316406 64.738281 289.316406 64.738281 289.316406 66.070312 "/>
<path fill-rule="nonzero" fill="rgb(100%, 0%, 0%)" fill-opacity="1" stroke-width="0.01" stroke-linecap="butt" stroke-linejoin="miter" stroke="rgb(0%, 0%, 0%)" stroke-opacity="1" stroke-miterlimit="10" d="M 386.953125 402.578125 C 386.953125 403.910156 384.953125 403.910156 384.953125 402.578125 C 384.953125 401.242188 386.953125 401.242188 386.953125 402.578125 "/>
<path fill-rule="nonzero" fill="rgb(100%, 0%, 0%)" fill-opacity="1" stroke-width="0.01" stroke-linecap="butt" stroke-linejoin="miter" stroke="rgb(0%, 0%, 0%)" stroke-opacity="1" stroke-miterlimit="10" d="M 484.921875 297.898438 C 484.921875 299.230469 482.921875 299.230469 482.921875 297.898438 C 482.921875 296.566406 484.921875 296.566406 484.921875 297.898438 "/>
<path fill-rule="nonzero" fill="rgb(100%, 0%, 0%)" fill-opacity="1" stroke-width="0.01" stroke-linecap="butt" stroke-linejoin="miter" stroke="rgb(0%, 0%, 0%)" stroke-opacity="1" stroke-miterlimit="10" d="M 219.207031 341.484375 C 219.207031 342.816406 217.207031 342.816406 217.207031 341.484375 C 217.207031 340.148438 219.207031 340.148438 219.207031 341.484375 "/>
<path fill-rule="nonzero" fill="rgb(100%, 0%, 0%)" fill-opacity="1" stroke-width="0.01" stroke-linecap="butt" stroke-linejoin="miter" stroke="rgb(0%, 0%, 0%)" stroke-opacity="1" stroke-miterlimit="10" d="M 245.941406 134.199219 C 245.941406 135.53125 243.941406 135.53125 243.941406 134.199219 C 243.941406 132.867188 245.941406 132.867188 245.941406 134.199219 "/>
<path fill-rule="nonzero" fill="rgb(100%, 0%, 0%)" fill-opacity="1" stroke-width="0.01" stroke-linecap="butt" stroke-linejoin="miter" stroke="rgb(0%, 0%, 0%)" stroke-opacity="1" stroke-miterlimit="10" d="M 540.566406 297.675781 C 540.566406 299.007812 538.566406 299.007812 538.566406 297.675781 C 538.566406 296.339844 540.566406 296.339844 540.566406 297.675781 "/>
<path fill-rule="nonzero" fill="rgb(100%, 0%, 0%)" fill-opacity="1" stroke-width="0.01" stroke-linecap="butt" stroke-linejoin="miter" stroke="rgb(0%, 0%, 0%)" stroke-opacity="1" stroke-miterlimit="10" d="M 220.324219 27.660156 C 220.324219 28.992188 218.324219 28.992188 218.324219 27.660156 C 218.324219 26.328125 220.324219 26.328125 220.324219 27.660156 "/>
<path fill-rule="nonzero" fill="rgb(100%, 0%, 0%)" fill-opacity="1" stroke-width="0.01" stroke-linecap="butt" stroke-linejoin="miter" stroke="rgb(0%, 0%, 0%)" stroke-opacity="1" stroke-miterlimit="10" d="M 273.558594 388.96875 C 273.558594 390.304688 271.558594 390.304688 271.558594 388.96875 C 271.558594 387.636719 273.558594 387.636719 273.558594 388.96875 "/>
<path fill-rule="nonzero" fill="rgb(100%, 0%, 0%)" fill-opacity="1" stroke-width="0.01" stroke-linecap="butt" stroke-linejoin="miter" stroke="rgb(0%, 0%, 0%)" stroke-opacity="1" stroke-miterlimit="10" d="M 340.554688 262.75 C 340.554688 264.082031 338.554688 264.082031 338.554688 262.75 C 338.554688 261.414062 340.554688 261.414062 340.554688 262.75 "/>
<path fill-rule="nonzero" fill="rgb(100%, 0%, 0%)" fill-opacity="1" stroke-width="0.01" stroke-linecap="butt" stroke-linejoin="miter" stroke="rgb(0%, 0%, 0%)" stroke-opacity="1" stroke-miterlimit="10" d="M 127.34375 177.839844 C 127.34375 179.171875 125.34375 179.171875 125.34375 177.839844 C 125.34375 176.507812 127.34375 176.507812 127.34375 177.839844 "/>
<path fill-rule="nonzero" fill="rgb(100%, 0%, 0%)" fill-opacity="1" stroke-width="0.01" stroke-linecap="butt" stroke-linejoin="miter" stroke="rgb(0%, 0%, 0%)" stroke-opacity="1" stroke-miterlimit="10" d="M 359.476562 20 C 359.476562 21.332031 357.476562 21.332031 357.476562 20 C 357.476562 18.667969 359.476562 18.667969 359.476562 20 "/>
<path fill-rule="nonzero" fill="rgb(100%, 0%, 0%)" fill-opacity="1" stroke-width="0.01" stroke-linecap="butt" stroke-linejoin="miter" stroke="rgb(0%, 0%, 0%)" stroke-opacity="1" stroke-miterlimit="10" d="M 156.6875 414.691406 C 156.6875 416.027344 154.6875 416.027344 154.6875 414.691406 C 154.6875 413.359375 156.6875 413.359375 156.6875 414.691406 "/>
<path fill-rule="nonzero" fill="rgb(100%, 0%, 0%)" fill-opacity="1" stroke-width="0.01" stroke-linecap="butt" stroke-linejoin="miter" stroke="rgb(0%, 0%, 0%)" stroke-opacity="1" stroke-miterlimit="10" d="M 269.191406 167.660156 C 269.191406 168.992188 267.191406 168.992188 267.191406 167.660156 C 267.191406 166.324219 269.191406 166.324219 269.191406 167.660156 "/>
<path fill-rule="nonzero" fill="rgb(100%, 0%, 0%)" fill-opacity="1" stroke-width="0.01" stroke-linecap="butt" stroke-linejoin="miter" stroke="rgb(0%, 0%, 0%)" stroke-opacity="1" stroke-miterlimit="10" d="M 266.460938 21.996094 C 266.460938 23.332031 264.460938 23.332031 264.460938 21.996094 C 264.460938 20.664062 266.460938 20.664062 266.460938 21.996094 "/>
<path fill-rule="nonzero" fill="rgb(100%, 0%, 0%)" fill-opacity="1" stroke-width="0.01" stroke-linecap="butt" stroke-linejoin="miter" stroke="rgb(0%, 0%, 0%)" stroke-opacity="1" stroke-miterlimit="10" d="M 205.925781 239.144531 C 205.925781 240.476562 203.925781 240.476562 203.925781 239.144531 C 203.925781 237.8125 205.925781 237.8125 205.925781 239.144531 "/>
<path fill-rule="nonzero" fill="rgb(100%, 0%, 0%)" fill-opacity="1" stroke-width="0.01" stroke-linecap="butt" stroke-linejoin="miter" stroke="rgb(0%, 0%, 0%)" stroke-opacity="1" stroke-miterlimit="10" d="M 221.265625 432.886719 C 221.265625 434.21875 219.265625 434.21875 219.265625 432.886719 C 219.265625 431.554688 221.265625 431.554688 221.265625 432.886719 "/>
<path fill-rule="nonzero" fill="rgb(100%, 0%, 0%)" fill-opacity="1" stroke-width="0.01" stroke-linecap="butt" stroke-linejoin="miter" stroke="rgb(0%, 0%, 0%)" stroke-opacity="1" stroke-miterlimit="10" d="M 224.328125 525.375 C 224.328125 526.707031 222.328125 526.707031 222.328125 525.375 C 222.328125 524.039062 224.328125 524.039062 224.328125 525.375 "/>
<path fill-rule="nonzero" fill="rgb(100%, 0%, 0%)" fill-opacity="1" stroke-width="0.01" stroke-linecap="butt" stroke-linejoin="miter" stroke="rgb(0%, 0%, 0%)" stroke-opacity="1" stroke-miterlimit="10" d="M 309.878906 190.917969 C 309.878906 192.253906 307.878906 192.253906 307.878906 190.917969 C 307.878906 189.585938 309.878906 189.585938 309.878906 190.917969 "/>
<path fill-rule="nonzero" fill="rgb(100%, 0%, 0%)" fill-opacity="1" stroke-width="0.01" stroke-linecap="butt" stroke-linejoin="miter" stroke="rgb(0%, 0%, 0%)" stroke-opacity="1" stroke-miterlimit="10" d="M 94.289062 91.730469 C 94.289062 93.0625 92.289062 93.0625 92.289062 91.730469 C 92.289062 90.394531 94.289062 90.394531 94.289062 91.730469 "/>
<path fill-rule="nonzero" fill="rgb(100%, 0%, 0%)" fill-opacity="1" stroke-width="0.01" stroke-linecap="butt" stroke-linejoin="miter" stroke="rgb(0%, 0%, 0%)" stroke-opacity="1" stroke-miterlimit="10" d="M 217.433594 164.003906 C 217.433594 165.339844 215.433594 165.339844 215.433594 164.003906 C 215.433594 162.671875 217.433594 162.671875 217.433594 164.003906 "/>
<path fill-rule="nonzero" fill="rgb(100%, 0%, 0%)" fill-opacity="1" stroke-width="0.01" stroke-linecap="butt" stroke-linejoin="miter" stroke="rgb(0%, 0%, 0%)" stroke-opacity="1" stroke-miterlimit="10" d="M 581 220.851562 C 581 222.183594 579 222.183594 579 220.851562 C 579 219.519531 581 219.519531 581 220.851562 "/>
<path fill-rule="nonzero" fill="rgb(100%, 0%, 0%)" fill-opacity="1" stroke-width="0.01" stroke-linecap="butt" stroke-linejoin="miter" stroke="rgb(0%, 0%, 0%)" stroke-opacity="1" stroke-miterlimit="10" d="M 378.117188 254.851562 C 378.117188 256.183594 376.117188 256.183594 376.117188 254.851562 C 376.117188 253.515625 378.117188 253.515625 378.117188 254.851562 "/>
<path fill-rule="nonzero" fill="rgb(100%, 0%, 0%)" fill-opacity="1" stroke-width="0.01" stroke-linecap="butt" stroke-linejoin="miter" stroke="rgb(0%, 0%, 0%)" stroke-opacity="1" stroke-miterlimit="10" d="M 469.492188 340.9375 C 469.492188 342.273438 467.492188 342.273438 467.492188 340.9375 C 467.492188 339.605469 469.492188 339.605469 469.492188 340.9375 "/>
<path fill-rule="nonzero" fill="rgb(100%, 0%, 0%)" fill-opacity="1" stroke-width="0.01" stroke-linecap="butt" stroke-linejoin="miter" stroke="rgb(0%, 0%, 0%)" stroke-opacity="1" stroke-miterlimit="10" d="M 404.996094 36.261719 C 404.996094 37.59375 402.996094 37.59375 402.996094 36.261719 C 402.996094 34.929688 404.996094 34.929688 404.996094 36.261719 "/>
<path fill-rule="nonzero" fill="rgb(100%, 0%, 0%)" fill-opacity="1" stroke-width="0.01" stroke-linecap="butt" stroke-linejoin="miter" stroke="rgb(0%, 0%, 0%)" stroke-opacity="1" stroke-miterlimit="10" d="M 189.839844 84.441406 C 189.839844 85.777344 187.839844 85.777344 187.839844 84.441406 C 187.839844 83.109375 189.839844 83.109375 189.839844 84.441406 "/>
<path fill-rule="nonzero" fill="rgb(100%, 0%, 0%)" fill-opacity="1" stroke-width="0.01" stroke-linecap="butt" stroke-linejoin="miter" stroke="rgb(0%, 0%, 0%)" stroke-opacity="1" stroke-miterlimit="10" d="M 337.308594 72.183594 C 337.308594 73.515625 335.308594 73.515625 335.308594 72.183594 C 335.308594 70.851562 337.308594 70.851562 337.308594 72.183594 "/>
<path fill-rule="nonzero" fill="rgb(100%, 0%, 0%)" fill-opacity="1" stroke-width="0.01" stroke-linecap="butt" stroke-linejoin="miter" stroke="rgb(0%, 0%, 0%)" stroke-opacity="1" stroke-miterlimit="10" d="M 461.960938 497.402344 C 461.960938 498.734375 459.960938 498.734375 459.960938 497.402344 C 459.960938 496.066406 461.960938 496.066406 461.960938 497.402344 "/>
<path fill-rule="nonzero" fill="rgb(100%, 0%, 0%)" fill-opacity="1" stroke-width="0.01" stroke-linecap="butt" stroke-linejoin="miter" stroke="rgb(0%, 0%, 0%)" stroke-opacity="1" stroke-miterlimit="10" d="M 345.585938 395.40625 C 345.585938 396.738281 343.585938 396.738281 343.585938 395.40625 C 343.585938 394.070312 345.585938 394.070312 345.585938 395.40625 "/>
<path fill-rule="nonzero" fill="rgb(100%, 0%, 0%)" fill-opacity="1" stroke-width="0.01" stroke-linecap="butt" stroke-linejoin="miter" stroke="rgb(0%, 0%, 0%)" stroke-opacity="1" stroke-miterlimit="10" d="M 71.632812 379.765625 C 71.632812 381.097656 69.632812 381.097656 69.632812 379.765625 C 69.632812 378.433594 71.632812 378.433594 71.632812 379.765625 "/>
<path fill-rule="nonzero" fill="rgb(100%, 0%, 0%)" fill-opacity="1" stroke-width="0.01" stroke-linecap="butt" stroke-linejoin="miter" stroke="rgb(0%, 0%, 0%)" stroke-opacity="1" stroke-miterlimit="10" d="M 320.3125 499.515625 C 320.3125 500.851562 318.3125 500.851562 318.3125 499.515625 C 318.3125 498.183594 320.3125 498.183594 320.3125 499.515625 "/>
<path fill-rule="nonzero" fill="rgb(100%, 0%, 0%)" fill-opacity="1" stroke-width="0.01" stroke-linecap="butt" stroke-linejoin="miter" stroke="rgb(0%, 0%, 0%)" stroke-opacity="1" stroke-miterlimit="10" d="M 552.371094 176.847656 C 552.371094 178.179688 550.371094 178.179688 550.371094 176.847656 C 550.371094 175.515625 552.371094 175.515625 552.371094 176.847656 "/>
<path fill-rule="nonzero" fill="rgb(100%, 0%, 0%)" fill-opacity="1" stroke-width="0.01" stroke-linecap="butt" stroke-linejoin="miter" stroke="rgb(0%, 0%, 0%)" stroke-opacity="1" stroke-miterlimit="10" d="M 264.402344 500.125 C 264.402344 501.457031 262.402344 501.457031 262.402344 500.125 C 262.402344 498.789062 264.402344 498.789062 264.402344 500.125 "/>
<path fill-rule="nonzero" fill="rgb(100%, 0%, 0%)" fill-opacity="1" stroke-width="0.01" stroke-linecap="butt" stroke-linejoin="miter" stroke="rgb(0%, 0%, 0%)" stroke-opacity="1" stroke-miterlimit="10" d="M 486.066406 380.453125 C 486.066406 381.785156 484.066406 381.785156 484.066406 380.453125 C 484.066406 379.117188 486.066406 379.117188 486.066406 380.453125 "/>
<path fill-rule="nonzero" fill="rgb(100%, 0%, 0%)" fill-opacity="1" stroke-width="0.01" stroke-linecap="butt" stroke-linejoin="miter" stroke="rgb(0%, 0%, 0%)" stroke-opacity="1" stroke-miterlimit="10" d="M 284.160156 229.867188 C 284.160156 231.203125 282.160156 231.203125 282.160156 229.867188 C 282.160156 228.535156 284.160156 228.535156 284.160156 229.867188 "/>
<path fill-rule="nonzero" fill="rgb(100%, 0%, 0%)" fill-opacity="1" stroke-width="0.01" stroke-linecap="butt" stroke-linejoin="miter" stroke="rgb(0%, 0%, 0%)" stroke-opacity="1" stroke-miterlimit="10" d="M 142.648438 82.902344 C 142.648438 84.234375 140.648438 84.234375 140.648438 82.902344 C 140.648438 81.566406 142.648438 81.566406 142.648438 82.902344 "/>
<path fill-rule="nonzero" fill="rgb(100%, 0%, 0%)" fill-opacity="1" stroke-width="0.01" stroke-linecap="butt" stroke-linejoin="miter" stroke="rgb(0%, 0%, 0%)" stroke-opacity="1" stroke-miterlimit="10" d="M 178.71875 194.550781 C 178.71875 195.882812 176.71875 195.882812 176.71875 194.550781 C 176.71875 193.21875 178.71875 193.21875 178.71875 194.550781 "/>
<path fill-rule="nonzero" fill="rgb(100%, 0%, 0%)" fill-opacity="1" stroke-width="0.01" stroke-linecap="butt" stroke-linejoin="miter" stroke="rgb(0%, 0%, 0%)" stroke-opacity="1" stroke-miterlimit="10" d="M 52.835938 154.6875 C 52.835938 156.019531 50.835938 156.019531 50.835938 154.6875 C 50.835938 153.355469 52.835938 153.355469 52.835938 154.6875 "/>
<path fill-rule="nonzero" fill="rgb(100%, 0%, 0%)" fill-opacity="1" stroke-width="0.01" stroke-linecap="butt" stroke-linejoin="miter" stroke="rgb(0%, 0%, 0%)" stroke-opacity="1" stroke-miterlimit="10" d="M 339.78125 164.265625 C 339.78125 165.597656 337.78125 165.597656 337.78125 164.265625 C 337.78125 162.933594 339.78125 162.933594 339.78125 164.265625 "/>
<path fill-rule="nonzero" fill="rgb(100%, 0%, 0%)" fill-opacity="1" stroke-width="0.01" stroke-linecap="butt" stroke-linejoin="miter" stroke="rgb(0%, 0%, 0%)" stroke-opacity="1" stroke-miterlimit="10" d="M 551.453125 433.085938 C 551.453125 434.421875 549.453125 434.421875 549.453125 433.085938 C 549.453125 431.753906 551.453125 431.753906 551.453125 433.085938 "/>
<path fill-rule="nonzero" fill="rgb(100%, 0%, 0%)" fill-opacity="1" stroke-width="0.01" stroke-linecap="butt" stroke-linejoin="miter" stroke="rgb(0%, 0%, 0%)" stroke-opacity="1" stroke-miterlimit="10" d="M 279.140625 325.011719 C 279.140625 326.34375 277.140625 326.34375 277.140625 325.011719 C 277.140625 323.675781 279.140625 323.675781 279.140625 325.011719 "/>
<path fill-rule="nonzero" fill="rgb(100%, 0%, 0%)" fill-opacity="1" stroke-width="0.01" stroke-linecap="butt" stroke-linejoin="miter" stroke="rgb(0%, 0%, 0%)" stroke-opacity="1" stroke-miterlimit="10" d="M 257.644531 423.414062 C 257.644531 424.746094 255.644531 424.746094 255.644531 423.414062 C 255.644531 422.078125 257.644531 422.078125 257.644531 423.414062 "/>
<path fill-rule="nonzero" fill="rgb(100%, 0%, 0%)" fill-opacity="1" stroke-width="0.01" stroke-linecap="butt" stroke-linejoin="miter" stroke="rgb(0%, 0%, 0%)" stroke-opacity="1" stroke-miterlimit="10" d="M 461.851562 50.632812 C 461.851562 51.964844 459.851562 51.964844 459.851562 50.632812 C 459.851562 49.300781 461.851562 49.300781 461.851562 50.632812 "/>
<path fill-rule="nonzero" fill="rgb(100%, 0%, 0%)" fill-opacity="1" stroke-width="0.01" stroke-linecap="butt" stroke-linejoin="miter" stroke="rgb(0%, 0%, 0%)" stroke-opacity="1" stroke-miterlimit="10" d="M 234.59375 76.5 C 234.59375 77.832031 232.59375 77.832031 232.59375 76.5 C 232.59375 75.164062 234.59375 75.164062 234.59375 76.5 "/>
<path fill-rule="nonzero" fill="rgb(100%, 0%, 0%)" fill-opacity="1" stroke-width="0.01" stroke-linecap="butt" stroke-linejoin="miter" stroke="rgb(0%, 0%, 0%)" stroke-opacity="1" stroke-miterlimit="10" d="M 304.773438 420.5625 C 304.773438 421.898438 302.773438 421.898438 302.773438 420.5625 C 302.773438 419.230469 304.773438 419.230469 304.773438 420.5625 "/>
<path fill-rule="nonzero" fill="rgb(100%, 0%, 0%)" fill-opacity="1" stroke-width="0.01" stroke-linecap="butt" stroke-linejoin="miter" stroke="rgb(0%, 0%, 0%)" stroke-opacity="1" stroke-miterlimit="10" d="M 43.140625 204.003906 C 43.140625 205.335938 41.140625 205.335938 41.140625 204.003906 C 41.140625 202.671875 43.140625 202.671875 43.140625 204.003906 "/>
<path fill-rule="nonzero" fill="rgb(100%, 0%, 0%)" fill-opacity="1" stroke-width="0.01" stroke-linecap="butt" stroke-linejoin="miter" stroke="rgb(0%, 0%, 0%)" stroke-opacity="1" stroke-miterlimit="10" d="M 404.316406 564.351562 C 404.316406 565.683594 402.316406 565.683594 402.316406 564.351562 C 402.316406 563.015625 404.316406 563.015625 404.316406 564.351562 "/>
<path fill-rule="nonzero" fill="rgb(100%, 0%, 0%)" fill-opacity="1" stroke-width="0.01" stroke-linecap="butt" stroke-linejoin="miter" stroke="rgb(0%, 0%, 0%)" stroke-opacity="1" stroke-miterlimit="10" d="M 312.84375 460.089844 C 312.84375 461.421875 310.84375 461.421875 310.84375 460.089844 C 310.84375 458.757812 312.84375 458.757812 312.84375 460.089844 "/>
<path fill-rule="nonzero" fill="rgb(100%, 0%, 0%)" fill-opacity="1" stroke-width="0.01" stroke-linecap="butt" stroke-linejoin="miter" stroke="rgb(0%, 0%, 0%)" stroke-opacity="1" stroke-miterlimit="10" d="M 215.644531 277.792969 C 215.644531 279.125 213.644531 279.125 213.644531 277.792969 C 213.644531 276.460938 215.644531 276.460938 215.644531 277.792969 "/>
<path fill-rule="nonzero" fill="rgb(100%, 0%, 0%)" fill-opacity="1" stroke-width="0.01" stroke-linecap="butt" stroke-linejoin="miter" stroke="rgb(0%, 0%, 0%)" stroke-opacity="1" stroke-miterlimit="10" d="M 303.980469 580 C 303.980469 581.332031 301.980469 581.332031 301.980469 580 C 301.980469 578.667969 303.980469 578.667969 303.980469 580 "/>
<path fill-rule="nonzero" fill="rgb(100%, 0%, 0%)" fill-opacity="1" stroke-width="0.01" stroke-linecap="butt" stroke-linejoin="miter" stroke="rgb(0%, 0%, 0%)" stroke-opacity="1" stroke-miterlimit="10" d="M 113.335938 503.003906 C 113.335938 504.335938 111.335938 504.335938 111.335938 503.003906 C 111.335938 501.671875 113.335938 501.671875 113.335938 503.003906 "/>
<path fill-rule="nonzero" fill="rgb(100%, 0%, 0%)" fill-opacity="1" stroke-width="0.01" stroke-linecap="butt" stroke-linejoin="miter" stroke="rgb(0%, 0%, 0%)" stroke-opacity="1" stroke-miterlimit="10" d="M 447.058594 197.046875 C 447.058594 198.378906 445.058594 198.378906 445.058594 197.046875 C 445.058594 195.710938 447.058594 195.710938 447.058594 197.046875 "/>
<path fill-rule="nonzero" fill="rgb(100%, 0%, 0%)" fill-opacity="1" stroke-width="0.01" stroke-linecap="butt" stroke-linejoin="miter" stroke="rgb(0%, 0%, 0%)" stroke-opacity="1" stroke-miterlimit="10" d="M 410.339844 375.121094 C 410.339844 376.457031 408.339844 376.457031 408.339844 375.121094 C 408.339844 373.789062 410.339844 373.789062 410.339844 375.121094 "/>
<path fill-rule="nonzero" fill="rgb(100%, 0%, 0%)" fill-opacity="1" stroke-width="0.01" stroke-linecap="butt" stroke-linejoin="miter" stroke="rgb(0%, 0%, 0%)" stroke-opacity="1" stroke-miterlimit="10" d="M 579.179688 271.308594 C 579.179688 272.640625 577.179688 272.640625 577.179688 271.308594 C 577.179688 269.976562 579.179688 269.976562 579.179688 271.308594 "/>
<path fill-rule="nonzero" fill="rgb(100%, 0%, 0%)" fill-opacity="1" stroke-width="0.01" stroke-linecap="butt" stroke-linejoin="miter" stroke="rgb(0%, 0%, 0%)" stroke-opacity="1" stroke-miterlimit="10" d="M 496.28125 177.019531 C 496.28125 178.351562 494.28125 178.351562 494.28125 177.019531 C 494.28125 175.683594 496.28125 175.683594 496.28125 177.019531 "/>
<path fill-rule="nonzero" fill="rgb(100%, 0%, 0%)" fill-opacity="1" stroke-width="0.01" stroke-linecap="butt" stroke-linejoin="miter" stroke="rgb(0%, 0%, 0%)" stroke-opacity="1" stroke-miterlimit="10" d="M 348.503906 435.367188 C 348.503906 436.699219 346.503906 436.699219 346.503906 435.367188 C 346.503906 434.035156 348.503906 434.035156 348.503906 435.367188 "/>
<path fill-rule="nonzero" fill="rgb(100%, 0%, 0%)" fill-opacity="1" stroke-width="0.01" stroke-linecap="butt" stroke-linejoin="miter" stroke="rgb(0%, 0%, 0%)" stroke-opacity="1" stroke-miterlimit="10" d="M 239.21875 311.011719 C 239.21875 312.34375 237.21875 312.34375 237.21875 311.011719 C 237.21875 309.675781 239.21875 309.675781 239.21875 311.011719 "/>
<path fill-rule="nonzero" fill="rgb(100%, 0%, 0%)" fill-opacity="1" stroke-width="0.01" stroke-linecap="butt" stroke-linejoin="miter" stroke="rgb(0%, 0%, 0%)" stroke-opacity="1" stroke-miterlimit="10" d="M 185.800781 359.003906 C 185.800781 360.339844 183.800781 360.339844 183.800781 359.003906 C 183.800781 357.671875 185.800781 357.671875 185.800781 359.003906 "/>
<path fill-rule="nonzero" fill="rgb(100%, 0%, 0%)" fill-opacity="1" stroke-width="0.01" stroke-linecap="butt" stroke-linejoin="miter" stroke="rgb(0%, 0%, 0%)" stroke-opacity="1" stroke-miterlimit="10" d="M 487.3125 217.945312 C 487.3125 219.277344 485.3125 219.277344 485.3125 217.945312 C 485.3125 216.613281 487.3125 216.613281 487.3125 217.945312 "/>
<path fill-rule="nonzero" fill="rgb(100%, 0%, 0%)" fill-opacity="1" stroke-width="0.01" stroke-linecap="butt" stroke-linejoin="miter" stroke="rgb(0%, 0%, 0%)" stroke-opacity="1" stroke-miterlimit="10" d="M 221.671875 202.609375 C 221.671875 203.941406 219.671875 203.941406 219.671875 202.609375 C 219.671875 201.277344 221.671875 201.277344 221.671875 202.609375 "/>
<path fill-rule="nonzero" fill="rgb(100%, 0%, 0%)" fill-opacity="1" stroke-width="0.01" stroke-linecap="butt" stroke-linejoin="miter" stroke="rgb(0%, 0%, 0%)" stroke-opacity="1" stroke-miterlimit="10" d="M 400.835938 341.140625 C 400.835938 342.472656 398.835938 342.472656 398.835938 341.140625 C 398.835938 339.804688 400.835938 339.804688 400.835938 341.140625 "/>
<path fill-rule="nonzero" fill="rgb(100%, 0%, 0%)" fill-opacity="1" stroke-width="0.01" stroke-linecap="butt" stroke-linejoin="miter" stroke="rgb(0%, 0%, 0%)" stroke-opacity="1" stroke-miterlimit="10" d="M 256.601562 562.597656 C 256.601562 563.933594 254.601562 563.933594 254.601562 562.597656 C 254.601562 561.265625 256.601562 561.265625 256.601562 562.597656 "/>
<path fill-rule="nonzero" fill="rgb(100%, 0%, 0%)" fill-opacity="1" stroke-width="0.01" stroke-linecap="butt" stroke-linejoin="miter" stroke="rgb(0%, 0%, 0%)" stroke-opacity="1" stroke-miterlimit="10" d="M 259.914062 354.210938 C 259.914062 355.542969 257.914062 355.542969 257.914062 354.210938 C 257.914062 352.878906 259.914062 352.878906 259.914062 354.210938 "/>
<path fill-rule="nonzero" fill="rgb(100%, 0%, 0%)" fill-opacity="1" stroke-width="0.01" stroke-linecap="butt" stroke-linejoin="miter" stroke="rgb(0%, 0%, 0%)" stroke-opacity="1" stroke-miterlimit="10" d="M 71.136719 468.292969 C 71.136719 469.628906 69.136719 469.628906 69.136719 468.292969 C 69.136719 466.960938 71.136719 466.960938 71.136719 468.292969 "/>
<path fill-rule="nonzero" fill="rgb(100%, 0%, 0%)" fill-opacity="1" stroke-width="0.01" stroke-linecap="butt" stroke-linejoin="miter" stroke="rgb(0%, 0%, 0%)" stroke-opacity="1" stroke-miterlimit="10" d="M 353.140625 214.878906 C 353.140625 216.210938 351.140625 216.210938 351.140625 214.878906 C 351.140625 213.542969 353.140625 213.542969 353.140625 214.878906 "/>
<path fill-rule="nonzero" fill="rgb(100%, 0%, 0%)" fill-opacity="1" stroke-width="0.01" stroke-linecap="butt" stroke-linejoin="miter" stroke="rgb(0%, 0%, 0%)" stroke-opacity="1" stroke-miterlimit="10" d="M 351.1875 568.179688 C 351.1875 569.515625 349.1875 569.515625 349.1875 568.179688 C 349.1875 566.847656 351.1875 566.847656 351.1875 568.179688 "/>
<path fill-rule="nonzero" fill="rgb(100%, 0%, 0%)" fill-opacity="1" stroke-width="0.01" stroke-linecap="butt" stroke-linejoin="miter" stroke="rgb(0%, 0%, 0%)" stroke-opacity="1" stroke-miterlimit="10" d="M 406.023438 476.738281 C 406.023438 478.070312 404.023438 478.070312 404.023438 476.738281 C 404.023438 475.402344 406.023438 475.402344 406.023438 476.738281 "/>
<path fill-rule="nonzero" fill="rgb(100%, 0%, 0%)" fill-opacity="1" stroke-width="0.01" stroke-linecap="butt" stroke-linejoin="miter" stroke="rgb(0%, 0%, 0%)" stroke-opacity="1" stroke-miterlimit="10" d="M 532.527344 223.765625 C 532.527344 225.101562 530.527344 225.101562 530.527344 223.765625 C 530.527344 222.433594 532.527344 222.433594 532.527344 223.765625 "/>
<path fill-rule="nonzero" fill="rgb(100%, 0%, 0%)" fill-opacity="1" stroke-width="0.01" stroke-linecap="butt" stroke-linejoin="miter" stroke="rgb(0%, 0%, 0%)" stroke-opacity="1" stroke-miterlimit="10" d="M 317.640625 345.5 C 317.640625 346.832031 315.640625 346.832031 315.640625 345.5 C 315.640625 344.167969 317.640625 344.167969 317.640625 345.5 "/>
<path fill-rule="nonzero" fill="rgb(100%, 0%, 0%)" fill-opacity="1" stroke-width="0.01" stroke-linecap="butt" stroke-linejoin="miter" stroke="rgb(0%, 0%, 0%)" stroke-opacity="1" stroke-miterlimit="10" d="M 189.371094 307.445312 C 189.371094 308.78125 187.371094 308.78125 187.371094 307.445312 C 187.371094 306.113281 189.371094 306.113281 189.371094 307.445312 "/>
<path fill-rule="nonzero" fill="rgb(100%, 0%, 0%)" fill-opacity="1" stroke-width="0.01" stroke-linecap="butt" stroke-linejoin="miter" stroke="rgb(0%, 0%, 0%)" stroke-opacity="1" stroke-miterlimit="10" d="M 513.773438 263.316406 C 513.773438 264.648438 511.773438 264.648438 511.773438 263.316406 C 511.773438 261.984375 513.773438 261.984375 513.773438 263.316406 "/>
<path fill-rule="nonzero" fill="rgb(100%, 0%, 0%)" fill-opacity="1" stroke-width="0.01" stroke-linecap="butt" stroke-linejoin="miter" stroke="rgb(0%, 0%, 0%)" stroke-opacity="1" stroke-miterlimit="10" d="M 113.070312 444.558594 C 113.070312 445.894531 111.070312 445.894531 111.070312 444.558594 C 111.070312 443.226562 113.070312 443.226562 113.070312 444.558594 "/>
<path fill-rule="nonzero" fill="rgb(100%, 0%, 0%)" fill-opacity="1" stroke-width="0.01" stroke-linecap="butt" stroke-linejoin="miter" stroke="rgb(0%, 0%, 0%)" stroke-opacity="1" stroke-miterlimit="10" d="M 96.660156 144.835938 C 96.660156 146.171875 94.660156 146.171875 94.660156 144.835938 C 94.660156 143.503906 96.660156 143.503906 96.660156 144.835938 "/>
<path fill-rule="nonzero" fill="rgb(100%, 0%, 0%)" fill-opacity="1" stroke-width="0.01" stroke-linecap="butt" stroke-linejoin="miter" stroke="rgb(0%, 0%, 0%)" stroke-opacity="1" stroke-miterlimit="10" d="M 201.574219 568.066406 C 201.574219 569.402344 199.574219 569.402344 199.574219 568.066406 C 199.574219 566.734375 201.574219 566.734375 201.574219 568.066406 "/>
<path fill-rule="nonzero" fill="rgb(100%, 0%, 0%)" fill-opacity="1" stroke-width="0.01" stroke-linecap="butt" stroke-linejoin="miter" stroke="rgb(0%, 0%, 0%)" stroke-opacity="1" stroke-miterlimit="10" d="M 398.175781 219.464844 C 398.175781 220.796875 396.175781 220.796875 396.175781 219.464844 C 396.175781 218.128906 398.175781 218.128906 398.175781 219.464844 "/>
<path fill-rule="nonzero" fill="rgb(100%, 0%, 0%)" fill-opacity="1" stroke-width="0.01" stroke-linecap="butt" stroke-linejoin="miter" stroke="rgb(0%, 0%, 0%)" stroke-opacity="1" stroke-miterlimit="10" d="M 245.925781 244.507812 C 245.925781 245.839844 243.925781 245.839844 243.925781 244.507812 C 243.925781 243.171875 245.925781 243.171875 245.925781 244.507812 "/>
<path fill-rule="nonzero" fill="rgb(100%, 0%, 0%)" fill-opacity="1" stroke-width="0.01" stroke-linecap="butt" stroke-linejoin="miter" stroke="rgb(0%, 0%, 0%)" stroke-opacity="1" stroke-miterlimit="10" d="M 130.089844 282.234375 C 130.089844 283.566406 128.089844 283.566406 128.089844 282.234375 C 128.089844 280.898438 130.089844 280.898438 130.089844 282.234375 "/>
<path fill-rule="nonzero" fill="rgb(100%, 0%, 0%)" fill-opacity="1" stroke-width="0.01" stroke-linecap="butt" stroke-linejoin="miter" stroke="rgb(0%, 0%, 0%)" stroke-opacity="1" stroke-miterlimit="10" d="M 169.355469 38.972656 C 169.355469 40.304688 167.355469 40.304688 167.355469 38.972656 C 167.355469 37.636719 169.355469 37.636719 169.355469 38.972656 "/>
<path fill-rule="nonzero" fill="rgb(100%, 0%, 0%)" fill-opacity="1" stroke-width="0.01" stroke-linecap="butt" stroke-linejoin="miter" stroke="rgb(0%, 0%, 0%)" stroke-opacity="1" stroke-miterlimit="10" d="M 345.871094 315.738281 C 345.871094 317.074219 343.871094 317.074219 343.871094 315.738281 C 343.871094 314.40625 345.871094 314.40625 345.871094 315.738281 "/>
<path fill-rule="nonzero" fill="rgb(100%, 0%, 0%)" fill-opacity="1" stroke-width="0.01" stroke-linecap="butt" stroke-linejoin="miter" stroke="rgb(0%, 0%, 0%)" stroke-opacity="1" stroke-miterlimit="10" d="M 149.039062 469.074219 C 149.039062 470.410156 147.039062 470.410156 147.039062 469.074219 C 147.039062 467.742188 149.039062 467.742188 149.039062 469.074219 "/>
<path fill-rule="nonzero" fill="rgb(100%, 0%, 0%)" fill-opacity="1" stroke-width="0.01" stroke-linecap="butt" stroke-linejoin="miter" stroke="rgb(0%, 0%, 0%)" stroke-opacity="1" stroke-miterlimit="10" d="M 470.808594 110.410156 C 470.808594 111.742188 468.808594 111.742188 468.808594 110.410156 C 468.808594 109.078125 470.808594 109.078125 470.808594 110.410156 "/>
<path fill-rule="nonzero" fill="rgb(100%, 0%, 0%)" fill-opacity="1" stroke-width="0.01" stroke-linecap="butt" stroke-linejoin="miter" stroke="rgb(0%, 0%, 0%)" stroke-opacity="1" stroke-miterlimit="10" d="M 577.519531 381.558594 C 577.519531 382.890625 575.519531 382.890625 575.519531 381.558594 C 575.519531 380.226562 577.519531 380.226562 577.519531 381.558594 "/>
<path fill-rule="nonzero" fill="rgb(100%, 0%, 0%)" fill-opacity="1" stroke-width="0.01" stroke-linecap="butt" stroke-linejoin="miter" stroke="rgb(0%, 0%, 0%)" stroke-opacity="1" stroke-miterlimit="10" d="M 407.691406 277.679688 C 407.691406 279.015625 405.691406 279.015625 405.691406 277.679688 C 405.691406 276.347656 407.691406 276.347656 407.691406 277.679688 "/>
<path fill-rule="nonzero" fill="rgb(100%, 0%, 0%)" fill-opacity="1" stroke-width="0.01" stroke-linecap="butt" stroke-linejoin="miter" stroke="rgb(0%, 0%, 0%)" stroke-opacity="1" stroke-miterlimit="10" d="M 151.101562 538.941406 C 151.101562 540.273438 149.101562 540.273438 149.101562 538.941406 C 149.101562 537.609375 151.101562 537.609375 151.101562 538.941406 "/>
<path fill-rule="nonzero" fill="rgb(100%, 0%, 0%)" fill-opacity="1" stroke-width="0.01" stroke-linecap="butt" stroke-linejoin="miter" stroke="rgb(0%, 0%, 0%)" stroke-opacity="1" stroke-miterlimit="10" d="M 347.308594 302.433594 C 347.308594 303.769531 345.308594 303.769531 345.308594 302.433594 C 345.308594 301.101562 347.308594 301.101562 347.308594 302.433594 "/>
<path fill-rule="nonzero" fill="rgb(100%, 0%, 0%)" fill-opacity="1" stroke-width="0.01" stroke-linecap="butt" stroke-linejoin="miter" stroke="rgb(0%, 0%, 0%)" stroke-opacity="1" stroke-miterlimit="10" d="M 185.703125 449.933594 C 185.703125 451.269531 183.703125 451.269531 183.703125 449.933594 C 183.703125 448.601562 185.703125 448.601562 185.703125 449.933594 "/>
<path fill-rule="nonzero" fill="rgb(100%, 0%, 0%)" fill-opacity="1" stroke-width="0.01" stroke-linecap="butt" stroke-linejoin="miter" stroke="rgb(0%, 0%, 0%)" stroke-opacity="1" stroke-miterlimit="10" d="M 463.921875 541.808594 C 463.921875 543.140625 461.921875 543.140625 461.921875 541.808594 C 461.921875 540.476562 463.921875 540.476562 463.921875 541.808594 "/>
<path fill-rule="nonzero" fill="rgb(100%, 0%, 0%)" fill-opacity="1" stroke-width="0.01" stroke-linecap="butt" stroke-linejoin="miter" stroke="rgb(0%, 0%, 0%)" stroke-opacity="1" stroke-miterlimit="10" d="M 525.289062 138.929688 C 525.289062 140.265625 523.289062 140.265625 523.289062 138.929688 C 523.289062 137.597656 525.289062 137.597656 525.289062 138.929688 "/>
<path fill-rule="nonzero" fill="rgb(100%, 0%, 0%)" fill-opacity="1" stroke-width="0.01" stroke-linecap="butt" stroke-linejoin="miter" stroke="rgb(0%, 0%, 0%)" stroke-opacity="1" stroke-miterlimit="10" d="M 577.800781 328.417969 C 577.800781 329.753906 575.800781 329.753906 575.800781 328.417969 C 575.800781 327.085938 577.800781 327.085938 577.800781 328.417969 "/>
<path fill-rule="nonzero" fill="rgb(100%, 0%, 0%)" fill-opacity="1" stroke-width="0.01" stroke-linecap="butt" stroke-linejoin="miter" stroke="rgb(0%, 0%, 0%)" stroke-opacity="1" stroke-miterlimit="10" d="M 430.726562 236.109375 C 430.726562 237.441406 428.726562 237.441406 428.726562 236.109375 C 428.726562 234.773438 430.726562 234.773438 430.726562 236.109375 "/>
<path fill-rule="nonzero" fill="rgb(100%, 0%, 0%)" fill-opacity="1" stroke-width="0.01" stroke-linecap="butt" stroke-linejoin="miter" stroke="rgb(0%, 0%, 0%)" stroke-opacity="1" stroke-miterlimit="10" d="M 435.546875 322.613281 C 435.546875 323.949219 433.546875 323.949219 433.546875 322.613281 C 433.546875 321.28125 435.546875 321.28125 435.546875 322.613281 "/>
<path fill-rule="nonzero" fill="rgb(100%, 0%, 0%)" fill-opacity="1" stroke-width="0.01" stroke-linecap="butt" stroke-linejoin="miter" stroke="rgb(0%, 0%, 0%)" stroke-opacity="1" stroke-miterlimit="10" d="M 24.542969 249.863281 C 24.542969 251.195312 22.542969 251.195312 22.542969 249.863281 C 22.542969 248.527344 24.542969 248.527344 24.542969 249.863281 "/>
<path fill-rule="nonzero" fill="rgb(100%, 0%, 0%)" fill-opacity="1" stroke-width="0.01" stroke-linecap="butt" stroke-linejoin="miter" stroke="rgb(0%, 0%, 0%)" stroke-opacity="1" stroke-miterlimit="10" d="M 230.367188 384.328125 C 230.367188 385.660156 228.367188 385.660156 228.367188 384.328125 C 228.367188 382.996094 230.367188 382.996094 230.367188 384.328125 "/>
<path fill-rule="nonzero" fill="rgb(100%, 0%, 0%)" fill-opacity="1" stroke-width="0.01" stroke-linecap="butt" stroke-linejoin="miter" stroke="rgb(0%, 0%, 0%)" stroke-opacity="1" stroke-miterlimit="10" d="M 148.089844 324.460938 C 148.089844 325.792969 146.089844 325.792969 146.089844 324.460938 C 146.089844 323.125 148.089844 323.125 148.089844 324.460938 "/>
<path fill-rule="nonzero" fill="rgb(100%, 0%, 0%)" fill-opacity="1" stroke-width="0.01" stroke-linecap="butt" stroke-linejoin="miter" stroke="rgb(0%, 0%, 0%)" stroke-opacity="1" stroke-miterlimit="10" d="M 420.996094 166.382812 C 420.996094 167.714844 418.996094 167.714844 418.996094 166.382812 C 418.996094 165.046875 420.996094 165.046875 420.996094 166.382812 "/>
<path fill-rule="nonzero" fill="rgb(100%, 0%, 0%)" fill-opacity="1" stroke-width="0.01" stroke-linecap="butt" stroke-linejoin="miter" stroke="rgb(0%, 0%, 0%)" stroke-opacity="1" stroke-miterlimit="10" d="M 148.582031 337.824219 C 148.582031 339.15625 146.582031 339.15625 146.582031 337.824219 C 146.582031 336.492188 148.582031 336.492188 148.582031 337.824219 "/>
<path fill-rule="nonzero" fill="rgb(100%, 0%, 0%)" fill-opacity="1" stroke-width="0.01" stroke-linecap="butt" stroke-linejoin="miter" stroke="rgb(0%, 0%, 0%)" stroke-opacity="1" stroke-miterlimit="10" d="M 439.746094 419.015625 C 439.746094 420.347656 437.746094 420.347656 437.746094 419.015625 C 437.746094 417.683594 439.746094 417.683594 439.746094 419.015625 "/>
<path fill-rule="nonzero" fill="rgb(100%, 0%, 0%)" fill-opacity="1" stroke-width="0.01" stroke-linecap="butt" stroke-linejoin="miter" stroke="rgb(0%, 0%, 0%)" stroke-opacity="1" stroke-miterlimit="10" d="M 182.738281 502.3125 C 182.738281 503.644531 180.738281 503.644531 180.738281 502.3125 C 180.738281 500.976562 182.738281 500.976562 182.738281 502.3125 "/>
<path fill-rule="nonzero" fill="rgb(100%, 0%, 0%)" fill-opacity="1" stroke-width="0.01" stroke-linecap="butt" stroke-linejoin="miter" stroke="rgb(0%, 0%, 0%)" stroke-opacity="1" stroke-miterlimit="10" d="M 68.953125 272.03125 C 68.953125 273.363281 66.953125 273.363281 66.953125 272.03125 C 66.953125 270.699219 68.953125 270.699219 68.953125 272.03125 "/>
<path fill-rule="nonzero" fill="rgb(100%, 0%, 0%)" fill-opacity="1" stroke-width="0.01" stroke-linecap="butt" stroke-linejoin="miter" stroke="rgb(0%, 0%, 0%)" stroke-opacity="1" stroke-miterlimit="10" d="M 224.679688 477.636719 C 224.679688 478.96875 222.679688 478.96875 222.679688 477.636719 C 222.679688 476.304688 224.679688 476.304688 224.679688 477.636719 "/>
<path fill-rule="nonzero" fill="rgb(100%, 0%, 0%)" fill-opacity="1" stroke-width="0.01" stroke-linecap="butt" stroke-linejoin="miter" stroke="rgb(0%, 0%, 0%)" stroke-opacity="1" stroke-miterlimit="10" d="M 295.757812 531.703125 C 295.757812 533.035156 293.757812 533.035156 293.757812 531.703125 C 293.757812 530.367188 295.757812 530.367188 295.757812 531.703125 "/>
<path fill-rule="nonzero" fill="rgb(100%, 0%, 0%)" fill-opacity="1" stroke-width="0.01" stroke-linecap="butt" stroke-linejoin="miter" stroke="rgb(0%, 0%, 0%)" stroke-opacity="1" stroke-miterlimit="10" d="M 260.117188 202.609375 C 260.117188 203.945312 258.117188 203.945312 258.117188 202.609375 C 258.117188 201.277344 260.117188 201.277344 260.117188 202.609375 "/>
<path fill-rule="nonzero" fill="rgb(100%, 0%, 0%)" fill-opacity="1" stroke-width="0.01" stroke-linecap="butt" stroke-linejoin="miter" stroke="rgb(0%, 0%, 0%)" stroke-opacity="1" stroke-miterlimit="10" d="M 86.96875 209.53125 C 86.96875 210.863281 84.96875 210.863281 84.96875 209.53125 C 84.96875 208.195312 86.96875 208.195312 86.96875 209.53125 "/>
<path fill-rule="nonzero" fill="rgb(100%, 0%, 0%)" fill-opacity="1" stroke-width="0.01" stroke-linecap="butt" stroke-linejoin="miter" stroke="rgb(0%, 0%, 0%)" stroke-opacity="1" stroke-miterlimit="10" d="M 513.484375 332.183594 C 513.484375 333.515625 511.484375 333.515625 511.484375 332.183594 C 511.484375 330.847656 513.484375 330.847656 513.484375 332.183594 "/>
<path fill-rule="nonzero" fill="rgb(100%, 0%, 0%)" fill-opacity="1" stroke-width="0.01" stroke-linecap="butt" stroke-linejoin="miter" stroke="rgb(0%, 0%, 0%)" stroke-opacity="1" stroke-miterlimit="10" d="M 409.449219 517.875 C 409.449219 519.207031 407.449219 519.207031 407.449219 517.875 C 407.449219 516.539062 409.449219 516.539062 409.449219 517.875 "/>
<path fill-rule="nonzero" fill="rgb(100%, 0%, 0%)" fill-opacity="1" stroke-width="0.01" stroke-linecap="butt" stroke-linejoin="miter" stroke="rgb(0%, 0%, 0%)" stroke-opacity="1" stroke-miterlimit="10" d="M 445.605469 457.230469 C 445.605469 458.5625 443.605469 458.5625 443.605469 457.230469 C 443.605469 455.894531 445.605469 455.894531 445.605469 457.230469 "/>
<path fill-rule="nonzero" fill="rgb(100%, 0%, 0%)" fill-opacity="1" stroke-width="0.01" stroke-linecap="butt" stroke-linejoin="miter" stroke="rgb(0%, 0%, 0%)" stroke-opacity="1" stroke-miterlimit="10" d="M 320.742188 230.710938 C 320.742188 232.046875 318.742188 232.046875 318.742188 230.710938 C 318.742188 229.378906 320.742188 229.378906 320.742188 230.710938 "/>
<path fill-rule="nonzero" fill="rgb(100%, 0%, 0%)" fill-opacity="1" stroke-width="0.01" stroke-linecap="butt" stroke-linejoin="miter" stroke="rgb(0%, 0%, 0%)" stroke-opacity="1" stroke-miterlimit="10" d="M 141.691406 128.496094 C 141.691406 129.832031 139.691406 129.832031 139.691406 128.496094 C 139.691406 127.164062 141.691406 127.164062 141.691406 128.496094 "/>
<path fill-rule="nonzero" fill="rgb(100%, 0%, 0%)" fill-opacity="1" stroke-width="0.01" stroke-linecap="butt" stroke-linejoin="miter" stroke="rgb(0%, 0%, 0%)" stroke-opacity="1" stroke-miterlimit="10" d="M 354.953125 120.382812 C 354.953125 121.714844 352.953125 121.714844 352.953125 120.382812 C 352.953125 119.046875 354.953125 119.046875 354.953125 120.382812 "/>
<path fill-rule="nonzero" fill="rgb(100%, 0%, 0%)" fill-opacity="1" stroke-width="0.01" stroke-linecap="butt" stroke-linejoin="miter" stroke="rgb(0%, 0%, 0%)" stroke-opacity="1" stroke-miterlimit="10" d="M 130.707031 219.65625 C 130.707031 220.988281 128.707031 220.988281 128.707031 219.65625 C 128.707031 218.324219 130.707031 218.324219 130.707031 219.65625 "/>
<path fill-rule="nonzero" fill="rgb(100%, 0%, 0%)" fill-opacity="1" stroke-width="0.01" stroke-linecap="butt" stroke-linejoin="miter" stroke="rgb(0%, 0%, 0%)" stroke-opacity="1" stroke-miterlimit="10" d="M 359.988281 522.394531 C 359.988281 523.730469 357.988281 523.730469 357.988281 522.394531 C 357.988281 521.0625 359.988281 521.0625 359.988281 522.394531 "/>
<path fill-rule="nonzero" fill="rgb(100%, 0%, 0%)" fill-opacity="1" stroke-width="0.01" stroke-linecap="butt" stroke-linejoin="miter" stroke="rgb(0%, 0%, 0%)" stroke-opacity="1" stroke-miterlimit="10" d="M 193.070312 397.839844 C 193.070312 399.171875 191.070312 399.171875 191.070312 397.839844 C 191.070312 396.503906 193.070312 396.503906 193.070312 397.839844 "/>
<path fill-rule="nonzero" fill="rgb(100%, 0%, 0%)" fill-opacity="1" stroke-width="0.01" stroke-linecap="butt" stroke-linejoin="miter" stroke="rgb(0%, 0%, 0%)" stroke-opacity="1" stroke-miterlimit="10" d="M 304.992188 301.535156 C 304.992188 302.867188 302.992188 302.867188 302.992188 301.535156 C 302.992188 300.199219 304.992188 300.199219 304.992188 301.535156 "/>
<path fill-rule="nonzero" fill="rgb(100%, 0%, 0%)" fill-opacity="1" stroke-width="0.01" stroke-linecap="butt" stroke-linejoin="miter" stroke="rgb(0%, 0%, 0%)" stroke-opacity="1" stroke-miterlimit="10" d="M 36.269531 303.175781 C 36.269531 304.507812 34.269531 304.507812 34.269531 303.175781 C 34.269531 301.84375 36.269531 301.84375 36.269531 303.175781 "/>
<path fill-rule="nonzero" fill="rgb(100%, 0%, 0%)" fill-opacity="1" stroke-width="0.01" stroke-linecap="butt" stroke-linejoin="miter" stroke="rgb(0%, 0%, 0%)" stroke-opacity="1" stroke-miterlimit="10" d="M 260.8125 281.019531 C 260.8125 282.355469 258.8125 282.355469 258.8125 281.019531 C 258.8125 279.6875 260.8125 279.6875 260.8125 281.019531 "/>
<path fill-rule="nonzero" fill="rgb(100%, 0%, 0%)" fill-opacity="1" stroke-width="0.01" stroke-linecap="butt" stroke-linejoin="miter" stroke="rgb(0%, 0%, 0%)" stroke-opacity="1" stroke-miterlimit="10" d="M 202.847656 122.9375 C 202.847656 124.273438 200.847656 124.273438 200.847656 122.9375 C 200.847656 121.605469 202.847656 121.605469 202.847656 122.9375 "/>
</svg>
