<?xml version="1.0" encoding="UTF-8"?>
<svg xmlns="http://www.w3.org/2000/svg" xmlns:xlink="http://www.w3.org/1999/xlink" width="600" height="600" viewBox="0 0 600 600">
<rect x="-60" y="-60" width="720" height="720" fill="rgb(100%, 100%, 100%)" fill-opacity="1"/>
<path fill-rule="nonzero" fill="rgb(100%, 0%, 0%)" fill-opacity="1" stroke-width="0.01" stroke-linecap="butt" stroke-linejoin="miter" stroke="rgb(0%, 0%, 0%)" stroke-opacity="1" stroke-miterlimit="10" d="M 217.097656 202.625 C 217.097656 203.957031 215.097656 203.957031 215.097656 202.625 C 215.097656 201.292969 217.097656 201.292969 217.097656 202.625 "/>
<path fill-rule="nonzero" fill="rgb(100%, 0%, 0%)" fill-opacity="1" stroke-width="0.01" stroke-linecap="butt" stroke-linejoin="miter" stroke="rgb(0%, 0%, 0%)" stroke-opacity="1" stroke-miterlimit="10" d="M 526.191406 304.757812 C 526.191406 306.089844 524.191406 306.089844 524.191406 304.757812 C 524.191406 303.421875 526.191406 303.421875 526.191406 304.757812 "/>
<path fill-rule="nonzero" fill="rgb(100%, 0%, 0%)" fill-opacity="1" stroke-width="0.01" stroke-linecap="butt" stroke-linejoin="miter" stroke="rgb(0%, 0%, 0%)" stroke-opacity="1" stroke-miterlimit="10" d="M 511.949219 387.195312 C 511.949219 388.527344 509.949219 388.527344 509.949219 387.195312 C 509.949219 385.859375 511.949219 385.859375 511.949219 387.195312 "/>
<path fill-rule="nonzero" fill="rgb(100%, 0%, 0%)" fill-opacity="1" stroke-width="0.01" stroke-linecap="butt" stroke-linejoin="miter" stroke="rgb(0%, 0%, 0%)" stroke-opacity="1" stroke-miterlimit="10" d="M 442.828125 236.96875 C 442.828125 238.304688 440.828125 238.304688 440.828125 236.96875 C 440.828125 235.636719 442.828125 235.636719 442.828125 236.96875 "/>
<path fill-rule="nonzero" fill="rgb(100%, 0%, 0%)" fill-opacity="1" stroke-width="0.01" stroke-linecap="butt" stroke-linejoin="miter" stroke="rgb(0%, 0%, 0%)" stroke-opacity="1" stroke-miterlimit="10" d="M 324.257812 273.445312 C 324.257812 274.777344 322.257812 274.777344 322.257812 273.445312 C 322.257812 272.109375 324.257812 272.109375 324.257812 273.445312 "/>
<path fill-rule="nonzero" fill="rgb(100%, 0%, 0%)" fill-opacity="1" stroke-width="0.01" stroke-linecap="butt" stroke-linejoin="miter" stroke="rgb(0%, 0%, 0%)" stroke-opacity="1" stroke-miterlimit="10" d="M 446.796875 311.199219 C 446.796875 312.53125 444.796875 312.53125 444.796875 311.199219 C 444.796875 309.867188 446.796875 309.867188 446.796875 311.199219 "/>
<path fill-rule="nonzero" fill="rgb(100%, 0%, 0%)" fill-opacity="1" stroke-width="0.01" stroke-linecap="butt" stroke-linejoin="miter" stroke="rgb(0%, 0%, 0%)" stroke-opacity="1" stroke-miterlimit="10" d="M 148.46875 355.96875 C 148.46875 357.300781 146.46875 357.300781 146.46875 355.96875 C 146.46875 354.632812 148.46875 354.632812 148.46875 355.96875 "/>
<path fill-rule="nonzero" fill="rgb(100%, 0%, 0%)" fill-opacity="1" stroke-width="0.01" stroke-linecap="butt" stroke-linejoin="miter" stroke="rgb(0%, 0%, 0%)" stroke-opacity="1" stroke-miterlimit="10" d="M 134.152344 200.894531 C 134.152344 202.226562 132.152344 202.226562 132.152344 200.894531 C 132.152344 199.5625 134.152344 199.5625 134.152344 200.894531 "/>
<path fill-rule="nonzero" fill="rgb(100%, 0%, 0%)" fill-opacity="1" stroke-width="0.01" stroke-linecap="butt" stroke-linejoin="miter" stroke="rgb(0%, 0%, 0%)" stroke-opacity="1" stroke-miterlimit="10" d="M 298.960938 363.308594 C 298.960938 364.640625 296.960938 364.640625 296.960938 363.308594 C 296.960938 361.972656 298.960938 361.972656 298.960938 363.308594 "/>
<path fill-rule="nonzero" fill="rgb(100%, 0%, 0%)" fill-opacity="1" stroke-width="0.01" stroke-linecap="butt" stroke-linejoin="miter" stroke="rgb(0%, 0%, 0%)" stroke-opacity="1" stroke-miterlimit="10" d="M 455.835938 497.933594 C 455.835938 499.265625 453.835938 499.265625 453.835938 497.933594 C 453.835938 496.601562 455.835938 496.601562 455.835938 497.933594 "/>
<path fill-rule="nonzero" fill="rgb(100%, 0%, 0%)" fill-opacity="1" stroke-width="0.01" stroke-linecap="butt" stroke-linejoin="miter" stroke="rgb(0%, 0%, 0%)" stroke-opacity="1" stroke-miterlimit="10" d="M 70.175781 349.363281 C 70.175781 350.699219 68.175781 350.699219 68.175781 349.363281 C 68.175781 348.03125 70.175781 348.03125 70.175781 349.363281 "/>
<path fill-rule="nonzero" fill="rgb(100%, 0%, 0%)" fill-opacity="1" stroke-width="0.01" stroke-linecap="butt" stroke-linejoin="miter" stroke="rgb(0%, 0%, 0%)" stroke-opacity="1" stroke-miterlimit="10" d="M 274.964844 262.28125 C 274.964844 263.613281 272.964844 263.613281 272.964844 262.28125 C 272.964844 260.949219 274.964844 260.949219 274.964844 262.28125 "/>
<path fill-rule="nonzero" fill="rgb(100%, 0%, 0%)" fill-opacity="1" stroke-width="0.01" stroke-linecap="butt" stroke-linejoin="miter" stroke="rgb(0%, 0%, 0%)" stroke-opacity="1" stroke-miterlimit="10" d="M 454.4375 203.324219 C 454.4375 204.65625 452.4375 204.65625 452.4375 203.324219 C 452.4375 201.992188 454.4375 201.992188 454.4375 203.324219 "/>
<path fill-rule="nonzero" fill="rgb(100%, 0%, 0%)" fill-opacity="1" stroke-width="0.01" stroke-linecap="butt" stroke-linejoin="miter" stroke="rgb(0%, 0%, 0%)" stroke-opacity="1" stroke-miterlimit="10" d="M 393.554688 399.589844 C 393.554688 400.921875 391.554688 400.921875 391.554688 399.589844 C 391.554688 398.257812 393.554688 398.257812 393.554688 399.589844 "/>
<path fill-rule="nonzero" fill="rgb(100%, 0%, 0%)" fill-opacity="1" stroke-width="0.01" stroke-linecap="butt" stroke-linejoin="miter" stroke="rgb(0%, 0%, 0%)" stroke-opacity="1" stroke-miterlimit="10" d="M 422.027344 282.027344 C 422.027344 283.363281 420.027344 283.363281 420.027344 282.027344 C 420.027344 280.695312 422.027344 280.695312 422.027344 282.027344 "/>
<path fill-rule="nonzero" fill="rgb(100%, 0%, 0%)" fill-opacity="1" stroke-width="0.01" stroke-linecap="butt" stroke-linejoin="miter" stroke="rgb(0%, 0%, 0%)" stroke-opacity="1" stroke-miterlimit="10" d="M 133.332031 293.1875 C 133.332031 294.523438 131.332031 294.523438 131.332031 293.1875 C 131.332031 291.855469 133.332031 291.855469 133.332031 293.1875 "/>
<path fill-rule="nonzero" fill="rgb(100%, 0%, 0%)" fill-opacity="1" stroke-width="0.01" stroke-linecap="butt" stroke-linejoin="miter" stroke="rgb(0%, 0%, 0%)" stroke-opacity="1" stroke-miterlimit="10" d="M 374.492188 25.710938 C 374.492188 27.046875 372.492188 27.046875 372.492188 25.710938 C 372.492188 24.378906 374.492188 24.378906 374.492188 25.710938 "/>
<path fill-rule="nonzero" fill="rgb(100%, 0%, 0%)" fill-opacity="1" stroke-width="0.01" stroke-linecap="butt" stroke-linejoin="miter" stroke="rgb(0%, 0%, 0%)" stroke-opacity="1" stroke-miterlimit="10" d="M 231.074219 130.558594 C 231.074219 131.890625 229.074219 131.890625 229.074219 130.558594 C 229.074219 129.222656 231.074219 129.222656 231.074219 130.558594 "/>
<path fill-rule="nonzero" fill="rgb(100%, 0%, 0%)" fill-opacity="1" stroke-width="0.01" stroke-linecap="butt" stroke-linejoin="miter" stroke="rgb(0%, 0%, 0%)" stroke-opacity="1" stroke-miterlimit="10" d="M 362.847656 388.59375 C 362.847656 389.925781 360.847656 389.925781 360.847656 388.59375 C 360.847656 387.257812 362.847656 387.257812 362.847656 388.59375 "/>
<path fill-rule="nonzero" fill="rgb(100%, 0%, 0%)" fill-opacity="1" stroke-width="0.01" stroke-linecap="butt" stroke-linejoin="miter" stroke="rgb(0%, 0%, 0%)" stroke-opacity="1" stroke-miterlimit="10" d="M 436.230469 550.300781 C 436.230469 551.632812 434.230469 551.632812 434.230469 550.300781 C 434.230469 548.96875 436.230469 548.96875 436.230469 550.300781 "/>
<path fill-rule="nonzero" fill="rgb(100%, 0%, 0%)" fill-opacity="1" stroke-width="0.01" stroke-linecap="butt" stroke-linejoin="miter" stroke="rgb(0%, 0%, 0%)" stroke-opacity="1" stroke-miterlimit="10" d="M 373.101562 229.292969 C 373.101562 230.625 371.101562 230.625 371.101562 229.292969 C 371.101562 227.957031 373.101562 227.957031 373.101562 229.292969 "/>
<path fill-rule="nonzero" fill="rgb(100%, 0%, 0%)" fill-opacity="1" stroke-width="0.01" stroke-linecap="butt" stroke-linejoin="miter" stroke="rgb(0%, 0%, 0%)" stroke-opacity="1" stroke-miterlimit="10" d="M 492.6875 465.234375 C 492.6875 466.566406 490.6875 466.566406 490.6875 465.234375 C 490.6875 463.902344 492.6875 463.902344 492.6875 465.234375 "/>
<path fill-rule="nonzero" fill="rgb(100%, 0%, 0%)" fill-opacity="1" stroke-width="0.01" stroke-linecap="butt" stroke-linejoin="miter" stroke="rgb(0%, 0%, 0%)" stroke-opacity="1" stroke-miterlimit="10" d="M 171.324219 141.816406 C 171.324219 143.148438 169.324219 143.148438 169.324219 141.816406 C 169.324219 140.480469 171.324219 140.480469 171.324219 141.816406 "/>
<path fill-rule="nonzero" fill="rgb(100%, 0%, 0%)" fill-opacity="1" stroke-width="0.01" stroke-linecap="butt" stroke-linejoin="miter" stroke="rgb(0%, 0%, 0%)" stroke-opacity="1" stroke-miterlimit="10" d="M 174.011719 551.34375 C 174.011719 552.675781 172.011719 552.675781 172.011719 551.34375 C 172.011719 550.011719 174.011719 550.011719 174.011719 551.34375 "/>
<path fill-rule="nonzero" fill="rgb(100%, 0%, 0%)" fill-opacity="1" stroke-width="0.01" stroke-linecap="butt" stroke-linejoin="miter" stroke="rgb(0%, 0%, 0%)" stroke-opacity="1" stroke-miterlimit="10" d="M 574.363281 249.078125 C 574.363281 250.410156 572.363281 250.410156 572.363281 249.078125 C 572.363281 247.746094 574.363281 247.746094 574.363281 249.078125 "/>
<path fill-rule="nonzero" fill="rgb(100%, 0%, 0%)" fill-opacity="1" stroke-width="0.01" stroke-linecap="butt" stroke-linejoin="miter" stroke="rgb(0%, 0%, 0%)" stroke-opacity="1" stroke-miterlimit="10" d="M 266.804688 498.6875 C 266.804688 500.023438 264.804688 500.023438 264.804688 498.6875 C 264.804688 497.355469 266.804688 497.355469 266.804688 498.6875 "/>
<path fill-rule="nonzero" fill="rgb(100%, 0%, 0%)" fill-opacity="1" stroke-width="0.01" stroke-linecap="butt" stroke-linejoin="miter" stroke="rgb(0%, 0%, 0%)" stroke-opacity="1" stroke-miterlimit="10" d="M 560.9375 413.785156 C 560.9375 415.117188 558.9375 415.117188 558.9375 413.785156 C 558.9375 412.449219 560.9375 412.449219 560.9375 413.785156 "/>
<path fill-rule="nonzero" fill="rgb(100%, 0%, 0%)" fill-opacity="1" stroke-width="0.01" stroke-linecap="butt" stroke-linejoin="miter" stroke="rgb(0%, 0%, 0%)" stroke-opacity="1" stroke-miterlimit="10" d="M 60.316406 147.804688 C 60.316406 149.140625 58.316406 149.140625 58.316406 147.804688 C 58.316406 146.472656 60.316406 146.472656 60.316406 147.804688 "/>
<path fill-rule="nonzero" fill="rgb(100%, 0%, 0%)" fill-opacity="1" stroke-width="0.01" stroke-linecap="butt" stroke-linejoin="miter" stroke="rgb(0%, 0%, 0%)" stroke-opacity="1" stroke-miterlimit="10" d="M 566.140625 288.511719 C 566.140625 289.84375 564.140625 289.84375 564.140625 288.511719 C 564.140625 287.179688 566.140625 287.179688 566.140625 288.511719 "/>
<path fill-rule="nonzero" fill="rgb(100%, 0%, 0%)" fill-opacity="1" stroke-width="0.01" stroke-linecap="butt" stroke-linejoin="miter" stroke="rgb(0%, 0%, 0%)" stroke-opacity="1" stroke-miterlimit="10" d="M 581 329.25 C 581 330.582031 579 330.582031 579 329.25 C 579 327.917969 581 327.917969 581 329.25 "/>
<path fill-rule="nonzero" fill="rgb(100%, 0%, 0%)" fill-opacity="1" stroke-width="0.01" stroke-linecap="butt" stroke-linejoin="miter" stroke="rgb(0%, 0%, 0%)" stroke-opacity="1" stroke-miterlimit="10" d="M 277.28125 387.09375 C 277.28125 388.429688 275.28125 388.429688 275.28125 387.09375 C 275.28125 385.761719 277.28125 385.761719 277.28125 387.09375 "/>
<path fill-rule="nonzero" fill="rgb(100%, 0%, 0%)" fill-opacity="1" stroke-width="0.01" stroke-linecap="butt" stroke-linejoin="miter" stroke="rgb(0%, 0%, 0%)" stroke-opacity="1" stroke-miterlimit="10" d="M 164.832031 453.234375 C 164.832031 454.566406 162.832031 454.566406 162.832031 453.234375 C 162.832031 451.898438 164.832031 451.898438 164.832031 453.234375 "/>
<path fill-rule="nonzero" fill="rgb(100%, 0%, 0%)" fill-opacity="1" stroke-width="0.01" stroke-linecap="butt" stroke-linejoin="miter" stroke="rgb(0%, 0%, 0%)" stroke-opacity="1" stroke-miterlimit="10" d="M 131.414062 74.207031 C 131.414062 75.539062 129.414062 75.539062 129.414062 74.207031 C 129.414062 72.875 131.414062 72.875 131.414062 74.207031 "/>
<path fill-rule="nonzero" fill="rgb(100%, 0%, 0%)" fill-opacity="1" stroke-width="0.01" stroke-linecap="butt" stroke-linejoin="miter" stroke="rgb(0%, 0%, 0%)" stroke-opacity="1" stroke-miterlimit="10" d="M 406.675781 158.085938 C 406.675781 159.417969 404.675781 159.417969 404.675781 158.085938 C 404.675781 156.753906 406.675781 156.753906 406.675781 158.085938 "/>
<path fill-rule="nonzero" fill="rgb(100%, 0%, 0%)" fill-opacity="1" stroke-width="0.01" stroke-linecap="butt" stroke-linejoin="miter" stroke="rgb(0%, 0%, 0%)" stroke-opacity="1" stroke-miterlimit="10" d="M 452.765625 272.363281 C 452.765625 273.695312 450.765625 273.695312 450.765625 272.363281 C 450.765625 271.027344 452.765625 271.027344 452.765625 272.363281 "/>
<path fill-rule="nonzero" fill="rgb(100%, 0%, 0%)" fill-opacity="1" stroke-width="0.01" stroke-linecap="butt" stroke-linejoin="miter" stroke="rgb(0%, 0%, 0%)" stroke-opacity="1" stroke-miterlimit="10" d="M 231.503906 439.882812 C 231.503906 441.21875 229.503906 441.21875 229.503906 439.882812 C 229.503906 438.550781 231.503906 438.550781 231.503906 439.882812 "/>
<path fill-rule="nonzero" fill="rgb(100%, 0%, 0%)" fill-opacity="1" stroke-width="0.01" stroke-linecap="butt" stroke-linejoin="miter" stroke="rgb(0%, 0%, 0%)" stroke-opacity="1" stroke-miterlimit="10" d="M 109.21875 362.664062 C 109.21875 364 107.21875 364 107.21875 362.664062 C 107.21875 361.332031 109.21875 361.332031 109.21875 362.664062 "/>
<path fill-rule="nonzero" fill="rgb(100%, 0%, 0%)" fill-opacity="1" stroke-width="0.01" stroke-linecap="butt" stroke-linejoin="miter" stroke="rgb(0%, 0%, 0%)" stroke-opacity="1" stroke-miterlimit="10" d="M 282.066406 106.671875 C 282.066406 108.003906 280.066406 108.003906 280.066406 106.671875 C 280.066406 105.339844 282.066406 105.339844 282.066406 106.671875 "/>
<path fill-rule="nonzero" fill="rgb(100%, 0%, 0%)" fill-opacity="1" stroke-width="0.01" stroke-linecap="butt" stroke-linejoin="miter" stroke="rgb(0%, 0%, 0%)" stroke-opacity="1" stroke-miterlimit="10" d="M 291.878906 424.417969 C 291.878906 425.75 289.878906 425.75 289.878906 424.417969 C 289.878906 423.082031 291.878906 423.082031 291.878906 424.417969 "/>
<path fill-rule="nonzero" fill="rgb(100%, 0%, 0%)" fill-opacity="1" stroke-width="0.01" stroke-linecap="butt" stroke-linejoin="miter" stroke="rgb(0%, 0%, 0%)" stroke-opacity="1" stroke-miterlimit="10" d="M 313.859375 20 C 313.859375 21.332031 311.859375 21.332031 311.859375 20 C 311.859375 18.667969 313.859375 18.667969 313.859375 20 "/>
<path fill-rule="nonzero" fill="rgb(100%, 0%, 0%)" fill-opacity="1" stroke-width="0.01" stroke-linecap="butt" stroke-linejoin="miter" stroke="rgb(0%, 0%, 0%)" stroke-opacity="1" stroke-miterlimit="10" d="M 559.652344 371.765625 C 559.652344 373.097656 557.652344 373.097656 557.652344 371.765625 C 557.652344 370.429688 559.652344 370.429688 559.652344 371.765625 "/>
<path fill-rule="nonzero" fill="rgb(100%, 0%, 0%)" fill-opacity="1" stroke-width="0.01" stroke-linecap="butt" stroke-linejoin="miter" stroke="rgb(0%, 0%, 0%)" stroke-opacity="1" stroke-miterlimit="10" d="M 290.972656 469.132812 C 290.972656 470.464844 288.972656 470.464844 288.972656 469.132812 C 288.972656 467.796875 290.972656 467.796875 290.972656 469.132812 "/>
<path fill-rule="nonzero" fill="rgb(100%, 0%, 0%)" fill-opacity="1" stroke-width="0.01" stroke-linecap="butt" stroke-linejoin="miter" stroke="rgb(0%, 0%, 0%)" stroke-opacity="1" stroke-miterlimit="10" d="M 458.621094 58.910156 C 458.621094 60.242188 456.621094 60.242188 456.621094 58.910156 C 456.621094 57.578125 458.621094 57.578125 458.621094 58.910156 "/>
<path fill-rule="nonzero" fill="rgb(100%, 0%, 0%)" fill-opacity="1" stroke-width="0.01" stroke-linecap="butt" stroke-linejoin="miter" stroke="rgb(0%, 0%, 0%)" stroke-opacity="1" stroke-miterlimit="10" d="M 464.546875 382.230469 C 464.546875 383.566406 462.546875 383.566406 462.546875 382.230469 C 462.546875 380.898438 464.546875 380.898438 464.546875 382.230469 "/>
<path fill-rule="nonzero" fill="rgb(100%, 0%, 0%)" fill-opacity="1" stroke-width="0.01" stroke-linecap="butt" stroke-linejoin="miter" stroke="rgb(0%, 0%, 0%)" stroke-opacity="1" stroke-miterlimit="10" d="M 383.273438 357.417969 C 383.273438 358.75 381.273438 358.75 381.273438 357.417969 C 381.273438 356.082031 383.273438 356.082031 383.273438 357.417969 "/>
<path fill-rule="nonzero" fill="rgb(100%, 0%, 0%)" fill-opacity="1" stroke-width="0.01" stroke-linecap="butt" stroke-linejoin="miter" stroke="rgb(0%, 0%, 0%)" stroke-opacity="1" stroke-miterlimit="10" d="M 165.339844 418.785156 C 165.339844 420.117188 163.339844 420.117188 163.339844 418.785156 C 163.339844 417.449219 165.339844 417.449219 165.339844 418.785156 "/>
<path fill-rule="nonzero" fill="rgb(100%, 0%, 0%)" fill-opacity="1" stroke-width="0.01" stroke-linecap="butt" stroke-linejoin="miter" stroke="rgb(0%, 0%, 0%)" stroke-opacity="1" stroke-miterlimit="10" d="M 124.363281 446.046875 C 124.363281 447.378906 122.363281 447.378906 122.363281 446.046875 C 122.363281 444.714844 124.363281 444.714844 124.363281 446.046875 "/>
<path fill-rule="nonzero" fill="rgb(100%, 0%, 0%)" fill-opacity="1" stroke-width="0.01" stroke-linecap="butt" stroke-linejoin="miter" stroke="rgb(0%, 0%, 0%)" stroke-opacity="1" stroke-miterlimit="10" d="M 312.359375 122.816406 C 312.359375 124.152344 310.359375 124.152344 310.359375 122.816406 C 310.359375 121.484375 312.359375 121.484375 312.359375 122.816406 "/>
<path fill-rule="nonzero" fill="rgb(100%, 0%, 0%)" fill-opacity="1" stroke-width="0.01" stroke-linecap="butt" stroke-linejoin="miter" stroke="rgb(0%, 0%, 0%)" stroke-opacity="1" stroke-miterlimit="10" d="M 90.636719 100.496094 C 90.636719 101.828125 88.636719 101.828125 88.636719 100.496094 C 88.636719 99.160156 90.636719 99.160156 90.636719 100.496094 "/>
<path fill-rule="nonzero" fill="rgb(100%, 0%, 0%)" fill-opacity="1" stroke-width="0.01" stroke-linecap="butt" stroke-linejoin="miter" stroke="rgb(0%, 0%, 0%)" stroke-opacity="1" stroke-miterlimit="10" d="M 569.382812 202.808594 C 569.382812 204.144531 567.382812 204.144531 567.382812 202.808594 C 567.382812 201.476562 569.382812 201.476562 569.382812 202.808594 "/>
<path fill-rule="nonzero" fill="rgb(100%, 0%, 0%)" fill-opacity="1" stroke-width="0.01" stroke-linecap="butt" stroke-linejoin="miter" stroke="rgb(0%, 0%, 0%)" stroke-opacity="1" stroke-miterlimit="10" d="M 236.320312 476.613281 C 236.320312 477.949219 234.320312 477.949219 234.320312 476.613281 C 234.320312 475.28125 236.320312 475.28125 236.320312 476.613281 "/>
<path fill-rule="nonzero" fill="rgb(100%, 0%, 0%)" fill-opacity="1" stroke-width="0.01" stroke-linecap="butt" stroke-linejoin="miter" stroke="rgb(0%, 0%, 0%)" stroke-opacity="1" stroke-miterlimit="10" d="M 253.386719 88.0625 C 253.386719 89.394531 251.386719 89.394531 251.386719 88.0625 C 251.386719 86.726562 253.386719 86.726562 253.386719 88.0625 "/>
<path fill-rule="nonzero" fill="rgb(100%, 0%, 0%)" fill-opacity="1" stroke-width="0.01" stroke-linecap="butt" stroke-linejoin="miter" stroke="rgb(0%, 0%, 0%)" stroke-opacity="1" stroke-miterlimit="10" d="M 278.304688 53.285156 C 278.304688 54.617188 276.304688 54.617188 276.304688 53.285156 C 276.304688 51.953125 278.304688 51.953125 278.304688 53.285156 "/>
<path fill-rule="nonzero" fill="rgb(100%, 0%, 0%)" fill-opacity="1" stroke-width="0.01" stroke-linecap="butt" stroke-linejoin="miter" stroke="rgb(0%, 0%, 0%)" stroke-opacity="1" stroke-miterlimit="10" d="M 412.199219 323.449219 C 412.199219 324.78125 410.199219 324.78125 410.199219 323.449219 C 410.199219 322.113281 412.199219 322.113281 412.199219 323.449219 "/>
<path fill-rule="nonzero" fill="rgb(100%, 0%, 0%)" fill-opacity="1" stroke-width="0.01" stroke-linecap="butt" stroke-linejoin="miter" stroke="rgb(0%, 0%, 0%)" stroke-opacity="1" stroke-miterlimit="10" d="M 153.035156 264.417969 C 153.035156 265.753906 151.035156 265.753906 151.035156 264.417969 C 151.035156 263.085938 153.035156 263.085938 153.035156 264.417969 "/>
<path fill-rule="nonzero" fill="rgb(100%, 0%, 0%)" fill-opacity="1" stroke-width="0.01" stroke-linecap="butt" stroke-linejoin="miter" stroke="rgb(0%, 0%, 0%)" stroke-opacity="1" stroke-miterlimit="10" d="M 144.609375 114.808594 C 144.609375 116.140625 142.609375 116.140625 142.609375 114.808594 C 142.609375 113.476562 144.609375 113.476562 144.609375 114.808594 "/>
<path fill-rule="nonzero" fill="rgb(100%, 0%, 0%)" fill-opacity="1" stroke-width="0.01" stroke-linecap="butt" stroke-linejoin="miter" stroke="rgb(0%, 0%, 0%)" stroke-opacity="1" stroke-miterlimit="10" d="M 269.554688 580 C 269.554688 581.332031 267.554688 581.332031 267.554688 580 C 267.554688 578.667969 269.554688 578.667969 269.554688 580 "/>
<path fill-rule="nonzero" fill="rgb(100%, 0%, 0%)" fill-opacity="1" stroke-width="0.01" stroke-linecap="butt" stroke-linejoin="miter" stroke="rgb(0%, 0%, 0%)" stroke-opacity="1" stroke-miterlimit="10" d="M 215.394531 238.753906 C 215.394531 240.085938 213.394531 240.085938 213.394531 238.753906 C 213.394531 237.417969 215.394531 237.417969 215.394531 238.753906 "/>
<path fill-rule="nonzero" fill="rgb(100%, 0%, 0%)" fill-opacity="1" stroke-width="0.01" stroke-linecap="butt" stroke-linejoin="miter" stroke="rgb(0%, 0%, 0%)" stroke-opacity="1" stroke-miterlimit="10" d="M 208.234375 165.214844 C 208.234375 166.550781 206.234375 166.550781 206.234375 165.214844 C 206.234375 163.882812 208.234375 163.882812 208.234375 165.214844 "/>
<path fill-rule="nonzero" fill="rgb(100%, 0%, 0%)" fill-opacity="1" stroke-width="0.01" stroke-linecap="butt" stroke-linejoin="miter" stroke="rgb(0%, 0%, 0%)" stroke-opacity="1" stroke-miterlimit="10" d="M 239.726562 269.972656 C 239.726562 271.304688 237.726562 271.304688 237.726562 269.972656 C 237.726562 268.636719 239.726562 268.636719 239.726562 269.972656 "/>
<path fill-rule="nonzero" fill="rgb(100%, 0%, 0%)" fill-opacity="1" stroke-width="0.01" stroke-linecap="butt" stroke-linejoin="miter" stroke="rgb(0%, 0%, 0%)" stroke-opacity="1" stroke-miterlimit="10" d="M 263.277344 138.585938 C 263.277344 139.917969 261.277344 139.917969 261.277344 138.585938 C 261.277344 137.253906 263.277344 137.253906 263.277344 138.585938 "/>
<path fill-rule="nonzero" fill="rgb(100%, 0%, 0%)" fill-opacity="1" stroke-width="0.01" stroke-linecap="butt" stroke-linejoin="miter" stroke="rgb(0%, 0%, 0%)" stroke-opacity="1" stroke-miterlimit="10" d="M 86.8125 433.484375 C 86.8125 434.816406 84.8125 434.816406 84.8125 433.484375 C 84.8125 432.148438 86.8125 432.148438 86.8125 433.484375 "/>
<path fill-rule="nonzero" fill="rgb(100%, 0%, 0%)" fill-opacity="1" stroke-width="0.01" stroke-linecap="butt" stroke-linejoin="miter" stroke="rgb(0%, 0%, 0%)" stroke-opacity="1" stroke-miterlimit="10" d="M 183.78125 201.597656 C 183.78125 202.933594 181.78125 202.933594 181.78125 201.597656 C 181.78125 200.265625 183.78125 200.265625 183.78125 201.597656 "/>
<path fill-rule="nonzero" fill="rgb(100%, 0%, 0%)" fill-opacity="1" stroke-width="0.01" stroke-linecap="butt" stroke-linejoin="miter" stroke="rgb(0%, 0%, 0%)" stroke-opacity="1" stroke-miterlimit="10" d="M 306.195312 502.972656 C 306.195312 504.304688 304.195312 504.304688 304.195312 502.972656 C 304.195312 501.636719 306.195312 501.636719 306.195312 502.972656 "/>
<path fill-rule="nonzero" fill="rgb(100%, 0%, 0%)" fill-opacity="1" stroke-width="0.01" stroke-linecap="butt" stroke-linejoin="miter" stroke="rgb(0%, 0%, 0%)" stroke-opacity="1" stroke-miterlimit="10" d="M 345.269531 53.554688 C 345.269531 54.886719 343.269531 54.886719 343.269531 53.554688 C 343.269531 52.21875 345.269531 52.21875 345.269531 53.554688 "/>
<path fill-rule="nonzero" fill="rgb(100%, 0%, 0%)" fill-opacity="1" stroke-width="0.01" stroke-linecap="butt" stroke-linejoin="miter" stroke="rgb(0%, 0%, 0%)" stroke-opacity="1" stroke-miterlimit="10" d="M 334.691406 148.125 C 334.691406 149.457031 332.691406 149.457031 332.691406 148.125 C 332.691406 146.789062 334.691406 146.789062 334.691406 148.125 "/>
<path fill-rule="nonzero" fill="rgb(100%, 0%, 0%)" fill-opacity="1" stroke-width="0.01" stroke-linecap="butt" stroke-linejoin="miter" stroke="rgb(0%, 0%, 0%)" stroke-opacity="1" stroke-miterlimit="10" d="M 391.953125 294.945312 C 391.953125 296.277344 389.953125 296.277344 389.953125 294.945312 C 389.953125 293.613281 391.953125 293.613281 391.953125 294.945312 "/>
<path fill-rule="nonzero" fill="rgb(100%, 0%, 0%)" fill-opacity="1" stroke-width="0.01" stroke-linecap="butt" stroke-linejoin="miter" stroke="rgb(0%, 0%, 0%)" stroke-opacity="1" stroke-miterlimit="10" d="M 340.3125 502.523438 C 340.3125 503.859375 338.3125 503.859375 338.3125 502.523438 C 338.3125 501.191406 340.3125 501.191406 340.3125 502.523438 "/>
<path fill-rule="nonzero" fill="rgb(100%, 0%, 0%)" fill-opacity="1" stroke-width="0.01" stroke-linecap="butt" stroke-linejoin="miter" stroke="rgb(0%, 0%, 0%)" stroke-opacity="1" stroke-miterlimit="10" d="M 308.703125 74.089844 C 308.703125 75.421875 306.703125 75.421875 306.703125 74.089844 C 306.703125 72.753906 308.703125 72.753906 308.703125 74.089844 "/>
<path fill-rule="nonzero" fill="rgb(100%, 0%, 0%)" fill-opacity="1" stroke-width="0.01" stroke-linecap="butt" stroke-linejoin="miter" stroke="rgb(0%, 0%, 0%)" stroke-opacity="1" stroke-miterlimit="10" d="M 255.011719 22.976562 C 255.011719 24.308594 253.011719 24.308594 253.011719 22.976562 C 253.011719 21.644531 255.011719 21.644531 255.011719 22.976562 "/>
<path fill-rule="nonzero" fill="rgb(100%, 0%, 0%)" fill-opacity="1" stroke-width="0.01" stroke-linecap="butt" stroke-linejoin="miter" stroke="rgb(0%, 0%, 0%)" stroke-opacity="1" stroke-miterlimit="10" d="M 165.4375 175.613281 C 165.4375 176.945312 163.4375 176.945312 163.4375 175.613281 C 163.4375 174.28125 165.4375 174.28125 165.4375 175.613281 "/>
<path fill-rule="nonzero" fill="rgb(100%, 0%, 0%)" fill-opacity="1" stroke-width="0.01" stroke-linecap="butt" stroke-linejoin="miter" stroke="rgb(0%, 0%, 0%)" stroke-opacity="1" stroke-miterlimit="10" d="M 383.6875 192.519531 C 383.6875 193.851562 381.6875 193.851562 381.6875 192.519531 C 381.6875 191.183594 383.6875 191.183594 383.6875 192.519531 "/>
<path fill-rule="nonzero" fill="rgb(100%, 0%, 0%)" fill-opacity="1" stroke-width="0.01" stroke-linecap="butt" stroke-linejoin="miter" stroke="rgb(0%, 0%, 0%)" stroke-opacity="1" stroke-miterlimit="10" d="M 219.714844 352.976562 C 219.714844 354.308594 217.714844 354.308594 217.714844 352.976562 C 217.714844 351.644531 219.714844 351.644531 219.714844 352.976562 "/>
<path fill-rule="nonzero" fill="rgb(100%, 0%, 0%)" fill-opacity="1" stroke-width="0.01" stroke-linecap="butt" stroke-linejoin="miter" stroke="rgb(0%, 0%, 0%)" stroke-opacity="1" stroke-miterlimit="10" d="M 148.074219 389.421875 C 148.074219 390.753906 146.074219 390.753906 146.074219 389.421875 C 146.074219 388.089844 148.074219 388.089844 148.074219 389.421875 "/>
<path fill-rule="nonzero" fill="rgb(100%, 0%, 0%)" fill-opacity="1" stroke-width="0.01" stroke-linecap="butt" stroke-linejoin="miter" stroke="rgb(0%, 0%, 0%)" stroke-opacity="1" stroke-miterlimit="10" d="M 253.042969 410.019531 C 253.042969 411.355469 251.042969 411.355469 251.042969 410.019531 C 251.042969 408.6875 253.042969 408.6875 253.042969 410.019531 "/>
<path fill-rule="nonzero" fill="rgb(100%, 0%, 0%)" fill-opacity="1" stroke-width="0.01" stroke-linecap="butt" stroke-linejoin="miter" stroke="rgb(0%, 0%, 0%)" stroke-opacity="1" stroke-miterlimit="10" d="M 24.769531 352.46875 C 24.769531 353.800781 22.769531 353.800781 22.769531 352.46875 C 22.769531 351.132812 24.769531 351.132812 24.769531 352.46875 "/>
<path fill-rule="nonzero" fill="rgb(100%, 0%, 0%)" fill-opacity="1" stroke-width="0.01" stroke-linecap="butt" stroke-linejoin="miter" stroke="rgb(0%, 0%, 0%)" stroke-opacity="1" stroke-miterlimit="10" d="M 338.644531 99.242188 C 338.644531 100.574219 336.644531 100.574219 336.644531 99.242188 C 336.644531 97.90625 338.644531 97.90625 338.644531 99.242188 "/>
<path fill-rule="nonzero" fill="rgb(100%, 0%, 0%)" fill-opacity="1" stroke-width="0.01" stroke-linecap="butt" stroke-linejoin="miter" stroke="rgb(0%, 0%, 0%)" stroke-opacity="1" stroke-miterlimit="10" d="M 485.539062 290.375 C 485.539062 291.707031 483.539062 291.707031 483.539062 290.375 C 483.539062 289.042969 485.539062 289.042969 485.539062 290.375 "/>
<path fill-rule="nonzero" fill="rgb(100%, 0%, 0%)" fill-opacity="1" stroke-width="0.01" stroke-linecap="butt" stroke-linejoin="miter" stroke="rgb(0%, 0%, 0%)" stroke-opacity="1" stroke-miterlimit="10" d="M 443.519531 136.019531 C 443.519531 137.355469 441.519531 137.355469 441.519531 136.019531 C 441.519531 134.6875 443.519531 134.6875 443.519531 136.019531 "/>
<path fill-rule="nonzero" fill="rgb(100%, 0%, 0%)" fill-opacity="1" stroke-width="0.01" stroke-linecap="butt" stroke-linejoin="miter" stroke="rgb(0%, 0%, 0%)" stroke-opacity="1" stroke-miterlimit="10" d="M 382.808594 567.40625 C 382.808594 568.742188 380.808594 568.742188 380.808594 567.40625 C 380.808594 566.074219 382.808594 566.074219 382.808594 567.40625 "/>
<path fill-rule="nonzero" fill="rgb(100%, 0%, 0%)" fill-opacity="1" stroke-width="0.01" stroke-linecap="butt" stroke-linejoin="miter" stroke="rgb(0%, 0%, 0%)" stroke-opacity="1" stroke-miterlimit="10" d="M 214.949219 37.058594 C 214.949219 38.390625 212.949219 38.390625 212.949219 37.058594 C 212.949219 35.726562 214.949219 35.726562 214.949219 37.058594 "/>
<path fill-rule="nonzero" fill="rgb(100%, 0%, 0%)" fill-opacity="1" stroke-width="0.01" stroke-linecap="butt" stroke-linejoin="miter" stroke="rgb(0%, 0%, 0%)" stroke-opacity="1" stroke-miterlimit="10" d="M 175.15625 232.292969 C 175.15625 233.625 173.15625 233.625 173.15625 232.292969 C 173.15625 230.957031 175.15625 230.957031 175.15625 232.292969 "/>
<path fill-rule="nonzero" fill="rgb(100%, 0%, 0%)" fill-opacity="1" stroke-width="0.01" stroke-linecap="butt" stroke-linejoin="miter" stroke="rgb(0%, 0%, 0%)" stroke-opacity="1" stroke-miterlimit="10" d="M 304.738281 247.152344 C 304.738281 248.484375 302.738281 248.484375 302.738281 247.152344 C 302.738281 245.816406 304.738281 245.816406 304.738281 247.152344 "/>
<path fill-rule="nonzero" fill="rgb(100%, 0%, 0%)" fill-opacity="1" stroke-width="0.01" stroke-linecap="butt" stroke-linejoin="miter" stroke="rgb(0%, 0%, 0%)" stroke-opacity="1" stroke-miterlimit="10" d="M 283.902344 187.722656 C 283.902344 189.054688 281.902344 189.054688 281.902344 187.722656 C 281.902344 186.386719 283.902344 186.386719 283.902344 187.722656 "/>
<path fill-rule="nonzero" fill="rgb(100%, 0%, 0%)" fill-opacity="1" stroke-width="0.01" stroke-linecap="butt" stroke-linejoin="miter" stroke="rgb(0%, 0%, 0%)" stroke-opacity="1" stroke-miterlimit="10" d="M 42.328125 313.453125 C 42.328125 314.789062 40.328125 314.789062 40.328125 313.453125 C 40.328125 312.121094 42.328125 312.121094 42.328125 313.453125 "/>
<path fill-rule="nonzero" fill="rgb(100%, 0%, 0%)" fill-opacity="1" stroke-width="0.01" stroke-linecap="butt" stroke-linejoin="miter" stroke="rgb(0%, 0%, 0%)" stroke-opacity="1" stroke-miterlimit="10" d="M 410.113281 434.128906 C 410.113281 435.460938 408.113281 435.460938 408.113281 434.128906 C 408.113281 432.792969 410.113281 432.792969 410.113281 434.128906 "/>
<path fill-rule="nonzero" fill="rgb(100%, 0%, 0%)" fill-opacity="1" stroke-width="0.01" stroke-linecap="butt" stroke-linejoin="miter" stroke="rgb(0%, 0%, 0%)" stroke-opacity="1" stroke-miterlimit="10" d="M 260.449219 297.046875 C 260.449219 298.382812 258.449219 298.382812 258.449219 297.046875 C 258.449219 295.714844 260.449219 295.714844 260.449219 297.046875 "/>
<path fill-rule="nonzero" fill="rgb(100%, 0%, 0%)" fill-opacity="1" stroke-width="0.01" stroke-linecap="butt" stroke-linejoin="miter" stroke="rgb(0%, 0%, 0%)" stroke-opacity="1" stroke-miterlimit="10" d="M 520.316406 267.03125 C 520.316406 268.367188 518.316406 268.367188 518.316406 267.03125 C 518.316406 265.699219 520.316406 265.699219 520.316406 267.03125 "/>
<path fill-rule="nonzero" fill="rgb(100%, 0%, 0%)" fill-opacity="1" stroke-width="0.01" stroke-linecap="butt" stroke-linejoin="miter" stroke="rgb(0%, 0%, 0%)" stroke-opacity="1" stroke-miterlimit="10" d="M 170.402344 45.320312 C 170.402344 46.65625 168.402344 46.65625 168.402344 45.320312 C 168.402344 43.988281 170.402344 43.988281 170.402344 45.320312 "/>
<path fill-rule="nonzero" fill="rgb(100%, 0%, 0%)" fill-opacity="1" stroke-width="0.01" stroke-linecap="butt" stroke-linejoin="miter" stroke="rgb(0%, 0%, 0%)" stroke-opacity="1" stroke-miterlimit="10" d="M 485.191406 324.25 C 485.191406 325.582031 483.191406 325.582031 483.191406 324.25 C 483.191406 322.917969 485.191406 322.917969 485.191406 324.25 "/>
<path fill-rule="nonzero" fill="rgb(100%, 0%, 0%)" fill-opacity="1" stroke-width="0.01" stroke-linecap="butt" stroke-linejoin="miter" stroke="rgb(0%, 0%, 0%)" stroke-opacity="1" stroke-miterlimit="10" d="M 281.367188 222.203125 C 281.367188 223.535156 279.367188 223.535156 279.367188 222.203125 C 279.367188 220.867188 281.367188 220.867188 281.367188 222.203125 "/>
<path fill-rule="nonzero" fill="rgb(100%, 0%, 0%)" fill-opacity="1" stroke-width="0.01" stroke-linecap="butt" stroke-linejoin="miter" stroke="rgb(0%, 0%, 0%)" stroke-opacity="1" stroke-miterlimit="10" d="M 192.03125 263.070312 C 192.03125 264.40625 190.03125 264.40625 190.03125 263.070312 C 190.03125 261.738281 192.03125 261.738281 192.03125 263.070312 "/>
<path fill-rule="nonzero" fill="rgb(100%, 0%, 0%)" fill-opacity="1" stroke-width="0.01" stroke-linecap="butt" stroke-linejoin="miter" stroke="rgb(0%, 0%, 0%)" stroke-opacity="1" stroke-miterlimit="10" d="M 481.746094 251.726562 C 481.746094 253.058594 479.746094 253.058594 479.746094 251.726562 C 479.746094 250.394531 481.746094 250.394531 481.746094 251.726562 "/>
<path fill-rule="nonzero" fill="rgb(100%, 0%, 0%)" fill-opacity="1" stroke-width="0.01" stroke-linecap="butt" stroke-linejoin="miter" stroke="rgb(0%, 0%, 0%)" stroke-opacity="1" stroke-miterlimit="10" d="M 319.121094 339.242188 C 319.121094 340.578125 317.121094 340.578125 317.121094 339.242188 C 317.121094 337.910156 319.121094 337.910156 319.121094 339.242188 "/>
<path fill-rule="nonzero" fill="rgb(100%, 0%, 0%)" fill-opacity="1" stroke-width="0.01" stroke-linecap="butt" stroke-linejoin="miter" stroke="rgb(0%, 0%, 0%)" stroke-opacity="1" stroke-miterlimit="10" d="M 326.488281 309.066406 C 326.488281 310.402344 324.488281 310.402344 324.488281 309.066406 C 324.488281 307.734375 326.488281 307.734375 326.488281 309.066406 "/>
<path fill-rule="nonzero" fill="rgb(100%, 0%, 0%)" fill-opacity="1" stroke-width="0.01" stroke-linecap="butt" stroke-linejoin="miter" stroke="rgb(0%, 0%, 0%)" stroke-opacity="1" stroke-miterlimit="10" d="M 116.355469 405.152344 C 116.355469 406.484375 114.355469 406.484375 114.355469 405.152344 C 114.355469 403.820312 116.355469 403.820312 116.355469 405.152344 "/>
<path fill-rule="nonzero" fill="rgb(100%, 0%, 0%)" fill-opacity="1" stroke-width="0.01" stroke-linecap="butt" stroke-linejoin="miter" stroke="rgb(0%, 0%, 0%)" stroke-opacity="1" stroke-miterlimit="10" d="M 201.5 425.449219 C 201.5 426.785156 199.5 426.785156 199.5 425.449219 C 199.5 424.117188 201.5 424.117188 201.5 425.449219 "/>
<path fill-rule="nonzero" fill="rgb(100%, 0%, 0%)" fill-opacity="1" stroke-width="0.01" stroke-linecap="butt" stroke-linejoin="miter" stroke="rgb(0%, 0%, 0%)" stroke-opacity="1" stroke-miterlimit="10" d="M 95 227.484375 C 95 228.816406 93 228.816406 93 227.484375 C 93 226.152344 95 226.152344 95 227.484375 "/>
<path fill-rule="nonzero" fill="rgb(100%, 0%, 0%)" fill-opacity="1" stroke-width="0.01" stroke-linecap="butt" stroke-linejoin="miter" stroke="rgb(0%, 0%, 0%)" stroke-opacity="1" stroke-miterlimit="10" d="M 336.921875 422.25 C 336.921875 423.585938 334.921875 423.585938 334.921875 422.25 C 334.921875 420.917969 336.921875 420.917969 336.921875 422.25 "/>
<path fill-rule="nonzero" fill="rgb(100%, 0%, 0%)" fill-opacity="1" stroke-width="0.01" stroke-linecap="butt" stroke-linejoin="miter" stroke="rgb(0%, 0%, 0%)" stroke-opacity="1" stroke-miterlimit="10" d="M 37.328125 400.53125 C 37.328125 401.863281 35.328125 401.863281 35.328125 400.53125 C 35.328125 399.195312 37.328125 399.195312 37.328125 400.53125 "/>
<path fill-rule="nonzero" fill="rgb(100%, 0%, 0%)" fill-opacity="1" stroke-width="0.01" stroke-linecap="butt" stroke-linejoin="miter" stroke="rgb(0%, 0%, 0%)" stroke-opacity="1" stroke-miterlimit="10" d="M 341.566406 244.253906 C 341.566406 245.585938 339.566406 245.585938 339.566406 244.253906 C 339.566406 242.917969 341.566406 242.917969 341.566406 244.253906 "/>
<path fill-rule="nonzero" fill="rgb(100%, 0%, 0%)" fill-opacity="1" stroke-width="0.01" stroke-linecap="butt" stroke-linejoin="miter" stroke="rgb(0%, 0%, 0%)" stroke-opacity="1" stroke-miterlimit="10" d="M 185.082031 505.398438 C 185.082031 506.734375 183.082031 506.734375 183.082031 505.398438 C 183.082031 504.066406 185.082031 504.066406 185.082031 505.398438 "/>
<path fill-rule="nonzero" fill="rgb(100%, 0%, 0%)" fill-opacity="1" stroke-width="0.01" stroke-linecap="butt" stroke-linejoin="miter" stroke="rgb(0%, 0%, 0%)" stroke-opacity="1" stroke-miterlimit="10" d="M 136.070312 234.191406 C 136.070312 235.523438 134.070312 235.523438 134.070312 234.191406 C 134.070312 232.855469 136.070312 232.855469 136.070312 234.191406 "/>
<path fill-rule="nonzero" fill="rgb(100%, 0%, 0%)" fill-opacity="1" stroke-width="0.01" stroke-linecap="butt" stroke-linejoin="miter" stroke="rgb(0%, 0%, 0%)" stroke-opacity="1" stroke-miterlimit="10" d="M 416.480469 355.808594 C 416.480469 357.144531 414.480469 357.144531 414.480469 355.808594 C 414.480469 354.476562 416.480469 354.476562 416.480469 355.808594 "/>
<path fill-rule="nonzero" fill="rgb(100%, 0%, 0%)" fill-opacity="1" stroke-width="0.01" stroke-linecap="butt" stroke-linejoin="miter" stroke="rgb(0%, 0%, 0%)" stroke-opacity="1" stroke-miterlimit="10" d="M 108.894531 265.179688 C 108.894531 266.511719 106.894531 266.511719 106.894531 265.179688 C 106.894531 263.84375 108.894531 263.84375 108.894531 265.179688 "/>
<path fill-rule="nonzero" fill="rgb(100%, 0%, 0%)" fill-opacity="1" stroke-width="0.01" stroke-linecap="butt" stroke-linejoin="miter" stroke="rgb(0%, 0%, 0%)" stroke-opacity="1" stroke-miterlimit="10" d="M 533.765625 181.800781 C 533.765625 183.136719 531.765625 183.136719 531.765625 181.800781 C 531.765625 180.46875 533.765625 180.46875 533.765625 181.800781 "/>
<path fill-rule="nonzero" fill="rgb(100%, 0%, 0%)" fill-opacity="1" stroke-width="0.01" stroke-linecap="butt" stroke-linejoin="miter" stroke="rgb(0%, 0%, 0%)" stroke-opacity="1" stroke-miterlimit="10" d="M 370.78125 265.222656 C 370.78125 266.558594 368.78125 266.558594 368.78125 265.222656 C 368.78125 263.890625 370.78125 263.890625 370.78125 265.222656 "/>
<path fill-rule="nonzero" fill="rgb(100%, 0%, 0%)" fill-opacity="1" stroke-width="0.01" stroke-linecap="butt" stroke-linejoin="miter" stroke="rgb(0%, 0%, 0%)" stroke-opacity="1" stroke-miterlimit="10" d="M 410.066406 521.128906 C 410.066406 522.460938 408.066406 522.460938 408.066406 521.128906 C 408.066406 519.792969 410.066406 519.792969 410.066406 521.128906 "/>
<path fill-rule="nonzero" fill="rgb(100%, 0%, 0%)" fill-opacity="1" stroke-width="0.01" stroke-linecap="butt" stroke-linejoin="miter" stroke="rgb(0%, 0%, 0%)" stroke-opacity="1" stroke-miterlimit="10" d="M 421.332031 479.335938 C 421.332031 480.667969 419.332031 480.667969 419.332031 479.335938 C 419.332031 478.003906 421.332031 478.003906 421.332031 479.335938 "/>
<path fill-rule="nonzero" fill="rgb(100%, 0%, 0%)" fill-opacity="1" stroke-width="0.01" stroke-linecap="butt" stroke-linejoin="miter" stroke="rgb(0%, 0%, 0%)" stroke-opacity="1" stroke-miterlimit="10" d="M 351.363281 344.433594 C 351.363281 345.765625 349.363281 345.765625 349.363281 344.433594 C 349.363281 343.101562 351.363281 343.101562 351.363281 344.433594 "/>
<path fill-rule="nonzero" fill="rgb(100%, 0%, 0%)" fill-opacity="1" stroke-width="0.01" stroke-linecap="butt" stroke-linejoin="miter" stroke="rgb(0%, 0%, 0%)" stroke-opacity="1" stroke-miterlimit="10" d="M 372.261719 87.46875 C 372.261719 88.800781 370.261719 88.800781 370.261719 87.46875 C 370.261719 86.132812 372.261719 86.132812 372.261719 87.46875 "/>
<path fill-rule="nonzero" fill="rgb(100%, 0%, 0%)" fill-opacity="1" stroke-width="0.01" stroke-linecap="butt" stroke-linejoin="miter" stroke="rgb(0%, 0%, 0%)" stroke-opacity="1" stroke-miterlimit="10" d="M 421.335938 188.757812 C 421.335938 190.089844 419.335938 190.089844 419.335938 188.757812 C 419.335938 187.425781 421.335938 187.425781 421.335938 188.757812 "/>
<path fill-rule="nonzero" fill="rgb(100%, 0%, 0%)" fill-opacity="1" stroke-width="0.01" stroke-linecap="butt" stroke-linejoin="miter" stroke="rgb(0%, 0%, 0%)" stroke-opacity="1" stroke-miterlimit="10" d="M 320.660156 453.851562 C 320.660156 455.183594 318.660156 455.183594 318.660156 453.851562 C 318.660156 452.519531 320.660156 452.519531 320.660156 453.851562 "/>
<path fill-rule="nonzero" fill="rgb(100%, 0%, 0%)" fill-opacity="1" stroke-width="0.01" stroke-linecap="butt" stroke-linejoin="miter" stroke="rgb(0%, 0%, 0%)" stroke-opacity="1" stroke-miterlimit="10" d="M 378.574219 502.007812 C 378.574219 503.339844 376.574219 503.339844 376.574219 502.007812 C 376.574219 500.671875 378.574219 500.671875 378.574219 502.007812 "/>
<path fill-rule="nonzero" fill="rgb(100%, 0%, 0%)" fill-opacity="1" stroke-width="0.01" stroke-linecap="butt" stroke-linejoin="miter" stroke="rgb(0%, 0%, 0%)" stroke-opacity="1" stroke-miterlimit="10" d="M 250.359375 203.773438 C 250.359375 205.109375 248.359375 205.109375 248.359375 203.773438 C 248.359375 202.441406 250.359375 202.441406 250.359375 203.773438 "/>
<path fill-rule="nonzero" fill="rgb(100%, 0%, 0%)" fill-opacity="1" stroke-width="0.01" stroke-linecap="butt" stroke-linejoin="miter" stroke="rgb(0%, 0%, 0%)" stroke-opacity="1" stroke-miterlimit="10" d="M 352.503906 466.226562 C 352.503906 467.558594 350.503906 467.558594 350.503906 466.226562 C 350.503906 464.894531 352.503906 464.894531 352.503906 466.226562 "/>
<path fill-rule="nonzero" fill="rgb(100%, 0%, 0%)" fill-opacity="1" stroke-width="0.01" stroke-linecap="butt" stroke-linejoin="miter" stroke="rgb(0%, 0%, 0%)" stroke-opacity="1" stroke-miterlimit="10" d="M 74.84375 284.964844 C 74.84375 286.296875 72.84375 286.296875 72.84375 284.964844 C 72.84375 283.628906 74.84375 283.628906 74.84375 284.964844 "/>
<path fill-rule="nonzero" fill="rgb(100%, 0%, 0%)" fill-opacity="1" stroke-width="0.01" stroke-linecap="butt" stroke-linejoin="miter" stroke="rgb(0%, 0%, 0%)" stroke-opacity="1" stroke-miterlimit="10" d="M 92.53125 316.375 C 92.53125 317.710938 90.53125 317.710938 90.53125 316.375 C 90.53125 315.042969 92.53125 315.042969 92.53125 316.375 "/>
<path fill-rule="nonzero" fill="rgb(100%, 0%, 0%)" fill-opacity="1" stroke-width="0.01" stroke-linecap="butt" stroke-linejoin="miter" stroke="rgb(0%, 0%, 0%)" stroke-opacity="1" stroke-miterlimit="10" d="M 21 276.921875 C 21 278.253906 19 278.253906 19 276.921875 C 19 275.589844 21 275.589844 21 276.921875 "/>
<path fill-rule="nonzero" fill="rgb(100%, 0%, 0%)" fill-opacity="1" stroke-width="0.01" stroke-linecap="butt" stroke-linejoin="miter" stroke="rgb(0%, 0%, 0%)" stroke-opacity="1" stroke-miterlimit="10" d="M 57.414062 458.066406 C 57.414062 459.402344 55.414062 459.402344 55.414062 458.066406 C 55.414062 456.734375 57.414062 456.734375 57.414062 458.066406 "/>
<path fill-rule="nonzero" fill="rgb(100%, 0%, 0%)" fill-opacity="1" stroke-width="0.01" stroke-linecap="butt" stroke-linejoin="miter" stroke="rgb(0%, 0%, 0%)" stroke-opacity="1" stroke-miterlimit="10" d="M 221.679688 393.222656 C 221.679688 394.554688 219.679688 394.554688 219.679688 393.222656 C 219.679688 391.890625 221.679688 391.890625 221.679688 393.222656 "/>
<path fill-rule="nonzero" fill="rgb(100%, 0%, 0%)" fill-opacity="1" stroke-width="0.01" stroke-linecap="butt" stroke-linejoin="miter" stroke="rgb(0%, 0%, 0%)" stroke-opacity="1" stroke-miterlimit="10" d="M 492.191406 139.425781 C 492.191406 140.757812 490.191406 140.757812 490.191406 139.425781 C 490.191406 138.09375 492.191406 138.09375 492.191406 139.425781 "/>
<path fill-rule="nonzero" fill="rgb(100%, 0%, 0%)" fill-opacity="1" stroke-width="0.01" stroke-linecap="butt" stroke-linejoin="miter" stroke="rgb(0%, 0%, 0%)" stroke-opacity="1" stroke-miterlimit="10" d="M 363.953125 165.746094 C 363.953125 167.078125 361.953125 167.078125 361.953125 165.746094 C 361.953125 164.414062 363.953125 164.414062 363.953125 165.746094 "/>
<path fill-rule="nonzero" fill="rgb(100%, 0%, 0%)" fill-opacity="1" stroke-width="0.01" stroke-linecap="butt" stroke-linejoin="miter" stroke="rgb(0%, 0%, 0%)" stroke-opacity="1" stroke-miterlimit="10" d="M 215.855469 289.558594 C 215.855469 290.890625 213.855469 290.890625 213.855469 289.558594 C 213.855469 288.226562 215.855469 288.226562 215.855469 289.558594 "/>
<path fill-rule="nonzero" fill="rgb(100%, 0%, 0%)" fill-opacity="1" stroke-width="0.01" stroke-linecap="butt" stroke-linejoin="miter" stroke="rgb(0%, 0%, 0%)" stroke-opacity="1" stroke-miterlimit="10" d="M 490.050781 517.71875 C 490.050781 519.050781 488.050781 519.050781 488.050781 517.71875 C 488.050781 516.386719 490.050781 516.386719 490.050781 517.71875 "/>
<path fill-rule="nonzero" fill="rgb(100%, 0%, 0%)" fill-opacity="1" stroke-width="0.01" stroke-linecap="butt" stroke-linejoin="miter" stroke="rgb(0%, 0%, 0%)" stroke-opacity="1" stroke-miterlimit="10" d="M 494.8125 356.597656 C 494.8125 357.933594 492.8125 357.933594 492.8125 356.597656 C 492.8125 355.265625 494.8125 355.265625 494.8125 356.597656 "/>
<path fill-rule="nonzero" fill="rgb(100%, 0%, 0%)" fill-opacity="1" stroke-width="0.01" stroke-linecap="butt" stroke-linejoin="miter" stroke="rgb(0%, 0%, 0%)" stroke-opacity="1" stroke-miterlimit="10" d="M 180.210938 86.988281 C 180.210938 88.324219 178.210938 88.324219 178.210938 86.988281 C 178.210938 85.65625 180.210938 85.65625 180.210938 86.988281 "/>
<path fill-rule="nonzero" fill="rgb(100%, 0%, 0%)" fill-opacity="1" stroke-width="0.01" stroke-linecap="butt" stroke-linejoin="miter" stroke="rgb(0%, 0%, 0%)" stroke-opacity="1" stroke-miterlimit="10" d="M 165.945312 323.398438 C 165.945312 324.734375 163.945312 324.734375 163.945312 323.398438 C 163.945312 322.066406 165.945312 322.066406 165.945312 323.398438 "/>
<path fill-rule="nonzero" fill="rgb(100%, 0%, 0%)" fill-opacity="1" stroke-width="0.01" stroke-linecap="butt" stroke-linejoin="miter" stroke="rgb(0%, 0%, 0%)" stroke-opacity="1" stroke-miterlimit="10" d="M 451.964844 347.265625 C 451.964844 348.597656 449.964844 348.597656 449.964844 347.265625 C 449.964844 345.933594 451.964844 345.933594 451.964844 347.265625 "/>
<path fill-rule="nonzero" fill="rgb(100%, 0%, 0%)" fill-opacity="1" stroke-width="0.01" stroke-linecap="butt" stroke-linejoin="miter" stroke="rgb(0%, 0%, 0%)" stroke-opacity="1" stroke-miterlimit="10" d="M 369.660156 428.78125 C 369.660156 430.113281 367.660156 430.113281 367.660156 428.78125 C 367.660156 427.445312 369.660156 427.445312 369.660156 428.78125 "/>
<path fill-rule="nonzero" fill="rgb(100%, 0%, 0%)" fill-opacity="1" stroke-width="0.01" stroke-linecap="butt" stroke-linejoin="miter" stroke="rgb(0%, 0%, 0%)" stroke-opacity="1" stroke-miterlimit="10" d="M 187.773438 386.871094 C 187.773438 388.203125 185.773438 388.203125 185.773438 386.871094 C 185.773438 385.539062 187.773438 385.539062 187.773438 386.871094 "/>
<path fill-rule="nonzero" fill="rgb(100%, 0%, 0%)" fill-opacity="1" stroke-width="0.01" stroke-linecap="butt" stroke-linejoin="miter" stroke="rgb(0%, 0%, 0%)" stroke-opacity="1" stroke-miterlimit="10" d="M 316.589844 215.339844 C 316.589844 216.675781 314.589844 216.675781 314.589844 215.339844 C 314.589844 214.007812 316.589844 214.007812 316.589844 215.339844 "/>
<path fill-rule="nonzero" fill="rgb(100%, 0%, 0%)" fill-opacity="1" stroke-width="0.01" stroke-linecap="butt" stroke-linejoin="miter" stroke="rgb(0%, 0%, 0%)" stroke-opacity="1" stroke-miterlimit="10" d="M 199.550781 120.464844 C 199.550781 121.796875 197.550781 121.796875 197.550781 120.464844 C 197.550781 119.128906 199.550781 119.128906 199.550781 120.464844 "/>
<path fill-rule="nonzero" fill="rgb(100%, 0%, 0%)" fill-opacity="1" stroke-width="0.01" stroke-linecap="butt" stroke-linejoin="miter" stroke="rgb(0%, 0%, 0%)" stroke-opacity="1" stroke-miterlimit="10" d="M 535.734375 467.074219 C 535.734375 468.40625 533.734375 468.40625 533.734375 467.074219 C 533.734375 465.738281 535.734375 465.738281 535.734375 467.074219 "/>
<path fill-rule="nonzero" fill="rgb(100%, 0%, 0%)" fill-opacity="1" stroke-width="0.01" stroke-linecap="butt" stroke-linejoin="miter" stroke="rgb(0%, 0%, 0%)" stroke-opacity="1" stroke-miterlimit="10" d="M 185.710938 352.960938 C 185.710938 354.292969 183.710938 354.292969 183.710938 352.960938 C 183.710938 351.628906 185.710938 351.628906 185.710938 352.960938 "/>
<path fill-rule="nonzero" fill="rgb(100%, 0%, 0%)" fill-opacity="1" stroke-width="0.01" stroke-linecap="butt" stroke-linejoin="miter" stroke="rgb(0%, 0%, 0%)" stroke-opacity="1" stroke-miterlimit="10" d="M 518.242188 425.175781 C 518.242188 426.507812 516.242188 426.507812 516.242188 425.175781 C 516.242188 423.84375 518.242188 423.84375 518.242188 425.175781 "/>
<path fill-rule="nonzero" fill="rgb(100%, 0%, 0%)" fill-opacity="1" stroke-width="0.01" stroke-linecap="butt" stroke-linejoin="miter" stroke="rgb(0%, 0%, 0%)" stroke-opacity="1" stroke-miterlimit="10" d="M 206.550781 320.449219 C 206.550781 321.78125 204.550781 321.78125 204.550781 320.449219 C 204.550781 319.113281 206.550781 319.113281 206.550781 320.449219 "/>
<path fill-rule="nonzero" fill="rgb(100%, 0%, 0%)" fill-opacity="1" stroke-width="0.01" stroke-linecap="butt" stroke-linejoin="miter" stroke="rgb(0%, 0%, 0%)" stroke-opacity="1" stroke-miterlimit="10" d="M 352.746094 539.453125 C 352.746094 540.785156 350.746094 540.785156 350.746094 539.453125 C 350.746094 538.117188 352.746094 538.117188 352.746094 539.453125 "/>
<path fill-rule="nonzero" fill="rgb(100%, 0%, 0%)" fill-opacity="1" stroke-width="0.01" stroke-linecap="butt" stroke-linejoin="miter" stroke="rgb(0%, 0%, 0%)" stroke-opacity="1" stroke-miterlimit="10" d="M 459.589844 166.851562 C 459.589844 168.183594 457.589844 168.183594 457.589844 166.851562 C 457.589844 165.515625 459.589844 165.515625 459.589844 166.851562 "/>
<path fill-rule="nonzero" fill="rgb(100%, 0%, 0%)" fill-opacity="1" stroke-width="0.01" stroke-linecap="butt" stroke-linejoin="miter" stroke="rgb(0%, 0%, 0%)" stroke-opacity="1" stroke-miterlimit="10" d="M 93.296875 188.527344 C 93.296875 189.859375 91.296875 189.859375 91.296875 188.527344 C 91.296875 187.191406 93.296875 187.191406 93.296875 188.527344 "/>
<path fill-rule="nonzero" fill="rgb(100%, 0%, 0%)" fill-opacity="1" stroke-width="0.01" stroke-linecap="butt" stroke-linejoin="miter" stroke="rgb(0%, 0%, 0%)" stroke-opacity="1" stroke-miterlimit="10" d="M 126.78125 326.828125 C 126.78125 328.164062 124.78125 328.164062 124.78125 326.828125 C 124.78125 325.496094 126.78125 325.496094 126.78125 326.828125 "/>
<path fill-rule="nonzero" fill="rgb(100%, 0%, 0%)" fill-opacity="1" stroke-width="0.01" stroke-linecap="butt" stroke-linejoin="miter" stroke="rgb(0%, 0%, 0%)" stroke-opacity="1" stroke-miterlimit="10" d="M 533.667969 341.0625 C 533.667969 342.394531 531.667969 342.394531 531.667969 341.0625 C 531.667969 339.726562 533.667969 339.726562 533.667969 341.0625 "/>
<path fill-rule="nonzero" fill="rgb(100%, 0%, 0%)" fill-opacity="1" stroke-width="0.01" stroke-linecap="butt" stroke-linejoin="miter" stroke="rgb(0%, 0%, 0%)" stroke-opacity="1" stroke-miterlimit="10" d="M 454.683594 100.488281 C 454.683594 101.820312 452.683594 101.820312 452.683594 100.488281 C 452.683594 99.15625 454.683594 99.15625 454.683594 100.488281 "/>
<path fill-rule="nonzero" fill="rgb(100%, 0%, 0%)" fill-opacity="1" stroke-width="0.01" stroke-linecap="butt" stroke-linejoin="miter" stroke="rgb(0%, 0%, 0%)" stroke-opacity="1" stroke-miterlimit="10" d="M 62.175781 248.867188 C 62.175781 250.199219 60.175781 250.199219 60.175781 248.867188 C 60.175781 247.53125 62.175781 247.53125 62.175781 248.867188 "/>
<path fill-rule="nonzero" fill="rgb(100%, 0%, 0%)" fill-opacity="1" stroke-width="0.01" stroke-linecap="butt" stroke-linejoin="miter" stroke="rgb(0%, 0%, 0%)" stroke-opacity="1" stroke-miterlimit="10" d="M 409.355469 221.414062 C 409.355469 222.746094 407.355469 222.746094 407.355469 221.414062 C 407.355469 220.078125 409.355469 220.078125 409.355469 221.414062 "/>
<path fill-rule="nonzero" fill="rgb(100%, 0%, 0%)" fill-opacity="1" stroke-width="0.01" stroke-linecap="butt" stroke-linejoin="miter" stroke="rgb(0%, 0%, 0%)" stroke-opacity="1" stroke-miterlimit="10" d="M 313.074219 399.046875 C 313.074219 400.378906 311.074219 400.378906 311.074219 399.046875 C 311.074219 397.714844 313.074219 397.714844 313.074219 399.046875 "/>
<path fill-rule="nonzero" fill="rgb(100%, 0%, 0%)" fill-opacity="1" stroke-width="0.01" stroke-linecap="butt" stroke-linejoin="miter" stroke="rgb(0%, 0%, 0%)" stroke-opacity="1" stroke-miterlimit="10" d="M 104.199219 139.03125 C 104.199219 140.367188 102.199219 140.367188 102.199219 139.03125 C 102.199219 137.699219 104.199219 137.699219 104.199219 139.03125 "/>
<path fill-rule="nonzero" fill="rgb(100%, 0%, 0%)" fill-opacity="1" stroke-width="0.01" stroke-linecap="butt" stroke-linejoin="miter" stroke="rgb(0%, 0%, 0%)" stroke-opacity="1" stroke-miterlimit="10" d="M 297.878906 540.261719 C 297.878906 541.597656 295.878906 541.597656 295.878906 540.261719 C 295.878906 538.929688 297.878906 538.929688 297.878906 540.261719 "/>
<path fill-rule="nonzero" fill="rgb(100%, 0%, 0%)" fill-opacity="1" stroke-width="0.01" stroke-linecap="butt" stroke-linejoin="miter" stroke="rgb(0%, 0%, 0%)" stroke-opacity="1" stroke-miterlimit="10" d="M 139.367188 523.710938 C 139.367188 525.042969 137.367188 525.042969 137.367188 523.710938 C 137.367188 522.375 139.367188 522.375 139.367188 523.710938 "/>
<path fill-rule="nonzero" fill="rgb(100%, 0%, 0%)" fill-opacity="1" stroke-width="0.01" stroke-linecap="butt" stroke-linejoin="miter" stroke="rgb(0%, 0%, 0%)" stroke-opacity="1" stroke-miterlimit="10" d="M 452.542969 454.480469 C 452.542969 455.8125 450.542969 455.8125 450.542969 454.480469 C 450.542969 453.144531 452.542969 453.144531 452.542969 454.480469 "/>
<path fill-rule="nonzero" fill="rgb(100%, 0%, 0%)" fill-opacity="1" stroke-width="0.01" stroke-linecap="butt" stroke-linejoin="miter" stroke="rgb(0%, 0%, 0%)" stroke-opacity="1" stroke-miterlimit="10" d="M 495.359375 183.277344 C 495.359375 184.609375 493.359375 184.609375 493.359375 183.277344 C 493.359375 181.941406 495.359375 181.941406 495.359375 183.277344 "/>
<path fill-rule="nonzero" fill="rgb(100%, 0%, 0%)" fill-opacity="1" stroke-width="0.01" stroke-linecap="butt" stroke-linejoin="miter" stroke="rgb(0%, 0%, 0%)" stroke-opacity="1" stroke-miterlimit="10" d="M 130.019531 163.269531 C 130.019531 164.601562 128.019531 164.601562 128.019531 163.269531 C 128.019531 161.9375 130.019531 161.9375 130.019531 163.269531 "/>
<path fill-rule="nonzero" fill="rgb(100%, 0%, 0%)" fill-opacity="1" stroke-width="0.01" stroke-linecap="butt" stroke-linejoin="miter" stroke="rgb(0%, 0%, 0%)" stroke-opacity="1" stroke-miterlimit="10" d="M 537.851562 138.246094 C 537.851562 139.578125 535.851562 139.578125 535.851562 138.246094 C 535.851562 136.910156 537.851562 136.910156 537.851562 138.246094 "/>
<path fill-rule="nonzero" fill="rgb(100%, 0%, 0%)" fill-opacity="1" stroke-width="0.01" stroke-linecap="butt" stroke-linejoin="miter" stroke="rgb(0%, 0%, 0%)" stroke-opacity="1" stroke-miterlimit="10" d="M 321.445312 180.921875 C 321.445312 182.253906 319.445312 182.253906 319.445312 180.921875 C 319.445312 179.589844 321.445312 179.589844 321.445312 180.921875 "/>
<path fill-rule="nonzero" fill="rgb(100%, 0%, 0%)" fill-opacity="1" stroke-width="0.01" stroke-linecap="butt" stroke-linejoin="miter" stroke="rgb(0%, 0%, 0%)" stroke-opacity="1" stroke-miterlimit="10" d="M 531.101562 230.355469 C 531.101562 231.6875 529.101562 231.6875 529.101562 230.355469 C 529.101562 229.023438 531.101562 229.023438 531.101562 230.355469 "/>
<path fill-rule="nonzero" fill="rgb(100%, 0%, 0%)" fill-opacity="1" stroke-width="0.01" stroke-linecap="butt" stroke-linejoin="miter" stroke="rgb(0%, 0%, 0%)" stroke-opacity="1" stroke-miterlimit="10" d="M 27.761719 225.851562 C 27.761719 227.183594 25.761719 227.183594 25.761719 225.851562 C 25.761719 224.515625 27.761719 224.515625 27.761719 225.851562 "/>
<path fill-rule="nonzero" fill="rgb(100%, 0%, 0%)" fill-opacity="1" stroke-width="0.01" stroke-linecap="butt" stroke-linejoin="miter" stroke="rgb(0%, 0%, 0%)" stroke-opacity="1" stroke-miterlimit="10" d="M 247.722656 369.101562 C 247.722656 370.433594 245.722656 370.433594 245.722656 369.101562 C 245.722656 367.769531 247.722656 367.769531 247.722656 369.101562 "/>
<path fill-rule="nonzero" fill="rgb(100%, 0%, 0%)" fill-opacity="1" stroke-width="0.01" stroke-linecap="butt" stroke-linejoin="miter" stroke="rgb(0%, 0%, 0%)" stroke-opacity="1" stroke-miterlimit="10" d="M 265.433594 446.917969 C 265.433594 448.253906 263.433594 448.253906 263.433594 446.917969 C 263.433594 445.585938 265.433594 445.585938 265.433594 446.917969 "/>
<path fill-rule="nonzero" fill="rgb(100%, 0%, 0%)" fill-opacity="1" stroke-width="0.01" stroke-linecap="butt" stroke-linejoin="miter" stroke="rgb(0%, 0%, 0%)" stroke-opacity="1" stroke-miterlimit="10" d="M 242.035156 322.738281 C 242.035156 324.074219 240.035156 324.074219 240.035156 322.738281 C 240.035156 321.40625 242.035156 321.40625 242.035156 322.738281 "/>
<path fill-rule="nonzero" fill="rgb(100%, 0%, 0%)" fill-opacity="1" stroke-width="0.01" stroke-linecap="butt" stroke-linejoin="miter" stroke="rgb(0%, 0%, 0%)" stroke-opacity="1" stroke-miterlimit="10" d="M 246.289062 170.164062 C 246.289062 171.5 244.289062 171.5 244.289062 170.164062 C 244.289062 168.832031 246.289062 168.832031 246.289062 170.164062 "/>
<path fill-rule="nonzero" fill="rgb(100%, 0%, 0%)" fill-opacity="1" stroke-width="0.01" stroke-linecap="butt" stroke-linejoin="miter" stroke="rgb(0%, 0%, 0%)" stroke-opacity="1" stroke-miterlimit="10" d="M 217.21875 559.796875 C 217.21875 561.128906 215.21875 561.128906 215.21875 559.796875 C 215.21875 558.464844 217.21875 558.464844 217.21875 559.796875 "/>
<path fill-rule="nonzero" fill="rgb(100%, 0%, 0%)" fill-opacity="1" stroke-width="0.01" stroke-linecap="butt" stroke-linejoin="miter" stroke="rgb(0%, 0%, 0%)" stroke-opacity="1" stroke-miterlimit="10" d="M 409.804688 85.714844 C 409.804688 87.046875 407.804688 87.046875 407.804688 85.714844 C 407.804688 84.382812 409.804688 84.382812 409.804688 85.714844 "/>
<path fill-rule="nonzero" fill="rgb(100%, 0%, 0%)" fill-opacity="1" stroke-width="0.01" stroke-linecap="butt" stroke-linejoin="miter" stroke="rgb(0%, 0%, 0%)" stroke-opacity="1" stroke-miterlimit="10" d="M 289.382812 320.945312 C 289.382812 322.277344 287.382812 322.277344 287.382812 320.945312 C 287.382812 319.613281 289.382812 319.613281 289.382812 320.945312 "/>
<path fill-rule="nonzero" fill="rgb(100%, 0%, 0%)" fill-opacity="1" stroke-width="0.01" stroke-linecap="butt" stroke-linejoin="miter" stroke="rgb(0%, 0%, 0%)" stroke-opacity="1" stroke-miterlimit="10" d="M 98.945312 493.148438 C 98.945312 494.480469 96.945312 494.480469 96.945312 493.148438 C 96.945312 491.8125 98.945312 491.8125 98.945312 493.148438 "/>
<path fill-rule="nonzero" fill="rgb(100%, 0%, 0%)" fill-opacity="1" stroke-width="0.01" stroke-linecap="butt" stroke-linejoin="miter" stroke="rgb(0%, 0%, 0%)" stroke-opacity="1" stroke-miterlimit="10" d="M 441.460938 417.585938 C 441.460938 418.917969 439.460938 418.917969 439.460938 417.585938 C 439.460938 416.253906 441.460938 416.253906 441.460938 417.585938 "/>
<path fill-rule="nonzero" fill="rgb(100%, 0%, 0%)" fill-opacity="1" stroke-width="0.01" stroke-linecap="butt" stroke-linejoin="miter" stroke="rgb(0%, 0%, 0%)" stroke-opacity="1" stroke-miterlimit="10" d="M 143.8125 483.640625 C 143.8125 484.972656 141.8125 484.972656 141.8125 483.640625 C 141.8125 482.304688 143.8125 482.304688 143.8125 483.640625 "/>
<path fill-rule="nonzero" fill="rgb(100%, 0%, 0%)" fill-opacity="1" stroke-width="0.01" stroke-linecap="butt" stroke-linejoin="miter" stroke="rgb(0%, 0%, 0%)" stroke-opacity="1" stroke-miterlimit="10" d="M 425.351562 386.808594 C 425.351562 388.140625 423.351562 388.140625 423.351562 386.808594 C 423.351562 385.476562 425.351562 385.476562 425.351562 386.808594 "/>
<path fill-rule="nonzero" fill="rgb(100%, 0%, 0%)" fill-opacity="1" stroke-width="0.01" stroke-linecap="butt" stroke-linejoin="miter" stroke="rgb(0%, 0%, 0%)" stroke-opacity="1" stroke-miterlimit="10" d="M 349.03125 203.78125 C 349.03125 205.113281 347.03125 205.113281 347.03125 203.78125 C 347.03125 202.449219 349.03125 202.449219 349.03125 203.78125 "/>
<path fill-rule="nonzero" fill="rgb(100%, 0%, 0%)" fill-opacity="1" stroke-width="0.01" stroke-linecap="butt" stroke-linejoin="miter" stroke="rgb(0%, 0%, 0%)" stroke-opacity="1" stroke-miterlimit="10" d="M 406.824219 122.523438 C 406.824219 123.859375 404.824219 123.859375 404.824219 122.523438 C 404.824219 121.191406 406.824219 121.191406 406.824219 122.523438 "/>
<path fill-rule="nonzero" fill="rgb(100%, 0%, 0%)" fill-opacity="1" stroke-width="0.01" stroke-linecap="butt" stroke-linejoin="miter" stroke="rgb(0%, 0%, 0%)" stroke-opacity="1" stroke-miterlimit="10" d="M 268.589844 344.167969 C 268.589844 345.5 266.589844 345.5 266.589844 344.167969 C 266.589844 342.832031 268.589844 342.832031 268.589844 344.167969 "/>
<path fill-rule="nonzero" fill="rgb(100%, 0%, 0%)" fill-opacity="1" stroke-width="0.01" stroke-linecap="butt" stroke-linejoin="miter" stroke="rgb(0%, 0%, 0%)" stroke-opacity="1" stroke-miterlimit="10" d="M 413.492188 46.203125 C 413.492188 47.539062 411.492188 47.539062 411.492188 46.203125 C 411.492188 44.871094 413.492188 44.871094 413.492188 46.203125 "/>
<path fill-rule="nonzero" fill="rgb(100%, 0%, 0%)" fill-opacity="1" stroke-width="0.01" stroke-linecap="butt" stroke-linejoin="miter" stroke="rgb(0%, 0%, 0%)" stroke-opacity="1" stroke-miterlimit="10" d="M 388.542969 462.886719 C 388.542969 464.21875 386.542969 464.21875 386.542969 462.886719 C 386.542969 461.550781 388.542969 461.550781 388.542969 462.886719 "/>
<path fill-rule="nonzero" fill="rgb(100%, 0%, 0%)" fill-opacity="1" stroke-width="0.01" stroke-linecap="butt" stroke-linejoin="miter" stroke="rgb(0%, 0%, 0%)" stroke-opacity="1" stroke-miterlimit="10" d="M 220.085938 80.328125 C 220.085938 81.660156 218.085938 81.660156 218.085938 80.328125 C 218.085938 78.992188 220.085938 78.992188 220.085938 80.328125 "/>
<path fill-rule="nonzero" fill="rgb(100%, 0%, 0%)" fill-opacity="1" stroke-width="0.01" stroke-linecap="butt" stroke-linejoin="miter" stroke="rgb(0%, 0%, 0%)" stroke-opacity="1" stroke-miterlimit="10" d="M 369.597656 129.558594 C 369.597656 130.894531 367.597656 130.894531 367.597656 129.558594 C 367.597656 128.226562 369.597656 128.226562 369.597656 129.558594 "/>
<path fill-rule="nonzero" fill="rgb(100%, 0%, 0%)" fill-opacity="1" stroke-width="0.01" stroke-linecap="butt" stroke-linejoin="miter" stroke="rgb(0%, 0%, 0%)" stroke-opacity="1" stroke-miterlimit="10" d="M 478.769531 419.886719 C 478.769531 421.21875 476.769531 421.21875 476.769531 419.886719 C 476.769531 418.554688 478.769531 418.554688 478.769531 419.886719 "/>
<path fill-rule="nonzero" fill="rgb(100%, 0%, 0%)" fill-opacity="1" stroke-width="0.01" stroke-linecap="butt" stroke-linejoin="miter" stroke="rgb(0%, 0%, 0%)" stroke-opacity="1" stroke-miterlimit="10" d="M 198.628906 467.75 C 198.628906 469.082031 196.628906 469.082031 196.628906 467.75 C 196.628906 466.417969 198.628906 466.417969 198.628906 467.75 "/>
<path fill-rule="nonzero" fill="rgb(100%, 0%, 0%)" fill-opacity="1" stroke-width="0.01" stroke-linecap="butt" stroke-linejoin="miter" stroke="rgb(0%, 0%, 0%)" stroke-opacity="1" stroke-miterlimit="10" d="M 372.097656 320.988281 C 372.097656 322.324219 370.097656 322.324219 370.097656 320.988281 C 370.097656 319.65625 372.097656 319.65625 372.097656 320.988281 "/>
<path fill-rule="nonzero" fill="rgb(100%, 0%, 0%)" fill-opacity="1" stroke-width="0.01" stroke-linecap="butt" stroke-linejoin="miter" stroke="rgb(0%, 0%, 0%)" stroke-opacity="1" stroke-miterlimit="10" d="M 403.816406 254.105469 C 403.816406 255.4375 401.816406 255.4375 401.816406 254.105469 C 401.816406 252.773438 403.816406 252.773438 403.816406 254.105469 "/>
<path fill-rule="nonzero" fill="rgb(100%, 0%, 0%)" fill-opacity="1" stroke-width="0.01" stroke-linecap="butt" stroke-linejoin="miter" stroke="rgb(0%, 0%, 0%)" stroke-opacity="1" stroke-miterlimit="10" d="M 249.753906 237.976562 C 249.753906 239.308594 247.753906 239.308594 247.753906 237.976562 C 247.753906 236.644531 249.753906 236.644531 249.753906 237.976562 "/>
<path fill-rule="nonzero" fill="rgb(100%, 0%, 0%)" fill-opacity="1" stroke-width="0.01" stroke-linecap="butt" stroke-linejoin="miter" stroke="rgb(0%, 0%, 0%)" stroke-opacity="1" stroke-miterlimit="10" d="M 334.609375 374.367188 C 334.609375 375.699219 332.609375 375.699219 332.609375 374.367188 C 332.609375 373.035156 334.609375 373.035156 334.609375 374.367188 "/>
<path fill-rule="nonzero" fill="rgb(100%, 0%, 0%)" fill-opacity="1" stroke-width="0.01" stroke-linecap="butt" stroke-linejoin="miter" stroke="rgb(0%, 0%, 0%)" stroke-opacity="1" stroke-miterlimit="10" d="M 77.277344 390.277344 C 77.277344 391.609375 75.277344 391.609375 75.277344 390.277344 C 75.277344 388.945312 77.277344 388.945312 77.277344 390.277344 "/>
<path fill-rule="nonzero" fill="rgb(100%, 0%, 0%)" fill-opacity="1" stroke-width="0.01" stroke-linecap="butt" stroke-linejoin="miter" stroke="rgb(0%, 0%, 0%)" stroke-opacity="1" stroke-miterlimit="10" d="M 223.289062 513.257812 C 223.289062 514.59375 221.289062 514.59375 221.289062 513.257812 C 221.289062 511.925781 223.289062 511.925781 223.289062 513.257812 "/>
<path fill-rule="nonzero" fill="rgb(100%, 0%, 0%)" fill-opacity="1" stroke-width="0.01" stroke-linecap="butt" stroke-linejoin="miter" stroke="rgb(0%, 0%, 0%)" stroke-opacity="1" stroke-miterlimit="10" d="M 293.296875 155.386719 C 293.296875 156.71875 291.296875 156.71875 291.296875 155.386719 C 291.296875 154.054688 293.296875 154.054688 293.296875 155.386719 "/>
<path fill-rule="nonzero" fill="rgb(100%, 0%, 0%)" fill-opacity="1" stroke-width="0.01" stroke-linecap="butt" stroke-linejoin="miter" stroke="rgb(0%, 0%, 0%)" stroke-opacity="1" stroke-miterlimit="10" d="M 324.605469 573.363281 C 324.605469 574.695312 322.605469 574.695312 322.605469 573.363281 C 322.605469 572.027344 324.605469 572.027344 324.605469 573.363281 "/>
<path fill-rule="nonzero" fill="rgb(100%, 0%, 0%)" fill-opacity="1" stroke-width="0.01" stroke-linecap="butt" stroke-linejoin="miter" stroke="rgb(0%, 0%, 0%)" stroke-opacity="1" stroke-miterlimit="10" d="M 176.953125 293.550781 C 176.953125 294.882812 174.953125 294.882812 174.953125 293.550781 C 174.953125 292.214844 176.953125 292.214844 176.953125 293.550781 "/>
<path fill-rule="nonzero" fill="rgb(100%, 0%, 0%)" fill-opacity="1" stroke-width="0.01" stroke-linecap="butt" stroke-linejoin="miter" stroke="rgb(0%, 0%, 0%)" stroke-opacity="1" stroke-miterlimit="10" d="M 491.464844 219.535156 C 491.464844 220.867188 489.464844 220.867188 489.464844 219.535156 C 489.464844 218.203125 491.464844 218.203125 491.464844 219.535156 "/>
<path fill-rule="nonzero" fill="rgb(100%, 0%, 0%)" fill-opacity="1" stroke-width="0.01" stroke-linecap="butt" stroke-linejoin="miter" stroke="rgb(0%, 0%, 0%)" stroke-opacity="1" stroke-miterlimit="10" d="M 500.992188 96.339844 C 500.992188 97.671875 498.992188 97.671875 498.992188 96.339844 C 498.992188 95.007812 500.992188 95.007812 500.992188 96.339844 "/>
<path fill-rule="nonzero" fill="rgb(100%, 0%, 0%)" fill-opacity="1" stroke-width="0.01" stroke-linecap="butt" stroke-linejoin="miter" stroke="rgb(0%, 0%, 0%)" stroke-opacity="1" stroke-miterlimit="10" d="M 294.6875 289.175781 C 294.6875 290.507812 292.6875 290.507812 292.6875 289.175781 C 292.6875 287.839844 294.6875 287.839844 294.6875 289.175781 "/>
<path fill-rule="nonzero" fill="rgb(100%, 0%, 0%)" fill-opacity="1" stroke-width="0.01" stroke-linecap="butt" stroke-linejoin="miter" stroke="rgb(0%, 0%, 0%)" stroke-opacity="1" stroke-miterlimit="10" d="M 255.765625 538.070312 C 255.765625 539.402344 253.765625 539.402344 253.765625 538.070312 C 253.765625 536.734375 255.765625 536.734375 255.765625 538.070312 "/>
<path fill-rule="nonzero" fill="rgb(100%, 0%, 0%)" fill-opacity="1" stroke-width="0.01" stroke-linecap="butt" stroke-linejoin="miter" stroke="rgb(0%, 0%, 0%)" stroke-opacity="1" stroke-miterlimit="10" d="M 353.148438 291.941406 C 353.148438 293.273438 351.148438 293.273438 351.148438 291.941406 C 351.148438 290.605469 353.148438 290.605469 353.148438 291.941406 "/>
<path fill-rule="nonzero" fill="rgb(100%, 0%, 0%)" fill-opacity="1" stroke-width="0.01" stroke-linecap="butt" stroke-linejoin="miter" stroke="rgb(0%, 0%, 0%)" stroke-opacity="1" stroke-miterlimit="10" d="M 51.667969 190.933594 C 51.667969 192.265625 49.667969 192.265625 49.667969 190.933594 C 49.667969 189.601562 51.667969 189.601562 51.667969 190.933594 "/>
</svg>
