<?xml version="1.0" encoding="UTF-8"?>
<svg xmlns="http://www.w3.org/2000/svg" xmlns:xlink="http://www.w3.org/1999/xlink" width="600pt" height="600pt" viewBox="0 0 600 600" version="1.1">
<g id="surface6">
<rect x="0" y="0" width="600" height="600" style="fill:rgb(100%,100%,100%);fill-opacity:1;stroke:none;"/>
<path style="fill:none;stroke-width:0.2;stroke-linecap:butt;stroke-linejoin:miter;stroke:rgb(26.666667%,26.666667%,26.666667%);stroke-opacity:1;stroke-miterlimit:10;" d="M 348.660156 573.945312 L 343.53125 563.324219 "/>
<path style="fill:none;stroke-width:0.2;stroke-linecap:butt;stroke-linejoin:miter;stroke:rgb(26.666667%,26.666667%,26.666667%);stroke-opacity:1;stroke-miterlimit:10;" d="M 383.667969 533.054688 L 392.253906 540.972656 "/>
<path style="fill:none;stroke-width:0.2;stroke-linecap:butt;stroke-linejoin:miter;stroke:rgb(26.666667%,26.666667%,26.666667%);stroke-opacity:1;stroke-miterlimit:10;" d="M 165.707031 321.242188 L 162.394531 310 "/>
<path style="fill:none;stroke-width:0.2;stroke-linecap:butt;stroke-linejoin:miter;stroke:rgb(26.666667%,26.666667%,26.666667%);stroke-opacity:1;stroke-miterlimit:10;" d="M 110.800781 417.828125 L 117.609375 427.308594 "/>
<path style="fill:none;stroke-width:0.2;stroke-linecap:butt;stroke-linejoin:miter;stroke:rgb(26.666667%,26.666667%,26.666667%);stroke-opacity:1;stroke-miterlimit:10;" d="M 315.191406 298.195312 L 323.972656 290.816406 "/>
<path style="fill:none;stroke-width:0.2;stroke-linecap:butt;stroke-linejoin:miter;stroke:rgb(26.666667%,26.666667%,26.666667%);stroke-opacity:1;stroke-miterlimit:10;" d="M 333.050781 251.765625 L 323.34375 245.523438 "/>
<path style="fill:none;stroke-width:0.2;stroke-linecap:butt;stroke-linejoin:miter;stroke:rgb(26.666667%,26.666667%,26.666667%);stroke-opacity:1;stroke-miterlimit:10;" d="M 237.046875 27.898438 L 246.230469 20.621094 "/>
<path style="fill:none;stroke-width:0.2;stroke-linecap:butt;stroke-linejoin:miter;stroke:rgb(26.666667%,26.666667%,26.666667%);stroke-opacity:1;stroke-miterlimit:10;" d="M 97.429688 99.722656 C 97.429688 101.722656 94.429688 101.722656 94.429688 99.722656 C 94.429688 97.722656 97.429688 97.722656 97.429688 99.722656 "/>
<path style="fill:none;stroke-width:0.2;stroke-linecap:butt;stroke-linejoin:miter;stroke:rgb(26.666667%,26.666667%,26.666667%);stroke-opacity:1;stroke-miterlimit:10;" d="M 223.859375 533.050781 L 212.339844 533.9375 "/>
<path style="fill:none;stroke-width:0.2;stroke-linecap:butt;stroke-linejoin:miter;stroke:rgb(26.666667%,26.666667%,26.666667%);stroke-opacity:1;stroke-miterlimit:10;" d="M 341.769531 199.144531 L 360.152344 193.242188 "/>
<path style="fill:none;stroke-width:0.2;stroke-linecap:butt;stroke-linejoin:miter;stroke:rgb(26.666667%,26.666667%,26.666667%);stroke-opacity:1;stroke-miterlimit:10;" d="M 387.902344 87.585938 L 378.15625 81.128906 "/>
<path style="fill:none;stroke-width:0.2;stroke-linecap:butt;stroke-linejoin:miter;stroke:rgb(26.666667%,26.666667%,26.666667%);stroke-opacity:1;stroke-miterlimit:10;" d="M 273.5 480.921875 L 261.820312 485.085938 "/>
<path style="fill:none;stroke-width:0.2;stroke-linecap:butt;stroke-linejoin:miter;stroke:rgb(26.666667%,26.666667%,26.666667%);stroke-opacity:1;stroke-miterlimit:10;" d="M 273.5 480.921875 L 285.101562 476.574219 "/>
<path style="fill:none;stroke-width:0.2;stroke-linecap:butt;stroke-linejoin:miter;stroke:rgb(26.666667%,26.666667%,26.666667%);stroke-opacity:1;stroke-miterlimit:10;" d="M 163.546875 54.292969 L 173.53125 48.160156 "/>
<path style="fill:none;stroke-width:0.2;stroke-linecap:butt;stroke-linejoin:miter;stroke:rgb(26.666667%,26.666667%,26.666667%);stroke-opacity:1;stroke-miterlimit:10;" d="M 419.132812 239.425781 L 429.875 243.433594 "/>
<path style="fill:none;stroke-width:0.2;stroke-linecap:butt;stroke-linejoin:miter;stroke:rgb(26.666667%,26.666667%,26.666667%);stroke-opacity:1;stroke-miterlimit:10;" d="M 437.789062 136.65625 L 455.183594 144.027344 "/>
<path style="fill:none;stroke-width:0.2;stroke-linecap:butt;stroke-linejoin:miter;stroke:rgb(26.666667%,26.666667%,26.666667%);stroke-opacity:1;stroke-miterlimit:10;" d="M 175.671875 167.84375 L 186.859375 164.882812 "/>
<path style="fill:none;stroke-width:0.2;stroke-linecap:butt;stroke-linejoin:miter;stroke:rgb(26.666667%,26.666667%,26.666667%);stroke-opacity:1;stroke-miterlimit:10;" d="M 520.667969 343.140625 L 520.078125 354.972656 "/>
<path style="fill:none;stroke-width:0.2;stroke-linecap:butt;stroke-linejoin:miter;stroke:rgb(26.666667%,26.666667%,26.666667%);stroke-opacity:1;stroke-miterlimit:10;" d="M 235.179688 189.101562 L 244.433594 196.191406 "/>
<path style="fill:none;stroke-width:0.2;stroke-linecap:butt;stroke-linejoin:miter;stroke:rgb(26.666667%,26.666667%,26.666667%);stroke-opacity:1;stroke-miterlimit:10;" d="M 259.203125 365.257812 L 250.207031 358.125 "/>
<path style="fill:none;stroke-width:0.2;stroke-linecap:butt;stroke-linejoin:miter;stroke:rgb(26.666667%,26.666667%,26.666667%);stroke-opacity:1;stroke-miterlimit:10;" d="M 371.152344 125.8125 L 361.699219 118.671875 "/>
<path style="fill:none;stroke-width:0.2;stroke-linecap:butt;stroke-linejoin:miter;stroke:rgb(26.666667%,26.666667%,26.666667%);stroke-opacity:1;stroke-miterlimit:10;" d="M 207.890625 213.800781 L 199.6875 221.785156 "/>
<path style="fill:none;stroke-width:0.2;stroke-linecap:butt;stroke-linejoin:miter;stroke:rgb(26.666667%,26.666667%,26.666667%);stroke-opacity:1;stroke-miterlimit:10;" d="M 327.433594 145.382812 L 338.570312 147.925781 "/>
<path style="fill:none;stroke-width:0.2;stroke-linecap:butt;stroke-linejoin:miter;stroke:rgb(26.666667%,26.666667%,26.666667%);stroke-opacity:1;stroke-miterlimit:10;" d="M 395.367188 483.730469 L 385.617188 477.714844 "/>
<path style="fill:none;stroke-width:0.2;stroke-linecap:butt;stroke-linejoin:miter;stroke:rgb(26.666667%,26.666667%,26.666667%);stroke-opacity:1;stroke-miterlimit:10;" d="M 339.101562 497.105469 L 327.675781 497.695312 "/>
<path style="fill:none;stroke-width:0.2;stroke-linecap:butt;stroke-linejoin:miter;stroke:rgb(26.666667%,26.666667%,26.666667%);stroke-opacity:1;stroke-miterlimit:10;" d="M 223.574219 316.917969 L 211.601562 319.355469 "/>
<path style="fill:none;stroke-width:0.2;stroke-linecap:butt;stroke-linejoin:miter;stroke:rgb(26.666667%,26.666667%,26.666667%);stroke-opacity:1;stroke-miterlimit:10;" d="M 223.574219 316.917969 L 235.554688 314.640625 "/>
<path style="fill:none;stroke-width:0.2;stroke-linecap:butt;stroke-linejoin:miter;stroke:rgb(26.666667%,26.666667%,26.666667%);stroke-opacity:1;stroke-miterlimit:10;" d="M 106.972656 297.761719 L 115.878906 305.214844 "/>
<path style="fill:none;stroke-width:0.2;stroke-linecap:butt;stroke-linejoin:miter;stroke:rgb(26.666667%,26.666667%,26.666667%);stroke-opacity:1;stroke-miterlimit:10;" d="M 281.433594 219.707031 L 289.339844 211.199219 "/>
<path style="fill:none;stroke-width:0.2;stroke-linecap:butt;stroke-linejoin:miter;stroke:rgb(26.666667%,26.666667%,26.666667%);stroke-opacity:1;stroke-miterlimit:10;" d="M 255.890625 424.15625 L 252.933594 435.503906 "/>
<path style="fill:none;stroke-width:0.2;stroke-linecap:butt;stroke-linejoin:miter;stroke:rgb(26.666667%,26.666667%,26.666667%);stroke-opacity:1;stroke-miterlimit:10;" d="M 204.667969 487.507812 L 194.203125 492.550781 "/>
<path style="fill:none;stroke-width:0.2;stroke-linecap:butt;stroke-linejoin:miter;stroke:rgb(26.666667%,26.666667%,26.666667%);stroke-opacity:1;stroke-miterlimit:10;" d="M 61.347656 256.59375 L 69.710938 264.683594 "/>
<path style="fill:none;stroke-width:0.2;stroke-linecap:butt;stroke-linejoin:miter;stroke:rgb(26.666667%,26.666667%,26.666667%);stroke-opacity:1;stroke-miterlimit:10;" d="M 275.859375 79.4375 L 264.523438 76.664062 "/>
<path style="fill:none;stroke-width:0.2;stroke-linecap:butt;stroke-linejoin:miter;stroke:rgb(26.666667%,26.666667%,26.666667%);stroke-opacity:1;stroke-miterlimit:10;" d="M 122.066406 191.324219 L 114.539062 200.332031 "/>
<path style="fill:none;stroke-width:0.2;stroke-linecap:butt;stroke-linejoin:miter;stroke:rgb(26.666667%,26.666667%,26.666667%);stroke-opacity:1;stroke-miterlimit:10;" d="M 211.3125 378.855469 L 202.59375 369.875 "/>
<path style="fill:none;stroke-width:0.2;stroke-linecap:butt;stroke-linejoin:miter;stroke:rgb(26.666667%,26.666667%,26.666667%);stroke-opacity:1;stroke-miterlimit:10;" d="M 211.3125 378.855469 L 220.242188 387.636719 "/>
<path style="fill:none;stroke-width:0.2;stroke-linecap:butt;stroke-linejoin:miter;stroke:rgb(26.666667%,26.666667%,26.666667%);stroke-opacity:1;stroke-miterlimit:10;" d="M 308.804688 48.046875 L 299.855469 40.484375 "/>
<path style="fill:none;stroke-width:0.2;stroke-linecap:butt;stroke-linejoin:miter;stroke:rgb(26.666667%,26.666667%,26.666667%);stroke-opacity:1;stroke-miterlimit:10;" d="M 394.191406 394.488281 L 394.523438 406.234375 "/>
<path style="fill:none;stroke-width:0.2;stroke-linecap:butt;stroke-linejoin:miter;stroke:rgb(26.666667%,26.666667%,26.666667%);stroke-opacity:1;stroke-miterlimit:10;" d="M 461.039062 269.039062 L 466.617188 258.664062 "/>
<path style="fill:none;stroke-width:0.2;stroke-linecap:butt;stroke-linejoin:miter;stroke:rgb(26.666667%,26.666667%,26.666667%);stroke-opacity:1;stroke-miterlimit:10;" d="M 466.902344 322.90625 L 474.308594 332.886719 "/>
<path style="fill:none;stroke-width:0.2;stroke-linecap:butt;stroke-linejoin:miter;stroke:rgb(26.666667%,26.666667%,26.666667%);stroke-opacity:1;stroke-miterlimit:10;" d="M 466.902344 322.90625 L 458.921875 313.425781 "/>
<path style="fill:none;stroke-width:0.2;stroke-linecap:butt;stroke-linejoin:miter;stroke:rgb(26.666667%,26.666667%,26.666667%);stroke-opacity:1;stroke-miterlimit:10;" d="M 502.078125 474.535156 L 490.515625 475.929688 "/>
<path style="fill:none;stroke-width:0.2;stroke-linecap:butt;stroke-linejoin:miter;stroke:rgb(26.666667%,26.666667%,26.666667%);stroke-opacity:1;stroke-miterlimit:10;" d="M 91.132812 343.171875 L 93.257812 354.6875 "/>
<path style="fill:none;stroke-width:0.2;stroke-linecap:butt;stroke-linejoin:miter;stroke:rgb(26.666667%,26.666667%,26.666667%);stroke-opacity:1;stroke-miterlimit:10;" d="M 164.800781 407.3125 L 167.125 395.839844 "/>
<path style="fill:none;stroke-width:0.2;stroke-linecap:butt;stroke-linejoin:miter;stroke:rgb(26.666667%,26.666667%,26.666667%);stroke-opacity:1;stroke-miterlimit:10;" d="M 286.09375 265.203125 L 275.359375 268.957031 "/>
<path style="fill:none;stroke-width:0.2;stroke-linecap:butt;stroke-linejoin:miter;stroke:rgb(26.666667%,26.666667%,26.666667%);stroke-opacity:1;stroke-miterlimit:10;" d="M 200.601562 276.335938 L 189.964844 272 "/>
<path style="fill:none;stroke-width:0.2;stroke-linecap:butt;stroke-linejoin:miter;stroke:rgb(26.666667%,26.666667%,26.666667%);stroke-opacity:1;stroke-miterlimit:10;" d="M 505.945312 525.058594 L 495.210938 529.683594 "/>
<path style="fill:none;stroke-width:0.2;stroke-linecap:butt;stroke-linejoin:miter;stroke:rgb(26.666667%,26.666667%,26.666667%);stroke-opacity:1;stroke-miterlimit:10;" d="M 21.117188 364.125 L 20.085938 375.914062 "/>
<path style="fill:none;stroke-width:0.2;stroke-linecap:butt;stroke-linejoin:miter;stroke:rgb(26.666667%,26.666667%,26.666667%);stroke-opacity:1;stroke-miterlimit:10;" d="M 502.886719 423.535156 L 492.847656 429.433594 "/>
<path style="fill:none;stroke-width:0.2;stroke-linecap:butt;stroke-linejoin:miter;stroke:rgb(26.666667%,26.666667%,26.666667%);stroke-opacity:1;stroke-miterlimit:10;" d="M 45.996094 314.160156 L 37 306.683594 "/>
<path style="fill:none;stroke-width:0.2;stroke-linecap:butt;stroke-linejoin:miter;stroke:rgb(26.666667%,26.666667%,26.666667%);stroke-opacity:1;stroke-miterlimit:10;" d="M 51.6875 211.6875 L 53.136719 200.003906 "/>
<path style="fill:none;stroke-width:0.2;stroke-linecap:butt;stroke-linejoin:miter;stroke:rgb(26.666667%,26.666667%,26.666667%);stroke-opacity:1;stroke-miterlimit:10;" d="M 141.757812 358.480469 L 135.289062 368.21875 "/>
<path style="fill:none;stroke-width:0.2;stroke-linecap:butt;stroke-linejoin:miter;stroke:rgb(26.666667%,26.666667%,26.666667%);stroke-opacity:1;stroke-miterlimit:10;" d="M 275.730469 312.257812 L 280.960938 322.617188 "/>
<path style="fill:none;stroke-width:0.2;stroke-linecap:butt;stroke-linejoin:miter;stroke:rgb(26.666667%,26.666667%,26.666667%);stroke-opacity:1;stroke-miterlimit:10;" d="M 377.761719 238.09375 L 378.96875 249.6875 "/>
<path style="fill:none;stroke-width:0.2;stroke-linecap:butt;stroke-linejoin:miter;stroke:rgb(26.666667%,26.666667%,26.666667%);stroke-opacity:1;stroke-miterlimit:10;" d="M 145.96875 120.464844 L 156.09375 126.054688 "/>
<path style="fill:none;stroke-width:0.2;stroke-linecap:butt;stroke-linejoin:miter;stroke:rgb(26.666667%,26.666667%,26.666667%);stroke-opacity:1;stroke-miterlimit:10;" d="M 159.402344 215.277344 L 159.316406 227.027344 "/>
<path style="fill:none;stroke-width:0.2;stroke-linecap:butt;stroke-linejoin:miter;stroke:rgb(26.666667%,26.666667%,26.666667%);stroke-opacity:1;stroke-miterlimit:10;" d="M 90.507812 483.46875 L 91.097656 471.683594 "/>
<path style="fill:none;stroke-width:0.2;stroke-linecap:butt;stroke-linejoin:miter;stroke:rgb(26.666667%,26.666667%,26.666667%);stroke-opacity:1;stroke-miterlimit:10;" d="M 183.972656 574.367188 L 194.496094 579.558594 "/>
<path style="fill:none;stroke-width:0.2;stroke-linecap:butt;stroke-linejoin:miter;stroke:rgb(26.666667%,26.666667%,26.666667%);stroke-opacity:1;stroke-miterlimit:10;" d="M 266.363281 139.703125 L 254.277344 129.550781 "/>
<path style="fill:none;stroke-width:0.2;stroke-linecap:butt;stroke-linejoin:miter;stroke:rgb(26.666667%,26.666667%,26.666667%);stroke-opacity:1;stroke-miterlimit:10;" d="M 266.363281 139.703125 L 252.988281 147.613281 "/>
<path style="fill:none;stroke-width:0.2;stroke-linecap:butt;stroke-linejoin:miter;stroke:rgb(26.666667%,26.666667%,26.666667%);stroke-opacity:1;stroke-miterlimit:10;" d="M 266.363281 139.703125 L 270.335938 154.929688 "/>
<path style="fill:none;stroke-width:0.2;stroke-linecap:butt;stroke-linejoin:miter;stroke:rgb(26.666667%,26.666667%,26.666667%);stroke-opacity:1;stroke-miterlimit:10;" d="M 266.363281 139.703125 L 281.917969 140.921875 "/>
<path style="fill:none;stroke-width:0.2;stroke-linecap:butt;stroke-linejoin:miter;stroke:rgb(26.666667%,26.666667%,26.666667%);stroke-opacity:1;stroke-miterlimit:10;" d="M 266.363281 139.703125 L 272.425781 125.398438 "/>
<path style="fill:none;stroke-width:0.2;stroke-linecap:butt;stroke-linejoin:miter;stroke:rgb(26.666667%,26.666667%,26.666667%);stroke-opacity:1;stroke-miterlimit:10;" d="M 357.480469 27.414062 L 354.34375 38.796875 "/>
<path style="fill:none;stroke-width:0.2;stroke-linecap:butt;stroke-linejoin:miter;stroke:rgb(26.666667%,26.666667%,26.666667%);stroke-opacity:1;stroke-miterlimit:10;" d="M 292.914062 377.371094 L 301.679688 384.753906 "/>
<path style="fill:none;stroke-width:0.2;stroke-linecap:butt;stroke-linejoin:miter;stroke:rgb(26.666667%,26.666667%,26.666667%);stroke-opacity:1;stroke-miterlimit:10;" d="M 478.109375 385.796875 L 469.371094 393.566406 "/>
<path style="fill:none;stroke-width:0.2;stroke-linecap:butt;stroke-linejoin:miter;stroke:rgb(26.666667%,26.666667%,26.666667%);stroke-opacity:1;stroke-miterlimit:10;" d="M 207.34375 430.679688 L 209.285156 442.1875 "/>
<path style="fill:none;stroke-width:0.2;stroke-linecap:butt;stroke-linejoin:miter;stroke:rgb(26.666667%,26.666667%,26.666667%);stroke-opacity:1;stroke-miterlimit:10;" d="M 430.285156 202.273438 L 441.855469 204.492188 "/>
<path style="fill:none;stroke-width:0.2;stroke-linecap:butt;stroke-linejoin:miter;stroke:rgb(26.666667%,26.666667%,26.666667%);stroke-opacity:1;stroke-miterlimit:10;" d="M 569.832031 348.785156 L 572.277344 360.339844 "/>
<path style="fill:none;stroke-width:0.2;stroke-linecap:butt;stroke-linejoin:miter;stroke:rgb(26.666667%,26.666667%,26.666667%);stroke-opacity:1;stroke-miterlimit:10;" d="M 240.820312 258.675781 L 234.582031 248.980469 "/>
<path style="fill:none;stroke-width:0.2;stroke-linecap:butt;stroke-linejoin:miter;stroke:rgb(26.666667%,26.666667%,26.666667%);stroke-opacity:1;stroke-miterlimit:10;" d="M 152.980469 465.59375 L 160.542969 456.742188 "/>
<path style="fill:none;stroke-width:0.2;stroke-linecap:butt;stroke-linejoin:miter;stroke:rgb(26.666667%,26.666667%,26.666667%);stroke-opacity:1;stroke-miterlimit:10;" d="M 547.425781 221.214844 L 555.292969 229.828125 "/>
<path style="fill:none;stroke-width:0.2;stroke-linecap:butt;stroke-linejoin:miter;stroke:rgb(26.666667%,26.666667%,26.666667%);stroke-opacity:1;stroke-miterlimit:10;" d="M 346.011719 401.148438 L 353.101562 392 "/>
<path style="fill:none;stroke-width:0.2;stroke-linecap:butt;stroke-linejoin:miter;stroke:rgb(26.666667%,26.666667%,26.666667%);stroke-opacity:1;stroke-miterlimit:10;" d="M 434.703125 363.339844 L 431.4375 374.574219 "/>
<path style="fill:none;stroke-width:0.2;stroke-linecap:butt;stroke-linejoin:miter;stroke:rgb(26.666667%,26.666667%,26.666667%);stroke-opacity:1;stroke-miterlimit:10;" d="M 334.382812 347.203125 L 322.621094 343.742188 "/>
<path style="fill:none;stroke-width:0.2;stroke-linecap:butt;stroke-linejoin:miter;stroke:rgb(26.666667%,26.666667%,26.666667%);stroke-opacity:1;stroke-miterlimit:10;" d="M 334.382812 347.203125 L 346.203125 350.527344 "/>
<path style="fill:none;stroke-width:0.2;stroke-linecap:butt;stroke-linejoin:miter;stroke:rgb(26.666667%,26.666667%,26.666667%);stroke-opacity:1;stroke-miterlimit:10;" d="M 441.777344 152.3125 L 435.71875 164.316406 "/>
<path style="fill:none;stroke-width:0.2;stroke-linecap:butt;stroke-linejoin:miter;stroke:rgb(26.666667%,26.666667%,26.666667%);stroke-opacity:1;stroke-miterlimit:10;" d="M 441.777344 152.3125 L 449.578125 133.722656 "/>
<path style="fill:none;stroke-width:0.2;stroke-linecap:butt;stroke-linejoin:miter;stroke:rgb(26.666667%,26.666667%,26.666667%);stroke-opacity:1;stroke-miterlimit:10;" d="M 348.925781 448.761719 L 359.320312 443.707031 "/>
<path style="fill:none;stroke-width:0.2;stroke-linecap:butt;stroke-linejoin:miter;stroke:rgb(26.666667%,26.666667%,26.666667%);stroke-opacity:1;stroke-miterlimit:10;" d="M 71.136719 386.367188 C 71.136719 388.367188 68.136719 388.367188 68.136719 386.367188 C 68.136719 384.367188 71.136719 384.367188 71.136719 386.367188 "/>
<path style="fill:none;stroke-width:0.2;stroke-linecap:butt;stroke-linejoin:miter;stroke:rgb(26.666667%,26.666667%,26.666667%);stroke-opacity:1;stroke-miterlimit:10;" d="M 511.976562 185.339844 L 522.835938 181.082031 "/>
<path style="fill:none;stroke-width:0.2;stroke-linecap:butt;stroke-linejoin:miter;stroke:rgb(26.666667%,26.666667%,26.666667%);stroke-opacity:1;stroke-miterlimit:10;" d="M 348.601562 187.085938 L 353.957031 204.277344 "/>
<path style="fill:none;stroke-width:0.2;stroke-linecap:butt;stroke-linejoin:miter;stroke:rgb(26.666667%,26.666667%,26.666667%);stroke-opacity:1;stroke-miterlimit:10;" d="M 287.898438 559.453125 L 275.476562 545.402344 "/>
<path style="fill:none;stroke-width:0.2;stroke-linecap:butt;stroke-linejoin:miter;stroke:rgb(26.666667%,26.666667%,26.666667%);stroke-opacity:1;stroke-miterlimit:10;" d="M 428.351562 66.6875 L 424.957031 55.332031 "/>
<path style="fill:none;stroke-width:0.2;stroke-linecap:butt;stroke-linejoin:miter;stroke:rgb(26.666667%,26.666667%,26.666667%);stroke-opacity:1;stroke-miterlimit:10;" d="M 396.703125 342.894531 L 405.019531 334.761719 "/>
<path style="fill:none;stroke-width:0.2;stroke-linecap:butt;stroke-linejoin:miter;stroke:rgb(26.666667%,26.666667%,26.666667%);stroke-opacity:1;stroke-miterlimit:10;" d="M 430.554688 431.90625 L 429.460938 443.527344 "/>
<path style="fill:none;stroke-width:0.2;stroke-linecap:butt;stroke-linejoin:miter;stroke:rgb(26.666667%,26.666667%,26.666667%);stroke-opacity:1;stroke-miterlimit:10;" d="M 206.652344 92.691406 L 196.503906 98.257812 "/>
<path style="fill:none;stroke-width:0.2;stroke-linecap:butt;stroke-linejoin:miter;stroke:rgb(26.666667%,26.666667%,26.666667%);stroke-opacity:1;stroke-miterlimit:10;" d="M 478.597656 72.203125 C 478.597656 74.203125 475.597656 74.203125 475.597656 72.203125 C 475.597656 70.203125 478.597656 70.203125 478.597656 72.203125 "/>
<path style="fill:none;stroke-width:0.2;stroke-linecap:butt;stroke-linejoin:miter;stroke:rgb(26.666667%,26.666667%,26.666667%);stroke-opacity:1;stroke-miterlimit:10;" d="M 443.164062 560.738281 C 443.164062 562.738281 440.164062 562.738281 440.164062 560.738281 C 440.164062 558.738281 443.164062 558.738281 443.164062 560.738281 "/>
<path style="fill:none;stroke-width:0.2;stroke-linecap:butt;stroke-linejoin:miter;stroke:rgb(26.666667%,26.666667%,26.666667%);stroke-opacity:1;stroke-miterlimit:10;" d="M 139.132812 526.203125 L 131.832031 517.066406 "/>
<path style="fill:none;stroke-width:0.2;stroke-linecap:butt;stroke-linejoin:miter;stroke:rgb(26.666667%,26.666667%,26.666667%);stroke-opacity:1;stroke-miterlimit:10;" d="M 552.941406 431.289062 L 554.230469 419.519531 "/>
<path style="fill:none;stroke-width:0.2;stroke-linecap:butt;stroke-linejoin:miter;stroke:rgb(26.666667%,26.666667%,26.666667%);stroke-opacity:1;stroke-miterlimit:10;" d="M 124.882812 255.136719 L 134.75 261.378906 "/>
<path style="fill:none;stroke-width:0.2;stroke-linecap:butt;stroke-linejoin:miter;stroke:rgb(26.666667%,26.666667%,26.666667%);stroke-opacity:1;stroke-miterlimit:10;" d="M 358.394531 304.113281 L 368.421875 309.511719 "/>
<path style="fill:none;stroke-width:0.2;stroke-linecap:butt;stroke-linejoin:miter;stroke:rgb(26.666667%,26.666667%,26.666667%);stroke-opacity:1;stroke-miterlimit:10;" d="M 580 294.277344 L 575.667969 283.34375 "/>
<path style="fill:none;stroke-width:0.2;stroke-linecap:butt;stroke-linejoin:miter;stroke:rgb(26.666667%,26.666667%,26.666667%);stroke-opacity:1;stroke-miterlimit:10;" d="M 97.390625 148.832031 L 87.375 154.785156 "/>
<path style="fill:none;stroke-width:0.2;stroke-linecap:butt;stroke-linejoin:miter;stroke:rgb(26.666667%,26.666667%,26.666667%);stroke-opacity:1;stroke-miterlimit:10;" d="M 274.074219 558.84375 L 287.910156 545.96875 "/>
<path style="fill:none;stroke-width:0.2;stroke-linecap:butt;stroke-linejoin:miter;stroke:rgb(26.666667%,26.666667%,26.666667%);stroke-opacity:1;stroke-miterlimit:10;" d="M 411.832031 289.617188 L 401.085938 285.535156 "/>
<path style="fill:none;stroke-width:0.2;stroke-linecap:butt;stroke-linejoin:miter;stroke:rgb(26.666667%,26.666667%,26.666667%);stroke-opacity:1;stroke-miterlimit:10;" d="M 513.199219 270.269531 L 516.863281 282.441406 "/>
<path style="fill:none;stroke-width:0.2;stroke-linecap:butt;stroke-linejoin:miter;stroke:rgb(26.666667%,26.666667%,26.666667%);stroke-opacity:1;stroke-miterlimit:10;" d="M 513.199219 270.269531 L 509.417969 258.082031 "/>
<path style="fill:none;stroke-width:0.2;stroke-linecap:butt;stroke-linejoin:miter;stroke:rgb(26.666667%,26.666667%,26.666667%);stroke-opacity:1;stroke-miterlimit:10;" d="M 48.851562 432.519531 L 45.164062 443.726562 "/>
<path style="fill:none;stroke-width:0.2;stroke-linecap:butt;stroke-linejoin:miter;stroke:rgb(26.666667%,26.666667%,26.666667%);stroke-opacity:1;stroke-miterlimit:10;" d="M 438.664062 504.625 L 441.421875 493.164062 "/>
<path style="fill:none;stroke-width:0.2;stroke-linecap:butt;stroke-linejoin:miter;stroke:rgb(26.666667%,26.666667%,26.666667%);stroke-opacity:1;stroke-miterlimit:10;" d="M 308.289062 432.488281 L 298.582031 426.3125 "/>
<path style="fill:none;stroke-width:0.2;stroke-linecap:butt;stroke-linejoin:miter;stroke:rgb(26.666667%,26.666667%,26.666667%);stroke-opacity:1;stroke-miterlimit:10;" d="M 521.152344 126.113281 L 511.132812 120.1875 "/>
<path style=" stroke:none;fill-rule:nonzero;fill:rgb(100%,0%,0%);fill-opacity:1;" d="M 349.660156 573.945312 C 349.660156 575.28125 347.660156 575.28125 347.660156 573.945312 C 347.660156 572.613281 349.660156 572.613281 349.660156 573.945312 "/>
<path style=" stroke:none;fill-rule:nonzero;fill:rgb(100%,0%,0%);fill-opacity:1;" d="M 344.097656 562.421875 C 344.097656 563.753906 342.097656 563.753906 342.097656 562.421875 C 342.097656 561.089844 344.097656 561.089844 344.097656 562.421875 "/>
<path style=" stroke:none;fill-rule:nonzero;fill:rgb(100%,0%,0%);fill-opacity:1;" d="M 384.667969 533.054688 C 384.667969 534.386719 382.667969 534.386719 382.667969 533.054688 C 382.667969 531.722656 384.667969 531.722656 384.667969 533.054688 "/>
<path style=" stroke:none;fill-rule:nonzero;fill:rgb(100%,0%,0%);fill-opacity:1;" d="M 393.988281 541.652344 C 393.988281 542.984375 391.988281 542.984375 391.988281 541.652344 C 391.988281 540.316406 393.988281 540.316406 393.988281 541.652344 "/>
<path style=" stroke:none;fill-rule:nonzero;fill:rgb(100%,0%,0%);fill-opacity:1;" d="M 166.707031 321.242188 C 166.707031 322.574219 164.707031 322.574219 164.707031 321.242188 C 164.707031 319.90625 166.707031 319.90625 166.707031 321.242188 "/>
<path style=" stroke:none;fill-rule:nonzero;fill:rgb(100%,0%,0%);fill-opacity:1;" d="M 163.113281 309.039062 C 163.113281 310.371094 161.113281 310.371094 161.113281 309.039062 C 161.113281 307.707031 163.113281 307.707031 163.113281 309.039062 "/>
<path style=" stroke:none;fill-rule:nonzero;fill:rgb(100%,0%,0%);fill-opacity:1;" d="M 111.800781 417.828125 C 111.800781 419.160156 109.800781 419.160156 109.800781 417.828125 C 109.800781 416.492188 111.800781 416.492188 111.800781 417.828125 "/>
<path style=" stroke:none;fill-rule:nonzero;fill:rgb(100%,0%,0%);fill-opacity:1;" d="M 119.195312 428.121094 C 119.195312 429.453125 117.195312 429.453125 117.195312 428.121094 C 117.195312 426.785156 119.195312 426.785156 119.195312 428.121094 "/>
<path style=" stroke:none;fill-rule:nonzero;fill:rgb(100%,0%,0%);fill-opacity:1;" d="M 316.191406 298.195312 C 316.191406 299.527344 314.191406 299.527344 314.191406 298.195312 C 314.191406 296.863281 316.191406 296.863281 316.191406 298.195312 "/>
<path style=" stroke:none;fill-rule:nonzero;fill:rgb(100%,0%,0%);fill-opacity:1;" d="M 325.738281 290.171875 C 325.738281 291.503906 323.738281 291.503906 323.738281 290.171875 C 323.738281 288.839844 325.738281 288.839844 325.738281 290.171875 "/>
<path style=" stroke:none;fill-rule:nonzero;fill:rgb(100%,0%,0%);fill-opacity:1;" d="M 334.050781 251.765625 C 334.050781 253.097656 332.050781 253.097656 332.050781 251.765625 C 332.050781 250.429688 334.050781 250.429688 334.050781 251.765625 "/>
<path style=" stroke:none;fill-rule:nonzero;fill:rgb(100%,0%,0%);fill-opacity:1;" d="M 323.503906 244.984375 C 323.503906 246.316406 321.503906 246.316406 321.503906 244.984375 C 321.503906 243.648438 323.503906 243.648438 323.503906 244.984375 "/>
<path style=" stroke:none;fill-rule:nonzero;fill:rgb(100%,0%,0%);fill-opacity:1;" d="M 238.046875 27.898438 C 238.046875 29.230469 236.046875 29.230469 236.046875 27.898438 C 236.046875 26.566406 238.046875 26.566406 238.046875 27.898438 "/>
<path style=" stroke:none;fill-rule:nonzero;fill:rgb(100%,0%,0%);fill-opacity:1;" d="M 248.011719 20 C 248.011719 21.332031 246.011719 21.332031 246.011719 20 C 246.011719 18.667969 248.011719 18.667969 248.011719 20 "/>
<path style=" stroke:none;fill-rule:nonzero;fill:rgb(100%,0%,0%);fill-opacity:1;" d="M 95.867188 100.78125 C 95.867188 102.113281 93.867188 102.113281 93.867188 100.78125 C 93.867188 99.449219 95.867188 99.449219 95.867188 100.78125 "/>
<path style=" stroke:none;fill-rule:nonzero;fill:rgb(100%,0%,0%);fill-opacity:1;" d="M 224.859375 533.050781 C 224.859375 534.382812 222.859375 534.382812 222.859375 533.050781 C 222.859375 531.71875 224.859375 531.71875 224.859375 533.050781 "/>
<path style=" stroke:none;fill-rule:nonzero;fill:rgb(100%,0%,0%);fill-opacity:1;" d="M 212.34375 534.011719 C 212.34375 535.347656 210.34375 535.347656 210.34375 534.011719 C 210.34375 532.679688 212.34375 532.679688 212.34375 534.011719 "/>
<path style=" stroke:none;fill-rule:nonzero;fill:rgb(100%,0%,0%);fill-opacity:1;" d="M 342.769531 199.144531 C 342.769531 200.476562 340.769531 200.476562 340.769531 199.144531 C 340.769531 197.8125 342.769531 197.8125 342.769531 199.144531 "/>
<path style=" stroke:none;fill-rule:nonzero;fill:rgb(100%,0%,0%);fill-opacity:1;" d="M 362.105469 192.9375 C 362.105469 194.269531 360.105469 194.269531 360.105469 192.9375 C 360.105469 191.601562 362.105469 191.601562 362.105469 192.9375 "/>
<path style=" stroke:none;fill-rule:nonzero;fill:rgb(100%,0%,0%);fill-opacity:1;" d="M 388.902344 87.585938 C 388.902344 88.917969 386.902344 88.917969 386.902344 87.585938 C 386.902344 86.25 388.902344 86.25 388.902344 87.585938 "/>
<path style=" stroke:none;fill-rule:nonzero;fill:rgb(100%,0%,0%);fill-opacity:1;" d="M 378.320312 80.574219 C 378.320312 81.90625 376.320312 81.90625 376.320312 80.574219 C 376.320312 79.242188 378.320312 79.242188 378.320312 80.574219 "/>
<path style=" stroke:none;fill-rule:nonzero;fill:rgb(100%,0%,0%);fill-opacity:1;" d="M 274.5 480.921875 C 274.5 482.257812 272.5 482.257812 272.5 480.921875 C 272.5 479.589844 274.5 479.589844 274.5 480.921875 "/>
<path style=" stroke:none;fill-rule:nonzero;fill:rgb(100%,0%,0%);fill-opacity:1;" d="M 261.875 485.421875 C 261.875 486.753906 259.875 486.753906 259.875 485.421875 C 259.875 484.089844 261.875 484.089844 261.875 485.421875 "/>
<path style=" stroke:none;fill-rule:nonzero;fill:rgb(100%,0%,0%);fill-opacity:1;" d="M 287.039062 476.222656 C 287.039062 477.558594 285.039062 477.558594 285.039062 476.222656 C 285.039062 474.890625 287.039062 474.890625 287.039062 476.222656 "/>
<path style=" stroke:none;fill-rule:nonzero;fill:rgb(100%,0%,0%);fill-opacity:1;" d="M 164.546875 54.292969 C 164.546875 55.625 162.546875 55.625 162.546875 54.292969 C 162.546875 52.957031 164.546875 52.957031 164.546875 54.292969 "/>
<path style=" stroke:none;fill-rule:nonzero;fill:rgb(100%,0%,0%);fill-opacity:1;" d="M 175.382812 47.636719 C 175.382812 48.972656 173.382812 48.972656 173.382812 47.636719 C 173.382812 46.304688 175.382812 46.304688 175.382812 47.636719 "/>
<path style=" stroke:none;fill-rule:nonzero;fill:rgb(100%,0%,0%);fill-opacity:1;" d="M 420.132812 239.425781 C 420.132812 240.757812 418.132812 240.757812 418.132812 239.425781 C 418.132812 238.089844 420.132812 238.089844 420.132812 239.425781 "/>
<path style=" stroke:none;fill-rule:nonzero;fill:rgb(100%,0%,0%);fill-opacity:1;" d="M 431.8125 243.78125 C 431.8125 245.117188 429.8125 245.117188 429.8125 243.78125 C 429.8125 242.449219 431.8125 242.449219 431.8125 243.78125 "/>
<path style=" stroke:none;fill-rule:nonzero;fill:rgb(100%,0%,0%);fill-opacity:1;" d="M 438.789062 136.65625 C 438.789062 137.988281 436.789062 137.988281 436.789062 136.65625 C 436.789062 135.324219 438.789062 135.324219 438.789062 136.65625 "/>
<path style=" stroke:none;fill-rule:nonzero;fill:rgb(100%,0%,0%);fill-opacity:1;" d="M 457.105469 144.417969 C 457.105469 145.753906 455.105469 145.753906 455.105469 144.417969 C 455.105469 143.085938 457.105469 143.085938 457.105469 144.417969 "/>
<path style=" stroke:none;fill-rule:nonzero;fill:rgb(100%,0%,0%);fill-opacity:1;" d="M 176.671875 167.84375 C 176.671875 169.175781 174.671875 169.175781 174.671875 167.84375 C 174.671875 166.507812 176.671875 166.507812 176.671875 167.84375 "/>
<path style=" stroke:none;fill-rule:nonzero;fill:rgb(100%,0%,0%);fill-opacity:1;" d="M 188.828125 164.625 C 188.828125 165.960938 186.828125 165.960938 186.828125 164.625 C 186.828125 163.292969 188.828125 163.292969 188.828125 164.625 "/>
<path style=" stroke:none;fill-rule:nonzero;fill:rgb(100%,0%,0%);fill-opacity:1;" d="M 521.667969 343.140625 C 521.667969 344.476562 519.667969 344.476562 519.667969 343.140625 C 519.667969 341.808594 521.667969 341.808594 521.667969 343.140625 "/>
<path style=" stroke:none;fill-rule:nonzero;fill:rgb(100%,0%,0%);fill-opacity:1;" d="M 521.027344 355.96875 C 521.027344 357.304688 519.027344 357.304688 519.027344 355.96875 C 519.027344 354.636719 521.027344 354.636719 521.027344 355.96875 "/>
<path style=" stroke:none;fill-rule:nonzero;fill:rgb(100%,0%,0%);fill-opacity:1;" d="M 236.179688 189.101562 C 236.179688 190.433594 234.179688 190.433594 234.179688 189.101562 C 234.179688 187.769531 236.179688 187.769531 236.179688 189.101562 "/>
<path style=" stroke:none;fill-rule:nonzero;fill:rgb(100%,0%,0%);fill-opacity:1;" d="M 246.230469 196.796875 C 246.230469 198.132812 244.230469 198.132812 244.230469 196.796875 C 244.230469 195.464844 246.230469 195.464844 246.230469 196.796875 "/>
<path style=" stroke:none;fill-rule:nonzero;fill:rgb(100%,0%,0%);fill-opacity:1;" d="M 260.203125 365.257812 C 260.203125 366.589844 258.203125 366.589844 258.203125 365.257812 C 258.203125 363.925781 260.203125 363.925781 260.203125 365.257812 "/>
<path style=" stroke:none;fill-rule:nonzero;fill:rgb(100%,0%,0%);fill-opacity:1;" d="M 250.425781 357.503906 C 250.425781 358.835938 248.425781 358.835938 248.425781 357.503906 C 248.425781 356.171875 250.425781 356.171875 250.425781 357.503906 "/>
<path style=" stroke:none;fill-rule:nonzero;fill:rgb(100%,0%,0%);fill-opacity:1;" d="M 372.152344 125.8125 C 372.152344 127.144531 370.152344 127.144531 370.152344 125.8125 C 370.152344 124.476562 372.152344 124.476562 372.152344 125.8125 "/>
<path style=" stroke:none;fill-rule:nonzero;fill:rgb(100%,0%,0%);fill-opacity:1;" d="M 361.902344 118.070312 C 361.902344 119.402344 359.902344 119.402344 359.902344 118.070312 C 359.902344 116.734375 361.902344 116.734375 361.902344 118.070312 "/>
<path style=" stroke:none;fill-rule:nonzero;fill:rgb(100%,0%,0%);fill-opacity:1;" d="M 208.890625 213.800781 C 208.890625 215.136719 206.890625 215.136719 206.890625 213.800781 C 206.890625 212.46875 208.890625 212.46875 208.890625 213.800781 "/>
<path style=" stroke:none;fill-rule:nonzero;fill:rgb(100%,0%,0%);fill-opacity:1;" d="M 199.96875 222.484375 C 199.96875 223.816406 197.96875 223.816406 197.96875 222.484375 C 197.96875 221.148438 199.96875 221.148438 199.96875 222.484375 "/>
<path style=" stroke:none;fill-rule:nonzero;fill:rgb(100%,0%,0%);fill-opacity:1;" d="M 328.433594 145.382812 C 328.433594 146.714844 326.433594 146.714844 326.433594 145.382812 C 326.433594 144.050781 328.433594 144.050781 328.433594 145.382812 "/>
<path style=" stroke:none;fill-rule:nonzero;fill:rgb(100%,0%,0%);fill-opacity:1;" d="M 340.542969 148.148438 C 340.542969 149.484375 338.542969 149.484375 338.542969 148.148438 C 338.542969 146.816406 340.542969 146.816406 340.542969 148.148438 "/>
<path style=" stroke:none;fill-rule:nonzero;fill:rgb(100%,0%,0%);fill-opacity:1;" d="M 396.367188 483.730469 C 396.367188 485.0625 394.367188 485.0625 394.367188 483.730469 C 394.367188 482.398438 396.367188 482.398438 396.367188 483.730469 "/>
<path style=" stroke:none;fill-rule:nonzero;fill:rgb(100%,0%,0%);fill-opacity:1;" d="M 385.769531 477.1875 C 385.769531 478.523438 383.769531 478.523438 383.769531 477.1875 C 383.769531 475.855469 385.769531 475.855469 385.769531 477.1875 "/>
<path style=" stroke:none;fill-rule:nonzero;fill:rgb(100%,0%,0%);fill-opacity:1;" d="M 340.101562 497.105469 C 340.101562 498.441406 338.101562 498.441406 338.101562 497.105469 C 338.101562 495.773438 340.101562 495.773438 340.101562 497.105469 "/>
<path style=" stroke:none;fill-rule:nonzero;fill:rgb(100%,0%,0%);fill-opacity:1;" d="M 327.675781 497.746094 C 327.675781 499.078125 325.675781 499.078125 325.675781 497.746094 C 325.675781 496.414062 327.675781 496.414062 327.675781 497.746094 "/>
<path style=" stroke:none;fill-rule:nonzero;fill:rgb(100%,0%,0%);fill-opacity:1;" d="M 224.574219 316.917969 C 224.574219 318.25 222.574219 318.25 222.574219 316.917969 C 222.574219 315.585938 224.574219 315.585938 224.574219 316.917969 "/>
<path style=" stroke:none;fill-rule:nonzero;fill:rgb(100%,0%,0%);fill-opacity:1;" d="M 211.621094 319.554688 C 211.621094 320.886719 209.621094 320.886719 209.621094 319.554688 C 209.621094 318.222656 211.621094 318.222656 211.621094 319.554688 "/>
<path style=" stroke:none;fill-rule:nonzero;fill:rgb(100%,0%,0%);fill-opacity:1;" d="M 237.535156 314.457031 C 237.535156 315.789062 235.535156 315.789062 235.535156 314.457031 C 235.535156 313.121094 237.535156 313.121094 237.535156 314.457031 "/>
<path style=" stroke:none;fill-rule:nonzero;fill:rgb(100%,0%,0%);fill-opacity:1;" d="M 107.972656 297.761719 C 107.972656 299.09375 105.972656 299.09375 105.972656 297.761719 C 105.972656 296.429688 107.972656 296.429688 107.972656 297.761719 "/>
<path style=" stroke:none;fill-rule:nonzero;fill:rgb(100%,0%,0%);fill-opacity:1;" d="M 117.644531 305.855469 C 117.644531 307.191406 115.644531 307.191406 115.644531 305.855469 C 115.644531 304.523438 117.644531 304.523438 117.644531 305.855469 "/>
<path style=" stroke:none;fill-rule:nonzero;fill:rgb(100%,0%,0%);fill-opacity:1;" d="M 282.433594 219.707031 C 282.433594 221.039062 280.433594 221.039062 280.433594 219.707031 C 280.433594 218.375 282.433594 218.375 282.433594 219.707031 "/>
<path style=" stroke:none;fill-rule:nonzero;fill:rgb(100%,0%,0%);fill-opacity:1;" d="M 291.019531 210.464844 C 291.019531 211.800781 289.019531 211.800781 289.019531 210.464844 C 289.019531 209.132812 291.019531 209.132812 291.019531 210.464844 "/>
<path style=" stroke:none;fill-rule:nonzero;fill:rgb(100%,0%,0%);fill-opacity:1;" d="M 256.890625 424.15625 C 256.890625 425.492188 254.890625 425.492188 254.890625 424.15625 C 254.890625 422.824219 256.890625 422.824219 256.890625 424.15625 "/>
<path style=" stroke:none;fill-rule:nonzero;fill:rgb(100%,0%,0%);fill-opacity:1;" d="M 253.679688 436.46875 C 253.679688 437.804688 251.679688 437.804688 251.679688 436.46875 C 251.679688 435.136719 253.679688 435.136719 253.679688 436.46875 "/>
<path style=" stroke:none;fill-rule:nonzero;fill:rgb(100%,0%,0%);fill-opacity:1;" d="M 205.667969 487.507812 C 205.667969 488.839844 203.667969 488.839844 203.667969 487.507812 C 203.667969 486.171875 205.667969 486.171875 205.667969 487.507812 "/>
<path style=" stroke:none;fill-rule:nonzero;fill:rgb(100%,0%,0%);fill-opacity:1;" d="M 194.304688 492.984375 C 194.304688 494.316406 192.304688 494.316406 192.304688 492.984375 C 192.304688 491.652344 194.304688 491.652344 194.304688 492.984375 "/>
<path style=" stroke:none;fill-rule:nonzero;fill:rgb(100%,0%,0%);fill-opacity:1;" d="M 62.347656 256.59375 C 62.347656 257.929688 60.347656 257.929688 60.347656 256.59375 C 60.347656 255.261719 62.347656 255.261719 62.347656 256.59375 "/>
<path style=" stroke:none;fill-rule:nonzero;fill:rgb(100%,0%,0%);fill-opacity:1;" d="M 71.429688 265.378906 C 71.429688 266.710938 69.429688 266.710938 69.429688 265.378906 C 69.429688 264.042969 71.429688 264.042969 71.429688 265.378906 "/>
<path style=" stroke:none;fill-rule:nonzero;fill:rgb(100%,0%,0%);fill-opacity:1;" d="M 276.859375 79.4375 C 276.859375 80.769531 274.859375 80.769531 274.859375 79.4375 C 274.859375 78.101562 276.859375 78.101562 276.859375 79.4375 "/>
<path style=" stroke:none;fill-rule:nonzero;fill:rgb(100%,0%,0%);fill-opacity:1;" d="M 264.554688 76.425781 C 264.554688 77.757812 262.554688 77.757812 262.554688 76.425781 C 262.554688 75.089844 264.554688 75.089844 264.554688 76.425781 "/>
<path style=" stroke:none;fill-rule:nonzero;fill:rgb(100%,0%,0%);fill-opacity:1;" d="M 123.066406 191.324219 C 123.066406 192.65625 121.066406 192.65625 121.066406 191.324219 C 121.066406 189.992188 123.066406 189.992188 123.066406 191.324219 "/>
<path style=" stroke:none;fill-rule:nonzero;fill:rgb(100%,0%,0%);fill-opacity:1;" d="M 114.898438 201.101562 C 114.898438 202.433594 112.898438 202.433594 112.898438 201.101562 C 112.898438 199.769531 114.898438 199.769531 114.898438 201.101562 "/>
<path style=" stroke:none;fill-rule:nonzero;fill:rgb(100%,0%,0%);fill-opacity:1;" d="M 212.3125 378.855469 C 212.3125 380.1875 210.3125 380.1875 210.3125 378.855469 C 210.3125 377.523438 212.3125 377.523438 212.3125 378.855469 "/>
<path style=" stroke:none;fill-rule:nonzero;fill:rgb(100%,0%,0%);fill-opacity:1;" d="M 202.898438 369.160156 C 202.898438 370.492188 200.898438 370.492188 200.898438 369.160156 C 200.898438 367.824219 202.898438 367.824219 202.898438 369.160156 "/>
<path style=" stroke:none;fill-rule:nonzero;fill:rgb(100%,0%,0%);fill-opacity:1;" d="M 221.953125 388.335938 C 221.953125 389.671875 219.953125 389.671875 219.953125 388.335938 C 219.953125 387.003906 221.953125 387.003906 221.953125 388.335938 "/>
<path style=" stroke:none;fill-rule:nonzero;fill:rgb(100%,0%,0%);fill-opacity:1;" d="M 309.804688 48.046875 C 309.804688 49.378906 307.804688 49.378906 307.804688 48.046875 C 307.804688 46.714844 309.804688 46.714844 309.804688 48.046875 "/>
<path style=" stroke:none;fill-rule:nonzero;fill:rgb(100%,0%,0%);fill-opacity:1;" d="M 300.09375 39.835938 C 300.09375 41.171875 298.09375 41.171875 298.09375 39.835938 C 298.09375 38.503906 300.09375 38.503906 300.09375 39.835938 "/>
<path style=" stroke:none;fill-rule:nonzero;fill:rgb(100%,0%,0%);fill-opacity:1;" d="M 395.191406 394.488281 C 395.191406 395.820312 393.191406 395.820312 393.191406 394.488281 C 393.191406 393.15625 395.191406 393.15625 395.191406 394.488281 "/>
<path style=" stroke:none;fill-rule:nonzero;fill:rgb(100%,0%,0%);fill-opacity:1;" d="M 395.554688 407.234375 C 395.554688 408.566406 393.554688 408.566406 393.554688 407.234375 C 393.554688 405.902344 395.554688 405.902344 395.554688 407.234375 "/>
<path style=" stroke:none;fill-rule:nonzero;fill:rgb(100%,0%,0%);fill-opacity:1;" d="M 462.039062 269.039062 C 462.039062 270.371094 460.039062 270.371094 460.039062 269.039062 C 460.039062 267.707031 462.039062 267.707031 462.039062 269.039062 "/>
<path style=" stroke:none;fill-rule:nonzero;fill:rgb(100%,0%,0%);fill-opacity:1;" d="M 468.089844 257.785156 C 468.089844 259.117188 466.089844 259.117188 466.089844 257.785156 C 466.089844 256.449219 468.089844 256.449219 468.089844 257.785156 "/>
<path style=" stroke:none;fill-rule:nonzero;fill:rgb(100%,0%,0%);fill-opacity:1;" d="M 467.902344 322.90625 C 467.902344 324.238281 465.902344 324.238281 465.902344 322.90625 C 465.902344 321.574219 467.902344 321.574219 467.902344 322.90625 "/>
<path style=" stroke:none;fill-rule:nonzero;fill:rgb(100%,0%,0%);fill-opacity:1;" d="M 475.902344 333.6875 C 475.902344 335.023438 473.902344 335.023438 473.902344 333.6875 C 473.902344 332.355469 475.902344 332.355469 475.902344 333.6875 "/>
<path style=" stroke:none;fill-rule:nonzero;fill:rgb(100%,0%,0%);fill-opacity:1;" d="M 459.277344 312.660156 C 459.277344 313.996094 457.277344 313.996094 457.277344 312.660156 C 457.277344 311.328125 459.277344 311.328125 459.277344 312.660156 "/>
<path style=" stroke:none;fill-rule:nonzero;fill:rgb(100%,0%,0%);fill-opacity:1;" d="M 503.078125 474.535156 C 503.078125 475.867188 501.078125 475.867188 501.078125 474.535156 C 501.078125 473.203125 503.078125 473.203125 503.078125 474.535156 "/>
<path style=" stroke:none;fill-rule:nonzero;fill:rgb(100%,0%,0%);fill-opacity:1;" d="M 490.519531 476.046875 C 490.519531 477.378906 488.519531 477.378906 488.519531 476.046875 C 488.519531 474.714844 490.519531 474.714844 490.519531 476.046875 "/>
<path style=" stroke:none;fill-rule:nonzero;fill:rgb(100%,0%,0%);fill-opacity:1;" d="M 92.132812 343.171875 C 92.132812 344.503906 90.132812 344.503906 90.132812 343.171875 C 90.132812 341.835938 92.132812 341.835938 92.132812 343.171875 "/>
<path style=" stroke:none;fill-rule:nonzero;fill:rgb(100%,0%,0%);fill-opacity:1;" d="M 94.441406 355.671875 C 94.441406 357.003906 92.441406 357.003906 92.441406 355.671875 C 92.441406 354.335938 94.441406 354.335938 94.441406 355.671875 "/>
<path style=" stroke:none;fill-rule:nonzero;fill:rgb(100%,0%,0%);fill-opacity:1;" d="M 165.800781 407.3125 C 165.800781 408.648438 163.800781 408.648438 163.800781 407.3125 C 163.800781 405.980469 165.800781 405.980469 165.800781 407.3125 "/>
<path style=" stroke:none;fill-rule:nonzero;fill:rgb(100%,0%,0%);fill-opacity:1;" d="M 168.324219 394.863281 C 168.324219 396.195312 166.324219 396.195312 166.324219 394.863281 C 166.324219 393.527344 168.324219 393.527344 168.324219 394.863281 "/>
<path style=" stroke:none;fill-rule:nonzero;fill:rgb(100%,0%,0%);fill-opacity:1;" d="M 287.09375 265.203125 C 287.09375 266.535156 285.09375 266.535156 285.09375 265.203125 C 285.09375 263.867188 287.09375 263.867188 287.09375 265.203125 "/>
<path style=" stroke:none;fill-rule:nonzero;fill:rgb(100%,0%,0%);fill-opacity:1;" d="M 275.414062 269.285156 C 275.414062 270.617188 273.414062 270.617188 273.414062 269.285156 C 273.414062 267.953125 275.414062 267.953125 275.414062 269.285156 "/>
<path style=" stroke:none;fill-rule:nonzero;fill:rgb(100%,0%,0%);fill-opacity:1;" d="M 201.601562 276.335938 C 201.601562 277.671875 199.601562 277.671875 199.601562 276.335938 C 199.601562 275.003906 201.601562 275.003906 201.601562 276.335938 "/>
<path style=" stroke:none;fill-rule:nonzero;fill:rgb(100%,0%,0%);fill-opacity:1;" d="M 190.039062 271.621094 C 190.039062 272.953125 188.039062 272.953125 188.039062 271.621094 C 188.039062 270.289062 190.039062 270.289062 190.039062 271.621094 "/>
<path style=" stroke:none;fill-rule:nonzero;fill:rgb(100%,0%,0%);fill-opacity:1;" d="M 506.945312 525.058594 C 506.945312 526.390625 504.945312 526.390625 504.945312 525.058594 C 504.945312 523.726562 506.945312 523.726562 506.945312 525.058594 "/>
<path style=" stroke:none;fill-rule:nonzero;fill:rgb(100%,0%,0%);fill-opacity:1;" d="M 495.292969 530.082031 C 495.292969 531.414062 493.292969 531.414062 493.292969 530.082031 C 493.292969 528.746094 495.292969 528.746094 495.292969 530.082031 "/>
<path style=" stroke:none;fill-rule:nonzero;fill:rgb(100%,0%,0%);fill-opacity:1;" d="M 22.117188 364.125 C 22.117188 365.460938 20.117188 365.460938 20.117188 364.125 C 20.117188 362.792969 22.117188 362.792969 22.117188 364.125 "/>
<path style=" stroke:none;fill-rule:nonzero;fill:rgb(100%,0%,0%);fill-opacity:1;" d="M 21 376.910156 C 21 378.242188 19 378.242188 19 376.910156 C 19 375.578125 21 375.578125 21 376.910156 "/>
<path style=" stroke:none;fill-rule:nonzero;fill:rgb(100%,0%,0%);fill-opacity:1;" d="M 503.886719 423.535156 C 503.886719 424.867188 501.886719 424.867188 501.886719 423.535156 C 501.886719 422.203125 503.886719 422.203125 503.886719 423.535156 "/>
<path style=" stroke:none;fill-rule:nonzero;fill:rgb(100%,0%,0%);fill-opacity:1;" d="M 492.984375 429.9375 C 492.984375 431.273438 490.984375 431.273438 490.984375 429.9375 C 490.984375 428.605469 492.984375 428.605469 492.984375 429.9375 "/>
<path style=" stroke:none;fill-rule:nonzero;fill:rgb(100%,0%,0%);fill-opacity:1;" d="M 46.996094 314.160156 C 46.996094 315.492188 44.996094 315.492188 44.996094 314.160156 C 44.996094 312.824219 46.996094 312.824219 46.996094 314.160156 "/>
<path style=" stroke:none;fill-rule:nonzero;fill:rgb(100%,0%,0%);fill-opacity:1;" d="M 37.234375 306.042969 C 37.234375 307.378906 35.234375 307.378906 35.234375 306.042969 C 35.234375 304.710938 37.234375 304.710938 37.234375 306.042969 "/>
<path style=" stroke:none;fill-rule:nonzero;fill:rgb(100%,0%,0%);fill-opacity:1;" d="M 52.6875 211.6875 C 52.6875 213.019531 50.6875 213.019531 50.6875 211.6875 C 50.6875 210.351562 52.6875 210.351562 52.6875 211.6875 "/>
<path style=" stroke:none;fill-rule:nonzero;fill:rgb(100%,0%,0%);fill-opacity:1;" d="M 54.261719 199.011719 C 54.261719 200.34375 52.261719 200.34375 52.261719 199.011719 C 52.261719 197.675781 54.261719 197.675781 54.261719 199.011719 "/>
<path style=" stroke:none;fill-rule:nonzero;fill:rgb(100%,0%,0%);fill-opacity:1;" d="M 142.757812 358.480469 C 142.757812 359.8125 140.757812 359.8125 140.757812 358.480469 C 140.757812 357.148438 142.757812 357.148438 142.757812 358.480469 "/>
<path style=" stroke:none;fill-rule:nonzero;fill:rgb(100%,0%,0%);fill-opacity:1;" d="M 135.738281 369.054688 C 135.738281 370.386719 133.738281 370.386719 133.738281 369.054688 C 133.738281 367.71875 135.738281 367.71875 135.738281 369.054688 "/>
<path style=" stroke:none;fill-rule:nonzero;fill:rgb(100%,0%,0%);fill-opacity:1;" d="M 276.730469 312.257812 C 276.730469 313.59375 274.730469 313.59375 274.730469 312.257812 C 274.730469 310.925781 276.730469 310.925781 276.730469 312.257812 "/>
<path style=" stroke:none;fill-rule:nonzero;fill:rgb(100%,0%,0%);fill-opacity:1;" d="M 282.414062 323.511719 C 282.414062 324.84375 280.414062 324.84375 280.414062 323.511719 C 280.414062 322.179688 282.414062 322.179688 282.414062 323.511719 "/>
<path style=" stroke:none;fill-rule:nonzero;fill:rgb(100%,0%,0%);fill-opacity:1;" d="M 378.761719 238.09375 C 378.761719 239.429688 376.761719 239.429688 376.761719 238.09375 C 376.761719 236.761719 378.761719 236.761719 378.761719 238.09375 "/>
<path style=" stroke:none;fill-rule:nonzero;fill:rgb(100%,0%,0%);fill-opacity:1;" d="M 380.070312 250.679688 C 380.070312 252.015625 378.070312 252.015625 378.070312 250.679688 C 378.070312 249.347656 380.070312 249.347656 380.070312 250.679688 "/>
<path style=" stroke:none;fill-rule:nonzero;fill:rgb(100%,0%,0%);fill-opacity:1;" d="M 146.96875 120.464844 C 146.96875 121.796875 144.96875 121.796875 144.96875 120.464844 C 144.96875 119.128906 146.96875 119.128906 146.96875 120.464844 "/>
<path style=" stroke:none;fill-rule:nonzero;fill:rgb(100%,0%,0%);fill-opacity:1;" d="M 157.972656 126.539062 C 157.972656 127.871094 155.972656 127.871094 155.972656 126.539062 C 155.972656 125.203125 157.972656 125.203125 157.972656 126.539062 "/>
<path style=" stroke:none;fill-rule:nonzero;fill:rgb(100%,0%,0%);fill-opacity:1;" d="M 160.402344 215.277344 C 160.402344 216.609375 158.402344 216.609375 158.402344 215.277344 C 158.402344 213.945312 160.402344 213.945312 160.402344 215.277344 "/>
<path style=" stroke:none;fill-rule:nonzero;fill:rgb(100%,0%,0%);fill-opacity:1;" d="M 160.308594 228.027344 C 160.308594 229.363281 158.308594 229.363281 158.308594 228.027344 C 158.308594 226.695312 160.308594 226.695312 160.308594 228.027344 "/>
<path style=" stroke:none;fill-rule:nonzero;fill:rgb(100%,0%,0%);fill-opacity:1;" d="M 91.507812 483.46875 C 91.507812 484.800781 89.507812 484.800781 89.507812 483.46875 C 89.507812 482.136719 91.507812 482.136719 91.507812 483.46875 "/>
<path style=" stroke:none;fill-rule:nonzero;fill:rgb(100%,0%,0%);fill-opacity:1;" d="M 92.148438 470.683594 C 92.148438 472.015625 90.148438 472.015625 90.148438 470.683594 C 90.148438 469.351562 92.148438 469.351562 92.148438 470.683594 "/>
<path style=" stroke:none;fill-rule:nonzero;fill:rgb(100%,0%,0%);fill-opacity:1;" d="M 184.972656 574.367188 C 184.972656 575.703125 182.972656 575.703125 182.972656 574.367188 C 182.972656 573.035156 184.972656 573.035156 184.972656 574.367188 "/>
<path style=" stroke:none;fill-rule:nonzero;fill:rgb(100%,0%,0%);fill-opacity:1;" d="M 196.390625 580 C 196.390625 581.332031 194.390625 581.332031 194.390625 580 C 194.390625 578.667969 196.390625 578.667969 196.390625 580 "/>
<path style=" stroke:none;fill-rule:nonzero;fill:rgb(100%,0%,0%);fill-opacity:1;" d="M 267.363281 139.703125 C 267.363281 141.035156 265.363281 141.035156 265.363281 139.703125 C 265.363281 138.371094 267.363281 138.371094 267.363281 139.703125 "/>
<path style=" stroke:none;fill-rule:nonzero;fill:rgb(100%,0%,0%);fill-opacity:1;" d="M 254.511719 128.90625 C 254.511719 130.242188 252.511719 130.242188 252.511719 128.90625 C 252.511719 127.574219 254.511719 127.574219 254.511719 128.90625 "/>
<path style=" stroke:none;fill-rule:nonzero;fill:rgb(100%,0%,0%);fill-opacity:1;" d="M 253.125 148.121094 C 253.125 149.453125 251.125 149.453125 251.125 148.121094 C 251.125 146.789062 253.125 146.789062 253.125 148.121094 "/>
<path style=" stroke:none;fill-rule:nonzero;fill:rgb(100%,0%,0%);fill-opacity:1;" d="M 271.585938 155.894531 C 271.585938 157.230469 269.585938 157.230469 269.585938 155.894531 C 269.585938 154.5625 271.585938 154.5625 271.585938 155.894531 "/>
<path style=" stroke:none;fill-rule:nonzero;fill:rgb(100%,0%,0%);fill-opacity:1;" d="M 283.914062 141 C 283.914062 142.332031 281.914062 142.332031 281.914062 141 C 281.914062 139.664062 283.914062 139.664062 283.914062 141 "/>
<path style=" stroke:none;fill-rule:nonzero;fill:rgb(100%,0%,0%);fill-opacity:1;" d="M 273.816406 124.476562 C 273.816406 125.808594 271.816406 125.808594 271.816406 124.476562 C 271.816406 123.144531 273.816406 123.144531 273.816406 124.476562 "/>
<path style=" stroke:none;fill-rule:nonzero;fill:rgb(100%,0%,0%);fill-opacity:1;" d="M 358.480469 27.414062 C 358.480469 28.746094 356.480469 28.746094 356.480469 27.414062 C 356.480469 26.078125 358.480469 26.078125 358.480469 27.414062 "/>
<path style=" stroke:none;fill-rule:nonzero;fill:rgb(100%,0%,0%);fill-opacity:1;" d="M 355.078125 39.761719 C 355.078125 41.09375 353.078125 41.09375 353.078125 39.761719 C 353.078125 38.429688 355.078125 38.429688 355.078125 39.761719 "/>
<path style=" stroke:none;fill-rule:nonzero;fill:rgb(100%,0%,0%);fill-opacity:1;" d="M 293.914062 377.371094 C 293.914062 378.703125 291.914062 378.703125 291.914062 377.371094 C 291.914062 376.035156 293.914062 376.035156 293.914062 377.371094 "/>
<path style=" stroke:none;fill-rule:nonzero;fill:rgb(100%,0%,0%);fill-opacity:1;" d="M 303.445312 385.398438 C 303.445312 386.730469 301.445312 386.730469 301.445312 385.398438 C 301.445312 384.066406 303.445312 384.066406 303.445312 385.398438 "/>
<path style=" stroke:none;fill-rule:nonzero;fill:rgb(100%,0%,0%);fill-opacity:1;" d="M 479.109375 385.796875 C 479.109375 387.128906 477.109375 387.128906 477.109375 385.796875 C 477.109375 384.464844 479.109375 384.464844 479.109375 385.796875 "/>
<path style=" stroke:none;fill-rule:nonzero;fill:rgb(100%,0%,0%);fill-opacity:1;" d="M 469.625 394.230469 C 469.625 395.5625 467.625 395.5625 467.625 394.230469 C 467.625 392.898438 469.625 392.898438 469.625 394.230469 "/>
<path style=" stroke:none;fill-rule:nonzero;fill:rgb(100%,0%,0%);fill-opacity:1;" d="M 208.34375 430.679688 C 208.34375 432.011719 206.34375 432.011719 206.34375 430.679688 C 206.34375 429.347656 208.34375 429.347656 208.34375 430.679688 "/>
<path style=" stroke:none;fill-rule:nonzero;fill:rgb(100%,0%,0%);fill-opacity:1;" d="M 210.453125 443.171875 C 210.453125 444.503906 208.453125 444.503906 208.453125 443.171875 C 208.453125 441.839844 210.453125 441.839844 210.453125 443.171875 "/>
<path style=" stroke:none;fill-rule:nonzero;fill:rgb(100%,0%,0%);fill-opacity:1;" d="M 431.285156 202.273438 C 431.285156 203.605469 429.285156 203.605469 429.285156 202.273438 C 429.285156 200.941406 431.285156 200.941406 431.285156 202.273438 "/>
<path style=" stroke:none;fill-rule:nonzero;fill:rgb(100%,0%,0%);fill-opacity:1;" d="M 443.835938 204.679688 C 443.835938 206.011719 441.835938 206.011719 441.835938 204.679688 C 441.835938 203.34375 443.835938 203.34375 443.835938 204.679688 "/>
<path style=" stroke:none;fill-rule:nonzero;fill:rgb(100%,0%,0%);fill-opacity:1;" d="M 570.832031 348.785156 C 570.832031 350.121094 568.832031 350.121094 568.832031 348.785156 C 568.832031 347.453125 570.832031 347.453125 570.832031 348.785156 "/>
<path style=" stroke:none;fill-rule:nonzero;fill:rgb(100%,0%,0%);fill-opacity:1;" d="M 573.484375 361.316406 C 573.484375 362.652344 571.484375 362.652344 571.484375 361.316406 C 571.484375 359.984375 573.484375 359.984375 573.484375 361.316406 "/>
<path style=" stroke:none;fill-rule:nonzero;fill:rgb(100%,0%,0%);fill-opacity:1;" d="M 241.820312 258.675781 C 241.820312 260.007812 239.820312 260.007812 239.820312 258.675781 C 239.820312 257.339844 241.820312 257.339844 241.820312 258.675781 "/>
<path style=" stroke:none;fill-rule:nonzero;fill:rgb(100%,0%,0%);fill-opacity:1;" d="M 235.039062 248.136719 C 235.039062 249.472656 233.039062 249.472656 233.039062 248.136719 C 233.039062 246.804688 235.039062 246.804688 235.039062 248.136719 "/>
<path style=" stroke:none;fill-rule:nonzero;fill:rgb(100%,0%,0%);fill-opacity:1;" d="M 153.980469 465.59375 C 153.980469 466.925781 151.980469 466.925781 151.980469 465.59375 C 151.980469 464.261719 153.980469 464.261719 153.980469 465.59375 "/>
<path style=" stroke:none;fill-rule:nonzero;fill:rgb(100%,0%,0%);fill-opacity:1;" d="M 162.191406 455.980469 C 162.191406 457.316406 160.191406 457.316406 160.191406 455.980469 C 160.191406 454.648438 162.191406 454.648438 162.191406 455.980469 "/>
<path style=" stroke:none;fill-rule:nonzero;fill:rgb(100%,0%,0%);fill-opacity:1;" d="M 548.425781 221.214844 C 548.425781 222.546875 546.425781 222.546875 546.425781 221.214844 C 546.425781 219.878906 548.425781 219.878906 548.425781 221.214844 "/>
<path style=" stroke:none;fill-rule:nonzero;fill:rgb(100%,0%,0%);fill-opacity:1;" d="M 556.96875 230.566406 C 556.96875 231.902344 554.96875 231.902344 554.96875 230.566406 C 554.96875 229.234375 556.96875 229.234375 556.96875 230.566406 "/>
<path style=" stroke:none;fill-rule:nonzero;fill:rgb(100%,0%,0%);fill-opacity:1;" d="M 347.011719 401.148438 C 347.011719 402.480469 345.011719 402.480469 345.011719 401.148438 C 345.011719 399.816406 347.011719 399.816406 347.011719 401.148438 "/>
<path style=" stroke:none;fill-rule:nonzero;fill:rgb(100%,0%,0%);fill-opacity:1;" d="M 354.714844 391.210938 C 354.714844 392.542969 352.714844 392.542969 352.714844 391.210938 C 352.714844 389.875 354.714844 389.875 354.714844 391.210938 "/>
<path style=" stroke:none;fill-rule:nonzero;fill:rgb(100%,0%,0%);fill-opacity:1;" d="M 435.703125 363.339844 C 435.703125 364.675781 433.703125 364.675781 433.703125 363.339844 C 433.703125 362.007812 435.703125 362.007812 435.703125 363.339844 "/>
<path style=" stroke:none;fill-rule:nonzero;fill:rgb(100%,0%,0%);fill-opacity:1;" d="M 432.15625 375.535156 C 432.15625 376.867188 430.15625 376.867188 430.15625 375.535156 C 430.15625 374.199219 432.15625 374.199219 432.15625 375.535156 "/>
<path style=" stroke:none;fill-rule:nonzero;fill:rgb(100%,0%,0%);fill-opacity:1;" d="M 335.382812 347.203125 C 335.382812 348.535156 333.382812 348.535156 333.382812 347.203125 C 333.382812 345.867188 335.382812 345.867188 335.382812 347.203125 "/>
<path style=" stroke:none;fill-rule:nonzero;fill:rgb(100%,0%,0%);fill-opacity:1;" d="M 322.660156 343.460938 C 322.660156 344.792969 320.660156 344.792969 320.660156 343.460938 C 320.660156 342.125 322.660156 342.125 322.660156 343.460938 "/>
<path style=" stroke:none;fill-rule:nonzero;fill:rgb(100%,0%,0%);fill-opacity:1;" d="M 348.164062 350.800781 C 348.164062 352.132812 346.164062 352.132812 346.164062 350.800781 C 346.164062 349.464844 348.164062 349.464844 348.164062 350.800781 "/>
<path style=" stroke:none;fill-rule:nonzero;fill:rgb(100%,0%,0%);fill-opacity:1;" d="M 442.777344 152.3125 C 442.777344 153.648438 440.777344 153.648438 440.777344 152.3125 C 440.777344 150.980469 442.777344 150.980469 442.777344 152.3125 "/>
<path style=" stroke:none;fill-rule:nonzero;fill:rgb(100%,0%,0%);fill-opacity:1;" d="M 436.269531 165.210938 C 436.269531 166.542969 434.269531 166.542969 434.269531 165.210938 C 434.269531 163.875 436.269531 163.875 436.269531 165.210938 "/>
<path style=" stroke:none;fill-rule:nonzero;fill:rgb(100%,0%,0%);fill-opacity:1;" d="M 450.964844 132.800781 C 450.964844 134.132812 448.964844 134.132812 448.964844 132.800781 C 448.964844 131.464844 450.964844 131.464844 450.964844 132.800781 "/>
<path style=" stroke:none;fill-rule:nonzero;fill:rgb(100%,0%,0%);fill-opacity:1;" d="M 349.925781 448.761719 C 349.925781 450.09375 347.925781 450.09375 347.925781 448.761719 C 347.925781 447.425781 349.925781 447.425781 349.925781 448.761719 "/>
<path style=" stroke:none;fill-rule:nonzero;fill:rgb(100%,0%,0%);fill-opacity:1;" d="M 361.222656 443.269531 C 361.222656 444.601562 359.222656 444.601562 359.222656 443.269531 C 359.222656 441.933594 361.222656 441.933594 361.222656 443.269531 "/>
<path style=" stroke:none;fill-rule:nonzero;fill:rgb(100%,0%,0%);fill-opacity:1;" d="M 69.574219 387.425781 C 69.574219 388.761719 67.574219 388.761719 67.574219 387.425781 C 67.574219 386.09375 69.574219 386.09375 69.574219 387.425781 "/>
<path style=" stroke:none;fill-rule:nonzero;fill:rgb(100%,0%,0%);fill-opacity:1;" d="M 512.976562 185.339844 C 512.976562 186.671875 510.976562 186.671875 510.976562 185.339844 C 510.976562 184.003906 512.976562 184.003906 512.976562 185.339844 "/>
<path style=" stroke:none;fill-rule:nonzero;fill:rgb(100%,0%,0%);fill-opacity:1;" d="M 524.765625 180.714844 C 524.765625 182.046875 522.765625 182.046875 522.765625 180.714844 C 522.765625 179.382812 524.765625 179.382812 524.765625 180.714844 "/>
<path style=" stroke:none;fill-rule:nonzero;fill:rgb(100%,0%,0%);fill-opacity:1;" d="M 349.601562 187.085938 C 349.601562 188.417969 347.601562 188.417969 347.601562 187.085938 C 347.601562 185.75 349.601562 185.75 349.601562 187.085938 "/>
<path style=" stroke:none;fill-rule:nonzero;fill:rgb(100%,0%,0%);fill-opacity:1;" d="M 355.253906 205.234375 C 355.253906 206.566406 353.253906 206.566406 353.253906 205.234375 C 353.253906 203.898438 355.253906 203.898438 355.253906 205.234375 "/>
<path style=" stroke:none;fill-rule:nonzero;fill:rgb(100%,0%,0%);fill-opacity:1;" d="M 288.898438 559.453125 C 288.898438 560.785156 286.898438 560.785156 286.898438 559.453125 C 286.898438 558.117188 288.898438 558.117188 288.898438 559.453125 "/>
<path style=" stroke:none;fill-rule:nonzero;fill:rgb(100%,0%,0%);fill-opacity:1;" d="M 275.8125 544.652344 C 275.8125 545.984375 273.8125 545.984375 273.8125 544.652344 C 273.8125 543.316406 275.8125 543.316406 275.8125 544.652344 "/>
<path style=" stroke:none;fill-rule:nonzero;fill:rgb(100%,0%,0%);fill-opacity:1;" d="M 429.351562 66.6875 C 429.351562 68.019531 427.351562 68.019531 427.351562 66.6875 C 427.351562 65.355469 429.351562 65.355469 429.351562 66.6875 "/>
<path style=" stroke:none;fill-rule:nonzero;fill:rgb(100%,0%,0%);fill-opacity:1;" d="M 425.671875 54.371094 C 425.671875 55.707031 423.671875 55.707031 423.671875 54.371094 C 423.671875 53.039062 425.671875 53.039062 425.671875 54.371094 "/>
<path style=" stroke:none;fill-rule:nonzero;fill:rgb(100%,0%,0%);fill-opacity:1;" d="M 397.703125 342.894531 C 397.703125 344.226562 395.703125 344.226562 395.703125 342.894531 C 395.703125 341.5625 397.703125 341.5625 397.703125 342.894531 "/>
<path style=" stroke:none;fill-rule:nonzero;fill:rgb(100%,0%,0%);fill-opacity:1;" d="M 406.734375 334.0625 C 406.734375 335.398438 404.734375 335.398438 404.734375 334.0625 C 404.734375 332.730469 406.734375 332.730469 406.734375 334.0625 "/>
<path style=" stroke:none;fill-rule:nonzero;fill:rgb(100%,0%,0%);fill-opacity:1;" d="M 431.554688 431.90625 C 431.554688 433.242188 429.554688 433.242188 429.554688 431.90625 C 429.554688 430.574219 431.554688 430.574219 431.554688 431.90625 "/>
<path style=" stroke:none;fill-rule:nonzero;fill:rgb(100%,0%,0%);fill-opacity:1;" d="M 430.367188 444.523438 C 430.367188 445.855469 428.367188 445.855469 428.367188 444.523438 C 428.367188 443.1875 430.367188 443.1875 430.367188 444.523438 "/>
<path style=" stroke:none;fill-rule:nonzero;fill:rgb(100%,0%,0%);fill-opacity:1;" d="M 207.652344 92.691406 C 207.652344 94.027344 205.652344 94.027344 205.652344 92.691406 C 205.652344 91.359375 207.652344 91.359375 207.652344 92.691406 "/>
<path style=" stroke:none;fill-rule:nonzero;fill:rgb(100%,0%,0%);fill-opacity:1;" d="M 196.625 98.738281 C 196.625 100.070312 194.625 100.070312 194.625 98.738281 C 194.625 97.40625 196.625 97.40625 196.625 98.738281 "/>
<path style=" stroke:none;fill-rule:nonzero;fill:rgb(100%,0%,0%);fill-opacity:1;" d="M 477.039062 73.265625 C 477.039062 74.597656 475.039062 74.597656 475.039062 73.265625 C 475.039062 71.929688 477.039062 71.929688 477.039062 73.265625 "/>
<path style=" stroke:none;fill-rule:nonzero;fill:rgb(100%,0%,0%);fill-opacity:1;" d="M 441.605469 561.796875 C 441.605469 563.132812 439.605469 563.132812 439.605469 561.796875 C 439.605469 560.464844 441.605469 560.464844 441.605469 561.796875 "/>
<path style=" stroke:none;fill-rule:nonzero;fill:rgb(100%,0%,0%);fill-opacity:1;" d="M 140.132812 526.203125 C 140.132812 527.539062 138.132812 527.539062 138.132812 526.203125 C 138.132812 524.871094 140.132812 524.871094 140.132812 526.203125 "/>
<path style=" stroke:none;fill-rule:nonzero;fill:rgb(100%,0%,0%);fill-opacity:1;" d="M 132.207031 516.285156 C 132.207031 517.617188 130.207031 517.617188 130.207031 516.285156 C 130.207031 514.953125 132.207031 514.953125 132.207031 516.285156 "/>
<path style=" stroke:none;fill-rule:nonzero;fill:rgb(100%,0%,0%);fill-opacity:1;" d="M 553.941406 431.289062 C 553.941406 432.621094 551.941406 432.621094 551.941406 431.289062 C 551.941406 429.957031 553.941406 429.957031 553.941406 431.289062 "/>
<path style=" stroke:none;fill-rule:nonzero;fill:rgb(100%,0%,0%);fill-opacity:1;" d="M 555.339844 418.523438 C 555.339844 419.859375 553.339844 419.859375 553.339844 418.523438 C 553.339844 417.191406 555.339844 417.191406 555.339844 418.523438 "/>
<path style=" stroke:none;fill-rule:nonzero;fill:rgb(100%,0%,0%);fill-opacity:1;" d="M 125.882812 255.136719 C 125.882812 256.46875 123.882812 256.46875 123.882812 255.136719 C 123.882812 253.804688 125.882812 253.804688 125.882812 255.136719 "/>
<path style=" stroke:none;fill-rule:nonzero;fill:rgb(100%,0%,0%);fill-opacity:1;" d="M 136.59375 261.914062 C 136.59375 263.246094 134.59375 263.246094 134.59375 261.914062 C 134.59375 260.578125 136.59375 260.578125 136.59375 261.914062 "/>
<path style=" stroke:none;fill-rule:nonzero;fill:rgb(100%,0%,0%);fill-opacity:1;" d="M 359.394531 304.113281 C 359.394531 305.445312 357.394531 305.445312 357.394531 304.113281 C 357.394531 302.777344 359.394531 302.777344 359.394531 304.113281 "/>
<path style=" stroke:none;fill-rule:nonzero;fill:rgb(100%,0%,0%);fill-opacity:1;" d="M 370.300781 309.984375 C 370.300781 311.320312 368.300781 311.320312 368.300781 309.984375 C 368.300781 308.652344 370.300781 308.652344 370.300781 309.984375 "/>
<path style=" stroke:none;fill-rule:nonzero;fill:rgb(100%,0%,0%);fill-opacity:1;" d="M 581 294.277344 C 581 295.609375 579 295.609375 579 294.277344 C 579 292.945312 581 292.945312 581 294.277344 "/>
<path style=" stroke:none;fill-rule:nonzero;fill:rgb(100%,0%,0%);fill-opacity:1;" d="M 576.296875 282.414062 C 576.296875 283.75 574.296875 283.75 574.296875 282.414062 C 574.296875 281.082031 576.296875 281.082031 576.296875 282.414062 "/>
<path style=" stroke:none;fill-rule:nonzero;fill:rgb(100%,0%,0%);fill-opacity:1;" d="M 98.390625 148.832031 C 98.390625 150.164062 96.390625 150.164062 96.390625 148.832031 C 96.390625 147.496094 98.390625 147.496094 98.390625 148.832031 "/>
<path style=" stroke:none;fill-rule:nonzero;fill:rgb(100%,0%,0%);fill-opacity:1;" d="M 87.515625 155.296875 C 87.515625 156.632812 85.515625 156.632812 85.515625 155.296875 C 85.515625 153.964844 87.515625 153.964844 87.515625 155.296875 "/>
<path style=" stroke:none;fill-rule:nonzero;fill:rgb(100%,0%,0%);fill-opacity:1;" d="M 275.074219 558.84375 C 275.074219 560.175781 273.074219 560.175781 273.074219 558.84375 C 273.074219 557.507812 275.074219 557.507812 275.074219 558.84375 "/>
<path style=" stroke:none;fill-rule:nonzero;fill:rgb(100%,0%,0%);fill-opacity:1;" d="M 289.644531 545.289062 C 289.644531 546.621094 287.644531 546.621094 287.644531 545.289062 C 287.644531 543.957031 289.644531 543.957031 289.644531 545.289062 "/>
<path style=" stroke:none;fill-rule:nonzero;fill:rgb(100%,0%,0%);fill-opacity:1;" d="M 412.832031 289.617188 C 412.832031 290.953125 410.832031 290.953125 410.832031 289.617188 C 410.832031 288.285156 412.832031 288.285156 412.832031 289.617188 "/>
<path style=" stroke:none;fill-rule:nonzero;fill:rgb(100%,0%,0%);fill-opacity:1;" d="M 401.148438 285.179688 C 401.148438 286.511719 399.148438 286.511719 399.148438 285.179688 C 399.148438 283.847656 401.148438 283.847656 401.148438 285.179688 "/>
<path style=" stroke:none;fill-rule:nonzero;fill:rgb(100%,0%,0%);fill-opacity:1;" d="M 514.199219 270.269531 C 514.199219 271.601562 512.199219 271.601562 512.199219 270.269531 C 512.199219 268.9375 514.199219 268.9375 514.199219 270.269531 "/>
<path style=" stroke:none;fill-rule:nonzero;fill:rgb(100%,0%,0%);fill-opacity:1;" d="M 518.152344 283.402344 C 518.152344 284.734375 516.152344 284.734375 516.152344 283.402344 C 516.152344 282.066406 518.152344 282.066406 518.152344 283.402344 "/>
<path style=" stroke:none;fill-rule:nonzero;fill:rgb(100%,0%,0%);fill-opacity:1;" d="M 510.121094 257.128906 C 510.121094 258.460938 508.121094 258.460938 508.121094 257.128906 C 508.121094 255.792969 510.121094 255.792969 510.121094 257.128906 "/>
<path style=" stroke:none;fill-rule:nonzero;fill:rgb(100%,0%,0%);fill-opacity:1;" d="M 49.851562 432.519531 C 49.851562 433.855469 47.851562 433.855469 47.851562 432.519531 C 47.851562 431.1875 49.851562 431.1875 49.851562 432.519531 "/>
<path style=" stroke:none;fill-rule:nonzero;fill:rgb(100%,0%,0%);fill-opacity:1;" d="M 45.851562 444.675781 C 45.851562 446.007812 43.851562 446.007812 43.851562 444.675781 C 43.851562 443.34375 45.851562 443.34375 45.851562 444.675781 "/>
<path style=" stroke:none;fill-rule:nonzero;fill:rgb(100%,0%,0%);fill-opacity:1;" d="M 439.664062 504.625 C 439.664062 505.957031 437.664062 505.957031 437.664062 504.625 C 437.664062 503.292969 439.664062 503.292969 439.664062 504.625 "/>
<path style=" stroke:none;fill-rule:nonzero;fill:rgb(100%,0%,0%);fill-opacity:1;" d="M 442.65625 492.191406 C 442.65625 493.527344 440.65625 493.527344 440.65625 492.191406 C 440.65625 490.859375 442.65625 490.859375 442.65625 492.191406 "/>
<path style=" stroke:none;fill-rule:nonzero;fill:rgb(100%,0%,0%);fill-opacity:1;" d="M 309.289062 432.488281 C 309.289062 433.820312 307.289062 433.820312 307.289062 432.488281 C 307.289062 431.152344 309.289062 431.152344 309.289062 432.488281 "/>
<path style=" stroke:none;fill-rule:nonzero;fill:rgb(100%,0%,0%);fill-opacity:1;" d="M 298.738281 425.777344 C 298.738281 427.109375 296.738281 427.109375 296.738281 425.777344 C 296.738281 424.441406 298.738281 424.441406 298.738281 425.777344 "/>
<path style=" stroke:none;fill-rule:nonzero;fill:rgb(100%,0%,0%);fill-opacity:1;" d="M 522.152344 126.113281 C 522.152344 127.445312 520.152344 127.445312 520.152344 126.113281 C 520.152344 124.78125 522.152344 124.78125 522.152344 126.113281 "/>
<path style=" stroke:none;fill-rule:nonzero;fill:rgb(100%,0%,0%);fill-opacity:1;" d="M 511.273438 119.679688 C 511.273438 121.011719 509.273438 121.011719 509.273438 119.679688 C 509.273438 118.347656 511.273438 118.347656 511.273438 119.679688 "/>
</g>
</svg>
