<?xml version="1.0" encoding="UTF-8"?>
<svg xmlns="http://www.w3.org/2000/svg" xmlns:xlink="http://www.w3.org/1999/xlink" width="600pt" height="600pt" viewBox="0 0 600 600" version="1.1">
<g id="surface6">
<rect x="0" y="0" width="600" height="600" style="fill:rgb(100%,100%,100%);fill-opacity:1;stroke:none;"/>
<path style="fill:none;stroke-width:0.2;stroke-linecap:butt;stroke-linejoin:miter;stroke:rgb(26.666667%,26.666667%,26.666667%);stroke-opacity:1;stroke-miterlimit:10;" d="M 206.359375 236.125 L 223.011719 240.730469 "/>
<path style="fill:none;stroke-width:0.2;stroke-linecap:butt;stroke-linejoin:miter;stroke:rgb(26.666667%,26.666667%,26.666667%);stroke-opacity:1;stroke-miterlimit:10;" d="M 302.167969 506.636719 L 312.839844 518.789062 "/>
<path style="fill:none;stroke-width:0.2;stroke-linecap:butt;stroke-linejoin:miter;stroke:rgb(26.666667%,26.666667%,26.666667%);stroke-opacity:1;stroke-miterlimit:10;" d="M 302.167969 506.636719 L 300.972656 526.253906 "/>
<path style="fill:none;stroke-width:0.2;stroke-linecap:butt;stroke-linejoin:miter;stroke:rgb(26.666667%,26.666667%,26.666667%);stroke-opacity:1;stroke-miterlimit:10;" d="M 302.167969 506.636719 L 295.769531 490.820312 "/>
<path style="fill:none;stroke-width:0.2;stroke-linecap:butt;stroke-linejoin:miter;stroke:rgb(26.666667%,26.666667%,26.666667%);stroke-opacity:1;stroke-miterlimit:10;" d="M 302.167969 506.636719 L 310.101562 486.742188 "/>
<path style="fill:none;stroke-width:0.2;stroke-linecap:butt;stroke-linejoin:miter;stroke:rgb(26.666667%,26.666667%,26.666667%);stroke-opacity:1;stroke-miterlimit:10;" d="M 302.167969 506.636719 L 316.925781 499.042969 "/>
<path style="fill:none;stroke-width:0.2;stroke-linecap:butt;stroke-linejoin:miter;stroke:rgb(26.666667%,26.666667%,26.666667%);stroke-opacity:1;stroke-miterlimit:10;" d="M 302.167969 506.636719 L 281.417969 496.878906 "/>
<path style="fill:none;stroke-width:0.2;stroke-linecap:butt;stroke-linejoin:miter;stroke:rgb(26.666667%,26.666667%,26.666667%);stroke-opacity:1;stroke-miterlimit:10;" d="M 302.167969 506.636719 L 285.3125 522.027344 "/>
<path style="fill:none;stroke-width:0.2;stroke-linecap:butt;stroke-linejoin:miter;stroke:rgb(26.666667%,26.666667%,26.666667%);stroke-opacity:1;stroke-miterlimit:10;" d="M 302.167969 506.636719 L 288.421875 508.890625 "/>
<path style="fill:none;stroke-width:0.2;stroke-linecap:butt;stroke-linejoin:miter;stroke:rgb(26.666667%,26.666667%,26.666667%);stroke-opacity:1;stroke-miterlimit:10;" d="M 302.167969 506.636719 L 325.167969 510.917969 "/>
<path style="fill:none;stroke-width:0.2;stroke-linecap:butt;stroke-linejoin:miter;stroke:rgb(26.666667%,26.666667%,26.666667%);stroke-opacity:1;stroke-miterlimit:10;" d="M 577.242188 266.667969 L 579.777344 277.804688 "/>
<path style="fill:none;stroke-width:0.2;stroke-linecap:butt;stroke-linejoin:miter;stroke:rgb(26.666667%,26.666667%,26.666667%);stroke-opacity:1;stroke-miterlimit:10;" d="M 98.027344 233.464844 L 86.511719 230.195312 "/>
<path style="fill:none;stroke-width:0.2;stroke-linecap:butt;stroke-linejoin:miter;stroke:rgb(26.666667%,26.666667%,26.666667%);stroke-opacity:1;stroke-miterlimit:10;" d="M 152.222656 512.726562 L 140.789062 508.914062 "/>
<path style="fill:none;stroke-width:0.2;stroke-linecap:butt;stroke-linejoin:miter;stroke:rgb(26.666667%,26.666667%,26.666667%);stroke-opacity:1;stroke-miterlimit:10;" d="M 168.105469 456.824219 L 172.398438 441.386719 "/>
<path style="fill:none;stroke-width:0.2;stroke-linecap:butt;stroke-linejoin:miter;stroke:rgb(26.666667%,26.666667%,26.666667%);stroke-opacity:1;stroke-miterlimit:10;" d="M 475.71875 175.242188 L 469.839844 165.371094 "/>
<path style="fill:none;stroke-width:0.2;stroke-linecap:butt;stroke-linejoin:miter;stroke:rgb(26.666667%,26.666667%,26.666667%);stroke-opacity:1;stroke-miterlimit:10;" d="M 265.203125 178.578125 L 277.5625 169.996094 "/>
<path style="fill:none;stroke-width:0.2;stroke-linecap:butt;stroke-linejoin:miter;stroke:rgb(26.666667%,26.666667%,26.666667%);stroke-opacity:1;stroke-miterlimit:10;" d="M 463.4375 314.5625 L 451.742188 312.082031 "/>
<path style="fill:none;stroke-width:0.2;stroke-linecap:butt;stroke-linejoin:miter;stroke:rgb(26.666667%,26.666667%,26.666667%);stroke-opacity:1;stroke-miterlimit:10;" d="M 243.484375 203.382812 L 231.496094 201.777344 "/>
<path style="fill:none;stroke-width:0.2;stroke-linecap:butt;stroke-linejoin:miter;stroke:rgb(26.666667%,26.666667%,26.666667%);stroke-opacity:1;stroke-miterlimit:10;" d="M 239.28125 164.339844 L 222.769531 170.734375 "/>
<path style="fill:none;stroke-width:0.2;stroke-linecap:butt;stroke-linejoin:miter;stroke:rgb(26.666667%,26.666667%,26.666667%);stroke-opacity:1;stroke-miterlimit:10;" d="M 239.28125 164.339844 L 224.601562 154.28125 "/>
<path style="fill:none;stroke-width:0.2;stroke-linecap:butt;stroke-linejoin:miter;stroke:rgb(26.666667%,26.666667%,26.666667%);stroke-opacity:1;stroke-miterlimit:10;" d="M 239.28125 164.339844 L 277.390625 169.296875 "/>
<path style="fill:none;stroke-width:0.2;stroke-linecap:butt;stroke-linejoin:miter;stroke:rgb(26.666667%,26.666667%,26.666667%);stroke-opacity:1;stroke-miterlimit:10;" d="M 478.875 358.917969 L 467.667969 362.972656 "/>
<path style="fill:none;stroke-width:0.2;stroke-linecap:butt;stroke-linejoin:miter;stroke:rgb(26.666667%,26.666667%,26.666667%);stroke-opacity:1;stroke-miterlimit:10;" d="M 332.316406 175.722656 L 320.152344 180.972656 "/>
<path style="fill:none;stroke-width:0.2;stroke-linecap:butt;stroke-linejoin:miter;stroke:rgb(26.666667%,26.666667%,26.666667%);stroke-opacity:1;stroke-miterlimit:10;" d="M 458.65625 407.25 L 447.671875 412.019531 "/>
<path style="fill:none;stroke-width:0.2;stroke-linecap:butt;stroke-linejoin:miter;stroke:rgb(26.666667%,26.666667%,26.666667%);stroke-opacity:1;stroke-miterlimit:10;" d="M 358.808594 245.144531 L 374.035156 243.519531 "/>
<path style="fill:none;stroke-width:0.2;stroke-linecap:butt;stroke-linejoin:miter;stroke:rgb(26.666667%,26.666667%,26.666667%);stroke-opacity:1;stroke-miterlimit:10;" d="M 262.671875 161.527344 L 277.488281 168.976562 "/>
<path style="fill:none;stroke-width:0.2;stroke-linecap:butt;stroke-linejoin:miter;stroke:rgb(26.666667%,26.666667%,26.666667%);stroke-opacity:1;stroke-miterlimit:10;" d="M 187.402344 433.378906 L 173.566406 439.992188 "/>
<path style="fill:none;stroke-width:0.2;stroke-linecap:butt;stroke-linejoin:miter;stroke:rgb(26.666667%,26.666667%,26.666667%);stroke-opacity:1;stroke-miterlimit:10;" d="M 433.5625 111.507812 L 422.902344 105.925781 "/>
<path style="fill:none;stroke-width:0.2;stroke-linecap:butt;stroke-linejoin:miter;stroke:rgb(26.666667%,26.666667%,26.666667%);stroke-opacity:1;stroke-miterlimit:10;" d="M 332.035156 305.148438 L 345.144531 290.6875 "/>
<path style="fill:none;stroke-width:0.2;stroke-linecap:butt;stroke-linejoin:miter;stroke:rgb(26.666667%,26.666667%,26.666667%);stroke-opacity:1;stroke-miterlimit:10;" d="M 331.621094 580 L 343.050781 575.746094 "/>
<path style="fill:none;stroke-width:0.2;stroke-linecap:butt;stroke-linejoin:miter;stroke:rgb(26.666667%,26.666667%,26.666667%);stroke-opacity:1;stroke-miterlimit:10;" d="M 433.238281 59.148438 L 444.996094 62.332031 "/>
<path style="fill:none;stroke-width:0.2;stroke-linecap:butt;stroke-linejoin:miter;stroke:rgb(26.666667%,26.666667%,26.666667%);stroke-opacity:1;stroke-miterlimit:10;" d="M 117.96875 375.410156 L 110.628906 366.65625 "/>
<path style="fill:none;stroke-width:0.2;stroke-linecap:butt;stroke-linejoin:miter;stroke:rgb(26.666667%,26.666667%,26.666667%);stroke-opacity:1;stroke-miterlimit:10;" d="M 94.082031 429.425781 L 82.625 423.675781 "/>
<path style="fill:none;stroke-width:0.2;stroke-linecap:butt;stroke-linejoin:miter;stroke:rgb(26.666667%,26.666667%,26.666667%);stroke-opacity:1;stroke-miterlimit:10;" d="M 238.035156 468.921875 L 245.941406 460.160156 "/>
<path style="fill:none;stroke-width:0.2;stroke-linecap:butt;stroke-linejoin:miter;stroke:rgb(26.666667%,26.666667%,26.666667%);stroke-opacity:1;stroke-miterlimit:10;" d="M 105.074219 276.113281 L 92.9375 276.503906 "/>
<path style="fill:none;stroke-width:0.2;stroke-linecap:butt;stroke-linejoin:miter;stroke:rgb(26.666667%,26.666667%,26.666667%);stroke-opacity:1;stroke-miterlimit:10;" d="M 73.246094 482.386719 L 85.351562 481.238281 "/>
<path style="fill:none;stroke-width:0.2;stroke-linecap:butt;stroke-linejoin:miter;stroke:rgb(26.666667%,26.666667%,26.666667%);stroke-opacity:1;stroke-miterlimit:10;" d="M 514.066406 418.042969 L 519.96875 428.03125 "/>
<path style="fill:none;stroke-width:0.2;stroke-linecap:butt;stroke-linejoin:miter;stroke:rgb(26.666667%,26.666667%,26.666667%);stroke-opacity:1;stroke-miterlimit:10;" d="M 179.492188 61.316406 L 168.074219 57.566406 "/>
<path style="fill:none;stroke-width:0.2;stroke-linecap:butt;stroke-linejoin:miter;stroke:rgb(26.666667%,26.666667%,26.666667%);stroke-opacity:1;stroke-miterlimit:10;" d="M 20.394531 197.652344 L 20.808594 209.050781 "/>
<path style="fill:none;stroke-width:0.2;stroke-linecap:butt;stroke-linejoin:miter;stroke:rgb(26.666667%,26.666667%,26.666667%);stroke-opacity:1;stroke-miterlimit:10;" d="M 209.632812 543.75 L 197.628906 545.328125 "/>
<path style="fill:none;stroke-width:0.2;stroke-linecap:butt;stroke-linejoin:miter;stroke:rgb(26.666667%,26.666667%,26.666667%);stroke-opacity:1;stroke-miterlimit:10;" d="M 106.945312 131.640625 L 118.933594 129.277344 "/>
<path style="fill:none;stroke-width:0.2;stroke-linecap:butt;stroke-linejoin:miter;stroke:rgb(26.666667%,26.666667%,26.666667%);stroke-opacity:1;stroke-miterlimit:10;" d="M 538.5 203.429688 L 546.433594 193.785156 "/>
<path style="fill:none;stroke-width:0.2;stroke-linecap:butt;stroke-linejoin:miter;stroke:rgb(26.666667%,26.666667%,26.666667%);stroke-opacity:1;stroke-miterlimit:10;" d="M 538.5 203.429688 L 530.867188 213.238281 "/>
<path style="fill:none;stroke-width:0.2;stroke-linecap:butt;stroke-linejoin:miter;stroke:rgb(26.666667%,26.666667%,26.666667%);stroke-opacity:1;stroke-miterlimit:10;" d="M 322.378906 207.921875 L 326.101562 221.296875 "/>
<path style="fill:none;stroke-width:0.2;stroke-linecap:butt;stroke-linejoin:miter;stroke:rgb(26.666667%,26.666667%,26.666667%);stroke-opacity:1;stroke-miterlimit:10;" d="M 322.378906 207.921875 L 279.136719 170.085938 "/>
<path style="fill:none;stroke-width:0.2;stroke-linecap:butt;stroke-linejoin:miter;stroke:rgb(26.666667%,26.666667%,26.666667%);stroke-opacity:1;stroke-miterlimit:10;" d="M 322.378906 207.921875 L 357.425781 227.042969 "/>
<path style="fill:none;stroke-width:0.2;stroke-linecap:butt;stroke-linejoin:miter;stroke:rgb(26.666667%,26.666667%,26.666667%);stroke-opacity:1;stroke-miterlimit:10;" d="M 388.25 172.894531 L 364.96875 175.222656 "/>
<path style="fill:none;stroke-width:0.2;stroke-linecap:butt;stroke-linejoin:miter;stroke:rgb(26.666667%,26.666667%,26.666667%);stroke-opacity:1;stroke-miterlimit:10;" d="M 388.25 172.894531 L 404.304688 173.15625 "/>
<path style="fill:none;stroke-width:0.2;stroke-linecap:butt;stroke-linejoin:miter;stroke:rgb(26.666667%,26.666667%,26.666667%);stroke-opacity:1;stroke-miterlimit:10;" d="M 305.40625 396.75 L 302.933594 385.671875 "/>
<path style="fill:none;stroke-width:0.2;stroke-linecap:butt;stroke-linejoin:miter;stroke:rgb(26.666667%,26.666667%,26.666667%);stroke-opacity:1;stroke-miterlimit:10;" d="M 366.859375 413.867188 L 370.921875 427.226562 "/>
<path style="fill:none;stroke-width:0.2;stroke-linecap:butt;stroke-linejoin:miter;stroke:rgb(26.666667%,26.666667%,26.666667%);stroke-opacity:1;stroke-miterlimit:10;" d="M 366.859375 413.867188 L 351.980469 417.289062 "/>
<path style="fill:none;stroke-width:0.2;stroke-linecap:butt;stroke-linejoin:miter;stroke:rgb(26.666667%,26.666667%,26.666667%);stroke-opacity:1;stroke-miterlimit:10;" d="M 366.859375 413.867188 L 381.886719 411.054688 "/>
<path style="fill:none;stroke-width:0.2;stroke-linecap:butt;stroke-linejoin:miter;stroke:rgb(26.666667%,26.666667%,26.666667%);stroke-opacity:1;stroke-miterlimit:10;" d="M 366.859375 413.867188 L 362.710938 400.40625 "/>
<path style="fill:none;stroke-width:0.2;stroke-linecap:butt;stroke-linejoin:miter;stroke:rgb(26.666667%,26.666667%,26.666667%);stroke-opacity:1;stroke-miterlimit:10;" d="M 366.316406 42.707031 L 354.296875 41.132812 "/>
<path style="fill:none;stroke-width:0.2;stroke-linecap:butt;stroke-linejoin:miter;stroke:rgb(26.666667%,26.666667%,26.666667%);stroke-opacity:1;stroke-miterlimit:10;" d="M 236.144531 63.253906 L 248.277344 64.183594 "/>
<path style="fill:none;stroke-width:0.2;stroke-linecap:butt;stroke-linejoin:miter;stroke:rgb(26.666667%,26.666667%,26.666667%);stroke-opacity:1;stroke-miterlimit:10;" d="M 119.140625 314.066406 L 130.933594 315.648438 "/>
<path style="fill:none;stroke-width:0.2;stroke-linecap:butt;stroke-linejoin:miter;stroke:rgb(26.666667%,26.666667%,26.666667%);stroke-opacity:1;stroke-miterlimit:10;" d="M 281.859375 23.457031 L 270.140625 20.261719 "/>
<path style="fill:none;stroke-width:0.2;stroke-linecap:butt;stroke-linejoin:miter;stroke:rgb(26.666667%,26.666667%,26.666667%);stroke-opacity:1;stroke-miterlimit:10;" d="M 165.234375 419.640625 L 172.328125 439.480469 "/>
<path style="fill:none;stroke-width:0.2;stroke-linecap:butt;stroke-linejoin:miter;stroke:rgb(26.666667%,26.666667%,26.666667%);stroke-opacity:1;stroke-miterlimit:10;" d="M 165.234375 419.640625 L 151.8125 413.132812 "/>
<path style="fill:none;stroke-width:0.2;stroke-linecap:butt;stroke-linejoin:miter;stroke:rgb(26.666667%,26.666667%,26.666667%);stroke-opacity:1;stroke-miterlimit:10;" d="M 165.234375 419.640625 L 170.46875 406.078125 "/>
<path style="fill:none;stroke-width:0.2;stroke-linecap:butt;stroke-linejoin:miter;stroke:rgb(26.666667%,26.666667%,26.666667%);stroke-opacity:1;stroke-miterlimit:10;" d="M 509.039062 126.730469 L 500.066406 119.03125 "/>
<path style="fill:none;stroke-width:0.2;stroke-linecap:butt;stroke-linejoin:miter;stroke:rgb(26.666667%,26.666667%,26.666667%);stroke-opacity:1;stroke-miterlimit:10;" d="M 477.964844 468.117188 L 476.421875 456.867188 "/>
<path style="fill:none;stroke-width:0.2;stroke-linecap:butt;stroke-linejoin:miter;stroke:rgb(26.666667%,26.666667%,26.666667%);stroke-opacity:1;stroke-miterlimit:10;" d="M 302.855469 209.527344 L 289.804688 215.851562 "/>
<path style="fill:none;stroke-width:0.2;stroke-linecap:butt;stroke-linejoin:miter;stroke:rgb(26.666667%,26.666667%,26.666667%);stroke-opacity:1;stroke-miterlimit:10;" d="M 302.855469 209.527344 L 304.554688 226.421875 "/>
<path style="fill:none;stroke-width:0.2;stroke-linecap:butt;stroke-linejoin:miter;stroke:rgb(26.666667%,26.666667%,26.666667%);stroke-opacity:1;stroke-miterlimit:10;" d="M 302.855469 209.527344 L 318.730469 182.234375 "/>
<path style="fill:none;stroke-width:0.2;stroke-linecap:butt;stroke-linejoin:miter;stroke:rgb(26.666667%,26.666667%,26.666667%);stroke-opacity:1;stroke-miterlimit:10;" d="M 370 259.121094 L 379.484375 267.671875 "/>
<path style="fill:none;stroke-width:0.2;stroke-linecap:butt;stroke-linejoin:miter;stroke:rgb(26.666667%,26.666667%,26.666667%);stroke-opacity:1;stroke-miterlimit:10;" d="M 370 259.121094 L 346.433594 289.160156 "/>
<path style="fill:none;stroke-width:0.2;stroke-linecap:butt;stroke-linejoin:miter;stroke:rgb(26.666667%,26.666667%,26.666667%);stroke-opacity:1;stroke-miterlimit:10;" d="M 370 259.121094 L 368.210938 277.769531 "/>
<path style="fill:none;stroke-width:0.2;stroke-linecap:butt;stroke-linejoin:miter;stroke:rgb(26.666667%,26.666667%,26.666667%);stroke-opacity:1;stroke-miterlimit:10;" d="M 370 259.121094 L 374.726562 244.367188 "/>
<path style="fill:none;stroke-width:0.2;stroke-linecap:butt;stroke-linejoin:miter;stroke:rgb(26.666667%,26.666667%,26.666667%);stroke-opacity:1;stroke-miterlimit:10;" d="M 370 259.121094 L 387.640625 279.410156 "/>
<path style="fill:none;stroke-width:0.2;stroke-linecap:butt;stroke-linejoin:miter;stroke:rgb(26.666667%,26.666667%,26.666667%);stroke-opacity:1;stroke-miterlimit:10;" d="M 370 259.121094 L 397.617188 263.859375 "/>
<path style="fill:none;stroke-width:0.2;stroke-linecap:butt;stroke-linejoin:miter;stroke:rgb(26.666667%,26.666667%,26.666667%);stroke-opacity:1;stroke-miterlimit:10;" d="M 370 259.121094 L 346.597656 219.839844 "/>
<path style="fill:none;stroke-width:0.2;stroke-linecap:butt;stroke-linejoin:miter;stroke:rgb(26.666667%,26.666667%,26.666667%);stroke-opacity:1;stroke-miterlimit:10;" d="M 370 259.121094 L 358.652344 228.457031 "/>
<path style="fill:none;stroke-width:0.2;stroke-linecap:butt;stroke-linejoin:miter;stroke:rgb(26.666667%,26.666667%,26.666667%);stroke-opacity:1;stroke-miterlimit:10;" d="M 370 259.121094 L 355.574219 265.386719 "/>
<path style="fill:none;stroke-width:0.2;stroke-linecap:butt;stroke-linejoin:miter;stroke:rgb(26.666667%,26.666667%,26.666667%);stroke-opacity:1;stroke-miterlimit:10;" d="M 370 259.121094 L 387.511719 253.519531 "/>
<path style="fill:none;stroke-width:0.2;stroke-linecap:butt;stroke-linejoin:miter;stroke:rgb(26.666667%,26.666667%,26.666667%);stroke-opacity:1;stroke-miterlimit:10;" d="M 262.867188 141.359375 L 254.578125 127.175781 "/>
<path style="fill:none;stroke-width:0.2;stroke-linecap:butt;stroke-linejoin:miter;stroke:rgb(26.666667%,26.666667%,26.666667%);stroke-opacity:1;stroke-miterlimit:10;" d="M 262.867188 141.359375 L 277.898438 168.550781 "/>
<path style="fill:none;stroke-width:0.2;stroke-linecap:butt;stroke-linejoin:miter;stroke:rgb(26.666667%,26.666667%,26.666667%);stroke-opacity:1;stroke-miterlimit:10;" d="M 265.425781 140.296875 C 265.425781 142.296875 262.425781 142.296875 262.425781 140.296875 C 262.425781 138.296875 265.425781 138.296875 265.425781 140.296875 "/>
<path style="fill:none;stroke-width:0.2;stroke-linecap:butt;stroke-linejoin:miter;stroke:rgb(26.666667%,26.666667%,26.666667%);stroke-opacity:1;stroke-miterlimit:10;" d="M 523.523438 296.582031 L 513.5 302.996094 "/>
<path style="fill:none;stroke-width:0.2;stroke-linecap:butt;stroke-linejoin:miter;stroke:rgb(26.666667%,26.666667%,26.666667%);stroke-opacity:1;stroke-miterlimit:10;" d="M 484.621094 233.125 L 490.21875 244.113281 "/>
<path style="fill:none;stroke-width:0.2;stroke-linecap:butt;stroke-linejoin:miter;stroke:rgb(26.666667%,26.666667%,26.666667%);stroke-opacity:1;stroke-miterlimit:10;" d="M 24.253906 363.007812 L 28.066406 374.769531 "/>
<path style="fill:none;stroke-width:0.2;stroke-linecap:butt;stroke-linejoin:miter;stroke:rgb(26.666667%,26.666667%,26.666667%);stroke-opacity:1;stroke-miterlimit:10;" d="M 24.253906 363.007812 L 20.316406 351.253906 "/>
<path style="fill:none;stroke-width:0.2;stroke-linecap:butt;stroke-linejoin:miter;stroke:rgb(26.666667%,26.666667%,26.666667%);stroke-opacity:1;stroke-miterlimit:10;" d="M 381.65625 333.230469 L 369.492188 334.304688 "/>
<path style="fill:none;stroke-width:0.2;stroke-linecap:butt;stroke-linejoin:miter;stroke:rgb(26.666667%,26.666667%,26.666667%);stroke-opacity:1;stroke-miterlimit:10;" d="M 279.273438 307.359375 L 285.863281 320.601562 "/>
<path style="fill:none;stroke-width:0.2;stroke-linecap:butt;stroke-linejoin:miter;stroke:rgb(26.666667%,26.666667%,26.666667%);stroke-opacity:1;stroke-miterlimit:10;" d="M 279.273438 307.359375 L 271.5 288.53125 "/>
<path style="fill:none;stroke-width:0.2;stroke-linecap:butt;stroke-linejoin:miter;stroke:rgb(26.666667%,26.666667%,26.666667%);stroke-opacity:1;stroke-miterlimit:10;" d="M 69.28125 187.539062 L 68.53125 176.230469 "/>
<path style="fill:none;stroke-width:0.2;stroke-linecap:butt;stroke-linejoin:miter;stroke:rgb(26.666667%,26.666667%,26.666667%);stroke-opacity:1;stroke-miterlimit:10;" d="M 279 151.90625 L 278.417969 168.425781 "/>
<path style="fill:none;stroke-width:0.2;stroke-linecap:butt;stroke-linejoin:miter;stroke:rgb(26.666667%,26.666667%,26.666667%);stroke-opacity:1;stroke-miterlimit:10;" d="M 405.375 364.039062 L 392.480469 363.441406 "/>
<path style="fill:none;stroke-width:0.2;stroke-linecap:butt;stroke-linejoin:miter;stroke:rgb(26.666667%,26.666667%,26.666667%);stroke-opacity:1;stroke-miterlimit:10;" d="M 405.375 364.039062 L 417.929688 366.304688 "/>
<path style="fill:none;stroke-width:0.2;stroke-linecap:butt;stroke-linejoin:miter;stroke:rgb(26.666667%,26.666667%,26.666667%);stroke-opacity:1;stroke-miterlimit:10;" d="M 186.464844 451.605469 L 173.441406 441.054688 "/>
<path style="fill:none;stroke-width:0.2;stroke-linecap:butt;stroke-linejoin:miter;stroke:rgb(26.666667%,26.666667%,26.666667%);stroke-opacity:1;stroke-miterlimit:10;" d="M 567.027344 385.976562 L 555.597656 389.8125 "/>
<path style="fill:none;stroke-width:0.2;stroke-linecap:butt;stroke-linejoin:miter;stroke:rgb(26.666667%,26.666667%,26.666667%);stroke-opacity:1;stroke-miterlimit:10;" d="M 329.710938 287.96875 L 344.824219 289.824219 "/>
<path style="fill:none;stroke-width:0.2;stroke-linecap:butt;stroke-linejoin:miter;stroke:rgb(26.666667%,26.666667%,26.666667%);stroke-opacity:1;stroke-miterlimit:10;" d="M 156.25 442.433594 L 171.671875 440.546875 "/>
<path style="fill:none;stroke-width:0.2;stroke-linecap:butt;stroke-linejoin:miter;stroke:rgb(26.666667%,26.666667%,26.666667%);stroke-opacity:1;stroke-miterlimit:10;" d="M 126.121094 86.804688 L 113.945312 85.800781 "/>
<path style="fill:none;stroke-width:0.2;stroke-linecap:butt;stroke-linejoin:miter;stroke:rgb(26.666667%,26.666667%,26.666667%);stroke-opacity:1;stroke-miterlimit:10;" d="M 173.078125 319.449219 L 175.257812 330.574219 "/>
<path style="fill:none;stroke-width:0.2;stroke-linecap:butt;stroke-linejoin:miter;stroke:rgb(26.666667%,26.666667%,26.666667%);stroke-opacity:1;stroke-miterlimit:10;" d="M 257.386719 253.414062 L 266.269531 241.878906 "/>
<path style="fill:none;stroke-width:0.2;stroke-linecap:butt;stroke-linejoin:miter;stroke:rgb(26.666667%,26.666667%,26.666667%);stroke-opacity:1;stroke-miterlimit:10;" d="M 257.386719 253.414062 L 224.910156 241.34375 "/>
<path style="fill:none;stroke-width:0.2;stroke-linecap:butt;stroke-linejoin:miter;stroke:rgb(26.666667%,26.666667%,26.666667%);stroke-opacity:1;stroke-miterlimit:10;" d="M 257.386719 253.414062 L 270.746094 286.679688 "/>
<path style="fill:none;stroke-width:0.2;stroke-linecap:butt;stroke-linejoin:miter;stroke:rgb(26.666667%,26.666667%,26.666667%);stroke-opacity:1;stroke-miterlimit:10;" d="M 257.386719 253.414062 L 251.960938 235.902344 "/>
<path style="fill:none;stroke-width:0.2;stroke-linecap:butt;stroke-linejoin:miter;stroke:rgb(26.666667%,26.666667%,26.666667%);stroke-opacity:1;stroke-miterlimit:10;" d="M 257.386719 253.414062 L 275.539062 253.296875 "/>
<path style="fill:none;stroke-width:0.2;stroke-linecap:butt;stroke-linejoin:miter;stroke:rgb(26.666667%,26.666667%,26.666667%);stroke-opacity:1;stroke-miterlimit:10;" d="M 257.386719 253.414062 L 273.554688 266.804688 "/>
<path style="fill:none;stroke-width:0.2;stroke-linecap:butt;stroke-linejoin:miter;stroke:rgb(26.666667%,26.666667%,26.666667%);stroke-opacity:1;stroke-miterlimit:10;" d="M 257.386719 253.414062 L 243.167969 246.523438 "/>
<path style="fill:none;stroke-width:0.2;stroke-linecap:butt;stroke-linejoin:miter;stroke:rgb(26.666667%,26.666667%,26.666667%);stroke-opacity:1;stroke-miterlimit:10;" d="M 257.386719 253.414062 L 234.871094 272.917969 "/>
<path style="fill:none;stroke-width:0.2;stroke-linecap:butt;stroke-linejoin:miter;stroke:rgb(26.666667%,26.666667%,26.666667%);stroke-opacity:1;stroke-miterlimit:10;" d="M 257.386719 253.414062 L 259.171875 267.65625 "/>
<path style="fill:none;stroke-width:0.2;stroke-linecap:butt;stroke-linejoin:miter;stroke:rgb(26.666667%,26.666667%,26.666667%);stroke-opacity:1;stroke-miterlimit:10;" d="M 257.386719 253.414062 L 230.429688 258.003906 "/>
<path style="fill:none;stroke-width:0.2;stroke-linecap:butt;stroke-linejoin:miter;stroke:rgb(26.666667%,26.666667%,26.666667%);stroke-opacity:1;stroke-miterlimit:10;" d="M 257.386719 253.414062 L 318.582031 182.128906 "/>
<path style="fill:none;stroke-width:0.2;stroke-linecap:butt;stroke-linejoin:miter;stroke:rgb(26.666667%,26.666667%,26.666667%);stroke-opacity:1;stroke-miterlimit:10;" d="M 257.386719 253.414062 L 245.996094 261.292969 "/>
<path style="fill:none;stroke-width:0.2;stroke-linecap:butt;stroke-linejoin:miter;stroke:rgb(26.666667%,26.666667%,26.666667%);stroke-opacity:1;stroke-miterlimit:10;" d="M 257.386719 253.414062 L 249.851562 279.320312 "/>
<path style="fill:none;stroke-width:0.2;stroke-linecap:butt;stroke-linejoin:miter;stroke:rgb(26.666667%,26.666667%,26.666667%);stroke-opacity:1;stroke-miterlimit:10;" d="M 146.230469 242.085938 L 144.195312 230.867188 "/>
<path style="fill:none;stroke-width:0.2;stroke-linecap:butt;stroke-linejoin:miter;stroke:rgb(26.666667%,26.666667%,26.666667%);stroke-opacity:1;stroke-miterlimit:10;" d="M 425.839844 473.578125 L 428.195312 484.78125 "/>
<path style="fill:none;stroke-width:0.2;stroke-linecap:butt;stroke-linejoin:miter;stroke:rgb(26.666667%,26.666667%,26.666667%);stroke-opacity:1;stroke-miterlimit:10;" d="M 319.234375 181.371094 L 362.984375 175.453125 "/>
<path style="fill:none;stroke-width:0.2;stroke-linecap:butt;stroke-linejoin:miter;stroke:rgb(26.666667%,26.666667%,26.666667%);stroke-opacity:1;stroke-miterlimit:10;" d="M 319.234375 181.371094 L 312.832031 171.679688 "/>
<path style="fill:none;stroke-width:0.2;stroke-linecap:butt;stroke-linejoin:miter;stroke:rgb(26.666667%,26.666667%,26.666667%);stroke-opacity:1;stroke-miterlimit:10;" d="M 319.234375 181.371094 L 344.824219 171.390625 "/>
<path style="fill:none;stroke-width:0.2;stroke-linecap:butt;stroke-linejoin:miter;stroke:rgb(26.666667%,26.666667%,26.666667%);stroke-opacity:1;stroke-miterlimit:10;" d="M 319.234375 181.371094 L 340.90625 157.554688 "/>
<path style="fill:none;stroke-width:0.2;stroke-linecap:butt;stroke-linejoin:miter;stroke:rgb(26.666667%,26.666667%,26.666667%);stroke-opacity:1;stroke-miterlimit:10;" d="M 319.234375 181.371094 L 327.617188 148.976562 "/>
<path style="fill:none;stroke-width:0.2;stroke-linecap:butt;stroke-linejoin:miter;stroke:rgb(26.666667%,26.666667%,26.666667%);stroke-opacity:1;stroke-miterlimit:10;" d="M 319.234375 181.371094 L 324.78125 163.898438 "/>
<path style="fill:none;stroke-width:0.2;stroke-linecap:butt;stroke-linejoin:miter;stroke:rgb(26.666667%,26.666667%,26.666667%);stroke-opacity:1;stroke-miterlimit:10;" d="M 319.234375 181.371094 L 299.441406 181.480469 "/>
<path style="fill:none;stroke-width:0.2;stroke-linecap:butt;stroke-linejoin:miter;stroke:rgb(26.666667%,26.666667%,26.666667%);stroke-opacity:1;stroke-miterlimit:10;" d="M 319.234375 181.371094 L 302.03125 163.910156 "/>
<path style="fill:none;stroke-width:0.2;stroke-linecap:butt;stroke-linejoin:miter;stroke:rgb(26.666667%,26.666667%,26.666667%);stroke-opacity:1;stroke-miterlimit:10;" d="M 319.234375 181.371094 L 345.503906 218.167969 "/>
<path style="fill:none;stroke-width:0.2;stroke-linecap:butt;stroke-linejoin:miter;stroke:rgb(26.666667%,26.666667%,26.666667%);stroke-opacity:1;stroke-miterlimit:10;" d="M 319.234375 181.371094 L 279.34375 169.707031 "/>
<path style="fill:none;stroke-width:0.2;stroke-linecap:butt;stroke-linejoin:miter;stroke:rgb(26.666667%,26.666667%,26.666667%);stroke-opacity:1;stroke-miterlimit:10;" d="M 319.234375 181.371094 L 312.101562 152.363281 "/>
<path style="fill:none;stroke-width:0.2;stroke-linecap:butt;stroke-linejoin:miter;stroke:rgb(26.666667%,26.666667%,26.666667%);stroke-opacity:1;stroke-miterlimit:10;" d="M 319.234375 181.371094 L 309.484375 191.15625 "/>
<path style="fill:none;stroke-width:0.2;stroke-linecap:butt;stroke-linejoin:miter;stroke:rgb(26.666667%,26.666667%,26.666667%);stroke-opacity:1;stroke-miterlimit:10;" d="M 319.234375 181.371094 L 343.023438 187.867188 "/>
<path style="fill:none;stroke-width:0.2;stroke-linecap:butt;stroke-linejoin:miter;stroke:rgb(26.666667%,26.666667%,26.666667%);stroke-opacity:1;stroke-miterlimit:10;" d="M 319.234375 181.371094 L 328.429688 191.574219 "/>
<path style="fill:none;stroke-width:0.2;stroke-linecap:butt;stroke-linejoin:miter;stroke:rgb(26.666667%,26.666667%,26.666667%);stroke-opacity:1;stroke-miterlimit:10;" d="M 547.230469 338.761719 L 536.355469 344 "/>
<path style="fill:none;stroke-width:0.2;stroke-linecap:butt;stroke-linejoin:miter;stroke:rgb(26.666667%,26.666667%,26.666667%);stroke-opacity:1;stroke-miterlimit:10;" d="M 367.804688 469.03125 L 377.980469 475.125 "/>
<path style="fill:none;stroke-width:0.2;stroke-linecap:butt;stroke-linejoin:miter;stroke:rgb(26.666667%,26.666667%,26.666667%);stroke-opacity:1;stroke-miterlimit:10;" d="M 349.984375 305.851562 L 346.070312 290.914062 "/>
<path style="fill:none;stroke-width:0.2;stroke-linecap:butt;stroke-linejoin:miter;stroke:rgb(26.666667%,26.666667%,26.666667%);stroke-opacity:1;stroke-miterlimit:10;" d="M 69.238281 417.285156 L 80.828125 422.796875 "/>
<path style="fill:none;stroke-width:0.2;stroke-linecap:butt;stroke-linejoin:miter;stroke:rgb(26.666667%,26.666667%,26.666667%);stroke-opacity:1;stroke-miterlimit:10;" d="M 497.082031 256.660156 L 491.152344 245.878906 "/>
<path style="fill:none;stroke-width:0.2;stroke-linecap:butt;stroke-linejoin:miter;stroke:rgb(26.666667%,26.666667%,26.666667%);stroke-opacity:1;stroke-miterlimit:10;" d="M 68.710938 329.375 L 78.496094 335.980469 "/>
<path style="fill:none;stroke-width:0.2;stroke-linecap:butt;stroke-linejoin:miter;stroke:rgb(26.666667%,26.666667%,26.666667%);stroke-opacity:1;stroke-miterlimit:10;" d="M 391.707031 234.230469 L 375.90625 242.933594 "/>
<path style="fill:none;stroke-width:0.2;stroke-linecap:butt;stroke-linejoin:miter;stroke:rgb(26.666667%,26.666667%,26.666667%);stroke-opacity:1;stroke-miterlimit:10;" d="M 36.496094 284.933594 L 31.808594 274.503906 "/>
<path style="fill:none;stroke-width:0.2;stroke-linecap:butt;stroke-linejoin:miter;stroke:rgb(26.666667%,26.666667%,26.666667%);stroke-opacity:1;stroke-miterlimit:10;" d="M 236.769531 386.101562 L 235.25 369.992188 "/>
<path style="fill:none;stroke-width:0.2;stroke-linecap:butt;stroke-linejoin:miter;stroke:rgb(26.666667%,26.666667%,26.666667%);stroke-opacity:1;stroke-miterlimit:10;" d="M 236.769531 386.101562 L 238.273438 402.464844 "/>
<path style="fill:none;stroke-width:0.2;stroke-linecap:butt;stroke-linejoin:miter;stroke:rgb(26.666667%,26.666667%,26.666667%);stroke-opacity:1;stroke-miterlimit:10;" d="M 236.769531 386.101562 L 250.75 377.398438 "/>
<path style="fill:none;stroke-width:0.2;stroke-linecap:butt;stroke-linejoin:miter;stroke:rgb(26.666667%,26.666667%,26.666667%);stroke-opacity:1;stroke-miterlimit:10;" d="M 236.769531 386.101562 L 220.867188 378.535156 "/>
<path style="fill:none;stroke-width:0.2;stroke-linecap:butt;stroke-linejoin:miter;stroke:rgb(26.666667%,26.666667%,26.666667%);stroke-opacity:1;stroke-miterlimit:10;" d="M 236.769531 386.101562 L 252.339844 393.613281 "/>
<path style="fill:none;stroke-width:0.2;stroke-linecap:butt;stroke-linejoin:miter;stroke:rgb(26.666667%,26.666667%,26.666667%);stroke-opacity:1;stroke-miterlimit:10;" d="M 236.769531 386.101562 L 223.058594 394.644531 "/>
<path style="fill:none;stroke-width:0.2;stroke-linecap:butt;stroke-linejoin:miter;stroke:rgb(26.666667%,26.666667%,26.666667%);stroke-opacity:1;stroke-miterlimit:10;" d="M 374.898438 216.898438 L 359.148438 226.980469 "/>
<path style="fill:none;stroke-width:0.2;stroke-linecap:butt;stroke-linejoin:miter;stroke:rgb(26.666667%,26.666667%,26.666667%);stroke-opacity:1;stroke-miterlimit:10;" d="M 138.917969 171.410156 L 128.070312 178.214844 "/>
<path style="fill:none;stroke-width:0.2;stroke-linecap:butt;stroke-linejoin:miter;stroke:rgb(26.666667%,26.666667%,26.666667%);stroke-opacity:1;stroke-miterlimit:10;" d="M 138.917969 171.410156 L 149.355469 164.035156 "/>
<path style=" stroke:none;fill-rule:nonzero;fill:rgb(100%,0%,0%);fill-opacity:1;" d="M 207.359375 236.125 C 207.359375 237.457031 205.359375 237.457031 205.359375 236.125 C 205.359375 234.789062 207.359375 234.789062 207.359375 236.125 "/>
<path style=" stroke:none;fill-rule:nonzero;fill:rgb(100%,0%,0%);fill-opacity:1;" d="M 224.976562 240.996094 C 224.976562 242.328125 222.976562 242.328125 222.976562 240.996094 C 222.976562 239.664062 224.976562 239.664062 224.976562 240.996094 "/>
<path style=" stroke:none;fill-rule:nonzero;fill:rgb(100%,0%,0%);fill-opacity:1;" d="M 303.167969 506.636719 C 303.167969 507.96875 301.167969 507.96875 301.167969 506.636719 C 301.167969 505.304688 303.167969 505.304688 303.167969 506.636719 "/>
<path style=" stroke:none;fill-rule:nonzero;fill:rgb(100%,0%,0%);fill-opacity:1;" d="M 314.5 519.542969 C 314.5 520.875 312.5 520.875 312.5 519.542969 C 312.5 518.207031 314.5 518.207031 314.5 519.542969 "/>
<path style=" stroke:none;fill-rule:nonzero;fill:rgb(100%,0%,0%);fill-opacity:1;" d="M 301.910156 527.25 C 301.910156 528.582031 299.910156 528.582031 299.910156 527.25 C 299.910156 525.917969 301.910156 525.917969 301.910156 527.25 "/>
<path style=" stroke:none;fill-rule:nonzero;fill:rgb(100%,0%,0%);fill-opacity:1;" d="M 296.394531 489.894531 C 296.394531 491.226562 294.394531 491.226562 294.394531 489.894531 C 294.394531 488.558594 296.394531 488.558594 296.394531 489.894531 "/>
<path style=" stroke:none;fill-rule:nonzero;fill:rgb(100%,0%,0%);fill-opacity:1;" d="M 311.472656 485.8125 C 311.472656 487.144531 309.472656 487.144531 309.472656 485.8125 C 309.472656 484.480469 311.472656 484.480469 311.472656 485.8125 "/>
<path style=" stroke:none;fill-rule:nonzero;fill:rgb(100%,0%,0%);fill-opacity:1;" d="M 318.816406 498.585938 C 318.816406 499.921875 316.816406 499.921875 316.816406 498.585938 C 316.816406 497.253906 318.816406 497.253906 318.816406 498.585938 "/>
<path style=" stroke:none;fill-rule:nonzero;fill:rgb(100%,0%,0%);fill-opacity:1;" d="M 281.511719 496.453125 C 281.511719 497.785156 279.511719 497.785156 279.511719 496.453125 C 279.511719 495.121094 281.511719 495.121094 281.511719 496.453125 "/>
<path style=" stroke:none;fill-rule:nonzero;fill:rgb(100%,0%,0%);fill-opacity:1;" d="M 285.574219 522.703125 C 285.574219 524.035156 283.574219 524.035156 283.574219 522.703125 C 283.574219 521.367188 285.574219 521.367188 285.574219 522.703125 "/>
<path style=" stroke:none;fill-rule:nonzero;fill:rgb(100%,0%,0%);fill-opacity:1;" d="M 288.433594 509.054688 C 288.433594 510.386719 286.433594 510.386719 286.433594 509.054688 C 286.433594 507.71875 288.433594 507.71875 288.433594 509.054688 "/>
<path style=" stroke:none;fill-rule:nonzero;fill:rgb(100%,0%,0%);fill-opacity:1;" d="M 327.152344 511.101562 C 327.152344 512.433594 325.152344 512.433594 325.152344 511.101562 C 325.152344 509.769531 327.152344 509.769531 327.152344 511.101562 "/>
<path style=" stroke:none;fill-rule:nonzero;fill:rgb(100%,0%,0%);fill-opacity:1;" d="M 578.242188 266.667969 C 578.242188 268 576.242188 268 576.242188 266.667969 C 576.242188 265.335938 578.242188 265.335938 578.242188 266.667969 "/>
<path style=" stroke:none;fill-rule:nonzero;fill:rgb(100%,0%,0%);fill-opacity:1;" d="M 581 278.78125 C 581 280.113281 579 280.113281 579 278.78125 C 579 277.445312 581 277.445312 581 278.78125 "/>
<path style=" stroke:none;fill-rule:nonzero;fill:rgb(100%,0%,0%);fill-opacity:1;" d="M 99.027344 233.464844 C 99.027344 234.800781 97.027344 234.800781 97.027344 233.464844 C 97.027344 232.132812 99.027344 232.132812 99.027344 233.464844 "/>
<path style=" stroke:none;fill-rule:nonzero;fill:rgb(100%,0%,0%);fill-opacity:1;" d="M 86.550781 229.921875 C 86.550781 231.253906 84.550781 231.253906 84.550781 229.921875 C 84.550781 228.589844 86.550781 228.589844 86.550781 229.921875 "/>
<path style=" stroke:none;fill-rule:nonzero;fill:rgb(100%,0%,0%);fill-opacity:1;" d="M 153.222656 512.726562 C 153.222656 514.058594 151.222656 514.058594 151.222656 512.726562 C 151.222656 511.390625 153.222656 511.390625 153.222656 512.726562 "/>
<path style=" stroke:none;fill-rule:nonzero;fill:rgb(100%,0%,0%);fill-opacity:1;" d="M 140.839844 508.601562 C 140.839844 509.933594 138.839844 509.933594 138.839844 508.601562 C 138.839844 507.265625 140.839844 507.265625 140.839844 508.601562 "/>
<path style=" stroke:none;fill-rule:nonzero;fill:rgb(100%,0%,0%);fill-opacity:1;" d="M 169.105469 456.824219 C 169.105469 458.160156 167.105469 458.160156 167.105469 456.824219 C 167.105469 455.492188 169.105469 455.492188 169.105469 456.824219 "/>
<path style=" stroke:none;fill-rule:nonzero;fill:rgb(100%,0%,0%);fill-opacity:1;" d="M 173.664062 440.425781 C 173.664062 441.757812 171.664062 441.757812 171.664062 440.425781 C 171.664062 439.089844 173.664062 439.089844 173.664062 440.425781 "/>
<path style=" stroke:none;fill-rule:nonzero;fill:rgb(100%,0%,0%);fill-opacity:1;" d="M 476.71875 175.242188 C 476.71875 176.578125 474.71875 176.578125 474.71875 175.242188 C 474.71875 173.910156 476.71875 173.910156 476.71875 175.242188 "/>
<path style=" stroke:none;fill-rule:nonzero;fill:rgb(100%,0%,0%);fill-opacity:1;" d="M 470.328125 164.511719 C 470.328125 165.847656 468.328125 165.847656 468.328125 164.511719 C 468.328125 163.179688 470.328125 163.179688 470.328125 164.511719 "/>
<path style=" stroke:none;fill-rule:nonzero;fill:rgb(100%,0%,0%);fill-opacity:1;" d="M 266.203125 178.578125 C 266.203125 179.914062 264.203125 179.914062 264.203125 178.578125 C 264.203125 177.246094 266.203125 177.246094 266.203125 178.578125 "/>
<path style=" stroke:none;fill-rule:nonzero;fill:rgb(100%,0%,0%);fill-opacity:1;" d="M 279.382812 169.425781 C 279.382812 170.757812 277.382812 170.757812 277.382812 169.425781 C 277.382812 168.09375 279.382812 168.09375 279.382812 169.425781 "/>
<path style=" stroke:none;fill-rule:nonzero;fill:rgb(100%,0%,0%);fill-opacity:1;" d="M 464.4375 314.5625 C 464.4375 315.898438 462.4375 315.898438 462.4375 314.5625 C 462.4375 313.230469 464.4375 313.230469 464.4375 314.5625 "/>
<path style=" stroke:none;fill-rule:nonzero;fill:rgb(100%,0%,0%);fill-opacity:1;" d="M 451.765625 311.875 C 451.765625 313.210938 449.765625 313.210938 449.765625 311.875 C 449.765625 310.542969 451.765625 310.542969 451.765625 311.875 "/>
<path style=" stroke:none;fill-rule:nonzero;fill:rgb(100%,0%,0%);fill-opacity:1;" d="M 244.484375 203.382812 C 244.484375 204.714844 242.484375 204.714844 242.484375 203.382812 C 242.484375 202.046875 244.484375 202.046875 244.484375 203.382812 "/>
<path style=" stroke:none;fill-rule:nonzero;fill:rgb(100%,0%,0%);fill-opacity:1;" d="M 231.503906 201.644531 C 231.503906 202.980469 229.503906 202.980469 229.503906 201.644531 C 229.503906 200.3125 231.503906 200.3125 231.503906 201.644531 "/>
<path style=" stroke:none;fill-rule:nonzero;fill:rgb(100%,0%,0%);fill-opacity:1;" d="M 240.28125 164.339844 C 240.28125 165.675781 238.28125 165.675781 238.28125 164.339844 C 238.28125 163.007812 240.28125 163.007812 240.28125 164.339844 "/>
<path style=" stroke:none;fill-rule:nonzero;fill:rgb(100%,0%,0%);fill-opacity:1;" d="M 222.835938 171.097656 C 222.835938 172.429688 220.835938 172.429688 220.835938 171.097656 C 220.835938 169.765625 222.835938 169.765625 222.835938 171.097656 "/>
<path style=" stroke:none;fill-rule:nonzero;fill:rgb(100%,0%,0%);fill-opacity:1;" d="M 224.777344 153.714844 C 224.777344 155.046875 222.777344 155.046875 222.777344 153.714844 C 222.777344 152.378906 224.777344 152.378906 224.777344 153.714844 "/>
<path style=" stroke:none;fill-rule:nonzero;fill:rgb(100%,0%,0%);fill-opacity:1;" d="M 479.875 358.917969 C 479.875 360.25 477.875 360.25 477.875 358.917969 C 477.875 357.582031 479.875 357.582031 479.875 358.917969 "/>
<path style=" stroke:none;fill-rule:nonzero;fill:rgb(100%,0%,0%);fill-opacity:1;" d="M 467.730469 363.3125 C 467.730469 364.644531 465.730469 364.644531 465.730469 363.3125 C 465.730469 361.980469 467.730469 361.980469 467.730469 363.3125 "/>
<path style=" stroke:none;fill-rule:nonzero;fill:rgb(100%,0%,0%);fill-opacity:1;" d="M 333.316406 175.722656 C 333.316406 177.054688 331.316406 177.054688 331.316406 175.722656 C 331.316406 174.390625 333.316406 174.390625 333.316406 175.722656 "/>
<path style=" stroke:none;fill-rule:nonzero;fill:rgb(100%,0%,0%);fill-opacity:1;" d="M 320.234375 181.371094 C 320.234375 182.703125 318.234375 182.703125 318.234375 181.371094 C 318.234375 180.035156 320.234375 180.035156 320.234375 181.371094 "/>
<path style=" stroke:none;fill-rule:nonzero;fill:rgb(100%,0%,0%);fill-opacity:1;" d="M 459.65625 407.25 C 459.65625 408.585938 457.65625 408.585938 457.65625 407.25 C 457.65625 405.917969 459.65625 405.917969 459.65625 407.25 "/>
<path style=" stroke:none;fill-rule:nonzero;fill:rgb(100%,0%,0%);fill-opacity:1;" d="M 447.757812 412.417969 C 447.757812 413.753906 445.757812 413.753906 445.757812 412.417969 C 445.757812 411.085938 447.757812 411.085938 447.757812 412.417969 "/>
<path style=" stroke:none;fill-rule:nonzero;fill:rgb(100%,0%,0%);fill-opacity:1;" d="M 359.808594 245.144531 C 359.808594 246.480469 357.808594 246.480469 357.808594 245.144531 C 357.808594 243.8125 359.808594 243.8125 359.808594 245.144531 "/>
<path style=" stroke:none;fill-rule:nonzero;fill:rgb(100%,0%,0%);fill-opacity:1;" d="M 376.03125 243.414062 C 376.03125 244.746094 374.03125 244.746094 374.03125 243.414062 C 374.03125 242.082031 376.03125 242.082031 376.03125 243.414062 "/>
<path style=" stroke:none;fill-rule:nonzero;fill:rgb(100%,0%,0%);fill-opacity:1;" d="M 263.671875 161.527344 C 263.671875 162.859375 261.671875 162.859375 261.671875 161.527344 C 261.671875 160.195312 263.671875 160.195312 263.671875 161.527344 "/>
<path style=" stroke:none;fill-rule:nonzero;fill:rgb(100%,0%,0%);fill-opacity:1;" d="M 188.402344 433.378906 C 188.402344 434.714844 186.402344 434.714844 186.402344 433.378906 C 186.402344 432.046875 188.402344 432.046875 188.402344 433.378906 "/>
<path style=" stroke:none;fill-rule:nonzero;fill:rgb(100%,0%,0%);fill-opacity:1;" d="M 434.5625 111.507812 C 434.5625 112.839844 432.5625 112.839844 432.5625 111.507812 C 432.5625 110.175781 434.5625 110.175781 434.5625 111.507812 "/>
<path style=" stroke:none;fill-rule:nonzero;fill:rgb(100%,0%,0%);fill-opacity:1;" d="M 423.015625 105.460938 C 423.015625 106.792969 421.015625 106.792969 421.015625 105.460938 C 421.015625 104.128906 423.015625 104.128906 423.015625 105.460938 "/>
<path style=" stroke:none;fill-rule:nonzero;fill:rgb(100%,0%,0%);fill-opacity:1;" d="M 333.035156 305.148438 C 333.035156 306.480469 331.035156 306.480469 331.035156 305.148438 C 331.035156 303.8125 333.035156 303.8125 333.035156 305.148438 "/>
<path style=" stroke:none;fill-rule:nonzero;fill:rgb(100%,0%,0%);fill-opacity:1;" d="M 346.816406 289.949219 C 346.816406 291.28125 344.816406 291.28125 344.816406 289.949219 C 344.816406 288.613281 346.816406 288.613281 346.816406 289.949219 "/>
<path style=" stroke:none;fill-rule:nonzero;fill:rgb(100%,0%,0%);fill-opacity:1;" d="M 332.621094 580 C 332.621094 581.332031 330.621094 581.332031 330.621094 580 C 330.621094 578.667969 332.621094 578.667969 332.621094 580 "/>
<path style=" stroke:none;fill-rule:nonzero;fill:rgb(100%,0%,0%);fill-opacity:1;" d="M 344.988281 575.398438 C 344.988281 576.730469 342.988281 576.730469 342.988281 575.398438 C 342.988281 574.0625 344.988281 574.0625 344.988281 575.398438 "/>
<path style=" stroke:none;fill-rule:nonzero;fill:rgb(100%,0%,0%);fill-opacity:1;" d="M 434.238281 59.148438 C 434.238281 60.480469 432.238281 60.480469 432.238281 59.148438 C 432.238281 57.816406 434.238281 57.816406 434.238281 59.148438 "/>
<path style=" stroke:none;fill-rule:nonzero;fill:rgb(100%,0%,0%);fill-opacity:1;" d="M 446.960938 62.59375 C 446.960938 63.925781 444.960938 63.925781 444.960938 62.59375 C 444.960938 61.257812 446.960938 61.257812 446.960938 62.59375 "/>
<path style=" stroke:none;fill-rule:nonzero;fill:rgb(100%,0%,0%);fill-opacity:1;" d="M 118.96875 375.410156 C 118.96875 376.742188 116.96875 376.742188 116.96875 375.410156 C 116.96875 374.074219 118.96875 374.074219 118.96875 375.410156 "/>
<path style=" stroke:none;fill-rule:nonzero;fill:rgb(100%,0%,0%);fill-opacity:1;" d="M 110.984375 365.890625 C 110.984375 367.222656 108.984375 367.222656 108.984375 365.890625 C 108.984375 364.558594 110.984375 364.558594 110.984375 365.890625 "/>
<path style=" stroke:none;fill-rule:nonzero;fill:rgb(100%,0%,0%);fill-opacity:1;" d="M 95.082031 429.425781 C 95.082031 430.757812 93.082031 430.757812 93.082031 429.425781 C 93.082031 428.089844 95.082031 428.089844 95.082031 429.425781 "/>
<path style=" stroke:none;fill-rule:nonzero;fill:rgb(100%,0%,0%);fill-opacity:1;" d="M 82.730469 423.226562 C 82.730469 424.558594 80.730469 424.558594 80.730469 423.226562 C 80.730469 421.894531 82.730469 421.894531 82.730469 423.226562 "/>
<path style=" stroke:none;fill-rule:nonzero;fill:rgb(100%,0%,0%);fill-opacity:1;" d="M 239.035156 468.921875 C 239.035156 470.253906 237.035156 470.253906 237.035156 468.921875 C 237.035156 467.585938 239.035156 467.585938 239.035156 468.921875 "/>
<path style=" stroke:none;fill-rule:nonzero;fill:rgb(100%,0%,0%);fill-opacity:1;" d="M 247.613281 459.417969 C 247.613281 460.75 245.613281 460.75 245.613281 459.417969 C 245.613281 458.085938 247.613281 458.085938 247.613281 459.417969 "/>
<path style=" stroke:none;fill-rule:nonzero;fill:rgb(100%,0%,0%);fill-opacity:1;" d="M 106.074219 276.113281 C 106.074219 277.445312 104.074219 277.445312 104.074219 276.113281 C 104.074219 274.777344 106.074219 274.777344 106.074219 276.113281 "/>
<path style=" stroke:none;fill-rule:nonzero;fill:rgb(100%,0%,0%);fill-opacity:1;" d="M 92.9375 276.535156 C 92.9375 277.867188 90.9375 277.867188 90.9375 276.535156 C 90.9375 275.203125 92.9375 275.203125 92.9375 276.535156 "/>
<path style=" stroke:none;fill-rule:nonzero;fill:rgb(100%,0%,0%);fill-opacity:1;" d="M 74.246094 482.386719 C 74.246094 483.71875 72.246094 483.71875 72.246094 482.386719 C 72.246094 481.054688 74.246094 481.054688 74.246094 482.386719 "/>
<path style=" stroke:none;fill-rule:nonzero;fill:rgb(100%,0%,0%);fill-opacity:1;" d="M 87.347656 481.144531 C 87.347656 482.476562 85.347656 482.476562 85.347656 481.144531 C 85.347656 479.8125 87.347656 479.8125 87.347656 481.144531 "/>
<path style=" stroke:none;fill-rule:nonzero;fill:rgb(100%,0%,0%);fill-opacity:1;" d="M 515.066406 418.042969 C 515.066406 419.375 513.066406 419.375 513.066406 418.042969 C 513.066406 416.707031 515.066406 416.707031 515.066406 418.042969 "/>
<path style=" stroke:none;fill-rule:nonzero;fill:rgb(100%,0%,0%);fill-opacity:1;" d="M 521.476562 428.894531 C 521.476562 430.226562 519.476562 430.226562 519.476562 428.894531 C 519.476562 427.558594 521.476562 427.558594 521.476562 428.894531 "/>
<path style=" stroke:none;fill-rule:nonzero;fill:rgb(100%,0%,0%);fill-opacity:1;" d="M 180.492188 61.316406 C 180.492188 62.648438 178.492188 62.648438 178.492188 61.316406 C 178.492188 59.984375 180.492188 59.984375 180.492188 61.316406 "/>
<path style=" stroke:none;fill-rule:nonzero;fill:rgb(100%,0%,0%);fill-opacity:1;" d="M 168.125 57.257812 C 168.125 58.589844 166.125 58.589844 166.125 57.257812 C 166.125 55.921875 168.125 55.921875 168.125 57.257812 "/>
<path style=" stroke:none;fill-rule:nonzero;fill:rgb(100%,0%,0%);fill-opacity:1;" d="M 21.394531 197.652344 C 21.394531 198.984375 19.394531 198.984375 19.394531 197.652344 C 19.394531 196.316406 21.394531 196.316406 21.394531 197.652344 "/>
<path style=" stroke:none;fill-rule:nonzero;fill:rgb(100%,0%,0%);fill-opacity:1;" d="M 21.847656 210.050781 C 21.847656 211.386719 19.847656 211.386719 19.847656 210.050781 C 19.847656 208.71875 21.847656 208.71875 21.847656 210.050781 "/>
<path style=" stroke:none;fill-rule:nonzero;fill:rgb(100%,0%,0%);fill-opacity:1;" d="M 210.632812 543.75 C 210.632812 545.085938 208.632812 545.085938 208.632812 543.75 C 208.632812 542.417969 210.632812 542.417969 210.632812 543.75 "/>
<path style=" stroke:none;fill-rule:nonzero;fill:rgb(100%,0%,0%);fill-opacity:1;" d="M 197.636719 545.457031 C 197.636719 546.789062 195.636719 546.789062 195.636719 545.457031 C 195.636719 544.125 197.636719 544.125 197.636719 545.457031 "/>
<path style=" stroke:none;fill-rule:nonzero;fill:rgb(100%,0%,0%);fill-opacity:1;" d="M 107.945312 131.640625 C 107.945312 132.972656 105.945312 132.972656 105.945312 131.640625 C 105.945312 130.304688 107.945312 130.304688 107.945312 131.640625 "/>
<path style=" stroke:none;fill-rule:nonzero;fill:rgb(100%,0%,0%);fill-opacity:1;" d="M 120.914062 129.082031 C 120.914062 130.417969 118.914062 130.417969 118.914062 129.082031 C 118.914062 127.75 120.914062 127.75 120.914062 129.082031 "/>
<path style=" stroke:none;fill-rule:nonzero;fill:rgb(100%,0%,0%);fill-opacity:1;" d="M 539.5 203.429688 C 539.5 204.761719 537.5 204.761719 537.5 203.429688 C 537.5 202.09375 539.5 202.09375 539.5 203.429688 "/>
<path style=" stroke:none;fill-rule:nonzero;fill:rgb(100%,0%,0%);fill-opacity:1;" d="M 548.070312 193.011719 C 548.070312 194.347656 546.070312 194.347656 546.070312 193.011719 C 546.070312 191.679688 548.070312 191.679688 548.070312 193.011719 "/>
<path style=" stroke:none;fill-rule:nonzero;fill:rgb(100%,0%,0%);fill-opacity:1;" d="M 531.253906 214.03125 C 531.253906 215.363281 529.253906 215.363281 529.253906 214.03125 C 529.253906 212.695312 531.253906 212.695312 531.253906 214.03125 "/>
<path style=" stroke:none;fill-rule:nonzero;fill:rgb(100%,0%,0%);fill-opacity:1;" d="M 323.378906 207.921875 C 323.378906 209.253906 321.378906 209.253906 321.378906 207.921875 C 321.378906 206.589844 323.378906 206.589844 323.378906 207.921875 "/>
<path style=" stroke:none;fill-rule:nonzero;fill:rgb(100%,0%,0%);fill-opacity:1;" d="M 327.371094 222.257812 C 327.371094 223.59375 325.371094 223.59375 325.371094 222.257812 C 325.371094 220.925781 327.371094 220.925781 327.371094 222.257812 "/>
<path style=" stroke:none;fill-rule:nonzero;fill:rgb(100%,0%,0%);fill-opacity:1;" d="M 359.304688 227.519531 C 359.304688 228.855469 357.304688 228.855469 357.304688 227.519531 C 357.304688 226.1875 359.304688 226.1875 359.304688 227.519531 "/>
<path style=" stroke:none;fill-rule:nonzero;fill:rgb(100%,0%,0%);fill-opacity:1;" d="M 389.25 172.894531 C 389.25 174.230469 387.25 174.230469 387.25 172.894531 C 387.25 171.5625 389.25 171.5625 389.25 172.894531 "/>
<path style=" stroke:none;fill-rule:nonzero;fill:rgb(100%,0%,0%);fill-opacity:1;" d="M 364.972656 175.320312 C 364.972656 176.65625 362.972656 176.65625 362.972656 175.320312 C 362.972656 173.988281 364.972656 173.988281 364.972656 175.320312 "/>
<path style=" stroke:none;fill-rule:nonzero;fill:rgb(100%,0%,0%);fill-opacity:1;" d="M 406.304688 173.171875 C 406.304688 174.503906 404.304688 174.503906 404.304688 173.171875 C 404.304688 171.839844 406.304688 171.839844 406.304688 173.171875 "/>
<path style=" stroke:none;fill-rule:nonzero;fill:rgb(100%,0%,0%);fill-opacity:1;" d="M 306.40625 396.75 C 306.40625 398.082031 304.40625 398.082031 304.40625 396.75 C 304.40625 395.417969 306.40625 395.417969 306.40625 396.75 "/>
<path style=" stroke:none;fill-rule:nonzero;fill:rgb(100%,0%,0%);fill-opacity:1;" d="M 303.714844 384.695312 C 303.714844 386.027344 301.714844 386.027344 301.714844 384.695312 C 301.714844 383.359375 303.714844 383.359375 303.714844 384.695312 "/>
<path style=" stroke:none;fill-rule:nonzero;fill:rgb(100%,0%,0%);fill-opacity:1;" d="M 367.859375 413.867188 C 367.859375 415.203125 365.859375 415.203125 365.859375 413.867188 C 365.859375 412.535156 367.859375 412.535156 367.859375 413.867188 "/>
<path style=" stroke:none;fill-rule:nonzero;fill:rgb(100%,0%,0%);fill-opacity:1;" d="M 372.214844 428.183594 C 372.214844 429.515625 370.214844 429.515625 370.214844 428.183594 C 370.214844 426.847656 372.214844 426.847656 372.214844 428.183594 "/>
<path style=" stroke:none;fill-rule:nonzero;fill:rgb(100%,0%,0%);fill-opacity:1;" d="M 352.003906 417.511719 C 352.003906 418.84375 350.003906 418.84375 350.003906 417.511719 C 350.003906 416.179688 352.003906 416.179688 352.003906 417.511719 "/>
<path style=" stroke:none;fill-rule:nonzero;fill:rgb(100%,0%,0%);fill-opacity:1;" d="M 383.871094 410.871094 C 383.871094 412.203125 381.871094 412.203125 381.871094 410.871094 C 381.871094 409.539062 383.871094 409.539062 383.871094 410.871094 "/>
<path style=" stroke:none;fill-rule:nonzero;fill:rgb(100%,0%,0%);fill-opacity:1;" d="M 363.414062 399.449219 C 363.414062 400.785156 361.414062 400.785156 361.414062 399.449219 C 361.414062 398.117188 363.414062 398.117188 363.414062 399.449219 "/>
<path style=" stroke:none;fill-rule:nonzero;fill:rgb(100%,0%,0%);fill-opacity:1;" d="M 367.316406 42.707031 C 367.316406 44.039062 365.316406 44.039062 365.316406 42.707031 C 365.316406 41.375 367.316406 41.375 367.316406 42.707031 "/>
<path style=" stroke:none;fill-rule:nonzero;fill:rgb(100%,0%,0%);fill-opacity:1;" d="M 354.308594 41.003906 C 354.308594 42.339844 352.308594 42.339844 352.308594 41.003906 C 352.308594 39.671875 354.308594 39.671875 354.308594 41.003906 "/>
<path style=" stroke:none;fill-rule:nonzero;fill:rgb(100%,0%,0%);fill-opacity:1;" d="M 237.144531 63.253906 C 237.144531 64.585938 235.144531 64.585938 235.144531 63.253906 C 235.144531 61.921875 237.144531 61.921875 237.144531 63.253906 "/>
<path style=" stroke:none;fill-rule:nonzero;fill:rgb(100%,0%,0%);fill-opacity:1;" d="M 250.277344 64.257812 C 250.277344 65.589844 248.277344 65.589844 248.277344 64.257812 C 248.277344 62.925781 250.277344 62.925781 250.277344 64.257812 "/>
<path style=" stroke:none;fill-rule:nonzero;fill:rgb(100%,0%,0%);fill-opacity:1;" d="M 120.140625 314.066406 C 120.140625 315.398438 118.140625 315.398438 118.140625 314.066406 C 118.140625 312.730469 120.140625 312.730469 120.140625 314.066406 "/>
<path style=" stroke:none;fill-rule:nonzero;fill:rgb(100%,0%,0%);fill-opacity:1;" d="M 132.925781 315.78125 C 132.925781 317.117188 130.925781 317.117188 130.925781 315.78125 C 130.925781 314.449219 132.925781 314.449219 132.925781 315.78125 "/>
<path style=" stroke:none;fill-rule:nonzero;fill:rgb(100%,0%,0%);fill-opacity:1;" d="M 282.859375 23.457031 C 282.859375 24.789062 280.859375 24.789062 280.859375 23.457031 C 280.859375 22.125 282.859375 22.125 282.859375 23.457031 "/>
<path style=" stroke:none;fill-rule:nonzero;fill:rgb(100%,0%,0%);fill-opacity:1;" d="M 270.175781 20 C 270.175781 21.332031 268.175781 21.332031 268.175781 20 C 268.175781 18.667969 270.175781 18.667969 270.175781 20 "/>
<path style=" stroke:none;fill-rule:nonzero;fill:rgb(100%,0%,0%);fill-opacity:1;" d="M 166.234375 419.640625 C 166.234375 420.976562 164.234375 420.976562 164.234375 419.640625 C 164.234375 418.308594 166.234375 418.308594 166.234375 419.640625 "/>
<path style=" stroke:none;fill-rule:nonzero;fill:rgb(100%,0%,0%);fill-opacity:1;" d="M 151.910156 412.695312 C 151.910156 414.03125 149.910156 414.03125 149.910156 412.695312 C 149.910156 411.363281 151.910156 411.363281 151.910156 412.695312 "/>
<path style=" stroke:none;fill-rule:nonzero;fill:rgb(100%,0%,0%);fill-opacity:1;" d="M 171.828125 405.144531 C 171.828125 406.476562 169.828125 406.476562 169.828125 405.144531 C 169.828125 403.808594 171.828125 403.808594 171.828125 405.144531 "/>
<path style=" stroke:none;fill-rule:nonzero;fill:rgb(100%,0%,0%);fill-opacity:1;" d="M 510.039062 126.730469 C 510.039062 128.066406 508.039062 128.066406 508.039062 126.730469 C 508.039062 125.398438 510.039062 125.398438 510.039062 126.730469 "/>
<path style=" stroke:none;fill-rule:nonzero;fill:rgb(100%,0%,0%);fill-opacity:1;" d="M 500.308594 118.382812 C 500.308594 119.714844 498.308594 119.714844 498.308594 118.382812 C 498.308594 117.046875 500.308594 117.046875 500.308594 118.382812 "/>
<path style=" stroke:none;fill-rule:nonzero;fill:rgb(100%,0%,0%);fill-opacity:1;" d="M 478.964844 468.117188 C 478.964844 469.449219 476.964844 469.449219 476.964844 468.117188 C 476.964844 466.78125 478.964844 466.78125 478.964844 468.117188 "/>
<path style=" stroke:none;fill-rule:nonzero;fill:rgb(100%,0%,0%);fill-opacity:1;" d="M 477.285156 455.875 C 477.285156 457.210938 475.285156 457.210938 475.285156 455.875 C 475.285156 454.542969 477.285156 454.542969 477.285156 455.875 "/>
<path style=" stroke:none;fill-rule:nonzero;fill:rgb(100%,0%,0%);fill-opacity:1;" d="M 303.855469 209.527344 C 303.855469 210.859375 301.855469 210.859375 301.855469 209.527344 C 301.855469 208.191406 303.855469 208.191406 303.855469 209.527344 "/>
<path style=" stroke:none;fill-rule:nonzero;fill:rgb(100%,0%,0%);fill-opacity:1;" d="M 289.902344 216.285156 C 289.902344 217.617188 287.902344 217.617188 287.902344 216.285156 C 287.902344 214.953125 289.902344 214.953125 289.902344 216.285156 "/>
<path style=" stroke:none;fill-rule:nonzero;fill:rgb(100%,0%,0%);fill-opacity:1;" d="M 305.652344 227.417969 C 305.652344 228.75 303.652344 228.75 303.652344 227.417969 C 303.652344 226.082031 305.652344 226.082031 305.652344 227.417969 "/>
<path style=" stroke:none;fill-rule:nonzero;fill:rgb(100%,0%,0%);fill-opacity:1;" d="M 371 259.121094 C 371 260.453125 369 260.453125 369 259.121094 C 369 257.785156 371 257.785156 371 259.121094 "/>
<path style=" stroke:none;fill-rule:nonzero;fill:rgb(100%,0%,0%);fill-opacity:1;" d="M 381.226562 268.339844 C 381.226562 269.675781 379.226562 269.675781 379.226562 268.339844 C 379.226562 267.007812 381.226562 267.007812 381.226562 268.339844 "/>
<path style=" stroke:none;fill-rule:nonzero;fill:rgb(100%,0%,0%);fill-opacity:1;" d="M 369.113281 278.765625 C 369.113281 280.101562 367.113281 280.101562 367.113281 278.765625 C 367.113281 277.433594 369.113281 277.433594 369.113281 278.765625 "/>
<path style=" stroke:none;fill-rule:nonzero;fill:rgb(100%,0%,0%);fill-opacity:1;" d="M 389.292969 280.164062 C 389.292969 281.5 387.292969 281.5 387.292969 280.164062 C 387.292969 278.832031 389.292969 278.832031 389.292969 280.164062 "/>
<path style=" stroke:none;fill-rule:nonzero;fill:rgb(100%,0%,0%);fill-opacity:1;" d="M 399.601562 264.027344 C 399.601562 265.359375 397.601562 265.359375 397.601562 264.027344 C 397.601562 262.695312 399.601562 262.695312 399.601562 264.027344 "/>
<path style=" stroke:none;fill-rule:nonzero;fill:rgb(100%,0%,0%);fill-opacity:1;" d="M 347.085938 218.980469 C 347.085938 220.316406 345.085938 220.316406 345.085938 218.980469 C 345.085938 217.648438 347.085938 217.648438 347.085938 218.980469 "/>
<path style=" stroke:none;fill-rule:nonzero;fill:rgb(100%,0%,0%);fill-opacity:1;" d="M 355.65625 265.785156 C 355.65625 267.117188 353.65625 267.117188 353.65625 265.785156 C 353.65625 264.449219 355.65625 264.449219 355.65625 265.785156 "/>
<path style=" stroke:none;fill-rule:nonzero;fill:rgb(100%,0%,0%);fill-opacity:1;" d="M 389.464844 253.214844 C 389.464844 254.546875 387.464844 254.546875 387.464844 253.214844 C 387.464844 251.882812 389.464844 251.882812 389.464844 253.214844 "/>
<path style=" stroke:none;fill-rule:nonzero;fill:rgb(100%,0%,0%);fill-opacity:1;" d="M 263.867188 141.359375 C 263.867188 142.691406 261.867188 142.691406 261.867188 141.359375 C 261.867188 140.027344 263.867188 140.027344 263.867188 141.359375 "/>
<path style=" stroke:none;fill-rule:nonzero;fill:rgb(100%,0%,0%);fill-opacity:1;" d="M 255.074219 126.3125 C 255.074219 127.648438 253.074219 127.648438 253.074219 126.3125 C 253.074219 124.980469 255.074219 124.980469 255.074219 126.3125 "/>
<path style=" stroke:none;fill-rule:nonzero;fill:rgb(100%,0%,0%);fill-opacity:1;" d="M 524.523438 296.582031 C 524.523438 297.914062 522.523438 297.914062 522.523438 296.582031 C 522.523438 295.25 524.523438 295.25 524.523438 296.582031 "/>
<path style=" stroke:none;fill-rule:nonzero;fill:rgb(100%,0%,0%);fill-opacity:1;" d="M 513.65625 303.535156 C 513.65625 304.871094 511.65625 304.871094 511.65625 303.535156 C 511.65625 302.203125 513.65625 302.203125 513.65625 303.535156 "/>
<path style=" stroke:none;fill-rule:nonzero;fill:rgb(100%,0%,0%);fill-opacity:1;" d="M 485.621094 233.125 C 485.621094 234.457031 483.621094 234.457031 483.621094 233.125 C 483.621094 231.789062 485.621094 231.789062 485.621094 233.125 "/>
<path style=" stroke:none;fill-rule:nonzero;fill:rgb(100%,0%,0%);fill-opacity:1;" d="M 491.671875 245.003906 C 491.671875 246.335938 489.671875 246.335938 489.671875 245.003906 C 489.671875 243.671875 491.671875 243.671875 491.671875 245.003906 "/>
<path style=" stroke:none;fill-rule:nonzero;fill:rgb(100%,0%,0%);fill-opacity:1;" d="M 25.253906 363.007812 C 25.253906 364.339844 23.253906 364.339844 23.253906 363.007812 C 23.253906 361.675781 25.253906 361.675781 25.253906 363.007812 "/>
<path style=" stroke:none;fill-rule:nonzero;fill:rgb(100%,0%,0%);fill-opacity:1;" d="M 29.375 375.722656 C 29.375 377.054688 27.375 377.054688 27.375 375.722656 C 27.375 374.390625 29.375 374.390625 29.375 375.722656 "/>
<path style=" stroke:none;fill-rule:nonzero;fill:rgb(100%,0%,0%);fill-opacity:1;" d="M 21 350.304688 C 21 351.636719 19 351.636719 19 350.304688 C 19 348.972656 21 348.972656 21 350.304688 "/>
<path style=" stroke:none;fill-rule:nonzero;fill:rgb(100%,0%,0%);fill-opacity:1;" d="M 382.65625 333.230469 C 382.65625 334.5625 380.65625 334.5625 380.65625 333.230469 C 380.65625 331.894531 382.65625 331.894531 382.65625 333.230469 "/>
<path style=" stroke:none;fill-rule:nonzero;fill:rgb(100%,0%,0%);fill-opacity:1;" d="M 369.496094 334.394531 C 369.496094 335.726562 367.496094 335.726562 367.496094 334.394531 C 367.496094 333.058594 369.496094 333.058594 369.496094 334.394531 "/>
<path style=" stroke:none;fill-rule:nonzero;fill:rgb(100%,0%,0%);fill-opacity:1;" d="M 280.273438 307.359375 C 280.273438 308.691406 278.273438 308.691406 278.273438 307.359375 C 278.273438 306.027344 280.273438 306.027344 280.273438 307.359375 "/>
<path style=" stroke:none;fill-rule:nonzero;fill:rgb(100%,0%,0%);fill-opacity:1;" d="M 287.3125 321.496094 C 287.3125 322.832031 285.3125 322.832031 285.3125 321.496094 C 285.3125 320.164062 287.3125 320.164062 287.3125 321.496094 "/>
<path style=" stroke:none;fill-rule:nonzero;fill:rgb(100%,0%,0%);fill-opacity:1;" d="M 272.121094 287.605469 C 272.121094 288.941406 270.121094 288.941406 270.121094 287.605469 C 270.121094 286.273438 272.121094 286.273438 272.121094 287.605469 "/>
<path style=" stroke:none;fill-rule:nonzero;fill:rgb(100%,0%,0%);fill-opacity:1;" d="M 70.28125 187.539062 C 70.28125 188.871094 68.28125 188.871094 68.28125 187.539062 C 68.28125 186.207031 70.28125 186.207031 70.28125 187.539062 "/>
<path style=" stroke:none;fill-rule:nonzero;fill:rgb(100%,0%,0%);fill-opacity:1;" d="M 69.464844 175.230469 C 69.464844 176.5625 67.464844 176.5625 67.464844 175.230469 C 67.464844 173.898438 69.464844 173.898438 69.464844 175.230469 "/>
<path style=" stroke:none;fill-rule:nonzero;fill:rgb(100%,0%,0%);fill-opacity:1;" d="M 280 151.90625 C 280 153.242188 278 153.242188 278 151.90625 C 278 150.574219 280 150.574219 280 151.90625 "/>
<path style=" stroke:none;fill-rule:nonzero;fill:rgb(100%,0%,0%);fill-opacity:1;" d="M 406.375 364.039062 C 406.375 365.371094 404.375 365.371094 404.375 364.039062 C 404.375 362.703125 406.375 362.703125 406.375 364.039062 "/>
<path style=" stroke:none;fill-rule:nonzero;fill:rgb(100%,0%,0%);fill-opacity:1;" d="M 392.480469 363.394531 C 392.480469 364.726562 390.480469 364.726562 390.480469 363.394531 C 390.480469 362.0625 392.480469 362.0625 392.480469 363.394531 "/>
<path style=" stroke:none;fill-rule:nonzero;fill:rgb(100%,0%,0%);fill-opacity:1;" d="M 419.914062 366.480469 C 419.914062 367.816406 417.914062 367.816406 417.914062 366.480469 C 417.914062 365.148438 419.914062 365.148438 419.914062 366.480469 "/>
<path style=" stroke:none;fill-rule:nonzero;fill:rgb(100%,0%,0%);fill-opacity:1;" d="M 187.464844 451.605469 C 187.464844 452.9375 185.464844 452.9375 185.464844 451.605469 C 185.464844 450.269531 187.464844 450.269531 187.464844 451.605469 "/>
<path style=" stroke:none;fill-rule:nonzero;fill:rgb(100%,0%,0%);fill-opacity:1;" d="M 568.027344 385.976562 C 568.027344 387.308594 566.027344 387.308594 566.027344 385.976562 C 566.027344 384.644531 568.027344 384.644531 568.027344 385.976562 "/>
<path style=" stroke:none;fill-rule:nonzero;fill:rgb(100%,0%,0%);fill-opacity:1;" d="M 555.652344 390.128906 C 555.652344 391.464844 553.652344 391.464844 553.652344 390.128906 C 553.652344 388.796875 555.652344 388.796875 555.652344 390.128906 "/>
<path style=" stroke:none;fill-rule:nonzero;fill:rgb(100%,0%,0%);fill-opacity:1;" d="M 330.710938 287.96875 C 330.710938 289.300781 328.710938 289.300781 328.710938 287.96875 C 328.710938 286.632812 330.710938 286.632812 330.710938 287.96875 "/>
<path style=" stroke:none;fill-rule:nonzero;fill:rgb(100%,0%,0%);fill-opacity:1;" d="M 157.25 442.433594 C 157.25 443.765625 155.25 443.765625 155.25 442.433594 C 155.25 441.101562 157.25 441.101562 157.25 442.433594 "/>
<path style=" stroke:none;fill-rule:nonzero;fill:rgb(100%,0%,0%);fill-opacity:1;" d="M 127.121094 86.804688 C 127.121094 88.136719 125.121094 88.136719 125.121094 86.804688 C 125.121094 85.46875 127.121094 85.46875 127.121094 86.804688 "/>
<path style=" stroke:none;fill-rule:nonzero;fill:rgb(100%,0%,0%);fill-opacity:1;" d="M 113.949219 85.71875 C 113.949219 87.050781 111.949219 87.050781 111.949219 85.71875 C 111.949219 84.386719 113.949219 84.386719 113.949219 85.71875 "/>
<path style=" stroke:none;fill-rule:nonzero;fill:rgb(100%,0%,0%);fill-opacity:1;" d="M 174.078125 319.449219 C 174.078125 320.785156 172.078125 320.785156 172.078125 319.449219 C 172.078125 318.117188 174.078125 318.117188 174.078125 319.449219 "/>
<path style=" stroke:none;fill-rule:nonzero;fill:rgb(100%,0%,0%);fill-opacity:1;" d="M 176.449219 331.554688 C 176.449219 332.886719 174.449219 332.886719 174.449219 331.554688 C 174.449219 330.222656 176.449219 330.222656 176.449219 331.554688 "/>
<path style=" stroke:none;fill-rule:nonzero;fill:rgb(100%,0%,0%);fill-opacity:1;" d="M 258.386719 253.414062 C 258.386719 254.746094 256.386719 254.746094 256.386719 253.414062 C 256.386719 252.078125 258.386719 252.078125 258.386719 253.414062 "/>
<path style=" stroke:none;fill-rule:nonzero;fill:rgb(100%,0%,0%);fill-opacity:1;" d="M 267.882812 241.089844 C 267.882812 242.421875 265.882812 242.421875 265.882812 241.089844 C 265.882812 239.753906 267.882812 239.753906 267.882812 241.089844 "/>
<path style=" stroke:none;fill-rule:nonzero;fill:rgb(100%,0%,0%);fill-opacity:1;" d="M 252.664062 234.949219 C 252.664062 236.28125 250.664062 236.28125 250.664062 234.949219 C 250.664062 233.617188 252.664062 233.617188 252.664062 234.949219 "/>
<path style=" stroke:none;fill-rule:nonzero;fill:rgb(100%,0%,0%);fill-opacity:1;" d="M 277.539062 253.292969 C 277.539062 254.625 275.539062 254.625 275.539062 253.292969 C 275.539062 251.960938 277.539062 251.960938 277.539062 253.292969 "/>
<path style=" stroke:none;fill-rule:nonzero;fill:rgb(100%,0%,0%);fill-opacity:1;" d="M 275.324219 267.445312 C 275.324219 268.777344 273.324219 268.777344 273.324219 267.445312 C 273.324219 266.109375 275.324219 266.109375 275.324219 267.445312 "/>
<path style=" stroke:none;fill-rule:nonzero;fill:rgb(100%,0%,0%);fill-opacity:1;" d="M 243.269531 246.089844 C 243.269531 247.421875 241.269531 247.421875 241.269531 246.089844 C 241.269531 244.753906 243.269531 244.753906 243.269531 246.089844 "/>
<path style=" stroke:none;fill-rule:nonzero;fill:rgb(100%,0%,0%);fill-opacity:1;" d="M 235.113281 273.570312 C 235.113281 274.90625 233.113281 274.90625 233.113281 273.570312 C 233.113281 272.238281 235.113281 272.238281 235.113281 273.570312 "/>
<path style=" stroke:none;fill-rule:nonzero;fill:rgb(100%,0%,0%);fill-opacity:1;" d="M 260.296875 268.648438 C 260.296875 269.980469 258.296875 269.980469 258.296875 268.648438 C 258.296875 267.3125 260.296875 267.3125 260.296875 268.648438 "/>
<path style=" stroke:none;fill-rule:nonzero;fill:rgb(100%,0%,0%);fill-opacity:1;" d="M 230.445312 258.171875 C 230.445312 259.507812 228.445312 259.507812 228.445312 258.171875 C 228.445312 256.839844 230.445312 256.839844 230.445312 258.171875 "/>
<path style=" stroke:none;fill-rule:nonzero;fill:rgb(100%,0%,0%);fill-opacity:1;" d="M 246.175781 261.863281 C 246.175781 263.195312 244.175781 263.195312 244.175781 261.863281 C 244.175781 260.53125 246.175781 260.53125 246.175781 261.863281 "/>
<path style=" stroke:none;fill-rule:nonzero;fill:rgb(100%,0%,0%);fill-opacity:1;" d="M 250.570312 280.28125 C 250.570312 281.613281 248.570312 281.613281 248.570312 280.28125 C 248.570312 278.945312 250.570312 278.945312 250.570312 280.28125 "/>
<path style=" stroke:none;fill-rule:nonzero;fill:rgb(100%,0%,0%);fill-opacity:1;" d="M 147.230469 242.085938 C 147.230469 243.417969 145.230469 243.417969 145.230469 242.085938 C 145.230469 240.75 147.230469 240.75 147.230469 242.085938 "/>
<path style=" stroke:none;fill-rule:nonzero;fill:rgb(100%,0%,0%);fill-opacity:1;" d="M 145.015625 229.882812 C 145.015625 231.21875 143.015625 231.21875 143.015625 229.882812 C 143.015625 228.550781 145.015625 228.550781 145.015625 229.882812 "/>
<path style=" stroke:none;fill-rule:nonzero;fill:rgb(100%,0%,0%);fill-opacity:1;" d="M 426.839844 473.578125 C 426.839844 474.914062 424.839844 474.914062 424.839844 473.578125 C 424.839844 472.246094 426.839844 472.246094 426.839844 473.578125 "/>
<path style=" stroke:none;fill-rule:nonzero;fill:rgb(100%,0%,0%);fill-opacity:1;" d="M 429.402344 485.757812 C 429.402344 487.09375 427.402344 487.09375 427.402344 485.757812 C 427.402344 484.425781 429.402344 484.425781 429.402344 485.757812 "/>
<path style=" stroke:none;fill-rule:nonzero;fill:rgb(100%,0%,0%);fill-opacity:1;" d="M 313.277344 170.847656 C 313.277344 172.179688 311.277344 172.179688 311.277344 170.847656 C 311.277344 169.511719 313.277344 169.511719 313.277344 170.847656 "/>
<path style=" stroke:none;fill-rule:nonzero;fill:rgb(100%,0%,0%);fill-opacity:1;" d="M 346.757812 171.027344 C 346.757812 172.359375 344.757812 172.359375 344.757812 171.027344 C 344.757812 169.695312 346.757812 169.695312 346.757812 171.027344 "/>
<path style=" stroke:none;fill-rule:nonzero;fill:rgb(100%,0%,0%);fill-opacity:1;" d="M 342.578125 156.816406 C 342.578125 158.148438 340.578125 158.148438 340.578125 156.816406 C 340.578125 155.480469 342.578125 155.480469 342.578125 156.816406 "/>
<path style=" stroke:none;fill-rule:nonzero;fill:rgb(100%,0%,0%);fill-opacity:1;" d="M 328.867188 148.007812 C 328.867188 149.34375 326.867188 149.34375 326.867188 148.007812 C 326.867188 146.675781 328.867188 146.675781 328.867188 148.007812 "/>
<path style=" stroke:none;fill-rule:nonzero;fill:rgb(100%,0%,0%);fill-opacity:1;" d="M 326.082031 162.945312 C 326.082031 164.277344 324.082031 164.277344 324.082031 162.945312 C 324.082031 161.613281 326.082031 161.613281 326.082031 162.945312 "/>
<path style=" stroke:none;fill-rule:nonzero;fill:rgb(100%,0%,0%);fill-opacity:1;" d="M 299.441406 181.484375 C 299.441406 182.820312 297.441406 182.820312 297.441406 181.484375 C 297.441406 180.152344 299.441406 180.152344 299.441406 181.484375 "/>
<path style=" stroke:none;fill-rule:nonzero;fill:rgb(100%,0%,0%);fill-opacity:1;" d="M 302.328125 163.195312 C 302.328125 164.53125 300.328125 164.53125 300.328125 163.195312 C 300.328125 161.863281 302.328125 161.863281 302.328125 163.195312 "/>
<path style=" stroke:none;fill-rule:nonzero;fill:rgb(100%,0%,0%);fill-opacity:1;" d="M 312.859375 151.390625 C 312.859375 152.726562 310.859375 152.726562 310.859375 151.390625 C 310.859375 150.058594 312.859375 150.058594 312.859375 151.390625 "/>
<path style=" stroke:none;fill-rule:nonzero;fill:rgb(100%,0%,0%);fill-opacity:1;" d="M 309.78125 191.863281 C 309.78125 193.199219 307.78125 193.199219 307.78125 191.863281 C 307.78125 190.53125 309.78125 190.53125 309.78125 191.863281 "/>
<path style=" stroke:none;fill-rule:nonzero;fill:rgb(100%,0%,0%);fill-opacity:1;" d="M 344.988281 188.128906 C 344.988281 189.464844 342.988281 189.464844 342.988281 188.128906 C 342.988281 186.796875 344.988281 186.796875 344.988281 188.128906 "/>
<path style=" stroke:none;fill-rule:nonzero;fill:rgb(100%,0%,0%);fill-opacity:1;" d="M 330.097656 192.316406 C 330.097656 193.648438 328.097656 193.648438 328.097656 192.316406 C 328.097656 190.984375 330.097656 190.984375 330.097656 192.316406 "/>
<path style=" stroke:none;fill-rule:nonzero;fill:rgb(100%,0%,0%);fill-opacity:1;" d="M 548.230469 338.761719 C 548.230469 340.09375 546.230469 340.09375 546.230469 338.761719 C 546.230469 337.425781 548.230469 337.425781 548.230469 338.761719 "/>
<path style=" stroke:none;fill-rule:nonzero;fill:rgb(100%,0%,0%);fill-opacity:1;" d="M 536.453125 344.433594 C 536.453125 345.765625 534.453125 345.765625 534.453125 344.433594 C 534.453125 343.101562 536.453125 343.101562 536.453125 344.433594 "/>
<path style=" stroke:none;fill-rule:nonzero;fill:rgb(100%,0%,0%);fill-opacity:1;" d="M 368.804688 469.03125 C 368.804688 470.367188 366.804688 470.367188 366.804688 469.03125 C 366.804688 467.699219 368.804688 467.699219 368.804688 469.03125 "/>
<path style=" stroke:none;fill-rule:nonzero;fill:rgb(100%,0%,0%);fill-opacity:1;" d="M 379.835938 475.636719 C 379.835938 476.96875 377.835938 476.96875 377.835938 475.636719 C 377.835938 474.304688 379.835938 474.304688 379.835938 475.636719 "/>
<path style=" stroke:none;fill-rule:nonzero;fill:rgb(100%,0%,0%);fill-opacity:1;" d="M 350.984375 305.851562 C 350.984375 307.183594 348.984375 307.183594 348.984375 305.851562 C 348.984375 304.515625 350.984375 304.515625 350.984375 305.851562 "/>
<path style=" stroke:none;fill-rule:nonzero;fill:rgb(100%,0%,0%);fill-opacity:1;" d="M 70.238281 417.285156 C 70.238281 418.621094 68.238281 418.621094 68.238281 417.285156 C 68.238281 415.953125 70.238281 415.953125 70.238281 417.285156 "/>
<path style=" stroke:none;fill-rule:nonzero;fill:rgb(100%,0%,0%);fill-opacity:1;" d="M 498.082031 256.660156 C 498.082031 257.992188 496.082031 257.992188 496.082031 256.660156 C 496.082031 255.324219 498.082031 255.324219 498.082031 256.660156 "/>
<path style=" stroke:none;fill-rule:nonzero;fill:rgb(100%,0%,0%);fill-opacity:1;" d="M 69.710938 329.375 C 69.710938 330.707031 67.710938 330.707031 67.710938 329.375 C 67.710938 328.042969 69.710938 328.042969 69.710938 329.375 "/>
<path style=" stroke:none;fill-rule:nonzero;fill:rgb(100%,0%,0%);fill-opacity:1;" d="M 80.324219 336.539062 C 80.324219 337.871094 78.324219 337.871094 78.324219 336.539062 C 78.324219 335.207031 80.324219 335.207031 80.324219 336.539062 "/>
<path style=" stroke:none;fill-rule:nonzero;fill:rgb(100%,0%,0%);fill-opacity:1;" d="M 392.707031 234.230469 C 392.707031 235.566406 390.707031 235.566406 390.707031 234.230469 C 390.707031 232.898438 392.707031 232.898438 392.707031 234.230469 "/>
<path style=" stroke:none;fill-rule:nonzero;fill:rgb(100%,0%,0%);fill-opacity:1;" d="M 37.496094 284.933594 C 37.496094 286.269531 35.496094 286.269531 35.496094 284.933594 C 35.496094 283.601562 37.496094 283.601562 37.496094 284.933594 "/>
<path style=" stroke:none;fill-rule:nonzero;fill:rgb(100%,0%,0%);fill-opacity:1;" d="M 32.398438 273.589844 C 32.398438 274.921875 30.398438 274.921875 30.398438 273.589844 C 30.398438 272.257812 32.398438 272.257812 32.398438 273.589844 "/>
<path style=" stroke:none;fill-rule:nonzero;fill:rgb(100%,0%,0%);fill-opacity:1;" d="M 237.769531 386.101562 C 237.769531 387.433594 235.769531 387.433594 235.769531 386.101562 C 235.769531 384.765625 237.769531 384.765625 237.769531 386.101562 "/>
<path style=" stroke:none;fill-rule:nonzero;fill:rgb(100%,0%,0%);fill-opacity:1;" d="M 236.15625 368.996094 C 236.15625 370.332031 234.15625 370.332031 234.15625 368.996094 C 234.15625 367.664062 236.15625 367.664062 236.15625 368.996094 "/>
<path style=" stroke:none;fill-rule:nonzero;fill:rgb(100%,0%,0%);fill-opacity:1;" d="M 239.367188 403.460938 C 239.367188 404.792969 237.367188 404.792969 237.367188 403.460938 C 237.367188 402.125 239.367188 402.125 239.367188 403.460938 "/>
<path style=" stroke:none;fill-rule:nonzero;fill:rgb(100%,0%,0%);fill-opacity:1;" d="M 252.601562 376.867188 C 252.601562 378.203125 250.601562 378.203125 250.601562 376.867188 C 250.601562 375.535156 252.601562 375.535156 252.601562 376.867188 "/>
<path style=" stroke:none;fill-rule:nonzero;fill:rgb(100%,0%,0%);fill-opacity:1;" d="M 220.964844 378.105469 C 220.964844 379.4375 218.964844 379.4375 218.964844 378.105469 C 218.964844 376.773438 220.964844 376.773438 220.964844 378.105469 "/>
<path style=" stroke:none;fill-rule:nonzero;fill:rgb(100%,0%,0%);fill-opacity:1;" d="M 254.238281 394.046875 C 254.238281 395.382812 252.238281 395.382812 252.238281 394.046875 C 252.238281 392.714844 254.238281 392.714844 254.238281 394.046875 "/>
<path style=" stroke:none;fill-rule:nonzero;fill:rgb(100%,0%,0%);fill-opacity:1;" d="M 223.210938 395.175781 C 223.210938 396.507812 221.210938 396.507812 221.210938 395.175781 C 221.210938 393.839844 223.210938 393.839844 223.210938 395.175781 "/>
<path style=" stroke:none;fill-rule:nonzero;fill:rgb(100%,0%,0%);fill-opacity:1;" d="M 375.898438 216.898438 C 375.898438 218.234375 373.898438 218.234375 373.898438 216.898438 C 373.898438 215.566406 375.898438 215.566406 375.898438 216.898438 "/>
<path style=" stroke:none;fill-rule:nonzero;fill:rgb(100%,0%,0%);fill-opacity:1;" d="M 139.917969 171.410156 C 139.917969 172.742188 137.917969 172.742188 137.917969 171.410156 C 137.917969 170.074219 139.917969 170.074219 139.917969 171.410156 "/>
<path style=" stroke:none;fill-rule:nonzero;fill:rgb(100%,0%,0%);fill-opacity:1;" d="M 128.222656 178.746094 C 128.222656 180.078125 126.222656 180.078125 126.222656 178.746094 C 126.222656 177.410156 128.222656 177.410156 128.222656 178.746094 "/>
<path style=" stroke:none;fill-rule:nonzero;fill:rgb(100%,0%,0%);fill-opacity:1;" d="M 151.171875 163.457031 C 151.171875 164.792969 149.171875 164.792969 149.171875 163.457031 C 149.171875 162.125 151.171875 162.125 151.171875 163.457031 "/>
</g>
</svg>
