<?xml version="1.0" encoding="UTF-8"?>
<svg xmlns="http://www.w3.org/2000/svg" xmlns:xlink="http://www.w3.org/1999/xlink" width="600" height="600" viewBox="0 0 600 600">
<rect x="-60" y="-60" width="720" height="720" fill="rgb(100%, 100%, 100%)" fill-opacity="1"/>
<path fill="none" stroke-width="0.2" stroke-linecap="butt" stroke-linejoin="miter" stroke="rgb(26.666667%, 26.666667%, 26.666667%)" stroke-opacity="1" stroke-miterlimit="10" d="M 357.457031 274.476562 L 369.195312 283.890625 "/>
<path fill="none" stroke-width="0.2" stroke-linecap="butt" stroke-linejoin="miter" stroke="rgb(26.666667%, 26.666667%, 26.666667%)" stroke-opacity="1" stroke-miterlimit="10" d="M 314.300781 210.894531 L 323.773438 205.589844 "/>
<path fill="none" stroke-width="0.2" stroke-linecap="butt" stroke-linejoin="miter" stroke="rgb(26.666667%, 26.666667%, 26.666667%)" stroke-opacity="1" stroke-miterlimit="10" d="M 314.300781 210.894531 L 318.429688 196.105469 "/>
<path fill="none" stroke-width="0.2" stroke-linecap="butt" stroke-linejoin="miter" stroke="rgb(26.666667%, 26.666667%, 26.666667%)" stroke-opacity="1" stroke-miterlimit="10" d="M 314.300781 210.894531 L 308.945312 201.402344 "/>
<path fill="none" stroke-width="0.2" stroke-linecap="butt" stroke-linejoin="miter" stroke="rgb(26.666667%, 26.666667%, 26.666667%)" stroke-opacity="1" stroke-miterlimit="10" d="M 198 281.921875 L 190.339844 286.234375 "/>
<path fill="none" stroke-width="0.2" stroke-linecap="butt" stroke-linejoin="miter" stroke="rgb(26.666667%, 26.666667%, 26.666667%)" stroke-opacity="1" stroke-miterlimit="10" d="M 198 281.921875 L 181.726562 280.320312 "/>
<path fill="none" stroke-width="0.2" stroke-linecap="butt" stroke-linejoin="miter" stroke="rgb(26.666667%, 26.666667%, 26.666667%)" stroke-opacity="1" stroke-miterlimit="10" d="M 198 281.921875 L 195.21875 295.675781 "/>
<path fill="none" stroke-width="0.2" stroke-linecap="butt" stroke-linejoin="miter" stroke="rgb(26.666667%, 26.666667%, 26.666667%)" stroke-opacity="1" stroke-miterlimit="10" d="M 198 281.921875 L 190.179688 275.847656 "/>
<path fill="none" stroke-width="0.2" stroke-linecap="butt" stroke-linejoin="miter" stroke="rgb(26.666667%, 26.666667%, 26.666667%)" stroke-opacity="1" stroke-miterlimit="10" d="M 198 281.921875 L 182.4375 290.136719 "/>
<path fill="none" stroke-width="0.2" stroke-linecap="butt" stroke-linejoin="miter" stroke="rgb(26.666667%, 26.666667%, 26.666667%)" stroke-opacity="1" stroke-miterlimit="10" d="M 190.339844 286.234375 L 181.726562 280.320312 "/>
<path fill="none" stroke-width="0.2" stroke-linecap="butt" stroke-linejoin="miter" stroke="rgb(26.666667%, 26.666667%, 26.666667%)" stroke-opacity="1" stroke-miterlimit="10" d="M 190.339844 286.234375 L 195.21875 295.675781 "/>
<path fill="none" stroke-width="0.2" stroke-linecap="butt" stroke-linejoin="miter" stroke="rgb(26.666667%, 26.666667%, 26.666667%)" stroke-opacity="1" stroke-miterlimit="10" d="M 190.339844 286.234375 L 190.179688 275.847656 "/>
<path fill="none" stroke-width="0.2" stroke-linecap="butt" stroke-linejoin="miter" stroke="rgb(26.666667%, 26.666667%, 26.666667%)" stroke-opacity="1" stroke-miterlimit="10" d="M 190.339844 286.234375 L 182.4375 290.136719 "/>
<path fill="none" stroke-width="0.2" stroke-linecap="butt" stroke-linejoin="miter" stroke="rgb(26.666667%, 26.666667%, 26.666667%)" stroke-opacity="1" stroke-miterlimit="10" d="M 380.703125 275.648438 L 382.984375 287.304688 "/>
<path fill="none" stroke-width="0.2" stroke-linecap="butt" stroke-linejoin="miter" stroke="rgb(26.666667%, 26.666667%, 26.666667%)" stroke-opacity="1" stroke-miterlimit="10" d="M 380.703125 275.648438 L 369.195312 283.890625 "/>
<path fill="none" stroke-width="0.2" stroke-linecap="butt" stroke-linejoin="miter" stroke="rgb(26.666667%, 26.666667%, 26.666667%)" stroke-opacity="1" stroke-miterlimit="10" d="M 230.726562 320.582031 L 246.011719 322.914062 "/>
<path fill="none" stroke-width="0.2" stroke-linecap="butt" stroke-linejoin="miter" stroke="rgb(26.666667%, 26.666667%, 26.666667%)" stroke-opacity="1" stroke-miterlimit="10" d="M 230.726562 320.582031 L 206.492188 324.199219 "/>
<path fill="none" stroke-width="0.2" stroke-linecap="butt" stroke-linejoin="miter" stroke="rgb(26.666667%, 26.666667%, 26.666667%)" stroke-opacity="1" stroke-miterlimit="10" d="M 219.417969 332.898438 L 206.492188 324.199219 "/>
<path fill="none" stroke-width="0.2" stroke-linecap="butt" stroke-linejoin="miter" stroke="rgb(26.666667%, 26.666667%, 26.666667%)" stroke-opacity="1" stroke-miterlimit="10" d="M 219.417969 332.898438 L 215.214844 342.890625 "/>
<path fill="none" stroke-width="0.2" stroke-linecap="butt" stroke-linejoin="miter" stroke="rgb(26.666667%, 26.666667%, 26.666667%)" stroke-opacity="1" stroke-miterlimit="10" d="M 181.726562 280.320312 L 195.21875 295.675781 "/>
<path fill="none" stroke-width="0.2" stroke-linecap="butt" stroke-linejoin="miter" stroke="rgb(26.666667%, 26.666667%, 26.666667%)" stroke-opacity="1" stroke-miterlimit="10" d="M 181.726562 280.320312 L 190.179688 275.847656 "/>
<path fill="none" stroke-width="0.2" stroke-linecap="butt" stroke-linejoin="miter" stroke="rgb(26.666667%, 26.666667%, 26.666667%)" stroke-opacity="1" stroke-miterlimit="10" d="M 181.726562 280.320312 L 182.4375 290.136719 "/>
<path fill="none" stroke-width="0.2" stroke-linecap="butt" stroke-linejoin="miter" stroke="rgb(26.666667%, 26.666667%, 26.666667%)" stroke-opacity="1" stroke-miterlimit="10" d="M 323.773438 205.589844 L 318.429688 196.105469 "/>
<path fill="none" stroke-width="0.2" stroke-linecap="butt" stroke-linejoin="miter" stroke="rgb(26.666667%, 26.666667%, 26.666667%)" stroke-opacity="1" stroke-miterlimit="10" d="M 323.773438 205.589844 L 308.945312 201.402344 "/>
<path fill="none" stroke-width="0.2" stroke-linecap="butt" stroke-linejoin="miter" stroke="rgb(26.666667%, 26.666667%, 26.666667%)" stroke-opacity="1" stroke-miterlimit="10" d="M 198.371094 337.09375 L 206.492188 324.199219 "/>
<path fill="none" stroke-width="0.2" stroke-linecap="butt" stroke-linejoin="miter" stroke="rgb(26.666667%, 26.666667%, 26.666667%)" stroke-opacity="1" stroke-miterlimit="10" d="M 198.371094 337.09375 L 187.894531 336.136719 "/>
<path fill="none" stroke-width="0.2" stroke-linecap="butt" stroke-linejoin="miter" stroke="rgb(26.666667%, 26.666667%, 26.666667%)" stroke-opacity="1" stroke-miterlimit="10" d="M 198.371094 337.09375 L 192.292969 326.4375 "/>
<path fill="none" stroke-width="0.2" stroke-linecap="butt" stroke-linejoin="miter" stroke="rgb(26.666667%, 26.666667%, 26.666667%)" stroke-opacity="1" stroke-miterlimit="10" d="M 144.46875 468.035156 L 132.136719 469.546875 "/>
<path fill="none" stroke-width="0.2" stroke-linecap="butt" stroke-linejoin="miter" stroke="rgb(26.666667%, 26.666667%, 26.666667%)" stroke-opacity="1" stroke-miterlimit="10" d="M 195.21875 295.675781 L 206.492188 324.199219 "/>
<path fill="none" stroke-width="0.2" stroke-linecap="butt" stroke-linejoin="miter" stroke="rgb(26.666667%, 26.666667%, 26.666667%)" stroke-opacity="1" stroke-miterlimit="10" d="M 195.21875 295.675781 L 190.179688 275.847656 "/>
<path fill="none" stroke-width="0.2" stroke-linecap="butt" stroke-linejoin="miter" stroke="rgb(26.666667%, 26.666667%, 26.666667%)" stroke-opacity="1" stroke-miterlimit="10" d="M 195.21875 295.675781 L 182.4375 290.136719 "/>
<path fill="none" stroke-width="0.2" stroke-linecap="butt" stroke-linejoin="miter" stroke="rgb(26.666667%, 26.666667%, 26.666667%)" stroke-opacity="1" stroke-miterlimit="10" d="M 195.21875 295.675781 L 205.375 307.914062 "/>
<path fill="none" stroke-width="0.2" stroke-linecap="butt" stroke-linejoin="miter" stroke="rgb(26.666667%, 26.666667%, 26.666667%)" stroke-opacity="1" stroke-miterlimit="10" d="M 318.429688 196.105469 L 308.945312 201.402344 "/>
<path fill="none" stroke-width="0.2" stroke-linecap="butt" stroke-linejoin="miter" stroke="rgb(26.666667%, 26.666667%, 26.666667%)" stroke-opacity="1" stroke-miterlimit="10" d="M 382.984375 287.304688 L 369.195312 283.890625 "/>
<path fill="none" stroke-width="0.2" stroke-linecap="butt" stroke-linejoin="miter" stroke="rgb(26.666667%, 26.666667%, 26.666667%)" stroke-opacity="1" stroke-miterlimit="10" d="M 206.492188 324.199219 L 187.894531 336.136719 "/>
<path fill="none" stroke-width="0.2" stroke-linecap="butt" stroke-linejoin="miter" stroke="rgb(26.666667%, 26.666667%, 26.666667%)" stroke-opacity="1" stroke-miterlimit="10" d="M 206.492188 324.199219 L 192.292969 326.4375 "/>
<path fill="none" stroke-width="0.2" stroke-linecap="butt" stroke-linejoin="miter" stroke="rgb(26.666667%, 26.666667%, 26.666667%)" stroke-opacity="1" stroke-miterlimit="10" d="M 206.492188 324.199219 L 215.214844 342.890625 "/>
<path fill="none" stroke-width="0.2" stroke-linecap="butt" stroke-linejoin="miter" stroke="rgb(26.666667%, 26.666667%, 26.666667%)" stroke-opacity="1" stroke-miterlimit="10" d="M 206.492188 324.199219 L 205.375 307.914062 "/>
<path fill="none" stroke-width="0.2" stroke-linecap="butt" stroke-linejoin="miter" stroke="rgb(26.666667%, 26.666667%, 26.666667%)" stroke-opacity="1" stroke-miterlimit="10" d="M 190.179688 275.847656 L 182.4375 290.136719 "/>
<path fill="none" stroke-width="0.2" stroke-linecap="butt" stroke-linejoin="miter" stroke="rgb(26.666667%, 26.666667%, 26.666667%)" stroke-opacity="1" stroke-miterlimit="10" d="M 233.710938 232.4375 L 243.574219 239.816406 "/>
<path fill="none" stroke-width="0.2" stroke-linecap="butt" stroke-linejoin="miter" stroke="rgb(26.666667%, 26.666667%, 26.666667%)" stroke-opacity="1" stroke-miterlimit="10" d="M 361.941406 297.011719 L 369.195312 283.890625 "/>
<path fill="none" stroke-width="0.2" stroke-linecap="butt" stroke-linejoin="miter" stroke="rgb(26.666667%, 26.666667%, 26.666667%)" stroke-opacity="1" stroke-miterlimit="10" d="M 187.894531 336.136719 L 192.292969 326.4375 "/>
<path fill-rule="nonzero" fill="rgb(100%, 0%, 0%)" fill-opacity="1" stroke-width="0.01" stroke-linecap="butt" stroke-linejoin="miter" stroke="rgb(0%, 0%, 0%)" stroke-opacity="1" stroke-miterlimit="10" d="M 358.457031 274.476562 C 358.457031 275.8125 356.457031 275.8125 356.457031 274.476562 C 356.457031 273.144531 358.457031 273.144531 358.457031 274.476562 "/>
<path fill-rule="nonzero" fill="rgb(100%, 0%, 0%)" fill-opacity="1" stroke-width="0.01" stroke-linecap="butt" stroke-linejoin="miter" stroke="rgb(0%, 0%, 0%)" stroke-opacity="1" stroke-miterlimit="10" d="M 172.171875 396.839844 C 172.171875 398.175781 170.171875 398.175781 170.171875 396.839844 C 170.171875 395.507812 172.171875 395.507812 172.171875 396.839844 "/>
<path fill-rule="nonzero" fill="rgb(100%, 0%, 0%)" fill-opacity="1" stroke-width="0.01" stroke-linecap="butt" stroke-linejoin="miter" stroke="rgb(0%, 0%, 0%)" stroke-opacity="1" stroke-miterlimit="10" d="M 21.984375 315.144531 C 21.984375 316.476562 19.984375 316.476562 19.984375 315.144531 C 19.984375 313.808594 21.984375 313.808594 21.984375 315.144531 "/>
<path fill-rule="nonzero" fill="rgb(100%, 0%, 0%)" fill-opacity="1" stroke-width="0.01" stroke-linecap="butt" stroke-linejoin="miter" stroke="rgb(0%, 0%, 0%)" stroke-opacity="1" stroke-miterlimit="10" d="M 315.128906 523.269531 C 315.128906 524.601562 313.128906 524.601562 313.128906 523.269531 C 313.128906 521.933594 315.128906 521.933594 315.128906 523.269531 "/>
<path fill-rule="nonzero" fill="rgb(100%, 0%, 0%)" fill-opacity="1" stroke-width="0.01" stroke-linecap="butt" stroke-linejoin="miter" stroke="rgb(0%, 0%, 0%)" stroke-opacity="1" stroke-miterlimit="10" d="M 553.65625 441.171875 C 553.65625 442.503906 551.65625 442.503906 551.65625 441.171875 C 551.65625 439.839844 553.65625 439.839844 553.65625 441.171875 "/>
<path fill-rule="nonzero" fill="rgb(100%, 0%, 0%)" fill-opacity="1" stroke-width="0.01" stroke-linecap="butt" stroke-linejoin="miter" stroke="rgb(0%, 0%, 0%)" stroke-opacity="1" stroke-miterlimit="10" d="M 386.597656 417.0625 C 386.597656 418.398438 384.597656 418.398438 384.597656 417.0625 C 384.597656 415.730469 386.597656 415.730469 386.597656 417.0625 "/>
<path fill-rule="nonzero" fill="rgb(100%, 0%, 0%)" fill-opacity="1" stroke-width="0.01" stroke-linecap="butt" stroke-linejoin="miter" stroke="rgb(0%, 0%, 0%)" stroke-opacity="1" stroke-miterlimit="10" d="M 532.269531 131.976562 C 532.269531 133.308594 530.269531 133.308594 530.269531 131.976562 C 530.269531 130.644531 532.269531 130.644531 532.269531 131.976562 "/>
<path fill-rule="nonzero" fill="rgb(100%, 0%, 0%)" fill-opacity="1" stroke-width="0.01" stroke-linecap="butt" stroke-linejoin="miter" stroke="rgb(0%, 0%, 0%)" stroke-opacity="1" stroke-miterlimit="10" d="M 407.90625 484.679688 C 407.90625 486.015625 405.90625 486.015625 405.90625 484.679688 C 405.90625 483.347656 407.90625 483.347656 407.90625 484.679688 "/>
<path fill-rule="nonzero" fill="rgb(100%, 0%, 0%)" fill-opacity="1" stroke-width="0.01" stroke-linecap="butt" stroke-linejoin="miter" stroke="rgb(0%, 0%, 0%)" stroke-opacity="1" stroke-miterlimit="10" d="M 466.277344 492.34375 C 466.277344 493.675781 464.277344 493.675781 464.277344 492.34375 C 464.277344 491.007812 466.277344 491.007812 466.277344 492.34375 "/>
<path fill-rule="nonzero" fill="rgb(100%, 0%, 0%)" fill-opacity="1" stroke-width="0.01" stroke-linecap="butt" stroke-linejoin="miter" stroke="rgb(0%, 0%, 0%)" stroke-opacity="1" stroke-miterlimit="10" d="M 355.839844 57.921875 C 355.839844 59.257812 353.839844 59.257812 353.839844 57.921875 C 353.839844 56.589844 355.839844 56.589844 355.839844 57.921875 "/>
<path fill-rule="nonzero" fill="rgb(100%, 0%, 0%)" fill-opacity="1" stroke-width="0.01" stroke-linecap="butt" stroke-linejoin="miter" stroke="rgb(0%, 0%, 0%)" stroke-opacity="1" stroke-miterlimit="10" d="M 435.140625 240.199219 C 435.140625 241.53125 433.140625 241.53125 433.140625 240.199219 C 433.140625 238.867188 435.140625 238.867188 435.140625 240.199219 "/>
<path fill-rule="nonzero" fill="rgb(100%, 0%, 0%)" fill-opacity="1" stroke-width="0.01" stroke-linecap="butt" stroke-linejoin="miter" stroke="rgb(0%, 0%, 0%)" stroke-opacity="1" stroke-miterlimit="10" d="M 111.8125 169.042969 C 111.8125 170.375 109.8125 170.375 109.8125 169.042969 C 109.8125 167.707031 111.8125 167.707031 111.8125 169.042969 "/>
<path fill-rule="nonzero" fill="rgb(100%, 0%, 0%)" fill-opacity="1" stroke-width="0.01" stroke-linecap="butt" stroke-linejoin="miter" stroke="rgb(0%, 0%, 0%)" stroke-opacity="1" stroke-miterlimit="10" d="M 515.027344 420.972656 C 515.027344 422.308594 513.027344 422.308594 513.027344 420.972656 C 513.027344 419.640625 515.027344 419.640625 515.027344 420.972656 "/>
<path fill-rule="nonzero" fill="rgb(100%, 0%, 0%)" fill-opacity="1" stroke-width="0.01" stroke-linecap="butt" stroke-linejoin="miter" stroke="rgb(0%, 0%, 0%)" stroke-opacity="1" stroke-miterlimit="10" d="M 413.703125 211.140625 C 413.703125 212.476562 411.703125 212.476562 411.703125 211.140625 C 411.703125 209.808594 413.703125 209.808594 413.703125 211.140625 "/>
<path fill-rule="nonzero" fill="rgb(100%, 0%, 0%)" fill-opacity="1" stroke-width="0.01" stroke-linecap="butt" stroke-linejoin="miter" stroke="rgb(0%, 0%, 0%)" stroke-opacity="1" stroke-miterlimit="10" d="M 278.21875 162.230469 C 278.21875 163.5625 276.21875 163.5625 276.21875 162.230469 C 276.21875 160.894531 278.21875 160.894531 278.21875 162.230469 "/>
<path fill-rule="nonzero" fill="rgb(100%, 0%, 0%)" fill-opacity="1" stroke-width="0.01" stroke-linecap="butt" stroke-linejoin="miter" stroke="rgb(0%, 0%, 0%)" stroke-opacity="1" stroke-miterlimit="10" d="M 288.609375 35.132812 C 288.609375 36.46875 286.609375 36.46875 286.609375 35.132812 C 286.609375 33.800781 288.609375 33.800781 288.609375 35.132812 "/>
<path fill-rule="nonzero" fill="rgb(100%, 0%, 0%)" fill-opacity="1" stroke-width="0.01" stroke-linecap="butt" stroke-linejoin="miter" stroke="rgb(0%, 0%, 0%)" stroke-opacity="1" stroke-miterlimit="10" d="M 475.214844 244.90625 C 475.214844 246.242188 473.214844 246.242188 473.214844 244.90625 C 473.214844 243.574219 475.214844 243.574219 475.214844 244.90625 "/>
<path fill-rule="nonzero" fill="rgb(100%, 0%, 0%)" fill-opacity="1" stroke-width="0.01" stroke-linecap="butt" stroke-linejoin="miter" stroke="rgb(0%, 0%, 0%)" stroke-opacity="1" stroke-miterlimit="10" d="M 525.660156 214.859375 C 525.660156 216.191406 523.660156 216.191406 523.660156 214.859375 C 523.660156 213.523438 525.660156 213.523438 525.660156 214.859375 "/>
<path fill-rule="nonzero" fill="rgb(100%, 0%, 0%)" fill-opacity="1" stroke-width="0.01" stroke-linecap="butt" stroke-linejoin="miter" stroke="rgb(0%, 0%, 0%)" stroke-opacity="1" stroke-miterlimit="10" d="M 315.300781 210.894531 C 315.300781 212.226562 313.300781 212.226562 313.300781 210.894531 C 313.300781 209.558594 315.300781 209.558594 315.300781 210.894531 "/>
<path fill-rule="nonzero" fill="rgb(100%, 0%, 0%)" fill-opacity="1" stroke-width="0.01" stroke-linecap="butt" stroke-linejoin="miter" stroke="rgb(0%, 0%, 0%)" stroke-opacity="1" stroke-miterlimit="10" d="M 201.164062 211.507812 C 201.164062 212.839844 199.164062 212.839844 199.164062 211.507812 C 199.164062 210.171875 201.164062 210.171875 201.164062 211.507812 "/>
<path fill-rule="nonzero" fill="rgb(100%, 0%, 0%)" fill-opacity="1" stroke-width="0.01" stroke-linecap="butt" stroke-linejoin="miter" stroke="rgb(0%, 0%, 0%)" stroke-opacity="1" stroke-miterlimit="10" d="M 149.464844 185.828125 C 149.464844 187.160156 147.464844 187.160156 147.464844 185.828125 C 147.464844 184.496094 149.464844 184.496094 149.464844 185.828125 "/>
<path fill-rule="nonzero" fill="rgb(100%, 0%, 0%)" fill-opacity="1" stroke-width="0.01" stroke-linecap="butt" stroke-linejoin="miter" stroke="rgb(0%, 0%, 0%)" stroke-opacity="1" stroke-miterlimit="10" d="M 287.726562 84.820312 C 287.726562 86.152344 285.726562 86.152344 285.726562 84.820312 C 285.726562 83.488281 287.726562 83.488281 287.726562 84.820312 "/>
<path fill-rule="nonzero" fill="rgb(100%, 0%, 0%)" fill-opacity="1" stroke-width="0.01" stroke-linecap="butt" stroke-linejoin="miter" stroke="rgb(0%, 0%, 0%)" stroke-opacity="1" stroke-miterlimit="10" d="M 199 281.921875 C 199 283.257812 197 283.257812 197 281.921875 C 197 280.589844 199 280.589844 199 281.921875 "/>
<path fill-rule="nonzero" fill="rgb(100%, 0%, 0%)" fill-opacity="1" stroke-width="0.01" stroke-linecap="butt" stroke-linejoin="miter" stroke="rgb(0%, 0%, 0%)" stroke-opacity="1" stroke-miterlimit="10" d="M 70.332031 142.929688 C 70.332031 144.265625 68.332031 144.265625 68.332031 142.929688 C 68.332031 141.597656 70.332031 141.597656 70.332031 142.929688 "/>
<path fill-rule="nonzero" fill="rgb(100%, 0%, 0%)" fill-opacity="1" stroke-width="0.01" stroke-linecap="butt" stroke-linejoin="miter" stroke="rgb(0%, 0%, 0%)" stroke-opacity="1" stroke-miterlimit="10" d="M 574.414062 211.070312 C 574.414062 212.40625 572.414062 212.40625 572.414062 211.070312 C 572.414062 209.738281 574.414062 209.738281 574.414062 211.070312 "/>
<path fill-rule="nonzero" fill="rgb(100%, 0%, 0%)" fill-opacity="1" stroke-width="0.01" stroke-linecap="butt" stroke-linejoin="miter" stroke="rgb(0%, 0%, 0%)" stroke-opacity="1" stroke-miterlimit="10" d="M 250.074219 75.675781 C 250.074219 77.007812 248.074219 77.007812 248.074219 75.675781 C 248.074219 74.339844 250.074219 74.339844 250.074219 75.675781 "/>
<path fill-rule="nonzero" fill="rgb(100%, 0%, 0%)" fill-opacity="1" stroke-width="0.01" stroke-linecap="butt" stroke-linejoin="miter" stroke="rgb(0%, 0%, 0%)" stroke-opacity="1" stroke-miterlimit="10" d="M 485.960938 208.851562 C 485.960938 210.1875 483.960938 210.1875 483.960938 208.851562 C 483.960938 207.519531 485.960938 207.519531 485.960938 208.851562 "/>
<path fill-rule="nonzero" fill="rgb(100%, 0%, 0%)" fill-opacity="1" stroke-width="0.01" stroke-linecap="butt" stroke-linejoin="miter" stroke="rgb(0%, 0%, 0%)" stroke-opacity="1" stroke-miterlimit="10" d="M 367.5625 456.152344 C 367.5625 457.484375 365.5625 457.484375 365.5625 456.152344 C 365.5625 454.820312 367.5625 454.820312 367.5625 456.152344 "/>
<path fill-rule="nonzero" fill="rgb(100%, 0%, 0%)" fill-opacity="1" stroke-width="0.01" stroke-linecap="butt" stroke-linejoin="miter" stroke="rgb(0%, 0%, 0%)" stroke-opacity="1" stroke-miterlimit="10" d="M 191.339844 286.234375 C 191.339844 287.566406 189.339844 287.566406 189.339844 286.234375 C 189.339844 284.902344 191.339844 284.902344 191.339844 286.234375 "/>
<path fill-rule="nonzero" fill="rgb(100%, 0%, 0%)" fill-opacity="1" stroke-width="0.01" stroke-linecap="butt" stroke-linejoin="miter" stroke="rgb(0%, 0%, 0%)" stroke-opacity="1" stroke-miterlimit="10" d="M 483.289062 128.164062 C 483.289062 129.5 481.289062 129.5 481.289062 128.164062 C 481.289062 126.832031 483.289062 126.832031 483.289062 128.164062 "/>
<path fill-rule="nonzero" fill="rgb(100%, 0%, 0%)" fill-opacity="1" stroke-width="0.01" stroke-linecap="butt" stroke-linejoin="miter" stroke="rgb(0%, 0%, 0%)" stroke-opacity="1" stroke-miterlimit="10" d="M 121.085938 305.96875 C 121.085938 307.300781 119.085938 307.300781 119.085938 305.96875 C 119.085938 304.632812 121.085938 304.632812 121.085938 305.96875 "/>
<path fill-rule="nonzero" fill="rgb(100%, 0%, 0%)" fill-opacity="1" stroke-width="0.01" stroke-linecap="butt" stroke-linejoin="miter" stroke="rgb(0%, 0%, 0%)" stroke-opacity="1" stroke-miterlimit="10" d="M 363.132812 492.320312 C 363.132812 493.652344 361.132812 493.652344 361.132812 492.320312 C 361.132812 490.988281 363.132812 490.988281 363.132812 492.320312 "/>
<path fill-rule="nonzero" fill="rgb(100%, 0%, 0%)" fill-opacity="1" stroke-width="0.01" stroke-linecap="butt" stroke-linejoin="miter" stroke="rgb(0%, 0%, 0%)" stroke-opacity="1" stroke-miterlimit="10" d="M 249.890625 185.039062 C 249.890625 186.375 247.890625 186.375 247.890625 185.039062 C 247.890625 183.707031 249.890625 183.707031 249.890625 185.039062 "/>
<path fill-rule="nonzero" fill="rgb(100%, 0%, 0%)" fill-opacity="1" stroke-width="0.01" stroke-linecap="butt" stroke-linejoin="miter" stroke="rgb(0%, 0%, 0%)" stroke-opacity="1" stroke-miterlimit="10" d="M 381.703125 275.648438 C 381.703125 276.980469 379.703125 276.980469 379.703125 275.648438 C 379.703125 274.316406 381.703125 274.316406 381.703125 275.648438 "/>
<path fill-rule="nonzero" fill="rgb(100%, 0%, 0%)" fill-opacity="1" stroke-width="0.01" stroke-linecap="butt" stroke-linejoin="miter" stroke="rgb(0%, 0%, 0%)" stroke-opacity="1" stroke-miterlimit="10" d="M 231.726562 320.582031 C 231.726562 321.914062 229.726562 321.914062 229.726562 320.582031 C 229.726562 319.25 231.726562 319.25 231.726562 320.582031 "/>
<path fill-rule="nonzero" fill="rgb(100%, 0%, 0%)" fill-opacity="1" stroke-width="0.01" stroke-linecap="butt" stroke-linejoin="miter" stroke="rgb(0%, 0%, 0%)" stroke-opacity="1" stroke-miterlimit="10" d="M 88.386719 200.820312 C 88.386719 202.152344 86.386719 202.152344 86.386719 200.820312 C 86.386719 199.488281 88.386719 199.488281 88.386719 200.820312 "/>
<path fill-rule="nonzero" fill="rgb(100%, 0%, 0%)" fill-opacity="1" stroke-width="0.01" stroke-linecap="butt" stroke-linejoin="miter" stroke="rgb(0%, 0%, 0%)" stroke-opacity="1" stroke-miterlimit="10" d="M 321.324219 77.777344 C 321.324219 79.109375 319.324219 79.109375 319.324219 77.777344 C 319.324219 76.445312 321.324219 76.445312 321.324219 77.777344 "/>
<path fill-rule="nonzero" fill="rgb(100%, 0%, 0%)" fill-opacity="1" stroke-width="0.01" stroke-linecap="butt" stroke-linejoin="miter" stroke="rgb(0%, 0%, 0%)" stroke-opacity="1" stroke-miterlimit="10" d="M 220.417969 332.898438 C 220.417969 334.230469 218.417969 334.230469 218.417969 332.898438 C 218.417969 331.566406 220.417969 331.566406 220.417969 332.898438 "/>
<path fill-rule="nonzero" fill="rgb(100%, 0%, 0%)" fill-opacity="1" stroke-width="0.01" stroke-linecap="butt" stroke-linejoin="miter" stroke="rgb(0%, 0%, 0%)" stroke-opacity="1" stroke-miterlimit="10" d="M 533.429688 370.003906 C 533.429688 371.335938 531.429688 371.335938 531.429688 370.003906 C 531.429688 368.667969 533.429688 368.667969 533.429688 370.003906 "/>
<path fill-rule="nonzero" fill="rgb(100%, 0%, 0%)" fill-opacity="1" stroke-width="0.01" stroke-linecap="butt" stroke-linejoin="miter" stroke="rgb(0%, 0%, 0%)" stroke-opacity="1" stroke-miterlimit="10" d="M 182.726562 280.320312 C 182.726562 281.652344 180.726562 281.652344 180.726562 280.320312 C 180.726562 278.988281 182.726562 278.988281 182.726562 280.320312 "/>
<path fill-rule="nonzero" fill="rgb(100%, 0%, 0%)" fill-opacity="1" stroke-width="0.01" stroke-linecap="butt" stroke-linejoin="miter" stroke="rgb(0%, 0%, 0%)" stroke-opacity="1" stroke-miterlimit="10" d="M 324.773438 205.589844 C 324.773438 206.925781 322.773438 206.925781 322.773438 205.589844 C 322.773438 204.257812 324.773438 204.257812 324.773438 205.589844 "/>
<path fill-rule="nonzero" fill="rgb(100%, 0%, 0%)" fill-opacity="1" stroke-width="0.01" stroke-linecap="butt" stroke-linejoin="miter" stroke="rgb(0%, 0%, 0%)" stroke-opacity="1" stroke-miterlimit="10" d="M 562.921875 251.425781 C 562.921875 252.757812 560.921875 252.757812 560.921875 251.425781 C 560.921875 250.089844 562.921875 250.089844 562.921875 251.425781 "/>
<path fill-rule="nonzero" fill="rgb(100%, 0%, 0%)" fill-opacity="1" stroke-width="0.01" stroke-linecap="butt" stroke-linejoin="miter" stroke="rgb(0%, 0%, 0%)" stroke-opacity="1" stroke-miterlimit="10" d="M 501.921875 513.898438 C 501.921875 515.230469 499.921875 515.230469 499.921875 513.898438 C 499.921875 512.566406 501.921875 512.566406 501.921875 513.898438 "/>
<path fill-rule="nonzero" fill="rgb(100%, 0%, 0%)" fill-opacity="1" stroke-width="0.01" stroke-linecap="butt" stroke-linejoin="miter" stroke="rgb(0%, 0%, 0%)" stroke-opacity="1" stroke-miterlimit="10" d="M 199.371094 337.09375 C 199.371094 338.425781 197.371094 338.425781 197.371094 337.09375 C 197.371094 335.761719 199.371094 335.761719 199.371094 337.09375 "/>
<path fill-rule="nonzero" fill="rgb(100%, 0%, 0%)" fill-opacity="1" stroke-width="0.01" stroke-linecap="butt" stroke-linejoin="miter" stroke="rgb(0%, 0%, 0%)" stroke-opacity="1" stroke-miterlimit="10" d="M 30.933594 273.382812 C 30.933594 274.714844 28.933594 274.714844 28.933594 273.382812 C 28.933594 272.050781 30.933594 272.050781 30.933594 273.382812 "/>
<path fill-rule="nonzero" fill="rgb(100%, 0%, 0%)" fill-opacity="1" stroke-width="0.01" stroke-linecap="butt" stroke-linejoin="miter" stroke="rgb(0%, 0%, 0%)" stroke-opacity="1" stroke-miterlimit="10" d="M 330.570312 569.4375 C 330.570312 570.773438 328.570312 570.773438 328.570312 569.4375 C 328.570312 568.105469 330.570312 568.105469 330.570312 569.4375 "/>
<path fill-rule="nonzero" fill="rgb(100%, 0%, 0%)" fill-opacity="1" stroke-width="0.01" stroke-linecap="butt" stroke-linejoin="miter" stroke="rgb(0%, 0%, 0%)" stroke-opacity="1" stroke-miterlimit="10" d="M 93.324219 407.777344 C 93.324219 409.109375 91.324219 409.109375 91.324219 407.777344 C 91.324219 406.441406 93.324219 406.441406 93.324219 407.777344 "/>
<path fill-rule="nonzero" fill="rgb(100%, 0%, 0%)" fill-opacity="1" stroke-width="0.01" stroke-linecap="butt" stroke-linejoin="miter" stroke="rgb(0%, 0%, 0%)" stroke-opacity="1" stroke-miterlimit="10" d="M 121.730469 221.253906 C 121.730469 222.585938 119.730469 222.585938 119.730469 221.253906 C 119.730469 219.917969 121.730469 219.917969 121.730469 221.253906 "/>
<path fill-rule="nonzero" fill="rgb(100%, 0%, 0%)" fill-opacity="1" stroke-width="0.01" stroke-linecap="butt" stroke-linejoin="miter" stroke="rgb(0%, 0%, 0%)" stroke-opacity="1" stroke-miterlimit="10" d="M 21 226.203125 C 21 227.539062 19 227.539062 19 226.203125 C 19 224.871094 21 224.871094 21 226.203125 "/>
<path fill-rule="nonzero" fill="rgb(100%, 0%, 0%)" fill-opacity="1" stroke-width="0.01" stroke-linecap="butt" stroke-linejoin="miter" stroke="rgb(0%, 0%, 0%)" stroke-opacity="1" stroke-miterlimit="10" d="M 211.601562 461.164062 C 211.601562 462.5 209.601562 462.5 209.601562 461.164062 C 209.601562 459.832031 211.601562 459.832031 211.601562 461.164062 "/>
<path fill-rule="nonzero" fill="rgb(100%, 0%, 0%)" fill-opacity="1" stroke-width="0.01" stroke-linecap="butt" stroke-linejoin="miter" stroke="rgb(0%, 0%, 0%)" stroke-opacity="1" stroke-miterlimit="10" d="M 430.25 557.53125 C 430.25 558.863281 428.25 558.863281 428.25 557.53125 C 428.25 556.199219 430.25 556.199219 430.25 557.53125 "/>
<path fill-rule="nonzero" fill="rgb(100%, 0%, 0%)" fill-opacity="1" stroke-width="0.01" stroke-linecap="butt" stroke-linejoin="miter" stroke="rgb(0%, 0%, 0%)" stroke-opacity="1" stroke-miterlimit="10" d="M 145.46875 468.035156 C 145.46875 469.371094 143.46875 469.371094 143.46875 468.035156 C 143.46875 466.703125 145.46875 466.703125 145.46875 468.035156 "/>
<path fill-rule="nonzero" fill="rgb(100%, 0%, 0%)" fill-opacity="1" stroke-width="0.01" stroke-linecap="butt" stroke-linejoin="miter" stroke="rgb(0%, 0%, 0%)" stroke-opacity="1" stroke-miterlimit="10" d="M 240.703125 146.171875 C 240.703125 147.507812 238.703125 147.507812 238.703125 146.171875 C 238.703125 144.839844 240.703125 144.839844 240.703125 146.171875 "/>
<path fill-rule="nonzero" fill="rgb(100%, 0%, 0%)" fill-opacity="1" stroke-width="0.01" stroke-linecap="butt" stroke-linejoin="miter" stroke="rgb(0%, 0%, 0%)" stroke-opacity="1" stroke-miterlimit="10" d="M 363.882812 219.613281 C 363.882812 220.945312 361.882812 220.945312 361.882812 219.613281 C 361.882812 218.277344 363.882812 218.277344 363.882812 219.613281 "/>
<path fill-rule="nonzero" fill="rgb(100%, 0%, 0%)" fill-opacity="1" stroke-width="0.01" stroke-linecap="butt" stroke-linejoin="miter" stroke="rgb(0%, 0%, 0%)" stroke-opacity="1" stroke-miterlimit="10" d="M 498.320312 389.304688 C 498.320312 390.636719 496.320312 390.636719 496.320312 389.304688 C 496.320312 387.972656 498.320312 387.972656 498.320312 389.304688 "/>
<path fill-rule="nonzero" fill="rgb(100%, 0%, 0%)" fill-opacity="1" stroke-width="0.01" stroke-linecap="butt" stroke-linejoin="miter" stroke="rgb(0%, 0%, 0%)" stroke-opacity="1" stroke-miterlimit="10" d="M 121.515625 126.734375 C 121.515625 128.066406 119.515625 128.066406 119.515625 126.734375 C 119.515625 125.402344 121.515625 125.402344 121.515625 126.734375 "/>
<path fill-rule="nonzero" fill="rgb(100%, 0%, 0%)" fill-opacity="1" stroke-width="0.01" stroke-linecap="butt" stroke-linejoin="miter" stroke="rgb(0%, 0%, 0%)" stroke-opacity="1" stroke-miterlimit="10" d="M 142.929688 353.910156 C 142.929688 355.242188 140.929688 355.242188 140.929688 353.910156 C 140.929688 352.578125 142.929688 352.578125 142.929688 353.910156 "/>
<path fill-rule="nonzero" fill="rgb(100%, 0%, 0%)" fill-opacity="1" stroke-width="0.01" stroke-linecap="butt" stroke-linejoin="miter" stroke="rgb(0%, 0%, 0%)" stroke-opacity="1" stroke-miterlimit="10" d="M 502.171875 169.816406 C 502.171875 171.148438 500.171875 171.148438 500.171875 169.816406 C 500.171875 168.480469 502.171875 168.480469 502.171875 169.816406 "/>
<path fill-rule="nonzero" fill="rgb(100%, 0%, 0%)" fill-opacity="1" stroke-width="0.01" stroke-linecap="butt" stroke-linejoin="miter" stroke="rgb(0%, 0%, 0%)" stroke-opacity="1" stroke-miterlimit="10" d="M 538.613281 287.113281 C 538.613281 288.449219 536.613281 288.449219 536.613281 287.113281 C 536.613281 285.78125 538.613281 285.78125 538.613281 287.113281 "/>
<path fill-rule="nonzero" fill="rgb(100%, 0%, 0%)" fill-opacity="1" stroke-width="0.01" stroke-linecap="butt" stroke-linejoin="miter" stroke="rgb(0%, 0%, 0%)" stroke-opacity="1" stroke-miterlimit="10" d="M 375.425781 20 C 375.425781 21.332031 373.425781 21.332031 373.425781 20 C 373.425781 18.667969 375.425781 18.667969 375.425781 20 "/>
<path fill-rule="nonzero" fill="rgb(100%, 0%, 0%)" fill-opacity="1" stroke-width="0.01" stroke-linecap="butt" stroke-linejoin="miter" stroke="rgb(0%, 0%, 0%)" stroke-opacity="1" stroke-miterlimit="10" d="M 471.980469 286.945312 C 471.980469 288.277344 469.980469 288.277344 469.980469 286.945312 C 469.980469 285.613281 471.980469 285.613281 471.980469 286.945312 "/>
<path fill-rule="nonzero" fill="rgb(100%, 0%, 0%)" fill-opacity="1" stroke-width="0.01" stroke-linecap="butt" stroke-linejoin="miter" stroke="rgb(0%, 0%, 0%)" stroke-opacity="1" stroke-miterlimit="10" d="M 123.1875 429.640625 C 123.1875 430.976562 121.1875 430.976562 121.1875 429.640625 C 121.1875 428.308594 123.1875 428.308594 123.1875 429.640625 "/>
<path fill-rule="nonzero" fill="rgb(100%, 0%, 0%)" fill-opacity="1" stroke-width="0.01" stroke-linecap="butt" stroke-linejoin="miter" stroke="rgb(0%, 0%, 0%)" stroke-opacity="1" stroke-miterlimit="10" d="M 462.058594 170.839844 C 462.058594 172.171875 460.058594 172.171875 460.058594 170.839844 C 460.058594 169.507812 462.058594 169.507812 462.058594 170.839844 "/>
<path fill-rule="nonzero" fill="rgb(100%, 0%, 0%)" fill-opacity="1" stroke-width="0.01" stroke-linecap="butt" stroke-linejoin="miter" stroke="rgb(0%, 0%, 0%)" stroke-opacity="1" stroke-miterlimit="10" d="M 324.828125 256.746094 C 324.828125 258.078125 322.828125 258.078125 322.828125 256.746094 C 322.828125 255.414062 324.828125 255.414062 324.828125 256.746094 "/>
<path fill-rule="nonzero" fill="rgb(100%, 0%, 0%)" fill-opacity="1" stroke-width="0.01" stroke-linecap="butt" stroke-linejoin="miter" stroke="rgb(0%, 0%, 0%)" stroke-opacity="1" stroke-miterlimit="10" d="M 512.773438 253.359375 C 512.773438 254.691406 510.773438 254.691406 510.773438 253.359375 C 510.773438 252.023438 512.773438 252.023438 512.773438 253.359375 "/>
<path fill-rule="nonzero" fill="rgb(100%, 0%, 0%)" fill-opacity="1" stroke-width="0.01" stroke-linecap="butt" stroke-linejoin="miter" stroke="rgb(0%, 0%, 0%)" stroke-opacity="1" stroke-miterlimit="10" d="M 343.175781 329.945312 C 343.175781 331.28125 341.175781 331.28125 341.175781 329.945312 C 341.175781 328.613281 343.175781 328.613281 343.175781 329.945312 "/>
<path fill-rule="nonzero" fill="rgb(100%, 0%, 0%)" fill-opacity="1" stroke-width="0.01" stroke-linecap="butt" stroke-linejoin="miter" stroke="rgb(0%, 0%, 0%)" stroke-opacity="1" stroke-miterlimit="10" d="M 90.664062 258.671875 C 90.664062 260.003906 88.664062 260.003906 88.664062 258.671875 C 88.664062 257.335938 90.664062 257.335938 90.664062 258.671875 "/>
<path fill-rule="nonzero" fill="rgb(100%, 0%, 0%)" fill-opacity="1" stroke-width="0.01" stroke-linecap="butt" stroke-linejoin="miter" stroke="rgb(0%, 0%, 0%)" stroke-opacity="1" stroke-miterlimit="10" d="M 365.8125 169.09375 C 365.8125 170.425781 363.8125 170.425781 363.8125 169.09375 C 363.8125 167.757812 365.8125 167.757812 365.8125 169.09375 "/>
<path fill-rule="nonzero" fill="rgb(100%, 0%, 0%)" fill-opacity="1" stroke-width="0.01" stroke-linecap="butt" stroke-linejoin="miter" stroke="rgb(0%, 0%, 0%)" stroke-opacity="1" stroke-miterlimit="10" d="M 447.214844 203.546875 C 447.214844 204.878906 445.214844 204.878906 445.214844 203.546875 C 445.214844 202.214844 447.214844 202.214844 447.214844 203.546875 "/>
<path fill-rule="nonzero" fill="rgb(100%, 0%, 0%)" fill-opacity="1" stroke-width="0.01" stroke-linecap="butt" stroke-linejoin="miter" stroke="rgb(0%, 0%, 0%)" stroke-opacity="1" stroke-miterlimit="10" d="M 195.59375 492.203125 C 195.59375 493.539062 193.59375 493.539062 193.59375 492.203125 C 193.59375 490.871094 195.59375 490.871094 195.59375 492.203125 "/>
<path fill-rule="nonzero" fill="rgb(100%, 0%, 0%)" fill-opacity="1" stroke-width="0.01" stroke-linecap="butt" stroke-linejoin="miter" stroke="rgb(0%, 0%, 0%)" stroke-opacity="1" stroke-miterlimit="10" d="M 476.070312 449.492188 C 476.070312 450.824219 474.070312 450.824219 474.070312 449.492188 C 474.070312 448.15625 476.070312 448.15625 476.070312 449.492188 "/>
<path fill-rule="nonzero" fill="rgb(100%, 0%, 0%)" fill-opacity="1" stroke-width="0.01" stroke-linecap="butt" stroke-linejoin="miter" stroke="rgb(0%, 0%, 0%)" stroke-opacity="1" stroke-miterlimit="10" d="M 361.132812 99.230469 C 361.132812 100.5625 359.132812 100.5625 359.132812 99.230469 C 359.132812 97.894531 361.132812 97.894531 361.132812 99.230469 "/>
<path fill-rule="nonzero" fill="rgb(100%, 0%, 0%)" fill-opacity="1" stroke-width="0.01" stroke-linecap="butt" stroke-linejoin="miter" stroke="rgb(0%, 0%, 0%)" stroke-opacity="1" stroke-miterlimit="10" d="M 196.21875 295.675781 C 196.21875 297.007812 194.21875 297.007812 194.21875 295.675781 C 194.21875 294.339844 196.21875 294.339844 196.21875 295.675781 "/>
<path fill-rule="nonzero" fill="rgb(100%, 0%, 0%)" fill-opacity="1" stroke-width="0.01" stroke-linecap="butt" stroke-linejoin="miter" stroke="rgb(0%, 0%, 0%)" stroke-opacity="1" stroke-miterlimit="10" d="M 294.082031 392.828125 C 294.082031 394.164062 292.082031 394.164062 292.082031 392.828125 C 292.082031 391.496094 294.082031 391.496094 294.082031 392.828125 "/>
<path fill-rule="nonzero" fill="rgb(100%, 0%, 0%)" fill-opacity="1" stroke-width="0.01" stroke-linecap="butt" stroke-linejoin="miter" stroke="rgb(0%, 0%, 0%)" stroke-opacity="1" stroke-miterlimit="10" d="M 109.914062 359.746094 C 109.914062 361.078125 107.914062 361.078125 107.914062 359.746094 C 107.914062 358.414062 109.914062 358.414062 109.914062 359.746094 "/>
<path fill-rule="nonzero" fill="rgb(100%, 0%, 0%)" fill-opacity="1" stroke-width="0.01" stroke-linecap="butt" stroke-linejoin="miter" stroke="rgb(0%, 0%, 0%)" stroke-opacity="1" stroke-miterlimit="10" d="M 247.011719 322.914062 C 247.011719 324.246094 245.011719 324.246094 245.011719 322.914062 C 245.011719 321.578125 247.011719 321.578125 247.011719 322.914062 "/>
<path fill-rule="nonzero" fill="rgb(100%, 0%, 0%)" fill-opacity="1" stroke-width="0.01" stroke-linecap="butt" stroke-linejoin="miter" stroke="rgb(0%, 0%, 0%)" stroke-opacity="1" stroke-miterlimit="10" d="M 73.042969 293.269531 C 73.042969 294.605469 71.042969 294.605469 71.042969 293.269531 C 71.042969 291.9375 73.042969 291.9375 73.042969 293.269531 "/>
<path fill-rule="nonzero" fill="rgb(100%, 0%, 0%)" fill-opacity="1" stroke-width="0.01" stroke-linecap="butt" stroke-linejoin="miter" stroke="rgb(0%, 0%, 0%)" stroke-opacity="1" stroke-miterlimit="10" d="M 250.476562 33.050781 C 250.476562 34.382812 248.476562 34.382812 248.476562 33.050781 C 248.476562 31.714844 250.476562 31.714844 250.476562 33.050781 "/>
<path fill-rule="nonzero" fill="rgb(100%, 0%, 0%)" fill-opacity="1" stroke-width="0.01" stroke-linecap="butt" stroke-linejoin="miter" stroke="rgb(0%, 0%, 0%)" stroke-opacity="1" stroke-miterlimit="10" d="M 581 293.585938 C 581 294.921875 579 294.921875 579 293.585938 C 579 292.253906 581 292.253906 581 293.585938 "/>
<path fill-rule="nonzero" fill="rgb(100%, 0%, 0%)" fill-opacity="1" stroke-width="0.01" stroke-linecap="butt" stroke-linejoin="miter" stroke="rgb(0%, 0%, 0%)" stroke-opacity="1" stroke-miterlimit="10" d="M 436.617188 515.246094 C 436.617188 516.578125 434.617188 516.578125 434.617188 515.246094 C 434.617188 513.910156 436.617188 513.910156 436.617188 515.246094 "/>
<path fill-rule="nonzero" fill="rgb(100%, 0%, 0%)" fill-opacity="1" stroke-width="0.01" stroke-linecap="butt" stroke-linejoin="miter" stroke="rgb(0%, 0%, 0%)" stroke-opacity="1" stroke-miterlimit="10" d="M 426.183594 296.816406 C 426.183594 298.152344 424.183594 298.152344 424.183594 296.816406 C 424.183594 295.484375 426.183594 295.484375 426.183594 296.816406 "/>
<path fill-rule="nonzero" fill="rgb(100%, 0%, 0%)" fill-opacity="1" stroke-width="0.01" stroke-linecap="butt" stroke-linejoin="miter" stroke="rgb(0%, 0%, 0%)" stroke-opacity="1" stroke-miterlimit="10" d="M 48.207031 344.054688 C 48.207031 345.386719 46.207031 345.386719 46.207031 344.054688 C 46.207031 342.722656 48.207031 342.722656 48.207031 344.054688 "/>
<path fill-rule="nonzero" fill="rgb(100%, 0%, 0%)" fill-opacity="1" stroke-width="0.01" stroke-linecap="butt" stroke-linejoin="miter" stroke="rgb(0%, 0%, 0%)" stroke-opacity="1" stroke-miterlimit="10" d="M 504.203125 298.515625 C 504.203125 299.851562 502.203125 299.851562 502.203125 298.515625 C 502.203125 297.183594 504.203125 297.183594 504.203125 298.515625 "/>
<path fill-rule="nonzero" fill="rgb(100%, 0%, 0%)" fill-opacity="1" stroke-width="0.01" stroke-linecap="butt" stroke-linejoin="miter" stroke="rgb(0%, 0%, 0%)" stroke-opacity="1" stroke-miterlimit="10" d="M 136.710938 394.246094 C 136.710938 395.578125 134.710938 395.578125 134.710938 394.246094 C 134.710938 392.914062 136.710938 392.914062 136.710938 394.246094 "/>
<path fill-rule="nonzero" fill="rgb(100%, 0%, 0%)" fill-opacity="1" stroke-width="0.01" stroke-linecap="butt" stroke-linejoin="miter" stroke="rgb(0%, 0%, 0%)" stroke-opacity="1" stroke-miterlimit="10" d="M 291.1875 454.472656 C 291.1875 455.808594 289.1875 455.808594 289.1875 454.472656 C 289.1875 453.140625 291.1875 453.140625 291.1875 454.472656 "/>
<path fill-rule="nonzero" fill="rgb(100%, 0%, 0%)" fill-opacity="1" stroke-width="0.01" stroke-linecap="butt" stroke-linejoin="miter" stroke="rgb(0%, 0%, 0%)" stroke-opacity="1" stroke-miterlimit="10" d="M 231.28125 111.769531 C 231.28125 113.101562 229.28125 113.101562 229.28125 111.769531 C 229.28125 110.433594 231.28125 110.433594 231.28125 111.769531 "/>
<path fill-rule="nonzero" fill="rgb(100%, 0%, 0%)" fill-opacity="1" stroke-width="0.01" stroke-linecap="butt" stroke-linejoin="miter" stroke="rgb(0%, 0%, 0%)" stroke-opacity="1" stroke-miterlimit="10" d="M 155.398438 146.632812 C 155.398438 147.964844 153.398438 147.964844 153.398438 146.632812 C 153.398438 145.296875 155.398438 145.296875 155.398438 146.632812 "/>
<path fill-rule="nonzero" fill="rgb(100%, 0%, 0%)" fill-opacity="1" stroke-width="0.01" stroke-linecap="butt" stroke-linejoin="miter" stroke="rgb(0%, 0%, 0%)" stroke-opacity="1" stroke-miterlimit="10" d="M 514.183594 466.605469 C 514.183594 467.941406 512.183594 467.941406 512.183594 466.605469 C 512.183594 465.273438 514.183594 465.273438 514.183594 466.605469 "/>
<path fill-rule="nonzero" fill="rgb(100%, 0%, 0%)" fill-opacity="1" stroke-width="0.01" stroke-linecap="butt" stroke-linejoin="miter" stroke="rgb(0%, 0%, 0%)" stroke-opacity="1" stroke-miterlimit="10" d="M 442.386719 374.519531 C 442.386719 375.851562 440.386719 375.851562 440.386719 374.519531 C 440.386719 373.183594 442.386719 373.183594 442.386719 374.519531 "/>
<path fill-rule="nonzero" fill="rgb(100%, 0%, 0%)" fill-opacity="1" stroke-width="0.01" stroke-linecap="butt" stroke-linejoin="miter" stroke="rgb(0%, 0%, 0%)" stroke-opacity="1" stroke-miterlimit="10" d="M 73.390625 375.753906 C 73.390625 377.085938 71.390625 377.085938 71.390625 375.753906 C 71.390625 374.417969 73.390625 374.417969 73.390625 375.753906 "/>
<path fill-rule="nonzero" fill="rgb(100%, 0%, 0%)" fill-opacity="1" stroke-width="0.01" stroke-linecap="butt" stroke-linejoin="miter" stroke="rgb(0%, 0%, 0%)" stroke-opacity="1" stroke-miterlimit="10" d="M 389.945312 189.007812 C 389.945312 190.34375 387.945312 190.34375 387.945312 189.007812 C 387.945312 187.675781 389.945312 187.675781 389.945312 189.007812 "/>
<path fill-rule="nonzero" fill="rgb(100%, 0%, 0%)" fill-opacity="1" stroke-width="0.01" stroke-linecap="butt" stroke-linejoin="miter" stroke="rgb(0%, 0%, 0%)" stroke-opacity="1" stroke-miterlimit="10" d="M 235.113281 520.265625 C 235.113281 521.601562 233.113281 521.601562 233.113281 520.265625 C 233.113281 518.933594 235.113281 518.933594 235.113281 520.265625 "/>
<path fill-rule="nonzero" fill="rgb(100%, 0%, 0%)" fill-opacity="1" stroke-width="0.01" stroke-linecap="butt" stroke-linejoin="miter" stroke="rgb(0%, 0%, 0%)" stroke-opacity="1" stroke-miterlimit="10" d="M 448.691406 335.390625 C 448.691406 336.726562 446.691406 336.726562 446.691406 335.390625 C 446.691406 334.058594 448.691406 334.058594 448.691406 335.390625 "/>
<path fill-rule="nonzero" fill="rgb(100%, 0%, 0%)" fill-opacity="1" stroke-width="0.01" stroke-linecap="butt" stroke-linejoin="miter" stroke="rgb(0%, 0%, 0%)" stroke-opacity="1" stroke-miterlimit="10" d="M 319.429688 196.105469 C 319.429688 197.4375 317.429688 197.4375 317.429688 196.105469 C 317.429688 194.773438 319.429688 194.773438 319.429688 196.105469 "/>
<path fill-rule="nonzero" fill="rgb(100%, 0%, 0%)" fill-opacity="1" stroke-width="0.01" stroke-linecap="butt" stroke-linejoin="miter" stroke="rgb(0%, 0%, 0%)" stroke-opacity="1" stroke-miterlimit="10" d="M 132.433594 511.652344 C 132.433594 512.984375 130.433594 512.984375 130.433594 511.652344 C 130.433594 510.320312 132.433594 510.320312 132.433594 511.652344 "/>
<path fill-rule="nonzero" fill="rgb(100%, 0%, 0%)" fill-opacity="1" stroke-width="0.01" stroke-linecap="butt" stroke-linejoin="miter" stroke="rgb(0%, 0%, 0%)" stroke-opacity="1" stroke-miterlimit="10" d="M 209.480469 393.148438 C 209.480469 394.484375 207.480469 394.484375 207.480469 393.148438 C 207.480469 391.816406 209.480469 391.816406 209.480469 393.148438 "/>
<path fill-rule="nonzero" fill="rgb(100%, 0%, 0%)" fill-opacity="1" stroke-width="0.01" stroke-linecap="butt" stroke-linejoin="miter" stroke="rgb(0%, 0%, 0%)" stroke-opacity="1" stroke-miterlimit="10" d="M 319.585938 485.953125 C 319.585938 487.289062 317.585938 487.289062 317.585938 485.953125 C 317.585938 484.621094 319.585938 484.621094 319.585938 485.953125 "/>
<path fill-rule="nonzero" fill="rgb(100%, 0%, 0%)" fill-opacity="1" stroke-width="0.01" stroke-linecap="butt" stroke-linejoin="miter" stroke="rgb(0%, 0%, 0%)" stroke-opacity="1" stroke-miterlimit="10" d="M 218.148438 175.503906 C 218.148438 176.835938 216.148438 176.835938 216.148438 175.503906 C 216.148438 174.167969 218.148438 174.167969 218.148438 175.503906 "/>
<path fill-rule="nonzero" fill="rgb(100%, 0%, 0%)" fill-opacity="1" stroke-width="0.01" stroke-linecap="butt" stroke-linejoin="miter" stroke="rgb(0%, 0%, 0%)" stroke-opacity="1" stroke-miterlimit="10" d="M 377.535156 571.480469 C 377.535156 572.8125 375.535156 572.8125 375.535156 571.480469 C 375.535156 570.148438 377.535156 570.148438 377.535156 571.480469 "/>
<path fill-rule="nonzero" fill="rgb(100%, 0%, 0%)" fill-opacity="1" stroke-width="0.01" stroke-linecap="butt" stroke-linejoin="miter" stroke="rgb(0%, 0%, 0%)" stroke-opacity="1" stroke-miterlimit="10" d="M 155.316406 558.652344 C 155.316406 559.988281 153.316406 559.988281 153.316406 558.652344 C 153.316406 557.320312 155.316406 557.320312 155.316406 558.652344 "/>
<path fill-rule="nonzero" fill="rgb(100%, 0%, 0%)" fill-opacity="1" stroke-width="0.01" stroke-linecap="butt" stroke-linejoin="miter" stroke="rgb(0%, 0%, 0%)" stroke-opacity="1" stroke-miterlimit="10" d="M 383.984375 287.304688 C 383.984375 288.636719 381.984375 288.636719 381.984375 287.304688 C 381.984375 285.96875 383.984375 285.96875 383.984375 287.304688 "/>
<path fill-rule="nonzero" fill="rgb(100%, 0%, 0%)" fill-opacity="1" stroke-width="0.01" stroke-linecap="butt" stroke-linejoin="miter" stroke="rgb(0%, 0%, 0%)" stroke-opacity="1" stroke-miterlimit="10" d="M 325.496094 22.269531 C 325.496094 23.605469 323.496094 23.605469 323.496094 22.269531 C 323.496094 20.9375 325.496094 20.9375 325.496094 22.269531 "/>
<path fill-rule="nonzero" fill="rgb(100%, 0%, 0%)" fill-opacity="1" stroke-width="0.01" stroke-linecap="butt" stroke-linejoin="miter" stroke="rgb(0%, 0%, 0%)" stroke-opacity="1" stroke-miterlimit="10" d="M 442.832031 270.972656 C 442.832031 272.308594 440.832031 272.308594 440.832031 270.972656 C 440.832031 269.640625 442.832031 269.640625 442.832031 270.972656 "/>
<path fill-rule="nonzero" fill="rgb(100%, 0%, 0%)" fill-opacity="1" stroke-width="0.01" stroke-linecap="butt" stroke-linejoin="miter" stroke="rgb(0%, 0%, 0%)" stroke-opacity="1" stroke-miterlimit="10" d="M 207.492188 324.199219 C 207.492188 325.535156 205.492188 325.535156 205.492188 324.199219 C 205.492188 322.867188 207.492188 322.867188 207.492188 324.199219 "/>
<path fill-rule="nonzero" fill="rgb(100%, 0%, 0%)" fill-opacity="1" stroke-width="0.01" stroke-linecap="butt" stroke-linejoin="miter" stroke="rgb(0%, 0%, 0%)" stroke-opacity="1" stroke-miterlimit="10" d="M 333.382812 119.15625 C 333.382812 120.488281 331.382812 120.488281 331.382812 119.15625 C 331.382812 117.824219 333.382812 117.824219 333.382812 119.15625 "/>
<path fill-rule="nonzero" fill="rgb(100%, 0%, 0%)" fill-opacity="1" stroke-width="0.01" stroke-linecap="butt" stroke-linejoin="miter" stroke="rgb(0%, 0%, 0%)" stroke-opacity="1" stroke-miterlimit="10" d="M 271.828125 368.3125 C 271.828125 369.648438 269.828125 369.648438 269.828125 368.3125 C 269.828125 366.980469 271.828125 366.980469 271.828125 368.3125 "/>
<path fill-rule="nonzero" fill="rgb(100%, 0%, 0%)" fill-opacity="1" stroke-width="0.01" stroke-linecap="butt" stroke-linejoin="miter" stroke="rgb(0%, 0%, 0%)" stroke-opacity="1" stroke-miterlimit="10" d="M 353.175781 530.148438 C 353.175781 531.484375 351.175781 531.484375 351.175781 530.148438 C 351.175781 528.816406 353.175781 528.816406 353.175781 530.148438 "/>
<path fill-rule="nonzero" fill="rgb(100%, 0%, 0%)" fill-opacity="1" stroke-width="0.01" stroke-linecap="butt" stroke-linejoin="miter" stroke="rgb(0%, 0%, 0%)" stroke-opacity="1" stroke-miterlimit="10" d="M 332.15625 452.828125 C 332.15625 454.164062 330.15625 454.164062 330.15625 452.828125 C 330.15625 451.496094 332.15625 451.496094 332.15625 452.828125 "/>
<path fill-rule="nonzero" fill="rgb(100%, 0%, 0%)" fill-opacity="1" stroke-width="0.01" stroke-linecap="butt" stroke-linejoin="miter" stroke="rgb(0%, 0%, 0%)" stroke-opacity="1" stroke-miterlimit="10" d="M 311.488281 422.714844 C 311.488281 424.046875 309.488281 424.046875 309.488281 422.714844 C 309.488281 421.382812 311.488281 421.382812 311.488281 422.714844 "/>
<path fill-rule="nonzero" fill="rgb(100%, 0%, 0%)" fill-opacity="1" stroke-width="0.01" stroke-linecap="butt" stroke-linejoin="miter" stroke="rgb(0%, 0%, 0%)" stroke-opacity="1" stroke-miterlimit="10" d="M 269.960938 417.410156 C 269.960938 418.742188 267.960938 418.742188 267.960938 417.410156 C 267.960938 416.074219 269.960938 416.074219 269.960938 417.410156 "/>
<path fill-rule="nonzero" fill="rgb(100%, 0%, 0%)" fill-opacity="1" stroke-width="0.01" stroke-linecap="butt" stroke-linejoin="miter" stroke="rgb(0%, 0%, 0%)" stroke-opacity="1" stroke-miterlimit="10" d="M 279.175781 492.972656 C 279.175781 494.308594 277.175781 494.308594 277.175781 492.972656 C 277.175781 491.640625 279.175781 491.640625 279.175781 492.972656 "/>
<path fill-rule="nonzero" fill="rgb(100%, 0%, 0%)" fill-opacity="1" stroke-width="0.01" stroke-linecap="butt" stroke-linejoin="miter" stroke="rgb(0%, 0%, 0%)" stroke-opacity="1" stroke-miterlimit="10" d="M 191.179688 275.847656 C 191.179688 277.179688 189.179688 277.179688 189.179688 275.847656 C 189.179688 274.511719 191.179688 274.511719 191.179688 275.847656 "/>
<path fill-rule="nonzero" fill="rgb(100%, 0%, 0%)" fill-opacity="1" stroke-width="0.01" stroke-linecap="butt" stroke-linejoin="miter" stroke="rgb(0%, 0%, 0%)" stroke-opacity="1" stroke-miterlimit="10" d="M 478.183594 362.613281 C 478.183594 363.945312 476.183594 363.945312 476.183594 362.613281 C 476.183594 361.28125 478.183594 361.28125 478.183594 362.613281 "/>
<path fill-rule="nonzero" fill="rgb(100%, 0%, 0%)" fill-opacity="1" stroke-width="0.01" stroke-linecap="butt" stroke-linejoin="miter" stroke="rgb(0%, 0%, 0%)" stroke-opacity="1" stroke-miterlimit="10" d="M 417.46875 166.042969 C 417.46875 167.375 415.46875 167.375 415.46875 166.042969 C 415.46875 164.707031 417.46875 164.707031 417.46875 166.042969 "/>
<path fill-rule="nonzero" fill="rgb(100%, 0%, 0%)" fill-opacity="1" stroke-width="0.01" stroke-linecap="butt" stroke-linejoin="miter" stroke="rgb(0%, 0%, 0%)" stroke-opacity="1" stroke-miterlimit="10" d="M 289.460938 244.464844 C 289.460938 245.796875 287.460938 245.796875 287.460938 244.464844 C 287.460938 243.132812 289.460938 243.132812 289.460938 244.464844 "/>
<path fill-rule="nonzero" fill="rgb(100%, 0%, 0%)" fill-opacity="1" stroke-width="0.01" stroke-linecap="butt" stroke-linejoin="miter" stroke="rgb(0%, 0%, 0%)" stroke-opacity="1" stroke-miterlimit="10" d="M 234.710938 232.4375 C 234.710938 233.769531 232.710938 233.769531 232.710938 232.4375 C 232.710938 231.105469 234.710938 231.105469 234.710938 232.4375 "/>
<path fill-rule="nonzero" fill="rgb(100%, 0%, 0%)" fill-opacity="1" stroke-width="0.01" stroke-linecap="butt" stroke-linejoin="miter" stroke="rgb(0%, 0%, 0%)" stroke-opacity="1" stroke-miterlimit="10" d="M 47.898438 182.363281 C 47.898438 183.695312 45.898438 183.695312 45.898438 182.363281 C 45.898438 181.03125 47.898438 181.03125 47.898438 182.363281 "/>
<path fill-rule="nonzero" fill="rgb(100%, 0%, 0%)" fill-opacity="1" stroke-width="0.01" stroke-linecap="butt" stroke-linejoin="miter" stroke="rgb(0%, 0%, 0%)" stroke-opacity="1" stroke-miterlimit="10" d="M 332.371094 386.621094 C 332.371094 387.953125 330.371094 387.953125 330.371094 386.621094 C 330.371094 385.289062 332.371094 385.289062 332.371094 386.621094 "/>
<path fill-rule="nonzero" fill="rgb(100%, 0%, 0%)" fill-opacity="1" stroke-width="0.01" stroke-linecap="butt" stroke-linejoin="miter" stroke="rgb(0%, 0%, 0%)" stroke-opacity="1" stroke-miterlimit="10" d="M 289.207031 276.269531 C 289.207031 277.605469 287.207031 277.605469 287.207031 276.269531 C 287.207031 274.9375 289.207031 274.9375 289.207031 276.269531 "/>
<path fill-rule="nonzero" fill="rgb(100%, 0%, 0%)" fill-opacity="1" stroke-width="0.01" stroke-linecap="butt" stroke-linejoin="miter" stroke="rgb(0%, 0%, 0%)" stroke-opacity="1" stroke-miterlimit="10" d="M 425.921875 412.566406 C 425.921875 413.898438 423.921875 413.898438 423.921875 412.566406 C 423.921875 411.234375 425.921875 411.234375 425.921875 412.566406 "/>
<path fill-rule="nonzero" fill="rgb(100%, 0%, 0%)" fill-opacity="1" stroke-width="0.01" stroke-linecap="butt" stroke-linejoin="miter" stroke="rgb(0%, 0%, 0%)" stroke-opacity="1" stroke-miterlimit="10" d="M 318.289062 295.976562 C 318.289062 297.308594 316.289062 297.308594 316.289062 295.976562 C 316.289062 294.640625 318.289062 294.640625 318.289062 295.976562 "/>
<path fill-rule="nonzero" fill="rgb(100%, 0%, 0%)" fill-opacity="1" stroke-width="0.01" stroke-linecap="butt" stroke-linejoin="miter" stroke="rgb(0%, 0%, 0%)" stroke-opacity="1" stroke-miterlimit="10" d="M 393.296875 345.953125 C 393.296875 347.285156 391.296875 347.285156 391.296875 345.953125 C 391.296875 344.617188 393.296875 344.617188 393.296875 345.953125 "/>
<path fill-rule="nonzero" fill="rgb(100%, 0%, 0%)" fill-opacity="1" stroke-width="0.01" stroke-linecap="butt" stroke-linejoin="miter" stroke="rgb(0%, 0%, 0%)" stroke-opacity="1" stroke-miterlimit="10" d="M 362.941406 297.011719 C 362.941406 298.34375 360.941406 298.34375 360.941406 297.011719 C 360.941406 295.675781 362.941406 295.675781 362.941406 297.011719 "/>
<path fill-rule="nonzero" fill="rgb(100%, 0%, 0%)" fill-opacity="1" stroke-width="0.01" stroke-linecap="butt" stroke-linejoin="miter" stroke="rgb(0%, 0%, 0%)" stroke-opacity="1" stroke-miterlimit="10" d="M 349.570312 417.964844 C 349.570312 419.296875 347.570312 419.296875 347.570312 417.964844 C 347.570312 416.632812 349.570312 416.632812 349.570312 417.964844 "/>
<path fill-rule="nonzero" fill="rgb(100%, 0%, 0%)" fill-opacity="1" stroke-width="0.01" stroke-linecap="butt" stroke-linejoin="miter" stroke="rgb(0%, 0%, 0%)" stroke-opacity="1" stroke-miterlimit="10" d="M 184.851562 174.644531 C 184.851562 175.980469 182.851562 175.980469 182.851562 174.644531 C 182.851562 173.3125 184.851562 173.3125 184.851562 174.644531 "/>
<path fill-rule="nonzero" fill="rgb(100%, 0%, 0%)" fill-opacity="1" stroke-width="0.01" stroke-linecap="butt" stroke-linejoin="miter" stroke="rgb(0%, 0%, 0%)" stroke-opacity="1" stroke-miterlimit="10" d="M 501.363281 89.171875 C 501.363281 90.503906 499.363281 90.503906 499.363281 89.171875 C 499.363281 87.835938 501.363281 87.835938 501.363281 89.171875 "/>
<path fill-rule="nonzero" fill="rgb(100%, 0%, 0%)" fill-opacity="1" stroke-width="0.01" stroke-linecap="butt" stroke-linejoin="miter" stroke="rgb(0%, 0%, 0%)" stroke-opacity="1" stroke-miterlimit="10" d="M 439.15625 453.234375 C 439.15625 454.566406 437.15625 454.566406 437.15625 453.234375 C 437.15625 451.898438 439.15625 451.898438 439.15625 453.234375 "/>
<path fill-rule="nonzero" fill="rgb(100%, 0%, 0%)" fill-opacity="1" stroke-width="0.01" stroke-linecap="butt" stroke-linejoin="miter" stroke="rgb(0%, 0%, 0%)" stroke-opacity="1" stroke-miterlimit="10" d="M 183.4375 290.136719 C 183.4375 291.472656 181.4375 291.472656 181.4375 290.136719 C 181.4375 288.804688 183.4375 288.804688 183.4375 290.136719 "/>
<path fill-rule="nonzero" fill="rgb(100%, 0%, 0%)" fill-opacity="1" stroke-width="0.01" stroke-linecap="butt" stroke-linejoin="miter" stroke="rgb(0%, 0%, 0%)" stroke-opacity="1" stroke-miterlimit="10" d="M 334.414062 155.6875 C 334.414062 157.023438 332.414062 157.023438 332.414062 155.6875 C 332.414062 154.355469 334.414062 154.355469 334.414062 155.6875 "/>
<path fill-rule="nonzero" fill="rgb(100%, 0%, 0%)" fill-opacity="1" stroke-width="0.01" stroke-linecap="butt" stroke-linejoin="miter" stroke="rgb(0%, 0%, 0%)" stroke-opacity="1" stroke-miterlimit="10" d="M 175.019531 522.136719 C 175.019531 523.472656 173.019531 523.472656 173.019531 522.136719 C 173.019531 520.804688 175.019531 520.804688 175.019531 522.136719 "/>
<path fill-rule="nonzero" fill="rgb(100%, 0%, 0%)" fill-opacity="1" stroke-width="0.01" stroke-linecap="butt" stroke-linejoin="miter" stroke="rgb(0%, 0%, 0%)" stroke-opacity="1" stroke-miterlimit="10" d="M 417.617188 327.835938 C 417.617188 329.167969 415.617188 329.167969 415.617188 327.835938 C 415.617188 326.503906 417.617188 326.503906 417.617188 327.835938 "/>
<path fill-rule="nonzero" fill="rgb(100%, 0%, 0%)" fill-opacity="1" stroke-width="0.01" stroke-linecap="butt" stroke-linejoin="miter" stroke="rgb(0%, 0%, 0%)" stroke-opacity="1" stroke-miterlimit="10" d="M 413.945312 46.78125 C 413.945312 48.117188 411.945312 48.117188 411.945312 46.78125 C 411.945312 45.449219 413.945312 45.449219 413.945312 46.78125 "/>
<path fill-rule="nonzero" fill="rgb(100%, 0%, 0%)" fill-opacity="1" stroke-width="0.01" stroke-linecap="butt" stroke-linejoin="miter" stroke="rgb(0%, 0%, 0%)" stroke-opacity="1" stroke-miterlimit="10" d="M 547.179688 174.652344 C 547.179688 175.984375 545.179688 175.984375 545.179688 174.652344 C 545.179688 173.316406 547.179688 173.316406 547.179688 174.652344 "/>
<path fill-rule="nonzero" fill="rgb(100%, 0%, 0%)" fill-opacity="1" stroke-width="0.01" stroke-linecap="butt" stroke-linejoin="miter" stroke="rgb(0%, 0%, 0%)" stroke-opacity="1" stroke-miterlimit="10" d="M 188.894531 336.136719 C 188.894531 337.472656 186.894531 337.472656 186.894531 336.136719 C 186.894531 334.804688 188.894531 334.804688 188.894531 336.136719 "/>
<path fill-rule="nonzero" fill="rgb(100%, 0%, 0%)" fill-opacity="1" stroke-width="0.01" stroke-linecap="butt" stroke-linejoin="miter" stroke="rgb(0%, 0%, 0%)" stroke-opacity="1" stroke-miterlimit="10" d="M 309.945312 201.402344 C 309.945312 202.734375 307.945312 202.734375 307.945312 201.402344 C 307.945312 200.070312 309.945312 200.070312 309.945312 201.402344 "/>
<path fill-rule="nonzero" fill="rgb(100%, 0%, 0%)" fill-opacity="1" stroke-width="0.01" stroke-linecap="butt" stroke-linejoin="miter" stroke="rgb(0%, 0%, 0%)" stroke-opacity="1" stroke-miterlimit="10" d="M 175.769531 56.964844 C 175.769531 58.296875 173.769531 58.296875 173.769531 56.964844 C 173.769531 55.628906 175.769531 55.628906 175.769531 56.964844 "/>
<path fill-rule="nonzero" fill="rgb(100%, 0%, 0%)" fill-opacity="1" stroke-width="0.01" stroke-linecap="butt" stroke-linejoin="miter" stroke="rgb(0%, 0%, 0%)" stroke-opacity="1" stroke-miterlimit="10" d="M 407.953125 379.058594 C 407.953125 380.390625 405.953125 380.390625 405.953125 379.058594 C 405.953125 377.722656 407.953125 377.722656 407.953125 379.058594 "/>
<path fill-rule="nonzero" fill="rgb(100%, 0%, 0%)" fill-opacity="1" stroke-width="0.01" stroke-linecap="butt" stroke-linejoin="miter" stroke="rgb(0%, 0%, 0%)" stroke-opacity="1" stroke-miterlimit="10" d="M 171.292969 436.722656 C 171.292969 438.054688 169.292969 438.054688 169.292969 436.722656 C 169.292969 435.390625 171.292969 435.390625 171.292969 436.722656 "/>
<path fill-rule="nonzero" fill="rgb(100%, 0%, 0%)" fill-opacity="1" stroke-width="0.01" stroke-linecap="butt" stroke-linejoin="miter" stroke="rgb(0%, 0%, 0%)" stroke-opacity="1" stroke-miterlimit="10" d="M 271.515625 118.796875 C 271.515625 120.128906 269.515625 120.128906 269.515625 118.796875 C 269.515625 117.464844 271.515625 117.464844 271.515625 118.796875 "/>
<path fill-rule="nonzero" fill="rgb(100%, 0%, 0%)" fill-opacity="1" stroke-width="0.01" stroke-linecap="butt" stroke-linejoin="miter" stroke="rgb(0%, 0%, 0%)" stroke-opacity="1" stroke-miterlimit="10" d="M 370.195312 283.890625 C 370.195312 285.226562 368.195312 285.226562 368.195312 283.890625 C 368.195312 282.558594 370.195312 282.558594 370.195312 283.890625 "/>
<path fill-rule="nonzero" fill="rgb(100%, 0%, 0%)" fill-opacity="1" stroke-width="0.01" stroke-linecap="butt" stroke-linejoin="miter" stroke="rgb(0%, 0%, 0%)" stroke-opacity="1" stroke-miterlimit="10" d="M 574.070312 338.363281 C 574.070312 339.699219 572.070312 339.699219 572.070312 338.363281 C 572.070312 337.03125 574.070312 337.03125 574.070312 338.363281 "/>
<path fill-rule="nonzero" fill="rgb(100%, 0%, 0%)" fill-opacity="1" stroke-width="0.01" stroke-linecap="butt" stroke-linejoin="miter" stroke="rgb(0%, 0%, 0%)" stroke-opacity="1" stroke-miterlimit="10" d="M 443.761719 137.445312 C 443.761719 138.777344 441.761719 138.777344 441.761719 137.445312 C 441.761719 136.109375 443.761719 136.109375 443.761719 137.445312 "/>
<path fill-rule="nonzero" fill="rgb(100%, 0%, 0%)" fill-opacity="1" stroke-width="0.01" stroke-linecap="butt" stroke-linejoin="miter" stroke="rgb(0%, 0%, 0%)" stroke-opacity="1" stroke-miterlimit="10" d="M 482.871094 327.480469 C 482.871094 328.8125 480.871094 328.8125 480.871094 327.480469 C 480.871094 326.144531 482.871094 326.144531 482.871094 327.480469 "/>
<path fill-rule="nonzero" fill="rgb(100%, 0%, 0%)" fill-opacity="1" stroke-width="0.01" stroke-linecap="butt" stroke-linejoin="miter" stroke="rgb(0%, 0%, 0%)" stroke-opacity="1" stroke-miterlimit="10" d="M 93.164062 97.480469 C 93.164062 98.8125 91.164062 98.8125 91.164062 97.480469 C 91.164062 96.148438 93.164062 96.148438 93.164062 97.480469 "/>
<path fill-rule="nonzero" fill="rgb(100%, 0%, 0%)" fill-opacity="1" stroke-width="0.01" stroke-linecap="butt" stroke-linejoin="miter" stroke="rgb(0%, 0%, 0%)" stroke-opacity="1" stroke-miterlimit="10" d="M 459.285156 55.734375 C 459.285156 57.066406 457.285156 57.066406 457.285156 55.734375 C 457.285156 54.398438 459.285156 54.398438 459.285156 55.734375 "/>
<path fill-rule="nonzero" fill="rgb(100%, 0%, 0%)" fill-opacity="1" stroke-width="0.01" stroke-linecap="butt" stroke-linejoin="miter" stroke="rgb(0%, 0%, 0%)" stroke-opacity="1" stroke-miterlimit="10" d="M 314.300781 360.382812 C 314.300781 361.714844 312.300781 361.714844 312.300781 360.382812 C 312.300781 359.046875 314.300781 359.046875 314.300781 360.382812 "/>
<path fill-rule="nonzero" fill="rgb(100%, 0%, 0%)" fill-opacity="1" stroke-width="0.01" stroke-linecap="butt" stroke-linejoin="miter" stroke="rgb(0%, 0%, 0%)" stroke-opacity="1" stroke-miterlimit="10" d="M 409.902344 120.957031 C 409.902344 122.289062 407.902344 122.289062 407.902344 120.957031 C 407.902344 119.625 409.902344 119.625 409.902344 120.957031 "/>
<path fill-rule="nonzero" fill="rgb(100%, 0%, 0%)" fill-opacity="1" stroke-width="0.01" stroke-linecap="butt" stroke-linejoin="miter" stroke="rgb(0%, 0%, 0%)" stroke-opacity="1" stroke-miterlimit="10" d="M 210.054688 30.992188 C 210.054688 32.324219 208.054688 32.324219 208.054688 30.992188 C 208.054688 29.660156 210.054688 29.660156 210.054688 30.992188 "/>
<path fill-rule="nonzero" fill="rgb(100%, 0%, 0%)" fill-opacity="1" stroke-width="0.01" stroke-linecap="butt" stroke-linejoin="miter" stroke="rgb(0%, 0%, 0%)" stroke-opacity="1" stroke-miterlimit="10" d="M 242.402344 483.675781 C 242.402344 485.007812 240.402344 485.007812 240.402344 483.675781 C 240.402344 482.34375 242.402344 482.34375 242.402344 483.675781 "/>
<path fill-rule="nonzero" fill="rgb(100%, 0%, 0%)" fill-opacity="1" stroke-width="0.01" stroke-linecap="butt" stroke-linejoin="miter" stroke="rgb(0%, 0%, 0%)" stroke-opacity="1" stroke-miterlimit="10" d="M 289.28125 580 C 289.28125 581.332031 287.28125 581.332031 287.28125 580 C 287.28125 578.667969 289.28125 578.667969 289.28125 580 "/>
<path fill-rule="nonzero" fill="rgb(100%, 0%, 0%)" fill-opacity="1" stroke-width="0.01" stroke-linecap="butt" stroke-linejoin="miter" stroke="rgb(0%, 0%, 0%)" stroke-opacity="1" stroke-miterlimit="10" d="M 569.503906 391.097656 C 569.503906 392.433594 567.503906 392.433594 567.503906 391.097656 C 567.503906 389.765625 569.503906 389.765625 569.503906 391.097656 "/>
<path fill-rule="nonzero" fill="rgb(100%, 0%, 0%)" fill-opacity="1" stroke-width="0.01" stroke-linecap="butt" stroke-linejoin="miter" stroke="rgb(0%, 0%, 0%)" stroke-opacity="1" stroke-miterlimit="10" d="M 371.152344 385.632812 C 371.152344 386.964844 369.152344 386.964844 369.152344 385.632812 C 369.152344 384.300781 371.152344 384.300781 371.152344 385.632812 "/>
<path fill-rule="nonzero" fill="rgb(100%, 0%, 0%)" fill-opacity="1" stroke-width="0.01" stroke-linecap="butt" stroke-linejoin="miter" stroke="rgb(0%, 0%, 0%)" stroke-opacity="1" stroke-miterlimit="10" d="M 393.910156 524.925781 C 393.910156 526.257812 391.910156 526.257812 391.910156 524.925781 C 391.910156 523.59375 393.910156 523.59375 393.910156 524.925781 "/>
<path fill-rule="nonzero" fill="rgb(100%, 0%, 0%)" fill-opacity="1" stroke-width="0.01" stroke-linecap="butt" stroke-linejoin="miter" stroke="rgb(0%, 0%, 0%)" stroke-opacity="1" stroke-miterlimit="10" d="M 29.808594 388.460938 C 29.808594 389.792969 27.808594 389.792969 27.808594 388.460938 C 27.808594 387.128906 29.808594 387.128906 29.808594 388.460938 "/>
<path fill-rule="nonzero" fill="rgb(100%, 0%, 0%)" fill-opacity="1" stroke-width="0.01" stroke-linecap="butt" stroke-linejoin="miter" stroke="rgb(0%, 0%, 0%)" stroke-opacity="1" stroke-miterlimit="10" d="M 83.953125 467.304688 C 83.953125 468.640625 81.953125 468.640625 81.953125 467.304688 C 81.953125 465.972656 83.953125 465.972656 83.953125 467.304688 "/>
<path fill-rule="nonzero" fill="rgb(100%, 0%, 0%)" fill-opacity="1" stroke-width="0.01" stroke-linecap="butt" stroke-linejoin="miter" stroke="rgb(0%, 0%, 0%)" stroke-opacity="1" stroke-miterlimit="10" d="M 277.667969 533.816406 C 277.667969 535.148438 275.667969 535.148438 275.667969 533.816406 C 275.667969 532.480469 277.667969 532.480469 277.667969 533.816406 "/>
<path fill-rule="nonzero" fill="rgb(100%, 0%, 0%)" fill-opacity="1" stroke-width="0.01" stroke-linecap="butt" stroke-linejoin="miter" stroke="rgb(0%, 0%, 0%)" stroke-opacity="1" stroke-miterlimit="10" d="M 360.949219 354.929688 C 360.949219 356.261719 358.949219 356.261719 358.949219 354.929688 C 358.949219 353.59375 360.949219 353.59375 360.949219 354.929688 "/>
<path fill-rule="nonzero" fill="rgb(100%, 0%, 0%)" fill-opacity="1" stroke-width="0.01" stroke-linecap="butt" stroke-linejoin="miter" stroke="rgb(0%, 0%, 0%)" stroke-opacity="1" stroke-miterlimit="10" d="M 307.8125 331.683594 C 307.8125 333.015625 305.8125 333.015625 305.8125 331.683594 C 305.8125 330.347656 307.8125 330.347656 307.8125 331.683594 "/>
<path fill-rule="nonzero" fill="rgb(100%, 0%, 0%)" fill-opacity="1" stroke-width="0.01" stroke-linecap="butt" stroke-linejoin="miter" stroke="rgb(0%, 0%, 0%)" stroke-opacity="1" stroke-miterlimit="10" d="M 378.324219 136.394531 C 378.324219 137.730469 376.324219 137.730469 376.324219 136.394531 C 376.324219 135.0625 378.324219 135.0625 378.324219 136.394531 "/>
<path fill-rule="nonzero" fill="rgb(100%, 0%, 0%)" fill-opacity="1" stroke-width="0.01" stroke-linecap="butt" stroke-linejoin="miter" stroke="rgb(0%, 0%, 0%)" stroke-opacity="1" stroke-miterlimit="10" d="M 241.042969 404.132812 C 241.042969 405.464844 239.042969 405.464844 239.042969 404.132812 C 239.042969 402.800781 241.042969 402.800781 241.042969 404.132812 "/>
<path fill-rule="nonzero" fill="rgb(100%, 0%, 0%)" fill-opacity="1" stroke-width="0.01" stroke-linecap="butt" stroke-linejoin="miter" stroke="rgb(0%, 0%, 0%)" stroke-opacity="1" stroke-miterlimit="10" d="M 207.03125 554.261719 C 207.03125 555.597656 205.03125 555.597656 205.03125 554.261719 C 205.03125 552.929688 207.03125 552.929688 207.03125 554.261719 "/>
<path fill-rule="nonzero" fill="rgb(100%, 0%, 0%)" fill-opacity="1" stroke-width="0.01" stroke-linecap="butt" stroke-linejoin="miter" stroke="rgb(0%, 0%, 0%)" stroke-opacity="1" stroke-miterlimit="10" d="M 463.621094 410.996094 C 463.621094 412.332031 461.621094 412.332031 461.621094 410.996094 C 461.621094 409.664062 463.621094 409.664062 463.621094 410.996094 "/>
<path fill-rule="nonzero" fill="rgb(100%, 0%, 0%)" fill-opacity="1" stroke-width="0.01" stroke-linecap="butt" stroke-linejoin="miter" stroke="rgb(0%, 0%, 0%)" stroke-opacity="1" stroke-miterlimit="10" d="M 206.421875 84.273438 C 206.421875 85.605469 204.421875 85.605469 204.421875 84.273438 C 204.421875 82.941406 206.421875 82.941406 206.421875 84.273438 "/>
<path fill-rule="nonzero" fill="rgb(100%, 0%, 0%)" fill-opacity="1" stroke-width="0.01" stroke-linecap="butt" stroke-linejoin="miter" stroke="rgb(0%, 0%, 0%)" stroke-opacity="1" stroke-miterlimit="10" d="M 284.445312 312.359375 C 284.445312 313.691406 282.445312 313.691406 282.445312 312.359375 C 282.445312 311.023438 284.445312 311.023438 284.445312 312.359375 "/>
<path fill-rule="nonzero" fill="rgb(100%, 0%, 0%)" fill-opacity="1" stroke-width="0.01" stroke-linecap="butt" stroke-linejoin="miter" stroke="rgb(0%, 0%, 0%)" stroke-opacity="1" stroke-miterlimit="10" d="M 246.789062 567.613281 C 246.789062 568.945312 244.789062 568.945312 244.789062 567.613281 C 244.789062 566.28125 246.789062 566.28125 246.789062 567.613281 "/>
<path fill-rule="nonzero" fill="rgb(100%, 0%, 0%)" fill-opacity="1" stroke-width="0.01" stroke-linecap="butt" stroke-linejoin="miter" stroke="rgb(0%, 0%, 0%)" stroke-opacity="1" stroke-miterlimit="10" d="M 527.296875 332.460938 C 527.296875 333.792969 525.296875 333.792969 525.296875 332.460938 C 525.296875 331.125 527.296875 331.125 527.296875 332.460938 "/>
<path fill-rule="nonzero" fill="rgb(100%, 0%, 0%)" fill-opacity="1" stroke-width="0.01" stroke-linecap="butt" stroke-linejoin="miter" stroke="rgb(0%, 0%, 0%)" stroke-opacity="1" stroke-miterlimit="10" d="M 126.414062 262.179688 C 126.414062 263.511719 124.414062 263.511719 124.414062 262.179688 C 124.414062 260.847656 126.414062 260.847656 126.414062 262.179688 "/>
<path fill-rule="nonzero" fill="rgb(100%, 0%, 0%)" fill-opacity="1" stroke-width="0.01" stroke-linecap="butt" stroke-linejoin="miter" stroke="rgb(0%, 0%, 0%)" stroke-opacity="1" stroke-miterlimit="10" d="M 160.808594 221.296875 C 160.808594 222.628906 158.808594 222.628906 158.808594 221.296875 C 158.808594 219.960938 160.808594 219.960938 160.808594 221.296875 "/>
<path fill-rule="nonzero" fill="rgb(100%, 0%, 0%)" fill-opacity="1" stroke-width="0.01" stroke-linecap="butt" stroke-linejoin="miter" stroke="rgb(0%, 0%, 0%)" stroke-opacity="1" stroke-miterlimit="10" d="M 89.214844 327.726562 C 89.214844 329.058594 87.214844 329.058594 87.214844 327.726562 C 87.214844 326.394531 89.214844 326.394531 89.214844 327.726562 "/>
<path fill-rule="nonzero" fill="rgb(100%, 0%, 0%)" fill-opacity="1" stroke-width="0.01" stroke-linecap="butt" stroke-linejoin="miter" stroke="rgb(0%, 0%, 0%)" stroke-opacity="1" stroke-miterlimit="10" d="M 193.292969 326.4375 C 193.292969 327.769531 191.292969 327.769531 191.292969 326.4375 C 191.292969 325.101562 193.292969 325.101562 193.292969 326.4375 "/>
<path fill-rule="nonzero" fill="rgb(100%, 0%, 0%)" fill-opacity="1" stroke-width="0.01" stroke-linecap="butt" stroke-linejoin="miter" stroke="rgb(0%, 0%, 0%)" stroke-opacity="1" stroke-miterlimit="10" d="M 133.136719 469.546875 C 133.136719 470.878906 131.136719 470.878906 131.136719 469.546875 C 131.136719 468.210938 133.136719 468.210938 133.136719 469.546875 "/>
<path fill-rule="nonzero" fill="rgb(100%, 0%, 0%)" fill-opacity="1" stroke-width="0.01" stroke-linecap="butt" stroke-linejoin="miter" stroke="rgb(0%, 0%, 0%)" stroke-opacity="1" stroke-miterlimit="10" d="M 244.574219 239.816406 C 244.574219 241.148438 242.574219 241.148438 242.574219 239.816406 C 242.574219 238.480469 244.574219 238.480469 244.574219 239.816406 "/>
<path fill-rule="nonzero" fill="rgb(100%, 0%, 0%)" fill-opacity="1" stroke-width="0.01" stroke-linecap="butt" stroke-linejoin="miter" stroke="rgb(0%, 0%, 0%)" stroke-opacity="1" stroke-miterlimit="10" d="M 196.640625 133.808594 C 196.640625 135.140625 194.640625 135.140625 194.640625 133.808594 C 194.640625 132.476562 196.640625 132.476562 196.640625 133.808594 "/>
<path fill-rule="nonzero" fill="rgb(100%, 0%, 0%)" fill-opacity="1" stroke-width="0.01" stroke-linecap="butt" stroke-linejoin="miter" stroke="rgb(0%, 0%, 0%)" stroke-opacity="1" stroke-miterlimit="10" d="M 302.597656 136.101562 C 302.597656 137.4375 300.597656 137.4375 300.597656 136.101562 C 300.597656 134.769531 302.597656 134.769531 302.597656 136.101562 "/>
<path fill-rule="nonzero" fill="rgb(100%, 0%, 0%)" fill-opacity="1" stroke-width="0.01" stroke-linecap="butt" stroke-linejoin="miter" stroke="rgb(0%, 0%, 0%)" stroke-opacity="1" stroke-miterlimit="10" d="M 216.214844 342.890625 C 216.214844 344.222656 214.214844 344.222656 214.214844 342.890625 C 214.214844 341.554688 216.214844 341.554688 216.214844 342.890625 "/>
<path fill-rule="nonzero" fill="rgb(100%, 0%, 0%)" fill-opacity="1" stroke-width="0.01" stroke-linecap="butt" stroke-linejoin="miter" stroke="rgb(0%, 0%, 0%)" stroke-opacity="1" stroke-miterlimit="10" d="M 257.171875 276.457031 C 257.171875 277.789062 255.171875 277.789062 255.171875 276.457031 C 255.171875 275.121094 257.171875 275.121094 257.171875 276.457031 "/>
<path fill-rule="nonzero" fill="rgb(100%, 0%, 0%)" fill-opacity="1" stroke-width="0.01" stroke-linecap="butt" stroke-linejoin="miter" stroke="rgb(0%, 0%, 0%)" stroke-opacity="1" stroke-miterlimit="10" d="M 267.734375 211.714844 C 267.734375 213.046875 265.734375 213.046875 265.734375 211.714844 C 265.734375 210.382812 267.734375 210.382812 267.734375 211.714844 "/>
<path fill-rule="nonzero" fill="rgb(100%, 0%, 0%)" fill-opacity="1" stroke-width="0.01" stroke-linecap="butt" stroke-linejoin="miter" stroke="rgb(0%, 0%, 0%)" stroke-opacity="1" stroke-miterlimit="10" d="M 54.144531 433.058594 C 54.144531 434.390625 52.144531 434.390625 52.144531 433.058594 C 52.144531 431.722656 54.144531 431.722656 54.144531 433.058594 "/>
<path fill-rule="nonzero" fill="rgb(100%, 0%, 0%)" fill-opacity="1" stroke-width="0.01" stroke-linecap="butt" stroke-linejoin="miter" stroke="rgb(0%, 0%, 0%)" stroke-opacity="1" stroke-miterlimit="10" d="M 396.339844 83.664062 C 396.339844 84.996094 394.339844 84.996094 394.339844 83.664062 C 394.339844 82.332031 396.339844 82.332031 396.339844 83.664062 "/>
<path fill-rule="nonzero" fill="rgb(100%, 0%, 0%)" fill-opacity="1" stroke-width="0.01" stroke-linecap="butt" stroke-linejoin="miter" stroke="rgb(0%, 0%, 0%)" stroke-opacity="1" stroke-miterlimit="10" d="M 445.121094 95.203125 C 445.121094 96.535156 443.121094 96.535156 443.121094 95.203125 C 443.121094 93.867188 445.121094 93.867188 445.121094 95.203125 "/>
<path fill-rule="nonzero" fill="rgb(100%, 0%, 0%)" fill-opacity="1" stroke-width="0.01" stroke-linecap="butt" stroke-linejoin="miter" stroke="rgb(0%, 0%, 0%)" stroke-opacity="1" stroke-miterlimit="10" d="M 165.640625 105.75 C 165.640625 107.082031 163.640625 107.082031 163.640625 105.75 C 163.640625 104.417969 165.640625 104.417969 165.640625 105.75 "/>
<path fill-rule="nonzero" fill="rgb(100%, 0%, 0%)" fill-opacity="1" stroke-width="0.01" stroke-linecap="butt" stroke-linejoin="miter" stroke="rgb(0%, 0%, 0%)" stroke-opacity="1" stroke-miterlimit="10" d="M 135.253906 71.023438 C 135.253906 72.359375 133.253906 72.359375 133.253906 71.023438 C 133.253906 69.691406 135.253906 69.691406 135.253906 71.023438 "/>
<path fill-rule="nonzero" fill="rgb(100%, 0%, 0%)" fill-opacity="1" stroke-width="0.01" stroke-linecap="butt" stroke-linejoin="miter" stroke="rgb(0%, 0%, 0%)" stroke-opacity="1" stroke-miterlimit="10" d="M 208.3125 428.566406 C 208.3125 429.898438 206.3125 429.898438 206.3125 428.566406 C 206.3125 427.234375 208.3125 427.234375 208.3125 428.566406 "/>
<path fill-rule="nonzero" fill="rgb(100%, 0%, 0%)" fill-opacity="1" stroke-width="0.01" stroke-linecap="butt" stroke-linejoin="miter" stroke="rgb(0%, 0%, 0%)" stroke-opacity="1" stroke-miterlimit="10" d="M 62.78125 234.507812 C 62.78125 235.839844 60.78125 235.839844 60.78125 234.507812 C 60.78125 233.175781 62.78125 233.175781 62.78125 234.507812 "/>
<path fill-rule="nonzero" fill="rgb(100%, 0%, 0%)" fill-opacity="1" stroke-width="0.01" stroke-linecap="butt" stroke-linejoin="miter" stroke="rgb(0%, 0%, 0%)" stroke-opacity="1" stroke-miterlimit="10" d="M 206.375 307.914062 C 206.375 309.25 204.375 309.25 204.375 307.914062 C 204.375 306.582031 206.375 306.582031 206.375 307.914062 "/>
<path fill-rule="nonzero" fill="rgb(100%, 0%, 0%)" fill-opacity="1" stroke-width="0.01" stroke-linecap="butt" stroke-linejoin="miter" stroke="rgb(0%, 0%, 0%)" stroke-opacity="1" stroke-miterlimit="10" d="M 253.632812 448.832031 C 253.632812 450.164062 251.632812 450.164062 251.632812 448.832031 C 251.632812 447.496094 253.632812 447.496094 253.632812 448.832031 "/>
<path fill-rule="nonzero" fill="rgb(100%, 0%, 0%)" fill-opacity="1" stroke-width="0.01" stroke-linecap="butt" stroke-linejoin="miter" stroke="rgb(0%, 0%, 0%)" stroke-opacity="1" stroke-miterlimit="10" d="M 403.21875 447.71875 C 403.21875 449.054688 401.21875 449.054688 401.21875 447.71875 C 401.21875 446.386719 403.21875 446.386719 403.21875 447.71875 "/>
<path fill-rule="nonzero" fill="rgb(100%, 0%, 0%)" fill-opacity="1" stroke-width="0.01" stroke-linecap="butt" stroke-linejoin="miter" stroke="rgb(0%, 0%, 0%)" stroke-opacity="1" stroke-miterlimit="10" d="M 394.484375 238.511719 C 394.484375 239.84375 392.484375 239.84375 392.484375 238.511719 C 392.484375 237.175781 394.484375 237.175781 394.484375 238.511719 "/>
</svg>
