<?xml version="1.0" encoding="UTF-8"?>
<svg xmlns="http://www.w3.org/2000/svg" xmlns:xlink="http://www.w3.org/1999/xlink" width="600" height="600" viewBox="0 0 600 600">
<rect x="-60" y="-60" width="720" height="720" fill="rgb(100%, 100%, 100%)" fill-opacity="1"/>
<path fill="none" stroke-width="0.2" stroke-linecap="butt" stroke-linejoin="miter" stroke="rgb(26.666667%, 26.666667%, 26.666667%)" stroke-opacity="1" stroke-miterlimit="10" d="M 385.738281 83.046875 L 373.503906 75.667969 "/>
<path fill-rule="nonzero" fill="rgb(26.666667%, 26.666667%, 26.666667%)" fill-opacity="1" d="M 371.671875 74.566406 L 373.863281 75.074219 L 373.148438 76.265625 L 371.671875 74.566406 "/>
<path fill="none" stroke-width="0.2" stroke-linecap="butt" stroke-linejoin="miter" stroke="rgb(26.666667%, 26.666667%, 26.666667%)" stroke-opacity="1" stroke-miterlimit="10" d="M 347.941406 310.152344 L 359.128906 318.640625 "/>
<path fill-rule="nonzero" fill="rgb(26.666667%, 26.666667%, 26.666667%)" fill-opacity="1" d="M 360.832031 319.933594 L 358.707031 319.195312 L 359.546875 318.085938 L 360.832031 319.933594 "/>
<path fill="none" stroke-width="0.2" stroke-linecap="butt" stroke-linejoin="miter" stroke="rgb(26.666667%, 26.666667%, 26.666667%)" stroke-opacity="1" stroke-miterlimit="10" d="M 82.039062 128.480469 C 82.039062 130.480469 79.039062 130.480469 79.039062 128.480469 C 79.039062 126.480469 82.039062 126.480469 82.039062 128.480469 "/>
<path fill="none" stroke-width="0.2" stroke-linecap="butt" stroke-linejoin="miter" stroke="rgb(26.666667%, 26.666667%, 26.666667%)" stroke-opacity="1" stroke-miterlimit="10" d="M 84.390625 365.964844 L 79.488281 353.246094 "/>
<path fill-rule="nonzero" fill="rgb(26.666667%, 26.666667%, 26.666667%)" fill-opacity="1" d="M 78.71875 351.25 L 80.136719 352.996094 L 78.839844 353.496094 L 78.71875 351.25 "/>
<path fill="none" stroke-width="0.2" stroke-linecap="butt" stroke-linejoin="miter" stroke="rgb(26.666667%, 26.666667%, 26.666667%)" stroke-opacity="1" stroke-miterlimit="10" d="M 355.484375 399.867188 L 364.398438 389.222656 "/>
<path fill-rule="nonzero" fill="rgb(26.666667%, 26.666667%, 26.666667%)" fill-opacity="1" d="M 365.773438 387.582031 L 364.929688 389.667969 L 363.867188 388.777344 L 365.773438 387.582031 "/>
<path fill="none" stroke-width="0.2" stroke-linecap="butt" stroke-linejoin="miter" stroke="rgb(26.666667%, 26.666667%, 26.666667%)" stroke-opacity="1" stroke-miterlimit="10" d="M 578.4375 345.050781 L 565.324219 350.703125 "/>
<path fill-rule="nonzero" fill="rgb(26.666667%, 26.666667%, 26.666667%)" fill-opacity="1" d="M 563.359375 351.550781 L 565.050781 350.0625 L 565.601562 351.339844 L 563.359375 351.550781 "/>
<path fill="none" stroke-width="0.2" stroke-linecap="butt" stroke-linejoin="miter" stroke="rgb(26.666667%, 26.666667%, 26.666667%)" stroke-opacity="1" stroke-miterlimit="10" d="M 266.351562 527.4375 L 278.9375 534.203125 "/>
<path fill-rule="nonzero" fill="rgb(26.666667%, 26.666667%, 26.666667%)" fill-opacity="1" d="M 280.820312 535.21875 L 278.609375 534.816406 L 279.265625 533.59375 L 280.820312 535.21875 "/>
<path fill="none" stroke-width="0.2" stroke-linecap="butt" stroke-linejoin="miter" stroke="rgb(26.666667%, 26.666667%, 26.666667%)" stroke-opacity="1" stroke-miterlimit="10" d="M 259.949219 301.832031 L 243.453125 308.089844 "/>
<path fill-rule="nonzero" fill="rgb(26.666667%, 26.666667%, 26.666667%)" fill-opacity="1" d="M 241.453125 308.847656 L 243.207031 307.441406 L 243.703125 308.738281 L 241.453125 308.847656 "/>
<path fill="none" stroke-width="0.2" stroke-linecap="butt" stroke-linejoin="miter" stroke="rgb(26.666667%, 26.666667%, 26.666667%)" stroke-opacity="1" stroke-miterlimit="10" d="M 259.949219 301.832031 L 274.738281 295.15625 "/>
<path fill-rule="nonzero" fill="rgb(26.666667%, 26.666667%, 26.666667%)" fill-opacity="1" d="M 276.6875 294.277344 L 275.023438 295.789062 L 274.453125 294.523438 L 276.6875 294.277344 "/>
<path fill="none" stroke-width="0.2" stroke-linecap="butt" stroke-linejoin="miter" stroke="rgb(26.666667%, 26.666667%, 26.666667%)" stroke-opacity="1" stroke-miterlimit="10" d="M 151.789062 450.535156 L 165.042969 456.070312 "/>
<path fill-rule="nonzero" fill="rgb(26.666667%, 26.666667%, 26.666667%)" fill-opacity="1" d="M 167.019531 456.894531 L 164.773438 456.710938 L 165.3125 455.429688 L 167.019531 456.894531 "/>
<path fill="none" stroke-width="0.2" stroke-linecap="butt" stroke-linejoin="miter" stroke="rgb(26.666667%, 26.666667%, 26.666667%)" stroke-opacity="1" stroke-miterlimit="10" d="M 41.691406 284.542969 L 28.535156 278.910156 "/>
<path fill-rule="nonzero" fill="rgb(26.666667%, 26.666667%, 26.666667%)" fill-opacity="1" d="M 26.570312 278.066406 L 28.808594 278.269531 L 28.261719 279.546875 L 26.570312 278.066406 "/>
<path fill="none" stroke-width="0.2" stroke-linecap="butt" stroke-linejoin="miter" stroke="rgb(26.666667%, 26.666667%, 26.666667%)" stroke-opacity="1" stroke-miterlimit="10" d="M 222.089844 315.085938 L 237.527344 310.160156 "/>
<path fill-rule="nonzero" fill="rgb(26.666667%, 26.666667%, 26.666667%)" fill-opacity="1" d="M 239.566406 309.507812 L 237.738281 310.820312 L 237.316406 309.496094 L 239.566406 309.507812 "/>
<path fill="none" stroke-width="0.2" stroke-linecap="butt" stroke-linejoin="miter" stroke="rgb(26.666667%, 26.666667%, 26.666667%)" stroke-opacity="1" stroke-miterlimit="10" d="M 149.71875 526.679688 L 136.664062 520.617188 "/>
<path fill-rule="nonzero" fill="rgb(26.666667%, 26.666667%, 26.666667%)" fill-opacity="1" d="M 134.722656 519.714844 L 136.957031 519.984375 L 136.371094 521.246094 L 134.722656 519.714844 "/>
<path fill="none" stroke-width="0.2" stroke-linecap="butt" stroke-linejoin="miter" stroke="rgb(26.666667%, 26.666667%, 26.666667%)" stroke-opacity="1" stroke-miterlimit="10" d="M 437.953125 37.070312 L 425.820312 29.421875 "/>
<path fill-rule="nonzero" fill="rgb(26.666667%, 26.666667%, 26.666667%)" fill-opacity="1" d="M 424.011719 28.277344 L 426.191406 28.832031 L 425.449219 30.007812 L 424.011719 28.277344 "/>
<path fill="none" stroke-width="0.2" stroke-linecap="butt" stroke-linejoin="miter" stroke="rgb(26.666667%, 26.666667%, 26.666667%)" stroke-opacity="1" stroke-miterlimit="10" d="M 176.796875 186.289062 L 198.542969 195.609375 "/>
<path fill-rule="nonzero" fill="rgb(26.666667%, 26.666667%, 26.666667%)" fill-opacity="1" d="M 200.511719 196.449219 L 198.269531 196.246094 L 198.816406 194.96875 L 200.511719 196.449219 "/>
<path fill="none" stroke-width="0.2" stroke-linecap="butt" stroke-linejoin="miter" stroke="rgb(26.666667%, 26.666667%, 26.666667%)" stroke-opacity="1" stroke-miterlimit="10" d="M 154.714844 362.210938 L 150.496094 375.164062 "/>
<path fill-rule="nonzero" fill="rgb(26.666667%, 26.666667%, 26.666667%)" fill-opacity="1" d="M 149.835938 377.195312 L 149.835938 374.945312 L 151.160156 375.378906 L 149.835938 377.195312 "/>
<path fill="none" stroke-width="0.2" stroke-linecap="butt" stroke-linejoin="miter" stroke="rgb(26.666667%, 26.666667%, 26.666667%)" stroke-opacity="1" stroke-miterlimit="10" d="M 219.601562 392.09375 L 232.550781 397.878906 "/>
<path fill-rule="nonzero" fill="rgb(26.666667%, 26.666667%, 26.666667%)" fill-opacity="1" d="M 234.503906 398.753906 L 232.265625 398.515625 L 232.832031 397.246094 L 234.503906 398.753906 "/>
<path fill="none" stroke-width="0.2" stroke-linecap="butt" stroke-linejoin="miter" stroke="rgb(26.666667%, 26.666667%, 26.666667%)" stroke-opacity="1" stroke-miterlimit="10" d="M 580 269.796875 L 579.382812 256.339844 "/>
<path fill-rule="nonzero" fill="rgb(26.666667%, 26.666667%, 26.666667%)" fill-opacity="1" d="M 579.285156 254.203125 L 580.074219 256.308594 L 578.6875 256.371094 L 579.285156 254.203125 "/>
<path fill="none" stroke-width="0.2" stroke-linecap="butt" stroke-linejoin="miter" stroke="rgb(26.666667%, 26.666667%, 26.666667%)" stroke-opacity="1" stroke-miterlimit="10" d="M 549.707031 147.613281 L 560.019531 157.210938 "/>
<path fill-rule="nonzero" fill="rgb(26.666667%, 26.666667%, 26.666667%)" fill-opacity="1" d="M 561.585938 158.671875 L 559.546875 157.722656 L 560.492188 156.703125 L 561.585938 158.671875 "/>
<path fill="none" stroke-width="0.2" stroke-linecap="butt" stroke-linejoin="miter" stroke="rgb(26.666667%, 26.666667%, 26.666667%)" stroke-opacity="1" stroke-miterlimit="10" d="M 417.953125 301.492188 L 410.464844 289.824219 "/>
<path fill-rule="nonzero" fill="rgb(26.666667%, 26.666667%, 26.666667%)" fill-opacity="1" d="M 409.308594 288.023438 L 411.046875 289.449219 L 409.878906 290.199219 L 409.308594 288.023438 "/>
<path fill="none" stroke-width="0.2" stroke-linecap="butt" stroke-linejoin="miter" stroke="rgb(26.666667%, 26.666667%, 26.666667%)" stroke-opacity="1" stroke-miterlimit="10" d="M 291.429688 360.855469 L 298.613281 372.386719 "/>
<path fill-rule="nonzero" fill="rgb(26.666667%, 26.666667%, 26.666667%)" fill-opacity="1" d="M 299.746094 374.203125 L 298.023438 372.753906 L 299.203125 372.019531 L 299.746094 374.203125 "/>
<path fill="none" stroke-width="0.2" stroke-linecap="butt" stroke-linejoin="miter" stroke="rgb(26.666667%, 26.666667%, 26.666667%)" stroke-opacity="1" stroke-miterlimit="10" d="M 232.160156 578.9375 C 232.160156 580.9375 229.160156 580.9375 229.160156 578.9375 C 229.160156 576.9375 232.160156 576.9375 232.160156 578.9375 "/>
<path fill="none" stroke-width="0.2" stroke-linecap="butt" stroke-linejoin="miter" stroke="rgb(26.666667%, 26.666667%, 26.666667%)" stroke-opacity="1" stroke-miterlimit="10" d="M 288.84375 180.875 L 302.679688 184.472656 "/>
<path fill-rule="nonzero" fill="rgb(26.666667%, 26.666667%, 26.666667%)" fill-opacity="1" d="M 304.75 185.011719 L 302.503906 185.144531 L 302.855469 183.800781 L 304.75 185.011719 "/>
<path fill="none" stroke-width="0.2" stroke-linecap="butt" stroke-linejoin="miter" stroke="rgb(26.666667%, 26.666667%, 26.666667%)" stroke-opacity="1" stroke-miterlimit="10" d="M 20 398.800781 L 28.011719 410.195312 "/>
<path fill-rule="nonzero" fill="rgb(26.666667%, 26.666667%, 26.666667%)" fill-opacity="1" d="M 29.242188 411.945312 L 27.441406 410.59375 L 28.578125 409.796875 L 29.242188 411.945312 "/>
<path fill="none" stroke-width="0.2" stroke-linecap="butt" stroke-linejoin="miter" stroke="rgb(26.666667%, 26.666667%, 26.666667%)" stroke-opacity="1" stroke-miterlimit="10" d="M 461.210938 133.613281 L 456.199219 146.328125 "/>
<path fill-rule="nonzero" fill="rgb(26.666667%, 26.666667%, 26.666667%)" fill-opacity="1" d="M 455.414062 148.320312 L 455.550781 146.074219 L 456.847656 146.585938 L 455.414062 148.320312 "/>
<path fill="none" stroke-width="0.2" stroke-linecap="butt" stroke-linejoin="miter" stroke="rgb(26.666667%, 26.666667%, 26.666667%)" stroke-opacity="1" stroke-miterlimit="10" d="M 62.695312 201.339844 L 50.183594 194.484375 "/>
<path fill-rule="nonzero" fill="rgb(26.666667%, 26.666667%, 26.666667%)" fill-opacity="1" d="M 48.304688 193.453125 L 50.515625 193.875 L 49.847656 195.09375 L 48.304688 193.453125 "/>
<path fill="none" stroke-width="0.2" stroke-linecap="butt" stroke-linejoin="miter" stroke="rgb(26.666667%, 26.666667%, 26.666667%)" stroke-opacity="1" stroke-miterlimit="10" d="M 468.105469 264.726562 L 458.820312 254.183594 "/>
<path fill-rule="nonzero" fill="rgb(26.666667%, 26.666667%, 26.666667%)" fill-opacity="1" d="M 457.40625 252.578125 L 459.34375 253.722656 L 458.300781 254.644531 L 457.40625 252.578125 "/>
<path fill="none" stroke-width="0.2" stroke-linecap="butt" stroke-linejoin="miter" stroke="rgb(26.666667%, 26.666667%, 26.666667%)" stroke-opacity="1" stroke-miterlimit="10" d="M 378.160156 217.335938 L 365.59375 224.085938 "/>
<path fill-rule="nonzero" fill="rgb(26.666667%, 26.666667%, 26.666667%)" fill-opacity="1" d="M 363.707031 225.097656 L 365.265625 223.472656 L 365.921875 224.699219 L 363.707031 225.097656 "/>
<path fill="none" stroke-width="0.2" stroke-linecap="butt" stroke-linejoin="miter" stroke="rgb(26.666667%, 26.666667%, 26.666667%)" stroke-opacity="1" stroke-miterlimit="10" d="M 551.144531 431.523438 L 536.636719 431.832031 "/>
<path fill-rule="nonzero" fill="rgb(26.666667%, 26.666667%, 26.666667%)" fill-opacity="1" d="M 534.496094 431.878906 L 536.621094 431.136719 L 536.648438 432.527344 L 534.496094 431.878906 "/>
<path fill="none" stroke-width="0.2" stroke-linecap="butt" stroke-linejoin="miter" stroke="rgb(26.666667%, 26.666667%, 26.666667%)" stroke-opacity="1" stroke-miterlimit="10" d="M 190.484375 28.9375 L 202.792969 21.605469 "/>
<path fill-rule="nonzero" fill="rgb(26.666667%, 26.666667%, 26.666667%)" fill-opacity="1" d="M 204.632812 20.511719 L 203.148438 22.203125 L 202.4375 21.007812 L 204.632812 20.511719 "/>
<path fill="none" stroke-width="0.2" stroke-linecap="butt" stroke-linejoin="miter" stroke="rgb(26.666667%, 26.666667%, 26.666667%)" stroke-opacity="1" stroke-miterlimit="10" d="M 149.9375 107.089844 L 147.691406 120.375 "/>
<path fill-rule="nonzero" fill="rgb(26.666667%, 26.666667%, 26.666667%)" fill-opacity="1" d="M 147.335938 122.488281 L 147.007812 120.261719 L 148.378906 120.492188 L 147.335938 122.488281 "/>
<path fill="none" stroke-width="0.2" stroke-linecap="butt" stroke-linejoin="miter" stroke="rgb(26.666667%, 26.666667%, 26.666667%)" stroke-opacity="1" stroke-miterlimit="10" d="M 486.003906 341.25 L 483.652344 354.492188 "/>
<path fill-rule="nonzero" fill="rgb(26.666667%, 26.666667%, 26.666667%)" fill-opacity="1" d="M 483.277344 356.601562 L 482.96875 354.371094 L 484.335938 354.617188 L 483.277344 356.601562 "/>
<path fill="none" stroke-width="0.2" stroke-linecap="butt" stroke-linejoin="miter" stroke="rgb(26.666667%, 26.666667%, 26.666667%)" stroke-opacity="1" stroke-miterlimit="10" d="M 357.5625 141.867188 L 370.464844 148.03125 "/>
<path fill-rule="nonzero" fill="rgb(26.666667%, 26.666667%, 26.666667%)" fill-opacity="1" d="M 372.394531 148.953125 L 370.164062 148.660156 L 370.765625 147.402344 L 372.394531 148.953125 "/>
<path fill="none" stroke-width="0.2" stroke-linecap="butt" stroke-linejoin="miter" stroke="rgb(26.666667%, 26.666667%, 26.666667%)" stroke-opacity="1" stroke-miterlimit="10" d="M 126.375 277.917969 L 122.441406 264.957031 "/>
<path fill-rule="nonzero" fill="rgb(26.666667%, 26.666667%, 26.666667%)" fill-opacity="1" d="M 121.820312 262.910156 L 123.109375 264.753906 L 121.777344 265.15625 L 121.820312 262.910156 "/>
<path fill="none" stroke-width="0.2" stroke-linecap="butt" stroke-linejoin="miter" stroke="rgb(26.666667%, 26.666667%, 26.666667%)" stroke-opacity="1" stroke-miterlimit="10" d="M 498.339844 521.121094 L 487.304688 530.019531 "/>
<path fill-rule="nonzero" fill="rgb(26.666667%, 26.666667%, 26.666667%)" fill-opacity="1" d="M 485.636719 531.363281 L 486.867188 529.476562 L 487.742188 530.558594 L 485.636719 531.363281 "/>
<path fill="none" stroke-width="0.2" stroke-linecap="butt" stroke-linejoin="miter" stroke="rgb(26.666667%, 26.666667%, 26.666667%)" stroke-opacity="1" stroke-miterlimit="10" d="M 183.160156 203.476562 L 193.710938 182.535156 "/>
<path fill-rule="nonzero" fill="rgb(26.666667%, 26.666667%, 26.666667%)" fill-opacity="1" d="M 194.671875 180.625 L 194.332031 182.847656 L 193.089844 182.222656 L 194.671875 180.625 "/>
<path fill="none" stroke-width="0.2" stroke-linecap="butt" stroke-linejoin="miter" stroke="rgb(26.666667%, 26.666667%, 26.666667%)" stroke-opacity="1" stroke-miterlimit="10" d="M 268.695312 99.242188 L 265.382812 76.671875 "/>
<path fill-rule="nonzero" fill="rgb(26.666667%, 26.666667%, 26.666667%)" fill-opacity="1" d="M 265.074219 74.554688 L 266.070312 76.570312 L 264.695312 76.769531 L 265.074219 74.554688 "/>
<path fill="none" stroke-width="0.2" stroke-linecap="butt" stroke-linejoin="miter" stroke="rgb(26.666667%, 26.666667%, 26.666667%)" stroke-opacity="1" stroke-miterlimit="10" d="M 433.90625 403.097656 L 423.410156 412.324219 "/>
<path fill-rule="nonzero" fill="rgb(26.666667%, 26.666667%, 26.666667%)" fill-opacity="1" d="M 421.804688 413.738281 L 422.949219 411.804688 L 423.871094 412.847656 L 421.804688 413.738281 "/>
<path fill="none" stroke-width="0.2" stroke-linecap="butt" stroke-linejoin="miter" stroke="rgb(26.666667%, 26.666667%, 26.666667%)" stroke-opacity="1" stroke-miterlimit="10" d="M 382.875 553.414062 L 370.199219 560.019531 "/>
<path fill-rule="nonzero" fill="rgb(26.666667%, 26.666667%, 26.666667%)" fill-opacity="1" d="M 368.300781 561.007812 L 369.878906 559.402344 L 370.519531 560.636719 L 368.300781 561.007812 "/>
<path fill="none" stroke-width="0.2" stroke-linecap="butt" stroke-linejoin="miter" stroke="rgb(26.666667%, 26.666667%, 26.666667%)" stroke-opacity="1" stroke-miterlimit="10" d="M 433.515625 478.785156 L 445.839844 471.550781 "/>
<path fill-rule="nonzero" fill="rgb(26.666667%, 26.666667%, 26.666667%)" fill-opacity="1" d="M 447.6875 470.46875 L 446.191406 472.152344 L 445.488281 470.953125 L 447.6875 470.46875 "/>
<path fill="none" stroke-width="0.2" stroke-linecap="butt" stroke-linejoin="miter" stroke="rgb(26.666667%, 26.666667%, 26.666667%)" stroke-opacity="1" stroke-miterlimit="10" d="M 264.828125 456.671875 L 250.828125 460.242188 "/>
<path fill-rule="nonzero" fill="rgb(26.666667%, 26.666667%, 26.666667%)" fill-opacity="1" d="M 248.753906 460.769531 L 250.65625 459.566406 L 251 460.914062 L 248.753906 460.769531 "/>
<path fill="none" stroke-width="0.2" stroke-linecap="butt" stroke-linejoin="miter" stroke="rgb(26.666667%, 26.666667%, 26.666667%)" stroke-opacity="1" stroke-miterlimit="10" d="M 500.445312 207.796875 L 509.800781 218.164062 "/>
<path fill-rule="nonzero" fill="rgb(26.666667%, 26.666667%, 26.666667%)" fill-opacity="1" d="M 511.234375 219.75 L 509.285156 218.628906 L 510.316406 217.695312 L 511.234375 219.75 "/>
<path fill="none" stroke-width="0.2" stroke-linecap="butt" stroke-linejoin="miter" stroke="rgb(26.666667%, 26.666667%, 26.666667%)" stroke-opacity="1" stroke-miterlimit="10" d="M 280.414062 84.527344 L 256.214844 87.855469 "/>
<path fill-rule="nonzero" fill="rgb(26.666667%, 26.666667%, 26.666667%)" fill-opacity="1" d="M 254.09375 88.148438 L 256.121094 87.167969 L 256.308594 88.546875 L 254.09375 88.148438 "/>
<path fill="none" stroke-width="0.2" stroke-linecap="butt" stroke-linejoin="miter" stroke="rgb(26.666667%, 26.666667%, 26.666667%)" stroke-opacity="1" stroke-miterlimit="10" d="M 245.449219 242.039062 L 232.273438 248.027344 "/>
<path fill-rule="nonzero" fill="rgb(26.666667%, 26.666667%, 26.666667%)" fill-opacity="1" d="M 230.324219 248.910156 L 231.984375 247.390625 L 232.5625 248.660156 L 230.324219 248.910156 "/>
<path fill="none" stroke-width="0.2" stroke-linecap="butt" stroke-linejoin="miter" stroke="rgb(26.666667%, 26.666667%, 26.666667%)" stroke-opacity="1" stroke-miterlimit="10" d="M 336.1875 481.808594 L 347.628906 473.683594 "/>
<path fill-rule="nonzero" fill="rgb(26.666667%, 26.666667%, 26.666667%)" fill-opacity="1" d="M 349.371094 472.441406 L 348.03125 474.25 L 347.222656 473.117188 L 349.371094 472.441406 "/>
<path fill-rule="nonzero" fill="rgb(100%, 0%, 0%)" fill-opacity="1" stroke-width="0.01" stroke-linecap="butt" stroke-linejoin="miter" stroke="rgb(0%, 0%, 0%)" stroke-opacity="1" stroke-miterlimit="10" d="M 386.738281 83.046875 C 386.738281 84.378906 384.738281 84.378906 384.738281 83.046875 C 384.738281 81.714844 386.738281 81.714844 386.738281 83.046875 "/>
<path fill-rule="nonzero" fill="rgb(100%, 0%, 0%)" fill-opacity="1" stroke-width="0.01" stroke-linecap="butt" stroke-linejoin="miter" stroke="rgb(0%, 0%, 0%)" stroke-opacity="1" stroke-miterlimit="10" d="M 371.816406 74.046875 C 371.816406 75.382812 369.816406 75.382812 369.816406 74.046875 C 369.816406 72.714844 371.816406 72.714844 371.816406 74.046875 "/>
<path fill-rule="nonzero" fill="rgb(100%, 0%, 0%)" fill-opacity="1" stroke-width="0.01" stroke-linecap="butt" stroke-linejoin="miter" stroke="rgb(0%, 0%, 0%)" stroke-opacity="1" stroke-miterlimit="10" d="M 348.941406 310.152344 C 348.941406 311.488281 346.941406 311.488281 346.941406 310.152344 C 346.941406 308.820312 348.941406 308.820312 348.941406 310.152344 "/>
<path fill-rule="nonzero" fill="rgb(100%, 0%, 0%)" fill-opacity="1" stroke-width="0.01" stroke-linecap="butt" stroke-linejoin="miter" stroke="rgb(0%, 0%, 0%)" stroke-opacity="1" stroke-miterlimit="10" d="M 362.628906 320.539062 C 362.628906 321.871094 360.628906 321.871094 360.628906 320.539062 C 360.628906 319.207031 362.628906 319.207031 362.628906 320.539062 "/>
<path fill-rule="nonzero" fill="rgb(100%, 0%, 0%)" fill-opacity="1" stroke-width="0.01" stroke-linecap="butt" stroke-linejoin="miter" stroke="rgb(0%, 0%, 0%)" stroke-opacity="1" stroke-miterlimit="10" d="M 80.476562 129.542969 C 80.476562 130.875 78.476562 130.875 78.476562 129.542969 C 78.476562 128.210938 80.476562 128.210938 80.476562 129.542969 "/>
<path fill-rule="nonzero" fill="rgb(100%, 0%, 0%)" fill-opacity="1" stroke-width="0.01" stroke-linecap="butt" stroke-linejoin="miter" stroke="rgb(0%, 0%, 0%)" stroke-opacity="1" stroke-miterlimit="10" d="M 85.390625 365.964844 C 85.390625 367.300781 83.390625 367.300781 83.390625 365.964844 C 83.390625 364.632812 85.390625 364.632812 85.390625 365.964844 "/>
<path fill-rule="nonzero" fill="rgb(100%, 0%, 0%)" fill-opacity="1" stroke-width="0.01" stroke-linecap="butt" stroke-linejoin="miter" stroke="rgb(0%, 0%, 0%)" stroke-opacity="1" stroke-miterlimit="10" d="M 79.359375 350.316406 C 79.359375 351.652344 77.359375 351.652344 77.359375 350.316406 C 77.359375 348.984375 79.359375 348.984375 79.359375 350.316406 "/>
<path fill-rule="nonzero" fill="rgb(100%, 0%, 0%)" fill-opacity="1" stroke-width="0.01" stroke-linecap="butt" stroke-linejoin="miter" stroke="rgb(0%, 0%, 0%)" stroke-opacity="1" stroke-miterlimit="10" d="M 356.484375 399.867188 C 356.484375 401.199219 354.484375 401.199219 354.484375 399.867188 C 354.484375 398.53125 356.484375 398.53125 356.484375 399.867188 "/>
<path fill-rule="nonzero" fill="rgb(100%, 0%, 0%)" fill-opacity="1" stroke-width="0.01" stroke-linecap="butt" stroke-linejoin="miter" stroke="rgb(0%, 0%, 0%)" stroke-opacity="1" stroke-miterlimit="10" d="M 367.414062 386.816406 C 367.414062 388.148438 365.414062 388.148438 365.414062 386.816406 C 365.414062 385.480469 367.414062 385.480469 367.414062 386.816406 "/>
<path fill-rule="nonzero" fill="rgb(100%, 0%, 0%)" fill-opacity="1" stroke-width="0.01" stroke-linecap="butt" stroke-linejoin="miter" stroke="rgb(0%, 0%, 0%)" stroke-opacity="1" stroke-miterlimit="10" d="M 579.4375 345.050781 C 579.4375 346.382812 577.4375 346.382812 577.4375 345.050781 C 577.4375 343.71875 579.4375 343.71875 579.4375 345.050781 "/>
<path fill-rule="nonzero" fill="rgb(100%, 0%, 0%)" fill-opacity="1" stroke-width="0.01" stroke-linecap="butt" stroke-linejoin="miter" stroke="rgb(0%, 0%, 0%)" stroke-opacity="1" stroke-miterlimit="10" d="M 563.441406 351.945312 C 563.441406 353.277344 561.441406 353.277344 561.441406 351.945312 C 561.441406 350.613281 563.441406 350.613281 563.441406 351.945312 "/>
<path fill-rule="nonzero" fill="rgb(100%, 0%, 0%)" fill-opacity="1" stroke-width="0.01" stroke-linecap="butt" stroke-linejoin="miter" stroke="rgb(0%, 0%, 0%)" stroke-opacity="1" stroke-miterlimit="10" d="M 267.351562 527.4375 C 267.351562 528.769531 265.351562 528.769531 265.351562 527.4375 C 265.351562 526.101562 267.351562 526.101562 267.351562 527.4375 "/>
<path fill-rule="nonzero" fill="rgb(100%, 0%, 0%)" fill-opacity="1" stroke-width="0.01" stroke-linecap="butt" stroke-linejoin="miter" stroke="rgb(0%, 0%, 0%)" stroke-opacity="1" stroke-miterlimit="10" d="M 282.703125 535.691406 C 282.703125 537.027344 280.703125 537.027344 280.703125 535.691406 C 280.703125 534.359375 282.703125 534.359375 282.703125 535.691406 "/>
<path fill-rule="nonzero" fill="rgb(100%, 0%, 0%)" fill-opacity="1" stroke-width="0.01" stroke-linecap="butt" stroke-linejoin="miter" stroke="rgb(0%, 0%, 0%)" stroke-opacity="1" stroke-miterlimit="10" d="M 260.949219 301.832031 C 260.949219 303.164062 258.949219 303.164062 258.949219 301.832031 C 258.949219 300.5 260.949219 300.5 260.949219 301.832031 "/>
<path fill-rule="nonzero" fill="rgb(100%, 0%, 0%)" fill-opacity="1" stroke-width="0.01" stroke-linecap="butt" stroke-linejoin="miter" stroke="rgb(0%, 0%, 0%)" stroke-opacity="1" stroke-miterlimit="10" d="M 241.519531 309.203125 C 241.519531 310.535156 239.519531 310.535156 239.519531 309.203125 C 239.519531 307.871094 241.519531 307.871094 241.519531 309.203125 "/>
<path fill-rule="nonzero" fill="rgb(100%, 0%, 0%)" fill-opacity="1" stroke-width="0.01" stroke-linecap="butt" stroke-linejoin="miter" stroke="rgb(0%, 0%, 0%)" stroke-opacity="1" stroke-miterlimit="10" d="M 278.597656 293.863281 C 278.597656 295.199219 276.597656 295.199219 276.597656 293.863281 C 276.597656 292.53125 278.597656 292.53125 278.597656 293.863281 "/>
<path fill-rule="nonzero" fill="rgb(100%, 0%, 0%)" fill-opacity="1" stroke-width="0.01" stroke-linecap="butt" stroke-linejoin="miter" stroke="rgb(0%, 0%, 0%)" stroke-opacity="1" stroke-miterlimit="10" d="M 152.789062 450.535156 C 152.789062 451.867188 150.789062 451.867188 150.789062 450.535156 C 150.789062 449.199219 152.789062 449.199219 152.789062 450.535156 "/>
<path fill-rule="nonzero" fill="rgb(100%, 0%, 0%)" fill-opacity="1" stroke-width="0.01" stroke-linecap="butt" stroke-linejoin="miter" stroke="rgb(0%, 0%, 0%)" stroke-opacity="1" stroke-miterlimit="10" d="M 168.941406 457.28125 C 168.941406 458.613281 166.941406 458.613281 166.941406 457.28125 C 166.941406 455.945312 168.941406 455.945312 168.941406 457.28125 "/>
<path fill-rule="nonzero" fill="rgb(100%, 0%, 0%)" fill-opacity="1" stroke-width="0.01" stroke-linecap="butt" stroke-linejoin="miter" stroke="rgb(0%, 0%, 0%)" stroke-opacity="1" stroke-miterlimit="10" d="M 42.691406 284.542969 C 42.691406 285.875 40.691406 285.875 40.691406 284.542969 C 40.691406 283.210938 42.691406 283.210938 42.691406 284.542969 "/>
<path fill-rule="nonzero" fill="rgb(100%, 0%, 0%)" fill-opacity="1" stroke-width="0.01" stroke-linecap="butt" stroke-linejoin="miter" stroke="rgb(0%, 0%, 0%)" stroke-opacity="1" stroke-miterlimit="10" d="M 26.648438 277.671875 C 26.648438 279.003906 24.648438 279.003906 24.648438 277.671875 C 24.648438 276.339844 26.648438 276.339844 26.648438 277.671875 "/>
<path fill-rule="nonzero" fill="rgb(100%, 0%, 0%)" fill-opacity="1" stroke-width="0.01" stroke-linecap="butt" stroke-linejoin="miter" stroke="rgb(0%, 0%, 0%)" stroke-opacity="1" stroke-miterlimit="10" d="M 223.089844 315.085938 C 223.089844 316.421875 221.089844 316.421875 221.089844 315.085938 C 221.089844 313.753906 223.089844 313.753906 223.089844 315.085938 "/>
<path fill-rule="nonzero" fill="rgb(100%, 0%, 0%)" fill-opacity="1" stroke-width="0.01" stroke-linecap="butt" stroke-linejoin="miter" stroke="rgb(0%, 0%, 0%)" stroke-opacity="1" stroke-miterlimit="10" d="M 150.71875 526.679688 C 150.71875 528.011719 148.71875 528.011719 148.71875 526.679688 C 148.71875 525.34375 150.71875 525.34375 150.71875 526.679688 "/>
<path fill-rule="nonzero" fill="rgb(100%, 0%, 0%)" fill-opacity="1" stroke-width="0.01" stroke-linecap="butt" stroke-linejoin="miter" stroke="rgb(0%, 0%, 0%)" stroke-opacity="1" stroke-miterlimit="10" d="M 134.816406 519.292969 C 134.816406 520.625 132.816406 520.625 132.816406 519.292969 C 132.816406 517.960938 134.816406 517.960938 134.816406 519.292969 "/>
<path fill-rule="nonzero" fill="rgb(100%, 0%, 0%)" fill-opacity="1" stroke-width="0.01" stroke-linecap="butt" stroke-linejoin="miter" stroke="rgb(0%, 0%, 0%)" stroke-opacity="1" stroke-miterlimit="10" d="M 438.953125 37.070312 C 438.953125 38.402344 436.953125 38.402344 436.953125 37.070312 C 436.953125 35.738281 438.953125 35.738281 438.953125 37.070312 "/>
<path fill-rule="nonzero" fill="rgb(100%, 0%, 0%)" fill-opacity="1" stroke-width="0.01" stroke-linecap="butt" stroke-linejoin="miter" stroke="rgb(0%, 0%, 0%)" stroke-opacity="1" stroke-miterlimit="10" d="M 424.164062 27.746094 C 424.164062 29.078125 422.164062 29.078125 422.164062 27.746094 C 422.164062 26.414062 424.164062 26.414062 424.164062 27.746094 "/>
<path fill-rule="nonzero" fill="rgb(100%, 0%, 0%)" fill-opacity="1" stroke-width="0.01" stroke-linecap="butt" stroke-linejoin="miter" stroke="rgb(0%, 0%, 0%)" stroke-opacity="1" stroke-miterlimit="10" d="M 177.796875 186.289062 C 177.796875 187.621094 175.796875 187.621094 175.796875 186.289062 C 175.796875 184.953125 177.796875 184.953125 177.796875 186.289062 "/>
<path fill-rule="nonzero" fill="rgb(100%, 0%, 0%)" fill-opacity="1" stroke-width="0.01" stroke-linecap="butt" stroke-linejoin="miter" stroke="rgb(0%, 0%, 0%)" stroke-opacity="1" stroke-miterlimit="10" d="M 202.429688 196.84375 C 202.429688 198.175781 200.429688 198.175781 200.429688 196.84375 C 200.429688 195.511719 202.429688 195.511719 202.429688 196.84375 "/>
<path fill-rule="nonzero" fill="rgb(100%, 0%, 0%)" fill-opacity="1" stroke-width="0.01" stroke-linecap="butt" stroke-linejoin="miter" stroke="rgb(0%, 0%, 0%)" stroke-opacity="1" stroke-miterlimit="10" d="M 155.714844 362.210938 C 155.714844 363.546875 153.714844 363.546875 153.714844 362.210938 C 153.714844 360.878906 155.714844 360.878906 155.714844 362.210938 "/>
<path fill-rule="nonzero" fill="rgb(100%, 0%, 0%)" fill-opacity="1" stroke-width="0.01" stroke-linecap="butt" stroke-linejoin="miter" stroke="rgb(0%, 0%, 0%)" stroke-opacity="1" stroke-miterlimit="10" d="M 150.523438 378.148438 C 150.523438 379.480469 148.523438 379.480469 148.523438 378.148438 C 148.523438 376.816406 150.523438 376.816406 150.523438 378.148438 "/>
<path fill-rule="nonzero" fill="rgb(100%, 0%, 0%)" fill-opacity="1" stroke-width="0.01" stroke-linecap="butt" stroke-linejoin="miter" stroke="rgb(0%, 0%, 0%)" stroke-opacity="1" stroke-miterlimit="10" d="M 220.601562 392.09375 C 220.601562 393.425781 218.601562 393.425781 218.601562 392.09375 C 218.601562 390.757812 220.601562 390.757812 220.601562 392.09375 "/>
<path fill-rule="nonzero" fill="rgb(100%, 0%, 0%)" fill-opacity="1" stroke-width="0.01" stroke-linecap="butt" stroke-linejoin="miter" stroke="rgb(0%, 0%, 0%)" stroke-opacity="1" stroke-miterlimit="10" d="M 236.414062 399.160156 C 236.414062 400.496094 234.414062 400.496094 234.414062 399.160156 C 234.414062 397.828125 236.414062 397.828125 236.414062 399.160156 "/>
<path fill-rule="nonzero" fill="rgb(100%, 0%, 0%)" fill-opacity="1" stroke-width="0.01" stroke-linecap="butt" stroke-linejoin="miter" stroke="rgb(0%, 0%, 0%)" stroke-opacity="1" stroke-miterlimit="10" d="M 581 269.796875 C 581 271.128906 579 271.128906 579 269.796875 C 579 268.464844 581 268.464844 581 269.796875 "/>
<path fill-rule="nonzero" fill="rgb(100%, 0%, 0%)" fill-opacity="1" stroke-width="0.01" stroke-linecap="butt" stroke-linejoin="miter" stroke="rgb(0%, 0%, 0%)" stroke-opacity="1" stroke-miterlimit="10" d="M 580.238281 253.203125 C 580.238281 254.535156 578.238281 254.535156 578.238281 253.203125 C 578.238281 251.871094 580.238281 251.871094 580.238281 253.203125 "/>
<path fill-rule="nonzero" fill="rgb(100%, 0%, 0%)" fill-opacity="1" stroke-width="0.01" stroke-linecap="butt" stroke-linejoin="miter" stroke="rgb(0%, 0%, 0%)" stroke-opacity="1" stroke-miterlimit="10" d="M 550.707031 147.613281 C 550.707031 148.945312 548.707031 148.945312 548.707031 147.613281 C 548.707031 146.277344 550.707031 146.277344 550.707031 147.613281 "/>
<path fill-rule="nonzero" fill="rgb(100%, 0%, 0%)" fill-opacity="1" stroke-width="0.01" stroke-linecap="butt" stroke-linejoin="miter" stroke="rgb(0%, 0%, 0%)" stroke-opacity="1" stroke-miterlimit="10" d="M 563.316406 159.351562 C 563.316406 160.683594 561.316406 160.683594 561.316406 159.351562 C 561.316406 158.019531 563.316406 158.019531 563.316406 159.351562 "/>
<path fill-rule="nonzero" fill="rgb(100%, 0%, 0%)" fill-opacity="1" stroke-width="0.01" stroke-linecap="butt" stroke-linejoin="miter" stroke="rgb(0%, 0%, 0%)" stroke-opacity="1" stroke-miterlimit="10" d="M 418.953125 301.492188 C 418.953125 302.824219 416.953125 302.824219 416.953125 301.492188 C 416.953125 300.160156 418.953125 300.160156 418.953125 301.492188 "/>
<path fill-rule="nonzero" fill="rgb(100%, 0%, 0%)" fill-opacity="1" stroke-width="0.01" stroke-linecap="butt" stroke-linejoin="miter" stroke="rgb(0%, 0%, 0%)" stroke-opacity="1" stroke-miterlimit="10" d="M 409.765625 287.179688 C 409.765625 288.515625 407.765625 288.515625 407.765625 287.179688 C 407.765625 285.847656 409.765625 285.847656 409.765625 287.179688 "/>
<path fill-rule="nonzero" fill="rgb(100%, 0%, 0%)" fill-opacity="1" stroke-width="0.01" stroke-linecap="butt" stroke-linejoin="miter" stroke="rgb(0%, 0%, 0%)" stroke-opacity="1" stroke-miterlimit="10" d="M 292.429688 360.855469 C 292.429688 362.1875 290.429688 362.1875 290.429688 360.855469 C 290.429688 359.519531 292.429688 359.519531 292.429688 360.855469 "/>
<path fill-rule="nonzero" fill="rgb(100%, 0%, 0%)" fill-opacity="1" stroke-width="0.01" stroke-linecap="butt" stroke-linejoin="miter" stroke="rgb(0%, 0%, 0%)" stroke-opacity="1" stroke-miterlimit="10" d="M 301.273438 375.050781 C 301.273438 376.386719 299.273438 376.386719 299.273438 375.050781 C 299.273438 373.71875 301.273438 373.71875 301.273438 375.050781 "/>
<path fill-rule="nonzero" fill="rgb(100%, 0%, 0%)" fill-opacity="1" stroke-width="0.01" stroke-linecap="butt" stroke-linejoin="miter" stroke="rgb(0%, 0%, 0%)" stroke-opacity="1" stroke-miterlimit="10" d="M 230.597656 580 C 230.597656 581.332031 228.597656 581.332031 228.597656 580 C 228.597656 578.667969 230.597656 578.667969 230.597656 580 "/>
<path fill-rule="nonzero" fill="rgb(100%, 0%, 0%)" fill-opacity="1" stroke-width="0.01" stroke-linecap="butt" stroke-linejoin="miter" stroke="rgb(0%, 0%, 0%)" stroke-opacity="1" stroke-miterlimit="10" d="M 289.84375 180.875 C 289.84375 182.207031 287.84375 182.207031 287.84375 180.875 C 287.84375 179.539062 289.84375 179.539062 289.84375 180.875 "/>
<path fill-rule="nonzero" fill="rgb(100%, 0%, 0%)" fill-opacity="1" stroke-width="0.01" stroke-linecap="butt" stroke-linejoin="miter" stroke="rgb(0%, 0%, 0%)" stroke-opacity="1" stroke-miterlimit="10" d="M 306.71875 185.261719 C 306.71875 186.597656 304.71875 186.597656 304.71875 185.261719 C 304.71875 183.929688 306.71875 183.929688 306.71875 185.261719 "/>
<path fill-rule="nonzero" fill="rgb(100%, 0%, 0%)" fill-opacity="1" stroke-width="0.01" stroke-linecap="butt" stroke-linejoin="miter" stroke="rgb(0%, 0%, 0%)" stroke-opacity="1" stroke-miterlimit="10" d="M 21 398.800781 C 21 400.136719 19 400.136719 19 398.800781 C 19 397.46875 21 397.46875 21 398.800781 "/>
<path fill-rule="nonzero" fill="rgb(100%, 0%, 0%)" fill-opacity="1" stroke-width="0.01" stroke-linecap="butt" stroke-linejoin="miter" stroke="rgb(0%, 0%, 0%)" stroke-opacity="1" stroke-miterlimit="10" d="M 30.816406 412.761719 C 30.816406 414.097656 28.816406 414.097656 28.816406 412.761719 C 28.816406 411.429688 30.816406 411.429688 30.816406 412.761719 "/>
<path fill-rule="nonzero" fill="rgb(100%, 0%, 0%)" fill-opacity="1" stroke-width="0.01" stroke-linecap="butt" stroke-linejoin="miter" stroke="rgb(0%, 0%, 0%)" stroke-opacity="1" stroke-miterlimit="10" d="M 462.210938 133.613281 C 462.210938 134.945312 460.210938 134.945312 460.210938 133.613281 C 460.210938 132.277344 462.210938 132.277344 462.210938 133.613281 "/>
<path fill-rule="nonzero" fill="rgb(100%, 0%, 0%)" fill-opacity="1" stroke-width="0.01" stroke-linecap="butt" stroke-linejoin="miter" stroke="rgb(0%, 0%, 0%)" stroke-opacity="1" stroke-miterlimit="10" d="M 456.046875 149.25 C 456.046875 150.585938 454.046875 150.585938 454.046875 149.25 C 454.046875 147.917969 456.046875 147.917969 456.046875 149.25 "/>
<path fill-rule="nonzero" fill="rgb(100%, 0%, 0%)" fill-opacity="1" stroke-width="0.01" stroke-linecap="butt" stroke-linejoin="miter" stroke="rgb(0%, 0%, 0%)" stroke-opacity="1" stroke-miterlimit="10" d="M 63.695312 201.339844 C 63.695312 202.675781 61.695312 202.675781 61.695312 201.339844 C 61.695312 200.007812 63.695312 200.007812 63.695312 201.339844 "/>
<path fill-rule="nonzero" fill="rgb(100%, 0%, 0%)" fill-opacity="1" stroke-width="0.01" stroke-linecap="butt" stroke-linejoin="miter" stroke="rgb(0%, 0%, 0%)" stroke-opacity="1" stroke-miterlimit="10" d="M 48.429688 192.972656 C 48.429688 194.308594 46.429688 194.308594 46.429688 192.972656 C 46.429688 191.640625 48.429688 191.640625 48.429688 192.972656 "/>
<path fill-rule="nonzero" fill="rgb(100%, 0%, 0%)" fill-opacity="1" stroke-width="0.01" stroke-linecap="butt" stroke-linejoin="miter" stroke="rgb(0%, 0%, 0%)" stroke-opacity="1" stroke-miterlimit="10" d="M 469.105469 264.726562 C 469.105469 266.058594 467.105469 266.058594 467.105469 264.726562 C 467.105469 263.390625 469.105469 263.390625 469.105469 264.726562 "/>
<path fill-rule="nonzero" fill="rgb(100%, 0%, 0%)" fill-opacity="1" stroke-width="0.01" stroke-linecap="butt" stroke-linejoin="miter" stroke="rgb(0%, 0%, 0%)" stroke-opacity="1" stroke-miterlimit="10" d="M 457.746094 251.828125 C 457.746094 253.160156 455.746094 253.160156 455.746094 251.828125 C 455.746094 250.496094 457.746094 250.496094 457.746094 251.828125 "/>
<path fill-rule="nonzero" fill="rgb(100%, 0%, 0%)" fill-opacity="1" stroke-width="0.01" stroke-linecap="butt" stroke-linejoin="miter" stroke="rgb(0%, 0%, 0%)" stroke-opacity="1" stroke-miterlimit="10" d="M 379.160156 217.335938 C 379.160156 218.667969 377.160156 218.667969 377.160156 217.335938 C 377.160156 216.003906 379.160156 216.003906 379.160156 217.335938 "/>
<path fill-rule="nonzero" fill="rgb(100%, 0%, 0%)" fill-opacity="1" stroke-width="0.01" stroke-linecap="butt" stroke-linejoin="miter" stroke="rgb(0%, 0%, 0%)" stroke-opacity="1" stroke-miterlimit="10" d="M 363.828125 225.570312 C 363.828125 226.90625 361.828125 226.90625 361.828125 225.570312 C 361.828125 224.238281 363.828125 224.238281 363.828125 225.570312 "/>
<path fill-rule="nonzero" fill="rgb(100%, 0%, 0%)" fill-opacity="1" stroke-width="0.01" stroke-linecap="butt" stroke-linejoin="miter" stroke="rgb(0%, 0%, 0%)" stroke-opacity="1" stroke-miterlimit="10" d="M 552.144531 431.523438 C 552.144531 432.855469 550.144531 432.855469 550.144531 431.523438 C 550.144531 430.1875 552.144531 430.1875 552.144531 431.523438 "/>
<path fill-rule="nonzero" fill="rgb(100%, 0%, 0%)" fill-opacity="1" stroke-width="0.01" stroke-linecap="butt" stroke-linejoin="miter" stroke="rgb(0%, 0%, 0%)" stroke-opacity="1" stroke-miterlimit="10" d="M 534.496094 431.898438 C 534.496094 433.234375 532.496094 433.234375 532.496094 431.898438 C 532.496094 430.566406 534.496094 430.566406 534.496094 431.898438 "/>
<path fill-rule="nonzero" fill="rgb(100%, 0%, 0%)" fill-opacity="1" stroke-width="0.01" stroke-linecap="butt" stroke-linejoin="miter" stroke="rgb(0%, 0%, 0%)" stroke-opacity="1" stroke-miterlimit="10" d="M 191.484375 28.9375 C 191.484375 30.269531 189.484375 30.269531 189.484375 28.9375 C 189.484375 27.601562 191.484375 27.601562 191.484375 28.9375 "/>
<path fill-rule="nonzero" fill="rgb(100%, 0%, 0%)" fill-opacity="1" stroke-width="0.01" stroke-linecap="butt" stroke-linejoin="miter" stroke="rgb(0%, 0%, 0%)" stroke-opacity="1" stroke-miterlimit="10" d="M 206.492188 20 C 206.492188 21.332031 204.492188 21.332031 204.492188 20 C 204.492188 18.667969 206.492188 18.667969 206.492188 20 "/>
<path fill-rule="nonzero" fill="rgb(100%, 0%, 0%)" fill-opacity="1" stroke-width="0.01" stroke-linecap="butt" stroke-linejoin="miter" stroke="rgb(0%, 0%, 0%)" stroke-opacity="1" stroke-miterlimit="10" d="M 150.9375 107.089844 C 150.9375 108.421875 148.9375 108.421875 148.9375 107.089844 C 148.9375 105.753906 150.9375 105.753906 150.9375 107.089844 "/>
<path fill-rule="nonzero" fill="rgb(100%, 0%, 0%)" fill-opacity="1" stroke-width="0.01" stroke-linecap="butt" stroke-linejoin="miter" stroke="rgb(0%, 0%, 0%)" stroke-opacity="1" stroke-miterlimit="10" d="M 148.167969 123.472656 C 148.167969 124.804688 146.167969 124.804688 146.167969 123.472656 C 146.167969 122.140625 148.167969 122.140625 148.167969 123.472656 "/>
<path fill-rule="nonzero" fill="rgb(100%, 0%, 0%)" fill-opacity="1" stroke-width="0.01" stroke-linecap="butt" stroke-linejoin="miter" stroke="rgb(0%, 0%, 0%)" stroke-opacity="1" stroke-miterlimit="10" d="M 487.003906 341.25 C 487.003906 342.582031 485.003906 342.582031 485.003906 341.25 C 485.003906 339.917969 487.003906 339.917969 487.003906 341.25 "/>
<path fill-rule="nonzero" fill="rgb(100%, 0%, 0%)" fill-opacity="1" stroke-width="0.01" stroke-linecap="butt" stroke-linejoin="miter" stroke="rgb(0%, 0%, 0%)" stroke-opacity="1" stroke-miterlimit="10" d="M 484.105469 357.585938 C 484.105469 358.917969 482.105469 358.917969 482.105469 357.585938 C 482.105469 356.253906 484.105469 356.253906 484.105469 357.585938 "/>
<path fill-rule="nonzero" fill="rgb(100%, 0%, 0%)" fill-opacity="1" stroke-width="0.01" stroke-linecap="butt" stroke-linejoin="miter" stroke="rgb(0%, 0%, 0%)" stroke-opacity="1" stroke-miterlimit="10" d="M 358.5625 141.867188 C 358.5625 143.199219 356.5625 143.199219 356.5625 141.867188 C 356.5625 140.535156 358.5625 140.535156 358.5625 141.867188 "/>
<path fill-rule="nonzero" fill="rgb(100%, 0%, 0%)" fill-opacity="1" stroke-width="0.01" stroke-linecap="butt" stroke-linejoin="miter" stroke="rgb(0%, 0%, 0%)" stroke-opacity="1" stroke-miterlimit="10" d="M 374.296875 149.386719 C 374.296875 150.71875 372.296875 150.71875 372.296875 149.386719 C 372.296875 148.050781 374.296875 148.050781 374.296875 149.386719 "/>
<path fill-rule="nonzero" fill="rgb(100%, 0%, 0%)" fill-opacity="1" stroke-width="0.01" stroke-linecap="butt" stroke-linejoin="miter" stroke="rgb(0%, 0%, 0%)" stroke-opacity="1" stroke-miterlimit="10" d="M 127.375 277.917969 C 127.375 279.253906 125.375 279.253906 125.375 277.917969 C 125.375 276.585938 127.375 276.585938 127.375 277.917969 "/>
<path fill-rule="nonzero" fill="rgb(100%, 0%, 0%)" fill-opacity="1" stroke-width="0.01" stroke-linecap="butt" stroke-linejoin="miter" stroke="rgb(0%, 0%, 0%)" stroke-opacity="1" stroke-miterlimit="10" d="M 122.53125 261.953125 C 122.53125 263.285156 120.53125 263.285156 120.53125 261.953125 C 120.53125 260.617188 122.53125 260.617188 122.53125 261.953125 "/>
<path fill-rule="nonzero" fill="rgb(100%, 0%, 0%)" fill-opacity="1" stroke-width="0.01" stroke-linecap="butt" stroke-linejoin="miter" stroke="rgb(0%, 0%, 0%)" stroke-opacity="1" stroke-miterlimit="10" d="M 499.339844 521.121094 C 499.339844 522.453125 497.339844 522.453125 497.339844 521.121094 C 497.339844 519.789062 499.339844 519.789062 499.339844 521.121094 "/>
<path fill-rule="nonzero" fill="rgb(100%, 0%, 0%)" fill-opacity="1" stroke-width="0.01" stroke-linecap="butt" stroke-linejoin="miter" stroke="rgb(0%, 0%, 0%)" stroke-opacity="1" stroke-miterlimit="10" d="M 485.859375 531.988281 C 485.859375 533.324219 483.859375 533.324219 483.859375 531.988281 C 483.859375 530.65625 485.859375 530.65625 485.859375 531.988281 "/>
<path fill-rule="nonzero" fill="rgb(100%, 0%, 0%)" fill-opacity="1" stroke-width="0.01" stroke-linecap="butt" stroke-linejoin="miter" stroke="rgb(0%, 0%, 0%)" stroke-opacity="1" stroke-miterlimit="10" d="M 184.160156 203.476562 C 184.160156 204.8125 182.160156 204.8125 182.160156 203.476562 C 182.160156 202.144531 184.160156 202.144531 184.160156 203.476562 "/>
<path fill-rule="nonzero" fill="rgb(100%, 0%, 0%)" fill-opacity="1" stroke-width="0.01" stroke-linecap="butt" stroke-linejoin="miter" stroke="rgb(0%, 0%, 0%)" stroke-opacity="1" stroke-miterlimit="10" d="M 196.121094 179.734375 C 196.121094 181.066406 194.121094 181.066406 194.121094 179.734375 C 194.121094 178.398438 196.121094 178.398438 196.121094 179.734375 "/>
<path fill-rule="nonzero" fill="rgb(100%, 0%, 0%)" fill-opacity="1" stroke-width="0.01" stroke-linecap="butt" stroke-linejoin="miter" stroke="rgb(0%, 0%, 0%)" stroke-opacity="1" stroke-miterlimit="10" d="M 269.695312 99.242188 C 269.695312 100.574219 267.695312 100.574219 267.695312 99.242188 C 267.695312 97.90625 269.695312 97.90625 269.695312 99.242188 "/>
<path fill-rule="nonzero" fill="rgb(100%, 0%, 0%)" fill-opacity="1" stroke-width="0.01" stroke-linecap="butt" stroke-linejoin="miter" stroke="rgb(0%, 0%, 0%)" stroke-opacity="1" stroke-miterlimit="10" d="M 265.925781 73.5625 C 265.925781 74.898438 263.925781 74.898438 263.925781 73.5625 C 263.925781 72.230469 265.925781 72.230469 265.925781 73.5625 "/>
<path fill-rule="nonzero" fill="rgb(100%, 0%, 0%)" fill-opacity="1" stroke-width="0.01" stroke-linecap="butt" stroke-linejoin="miter" stroke="rgb(0%, 0%, 0%)" stroke-opacity="1" stroke-miterlimit="10" d="M 434.90625 403.097656 C 434.90625 404.429688 432.90625 404.429688 432.90625 403.097656 C 432.90625 401.761719 434.90625 401.761719 434.90625 403.097656 "/>
<path fill-rule="nonzero" fill="rgb(100%, 0%, 0%)" fill-opacity="1" stroke-width="0.01" stroke-linecap="butt" stroke-linejoin="miter" stroke="rgb(0%, 0%, 0%)" stroke-opacity="1" stroke-miterlimit="10" d="M 422.050781 414.398438 C 422.050781 415.734375 420.050781 415.734375 420.050781 414.398438 C 420.050781 413.066406 422.050781 413.066406 422.050781 414.398438 "/>
<path fill-rule="nonzero" fill="rgb(100%, 0%, 0%)" fill-opacity="1" stroke-width="0.01" stroke-linecap="butt" stroke-linejoin="miter" stroke="rgb(0%, 0%, 0%)" stroke-opacity="1" stroke-miterlimit="10" d="M 383.875 553.414062 C 383.875 554.75 381.875 554.75 381.875 553.414062 C 381.875 552.082031 383.875 552.082031 383.875 553.414062 "/>
<path fill-rule="nonzero" fill="rgb(100%, 0%, 0%)" fill-opacity="1" stroke-width="0.01" stroke-linecap="butt" stroke-linejoin="miter" stroke="rgb(0%, 0%, 0%)" stroke-opacity="1" stroke-miterlimit="10" d="M 368.414062 561.46875 C 368.414062 562.800781 366.414062 562.800781 366.414062 561.46875 C 366.414062 560.136719 368.414062 560.136719 368.414062 561.46875 "/>
<path fill-rule="nonzero" fill="rgb(100%, 0%, 0%)" fill-opacity="1" stroke-width="0.01" stroke-linecap="butt" stroke-linejoin="miter" stroke="rgb(0%, 0%, 0%)" stroke-opacity="1" stroke-miterlimit="10" d="M 434.515625 478.785156 C 434.515625 480.117188 432.515625 480.117188 432.515625 478.785156 C 432.515625 477.453125 434.515625 477.453125 434.515625 478.785156 "/>
<path fill-rule="nonzero" fill="rgb(100%, 0%, 0%)" fill-opacity="1" stroke-width="0.01" stroke-linecap="butt" stroke-linejoin="miter" stroke="rgb(0%, 0%, 0%)" stroke-opacity="1" stroke-miterlimit="10" d="M 449.546875 469.960938 C 449.546875 471.292969 447.546875 471.292969 447.546875 469.960938 C 447.546875 468.628906 449.546875 468.628906 449.546875 469.960938 "/>
<path fill-rule="nonzero" fill="rgb(100%, 0%, 0%)" fill-opacity="1" stroke-width="0.01" stroke-linecap="butt" stroke-linejoin="miter" stroke="rgb(0%, 0%, 0%)" stroke-opacity="1" stroke-miterlimit="10" d="M 265.828125 456.671875 C 265.828125 458.003906 263.828125 458.003906 263.828125 456.671875 C 263.828125 455.335938 265.828125 455.335938 265.828125 456.671875 "/>
<path fill-rule="nonzero" fill="rgb(100%, 0%, 0%)" fill-opacity="1" stroke-width="0.01" stroke-linecap="butt" stroke-linejoin="miter" stroke="rgb(0%, 0%, 0%)" stroke-opacity="1" stroke-miterlimit="10" d="M 248.785156 461.015625 C 248.785156 462.351562 246.785156 462.351562 246.785156 461.015625 C 246.785156 459.683594 248.785156 459.683594 248.785156 461.015625 "/>
<path fill-rule="nonzero" fill="rgb(100%, 0%, 0%)" fill-opacity="1" stroke-width="0.01" stroke-linecap="butt" stroke-linejoin="miter" stroke="rgb(0%, 0%, 0%)" stroke-opacity="1" stroke-miterlimit="10" d="M 501.445312 207.796875 C 501.445312 209.128906 499.445312 209.128906 499.445312 207.796875 C 499.445312 206.464844 501.445312 206.464844 501.445312 207.796875 "/>
<path fill-rule="nonzero" fill="rgb(100%, 0%, 0%)" fill-opacity="1" stroke-width="0.01" stroke-linecap="butt" stroke-linejoin="miter" stroke="rgb(0%, 0%, 0%)" stroke-opacity="1" stroke-miterlimit="10" d="M 512.902344 220.492188 C 512.902344 221.828125 510.902344 221.828125 510.902344 220.492188 C 510.902344 219.160156 512.902344 219.160156 512.902344 220.492188 "/>
<path fill-rule="nonzero" fill="rgb(100%, 0%, 0%)" fill-opacity="1" stroke-width="0.01" stroke-linecap="butt" stroke-linejoin="miter" stroke="rgb(0%, 0%, 0%)" stroke-opacity="1" stroke-miterlimit="10" d="M 281.414062 84.527344 C 281.414062 85.859375 279.414062 85.859375 279.414062 84.527344 C 279.414062 83.191406 281.414062 83.191406 281.414062 84.527344 "/>
<path fill-rule="nonzero" fill="rgb(100%, 0%, 0%)" fill-opacity="1" stroke-width="0.01" stroke-linecap="butt" stroke-linejoin="miter" stroke="rgb(0%, 0%, 0%)" stroke-opacity="1" stroke-miterlimit="10" d="M 254.105469 88.285156 C 254.105469 89.617188 252.105469 89.617188 252.105469 88.285156 C 252.105469 86.953125 254.105469 86.953125 254.105469 88.285156 "/>
<path fill-rule="nonzero" fill="rgb(100%, 0%, 0%)" fill-opacity="1" stroke-width="0.01" stroke-linecap="butt" stroke-linejoin="miter" stroke="rgb(0%, 0%, 0%)" stroke-opacity="1" stroke-miterlimit="10" d="M 246.449219 242.039062 C 246.449219 243.371094 244.449219 243.371094 244.449219 242.039062 C 244.449219 240.707031 246.449219 240.707031 246.449219 242.039062 "/>
<path fill-rule="nonzero" fill="rgb(100%, 0%, 0%)" fill-opacity="1" stroke-width="0.01" stroke-linecap="butt" stroke-linejoin="miter" stroke="rgb(0%, 0%, 0%)" stroke-opacity="1" stroke-miterlimit="10" d="M 230.414062 249.324219 C 230.414062 250.65625 228.414062 250.65625 228.414062 249.324219 C 228.414062 247.992188 230.414062 247.992188 230.414062 249.324219 "/>
<path fill-rule="nonzero" fill="rgb(100%, 0%, 0%)" fill-opacity="1" stroke-width="0.01" stroke-linecap="butt" stroke-linejoin="miter" stroke="rgb(0%, 0%, 0%)" stroke-opacity="1" stroke-miterlimit="10" d="M 337.1875 481.808594 C 337.1875 483.144531 335.1875 483.144531 335.1875 481.808594 C 335.1875 480.476562 337.1875 480.476562 337.1875 481.808594 "/>
<path fill-rule="nonzero" fill="rgb(100%, 0%, 0%)" fill-opacity="1" stroke-width="0.01" stroke-linecap="butt" stroke-linejoin="miter" stroke="rgb(0%, 0%, 0%)" stroke-opacity="1" stroke-miterlimit="10" d="M 351.1875 471.863281 C 351.1875 473.195312 349.1875 473.195312 349.1875 471.863281 C 349.1875 470.53125 351.1875 470.53125 351.1875 471.863281 "/>
</svg>
