<?xml version="1.0" encoding="UTF-8"?>
<svg xmlns="http://www.w3.org/2000/svg" xmlns:xlink="http://www.w3.org/1999/xlink" width="600pt" height="600pt" viewBox="0 0 600 600" version="1.1">
<g id="surface96">
<rect x="0" y="0" width="600" height="600" style="fill:rgb(100%,100%,100%);fill-opacity:1;stroke:none;"/>
<path style="fill:none;stroke-width:0.2;stroke-linecap:butt;stroke-linejoin:miter;stroke:rgb(26.666667%,26.666667%,26.666667%);stroke-opacity:1;stroke-miterlimit:10;" d="M 294.167969 99.542969 L 286.394531 112.632813 "/>
<path style=" stroke:none;fill-rule:nonzero;fill:rgb(26.666667%,26.666667%,26.666667%);fill-opacity:1;" d="M 286.320313 112.757813 L 286.355469 112.609375 L 286.433594 112.65625 L 286.320313 112.757813 "/>
<path style="fill:none;stroke-width:0.2;stroke-linecap:butt;stroke-linejoin:miter;stroke:rgb(26.666667%,26.666667%,26.666667%);stroke-opacity:1;stroke-miterlimit:10;" d="M 354.238281 299.28125 L 352.023438 284.453125 "/>
<path style=" stroke:none;fill-rule:nonzero;fill:rgb(26.666667%,26.666667%,26.666667%);fill-opacity:1;" d="M 352 284.3125 L 352.066406 284.449219 L 351.976563 284.460938 L 352 284.3125 "/>
<path style="fill:none;stroke-width:0.2;stroke-linecap:butt;stroke-linejoin:miter;stroke:rgb(26.666667%,26.666667%,26.666667%);stroke-opacity:1;stroke-miterlimit:10;" d="M 264.332031 578.9375 C 264.332031 580.9375 261.332031 580.9375 261.332031 578.9375 C 261.332031 576.9375 264.332031 576.9375 264.332031 578.9375 "/>
<path style="fill:none;stroke-width:0.2;stroke-linecap:butt;stroke-linejoin:miter;stroke:rgb(26.666667%,26.666667%,26.666667%);stroke-opacity:1;stroke-miterlimit:10;" d="M 160.074219 338.921875 L 175.910156 338.746094 "/>
<path style=" stroke:none;fill-rule:nonzero;fill:rgb(26.666667%,26.666667%,26.666667%);fill-opacity:1;" d="M 176.050781 338.746094 L 175.910156 338.792969 L 175.90625 338.699219 L 176.050781 338.746094 "/>
<path style="fill:none;stroke-width:0.2;stroke-linecap:butt;stroke-linejoin:miter;stroke:rgb(26.666667%,26.666667%,26.666667%);stroke-opacity:1;stroke-miterlimit:10;" d="M 459.742188 397.121094 L 459.75 412.070313 "/>
<path style=" stroke:none;fill-rule:nonzero;fill:rgb(26.666667%,26.666667%,26.666667%);fill-opacity:1;" d="M 459.75 412.210938 L 459.703125 412.070313 L 459.796875 412.070313 L 459.75 412.210938 "/>
<path style="fill:none;stroke-width:0.2;stroke-linecap:butt;stroke-linejoin:miter;stroke:rgb(26.666667%,26.666667%,26.666667%);stroke-opacity:1;stroke-miterlimit:10;" d="M 398.832031 476.917969 L 399.945313 461.898438 "/>
<path style=" stroke:none;fill-rule:nonzero;fill:rgb(26.666667%,26.666667%,26.666667%);fill-opacity:1;" d="M 399.953125 461.753906 L 399.992188 461.902344 L 399.898438 461.894531 L 399.953125 461.753906 "/>
<path style="fill:none;stroke-width:0.2;stroke-linecap:butt;stroke-linejoin:miter;stroke:rgb(26.666667%,26.666667%,26.666667%);stroke-opacity:1;stroke-miterlimit:10;" d="M 223.988281 414.421875 L 208.257813 416.519531 "/>
<path style=" stroke:none;fill-rule:nonzero;fill:rgb(26.666667%,26.666667%,26.666667%);fill-opacity:1;" d="M 208.113281 416.539063 L 208.25 416.472656 L 208.261719 416.566406 L 208.113281 416.539063 "/>
<path style="fill:none;stroke-width:0.2;stroke-linecap:butt;stroke-linejoin:miter;stroke:rgb(26.666667%,26.666667%,26.666667%);stroke-opacity:1;stroke-miterlimit:10;" d="M 250.054688 318.699219 L 264.027344 307.328125 "/>
<path style=" stroke:none;fill-rule:nonzero;fill:rgb(26.666667%,26.666667%,26.666667%);fill-opacity:1;" d="M 264.136719 307.238281 L 264.054688 307.363281 L 263.996094 307.289063 L 264.136719 307.238281 "/>
<path style="fill:none;stroke-width:0.2;stroke-linecap:butt;stroke-linejoin:miter;stroke:rgb(26.666667%,26.666667%,26.666667%);stroke-opacity:1;stroke-miterlimit:10;" d="M 250.054688 318.699219 L 239.046875 331.308594 "/>
<path style=" stroke:none;fill-rule:nonzero;fill:rgb(26.666667%,26.666667%,26.666667%);fill-opacity:1;" d="M 238.953125 331.414063 L 239.011719 331.277344 L 239.082031 331.339844 L 238.953125 331.414063 "/>
<path style="fill:none;stroke-width:0.2;stroke-linecap:butt;stroke-linejoin:miter;stroke:rgb(26.666667%,26.666667%,26.666667%);stroke-opacity:1;stroke-miterlimit:10;" d="M 235.515625 190.839844 L 242.703125 177.476563 "/>
<path style=" stroke:none;fill-rule:nonzero;fill:rgb(26.666667%,26.666667%,26.666667%);fill-opacity:1;" d="M 242.769531 177.347656 L 242.746094 177.496094 L 242.664063 177.453125 L 242.769531 177.347656 "/>
<path style="fill:none;stroke-width:0.2;stroke-linecap:butt;stroke-linejoin:miter;stroke:rgb(26.666667%,26.666667%,26.666667%);stroke-opacity:1;stroke-miterlimit:10;" d="M 580 326.742188 L 578.378906 311.640625 "/>
<path style=" stroke:none;fill-rule:nonzero;fill:rgb(26.666667%,26.666667%,26.666667%);fill-opacity:1;" d="M 578.363281 311.496094 L 578.425781 311.632813 L 578.335938 311.644531 L 578.363281 311.496094 "/>
<path style="fill:none;stroke-width:0.2;stroke-linecap:butt;stroke-linejoin:miter;stroke:rgb(26.666667%,26.666667%,26.666667%);stroke-opacity:1;stroke-miterlimit:10;" d="M 280.675781 297.613281 L 265.90625 306.039063 "/>
<path style=" stroke:none;fill-rule:nonzero;fill:rgb(26.666667%,26.666667%,26.666667%);fill-opacity:1;" d="M 265.78125 306.109375 L 265.882813 306 L 265.929688 306.078125 L 265.78125 306.109375 "/>
<path style="fill:none;stroke-width:0.2;stroke-linecap:butt;stroke-linejoin:miter;stroke:rgb(26.666667%,26.666667%,26.666667%);stroke-opacity:1;stroke-miterlimit:10;" d="M 577.457031 175.085938 L 578.414063 190.257813 "/>
<path style=" stroke:none;fill-rule:nonzero;fill:rgb(26.666667%,26.666667%,26.666667%);fill-opacity:1;" d="M 578.421875 190.402344 L 578.367188 190.261719 L 578.460938 190.253906 L 578.421875 190.402344 "/>
<path style="fill:none;stroke-width:0.2;stroke-linecap:butt;stroke-linejoin:miter;stroke:rgb(26.666667%,26.666667%,26.666667%);stroke-opacity:1;stroke-miterlimit:10;" d="M 303.589844 232.355469 L 287.660156 232.738281 "/>
<path style=" stroke:none;fill-rule:nonzero;fill:rgb(26.666667%,26.666667%,26.666667%);fill-opacity:1;" d="M 287.515625 232.742188 L 287.65625 232.691406 L 287.660156 232.78125 L 287.515625 232.742188 "/>
<path style="fill:none;stroke-width:0.2;stroke-linecap:butt;stroke-linejoin:miter;stroke:rgb(26.666667%,26.666667%,26.666667%);stroke-opacity:1;stroke-miterlimit:10;" d="M 168.972656 233.222656 L 164.398438 256.765625 "/>
<path style=" stroke:none;fill-rule:nonzero;fill:rgb(26.666667%,26.666667%,26.666667%);fill-opacity:1;" d="M 164.371094 256.90625 L 164.351563 256.753906 L 164.441406 256.773438 L 164.371094 256.90625 "/>
<path style="fill:none;stroke-width:0.2;stroke-linecap:butt;stroke-linejoin:miter;stroke:rgb(26.666667%,26.666667%,26.666667%);stroke-opacity:1;stroke-miterlimit:10;" d="M 300.613281 20 L 284.601563 20.082031 "/>
<path style=" stroke:none;fill-rule:nonzero;fill:rgb(26.666667%,26.666667%,26.666667%);fill-opacity:1;" d="M 284.460938 20.082031 L 284.601563 20.035156 L 284.601563 20.128906 L 284.460938 20.082031 "/>
<path style="fill:none;stroke-width:0.2;stroke-linecap:butt;stroke-linejoin:miter;stroke:rgb(26.666667%,26.666667%,26.666667%);stroke-opacity:1;stroke-miterlimit:10;" d="M 95.824219 93.332031 L 108.105469 83.59375 "/>
<path style=" stroke:none;fill-rule:nonzero;fill:rgb(26.666667%,26.666667%,26.666667%);fill-opacity:1;" d="M 108.21875 83.503906 L 108.136719 83.628906 L 108.078125 83.558594 L 108.21875 83.503906 "/>
<path style="fill:none;stroke-width:0.2;stroke-linecap:butt;stroke-linejoin:miter;stroke:rgb(26.666667%,26.666667%,26.666667%);stroke-opacity:1;stroke-miterlimit:10;" d="M 179.808594 247.84375 L 154.433594 243.476563 "/>
<path style=" stroke:none;fill-rule:nonzero;fill:rgb(26.666667%,26.666667%,26.666667%);fill-opacity:1;" d="M 154.292969 243.453125 L 154.441406 243.429688 L 154.425781 243.523438 L 154.292969 243.453125 "/>
<path style="fill:none;stroke-width:0.2;stroke-linecap:butt;stroke-linejoin:miter;stroke:rgb(26.666667%,26.666667%,26.666667%);stroke-opacity:1;stroke-miterlimit:10;" d="M 373.703125 89.789063 L 363.121094 78.523438 "/>
<path style=" stroke:none;fill-rule:nonzero;fill:rgb(26.666667%,26.666667%,26.666667%);fill-opacity:1;" d="M 363.023438 78.417969 L 363.15625 78.492188 L 363.085938 78.554688 L 363.023438 78.417969 "/>
<path style="fill:none;stroke-width:0.2;stroke-linecap:butt;stroke-linejoin:miter;stroke:rgb(26.666667%,26.666667%,26.666667%);stroke-opacity:1;stroke-miterlimit:10;" d="M 206.882813 38.332031 L 196.953125 50.117188 "/>
<path style=" stroke:none;fill-rule:nonzero;fill:rgb(26.666667%,26.666667%,26.666667%);fill-opacity:1;" d="M 196.863281 50.226563 L 196.917969 50.085938 L 196.988281 50.144531 L 196.863281 50.226563 "/>
<path style="fill:none;stroke-width:0.2;stroke-linecap:butt;stroke-linejoin:miter;stroke:rgb(26.666667%,26.666667%,26.666667%);stroke-opacity:1;stroke-miterlimit:10;" d="M 482.605469 282.542969 L 473.335938 270.457031 "/>
<path style=" stroke:none;fill-rule:nonzero;fill:rgb(26.666667%,26.666667%,26.666667%);fill-opacity:1;" d="M 473.25 270.34375 L 473.371094 270.429688 L 473.300781 270.484375 L 473.25 270.34375 "/>
<path style="fill:none;stroke-width:0.2;stroke-linecap:butt;stroke-linejoin:miter;stroke:rgb(26.666667%,26.666667%,26.666667%);stroke-opacity:1;stroke-miterlimit:10;" d="M 26.261719 266.21875 C 26.261719 268.21875 23.261719 268.21875 23.261719 266.21875 C 23.261719 264.21875 26.261719 264.21875 26.261719 266.21875 "/>
<path style="fill:none;stroke-width:0.2;stroke-linecap:butt;stroke-linejoin:miter;stroke:rgb(26.666667%,26.666667%,26.666667%);stroke-opacity:1;stroke-miterlimit:10;" d="M 209.769531 119.40625 L 193.828125 119.109375 "/>
<path style=" stroke:none;fill-rule:nonzero;fill:rgb(26.666667%,26.666667%,26.666667%);fill-opacity:1;" d="M 193.6875 119.109375 L 193.832031 119.0625 L 193.828125 119.15625 L 193.6875 119.109375 "/>
<path style="fill:none;stroke-width:0.2;stroke-linecap:butt;stroke-linejoin:miter;stroke:rgb(26.666667%,26.666667%,26.666667%);stroke-opacity:1;stroke-miterlimit:10;" d="M 316.820313 444.300781 L 330.921875 451.226563 "/>
<path style=" stroke:none;fill-rule:nonzero;fill:rgb(26.666667%,26.666667%,26.666667%);fill-opacity:1;" d="M 331.050781 451.289063 L 330.902344 451.269531 L 330.941406 451.183594 L 331.050781 451.289063 "/>
<path style="fill:none;stroke-width:0.2;stroke-linecap:butt;stroke-linejoin:miter;stroke:rgb(26.666667%,26.666667%,26.666667%);stroke-opacity:1;stroke-miterlimit:10;" d="M 20 345.257813 L 29.242188 357.605469 "/>
<path style=" stroke:none;fill-rule:nonzero;fill:rgb(26.666667%,26.666667%,26.666667%);fill-opacity:1;" d="M 29.328125 357.71875 L 29.203125 357.632813 L 29.277344 357.578125 L 29.328125 357.71875 "/>
<path style="fill:none;stroke-width:0.2;stroke-linecap:butt;stroke-linejoin:miter;stroke:rgb(26.666667%,26.666667%,26.666667%);stroke-opacity:1;stroke-miterlimit:10;" d="M 425.21875 136.765625 L 412.410156 145.851563 "/>
<path style=" stroke:none;fill-rule:nonzero;fill:rgb(26.666667%,26.666667%,26.666667%);fill-opacity:1;" d="M 412.296875 145.933594 L 412.386719 145.8125 L 412.4375 145.886719 L 412.296875 145.933594 "/>
<path style="fill:none;stroke-width:0.2;stroke-linecap:butt;stroke-linejoin:miter;stroke:rgb(26.666667%,26.666667%,26.666667%);stroke-opacity:1;stroke-miterlimit:10;" d="M 352.273438 544.246094 L 368.304688 543.855469 "/>
<path style=" stroke:none;fill-rule:nonzero;fill:rgb(26.666667%,26.666667%,26.666667%);fill-opacity:1;" d="M 368.449219 543.851563 L 368.304688 543.902344 L 368.304688 543.808594 L 368.449219 543.851563 "/>
<path style="fill:none;stroke-width:0.2;stroke-linecap:butt;stroke-linejoin:miter;stroke:rgb(26.666667%,26.666667%,26.666667%);stroke-opacity:1;stroke-miterlimit:10;" d="M 89.082031 319.785156 L 96.449219 306.460938 "/>
<path style=" stroke:none;fill-rule:nonzero;fill:rgb(26.666667%,26.666667%,26.666667%);fill-opacity:1;" d="M 96.515625 306.335938 L 96.488281 306.484375 L 96.40625 306.441406 L 96.515625 306.335938 "/>
<path style="fill:none;stroke-width:0.2;stroke-linecap:butt;stroke-linejoin:miter;stroke:rgb(26.666667%,26.666667%,26.666667%);stroke-opacity:1;stroke-miterlimit:10;" d="M 143.78125 490.179688 L 130.132813 498.070313 "/>
<path style=" stroke:none;fill-rule:nonzero;fill:rgb(26.666667%,26.666667%,26.666667%);fill-opacity:1;" d="M 130.007813 498.140625 L 130.109375 498.03125 L 130.15625 498.109375 L 130.007813 498.140625 "/>
<path style="fill:none;stroke-width:0.2;stroke-linecap:butt;stroke-linejoin:miter;stroke:rgb(26.666667%,26.666667%,26.666667%);stroke-opacity:1;stroke-miterlimit:10;" d="M 323.839844 172.996094 L 338.164063 166.496094 "/>
<path style=" stroke:none;fill-rule:nonzero;fill:rgb(26.666667%,26.666667%,26.666667%);fill-opacity:1;" d="M 338.292969 166.4375 L 338.183594 166.539063 L 338.144531 166.453125 L 338.292969 166.4375 "/>
<path style="fill:none;stroke-width:0.2;stroke-linecap:butt;stroke-linejoin:miter;stroke:rgb(26.666667%,26.666667%,26.666667%);stroke-opacity:1;stroke-miterlimit:10;" d="M 382.78125 225.070313 L 397.964844 229.421875 "/>
<path style=" stroke:none;fill-rule:nonzero;fill:rgb(26.666667%,26.666667%,26.666667%);fill-opacity:1;" d="M 398.101563 229.460938 L 397.953125 229.464844 L 397.976563 229.378906 L 398.101563 229.460938 "/>
<path style="fill:none;stroke-width:0.2;stroke-linecap:butt;stroke-linejoin:miter;stroke:rgb(26.666667%,26.666667%,26.666667%);stroke-opacity:1;stroke-miterlimit:10;" d="M 369.488281 368.503906 L 379.125 380.496094 "/>
<path style=" stroke:none;fill-rule:nonzero;fill:rgb(26.666667%,26.666667%,26.666667%);fill-opacity:1;" d="M 379.214844 380.605469 L 379.089844 380.523438 L 379.164063 380.46875 L 379.214844 380.605469 "/>
<path style="fill:none;stroke-width:0.2;stroke-linecap:butt;stroke-linejoin:miter;stroke:rgb(26.666667%,26.666667%,26.666667%);stroke-opacity:1;stroke-miterlimit:10;" d="M 125.90625 398.664063 L 138.199219 408.28125 "/>
<path style=" stroke:none;fill-rule:nonzero;fill:rgb(26.666667%,26.666667%,26.666667%);fill-opacity:1;" d="M 138.3125 408.371094 L 138.171875 408.320313 L 138.230469 408.246094 L 138.3125 408.371094 "/>
<path style="fill:none;stroke-width:0.2;stroke-linecap:butt;stroke-linejoin:miter;stroke:rgb(26.666667%,26.666667%,26.666667%);stroke-opacity:1;stroke-miterlimit:10;" d="M 508.949219 155.449219 L 513.140625 170.085938 "/>
<path style=" stroke:none;fill-rule:nonzero;fill:rgb(26.666667%,26.666667%,26.666667%);fill-opacity:1;" d="M 513.179688 170.222656 L 513.097656 170.097656 L 513.1875 170.074219 L 513.179688 170.222656 "/>
<path style="fill:none;stroke-width:0.2;stroke-linecap:butt;stroke-linejoin:miter;stroke:rgb(26.666667%,26.666667%,26.666667%);stroke-opacity:1;stroke-miterlimit:10;" d="M 308.039063 384.195313 L 292.382813 381.753906 "/>
<path style=" stroke:none;fill-rule:nonzero;fill:rgb(26.666667%,26.666667%,26.666667%);fill-opacity:1;" d="M 292.242188 381.730469 L 292.390625 381.707031 L 292.375 381.796875 L 292.242188 381.730469 "/>
<path style="fill:none;stroke-width:0.2;stroke-linecap:butt;stroke-linejoin:miter;stroke:rgb(26.666667%,26.666667%,26.666667%);stroke-opacity:1;stroke-miterlimit:10;" d="M 57.226563 200.066406 L 63.703125 213.902344 "/>
<path style=" stroke:none;fill-rule:nonzero;fill:rgb(26.666667%,26.666667%,26.666667%);fill-opacity:1;" d="M 63.761719 214.03125 L 63.660156 213.921875 L 63.742188 213.882813 L 63.761719 214.03125 "/>
<path style="fill:none;stroke-width:0.2;stroke-linecap:butt;stroke-linejoin:miter;stroke:rgb(26.666667%,26.666667%,26.666667%);stroke-opacity:1;stroke-miterlimit:10;" d="M 508.535156 354.425781 L 513.230469 340.082031 "/>
<path style=" stroke:none;fill-rule:nonzero;fill:rgb(26.666667%,26.666667%,26.666667%);fill-opacity:1;" d="M 513.273438 339.945313 L 513.273438 340.09375 L 513.1875 340.066406 L 513.273438 339.945313 "/>
<path style="fill:none;stroke-width:0.2;stroke-linecap:butt;stroke-linejoin:miter;stroke:rgb(26.666667%,26.666667%,26.666667%);stroke-opacity:1;stroke-miterlimit:10;" d="M 437.089844 47.652344 L 424.996094 37.644531 "/>
<path style=" stroke:none;fill-rule:nonzero;fill:rgb(26.666667%,26.666667%,26.666667%);fill-opacity:1;" d="M 424.886719 37.554688 L 425.027344 37.609375 L 424.96875 37.679688 L 424.886719 37.554688 "/>
<path style="fill:none;stroke-width:0.2;stroke-linecap:butt;stroke-linejoin:miter;stroke:rgb(26.666667%,26.666667%,26.666667%);stroke-opacity:1;stroke-miterlimit:10;" d="M 65.4375 443.882813 L 51.859375 435.925781 "/>
<path style=" stroke:none;fill-rule:nonzero;fill:rgb(26.666667%,26.666667%,26.666667%);fill-opacity:1;" d="M 51.738281 435.855469 L 51.882813 435.886719 L 51.835938 435.964844 L 51.738281 435.855469 "/>
<path style="fill:none;stroke-width:0.2;stroke-linecap:butt;stroke-linejoin:miter;stroke:rgb(26.666667%,26.666667%,26.666667%);stroke-opacity:1;stroke-miterlimit:10;" d="M 467.617188 213.035156 L 458.214844 200.867188 "/>
<path style=" stroke:none;fill-rule:nonzero;fill:rgb(26.666667%,26.666667%,26.666667%);fill-opacity:1;" d="M 458.128906 200.753906 L 458.253906 200.839844 L 458.179688 200.894531 L 458.128906 200.753906 "/>
<path style="fill:none;stroke-width:0.2;stroke-linecap:butt;stroke-linejoin:miter;stroke:rgb(26.666667%,26.666667%,26.666667%);stroke-opacity:1;stroke-miterlimit:10;" d="M 261.355469 477.363281 L 272.660156 488.132813 "/>
<path style=" stroke:none;fill-rule:nonzero;fill:rgb(26.666667%,26.666667%,26.666667%);fill-opacity:1;" d="M 272.765625 488.230469 L 272.628906 488.164063 L 272.691406 488.097656 L 272.765625 488.230469 "/>
<path style="fill:none;stroke-width:0.2;stroke-linecap:butt;stroke-linejoin:miter;stroke:rgb(26.666667%,26.666667%,26.666667%);stroke-opacity:1;stroke-miterlimit:10;" d="M 426.289063 330.242188 L 419.195313 316.777344 "/>
<path style=" stroke:none;fill-rule:nonzero;fill:rgb(26.666667%,26.666667%,26.666667%);fill-opacity:1;" d="M 419.128906 316.652344 L 419.238281 316.757813 L 419.15625 316.800781 L 419.128906 316.652344 "/>
<path style="fill:none;stroke-width:0.2;stroke-linecap:butt;stroke-linejoin:miter;stroke:rgb(26.666667%,26.666667%,26.666667%);stroke-opacity:1;stroke-miterlimit:10;" d="M 221.1875 530.285156 L 207.535156 522.5 "/>
<path style=" stroke:none;fill-rule:nonzero;fill:rgb(26.666667%,26.666667%,26.666667%);fill-opacity:1;" d="M 207.410156 522.429688 L 207.558594 522.460938 L 207.511719 522.542969 L 207.410156 522.429688 "/>
<path style="fill:none;stroke-width:0.2;stroke-linecap:butt;stroke-linejoin:miter;stroke:rgb(26.666667%,26.666667%,26.666667%);stroke-opacity:1;stroke-miterlimit:10;" d="M 482.128906 484.488281 L 493.1875 473.496094 "/>
<path style=" stroke:none;fill-rule:nonzero;fill:rgb(26.666667%,26.666667%,26.666667%);fill-opacity:1;" d="M 493.289063 473.394531 L 493.222656 473.53125 L 493.15625 473.464844 L 493.289063 473.394531 "/>
<path style="fill:none;stroke-width:0.2;stroke-linecap:butt;stroke-linejoin:miter;stroke:rgb(26.666667%,26.666667%,26.666667%);stroke-opacity:1;stroke-miterlimit:10;" d="M 140.15625 164.367188 L 124.519531 161.34375 "/>
<path style=" stroke:none;fill-rule:nonzero;fill:rgb(26.666667%,26.666667%,26.666667%);fill-opacity:1;" d="M 124.378906 161.316406 L 124.527344 161.296875 L 124.507813 161.390625 L 124.378906 161.316406 "/>
<path style="fill-rule:nonzero;fill:rgb(100%,0%,0%);fill-opacity:1;stroke-width:0.01;stroke-linecap:butt;stroke-linejoin:miter;stroke:rgb(0%,0%,0%);stroke-opacity:1;stroke-miterlimit:10;" d="M 295.167969 99.542969 C 295.167969 100.875 293.167969 100.875 293.167969 99.542969 C 293.167969 98.207031 295.167969 98.207031 295.167969 99.542969 "/>
<path style="fill-rule:nonzero;fill:rgb(100%,0%,0%);fill-opacity:1;stroke-width:0.01;stroke-linecap:butt;stroke-linejoin:miter;stroke:rgb(0%,0%,0%);stroke-opacity:1;stroke-miterlimit:10;" d="M 286.8125 113.617188 C 286.8125 114.949219 284.8125 114.949219 284.8125 113.617188 C 284.8125 112.28125 286.8125 112.28125 286.8125 113.617188 "/>
<path style="fill-rule:nonzero;fill:rgb(100%,0%,0%);fill-opacity:1;stroke-width:0.01;stroke-linecap:butt;stroke-linejoin:miter;stroke:rgb(0%,0%,0%);stroke-opacity:1;stroke-miterlimit:10;" d="M 355.238281 299.28125 C 355.238281 300.613281 353.238281 300.613281 353.238281 299.28125 C 353.238281 297.945313 355.238281 297.945313 355.238281 299.28125 "/>
<path style="fill-rule:nonzero;fill:rgb(100%,0%,0%);fill-opacity:1;stroke-width:0.01;stroke-linecap:butt;stroke-linejoin:miter;stroke:rgb(0%,0%,0%);stroke-opacity:1;stroke-miterlimit:10;" d="M 352.851563 283.324219 C 352.851563 284.65625 350.851563 284.65625 350.851563 283.324219 C 350.851563 281.992188 352.851563 281.992188 352.851563 283.324219 "/>
<path style="fill-rule:nonzero;fill:rgb(100%,0%,0%);fill-opacity:1;stroke-width:0.01;stroke-linecap:butt;stroke-linejoin:miter;stroke:rgb(0%,0%,0%);stroke-opacity:1;stroke-miterlimit:10;" d="M 262.773438 580 C 262.773438 581.332031 260.773438 581.332031 260.773438 580 C 260.773438 578.667969 262.773438 578.667969 262.773438 580 "/>
<path style="fill-rule:nonzero;fill:rgb(100%,0%,0%);fill-opacity:1;stroke-width:0.01;stroke-linecap:butt;stroke-linejoin:miter;stroke:rgb(0%,0%,0%);stroke-opacity:1;stroke-miterlimit:10;" d="M 161.074219 338.921875 C 161.074219 340.257813 159.074219 340.257813 159.074219 338.921875 C 159.074219 337.589844 161.074219 337.589844 161.074219 338.921875 "/>
<path style="fill-rule:nonzero;fill:rgb(100%,0%,0%);fill-opacity:1;stroke-width:0.01;stroke-linecap:butt;stroke-linejoin:miter;stroke:rgb(0%,0%,0%);stroke-opacity:1;stroke-miterlimit:10;" d="M 178.050781 338.734375 C 178.050781 340.066406 176.050781 340.066406 176.050781 338.734375 C 176.050781 337.398438 178.050781 337.398438 178.050781 338.734375 "/>
<path style="fill-rule:nonzero;fill:rgb(100%,0%,0%);fill-opacity:1;stroke-width:0.01;stroke-linecap:butt;stroke-linejoin:miter;stroke:rgb(0%,0%,0%);stroke-opacity:1;stroke-miterlimit:10;" d="M 460.742188 397.121094 C 460.742188 398.453125 458.742188 398.453125 458.742188 397.121094 C 458.742188 395.785156 460.742188 395.785156 460.742188 397.121094 "/>
<path style="fill-rule:nonzero;fill:rgb(100%,0%,0%);fill-opacity:1;stroke-width:0.01;stroke-linecap:butt;stroke-linejoin:miter;stroke:rgb(0%,0%,0%);stroke-opacity:1;stroke-miterlimit:10;" d="M 460.75 413.210938 C 460.75 414.546875 458.75 414.546875 458.75 413.210938 C 458.75 411.878906 460.75 411.878906 460.75 413.210938 "/>
<path style="fill-rule:nonzero;fill:rgb(100%,0%,0%);fill-opacity:1;stroke-width:0.01;stroke-linecap:butt;stroke-linejoin:miter;stroke:rgb(0%,0%,0%);stroke-opacity:1;stroke-miterlimit:10;" d="M 399.832031 476.917969 C 399.832031 478.25 397.832031 478.25 397.832031 476.917969 C 397.832031 475.585938 399.832031 475.585938 399.832031 476.917969 "/>
<path style="fill-rule:nonzero;fill:rgb(100%,0%,0%);fill-opacity:1;stroke-width:0.01;stroke-linecap:butt;stroke-linejoin:miter;stroke:rgb(0%,0%,0%);stroke-opacity:1;stroke-miterlimit:10;" d="M 401.027344 460.757813 C 401.027344 462.089844 399.027344 462.089844 399.027344 460.757813 C 399.027344 459.425781 401.027344 459.425781 401.027344 460.757813 "/>
<path style="fill-rule:nonzero;fill:rgb(100%,0%,0%);fill-opacity:1;stroke-width:0.01;stroke-linecap:butt;stroke-linejoin:miter;stroke:rgb(0%,0%,0%);stroke-opacity:1;stroke-miterlimit:10;" d="M 224.988281 414.421875 C 224.988281 415.753906 222.988281 415.753906 222.988281 414.421875 C 222.988281 413.089844 224.988281 413.089844 224.988281 414.421875 "/>
<path style="fill-rule:nonzero;fill:rgb(100%,0%,0%);fill-opacity:1;stroke-width:0.01;stroke-linecap:butt;stroke-linejoin:miter;stroke:rgb(0%,0%,0%);stroke-opacity:1;stroke-miterlimit:10;" d="M 208.125 416.671875 C 208.125 418.003906 206.125 418.003906 206.125 416.671875 C 206.125 415.335938 208.125 415.335938 208.125 416.671875 "/>
<path style="fill-rule:nonzero;fill:rgb(100%,0%,0%);fill-opacity:1;stroke-width:0.01;stroke-linecap:butt;stroke-linejoin:miter;stroke:rgb(0%,0%,0%);stroke-opacity:1;stroke-miterlimit:10;" d="M 251.054688 318.699219 C 251.054688 320.03125 249.054688 320.03125 249.054688 318.699219 C 249.054688 317.363281 251.054688 317.363281 251.054688 318.699219 "/>
<path style="fill-rule:nonzero;fill:rgb(100%,0%,0%);fill-opacity:1;stroke-width:0.01;stroke-linecap:butt;stroke-linejoin:miter;stroke:rgb(0%,0%,0%);stroke-opacity:1;stroke-miterlimit:10;" d="M 265.914063 306.605469 C 265.914063 307.9375 263.914063 307.9375 263.914063 306.605469 C 263.914063 305.273438 265.914063 305.273438 265.914063 306.605469 "/>
<path style="fill-rule:nonzero;fill:rgb(100%,0%,0%);fill-opacity:1;stroke-width:0.01;stroke-linecap:butt;stroke-linejoin:miter;stroke:rgb(0%,0%,0%);stroke-opacity:1;stroke-miterlimit:10;" d="M 239.296875 332.167969 C 239.296875 333.503906 237.296875 333.503906 237.296875 332.167969 C 237.296875 330.835938 239.296875 330.835938 239.296875 332.167969 "/>
<path style="fill-rule:nonzero;fill:rgb(100%,0%,0%);fill-opacity:1;stroke-width:0.01;stroke-linecap:butt;stroke-linejoin:miter;stroke:rgb(0%,0%,0%);stroke-opacity:1;stroke-miterlimit:10;" d="M 236.515625 190.839844 C 236.515625 192.171875 234.515625 192.171875 234.515625 190.839844 C 234.515625 189.507813 236.515625 189.507813 236.515625 190.839844 "/>
<path style="fill-rule:nonzero;fill:rgb(100%,0%,0%);fill-opacity:1;stroke-width:0.01;stroke-linecap:butt;stroke-linejoin:miter;stroke:rgb(0%,0%,0%);stroke-opacity:1;stroke-miterlimit:10;" d="M 244.246094 176.46875 C 244.246094 177.800781 242.246094 177.800781 242.246094 176.46875 C 242.246094 175.136719 244.246094 175.136719 244.246094 176.46875 "/>
<path style="fill-rule:nonzero;fill:rgb(100%,0%,0%);fill-opacity:1;stroke-width:0.01;stroke-linecap:butt;stroke-linejoin:miter;stroke:rgb(0%,0%,0%);stroke-opacity:1;stroke-miterlimit:10;" d="M 581 326.742188 C 581 328.074219 579 328.074219 579 326.742188 C 579 325.40625 581 325.40625 581 326.742188 "/>
<path style="fill-rule:nonzero;fill:rgb(100%,0%,0%);fill-opacity:1;stroke-width:0.01;stroke-linecap:butt;stroke-linejoin:miter;stroke:rgb(0%,0%,0%);stroke-opacity:1;stroke-miterlimit:10;" d="M 579.257813 310.503906 C 579.257813 311.835938 577.257813 311.835938 577.257813 310.503906 C 577.257813 309.167969 579.257813 309.167969 579.257813 310.503906 "/>
<path style="fill-rule:nonzero;fill:rgb(100%,0%,0%);fill-opacity:1;stroke-width:0.01;stroke-linecap:butt;stroke-linejoin:miter;stroke:rgb(0%,0%,0%);stroke-opacity:1;stroke-miterlimit:10;" d="M 281.675781 297.613281 C 281.675781 298.949219 279.675781 298.949219 279.675781 297.613281 C 279.675781 296.28125 281.675781 296.28125 281.675781 297.613281 "/>
<path style="fill-rule:nonzero;fill:rgb(100%,0%,0%);fill-opacity:1;stroke-width:0.01;stroke-linecap:butt;stroke-linejoin:miter;stroke:rgb(0%,0%,0%);stroke-opacity:1;stroke-miterlimit:10;" d="M 578.457031 175.085938 C 578.457031 176.417969 576.457031 176.417969 576.457031 175.085938 C 576.457031 173.753906 578.457031 173.753906 578.457031 175.085938 "/>
<path style="fill-rule:nonzero;fill:rgb(100%,0%,0%);fill-opacity:1;stroke-width:0.01;stroke-linecap:butt;stroke-linejoin:miter;stroke:rgb(0%,0%,0%);stroke-opacity:1;stroke-miterlimit:10;" d="M 579.488281 191.398438 C 579.488281 192.730469 577.488281 192.730469 577.488281 191.398438 C 577.488281 190.066406 579.488281 190.066406 579.488281 191.398438 "/>
<path style="fill-rule:nonzero;fill:rgb(100%,0%,0%);fill-opacity:1;stroke-width:0.01;stroke-linecap:butt;stroke-linejoin:miter;stroke:rgb(0%,0%,0%);stroke-opacity:1;stroke-miterlimit:10;" d="M 304.589844 232.355469 C 304.589844 233.691406 302.589844 233.691406 302.589844 232.355469 C 302.589844 231.023438 304.589844 231.023438 304.589844 232.355469 "/>
<path style="fill-rule:nonzero;fill:rgb(100%,0%,0%);fill-opacity:1;stroke-width:0.01;stroke-linecap:butt;stroke-linejoin:miter;stroke:rgb(0%,0%,0%);stroke-opacity:1;stroke-miterlimit:10;" d="M 287.515625 232.765625 C 287.515625 234.097656 285.515625 234.097656 285.515625 232.765625 C 285.515625 231.429688 287.515625 231.429688 287.515625 232.765625 "/>
<path style="fill-rule:nonzero;fill:rgb(100%,0%,0%);fill-opacity:1;stroke-width:0.01;stroke-linecap:butt;stroke-linejoin:miter;stroke:rgb(0%,0%,0%);stroke-opacity:1;stroke-miterlimit:10;" d="M 169.972656 233.222656 C 169.972656 234.554688 167.972656 234.554688 167.972656 233.222656 C 167.972656 231.890625 169.972656 231.890625 169.972656 233.222656 "/>
<path style="fill-rule:nonzero;fill:rgb(100%,0%,0%);fill-opacity:1;stroke-width:0.01;stroke-linecap:butt;stroke-linejoin:miter;stroke:rgb(0%,0%,0%);stroke-opacity:1;stroke-miterlimit:10;" d="M 165.179688 257.886719 C 165.179688 259.21875 163.179688 259.21875 163.179688 257.886719 C 163.179688 256.550781 165.179688 256.550781 165.179688 257.886719 "/>
<path style="fill-rule:nonzero;fill:rgb(100%,0%,0%);fill-opacity:1;stroke-width:0.01;stroke-linecap:butt;stroke-linejoin:miter;stroke:rgb(0%,0%,0%);stroke-opacity:1;stroke-miterlimit:10;" d="M 301.613281 20 C 301.613281 21.332031 299.613281 21.332031 299.613281 20 C 299.613281 18.667969 301.613281 18.667969 301.613281 20 "/>
<path style="fill-rule:nonzero;fill:rgb(100%,0%,0%);fill-opacity:1;stroke-width:0.01;stroke-linecap:butt;stroke-linejoin:miter;stroke:rgb(0%,0%,0%);stroke-opacity:1;stroke-miterlimit:10;" d="M 284.460938 20.085938 C 284.460938 21.421875 282.460938 21.421875 282.460938 20.085938 C 282.460938 18.753906 284.460938 18.753906 284.460938 20.085938 "/>
<path style="fill-rule:nonzero;fill:rgb(100%,0%,0%);fill-opacity:1;stroke-width:0.01;stroke-linecap:butt;stroke-linejoin:miter;stroke:rgb(0%,0%,0%);stroke-opacity:1;stroke-miterlimit:10;" d="M 96.824219 93.332031 C 96.824219 94.664063 94.824219 94.664063 94.824219 93.332031 C 94.824219 92 96.824219 92 96.824219 93.332031 "/>
<path style="fill-rule:nonzero;fill:rgb(100%,0%,0%);fill-opacity:1;stroke-width:0.01;stroke-linecap:butt;stroke-linejoin:miter;stroke:rgb(0%,0%,0%);stroke-opacity:1;stroke-miterlimit:10;" d="M 110.003906 82.882813 C 110.003906 84.21875 108.003906 84.21875 108.003906 82.882813 C 108.003906 81.550781 110.003906 81.550781 110.003906 82.882813 "/>
<path style="fill-rule:nonzero;fill:rgb(100%,0%,0%);fill-opacity:1;stroke-width:0.01;stroke-linecap:butt;stroke-linejoin:miter;stroke:rgb(0%,0%,0%);stroke-opacity:1;stroke-miterlimit:10;" d="M 180.808594 247.84375 C 180.808594 249.175781 178.808594 249.175781 178.808594 247.84375 C 178.808594 246.511719 180.808594 246.511719 180.808594 247.84375 "/>
<path style="fill-rule:nonzero;fill:rgb(100%,0%,0%);fill-opacity:1;stroke-width:0.01;stroke-linecap:butt;stroke-linejoin:miter;stroke:rgb(0%,0%,0%);stroke-opacity:1;stroke-miterlimit:10;" d="M 154.308594 243.28125 C 154.308594 244.617188 152.308594 244.617188 152.308594 243.28125 C 152.308594 241.949219 154.308594 241.949219 154.308594 243.28125 "/>
<path style="fill-rule:nonzero;fill:rgb(100%,0%,0%);fill-opacity:1;stroke-width:0.01;stroke-linecap:butt;stroke-linejoin:miter;stroke:rgb(0%,0%,0%);stroke-opacity:1;stroke-miterlimit:10;" d="M 374.703125 89.789063 C 374.703125 91.121094 372.703125 91.121094 372.703125 89.789063 C 372.703125 88.453125 374.703125 88.453125 374.703125 89.789063 "/>
<path style="fill-rule:nonzero;fill:rgb(100%,0%,0%);fill-opacity:1;stroke-width:0.01;stroke-linecap:butt;stroke-linejoin:miter;stroke:rgb(0%,0%,0%);stroke-opacity:1;stroke-miterlimit:10;" d="M 363.339844 77.691406 C 363.339844 79.023438 361.339844 79.023438 361.339844 77.691406 C 361.339844 76.355469 363.339844 76.355469 363.339844 77.691406 "/>
<path style="fill-rule:nonzero;fill:rgb(100%,0%,0%);fill-opacity:1;stroke-width:0.01;stroke-linecap:butt;stroke-linejoin:miter;stroke:rgb(0%,0%,0%);stroke-opacity:1;stroke-miterlimit:10;" d="M 207.882813 38.332031 C 207.882813 39.664063 205.882813 39.664063 205.882813 38.332031 C 205.882813 37 207.882813 37 207.882813 38.332031 "/>
<path style="fill-rule:nonzero;fill:rgb(100%,0%,0%);fill-opacity:1;stroke-width:0.01;stroke-linecap:butt;stroke-linejoin:miter;stroke:rgb(0%,0%,0%);stroke-opacity:1;stroke-miterlimit:10;" d="M 197.21875 50.988281 C 197.21875 52.324219 195.21875 52.324219 195.21875 50.988281 C 195.21875 49.65625 197.21875 49.65625 197.21875 50.988281 "/>
<path style="fill-rule:nonzero;fill:rgb(100%,0%,0%);fill-opacity:1;stroke-width:0.01;stroke-linecap:butt;stroke-linejoin:miter;stroke:rgb(0%,0%,0%);stroke-opacity:1;stroke-miterlimit:10;" d="M 483.605469 282.542969 C 483.605469 283.878906 481.605469 283.878906 481.605469 282.542969 C 481.605469 281.210938 483.605469 281.210938 483.605469 282.542969 "/>
<path style="fill-rule:nonzero;fill:rgb(100%,0%,0%);fill-opacity:1;stroke-width:0.01;stroke-linecap:butt;stroke-linejoin:miter;stroke:rgb(0%,0%,0%);stroke-opacity:1;stroke-miterlimit:10;" d="M 473.640625 269.550781 C 473.640625 270.882813 471.640625 270.882813 471.640625 269.550781 C 471.640625 268.21875 473.640625 268.21875 473.640625 269.550781 "/>
<path style="fill-rule:nonzero;fill:rgb(100%,0%,0%);fill-opacity:1;stroke-width:0.01;stroke-linecap:butt;stroke-linejoin:miter;stroke:rgb(0%,0%,0%);stroke-opacity:1;stroke-miterlimit:10;" d="M 24.699219 267.277344 C 24.699219 268.609375 22.699219 268.609375 22.699219 267.277344 C 22.699219 265.945313 24.699219 265.945313 24.699219 267.277344 "/>
<path style="fill-rule:nonzero;fill:rgb(100%,0%,0%);fill-opacity:1;stroke-width:0.01;stroke-linecap:butt;stroke-linejoin:miter;stroke:rgb(0%,0%,0%);stroke-opacity:1;stroke-miterlimit:10;" d="M 210.769531 119.40625 C 210.769531 120.738281 208.769531 120.738281 208.769531 119.40625 C 208.769531 118.074219 210.769531 118.074219 210.769531 119.40625 "/>
<path style="fill-rule:nonzero;fill:rgb(100%,0%,0%);fill-opacity:1;stroke-width:0.01;stroke-linecap:butt;stroke-linejoin:miter;stroke:rgb(0%,0%,0%);stroke-opacity:1;stroke-miterlimit:10;" d="M 193.6875 119.089844 C 193.6875 120.421875 191.6875 120.421875 191.6875 119.089844 C 191.6875 117.757813 193.6875 117.757813 193.6875 119.089844 "/>
<path style="fill-rule:nonzero;fill:rgb(100%,0%,0%);fill-opacity:1;stroke-width:0.01;stroke-linecap:butt;stroke-linejoin:miter;stroke:rgb(0%,0%,0%);stroke-opacity:1;stroke-miterlimit:10;" d="M 317.820313 444.300781 C 317.820313 445.632813 315.820313 445.632813 315.820313 444.300781 C 315.820313 442.96875 317.820313 442.96875 317.820313 444.300781 "/>
<path style="fill-rule:nonzero;fill:rgb(100%,0%,0%);fill-opacity:1;stroke-width:0.01;stroke-linecap:butt;stroke-linejoin:miter;stroke:rgb(0%,0%,0%);stroke-opacity:1;stroke-miterlimit:10;" d="M 332.949219 451.730469 C 332.949219 453.0625 330.949219 453.0625 330.949219 451.730469 C 330.949219 450.398438 332.949219 450.398438 332.949219 451.730469 "/>
<path style="fill-rule:nonzero;fill:rgb(100%,0%,0%);fill-opacity:1;stroke-width:0.01;stroke-linecap:butt;stroke-linejoin:miter;stroke:rgb(0%,0%,0%);stroke-opacity:1;stroke-miterlimit:10;" d="M 21 345.257813 C 21 346.589844 19 346.589844 19 345.257813 C 19 343.925781 21 343.925781 21 345.257813 "/>
<path style="fill-rule:nonzero;fill:rgb(100%,0%,0%);fill-opacity:1;stroke-width:0.01;stroke-linecap:butt;stroke-linejoin:miter;stroke:rgb(0%,0%,0%);stroke-opacity:1;stroke-miterlimit:10;" d="M 30.925781 358.519531 C 30.925781 359.851563 28.925781 359.851563 28.925781 358.519531 C 28.925781 357.1875 30.925781 357.1875 30.925781 358.519531 "/>
<path style="fill-rule:nonzero;fill:rgb(100%,0%,0%);fill-opacity:1;stroke-width:0.01;stroke-linecap:butt;stroke-linejoin:miter;stroke:rgb(0%,0%,0%);stroke-opacity:1;stroke-miterlimit:10;" d="M 426.21875 136.765625 C 426.21875 138.097656 424.21875 138.097656 424.21875 136.765625 C 424.21875 135.433594 426.21875 135.433594 426.21875 136.765625 "/>
<path style="fill-rule:nonzero;fill:rgb(100%,0%,0%);fill-opacity:1;stroke-width:0.01;stroke-linecap:butt;stroke-linejoin:miter;stroke:rgb(0%,0%,0%);stroke-opacity:1;stroke-miterlimit:10;" d="M 412.480469 146.511719 C 412.480469 147.84375 410.480469 147.84375 410.480469 146.511719 C 410.480469 145.179688 412.480469 145.179688 412.480469 146.511719 "/>
<path style="fill-rule:nonzero;fill:rgb(100%,0%,0%);fill-opacity:1;stroke-width:0.01;stroke-linecap:butt;stroke-linejoin:miter;stroke:rgb(0%,0%,0%);stroke-opacity:1;stroke-miterlimit:10;" d="M 353.273438 544.246094 C 353.273438 545.582031 351.273438 545.582031 351.273438 544.246094 C 351.273438 542.914063 353.273438 542.914063 353.273438 544.246094 "/>
<path style="fill-rule:nonzero;fill:rgb(100%,0%,0%);fill-opacity:1;stroke-width:0.01;stroke-linecap:butt;stroke-linejoin:miter;stroke:rgb(0%,0%,0%);stroke-opacity:1;stroke-miterlimit:10;" d="M 370.449219 543.828125 C 370.449219 545.160156 368.449219 545.160156 368.449219 543.828125 C 368.449219 542.496094 370.449219 542.496094 370.449219 543.828125 "/>
<path style="fill-rule:nonzero;fill:rgb(100%,0%,0%);fill-opacity:1;stroke-width:0.01;stroke-linecap:butt;stroke-linejoin:miter;stroke:rgb(0%,0%,0%);stroke-opacity:1;stroke-miterlimit:10;" d="M 90.082031 319.785156 C 90.082031 321.117188 88.082031 321.117188 88.082031 319.785156 C 88.082031 318.449219 90.082031 318.449219 90.082031 319.785156 "/>
<path style="fill-rule:nonzero;fill:rgb(100%,0%,0%);fill-opacity:1;stroke-width:0.01;stroke-linecap:butt;stroke-linejoin:miter;stroke:rgb(0%,0%,0%);stroke-opacity:1;stroke-miterlimit:10;" d="M 98 305.460938 C 98 306.796875 96 306.796875 96 305.460938 C 96 304.128906 98 304.128906 98 305.460938 "/>
<path style="fill-rule:nonzero;fill:rgb(100%,0%,0%);fill-opacity:1;stroke-width:0.01;stroke-linecap:butt;stroke-linejoin:miter;stroke:rgb(0%,0%,0%);stroke-opacity:1;stroke-miterlimit:10;" d="M 144.78125 490.179688 C 144.78125 491.511719 142.78125 491.511719 142.78125 490.179688 C 142.78125 488.84375 144.78125 488.84375 144.78125 490.179688 "/>
<path style="fill-rule:nonzero;fill:rgb(100%,0%,0%);fill-opacity:1;stroke-width:0.01;stroke-linecap:butt;stroke-linejoin:miter;stroke:rgb(0%,0%,0%);stroke-opacity:1;stroke-miterlimit:10;" d="M 130.144531 498.644531 C 130.144531 499.976563 128.144531 499.976563 128.144531 498.644531 C 128.144531 497.308594 130.144531 497.308594 130.144531 498.644531 "/>
<path style="fill-rule:nonzero;fill:rgb(100%,0%,0%);fill-opacity:1;stroke-width:0.01;stroke-linecap:butt;stroke-linejoin:miter;stroke:rgb(0%,0%,0%);stroke-opacity:1;stroke-miterlimit:10;" d="M 324.839844 172.996094 C 324.839844 174.332031 322.839844 174.332031 322.839844 172.996094 C 322.839844 171.664063 324.839844 171.664063 324.839844 172.996094 "/>
<path style="fill-rule:nonzero;fill:rgb(100%,0%,0%);fill-opacity:1;stroke-width:0.01;stroke-linecap:butt;stroke-linejoin:miter;stroke:rgb(0%,0%,0%);stroke-opacity:1;stroke-miterlimit:10;" d="M 340.203125 166.023438 C 340.203125 167.355469 338.203125 167.355469 338.203125 166.023438 C 338.203125 164.691406 340.203125 164.691406 340.203125 166.023438 "/>
<path style="fill-rule:nonzero;fill:rgb(100%,0%,0%);fill-opacity:1;stroke-width:0.01;stroke-linecap:butt;stroke-linejoin:miter;stroke:rgb(0%,0%,0%);stroke-opacity:1;stroke-miterlimit:10;" d="M 383.78125 225.070313 C 383.78125 226.402344 381.78125 226.402344 381.78125 225.070313 C 381.78125 223.738281 383.78125 223.738281 383.78125 225.070313 "/>
<path style="fill-rule:nonzero;fill:rgb(100%,0%,0%);fill-opacity:1;stroke-width:0.01;stroke-linecap:butt;stroke-linejoin:miter;stroke:rgb(0%,0%,0%);stroke-opacity:1;stroke-miterlimit:10;" d="M 400.0625 229.738281 C 400.0625 231.070313 398.0625 231.070313 398.0625 229.738281 C 398.0625 228.402344 400.0625 228.402344 400.0625 229.738281 "/>
<path style="fill-rule:nonzero;fill:rgb(100%,0%,0%);fill-opacity:1;stroke-width:0.01;stroke-linecap:butt;stroke-linejoin:miter;stroke:rgb(0%,0%,0%);stroke-opacity:1;stroke-miterlimit:10;" d="M 370.488281 368.503906 C 370.488281 369.839844 368.488281 369.839844 368.488281 368.503906 C 368.488281 367.171875 370.488281 367.171875 370.488281 368.503906 "/>
<path style="fill-rule:nonzero;fill:rgb(100%,0%,0%);fill-opacity:1;stroke-width:0.01;stroke-linecap:butt;stroke-linejoin:miter;stroke:rgb(0%,0%,0%);stroke-opacity:1;stroke-miterlimit:10;" d="M 380.84375 381.386719 C 380.84375 382.71875 378.84375 382.71875 378.84375 381.386719 C 378.84375 380.054688 380.84375 380.054688 380.84375 381.386719 "/>
<path style="fill-rule:nonzero;fill:rgb(100%,0%,0%);fill-opacity:1;stroke-width:0.01;stroke-linecap:butt;stroke-linejoin:miter;stroke:rgb(0%,0%,0%);stroke-opacity:1;stroke-miterlimit:10;" d="M 126.90625 398.664063 C 126.90625 400 124.90625 400 124.90625 398.664063 C 124.90625 397.332031 126.90625 397.332031 126.90625 398.664063 "/>
<path style="fill-rule:nonzero;fill:rgb(100%,0%,0%);fill-opacity:1;stroke-width:0.01;stroke-linecap:butt;stroke-linejoin:miter;stroke:rgb(0%,0%,0%);stroke-opacity:1;stroke-miterlimit:10;" d="M 140.101563 408.988281 C 140.101563 410.320313 138.101563 410.320313 138.101563 408.988281 C 138.101563 407.652344 140.101563 407.652344 140.101563 408.988281 "/>
<path style="fill-rule:nonzero;fill:rgb(100%,0%,0%);fill-opacity:1;stroke-width:0.01;stroke-linecap:butt;stroke-linejoin:miter;stroke:rgb(0%,0%,0%);stroke-opacity:1;stroke-miterlimit:10;" d="M 509.949219 155.449219 C 509.949219 156.78125 507.949219 156.78125 507.949219 155.449219 C 507.949219 154.113281 509.949219 154.113281 509.949219 155.449219 "/>
<path style="fill-rule:nonzero;fill:rgb(100%,0%,0%);fill-opacity:1;stroke-width:0.01;stroke-linecap:butt;stroke-linejoin:miter;stroke:rgb(0%,0%,0%);stroke-opacity:1;stroke-miterlimit:10;" d="M 514.457031 171.183594 C 514.457031 172.519531 512.457031 172.519531 512.457031 171.183594 C 512.457031 169.851563 514.457031 169.851563 514.457031 171.183594 "/>
<path style="fill-rule:nonzero;fill:rgb(100%,0%,0%);fill-opacity:1;stroke-width:0.01;stroke-linecap:butt;stroke-linejoin:miter;stroke:rgb(0%,0%,0%);stroke-opacity:1;stroke-miterlimit:10;" d="M 309.039063 384.195313 C 309.039063 385.53125 307.039063 385.53125 307.039063 384.195313 C 307.039063 382.863281 309.039063 382.863281 309.039063 384.195313 "/>
<path style="fill-rule:nonzero;fill:rgb(100%,0%,0%);fill-opacity:1;stroke-width:0.01;stroke-linecap:butt;stroke-linejoin:miter;stroke:rgb(0%,0%,0%);stroke-opacity:1;stroke-miterlimit:10;" d="M 292.253906 381.574219 C 292.253906 382.910156 290.253906 382.910156 290.253906 381.574219 C 290.253906 380.242188 292.253906 380.242188 292.253906 381.574219 "/>
<path style="fill-rule:nonzero;fill:rgb(100%,0%,0%);fill-opacity:1;stroke-width:0.01;stroke-linecap:butt;stroke-linejoin:miter;stroke:rgb(0%,0%,0%);stroke-opacity:1;stroke-miterlimit:10;" d="M 58.226563 200.066406 C 58.226563 201.402344 56.226563 201.402344 56.226563 200.066406 C 56.226563 198.734375 58.226563 198.734375 58.226563 200.066406 "/>
<path style="fill-rule:nonzero;fill:rgb(100%,0%,0%);fill-opacity:1;stroke-width:0.01;stroke-linecap:butt;stroke-linejoin:miter;stroke:rgb(0%,0%,0%);stroke-opacity:1;stroke-miterlimit:10;" d="M 65.1875 214.9375 C 65.1875 216.269531 63.1875 216.269531 63.1875 214.9375 C 63.1875 213.601563 65.1875 213.601563 65.1875 214.9375 "/>
<path style="fill-rule:nonzero;fill:rgb(100%,0%,0%);fill-opacity:1;stroke-width:0.01;stroke-linecap:butt;stroke-linejoin:miter;stroke:rgb(0%,0%,0%);stroke-opacity:1;stroke-miterlimit:10;" d="M 509.535156 354.425781 C 509.535156 355.757813 507.535156 355.757813 507.535156 354.425781 C 507.535156 353.09375 509.535156 353.09375 509.535156 354.425781 "/>
<path style="fill-rule:nonzero;fill:rgb(100%,0%,0%);fill-opacity:1;stroke-width:0.01;stroke-linecap:butt;stroke-linejoin:miter;stroke:rgb(0%,0%,0%);stroke-opacity:1;stroke-miterlimit:10;" d="M 514.585938 338.996094 C 514.585938 340.328125 512.585938 340.328125 512.585938 338.996094 C 512.585938 337.660156 514.585938 337.660156 514.585938 338.996094 "/>
<path style="fill-rule:nonzero;fill:rgb(100%,0%,0%);fill-opacity:1;stroke-width:0.01;stroke-linecap:butt;stroke-linejoin:miter;stroke:rgb(0%,0%,0%);stroke-opacity:1;stroke-miterlimit:10;" d="M 438.089844 47.652344 C 438.089844 48.988281 436.089844 48.988281 436.089844 47.652344 C 436.089844 46.320313 438.089844 46.320313 438.089844 47.652344 "/>
<path style="fill-rule:nonzero;fill:rgb(100%,0%,0%);fill-opacity:1;stroke-width:0.01;stroke-linecap:butt;stroke-linejoin:miter;stroke:rgb(0%,0%,0%);stroke-opacity:1;stroke-miterlimit:10;" d="M 425.117188 36.917969 C 425.117188 38.25 423.117188 38.25 423.117188 36.917969 C 423.117188 35.582031 425.117188 35.582031 425.117188 36.917969 "/>
<path style="fill-rule:nonzero;fill:rgb(100%,0%,0%);fill-opacity:1;stroke-width:0.01;stroke-linecap:butt;stroke-linejoin:miter;stroke:rgb(0%,0%,0%);stroke-opacity:1;stroke-miterlimit:10;" d="M 66.4375 443.882813 C 66.4375 445.214844 64.4375 445.214844 64.4375 443.882813 C 64.4375 442.550781 66.4375 442.550781 66.4375 443.882813 "/>
<path style="fill-rule:nonzero;fill:rgb(100%,0%,0%);fill-opacity:1;stroke-width:0.01;stroke-linecap:butt;stroke-linejoin:miter;stroke:rgb(0%,0%,0%);stroke-opacity:1;stroke-miterlimit:10;" d="M 51.875 435.347656 C 51.875 436.683594 49.875 436.683594 49.875 435.347656 C 49.875 434.015625 51.875 434.015625 51.875 435.347656 "/>
<path style="fill-rule:nonzero;fill:rgb(100%,0%,0%);fill-opacity:1;stroke-width:0.01;stroke-linecap:butt;stroke-linejoin:miter;stroke:rgb(0%,0%,0%);stroke-opacity:1;stroke-miterlimit:10;" d="M 468.617188 213.035156 C 468.617188 214.367188 466.617188 214.367188 466.617188 213.035156 C 466.617188 211.699219 468.617188 211.699219 468.617188 213.035156 "/>
<path style="fill-rule:nonzero;fill:rgb(100%,0%,0%);fill-opacity:1;stroke-width:0.01;stroke-linecap:butt;stroke-linejoin:miter;stroke:rgb(0%,0%,0%);stroke-opacity:1;stroke-miterlimit:10;" d="M 458.519531 199.960938 C 458.519531 201.296875 456.519531 201.296875 456.519531 199.960938 C 456.519531 198.628906 458.519531 198.628906 458.519531 199.960938 "/>
<path style="fill-rule:nonzero;fill:rgb(100%,0%,0%);fill-opacity:1;stroke-width:0.01;stroke-linecap:butt;stroke-linejoin:miter;stroke:rgb(0%,0%,0%);stroke-opacity:1;stroke-miterlimit:10;" d="M 262.355469 477.363281 C 262.355469 478.695313 260.355469 478.695313 260.355469 477.363281 C 260.355469 476.027344 262.355469 476.027344 262.355469 477.363281 "/>
<path style="fill-rule:nonzero;fill:rgb(100%,0%,0%);fill-opacity:1;stroke-width:0.01;stroke-linecap:butt;stroke-linejoin:miter;stroke:rgb(0%,0%,0%);stroke-opacity:1;stroke-miterlimit:10;" d="M 274.488281 488.921875 C 274.488281 490.253906 272.488281 490.253906 272.488281 488.921875 C 272.488281 487.585938 274.488281 487.585938 274.488281 488.921875 "/>
<path style="fill-rule:nonzero;fill:rgb(100%,0%,0%);fill-opacity:1;stroke-width:0.01;stroke-linecap:butt;stroke-linejoin:miter;stroke:rgb(0%,0%,0%);stroke-opacity:1;stroke-miterlimit:10;" d="M 427.289063 330.242188 C 427.289063 331.574219 425.289063 331.574219 425.289063 330.242188 C 425.289063 328.910156 427.289063 328.910156 427.289063 330.242188 "/>
<path style="fill-rule:nonzero;fill:rgb(100%,0%,0%);fill-opacity:1;stroke-width:0.01;stroke-linecap:butt;stroke-linejoin:miter;stroke:rgb(0%,0%,0%);stroke-opacity:1;stroke-miterlimit:10;" d="M 419.664063 315.765625 C 419.664063 317.101563 417.664063 317.101563 417.664063 315.765625 C 417.664063 314.433594 419.664063 314.433594 419.664063 315.765625 "/>
<path style="fill-rule:nonzero;fill:rgb(100%,0%,0%);fill-opacity:1;stroke-width:0.01;stroke-linecap:butt;stroke-linejoin:miter;stroke:rgb(0%,0%,0%);stroke-opacity:1;stroke-miterlimit:10;" d="M 222.1875 530.285156 C 222.1875 531.617188 220.1875 531.617188 220.1875 530.285156 C 220.1875 528.953125 222.1875 528.953125 222.1875 530.285156 "/>
<path style="fill-rule:nonzero;fill:rgb(100%,0%,0%);fill-opacity:1;stroke-width:0.01;stroke-linecap:butt;stroke-linejoin:miter;stroke:rgb(0%,0%,0%);stroke-opacity:1;stroke-miterlimit:10;" d="M 207.542969 521.9375 C 207.542969 523.269531 205.542969 523.269531 205.542969 521.9375 C 205.542969 520.601563 207.542969 520.601563 207.542969 521.9375 "/>
<path style="fill-rule:nonzero;fill:rgb(100%,0%,0%);fill-opacity:1;stroke-width:0.01;stroke-linecap:butt;stroke-linejoin:miter;stroke:rgb(0%,0%,0%);stroke-opacity:1;stroke-miterlimit:10;" d="M 483.128906 484.488281 C 483.128906 485.824219 481.128906 485.824219 481.128906 484.488281 C 481.128906 483.15625 483.128906 483.15625 483.128906 484.488281 "/>
<path style="fill-rule:nonzero;fill:rgb(100%,0%,0%);fill-opacity:1;stroke-width:0.01;stroke-linecap:butt;stroke-linejoin:miter;stroke:rgb(0%,0%,0%);stroke-opacity:1;stroke-miterlimit:10;" d="M 495 472.691406 C 495 474.023438 493 474.023438 493 472.691406 C 493 471.359375 495 471.359375 495 472.691406 "/>
<path style="fill-rule:nonzero;fill:rgb(100%,0%,0%);fill-opacity:1;stroke-width:0.01;stroke-linecap:butt;stroke-linejoin:miter;stroke:rgb(0%,0%,0%);stroke-opacity:1;stroke-miterlimit:10;" d="M 141.15625 164.367188 C 141.15625 165.703125 139.15625 165.703125 139.15625 164.367188 C 139.15625 163.035156 141.15625 163.035156 141.15625 164.367188 "/>
<path style="fill-rule:nonzero;fill:rgb(100%,0%,0%);fill-opacity:1;stroke-width:0.01;stroke-linecap:butt;stroke-linejoin:miter;stroke:rgb(0%,0%,0%);stroke-opacity:1;stroke-miterlimit:10;" d="M 124.398438 161.128906 C 124.398438 162.460938 122.398438 162.460938 122.398438 161.128906 C 122.398438 159.792969 124.398438 159.792969 124.398438 161.128906 "/>
</g>
</svg>
