<?xml version="1.0" encoding="UTF-8"?>
<svg xmlns="http://www.w3.org/2000/svg" xmlns:xlink="http://www.w3.org/1999/xlink" width="600" height="600" viewBox="0 0 600 600">
<rect x="-60" y="-60" width="720" height="720" fill="rgb(100%, 100%, 100%)" fill-opacity="1"/>
<path fill="none" stroke-width="0.2" stroke-linecap="butt" stroke-linejoin="miter" stroke="rgb(26.666667%, 26.666667%, 26.666667%)" stroke-opacity="1" stroke-miterlimit="10" d="M 473.394531 101.382812 L 477.792969 117.144531 "/>
<path fill-rule="nonzero" fill="rgb(100%, 0%, 0%)" fill-opacity="1" stroke-width="0.01" stroke-linecap="butt" stroke-linejoin="miter" stroke="rgb(0%, 0%, 0%)" stroke-opacity="1" stroke-miterlimit="10" d="M 254.113281 452.484375 C 254.113281 453.816406 252.113281 453.816406 252.113281 452.484375 C 252.113281 451.152344 254.113281 451.152344 254.113281 452.484375 "/>
<path fill-rule="nonzero" fill="rgb(100%, 0%, 0%)" fill-opacity="1" stroke-width="0.01" stroke-linecap="butt" stroke-linejoin="miter" stroke="rgb(0%, 0%, 0%)" stroke-opacity="1" stroke-miterlimit="10" d="M 424.605469 403.234375 C 424.605469 404.566406 422.605469 404.566406 422.605469 403.234375 C 422.605469 401.898438 424.605469 401.898438 424.605469 403.234375 "/>
<path fill-rule="nonzero" fill="rgb(100%, 0%, 0%)" fill-opacity="1" stroke-width="0.01" stroke-linecap="butt" stroke-linejoin="miter" stroke="rgb(0%, 0%, 0%)" stroke-opacity="1" stroke-miterlimit="10" d="M 214.84375 357.03125 C 214.84375 358.363281 212.84375 358.363281 212.84375 357.03125 C 212.84375 355.695312 214.84375 355.695312 214.84375 357.03125 "/>
<path fill-rule="nonzero" fill="rgb(100%, 0%, 0%)" fill-opacity="1" stroke-width="0.01" stroke-linecap="butt" stroke-linejoin="miter" stroke="rgb(0%, 0%, 0%)" stroke-opacity="1" stroke-miterlimit="10" d="M 394.824219 333.648438 C 394.824219 334.980469 392.824219 334.980469 392.824219 333.648438 C 392.824219 332.3125 394.824219 332.3125 394.824219 333.648438 "/>
<path fill-rule="nonzero" fill="rgb(100%, 0%, 0%)" fill-opacity="1" stroke-width="0.01" stroke-linecap="butt" stroke-linejoin="miter" stroke="rgb(0%, 0%, 0%)" stroke-opacity="1" stroke-miterlimit="10" d="M 176.71875 190.179688 C 176.71875 191.511719 174.71875 191.511719 174.71875 190.179688 C 174.71875 188.847656 176.71875 188.847656 176.71875 190.179688 "/>
<path fill-rule="nonzero" fill="rgb(100%, 0%, 0%)" fill-opacity="1" stroke-width="0.01" stroke-linecap="butt" stroke-linejoin="miter" stroke="rgb(0%, 0%, 0%)" stroke-opacity="1" stroke-miterlimit="10" d="M 235.429688 305.988281 C 235.429688 307.320312 233.429688 307.320312 233.429688 305.988281 C 233.429688 304.652344 235.429688 304.652344 235.429688 305.988281 "/>
<path fill-rule="nonzero" fill="rgb(100%, 0%, 0%)" fill-opacity="1" stroke-width="0.01" stroke-linecap="butt" stroke-linejoin="miter" stroke="rgb(0%, 0%, 0%)" stroke-opacity="1" stroke-miterlimit="10" d="M 43.152344 398.691406 C 43.152344 400.023438 41.152344 400.023438 41.152344 398.691406 C 41.152344 397.359375 43.152344 397.359375 43.152344 398.691406 "/>
<path fill-rule="nonzero" fill="rgb(100%, 0%, 0%)" fill-opacity="1" stroke-width="0.01" stroke-linecap="butt" stroke-linejoin="miter" stroke="rgb(0%, 0%, 0%)" stroke-opacity="1" stroke-miterlimit="10" d="M 421.1875 283.304688 C 421.1875 284.640625 419.1875 284.640625 419.1875 283.304688 C 419.1875 281.972656 421.1875 281.972656 421.1875 283.304688 "/>
<path fill-rule="nonzero" fill="rgb(100%, 0%, 0%)" fill-opacity="1" stroke-width="0.01" stroke-linecap="butt" stroke-linejoin="miter" stroke="rgb(0%, 0%, 0%)" stroke-opacity="1" stroke-miterlimit="10" d="M 512.464844 326.179688 C 512.464844 327.515625 510.464844 327.515625 510.464844 326.179688 C 510.464844 324.847656 512.464844 324.847656 512.464844 326.179688 "/>
<path fill-rule="nonzero" fill="rgb(100%, 0%, 0%)" fill-opacity="1" stroke-width="0.01" stroke-linecap="butt" stroke-linejoin="miter" stroke="rgb(0%, 0%, 0%)" stroke-opacity="1" stroke-miterlimit="10" d="M 269.65625 214.257812 C 269.65625 215.59375 267.65625 215.59375 267.65625 214.257812 C 267.65625 212.925781 269.65625 212.925781 269.65625 214.257812 "/>
<path fill-rule="nonzero" fill="rgb(100%, 0%, 0%)" fill-opacity="1" stroke-width="0.01" stroke-linecap="butt" stroke-linejoin="miter" stroke="rgb(0%, 0%, 0%)" stroke-opacity="1" stroke-miterlimit="10" d="M 79.726562 458.796875 C 79.726562 460.128906 77.726562 460.128906 77.726562 458.796875 C 77.726562 457.460938 79.726562 457.460938 79.726562 458.796875 "/>
<path fill-rule="nonzero" fill="rgb(100%, 0%, 0%)" fill-opacity="1" stroke-width="0.01" stroke-linecap="butt" stroke-linejoin="miter" stroke="rgb(0%, 0%, 0%)" stroke-opacity="1" stroke-miterlimit="10" d="M 376.710938 20.085938 C 376.710938 21.417969 374.710938 21.417969 374.710938 20.085938 C 374.710938 18.75 376.710938 18.75 376.710938 20.085938 "/>
<path fill-rule="nonzero" fill="rgb(100%, 0%, 0%)" fill-opacity="1" stroke-width="0.01" stroke-linecap="butt" stroke-linejoin="miter" stroke="rgb(0%, 0%, 0%)" stroke-opacity="1" stroke-miterlimit="10" d="M 281.144531 334.164062 C 281.144531 335.496094 279.144531 335.496094 279.144531 334.164062 C 279.144531 332.828125 281.144531 332.828125 281.144531 334.164062 "/>
<path fill-rule="nonzero" fill="rgb(100%, 0%, 0%)" fill-opacity="1" stroke-width="0.01" stroke-linecap="butt" stroke-linejoin="miter" stroke="rgb(0%, 0%, 0%)" stroke-opacity="1" stroke-miterlimit="10" d="M 474.394531 101.382812 C 474.394531 102.714844 472.394531 102.714844 472.394531 101.382812 C 472.394531 100.046875 474.394531 100.046875 474.394531 101.382812 "/>
<path fill-rule="nonzero" fill="rgb(100%, 0%, 0%)" fill-opacity="1" stroke-width="0.01" stroke-linecap="butt" stroke-linejoin="miter" stroke="rgb(0%, 0%, 0%)" stroke-opacity="1" stroke-miterlimit="10" d="M 535.414062 377.132812 C 535.414062 378.46875 533.414062 378.46875 533.414062 377.132812 C 533.414062 375.800781 535.414062 375.800781 535.414062 377.132812 "/>
<path fill-rule="nonzero" fill="rgb(100%, 0%, 0%)" fill-opacity="1" stroke-width="0.01" stroke-linecap="butt" stroke-linejoin="miter" stroke="rgb(0%, 0%, 0%)" stroke-opacity="1" stroke-miterlimit="10" d="M 329.730469 60.71875 C 329.730469 62.050781 327.730469 62.050781 327.730469 60.71875 C 327.730469 59.382812 329.730469 59.382812 329.730469 60.71875 "/>
<path fill-rule="nonzero" fill="rgb(100%, 0%, 0%)" fill-opacity="1" stroke-width="0.01" stroke-linecap="butt" stroke-linejoin="miter" stroke="rgb(0%, 0%, 0%)" stroke-opacity="1" stroke-miterlimit="10" d="M 151.914062 429.59375 C 151.914062 430.925781 149.914062 430.925781 149.914062 429.59375 C 149.914062 428.261719 151.914062 428.261719 151.914062 429.59375 "/>
<path fill-rule="nonzero" fill="rgb(100%, 0%, 0%)" fill-opacity="1" stroke-width="0.01" stroke-linecap="butt" stroke-linejoin="miter" stroke="rgb(0%, 0%, 0%)" stroke-opacity="1" stroke-miterlimit="10" d="M 564.789062 268.230469 C 564.789062 269.5625 562.789062 269.5625 562.789062 268.230469 C 562.789062 266.894531 564.789062 266.894531 564.789062 268.230469 "/>
<path fill-rule="nonzero" fill="rgb(100%, 0%, 0%)" fill-opacity="1" stroke-width="0.01" stroke-linecap="butt" stroke-linejoin="miter" stroke="rgb(0%, 0%, 0%)" stroke-opacity="1" stroke-miterlimit="10" d="M 134.167969 292.859375 C 134.167969 294.191406 132.167969 294.191406 132.167969 292.859375 C 132.167969 291.527344 134.167969 291.527344 134.167969 292.859375 "/>
<path fill-rule="nonzero" fill="rgb(100%, 0%, 0%)" fill-opacity="1" stroke-width="0.01" stroke-linecap="butt" stroke-linejoin="miter" stroke="rgb(0%, 0%, 0%)" stroke-opacity="1" stroke-miterlimit="10" d="M 263.039062 514.632812 C 263.039062 515.964844 261.039062 515.964844 261.039062 514.632812 C 261.039062 513.296875 263.039062 513.296875 263.039062 514.632812 "/>
<path fill-rule="nonzero" fill="rgb(100%, 0%, 0%)" fill-opacity="1" stroke-width="0.01" stroke-linecap="butt" stroke-linejoin="miter" stroke="rgb(0%, 0%, 0%)" stroke-opacity="1" stroke-miterlimit="10" d="M 478.792969 117.144531 C 478.792969 118.480469 476.792969 118.480469 476.792969 117.144531 C 476.792969 115.8125 478.792969 115.8125 478.792969 117.144531 "/>
<path fill-rule="nonzero" fill="rgb(100%, 0%, 0%)" fill-opacity="1" stroke-width="0.01" stroke-linecap="butt" stroke-linejoin="miter" stroke="rgb(0%, 0%, 0%)" stroke-opacity="1" stroke-miterlimit="10" d="M 257.203125 574.914062 C 257.203125 576.25 255.203125 576.25 255.203125 574.914062 C 255.203125 573.582031 257.203125 573.582031 257.203125 574.914062 "/>
<path fill-rule="nonzero" fill="rgb(100%, 0%, 0%)" fill-opacity="1" stroke-width="0.01" stroke-linecap="butt" stroke-linejoin="miter" stroke="rgb(0%, 0%, 0%)" stroke-opacity="1" stroke-miterlimit="10" d="M 491.921875 443.796875 C 491.921875 445.128906 489.921875 445.128906 489.921875 443.796875 C 489.921875 442.464844 491.921875 442.464844 491.921875 443.796875 "/>
<path fill-rule="nonzero" fill="rgb(100%, 0%, 0%)" fill-opacity="1" stroke-width="0.01" stroke-linecap="butt" stroke-linejoin="miter" stroke="rgb(0%, 0%, 0%)" stroke-opacity="1" stroke-miterlimit="10" d="M 57.175781 215.382812 C 57.175781 216.714844 55.175781 216.714844 55.175781 215.382812 C 55.175781 214.046875 57.175781 214.046875 57.175781 215.382812 "/>
<path fill-rule="nonzero" fill="rgb(100%, 0%, 0%)" fill-opacity="1" stroke-width="0.01" stroke-linecap="butt" stroke-linejoin="miter" stroke="rgb(0%, 0%, 0%)" stroke-opacity="1" stroke-miterlimit="10" d="M 375.578125 383.417969 C 375.578125 384.75 373.578125 384.75 373.578125 383.417969 C 373.578125 382.085938 375.578125 382.085938 375.578125 383.417969 "/>
<path fill-rule="nonzero" fill="rgb(100%, 0%, 0%)" fill-opacity="1" stroke-width="0.01" stroke-linecap="butt" stroke-linejoin="miter" stroke="rgb(0%, 0%, 0%)" stroke-opacity="1" stroke-miterlimit="10" d="M 261.769531 155.683594 C 261.769531 157.015625 259.769531 157.015625 259.769531 155.683594 C 259.769531 154.347656 261.769531 154.347656 261.769531 155.683594 "/>
<path fill-rule="nonzero" fill="rgb(100%, 0%, 0%)" fill-opacity="1" stroke-width="0.01" stroke-linecap="butt" stroke-linejoin="miter" stroke="rgb(0%, 0%, 0%)" stroke-opacity="1" stroke-miterlimit="10" d="M 447.683594 342.046875 C 447.683594 343.382812 445.683594 343.382812 445.683594 342.046875 C 445.683594 340.714844 447.683594 340.714844 447.683594 342.046875 "/>
<path fill-rule="nonzero" fill="rgb(100%, 0%, 0%)" fill-opacity="1" stroke-width="0.01" stroke-linecap="butt" stroke-linejoin="miter" stroke="rgb(0%, 0%, 0%)" stroke-opacity="1" stroke-miterlimit="10" d="M 476.804688 288.5 C 476.804688 289.835938 474.804688 289.835938 474.804688 288.5 C 474.804688 287.167969 476.804688 287.167969 476.804688 288.5 "/>
<path fill-rule="nonzero" fill="rgb(100%, 0%, 0%)" fill-opacity="1" stroke-width="0.01" stroke-linecap="butt" stroke-linejoin="miter" stroke="rgb(0%, 0%, 0%)" stroke-opacity="1" stroke-miterlimit="10" d="M 505.394531 504.996094 C 505.394531 506.328125 503.394531 506.328125 503.394531 504.996094 C 503.394531 503.660156 505.394531 503.660156 505.394531 504.996094 "/>
<path fill-rule="nonzero" fill="rgb(100%, 0%, 0%)" fill-opacity="1" stroke-width="0.01" stroke-linecap="butt" stroke-linejoin="miter" stroke="rgb(0%, 0%, 0%)" stroke-opacity="1" stroke-miterlimit="10" d="M 367.644531 119.34375 C 367.644531 120.675781 365.644531 120.675781 365.644531 119.34375 C 365.644531 118.011719 367.644531 118.011719 367.644531 119.34375 "/>
<path fill-rule="nonzero" fill="rgb(100%, 0%, 0%)" fill-opacity="1" stroke-width="0.01" stroke-linecap="butt" stroke-linejoin="miter" stroke="rgb(0%, 0%, 0%)" stroke-opacity="1" stroke-miterlimit="10" d="M 226.574219 69.464844 C 226.574219 70.800781 224.574219 70.800781 224.574219 69.464844 C 224.574219 68.132812 226.574219 68.132812 226.574219 69.464844 "/>
<path fill-rule="nonzero" fill="rgb(100%, 0%, 0%)" fill-opacity="1" stroke-width="0.01" stroke-linecap="butt" stroke-linejoin="miter" stroke="rgb(0%, 0%, 0%)" stroke-opacity="1" stroke-miterlimit="10" d="M 351.726562 435.644531 C 351.726562 436.976562 349.726562 436.976562 349.726562 435.644531 C 349.726562 434.308594 351.726562 434.308594 351.726562 435.644531 "/>
<path fill-rule="nonzero" fill="rgb(100%, 0%, 0%)" fill-opacity="1" stroke-width="0.01" stroke-linecap="butt" stroke-linejoin="miter" stroke="rgb(0%, 0%, 0%)" stroke-opacity="1" stroke-miterlimit="10" d="M 274.730469 92.691406 C 274.730469 94.023438 272.730469 94.023438 272.730469 92.691406 C 272.730469 91.355469 274.730469 91.355469 274.730469 92.691406 "/>
<path fill-rule="nonzero" fill="rgb(100%, 0%, 0%)" fill-opacity="1" stroke-width="0.01" stroke-linecap="butt" stroke-linejoin="miter" stroke="rgb(0%, 0%, 0%)" stroke-opacity="1" stroke-miterlimit="10" d="M 378.292969 509.867188 C 378.292969 511.199219 376.292969 511.199219 376.292969 509.867188 C 376.292969 508.535156 378.292969 508.535156 378.292969 509.867188 "/>
<path fill-rule="nonzero" fill="rgb(100%, 0%, 0%)" fill-opacity="1" stroke-width="0.01" stroke-linecap="butt" stroke-linejoin="miter" stroke="rgb(0%, 0%, 0%)" stroke-opacity="1" stroke-miterlimit="10" d="M 450.570312 234.195312 C 450.570312 235.53125 448.570312 235.53125 448.570312 234.195312 C 448.570312 232.863281 450.570312 232.863281 450.570312 234.195312 "/>
<path fill-rule="nonzero" fill="rgb(100%, 0%, 0%)" fill-opacity="1" stroke-width="0.01" stroke-linecap="butt" stroke-linejoin="miter" stroke="rgb(0%, 0%, 0%)" stroke-opacity="1" stroke-miterlimit="10" d="M 212.339844 481.914062 C 212.339844 483.25 210.339844 483.25 210.339844 481.914062 C 210.339844 480.582031 212.339844 480.582031 212.339844 481.914062 "/>
<path fill-rule="nonzero" fill="rgb(100%, 0%, 0%)" fill-opacity="1" stroke-width="0.01" stroke-linecap="butt" stroke-linejoin="miter" stroke="rgb(0%, 0%, 0%)" stroke-opacity="1" stroke-miterlimit="10" d="M 476.257812 390.207031 C 476.257812 391.539062 474.257812 391.539062 474.257812 390.207031 C 474.257812 388.871094 476.257812 388.871094 476.257812 390.207031 "/>
<path fill-rule="nonzero" fill="rgb(100%, 0%, 0%)" fill-opacity="1" stroke-width="0.01" stroke-linecap="butt" stroke-linejoin="miter" stroke="rgb(0%, 0%, 0%)" stroke-opacity="1" stroke-miterlimit="10" d="M 115.839844 517.671875 C 115.839844 519.003906 113.839844 519.003906 113.839844 517.671875 C 113.839844 516.339844 115.839844 516.339844 115.839844 517.671875 "/>
<path fill-rule="nonzero" fill="rgb(100%, 0%, 0%)" fill-opacity="1" stroke-width="0.01" stroke-linecap="butt" stroke-linejoin="miter" stroke="rgb(0%, 0%, 0%)" stroke-opacity="1" stroke-miterlimit="10" d="M 316.007812 127.363281 C 316.007812 128.695312 314.007812 128.695312 314.007812 127.363281 C 314.007812 126.03125 316.007812 126.03125 316.007812 127.363281 "/>
<path fill-rule="nonzero" fill="rgb(100%, 0%, 0%)" fill-opacity="1" stroke-width="0.01" stroke-linecap="butt" stroke-linejoin="miter" stroke="rgb(0%, 0%, 0%)" stroke-opacity="1" stroke-miterlimit="10" d="M 511.410156 242.285156 C 511.410156 243.621094 509.410156 243.621094 509.410156 242.285156 C 509.410156 240.953125 511.410156 240.953125 511.410156 242.285156 "/>
<path fill-rule="nonzero" fill="rgb(100%, 0%, 0%)" fill-opacity="1" stroke-width="0.01" stroke-linecap="butt" stroke-linejoin="miter" stroke="rgb(0%, 0%, 0%)" stroke-opacity="1" stroke-miterlimit="10" d="M 558.609375 197.105469 C 558.609375 198.4375 556.609375 198.4375 556.609375 197.105469 C 556.609375 195.773438 558.609375 195.773438 558.609375 197.105469 "/>
<path fill-rule="nonzero" fill="rgb(100%, 0%, 0%)" fill-opacity="1" stroke-width="0.01" stroke-linecap="butt" stroke-linejoin="miter" stroke="rgb(0%, 0%, 0%)" stroke-opacity="1" stroke-miterlimit="10" d="M 338.691406 330.234375 C 338.691406 331.570312 336.691406 331.570312 336.691406 330.234375 C 336.691406 328.902344 338.691406 328.902344 338.691406 330.234375 "/>
<path fill-rule="nonzero" fill="rgb(100%, 0%, 0%)" fill-opacity="1" stroke-width="0.01" stroke-linecap="butt" stroke-linejoin="miter" stroke="rgb(0%, 0%, 0%)" stroke-opacity="1" stroke-miterlimit="10" d="M 400.488281 453.070312 C 400.488281 454.402344 398.488281 454.402344 398.488281 453.070312 C 398.488281 451.738281 400.488281 451.738281 400.488281 453.070312 "/>
<path fill-rule="nonzero" fill="rgb(100%, 0%, 0%)" fill-opacity="1" stroke-width="0.01" stroke-linecap="butt" stroke-linejoin="miter" stroke="rgb(0%, 0%, 0%)" stroke-opacity="1" stroke-miterlimit="10" d="M 333.472656 236.113281 C 333.472656 237.445312 331.472656 237.445312 331.472656 236.113281 C 331.472656 234.777344 333.472656 234.777344 333.472656 236.113281 "/>
<path fill-rule="nonzero" fill="rgb(100%, 0%, 0%)" fill-opacity="1" stroke-width="0.01" stroke-linecap="butt" stroke-linejoin="miter" stroke="rgb(0%, 0%, 0%)" stroke-opacity="1" stroke-miterlimit="10" d="M 407.636719 70.113281 C 407.636719 71.445312 405.636719 71.445312 405.636719 70.113281 C 405.636719 68.777344 407.636719 68.777344 407.636719 70.113281 "/>
<path fill-rule="nonzero" fill="rgb(100%, 0%, 0%)" fill-opacity="1" stroke-width="0.01" stroke-linecap="butt" stroke-linejoin="miter" stroke="rgb(0%, 0%, 0%)" stroke-opacity="1" stroke-miterlimit="10" d="M 431.855469 548.453125 C 431.855469 549.785156 429.855469 549.785156 429.855469 548.453125 C 429.855469 547.117188 431.855469 547.117188 431.855469 548.453125 "/>
<path fill-rule="nonzero" fill="rgb(100%, 0%, 0%)" fill-opacity="1" stroke-width="0.01" stroke-linecap="butt" stroke-linejoin="miter" stroke="rgb(0%, 0%, 0%)" stroke-opacity="1" stroke-miterlimit="10" d="M 316.929688 478.296875 C 316.929688 479.628906 314.929688 479.628906 314.929688 478.296875 C 314.929688 476.964844 316.929688 476.964844 316.929688 478.296875 "/>
<path fill-rule="nonzero" fill="rgb(100%, 0%, 0%)" fill-opacity="1" stroke-width="0.01" stroke-linecap="butt" stroke-linejoin="miter" stroke="rgb(0%, 0%, 0%)" stroke-opacity="1" stroke-miterlimit="10" d="M 21 266.980469 C 21 268.3125 19 268.3125 19 266.980469 C 19 265.644531 21 265.644531 21 266.980469 "/>
<path fill-rule="nonzero" fill="rgb(100%, 0%, 0%)" fill-opacity="1" stroke-width="0.01" stroke-linecap="butt" stroke-linejoin="miter" stroke="rgb(0%, 0%, 0%)" stroke-opacity="1" stroke-miterlimit="10" d="M 220.796875 208.261719 C 220.796875 209.59375 218.796875 209.59375 218.796875 208.261719 C 218.796875 206.929688 220.796875 206.929688 220.796875 208.261719 "/>
<path fill-rule="nonzero" fill="rgb(100%, 0%, 0%)" fill-opacity="1" stroke-width="0.01" stroke-linecap="butt" stroke-linejoin="miter" stroke="rgb(0%, 0%, 0%)" stroke-opacity="1" stroke-miterlimit="10" d="M 278.1875 20 C 278.1875 21.332031 276.1875 21.332031 276.1875 20 C 276.1875 18.667969 278.1875 18.667969 278.1875 20 "/>
<path fill-rule="nonzero" fill="rgb(100%, 0%, 0%)" fill-opacity="1" stroke-width="0.01" stroke-linecap="butt" stroke-linejoin="miter" stroke="rgb(0%, 0%, 0%)" stroke-opacity="1" stroke-miterlimit="10" d="M 258.433594 384.566406 C 258.433594 385.898438 256.433594 385.898438 256.433594 384.566406 C 256.433594 383.230469 258.433594 383.230469 258.433594 384.566406 "/>
<path fill-rule="nonzero" fill="rgb(100%, 0%, 0%)" fill-opacity="1" stroke-width="0.01" stroke-linecap="butt" stroke-linejoin="miter" stroke="rgb(0%, 0%, 0%)" stroke-opacity="1" stroke-miterlimit="10" d="M 199.328125 260.871094 C 199.328125 262.203125 197.328125 262.203125 197.328125 260.871094 C 197.328125 259.539062 199.328125 259.539062 199.328125 260.871094 "/>
<path fill-rule="nonzero" fill="rgb(100%, 0%, 0%)" fill-opacity="1" stroke-width="0.01" stroke-linecap="butt" stroke-linejoin="miter" stroke="rgb(0%, 0%, 0%)" stroke-opacity="1" stroke-miterlimit="10" d="M 160.777344 484.75 C 160.777344 486.082031 158.777344 486.082031 158.777344 484.75 C 158.777344 483.417969 160.777344 483.417969 160.777344 484.75 "/>
<path fill-rule="nonzero" fill="rgb(100%, 0%, 0%)" fill-opacity="1" stroke-width="0.01" stroke-linecap="butt" stroke-linejoin="miter" stroke="rgb(0%, 0%, 0%)" stroke-opacity="1" stroke-miterlimit="10" d="M 181.824219 34.566406 C 181.824219 35.898438 179.824219 35.898438 179.824219 34.566406 C 179.824219 33.234375 181.824219 33.234375 181.824219 34.566406 "/>
<path fill-rule="nonzero" fill="rgb(100%, 0%, 0%)" fill-opacity="1" stroke-width="0.01" stroke-linecap="butt" stroke-linejoin="miter" stroke="rgb(0%, 0%, 0%)" stroke-opacity="1" stroke-miterlimit="10" d="M 362.058594 178.191406 C 362.058594 179.523438 360.058594 179.523438 360.058594 178.191406 C 360.058594 176.859375 362.058594 176.859375 362.058594 178.191406 "/>
<path fill-rule="nonzero" fill="rgb(100%, 0%, 0%)" fill-opacity="1" stroke-width="0.01" stroke-linecap="butt" stroke-linejoin="miter" stroke="rgb(0%, 0%, 0%)" stroke-opacity="1" stroke-miterlimit="10" d="M 542.246094 116.167969 C 542.246094 117.5 540.246094 117.5 540.246094 116.167969 C 540.246094 114.832031 542.246094 114.832031 542.246094 116.167969 "/>
<path fill-rule="nonzero" fill="rgb(100%, 0%, 0%)" fill-opacity="1" stroke-width="0.01" stroke-linecap="butt" stroke-linejoin="miter" stroke="rgb(0%, 0%, 0%)" stroke-opacity="1" stroke-miterlimit="10" d="M 320.925781 379.070312 C 320.925781 380.402344 318.925781 380.402344 318.925781 379.070312 C 318.925781 377.738281 320.925781 377.738281 320.925781 379.070312 "/>
<path fill-rule="nonzero" fill="rgb(100%, 0%, 0%)" fill-opacity="1" stroke-width="0.01" stroke-linecap="butt" stroke-linejoin="miter" stroke="rgb(0%, 0%, 0%)" stroke-opacity="1" stroke-miterlimit="10" d="M 191.085938 550.167969 C 191.085938 551.503906 189.085938 551.503906 189.085938 550.167969 C 189.085938 548.835938 191.085938 548.835938 191.085938 550.167969 "/>
<path fill-rule="nonzero" fill="rgb(100%, 0%, 0%)" fill-opacity="1" stroke-width="0.01" stroke-linecap="butt" stroke-linejoin="miter" stroke="rgb(0%, 0%, 0%)" stroke-opacity="1" stroke-miterlimit="10" d="M 35.53125 333.199219 C 35.53125 334.53125 33.53125 334.53125 33.53125 333.199219 C 33.53125 331.867188 35.53125 331.867188 35.53125 333.199219 "/>
<path fill-rule="nonzero" fill="rgb(100%, 0%, 0%)" fill-opacity="1" stroke-width="0.01" stroke-linecap="butt" stroke-linejoin="miter" stroke="rgb(0%, 0%, 0%)" stroke-opacity="1" stroke-miterlimit="10" d="M 421.734375 185.859375 C 421.734375 187.191406 419.734375 187.191406 419.734375 185.859375 C 419.734375 184.527344 421.734375 184.527344 421.734375 185.859375 "/>
<path fill-rule="nonzero" fill="rgb(100%, 0%, 0%)" fill-opacity="1" stroke-width="0.01" stroke-linecap="butt" stroke-linejoin="miter" stroke="rgb(0%, 0%, 0%)" stroke-opacity="1" stroke-miterlimit="10" d="M 560.089844 429.460938 C 560.089844 430.796875 558.089844 430.796875 558.089844 429.460938 C 558.089844 428.128906 560.089844 428.128906 560.089844 429.460938 "/>
<path fill-rule="nonzero" fill="rgb(100%, 0%, 0%)" fill-opacity="1" stroke-width="0.01" stroke-linecap="butt" stroke-linejoin="miter" stroke="rgb(0%, 0%, 0%)" stroke-opacity="1" stroke-miterlimit="10" d="M 420.0625 133.925781 C 420.0625 135.257812 418.0625 135.257812 418.0625 133.925781 C 418.0625 132.59375 420.0625 132.59375 420.0625 133.925781 "/>
<path fill-rule="nonzero" fill="rgb(100%, 0%, 0%)" fill-opacity="1" stroke-width="0.01" stroke-linecap="butt" stroke-linejoin="miter" stroke="rgb(0%, 0%, 0%)" stroke-opacity="1" stroke-miterlimit="10" d="M 581 328.738281 C 581 330.070312 579 330.070312 579 328.738281 C 579 327.402344 581 327.402344 581 328.738281 "/>
<path fill-rule="nonzero" fill="rgb(100%, 0%, 0%)" fill-opacity="1" stroke-width="0.01" stroke-linecap="butt" stroke-linejoin="miter" stroke="rgb(0%, 0%, 0%)" stroke-opacity="1" stroke-miterlimit="10" d="M 488.664062 185.660156 C 488.664062 186.992188 486.664062 186.992188 486.664062 185.660156 C 486.664062 184.324219 488.664062 184.324219 488.664062 185.660156 "/>
<path fill-rule="nonzero" fill="rgb(100%, 0%, 0%)" fill-opacity="1" stroke-width="0.01" stroke-linecap="butt" stroke-linejoin="miter" stroke="rgb(0%, 0%, 0%)" stroke-opacity="1" stroke-miterlimit="10" d="M 99.332031 338.96875 C 99.332031 340.304688 97.332031 340.304688 97.332031 338.96875 C 97.332031 337.636719 99.332031 337.636719 99.332031 338.96875 "/>
<path fill-rule="nonzero" fill="rgb(100%, 0%, 0%)" fill-opacity="1" stroke-width="0.01" stroke-linecap="butt" stroke-linejoin="miter" stroke="rgb(0%, 0%, 0%)" stroke-opacity="1" stroke-miterlimit="10" d="M 308.453125 283.566406 C 308.453125 284.902344 306.453125 284.902344 306.453125 283.566406 C 306.453125 282.234375 308.453125 282.234375 308.453125 283.566406 "/>
<path fill-rule="nonzero" fill="rgb(100%, 0%, 0%)" fill-opacity="1" stroke-width="0.01" stroke-linecap="butt" stroke-linejoin="miter" stroke="rgb(0%, 0%, 0%)" stroke-opacity="1" stroke-miterlimit="10" d="M 319.859375 535.53125 C 319.859375 536.863281 317.859375 536.863281 317.859375 535.53125 C 317.859375 534.199219 319.859375 534.199219 319.859375 535.53125 "/>
<path fill-rule="nonzero" fill="rgb(100%, 0%, 0%)" fill-opacity="1" stroke-width="0.01" stroke-linecap="butt" stroke-linejoin="miter" stroke="rgb(0%, 0%, 0%)" stroke-opacity="1" stroke-miterlimit="10" d="M 105.078125 397.386719 C 105.078125 398.722656 103.078125 398.722656 103.078125 397.386719 C 103.078125 396.054688 105.078125 396.054688 105.078125 397.386719 "/>
<path fill-rule="nonzero" fill="rgb(100%, 0%, 0%)" fill-opacity="1" stroke-width="0.01" stroke-linecap="butt" stroke-linejoin="miter" stroke="rgb(0%, 0%, 0%)" stroke-opacity="1" stroke-miterlimit="10" d="M 62.722656 154.175781 C 62.722656 155.507812 60.722656 155.507812 60.722656 154.175781 C 60.722656 152.84375 62.722656 152.84375 62.722656 154.175781 "/>
<path fill-rule="nonzero" fill="rgb(100%, 0%, 0%)" fill-opacity="1" stroke-width="0.01" stroke-linecap="butt" stroke-linejoin="miter" stroke="rgb(0%, 0%, 0%)" stroke-opacity="1" stroke-miterlimit="10" d="M 356.628906 580 C 356.628906 581.332031 354.628906 581.332031 354.628906 580 C 354.628906 578.667969 356.628906 578.667969 356.628906 580 "/>
<path fill-rule="nonzero" fill="rgb(100%, 0%, 0%)" fill-opacity="1" stroke-width="0.01" stroke-linecap="butt" stroke-linejoin="miter" stroke="rgb(0%, 0%, 0%)" stroke-opacity="1" stroke-miterlimit="10" d="M 83.445312 273.605469 C 83.445312 274.9375 81.445312 274.9375 81.445312 273.605469 C 81.445312 272.273438 83.445312 272.273438 83.445312 273.605469 "/>
<path fill-rule="nonzero" fill="rgb(100%, 0%, 0%)" fill-opacity="1" stroke-width="0.01" stroke-linecap="butt" stroke-linejoin="miter" stroke="rgb(0%, 0%, 0%)" stroke-opacity="1" stroke-miterlimit="10" d="M 366.429688 282.007812 C 366.429688 283.34375 364.429688 283.34375 364.429688 282.007812 C 364.429688 280.675781 366.429688 280.675781 366.429688 282.007812 "/>
<path fill-rule="nonzero" fill="rgb(100%, 0%, 0%)" fill-opacity="1" stroke-width="0.01" stroke-linecap="butt" stroke-linejoin="miter" stroke="rgb(0%, 0%, 0%)" stroke-opacity="1" stroke-miterlimit="10" d="M 146.375 239.949219 C 146.375 241.285156 144.375 241.285156 144.375 239.949219 C 144.375 238.617188 146.375 238.617188 146.375 239.949219 "/>
<path fill-rule="nonzero" fill="rgb(100%, 0%, 0%)" fill-opacity="1" stroke-width="0.01" stroke-linecap="butt" stroke-linejoin="miter" stroke="rgb(0%, 0%, 0%)" stroke-opacity="1" stroke-miterlimit="10" d="M 153.664062 90.609375 C 153.664062 91.941406 151.664062 91.941406 151.664062 90.609375 C 151.664062 89.273438 153.664062 89.273438 153.664062 90.609375 "/>
<path fill-rule="nonzero" fill="rgb(100%, 0%, 0%)" fill-opacity="1" stroke-width="0.01" stroke-linecap="butt" stroke-linejoin="miter" stroke="rgb(0%, 0%, 0%)" stroke-opacity="1" stroke-miterlimit="10" d="M 206.390625 413.910156 C 206.390625 415.242188 204.390625 415.242188 204.390625 413.910156 C 204.390625 412.574219 206.390625 412.574219 206.390625 413.910156 "/>
<path fill-rule="nonzero" fill="rgb(100%, 0%, 0%)" fill-opacity="1" stroke-width="0.01" stroke-linecap="butt" stroke-linejoin="miter" stroke="rgb(0%, 0%, 0%)" stroke-opacity="1" stroke-miterlimit="10" d="M 444.355469 483.777344 C 444.355469 485.109375 442.355469 485.109375 442.355469 483.777344 C 442.355469 482.445312 444.355469 482.445312 444.355469 483.777344 "/>
<path fill-rule="nonzero" fill="rgb(100%, 0%, 0%)" fill-opacity="1" stroke-width="0.01" stroke-linecap="butt" stroke-linejoin="miter" stroke="rgb(0%, 0%, 0%)" stroke-opacity="1" stroke-miterlimit="10" d="M 157.359375 368.191406 C 157.359375 369.527344 155.359375 369.527344 155.359375 368.191406 C 155.359375 366.859375 157.359375 366.859375 157.359375 368.191406 "/>
<path fill-rule="nonzero" fill="rgb(100%, 0%, 0%)" fill-opacity="1" stroke-width="0.01" stroke-linecap="butt" stroke-linejoin="miter" stroke="rgb(0%, 0%, 0%)" stroke-opacity="1" stroke-miterlimit="10" d="M 179.152344 315.789062 C 179.152344 317.121094 177.152344 317.121094 177.152344 315.789062 C 177.152344 314.457031 179.152344 314.457031 179.152344 315.789062 "/>
<path fill-rule="nonzero" fill="rgb(100%, 0%, 0%)" fill-opacity="1" stroke-width="0.01" stroke-linecap="butt" stroke-linejoin="miter" stroke="rgb(0%, 0%, 0%)" stroke-opacity="1" stroke-miterlimit="10" d="M 153.289062 144.558594 C 153.289062 145.894531 151.289062 145.894531 151.289062 144.558594 C 151.289062 143.226562 153.289062 143.226562 153.289062 144.558594 "/>
<path fill-rule="nonzero" fill="rgb(100%, 0%, 0%)" fill-opacity="1" stroke-width="0.01" stroke-linecap="butt" stroke-linejoin="miter" stroke="rgb(0%, 0%, 0%)" stroke-opacity="1" stroke-miterlimit="10" d="M 113.929688 193.664062 C 113.929688 194.996094 111.929688 194.996094 111.929688 193.664062 C 111.929688 192.328125 113.929688 192.328125 113.929688 193.664062 "/>
<path fill-rule="nonzero" fill="rgb(100%, 0%, 0%)" fill-opacity="1" stroke-width="0.01" stroke-linecap="butt" stroke-linejoin="miter" stroke="rgb(0%, 0%, 0%)" stroke-opacity="1" stroke-miterlimit="10" d="M 295.308594 423.886719 C 295.308594 425.222656 293.308594 425.222656 293.308594 423.886719 C 293.308594 422.554688 295.308594 422.554688 295.308594 423.886719 "/>
<path fill-rule="nonzero" fill="rgb(100%, 0%, 0%)" fill-opacity="1" stroke-width="0.01" stroke-linecap="butt" stroke-linejoin="miter" stroke="rgb(0%, 0%, 0%)" stroke-opacity="1" stroke-miterlimit="10" d="M 310.953125 186.734375 C 310.953125 188.066406 308.953125 188.066406 308.953125 186.734375 C 308.953125 185.398438 310.953125 185.398438 310.953125 186.734375 "/>
<path fill-rule="nonzero" fill="rgb(100%, 0%, 0%)" fill-opacity="1" stroke-width="0.01" stroke-linecap="butt" stroke-linejoin="miter" stroke="rgb(0%, 0%, 0%)" stroke-opacity="1" stroke-miterlimit="10" d="M 93.25 95.894531 C 93.25 97.226562 91.25 97.226562 91.25 95.894531 C 91.25 94.558594 93.25 94.558594 93.25 95.894531 "/>
<path fill-rule="nonzero" fill="rgb(100%, 0%, 0%)" fill-opacity="1" stroke-width="0.01" stroke-linecap="butt" stroke-linejoin="miter" stroke="rgb(0%, 0%, 0%)" stroke-opacity="1" stroke-miterlimit="10" d="M 389.902344 230.3125 C 389.902344 231.644531 387.902344 231.644531 387.902344 230.3125 C 387.902344 228.980469 389.902344 228.980469 389.902344 230.3125 "/>
<path fill-rule="nonzero" fill="rgb(100%, 0%, 0%)" fill-opacity="1" stroke-width="0.01" stroke-linecap="butt" stroke-linejoin="miter" stroke="rgb(0%, 0%, 0%)" stroke-opacity="1" stroke-miterlimit="10" d="M 261.683594 262.722656 C 261.683594 264.054688 259.683594 264.054688 259.683594 262.722656 C 259.683594 261.390625 261.683594 261.390625 261.683594 262.722656 "/>
<path fill-rule="nonzero" fill="rgb(100%, 0%, 0%)" fill-opacity="1" stroke-width="0.01" stroke-linecap="butt" stroke-linejoin="miter" stroke="rgb(0%, 0%, 0%)" stroke-opacity="1" stroke-miterlimit="10" d="M 214.425781 131.804688 C 214.425781 133.140625 212.425781 133.140625 212.425781 131.804688 C 212.425781 130.472656 214.425781 130.472656 214.425781 131.804688 "/>
</svg>
