<?xml version="1.0" encoding="UTF-8"?>
<svg xmlns="http://www.w3.org/2000/svg" xmlns:xlink="http://www.w3.org/1999/xlink" width="600" height="600" viewBox="0 0 600 600">
<rect x="-60" y="-60" width="720" height="720" fill="rgb(100%, 100%, 100%)" fill-opacity="1"/>
<path fill="none" stroke-width="0.2" stroke-linecap="butt" stroke-linejoin="miter" stroke="rgb(26.666667%, 26.666667%, 26.666667%)" stroke-opacity="1" stroke-miterlimit="10" d="M 137.820312 393.710938 L 153.308594 434.417969 "/>
<path fill-rule="nonzero" fill="rgb(26.666667%, 26.666667%, 26.666667%)" fill-opacity="1" d="M 153.359375 434.550781 L 153.265625 434.433594 L 153.351562 434.398438 L 153.359375 434.550781 "/>
<path fill="none" stroke-width="0.2" stroke-linecap="butt" stroke-linejoin="miter" stroke="rgb(26.666667%, 26.666667%, 26.666667%)" stroke-opacity="1" stroke-miterlimit="10" d="M 71.472656 248.21875 L 46.316406 248.355469 "/>
<path fill-rule="nonzero" fill="rgb(26.666667%, 26.666667%, 26.666667%)" fill-opacity="1" d="M 46.175781 248.355469 L 46.316406 248.308594 L 46.320312 248.402344 L 46.175781 248.355469 "/>
<path fill="none" stroke-width="0.2" stroke-linecap="butt" stroke-linejoin="miter" stroke="rgb(26.666667%, 26.666667%, 26.666667%)" stroke-opacity="1" stroke-miterlimit="10" d="M 390.140625 368.027344 L 401.796875 343.617188 "/>
<path fill-rule="nonzero" fill="rgb(26.666667%, 26.666667%, 26.666667%)" fill-opacity="1" d="M 401.859375 343.492188 L 401.839844 343.640625 L 401.757812 343.597656 L 401.859375 343.492188 "/>
<path fill="none" stroke-width="0.2" stroke-linecap="butt" stroke-linejoin="miter" stroke="rgb(26.666667%, 26.666667%, 26.666667%)" stroke-opacity="1" stroke-miterlimit="10" d="M 571.226562 278.503906 L 579.648438 304.46875 "/>
<path fill-rule="nonzero" fill="rgb(26.666667%, 26.666667%, 26.666667%)" fill-opacity="1" d="M 579.691406 304.605469 L 579.601562 304.484375 L 579.691406 304.457031 L 579.691406 304.605469 "/>
<path fill="none" stroke-width="0.2" stroke-linecap="butt" stroke-linejoin="miter" stroke="rgb(26.666667%, 26.666667%, 26.666667%)" stroke-opacity="1" stroke-miterlimit="10" d="M 234.355469 185.390625 L 211.140625 196.214844 "/>
<path fill-rule="nonzero" fill="rgb(26.666667%, 26.666667%, 26.666667%)" fill-opacity="1" d="M 211.011719 196.277344 L 211.121094 196.175781 L 211.160156 196.257812 L 211.011719 196.277344 "/>
<path fill="none" stroke-width="0.2" stroke-linecap="butt" stroke-linejoin="miter" stroke="rgb(26.666667%, 26.666667%, 26.666667%)" stroke-opacity="1" stroke-miterlimit="10" d="M 349.097656 87.832031 L 332.097656 67.5625 "/>
<path fill-rule="nonzero" fill="rgb(26.666667%, 26.666667%, 26.666667%)" fill-opacity="1" d="M 332.007812 67.453125 L 332.132812 67.53125 L 332.0625 67.589844 L 332.007812 67.453125 "/>
<path fill="none" stroke-width="0.2" stroke-linecap="butt" stroke-linejoin="miter" stroke="rgb(26.666667%, 26.666667%, 26.666667%)" stroke-opacity="1" stroke-miterlimit="10" d="M 127.035156 422.945312 L 163.574219 406.503906 "/>
<path fill-rule="nonzero" fill="rgb(26.666667%, 26.666667%, 26.666667%)" fill-opacity="1" d="M 163.707031 406.445312 L 163.59375 406.546875 L 163.558594 406.460938 L 163.707031 406.445312 "/>
<path fill="none" stroke-width="0.2" stroke-linecap="butt" stroke-linejoin="miter" stroke="rgb(26.666667%, 26.666667%, 26.666667%)" stroke-opacity="1" stroke-miterlimit="10" d="M 502.859375 420.628906 L 497.183594 447.40625 "/>
<path fill-rule="nonzero" fill="rgb(26.666667%, 26.666667%, 26.666667%)" fill-opacity="1" d="M 497.152344 447.546875 L 497.136719 447.398438 L 497.226562 447.417969 L 497.152344 447.546875 "/>
<path fill="none" stroke-width="0.2" stroke-linecap="butt" stroke-linejoin="miter" stroke="rgb(26.666667%, 26.666667%, 26.666667%)" stroke-opacity="1" stroke-miterlimit="10" d="M 36.765625 517.585938 L 20.6875 496.164062 "/>
<path fill-rule="nonzero" fill="rgb(26.666667%, 26.666667%, 26.666667%)" fill-opacity="1" d="M 20.601562 496.050781 L 20.722656 496.136719 L 20.648438 496.191406 L 20.601562 496.050781 "/>
<path fill="none" stroke-width="0.2" stroke-linecap="butt" stroke-linejoin="miter" stroke="rgb(26.666667%, 26.666667%, 26.666667%)" stroke-opacity="1" stroke-miterlimit="10" d="M 290.425781 310.546875 L 265.714844 306.304688 "/>
<path fill-rule="nonzero" fill="rgb(26.666667%, 26.666667%, 26.666667%)" fill-opacity="1" d="M 265.574219 306.28125 L 265.722656 306.257812 L 265.707031 306.347656 L 265.574219 306.28125 "/>
<path fill="none" stroke-width="0.2" stroke-linecap="butt" stroke-linejoin="miter" stroke="rgb(26.666667%, 26.666667%, 26.666667%)" stroke-opacity="1" stroke-miterlimit="10" d="M 169.785156 55.660156 L 133.039062 38.960938 "/>
<path fill-rule="nonzero" fill="rgb(26.666667%, 26.666667%, 26.666667%)" fill-opacity="1" d="M 132.910156 38.902344 L 133.058594 38.917969 L 133.019531 39.003906 L 132.910156 38.902344 "/>
<path fill="none" stroke-width="0.2" stroke-linecap="butt" stroke-linejoin="miter" stroke="rgb(26.666667%, 26.666667%, 26.666667%)" stroke-opacity="1" stroke-miterlimit="10" d="M 269.695312 514.40625 L 283.339844 491.136719 "/>
<path fill-rule="nonzero" fill="rgb(26.666667%, 26.666667%, 26.666667%)" fill-opacity="1" d="M 283.410156 491.011719 L 283.378906 491.160156 L 283.296875 491.113281 L 283.410156 491.011719 "/>
<path fill="none" stroke-width="0.2" stroke-linecap="butt" stroke-linejoin="miter" stroke="rgb(26.666667%, 26.666667%, 26.666667%)" stroke-opacity="1" stroke-miterlimit="10" d="M 456.960938 20 L 473.636719 40.753906 "/>
<path fill-rule="nonzero" fill="rgb(26.666667%, 26.666667%, 26.666667%)" fill-opacity="1" d="M 473.726562 40.867188 L 473.601562 40.785156 L 473.675781 40.726562 L 473.726562 40.867188 "/>
<path fill="none" stroke-width="0.2" stroke-linecap="butt" stroke-linejoin="miter" stroke="rgb(26.666667%, 26.666667%, 26.666667%)" stroke-opacity="1" stroke-miterlimit="10" d="M 412.453125 206.4375 L 437.480469 203.339844 "/>
<path fill-rule="nonzero" fill="rgb(26.666667%, 26.666667%, 26.666667%)" fill-opacity="1" d="M 437.625 203.320312 L 437.488281 203.386719 L 437.476562 203.292969 L 437.625 203.320312 "/>
<path fill="none" stroke-width="0.2" stroke-linecap="butt" stroke-linejoin="miter" stroke="rgb(26.666667%, 26.666667%, 26.666667%)" stroke-opacity="1" stroke-miterlimit="10" d="M 396.648438 563.332031 L 376.105469 579.300781 "/>
<path fill-rule="nonzero" fill="rgb(26.666667%, 26.666667%, 26.666667%)" fill-opacity="1" d="M 375.992188 579.386719 L 376.074219 579.261719 L 376.132812 579.335938 L 375.992188 579.386719 "/>
<path fill="none" stroke-width="0.2" stroke-linecap="butt" stroke-linejoin="miter" stroke="rgb(26.666667%, 26.666667%, 26.666667%)" stroke-opacity="1" stroke-miterlimit="10" d="M 142.746094 67.785156 L 158.566406 27.421875 "/>
<path fill-rule="nonzero" fill="rgb(26.666667%, 26.666667%, 26.666667%)" fill-opacity="1" d="M 158.621094 27.289062 L 158.609375 27.4375 L 158.523438 27.402344 L 158.621094 27.289062 "/>
<path fill-rule="nonzero" fill="rgb(100%, 0%, 0%)" fill-opacity="1" stroke-width="0.01" stroke-linecap="butt" stroke-linejoin="miter" stroke="rgb(0%, 0%, 0%)" stroke-opacity="1" stroke-miterlimit="10" d="M 138.820312 393.710938 C 138.820312 395.042969 136.820312 395.042969 136.820312 393.710938 C 136.820312 392.378906 138.820312 392.378906 138.820312 393.710938 "/>
<path fill-rule="nonzero" fill="rgb(100%, 0%, 0%)" fill-opacity="1" stroke-width="0.01" stroke-linecap="butt" stroke-linejoin="miter" stroke="rgb(0%, 0%, 0%)" stroke-opacity="1" stroke-miterlimit="10" d="M 154.714844 435.484375 C 154.714844 436.816406 152.714844 436.816406 152.714844 435.484375 C 152.714844 434.152344 154.714844 434.152344 154.714844 435.484375 "/>
<path fill-rule="nonzero" fill="rgb(100%, 0%, 0%)" fill-opacity="1" stroke-width="0.01" stroke-linecap="butt" stroke-linejoin="miter" stroke="rgb(0%, 0%, 0%)" stroke-opacity="1" stroke-miterlimit="10" d="M 72.472656 248.21875 C 72.472656 249.550781 70.472656 249.550781 70.472656 248.21875 C 70.472656 246.882812 72.472656 246.882812 72.472656 248.21875 "/>
<path fill-rule="nonzero" fill="rgb(100%, 0%, 0%)" fill-opacity="1" stroke-width="0.01" stroke-linecap="butt" stroke-linejoin="miter" stroke="rgb(0%, 0%, 0%)" stroke-opacity="1" stroke-miterlimit="10" d="M 46.175781 248.363281 C 46.175781 249.695312 44.175781 249.695312 44.175781 248.363281 C 44.175781 247.027344 46.175781 247.027344 46.175781 248.363281 "/>
<path fill-rule="nonzero" fill="rgb(100%, 0%, 0%)" fill-opacity="1" stroke-width="0.01" stroke-linecap="butt" stroke-linejoin="miter" stroke="rgb(0%, 0%, 0%)" stroke-opacity="1" stroke-miterlimit="10" d="M 391.140625 368.027344 C 391.140625 369.363281 389.140625 369.363281 389.140625 368.027344 C 389.140625 366.695312 391.140625 366.695312 391.140625 368.027344 "/>
<path fill-rule="nonzero" fill="rgb(100%, 0%, 0%)" fill-opacity="1" stroke-width="0.01" stroke-linecap="butt" stroke-linejoin="miter" stroke="rgb(0%, 0%, 0%)" stroke-opacity="1" stroke-miterlimit="10" d="M 403.289062 342.589844 C 403.289062 343.921875 401.289062 343.921875 401.289062 342.589844 C 401.289062 341.253906 403.289062 341.253906 403.289062 342.589844 "/>
<path fill-rule="nonzero" fill="rgb(100%, 0%, 0%)" fill-opacity="1" stroke-width="0.01" stroke-linecap="butt" stroke-linejoin="miter" stroke="rgb(0%, 0%, 0%)" stroke-opacity="1" stroke-miterlimit="10" d="M 572.226562 278.503906 C 572.226562 279.839844 570.226562 279.839844 570.226562 278.503906 C 570.226562 277.171875 572.226562 277.171875 572.226562 278.503906 "/>
<path fill-rule="nonzero" fill="rgb(100%, 0%, 0%)" fill-opacity="1" stroke-width="0.01" stroke-linecap="butt" stroke-linejoin="miter" stroke="rgb(0%, 0%, 0%)" stroke-opacity="1" stroke-miterlimit="10" d="M 581 305.558594 C 581 306.890625 579 306.890625 579 305.558594 C 579 304.222656 581 304.222656 581 305.558594 "/>
<path fill-rule="nonzero" fill="rgb(100%, 0%, 0%)" fill-opacity="1" stroke-width="0.01" stroke-linecap="butt" stroke-linejoin="miter" stroke="rgb(0%, 0%, 0%)" stroke-opacity="1" stroke-miterlimit="10" d="M 235.355469 185.390625 C 235.355469 186.722656 233.355469 186.722656 233.355469 185.390625 C 233.355469 184.058594 235.355469 184.058594 235.355469 185.390625 "/>
<path fill-rule="nonzero" fill="rgb(100%, 0%, 0%)" fill-opacity="1" stroke-width="0.01" stroke-linecap="butt" stroke-linejoin="miter" stroke="rgb(0%, 0%, 0%)" stroke-opacity="1" stroke-miterlimit="10" d="M 211.105469 196.699219 C 211.105469 198.03125 209.105469 198.03125 209.105469 196.699219 C 209.105469 195.367188 211.105469 195.367188 211.105469 196.699219 "/>
<path fill-rule="nonzero" fill="rgb(100%, 0%, 0%)" fill-opacity="1" stroke-width="0.01" stroke-linecap="butt" stroke-linejoin="miter" stroke="rgb(0%, 0%, 0%)" stroke-opacity="1" stroke-miterlimit="10" d="M 350.097656 87.832031 C 350.097656 89.167969 348.097656 89.167969 348.097656 87.832031 C 348.097656 86.5 350.097656 86.5 350.097656 87.832031 "/>
<path fill-rule="nonzero" fill="rgb(100%, 0%, 0%)" fill-opacity="1" stroke-width="0.01" stroke-linecap="butt" stroke-linejoin="miter" stroke="rgb(0%, 0%, 0%)" stroke-opacity="1" stroke-miterlimit="10" d="M 332.363281 66.6875 C 332.363281 68.019531 330.363281 68.019531 330.363281 66.6875 C 330.363281 65.351562 332.363281 65.351562 332.363281 66.6875 "/>
<path fill-rule="nonzero" fill="rgb(100%, 0%, 0%)" fill-opacity="1" stroke-width="0.01" stroke-linecap="butt" stroke-linejoin="miter" stroke="rgb(0%, 0%, 0%)" stroke-opacity="1" stroke-miterlimit="10" d="M 128.035156 422.945312 C 128.035156 424.277344 126.035156 424.277344 126.035156 422.945312 C 126.035156 421.613281 128.035156 421.613281 128.035156 422.945312 "/>
<path fill-rule="nonzero" fill="rgb(100%, 0%, 0%)" fill-opacity="1" stroke-width="0.01" stroke-linecap="butt" stroke-linejoin="miter" stroke="rgb(0%, 0%, 0%)" stroke-opacity="1" stroke-miterlimit="10" d="M 165.617188 406.035156 C 165.617188 407.367188 163.617188 407.367188 163.617188 406.035156 C 163.617188 404.699219 165.617188 404.699219 165.617188 406.035156 "/>
<path fill-rule="nonzero" fill="rgb(100%, 0%, 0%)" fill-opacity="1" stroke-width="0.01" stroke-linecap="butt" stroke-linejoin="miter" stroke="rgb(0%, 0%, 0%)" stroke-opacity="1" stroke-miterlimit="10" d="M 503.859375 420.628906 C 503.859375 421.960938 501.859375 421.960938 501.859375 420.628906 C 501.859375 419.292969 503.859375 419.292969 503.859375 420.628906 "/>
<path fill-rule="nonzero" fill="rgb(100%, 0%, 0%)" fill-opacity="1" stroke-width="0.01" stroke-linecap="butt" stroke-linejoin="miter" stroke="rgb(0%, 0%, 0%)" stroke-opacity="1" stroke-miterlimit="10" d="M 497.945312 448.523438 C 497.945312 449.859375 495.945312 449.859375 495.945312 448.523438 C 495.945312 447.191406 497.945312 447.191406 497.945312 448.523438 "/>
<path fill-rule="nonzero" fill="rgb(100%, 0%, 0%)" fill-opacity="1" stroke-width="0.01" stroke-linecap="butt" stroke-linejoin="miter" stroke="rgb(0%, 0%, 0%)" stroke-opacity="1" stroke-miterlimit="10" d="M 37.765625 517.585938 C 37.765625 518.917969 35.765625 518.917969 35.765625 517.585938 C 35.765625 516.25 37.765625 516.25 37.765625 517.585938 "/>
<path fill-rule="nonzero" fill="rgb(100%, 0%, 0%)" fill-opacity="1" stroke-width="0.01" stroke-linecap="butt" stroke-linejoin="miter" stroke="rgb(0%, 0%, 0%)" stroke-opacity="1" stroke-miterlimit="10" d="M 21 495.25 C 21 496.582031 19 496.582031 19 495.25 C 19 493.914062 21 493.914062 21 495.25 "/>
<path fill-rule="nonzero" fill="rgb(100%, 0%, 0%)" fill-opacity="1" stroke-width="0.01" stroke-linecap="butt" stroke-linejoin="miter" stroke="rgb(0%, 0%, 0%)" stroke-opacity="1" stroke-miterlimit="10" d="M 291.425781 310.546875 C 291.425781 311.882812 289.425781 311.882812 289.425781 310.546875 C 289.425781 309.214844 291.425781 309.214844 291.425781 310.546875 "/>
<path fill-rule="nonzero" fill="rgb(100%, 0%, 0%)" fill-opacity="1" stroke-width="0.01" stroke-linecap="butt" stroke-linejoin="miter" stroke="rgb(0%, 0%, 0%)" stroke-opacity="1" stroke-miterlimit="10" d="M 265.589844 306.109375 C 265.589844 307.445312 263.589844 307.445312 263.589844 306.109375 C 263.589844 304.777344 265.589844 304.777344 265.589844 306.109375 "/>
<path fill-rule="nonzero" fill="rgb(100%, 0%, 0%)" fill-opacity="1" stroke-width="0.01" stroke-linecap="butt" stroke-linejoin="miter" stroke="rgb(0%, 0%, 0%)" stroke-opacity="1" stroke-miterlimit="10" d="M 170.785156 55.660156 C 170.785156 56.992188 168.785156 56.992188 168.785156 55.660156 C 168.785156 54.324219 170.785156 54.324219 170.785156 55.660156 "/>
<path fill-rule="nonzero" fill="rgb(100%, 0%, 0%)" fill-opacity="1" stroke-width="0.01" stroke-linecap="butt" stroke-linejoin="miter" stroke="rgb(0%, 0%, 0%)" stroke-opacity="1" stroke-miterlimit="10" d="M 133 38.488281 C 133 39.824219 131 39.824219 131 38.488281 C 131 37.15625 133 37.15625 133 38.488281 "/>
<path fill-rule="nonzero" fill="rgb(100%, 0%, 0%)" fill-opacity="1" stroke-width="0.01" stroke-linecap="butt" stroke-linejoin="miter" stroke="rgb(0%, 0%, 0%)" stroke-opacity="1" stroke-miterlimit="10" d="M 270.695312 514.40625 C 270.695312 515.738281 268.695312 515.738281 268.695312 514.40625 C 268.695312 513.070312 270.695312 513.070312 270.695312 514.40625 "/>
<path fill-rule="nonzero" fill="rgb(100%, 0%, 0%)" fill-opacity="1" stroke-width="0.01" stroke-linecap="butt" stroke-linejoin="miter" stroke="rgb(0%, 0%, 0%)" stroke-opacity="1" stroke-miterlimit="10" d="M 284.917969 490.148438 C 284.917969 491.484375 282.917969 491.484375 282.917969 490.148438 C 282.917969 488.816406 284.917969 488.816406 284.917969 490.148438 "/>
<path fill-rule="nonzero" fill="rgb(100%, 0%, 0%)" fill-opacity="1" stroke-width="0.01" stroke-linecap="butt" stroke-linejoin="miter" stroke="rgb(0%, 0%, 0%)" stroke-opacity="1" stroke-miterlimit="10" d="M 457.960938 20 C 457.960938 21.332031 455.960938 21.332031 455.960938 20 C 455.960938 18.667969 457.960938 18.667969 457.960938 20 "/>
<path fill-rule="nonzero" fill="rgb(100%, 0%, 0%)" fill-opacity="1" stroke-width="0.01" stroke-linecap="butt" stroke-linejoin="miter" stroke="rgb(0%, 0%, 0%)" stroke-opacity="1" stroke-miterlimit="10" d="M 475.355469 41.644531 C 475.355469 42.980469 473.355469 42.980469 473.355469 41.644531 C 473.355469 40.3125 475.355469 40.3125 475.355469 41.644531 "/>
<path fill-rule="nonzero" fill="rgb(100%, 0%, 0%)" fill-opacity="1" stroke-width="0.01" stroke-linecap="butt" stroke-linejoin="miter" stroke="rgb(0%, 0%, 0%)" stroke-opacity="1" stroke-miterlimit="10" d="M 413.453125 206.4375 C 413.453125 207.769531 411.453125 207.769531 411.453125 206.4375 C 411.453125 205.105469 413.453125 205.105469 413.453125 206.4375 "/>
<path fill-rule="nonzero" fill="rgb(100%, 0%, 0%)" fill-opacity="1" stroke-width="0.01" stroke-linecap="butt" stroke-linejoin="miter" stroke="rgb(0%, 0%, 0%)" stroke-opacity="1" stroke-miterlimit="10" d="M 439.617188 203.199219 C 439.617188 204.53125 437.617188 204.53125 437.617188 203.199219 C 437.617188 201.867188 439.617188 201.867188 439.617188 203.199219 "/>
<path fill-rule="nonzero" fill="rgb(100%, 0%, 0%)" fill-opacity="1" stroke-width="0.01" stroke-linecap="butt" stroke-linejoin="miter" stroke="rgb(0%, 0%, 0%)" stroke-opacity="1" stroke-miterlimit="10" d="M 397.648438 563.332031 C 397.648438 564.667969 395.648438 564.667969 395.648438 563.332031 C 395.648438 562 397.648438 562 397.648438 563.332031 "/>
<path fill-rule="nonzero" fill="rgb(100%, 0%, 0%)" fill-opacity="1" stroke-width="0.01" stroke-linecap="butt" stroke-linejoin="miter" stroke="rgb(0%, 0%, 0%)" stroke-opacity="1" stroke-miterlimit="10" d="M 376.203125 580 C 376.203125 581.332031 374.203125 581.332031 374.203125 580 C 374.203125 578.667969 376.203125 578.667969 376.203125 580 "/>
<path fill-rule="nonzero" fill="rgb(100%, 0%, 0%)" fill-opacity="1" stroke-width="0.01" stroke-linecap="butt" stroke-linejoin="miter" stroke="rgb(0%, 0%, 0%)" stroke-opacity="1" stroke-miterlimit="10" d="M 143.746094 67.785156 C 143.746094 69.117188 141.746094 69.117188 141.746094 67.785156 C 141.746094 66.449219 143.746094 66.449219 143.746094 67.785156 "/>
<path fill-rule="nonzero" fill="rgb(100%, 0%, 0%)" fill-opacity="1" stroke-width="0.01" stroke-linecap="butt" stroke-linejoin="miter" stroke="rgb(0%, 0%, 0%)" stroke-opacity="1" stroke-miterlimit="10" d="M 159.984375 26.355469 C 159.984375 27.691406 157.984375 27.691406 157.984375 26.355469 C 157.984375 25.023438 159.984375 25.023438 159.984375 26.355469 "/>
</svg>
