<?xml version="1.0" encoding="UTF-8"?>
<svg xmlns="http://www.w3.org/2000/svg" xmlns:xlink="http://www.w3.org/1999/xlink" width="600pt" height="600pt" viewBox="0 0 600 600" version="1.1">
<g id="surface216">
<rect x="0" y="0" width="600" height="600" style="fill:rgb(100%,100%,100%);fill-opacity:1;stroke:none;"/>
<path style="fill:none;stroke-width:0.2;stroke-linecap:butt;stroke-linejoin:miter;stroke:rgb(26.666667%,26.666667%,26.666667%);stroke-opacity:1;stroke-miterlimit:10;" d="M 349.964844 92.359375 L 339.5 69.542969 "/>
<path style=" stroke:none;fill-rule:nonzero;fill:rgb(26.666667%,26.666667%,26.666667%);fill-opacity:1;" d="M 339.4375 69.414063 L 339.539063 69.523438 L 339.457031 69.5625 L 339.4375 69.414063 "/>
<path style="fill:none;stroke-width:0.2;stroke-linecap:butt;stroke-linejoin:miter;stroke:rgb(26.666667%,26.666667%,26.666667%);stroke-opacity:1;stroke-miterlimit:10;" d="M 210.167969 568.304688 L 232.128906 579.480469 "/>
<path style=" stroke:none;fill-rule:nonzero;fill:rgb(26.666667%,26.666667%,26.666667%);fill-opacity:1;" d="M 232.253906 579.546875 L 232.105469 579.523438 L 232.148438 579.441406 L 232.253906 579.546875 "/>
<path style="fill:none;stroke-width:0.2;stroke-linecap:butt;stroke-linejoin:miter;stroke:rgb(26.666667%,26.666667%,26.666667%);stroke-opacity:1;stroke-miterlimit:10;" d="M 184.496094 29.800781 L 207.222656 20.433594 "/>
<path style=" stroke:none;fill-rule:nonzero;fill:rgb(26.666667%,26.666667%,26.666667%);fill-opacity:1;" d="M 207.355469 20.382813 L 207.242188 20.476563 L 207.207031 20.394531 L 207.355469 20.382813 "/>
<path style="fill:none;stroke-width:0.2;stroke-linecap:butt;stroke-linejoin:miter;stroke:rgb(26.666667%,26.666667%,26.666667%);stroke-opacity:1;stroke-miterlimit:10;" d="M 20 212.320313 L 34.3125 191.824219 "/>
<path style=" stroke:none;fill-rule:nonzero;fill:rgb(26.666667%,26.666667%,26.666667%);fill-opacity:1;" d="M 34.394531 191.707031 L 34.351563 191.847656 L 34.273438 191.796875 L 34.394531 191.707031 "/>
<path style="fill:none;stroke-width:0.2;stroke-linecap:butt;stroke-linejoin:miter;stroke:rgb(26.666667%,26.666667%,26.666667%);stroke-opacity:1;stroke-miterlimit:10;" d="M 470.730469 167.078125 L 474.679688 191.875 "/>
<path style=" stroke:none;fill-rule:nonzero;fill:rgb(26.666667%,26.666667%,26.666667%);fill-opacity:1;" d="M 474.703125 192.015625 L 474.636719 191.882813 L 474.726563 191.867188 L 474.703125 192.015625 "/>
<path style="fill:none;stroke-width:0.2;stroke-linecap:butt;stroke-linejoin:miter;stroke:rgb(26.666667%,26.666667%,26.666667%);stroke-opacity:1;stroke-miterlimit:10;" d="M 448.417969 378.042969 L 469.1875 364.835938 "/>
<path style=" stroke:none;fill-rule:nonzero;fill:rgb(26.666667%,26.666667%,26.666667%);fill-opacity:1;" d="M 469.308594 364.757813 L 469.210938 364.875 L 469.160156 364.796875 L 469.308594 364.757813 "/>
<path style="fill:none;stroke-width:0.2;stroke-linecap:butt;stroke-linejoin:miter;stroke:rgb(26.666667%,26.666667%,26.666667%);stroke-opacity:1;stroke-miterlimit:10;" d="M 485.8125 41.460938 L 465.230469 27.8125 "/>
<path style=" stroke:none;fill-rule:nonzero;fill:rgb(26.666667%,26.666667%,26.666667%);fill-opacity:1;" d="M 465.113281 27.730469 L 465.257813 27.773438 L 465.203125 27.851563 L 465.113281 27.730469 "/>
<path style="fill:none;stroke-width:0.2;stroke-linecap:butt;stroke-linejoin:miter;stroke:rgb(26.666667%,26.666667%,26.666667%);stroke-opacity:1;stroke-miterlimit:10;" d="M 159.902344 239.675781 L 178.175781 256.429688 "/>
<path style=" stroke:none;fill-rule:nonzero;fill:rgb(26.666667%,26.666667%,26.666667%);fill-opacity:1;" d="M 178.28125 256.527344 L 178.144531 256.464844 L 178.207031 256.394531 L 178.28125 256.527344 "/>
<path style="fill:none;stroke-width:0.2;stroke-linecap:butt;stroke-linejoin:miter;stroke:rgb(26.666667%,26.666667%,26.666667%);stroke-opacity:1;stroke-miterlimit:10;" d="M 580 262.589844 L 579.335938 287.855469 "/>
<path style=" stroke:none;fill-rule:nonzero;fill:rgb(26.666667%,26.666667%,26.666667%);fill-opacity:1;" d="M 579.332031 288 L 579.289063 287.855469 L 579.382813 287.859375 L 579.332031 288 "/>
<path style="fill:none;stroke-width:0.2;stroke-linecap:butt;stroke-linejoin:miter;stroke:rgb(26.666667%,26.666667%,26.666667%);stroke-opacity:1;stroke-miterlimit:10;" d="M 301.199219 481.847656 L 323.550781 491.960938 "/>
<path style=" stroke:none;fill-rule:nonzero;fill:rgb(26.666667%,26.666667%,26.666667%);fill-opacity:1;" d="M 323.683594 492.019531 L 323.535156 492 L 323.570313 491.917969 L 323.683594 492.019531 "/>
<path style="fill:none;stroke-width:0.2;stroke-linecap:butt;stroke-linejoin:miter;stroke:rgb(26.666667%,26.666667%,26.666667%);stroke-opacity:1;stroke-miterlimit:10;" d="M 495.9375 493.902344 L 474.09375 505.300781 "/>
<path style=" stroke:none;fill-rule:nonzero;fill:rgb(26.666667%,26.666667%,26.666667%);fill-opacity:1;" d="M 473.96875 505.367188 L 474.074219 505.261719 L 474.117188 505.34375 L 473.96875 505.367188 "/>
<path style="fill:none;stroke-width:0.2;stroke-linecap:butt;stroke-linejoin:miter;stroke:rgb(26.666667%,26.666667%,26.666667%);stroke-opacity:1;stroke-miterlimit:10;" d="M 147.421875 437.292969 L 161.816406 416.894531 "/>
<path style=" stroke:none;fill-rule:nonzero;fill:rgb(26.666667%,26.666667%,26.666667%);fill-opacity:1;" d="M 161.898438 416.777344 L 161.855469 416.921875 L 161.777344 416.867188 L 161.898438 416.777344 "/>
<path style="fill:none;stroke-width:0.2;stroke-linecap:butt;stroke-linejoin:miter;stroke:rgb(26.666667%,26.666667%,26.666667%);stroke-opacity:1;stroke-miterlimit:10;" d="M 257.261719 169.746094 L 237.171875 155.386719 "/>
<path style=" stroke:none;fill-rule:nonzero;fill:rgb(26.666667%,26.666667%,26.666667%);fill-opacity:1;" d="M 237.058594 155.304688 L 237.199219 155.351563 L 237.148438 155.425781 L 237.058594 155.304688 "/>
<path style="fill:none;stroke-width:0.2;stroke-linecap:butt;stroke-linejoin:miter;stroke:rgb(26.666667%,26.666667%,26.666667%);stroke-opacity:1;stroke-miterlimit:10;" d="M 64.558594 338.421875 L 49.566406 358.355469 "/>
<path style=" stroke:none;fill-rule:nonzero;fill:rgb(26.666667%,26.666667%,26.666667%);fill-opacity:1;" d="M 49.480469 358.46875 L 49.527344 358.328125 L 49.601563 358.382813 L 49.480469 358.46875 "/>
<path style="fill:none;stroke-width:0.2;stroke-linecap:butt;stroke-linejoin:miter;stroke:rgb(26.666667%,26.666667%,26.666667%);stroke-opacity:1;stroke-miterlimit:10;" d="M 280.652344 352.953125 L 301.785156 365.511719 "/>
<path style=" stroke:none;fill-rule:nonzero;fill:rgb(26.666667%,26.666667%,26.666667%);fill-opacity:1;" d="M 301.910156 365.582031 L 301.761719 365.550781 L 301.808594 365.46875 L 301.910156 365.582031 "/>
<path style="fill:none;stroke-width:0.2;stroke-linecap:butt;stroke-linejoin:miter;stroke:rgb(26.666667%,26.666667%,26.666667%);stroke-opacity:1;stroke-miterlimit:10;" d="M 371.113281 273.488281 L 362.492188 249.964844 "/>
<path style=" stroke:none;fill-rule:nonzero;fill:rgb(26.666667%,26.666667%,26.666667%);fill-opacity:1;" d="M 362.441406 249.832031 L 362.535156 249.949219 L 362.449219 249.980469 L 362.441406 249.832031 "/>
<path style="fill-rule:nonzero;fill:rgb(100%,0%,0%);fill-opacity:1;stroke-width:0.01;stroke-linecap:butt;stroke-linejoin:miter;stroke:rgb(0%,0%,0%);stroke-opacity:1;stroke-miterlimit:10;" d="M 350.964844 92.359375 C 350.964844 93.695313 348.964844 93.695313 348.964844 92.359375 C 348.964844 91.027344 350.964844 91.027344 350.964844 92.359375 "/>
<path style="fill-rule:nonzero;fill:rgb(100%,0%,0%);fill-opacity:1;stroke-width:0.01;stroke-linecap:butt;stroke-linejoin:miter;stroke:rgb(0%,0%,0%);stroke-opacity:1;stroke-miterlimit:10;" d="M 340.023438 68.503906 C 340.023438 69.835938 338.023438 69.835938 338.023438 68.503906 C 338.023438 67.171875 340.023438 67.171875 340.023438 68.503906 "/>
<path style="fill-rule:nonzero;fill:rgb(100%,0%,0%);fill-opacity:1;stroke-width:0.01;stroke-linecap:butt;stroke-linejoin:miter;stroke:rgb(0%,0%,0%);stroke-opacity:1;stroke-miterlimit:10;" d="M 211.167969 568.304688 C 211.167969 569.636719 209.167969 569.636719 209.167969 568.304688 C 209.167969 566.96875 211.167969 566.96875 211.167969 568.304688 "/>
<path style="fill-rule:nonzero;fill:rgb(100%,0%,0%);fill-opacity:1;stroke-width:0.01;stroke-linecap:butt;stroke-linejoin:miter;stroke:rgb(0%,0%,0%);stroke-opacity:1;stroke-miterlimit:10;" d="M 234.144531 580 C 234.144531 581.332031 232.144531 581.332031 232.144531 580 C 232.144531 578.667969 234.144531 578.667969 234.144531 580 "/>
<path style="fill-rule:nonzero;fill:rgb(100%,0%,0%);fill-opacity:1;stroke-width:0.01;stroke-linecap:butt;stroke-linejoin:miter;stroke:rgb(0%,0%,0%);stroke-opacity:1;stroke-miterlimit:10;" d="M 185.496094 29.800781 C 185.496094 31.136719 183.496094 31.136719 183.496094 29.800781 C 183.496094 28.46875 185.496094 28.46875 185.496094 29.800781 "/>
<path style="fill-rule:nonzero;fill:rgb(100%,0%,0%);fill-opacity:1;stroke-width:0.01;stroke-linecap:butt;stroke-linejoin:miter;stroke:rgb(0%,0%,0%);stroke-opacity:1;stroke-miterlimit:10;" d="M 209.28125 20 C 209.28125 21.332031 207.28125 21.332031 207.28125 20 C 207.28125 18.667969 209.28125 18.667969 209.28125 20 "/>
<path style="fill-rule:nonzero;fill:rgb(100%,0%,0%);fill-opacity:1;stroke-width:0.01;stroke-linecap:butt;stroke-linejoin:miter;stroke:rgb(0%,0%,0%);stroke-opacity:1;stroke-miterlimit:10;" d="M 21 212.320313 C 21 213.65625 19 213.65625 19 212.320313 C 19 210.988281 21 210.988281 21 212.320313 "/>
<path style="fill-rule:nonzero;fill:rgb(100%,0%,0%);fill-opacity:1;stroke-width:0.01;stroke-linecap:butt;stroke-linejoin:miter;stroke:rgb(0%,0%,0%);stroke-opacity:1;stroke-miterlimit:10;" d="M 35.96875 190.886719 C 35.96875 192.21875 33.96875 192.21875 33.96875 190.886719 C 33.96875 189.550781 35.96875 189.550781 35.96875 190.886719 "/>
<path style="fill-rule:nonzero;fill:rgb(100%,0%,0%);fill-opacity:1;stroke-width:0.01;stroke-linecap:butt;stroke-linejoin:miter;stroke:rgb(0%,0%,0%);stroke-opacity:1;stroke-miterlimit:10;" d="M 471.730469 167.078125 C 471.730469 168.414063 469.730469 168.414063 469.730469 167.078125 C 469.730469 165.746094 471.730469 165.746094 471.730469 167.078125 "/>
<path style="fill-rule:nonzero;fill:rgb(100%,0%,0%);fill-opacity:1;stroke-width:0.01;stroke-linecap:butt;stroke-linejoin:miter;stroke:rgb(0%,0%,0%);stroke-opacity:1;stroke-miterlimit:10;" d="M 475.859375 193.003906 C 475.859375 194.335938 473.859375 194.335938 473.859375 193.003906 C 473.859375 191.671875 475.859375 191.671875 475.859375 193.003906 "/>
<path style="fill-rule:nonzero;fill:rgb(100%,0%,0%);fill-opacity:1;stroke-width:0.01;stroke-linecap:butt;stroke-linejoin:miter;stroke:rgb(0%,0%,0%);stroke-opacity:1;stroke-miterlimit:10;" d="M 449.417969 378.042969 C 449.417969 379.375 447.417969 379.375 447.417969 378.042969 C 447.417969 376.707031 449.417969 376.707031 449.417969 378.042969 "/>
<path style="fill-rule:nonzero;fill:rgb(100%,0%,0%);fill-opacity:1;stroke-width:0.01;stroke-linecap:butt;stroke-linejoin:miter;stroke:rgb(0%,0%,0%);stroke-opacity:1;stroke-miterlimit:10;" d="M 471.152344 364.222656 C 471.152344 365.554688 469.152344 365.554688 469.152344 364.222656 C 469.152344 362.890625 471.152344 362.890625 471.152344 364.222656 "/>
<path style="fill-rule:nonzero;fill:rgb(100%,0%,0%);fill-opacity:1;stroke-width:0.01;stroke-linecap:butt;stroke-linejoin:miter;stroke:rgb(0%,0%,0%);stroke-opacity:1;stroke-miterlimit:10;" d="M 486.8125 41.460938 C 486.8125 42.796875 484.8125 42.796875 484.8125 41.460938 C 484.8125 40.128906 486.8125 40.128906 486.8125 41.460938 "/>
<path style="fill-rule:nonzero;fill:rgb(100%,0%,0%);fill-opacity:1;stroke-width:0.01;stroke-linecap:butt;stroke-linejoin:miter;stroke:rgb(0%,0%,0%);stroke-opacity:1;stroke-miterlimit:10;" d="M 465.277344 27.179688 C 465.277344 28.511719 463.277344 28.511719 463.277344 27.179688 C 463.277344 25.847656 465.277344 25.847656 465.277344 27.179688 "/>
<path style="fill-rule:nonzero;fill:rgb(100%,0%,0%);fill-opacity:1;stroke-width:0.01;stroke-linecap:butt;stroke-linejoin:miter;stroke:rgb(0%,0%,0%);stroke-opacity:1;stroke-miterlimit:10;" d="M 160.902344 239.675781 C 160.902344 241.007813 158.902344 241.007813 158.902344 239.675781 C 158.902344 238.339844 160.902344 238.339844 160.902344 239.675781 "/>
<path style="fill-rule:nonzero;fill:rgb(100%,0%,0%);fill-opacity:1;stroke-width:0.01;stroke-linecap:butt;stroke-linejoin:miter;stroke:rgb(0%,0%,0%);stroke-opacity:1;stroke-miterlimit:10;" d="M 180.015625 257.203125 C 180.015625 258.535156 178.015625 258.535156 178.015625 257.203125 C 178.015625 255.867188 180.015625 255.867188 180.015625 257.203125 "/>
<path style="fill-rule:nonzero;fill:rgb(100%,0%,0%);fill-opacity:1;stroke-width:0.01;stroke-linecap:butt;stroke-linejoin:miter;stroke:rgb(0%,0%,0%);stroke-opacity:1;stroke-miterlimit:10;" d="M 581 262.589844 C 581 263.921875 579 263.921875 579 262.589844 C 579 261.257813 581 261.257813 581 262.589844 "/>
<path style="fill-rule:nonzero;fill:rgb(100%,0%,0%);fill-opacity:1;stroke-width:0.01;stroke-linecap:butt;stroke-linejoin:miter;stroke:rgb(0%,0%,0%);stroke-opacity:1;stroke-miterlimit:10;" d="M 580.308594 289 C 580.308594 290.332031 578.308594 290.332031 578.308594 289 C 578.308594 287.667969 580.308594 287.667969 580.308594 289 "/>
<path style="fill-rule:nonzero;fill:rgb(100%,0%,0%);fill-opacity:1;stroke-width:0.01;stroke-linecap:butt;stroke-linejoin:miter;stroke:rgb(0%,0%,0%);stroke-opacity:1;stroke-miterlimit:10;" d="M 302.199219 481.847656 C 302.199219 483.179688 300.199219 483.179688 300.199219 481.847656 C 300.199219 480.511719 302.199219 480.511719 302.199219 481.847656 "/>
<path style="fill-rule:nonzero;fill:rgb(100%,0%,0%);fill-opacity:1;stroke-width:0.01;stroke-linecap:butt;stroke-linejoin:miter;stroke:rgb(0%,0%,0%);stroke-opacity:1;stroke-miterlimit:10;" d="M 325.59375 492.429688 C 325.59375 493.761719 323.59375 493.761719 323.59375 492.429688 C 323.59375 491.097656 325.59375 491.097656 325.59375 492.429688 "/>
<path style="fill-rule:nonzero;fill:rgb(100%,0%,0%);fill-opacity:1;stroke-width:0.01;stroke-linecap:butt;stroke-linejoin:miter;stroke:rgb(0%,0%,0%);stroke-opacity:1;stroke-miterlimit:10;" d="M 496.9375 493.902344 C 496.9375 495.234375 494.9375 495.234375 494.9375 493.902344 C 494.9375 492.570313 496.9375 492.570313 496.9375 493.902344 "/>
<path style="fill-rule:nonzero;fill:rgb(100%,0%,0%);fill-opacity:1;stroke-width:0.01;stroke-linecap:butt;stroke-linejoin:miter;stroke:rgb(0%,0%,0%);stroke-opacity:1;stroke-miterlimit:10;" d="M 474.082031 505.828125 C 474.082031 507.164063 472.082031 507.164063 472.082031 505.828125 C 472.082031 504.496094 474.082031 504.496094 474.082031 505.828125 "/>
<path style="fill-rule:nonzero;fill:rgb(100%,0%,0%);fill-opacity:1;stroke-width:0.01;stroke-linecap:butt;stroke-linejoin:miter;stroke:rgb(0%,0%,0%);stroke-opacity:1;stroke-miterlimit:10;" d="M 148.421875 437.292969 C 148.421875 438.625 146.421875 438.625 146.421875 437.292969 C 146.421875 435.957031 148.421875 435.957031 148.421875 437.292969 "/>
<path style="fill-rule:nonzero;fill:rgb(100%,0%,0%);fill-opacity:1;stroke-width:0.01;stroke-linecap:butt;stroke-linejoin:miter;stroke:rgb(0%,0%,0%);stroke-opacity:1;stroke-miterlimit:10;" d="M 163.472656 415.960938 C 163.472656 417.292969 161.472656 417.292969 161.472656 415.960938 C 161.472656 414.625 163.472656 414.625 163.472656 415.960938 "/>
<path style="fill-rule:nonzero;fill:rgb(100%,0%,0%);fill-opacity:1;stroke-width:0.01;stroke-linecap:butt;stroke-linejoin:miter;stroke:rgb(0%,0%,0%);stroke-opacity:1;stroke-miterlimit:10;" d="M 258.261719 169.746094 C 258.261719 171.078125 256.261719 171.078125 256.261719 169.746094 C 256.261719 168.414063 258.261719 168.414063 258.261719 169.746094 "/>
<path style="fill-rule:nonzero;fill:rgb(100%,0%,0%);fill-opacity:1;stroke-width:0.01;stroke-linecap:butt;stroke-linejoin:miter;stroke:rgb(0%,0%,0%);stroke-opacity:1;stroke-miterlimit:10;" d="M 237.242188 154.722656 C 237.242188 156.058594 235.242188 156.058594 235.242188 154.722656 C 235.242188 153.390625 237.242188 153.390625 237.242188 154.722656 "/>
<path style="fill-rule:nonzero;fill:rgb(100%,0%,0%);fill-opacity:1;stroke-width:0.01;stroke-linecap:butt;stroke-linejoin:miter;stroke:rgb(0%,0%,0%);stroke-opacity:1;stroke-miterlimit:10;" d="M 65.558594 338.421875 C 65.558594 339.757813 63.558594 339.757813 63.558594 338.421875 C 63.558594 337.089844 65.558594 337.089844 65.558594 338.421875 "/>
<path style="fill-rule:nonzero;fill:rgb(100%,0%,0%);fill-opacity:1;stroke-width:0.01;stroke-linecap:butt;stroke-linejoin:miter;stroke:rgb(0%,0%,0%);stroke-opacity:1;stroke-miterlimit:10;" d="M 49.878906 359.269531 C 49.878906 360.601563 47.878906 360.601563 47.878906 359.269531 C 47.878906 357.9375 49.878906 357.9375 49.878906 359.269531 "/>
<path style="fill-rule:nonzero;fill:rgb(100%,0%,0%);fill-opacity:1;stroke-width:0.01;stroke-linecap:butt;stroke-linejoin:miter;stroke:rgb(0%,0%,0%);stroke-opacity:1;stroke-miterlimit:10;" d="M 281.652344 352.953125 C 281.652344 354.289063 279.652344 354.289063 279.652344 352.953125 C 279.652344 351.621094 281.652344 351.621094 281.652344 352.953125 "/>
<path style="fill-rule:nonzero;fill:rgb(100%,0%,0%);fill-opacity:1;stroke-width:0.01;stroke-linecap:butt;stroke-linejoin:miter;stroke:rgb(0%,0%,0%);stroke-opacity:1;stroke-miterlimit:10;" d="M 303.769531 366.09375 C 303.769531 367.425781 301.769531 367.425781 301.769531 366.09375 C 301.769531 364.761719 303.769531 364.761719 303.769531 366.09375 "/>
<path style="fill-rule:nonzero;fill:rgb(100%,0%,0%);fill-opacity:1;stroke-width:0.01;stroke-linecap:butt;stroke-linejoin:miter;stroke:rgb(0%,0%,0%);stroke-opacity:1;stroke-miterlimit:10;" d="M 372.113281 273.488281 C 372.113281 274.820313 370.113281 274.820313 370.113281 273.488281 C 370.113281 272.152344 372.113281 272.152344 372.113281 273.488281 "/>
<path style="fill-rule:nonzero;fill:rgb(100%,0%,0%);fill-opacity:1;stroke-width:0.01;stroke-linecap:butt;stroke-linejoin:miter;stroke:rgb(0%,0%,0%);stroke-opacity:1;stroke-miterlimit:10;" d="M 363.097656 248.890625 C 363.097656 250.226563 361.097656 250.226563 361.097656 248.890625 C 361.097656 247.558594 363.097656 247.558594 363.097656 248.890625 "/>
</g>
</svg>
