<?xml version="1.0" encoding="UTF-8"?>
<svg xmlns="http://www.w3.org/2000/svg" xmlns:xlink="http://www.w3.org/1999/xlink" width="600pt" height="600pt" viewBox="0 0 600 600" version="1.1">
<g id="surface6">
<rect x="0" y="0" width="600" height="600" style="fill:rgb(100%,100%,100%);fill-opacity:1;stroke:none;"/>
<path style="fill:none;stroke-width:0.2;stroke-linecap:butt;stroke-linejoin:miter;stroke:rgb(26.666667%,26.666667%,26.666667%);stroke-opacity:1;stroke-miterlimit:10;" d="M 44.902344 383.984375 L 30.976562 364.378906 "/>
<path style="fill:none;stroke-width:0.2;stroke-linecap:butt;stroke-linejoin:miter;stroke:rgb(26.666667%,26.666667%,26.666667%);stroke-opacity:1;stroke-miterlimit:10;" d="M 364.121094 239.417969 L 387.25 250.089844 "/>
<path style="fill:none;stroke-width:0.2;stroke-linecap:butt;stroke-linejoin:miter;stroke:rgb(26.666667%,26.666667%,26.666667%);stroke-opacity:1;stroke-miterlimit:10;" d="M 175.949219 254.492188 L 200.210938 262.652344 "/>
<path style="fill:none;stroke-width:0.2;stroke-linecap:butt;stroke-linejoin:miter;stroke:rgb(26.666667%,26.666667%,26.666667%);stroke-opacity:1;stroke-miterlimit:10;" d="M 397.476562 568.027344 L 374.875 579.546875 "/>
<path style="fill:none;stroke-width:0.2;stroke-linecap:butt;stroke-linejoin:miter;stroke:rgb(26.666667%,26.666667%,26.666667%);stroke-opacity:1;stroke-miterlimit:10;" d="M 206.511719 143.984375 L 183.855469 132.621094 "/>
<path style="fill:none;stroke-width:0.2;stroke-linecap:butt;stroke-linejoin:miter;stroke:rgb(26.666667%,26.666667%,26.666667%);stroke-opacity:1;stroke-miterlimit:10;" d="M 344.515625 20 L 318.429688 20.09375 "/>
<path style="fill:none;stroke-width:0.2;stroke-linecap:butt;stroke-linejoin:miter;stroke:rgb(26.666667%,26.666667%,26.666667%);stroke-opacity:1;stroke-miterlimit:10;" d="M 567.125 325.65625 L 579.484375 305.191406 "/>
<path style="fill:none;stroke-width:0.2;stroke-linecap:butt;stroke-linejoin:miter;stroke:rgb(26.666667%,26.666667%,26.666667%);stroke-opacity:1;stroke-miterlimit:10;" d="M 496.632812 185.65625 L 515.222656 201.828125 "/>
<path style="fill:none;stroke-width:0.2;stroke-linecap:butt;stroke-linejoin:miter;stroke:rgb(26.666667%,26.666667%,26.666667%);stroke-opacity:1;stroke-miterlimit:10;" d="M 333.035156 351.855469 L 320.855469 331.464844 "/>
<path style="fill:none;stroke-width:0.2;stroke-linecap:butt;stroke-linejoin:miter;stroke:rgb(26.666667%,26.666667%,26.666667%);stroke-opacity:1;stroke-miterlimit:10;" d="M 20 238.191406 L 40.527344 223.925781 "/>
<path style="fill:none;stroke-width:0.2;stroke-linecap:butt;stroke-linejoin:miter;stroke:rgb(26.666667%,26.666667%,26.666667%);stroke-opacity:1;stroke-miterlimit:10;" d="M 76.160156 512.578125 L 102.03125 513.511719 "/>
<path style="fill:none;stroke-width:0.2;stroke-linecap:butt;stroke-linejoin:miter;stroke:rgb(26.666667%,26.666667%,26.666667%);stroke-opacity:1;stroke-miterlimit:10;" d="M 369.910156 126.976562 L 343.9375 128.378906 "/>
<path style="fill:none;stroke-width:0.2;stroke-linecap:butt;stroke-linejoin:miter;stroke:rgb(26.666667%,26.666667%,26.666667%);stroke-opacity:1;stroke-miterlimit:10;" d="M 179.105469 374.546875 L 193.058594 394.121094 "/>
<path style="fill:none;stroke-width:0.2;stroke-linecap:butt;stroke-linejoin:miter;stroke:rgb(26.666667%,26.666667%,26.666667%);stroke-opacity:1;stroke-miterlimit:10;" d="M 524.539062 465.878906 L 518.085938 443.304688 "/>
<path style="fill:none;stroke-width:0.2;stroke-linecap:butt;stroke-linejoin:miter;stroke:rgb(26.666667%,26.666667%,26.666667%);stroke-opacity:1;stroke-miterlimit:10;" d="M 366.101562 448.667969 L 388.445312 436.804688 "/>
<path style="fill:none;stroke-width:0.2;stroke-linecap:butt;stroke-linejoin:miter;stroke:rgb(26.666667%,26.666667%,26.666667%);stroke-opacity:1;stroke-miterlimit:10;" d="M 239.722656 512.25 L 236.929688 535.445312 "/>
<path style=" stroke:none;fill-rule:nonzero;fill:rgb(100%,0%,0%);fill-opacity:1;" d="M 45.902344 383.984375 C 45.902344 385.316406 43.902344 385.316406 43.902344 383.984375 C 43.902344 382.652344 45.902344 382.652344 45.902344 383.984375 "/>
<path style=" stroke:none;fill-rule:nonzero;fill:rgb(100%,0%,0%);fill-opacity:1;" d="M 31.398438 363.566406 C 31.398438 364.898438 29.398438 364.898438 29.398438 363.566406 C 29.398438 362.230469 31.398438 362.230469 31.398438 363.566406 "/>
<path style=" stroke:none;fill-rule:nonzero;fill:rgb(100%,0%,0%);fill-opacity:1;" d="M 365.121094 239.417969 C 365.121094 240.75 363.121094 240.75 363.121094 239.417969 C 363.121094 238.082031 365.121094 238.082031 365.121094 239.417969 "/>
<path style=" stroke:none;fill-rule:nonzero;fill:rgb(100%,0%,0%);fill-opacity:1;" d="M 389.15625 250.511719 C 389.15625 251.84375 387.15625 251.84375 387.15625 250.511719 C 387.15625 249.175781 389.15625 249.175781 389.15625 250.511719 "/>
<path style=" stroke:none;fill-rule:nonzero;fill:rgb(100%,0%,0%);fill-opacity:1;" d="M 176.949219 254.492188 C 176.949219 255.824219 174.949219 255.824219 174.949219 254.492188 C 174.949219 253.160156 176.949219 253.160156 176.949219 254.492188 "/>
<path style=" stroke:none;fill-rule:nonzero;fill:rgb(100%,0%,0%);fill-opacity:1;" d="M 202.15625 262.96875 C 202.15625 264.300781 200.15625 264.300781 200.15625 262.96875 C 200.15625 261.636719 202.15625 261.636719 202.15625 262.96875 "/>
<path style=" stroke:none;fill-rule:nonzero;fill:rgb(100%,0%,0%);fill-opacity:1;" d="M 398.476562 568.027344 C 398.476562 569.363281 396.476562 569.363281 396.476562 568.027344 C 396.476562 566.695312 398.476562 566.695312 398.476562 568.027344 "/>
<path style=" stroke:none;fill-rule:nonzero;fill:rgb(100%,0%,0%);fill-opacity:1;" d="M 374.984375 580 C 374.984375 581.332031 372.984375 581.332031 372.984375 580 C 372.984375 578.667969 374.984375 578.667969 374.984375 580 "/>
<path style=" stroke:none;fill-rule:nonzero;fill:rgb(100%,0%,0%);fill-opacity:1;" d="M 207.511719 143.984375 C 207.511719 145.316406 205.511719 145.316406 205.511719 143.984375 C 205.511719 142.648438 207.511719 142.648438 207.511719 143.984375 "/>
<path style=" stroke:none;fill-rule:nonzero;fill:rgb(100%,0%,0%);fill-opacity:1;" d="M 183.960938 132.175781 C 183.960938 133.507812 181.960938 133.507812 181.960938 132.175781 C 181.960938 130.839844 183.960938 130.839844 183.960938 132.175781 "/>
<path style=" stroke:none;fill-rule:nonzero;fill:rgb(100%,0%,0%);fill-opacity:1;" d="M 345.515625 20 C 345.515625 21.332031 343.515625 21.332031 343.515625 20 C 343.515625 18.667969 345.515625 18.667969 345.515625 20 "/>
<path style=" stroke:none;fill-rule:nonzero;fill:rgb(100%,0%,0%);fill-opacity:1;" d="M 318.429688 20.09375 C 318.429688 21.429688 316.429688 21.429688 316.429688 20.09375 C 316.429688 18.761719 318.429688 18.761719 318.429688 20.09375 "/>
<path style=" stroke:none;fill-rule:nonzero;fill:rgb(100%,0%,0%);fill-opacity:1;" d="M 568.125 325.65625 C 568.125 326.988281 566.125 326.988281 566.125 325.65625 C 566.125 324.324219 568.125 324.324219 568.125 325.65625 "/>
<path style=" stroke:none;fill-rule:nonzero;fill:rgb(100%,0%,0%);fill-opacity:1;" d="M 581 304.335938 C 581 305.671875 579 305.671875 579 304.335938 C 579 303.003906 581 303.003906 581 304.335938 "/>
<path style=" stroke:none;fill-rule:nonzero;fill:rgb(100%,0%,0%);fill-opacity:1;" d="M 497.632812 185.65625 C 497.632812 186.992188 495.632812 186.992188 495.632812 185.65625 C 495.632812 184.324219 497.632812 184.324219 497.632812 185.65625 "/>
<path style=" stroke:none;fill-rule:nonzero;fill:rgb(100%,0%,0%);fill-opacity:1;" d="M 516.976562 202.484375 C 516.976562 203.816406 514.976562 203.816406 514.976562 202.484375 C 514.976562 201.148438 516.976562 201.148438 516.976562 202.484375 "/>
<path style=" stroke:none;fill-rule:nonzero;fill:rgb(100%,0%,0%);fill-opacity:1;" d="M 334.035156 351.855469 C 334.035156 353.1875 332.035156 353.1875 332.035156 351.855469 C 332.035156 350.523438 334.035156 350.523438 334.035156 351.855469 "/>
<path style=" stroke:none;fill-rule:nonzero;fill:rgb(100%,0%,0%);fill-opacity:1;" d="M 321.34375 330.605469 C 321.34375 331.941406 319.34375 331.941406 319.34375 330.605469 C 319.34375 329.273438 321.34375 329.273438 321.34375 330.605469 "/>
<path style=" stroke:none;fill-rule:nonzero;fill:rgb(100%,0%,0%);fill-opacity:1;" d="M 21 238.191406 C 21 239.523438 19 239.523438 19 238.191406 C 19 236.859375 21 236.859375 21 238.191406 "/>
<path style=" stroke:none;fill-rule:nonzero;fill:rgb(100%,0%,0%);fill-opacity:1;" d="M 42.347656 223.355469 C 42.347656 224.6875 40.347656 224.6875 40.347656 223.355469 C 40.347656 222.023438 42.347656 222.023438 42.347656 223.355469 "/>
<path style=" stroke:none;fill-rule:nonzero;fill:rgb(100%,0%,0%);fill-opacity:1;" d="M 77.160156 512.578125 C 77.160156 513.910156 75.160156 513.910156 75.160156 512.578125 C 75.160156 511.242188 77.160156 511.242188 77.160156 512.578125 "/>
<path style=" stroke:none;fill-rule:nonzero;fill:rgb(100%,0%,0%);fill-opacity:1;" d="M 104.03125 513.546875 C 104.03125 514.878906 102.03125 514.878906 102.03125 513.546875 C 102.03125 512.214844 104.03125 512.214844 104.03125 513.546875 "/>
<path style=" stroke:none;fill-rule:nonzero;fill:rgb(100%,0%,0%);fill-opacity:1;" d="M 370.910156 126.976562 C 370.910156 128.308594 368.910156 128.308594 368.910156 126.976562 C 368.910156 125.644531 370.910156 125.644531 370.910156 126.976562 "/>
<path style=" stroke:none;fill-rule:nonzero;fill:rgb(100%,0%,0%);fill-opacity:1;" d="M 343.941406 128.433594 C 343.941406 129.765625 341.941406 129.765625 341.941406 128.433594 C 341.941406 127.101562 343.941406 127.101562 343.941406 128.433594 "/>
<path style=" stroke:none;fill-rule:nonzero;fill:rgb(100%,0%,0%);fill-opacity:1;" d="M 180.105469 374.546875 C 180.105469 375.882812 178.105469 375.882812 178.105469 374.546875 C 178.105469 373.214844 180.105469 373.214844 180.105469 374.546875 "/>
<path style=" stroke:none;fill-rule:nonzero;fill:rgb(100%,0%,0%);fill-opacity:1;" d="M 194.640625 394.933594 C 194.640625 396.269531 192.640625 396.269531 192.640625 394.933594 C 192.640625 393.601562 194.640625 393.601562 194.640625 394.933594 "/>
<path style=" stroke:none;fill-rule:nonzero;fill:rgb(100%,0%,0%);fill-opacity:1;" d="M 525.539062 465.878906 C 525.539062 467.214844 523.539062 467.214844 523.539062 465.878906 C 523.539062 464.546875 525.539062 464.546875 525.539062 465.878906 "/>
<path style=" stroke:none;fill-rule:nonzero;fill:rgb(100%,0%,0%);fill-opacity:1;" d="M 518.8125 442.34375 C 518.8125 443.675781 516.8125 443.675781 516.8125 442.34375 C 516.8125 441.011719 518.8125 441.011719 518.8125 442.34375 "/>
<path style=" stroke:none;fill-rule:nonzero;fill:rgb(100%,0%,0%);fill-opacity:1;" d="M 367.101562 448.667969 C 367.101562 450 365.101562 450 365.101562 448.667969 C 365.101562 447.335938 367.101562 447.335938 367.101562 448.667969 "/>
<path style=" stroke:none;fill-rule:nonzero;fill:rgb(100%,0%,0%);fill-opacity:1;" d="M 390.328125 436.335938 C 390.328125 437.667969 388.328125 437.667969 388.328125 436.335938 C 388.328125 435 390.328125 435 390.328125 436.335938 "/>
<path style=" stroke:none;fill-rule:nonzero;fill:rgb(100%,0%,0%);fill-opacity:1;" d="M 240.722656 512.25 C 240.722656 513.585938 238.722656 513.585938 238.722656 512.25 C 238.722656 510.917969 240.722656 510.917969 240.722656 512.25 "/>
<path style=" stroke:none;fill-rule:nonzero;fill:rgb(100%,0%,0%);fill-opacity:1;" d="M 237.8125 536.441406 C 237.8125 537.773438 235.8125 537.773438 235.8125 536.441406 C 235.8125 535.105469 237.8125 535.105469 237.8125 536.441406 "/>
</g>
</svg>
