<?xml version="1.0" encoding="UTF-8"?>
<svg xmlns="http://www.w3.org/2000/svg" xmlns:xlink="http://www.w3.org/1999/xlink" width="600" height="600" viewBox="0 0 600 600">
<rect x="-60" y="-60" width="720" height="720" fill="rgb(100%, 100%, 100%)" fill-opacity="1"/>
<path fill="none" stroke-width="0.2" stroke-linecap="butt" stroke-linejoin="miter" stroke="rgb(26.666667%, 26.666667%, 26.666667%)" stroke-opacity="1" stroke-miterlimit="10" d="M 514.660156 465.289062 L 533.46875 450.804688 "/>
<path fill-rule="nonzero" fill="rgb(26.666667%, 26.666667%, 26.666667%)" fill-opacity="1" d="M 535.164062 449.5 L 533.894531 451.355469 L 533.042969 450.253906 L 535.164062 449.5 "/>
<path fill="none" stroke-width="0.2" stroke-linecap="butt" stroke-linejoin="miter" stroke="rgb(26.666667%, 26.666667%, 26.666667%)" stroke-opacity="1" stroke-miterlimit="10" d="M 365.5625 217.175781 L 389.386719 211.648438 "/>
<path fill-rule="nonzero" fill="rgb(26.666667%, 26.666667%, 26.666667%)" fill-opacity="1" d="M 391.472656 211.164062 L 389.542969 212.324219 L 389.230469 210.972656 L 391.472656 211.164062 "/>
<path fill="none" stroke-width="0.2" stroke-linecap="butt" stroke-linejoin="miter" stroke="rgb(26.666667%, 26.666667%, 26.666667%)" stroke-opacity="1" stroke-miterlimit="10" d="M 246.644531 158.570312 L 222.21875 161.425781 "/>
<path fill-rule="nonzero" fill="rgb(26.666667%, 26.666667%, 26.666667%)" fill-opacity="1" d="M 220.089844 161.675781 L 222.136719 160.738281 L 222.296875 162.117188 L 220.089844 161.675781 "/>
<path fill="none" stroke-width="0.2" stroke-linecap="butt" stroke-linejoin="miter" stroke="rgb(26.666667%, 26.666667%, 26.666667%)" stroke-opacity="1" stroke-miterlimit="10" d="M 509.257812 298.183594 L 523.808594 316.207031 "/>
<path fill-rule="nonzero" fill="rgb(26.666667%, 26.666667%, 26.666667%)" fill-opacity="1" d="M 525.152344 317.871094 L 523.265625 316.644531 L 524.347656 315.769531 L 525.152344 317.871094 "/>
<path fill="none" stroke-width="0.2" stroke-linecap="butt" stroke-linejoin="miter" stroke="rgb(26.666667%, 26.666667%, 26.666667%)" stroke-opacity="1" stroke-miterlimit="10" d="M 404.019531 83.695312 L 423.859375 70.511719 "/>
<path fill-rule="nonzero" fill="rgb(26.666667%, 26.666667%, 26.666667%)" fill-opacity="1" d="M 425.640625 69.328125 L 424.246094 71.09375 L 423.476562 69.933594 L 425.640625 69.328125 "/>
<path fill="none" stroke-width="0.2" stroke-linecap="butt" stroke-linejoin="miter" stroke="rgb(26.666667%, 26.666667%, 26.666667%)" stroke-opacity="1" stroke-miterlimit="10" d="M 392.765625 353.816406 L 382.089844 373.84375 "/>
<path fill-rule="nonzero" fill="rgb(26.666667%, 26.666667%, 26.666667%)" fill-opacity="1" d="M 381.082031 375.734375 L 381.476562 373.515625 L 382.703125 374.171875 L 381.082031 375.734375 "/>
<path fill="none" stroke-width="0.2" stroke-linecap="butt" stroke-linejoin="miter" stroke="rgb(26.666667%, 26.666667%, 26.666667%)" stroke-opacity="1" stroke-miterlimit="10" d="M 49.589844 239.066406 L 29.542969 271.28125 "/>
<path fill-rule="nonzero" fill="rgb(26.666667%, 26.666667%, 26.666667%)" fill-opacity="1" d="M 28.410156 273.097656 L 28.949219 270.914062 L 30.132812 271.648438 L 28.410156 273.097656 "/>
<path fill="none" stroke-width="0.2" stroke-linecap="butt" stroke-linejoin="miter" stroke="rgb(26.666667%, 26.666667%, 26.666667%)" stroke-opacity="1" stroke-miterlimit="10" d="M 224.726562 348.679688 L 206.164062 316.445312 "/>
<path fill-rule="nonzero" fill="rgb(26.666667%, 26.666667%, 26.666667%)" fill-opacity="1" d="M 205.09375 314.589844 L 206.765625 316.097656 L 205.558594 316.792969 L 205.09375 314.589844 "/>
<path fill="none" stroke-width="0.2" stroke-linecap="butt" stroke-linejoin="miter" stroke="rgb(26.666667%, 26.666667%, 26.666667%)" stroke-opacity="1" stroke-miterlimit="10" d="M 261.800781 20 L 239.945312 30.304688 "/>
<path fill-rule="nonzero" fill="rgb(26.666667%, 26.666667%, 26.666667%)" fill-opacity="1" d="M 238.007812 31.214844 L 239.648438 29.675781 L 240.242188 30.933594 L 238.007812 31.214844 "/>
<path fill="none" stroke-width="0.2" stroke-linecap="butt" stroke-linejoin="miter" stroke="rgb(26.666667%, 26.666667%, 26.666667%)" stroke-opacity="1" stroke-miterlimit="10" d="M 368.058594 570.195312 L 345.210938 578.882812 "/>
<path fill-rule="nonzero" fill="rgb(26.666667%, 26.666667%, 26.666667%)" fill-opacity="1" d="M 343.210938 579.644531 L 344.964844 578.234375 L 345.460938 579.535156 L 343.210938 579.644531 "/>
<path fill="none" stroke-width="0.2" stroke-linecap="butt" stroke-linejoin="miter" stroke="rgb(26.666667%, 26.666667%, 26.666667%)" stroke-opacity="1" stroke-miterlimit="10" d="M 580 196.125 L 564.351562 178.804688 "/>
<path fill-rule="nonzero" fill="rgb(26.666667%, 26.666667%, 26.666667%)" fill-opacity="1" d="M 562.917969 177.214844 L 564.867188 178.339844 L 563.835938 179.269531 L 562.917969 177.214844 "/>
<path fill="none" stroke-width="0.2" stroke-linecap="butt" stroke-linejoin="miter" stroke="rgb(26.666667%, 26.666667%, 26.666667%)" stroke-opacity="1" stroke-miterlimit="10" d="M 88.671875 471.070312 L 111.222656 480.1875 "/>
<path fill-rule="nonzero" fill="rgb(26.666667%, 26.666667%, 26.666667%)" fill-opacity="1" d="M 113.207031 480.992188 L 110.964844 480.832031 L 111.484375 479.542969 L 113.207031 480.992188 "/>
<path fill="none" stroke-width="0.2" stroke-linecap="butt" stroke-linejoin="miter" stroke="rgb(26.666667%, 26.666667%, 26.666667%)" stroke-opacity="1" stroke-miterlimit="10" d="M 90.601562 54.667969 L 80.878906 75.203125 "/>
<path fill-rule="nonzero" fill="rgb(26.666667%, 26.666667%, 26.666667%)" fill-opacity="1" d="M 79.964844 77.136719 L 80.253906 74.902344 L 81.507812 75.5 L 79.964844 77.136719 "/>
<path fill="none" stroke-width="0.2" stroke-linecap="butt" stroke-linejoin="miter" stroke="rgb(26.666667%, 26.666667%, 26.666667%)" stroke-opacity="1" stroke-miterlimit="10" d="M 57.351562 266.273438 L 22.78125 248.105469 "/>
<path fill-rule="nonzero" fill="rgb(26.666667%, 26.666667%, 26.666667%)" fill-opacity="1" d="M 20.886719 247.113281 L 23.101562 247.492188 L 22.457031 248.722656 L 20.886719 247.113281 "/>
<path fill="none" stroke-width="0.2" stroke-linecap="butt" stroke-linejoin="miter" stroke="rgb(26.666667%, 26.666667%, 26.666667%)" stroke-opacity="1" stroke-miterlimit="10" d="M 195.390625 340.636719 L 231.074219 323.214844 "/>
<path fill-rule="nonzero" fill="rgb(26.666667%, 26.666667%, 26.666667%)" fill-opacity="1" d="M 232.996094 322.273438 L 231.378906 323.839844 L 230.765625 322.589844 L 232.996094 322.273438 "/>
<path fill="none" stroke-width="0.2" stroke-linecap="butt" stroke-linejoin="miter" stroke="rgb(26.666667%, 26.666667%, 26.666667%)" stroke-opacity="1" stroke-miterlimit="10" d="M 298.9375 472.613281 L 275.714844 480.289062 "/>
<path fill-rule="nonzero" fill="rgb(26.666667%, 26.666667%, 26.666667%)" fill-opacity="1" d="M 273.683594 480.960938 L 275.496094 479.628906 L 275.933594 480.949219 L 273.683594 480.960938 "/>
<path fill-rule="nonzero" fill="rgb(100%, 0%, 0%)" fill-opacity="1" stroke-width="0.01" stroke-linecap="butt" stroke-linejoin="miter" stroke="rgb(0%, 0%, 0%)" stroke-opacity="1" stroke-miterlimit="10" d="M 515.660156 465.289062 C 515.660156 466.625 513.660156 466.625 513.660156 465.289062 C 513.660156 463.957031 515.660156 463.957031 515.660156 465.289062 "/>
<path fill-rule="nonzero" fill="rgb(100%, 0%, 0%)" fill-opacity="1" stroke-width="0.01" stroke-linecap="butt" stroke-linejoin="miter" stroke="rgb(0%, 0%, 0%)" stroke-opacity="1" stroke-miterlimit="10" d="M 536.957031 448.886719 C 536.957031 450.222656 534.957031 450.222656 534.957031 448.886719 C 534.957031 447.554688 536.957031 447.554688 536.957031 448.886719 "/>
<path fill-rule="nonzero" fill="rgb(100%, 0%, 0%)" fill-opacity="1" stroke-width="0.01" stroke-linecap="butt" stroke-linejoin="miter" stroke="rgb(0%, 0%, 0%)" stroke-opacity="1" stroke-miterlimit="10" d="M 366.5625 217.175781 C 366.5625 218.507812 364.5625 218.507812 364.5625 217.175781 C 364.5625 215.84375 366.5625 215.84375 366.5625 217.175781 "/>
<path fill-rule="nonzero" fill="rgb(100%, 0%, 0%)" fill-opacity="1" stroke-width="0.01" stroke-linecap="butt" stroke-linejoin="miter" stroke="rgb(0%, 0%, 0%)" stroke-opacity="1" stroke-miterlimit="10" d="M 393.445312 210.9375 C 393.445312 212.273438 391.445312 212.273438 391.445312 210.9375 C 391.445312 209.605469 393.445312 209.605469 393.445312 210.9375 "/>
<path fill-rule="nonzero" fill="rgb(100%, 0%, 0%)" fill-opacity="1" stroke-width="0.01" stroke-linecap="butt" stroke-linejoin="miter" stroke="rgb(0%, 0%, 0%)" stroke-opacity="1" stroke-miterlimit="10" d="M 247.644531 158.570312 C 247.644531 159.902344 245.644531 159.902344 245.644531 158.570312 C 245.644531 157.238281 247.644531 157.238281 247.644531 158.570312 "/>
<path fill-rule="nonzero" fill="rgb(100%, 0%, 0%)" fill-opacity="1" stroke-width="0.01" stroke-linecap="butt" stroke-linejoin="miter" stroke="rgb(0%, 0%, 0%)" stroke-opacity="1" stroke-miterlimit="10" d="M 220.097656 161.792969 C 220.097656 163.125 218.097656 163.125 218.097656 161.792969 C 218.097656 160.460938 220.097656 160.460938 220.097656 161.792969 "/>
<path fill-rule="nonzero" fill="rgb(100%, 0%, 0%)" fill-opacity="1" stroke-width="0.01" stroke-linecap="butt" stroke-linejoin="miter" stroke="rgb(0%, 0%, 0%)" stroke-opacity="1" stroke-miterlimit="10" d="M 510.257812 298.183594 C 510.257812 299.515625 508.257812 299.515625 508.257812 298.183594 C 508.257812 296.851562 510.257812 296.851562 510.257812 298.183594 "/>
<path fill-rule="nonzero" fill="rgb(100%, 0%, 0%)" fill-opacity="1" stroke-width="0.01" stroke-linecap="butt" stroke-linejoin="miter" stroke="rgb(0%, 0%, 0%)" stroke-opacity="1" stroke-miterlimit="10" d="M 526.78125 318.652344 C 526.78125 319.984375 524.78125 319.984375 524.78125 318.652344 C 524.78125 317.316406 526.78125 317.316406 526.78125 318.652344 "/>
<path fill-rule="nonzero" fill="rgb(100%, 0%, 0%)" fill-opacity="1" stroke-width="0.01" stroke-linecap="butt" stroke-linejoin="miter" stroke="rgb(0%, 0%, 0%)" stroke-opacity="1" stroke-miterlimit="10" d="M 405.019531 83.695312 C 405.019531 85.027344 403.019531 85.027344 403.019531 83.695312 C 403.019531 82.359375 405.019531 82.359375 405.019531 83.695312 "/>
<path fill-rule="nonzero" fill="rgb(100%, 0%, 0%)" fill-opacity="1" stroke-width="0.01" stroke-linecap="butt" stroke-linejoin="miter" stroke="rgb(0%, 0%, 0%)" stroke-opacity="1" stroke-miterlimit="10" d="M 427.476562 68.777344 C 427.476562 70.109375 425.476562 70.109375 425.476562 68.777344 C 425.476562 67.441406 427.476562 67.441406 427.476562 68.777344 "/>
<path fill-rule="nonzero" fill="rgb(100%, 0%, 0%)" fill-opacity="1" stroke-width="0.01" stroke-linecap="butt" stroke-linejoin="miter" stroke="rgb(0%, 0%, 0%)" stroke-opacity="1" stroke-miterlimit="10" d="M 393.765625 353.816406 C 393.765625 355.148438 391.765625 355.148438 391.765625 353.816406 C 391.765625 352.484375 393.765625 352.484375 393.765625 353.816406 "/>
<path fill-rule="nonzero" fill="rgb(100%, 0%, 0%)" fill-opacity="1" stroke-width="0.01" stroke-linecap="butt" stroke-linejoin="miter" stroke="rgb(0%, 0%, 0%)" stroke-opacity="1" stroke-miterlimit="10" d="M 381.613281 376.613281 C 381.613281 377.949219 379.613281 377.949219 379.613281 376.613281 C 379.613281 375.28125 381.613281 375.28125 381.613281 376.613281 "/>
<path fill-rule="nonzero" fill="rgb(100%, 0%, 0%)" fill-opacity="1" stroke-width="0.01" stroke-linecap="butt" stroke-linejoin="miter" stroke="rgb(0%, 0%, 0%)" stroke-opacity="1" stroke-miterlimit="10" d="M 50.589844 239.066406 C 50.589844 240.398438 48.589844 240.398438 48.589844 239.066406 C 48.589844 237.730469 50.589844 237.730469 50.589844 239.066406 "/>
<path fill-rule="nonzero" fill="rgb(100%, 0%, 0%)" fill-opacity="1" stroke-width="0.01" stroke-linecap="butt" stroke-linejoin="miter" stroke="rgb(0%, 0%, 0%)" stroke-opacity="1" stroke-miterlimit="10" d="M 28.882812 273.945312 C 28.882812 275.277344 26.882812 275.277344 26.882812 273.945312 C 26.882812 272.613281 28.882812 272.613281 28.882812 273.945312 "/>
<path fill-rule="nonzero" fill="rgb(100%, 0%, 0%)" fill-opacity="1" stroke-width="0.01" stroke-linecap="butt" stroke-linejoin="miter" stroke="rgb(0%, 0%, 0%)" stroke-opacity="1" stroke-miterlimit="10" d="M 225.726562 348.679688 C 225.726562 350.011719 223.726562 350.011719 223.726562 348.679688 C 223.726562 347.347656 225.726562 347.347656 225.726562 348.679688 "/>
<path fill-rule="nonzero" fill="rgb(100%, 0%, 0%)" fill-opacity="1" stroke-width="0.01" stroke-linecap="butt" stroke-linejoin="miter" stroke="rgb(0%, 0%, 0%)" stroke-opacity="1" stroke-miterlimit="10" d="M 205.59375 313.722656 C 205.59375 315.058594 203.59375 315.058594 203.59375 313.722656 C 203.59375 312.390625 205.59375 312.390625 205.59375 313.722656 "/>
<path fill-rule="nonzero" fill="rgb(100%, 0%, 0%)" fill-opacity="1" stroke-width="0.01" stroke-linecap="butt" stroke-linejoin="miter" stroke="rgb(0%, 0%, 0%)" stroke-opacity="1" stroke-miterlimit="10" d="M 262.800781 20 C 262.800781 21.332031 260.800781 21.332031 260.800781 20 C 260.800781 18.667969 262.800781 18.667969 262.800781 20 "/>
<path fill-rule="nonzero" fill="rgb(100%, 0%, 0%)" fill-opacity="1" stroke-width="0.01" stroke-linecap="butt" stroke-linejoin="miter" stroke="rgb(0%, 0%, 0%)" stroke-opacity="1" stroke-miterlimit="10" d="M 238.105469 31.644531 C 238.105469 32.976562 236.105469 32.976562 236.105469 31.644531 C 236.105469 30.308594 238.105469 30.308594 238.105469 31.644531 "/>
<path fill-rule="nonzero" fill="rgb(100%, 0%, 0%)" fill-opacity="1" stroke-width="0.01" stroke-linecap="butt" stroke-linejoin="miter" stroke="rgb(0%, 0%, 0%)" stroke-opacity="1" stroke-miterlimit="10" d="M 369.058594 570.195312 C 369.058594 571.53125 367.058594 571.53125 367.058594 570.195312 C 367.058594 568.863281 369.058594 568.863281 369.058594 570.195312 "/>
<path fill-rule="nonzero" fill="rgb(100%, 0%, 0%)" fill-opacity="1" stroke-width="0.01" stroke-linecap="butt" stroke-linejoin="miter" stroke="rgb(0%, 0%, 0%)" stroke-opacity="1" stroke-miterlimit="10" d="M 343.277344 580 C 343.277344 581.332031 341.277344 581.332031 341.277344 580 C 341.277344 578.667969 343.277344 578.667969 343.277344 580 "/>
<path fill-rule="nonzero" fill="rgb(100%, 0%, 0%)" fill-opacity="1" stroke-width="0.01" stroke-linecap="butt" stroke-linejoin="miter" stroke="rgb(0%, 0%, 0%)" stroke-opacity="1" stroke-miterlimit="10" d="M 581 196.125 C 581 197.457031 579 197.457031 579 196.125 C 579 194.792969 581 194.792969 581 196.125 "/>
<path fill-rule="nonzero" fill="rgb(100%, 0%, 0%)" fill-opacity="1" stroke-width="0.01" stroke-linecap="butt" stroke-linejoin="miter" stroke="rgb(0%, 0%, 0%)" stroke-opacity="1" stroke-miterlimit="10" d="M 563.246094 176.472656 C 563.246094 177.808594 561.246094 177.808594 561.246094 176.472656 C 561.246094 175.140625 563.246094 175.140625 563.246094 176.472656 "/>
<path fill-rule="nonzero" fill="rgb(100%, 0%, 0%)" fill-opacity="1" stroke-width="0.01" stroke-linecap="butt" stroke-linejoin="miter" stroke="rgb(0%, 0%, 0%)" stroke-opacity="1" stroke-miterlimit="10" d="M 89.671875 471.070312 C 89.671875 472.40625 87.671875 472.40625 87.671875 471.070312 C 87.671875 469.738281 89.671875 469.738281 89.671875 471.070312 "/>
<path fill-rule="nonzero" fill="rgb(100%, 0%, 0%)" fill-opacity="1" stroke-width="0.01" stroke-linecap="butt" stroke-linejoin="miter" stroke="rgb(0%, 0%, 0%)" stroke-opacity="1" stroke-miterlimit="10" d="M 115.132812 481.367188 C 115.132812 482.699219 113.132812 482.699219 113.132812 481.367188 C 113.132812 480.03125 115.132812 480.03125 115.132812 481.367188 "/>
<path fill-rule="nonzero" fill="rgb(100%, 0%, 0%)" fill-opacity="1" stroke-width="0.01" stroke-linecap="butt" stroke-linejoin="miter" stroke="rgb(0%, 0%, 0%)" stroke-opacity="1" stroke-miterlimit="10" d="M 91.601562 54.667969 C 91.601562 56.003906 89.601562 56.003906 89.601562 54.667969 C 89.601562 53.335938 91.601562 53.335938 91.601562 54.667969 "/>
<path fill-rule="nonzero" fill="rgb(100%, 0%, 0%)" fill-opacity="1" stroke-width="0.01" stroke-linecap="butt" stroke-linejoin="miter" stroke="rgb(0%, 0%, 0%)" stroke-opacity="1" stroke-miterlimit="10" d="M 80.535156 78.039062 C 80.535156 79.371094 78.535156 79.371094 78.535156 78.039062 C 78.535156 76.707031 80.535156 76.707031 80.535156 78.039062 "/>
<path fill-rule="nonzero" fill="rgb(100%, 0%, 0%)" fill-opacity="1" stroke-width="0.01" stroke-linecap="butt" stroke-linejoin="miter" stroke="rgb(0%, 0%, 0%)" stroke-opacity="1" stroke-miterlimit="10" d="M 58.351562 266.273438 C 58.351562 267.605469 56.351562 267.605469 56.351562 266.273438 C 56.351562 264.9375 58.351562 264.9375 58.351562 266.273438 "/>
<path fill-rule="nonzero" fill="rgb(100%, 0%, 0%)" fill-opacity="1" stroke-width="0.01" stroke-linecap="butt" stroke-linejoin="miter" stroke="rgb(0%, 0%, 0%)" stroke-opacity="1" stroke-miterlimit="10" d="M 21 246.644531 C 21 247.980469 19 247.980469 19 246.644531 C 19 245.3125 21 245.3125 21 246.644531 "/>
<path fill-rule="nonzero" fill="rgb(100%, 0%, 0%)" fill-opacity="1" stroke-width="0.01" stroke-linecap="butt" stroke-linejoin="miter" stroke="rgb(0%, 0%, 0%)" stroke-opacity="1" stroke-miterlimit="10" d="M 196.390625 340.636719 C 196.390625 341.96875 194.390625 341.96875 194.390625 340.636719 C 194.390625 339.304688 196.390625 339.304688 196.390625 340.636719 "/>
<path fill-rule="nonzero" fill="rgb(100%, 0%, 0%)" fill-opacity="1" stroke-width="0.01" stroke-linecap="butt" stroke-linejoin="miter" stroke="rgb(0%, 0%, 0%)" stroke-opacity="1" stroke-miterlimit="10" d="M 234.894531 321.835938 C 234.894531 323.167969 232.894531 323.167969 232.894531 321.835938 C 232.894531 320.503906 234.894531 320.503906 234.894531 321.835938 "/>
<path fill-rule="nonzero" fill="rgb(100%, 0%, 0%)" fill-opacity="1" stroke-width="0.01" stroke-linecap="butt" stroke-linejoin="miter" stroke="rgb(0%, 0%, 0%)" stroke-opacity="1" stroke-miterlimit="10" d="M 299.9375 472.613281 C 299.9375 473.949219 297.9375 473.949219 297.9375 472.613281 C 297.9375 471.28125 299.9375 471.28125 299.9375 472.613281 "/>
<path fill-rule="nonzero" fill="rgb(100%, 0%, 0%)" fill-opacity="1" stroke-width="0.01" stroke-linecap="butt" stroke-linejoin="miter" stroke="rgb(0%, 0%, 0%)" stroke-opacity="1" stroke-miterlimit="10" d="M 273.734375 481.273438 C 273.734375 482.609375 271.734375 482.609375 271.734375 481.273438 C 271.734375 479.941406 273.734375 479.941406 273.734375 481.273438 "/>
</svg>
