<?xml version="1.0" encoding="UTF-8"?>
<svg xmlns="http://www.w3.org/2000/svg" xmlns:xlink="http://www.w3.org/1999/xlink" width="600" height="600" viewBox="0 0 600 600">
<rect x="-60" y="-60" width="720" height="720" fill="rgb(100%, 100%, 100%)" fill-opacity="1"/>
<path fill="none" stroke-width="0.2" stroke-linecap="butt" stroke-linejoin="miter" stroke="rgb(26.666667%, 26.666667%, 26.666667%)" stroke-opacity="1" stroke-miterlimit="10" d="M 553.371094 488.285156 L 539.941406 510.765625 "/>
<path fill-rule="nonzero" fill="rgb(26.666667%, 26.666667%, 26.666667%)" fill-opacity="1" d="M 539.871094 510.886719 L 539.902344 510.742188 L 539.980469 510.789062 L 539.871094 510.886719 "/>
<path fill="none" stroke-width="0.2" stroke-linecap="butt" stroke-linejoin="miter" stroke="rgb(26.666667%, 26.666667%, 26.666667%)" stroke-opacity="1" stroke-miterlimit="10" d="M 103.492188 370.726562 L 125.632812 358.332031 "/>
<path fill-rule="nonzero" fill="rgb(26.666667%, 26.666667%, 26.666667%)" fill-opacity="1" d="M 125.757812 358.261719 L 125.65625 358.371094 L 125.609375 358.289062 L 125.757812 358.261719 "/>
<path fill="none" stroke-width="0.2" stroke-linecap="butt" stroke-linejoin="miter" stroke="rgb(26.666667%, 26.666667%, 26.666667%)" stroke-opacity="1" stroke-miterlimit="10" d="M 452.414062 280.761719 L 471.101562 298.503906 "/>
<path fill-rule="nonzero" fill="rgb(26.666667%, 26.666667%, 26.666667%)" fill-opacity="1" d="M 471.207031 298.601562 L 471.070312 298.535156 L 471.132812 298.46875 L 471.207031 298.601562 "/>
<path fill="none" stroke-width="0.2" stroke-linecap="butt" stroke-linejoin="miter" stroke="rgb(26.666667%, 26.666667%, 26.666667%)" stroke-opacity="1" stroke-miterlimit="10" d="M 353.933594 173.972656 L 346.273438 148.863281 "/>
<path fill-rule="nonzero" fill="rgb(26.666667%, 26.666667%, 26.666667%)" fill-opacity="1" d="M 346.230469 148.726562 L 346.316406 148.847656 L 346.230469 148.875 L 346.230469 148.726562 "/>
<path fill="none" stroke-width="0.2" stroke-linecap="butt" stroke-linejoin="miter" stroke="rgb(26.666667%, 26.666667%, 26.666667%)" stroke-opacity="1" stroke-miterlimit="10" d="M 184.308594 186.441406 L 202.507812 224.101562 "/>
<path fill-rule="nonzero" fill="rgb(26.666667%, 26.666667%, 26.666667%)" fill-opacity="1" d="M 202.570312 224.230469 L 202.464844 224.121094 L 202.550781 224.082031 L 202.570312 224.230469 "/>
<path fill="none" stroke-width="0.2" stroke-linecap="butt" stroke-linejoin="miter" stroke="rgb(26.666667%, 26.666667%, 26.666667%)" stroke-opacity="1" stroke-miterlimit="10" d="M 35.199219 477.699219 L 20.636719 456.050781 "/>
<path fill-rule="nonzero" fill="rgb(26.666667%, 26.666667%, 26.666667%)" fill-opacity="1" d="M 20.558594 455.933594 L 20.675781 456.023438 L 20.597656 456.078125 L 20.558594 455.933594 "/>
<path fill="none" stroke-width="0.2" stroke-linecap="butt" stroke-linejoin="miter" stroke="rgb(26.666667%, 26.666667%, 26.666667%)" stroke-opacity="1" stroke-miterlimit="10" d="M 464.214844 82.335938 L 472.324219 107.332031 "/>
<path fill-rule="nonzero" fill="rgb(26.666667%, 26.666667%, 26.666667%)" fill-opacity="1" d="M 472.367188 107.46875 L 472.28125 107.347656 L 472.371094 107.320312 L 472.367188 107.46875 "/>
<path fill="none" stroke-width="0.2" stroke-linecap="butt" stroke-linejoin="miter" stroke="rgb(26.666667%, 26.666667%, 26.666667%)" stroke-opacity="1" stroke-miterlimit="10" d="M 256.269531 27.5 L 280.640625 20.324219 "/>
<path fill-rule="nonzero" fill="rgb(26.666667%, 26.666667%, 26.666667%)" fill-opacity="1" d="M 280.777344 20.28125 L 280.652344 20.367188 L 280.628906 20.277344 L 280.777344 20.28125 "/>
<path fill="none" stroke-width="0.2" stroke-linecap="butt" stroke-linejoin="miter" stroke="rgb(26.666667%, 26.666667%, 26.666667%)" stroke-opacity="1" stroke-miterlimit="10" d="M 240.464844 422.601562 L 247.835938 447.742188 "/>
<path fill-rule="nonzero" fill="rgb(26.666667%, 26.666667%, 26.666667%)" fill-opacity="1" d="M 247.875 447.878906 L 247.792969 447.753906 L 247.882812 447.730469 L 247.875 447.878906 "/>
<path fill="none" stroke-width="0.2" stroke-linecap="butt" stroke-linejoin="miter" stroke="rgb(26.666667%, 26.666667%, 26.666667%)" stroke-opacity="1" stroke-miterlimit="10" d="M 580 246.710938 L 578.808594 220.324219 "/>
<path fill-rule="nonzero" fill="rgb(26.666667%, 26.666667%, 26.666667%)" fill-opacity="1" d="M 578.804688 220.179688 L 578.855469 220.320312 L 578.765625 220.324219 L 578.804688 220.179688 "/>
<path fill="none" stroke-width="0.2" stroke-linecap="butt" stroke-linejoin="miter" stroke="rgb(26.666667%, 26.666667%, 26.666667%)" stroke-opacity="1" stroke-miterlimit="10" d="M 27.601562 211.367188 L 35.550781 186.238281 "/>
<path fill-rule="nonzero" fill="rgb(26.666667%, 26.666667%, 26.666667%)" fill-opacity="1" d="M 35.59375 186.101562 L 35.59375 186.25 L 35.507812 186.222656 L 35.59375 186.101562 "/>
<path fill="none" stroke-width="0.2" stroke-linecap="butt" stroke-linejoin="miter" stroke="rgb(26.666667%, 26.666667%, 26.666667%)" stroke-opacity="1" stroke-miterlimit="10" d="M 337.972656 567.175781 L 362.972656 570.671875 "/>
<path fill-rule="nonzero" fill="rgb(26.666667%, 26.666667%, 26.666667%)" fill-opacity="1" d="M 363.117188 570.691406 L 362.96875 570.71875 L 362.980469 570.625 L 363.117188 570.691406 "/>
<path fill="none" stroke-width="0.2" stroke-linecap="butt" stroke-linejoin="miter" stroke="rgb(26.666667%, 26.666667%, 26.666667%)" stroke-opacity="1" stroke-miterlimit="10" d="M 173.609375 559.34375 L 190.328125 579.128906 "/>
<path fill-rule="nonzero" fill="rgb(26.666667%, 26.666667%, 26.666667%)" fill-opacity="1" d="M 190.421875 579.234375 L 190.292969 579.15625 L 190.363281 579.097656 L 190.421875 579.234375 "/>
<path fill="none" stroke-width="0.2" stroke-linecap="butt" stroke-linejoin="miter" stroke="rgb(26.666667%, 26.666667%, 26.666667%)" stroke-opacity="1" stroke-miterlimit="10" d="M 334.746094 349.578125 L 326.09375 324.878906 "/>
<path fill-rule="nonzero" fill="rgb(26.666667%, 26.666667%, 26.666667%)" fill-opacity="1" d="M 326.046875 324.746094 L 326.136719 324.863281 L 326.050781 324.894531 L 326.046875 324.746094 "/>
<path fill="none" stroke-width="0.2" stroke-linecap="butt" stroke-linejoin="miter" stroke="rgb(26.666667%, 26.666667%, 26.666667%)" stroke-opacity="1" stroke-miterlimit="10" d="M 434.492188 449.726562 L 440.550781 424.191406 "/>
<path fill-rule="nonzero" fill="rgb(26.666667%, 26.666667%, 26.666667%)" fill-opacity="1" d="M 440.582031 424.050781 L 440.59375 424.199219 L 440.503906 424.179688 L 440.582031 424.050781 "/>
<path fill="none" stroke-width="0.2" stroke-linecap="butt" stroke-linejoin="miter" stroke="rgb(26.666667%, 26.666667%, 26.666667%)" stroke-opacity="1" stroke-miterlimit="10" d="M 211.890625 196.222656 L 176.414062 214.910156 "/>
<path fill-rule="nonzero" fill="rgb(26.666667%, 26.666667%, 26.666667%)" fill-opacity="1" d="M 176.289062 214.976562 L 176.390625 214.867188 L 176.433594 214.949219 L 176.289062 214.976562 "/>
<path fill-rule="nonzero" fill="rgb(100%, 0%, 0%)" fill-opacity="1" stroke-width="0.01" stroke-linecap="butt" stroke-linejoin="miter" stroke="rgb(0%, 0%, 0%)" stroke-opacity="1" stroke-miterlimit="10" d="M 554.371094 488.285156 C 554.371094 489.621094 552.371094 489.621094 552.371094 488.285156 C 552.371094 486.953125 554.371094 486.953125 554.371094 488.285156 "/>
<path fill-rule="nonzero" fill="rgb(100%, 0%, 0%)" fill-opacity="1" stroke-width="0.01" stroke-linecap="butt" stroke-linejoin="miter" stroke="rgb(0%, 0%, 0%)" stroke-opacity="1" stroke-miterlimit="10" d="M 540.355469 511.746094 C 540.355469 513.078125 538.355469 513.078125 538.355469 511.746094 C 538.355469 510.414062 540.355469 510.414062 540.355469 511.746094 "/>
<path fill-rule="nonzero" fill="rgb(100%, 0%, 0%)" fill-opacity="1" stroke-width="0.01" stroke-linecap="butt" stroke-linejoin="miter" stroke="rgb(0%, 0%, 0%)" stroke-opacity="1" stroke-miterlimit="10" d="M 104.492188 370.726562 C 104.492188 372.058594 102.492188 372.058594 102.492188 370.726562 C 102.492188 369.394531 104.492188 369.394531 104.492188 370.726562 "/>
<path fill-rule="nonzero" fill="rgb(100%, 0%, 0%)" fill-opacity="1" stroke-width="0.01" stroke-linecap="butt" stroke-linejoin="miter" stroke="rgb(0%, 0%, 0%)" stroke-opacity="1" stroke-miterlimit="10" d="M 127.628906 357.773438 C 127.628906 359.105469 125.628906 359.105469 125.628906 357.773438 C 125.628906 356.441406 127.628906 356.441406 127.628906 357.773438 "/>
<path fill-rule="nonzero" fill="rgb(100%, 0%, 0%)" fill-opacity="1" stroke-width="0.01" stroke-linecap="butt" stroke-linejoin="miter" stroke="rgb(0%, 0%, 0%)" stroke-opacity="1" stroke-miterlimit="10" d="M 453.414062 280.761719 C 453.414062 282.09375 451.414062 282.09375 451.414062 280.761719 C 451.414062 279.425781 453.414062 279.425781 453.414062 280.761719 "/>
<path fill-rule="nonzero" fill="rgb(100%, 0%, 0%)" fill-opacity="1" stroke-width="0.01" stroke-linecap="butt" stroke-linejoin="miter" stroke="rgb(0%, 0%, 0%)" stroke-opacity="1" stroke-miterlimit="10" d="M 472.929688 299.289062 C 472.929688 300.621094 470.929688 300.621094 470.929688 299.289062 C 470.929688 297.957031 472.929688 297.957031 472.929688 299.289062 "/>
<path fill-rule="nonzero" fill="rgb(100%, 0%, 0%)" fill-opacity="1" stroke-width="0.01" stroke-linecap="butt" stroke-linejoin="miter" stroke="rgb(0%, 0%, 0%)" stroke-opacity="1" stroke-miterlimit="10" d="M 354.933594 173.972656 C 354.933594 175.304688 352.933594 175.304688 352.933594 173.972656 C 352.933594 172.636719 354.933594 172.636719 354.933594 173.972656 "/>
<path fill-rule="nonzero" fill="rgb(100%, 0%, 0%)" fill-opacity="1" stroke-width="0.01" stroke-linecap="butt" stroke-linejoin="miter" stroke="rgb(0%, 0%, 0%)" stroke-opacity="1" stroke-miterlimit="10" d="M 346.941406 147.769531 C 346.941406 149.101562 344.941406 149.101562 344.941406 147.769531 C 344.941406 146.4375 346.941406 146.4375 346.941406 147.769531 "/>
<path fill-rule="nonzero" fill="rgb(100%, 0%, 0%)" fill-opacity="1" stroke-width="0.01" stroke-linecap="butt" stroke-linejoin="miter" stroke="rgb(0%, 0%, 0%)" stroke-opacity="1" stroke-miterlimit="10" d="M 185.308594 186.441406 C 185.308594 187.777344 183.308594 187.777344 183.308594 186.441406 C 183.308594 185.109375 185.308594 185.109375 185.308594 186.441406 "/>
<path fill-rule="nonzero" fill="rgb(100%, 0%, 0%)" fill-opacity="1" stroke-width="0.01" stroke-linecap="butt" stroke-linejoin="miter" stroke="rgb(0%, 0%, 0%)" stroke-opacity="1" stroke-miterlimit="10" d="M 204.003906 225.128906 C 204.003906 226.464844 202.003906 226.464844 202.003906 225.128906 C 202.003906 223.796875 204.003906 223.796875 204.003906 225.128906 "/>
<path fill-rule="nonzero" fill="rgb(100%, 0%, 0%)" fill-opacity="1" stroke-width="0.01" stroke-linecap="butt" stroke-linejoin="miter" stroke="rgb(0%, 0%, 0%)" stroke-opacity="1" stroke-miterlimit="10" d="M 36.199219 477.699219 C 36.199219 479.03125 34.199219 479.03125 34.199219 477.699219 C 34.199219 476.363281 36.199219 476.363281 36.199219 477.699219 "/>
<path fill-rule="nonzero" fill="rgb(100%, 0%, 0%)" fill-opacity="1" stroke-width="0.01" stroke-linecap="butt" stroke-linejoin="miter" stroke="rgb(0%, 0%, 0%)" stroke-opacity="1" stroke-miterlimit="10" d="M 21 455.101562 C 21 456.4375 19 456.4375 19 455.101562 C 19 453.769531 21 453.769531 21 455.101562 "/>
<path fill-rule="nonzero" fill="rgb(100%, 0%, 0%)" fill-opacity="1" stroke-width="0.01" stroke-linecap="butt" stroke-linejoin="miter" stroke="rgb(0%, 0%, 0%)" stroke-opacity="1" stroke-miterlimit="10" d="M 465.214844 82.335938 C 465.214844 83.671875 463.214844 83.671875 463.214844 82.335938 C 463.214844 81.003906 465.214844 81.003906 465.214844 82.335938 "/>
<path fill-rule="nonzero" fill="rgb(100%, 0%, 0%)" fill-opacity="1" stroke-width="0.01" stroke-linecap="butt" stroke-linejoin="miter" stroke="rgb(0%, 0%, 0%)" stroke-opacity="1" stroke-miterlimit="10" d="M 473.679688 108.417969 C 473.679688 109.753906 471.679688 109.753906 471.679688 108.417969 C 471.679688 107.085938 473.679688 107.085938 473.679688 108.417969 "/>
<path fill-rule="nonzero" fill="rgb(100%, 0%, 0%)" fill-opacity="1" stroke-width="0.01" stroke-linecap="butt" stroke-linejoin="miter" stroke="rgb(0%, 0%, 0%)" stroke-opacity="1" stroke-miterlimit="10" d="M 257.269531 27.5 C 257.269531 28.835938 255.269531 28.835938 255.269531 27.5 C 255.269531 26.167969 257.269531 26.167969 257.269531 27.5 "/>
<path fill-rule="nonzero" fill="rgb(100%, 0%, 0%)" fill-opacity="1" stroke-width="0.01" stroke-linecap="butt" stroke-linejoin="miter" stroke="rgb(0%, 0%, 0%)" stroke-opacity="1" stroke-miterlimit="10" d="M 282.738281 20 C 282.738281 21.332031 280.738281 21.332031 280.738281 20 C 280.738281 18.667969 282.738281 18.667969 282.738281 20 "/>
<path fill-rule="nonzero" fill="rgb(100%, 0%, 0%)" fill-opacity="1" stroke-width="0.01" stroke-linecap="butt" stroke-linejoin="miter" stroke="rgb(0%, 0%, 0%)" stroke-opacity="1" stroke-miterlimit="10" d="M 241.464844 422.601562 C 241.464844 423.933594 239.464844 423.933594 239.464844 422.601562 C 239.464844 421.265625 241.464844 421.265625 241.464844 422.601562 "/>
<path fill-rule="nonzero" fill="rgb(100%, 0%, 0%)" fill-opacity="1" stroke-width="0.01" stroke-linecap="butt" stroke-linejoin="miter" stroke="rgb(0%, 0%, 0%)" stroke-opacity="1" stroke-miterlimit="10" d="M 249.160156 448.839844 C 249.160156 450.171875 247.160156 450.171875 247.160156 448.839844 C 247.160156 447.503906 249.160156 447.503906 249.160156 448.839844 "/>
<path fill-rule="nonzero" fill="rgb(100%, 0%, 0%)" fill-opacity="1" stroke-width="0.01" stroke-linecap="butt" stroke-linejoin="miter" stroke="rgb(0%, 0%, 0%)" stroke-opacity="1" stroke-miterlimit="10" d="M 581 246.710938 C 581 248.042969 579 248.042969 579 246.710938 C 579 245.375 581 245.375 581 246.710938 "/>
<path fill-rule="nonzero" fill="rgb(100%, 0%, 0%)" fill-opacity="1" stroke-width="0.01" stroke-linecap="butt" stroke-linejoin="miter" stroke="rgb(0%, 0%, 0%)" stroke-opacity="1" stroke-miterlimit="10" d="M 579.757812 219.183594 C 579.757812 220.515625 577.757812 220.515625 577.757812 219.183594 C 577.757812 217.847656 579.757812 217.847656 579.757812 219.183594 "/>
<path fill-rule="nonzero" fill="rgb(100%, 0%, 0%)" fill-opacity="1" stroke-width="0.01" stroke-linecap="butt" stroke-linejoin="miter" stroke="rgb(0%, 0%, 0%)" stroke-opacity="1" stroke-miterlimit="10" d="M 28.601562 211.367188 C 28.601562 212.699219 26.601562 212.699219 26.601562 211.367188 C 26.601562 210.035156 28.601562 210.035156 28.601562 211.367188 "/>
<path fill-rule="nonzero" fill="rgb(100%, 0%, 0%)" fill-opacity="1" stroke-width="0.01" stroke-linecap="butt" stroke-linejoin="miter" stroke="rgb(0%, 0%, 0%)" stroke-opacity="1" stroke-miterlimit="10" d="M 36.894531 185.148438 C 36.894531 186.480469 34.894531 186.480469 34.894531 185.148438 C 34.894531 183.8125 36.894531 183.8125 36.894531 185.148438 "/>
<path fill-rule="nonzero" fill="rgb(100%, 0%, 0%)" fill-opacity="1" stroke-width="0.01" stroke-linecap="butt" stroke-linejoin="miter" stroke="rgb(0%, 0%, 0%)" stroke-opacity="1" stroke-miterlimit="10" d="M 338.972656 567.175781 C 338.972656 568.511719 336.972656 568.511719 336.972656 567.175781 C 336.972656 565.84375 338.972656 565.84375 338.972656 567.175781 "/>
<path fill-rule="nonzero" fill="rgb(100%, 0%, 0%)" fill-opacity="1" stroke-width="0.01" stroke-linecap="butt" stroke-linejoin="miter" stroke="rgb(0%, 0%, 0%)" stroke-opacity="1" stroke-miterlimit="10" d="M 365.105469 570.832031 C 365.105469 572.164062 363.105469 572.164062 363.105469 570.832031 C 363.105469 569.496094 365.105469 569.496094 365.105469 570.832031 "/>
<path fill-rule="nonzero" fill="rgb(100%, 0%, 0%)" fill-opacity="1" stroke-width="0.01" stroke-linecap="butt" stroke-linejoin="miter" stroke="rgb(0%, 0%, 0%)" stroke-opacity="1" stroke-miterlimit="10" d="M 174.609375 559.34375 C 174.609375 560.679688 172.609375 560.679688 172.609375 559.34375 C 172.609375 558.011719 174.609375 558.011719 174.609375 559.34375 "/>
<path fill-rule="nonzero" fill="rgb(100%, 0%, 0%)" fill-opacity="1" stroke-width="0.01" stroke-linecap="butt" stroke-linejoin="miter" stroke="rgb(0%, 0%, 0%)" stroke-opacity="1" stroke-miterlimit="10" d="M 192.066406 580 C 192.066406 581.332031 190.066406 581.332031 190.066406 580 C 190.066406 578.667969 192.066406 578.667969 192.066406 580 "/>
<path fill-rule="nonzero" fill="rgb(100%, 0%, 0%)" fill-opacity="1" stroke-width="0.01" stroke-linecap="butt" stroke-linejoin="miter" stroke="rgb(0%, 0%, 0%)" stroke-opacity="1" stroke-miterlimit="10" d="M 335.746094 349.578125 C 335.746094 350.914062 333.746094 350.914062 333.746094 349.578125 C 333.746094 348.246094 335.746094 348.246094 335.746094 349.578125 "/>
<path fill-rule="nonzero" fill="rgb(100%, 0%, 0%)" fill-opacity="1" stroke-width="0.01" stroke-linecap="butt" stroke-linejoin="miter" stroke="rgb(0%, 0%, 0%)" stroke-opacity="1" stroke-miterlimit="10" d="M 326.714844 323.800781 C 326.714844 325.136719 324.714844 325.136719 324.714844 323.800781 C 324.714844 322.46875 326.714844 322.46875 326.714844 323.800781 "/>
<path fill-rule="nonzero" fill="rgb(100%, 0%, 0%)" fill-opacity="1" stroke-width="0.01" stroke-linecap="butt" stroke-linejoin="miter" stroke="rgb(0%, 0%, 0%)" stroke-opacity="1" stroke-miterlimit="10" d="M 435.492188 449.726562 C 435.492188 451.058594 433.492188 451.058594 433.492188 449.726562 C 433.492188 448.394531 435.492188 448.394531 435.492188 449.726562 "/>
<path fill-rule="nonzero" fill="rgb(100%, 0%, 0%)" fill-opacity="1" stroke-width="0.01" stroke-linecap="butt" stroke-linejoin="miter" stroke="rgb(0%, 0%, 0%)" stroke-opacity="1" stroke-miterlimit="10" d="M 441.8125 423.078125 C 441.8125 424.410156 439.8125 424.410156 439.8125 423.078125 C 439.8125 421.746094 441.8125 421.746094 441.8125 423.078125 "/>
<path fill-rule="nonzero" fill="rgb(100%, 0%, 0%)" fill-opacity="1" stroke-width="0.01" stroke-linecap="butt" stroke-linejoin="miter" stroke="rgb(0%, 0%, 0%)" stroke-opacity="1" stroke-miterlimit="10" d="M 212.890625 196.222656 C 212.890625 197.558594 210.890625 197.558594 210.890625 196.222656 C 210.890625 194.890625 212.890625 194.890625 212.890625 196.222656 "/>
<path fill-rule="nonzero" fill="rgb(100%, 0%, 0%)" fill-opacity="1" stroke-width="0.01" stroke-linecap="butt" stroke-linejoin="miter" stroke="rgb(0%, 0%, 0%)" stroke-opacity="1" stroke-miterlimit="10" d="M 176.402344 215.441406 C 176.402344 216.777344 174.402344 216.777344 174.402344 215.441406 C 174.402344 214.109375 176.402344 214.109375 176.402344 215.441406 "/>
</svg>
