<?xml version="1.0" encoding="UTF-8"?>
<svg xmlns="http://www.w3.org/2000/svg" xmlns:xlink="http://www.w3.org/1999/xlink" width="600" height="600" viewBox="0 0 600 600">
<rect x="-60" y="-60" width="720" height="720" fill="rgb(100%, 100%, 100%)" fill-opacity="1"/>
<path fill-rule="nonzero" fill="rgb(100%, 0%, 0%)" fill-opacity="1" stroke-width="0.01" stroke-linecap="butt" stroke-linejoin="miter" stroke="rgb(0%, 0%, 0%)" stroke-opacity="1" stroke-miterlimit="10" d="M 581 294.875 C 581 296.207031 579 296.207031 579 294.875 C 579 293.542969 581 293.542969 581 294.875 "/>
<path fill-rule="nonzero" fill="rgb(100%, 0%, 0%)" fill-opacity="1" stroke-width="0.01" stroke-linecap="butt" stroke-linejoin="miter" stroke="rgb(0%, 0%, 0%)" stroke-opacity="1" stroke-miterlimit="10" d="M 394.617188 531.027344 C 394.617188 532.363281 392.617188 532.363281 392.617188 531.027344 C 392.617188 529.695312 394.617188 529.695312 394.617188 531.027344 "/>
<path fill-rule="nonzero" fill="rgb(100%, 0%, 0%)" fill-opacity="1" stroke-width="0.01" stroke-linecap="butt" stroke-linejoin="miter" stroke="rgb(0%, 0%, 0%)" stroke-opacity="1" stroke-miterlimit="10" d="M 499.664062 526.941406 C 499.664062 528.273438 497.664062 528.273438 497.664062 526.941406 C 497.664062 525.609375 499.664062 525.609375 499.664062 526.941406 "/>
<path fill-rule="nonzero" fill="rgb(100%, 0%, 0%)" fill-opacity="1" stroke-width="0.01" stroke-linecap="butt" stroke-linejoin="miter" stroke="rgb(0%, 0%, 0%)" stroke-opacity="1" stroke-miterlimit="10" d="M 106.019531 253.171875 C 106.019531 254.503906 104.019531 254.503906 104.019531 253.171875 C 104.019531 251.839844 106.019531 251.839844 106.019531 253.171875 "/>
<path fill-rule="nonzero" fill="rgb(100%, 0%, 0%)" fill-opacity="1" stroke-width="0.01" stroke-linecap="butt" stroke-linejoin="miter" stroke="rgb(0%, 0%, 0%)" stroke-opacity="1" stroke-miterlimit="10" d="M 101.929688 100.976562 C 101.929688 102.308594 99.929688 102.308594 99.929688 100.976562 C 99.929688 99.644531 101.929688 99.644531 101.929688 100.976562 "/>
<path fill-rule="nonzero" fill="rgb(100%, 0%, 0%)" fill-opacity="1" stroke-width="0.01" stroke-linecap="butt" stroke-linejoin="miter" stroke="rgb(0%, 0%, 0%)" stroke-opacity="1" stroke-miterlimit="10" d="M 297.175781 381.996094 C 297.175781 383.328125 295.175781 383.328125 295.175781 381.996094 C 295.175781 380.660156 297.175781 380.660156 297.175781 381.996094 "/>
<path fill-rule="nonzero" fill="rgb(100%, 0%, 0%)" fill-opacity="1" stroke-width="0.01" stroke-linecap="butt" stroke-linejoin="miter" stroke="rgb(0%, 0%, 0%)" stroke-opacity="1" stroke-miterlimit="10" d="M 198.199219 406.960938 C 198.199219 408.292969 196.199219 408.292969 196.199219 406.960938 C 196.199219 405.625 198.199219 405.625 198.199219 406.960938 "/>
<path fill-rule="nonzero" fill="rgb(100%, 0%, 0%)" fill-opacity="1" stroke-width="0.01" stroke-linecap="butt" stroke-linejoin="miter" stroke="rgb(0%, 0%, 0%)" stroke-opacity="1" stroke-miterlimit="10" d="M 558.359375 400.535156 C 558.359375 401.871094 556.359375 401.871094 556.359375 400.535156 C 556.359375 399.203125 558.359375 399.203125 558.359375 400.535156 "/>
<path fill-rule="nonzero" fill="rgb(100%, 0%, 0%)" fill-opacity="1" stroke-width="0.01" stroke-linecap="butt" stroke-linejoin="miter" stroke="rgb(0%, 0%, 0%)" stroke-opacity="1" stroke-miterlimit="10" d="M 21 205.652344 C 21 206.988281 19 206.988281 19 205.652344 C 19 204.320312 21 204.320312 21 205.652344 "/>
<path fill-rule="nonzero" fill="rgb(100%, 0%, 0%)" fill-opacity="1" stroke-width="0.01" stroke-linecap="butt" stroke-linejoin="miter" stroke="rgb(0%, 0%, 0%)" stroke-opacity="1" stroke-miterlimit="10" d="M 503.039062 115.601562 C 503.039062 116.9375 501.039062 116.9375 501.039062 115.601562 C 501.039062 114.269531 503.039062 114.269531 503.039062 115.601562 "/>
<path fill-rule="nonzero" fill="rgb(100%, 0%, 0%)" fill-opacity="1" stroke-width="0.01" stroke-linecap="butt" stroke-linejoin="miter" stroke="rgb(0%, 0%, 0%)" stroke-opacity="1" stroke-miterlimit="10" d="M 164.648438 191.0625 C 164.648438 192.398438 162.648438 192.398438 162.648438 191.0625 C 162.648438 189.730469 164.648438 189.730469 164.648438 191.0625 "/>
<path fill-rule="nonzero" fill="rgb(100%, 0%, 0%)" fill-opacity="1" stroke-width="0.01" stroke-linecap="butt" stroke-linejoin="miter" stroke="rgb(0%, 0%, 0%)" stroke-opacity="1" stroke-miterlimit="10" d="M 62.257812 329.8125 C 62.257812 331.144531 60.257812 331.144531 60.257812 329.8125 C 60.257812 328.476562 62.257812 328.476562 62.257812 329.8125 "/>
<path fill-rule="nonzero" fill="rgb(100%, 0%, 0%)" fill-opacity="1" stroke-width="0.01" stroke-linecap="butt" stroke-linejoin="miter" stroke="rgb(0%, 0%, 0%)" stroke-opacity="1" stroke-miterlimit="10" d="M 462.65625 436.355469 C 462.65625 437.6875 460.65625 437.6875 460.65625 436.355469 C 460.65625 435.023438 462.65625 435.023438 462.65625 436.355469 "/>
<path fill-rule="nonzero" fill="rgb(100%, 0%, 0%)" fill-opacity="1" stroke-width="0.01" stroke-linecap="butt" stroke-linejoin="miter" stroke="rgb(0%, 0%, 0%)" stroke-opacity="1" stroke-miterlimit="10" d="M 304.855469 578.898438 C 304.855469 580.230469 302.855469 580.230469 302.855469 578.898438 C 302.855469 577.566406 304.855469 577.566406 304.855469 578.898438 "/>
<path fill-rule="nonzero" fill="rgb(100%, 0%, 0%)" fill-opacity="1" stroke-width="0.01" stroke-linecap="butt" stroke-linejoin="miter" stroke="rgb(0%, 0%, 0%)" stroke-opacity="1" stroke-miterlimit="10" d="M 247.4375 221.171875 C 247.4375 222.503906 245.4375 222.503906 245.4375 221.171875 C 245.4375 219.835938 247.4375 219.835938 247.4375 221.171875 "/>
<path fill-rule="nonzero" fill="rgb(100%, 0%, 0%)" fill-opacity="1" stroke-width="0.01" stroke-linecap="butt" stroke-linejoin="miter" stroke="rgb(0%, 0%, 0%)" stroke-opacity="1" stroke-miterlimit="10" d="M 187.957031 580 C 187.957031 581.332031 185.957031 581.332031 185.957031 580 C 185.957031 578.667969 187.957031 578.667969 187.957031 580 "/>
<path fill-rule="nonzero" fill="rgb(100%, 0%, 0%)" fill-opacity="1" stroke-width="0.01" stroke-linecap="butt" stroke-linejoin="miter" stroke="rgb(0%, 0%, 0%)" stroke-opacity="1" stroke-miterlimit="10" d="M 33.457031 410.542969 C 33.457031 411.878906 31.457031 411.878906 31.457031 410.542969 C 31.457031 409.210938 33.457031 409.210938 33.457031 410.542969 "/>
<path fill-rule="nonzero" fill="rgb(100%, 0%, 0%)" fill-opacity="1" stroke-width="0.01" stroke-linecap="butt" stroke-linejoin="miter" stroke="rgb(0%, 0%, 0%)" stroke-opacity="1" stroke-miterlimit="10" d="M 259.03125 20 C 259.03125 21.332031 257.03125 21.332031 257.03125 20 C 257.03125 18.667969 259.03125 18.667969 259.03125 20 "/>
<path fill-rule="nonzero" fill="rgb(100%, 0%, 0%)" fill-opacity="1" stroke-width="0.01" stroke-linecap="butt" stroke-linejoin="miter" stroke="rgb(0%, 0%, 0%)" stroke-opacity="1" stroke-miterlimit="10" d="M 171.742188 327.21875 C 171.742188 328.550781 169.742188 328.550781 169.742188 327.21875 C 169.742188 325.886719 171.742188 325.886719 171.742188 327.21875 "/>
<path fill-rule="nonzero" fill="rgb(100%, 0%, 0%)" fill-opacity="1" stroke-width="0.01" stroke-linecap="butt" stroke-linejoin="miter" stroke="rgb(0%, 0%, 0%)" stroke-opacity="1" stroke-miterlimit="10" d="M 373.570312 289.292969 C 373.570312 290.625 371.570312 290.625 371.570312 289.292969 C 371.570312 287.957031 373.570312 287.957031 373.570312 289.292969 "/>
<path fill-rule="nonzero" fill="rgb(100%, 0%, 0%)" fill-opacity="1" stroke-width="0.01" stroke-linecap="butt" stroke-linejoin="miter" stroke="rgb(0%, 0%, 0%)" stroke-opacity="1" stroke-miterlimit="10" d="M 409.488281 73.574219 C 409.488281 74.910156 407.488281 74.910156 407.488281 73.574219 C 407.488281 72.242188 409.488281 72.242188 409.488281 73.574219 "/>
<path fill-rule="nonzero" fill="rgb(100%, 0%, 0%)" fill-opacity="1" stroke-width="0.01" stroke-linecap="butt" stroke-linejoin="miter" stroke="rgb(0%, 0%, 0%)" stroke-opacity="1" stroke-miterlimit="10" d="M 209.628906 107.972656 C 209.628906 109.304688 207.628906 109.304688 207.628906 107.972656 C 207.628906 106.640625 209.628906 106.640625 209.628906 107.972656 "/>
<path fill-rule="nonzero" fill="rgb(100%, 0%, 0%)" fill-opacity="1" stroke-width="0.01" stroke-linecap="butt" stroke-linejoin="miter" stroke="rgb(0%, 0%, 0%)" stroke-opacity="1" stroke-miterlimit="10" d="M 96.535156 487.0625 C 96.535156 488.394531 94.535156 488.394531 94.535156 487.0625 C 94.535156 485.726562 96.535156 485.726562 96.535156 487.0625 "/>
<path fill-rule="nonzero" fill="rgb(100%, 0%, 0%)" fill-opacity="1" stroke-width="0.01" stroke-linecap="butt" stroke-linejoin="miter" stroke="rgb(0%, 0%, 0%)" stroke-opacity="1" stroke-miterlimit="10" d="M 206 490.722656 C 206 492.054688 204 492.054688 204 490.722656 C 204 489.386719 206 489.386719 206 490.722656 "/>
<path fill-rule="nonzero" fill="rgb(100%, 0%, 0%)" fill-opacity="1" stroke-width="0.01" stroke-linecap="butt" stroke-linejoin="miter" stroke="rgb(0%, 0%, 0%)" stroke-opacity="1" stroke-miterlimit="10" d="M 317.8125 99.921875 C 317.8125 101.253906 315.8125 101.253906 315.8125 99.921875 C 315.8125 98.589844 317.8125 98.589844 317.8125 99.921875 "/>
<path fill-rule="nonzero" fill="rgb(100%, 0%, 0%)" fill-opacity="1" stroke-width="0.01" stroke-linecap="butt" stroke-linejoin="miter" stroke="rgb(0%, 0%, 0%)" stroke-opacity="1" stroke-miterlimit="10" d="M 526.617188 211.859375 C 526.617188 213.191406 524.617188 213.191406 524.617188 211.859375 C 524.617188 210.527344 526.617188 210.527344 526.617188 211.859375 "/>
<path fill-rule="nonzero" fill="rgb(100%, 0%, 0%)" fill-opacity="1" stroke-width="0.01" stroke-linecap="butt" stroke-linejoin="miter" stroke="rgb(0%, 0%, 0%)" stroke-opacity="1" stroke-miterlimit="10" d="M 425.15625 203.394531 C 425.15625 204.726562 423.15625 204.726562 423.15625 203.394531 C 423.15625 202.058594 425.15625 202.058594 425.15625 203.394531 "/>
<path fill-rule="nonzero" fill="rgb(100%, 0%, 0%)" fill-opacity="1" stroke-width="0.01" stroke-linecap="butt" stroke-linejoin="miter" stroke="rgb(0%, 0%, 0%)" stroke-opacity="1" stroke-miterlimit="10" d="M 473.183594 313.113281 C 473.183594 314.449219 471.183594 314.449219 471.183594 313.113281 C 471.183594 311.78125 473.183594 311.78125 473.183594 313.113281 "/>
<path fill-rule="nonzero" fill="rgb(100%, 0%, 0%)" fill-opacity="1" stroke-width="0.01" stroke-linecap="butt" stroke-linejoin="miter" stroke="rgb(0%, 0%, 0%)" stroke-opacity="1" stroke-miterlimit="10" d="M 333.433594 190.535156 C 333.433594 191.867188 331.433594 191.867188 331.433594 190.535156 C 331.433594 189.203125 333.433594 189.203125 333.433594 190.535156 "/>
<path fill-rule="nonzero" fill="rgb(100%, 0%, 0%)" fill-opacity="1" stroke-width="0.01" stroke-linecap="butt" stroke-linejoin="miter" stroke="rgb(0%, 0%, 0%)" stroke-opacity="1" stroke-miterlimit="10" d="M 273.683594 300.554688 C 273.683594 301.886719 271.683594 301.886719 271.683594 300.554688 C 271.683594 299.222656 273.683594 299.222656 273.683594 300.554688 "/>
<path fill-rule="nonzero" fill="rgb(100%, 0%, 0%)" fill-opacity="1" stroke-width="0.01" stroke-linecap="butt" stroke-linejoin="miter" stroke="rgb(0%, 0%, 0%)" stroke-opacity="1" stroke-miterlimit="10" d="M 392.480469 384.324219 C 392.480469 385.65625 390.480469 385.65625 390.480469 384.324219 C 390.480469 382.992188 392.480469 382.992188 392.480469 384.324219 "/>
<path fill-rule="nonzero" fill="rgb(100%, 0%, 0%)" fill-opacity="1" stroke-width="0.01" stroke-linecap="butt" stroke-linejoin="miter" stroke="rgb(0%, 0%, 0%)" stroke-opacity="1" stroke-miterlimit="10" d="M 315.179688 470.0625 C 315.179688 471.394531 313.179688 471.394531 313.179688 470.0625 C 313.179688 468.726562 315.179688 468.726562 315.179688 470.0625 "/>
</svg>
