<?xml version="1.0" encoding="UTF-8"?>
<svg xmlns="http://www.w3.org/2000/svg" xmlns:xlink="http://www.w3.org/1999/xlink" width="600pt" height="600pt" viewBox="0 0 600 600" version="1.1">
<g id="surface6">
<rect x="0" y="0" width="600" height="600" style="fill:rgb(100%,100%,100%);fill-opacity:1;stroke:none;"/>
<path style="fill:none;stroke-width:0.2;stroke-linecap:butt;stroke-linejoin:miter;stroke:rgb(26.666667%,26.666667%,26.666667%);stroke-opacity:1;stroke-miterlimit:10;" d="M 313.523438 238.035156 L 321.746094 227.378906 "/>
<path style="fill:none;stroke-width:0.2;stroke-linecap:butt;stroke-linejoin:miter;stroke:rgb(26.666667%,26.666667%,26.666667%);stroke-opacity:1;stroke-miterlimit:10;" d="M 107.457031 160.394531 L 114.945312 150.585938 "/>
<path style="fill:none;stroke-width:0.2;stroke-linecap:butt;stroke-linejoin:miter;stroke:rgb(26.666667%,26.666667%,26.666667%);stroke-opacity:1;stroke-miterlimit:10;" d="M 309.820312 104.851562 L 320.476562 111.542969 "/>
<path style="fill:none;stroke-width:0.2;stroke-linecap:butt;stroke-linejoin:miter;stroke:rgb(26.666667%,26.666667%,26.666667%);stroke-opacity:1;stroke-miterlimit:10;" d="M 297.359375 239.4375 L 321.46875 227.042969 "/>
<path style="fill:none;stroke-width:0.2;stroke-linecap:butt;stroke-linejoin:miter;stroke:rgb(26.666667%,26.666667%,26.666667%);stroke-opacity:1;stroke-miterlimit:10;" d="M 441.074219 338.109375 L 428.019531 341.960938 "/>
<path style="fill:none;stroke-width:0.2;stroke-linecap:butt;stroke-linejoin:miter;stroke:rgb(26.666667%,26.666667%,26.666667%);stroke-opacity:1;stroke-miterlimit:10;" d="M 304.9375 204.414062 L 321.738281 225.800781 "/>
<path style="fill:none;stroke-width:0.2;stroke-linecap:butt;stroke-linejoin:miter;stroke:rgb(26.666667%,26.666667%,26.666667%);stroke-opacity:1;stroke-miterlimit:10;" d="M 464.027344 381.320312 L 462.105469 400.503906 "/>
<path style="fill:none;stroke-width:0.2;stroke-linecap:butt;stroke-linejoin:miter;stroke:rgb(26.666667%,26.666667%,26.666667%);stroke-opacity:1;stroke-miterlimit:10;" d="M 174.300781 142.984375 L 168.6875 153.882812 "/>
<path style="fill:none;stroke-width:0.2;stroke-linecap:butt;stroke-linejoin:miter;stroke:rgb(26.666667%,26.666667%,26.666667%);stroke-opacity:1;stroke-miterlimit:10;" d="M 522.105469 182.773438 L 527.894531 193.644531 "/>
<path style="fill:none;stroke-width:0.2;stroke-linecap:butt;stroke-linejoin:miter;stroke:rgb(26.666667%,26.666667%,26.666667%);stroke-opacity:1;stroke-miterlimit:10;" d="M 258.078125 18.9375 C 258.078125 20.9375 255.078125 20.9375 255.078125 18.9375 C 255.078125 16.9375 258.078125 16.9375 258.078125 18.9375 "/>
<path style="fill:none;stroke-width:0.2;stroke-linecap:butt;stroke-linejoin:miter;stroke:rgb(26.666667%,26.666667%,26.666667%);stroke-opacity:1;stroke-miterlimit:10;" d="M 422.46875 128.496094 L 409.816406 128.621094 "/>
<path style="fill:none;stroke-width:0.2;stroke-linecap:butt;stroke-linejoin:miter;stroke:rgb(26.666667%,26.666667%,26.666667%);stroke-opacity:1;stroke-miterlimit:10;" d="M 64.890625 267.484375 L 67.5625 279.4375 "/>
<path style="fill:none;stroke-width:0.2;stroke-linecap:butt;stroke-linejoin:miter;stroke:rgb(26.666667%,26.666667%,26.666667%);stroke-opacity:1;stroke-miterlimit:10;" d="M 129.074219 74.84375 L 137.5 83.945312 "/>
<path style="fill:none;stroke-width:0.2;stroke-linecap:butt;stroke-linejoin:miter;stroke:rgb(26.666667%,26.666667%,26.666667%);stroke-opacity:1;stroke-miterlimit:10;" d="M 305.644531 552.980469 L 302.582031 541.167969 "/>
<path style="fill:none;stroke-width:0.2;stroke-linecap:butt;stroke-linejoin:miter;stroke:rgb(26.666667%,26.666667%,26.666667%);stroke-opacity:1;stroke-miterlimit:10;" d="M 415.867188 177.539062 L 415.816406 189.621094 "/>
<path style="fill:none;stroke-width:0.2;stroke-linecap:butt;stroke-linejoin:miter;stroke:rgb(26.666667%,26.666667%,26.666667%);stroke-opacity:1;stroke-miterlimit:10;" d="M 545.453125 360.511719 L 533.816406 355.695312 "/>
<path style="fill:none;stroke-width:0.2;stroke-linecap:butt;stroke-linejoin:miter;stroke:rgb(26.666667%,26.666667%,26.666667%);stroke-opacity:1;stroke-miterlimit:10;" d="M 178.417969 227.824219 C 178.417969 229.824219 175.417969 229.824219 175.417969 227.824219 C 175.417969 225.824219 178.417969 225.824219 178.417969 227.824219 "/>
<path style="fill:none;stroke-width:0.2;stroke-linecap:butt;stroke-linejoin:miter;stroke:rgb(26.666667%,26.666667%,26.666667%);stroke-opacity:1;stroke-miterlimit:10;" d="M 432.566406 494.722656 L 424.308594 485.515625 "/>
<path style="fill:none;stroke-width:0.2;stroke-linecap:butt;stroke-linejoin:miter;stroke:rgb(26.666667%,26.666667%,26.666667%);stroke-opacity:1;stroke-miterlimit:10;" d="M 91.738281 485.609375 L 97.253906 496.730469 "/>
<path style="fill:none;stroke-width:0.2;stroke-linecap:butt;stroke-linejoin:miter;stroke:rgb(26.666667%,26.666667%,26.666667%);stroke-opacity:1;stroke-miterlimit:10;" d="M 47.808594 176.875 L 50.582031 188.832031 "/>
<path style="fill:none;stroke-width:0.2;stroke-linecap:butt;stroke-linejoin:miter;stroke:rgb(26.666667%,26.666667%,26.666667%);stroke-opacity:1;stroke-miterlimit:10;" d="M 200.296875 406.644531 L 212.835938 405.699219 "/>
<path style="fill:none;stroke-width:0.2;stroke-linecap:butt;stroke-linejoin:miter;stroke:rgb(26.666667%,26.666667%,26.666667%);stroke-opacity:1;stroke-miterlimit:10;" d="M 294.785156 387.171875 L 303.429688 378.21875 "/>
<path style="fill:none;stroke-width:0.2;stroke-linecap:butt;stroke-linejoin:miter;stroke:rgb(26.666667%,26.666667%,26.666667%);stroke-opacity:1;stroke-miterlimit:10;" d="M 377.195312 305.652344 L 372.710938 316.949219 "/>
<path style="fill:none;stroke-width:0.2;stroke-linecap:butt;stroke-linejoin:miter;stroke:rgb(26.666667%,26.666667%,26.666667%);stroke-opacity:1;stroke-miterlimit:10;" d="M 475.601562 449.566406 L 487.316406 456.628906 "/>
<path style="fill:none;stroke-width:0.2;stroke-linecap:butt;stroke-linejoin:miter;stroke:rgb(26.666667%,26.666667%,26.666667%);stroke-opacity:1;stroke-miterlimit:10;" d="M 267.800781 358.132812 L 260.066406 368.003906 "/>
<path style="fill:none;stroke-width:0.2;stroke-linecap:butt;stroke-linejoin:miter;stroke:rgb(26.666667%,26.666667%,26.666667%);stroke-opacity:1;stroke-miterlimit:10;" d="M 307.496094 317.925781 L 320.027344 318.589844 "/>
<path style="fill:none;stroke-width:0.2;stroke-linecap:butt;stroke-linejoin:miter;stroke:rgb(26.666667%,26.666667%,26.666667%);stroke-opacity:1;stroke-miterlimit:10;" d="M 138.359375 360.695312 L 133.824219 349.3125 "/>
<path style="fill:none;stroke-width:0.2;stroke-linecap:butt;stroke-linejoin:miter;stroke:rgb(26.666667%,26.666667%,26.666667%);stroke-opacity:1;stroke-miterlimit:10;" d="M 208.949219 187.507812 L 220.882812 183.574219 "/>
<path style="fill:none;stroke-width:0.2;stroke-linecap:butt;stroke-linejoin:miter;stroke:rgb(26.666667%,26.666667%,26.666667%);stroke-opacity:1;stroke-miterlimit:10;" d="M 331.054688 251.59375 L 322.683594 227.53125 "/>
<path style="fill:none;stroke-width:0.2;stroke-linecap:butt;stroke-linejoin:miter;stroke:rgb(26.666667%,26.666667%,26.666667%);stroke-opacity:1;stroke-miterlimit:10;" d="M 294.425781 222.148438 L 321.371094 226.429688 "/>
<path style="fill:none;stroke-width:0.2;stroke-linecap:butt;stroke-linejoin:miter;stroke:rgb(26.666667%,26.666667%,26.666667%);stroke-opacity:1;stroke-miterlimit:10;" d="M 115.414062 280.269531 L 128.792969 279.566406 "/>
<path style="fill:none;stroke-width:0.2;stroke-linecap:butt;stroke-linejoin:miter;stroke:rgb(26.666667%,26.666667%,26.666667%);stroke-opacity:1;stroke-miterlimit:10;" d="M 215.683594 535.234375 L 203.355469 538.445312 "/>
<path style="fill:none;stroke-width:0.2;stroke-linecap:butt;stroke-linejoin:miter;stroke:rgb(26.666667%,26.666667%,26.666667%);stroke-opacity:1;stroke-miterlimit:10;" d="M 397.730469 434.863281 L 384.476562 428.964844 "/>
<path style="fill:none;stroke-width:0.2;stroke-linecap:butt;stroke-linejoin:miter;stroke:rgb(26.666667%,26.666667%,26.666667%);stroke-opacity:1;stroke-miterlimit:10;" d="M 443.851562 544.183594 C 443.851562 546.183594 440.851562 546.183594 440.851562 544.183594 C 440.851562 542.183594 443.851562 542.183594 443.851562 544.183594 "/>
<path style="fill:none;stroke-width:0.2;stroke-linecap:butt;stroke-linejoin:miter;stroke:rgb(26.666667%,26.666667%,26.666667%);stroke-opacity:1;stroke-miterlimit:10;" d="M 111.019531 221.367188 L 122.988281 215.128906 "/>
<path style="fill:none;stroke-width:0.2;stroke-linecap:butt;stroke-linejoin:miter;stroke:rgb(26.666667%,26.666667%,26.666667%);stroke-opacity:1;stroke-miterlimit:10;" d="M 430.15625 70.3125 L 442.027344 74.671875 "/>
<path style="fill:none;stroke-width:0.2;stroke-linecap:butt;stroke-linejoin:miter;stroke:rgb(26.666667%,26.666667%,26.666667%);stroke-opacity:1;stroke-miterlimit:10;" d="M 341.871094 204.25 L 323.015625 225.832031 "/>
<path style="fill:none;stroke-width:0.2;stroke-linecap:butt;stroke-linejoin:miter;stroke:rgb(26.666667%,26.666667%,26.666667%);stroke-opacity:1;stroke-miterlimit:10;" d="M 316.96875 43.847656 L 304.394531 45.097656 "/>
<path style="fill:none;stroke-width:0.2;stroke-linecap:butt;stroke-linejoin:miter;stroke:rgb(26.666667%,26.666667%,26.666667%);stroke-opacity:1;stroke-miterlimit:10;" d="M 82.109375 112.355469 C 82.109375 114.355469 79.109375 114.355469 79.109375 112.355469 C 79.109375 110.355469 82.109375 110.355469 82.109375 112.355469 "/>
<path style="fill:none;stroke-width:0.2;stroke-linecap:butt;stroke-linejoin:miter;stroke:rgb(26.666667%,26.666667%,26.666667%);stroke-opacity:1;stroke-miterlimit:10;" d="M 348.511719 221.96875 L 323.339844 226.414062 "/>
<path style="fill:none;stroke-width:0.2;stroke-linecap:butt;stroke-linejoin:miter;stroke:rgb(26.666667%,26.666667%,26.666667%);stroke-opacity:1;stroke-miterlimit:10;" d="M 413.4375 347.265625 L 426.121094 342.589844 "/>
<path style="fill:none;stroke-width:0.2;stroke-linecap:butt;stroke-linejoin:miter;stroke:rgb(26.666667%,26.666667%,26.666667%);stroke-opacity:1;stroke-miterlimit:10;" d="M 476.695312 148.832031 L 484.058594 138.851562 "/>
<path style="fill:none;stroke-width:0.2;stroke-linecap:butt;stroke-linejoin:miter;stroke:rgb(26.666667%,26.666667%,26.666667%);stroke-opacity:1;stroke-miterlimit:10;" d="M 147.035156 412.472656 L 134.625 414.730469 "/>
<path style="fill:none;stroke-width:0.2;stroke-linecap:butt;stroke-linejoin:miter;stroke:rgb(26.666667%,26.666667%,26.666667%);stroke-opacity:1;stroke-miterlimit:10;" d="M 514.171875 245.066406 L 505.914062 235.894531 "/>
<path style="fill:none;stroke-width:0.2;stroke-linecap:butt;stroke-linejoin:miter;stroke:rgb(26.666667%,26.666667%,26.666667%);stroke-opacity:1;stroke-miterlimit:10;" d="M 300.039062 441.984375 L 309.746094 433.097656 "/>
<path style="fill:none;stroke-width:0.2;stroke-linecap:butt;stroke-linejoin:miter;stroke:rgb(26.666667%,26.666667%,26.666667%);stroke-opacity:1;stroke-miterlimit:10;" d="M 251.90625 440.097656 L 245.878906 450.6875 "/>
<path style="fill:none;stroke-width:0.2;stroke-linecap:butt;stroke-linejoin:miter;stroke:rgb(26.666667%,26.666667%,26.666667%);stroke-opacity:1;stroke-miterlimit:10;" d="M 371.082031 437.714844 L 382.757812 429.152344 "/>
<path style="fill:none;stroke-width:0.2;stroke-linecap:butt;stroke-linejoin:miter;stroke:rgb(26.666667%,26.666667%,26.666667%);stroke-opacity:1;stroke-miterlimit:10;" d="M 500.304688 466.980469 L 488.953125 457.777344 "/>
<path style="fill:none;stroke-width:0.2;stroke-linecap:butt;stroke-linejoin:miter;stroke:rgb(26.666667%,26.666667%,26.666667%);stroke-opacity:1;stroke-miterlimit:10;" d="M 500.304688 466.980469 L 509.734375 476.769531 "/>
<path style="fill:none;stroke-width:0.2;stroke-linecap:butt;stroke-linejoin:miter;stroke:rgb(26.666667%,26.666667%,26.666667%);stroke-opacity:1;stroke-miterlimit:10;" d="M 372.59375 24.445312 C 372.59375 26.445312 369.59375 26.445312 369.59375 24.445312 C 369.59375 22.445312 372.59375 22.445312 372.59375 24.445312 "/>
<path style="fill:none;stroke-width:0.2;stroke-linecap:butt;stroke-linejoin:miter;stroke:rgb(26.666667%,26.666667%,26.666667%);stroke-opacity:1;stroke-miterlimit:10;" d="M 554.125 414.171875 C 554.125 416.171875 551.125 416.171875 551.125 414.171875 C 551.125 412.171875 554.125 412.171875 554.125 414.171875 "/>
<path style="fill:none;stroke-width:0.2;stroke-linecap:butt;stroke-linejoin:miter;stroke:rgb(26.666667%,26.666667%,26.666667%);stroke-opacity:1;stroke-miterlimit:10;" d="M 144.113281 277.75 L 130.78125 279.390625 "/>
<path style="fill:none;stroke-width:0.2;stroke-linecap:butt;stroke-linejoin:miter;stroke:rgb(26.666667%,26.666667%,26.666667%);stroke-opacity:1;stroke-miterlimit:10;" d="M 576.816406 182.777344 L 579.761719 194.8125 "/>
<path style="fill:none;stroke-width:0.2;stroke-linecap:butt;stroke-linejoin:miter;stroke:rgb(26.666667%,26.666667%,26.666667%);stroke-opacity:1;stroke-miterlimit:10;" d="M 348.34375 240.09375 L 323.242188 227.046875 "/>
<path style="fill:none;stroke-width:0.2;stroke-linecap:butt;stroke-linejoin:miter;stroke:rgb(26.666667%,26.666667%,26.666667%);stroke-opacity:1;stroke-miterlimit:10;" d="M 310.273438 218.746094 L 321.519531 226.042969 "/>
<path style="fill:none;stroke-width:0.2;stroke-linecap:butt;stroke-linejoin:miter;stroke:rgb(26.666667%,26.666667%,26.666667%);stroke-opacity:1;stroke-miterlimit:10;" d="M 36.984375 320.398438 L 25.480469 325.453125 "/>
<path style="fill:none;stroke-width:0.2;stroke-linecap:butt;stroke-linejoin:miter;stroke:rgb(26.666667%,26.666667%,26.666667%);stroke-opacity:1;stroke-miterlimit:10;" d="M 22.5625 244.253906 C 22.5625 246.253906 19.5625 246.253906 19.5625 244.253906 C 19.5625 242.253906 22.5625 242.253906 22.5625 244.253906 "/>
<path style="fill:none;stroke-width:0.2;stroke-linecap:butt;stroke-linejoin:miter;stroke:rgb(26.666667%,26.666667%,26.666667%);stroke-opacity:1;stroke-miterlimit:10;" d="M 220.355469 43.859375 C 220.355469 45.859375 217.355469 45.859375 217.355469 43.859375 C 217.355469 41.859375 220.355469 41.859375 220.355469 43.859375 "/>
<path style="fill:none;stroke-width:0.2;stroke-linecap:butt;stroke-linejoin:miter;stroke:rgb(26.666667%,26.666667%,26.666667%);stroke-opacity:1;stroke-miterlimit:10;" d="M 203.246094 477.246094 L 212.390625 486.941406 "/>
<path style="fill:none;stroke-width:0.2;stroke-linecap:butt;stroke-linejoin:miter;stroke:rgb(26.666667%,26.666667%,26.666667%);stroke-opacity:1;stroke-miterlimit:10;" d="M 203.246094 477.246094 L 195.003906 466.796875 "/>
<path style="fill:none;stroke-width:0.2;stroke-linecap:butt;stroke-linejoin:miter;stroke:rgb(26.666667%,26.666667%,26.666667%);stroke-opacity:1;stroke-miterlimit:10;" d="M 256.722656 579.382812 L 244.074219 579.953125 "/>
<path style="fill:none;stroke-width:0.2;stroke-linecap:butt;stroke-linejoin:miter;stroke:rgb(26.666667%,26.666667%,26.666667%);stroke-opacity:1;stroke-miterlimit:10;" d="M 452.230469 390.640625 L 472.746094 392.203125 "/>
<path style="fill:none;stroke-width:0.2;stroke-linecap:butt;stroke-linejoin:miter;stroke:rgb(26.666667%,26.666667%,26.666667%);stroke-opacity:1;stroke-miterlimit:10;" d="M 354.460938 502.160156 L 363.128906 493.371094 "/>
<path style="fill:none;stroke-width:0.2;stroke-linecap:butt;stroke-linejoin:miter;stroke:rgb(26.666667%,26.666667%,26.666667%);stroke-opacity:1;stroke-miterlimit:10;" d="M 143.023438 469.644531 L 146.203125 481.554688 "/>
<path style="fill:none;stroke-width:0.2;stroke-linecap:butt;stroke-linejoin:miter;stroke:rgb(26.666667%,26.666667%,26.666667%);stroke-opacity:1;stroke-miterlimit:10;" d="M 233.84375 122.558594 L 239.628906 103.488281 "/>
<path style="fill:none;stroke-width:0.2;stroke-linecap:butt;stroke-linejoin:miter;stroke:rgb(26.666667%,26.666667%,26.666667%);stroke-opacity:1;stroke-miterlimit:10;" d="M 331.394531 215.539062 L 322.988281 225.8125 "/>
<path style="fill:none;stroke-width:0.2;stroke-linecap:butt;stroke-linejoin:miter;stroke:rgb(26.666667%,26.666667%,26.666667%);stroke-opacity:1;stroke-miterlimit:10;" d="M 136.457031 207.503906 L 124.746094 214.171875 "/>
<path style="fill:none;stroke-width:0.2;stroke-linecap:butt;stroke-linejoin:miter;stroke:rgb(26.666667%,26.666667%,26.666667%);stroke-opacity:1;stroke-miterlimit:10;" d="M 221.101562 245.644531 L 222.789062 233.71875 "/>
<path style="fill:none;stroke-width:0.2;stroke-linecap:butt;stroke-linejoin:miter;stroke:rgb(26.666667%,26.666667%,26.666667%);stroke-opacity:1;stroke-miterlimit:10;" d="M 286.15625 150.878906 L 298.675781 148.933594 "/>
<path style="fill:none;stroke-width:0.2;stroke-linecap:butt;stroke-linejoin:miter;stroke:rgb(26.666667%,26.666667%,26.666667%);stroke-opacity:1;stroke-miterlimit:10;" d="M 458.152344 226.496094 L 459.085938 214.332031 "/>
<path style="fill:none;stroke-width:0.2;stroke-linecap:butt;stroke-linejoin:miter;stroke:rgb(26.666667%,26.666667%,26.666667%);stroke-opacity:1;stroke-miterlimit:10;" d="M 246.886719 115.367188 L 227.679688 109.96875 "/>
<path style="fill:none;stroke-width:0.2;stroke-linecap:butt;stroke-linejoin:miter;stroke:rgb(26.666667%,26.666667%,26.666667%);stroke-opacity:1;stroke-miterlimit:10;" d="M 186.714844 75.363281 C 186.714844 77.363281 183.714844 77.363281 183.714844 75.363281 C 183.714844 73.363281 186.714844 73.363281 186.714844 75.363281 "/>
<path style="fill:none;stroke-width:0.2;stroke-linecap:butt;stroke-linejoin:miter;stroke:rgb(26.666667%,26.666667%,26.666667%);stroke-opacity:1;stroke-miterlimit:10;" d="M 454.117188 291.425781 L 441.675781 292.996094 "/>
<path style="fill:none;stroke-width:0.2;stroke-linecap:butt;stroke-linejoin:miter;stroke:rgb(26.666667%,26.666667%,26.666667%);stroke-opacity:1;stroke-miterlimit:10;" d="M 301.664062 489.515625 L 289.308594 492.125 "/>
<path style="fill:none;stroke-width:0.2;stroke-linecap:butt;stroke-linejoin:miter;stroke:rgb(26.666667%,26.666667%,26.666667%);stroke-opacity:1;stroke-miterlimit:10;" d="M 372.933594 557.160156 L 382.132812 548.746094 "/>
<path style="fill:none;stroke-width:0.2;stroke-linecap:butt;stroke-linejoin:miter;stroke:rgb(26.666667%,26.666667%,26.666667%);stroke-opacity:1;stroke-miterlimit:10;" d="M 359.457031 361.519531 L 350.652344 370.042969 "/>
<path style="fill:none;stroke-width:0.2;stroke-linecap:butt;stroke-linejoin:miter;stroke:rgb(26.666667%,26.666667%,26.666667%);stroke-opacity:1;stroke-miterlimit:10;" d="M 212.1875 317.917969 L 231.019531 323.511719 "/>
<path style="fill:none;stroke-width:0.2;stroke-linecap:butt;stroke-linejoin:miter;stroke:rgb(26.666667%,26.666667%,26.666667%);stroke-opacity:1;stroke-miterlimit:10;" d="M 212.1875 317.917969 L 230.9375 308.558594 "/>
<path style="fill:none;stroke-width:0.2;stroke-linecap:butt;stroke-linejoin:miter;stroke:rgb(26.666667%,26.666667%,26.666667%);stroke-opacity:1;stroke-miterlimit:10;" d="M 212.1875 317.917969 L 203.160156 301.011719 "/>
<path style="fill:none;stroke-width:0.2;stroke-linecap:butt;stroke-linejoin:miter;stroke:rgb(26.666667%,26.666667%,26.666667%);stroke-opacity:1;stroke-miterlimit:10;" d="M 212.1875 317.917969 L 205.464844 337.835938 "/>
<path style="fill:none;stroke-width:0.2;stroke-linecap:butt;stroke-linejoin:miter;stroke:rgb(26.666667%,26.666667%,26.666667%);stroke-opacity:1;stroke-miterlimit:10;" d="M 212.1875 317.917969 L 195.523438 326.5 "/>
<path style="fill:none;stroke-width:0.2;stroke-linecap:butt;stroke-linejoin:miter;stroke:rgb(26.666667%,26.666667%,26.666667%);stroke-opacity:1;stroke-miterlimit:10;" d="M 212.1875 317.917969 L 218.316406 300.046875 "/>
<path style="fill:none;stroke-width:0.2;stroke-linecap:butt;stroke-linejoin:miter;stroke:rgb(26.666667%,26.666667%,26.666667%);stroke-opacity:1;stroke-miterlimit:10;" d="M 212.1875 317.917969 L 192.515625 312.019531 "/>
<path style="fill:none;stroke-width:0.2;stroke-linecap:butt;stroke-linejoin:miter;stroke:rgb(26.666667%,26.666667%,26.666667%);stroke-opacity:1;stroke-miterlimit:10;" d="M 212.1875 317.917969 L 220.457031 334.128906 "/>
<path style="fill:none;stroke-width:0.2;stroke-linecap:butt;stroke-linejoin:miter;stroke:rgb(26.666667%,26.666667%,26.666667%);stroke-opacity:1;stroke-miterlimit:10;" d="M 320.839844 422.707031 L 311.214844 431.738281 "/>
<path style="fill:none;stroke-width:0.2;stroke-linecap:butt;stroke-linejoin:miter;stroke:rgb(26.666667%,26.666667%,26.666667%);stroke-opacity:1;stroke-miterlimit:10;" d="M 65.09375 417.789062 L 55.480469 409.785156 "/>
<path style="fill:none;stroke-width:0.2;stroke-linecap:butt;stroke-linejoin:miter;stroke:rgb(26.666667%,26.666667%,26.666667%);stroke-opacity:1;stroke-miterlimit:10;" d="M 571.753906 285.925781 L 566.558594 297.089844 "/>
<path style="fill:none;stroke-width:0.2;stroke-linecap:butt;stroke-linejoin:miter;stroke:rgb(26.666667%,26.666667%,26.666667%);stroke-opacity:1;stroke-miterlimit:10;" d="M 418.707031 253.121094 L 407.523438 258.570312 "/>
<path style="fill:none;stroke-width:0.2;stroke-linecap:butt;stroke-linejoin:miter;stroke:rgb(26.666667%,26.666667%,26.666667%);stroke-opacity:1;stroke-miterlimit:10;" d="M 368.109375 93.421875 L 358.414062 85.660156 "/>
<path style="fill:none;stroke-width:0.2;stroke-linecap:butt;stroke-linejoin:miter;stroke:rgb(26.666667%,26.666667%,26.666667%);stroke-opacity:1;stroke-miterlimit:10;" d="M 86.046875 365.4375 L 81.109375 354.210938 "/>
<path style="fill:none;stroke-width:0.2;stroke-linecap:butt;stroke-linejoin:miter;stroke:rgb(26.666667%,26.666667%,26.666667%);stroke-opacity:1;stroke-miterlimit:10;" d="M 501.605469 292.550781 L 506.863281 303.582031 "/>
<path style="fill:none;stroke-width:0.2;stroke-linecap:butt;stroke-linejoin:miter;stroke:rgb(26.666667%,26.666667%,26.666667%);stroke-opacity:1;stroke-miterlimit:10;" d="M 312.835938 253.238281 L 322.019531 227.527344 "/>
<path style="fill:none;stroke-width:0.2;stroke-linecap:butt;stroke-linejoin:miter;stroke:rgb(26.666667%,26.666667%,26.666667%);stroke-opacity:1;stroke-miterlimit:10;" d="M 333.691406 235.488281 L 323.144531 227.203125 "/>
<path style="fill:none;stroke-width:0.2;stroke-linecap:butt;stroke-linejoin:miter;stroke:rgb(26.666667%,26.666667%,26.666667%);stroke-opacity:1;stroke-miterlimit:10;" d="M 382.308594 413.417969 L 383.480469 427.5625 "/>
<path style="fill:none;stroke-width:0.2;stroke-linecap:butt;stroke-linejoin:miter;stroke:rgb(26.666667%,26.666667%,26.666667%);stroke-opacity:1;stroke-miterlimit:10;" d="M 322.488281 200.96875 L 322.363281 225.585938 "/>
<path style=" stroke:none;fill-rule:nonzero;fill:rgb(100%,0%,0%);fill-opacity:1;" d="M 314.523438 238.035156 C 314.523438 239.367188 312.523438 239.367188 312.523438 238.035156 C 312.523438 236.703125 314.523438 236.703125 314.523438 238.035156 "/>
<path style=" stroke:none;fill-rule:nonzero;fill:rgb(100%,0%,0%);fill-opacity:1;" d="M 323.355469 226.585938 C 323.355469 227.921875 321.355469 227.921875 321.355469 226.585938 C 321.355469 225.253906 323.355469 225.253906 323.355469 226.585938 "/>
<path style=" stroke:none;fill-rule:nonzero;fill:rgb(100%,0%,0%);fill-opacity:1;" d="M 108.457031 160.394531 C 108.457031 161.726562 106.457031 161.726562 106.457031 160.394531 C 106.457031 159.058594 108.457031 159.058594 108.457031 160.394531 "/>
<path style=" stroke:none;fill-rule:nonzero;fill:rgb(100%,0%,0%);fill-opacity:1;" d="M 116.550781 149.792969 C 116.550781 151.125 114.550781 151.125 114.550781 149.792969 C 114.550781 148.457031 116.550781 148.457031 116.550781 149.792969 "/>
<path style=" stroke:none;fill-rule:nonzero;fill:rgb(100%,0%,0%);fill-opacity:1;" d="M 310.820312 104.851562 C 310.820312 106.183594 308.820312 106.183594 308.820312 104.851562 C 308.820312 103.515625 310.820312 103.515625 310.820312 104.851562 "/>
<path style=" stroke:none;fill-rule:nonzero;fill:rgb(100%,0%,0%);fill-opacity:1;" d="M 322.324219 112.074219 C 322.324219 113.410156 320.324219 113.410156 320.324219 112.074219 C 320.324219 110.742188 322.324219 110.742188 322.324219 112.074219 "/>
<path style=" stroke:none;fill-rule:nonzero;fill:rgb(100%,0%,0%);fill-opacity:1;" d="M 298.359375 239.4375 C 298.359375 240.769531 296.359375 240.769531 296.359375 239.4375 C 296.359375 238.101562 298.359375 238.101562 298.359375 239.4375 "/>
<path style=" stroke:none;fill-rule:nonzero;fill:rgb(100%,0%,0%);fill-opacity:1;" d="M 442.074219 338.109375 C 442.074219 339.441406 440.074219 339.441406 440.074219 338.109375 C 440.074219 336.777344 442.074219 336.777344 442.074219 338.109375 "/>
<path style=" stroke:none;fill-rule:nonzero;fill:rgb(100%,0%,0%);fill-opacity:1;" d="M 428.058594 342.242188 C 428.058594 343.574219 426.058594 343.574219 426.058594 342.242188 C 426.058594 340.910156 428.058594 340.910156 428.058594 342.242188 "/>
<path style=" stroke:none;fill-rule:nonzero;fill:rgb(100%,0%,0%);fill-opacity:1;" d="M 305.9375 204.414062 C 305.9375 205.746094 303.9375 205.746094 303.9375 204.414062 C 303.9375 203.078125 305.9375 203.078125 305.9375 204.414062 "/>
<path style=" stroke:none;fill-rule:nonzero;fill:rgb(100%,0%,0%);fill-opacity:1;" d="M 465.027344 381.320312 C 465.027344 382.652344 463.027344 382.652344 463.027344 381.320312 C 463.027344 379.988281 465.027344 379.988281 465.027344 381.320312 "/>
<path style=" stroke:none;fill-rule:nonzero;fill:rgb(100%,0%,0%);fill-opacity:1;" d="M 463.007812 401.5 C 463.007812 402.832031 461.007812 402.832031 461.007812 401.5 C 461.007812 400.167969 463.007812 400.167969 463.007812 401.5 "/>
<path style=" stroke:none;fill-rule:nonzero;fill:rgb(100%,0%,0%);fill-opacity:1;" d="M 175.300781 142.984375 C 175.300781 144.320312 173.300781 144.320312 173.300781 142.984375 C 173.300781 141.652344 175.300781 141.652344 175.300781 142.984375 "/>
<path style=" stroke:none;fill-rule:nonzero;fill:rgb(100%,0%,0%);fill-opacity:1;" d="M 169.226562 154.773438 C 169.226562 156.105469 167.226562 156.105469 167.226562 154.773438 C 167.226562 153.4375 169.226562 153.4375 169.226562 154.773438 "/>
<path style=" stroke:none;fill-rule:nonzero;fill:rgb(100%,0%,0%);fill-opacity:1;" d="M 523.105469 182.773438 C 523.105469 184.105469 521.105469 184.105469 521.105469 182.773438 C 521.105469 181.4375 523.105469 181.4375 523.105469 182.773438 "/>
<path style=" stroke:none;fill-rule:nonzero;fill:rgb(100%,0%,0%);fill-opacity:1;" d="M 529.363281 194.527344 C 529.363281 195.859375 527.363281 195.859375 527.363281 194.527344 C 527.363281 193.195312 529.363281 193.195312 529.363281 194.527344 "/>
<path style=" stroke:none;fill-rule:nonzero;fill:rgb(100%,0%,0%);fill-opacity:1;" d="M 256.515625 20 C 256.515625 21.332031 254.515625 21.332031 254.515625 20 C 254.515625 18.667969 256.515625 18.667969 256.515625 20 "/>
<path style=" stroke:none;fill-rule:nonzero;fill:rgb(100%,0%,0%);fill-opacity:1;" d="M 423.46875 128.496094 C 423.46875 129.828125 421.46875 129.828125 421.46875 128.496094 C 421.46875 127.164062 423.46875 127.164062 423.46875 128.496094 "/>
<path style=" stroke:none;fill-rule:nonzero;fill:rgb(100%,0%,0%);fill-opacity:1;" d="M 409.816406 128.632812 C 409.816406 129.964844 407.816406 129.964844 407.816406 128.632812 C 407.816406 127.296875 409.816406 127.296875 409.816406 128.632812 "/>
<path style=" stroke:none;fill-rule:nonzero;fill:rgb(100%,0%,0%);fill-opacity:1;" d="M 65.890625 267.484375 C 65.890625 268.816406 63.890625 268.816406 63.890625 267.484375 C 63.890625 266.148438 65.890625 266.148438 65.890625 267.484375 "/>
<path style=" stroke:none;fill-rule:nonzero;fill:rgb(100%,0%,0%);fill-opacity:1;" d="M 68.78125 280.414062 C 68.78125 281.746094 66.78125 281.746094 66.78125 280.414062 C 66.78125 279.078125 68.78125 279.078125 68.78125 280.414062 "/>
<path style=" stroke:none;fill-rule:nonzero;fill:rgb(100%,0%,0%);fill-opacity:1;" d="M 130.074219 74.84375 C 130.074219 76.179688 128.074219 76.179688 128.074219 74.84375 C 128.074219 73.511719 130.074219 73.511719 130.074219 74.84375 "/>
<path style=" stroke:none;fill-rule:nonzero;fill:rgb(100%,0%,0%);fill-opacity:1;" d="M 139.179688 84.679688 C 139.179688 86.011719 137.179688 86.011719 137.179688 84.679688 C 137.179688 83.347656 139.179688 83.347656 139.179688 84.679688 "/>
<path style=" stroke:none;fill-rule:nonzero;fill:rgb(100%,0%,0%);fill-opacity:1;" d="M 306.644531 552.980469 C 306.644531 554.316406 304.644531 554.316406 304.644531 552.980469 C 304.644531 551.648438 306.644531 551.648438 306.644531 552.980469 "/>
<path style=" stroke:none;fill-rule:nonzero;fill:rgb(100%,0%,0%);fill-opacity:1;" d="M 303.332031 540.199219 C 303.332031 541.53125 301.332031 541.53125 301.332031 540.199219 C 301.332031 538.863281 303.332031 538.863281 303.332031 540.199219 "/>
<path style=" stroke:none;fill-rule:nonzero;fill:rgb(100%,0%,0%);fill-opacity:1;" d="M 416.867188 177.539062 C 416.867188 178.871094 414.867188 178.871094 414.867188 177.539062 C 414.867188 176.207031 416.867188 176.207031 416.867188 177.539062 "/>
<path style=" stroke:none;fill-rule:nonzero;fill:rgb(100%,0%,0%);fill-opacity:1;" d="M 416.8125 190.621094 C 416.8125 191.957031 414.8125 191.957031 414.8125 190.621094 C 414.8125 189.289062 416.8125 189.289062 416.8125 190.621094 "/>
<path style=" stroke:none;fill-rule:nonzero;fill:rgb(100%,0%,0%);fill-opacity:1;" d="M 546.453125 360.511719 C 546.453125 361.84375 544.453125 361.84375 544.453125 360.511719 C 544.453125 359.175781 546.453125 359.175781 546.453125 360.511719 "/>
<path style=" stroke:none;fill-rule:nonzero;fill:rgb(100%,0%,0%);fill-opacity:1;" d="M 533.890625 355.3125 C 533.890625 356.648438 531.890625 356.648438 531.890625 355.3125 C 531.890625 353.980469 533.890625 353.980469 533.890625 355.3125 "/>
<path style=" stroke:none;fill-rule:nonzero;fill:rgb(100%,0%,0%);fill-opacity:1;" d="M 176.855469 228.886719 C 176.855469 230.21875 174.855469 230.21875 174.855469 228.886719 C 174.855469 227.554688 176.855469 227.554688 176.855469 228.886719 "/>
<path style=" stroke:none;fill-rule:nonzero;fill:rgb(100%,0%,0%);fill-opacity:1;" d="M 433.566406 494.722656 C 433.566406 496.054688 431.566406 496.054688 431.566406 494.722656 C 431.566406 493.390625 433.566406 493.390625 433.566406 494.722656 "/>
<path style=" stroke:none;fill-rule:nonzero;fill:rgb(100%,0%,0%);fill-opacity:1;" d="M 424.640625 484.769531 C 424.640625 486.101562 422.640625 486.101562 422.640625 484.769531 C 422.640625 483.4375 424.640625 483.4375 424.640625 484.769531 "/>
<path style=" stroke:none;fill-rule:nonzero;fill:rgb(100%,0%,0%);fill-opacity:1;" d="M 92.738281 485.609375 C 92.738281 486.941406 90.738281 486.941406 90.738281 485.609375 C 90.738281 484.277344 92.738281 484.277344 92.738281 485.609375 "/>
<path style=" stroke:none;fill-rule:nonzero;fill:rgb(100%,0%,0%);fill-opacity:1;" d="M 98.699219 497.625 C 98.699219 498.957031 96.699219 498.957031 96.699219 497.625 C 96.699219 496.292969 98.699219 496.292969 98.699219 497.625 "/>
<path style=" stroke:none;fill-rule:nonzero;fill:rgb(100%,0%,0%);fill-opacity:1;" d="M 48.808594 176.875 C 48.808594 178.207031 46.808594 178.207031 46.808594 176.875 C 46.808594 175.539062 48.808594 175.539062 48.808594 176.875 "/>
<path style=" stroke:none;fill-rule:nonzero;fill:rgb(100%,0%,0%);fill-opacity:1;" d="M 51.808594 189.804688 C 51.808594 191.136719 49.808594 191.136719 49.808594 189.804688 C 49.808594 188.472656 51.808594 188.472656 51.808594 189.804688 "/>
<path style=" stroke:none;fill-rule:nonzero;fill:rgb(100%,0%,0%);fill-opacity:1;" d="M 201.296875 406.644531 C 201.296875 407.976562 199.296875 407.976562 199.296875 406.644531 C 199.296875 405.308594 201.296875 405.308594 201.296875 406.644531 "/>
<path style=" stroke:none;fill-rule:nonzero;fill:rgb(100%,0%,0%);fill-opacity:1;" d="M 214.832031 405.625 C 214.832031 406.957031 212.832031 406.957031 212.832031 405.625 C 212.832031 404.292969 214.832031 404.292969 214.832031 405.625 "/>
<path style=" stroke:none;fill-rule:nonzero;fill:rgb(100%,0%,0%);fill-opacity:1;" d="M 295.785156 387.171875 C 295.785156 388.503906 293.785156 388.503906 293.785156 387.171875 C 293.785156 385.835938 295.785156 385.835938 295.785156 387.171875 "/>
<path style=" stroke:none;fill-rule:nonzero;fill:rgb(100%,0%,0%);fill-opacity:1;" d="M 305.125 377.5 C 305.125 378.832031 303.125 378.832031 303.125 377.5 C 303.125 376.164062 305.125 376.164062 305.125 377.5 "/>
<path style=" stroke:none;fill-rule:nonzero;fill:rgb(100%,0%,0%);fill-opacity:1;" d="M 378.195312 305.652344 C 378.195312 306.984375 376.195312 306.984375 376.195312 305.652344 C 376.195312 304.320312 378.195312 304.320312 378.195312 305.652344 "/>
<path style=" stroke:none;fill-rule:nonzero;fill:rgb(100%,0%,0%);fill-opacity:1;" d="M 373.339844 317.878906 C 373.339844 319.210938 371.339844 319.210938 371.339844 317.878906 C 371.339844 316.546875 373.339844 316.546875 373.339844 317.878906 "/>
<path style=" stroke:none;fill-rule:nonzero;fill:rgb(100%,0%,0%);fill-opacity:1;" d="M 476.601562 449.566406 C 476.601562 450.898438 474.601562 450.898438 474.601562 449.566406 C 474.601562 448.230469 476.601562 448.230469 476.601562 449.566406 "/>
<path style=" stroke:none;fill-rule:nonzero;fill:rgb(100%,0%,0%);fill-opacity:1;" d="M 489.175781 457.148438 C 489.175781 458.480469 487.175781 458.480469 487.175781 457.148438 C 487.175781 455.8125 489.175781 455.8125 489.175781 457.148438 "/>
<path style=" stroke:none;fill-rule:nonzero;fill:rgb(100%,0%,0%);fill-opacity:1;" d="M 268.800781 358.132812 C 268.800781 359.46875 266.800781 359.46875 266.800781 358.132812 C 266.800781 356.800781 268.800781 356.800781 268.800781 358.132812 "/>
<path style=" stroke:none;fill-rule:nonzero;fill:rgb(100%,0%,0%);fill-opacity:1;" d="M 260.449219 368.789062 C 260.449219 370.121094 258.449219 370.121094 258.449219 368.789062 C 258.449219 367.457031 260.449219 367.457031 260.449219 368.789062 "/>
<path style=" stroke:none;fill-rule:nonzero;fill:rgb(100%,0%,0%);fill-opacity:1;" d="M 308.496094 317.925781 C 308.496094 319.261719 306.496094 319.261719 306.496094 317.925781 C 306.496094 316.59375 308.496094 316.59375 308.496094 317.925781 "/>
<path style=" stroke:none;fill-rule:nonzero;fill:rgb(100%,0%,0%);fill-opacity:1;" d="M 322.027344 318.640625 C 322.027344 319.976562 320.027344 319.976562 320.027344 318.640625 C 320.027344 317.308594 322.027344 317.308594 322.027344 318.640625 "/>
<path style=" stroke:none;fill-rule:nonzero;fill:rgb(100%,0%,0%);fill-opacity:1;" d="M 139.359375 360.695312 C 139.359375 362.03125 137.359375 362.03125 137.359375 360.695312 C 137.359375 359.363281 139.359375 359.363281 139.359375 360.695312 "/>
<path style=" stroke:none;fill-rule:nonzero;fill:rgb(100%,0%,0%);fill-opacity:1;" d="M 134.453125 348.382812 C 134.453125 349.714844 132.453125 349.714844 132.453125 348.382812 C 132.453125 347.050781 134.453125 347.050781 134.453125 348.382812 "/>
<path style=" stroke:none;fill-rule:nonzero;fill:rgb(100%,0%,0%);fill-opacity:1;" d="M 209.949219 187.507812 C 209.949219 188.839844 207.949219 188.839844 207.949219 187.507812 C 207.949219 186.175781 209.949219 186.175781 209.949219 187.507812 "/>
<path style=" stroke:none;fill-rule:nonzero;fill:rgb(100%,0%,0%);fill-opacity:1;" d="M 222.835938 183.261719 C 222.835938 184.59375 220.835938 184.59375 220.835938 183.261719 C 220.835938 181.925781 222.835938 181.925781 222.835938 183.261719 "/>
<path style=" stroke:none;fill-rule:nonzero;fill:rgb(100%,0%,0%);fill-opacity:1;" d="M 332.054688 251.59375 C 332.054688 252.929688 330.054688 252.929688 330.054688 251.59375 C 330.054688 250.261719 332.054688 250.261719 332.054688 251.59375 "/>
<path style=" stroke:none;fill-rule:nonzero;fill:rgb(100%,0%,0%);fill-opacity:1;" d="M 295.425781 222.148438 C 295.425781 223.484375 293.425781 223.484375 293.425781 222.148438 C 293.425781 220.816406 295.425781 220.816406 295.425781 222.148438 "/>
<path style=" stroke:none;fill-rule:nonzero;fill:rgb(100%,0%,0%);fill-opacity:1;" d="M 116.414062 280.269531 C 116.414062 281.601562 114.414062 281.601562 114.414062 280.269531 C 114.414062 278.9375 116.414062 278.9375 116.414062 280.269531 "/>
<path style=" stroke:none;fill-rule:nonzero;fill:rgb(100%,0%,0%);fill-opacity:1;" d="M 130.789062 279.511719 C 130.789062 280.84375 128.789062 280.84375 128.789062 279.511719 C 128.789062 278.179688 130.789062 278.179688 130.789062 279.511719 "/>
<path style=" stroke:none;fill-rule:nonzero;fill:rgb(100%,0%,0%);fill-opacity:1;" d="M 216.683594 535.234375 C 216.683594 536.570312 214.683594 536.570312 214.683594 535.234375 C 214.683594 533.902344 216.683594 533.902344 216.683594 535.234375 "/>
<path style=" stroke:none;fill-rule:nonzero;fill:rgb(100%,0%,0%);fill-opacity:1;" d="M 203.390625 538.695312 C 203.390625 540.027344 201.390625 540.027344 201.390625 538.695312 C 201.390625 537.363281 203.390625 537.363281 203.390625 538.695312 "/>
<path style=" stroke:none;fill-rule:nonzero;fill:rgb(100%,0%,0%);fill-opacity:1;" d="M 398.730469 434.863281 C 398.730469 436.195312 396.730469 436.195312 396.730469 434.863281 C 396.730469 433.53125 398.730469 433.53125 398.730469 434.863281 "/>
<path style=" stroke:none;fill-rule:nonzero;fill:rgb(100%,0%,0%);fill-opacity:1;" d="M 384.5625 428.558594 C 384.5625 429.890625 382.5625 429.890625 382.5625 428.558594 C 382.5625 427.226562 384.5625 427.226562 384.5625 428.558594 "/>
<path style=" stroke:none;fill-rule:nonzero;fill:rgb(100%,0%,0%);fill-opacity:1;" d="M 442.292969 545.242188 C 442.292969 546.578125 440.292969 546.578125 440.292969 545.242188 C 440.292969 543.910156 442.292969 543.910156 442.292969 545.242188 "/>
<path style=" stroke:none;fill-rule:nonzero;fill:rgb(100%,0%,0%);fill-opacity:1;" d="M 112.019531 221.367188 C 112.019531 222.703125 110.019531 222.703125 110.019531 221.367188 C 110.019531 220.035156 112.019531 220.035156 112.019531 221.367188 "/>
<path style=" stroke:none;fill-rule:nonzero;fill:rgb(100%,0%,0%);fill-opacity:1;" d="M 124.875 214.667969 C 124.875 216 122.875 216 122.875 214.667969 C 122.875 213.332031 124.875 213.332031 124.875 214.667969 "/>
<path style=" stroke:none;fill-rule:nonzero;fill:rgb(100%,0%,0%);fill-opacity:1;" d="M 431.15625 70.3125 C 431.15625 71.644531 429.15625 71.644531 429.15625 70.3125 C 429.15625 68.980469 431.15625 68.980469 431.15625 70.3125 "/>
<path style=" stroke:none;fill-rule:nonzero;fill:rgb(100%,0%,0%);fill-opacity:1;" d="M 443.96875 75.015625 C 443.96875 76.351562 441.96875 76.351562 441.96875 75.015625 C 441.96875 73.683594 443.96875 73.683594 443.96875 75.015625 "/>
<path style=" stroke:none;fill-rule:nonzero;fill:rgb(100%,0%,0%);fill-opacity:1;" d="M 342.871094 204.25 C 342.871094 205.582031 340.871094 205.582031 340.871094 204.25 C 340.871094 202.917969 342.871094 202.917969 342.871094 204.25 "/>
<path style=" stroke:none;fill-rule:nonzero;fill:rgb(100%,0%,0%);fill-opacity:1;" d="M 317.96875 43.847656 C 317.96875 45.179688 315.96875 45.179688 315.96875 43.847656 C 315.96875 42.511719 317.96875 42.511719 317.96875 43.847656 "/>
<path style=" stroke:none;fill-rule:nonzero;fill:rgb(100%,0%,0%);fill-opacity:1;" d="M 304.398438 45.195312 C 304.398438 46.53125 302.398438 46.53125 302.398438 45.195312 C 302.398438 43.863281 304.398438 43.863281 304.398438 45.195312 "/>
<path style=" stroke:none;fill-rule:nonzero;fill:rgb(100%,0%,0%);fill-opacity:1;" d="M 80.546875 113.417969 C 80.546875 114.75 78.546875 114.75 78.546875 113.417969 C 78.546875 112.082031 80.546875 112.082031 80.546875 113.417969 "/>
<path style=" stroke:none;fill-rule:nonzero;fill:rgb(100%,0%,0%);fill-opacity:1;" d="M 349.511719 221.96875 C 349.511719 223.300781 347.511719 223.300781 347.511719 221.96875 C 347.511719 220.636719 349.511719 220.636719 349.511719 221.96875 "/>
<path style=" stroke:none;fill-rule:nonzero;fill:rgb(100%,0%,0%);fill-opacity:1;" d="M 414.4375 347.265625 C 414.4375 348.601562 412.4375 348.601562 412.4375 347.265625 C 412.4375 345.933594 414.4375 345.933594 414.4375 347.265625 "/>
<path style=" stroke:none;fill-rule:nonzero;fill:rgb(100%,0%,0%);fill-opacity:1;" d="M 477.695312 148.832031 C 477.695312 150.164062 475.695312 150.164062 475.695312 148.832031 C 475.695312 147.496094 477.695312 147.496094 477.695312 148.832031 "/>
<path style=" stroke:none;fill-rule:nonzero;fill:rgb(100%,0%,0%);fill-opacity:1;" d="M 485.652344 138.046875 C 485.652344 139.378906 483.652344 139.378906 483.652344 138.046875 C 483.652344 136.714844 485.652344 136.714844 485.652344 138.046875 "/>
<path style=" stroke:none;fill-rule:nonzero;fill:rgb(100%,0%,0%);fill-opacity:1;" d="M 148.035156 412.472656 C 148.035156 413.804688 146.035156 413.804688 146.035156 412.472656 C 146.035156 411.136719 148.035156 411.136719 148.035156 412.472656 "/>
<path style=" stroke:none;fill-rule:nonzero;fill:rgb(100%,0%,0%);fill-opacity:1;" d="M 134.640625 414.910156 C 134.640625 416.242188 132.640625 416.242188 132.640625 414.910156 C 132.640625 413.578125 134.640625 413.578125 134.640625 414.910156 "/>
<path style=" stroke:none;fill-rule:nonzero;fill:rgb(100%,0%,0%);fill-opacity:1;" d="M 515.171875 245.066406 C 515.171875 246.398438 513.171875 246.398438 513.171875 245.066406 C 513.171875 243.734375 515.171875 243.734375 515.171875 245.066406 "/>
<path style=" stroke:none;fill-rule:nonzero;fill:rgb(100%,0%,0%);fill-opacity:1;" d="M 506.246094 235.148438 C 506.246094 236.484375 504.246094 236.484375 504.246094 235.148438 C 504.246094 233.816406 506.246094 233.816406 506.246094 235.148438 "/>
<path style=" stroke:none;fill-rule:nonzero;fill:rgb(100%,0%,0%);fill-opacity:1;" d="M 301.039062 441.984375 C 301.039062 443.316406 299.039062 443.316406 299.039062 441.984375 C 299.039062 440.652344 301.039062 440.652344 301.039062 441.984375 "/>
<path style=" stroke:none;fill-rule:nonzero;fill:rgb(100%,0%,0%);fill-opacity:1;" d="M 311.484375 432.421875 C 311.484375 433.753906 309.484375 433.753906 309.484375 432.421875 C 309.484375 431.085938 311.484375 431.085938 311.484375 432.421875 "/>
<path style=" stroke:none;fill-rule:nonzero;fill:rgb(100%,0%,0%);fill-opacity:1;" d="M 252.90625 440.097656 C 252.90625 441.429688 250.90625 441.429688 250.90625 440.097656 C 250.90625 438.765625 252.90625 438.765625 252.90625 440.097656 "/>
<path style=" stroke:none;fill-rule:nonzero;fill:rgb(100%,0%,0%);fill-opacity:1;" d="M 246.382812 451.558594 C 246.382812 452.890625 244.382812 452.890625 244.382812 451.558594 C 244.382812 450.226562 246.382812 450.226562 246.382812 451.558594 "/>
<path style=" stroke:none;fill-rule:nonzero;fill:rgb(100%,0%,0%);fill-opacity:1;" d="M 372.082031 437.714844 C 372.082031 439.046875 370.082031 439.046875 370.082031 437.714844 C 370.082031 436.378906 372.082031 436.378906 372.082031 437.714844 "/>
<path style=" stroke:none;fill-rule:nonzero;fill:rgb(100%,0%,0%);fill-opacity:1;" d="M 501.304688 466.980469 C 501.304688 468.3125 499.304688 468.3125 499.304688 466.980469 C 499.304688 465.644531 501.304688 465.644531 501.304688 466.980469 "/>
<path style=" stroke:none;fill-rule:nonzero;fill:rgb(100%,0%,0%);fill-opacity:1;" d="M 511.425781 477.492188 C 511.425781 478.824219 509.425781 478.824219 509.425781 477.492188 C 509.425781 476.15625 511.425781 476.15625 511.425781 477.492188 "/>
<path style=" stroke:none;fill-rule:nonzero;fill:rgb(100%,0%,0%);fill-opacity:1;" d="M 371.03125 25.507812 C 371.03125 26.839844 369.03125 26.839844 369.03125 25.507812 C 369.03125 24.171875 371.03125 24.171875 371.03125 25.507812 "/>
<path style=" stroke:none;fill-rule:nonzero;fill:rgb(100%,0%,0%);fill-opacity:1;" d="M 552.5625 415.230469 C 552.5625 416.5625 550.5625 416.5625 550.5625 415.230469 C 550.5625 413.898438 552.5625 413.898438 552.5625 415.230469 "/>
<path style=" stroke:none;fill-rule:nonzero;fill:rgb(100%,0%,0%);fill-opacity:1;" d="M 145.113281 277.75 C 145.113281 279.082031 143.113281 279.082031 143.113281 277.75 C 143.113281 276.417969 145.113281 276.417969 145.113281 277.75 "/>
<path style=" stroke:none;fill-rule:nonzero;fill:rgb(100%,0%,0%);fill-opacity:1;" d="M 577.816406 182.777344 C 577.816406 184.113281 575.816406 184.113281 575.816406 182.777344 C 575.816406 181.445312 577.816406 181.445312 577.816406 182.777344 "/>
<path style=" stroke:none;fill-rule:nonzero;fill:rgb(100%,0%,0%);fill-opacity:1;" d="M 581 195.785156 C 581 197.117188 579 197.117188 579 195.785156 C 579 194.449219 581 194.449219 581 195.785156 "/>
<path style=" stroke:none;fill-rule:nonzero;fill:rgb(100%,0%,0%);fill-opacity:1;" d="M 349.34375 240.09375 C 349.34375 241.425781 347.34375 241.425781 347.34375 240.09375 C 347.34375 238.757812 349.34375 238.757812 349.34375 240.09375 "/>
<path style=" stroke:none;fill-rule:nonzero;fill:rgb(100%,0%,0%);fill-opacity:1;" d="M 311.273438 218.746094 C 311.273438 220.078125 309.273438 220.078125 309.273438 218.746094 C 309.273438 217.414062 311.273438 217.414062 311.273438 218.746094 "/>
<path style=" stroke:none;fill-rule:nonzero;fill:rgb(100%,0%,0%);fill-opacity:1;" d="M 37.984375 320.398438 C 37.984375 321.730469 35.984375 321.730469 35.984375 320.398438 C 35.984375 319.0625 37.984375 319.0625 37.984375 320.398438 "/>
<path style=" stroke:none;fill-rule:nonzero;fill:rgb(100%,0%,0%);fill-opacity:1;" d="M 25.5625 325.855469 C 25.5625 327.191406 23.5625 327.191406 23.5625 325.855469 C 23.5625 324.523438 25.5625 324.523438 25.5625 325.855469 "/>
<path style=" stroke:none;fill-rule:nonzero;fill:rgb(100%,0%,0%);fill-opacity:1;" d="M 21 245.3125 C 21 246.648438 19 246.648438 19 245.3125 C 19 243.980469 21 243.980469 21 245.3125 "/>
<path style=" stroke:none;fill-rule:nonzero;fill:rgb(100%,0%,0%);fill-opacity:1;" d="M 218.792969 44.921875 C 218.792969 46.253906 216.792969 46.253906 216.792969 44.921875 C 216.792969 43.585938 218.792969 43.585938 218.792969 44.921875 "/>
<path style=" stroke:none;fill-rule:nonzero;fill:rgb(100%,0%,0%);fill-opacity:1;" d="M 204.246094 477.246094 C 204.246094 478.578125 202.246094 478.578125 202.246094 477.246094 C 202.246094 475.910156 204.246094 475.910156 204.246094 477.246094 "/>
<path style=" stroke:none;fill-rule:nonzero;fill:rgb(100%,0%,0%);fill-opacity:1;" d="M 214.078125 487.667969 C 214.078125 489 212.078125 489 212.078125 487.667969 C 212.078125 486.332031 214.078125 486.332031 214.078125 487.667969 "/>
<path style=" stroke:none;fill-rule:nonzero;fill:rgb(100%,0%,0%);fill-opacity:1;" d="M 195.382812 466.011719 C 195.382812 467.347656 193.382812 467.347656 193.382812 466.011719 C 193.382812 464.679688 195.382812 464.679688 195.382812 466.011719 "/>
<path style=" stroke:none;fill-rule:nonzero;fill:rgb(100%,0%,0%);fill-opacity:1;" d="M 257.722656 579.382812 C 257.722656 580.714844 255.722656 580.714844 255.722656 579.382812 C 255.722656 578.050781 257.722656 578.050781 257.722656 579.382812 "/>
<path style=" stroke:none;fill-rule:nonzero;fill:rgb(100%,0%,0%);fill-opacity:1;" d="M 244.078125 580 C 244.078125 581.332031 242.078125 581.332031 242.078125 580 C 242.078125 578.667969 244.078125 578.667969 244.078125 580 "/>
<path style=" stroke:none;fill-rule:nonzero;fill:rgb(100%,0%,0%);fill-opacity:1;" d="M 453.230469 390.640625 C 453.230469 391.976562 451.230469 391.976562 451.230469 390.640625 C 451.230469 389.308594 453.230469 389.308594 453.230469 390.640625 "/>
<path style=" stroke:none;fill-rule:nonzero;fill:rgb(100%,0%,0%);fill-opacity:1;" d="M 474.742188 392.28125 C 474.742188 393.613281 472.742188 393.613281 472.742188 392.28125 C 472.742188 390.945312 474.742188 390.945312 474.742188 392.28125 "/>
<path style=" stroke:none;fill-rule:nonzero;fill:rgb(100%,0%,0%);fill-opacity:1;" d="M 355.460938 502.160156 C 355.460938 503.492188 353.460938 503.492188 353.460938 502.160156 C 353.460938 500.828125 355.460938 500.828125 355.460938 502.160156 "/>
<path style=" stroke:none;fill-rule:nonzero;fill:rgb(100%,0%,0%);fill-opacity:1;" d="M 364.832031 492.660156 C 364.832031 493.992188 362.832031 493.992188 362.832031 492.660156 C 362.832031 491.324219 364.832031 491.324219 364.832031 492.660156 "/>
<path style=" stroke:none;fill-rule:nonzero;fill:rgb(100%,0%,0%);fill-opacity:1;" d="M 144.023438 469.644531 C 144.023438 470.976562 142.023438 470.976562 142.023438 469.644531 C 142.023438 468.3125 144.023438 468.3125 144.023438 469.644531 "/>
<path style=" stroke:none;fill-rule:nonzero;fill:rgb(100%,0%,0%);fill-opacity:1;" d="M 147.460938 482.519531 C 147.460938 483.851562 145.460938 483.851562 145.460938 482.519531 C 145.460938 481.1875 147.460938 481.1875 147.460938 482.519531 "/>
<path style=" stroke:none;fill-rule:nonzero;fill:rgb(100%,0%,0%);fill-opacity:1;" d="M 234.84375 122.558594 C 234.84375 123.890625 232.84375 123.890625 232.84375 122.558594 C 232.84375 121.222656 234.84375 121.222656 234.84375 122.558594 "/>
<path style=" stroke:none;fill-rule:nonzero;fill:rgb(100%,0%,0%);fill-opacity:1;" d="M 240.921875 102.53125 C 240.921875 103.863281 238.921875 103.863281 238.921875 102.53125 C 238.921875 101.199219 240.921875 101.199219 240.921875 102.53125 "/>
<path style=" stroke:none;fill-rule:nonzero;fill:rgb(100%,0%,0%);fill-opacity:1;" d="M 332.394531 215.539062 C 332.394531 216.875 330.394531 216.875 330.394531 215.539062 C 330.394531 214.207031 332.394531 214.207031 332.394531 215.539062 "/>
<path style=" stroke:none;fill-rule:nonzero;fill:rgb(100%,0%,0%);fill-opacity:1;" d="M 137.457031 207.503906 C 137.457031 208.839844 135.457031 208.839844 135.457031 207.503906 C 135.457031 206.171875 137.457031 206.171875 137.457031 207.503906 "/>
<path style=" stroke:none;fill-rule:nonzero;fill:rgb(100%,0%,0%);fill-opacity:1;" d="M 222.101562 245.644531 C 222.101562 246.976562 220.101562 246.976562 220.101562 245.644531 C 220.101562 244.3125 222.101562 244.3125 222.101562 245.644531 "/>
<path style=" stroke:none;fill-rule:nonzero;fill:rgb(100%,0%,0%);fill-opacity:1;" d="M 223.929688 232.730469 C 223.929688 234.0625 221.929688 234.0625 221.929688 232.730469 C 221.929688 231.398438 223.929688 231.398438 223.929688 232.730469 "/>
<path style=" stroke:none;fill-rule:nonzero;fill:rgb(100%,0%,0%);fill-opacity:1;" d="M 287.15625 150.878906 C 287.15625 152.210938 285.15625 152.210938 285.15625 150.878906 C 285.15625 149.546875 287.15625 149.546875 287.15625 150.878906 "/>
<path style=" stroke:none;fill-rule:nonzero;fill:rgb(100%,0%,0%);fill-opacity:1;" d="M 300.664062 148.78125 C 300.664062 150.113281 298.664062 150.113281 298.664062 148.78125 C 298.664062 147.445312 300.664062 147.445312 300.664062 148.78125 "/>
<path style=" stroke:none;fill-rule:nonzero;fill:rgb(100%,0%,0%);fill-opacity:1;" d="M 459.152344 226.496094 C 459.152344 227.828125 457.152344 227.828125 457.152344 226.496094 C 457.152344 225.164062 459.152344 225.164062 459.152344 226.496094 "/>
<path style=" stroke:none;fill-rule:nonzero;fill:rgb(100%,0%,0%);fill-opacity:1;" d="M 460.160156 213.335938 C 460.160156 214.667969 458.160156 214.667969 458.160156 213.335938 C 458.160156 212.003906 460.160156 212.003906 460.160156 213.335938 "/>
<path style=" stroke:none;fill-rule:nonzero;fill:rgb(100%,0%,0%);fill-opacity:1;" d="M 247.886719 115.367188 C 247.886719 116.699219 245.886719 116.699219 245.886719 115.367188 C 245.886719 114.035156 247.886719 114.035156 247.886719 115.367188 "/>
<path style=" stroke:none;fill-rule:nonzero;fill:rgb(100%,0%,0%);fill-opacity:1;" d="M 227.714844 109.695312 C 227.714844 111.03125 225.714844 111.03125 225.714844 109.695312 C 225.714844 108.363281 227.714844 108.363281 227.714844 109.695312 "/>
<path style=" stroke:none;fill-rule:nonzero;fill:rgb(100%,0%,0%);fill-opacity:1;" d="M 185.15625 76.425781 C 185.15625 77.757812 183.15625 77.757812 183.15625 76.425781 C 183.15625 75.089844 185.15625 75.089844 185.15625 76.425781 "/>
<path style=" stroke:none;fill-rule:nonzero;fill:rgb(100%,0%,0%);fill-opacity:1;" d="M 455.117188 291.425781 C 455.117188 292.757812 453.117188 292.757812 453.117188 291.425781 C 453.117188 290.09375 455.117188 290.09375 455.117188 291.425781 "/>
<path style=" stroke:none;fill-rule:nonzero;fill:rgb(100%,0%,0%);fill-opacity:1;" d="M 441.683594 293.125 C 441.683594 294.457031 439.683594 294.457031 439.683594 293.125 C 439.683594 291.789062 441.683594 291.789062 441.683594 293.125 "/>
<path style=" stroke:none;fill-rule:nonzero;fill:rgb(100%,0%,0%);fill-opacity:1;" d="M 302.664062 489.515625 C 302.664062 490.851562 300.664062 490.851562 300.664062 489.515625 C 300.664062 488.183594 302.664062 488.183594 302.664062 489.515625 "/>
<path style=" stroke:none;fill-rule:nonzero;fill:rgb(100%,0%,0%);fill-opacity:1;" d="M 289.328125 492.332031 C 289.328125 493.664062 287.328125 493.664062 287.328125 492.332031 C 287.328125 490.996094 289.328125 490.996094 289.328125 492.332031 "/>
<path style=" stroke:none;fill-rule:nonzero;fill:rgb(100%,0%,0%);fill-opacity:1;" d="M 373.933594 557.160156 C 373.933594 558.492188 371.933594 558.492188 371.933594 557.160156 C 371.933594 555.824219 373.933594 555.824219 373.933594 557.160156 "/>
<path style=" stroke:none;fill-rule:nonzero;fill:rgb(100%,0%,0%);fill-opacity:1;" d="M 383.871094 548.070312 C 383.871094 549.402344 381.871094 549.402344 381.871094 548.070312 C 381.871094 546.738281 383.871094 546.738281 383.871094 548.070312 "/>
<path style=" stroke:none;fill-rule:nonzero;fill:rgb(100%,0%,0%);fill-opacity:1;" d="M 360.457031 361.519531 C 360.457031 362.851562 358.457031 362.851562 358.457031 361.519531 C 358.457031 360.183594 360.457031 360.183594 360.457031 361.519531 "/>
<path style=" stroke:none;fill-rule:nonzero;fill:rgb(100%,0%,0%);fill-opacity:1;" d="M 350.933594 370.738281 C 350.933594 372.070312 348.933594 372.070312 348.933594 370.738281 C 348.933594 369.402344 350.933594 369.402344 350.933594 370.738281 "/>
<path style=" stroke:none;fill-rule:nonzero;fill:rgb(100%,0%,0%);fill-opacity:1;" d="M 213.1875 317.917969 C 213.1875 319.25 211.1875 319.25 211.1875 317.917969 C 211.1875 316.582031 213.1875 316.582031 213.1875 317.917969 "/>
<path style=" stroke:none;fill-rule:nonzero;fill:rgb(100%,0%,0%);fill-opacity:1;" d="M 232.976562 323.796875 C 232.976562 325.128906 230.976562 325.128906 230.976562 323.796875 C 230.976562 322.460938 232.976562 322.460938 232.976562 323.796875 "/>
<path style=" stroke:none;fill-rule:nonzero;fill:rgb(100%,0%,0%);fill-opacity:1;" d="M 232.832031 308.109375 C 232.832031 309.445312 230.832031 309.445312 230.832031 308.109375 C 230.832031 306.777344 232.832031 306.777344 232.832031 308.109375 "/>
<path style=" stroke:none;fill-rule:nonzero;fill:rgb(100%,0%,0%);fill-opacity:1;" d="M 203.6875 300.128906 C 203.6875 301.464844 201.6875 301.464844 201.6875 300.128906 C 201.6875 298.796875 203.6875 298.796875 203.6875 300.128906 "/>
<path style=" stroke:none;fill-rule:nonzero;fill:rgb(100%,0%,0%);fill-opacity:1;" d="M 206.144531 338.785156 C 206.144531 340.117188 204.144531 340.117188 204.144531 338.785156 C 204.144531 337.453125 206.144531 337.453125 206.144531 338.785156 "/>
<path style=" stroke:none;fill-rule:nonzero;fill:rgb(100%,0%,0%);fill-opacity:1;" d="M 195.632812 326.957031 C 195.632812 328.289062 193.632812 328.289062 193.632812 326.957031 C 193.632812 325.621094 195.632812 325.621094 195.632812 326.957031 "/>
<path style=" stroke:none;fill-rule:nonzero;fill:rgb(100%,0%,0%);fill-opacity:1;" d="M 219.640625 299.101562 C 219.640625 300.4375 217.640625 300.4375 217.640625 299.101562 C 217.640625 297.769531 219.640625 297.769531 219.640625 299.101562 "/>
<path style=" stroke:none;fill-rule:nonzero;fill:rgb(100%,0%,0%);fill-opacity:1;" d="M 192.558594 311.734375 C 192.558594 313.066406 190.558594 313.066406 190.558594 311.734375 C 190.558594 310.398438 192.558594 310.398438 192.558594 311.734375 "/>
<path style=" stroke:none;fill-rule:nonzero;fill:rgb(100%,0%,0%);fill-opacity:1;" d="M 221.910156 335.019531 C 221.910156 336.351562 219.910156 336.351562 219.910156 335.019531 C 219.910156 333.683594 221.910156 333.683594 221.910156 335.019531 "/>
<path style=" stroke:none;fill-rule:nonzero;fill:rgb(100%,0%,0%);fill-opacity:1;" d="M 321.839844 422.707031 C 321.839844 424.039062 319.839844 424.039062 319.839844 422.707031 C 319.839844 421.371094 321.839844 421.371094 321.839844 422.707031 "/>
<path style=" stroke:none;fill-rule:nonzero;fill:rgb(100%,0%,0%);fill-opacity:1;" d="M 66.09375 417.789062 C 66.09375 419.125 64.09375 419.125 64.09375 417.789062 C 64.09375 416.457031 66.09375 416.457031 66.09375 417.789062 "/>
<path style=" stroke:none;fill-rule:nonzero;fill:rgb(100%,0%,0%);fill-opacity:1;" d="M 55.710938 409.148438 C 55.710938 410.480469 53.710938 410.480469 53.710938 409.148438 C 53.710938 407.8125 55.710938 407.8125 55.710938 409.148438 "/>
<path style=" stroke:none;fill-rule:nonzero;fill:rgb(100%,0%,0%);fill-opacity:1;" d="M 572.753906 285.925781 C 572.753906 287.257812 570.753906 287.257812 570.753906 285.925781 C 570.753906 284.59375 572.753906 284.59375 572.753906 285.925781 "/>
<path style=" stroke:none;fill-rule:nonzero;fill:rgb(100%,0%,0%);fill-opacity:1;" d="M 567.136719 297.996094 C 567.136719 299.328125 565.136719 299.328125 565.136719 297.996094 C 565.136719 296.664062 567.136719 296.664062 567.136719 297.996094 "/>
<path style=" stroke:none;fill-rule:nonzero;fill:rgb(100%,0%,0%);fill-opacity:1;" d="M 419.707031 253.121094 C 419.707031 254.453125 417.707031 254.453125 417.707031 253.121094 C 417.707031 251.785156 419.707031 251.785156 419.707031 253.121094 "/>
<path style=" stroke:none;fill-rule:nonzero;fill:rgb(100%,0%,0%);fill-opacity:1;" d="M 407.625 259.007812 C 407.625 260.339844 405.625 260.339844 405.625 259.007812 C 405.625 257.675781 407.625 257.675781 407.625 259.007812 "/>
<path style=" stroke:none;fill-rule:nonzero;fill:rgb(100%,0%,0%);fill-opacity:1;" d="M 369.109375 93.421875 C 369.109375 94.753906 367.109375 94.753906 367.109375 93.421875 C 367.109375 92.089844 369.109375 92.089844 369.109375 93.421875 "/>
<path style=" stroke:none;fill-rule:nonzero;fill:rgb(100%,0%,0%);fill-opacity:1;" d="M 358.632812 85.035156 C 358.632812 86.367188 356.632812 86.367188 356.632812 85.035156 C 356.632812 83.703125 358.632812 83.703125 358.632812 85.035156 "/>
<path style=" stroke:none;fill-rule:nonzero;fill:rgb(100%,0%,0%);fill-opacity:1;" d="M 87.046875 365.4375 C 87.046875 366.773438 85.046875 366.773438 85.046875 365.4375 C 85.046875 364.105469 87.046875 364.105469 87.046875 365.4375 "/>
<path style=" stroke:none;fill-rule:nonzero;fill:rgb(100%,0%,0%);fill-opacity:1;" d="M 81.707031 353.296875 C 81.707031 354.628906 79.707031 354.628906 79.707031 353.296875 C 79.707031 351.964844 81.707031 351.964844 81.707031 353.296875 "/>
<path style=" stroke:none;fill-rule:nonzero;fill:rgb(100%,0%,0%);fill-opacity:1;" d="M 502.605469 292.550781 C 502.605469 293.882812 500.605469 293.882812 500.605469 292.550781 C 500.605469 291.214844 502.605469 291.214844 502.605469 292.550781 "/>
<path style=" stroke:none;fill-rule:nonzero;fill:rgb(100%,0%,0%);fill-opacity:1;" d="M 508.292969 304.484375 C 508.292969 305.816406 506.292969 305.816406 506.292969 304.484375 C 506.292969 303.148438 508.292969 303.148438 508.292969 304.484375 "/>
<path style=" stroke:none;fill-rule:nonzero;fill:rgb(100%,0%,0%);fill-opacity:1;" d="M 313.835938 253.238281 C 313.835938 254.574219 311.835938 254.574219 311.835938 253.238281 C 311.835938 251.90625 313.835938 251.90625 313.835938 253.238281 "/>
<path style=" stroke:none;fill-rule:nonzero;fill:rgb(100%,0%,0%);fill-opacity:1;" d="M 334.691406 235.488281 C 334.691406 236.820312 332.691406 236.820312 332.691406 235.488281 C 332.691406 234.15625 334.691406 234.15625 334.691406 235.488281 "/>
<path style=" stroke:none;fill-rule:nonzero;fill:rgb(100%,0%,0%);fill-opacity:1;" d="M 383.308594 413.417969 C 383.308594 414.75 381.308594 414.75 381.308594 413.417969 C 381.308594 412.085938 383.308594 412.085938 383.308594 413.417969 "/>
<path style=" stroke:none;fill-rule:nonzero;fill:rgb(100%,0%,0%);fill-opacity:1;" d="M 323.488281 200.96875 C 323.488281 202.300781 321.488281 202.300781 321.488281 200.96875 C 321.488281 199.632812 323.488281 199.632812 323.488281 200.96875 "/>
</g>
</svg>
