<?xml version="1.0" encoding="UTF-8"?>
<svg xmlns="http://www.w3.org/2000/svg" xmlns:xlink="http://www.w3.org/1999/xlink" width="600pt" height="600pt" viewBox="0 0 600 600" version="1.1">
<g id="surface6">
<rect x="0" y="0" width="600" height="600" style="fill:rgb(100%,100%,100%);fill-opacity:1;stroke:none;"/>
<path style="fill:none;stroke-width:0.2;stroke-linecap:butt;stroke-linejoin:miter;stroke:rgb(26.666667%,26.666667%,26.666667%);stroke-opacity:1;stroke-miterlimit:10;" d="M 339.207031 112.707031 C 339.207031 114.707031 336.207031 114.707031 336.207031 112.707031 C 336.207031 110.707031 339.207031 110.707031 339.207031 112.707031 "/>
<path style="fill:none;stroke-width:0.2;stroke-linecap:butt;stroke-linejoin:miter;stroke:rgb(26.666667%,26.666667%,26.666667%);stroke-opacity:1;stroke-miterlimit:10;" d="M 336.648438 113.765625 L 315.972656 118.609375 "/>
<path style="fill:none;stroke-width:0.2;stroke-linecap:butt;stroke-linejoin:miter;stroke:rgb(26.666667%,26.666667%,26.666667%);stroke-opacity:1;stroke-miterlimit:10;" d="M 336.648438 113.765625 L 354.121094 113.800781 "/>
<path style="fill:none;stroke-width:0.2;stroke-linecap:butt;stroke-linejoin:miter;stroke:rgb(26.666667%,26.666667%,26.666667%);stroke-opacity:1;stroke-miterlimit:10;" d="M 334.351562 411.457031 L 346.921875 404.023438 "/>
<path style="fill:none;stroke-width:0.2;stroke-linecap:butt;stroke-linejoin:miter;stroke:rgb(26.666667%,26.666667%,26.666667%);stroke-opacity:1;stroke-miterlimit:10;" d="M 503.261719 177.871094 L 517.949219 176.121094 "/>
<path style="fill:none;stroke-width:0.2;stroke-linecap:butt;stroke-linejoin:miter;stroke:rgb(26.666667%,26.666667%,26.666667%);stroke-opacity:1;stroke-miterlimit:10;" d="M 125.527344 258.828125 L 147.675781 267.683594 "/>
<path style="fill:none;stroke-width:0.2;stroke-linecap:butt;stroke-linejoin:miter;stroke:rgb(26.666667%,26.666667%,26.666667%);stroke-opacity:1;stroke-miterlimit:10;" d="M 424.144531 234.367188 C 424.144531 236.367188 421.144531 236.367188 421.144531 234.367188 C 421.144531 232.367188 424.144531 232.367188 424.144531 234.367188 "/>
<path style="fill:none;stroke-width:0.2;stroke-linecap:butt;stroke-linejoin:miter;stroke:rgb(26.666667%,26.666667%,26.666667%);stroke-opacity:1;stroke-miterlimit:10;" d="M 452.433594 551.203125 C 452.433594 553.203125 449.433594 553.203125 449.433594 551.203125 C 449.433594 549.203125 452.433594 549.203125 452.433594 551.203125 "/>
<path style="fill:none;stroke-width:0.2;stroke-linecap:butt;stroke-linejoin:miter;stroke:rgb(26.666667%,26.666667%,26.666667%);stroke-opacity:1;stroke-miterlimit:10;" d="M 334.988281 18.9375 C 334.988281 20.9375 331.988281 20.9375 331.988281 18.9375 C 331.988281 16.9375 334.988281 16.9375 334.988281 18.9375 "/>
<path style="fill:none;stroke-width:0.2;stroke-linecap:butt;stroke-linejoin:miter;stroke:rgb(26.666667%,26.666667%,26.666667%);stroke-opacity:1;stroke-miterlimit:10;" d="M 318.066406 136.324219 L 315.171875 119.824219 "/>
<path style="fill:none;stroke-width:0.2;stroke-linecap:butt;stroke-linejoin:miter;stroke:rgb(26.666667%,26.666667%,26.666667%);stroke-opacity:1;stroke-miterlimit:10;" d="M 31.25 157.085938 C 31.25 159.085938 28.25 159.085938 28.25 157.085938 C 28.25 155.085938 31.25 155.085938 31.25 157.085938 "/>
<path style="fill:none;stroke-width:0.2;stroke-linecap:butt;stroke-linejoin:miter;stroke:rgb(26.666667%,26.666667%,26.666667%);stroke-opacity:1;stroke-miterlimit:10;" d="M 210.375 435.167969 C 210.375 437.167969 207.375 437.167969 207.375 435.167969 C 207.375 433.167969 210.375 433.167969 210.375 435.167969 "/>
<path style="fill:none;stroke-width:0.2;stroke-linecap:butt;stroke-linejoin:miter;stroke:rgb(26.666667%,26.666667%,26.666667%);stroke-opacity:1;stroke-miterlimit:10;" d="M 375.773438 297.761719 C 375.773438 299.761719 372.773438 299.761719 372.773438 297.761719 C 372.773438 295.761719 375.773438 295.761719 375.773438 297.761719 "/>
<path style="fill:none;stroke-width:0.2;stroke-linecap:butt;stroke-linejoin:miter;stroke:rgb(26.666667%,26.666667%,26.666667%);stroke-opacity:1;stroke-miterlimit:10;" d="M 373.210938 298.820312 L 369.722656 313.15625 "/>
<path style="fill:none;stroke-width:0.2;stroke-linecap:butt;stroke-linejoin:miter;stroke:rgb(26.666667%,26.666667%,26.666667%);stroke-opacity:1;stroke-miterlimit:10;" d="M 282.902344 432.789062 C 282.902344 434.789062 279.902344 434.789062 279.902344 432.789062 C 279.902344 430.789062 282.902344 430.789062 282.902344 432.789062 "/>
<path style="fill:none;stroke-width:0.2;stroke-linecap:butt;stroke-linejoin:miter;stroke:rgb(26.666667%,26.666667%,26.666667%);stroke-opacity:1;stroke-miterlimit:10;" d="M 291.960938 265.765625 C 291.960938 267.765625 288.960938 267.765625 288.960938 265.765625 C 288.960938 263.765625 291.960938 263.765625 291.960938 265.765625 "/>
<path style="fill:none;stroke-width:0.2;stroke-linecap:butt;stroke-linejoin:miter;stroke:rgb(26.666667%,26.666667%,26.666667%);stroke-opacity:1;stroke-miterlimit:10;" d="M 475.519531 294.664062 L 473.015625 280.335938 "/>
<path style="fill:none;stroke-width:0.2;stroke-linecap:butt;stroke-linejoin:miter;stroke:rgb(26.666667%,26.666667%,26.666667%);stroke-opacity:1;stroke-miterlimit:10;" d="M 249.449219 118.808594 L 268.960938 116.753906 "/>
<path style="fill:none;stroke-width:0.2;stroke-linecap:butt;stroke-linejoin:miter;stroke:rgb(26.666667%,26.666667%,26.666667%);stroke-opacity:1;stroke-miterlimit:10;" d="M 249.449219 118.808594 L 232.511719 121.5625 "/>
<path style="fill:none;stroke-width:0.2;stroke-linecap:butt;stroke-linejoin:miter;stroke:rgb(26.666667%,26.666667%,26.666667%);stroke-opacity:1;stroke-miterlimit:10;" d="M 242.855469 578.9375 C 242.855469 580.9375 239.855469 580.9375 239.855469 578.9375 C 239.855469 576.9375 242.855469 576.9375 242.855469 578.9375 "/>
<path style="fill:none;stroke-width:0.2;stroke-linecap:butt;stroke-linejoin:miter;stroke:rgb(26.666667%,26.666667%,26.666667%);stroke-opacity:1;stroke-miterlimit:10;" d="M 321.214844 296.617188 L 316.667969 310.535156 "/>
<path style="fill:none;stroke-width:0.2;stroke-linecap:butt;stroke-linejoin:miter;stroke:rgb(26.666667%,26.666667%,26.666667%);stroke-opacity:1;stroke-miterlimit:10;" d="M 361.375 492.855469 L 376.117188 474.394531 "/>
<path style="fill:none;stroke-width:0.2;stroke-linecap:butt;stroke-linejoin:miter;stroke:rgb(26.666667%,26.666667%,26.666667%);stroke-opacity:1;stroke-miterlimit:10;" d="M 487.234375 404.082031 L 472.699219 401.636719 "/>
<path style="fill:none;stroke-width:0.2;stroke-linecap:butt;stroke-linejoin:miter;stroke:rgb(26.666667%,26.666667%,26.666667%);stroke-opacity:1;stroke-miterlimit:10;" d="M 372.277344 227.199219 L 359.738281 234.976562 "/>
<path style="fill:none;stroke-width:0.2;stroke-linecap:butt;stroke-linejoin:miter;stroke:rgb(26.666667%,26.666667%,26.666667%);stroke-opacity:1;stroke-miterlimit:10;" d="M 398.570312 382.066406 L 409.820312 391.445312 "/>
<path style="fill:none;stroke-width:0.2;stroke-linecap:butt;stroke-linejoin:miter;stroke:rgb(26.666667%,26.666667%,26.666667%);stroke-opacity:1;stroke-miterlimit:10;" d="M 391.027344 578.304688 C 391.027344 580.304688 388.027344 580.304688 388.027344 578.304688 C 388.027344 576.304688 391.027344 576.304688 391.027344 578.304688 "/>
<path style="fill:none;stroke-width:0.2;stroke-linecap:butt;stroke-linejoin:miter;stroke:rgb(26.666667%,26.666667%,26.666667%);stroke-opacity:1;stroke-miterlimit:10;" d="M 443.605469 187.605469 C 443.605469 189.605469 440.605469 189.605469 440.605469 187.605469 C 440.605469 185.605469 443.605469 185.605469 443.605469 187.605469 "/>
<path style="fill:none;stroke-width:0.2;stroke-linecap:butt;stroke-linejoin:miter;stroke:rgb(26.666667%,26.666667%,26.666667%);stroke-opacity:1;stroke-miterlimit:10;" d="M 537.222656 440.792969 C 537.222656 442.792969 534.222656 442.792969 534.222656 440.792969 C 534.222656 438.792969 537.222656 438.792969 537.222656 440.792969 "/>
<path style="fill:none;stroke-width:0.2;stroke-linecap:butt;stroke-linejoin:miter;stroke:rgb(26.666667%,26.666667%,26.666667%);stroke-opacity:1;stroke-miterlimit:10;" d="M 190.007812 393.535156 C 190.007812 395.535156 187.007812 395.535156 187.007812 393.535156 C 187.007812 391.535156 190.007812 391.535156 190.007812 393.535156 "/>
<path style="fill:none;stroke-width:0.2;stroke-linecap:butt;stroke-linejoin:miter;stroke:rgb(26.666667%,26.666667%,26.666667%);stroke-opacity:1;stroke-miterlimit:10;" d="M 81.566406 321.910156 C 81.566406 323.910156 78.566406 323.910156 78.566406 321.910156 C 78.566406 319.910156 81.566406 319.910156 81.566406 321.910156 "/>
<path style="fill:none;stroke-width:0.2;stroke-linecap:butt;stroke-linejoin:miter;stroke:rgb(26.666667%,26.666667%,26.666667%);stroke-opacity:1;stroke-miterlimit:10;" d="M 496.171875 345.066406 C 496.171875 347.066406 493.171875 347.066406 493.171875 345.066406 C 493.171875 343.066406 496.171875 343.066406 496.171875 345.066406 "/>
<path style="fill:none;stroke-width:0.2;stroke-linecap:butt;stroke-linejoin:miter;stroke:rgb(26.666667%,26.666667%,26.666667%);stroke-opacity:1;stroke-miterlimit:10;" d="M 380.660156 57.398438 C 380.660156 59.398438 377.660156 59.398438 377.660156 57.398438 C 377.660156 55.398438 380.660156 55.398438 380.660156 57.398438 "/>
<path style="fill:none;stroke-width:0.2;stroke-linecap:butt;stroke-linejoin:miter;stroke:rgb(26.666667%,26.666667%,26.666667%);stroke-opacity:1;stroke-miterlimit:10;" d="M 193.246094 61.882812 L 178.878906 58.660156 "/>
<path style="fill:none;stroke-width:0.2;stroke-linecap:butt;stroke-linejoin:miter;stroke:rgb(26.666667%,26.666667%,26.666667%);stroke-opacity:1;stroke-miterlimit:10;" d="M 554.046875 349.570312 L 548.890625 335.8125 "/>
<path style="fill:none;stroke-width:0.2;stroke-linecap:butt;stroke-linejoin:miter;stroke:rgb(26.666667%,26.666667%,26.666667%);stroke-opacity:1;stroke-miterlimit:10;" d="M 208.445312 345.390625 C 208.445312 347.390625 205.445312 347.390625 205.445312 345.390625 C 205.445312 343.390625 208.445312 343.390625 208.445312 345.390625 "/>
<path style="fill:none;stroke-width:0.2;stroke-linecap:butt;stroke-linejoin:miter;stroke:rgb(26.666667%,26.666667%,26.666667%);stroke-opacity:1;stroke-miterlimit:10;" d="M 141.539062 252.296875 L 132.773438 273.667969 "/>
<path style="fill:none;stroke-width:0.2;stroke-linecap:butt;stroke-linejoin:miter;stroke:rgb(26.666667%,26.666667%,26.666667%);stroke-opacity:1;stroke-miterlimit:10;" d="M 166.367188 562.773438 C 166.367188 564.773438 163.367188 564.773438 163.367188 562.773438 C 163.367188 560.773438 166.367188 560.773438 166.367188 562.773438 "/>
<path style="fill:none;stroke-width:0.2;stroke-linecap:butt;stroke-linejoin:miter;stroke:rgb(26.666667%,26.666667%,26.666667%);stroke-opacity:1;stroke-miterlimit:10;" d="M 273.289062 375.191406 L 258.742188 381.480469 "/>
<path style="fill:none;stroke-width:0.2;stroke-linecap:butt;stroke-linejoin:miter;stroke:rgb(26.666667%,26.666667%,26.666667%);stroke-opacity:1;stroke-miterlimit:10;" d="M 273.289062 375.191406 L 287.878906 369.0625 "/>
<path style="fill:none;stroke-width:0.2;stroke-linecap:butt;stroke-linejoin:miter;stroke:rgb(26.666667%,26.666667%,26.666667%);stroke-opacity:1;stroke-miterlimit:10;" d="M 24.691406 385.5 C 24.691406 387.5 21.691406 387.5 21.691406 385.5 C 21.691406 383.5 24.691406 383.5 24.691406 385.5 "/>
<path style="fill:none;stroke-width:0.2;stroke-linecap:butt;stroke-linejoin:miter;stroke:rgb(26.666667%,26.666667%,26.666667%);stroke-opacity:1;stroke-miterlimit:10;" d="M 141.308594 343.148438 L 154.960938 337.75 "/>
<path style="fill:none;stroke-width:0.2;stroke-linecap:butt;stroke-linejoin:miter;stroke:rgb(26.666667%,26.666667%,26.666667%);stroke-opacity:1;stroke-miterlimit:10;" d="M 501.992188 234.929688 C 501.992188 236.929688 498.992188 236.929688 498.992188 234.929688 C 498.992188 232.929688 501.992188 232.929688 501.992188 234.929688 "/>
<path style="fill:none;stroke-width:0.2;stroke-linecap:butt;stroke-linejoin:miter;stroke:rgb(26.666667%,26.666667%,26.666667%);stroke-opacity:1;stroke-miterlimit:10;" d="M 327.234375 571.136719 C 327.234375 573.136719 324.234375 573.136719 324.234375 571.136719 C 324.234375 569.136719 327.234375 569.136719 327.234375 571.136719 "/>
<path style="fill:none;stroke-width:0.2;stroke-linecap:butt;stroke-linejoin:miter;stroke:rgb(26.666667%,26.666667%,26.666667%);stroke-opacity:1;stroke-miterlimit:10;" d="M 253.980469 239.613281 L 240.527344 245.621094 "/>
<path style="fill:none;stroke-width:0.2;stroke-linecap:butt;stroke-linejoin:miter;stroke:rgb(26.666667%,26.666667%,26.666667%);stroke-opacity:1;stroke-miterlimit:10;" d="M 46.503906 228.453125 L 52.832031 215.246094 "/>
<path style="fill:none;stroke-width:0.2;stroke-linecap:butt;stroke-linejoin:miter;stroke:rgb(26.666667%,26.666667%,26.666667%);stroke-opacity:1;stroke-miterlimit:10;" d="M 291.800781 116.011719 L 270.957031 116.617188 "/>
<path style="fill:none;stroke-width:0.2;stroke-linecap:butt;stroke-linejoin:miter;stroke:rgb(26.666667%,26.666667%,26.666667%);stroke-opacity:1;stroke-miterlimit:10;" d="M 291.800781 116.011719 L 314.007812 118.71875 "/>
<path style="fill:none;stroke-width:0.2;stroke-linecap:butt;stroke-linejoin:miter;stroke:rgb(26.666667%,26.666667%,26.666667%);stroke-opacity:1;stroke-miterlimit:10;" d="M 110.558594 402.550781 L 106.96875 425.609375 "/>
<path style="fill:none;stroke-width:0.2;stroke-linecap:butt;stroke-linejoin:miter;stroke:rgb(26.666667%,26.666667%,26.666667%);stroke-opacity:1;stroke-miterlimit:10;" d="M 171.828125 485.164062 L 179.632812 497.5625 "/>
<path style="fill:none;stroke-width:0.2;stroke-linecap:butt;stroke-linejoin:miter;stroke:rgb(26.666667%,26.666667%,26.666667%);stroke-opacity:1;stroke-miterlimit:10;" d="M 48.722656 463.78125 C 48.722656 465.78125 45.722656 465.78125 45.722656 463.78125 C 45.722656 461.78125 48.722656 461.78125 48.722656 463.78125 "/>
<path style="fill:none;stroke-width:0.2;stroke-linecap:butt;stroke-linejoin:miter;stroke:rgb(26.666667%,26.666667%,26.666667%);stroke-opacity:1;stroke-miterlimit:10;" d="M 260.261719 183.03125 L 246.503906 188.058594 "/>
<path style="fill:none;stroke-width:0.2;stroke-linecap:butt;stroke-linejoin:miter;stroke:rgb(26.666667%,26.666667%,26.666667%);stroke-opacity:1;stroke-miterlimit:10;" d="M 264.667969 500.859375 L 281.730469 502.800781 "/>
<path style="fill:none;stroke-width:0.2;stroke-linecap:butt;stroke-linejoin:miter;stroke:rgb(26.666667%,26.666667%,26.666667%);stroke-opacity:1;stroke-miterlimit:10;" d="M 264.667969 500.859375 L 254.65625 514.644531 "/>
<path style="fill:none;stroke-width:0.2;stroke-linecap:butt;stroke-linejoin:miter;stroke:rgb(26.666667%,26.666667%,26.666667%);stroke-opacity:1;stroke-miterlimit:10;" d="M 264.667969 500.859375 L 257.386719 485.464844 "/>
<path style="fill:none;stroke-width:0.2;stroke-linecap:butt;stroke-linejoin:miter;stroke:rgb(26.666667%,26.666667%,26.666667%);stroke-opacity:1;stroke-miterlimit:10;" d="M 359.460938 475.757812 L 377.796875 490.25 "/>
<path style="fill:none;stroke-width:0.2;stroke-linecap:butt;stroke-linejoin:miter;stroke:rgb(26.666667%,26.666667%,26.666667%);stroke-opacity:1;stroke-miterlimit:10;" d="M 20 298.4375 L 20.265625 313.089844 "/>
<path style="fill:none;stroke-width:0.2;stroke-linecap:butt;stroke-linejoin:miter;stroke:rgb(26.666667%,26.666667%,26.666667%);stroke-opacity:1;stroke-miterlimit:10;" d="M 580 276.644531 L 571.671875 264.503906 "/>
<path style="fill:none;stroke-width:0.2;stroke-linecap:butt;stroke-linejoin:miter;stroke:rgb(26.666667%,26.666667%,26.666667%);stroke-opacity:1;stroke-miterlimit:10;" d="M 107.457031 111.503906 L 120.195312 118.957031 "/>
<path style="fill:none;stroke-width:0.2;stroke-linecap:butt;stroke-linejoin:miter;stroke:rgb(26.666667%,26.666667%,26.666667%);stroke-opacity:1;stroke-miterlimit:10;" d="M 233.632812 303.472656 L 245.328125 312.367188 "/>
<path style="fill:none;stroke-width:0.2;stroke-linecap:butt;stroke-linejoin:miter;stroke:rgb(26.666667%,26.666667%,26.666667%);stroke-opacity:1;stroke-miterlimit:10;" d="M 96.507812 412.589844 L 119.921875 416.324219 "/>
<path style="fill:none;stroke-width:0.2;stroke-linecap:butt;stroke-linejoin:miter;stroke:rgb(26.666667%,26.666667%,26.666667%);stroke-opacity:1;stroke-miterlimit:10;" d="M 114.539062 512.0625 C 114.539062 514.0625 111.539062 514.0625 111.539062 512.0625 C 111.539062 510.0625 114.539062 510.0625 114.539062 512.0625 "/>
<path style="fill:none;stroke-width:0.2;stroke-linecap:butt;stroke-linejoin:miter;stroke:rgb(26.666667%,26.666667%,26.666667%);stroke-opacity:1;stroke-miterlimit:10;" d="M 328.042969 192.382812 L 341.980469 187.097656 "/>
<path style="fill:none;stroke-width:0.2;stroke-linecap:butt;stroke-linejoin:miter;stroke:rgb(26.666667%,26.666667%,26.666667%);stroke-opacity:1;stroke-miterlimit:10;" d="M 424.171875 327.433594 L 423.4375 312.8125 "/>
<path style="fill:none;stroke-width:0.2;stroke-linecap:butt;stroke-linejoin:miter;stroke:rgb(26.666667%,26.666667%,26.666667%);stroke-opacity:1;stroke-miterlimit:10;" d="M 436.078125 69.257812 C 436.078125 71.257812 433.078125 71.257812 433.078125 69.257812 C 433.078125 67.257812 436.078125 67.257812 436.078125 69.257812 "/>
<path style="fill:none;stroke-width:0.2;stroke-linecap:butt;stroke-linejoin:miter;stroke:rgb(26.666667%,26.666667%,26.666667%);stroke-opacity:1;stroke-miterlimit:10;" d="M 274.542969 42.175781 C 274.542969 44.175781 271.542969 44.175781 271.542969 42.175781 C 271.542969 40.175781 274.542969 40.175781 274.542969 42.175781 "/>
<path style="fill:none;stroke-width:0.2;stroke-linecap:butt;stroke-linejoin:miter;stroke:rgb(26.666667%,26.666667%,26.666667%);stroke-opacity:1;stroke-miterlimit:10;" d="M 514.355469 505.152344 C 514.355469 507.152344 511.355469 507.152344 511.355469 505.152344 C 511.355469 503.152344 514.355469 503.152344 514.355469 505.152344 "/>
<path style="fill:none;stroke-width:0.2;stroke-linecap:butt;stroke-linejoin:miter;stroke:rgb(26.666667%,26.666667%,26.666667%);stroke-opacity:1;stroke-miterlimit:10;" d="M 478.457031 117.042969 C 478.457031 119.042969 475.457031 119.042969 475.457031 117.042969 C 475.457031 115.042969 478.457031 115.042969 478.457031 117.042969 "/>
<path style="fill:none;stroke-width:0.2;stroke-linecap:butt;stroke-linejoin:miter;stroke:rgb(26.666667%,26.666667%,26.666667%);stroke-opacity:1;stroke-miterlimit:10;" d="M 447.207031 487.519531 L 452.71875 473.945312 "/>
<path style="fill:none;stroke-width:0.2;stroke-linecap:butt;stroke-linejoin:miter;stroke:rgb(26.666667%,26.666667%,26.666667%);stroke-opacity:1;stroke-miterlimit:10;" d="M 186.246094 208.320312 L 181.589844 194.417969 "/>
<path style="fill:none;stroke-width:0.2;stroke-linecap:butt;stroke-linejoin:miter;stroke:rgb(26.666667%,26.666667%,26.666667%);stroke-opacity:1;stroke-miterlimit:10;" d="M 114.175781 182.945312 C 114.175781 184.945312 111.175781 184.945312 111.175781 182.945312 C 111.175781 180.945312 114.175781 180.945312 114.175781 182.945312 "/>
<path style=" stroke:none;fill-rule:nonzero;fill:rgb(100%,0%,0%);fill-opacity:1;" d="M 337.648438 113.765625 C 337.648438 115.101562 335.648438 115.101562 335.648438 113.765625 C 335.648438 112.433594 337.648438 112.433594 337.648438 113.765625 "/>
<path style=" stroke:none;fill-rule:nonzero;fill:rgb(100%,0%,0%);fill-opacity:1;" d="M 316 118.839844 C 316 120.171875 314 120.171875 314 118.839844 C 314 117.503906 316 117.503906 316 118.839844 "/>
<path style=" stroke:none;fill-rule:nonzero;fill:rgb(100%,0%,0%);fill-opacity:1;" d="M 356.121094 113.800781 C 356.121094 115.136719 354.121094 115.136719 354.121094 113.800781 C 354.121094 112.46875 356.121094 112.46875 356.121094 113.800781 "/>
<path style=" stroke:none;fill-rule:nonzero;fill:rgb(100%,0%,0%);fill-opacity:1;" d="M 335.351562 411.457031 C 335.351562 412.789062 333.351562 412.789062 333.351562 411.457031 C 333.351562 410.125 335.351562 410.125 335.351562 411.457031 "/>
<path style=" stroke:none;fill-rule:nonzero;fill:rgb(100%,0%,0%);fill-opacity:1;" d="M 348.78125 403.511719 C 348.78125 404.847656 346.78125 404.847656 346.78125 403.511719 C 346.78125 402.179688 348.78125 402.179688 348.78125 403.511719 "/>
<path style=" stroke:none;fill-rule:nonzero;fill:rgb(100%,0%,0%);fill-opacity:1;" d="M 504.261719 177.871094 C 504.261719 179.203125 502.261719 179.203125 502.261719 177.871094 C 502.261719 176.539062 504.261719 176.539062 504.261719 177.871094 "/>
<path style=" stroke:none;fill-rule:nonzero;fill:rgb(100%,0%,0%);fill-opacity:1;" d="M 519.941406 176.003906 C 519.941406 177.335938 517.941406 177.335938 517.941406 176.003906 C 517.941406 174.667969 519.941406 174.667969 519.941406 176.003906 "/>
<path style=" stroke:none;fill-rule:nonzero;fill:rgb(100%,0%,0%);fill-opacity:1;" d="M 126.527344 258.828125 C 126.527344 260.160156 124.527344 260.160156 124.527344 258.828125 C 124.527344 257.496094 126.527344 257.496094 126.527344 258.828125 "/>
<path style=" stroke:none;fill-rule:nonzero;fill:rgb(100%,0%,0%);fill-opacity:1;" d="M 149.601562 268.054688 C 149.601562 269.390625 147.601562 269.390625 147.601562 268.054688 C 147.601562 266.722656 149.601562 266.722656 149.601562 268.054688 "/>
<path style=" stroke:none;fill-rule:nonzero;fill:rgb(100%,0%,0%);fill-opacity:1;" d="M 422.582031 235.425781 C 422.582031 236.761719 420.582031 236.761719 420.582031 235.425781 C 420.582031 234.09375 422.582031 234.09375 422.582031 235.425781 "/>
<path style=" stroke:none;fill-rule:nonzero;fill:rgb(100%,0%,0%);fill-opacity:1;" d="M 450.875 552.265625 C 450.875 553.597656 448.875 553.597656 448.875 552.265625 C 448.875 550.929688 450.875 550.929688 450.875 552.265625 "/>
<path style=" stroke:none;fill-rule:nonzero;fill:rgb(100%,0%,0%);fill-opacity:1;" d="M 333.425781 20 C 333.425781 21.332031 331.425781 21.332031 331.425781 20 C 331.425781 18.667969 333.425781 18.667969 333.425781 20 "/>
<path style=" stroke:none;fill-rule:nonzero;fill:rgb(100%,0%,0%);fill-opacity:1;" d="M 319.066406 136.324219 C 319.066406 137.65625 317.066406 137.65625 317.066406 136.324219 C 317.066406 134.992188 319.066406 134.992188 319.066406 136.324219 "/>
<path style=" stroke:none;fill-rule:nonzero;fill:rgb(100%,0%,0%);fill-opacity:1;" d="M 29.691406 158.144531 C 29.691406 159.476562 27.691406 159.476562 27.691406 158.144531 C 27.691406 156.8125 29.691406 156.8125 29.691406 158.144531 "/>
<path style=" stroke:none;fill-rule:nonzero;fill:rgb(100%,0%,0%);fill-opacity:1;" d="M 208.8125 436.230469 C 208.8125 437.5625 206.8125 437.5625 206.8125 436.230469 C 206.8125 434.898438 208.8125 434.898438 208.8125 436.230469 "/>
<path style=" stroke:none;fill-rule:nonzero;fill:rgb(100%,0%,0%);fill-opacity:1;" d="M 374.210938 298.820312 C 374.210938 300.15625 372.210938 300.15625 372.210938 298.820312 C 372.210938 297.488281 374.210938 297.488281 374.210938 298.820312 "/>
<path style=" stroke:none;fill-rule:nonzero;fill:rgb(100%,0%,0%);fill-opacity:1;" d="M 370.484375 314.128906 C 370.484375 315.460938 368.484375 315.460938 368.484375 314.128906 C 368.484375 312.792969 370.484375 312.792969 370.484375 314.128906 "/>
<path style=" stroke:none;fill-rule:nonzero;fill:rgb(100%,0%,0%);fill-opacity:1;" d="M 281.339844 433.847656 C 281.339844 435.183594 279.339844 435.183594 279.339844 433.847656 C 279.339844 432.515625 281.339844 432.515625 281.339844 433.847656 "/>
<path style=" stroke:none;fill-rule:nonzero;fill:rgb(100%,0%,0%);fill-opacity:1;" d="M 290.398438 266.824219 C 290.398438 268.160156 288.398438 268.160156 288.398438 266.824219 C 288.398438 265.492188 290.398438 265.492188 290.398438 266.824219 "/>
<path style=" stroke:none;fill-rule:nonzero;fill:rgb(100%,0%,0%);fill-opacity:1;" d="M 476.519531 294.664062 C 476.519531 295.996094 474.519531 295.996094 474.519531 294.664062 C 474.519531 293.332031 476.519531 293.332031 476.519531 294.664062 "/>
<path style=" stroke:none;fill-rule:nonzero;fill:rgb(100%,0%,0%);fill-opacity:1;" d="M 473.84375 279.351562 C 473.84375 280.6875 471.84375 280.6875 471.84375 279.351562 C 471.84375 278.019531 473.84375 278.019531 473.84375 279.351562 "/>
<path style=" stroke:none;fill-rule:nonzero;fill:rgb(100%,0%,0%);fill-opacity:1;" d="M 250.449219 118.808594 C 250.449219 120.144531 248.449219 120.144531 248.449219 118.808594 C 248.449219 117.476562 250.449219 117.476562 250.449219 118.808594 "/>
<path style=" stroke:none;fill-rule:nonzero;fill:rgb(100%,0%,0%);fill-opacity:1;" d="M 270.957031 116.648438 C 270.957031 117.980469 268.957031 117.980469 268.957031 116.648438 C 268.957031 115.316406 270.957031 115.316406 270.957031 116.648438 "/>
<path style=" stroke:none;fill-rule:nonzero;fill:rgb(100%,0%,0%);fill-opacity:1;" d="M 232.523438 121.722656 C 232.523438 123.054688 230.523438 123.054688 230.523438 121.722656 C 230.523438 120.386719 232.523438 120.386719 232.523438 121.722656 "/>
<path style=" stroke:none;fill-rule:nonzero;fill:rgb(100%,0%,0%);fill-opacity:1;" d="M 241.292969 580 C 241.292969 581.332031 239.292969 581.332031 239.292969 580 C 239.292969 578.667969 241.292969 578.667969 241.292969 580 "/>
<path style=" stroke:none;fill-rule:nonzero;fill:rgb(100%,0%,0%);fill-opacity:1;" d="M 322.214844 296.617188 C 322.214844 297.949219 320.214844 297.949219 320.214844 296.617188 C 320.214844 295.28125 322.214844 295.28125 322.214844 296.617188 "/>
<path style=" stroke:none;fill-rule:nonzero;fill:rgb(100%,0%,0%);fill-opacity:1;" d="M 317.355469 311.484375 C 317.355469 312.816406 315.355469 312.816406 315.355469 311.484375 C 315.355469 310.152344 317.355469 310.152344 317.355469 311.484375 "/>
<path style=" stroke:none;fill-rule:nonzero;fill:rgb(100%,0%,0%);fill-opacity:1;" d="M 362.375 492.855469 C 362.375 494.1875 360.375 494.1875 360.375 492.855469 C 360.375 491.519531 362.375 491.519531 362.375 492.855469 "/>
<path style=" stroke:none;fill-rule:nonzero;fill:rgb(100%,0%,0%);fill-opacity:1;" d="M 377.742188 473.613281 C 377.742188 474.945312 375.742188 474.945312 375.742188 473.613281 C 375.742188 472.277344 377.742188 472.277344 377.742188 473.613281 "/>
<path style=" stroke:none;fill-rule:nonzero;fill:rgb(100%,0%,0%);fill-opacity:1;" d="M 488.234375 404.082031 C 488.234375 405.414062 486.234375 405.414062 486.234375 404.082031 C 486.234375 402.75 488.234375 402.75 488.234375 404.082031 "/>
<path style=" stroke:none;fill-rule:nonzero;fill:rgb(100%,0%,0%);fill-opacity:1;" d="M 472.710938 401.46875 C 472.710938 402.804688 470.710938 402.804688 470.710938 401.46875 C 470.710938 400.136719 472.710938 400.136719 472.710938 401.46875 "/>
<path style=" stroke:none;fill-rule:nonzero;fill:rgb(100%,0%,0%);fill-opacity:1;" d="M 373.277344 227.199219 C 373.277344 228.535156 371.277344 228.535156 371.277344 227.199219 C 371.277344 225.867188 373.277344 225.867188 373.277344 227.199219 "/>
<path style=" stroke:none;fill-rule:nonzero;fill:rgb(100%,0%,0%);fill-opacity:1;" d="M 359.886719 235.503906 C 359.886719 236.835938 357.886719 236.835938 357.886719 235.503906 C 357.886719 234.171875 359.886719 234.171875 359.886719 235.503906 "/>
<path style=" stroke:none;fill-rule:nonzero;fill:rgb(100%,0%,0%);fill-opacity:1;" d="M 399.570312 382.066406 C 399.570312 383.398438 397.570312 383.398438 397.570312 382.066406 C 397.570312 380.730469 399.570312 380.730469 399.570312 382.066406 "/>
<path style=" stroke:none;fill-rule:nonzero;fill:rgb(100%,0%,0%);fill-opacity:1;" d="M 411.589844 392.085938 C 411.589844 393.417969 409.589844 393.417969 409.589844 392.085938 C 409.589844 390.75 411.589844 390.75 411.589844 392.085938 "/>
<path style=" stroke:none;fill-rule:nonzero;fill:rgb(100%,0%,0%);fill-opacity:1;" d="M 389.46875 579.367188 C 389.46875 580.699219 387.46875 580.699219 387.46875 579.367188 C 387.46875 578.035156 389.46875 578.035156 389.46875 579.367188 "/>
<path style=" stroke:none;fill-rule:nonzero;fill:rgb(100%,0%,0%);fill-opacity:1;" d="M 442.042969 188.664062 C 442.042969 190 440.042969 190 440.042969 188.664062 C 440.042969 187.332031 442.042969 187.332031 442.042969 188.664062 "/>
<path style=" stroke:none;fill-rule:nonzero;fill:rgb(100%,0%,0%);fill-opacity:1;" d="M 535.660156 441.851562 C 535.660156 443.183594 533.660156 443.183594 533.660156 441.851562 C 533.660156 440.519531 535.660156 440.519531 535.660156 441.851562 "/>
<path style=" stroke:none;fill-rule:nonzero;fill:rgb(100%,0%,0%);fill-opacity:1;" d="M 188.445312 394.597656 C 188.445312 395.929688 186.445312 395.929688 186.445312 394.597656 C 186.445312 393.261719 188.445312 393.261719 188.445312 394.597656 "/>
<path style=" stroke:none;fill-rule:nonzero;fill:rgb(100%,0%,0%);fill-opacity:1;" d="M 80.007812 322.96875 C 80.007812 324.304688 78.007812 324.304688 78.007812 322.96875 C 78.007812 321.636719 80.007812 321.636719 80.007812 322.96875 "/>
<path style=" stroke:none;fill-rule:nonzero;fill:rgb(100%,0%,0%);fill-opacity:1;" d="M 494.609375 346.125 C 494.609375 347.457031 492.609375 347.457031 492.609375 346.125 C 492.609375 344.792969 494.609375 344.792969 494.609375 346.125 "/>
<path style=" stroke:none;fill-rule:nonzero;fill:rgb(100%,0%,0%);fill-opacity:1;" d="M 379.097656 58.460938 C 379.097656 59.792969 377.097656 59.792969 377.097656 58.460938 C 377.097656 57.125 379.097656 57.125 379.097656 58.460938 "/>
<path style=" stroke:none;fill-rule:nonzero;fill:rgb(100%,0%,0%);fill-opacity:1;" d="M 194.246094 61.882812 C 194.246094 63.214844 192.246094 63.214844 192.246094 61.882812 C 192.246094 60.550781 194.246094 60.550781 194.246094 61.882812 "/>
<path style=" stroke:none;fill-rule:nonzero;fill:rgb(100%,0%,0%);fill-opacity:1;" d="M 178.902344 58.441406 C 178.902344 59.773438 176.902344 59.773438 176.902344 58.441406 C 176.902344 57.105469 178.902344 57.105469 178.902344 58.441406 "/>
<path style=" stroke:none;fill-rule:nonzero;fill:rgb(100%,0%,0%);fill-opacity:1;" d="M 555.046875 349.570312 C 555.046875 350.902344 553.046875 350.902344 553.046875 349.570312 C 553.046875 348.234375 555.046875 348.234375 555.046875 349.570312 "/>
<path style=" stroke:none;fill-rule:nonzero;fill:rgb(100%,0%,0%);fill-opacity:1;" d="M 549.539062 334.875 C 549.539062 336.207031 547.539062 336.207031 547.539062 334.875 C 547.539062 333.542969 549.539062 333.542969 549.539062 334.875 "/>
<path style=" stroke:none;fill-rule:nonzero;fill:rgb(100%,0%,0%);fill-opacity:1;" d="M 206.882812 346.449219 C 206.882812 347.785156 204.882812 347.785156 204.882812 346.449219 C 204.882812 345.117188 206.882812 345.117188 206.882812 346.449219 "/>
<path style=" stroke:none;fill-rule:nonzero;fill:rgb(100%,0%,0%);fill-opacity:1;" d="M 142.539062 252.296875 C 142.539062 253.632812 140.539062 253.632812 140.539062 252.296875 C 140.539062 250.964844 142.539062 250.964844 142.539062 252.296875 "/>
<path style=" stroke:none;fill-rule:nonzero;fill:rgb(100%,0%,0%);fill-opacity:1;" d="M 133.394531 274.59375 C 133.394531 275.925781 131.394531 275.925781 131.394531 274.59375 C 131.394531 273.257812 133.394531 273.257812 133.394531 274.59375 "/>
<path style=" stroke:none;fill-rule:nonzero;fill:rgb(100%,0%,0%);fill-opacity:1;" d="M 164.804688 563.832031 C 164.804688 565.167969 162.804688 565.167969 162.804688 563.832031 C 162.804688 562.5 164.804688 562.5 164.804688 563.832031 "/>
<path style=" stroke:none;fill-rule:nonzero;fill:rgb(100%,0%,0%);fill-opacity:1;" d="M 274.289062 375.191406 C 274.289062 376.527344 272.289062 376.527344 272.289062 375.191406 C 272.289062 373.859375 274.289062 373.859375 274.289062 375.191406 "/>
<path style=" stroke:none;fill-rule:nonzero;fill:rgb(100%,0%,0%);fill-opacity:1;" d="M 258.824219 381.878906 C 258.824219 383.210938 256.824219 383.210938 256.824219 381.878906 C 256.824219 380.546875 258.824219 380.546875 258.824219 381.878906 "/>
<path style=" stroke:none;fill-rule:nonzero;fill:rgb(100%,0%,0%);fill-opacity:1;" d="M 289.800781 368.675781 C 289.800781 370.011719 287.800781 370.011719 287.800781 368.675781 C 287.800781 367.34375 289.800781 367.34375 289.800781 368.675781 "/>
<path style=" stroke:none;fill-rule:nonzero;fill:rgb(100%,0%,0%);fill-opacity:1;" d="M 23.132812 386.558594 C 23.132812 387.890625 21.132812 387.890625 21.132812 386.558594 C 21.132812 385.226562 23.132812 385.226562 23.132812 386.558594 "/>
<path style=" stroke:none;fill-rule:nonzero;fill:rgb(100%,0%,0%);fill-opacity:1;" d="M 142.308594 343.148438 C 142.308594 344.484375 140.308594 344.484375 140.308594 343.148438 C 140.308594 341.816406 142.308594 341.816406 142.308594 343.148438 "/>
<path style=" stroke:none;fill-rule:nonzero;fill:rgb(100%,0%,0%);fill-opacity:1;" d="M 156.890625 337.382812 C 156.890625 338.714844 154.890625 338.714844 154.890625 337.382812 C 154.890625 336.046875 156.890625 336.046875 156.890625 337.382812 "/>
<path style=" stroke:none;fill-rule:nonzero;fill:rgb(100%,0%,0%);fill-opacity:1;" d="M 500.433594 235.992188 C 500.433594 237.324219 498.433594 237.324219 498.433594 235.992188 C 498.433594 234.65625 500.433594 234.65625 500.433594 235.992188 "/>
<path style=" stroke:none;fill-rule:nonzero;fill:rgb(100%,0%,0%);fill-opacity:1;" d="M 325.675781 572.199219 C 325.675781 573.53125 323.675781 573.53125 323.675781 572.199219 C 323.675781 570.863281 325.675781 570.863281 325.675781 572.199219 "/>
<path style=" stroke:none;fill-rule:nonzero;fill:rgb(100%,0%,0%);fill-opacity:1;" d="M 254.980469 239.613281 C 254.980469 240.949219 252.980469 240.949219 252.980469 239.613281 C 252.980469 238.28125 254.980469 238.28125 254.980469 239.613281 "/>
<path style=" stroke:none;fill-rule:nonzero;fill:rgb(100%,0%,0%);fill-opacity:1;" d="M 240.617188 246.03125 C 240.617188 247.363281 238.617188 247.363281 238.617188 246.03125 C 238.617188 244.695312 240.617188 244.695312 240.617188 246.03125 "/>
<path style=" stroke:none;fill-rule:nonzero;fill:rgb(100%,0%,0%);fill-opacity:1;" d="M 47.503906 228.453125 C 47.503906 229.785156 45.503906 229.785156 45.503906 228.453125 C 45.503906 227.117188 47.503906 227.117188 47.503906 228.453125 "/>
<path style=" stroke:none;fill-rule:nonzero;fill:rgb(100%,0%,0%);fill-opacity:1;" d="M 54.265625 214.34375 C 54.265625 215.675781 52.265625 215.675781 52.265625 214.34375 C 52.265625 213.007812 54.265625 213.007812 54.265625 214.34375 "/>
<path style=" stroke:none;fill-rule:nonzero;fill:rgb(100%,0%,0%);fill-opacity:1;" d="M 292.800781 116.011719 C 292.800781 117.347656 290.800781 117.347656 290.800781 116.011719 C 290.800781 114.679688 292.800781 114.679688 292.800781 116.011719 "/>
<path style=" stroke:none;fill-rule:nonzero;fill:rgb(100%,0%,0%);fill-opacity:1;" d="M 111.558594 402.550781 C 111.558594 403.882812 109.558594 403.882812 109.558594 402.550781 C 109.558594 401.214844 111.558594 401.214844 111.558594 402.550781 "/>
<path style=" stroke:none;fill-rule:nonzero;fill:rgb(100%,0%,0%);fill-opacity:1;" d="M 107.8125 426.597656 C 107.8125 427.929688 105.8125 427.929688 105.8125 426.597656 C 105.8125 425.261719 107.8125 425.261719 107.8125 426.597656 "/>
<path style=" stroke:none;fill-rule:nonzero;fill:rgb(100%,0%,0%);fill-opacity:1;" d="M 172.828125 485.164062 C 172.828125 486.5 170.828125 486.5 170.828125 485.164062 C 170.828125 483.832031 172.828125 483.832031 172.828125 485.164062 "/>
<path style=" stroke:none;fill-rule:nonzero;fill:rgb(100%,0%,0%);fill-opacity:1;" d="M 181.164062 498.410156 C 181.164062 499.742188 179.164062 499.742188 179.164062 498.410156 C 179.164062 497.078125 181.164062 497.078125 181.164062 498.410156 "/>
<path style=" stroke:none;fill-rule:nonzero;fill:rgb(100%,0%,0%);fill-opacity:1;" d="M 47.160156 464.839844 C 47.160156 466.175781 45.160156 466.175781 45.160156 464.839844 C 45.160156 463.507812 47.160156 463.507812 47.160156 464.839844 "/>
<path style=" stroke:none;fill-rule:nonzero;fill:rgb(100%,0%,0%);fill-opacity:1;" d="M 261.261719 183.03125 C 261.261719 184.367188 259.261719 184.367188 259.261719 183.03125 C 259.261719 181.699219 261.261719 181.699219 261.261719 183.03125 "/>
<path style=" stroke:none;fill-rule:nonzero;fill:rgb(100%,0%,0%);fill-opacity:1;" d="M 246.5625 188.402344 C 246.5625 189.734375 244.5625 189.734375 244.5625 188.402344 C 244.5625 187.070312 246.5625 187.070312 246.5625 188.402344 "/>
<path style=" stroke:none;fill-rule:nonzero;fill:rgb(100%,0%,0%);fill-opacity:1;" d="M 265.667969 500.859375 C 265.667969 502.191406 263.667969 502.191406 263.667969 500.859375 C 263.667969 499.527344 265.667969 499.527344 265.667969 500.859375 "/>
<path style=" stroke:none;fill-rule:nonzero;fill:rgb(100%,0%,0%);fill-opacity:1;" d="M 283.722656 502.914062 C 283.722656 504.246094 281.722656 504.246094 281.722656 502.914062 C 281.722656 501.578125 283.722656 501.578125 283.722656 502.914062 "/>
<path style=" stroke:none;fill-rule:nonzero;fill:rgb(100%,0%,0%);fill-opacity:1;" d="M 255.066406 515.453125 C 255.066406 516.789062 253.066406 516.789062 253.066406 515.453125 C 253.066406 514.121094 255.066406 514.121094 255.066406 515.453125 "/>
<path style=" stroke:none;fill-rule:nonzero;fill:rgb(100%,0%,0%);fill-opacity:1;" d="M 257.957031 484.5625 C 257.957031 485.894531 255.957031 485.894531 255.957031 484.5625 C 255.957031 483.226562 257.957031 483.226562 257.957031 484.5625 "/>
<path style=" stroke:none;fill-rule:nonzero;fill:rgb(100%,0%,0%);fill-opacity:1;" d="M 360.460938 475.757812 C 360.460938 477.09375 358.460938 477.09375 358.460938 475.757812 C 358.460938 474.425781 360.460938 474.425781 360.460938 475.757812 "/>
<path style=" stroke:none;fill-rule:nonzero;fill:rgb(100%,0%,0%);fill-opacity:1;" d="M 379.582031 490.871094 C 379.582031 492.203125 377.582031 492.203125 377.582031 490.871094 C 377.582031 489.539062 379.582031 489.539062 379.582031 490.871094 "/>
<path style=" stroke:none;fill-rule:nonzero;fill:rgb(100%,0%,0%);fill-opacity:1;" d="M 21 298.4375 C 21 299.769531 19 299.769531 19 298.4375 C 19 297.101562 21 297.101562 21 298.4375 "/>
<path style=" stroke:none;fill-rule:nonzero;fill:rgb(100%,0%,0%);fill-opacity:1;" d="M 21.28125 314.089844 C 21.28125 315.425781 19.28125 315.425781 19.28125 314.089844 C 19.28125 312.757812 21.28125 312.757812 21.28125 314.089844 "/>
<path style=" stroke:none;fill-rule:nonzero;fill:rgb(100%,0%,0%);fill-opacity:1;" d="M 581 276.644531 C 581 277.976562 579 277.976562 579 276.644531 C 579 275.308594 581 275.308594 581 276.644531 "/>
<path style=" stroke:none;fill-rule:nonzero;fill:rgb(100%,0%,0%);fill-opacity:1;" d="M 572.105469 263.679688 C 572.105469 265.011719 570.105469 265.011719 570.105469 263.679688 C 570.105469 262.34375 572.105469 262.34375 572.105469 263.679688 "/>
<path style=" stroke:none;fill-rule:nonzero;fill:rgb(100%,0%,0%);fill-opacity:1;" d="M 108.457031 111.503906 C 108.457031 112.835938 106.457031 112.835938 106.457031 111.503906 C 106.457031 110.171875 108.457031 110.171875 108.457031 111.503906 "/>
<path style=" stroke:none;fill-rule:nonzero;fill:rgb(100%,0%,0%);fill-opacity:1;" d="M 122.058594 119.464844 C 122.058594 120.796875 120.058594 120.796875 120.058594 119.464844 C 120.058594 118.128906 122.058594 118.128906 122.058594 119.464844 "/>
<path style=" stroke:none;fill-rule:nonzero;fill:rgb(100%,0%,0%);fill-opacity:1;" d="M 234.632812 303.472656 C 234.632812 304.808594 232.632812 304.808594 232.632812 303.472656 C 232.632812 302.140625 234.632812 302.140625 234.632812 303.472656 "/>
<path style=" stroke:none;fill-rule:nonzero;fill:rgb(100%,0%,0%);fill-opacity:1;" d="M 247.125 312.972656 C 247.125 314.304688 245.125 314.304688 245.125 312.972656 C 245.125 311.640625 247.125 311.640625 247.125 312.972656 "/>
<path style=" stroke:none;fill-rule:nonzero;fill:rgb(100%,0%,0%);fill-opacity:1;" d="M 97.507812 412.589844 C 97.507812 413.921875 95.507812 413.921875 95.507812 412.589844 C 95.507812 411.257812 97.507812 411.257812 97.507812 412.589844 "/>
<path style=" stroke:none;fill-rule:nonzero;fill:rgb(100%,0%,0%);fill-opacity:1;" d="M 121.910156 416.480469 C 121.910156 417.816406 119.910156 417.816406 119.910156 416.480469 C 119.910156 415.148438 121.910156 415.148438 121.910156 416.480469 "/>
<path style=" stroke:none;fill-rule:nonzero;fill:rgb(100%,0%,0%);fill-opacity:1;" d="M 112.976562 513.125 C 112.976562 514.457031 110.976562 514.457031 110.976562 513.125 C 110.976562 511.789062 112.976562 511.789062 112.976562 513.125 "/>
<path style=" stroke:none;fill-rule:nonzero;fill:rgb(100%,0%,0%);fill-opacity:1;" d="M 329.042969 192.382812 C 329.042969 193.714844 327.042969 193.714844 327.042969 192.382812 C 327.042969 191.050781 329.042969 191.050781 329.042969 192.382812 "/>
<path style=" stroke:none;fill-rule:nonzero;fill:rgb(100%,0%,0%);fill-opacity:1;" d="M 343.917969 186.742188 C 343.917969 188.074219 341.917969 188.074219 341.917969 186.742188 C 341.917969 185.410156 343.917969 185.410156 343.917969 186.742188 "/>
<path style=" stroke:none;fill-rule:nonzero;fill:rgb(100%,0%,0%);fill-opacity:1;" d="M 425.171875 327.433594 C 425.171875 328.765625 423.171875 328.765625 423.171875 327.433594 C 423.171875 326.101562 425.171875 326.101562 425.171875 327.433594 "/>
<path style=" stroke:none;fill-rule:nonzero;fill:rgb(100%,0%,0%);fill-opacity:1;" d="M 424.386719 311.816406 C 424.386719 313.148438 422.386719 313.148438 422.386719 311.816406 C 422.386719 310.480469 424.386719 310.480469 424.386719 311.816406 "/>
<path style=" stroke:none;fill-rule:nonzero;fill:rgb(100%,0%,0%);fill-opacity:1;" d="M 434.519531 70.316406 C 434.519531 71.652344 432.519531 71.652344 432.519531 70.316406 C 432.519531 68.984375 434.519531 68.984375 434.519531 70.316406 "/>
<path style=" stroke:none;fill-rule:nonzero;fill:rgb(100%,0%,0%);fill-opacity:1;" d="M 272.984375 43.234375 C 272.984375 44.570312 270.984375 44.570312 270.984375 43.234375 C 270.984375 41.902344 272.984375 41.902344 272.984375 43.234375 "/>
<path style=" stroke:none;fill-rule:nonzero;fill:rgb(100%,0%,0%);fill-opacity:1;" d="M 512.792969 506.210938 C 512.792969 507.546875 510.792969 507.546875 510.792969 506.210938 C 510.792969 504.878906 512.792969 504.878906 512.792969 506.210938 "/>
<path style=" stroke:none;fill-rule:nonzero;fill:rgb(100%,0%,0%);fill-opacity:1;" d="M 476.898438 118.101562 C 476.898438 119.433594 474.898438 119.433594 474.898438 118.101562 C 474.898438 116.769531 476.898438 116.769531 476.898438 118.101562 "/>
<path style=" stroke:none;fill-rule:nonzero;fill:rgb(100%,0%,0%);fill-opacity:1;" d="M 448.207031 487.519531 C 448.207031 488.851562 446.207031 488.851562 446.207031 487.519531 C 446.207031 486.1875 448.207031 486.1875 448.207031 487.519531 "/>
<path style=" stroke:none;fill-rule:nonzero;fill:rgb(100%,0%,0%);fill-opacity:1;" d="M 454.09375 473.019531 C 454.09375 474.351562 452.09375 474.351562 452.09375 473.019531 C 452.09375 471.6875 454.09375 471.6875 454.09375 473.019531 "/>
<path style=" stroke:none;fill-rule:nonzero;fill:rgb(100%,0%,0%);fill-opacity:1;" d="M 187.246094 208.320312 C 187.246094 209.652344 185.246094 209.652344 185.246094 208.320312 C 185.246094 206.984375 187.246094 206.984375 187.246094 208.320312 "/>
<path style=" stroke:none;fill-rule:nonzero;fill:rgb(100%,0%,0%);fill-opacity:1;" d="M 182.273438 193.472656 C 182.273438 194.804688 180.273438 194.804688 180.273438 193.472656 C 180.273438 192.136719 182.273438 192.136719 182.273438 193.472656 "/>
<path style=" stroke:none;fill-rule:nonzero;fill:rgb(100%,0%,0%);fill-opacity:1;" d="M 112.617188 184.007812 C 112.617188 185.339844 110.617188 185.339844 110.617188 184.007812 C 110.617188 182.671875 112.617188 182.671875 112.617188 184.007812 "/>
</g>
</svg>
