<?xml version="1.0" encoding="UTF-8"?>
<svg xmlns="http://www.w3.org/2000/svg" xmlns:xlink="http://www.w3.org/1999/xlink" width="600" height="600" viewBox="0 0 600 600">
<rect x="-60" y="-60" width="720" height="720" fill="rgb(100%, 100%, 100%)" fill-opacity="1"/>
<path fill="none" stroke-width="0.2" stroke-linecap="butt" stroke-linejoin="miter" stroke="rgb(26.666667%, 26.666667%, 26.666667%)" stroke-opacity="1" stroke-miterlimit="10" d="M 316.9375 143.273438 L 325.769531 130.632812 "/>
<path fill="none" stroke-width="0.2" stroke-linecap="butt" stroke-linejoin="miter" stroke="rgb(26.666667%, 26.666667%, 26.666667%)" stroke-opacity="1" stroke-miterlimit="10" d="M 316.9375 143.273438 L 308.765625 128.445312 "/>
<path fill="none" stroke-width="0.2" stroke-linecap="butt" stroke-linejoin="miter" stroke="rgb(26.666667%, 26.666667%, 26.666667%)" stroke-opacity="1" stroke-miterlimit="10" d="M 325.769531 130.632812 L 308.765625 128.445312 "/>
<path fill="none" stroke-width="0.2" stroke-linecap="butt" stroke-linejoin="miter" stroke="rgb(26.666667%, 26.666667%, 26.666667%)" stroke-opacity="1" stroke-miterlimit="10" d="M 293.75 118.261719 L 308.765625 128.445312 "/>
<path fill-rule="nonzero" fill="rgb(100%, 0%, 0%)" fill-opacity="1" stroke-width="0.01" stroke-linecap="butt" stroke-linejoin="miter" stroke="rgb(0%, 0%, 0%)" stroke-opacity="1" stroke-miterlimit="10" d="M 317.9375 143.273438 C 317.9375 144.609375 315.9375 144.609375 315.9375 143.273438 C 315.9375 141.941406 317.9375 141.941406 317.9375 143.273438 "/>
<path fill-rule="nonzero" fill="rgb(100%, 0%, 0%)" fill-opacity="1" stroke-width="0.01" stroke-linecap="butt" stroke-linejoin="miter" stroke="rgb(0%, 0%, 0%)" stroke-opacity="1" stroke-miterlimit="10" d="M 201.082031 518.929688 C 201.082031 520.265625 199.082031 520.265625 199.082031 518.929688 C 199.082031 517.597656 201.082031 517.597656 201.082031 518.929688 "/>
<path fill-rule="nonzero" fill="rgb(100%, 0%, 0%)" fill-opacity="1" stroke-width="0.01" stroke-linecap="butt" stroke-linejoin="miter" stroke="rgb(0%, 0%, 0%)" stroke-opacity="1" stroke-miterlimit="10" d="M 356.984375 332.574219 C 356.984375 333.90625 354.984375 333.90625 354.984375 332.574219 C 354.984375 331.238281 356.984375 331.238281 356.984375 332.574219 "/>
<path fill-rule="nonzero" fill="rgb(100%, 0%, 0%)" fill-opacity="1" stroke-width="0.01" stroke-linecap="butt" stroke-linejoin="miter" stroke="rgb(0%, 0%, 0%)" stroke-opacity="1" stroke-miterlimit="10" d="M 290.066406 254.035156 C 290.066406 255.367188 288.066406 255.367188 288.066406 254.035156 C 288.066406 252.703125 290.066406 252.703125 290.066406 254.035156 "/>
<path fill-rule="nonzero" fill="rgb(100%, 0%, 0%)" fill-opacity="1" stroke-width="0.01" stroke-linecap="butt" stroke-linejoin="miter" stroke="rgb(0%, 0%, 0%)" stroke-opacity="1" stroke-miterlimit="10" d="M 437.773438 553.363281 C 437.773438 554.699219 435.773438 554.699219 435.773438 553.363281 C 435.773438 552.03125 437.773438 552.03125 437.773438 553.363281 "/>
<path fill-rule="nonzero" fill="rgb(100%, 0%, 0%)" fill-opacity="1" stroke-width="0.01" stroke-linecap="butt" stroke-linejoin="miter" stroke="rgb(0%, 0%, 0%)" stroke-opacity="1" stroke-miterlimit="10" d="M 437.570312 108.382812 C 437.570312 109.714844 435.570312 109.714844 435.570312 108.382812 C 435.570312 107.050781 437.570312 107.050781 437.570312 108.382812 "/>
<path fill-rule="nonzero" fill="rgb(100%, 0%, 0%)" fill-opacity="1" stroke-width="0.01" stroke-linecap="butt" stroke-linejoin="miter" stroke="rgb(0%, 0%, 0%)" stroke-opacity="1" stroke-miterlimit="10" d="M 168.726562 221.832031 C 168.726562 223.167969 166.726562 223.167969 166.726562 221.832031 C 166.726562 220.5 168.726562 220.5 168.726562 221.832031 "/>
<path fill-rule="nonzero" fill="rgb(100%, 0%, 0%)" fill-opacity="1" stroke-width="0.01" stroke-linecap="butt" stroke-linejoin="miter" stroke="rgb(0%, 0%, 0%)" stroke-opacity="1" stroke-miterlimit="10" d="M 262.070312 297.671875 C 262.070312 299.007812 260.070312 299.007812 260.070312 297.671875 C 260.070312 296.339844 262.070312 296.339844 262.070312 297.671875 "/>
<path fill-rule="nonzero" fill="rgb(100%, 0%, 0%)" fill-opacity="1" stroke-width="0.01" stroke-linecap="butt" stroke-linejoin="miter" stroke="rgb(0%, 0%, 0%)" stroke-opacity="1" stroke-miterlimit="10" d="M 525.886719 123.972656 C 525.886719 125.304688 523.886719 125.304688 523.886719 123.972656 C 523.886719 122.636719 525.886719 122.636719 525.886719 123.972656 "/>
<path fill-rule="nonzero" fill="rgb(100%, 0%, 0%)" fill-opacity="1" stroke-width="0.01" stroke-linecap="butt" stroke-linejoin="miter" stroke="rgb(0%, 0%, 0%)" stroke-opacity="1" stroke-miterlimit="10" d="M 468.96875 65.148438 C 468.96875 66.484375 466.96875 66.484375 466.96875 65.148438 C 466.96875 63.816406 468.96875 63.816406 468.96875 65.148438 "/>
<path fill-rule="nonzero" fill="rgb(100%, 0%, 0%)" fill-opacity="1" stroke-width="0.01" stroke-linecap="butt" stroke-linejoin="miter" stroke="rgb(0%, 0%, 0%)" stroke-opacity="1" stroke-miterlimit="10" d="M 336.214844 507.648438 C 336.214844 508.980469 334.214844 508.980469 334.214844 507.648438 C 334.214844 506.3125 336.214844 506.3125 336.214844 507.648438 "/>
<path fill-rule="nonzero" fill="rgb(100%, 0%, 0%)" fill-opacity="1" stroke-width="0.01" stroke-linecap="butt" stroke-linejoin="miter" stroke="rgb(0%, 0%, 0%)" stroke-opacity="1" stroke-miterlimit="10" d="M 116.414062 235.0625 C 116.414062 236.394531 114.414062 236.394531 114.414062 235.0625 C 114.414062 233.726562 116.414062 233.726562 116.414062 235.0625 "/>
<path fill-rule="nonzero" fill="rgb(100%, 0%, 0%)" fill-opacity="1" stroke-width="0.01" stroke-linecap="butt" stroke-linejoin="miter" stroke="rgb(0%, 0%, 0%)" stroke-opacity="1" stroke-miterlimit="10" d="M 326.769531 130.632812 C 326.769531 131.964844 324.769531 131.964844 324.769531 130.632812 C 324.769531 129.296875 326.769531 129.296875 326.769531 130.632812 "/>
<path fill-rule="nonzero" fill="rgb(100%, 0%, 0%)" fill-opacity="1" stroke-width="0.01" stroke-linecap="butt" stroke-linejoin="miter" stroke="rgb(0%, 0%, 0%)" stroke-opacity="1" stroke-miterlimit="10" d="M 247.25 346.4375 C 247.25 347.769531 245.25 347.769531 245.25 346.4375 C 245.25 345.101562 247.25 345.101562 247.25 346.4375 "/>
<path fill-rule="nonzero" fill="rgb(100%, 0%, 0%)" fill-opacity="1" stroke-width="0.01" stroke-linecap="butt" stroke-linejoin="miter" stroke="rgb(0%, 0%, 0%)" stroke-opacity="1" stroke-miterlimit="10" d="M 581 339.261719 C 581 340.59375 579 340.59375 579 339.261719 C 579 337.929688 581 337.929688 581 339.261719 "/>
<path fill-rule="nonzero" fill="rgb(100%, 0%, 0%)" fill-opacity="1" stroke-width="0.01" stroke-linecap="butt" stroke-linejoin="miter" stroke="rgb(0%, 0%, 0%)" stroke-opacity="1" stroke-miterlimit="10" d="M 329.394531 60.902344 C 329.394531 62.234375 327.394531 62.234375 327.394531 60.902344 C 327.394531 59.570312 329.394531 59.570312 329.394531 60.902344 "/>
<path fill-rule="nonzero" fill="rgb(100%, 0%, 0%)" fill-opacity="1" stroke-width="0.01" stroke-linecap="butt" stroke-linejoin="miter" stroke="rgb(0%, 0%, 0%)" stroke-opacity="1" stroke-miterlimit="10" d="M 435.722656 159.753906 C 435.722656 161.085938 433.722656 161.085938 433.722656 159.753906 C 433.722656 158.421875 435.722656 158.421875 435.722656 159.753906 "/>
<path fill-rule="nonzero" fill="rgb(100%, 0%, 0%)" fill-opacity="1" stroke-width="0.01" stroke-linecap="butt" stroke-linejoin="miter" stroke="rgb(0%, 0%, 0%)" stroke-opacity="1" stroke-miterlimit="10" d="M 410.277344 216.808594 C 410.277344 218.140625 408.277344 218.140625 408.277344 216.808594 C 408.277344 215.472656 410.277344 215.472656 410.277344 216.808594 "/>
<path fill-rule="nonzero" fill="rgb(100%, 0%, 0%)" fill-opacity="1" stroke-width="0.01" stroke-linecap="butt" stroke-linejoin="miter" stroke="rgb(0%, 0%, 0%)" stroke-opacity="1" stroke-miterlimit="10" d="M 120.367188 284.746094 C 120.367188 286.078125 118.367188 286.078125 118.367188 284.746094 C 118.367188 283.414062 120.367188 283.414062 120.367188 284.746094 "/>
<path fill-rule="nonzero" fill="rgb(100%, 0%, 0%)" fill-opacity="1" stroke-width="0.01" stroke-linecap="butt" stroke-linejoin="miter" stroke="rgb(0%, 0%, 0%)" stroke-opacity="1" stroke-miterlimit="10" d="M 243.691406 438.675781 C 243.691406 440.007812 241.691406 440.007812 241.691406 438.675781 C 241.691406 437.34375 243.691406 437.34375 243.691406 438.675781 "/>
<path fill-rule="nonzero" fill="rgb(100%, 0%, 0%)" fill-opacity="1" stroke-width="0.01" stroke-linecap="butt" stroke-linejoin="miter" stroke="rgb(0%, 0%, 0%)" stroke-opacity="1" stroke-miterlimit="10" d="M 142.757812 174.917969 C 142.757812 176.25 140.757812 176.25 140.757812 174.917969 C 140.757812 173.582031 142.757812 173.582031 142.757812 174.917969 "/>
<path fill-rule="nonzero" fill="rgb(100%, 0%, 0%)" fill-opacity="1" stroke-width="0.01" stroke-linecap="butt" stroke-linejoin="miter" stroke="rgb(0%, 0%, 0%)" stroke-opacity="1" stroke-miterlimit="10" d="M 294.75 118.261719 C 294.75 119.59375 292.75 119.59375 292.75 118.261719 C 292.75 116.925781 294.75 116.925781 294.75 118.261719 "/>
<path fill-rule="nonzero" fill="rgb(100%, 0%, 0%)" fill-opacity="1" stroke-width="0.01" stroke-linecap="butt" stroke-linejoin="miter" stroke="rgb(0%, 0%, 0%)" stroke-opacity="1" stroke-miterlimit="10" d="M 195.195312 406.964844 C 195.195312 408.300781 193.195312 408.300781 193.195312 406.964844 C 193.195312 405.632812 195.195312 405.632812 195.195312 406.964844 "/>
<path fill-rule="nonzero" fill="rgb(100%, 0%, 0%)" fill-opacity="1" stroke-width="0.01" stroke-linecap="butt" stroke-linejoin="miter" stroke="rgb(0%, 0%, 0%)" stroke-opacity="1" stroke-miterlimit="10" d="M 244.210938 150.34375 C 244.210938 151.675781 242.210938 151.675781 242.210938 150.34375 C 242.210938 149.011719 244.210938 149.011719 244.210938 150.34375 "/>
<path fill-rule="nonzero" fill="rgb(100%, 0%, 0%)" fill-opacity="1" stroke-width="0.01" stroke-linecap="butt" stroke-linejoin="miter" stroke="rgb(0%, 0%, 0%)" stroke-opacity="1" stroke-miterlimit="10" d="M 196.367188 358.695312 C 196.367188 360.03125 194.367188 360.03125 194.367188 358.695312 C 194.367188 357.363281 196.367188 357.363281 196.367188 358.695312 "/>
<path fill-rule="nonzero" fill="rgb(100%, 0%, 0%)" fill-opacity="1" stroke-width="0.01" stroke-linecap="butt" stroke-linejoin="miter" stroke="rgb(0%, 0%, 0%)" stroke-opacity="1" stroke-miterlimit="10" d="M 337.601562 443.871094 C 337.601562 445.207031 335.601562 445.207031 335.601562 443.871094 C 335.601562 442.539062 337.601562 442.539062 337.601562 443.871094 "/>
<path fill-rule="nonzero" fill="rgb(100%, 0%, 0%)" fill-opacity="1" stroke-width="0.01" stroke-linecap="butt" stroke-linejoin="miter" stroke="rgb(0%, 0%, 0%)" stroke-opacity="1" stroke-miterlimit="10" d="M 157.042969 322.851562 C 157.042969 324.183594 155.042969 324.183594 155.042969 322.851562 C 155.042969 321.515625 157.042969 321.515625 157.042969 322.851562 "/>
<path fill-rule="nonzero" fill="rgb(100%, 0%, 0%)" fill-opacity="1" stroke-width="0.01" stroke-linecap="butt" stroke-linejoin="miter" stroke="rgb(0%, 0%, 0%)" stroke-opacity="1" stroke-miterlimit="10" d="M 87.769531 192.355469 C 87.769531 193.691406 85.769531 193.691406 85.769531 192.355469 C 85.769531 191.023438 87.769531 191.023438 87.769531 192.355469 "/>
<path fill-rule="nonzero" fill="rgb(100%, 0%, 0%)" fill-opacity="1" stroke-width="0.01" stroke-linecap="butt" stroke-linejoin="miter" stroke="rgb(0%, 0%, 0%)" stroke-opacity="1" stroke-miterlimit="10" d="M 304.585938 409.675781 C 304.585938 411.007812 302.585938 411.007812 302.585938 409.675781 C 302.585938 408.34375 304.585938 408.34375 304.585938 409.675781 "/>
<path fill-rule="nonzero" fill="rgb(100%, 0%, 0%)" fill-opacity="1" stroke-width="0.01" stroke-linecap="butt" stroke-linejoin="miter" stroke="rgb(0%, 0%, 0%)" stroke-opacity="1" stroke-miterlimit="10" d="M 210.933594 305.515625 C 210.933594 306.851562 208.933594 306.851562 208.933594 305.515625 C 208.933594 304.183594 210.933594 304.183594 210.933594 305.515625 "/>
<path fill-rule="nonzero" fill="rgb(100%, 0%, 0%)" fill-opacity="1" stroke-width="0.01" stroke-linecap="butt" stroke-linejoin="miter" stroke="rgb(0%, 0%, 0%)" stroke-opacity="1" stroke-miterlimit="10" d="M 575.871094 211.792969 C 575.871094 213.128906 573.871094 213.128906 573.871094 211.792969 C 573.871094 210.460938 575.871094 210.460938 575.871094 211.792969 "/>
<path fill-rule="nonzero" fill="rgb(100%, 0%, 0%)" fill-opacity="1" stroke-width="0.01" stroke-linecap="butt" stroke-linejoin="miter" stroke="rgb(0%, 0%, 0%)" stroke-opacity="1" stroke-miterlimit="10" d="M 494.828125 514.273438 C 494.828125 515.605469 492.828125 515.605469 492.828125 514.273438 C 492.828125 512.9375 494.828125 512.9375 494.828125 514.273438 "/>
<path fill-rule="nonzero" fill="rgb(100%, 0%, 0%)" fill-opacity="1" stroke-width="0.01" stroke-linecap="butt" stroke-linejoin="miter" stroke="rgb(0%, 0%, 0%)" stroke-opacity="1" stroke-miterlimit="10" d="M 353.894531 209.421875 C 353.894531 210.757812 351.894531 210.757812 351.894531 209.421875 C 351.894531 208.089844 353.894531 208.089844 353.894531 209.421875 "/>
<path fill-rule="nonzero" fill="rgb(100%, 0%, 0%)" fill-opacity="1" stroke-width="0.01" stroke-linecap="butt" stroke-linejoin="miter" stroke="rgb(0%, 0%, 0%)" stroke-opacity="1" stroke-miterlimit="10" d="M 255.15625 392.800781 C 255.15625 394.132812 253.15625 394.132812 253.15625 392.800781 C 253.15625 391.464844 255.15625 391.464844 255.15625 392.800781 "/>
<path fill-rule="nonzero" fill="rgb(100%, 0%, 0%)" fill-opacity="1" stroke-width="0.01" stroke-linecap="butt" stroke-linejoin="miter" stroke="rgb(0%, 0%, 0%)" stroke-opacity="1" stroke-miterlimit="10" d="M 140.828125 121.515625 C 140.828125 122.847656 138.828125 122.847656 138.828125 121.515625 C 138.828125 120.179688 140.828125 120.179688 140.828125 121.515625 "/>
<path fill-rule="nonzero" fill="rgb(100%, 0%, 0%)" fill-opacity="1" stroke-width="0.01" stroke-linecap="butt" stroke-linejoin="miter" stroke="rgb(0%, 0%, 0%)" stroke-opacity="1" stroke-miterlimit="10" d="M 189.121094 458.40625 C 189.121094 459.742188 187.121094 459.742188 187.121094 458.40625 C 187.121094 457.074219 189.121094 457.074219 189.121094 458.40625 "/>
<path fill-rule="nonzero" fill="rgb(100%, 0%, 0%)" fill-opacity="1" stroke-width="0.01" stroke-linecap="butt" stroke-linejoin="miter" stroke="rgb(0%, 0%, 0%)" stroke-opacity="1" stroke-miterlimit="10" d="M 489.984375 162.753906 C 489.984375 164.089844 487.984375 164.089844 487.984375 162.753906 C 487.984375 161.421875 489.984375 161.421875 489.984375 162.753906 "/>
<path fill-rule="nonzero" fill="rgb(100%, 0%, 0%)" fill-opacity="1" stroke-width="0.01" stroke-linecap="butt" stroke-linejoin="miter" stroke="rgb(0%, 0%, 0%)" stroke-opacity="1" stroke-miterlimit="10" d="M 290.757812 20 C 290.757812 21.332031 288.757812 21.332031 288.757812 20 C 288.757812 18.667969 290.757812 18.667969 290.757812 20 "/>
<path fill-rule="nonzero" fill="rgb(100%, 0%, 0%)" fill-opacity="1" stroke-width="0.01" stroke-linecap="butt" stroke-linejoin="miter" stroke="rgb(0%, 0%, 0%)" stroke-opacity="1" stroke-miterlimit="10" d="M 209.925781 95.585938 C 209.925781 96.917969 207.925781 96.917969 207.925781 95.585938 C 207.925781 94.253906 209.925781 94.253906 209.925781 95.585938 "/>
<path fill-rule="nonzero" fill="rgb(100%, 0%, 0%)" fill-opacity="1" stroke-width="0.01" stroke-linecap="butt" stroke-linejoin="miter" stroke="rgb(0%, 0%, 0%)" stroke-opacity="1" stroke-miterlimit="10" d="M 81.800781 373.476562 C 81.800781 374.808594 79.800781 374.808594 79.800781 373.476562 C 79.800781 372.144531 81.800781 372.144531 81.800781 373.476562 "/>
<path fill-rule="nonzero" fill="rgb(100%, 0%, 0%)" fill-opacity="1" stroke-width="0.01" stroke-linecap="butt" stroke-linejoin="miter" stroke="rgb(0%, 0%, 0%)" stroke-opacity="1" stroke-miterlimit="10" d="M 97.527344 91.332031 C 97.527344 92.664062 95.527344 92.664062 95.527344 91.332031 C 95.527344 90 97.527344 90 97.527344 91.332031 "/>
<path fill-rule="nonzero" fill="rgb(100%, 0%, 0%)" fill-opacity="1" stroke-width="0.01" stroke-linecap="butt" stroke-linejoin="miter" stroke="rgb(0%, 0%, 0%)" stroke-opacity="1" stroke-miterlimit="10" d="M 231.34375 253.464844 C 231.34375 254.796875 229.34375 254.796875 229.34375 253.464844 C 229.34375 252.128906 231.34375 252.128906 231.34375 253.464844 "/>
<path fill-rule="nonzero" fill="rgb(100%, 0%, 0%)" fill-opacity="1" stroke-width="0.01" stroke-linecap="butt" stroke-linejoin="miter" stroke="rgb(0%, 0%, 0%)" stroke-opacity="1" stroke-miterlimit="10" d="M 308.179688 314.160156 C 308.179688 315.492188 306.179688 315.492188 306.179688 314.160156 C 306.179688 312.828125 308.179688 312.828125 308.179688 314.160156 "/>
<path fill-rule="nonzero" fill="rgb(100%, 0%, 0%)" fill-opacity="1" stroke-width="0.01" stroke-linecap="butt" stroke-linejoin="miter" stroke="rgb(0%, 0%, 0%)" stroke-opacity="1" stroke-miterlimit="10" d="M 41.464844 452.21875 C 41.464844 453.550781 39.464844 453.550781 39.464844 452.21875 C 39.464844 450.882812 41.464844 450.882812 41.464844 452.21875 "/>
<path fill-rule="nonzero" fill="rgb(100%, 0%, 0%)" fill-opacity="1" stroke-width="0.01" stroke-linecap="butt" stroke-linejoin="miter" stroke="rgb(0%, 0%, 0%)" stroke-opacity="1" stroke-miterlimit="10" d="M 409.039062 352.753906 C 409.039062 354.089844 407.039062 354.089844 407.039062 352.753906 C 407.039062 351.421875 409.039062 351.421875 409.039062 352.753906 "/>
<path fill-rule="nonzero" fill="rgb(100%, 0%, 0%)" fill-opacity="1" stroke-width="0.01" stroke-linecap="butt" stroke-linejoin="miter" stroke="rgb(0%, 0%, 0%)" stroke-opacity="1" stroke-miterlimit="10" d="M 176.40625 269.492188 C 176.40625 270.824219 174.40625 270.824219 174.40625 269.492188 C 174.40625 268.15625 176.40625 268.15625 176.40625 269.492188 "/>
<path fill-rule="nonzero" fill="rgb(100%, 0%, 0%)" fill-opacity="1" stroke-width="0.01" stroke-linecap="butt" stroke-linejoin="miter" stroke="rgb(0%, 0%, 0%)" stroke-opacity="1" stroke-miterlimit="10" d="M 472.957031 356.453125 C 472.957031 357.785156 470.957031 357.785156 470.957031 356.453125 C 470.957031 355.117188 472.957031 355.117188 472.957031 356.453125 "/>
<path fill-rule="nonzero" fill="rgb(100%, 0%, 0%)" fill-opacity="1" stroke-width="0.01" stroke-linecap="butt" stroke-linejoin="miter" stroke="rgb(0%, 0%, 0%)" stroke-opacity="1" stroke-miterlimit="10" d="M 381.132812 465.722656 C 381.132812 467.058594 379.132812 467.058594 379.132812 465.722656 C 379.132812 464.390625 381.132812 464.390625 381.132812 465.722656 "/>
<path fill-rule="nonzero" fill="rgb(100%, 0%, 0%)" fill-opacity="1" stroke-width="0.01" stroke-linecap="butt" stroke-linejoin="miter" stroke="rgb(0%, 0%, 0%)" stroke-opacity="1" stroke-miterlimit="10" d="M 355.632812 382.605469 C 355.632812 383.941406 353.632812 383.941406 353.632812 382.605469 C 353.632812 381.273438 355.632812 381.273438 355.632812 382.605469 "/>
<path fill-rule="nonzero" fill="rgb(100%, 0%, 0%)" fill-opacity="1" stroke-width="0.01" stroke-linecap="butt" stroke-linejoin="miter" stroke="rgb(0%, 0%, 0%)" stroke-opacity="1" stroke-miterlimit="10" d="M 377.015625 254.855469 C 377.015625 256.1875 375.015625 256.1875 375.015625 254.855469 C 375.015625 253.519531 377.015625 253.519531 377.015625 254.855469 "/>
<path fill-rule="nonzero" fill="rgb(100%, 0%, 0%)" fill-opacity="1" stroke-width="0.01" stroke-linecap="butt" stroke-linejoin="miter" stroke="rgb(0%, 0%, 0%)" stroke-opacity="1" stroke-miterlimit="10" d="M 54.757812 150.984375 C 54.757812 152.316406 52.757812 152.316406 52.757812 150.984375 C 52.757812 149.648438 54.757812 149.648438 54.757812 150.984375 "/>
<path fill-rule="nonzero" fill="rgb(100%, 0%, 0%)" fill-opacity="1" stroke-width="0.01" stroke-linecap="butt" stroke-linejoin="miter" stroke="rgb(0%, 0%, 0%)" stroke-opacity="1" stroke-miterlimit="10" d="M 258.277344 207.28125 C 258.277344 208.617188 256.277344 208.617188 256.277344 207.28125 C 256.277344 205.949219 258.277344 205.949219 258.277344 207.28125 "/>
<path fill-rule="nonzero" fill="rgb(100%, 0%, 0%)" fill-opacity="1" stroke-width="0.01" stroke-linecap="butt" stroke-linejoin="miter" stroke="rgb(0%, 0%, 0%)" stroke-opacity="1" stroke-miterlimit="10" d="M 292.050781 468.542969 C 292.050781 469.875 290.050781 469.875 290.050781 468.542969 C 290.050781 467.207031 292.050781 467.207031 292.050781 468.542969 "/>
<path fill-rule="nonzero" fill="rgb(100%, 0%, 0%)" fill-opacity="1" stroke-width="0.01" stroke-linecap="butt" stroke-linejoin="miter" stroke="rgb(0%, 0%, 0%)" stroke-opacity="1" stroke-miterlimit="10" d="M 388.8125 87.472656 C 388.8125 88.804688 386.8125 88.804688 386.8125 87.472656 C 386.8125 86.136719 388.8125 86.136719 388.8125 87.472656 "/>
<path fill-rule="nonzero" fill="rgb(100%, 0%, 0%)" fill-opacity="1" stroke-width="0.01" stroke-linecap="butt" stroke-linejoin="miter" stroke="rgb(0%, 0%, 0%)" stroke-opacity="1" stroke-miterlimit="10" d="M 435.964844 398.117188 C 435.964844 399.449219 433.964844 399.449219 433.964844 398.117188 C 433.964844 396.785156 435.964844 396.785156 435.964844 398.117188 "/>
<path fill-rule="nonzero" fill="rgb(100%, 0%, 0%)" fill-opacity="1" stroke-width="0.01" stroke-linecap="butt" stroke-linejoin="miter" stroke="rgb(0%, 0%, 0%)" stroke-opacity="1" stroke-miterlimit="10" d="M 321.296875 580 C 321.296875 581.332031 319.296875 581.332031 319.296875 580 C 319.296875 578.667969 321.296875 578.667969 321.296875 580 "/>
<path fill-rule="nonzero" fill="rgb(100%, 0%, 0%)" fill-opacity="1" stroke-width="0.01" stroke-linecap="butt" stroke-linejoin="miter" stroke="rgb(0%, 0%, 0%)" stroke-opacity="1" stroke-miterlimit="10" d="M 239.917969 49.027344 C 239.917969 50.363281 237.917969 50.363281 237.917969 49.027344 C 237.917969 47.695312 239.917969 47.695312 239.917969 49.027344 "/>
<path fill-rule="nonzero" fill="rgb(100%, 0%, 0%)" fill-opacity="1" stroke-width="0.01" stroke-linecap="butt" stroke-linejoin="miter" stroke="rgb(0%, 0%, 0%)" stroke-opacity="1" stroke-miterlimit="10" d="M 396.496094 301.390625 C 396.496094 302.722656 394.496094 302.722656 394.496094 301.390625 C 394.496094 300.058594 396.496094 300.058594 396.496094 301.390625 "/>
<path fill-rule="nonzero" fill="rgb(100%, 0%, 0%)" fill-opacity="1" stroke-width="0.01" stroke-linecap="butt" stroke-linejoin="miter" stroke="rgb(0%, 0%, 0%)" stroke-opacity="1" stroke-miterlimit="10" d="M 385.597656 164.1875 C 385.597656 165.523438 383.597656 165.523438 383.597656 164.1875 C 383.597656 162.855469 385.597656 162.855469 385.597656 164.1875 "/>
<path fill-rule="nonzero" fill="rgb(100%, 0%, 0%)" fill-opacity="1" stroke-width="0.01" stroke-linecap="butt" stroke-linejoin="miter" stroke="rgb(0%, 0%, 0%)" stroke-opacity="1" stroke-miterlimit="10" d="M 91.613281 325.511719 C 91.613281 326.84375 89.613281 326.84375 89.613281 325.511719 C 89.613281 324.175781 91.613281 324.175781 91.613281 325.511719 "/>
<path fill-rule="nonzero" fill="rgb(100%, 0%, 0%)" fill-opacity="1" stroke-width="0.01" stroke-linecap="butt" stroke-linejoin="miter" stroke="rgb(0%, 0%, 0%)" stroke-opacity="1" stroke-miterlimit="10" d="M 374.585938 553.164062 C 374.585938 554.496094 372.585938 554.496094 372.585938 553.164062 C 372.585938 551.832031 374.585938 551.832031 374.585938 553.164062 "/>
<path fill-rule="nonzero" fill="rgb(100%, 0%, 0%)" fill-opacity="1" stroke-width="0.01" stroke-linecap="butt" stroke-linejoin="miter" stroke="rgb(0%, 0%, 0%)" stroke-opacity="1" stroke-miterlimit="10" d="M 138.484375 429.15625 C 138.484375 430.488281 136.484375 430.488281 136.484375 429.15625 C 136.484375 427.820312 138.484375 427.820312 138.484375 429.15625 "/>
<path fill-rule="nonzero" fill="rgb(100%, 0%, 0%)" fill-opacity="1" stroke-width="0.01" stroke-linecap="butt" stroke-linejoin="miter" stroke="rgb(0%, 0%, 0%)" stroke-opacity="1" stroke-miterlimit="10" d="M 309.765625 128.445312 C 309.765625 129.777344 307.765625 129.777344 307.765625 128.445312 C 307.765625 127.113281 309.765625 127.113281 309.765625 128.445312 "/>
<path fill-rule="nonzero" fill="rgb(100%, 0%, 0%)" fill-opacity="1" stroke-width="0.01" stroke-linecap="butt" stroke-linejoin="miter" stroke="rgb(0%, 0%, 0%)" stroke-opacity="1" stroke-miterlimit="10" d="M 22.078125 222.585938 C 22.078125 223.917969 20.078125 223.917969 20.078125 222.585938 C 20.078125 221.253906 22.078125 221.253906 22.078125 222.585938 "/>
<path fill-rule="nonzero" fill="rgb(100%, 0%, 0%)" fill-opacity="1" stroke-width="0.01" stroke-linecap="butt" stroke-linejoin="miter" stroke="rgb(0%, 0%, 0%)" stroke-opacity="1" stroke-miterlimit="10" d="M 26.359375 306.207031 C 26.359375 307.539062 24.359375 307.539062 24.359375 306.207031 C 24.359375 304.871094 26.359375 304.871094 26.359375 306.207031 "/>
<path fill-rule="nonzero" fill="rgb(100%, 0%, 0%)" fill-opacity="1" stroke-width="0.01" stroke-linecap="butt" stroke-linejoin="miter" stroke="rgb(0%, 0%, 0%)" stroke-opacity="1" stroke-miterlimit="10" d="M 516.546875 310.671875 C 516.546875 312.003906 514.546875 312.003906 514.546875 310.671875 C 514.546875 309.335938 516.546875 309.335938 516.546875 310.671875 "/>
<path fill-rule="nonzero" fill="rgb(100%, 0%, 0%)" fill-opacity="1" stroke-width="0.01" stroke-linecap="butt" stroke-linejoin="miter" stroke="rgb(0%, 0%, 0%)" stroke-opacity="1" stroke-miterlimit="10" d="M 141.125 374.140625 C 141.125 375.476562 139.125 375.476562 139.125 374.140625 C 139.125 372.808594 141.125 372.808594 141.125 374.140625 "/>
<path fill-rule="nonzero" fill="rgb(100%, 0%, 0%)" fill-opacity="1" stroke-width="0.01" stroke-linecap="butt" stroke-linejoin="miter" stroke="rgb(0%, 0%, 0%)" stroke-opacity="1" stroke-miterlimit="10" d="M 303.023438 360.46875 C 303.023438 361.800781 301.023438 361.800781 301.023438 360.46875 C 301.023438 359.136719 303.023438 359.136719 303.023438 360.46875 "/>
<path fill-rule="nonzero" fill="rgb(100%, 0%, 0%)" fill-opacity="1" stroke-width="0.01" stroke-linecap="butt" stroke-linejoin="miter" stroke="rgb(0%, 0%, 0%)" stroke-opacity="1" stroke-miterlimit="10" d="M 143.621094 488.914062 C 143.621094 490.246094 141.621094 490.246094 141.621094 488.914062 C 141.621094 487.582031 143.621094 487.582031 143.621094 488.914062 "/>
<path fill-rule="nonzero" fill="rgb(100%, 0%, 0%)" fill-opacity="1" stroke-width="0.01" stroke-linecap="butt" stroke-linejoin="miter" stroke="rgb(0%, 0%, 0%)" stroke-opacity="1" stroke-miterlimit="10" d="M 462.613281 214.507812 C 462.613281 215.839844 460.613281 215.839844 460.613281 214.507812 C 460.613281 213.175781 462.613281 213.175781 462.613281 214.507812 "/>
<path fill-rule="nonzero" fill="rgb(100%, 0%, 0%)" fill-opacity="1" stroke-width="0.01" stroke-linecap="butt" stroke-linejoin="miter" stroke="rgb(0%, 0%, 0%)" stroke-opacity="1" stroke-miterlimit="10" d="M 62.625 262.824219 C 62.625 264.15625 60.625 264.15625 60.625 262.824219 C 60.625 261.488281 62.625 261.488281 62.625 262.824219 "/>
<path fill-rule="nonzero" fill="rgb(100%, 0%, 0%)" fill-opacity="1" stroke-width="0.01" stroke-linecap="butt" stroke-linejoin="miter" stroke="rgb(0%, 0%, 0%)" stroke-opacity="1" stroke-miterlimit="10" d="M 485.699219 414.023438 C 485.699219 415.355469 483.699219 415.355469 483.699219 414.023438 C 483.699219 412.691406 485.699219 412.691406 485.699219 414.023438 "/>
<path fill-rule="nonzero" fill="rgb(100%, 0%, 0%)" fill-opacity="1" stroke-width="0.01" stroke-linecap="butt" stroke-linejoin="miter" stroke="rgb(0%, 0%, 0%)" stroke-opacity="1" stroke-miterlimit="10" d="M 518.097656 460.15625 C 518.097656 461.488281 516.097656 461.488281 516.097656 460.15625 C 516.097656 458.824219 518.097656 458.824219 518.097656 460.15625 "/>
<path fill-rule="nonzero" fill="rgb(100%, 0%, 0%)" fill-opacity="1" stroke-width="0.01" stroke-linecap="butt" stroke-linejoin="miter" stroke="rgb(0%, 0%, 0%)" stroke-opacity="1" stroke-miterlimit="10" d="M 378.492188 25.851562 C 378.492188 27.1875 376.492188 27.1875 376.492188 25.851562 C 376.492188 24.519531 378.492188 24.519531 378.492188 25.851562 "/>
<path fill-rule="nonzero" fill="rgb(100%, 0%, 0%)" fill-opacity="1" stroke-width="0.01" stroke-linecap="butt" stroke-linejoin="miter" stroke="rgb(0%, 0%, 0%)" stroke-opacity="1" stroke-miterlimit="10" d="M 306.355469 205.902344 C 306.355469 207.234375 304.355469 207.234375 304.355469 205.902344 C 304.355469 204.570312 306.355469 204.570312 306.355469 205.902344 "/>
<path fill-rule="nonzero" fill="rgb(100%, 0%, 0%)" fill-opacity="1" stroke-width="0.01" stroke-linecap="butt" stroke-linejoin="miter" stroke="rgb(0%, 0%, 0%)" stroke-opacity="1" stroke-miterlimit="10" d="M 86.125 425.585938 C 86.125 426.917969 84.125 426.917969 84.125 425.585938 C 84.125 424.253906 86.125 424.253906 86.125 425.585938 "/>
<path fill-rule="nonzero" fill="rgb(100%, 0%, 0%)" fill-opacity="1" stroke-width="0.01" stroke-linecap="butt" stroke-linejoin="miter" stroke="rgb(0%, 0%, 0%)" stroke-opacity="1" stroke-miterlimit="10" d="M 527.636719 368.527344 C 527.636719 369.859375 525.636719 369.859375 525.636719 368.527344 C 525.636719 367.195312 527.636719 367.195312 527.636719 368.527344 "/>
<path fill-rule="nonzero" fill="rgb(100%, 0%, 0%)" fill-opacity="1" stroke-width="0.01" stroke-linecap="butt" stroke-linejoin="miter" stroke="rgb(0%, 0%, 0%)" stroke-opacity="1" stroke-miterlimit="10" d="M 94.972656 510.359375 C 94.972656 511.691406 92.972656 511.691406 92.972656 510.359375 C 92.972656 509.027344 94.972656 509.027344 94.972656 510.359375 "/>
<path fill-rule="nonzero" fill="rgb(100%, 0%, 0%)" fill-opacity="1" stroke-width="0.01" stroke-linecap="butt" stroke-linejoin="miter" stroke="rgb(0%, 0%, 0%)" stroke-opacity="1" stroke-miterlimit="10" d="M 245.363281 577.164062 C 245.363281 578.496094 243.363281 578.496094 243.363281 577.164062 C 243.363281 575.832031 245.363281 575.832031 245.363281 577.164062 "/>
<path fill-rule="nonzero" fill="rgb(100%, 0%, 0%)" fill-opacity="1" stroke-width="0.01" stroke-linecap="butt" stroke-linejoin="miter" stroke="rgb(0%, 0%, 0%)" stroke-opacity="1" stroke-miterlimit="10" d="M 497.761719 261.492188 C 497.761719 262.828125 495.761719 262.828125 495.761719 261.492188 C 495.761719 260.160156 497.761719 260.160156 497.761719 261.492188 "/>
<path fill-rule="nonzero" fill="rgb(100%, 0%, 0%)" fill-opacity="1" stroke-width="0.01" stroke-linecap="butt" stroke-linejoin="miter" stroke="rgb(0%, 0%, 0%)" stroke-opacity="1" stroke-miterlimit="10" d="M 243.53125 491.386719 C 243.53125 492.722656 241.53125 492.722656 241.53125 491.386719 C 241.53125 490.054688 243.53125 490.054688 243.53125 491.386719 "/>
<path fill-rule="nonzero" fill="rgb(100%, 0%, 0%)" fill-opacity="1" stroke-width="0.01" stroke-linecap="butt" stroke-linejoin="miter" stroke="rgb(0%, 0%, 0%)" stroke-opacity="1" stroke-miterlimit="10" d="M 438.261719 264.878906 C 438.261719 266.214844 436.261719 266.214844 436.261719 264.878906 C 436.261719 263.546875 438.261719 263.546875 438.261719 264.878906 "/>
<path fill-rule="nonzero" fill="rgb(100%, 0%, 0%)" fill-opacity="1" stroke-width="0.01" stroke-linecap="butt" stroke-linejoin="miter" stroke="rgb(0%, 0%, 0%)" stroke-opacity="1" stroke-miterlimit="10" d="M 562.355469 416.273438 C 562.355469 417.605469 560.355469 417.605469 560.355469 416.273438 C 560.355469 414.9375 562.355469 414.9375 562.355469 416.273438 "/>
<path fill-rule="nonzero" fill="rgb(100%, 0%, 0%)" fill-opacity="1" stroke-width="0.01" stroke-linecap="butt" stroke-linejoin="miter" stroke="rgb(0%, 0%, 0%)" stroke-opacity="1" stroke-miterlimit="10" d="M 192.429688 146.335938 C 192.429688 147.671875 190.429688 147.671875 190.429688 146.335938 C 190.429688 145.003906 192.429688 145.003906 192.429688 146.335938 "/>
<path fill-rule="nonzero" fill="rgb(100%, 0%, 0%)" fill-opacity="1" stroke-width="0.01" stroke-linecap="butt" stroke-linejoin="miter" stroke="rgb(0%, 0%, 0%)" stroke-opacity="1" stroke-miterlimit="10" d="M 449.996094 461.769531 C 449.996094 463.101562 447.996094 463.101562 447.996094 461.769531 C 447.996094 460.433594 449.996094 460.433594 449.996094 461.769531 "/>
<path fill-rule="nonzero" fill="rgb(100%, 0%, 0%)" fill-opacity="1" stroke-width="0.01" stroke-linecap="butt" stroke-linejoin="miter" stroke="rgb(0%, 0%, 0%)" stroke-opacity="1" stroke-miterlimit="10" d="M 21 367.269531 C 21 368.601562 19 368.601562 19 367.269531 C 19 365.9375 21 365.9375 21 367.269531 "/>
<path fill-rule="nonzero" fill="rgb(100%, 0%, 0%)" fill-opacity="1" stroke-width="0.01" stroke-linecap="butt" stroke-linejoin="miter" stroke="rgb(0%, 0%, 0%)" stroke-opacity="1" stroke-miterlimit="10" d="M 521.960938 210.019531 C 521.960938 211.351562 519.960938 211.351562 519.960938 210.019531 C 519.960938 208.683594 521.960938 208.683594 521.960938 210.019531 "/>
<path fill-rule="nonzero" fill="rgb(100%, 0%, 0%)" fill-opacity="1" stroke-width="0.01" stroke-linecap="butt" stroke-linejoin="miter" stroke="rgb(0%, 0%, 0%)" stroke-opacity="1" stroke-miterlimit="10" d="M 568 276.132812 C 568 277.464844 566 277.464844 566 276.132812 C 566 274.800781 568 274.800781 568 276.132812 "/>
<path fill-rule="nonzero" fill="rgb(100%, 0%, 0%)" fill-opacity="1" stroke-width="0.01" stroke-linecap="butt" stroke-linejoin="miter" stroke="rgb(0%, 0%, 0%)" stroke-opacity="1" stroke-miterlimit="10" d="M 282.539062 531.605469 C 282.539062 532.9375 280.539062 532.9375 280.539062 531.605469 C 280.539062 530.269531 282.539062 530.269531 282.539062 531.605469 "/>
<path fill-rule="nonzero" fill="rgb(100%, 0%, 0%)" fill-opacity="1" stroke-width="0.01" stroke-linecap="butt" stroke-linejoin="miter" stroke="rgb(0%, 0%, 0%)" stroke-opacity="1" stroke-miterlimit="10" d="M 412.839844 502.671875 C 412.839844 504.003906 410.839844 504.003906 410.839844 502.671875 C 410.839844 501.339844 412.839844 501.339844 412.839844 502.671875 "/>
<path fill-rule="nonzero" fill="rgb(100%, 0%, 0%)" fill-opacity="1" stroke-width="0.01" stroke-linecap="butt" stroke-linejoin="miter" stroke="rgb(0%, 0%, 0%)" stroke-opacity="1" stroke-miterlimit="10" d="M 210.472656 198.535156 C 210.472656 199.867188 208.472656 199.867188 208.472656 198.535156 C 208.472656 197.199219 210.472656 197.199219 210.472656 198.535156 "/>
<path fill-rule="nonzero" fill="rgb(100%, 0%, 0%)" fill-opacity="1" stroke-width="0.01" stroke-linecap="butt" stroke-linejoin="miter" stroke="rgb(0%, 0%, 0%)" stroke-opacity="1" stroke-miterlimit="10" d="M 168.585938 52.453125 C 168.585938 53.785156 166.585938 53.785156 166.585938 52.453125 C 166.585938 51.121094 168.585938 51.121094 168.585938 52.453125 "/>
<path fill-rule="nonzero" fill="rgb(100%, 0%, 0%)" fill-opacity="1" stroke-width="0.01" stroke-linecap="butt" stroke-linejoin="miter" stroke="rgb(0%, 0%, 0%)" stroke-opacity="1" stroke-miterlimit="10" d="M 392.199219 416.664062 C 392.199219 417.996094 390.199219 417.996094 390.199219 416.664062 C 390.199219 415.332031 392.199219 415.332031 392.199219 416.664062 "/>
<path fill-rule="nonzero" fill="rgb(100%, 0%, 0%)" fill-opacity="1" stroke-width="0.01" stroke-linecap="butt" stroke-linejoin="miter" stroke="rgb(0%, 0%, 0%)" stroke-opacity="1" stroke-miterlimit="10" d="M 168.859375 561.648438 C 168.859375 562.980469 166.859375 562.980469 166.859375 561.648438 C 166.859375 560.3125 168.859375 560.3125 168.859375 561.648438 "/>
<path fill-rule="nonzero" fill="rgb(100%, 0%, 0%)" fill-opacity="1" stroke-width="0.01" stroke-linecap="butt" stroke-linejoin="miter" stroke="rgb(0%, 0%, 0%)" stroke-opacity="1" stroke-miterlimit="10" d="M 335.613281 275.03125 C 335.613281 276.363281 333.613281 276.363281 333.613281 275.03125 C 333.613281 273.699219 335.613281 273.699219 335.613281 275.03125 "/>
<path fill-rule="nonzero" fill="rgb(100%, 0%, 0%)" fill-opacity="1" stroke-width="0.01" stroke-linecap="butt" stroke-linejoin="miter" stroke="rgb(0%, 0%, 0%)" stroke-opacity="1" stroke-miterlimit="10" d="M 453.59375 311.625 C 453.59375 312.960938 451.59375 312.960938 451.59375 311.625 C 451.59375 310.292969 453.59375 310.292969 453.59375 311.625 "/>
</svg>
