<?xml version="1.0" encoding="UTF-8"?>
<svg xmlns="http://www.w3.org/2000/svg" xmlns:xlink="http://www.w3.org/1999/xlink" width="600" height="600" viewBox="0 0 600 600">
<rect x="-60" y="-60" width="720" height="720" fill="rgb(100%, 100%, 100%)" fill-opacity="1"/>
<path fill="none" stroke-width="0.2" stroke-linecap="butt" stroke-linejoin="miter" stroke="rgb(26.666667%, 26.666667%, 26.666667%)" stroke-opacity="1" stroke-miterlimit="10" d="M 222.183594 295.441406 C 222.183594 297.441406 219.183594 297.441406 219.183594 295.441406 C 219.183594 293.441406 222.183594 293.441406 222.183594 295.441406 "/>
<path fill="none" stroke-width="0.2" stroke-linecap="butt" stroke-linejoin="miter" stroke="rgb(26.666667%, 26.666667%, 26.666667%)" stroke-opacity="1" stroke-miterlimit="10" d="M 219.621094 296.5 L 209.785156 313.710938 "/>
<path fill-rule="nonzero" fill="rgb(26.666667%, 26.666667%, 26.666667%)" fill-opacity="1" d="M 209.714844 313.835938 L 209.746094 313.6875 L 209.824219 313.734375 L 209.714844 313.835938 "/>
<path fill="none" stroke-width="0.2" stroke-linecap="butt" stroke-linejoin="miter" stroke="rgb(26.666667%, 26.666667%, 26.666667%)" stroke-opacity="1" stroke-miterlimit="10" d="M 219.621094 296.5 L 225.132812 280.871094 "/>
<path fill-rule="nonzero" fill="rgb(26.666667%, 26.666667%, 26.666667%)" fill-opacity="1" d="M 225.179688 280.738281 L 225.175781 280.886719 L 225.089844 280.855469 L 225.179688 280.738281 "/>
<path fill="none" stroke-width="0.2" stroke-linecap="butt" stroke-linejoin="miter" stroke="rgb(26.666667%, 26.666667%, 26.666667%)" stroke-opacity="1" stroke-miterlimit="10" d="M 237.90625 198.632812 L 259.730469 192.429688 "/>
<path fill-rule="nonzero" fill="rgb(26.666667%, 26.666667%, 26.666667%)" fill-opacity="1" d="M 259.867188 192.390625 L 259.742188 192.472656 L 259.714844 192.386719 L 259.867188 192.390625 "/>
<path fill="none" stroke-width="0.2" stroke-linecap="butt" stroke-linejoin="miter" stroke="rgb(26.666667%, 26.666667%, 26.666667%)" stroke-opacity="1" stroke-miterlimit="10" d="M 453.808594 473.082031 L 466.011719 465.707031 "/>
<path fill-rule="nonzero" fill="rgb(26.666667%, 26.666667%, 26.666667%)" fill-opacity="1" d="M 466.132812 465.632812 L 466.035156 465.746094 L 465.988281 465.667969 L 466.132812 465.632812 "/>
<path fill="none" stroke-width="0.2" stroke-linecap="butt" stroke-linejoin="miter" stroke="rgb(26.666667%, 26.666667%, 26.666667%)" stroke-opacity="1" stroke-miterlimit="10" d="M 376.394531 156.023438 L 377.867188 170.429688 "/>
<path fill-rule="nonzero" fill="rgb(26.666667%, 26.666667%, 26.666667%)" fill-opacity="1" d="M 377.882812 170.570312 L 377.824219 170.433594 L 377.914062 170.421875 L 377.882812 170.570312 "/>
<path fill="none" stroke-width="0.2" stroke-linecap="butt" stroke-linejoin="miter" stroke="rgb(26.666667%, 26.666667%, 26.666667%)" stroke-opacity="1" stroke-miterlimit="10" d="M 171.972656 518.199219 C 171.972656 520.199219 168.972656 520.199219 168.972656 518.199219 C 168.972656 516.199219 171.972656 516.199219 171.972656 518.199219 "/>
<path fill="none" stroke-width="0.2" stroke-linecap="butt" stroke-linejoin="miter" stroke="rgb(26.666667%, 26.666667%, 26.666667%)" stroke-opacity="1" stroke-miterlimit="10" d="M 31.566406 412.058594 C 31.566406 414.058594 28.566406 414.058594 28.566406 412.058594 C 28.566406 410.058594 31.566406 410.058594 31.566406 412.058594 "/>
<path fill="none" stroke-width="0.2" stroke-linecap="butt" stroke-linejoin="miter" stroke="rgb(26.666667%, 26.666667%, 26.666667%)" stroke-opacity="1" stroke-miterlimit="10" d="M 426.519531 197.054688 C 426.519531 199.054688 423.519531 199.054688 423.519531 197.054688 C 423.519531 195.054688 426.519531 195.054688 426.519531 197.054688 "/>
<path fill="none" stroke-width="0.2" stroke-linecap="butt" stroke-linejoin="miter" stroke="rgb(26.666667%, 26.666667%, 26.666667%)" stroke-opacity="1" stroke-miterlimit="10" d="M 192.414062 308.101562 L 208.15625 314.285156 "/>
<path fill-rule="nonzero" fill="rgb(26.666667%, 26.666667%, 26.666667%)" fill-opacity="1" d="M 208.289062 314.339844 L 208.136719 314.328125 L 208.171875 314.242188 L 208.289062 314.339844 "/>
<path fill="none" stroke-width="0.2" stroke-linecap="butt" stroke-linejoin="miter" stroke="rgb(26.666667%, 26.666667%, 26.666667%)" stroke-opacity="1" stroke-miterlimit="10" d="M 147.078125 331.296875 C 147.078125 333.296875 144.078125 333.296875 144.078125 331.296875 C 144.078125 329.296875 147.078125 329.296875 147.078125 331.296875 "/>
<path fill="none" stroke-width="0.2" stroke-linecap="butt" stroke-linejoin="miter" stroke="rgb(26.666667%, 26.666667%, 26.666667%)" stroke-opacity="1" stroke-miterlimit="10" d="M 211.558594 564.417969 C 211.558594 566.417969 208.558594 566.417969 208.558594 564.417969 C 208.558594 562.417969 211.558594 562.417969 211.558594 564.417969 "/>
<path fill="none" stroke-width="0.2" stroke-linecap="butt" stroke-linejoin="miter" stroke="rgb(26.666667%, 26.666667%, 26.666667%)" stroke-opacity="1" stroke-miterlimit="10" d="M 305.039062 529.726562 C 305.039062 531.726562 302.039062 531.726562 302.039062 529.726562 C 302.039062 527.726562 305.039062 527.726562 305.039062 529.726562 "/>
<path fill="none" stroke-width="0.2" stroke-linecap="butt" stroke-linejoin="miter" stroke="rgb(26.666667%, 26.666667%, 26.666667%)" stroke-opacity="1" stroke-miterlimit="10" d="M 302.480469 530.789062 L 316.425781 534.046875 "/>
<path fill-rule="nonzero" fill="rgb(26.666667%, 26.666667%, 26.666667%)" fill-opacity="1" d="M 316.5625 534.078125 L 316.414062 534.09375 L 316.433594 534 L 316.5625 534.078125 "/>
<path fill="none" stroke-width="0.2" stroke-linecap="butt" stroke-linejoin="miter" stroke="rgb(26.666667%, 26.666667%, 26.666667%)" stroke-opacity="1" stroke-miterlimit="10" d="M 459.21875 380.617188 C 459.21875 382.617188 456.21875 382.617188 456.21875 380.617188 C 456.21875 378.617188 459.21875 378.617188 459.21875 380.617188 "/>
<path fill="none" stroke-width="0.2" stroke-linecap="butt" stroke-linejoin="miter" stroke="rgb(26.666667%, 26.666667%, 26.666667%)" stroke-opacity="1" stroke-miterlimit="10" d="M 394.652344 45.527344 C 394.652344 47.527344 391.652344 47.527344 391.652344 45.527344 C 391.652344 43.527344 394.652344 43.527344 394.652344 45.527344 "/>
<path fill="none" stroke-width="0.2" stroke-linecap="butt" stroke-linejoin="miter" stroke="rgb(26.666667%, 26.666667%, 26.666667%)" stroke-opacity="1" stroke-miterlimit="10" d="M 60.902344 249.890625 L 50.1875 240.273438 "/>
<path fill-rule="nonzero" fill="rgb(26.666667%, 26.666667%, 26.666667%)" fill-opacity="1" d="M 50.078125 240.179688 L 50.21875 240.238281 L 50.15625 240.308594 L 50.078125 240.179688 "/>
<path fill="none" stroke-width="0.2" stroke-linecap="butt" stroke-linejoin="miter" stroke="rgb(26.666667%, 26.666667%, 26.666667%)" stroke-opacity="1" stroke-miterlimit="10" d="M 203.152344 376.789062 L 207.132812 358.570312 "/>
<path fill-rule="nonzero" fill="rgb(26.666667%, 26.666667%, 26.666667%)" fill-opacity="1" d="M 207.164062 358.429688 L 207.179688 358.582031 L 207.089844 358.5625 L 207.164062 358.429688 "/>
<path fill="none" stroke-width="0.2" stroke-linecap="butt" stroke-linejoin="miter" stroke="rgb(26.666667%, 26.666667%, 26.666667%)" stroke-opacity="1" stroke-miterlimit="10" d="M 203.152344 376.789062 L 198.832031 392.734375 "/>
<path fill-rule="nonzero" fill="rgb(26.666667%, 26.666667%, 26.666667%)" fill-opacity="1" d="M 198.792969 392.871094 L 198.785156 392.722656 L 198.875 392.746094 L 198.792969 392.871094 "/>
<path fill="none" stroke-width="0.2" stroke-linecap="butt" stroke-linejoin="miter" stroke="rgb(26.666667%, 26.666667%, 26.666667%)" stroke-opacity="1" stroke-miterlimit="10" d="M 443.710938 544.207031 C 443.710938 546.207031 440.710938 546.207031 440.710938 544.207031 C 440.710938 542.207031 443.710938 542.207031 443.710938 544.207031 "/>
<path fill="none" stroke-width="0.2" stroke-linecap="butt" stroke-linejoin="miter" stroke="rgb(26.666667%, 26.666667%, 26.666667%)" stroke-opacity="1" stroke-miterlimit="10" d="M 90.007812 323.824219 L 96.96875 311.121094 "/>
<path fill-rule="nonzero" fill="rgb(26.666667%, 26.666667%, 26.666667%)" fill-opacity="1" d="M 97.035156 310.996094 L 97.007812 311.144531 L 96.925781 311.097656 L 97.035156 310.996094 "/>
<path fill="none" stroke-width="0.2" stroke-linecap="butt" stroke-linejoin="miter" stroke="rgb(26.666667%, 26.666667%, 26.666667%)" stroke-opacity="1" stroke-miterlimit="10" d="M 390.238281 501.304688 L 387.695312 487.097656 "/>
<path fill-rule="nonzero" fill="rgb(26.666667%, 26.666667%, 26.666667%)" fill-opacity="1" d="M 387.667969 486.957031 L 387.738281 487.089844 L 387.648438 487.105469 L 387.667969 486.957031 "/>
<path fill="none" stroke-width="0.2" stroke-linecap="butt" stroke-linejoin="miter" stroke="rgb(26.666667%, 26.666667%, 26.666667%)" stroke-opacity="1" stroke-miterlimit="10" d="M 522.609375 371.183594 L 512.5625 381.5 "/>
<path fill-rule="nonzero" fill="rgb(26.666667%, 26.666667%, 26.666667%)" fill-opacity="1" d="M 512.460938 381.601562 L 512.527344 381.46875 L 512.59375 381.535156 L 512.460938 381.601562 "/>
<path fill="none" stroke-width="0.2" stroke-linecap="butt" stroke-linejoin="miter" stroke="rgb(26.666667%, 26.666667%, 26.666667%)" stroke-opacity="1" stroke-miterlimit="10" d="M 256.65625 418.890625 L 269.203125 412.011719 "/>
<path fill-rule="nonzero" fill="rgb(26.666667%, 26.666667%, 26.666667%)" fill-opacity="1" d="M 269.332031 411.941406 L 269.226562 412.050781 L 269.183594 411.972656 L 269.332031 411.941406 "/>
<path fill="none" stroke-width="0.2" stroke-linecap="butt" stroke-linejoin="miter" stroke="rgb(26.666667%, 26.666667%, 26.666667%)" stroke-opacity="1" stroke-miterlimit="10" d="M 20 312.089844 L 24.773438 325.773438 "/>
<path fill-rule="nonzero" fill="rgb(26.666667%, 26.666667%, 26.666667%)" fill-opacity="1" d="M 24.820312 325.910156 L 24.730469 325.789062 L 24.816406 325.757812 L 24.820312 325.910156 "/>
<path fill="none" stroke-width="0.2" stroke-linecap="butt" stroke-linejoin="miter" stroke="rgb(26.666667%, 26.666667%, 26.666667%)" stroke-opacity="1" stroke-miterlimit="10" d="M 329.726562 476.046875 C 329.726562 478.046875 326.726562 478.046875 326.726562 476.046875 C 326.726562 474.046875 329.726562 474.046875 329.726562 476.046875 "/>
<path fill="none" stroke-width="0.2" stroke-linecap="butt" stroke-linejoin="miter" stroke="rgb(26.666667%, 26.666667%, 26.666667%)" stroke-opacity="1" stroke-miterlimit="10" d="M 110.351562 505.230469 C 110.351562 507.230469 107.351562 507.230469 107.351562 505.230469 C 107.351562 503.230469 110.351562 503.230469 110.351562 505.230469 "/>
<path fill="none" stroke-width="0.2" stroke-linecap="butt" stroke-linejoin="miter" stroke="rgb(26.666667%, 26.666667%, 26.666667%)" stroke-opacity="1" stroke-miterlimit="10" d="M 422.929688 243.851562 C 422.929688 245.851562 419.929688 245.851562 419.929688 243.851562 C 419.929688 241.851562 422.929688 241.851562 422.929688 243.851562 "/>
<path fill="none" stroke-width="0.2" stroke-linecap="butt" stroke-linejoin="miter" stroke="rgb(26.666667%, 26.666667%, 26.666667%)" stroke-opacity="1" stroke-miterlimit="10" d="M 79.878906 426.269531 C 79.878906 428.269531 76.878906 428.269531 76.878906 426.269531 C 76.878906 424.269531 79.878906 424.269531 79.878906 426.269531 "/>
<path fill="none" stroke-width="0.2" stroke-linecap="butt" stroke-linejoin="miter" stroke="rgb(26.666667%, 26.666667%, 26.666667%)" stroke-opacity="1" stroke-miterlimit="10" d="M 554.015625 228.171875 C 554.015625 230.171875 551.015625 230.171875 551.015625 228.171875 C 551.015625 226.171875 554.015625 226.171875 554.015625 228.171875 "/>
<path fill="none" stroke-width="0.2" stroke-linecap="butt" stroke-linejoin="miter" stroke="rgb(26.666667%, 26.666667%, 26.666667%)" stroke-opacity="1" stroke-miterlimit="10" d="M 529.136719 166.222656 C 529.136719 168.222656 526.136719 168.222656 526.136719 166.222656 C 526.136719 164.222656 529.136719 164.222656 529.136719 166.222656 "/>
<path fill="none" stroke-width="0.2" stroke-linecap="butt" stroke-linejoin="miter" stroke="rgb(26.666667%, 26.666667%, 26.666667%)" stroke-opacity="1" stroke-miterlimit="10" d="M 312.984375 254.492188 C 312.984375 256.492188 309.984375 256.492188 309.984375 254.492188 C 309.984375 252.492188 312.984375 252.492188 312.984375 254.492188 "/>
<path fill="none" stroke-width="0.2" stroke-linecap="butt" stroke-linejoin="miter" stroke="rgb(26.666667%, 26.666667%, 26.666667%)" stroke-opacity="1" stroke-miterlimit="10" d="M 163.136719 227.746094 L 156.789062 240.730469 "/>
<path fill-rule="nonzero" fill="rgb(26.666667%, 26.666667%, 26.666667%)" fill-opacity="1" d="M 156.726562 240.859375 L 156.746094 240.710938 L 156.832031 240.75 L 156.726562 240.859375 "/>
<path fill="none" stroke-width="0.2" stroke-linecap="butt" stroke-linejoin="miter" stroke="rgb(26.666667%, 26.666667%, 26.666667%)" stroke-opacity="1" stroke-miterlimit="10" d="M 361.933594 352.882812 L 348.527344 357.726562 "/>
<path fill-rule="nonzero" fill="rgb(26.666667%, 26.666667%, 26.666667%)" fill-opacity="1" d="M 348.394531 357.773438 L 348.511719 357.683594 L 348.542969 357.769531 L 348.394531 357.773438 "/>
<path fill="none" stroke-width="0.2" stroke-linecap="butt" stroke-linejoin="miter" stroke="rgb(26.666667%, 26.666667%, 26.666667%)" stroke-opacity="1" stroke-miterlimit="10" d="M 369.503906 574.195312 C 369.503906 576.195312 366.503906 576.195312 366.503906 574.195312 C 366.503906 572.195312 369.503906 572.195312 369.503906 574.195312 "/>
<path fill="none" stroke-width="0.2" stroke-linecap="butt" stroke-linejoin="miter" stroke="rgb(26.666667%, 26.666667%, 26.666667%)" stroke-opacity="1" stroke-miterlimit="10" d="M 333.359375 418.679688 L 346.78125 423.507812 "/>
<path fill-rule="nonzero" fill="rgb(26.666667%, 26.666667%, 26.666667%)" fill-opacity="1" d="M 346.917969 423.558594 L 346.765625 423.550781 L 346.796875 423.464844 L 346.917969 423.558594 "/>
<path fill="none" stroke-width="0.2" stroke-linecap="butt" stroke-linejoin="miter" stroke="rgb(26.666667%, 26.666667%, 26.666667%)" stroke-opacity="1" stroke-miterlimit="10" d="M 272.359375 578.9375 C 272.359375 580.9375 269.359375 580.9375 269.359375 578.9375 C 269.359375 576.9375 272.359375 576.9375 272.359375 578.9375 "/>
<path fill="none" stroke-width="0.2" stroke-linecap="butt" stroke-linejoin="miter" stroke="rgb(26.666667%, 26.666667%, 26.666667%)" stroke-opacity="1" stroke-miterlimit="10" d="M 245.238281 179.734375 L 241.078125 163.316406 "/>
<path fill-rule="nonzero" fill="rgb(26.666667%, 26.666667%, 26.666667%)" fill-opacity="1" d="M 241.042969 163.175781 L 241.125 163.304688 L 241.035156 163.328125 L 241.042969 163.175781 "/>
<path fill="none" stroke-width="0.2" stroke-linecap="butt" stroke-linejoin="miter" stroke="rgb(26.666667%, 26.666667%, 26.666667%)" stroke-opacity="1" stroke-miterlimit="10" d="M 245.238281 179.734375 L 251.949219 204.253906 "/>
<path fill-rule="nonzero" fill="rgb(26.666667%, 26.666667%, 26.666667%)" fill-opacity="1" d="M 251.984375 204.394531 L 251.902344 204.265625 L 251.992188 204.242188 L 251.984375 204.394531 "/>
<path fill="none" stroke-width="0.2" stroke-linecap="butt" stroke-linejoin="miter" stroke="rgb(26.666667%, 26.666667%, 26.666667%)" stroke-opacity="1" stroke-miterlimit="10" d="M 436.402344 147.808594 C 436.402344 149.808594 433.402344 149.808594 433.402344 147.808594 C 433.402344 145.808594 436.402344 145.808594 436.402344 147.808594 "/>
<path fill="none" stroke-width="0.2" stroke-linecap="butt" stroke-linejoin="miter" stroke="rgb(26.666667%, 26.666667%, 26.666667%)" stroke-opacity="1" stroke-miterlimit="10" d="M 327.976562 193.742188 L 331.941406 207.558594 "/>
<path fill-rule="nonzero" fill="rgb(26.666667%, 26.666667%, 26.666667%)" fill-opacity="1" d="M 331.980469 207.695312 L 331.898438 207.570312 L 331.988281 207.546875 L 331.980469 207.695312 "/>
<path fill="none" stroke-width="0.2" stroke-linecap="butt" stroke-linejoin="miter" stroke="rgb(26.666667%, 26.666667%, 26.666667%)" stroke-opacity="1" stroke-miterlimit="10" d="M 233.054688 31.710938 C 233.054688 33.710938 230.054688 33.710938 230.054688 31.710938 C 230.054688 29.710938 233.054688 29.710938 233.054688 31.710938 "/>
<path fill="none" stroke-width="0.2" stroke-linecap="butt" stroke-linejoin="miter" stroke="rgb(26.666667%, 26.666667%, 26.666667%)" stroke-opacity="1" stroke-miterlimit="10" d="M 279.984375 466.714844 C 279.984375 468.714844 276.984375 468.714844 276.984375 466.714844 C 276.984375 464.714844 279.984375 464.714844 279.984375 466.714844 "/>
<path fill="none" stroke-width="0.2" stroke-linecap="butt" stroke-linejoin="miter" stroke="rgb(26.666667%, 26.666667%, 26.666667%)" stroke-opacity="1" stroke-miterlimit="10" d="M 416.792969 314.691406 L 423.355469 301.839844 "/>
<path fill-rule="nonzero" fill="rgb(26.666667%, 26.666667%, 26.666667%)" fill-opacity="1" d="M 423.421875 301.714844 L 423.398438 301.863281 L 423.316406 301.820312 L 423.421875 301.714844 "/>
<path fill="none" stroke-width="0.2" stroke-linecap="butt" stroke-linejoin="miter" stroke="rgb(26.666667%, 26.666667%, 26.666667%)" stroke-opacity="1" stroke-miterlimit="10" d="M 215.984375 481.457031 L 225.683594 492.125 "/>
<path fill-rule="nonzero" fill="rgb(26.666667%, 26.666667%, 26.666667%)" fill-opacity="1" d="M 225.777344 492.230469 L 225.648438 492.15625 L 225.714844 492.09375 L 225.777344 492.230469 "/>
<path fill="none" stroke-width="0.2" stroke-linecap="butt" stroke-linejoin="miter" stroke="rgb(26.666667%, 26.666667%, 26.666667%)" stroke-opacity="1" stroke-miterlimit="10" d="M 209.816406 336.832031 L 207.511719 356.320312 "/>
<path fill-rule="nonzero" fill="rgb(26.666667%, 26.666667%, 26.666667%)" fill-opacity="1" d="M 207.496094 356.460938 L 207.464844 356.3125 L 207.558594 356.324219 L 207.496094 356.460938 "/>
<path fill="none" stroke-width="0.2" stroke-linecap="butt" stroke-linejoin="miter" stroke="rgb(26.666667%, 26.666667%, 26.666667%)" stroke-opacity="1" stroke-miterlimit="10" d="M 209.816406 336.832031 L 209.25 315.847656 "/>
<path fill-rule="nonzero" fill="rgb(26.666667%, 26.666667%, 26.666667%)" fill-opacity="1" d="M 209.246094 315.703125 L 209.296875 315.84375 L 209.203125 315.847656 L 209.246094 315.703125 "/>
<path fill="none" stroke-width="0.2" stroke-linecap="butt" stroke-linejoin="miter" stroke="rgb(26.666667%, 26.666667%, 26.666667%)" stroke-opacity="1" stroke-miterlimit="10" d="M 511.8125 287.679688 L 518.652344 300.332031 "/>
<path fill-rule="nonzero" fill="rgb(26.666667%, 26.666667%, 26.666667%)" fill-opacity="1" d="M 518.71875 300.460938 L 518.613281 300.355469 L 518.691406 300.3125 L 518.71875 300.460938 "/>
<path fill="none" stroke-width="0.2" stroke-linecap="butt" stroke-linejoin="miter" stroke="rgb(26.666667%, 26.666667%, 26.666667%)" stroke-opacity="1" stroke-miterlimit="10" d="M 452.890625 97.980469 L 465.183594 105.535156 "/>
<path fill-rule="nonzero" fill="rgb(26.666667%, 26.666667%, 26.666667%)" fill-opacity="1" d="M 465.304688 105.613281 L 465.160156 105.574219 L 465.207031 105.496094 L 465.304688 105.613281 "/>
<path fill="none" stroke-width="0.2" stroke-linecap="butt" stroke-linejoin="miter" stroke="rgb(26.666667%, 26.666667%, 26.666667%)" stroke-opacity="1" stroke-miterlimit="10" d="M 284.0625 358.921875 C 284.0625 360.921875 281.0625 360.921875 281.0625 358.921875 C 281.0625 356.921875 284.0625 356.921875 284.0625 358.921875 "/>
<path fill="none" stroke-width="0.2" stroke-linecap="butt" stroke-linejoin="miter" stroke="rgb(26.666667%, 26.666667%, 26.666667%)" stroke-opacity="1" stroke-miterlimit="10" d="M 342.03125 78.722656 L 329.117188 72.394531 "/>
<path fill-rule="nonzero" fill="rgb(26.666667%, 26.666667%, 26.666667%)" fill-opacity="1" d="M 328.988281 72.332031 L 329.136719 72.351562 L 329.097656 72.4375 L 328.988281 72.332031 "/>
<path fill="none" stroke-width="0.2" stroke-linecap="butt" stroke-linejoin="miter" stroke="rgb(26.666667%, 26.666667%, 26.666667%)" stroke-opacity="1" stroke-miterlimit="10" d="M 407.78125 397.59375 L 411.175781 411.601562 "/>
<path fill-rule="nonzero" fill="rgb(26.666667%, 26.666667%, 26.666667%)" fill-opacity="1" d="M 411.210938 411.742188 L 411.132812 411.613281 L 411.222656 411.59375 L 411.210938 411.742188 "/>
<path fill="none" stroke-width="0.2" stroke-linecap="butt" stroke-linejoin="miter" stroke="rgb(26.666667%, 26.666667%, 26.666667%)" stroke-opacity="1" stroke-miterlimit="10" d="M 115.507812 105.449219 L 120.984375 92.082031 "/>
<path fill-rule="nonzero" fill="rgb(26.666667%, 26.666667%, 26.666667%)" fill-opacity="1" d="M 121.039062 91.949219 L 121.027344 92.101562 L 120.941406 92.066406 L 121.039062 91.949219 "/>
<path fill="none" stroke-width="0.2" stroke-linecap="butt" stroke-linejoin="miter" stroke="rgb(26.666667%, 26.666667%, 26.666667%)" stroke-opacity="1" stroke-miterlimit="10" d="M 175.351562 141.695312 L 184.539062 130.542969 "/>
<path fill-rule="nonzero" fill="rgb(26.666667%, 26.666667%, 26.666667%)" fill-opacity="1" d="M 184.628906 130.433594 L 184.574219 130.574219 L 184.5 130.515625 L 184.628906 130.433594 "/>
<path fill="none" stroke-width="0.2" stroke-linecap="butt" stroke-linejoin="miter" stroke="rgb(26.666667%, 26.666667%, 26.666667%)" stroke-opacity="1" stroke-miterlimit="10" d="M 481.691406 215.75 L 479.132812 229.957031 "/>
<path fill-rule="nonzero" fill="rgb(26.666667%, 26.666667%, 26.666667%)" fill-opacity="1" d="M 479.105469 230.097656 L 479.085938 229.949219 L 479.175781 229.964844 L 479.105469 230.097656 "/>
<path fill="none" stroke-width="0.2" stroke-linecap="butt" stroke-linejoin="miter" stroke="rgb(26.666667%, 26.666667%, 26.666667%)" stroke-opacity="1" stroke-miterlimit="10" d="M 120.539062 383.648438 L 126.277344 396.84375 "/>
<path fill-rule="nonzero" fill="rgb(26.666667%, 26.666667%, 26.666667%)" fill-opacity="1" d="M 126.332031 396.976562 L 126.234375 396.863281 L 126.320312 396.824219 L 126.332031 396.976562 "/>
<path fill="none" stroke-width="0.2" stroke-linecap="butt" stroke-linejoin="miter" stroke="rgb(26.666667%, 26.666667%, 26.666667%)" stroke-opacity="1" stroke-miterlimit="10" d="M 88.828125 167.445312 L 74.488281 167.109375 "/>
<path fill-rule="nonzero" fill="rgb(26.666667%, 26.666667%, 26.666667%)" fill-opacity="1" d="M 74.347656 167.105469 L 74.492188 167.0625 L 74.488281 167.152344 L 74.347656 167.105469 "/>
<path fill="none" stroke-width="0.2" stroke-linecap="butt" stroke-linejoin="miter" stroke="rgb(26.666667%, 26.666667%, 26.666667%)" stroke-opacity="1" stroke-miterlimit="10" d="M 305.027344 18.9375 C 305.027344 20.9375 302.027344 20.9375 302.027344 18.9375 C 302.027344 16.9375 305.027344 16.9375 305.027344 18.9375 "/>
<path fill="none" stroke-width="0.2" stroke-linecap="butt" stroke-linejoin="miter" stroke="rgb(26.666667%, 26.666667%, 26.666667%)" stroke-opacity="1" stroke-miterlimit="10" d="M 535.210938 448.457031 L 544.953125 437.792969 "/>
<path fill-rule="nonzero" fill="rgb(26.666667%, 26.666667%, 26.666667%)" fill-opacity="1" d="M 545.050781 437.6875 L 544.988281 437.824219 L 544.921875 437.761719 L 545.050781 437.6875 "/>
<path fill="none" stroke-width="0.2" stroke-linecap="butt" stroke-linejoin="miter" stroke="rgb(26.666667%, 26.666667%, 26.666667%)" stroke-opacity="1" stroke-miterlimit="10" d="M 363.414062 284.324219 L 367.511719 270.519531 "/>
<path fill-rule="nonzero" fill="rgb(26.666667%, 26.666667%, 26.666667%)" fill-opacity="1" d="M 367.554688 270.382812 L 367.558594 270.53125 L 367.46875 270.503906 L 367.554688 270.382812 "/>
<path fill="none" stroke-width="0.2" stroke-linecap="butt" stroke-linejoin="miter" stroke="rgb(26.666667%, 26.666667%, 26.666667%)" stroke-opacity="1" stroke-miterlimit="10" d="M 470.535156 328.347656 C 470.535156 330.347656 467.535156 330.347656 467.535156 328.347656 C 467.535156 326.347656 470.535156 326.347656 470.535156 328.347656 "/>
<path fill="none" stroke-width="0.2" stroke-linecap="butt" stroke-linejoin="miter" stroke="rgb(26.666667%, 26.666667%, 26.666667%)" stroke-opacity="1" stroke-miterlimit="10" d="M 135.371094 455.863281 C 135.371094 457.863281 132.371094 457.863281 132.371094 455.863281 C 132.371094 453.863281 135.371094 453.863281 135.371094 455.863281 "/>
<path fill="none" stroke-width="0.2" stroke-linecap="butt" stroke-linejoin="miter" stroke="rgb(26.666667%, 26.666667%, 26.666667%)" stroke-opacity="1" stroke-miterlimit="10" d="M 114.480469 216.894531 C 114.480469 218.894531 111.480469 218.894531 111.480469 216.894531 C 111.480469 214.894531 114.480469 214.894531 114.480469 216.894531 "/>
<path fill="none" stroke-width="0.2" stroke-linecap="butt" stroke-linejoin="miter" stroke="rgb(26.666667%, 26.666667%, 26.666667%)" stroke-opacity="1" stroke-miterlimit="10" d="M 198.714844 69.625 C 198.714844 71.625 195.714844 71.625 195.714844 69.625 C 195.714844 67.625 198.714844 67.625 198.714844 69.625 "/>
<path fill="none" stroke-width="0.2" stroke-linecap="butt" stroke-linejoin="miter" stroke="rgb(26.666667%, 26.666667%, 26.666667%)" stroke-opacity="1" stroke-miterlimit="10" d="M 302.433594 123.957031 L 290.105469 116.453125 "/>
<path fill-rule="nonzero" fill="rgb(26.666667%, 26.666667%, 26.666667%)" fill-opacity="1" d="M 289.984375 116.378906 L 290.128906 116.414062 L 290.082031 116.496094 L 289.984375 116.378906 "/>
<path fill="none" stroke-width="0.2" stroke-linecap="butt" stroke-linejoin="miter" stroke="rgb(26.666667%, 26.666667%, 26.666667%)" stroke-opacity="1" stroke-miterlimit="10" d="M 304.511719 312.523438 L 292.910156 304.179688 "/>
<path fill-rule="nonzero" fill="rgb(26.666667%, 26.666667%, 26.666667%)" fill-opacity="1" d="M 292.792969 304.097656 L 292.9375 304.144531 L 292.882812 304.21875 L 292.792969 304.097656 "/>
<path fill="none" stroke-width="0.2" stroke-linecap="butt" stroke-linejoin="miter" stroke="rgb(26.666667%, 26.666667%, 26.666667%)" stroke-opacity="1" stroke-miterlimit="10" d="M 582.5625 297.386719 C 582.5625 299.386719 579.5625 299.386719 579.5625 297.386719 C 579.5625 295.386719 582.5625 295.386719 582.5625 297.386719 "/>
<path fill-rule="nonzero" fill="rgb(100%, 0%, 0%)" fill-opacity="1" stroke-width="0.01" stroke-linecap="butt" stroke-linejoin="miter" stroke="rgb(0%, 0%, 0%)" stroke-opacity="1" stroke-miterlimit="10" d="M 220.621094 296.5 C 220.621094 297.835938 218.621094 297.835938 218.621094 296.5 C 218.621094 295.167969 220.621094 295.167969 220.621094 296.5 "/>
<path fill-rule="nonzero" fill="rgb(100%, 0%, 0%)" fill-opacity="1" stroke-width="0.01" stroke-linecap="butt" stroke-linejoin="miter" stroke="rgb(0%, 0%, 0%)" stroke-opacity="1" stroke-miterlimit="10" d="M 210.21875 314.703125 C 210.21875 316.039062 208.21875 316.039062 208.21875 314.703125 C 208.21875 313.371094 210.21875 313.371094 210.21875 314.703125 "/>
<path fill-rule="nonzero" fill="rgb(100%, 0%, 0%)" fill-opacity="1" stroke-width="0.01" stroke-linecap="butt" stroke-linejoin="miter" stroke="rgb(0%, 0%, 0%)" stroke-opacity="1" stroke-miterlimit="10" d="M 226.511719 279.792969 C 226.511719 281.128906 224.511719 281.128906 224.511719 279.792969 C 224.511719 278.460938 226.511719 278.460938 226.511719 279.792969 "/>
<path fill-rule="nonzero" fill="rgb(100%, 0%, 0%)" fill-opacity="1" stroke-width="0.01" stroke-linecap="butt" stroke-linejoin="miter" stroke="rgb(0%, 0%, 0%)" stroke-opacity="1" stroke-miterlimit="10" d="M 238.90625 198.632812 C 238.90625 199.964844 236.90625 199.964844 236.90625 198.632812 C 236.90625 197.300781 238.90625 197.300781 238.90625 198.632812 "/>
<path fill-rule="nonzero" fill="rgb(100%, 0%, 0%)" fill-opacity="1" stroke-width="0.01" stroke-linecap="butt" stroke-linejoin="miter" stroke="rgb(0%, 0%, 0%)" stroke-opacity="1" stroke-miterlimit="10" d="M 261.828125 192.117188 C 261.828125 193.449219 259.828125 193.449219 259.828125 192.117188 C 259.828125 190.785156 261.828125 190.785156 261.828125 192.117188 "/>
<path fill-rule="nonzero" fill="rgb(100%, 0%, 0%)" fill-opacity="1" stroke-width="0.01" stroke-linecap="butt" stroke-linejoin="miter" stroke="rgb(0%, 0%, 0%)" stroke-opacity="1" stroke-miterlimit="10" d="M 454.808594 473.082031 C 454.808594 474.414062 452.808594 474.414062 452.808594 473.082031 C 452.808594 471.746094 454.808594 471.746094 454.808594 473.082031 "/>
<path fill-rule="nonzero" fill="rgb(100%, 0%, 0%)" fill-opacity="1" stroke-width="0.01" stroke-linecap="butt" stroke-linejoin="miter" stroke="rgb(0%, 0%, 0%)" stroke-opacity="1" stroke-miterlimit="10" d="M 467.988281 465.113281 C 467.988281 466.449219 465.988281 466.449219 465.988281 465.113281 C 465.988281 463.78125 467.988281 463.78125 467.988281 465.113281 "/>
<path fill-rule="nonzero" fill="rgb(100%, 0%, 0%)" fill-opacity="1" stroke-width="0.01" stroke-linecap="butt" stroke-linejoin="miter" stroke="rgb(0%, 0%, 0%)" stroke-opacity="1" stroke-miterlimit="10" d="M 377.394531 156.023438 C 377.394531 157.355469 375.394531 157.355469 375.394531 156.023438 C 375.394531 154.6875 377.394531 154.6875 377.394531 156.023438 "/>
<path fill-rule="nonzero" fill="rgb(100%, 0%, 0%)" fill-opacity="1" stroke-width="0.01" stroke-linecap="butt" stroke-linejoin="miter" stroke="rgb(0%, 0%, 0%)" stroke-opacity="1" stroke-miterlimit="10" d="M 378.984375 171.566406 C 378.984375 172.898438 376.984375 172.898438 376.984375 171.566406 C 376.984375 170.230469 378.984375 170.230469 378.984375 171.566406 "/>
<path fill-rule="nonzero" fill="rgb(100%, 0%, 0%)" fill-opacity="1" stroke-width="0.01" stroke-linecap="butt" stroke-linejoin="miter" stroke="rgb(0%, 0%, 0%)" stroke-opacity="1" stroke-miterlimit="10" d="M 170.414062 519.257812 C 170.414062 520.589844 168.414062 520.589844 168.414062 519.257812 C 168.414062 517.925781 170.414062 517.925781 170.414062 519.257812 "/>
<path fill-rule="nonzero" fill="rgb(100%, 0%, 0%)" fill-opacity="1" stroke-width="0.01" stroke-linecap="butt" stroke-linejoin="miter" stroke="rgb(0%, 0%, 0%)" stroke-opacity="1" stroke-miterlimit="10" d="M 30.003906 413.121094 C 30.003906 414.453125 28.003906 414.453125 28.003906 413.121094 C 28.003906 411.785156 30.003906 411.785156 30.003906 413.121094 "/>
<path fill-rule="nonzero" fill="rgb(100%, 0%, 0%)" fill-opacity="1" stroke-width="0.01" stroke-linecap="butt" stroke-linejoin="miter" stroke="rgb(0%, 0%, 0%)" stroke-opacity="1" stroke-miterlimit="10" d="M 424.960938 198.117188 C 424.960938 199.449219 422.960938 199.449219 422.960938 198.117188 C 422.960938 196.785156 424.960938 196.785156 424.960938 198.117188 "/>
<path fill-rule="nonzero" fill="rgb(100%, 0%, 0%)" fill-opacity="1" stroke-width="0.01" stroke-linecap="butt" stroke-linejoin="miter" stroke="rgb(0%, 0%, 0%)" stroke-opacity="1" stroke-miterlimit="10" d="M 193.414062 308.101562 C 193.414062 309.433594 191.414062 309.433594 191.414062 308.101562 C 191.414062 306.769531 193.414062 306.769531 193.414062 308.101562 "/>
<path fill-rule="nonzero" fill="rgb(100%, 0%, 0%)" fill-opacity="1" stroke-width="0.01" stroke-linecap="butt" stroke-linejoin="miter" stroke="rgb(0%, 0%, 0%)" stroke-opacity="1" stroke-miterlimit="10" d="M 145.515625 332.359375 C 145.515625 333.691406 143.515625 333.691406 143.515625 332.359375 C 143.515625 331.027344 145.515625 331.027344 145.515625 332.359375 "/>
<path fill-rule="nonzero" fill="rgb(100%, 0%, 0%)" fill-opacity="1" stroke-width="0.01" stroke-linecap="butt" stroke-linejoin="miter" stroke="rgb(0%, 0%, 0%)" stroke-opacity="1" stroke-miterlimit="10" d="M 210 565.480469 C 210 566.8125 208 566.8125 208 565.480469 C 208 564.144531 210 564.144531 210 565.480469 "/>
<path fill-rule="nonzero" fill="rgb(100%, 0%, 0%)" fill-opacity="1" stroke-width="0.01" stroke-linecap="butt" stroke-linejoin="miter" stroke="rgb(0%, 0%, 0%)" stroke-opacity="1" stroke-miterlimit="10" d="M 303.480469 530.789062 C 303.480469 532.121094 301.480469 532.121094 301.480469 530.789062 C 301.480469 529.457031 303.480469 529.457031 303.480469 530.789062 "/>
<path fill-rule="nonzero" fill="rgb(100%, 0%, 0%)" fill-opacity="1" stroke-width="0.01" stroke-linecap="butt" stroke-linejoin="miter" stroke="rgb(0%, 0%, 0%)" stroke-opacity="1" stroke-miterlimit="10" d="M 318.535156 534.308594 C 318.535156 535.640625 316.535156 535.640625 316.535156 534.308594 C 316.535156 532.972656 318.535156 532.972656 318.535156 534.308594 "/>
<path fill-rule="nonzero" fill="rgb(100%, 0%, 0%)" fill-opacity="1" stroke-width="0.01" stroke-linecap="butt" stroke-linejoin="miter" stroke="rgb(0%, 0%, 0%)" stroke-opacity="1" stroke-miterlimit="10" d="M 457.660156 381.675781 C 457.660156 383.007812 455.660156 383.007812 455.660156 381.675781 C 455.660156 380.34375 457.660156 380.34375 457.660156 381.675781 "/>
<path fill-rule="nonzero" fill="rgb(100%, 0%, 0%)" fill-opacity="1" stroke-width="0.01" stroke-linecap="butt" stroke-linejoin="miter" stroke="rgb(0%, 0%, 0%)" stroke-opacity="1" stroke-miterlimit="10" d="M 393.089844 46.589844 C 393.089844 47.921875 391.089844 47.921875 391.089844 46.589844 C 391.089844 45.253906 393.089844 45.253906 393.089844 46.589844 "/>
<path fill-rule="nonzero" fill="rgb(100%, 0%, 0%)" fill-opacity="1" stroke-width="0.01" stroke-linecap="butt" stroke-linejoin="miter" stroke="rgb(0%, 0%, 0%)" stroke-opacity="1" stroke-miterlimit="10" d="M 61.902344 249.890625 C 61.902344 251.222656 59.902344 251.222656 59.902344 249.890625 C 59.902344 248.558594 61.902344 248.558594 61.902344 249.890625 "/>
<path fill-rule="nonzero" fill="rgb(100%, 0%, 0%)" fill-opacity="1" stroke-width="0.01" stroke-linecap="butt" stroke-linejoin="miter" stroke="rgb(0%, 0%, 0%)" stroke-opacity="1" stroke-miterlimit="10" d="M 50.335938 239.511719 C 50.335938 240.84375 48.335938 240.84375 48.335938 239.511719 C 48.335938 238.175781 50.335938 238.175781 50.335938 239.511719 "/>
<path fill-rule="nonzero" fill="rgb(100%, 0%, 0%)" fill-opacity="1" stroke-width="0.01" stroke-linecap="butt" stroke-linejoin="miter" stroke="rgb(0%, 0%, 0%)" stroke-opacity="1" stroke-miterlimit="10" d="M 204.152344 376.789062 C 204.152344 378.121094 202.152344 378.121094 202.152344 376.789062 C 202.152344 375.457031 204.152344 375.457031 204.152344 376.789062 "/>
<path fill-rule="nonzero" fill="rgb(100%, 0%, 0%)" fill-opacity="1" stroke-width="0.01" stroke-linecap="butt" stroke-linejoin="miter" stroke="rgb(0%, 0%, 0%)" stroke-opacity="1" stroke-miterlimit="10" d="M 208.378906 357.453125 C 208.378906 358.789062 206.378906 358.789062 206.378906 357.453125 C 206.378906 356.121094 208.378906 356.121094 208.378906 357.453125 "/>
<path fill-rule="nonzero" fill="rgb(100%, 0%, 0%)" fill-opacity="1" stroke-width="0.01" stroke-linecap="butt" stroke-linejoin="miter" stroke="rgb(0%, 0%, 0%)" stroke-opacity="1" stroke-miterlimit="10" d="M 199.53125 393.835938 C 199.53125 395.167969 197.53125 395.167969 197.53125 393.835938 C 197.53125 392.503906 199.53125 392.503906 199.53125 393.835938 "/>
<path fill-rule="nonzero" fill="rgb(100%, 0%, 0%)" fill-opacity="1" stroke-width="0.01" stroke-linecap="butt" stroke-linejoin="miter" stroke="rgb(0%, 0%, 0%)" stroke-opacity="1" stroke-miterlimit="10" d="M 442.152344 545.265625 C 442.152344 546.601562 440.152344 546.601562 440.152344 545.265625 C 440.152344 543.933594 442.152344 543.933594 442.152344 545.265625 "/>
<path fill-rule="nonzero" fill="rgb(100%, 0%, 0%)" fill-opacity="1" stroke-width="0.01" stroke-linecap="butt" stroke-linejoin="miter" stroke="rgb(0%, 0%, 0%)" stroke-opacity="1" stroke-miterlimit="10" d="M 91.007812 323.824219 C 91.007812 325.15625 89.007812 325.15625 89.007812 323.824219 C 89.007812 322.488281 91.007812 322.488281 91.007812 323.824219 "/>
<path fill-rule="nonzero" fill="rgb(100%, 0%, 0%)" fill-opacity="1" stroke-width="0.01" stroke-linecap="butt" stroke-linejoin="miter" stroke="rgb(0%, 0%, 0%)" stroke-opacity="1" stroke-miterlimit="10" d="M 98.515625 310.121094 C 98.515625 311.453125 96.515625 311.453125 96.515625 310.121094 C 96.515625 308.785156 98.515625 308.785156 98.515625 310.121094 "/>
<path fill-rule="nonzero" fill="rgb(100%, 0%, 0%)" fill-opacity="1" stroke-width="0.01" stroke-linecap="butt" stroke-linejoin="miter" stroke="rgb(0%, 0%, 0%)" stroke-opacity="1" stroke-miterlimit="10" d="M 391.238281 501.304688 C 391.238281 502.636719 389.238281 502.636719 389.238281 501.304688 C 389.238281 499.96875 391.238281 499.96875 391.238281 501.304688 "/>
<path fill-rule="nonzero" fill="rgb(100%, 0%, 0%)" fill-opacity="1" stroke-width="0.01" stroke-linecap="butt" stroke-linejoin="miter" stroke="rgb(0%, 0%, 0%)" stroke-opacity="1" stroke-miterlimit="10" d="M 388.492188 485.972656 C 388.492188 487.304688 386.492188 487.304688 386.492188 485.972656 C 386.492188 484.636719 388.492188 484.636719 388.492188 485.972656 "/>
<path fill-rule="nonzero" fill="rgb(100%, 0%, 0%)" fill-opacity="1" stroke-width="0.01" stroke-linecap="butt" stroke-linejoin="miter" stroke="rgb(0%, 0%, 0%)" stroke-opacity="1" stroke-miterlimit="10" d="M 523.609375 371.183594 C 523.609375 372.515625 521.609375 372.515625 521.609375 371.183594 C 521.609375 369.851562 523.609375 369.851562 523.609375 371.183594 "/>
<path fill-rule="nonzero" fill="rgb(100%, 0%, 0%)" fill-opacity="1" stroke-width="0.01" stroke-linecap="butt" stroke-linejoin="miter" stroke="rgb(0%, 0%, 0%)" stroke-opacity="1" stroke-miterlimit="10" d="M 512.765625 382.320312 C 512.765625 383.652344 510.765625 383.652344 510.765625 382.320312 C 510.765625 380.988281 512.765625 380.988281 512.765625 382.320312 "/>
<path fill-rule="nonzero" fill="rgb(100%, 0%, 0%)" fill-opacity="1" stroke-width="0.01" stroke-linecap="butt" stroke-linejoin="miter" stroke="rgb(0%, 0%, 0%)" stroke-opacity="1" stroke-miterlimit="10" d="M 257.65625 418.890625 C 257.65625 420.222656 255.65625 420.222656 255.65625 418.890625 C 255.65625 417.554688 257.65625 417.554688 257.65625 418.890625 "/>
<path fill-rule="nonzero" fill="rgb(100%, 0%, 0%)" fill-opacity="1" stroke-width="0.01" stroke-linecap="butt" stroke-linejoin="miter" stroke="rgb(0%, 0%, 0%)" stroke-opacity="1" stroke-miterlimit="10" d="M 271.207031 411.460938 C 271.207031 412.796875 269.207031 412.796875 269.207031 411.460938 C 269.207031 410.128906 271.207031 410.128906 271.207031 411.460938 "/>
<path fill-rule="nonzero" fill="rgb(100%, 0%, 0%)" fill-opacity="1" stroke-width="0.01" stroke-linecap="butt" stroke-linejoin="miter" stroke="rgb(0%, 0%, 0%)" stroke-opacity="1" stroke-miterlimit="10" d="M 21 312.089844 C 21 313.421875 19 313.421875 19 312.089844 C 19 310.753906 21 310.753906 21 312.089844 "/>
<path fill-rule="nonzero" fill="rgb(100%, 0%, 0%)" fill-opacity="1" stroke-width="0.01" stroke-linecap="butt" stroke-linejoin="miter" stroke="rgb(0%, 0%, 0%)" stroke-opacity="1" stroke-miterlimit="10" d="M 26.148438 326.851562 C 26.148438 328.1875 24.148438 328.1875 24.148438 326.851562 C 24.148438 325.519531 26.148438 325.519531 26.148438 326.851562 "/>
<path fill-rule="nonzero" fill="rgb(100%, 0%, 0%)" fill-opacity="1" stroke-width="0.01" stroke-linecap="butt" stroke-linejoin="miter" stroke="rgb(0%, 0%, 0%)" stroke-opacity="1" stroke-miterlimit="10" d="M 328.164062 477.109375 C 328.164062 478.441406 326.164062 478.441406 326.164062 477.109375 C 326.164062 475.777344 328.164062 475.777344 328.164062 477.109375 "/>
<path fill-rule="nonzero" fill="rgb(100%, 0%, 0%)" fill-opacity="1" stroke-width="0.01" stroke-linecap="butt" stroke-linejoin="miter" stroke="rgb(0%, 0%, 0%)" stroke-opacity="1" stroke-miterlimit="10" d="M 108.789062 506.289062 C 108.789062 507.625 106.789062 507.625 106.789062 506.289062 C 106.789062 504.957031 108.789062 504.957031 108.789062 506.289062 "/>
<path fill-rule="nonzero" fill="rgb(100%, 0%, 0%)" fill-opacity="1" stroke-width="0.01" stroke-linecap="butt" stroke-linejoin="miter" stroke="rgb(0%, 0%, 0%)" stroke-opacity="1" stroke-miterlimit="10" d="M 421.371094 244.910156 C 421.371094 246.246094 419.371094 246.246094 419.371094 244.910156 C 419.371094 243.578125 421.371094 243.578125 421.371094 244.910156 "/>
<path fill-rule="nonzero" fill="rgb(100%, 0%, 0%)" fill-opacity="1" stroke-width="0.01" stroke-linecap="butt" stroke-linejoin="miter" stroke="rgb(0%, 0%, 0%)" stroke-opacity="1" stroke-miterlimit="10" d="M 78.320312 427.328125 C 78.320312 428.664062 76.320312 428.664062 76.320312 427.328125 C 76.320312 425.996094 78.320312 425.996094 78.320312 427.328125 "/>
<path fill-rule="nonzero" fill="rgb(100%, 0%, 0%)" fill-opacity="1" stroke-width="0.01" stroke-linecap="butt" stroke-linejoin="miter" stroke="rgb(0%, 0%, 0%)" stroke-opacity="1" stroke-miterlimit="10" d="M 552.457031 229.230469 C 552.457031 230.5625 550.457031 230.5625 550.457031 229.230469 C 550.457031 227.898438 552.457031 227.898438 552.457031 229.230469 "/>
<path fill-rule="nonzero" fill="rgb(100%, 0%, 0%)" fill-opacity="1" stroke-width="0.01" stroke-linecap="butt" stroke-linejoin="miter" stroke="rgb(0%, 0%, 0%)" stroke-opacity="1" stroke-miterlimit="10" d="M 527.578125 167.28125 C 527.578125 168.613281 525.578125 168.613281 525.578125 167.28125 C 525.578125 165.949219 527.578125 165.949219 527.578125 167.28125 "/>
<path fill-rule="nonzero" fill="rgb(100%, 0%, 0%)" fill-opacity="1" stroke-width="0.01" stroke-linecap="butt" stroke-linejoin="miter" stroke="rgb(0%, 0%, 0%)" stroke-opacity="1" stroke-miterlimit="10" d="M 311.421875 255.550781 C 311.421875 256.886719 309.421875 256.886719 309.421875 255.550781 C 309.421875 254.21875 311.421875 254.21875 311.421875 255.550781 "/>
<path fill-rule="nonzero" fill="rgb(100%, 0%, 0%)" fill-opacity="1" stroke-width="0.01" stroke-linecap="butt" stroke-linejoin="miter" stroke="rgb(0%, 0%, 0%)" stroke-opacity="1" stroke-miterlimit="10" d="M 164.136719 227.746094 C 164.136719 229.082031 162.136719 229.082031 162.136719 227.746094 C 162.136719 226.414062 164.136719 226.414062 164.136719 227.746094 "/>
<path fill-rule="nonzero" fill="rgb(100%, 0%, 0%)" fill-opacity="1" stroke-width="0.01" stroke-linecap="butt" stroke-linejoin="miter" stroke="rgb(0%, 0%, 0%)" stroke-opacity="1" stroke-miterlimit="10" d="M 157.289062 241.757812 C 157.289062 243.089844 155.289062 243.089844 155.289062 241.757812 C 155.289062 240.421875 157.289062 240.421875 157.289062 241.757812 "/>
<path fill-rule="nonzero" fill="rgb(100%, 0%, 0%)" fill-opacity="1" stroke-width="0.01" stroke-linecap="butt" stroke-linejoin="miter" stroke="rgb(0%, 0%, 0%)" stroke-opacity="1" stroke-miterlimit="10" d="M 362.933594 352.882812 C 362.933594 354.21875 360.933594 354.21875 360.933594 352.882812 C 360.933594 351.550781 362.933594 351.550781 362.933594 352.882812 "/>
<path fill-rule="nonzero" fill="rgb(100%, 0%, 0%)" fill-opacity="1" stroke-width="0.01" stroke-linecap="butt" stroke-linejoin="miter" stroke="rgb(0%, 0%, 0%)" stroke-opacity="1" stroke-miterlimit="10" d="M 348.453125 358.113281 C 348.453125 359.449219 346.453125 359.449219 346.453125 358.113281 C 346.453125 356.78125 348.453125 356.78125 348.453125 358.113281 "/>
<path fill-rule="nonzero" fill="rgb(100%, 0%, 0%)" fill-opacity="1" stroke-width="0.01" stroke-linecap="butt" stroke-linejoin="miter" stroke="rgb(0%, 0%, 0%)" stroke-opacity="1" stroke-miterlimit="10" d="M 367.945312 575.257812 C 367.945312 576.589844 365.945312 576.589844 365.945312 575.257812 C 365.945312 573.925781 367.945312 573.925781 367.945312 575.257812 "/>
<path fill-rule="nonzero" fill="rgb(100%, 0%, 0%)" fill-opacity="1" stroke-width="0.01" stroke-linecap="butt" stroke-linejoin="miter" stroke="rgb(0%, 0%, 0%)" stroke-opacity="1" stroke-miterlimit="10" d="M 334.359375 418.679688 C 334.359375 420.011719 332.359375 420.011719 332.359375 418.679688 C 332.359375 417.347656 334.359375 417.347656 334.359375 418.679688 "/>
<path fill-rule="nonzero" fill="rgb(100%, 0%, 0%)" fill-opacity="1" stroke-width="0.01" stroke-linecap="butt" stroke-linejoin="miter" stroke="rgb(0%, 0%, 0%)" stroke-opacity="1" stroke-miterlimit="10" d="M 348.859375 423.894531 C 348.859375 425.230469 346.859375 425.230469 346.859375 423.894531 C 346.859375 422.5625 348.859375 422.5625 348.859375 423.894531 "/>
<path fill-rule="nonzero" fill="rgb(100%, 0%, 0%)" fill-opacity="1" stroke-width="0.01" stroke-linecap="butt" stroke-linejoin="miter" stroke="rgb(0%, 0%, 0%)" stroke-opacity="1" stroke-miterlimit="10" d="M 270.796875 580 C 270.796875 581.332031 268.796875 581.332031 268.796875 580 C 268.796875 578.667969 270.796875 578.667969 270.796875 580 "/>
<path fill-rule="nonzero" fill="rgb(100%, 0%, 0%)" fill-opacity="1" stroke-width="0.01" stroke-linecap="butt" stroke-linejoin="miter" stroke="rgb(0%, 0%, 0%)" stroke-opacity="1" stroke-miterlimit="10" d="M 246.238281 179.734375 C 246.238281 181.070312 244.238281 181.070312 244.238281 179.734375 C 244.238281 178.402344 246.238281 178.402344 246.238281 179.734375 "/>
<path fill-rule="nonzero" fill="rgb(100%, 0%, 0%)" fill-opacity="1" stroke-width="0.01" stroke-linecap="butt" stroke-linejoin="miter" stroke="rgb(0%, 0%, 0%)" stroke-opacity="1" stroke-miterlimit="10" d="M 241.800781 162.207031 C 241.800781 163.539062 239.800781 163.539062 239.800781 162.207031 C 239.800781 160.875 241.800781 160.875 241.800781 162.207031 "/>
<path fill-rule="nonzero" fill="rgb(100%, 0%, 0%)" fill-opacity="1" stroke-width="0.01" stroke-linecap="butt" stroke-linejoin="miter" stroke="rgb(0%, 0%, 0%)" stroke-opacity="1" stroke-miterlimit="10" d="M 253.25 205.355469 C 253.25 206.691406 251.25 206.691406 251.25 205.355469 C 251.25 204.023438 253.25 204.023438 253.25 205.355469 "/>
<path fill-rule="nonzero" fill="rgb(100%, 0%, 0%)" fill-opacity="1" stroke-width="0.01" stroke-linecap="butt" stroke-linejoin="miter" stroke="rgb(0%, 0%, 0%)" stroke-opacity="1" stroke-miterlimit="10" d="M 434.84375 148.867188 C 434.84375 150.199219 432.84375 150.199219 432.84375 148.867188 C 432.84375 147.535156 434.84375 147.535156 434.84375 148.867188 "/>
<path fill-rule="nonzero" fill="rgb(100%, 0%, 0%)" fill-opacity="1" stroke-width="0.01" stroke-linecap="butt" stroke-linejoin="miter" stroke="rgb(0%, 0%, 0%)" stroke-opacity="1" stroke-miterlimit="10" d="M 328.976562 193.742188 C 328.976562 195.074219 326.976562 195.074219 326.976562 193.742188 C 326.976562 192.40625 328.976562 192.40625 328.976562 193.742188 "/>
<path fill-rule="nonzero" fill="rgb(100%, 0%, 0%)" fill-opacity="1" stroke-width="0.01" stroke-linecap="butt" stroke-linejoin="miter" stroke="rgb(0%, 0%, 0%)" stroke-opacity="1" stroke-miterlimit="10" d="M 333.257812 208.65625 C 333.257812 209.992188 331.257812 209.992188 331.257812 208.65625 C 331.257812 207.324219 333.257812 207.324219 333.257812 208.65625 "/>
<path fill-rule="nonzero" fill="rgb(100%, 0%, 0%)" fill-opacity="1" stroke-width="0.01" stroke-linecap="butt" stroke-linejoin="miter" stroke="rgb(0%, 0%, 0%)" stroke-opacity="1" stroke-miterlimit="10" d="M 231.496094 32.773438 C 231.496094 34.105469 229.496094 34.105469 229.496094 32.773438 C 229.496094 31.4375 231.496094 31.4375 231.496094 32.773438 "/>
<path fill-rule="nonzero" fill="rgb(100%, 0%, 0%)" fill-opacity="1" stroke-width="0.01" stroke-linecap="butt" stroke-linejoin="miter" stroke="rgb(0%, 0%, 0%)" stroke-opacity="1" stroke-miterlimit="10" d="M 278.425781 467.777344 C 278.425781 469.109375 276.425781 469.109375 276.425781 467.777344 C 276.425781 466.445312 278.425781 466.445312 278.425781 467.777344 "/>
<path fill-rule="nonzero" fill="rgb(100%, 0%, 0%)" fill-opacity="1" stroke-width="0.01" stroke-linecap="butt" stroke-linejoin="miter" stroke="rgb(0%, 0%, 0%)" stroke-opacity="1" stroke-miterlimit="10" d="M 417.792969 314.691406 C 417.792969 316.027344 415.792969 316.027344 415.792969 314.691406 C 415.792969 313.359375 417.792969 313.359375 417.792969 314.691406 "/>
<path fill-rule="nonzero" fill="rgb(100%, 0%, 0%)" fill-opacity="1" stroke-width="0.01" stroke-linecap="butt" stroke-linejoin="miter" stroke="rgb(0%, 0%, 0%)" stroke-opacity="1" stroke-miterlimit="10" d="M 424.875 300.824219 C 424.875 302.15625 422.875 302.15625 422.875 300.824219 C 422.875 299.488281 424.875 299.488281 424.875 300.824219 "/>
<path fill-rule="nonzero" fill="rgb(100%, 0%, 0%)" fill-opacity="1" stroke-width="0.01" stroke-linecap="butt" stroke-linejoin="miter" stroke="rgb(0%, 0%, 0%)" stroke-opacity="1" stroke-miterlimit="10" d="M 216.984375 481.457031 C 216.984375 482.789062 214.984375 482.789062 214.984375 481.457031 C 214.984375 480.125 216.984375 480.125 216.984375 481.457031 "/>
<path fill-rule="nonzero" fill="rgb(100%, 0%, 0%)" fill-opacity="1" stroke-width="0.01" stroke-linecap="butt" stroke-linejoin="miter" stroke="rgb(0%, 0%, 0%)" stroke-opacity="1" stroke-miterlimit="10" d="M 227.449219 492.972656 C 227.449219 494.304688 225.449219 494.304688 225.449219 492.972656 C 225.449219 491.636719 227.449219 491.636719 227.449219 492.972656 "/>
<path fill-rule="nonzero" fill="rgb(100%, 0%, 0%)" fill-opacity="1" stroke-width="0.01" stroke-linecap="butt" stroke-linejoin="miter" stroke="rgb(0%, 0%, 0%)" stroke-opacity="1" stroke-miterlimit="10" d="M 210.816406 336.832031 C 210.816406 338.164062 208.816406 338.164062 208.816406 336.832031 C 208.816406 335.5 210.816406 335.5 210.816406 336.832031 "/>
<path fill-rule="nonzero" fill="rgb(100%, 0%, 0%)" fill-opacity="1" stroke-width="0.01" stroke-linecap="butt" stroke-linejoin="miter" stroke="rgb(0%, 0%, 0%)" stroke-opacity="1" stroke-miterlimit="10" d="M 512.8125 287.679688 C 512.8125 289.015625 510.8125 289.015625 510.8125 287.679688 C 510.8125 286.347656 512.8125 286.347656 512.8125 287.679688 "/>
<path fill-rule="nonzero" fill="rgb(100%, 0%, 0%)" fill-opacity="1" stroke-width="0.01" stroke-linecap="butt" stroke-linejoin="miter" stroke="rgb(0%, 0%, 0%)" stroke-opacity="1" stroke-miterlimit="10" d="M 520.195312 301.339844 C 520.195312 302.671875 518.195312 302.671875 518.195312 301.339844 C 518.195312 300.003906 520.195312 300.003906 520.195312 301.339844 "/>
<path fill-rule="nonzero" fill="rgb(100%, 0%, 0%)" fill-opacity="1" stroke-width="0.01" stroke-linecap="butt" stroke-linejoin="miter" stroke="rgb(0%, 0%, 0%)" stroke-opacity="1" stroke-miterlimit="10" d="M 453.890625 97.980469 C 453.890625 99.316406 451.890625 99.316406 451.890625 97.980469 C 451.890625 96.648438 453.890625 96.648438 453.890625 97.980469 "/>
<path fill-rule="nonzero" fill="rgb(100%, 0%, 0%)" fill-opacity="1" stroke-width="0.01" stroke-linecap="butt" stroke-linejoin="miter" stroke="rgb(0%, 0%, 0%)" stroke-opacity="1" stroke-miterlimit="10" d="M 467.15625 106.136719 C 467.15625 107.46875 465.15625 107.46875 465.15625 106.136719 C 465.15625 104.800781 467.15625 104.800781 467.15625 106.136719 "/>
<path fill-rule="nonzero" fill="rgb(100%, 0%, 0%)" fill-opacity="1" stroke-width="0.01" stroke-linecap="butt" stroke-linejoin="miter" stroke="rgb(0%, 0%, 0%)" stroke-opacity="1" stroke-miterlimit="10" d="M 282.5 359.984375 C 282.5 361.316406 280.5 361.316406 280.5 359.984375 C 280.5 358.648438 282.5 358.648438 282.5 359.984375 "/>
<path fill-rule="nonzero" fill="rgb(100%, 0%, 0%)" fill-opacity="1" stroke-width="0.01" stroke-linecap="butt" stroke-linejoin="miter" stroke="rgb(0%, 0%, 0%)" stroke-opacity="1" stroke-miterlimit="10" d="M 343.03125 78.722656 C 343.03125 80.054688 341.03125 80.054688 341.03125 78.722656 C 341.03125 77.386719 343.03125 77.386719 343.03125 78.722656 "/>
<path fill-rule="nonzero" fill="rgb(100%, 0%, 0%)" fill-opacity="1" stroke-width="0.01" stroke-linecap="butt" stroke-linejoin="miter" stroke="rgb(0%, 0%, 0%)" stroke-opacity="1" stroke-miterlimit="10" d="M 329.089844 71.890625 C 329.089844 73.226562 327.089844 73.226562 327.089844 71.890625 C 327.089844 70.558594 329.089844 70.558594 329.089844 71.890625 "/>
<path fill-rule="nonzero" fill="rgb(100%, 0%, 0%)" fill-opacity="1" stroke-width="0.01" stroke-linecap="butt" stroke-linejoin="miter" stroke="rgb(0%, 0%, 0%)" stroke-opacity="1" stroke-miterlimit="10" d="M 408.78125 397.59375 C 408.78125 398.929688 406.78125 398.929688 406.78125 397.59375 C 406.78125 396.261719 408.78125 396.261719 408.78125 397.59375 "/>
<path fill-rule="nonzero" fill="rgb(100%, 0%, 0%)" fill-opacity="1" stroke-width="0.01" stroke-linecap="butt" stroke-linejoin="miter" stroke="rgb(0%, 0%, 0%)" stroke-opacity="1" stroke-miterlimit="10" d="M 412.445312 412.714844 C 412.445312 414.046875 410.445312 414.046875 410.445312 412.714844 C 410.445312 411.378906 412.445312 411.378906 412.445312 412.714844 "/>
<path fill-rule="nonzero" fill="rgb(100%, 0%, 0%)" fill-opacity="1" stroke-width="0.01" stroke-linecap="butt" stroke-linejoin="miter" stroke="rgb(0%, 0%, 0%)" stroke-opacity="1" stroke-miterlimit="10" d="M 116.507812 105.449219 C 116.507812 106.78125 114.507812 106.78125 114.507812 105.449219 C 114.507812 104.117188 116.507812 104.117188 116.507812 105.449219 "/>
<path fill-rule="nonzero" fill="rgb(100%, 0%, 0%)" fill-opacity="1" stroke-width="0.01" stroke-linecap="butt" stroke-linejoin="miter" stroke="rgb(0%, 0%, 0%)" stroke-opacity="1" stroke-miterlimit="10" d="M 122.417969 91.023438 C 122.417969 92.359375 120.417969 92.359375 120.417969 91.023438 C 120.417969 89.691406 122.417969 89.691406 122.417969 91.023438 "/>
<path fill-rule="nonzero" fill="rgb(100%, 0%, 0%)" fill-opacity="1" stroke-width="0.01" stroke-linecap="butt" stroke-linejoin="miter" stroke="rgb(0%, 0%, 0%)" stroke-opacity="1" stroke-miterlimit="10" d="M 176.351562 141.695312 C 176.351562 143.027344 174.351562 143.027344 174.351562 141.695312 C 174.351562 140.363281 176.351562 140.363281 176.351562 141.695312 "/>
<path fill-rule="nonzero" fill="rgb(100%, 0%, 0%)" fill-opacity="1" stroke-width="0.01" stroke-linecap="butt" stroke-linejoin="miter" stroke="rgb(0%, 0%, 0%)" stroke-opacity="1" stroke-miterlimit="10" d="M 186.265625 129.660156 C 186.265625 130.996094 184.265625 130.996094 184.265625 129.660156 C 184.265625 128.328125 186.265625 128.328125 186.265625 129.660156 "/>
<path fill-rule="nonzero" fill="rgb(100%, 0%, 0%)" fill-opacity="1" stroke-width="0.01" stroke-linecap="butt" stroke-linejoin="miter" stroke="rgb(0%, 0%, 0%)" stroke-opacity="1" stroke-miterlimit="10" d="M 482.691406 215.75 C 482.691406 217.085938 480.691406 217.085938 480.691406 215.75 C 480.691406 214.417969 482.691406 214.417969 482.691406 215.75 "/>
<path fill-rule="nonzero" fill="rgb(100%, 0%, 0%)" fill-opacity="1" stroke-width="0.01" stroke-linecap="butt" stroke-linejoin="miter" stroke="rgb(0%, 0%, 0%)" stroke-opacity="1" stroke-miterlimit="10" d="M 479.929688 231.082031 C 479.929688 232.414062 477.929688 232.414062 477.929688 231.082031 C 477.929688 229.746094 479.929688 229.746094 479.929688 231.082031 "/>
<path fill-rule="nonzero" fill="rgb(100%, 0%, 0%)" fill-opacity="1" stroke-width="0.01" stroke-linecap="butt" stroke-linejoin="miter" stroke="rgb(0%, 0%, 0%)" stroke-opacity="1" stroke-miterlimit="10" d="M 121.539062 383.648438 C 121.539062 384.984375 119.539062 384.984375 119.539062 383.648438 C 119.539062 382.316406 121.539062 382.316406 121.539062 383.648438 "/>
<path fill-rule="nonzero" fill="rgb(100%, 0%, 0%)" fill-opacity="1" stroke-width="0.01" stroke-linecap="butt" stroke-linejoin="miter" stroke="rgb(0%, 0%, 0%)" stroke-opacity="1" stroke-miterlimit="10" d="M 127.734375 397.890625 C 127.734375 399.226562 125.734375 399.226562 125.734375 397.890625 C 125.734375 396.558594 127.734375 396.558594 127.734375 397.890625 "/>
<path fill-rule="nonzero" fill="rgb(100%, 0%, 0%)" fill-opacity="1" stroke-width="0.01" stroke-linecap="butt" stroke-linejoin="miter" stroke="rgb(0%, 0%, 0%)" stroke-opacity="1" stroke-miterlimit="10" d="M 89.828125 167.445312 C 89.828125 168.78125 87.828125 168.78125 87.828125 167.445312 C 87.828125 166.113281 89.828125 166.113281 89.828125 167.445312 "/>
<path fill-rule="nonzero" fill="rgb(100%, 0%, 0%)" fill-opacity="1" stroke-width="0.01" stroke-linecap="butt" stroke-linejoin="miter" stroke="rgb(0%, 0%, 0%)" stroke-opacity="1" stroke-miterlimit="10" d="M 74.347656 167.082031 C 74.347656 168.414062 72.347656 168.414062 72.347656 167.082031 C 72.347656 165.746094 74.347656 165.746094 74.347656 167.082031 "/>
<path fill-rule="nonzero" fill="rgb(100%, 0%, 0%)" fill-opacity="1" stroke-width="0.01" stroke-linecap="butt" stroke-linejoin="miter" stroke="rgb(0%, 0%, 0%)" stroke-opacity="1" stroke-miterlimit="10" d="M 303.464844 20 C 303.464844 21.332031 301.464844 21.332031 301.464844 20 C 301.464844 18.667969 303.464844 18.667969 303.464844 20 "/>
<path fill-rule="nonzero" fill="rgb(100%, 0%, 0%)" fill-opacity="1" stroke-width="0.01" stroke-linecap="butt" stroke-linejoin="miter" stroke="rgb(0%, 0%, 0%)" stroke-opacity="1" stroke-miterlimit="10" d="M 536.210938 448.457031 C 536.210938 449.789062 534.210938 449.789062 534.210938 448.457031 C 534.210938 447.121094 536.210938 447.121094 536.210938 448.457031 "/>
<path fill-rule="nonzero" fill="rgb(100%, 0%, 0%)" fill-opacity="1" stroke-width="0.01" stroke-linecap="butt" stroke-linejoin="miter" stroke="rgb(0%, 0%, 0%)" stroke-opacity="1" stroke-miterlimit="10" d="M 546.726562 436.949219 C 546.726562 438.285156 544.726562 438.285156 544.726562 436.949219 C 544.726562 435.617188 546.726562 435.617188 546.726562 436.949219 "/>
<path fill-rule="nonzero" fill="rgb(100%, 0%, 0%)" fill-opacity="1" stroke-width="0.01" stroke-linecap="butt" stroke-linejoin="miter" stroke="rgb(0%, 0%, 0%)" stroke-opacity="1" stroke-miterlimit="10" d="M 364.414062 284.324219 C 364.414062 285.65625 362.414062 285.65625 362.414062 284.324219 C 362.414062 282.992188 364.414062 282.992188 364.414062 284.324219 "/>
<path fill-rule="nonzero" fill="rgb(100%, 0%, 0%)" fill-opacity="1" stroke-width="0.01" stroke-linecap="butt" stroke-linejoin="miter" stroke="rgb(0%, 0%, 0%)" stroke-opacity="1" stroke-miterlimit="10" d="M 368.839844 269.421875 C 368.839844 270.757812 366.839844 270.757812 366.839844 269.421875 C 366.839844 268.089844 368.839844 268.089844 368.839844 269.421875 "/>
<path fill-rule="nonzero" fill="rgb(100%, 0%, 0%)" fill-opacity="1" stroke-width="0.01" stroke-linecap="butt" stroke-linejoin="miter" stroke="rgb(0%, 0%, 0%)" stroke-opacity="1" stroke-miterlimit="10" d="M 468.976562 329.410156 C 468.976562 330.742188 466.976562 330.742188 466.976562 329.410156 C 466.976562 328.078125 468.976562 328.078125 468.976562 329.410156 "/>
<path fill-rule="nonzero" fill="rgb(100%, 0%, 0%)" fill-opacity="1" stroke-width="0.01" stroke-linecap="butt" stroke-linejoin="miter" stroke="rgb(0%, 0%, 0%)" stroke-opacity="1" stroke-miterlimit="10" d="M 133.808594 456.921875 C 133.808594 458.253906 131.808594 458.253906 131.808594 456.921875 C 131.808594 455.589844 133.808594 455.589844 133.808594 456.921875 "/>
<path fill-rule="nonzero" fill="rgb(100%, 0%, 0%)" fill-opacity="1" stroke-width="0.01" stroke-linecap="butt" stroke-linejoin="miter" stroke="rgb(0%, 0%, 0%)" stroke-opacity="1" stroke-miterlimit="10" d="M 112.917969 217.957031 C 112.917969 219.289062 110.917969 219.289062 110.917969 217.957031 C 110.917969 216.621094 112.917969 216.621094 112.917969 217.957031 "/>
<path fill-rule="nonzero" fill="rgb(100%, 0%, 0%)" fill-opacity="1" stroke-width="0.01" stroke-linecap="butt" stroke-linejoin="miter" stroke="rgb(0%, 0%, 0%)" stroke-opacity="1" stroke-miterlimit="10" d="M 197.15625 70.6875 C 197.15625 72.019531 195.15625 72.019531 195.15625 70.6875 C 195.15625 69.351562 197.15625 69.351562 197.15625 70.6875 "/>
<path fill-rule="nonzero" fill="rgb(100%, 0%, 0%)" fill-opacity="1" stroke-width="0.01" stroke-linecap="butt" stroke-linejoin="miter" stroke="rgb(0%, 0%, 0%)" stroke-opacity="1" stroke-miterlimit="10" d="M 303.433594 123.957031 C 303.433594 125.289062 301.433594 125.289062 301.433594 123.957031 C 301.433594 122.625 303.433594 122.625 303.433594 123.957031 "/>
<path fill-rule="nonzero" fill="rgb(100%, 0%, 0%)" fill-opacity="1" stroke-width="0.01" stroke-linecap="butt" stroke-linejoin="miter" stroke="rgb(0%, 0%, 0%)" stroke-opacity="1" stroke-miterlimit="10" d="M 290.128906 115.859375 C 290.128906 117.195312 288.128906 117.195312 288.128906 115.859375 C 288.128906 114.527344 290.128906 114.527344 290.128906 115.859375 "/>
<path fill-rule="nonzero" fill="rgb(100%, 0%, 0%)" fill-opacity="1" stroke-width="0.01" stroke-linecap="butt" stroke-linejoin="miter" stroke="rgb(0%, 0%, 0%)" stroke-opacity="1" stroke-miterlimit="10" d="M 305.511719 312.523438 C 305.511719 313.855469 303.511719 313.855469 303.511719 312.523438 C 303.511719 311.1875 305.511719 311.1875 305.511719 312.523438 "/>
<path fill-rule="nonzero" fill="rgb(100%, 0%, 0%)" fill-opacity="1" stroke-width="0.01" stroke-linecap="butt" stroke-linejoin="miter" stroke="rgb(0%, 0%, 0%)" stroke-opacity="1" stroke-miterlimit="10" d="M 292.984375 303.515625 C 292.984375 304.847656 290.984375 304.847656 290.984375 303.515625 C 290.984375 302.179688 292.984375 302.179688 292.984375 303.515625 "/>
<path fill-rule="nonzero" fill="rgb(100%, 0%, 0%)" fill-opacity="1" stroke-width="0.01" stroke-linecap="butt" stroke-linejoin="miter" stroke="rgb(0%, 0%, 0%)" stroke-opacity="1" stroke-miterlimit="10" d="M 581 298.449219 C 581 299.78125 579 299.78125 579 298.449219 C 579 297.113281 581 297.113281 581 298.449219 "/>
</svg>
