<?xml version="1.0" encoding="UTF-8"?>
<svg xmlns="http://www.w3.org/2000/svg" xmlns:xlink="http://www.w3.org/1999/xlink" width="600pt" height="600pt" viewBox="0 0 600 600" version="1.1">
<g id="surface366">
<rect x="0" y="0" width="600" height="600" style="fill:rgb(100%,100%,100%);fill-opacity:1;stroke:none;"/>
<path style="fill:none;stroke-width:0.2;stroke-linecap:butt;stroke-linejoin:miter;stroke:rgb(26.666667%,26.666667%,26.666667%);stroke-opacity:1;stroke-miterlimit:10;" d="M 306.425781 442.042969 C 306.425781 444.042969 303.425781 444.042969 303.425781 442.042969 C 303.425781 440.042969 306.425781 440.042969 306.425781 442.042969 "/>
<path style="fill:none;stroke-width:0.2;stroke-linecap:butt;stroke-linejoin:miter;stroke:rgb(26.666667%,26.666667%,26.666667%);stroke-opacity:1;stroke-miterlimit:10;" d="M 303.863281 443.101563 L 298.078125 459.375 "/>
<path style=" stroke:none;fill-rule:nonzero;fill:rgb(26.666667%,26.666667%,26.666667%);fill-opacity:1;" d="M 298.03125 459.507813 L 298.035156 459.359375 L 298.125 459.390625 L 298.03125 459.507813 "/>
<path style="fill:none;stroke-width:0.2;stroke-linecap:butt;stroke-linejoin:miter;stroke:rgb(26.666667%,26.666667%,26.666667%);stroke-opacity:1;stroke-miterlimit:10;" d="M 303.863281 443.101563 L 316.710938 433.949219 "/>
<path style=" stroke:none;fill-rule:nonzero;fill:rgb(26.666667%,26.666667%,26.666667%);fill-opacity:1;" d="M 316.824219 433.867188 L 316.738281 433.988281 L 316.683594 433.910156 L 316.824219 433.867188 "/>
<path style="fill:none;stroke-width:0.2;stroke-linecap:butt;stroke-linejoin:miter;stroke:rgb(26.666667%,26.666667%,26.666667%);stroke-opacity:1;stroke-miterlimit:10;" d="M 537.523438 452.476563 L 541.472656 438.765625 "/>
<path style=" stroke:none;fill-rule:nonzero;fill:rgb(26.666667%,26.666667%,26.666667%);fill-opacity:1;" d="M 541.511719 438.628906 L 541.515625 438.78125 L 541.425781 438.753906 L 541.511719 438.628906 "/>
<path style="fill:none;stroke-width:0.2;stroke-linecap:butt;stroke-linejoin:miter;stroke:rgb(26.666667%,26.666667%,26.666667%);stroke-opacity:1;stroke-miterlimit:10;" d="M 441.011719 339.730469 L 453.054688 347.886719 "/>
<path style=" stroke:none;fill-rule:nonzero;fill:rgb(26.666667%,26.666667%,26.666667%);fill-opacity:1;" d="M 453.171875 347.964844 L 453.027344 347.925781 L 453.078125 347.847656 L 453.171875 347.964844 "/>
<path style="fill:none;stroke-width:0.2;stroke-linecap:butt;stroke-linejoin:miter;stroke:rgb(26.666667%,26.666667%,26.666667%);stroke-opacity:1;stroke-miterlimit:10;" d="M 371.804688 550.769531 L 383.542969 542.175781 "/>
<path style=" stroke:none;fill-rule:nonzero;fill:rgb(26.666667%,26.666667%,26.666667%);fill-opacity:1;" d="M 383.65625 542.089844 L 383.570313 542.214844 L 383.515625 542.136719 L 383.65625 542.089844 "/>
<path style="fill:none;stroke-width:0.2;stroke-linecap:butt;stroke-linejoin:miter;stroke:rgb(26.666667%,26.666667%,26.666667%);stroke-opacity:1;stroke-miterlimit:10;" d="M 217.453125 562.6875 C 217.453125 564.6875 214.453125 564.6875 214.453125 562.6875 C 214.453125 560.6875 217.453125 560.6875 217.453125 562.6875 "/>
<path style="fill:none;stroke-width:0.2;stroke-linecap:butt;stroke-linejoin:miter;stroke:rgb(26.666667%,26.666667%,26.666667%);stroke-opacity:1;stroke-miterlimit:10;" d="M 399.097656 18.9375 C 399.097656 20.9375 396.097656 20.9375 396.097656 18.9375 C 396.097656 16.9375 399.097656 16.9375 399.097656 18.9375 "/>
<path style="fill:none;stroke-width:0.2;stroke-linecap:butt;stroke-linejoin:miter;stroke:rgb(26.666667%,26.666667%,26.666667%);stroke-opacity:1;stroke-miterlimit:10;" d="M 334.421875 100.816406 C 334.421875 102.816406 331.421875 102.816406 331.421875 100.816406 C 331.421875 98.816406 334.421875 98.816406 334.421875 100.816406 "/>
<path style="fill:none;stroke-width:0.2;stroke-linecap:butt;stroke-linejoin:miter;stroke:rgb(26.666667%,26.666667%,26.666667%);stroke-opacity:1;stroke-miterlimit:10;" d="M 278.191406 458.816406 L 296.558594 460.355469 "/>
<path style=" stroke:none;fill-rule:nonzero;fill:rgb(26.666667%,26.666667%,26.666667%);fill-opacity:1;" d="M 296.699219 460.367188 L 296.554688 460.402344 L 296.5625 460.308594 L 296.699219 460.367188 "/>
<path style="fill:none;stroke-width:0.2;stroke-linecap:butt;stroke-linejoin:miter;stroke:rgb(26.666667%,26.666667%,26.666667%);stroke-opacity:1;stroke-miterlimit:10;" d="M 278.089844 286.328125 C 278.089844 288.328125 275.089844 288.328125 275.089844 286.328125 C 275.089844 284.328125 278.089844 284.328125 278.089844 286.328125 "/>
<path style="fill:none;stroke-width:0.2;stroke-linecap:butt;stroke-linejoin:miter;stroke:rgb(26.666667%,26.666667%,26.666667%);stroke-opacity:1;stroke-miterlimit:10;" d="M 108.207031 127.335938 C 108.207031 129.335938 105.207031 129.335938 105.207031 127.335938 C 105.207031 125.335938 108.207031 125.335938 108.207031 127.335938 "/>
<path style="fill:none;stroke-width:0.2;stroke-linecap:butt;stroke-linejoin:miter;stroke:rgb(26.666667%,26.666667%,26.666667%);stroke-opacity:1;stroke-miterlimit:10;" d="M 74.511719 385.941406 C 74.511719 387.941406 71.511719 387.941406 71.511719 385.941406 C 71.511719 383.941406 74.511719 383.941406 74.511719 385.941406 "/>
<path style="fill:none;stroke-width:0.2;stroke-linecap:butt;stroke-linejoin:miter;stroke:rgb(26.666667%,26.666667%,26.666667%);stroke-opacity:1;stroke-miterlimit:10;" d="M 71.953125 387.003906 L 67.292969 400.515625 "/>
<path style=" stroke:none;fill-rule:nonzero;fill:rgb(26.666667%,26.666667%,26.666667%);fill-opacity:1;" d="M 67.246094 400.652344 L 67.246094 400.503906 L 67.335938 400.53125 L 67.246094 400.652344 "/>
<path style="fill:none;stroke-width:0.2;stroke-linecap:butt;stroke-linejoin:miter;stroke:rgb(26.666667%,26.666667%,26.666667%);stroke-opacity:1;stroke-miterlimit:10;" d="M 552.621094 175.898438 C 552.621094 177.898438 549.621094 177.898438 549.621094 175.898438 C 549.621094 173.898438 552.621094 173.898438 552.621094 175.898438 "/>
<path style="fill:none;stroke-width:0.2;stroke-linecap:butt;stroke-linejoin:miter;stroke:rgb(26.666667%,26.666667%,26.666667%);stroke-opacity:1;stroke-miterlimit:10;" d="M 484.261719 400.148438 C 484.261719 402.148438 481.261719 402.148438 481.261719 400.148438 C 481.261719 398.148438 484.261719 398.148438 484.261719 400.148438 "/>
<path style="fill:none;stroke-width:0.2;stroke-linecap:butt;stroke-linejoin:miter;stroke:rgb(26.666667%,26.666667%,26.666667%);stroke-opacity:1;stroke-miterlimit:10;" d="M 208.292969 139.269531 L 220.714844 131.613281 "/>
<path style=" stroke:none;fill-rule:nonzero;fill:rgb(26.666667%,26.666667%,26.666667%);fill-opacity:1;" d="M 220.835938 131.535156 L 220.738281 131.652344 L 220.691406 131.574219 L 220.835938 131.535156 "/>
<path style="fill:none;stroke-width:0.2;stroke-linecap:butt;stroke-linejoin:miter;stroke:rgb(26.666667%,26.666667%,26.666667%);stroke-opacity:1;stroke-miterlimit:10;" d="M 351.210938 443.683594 L 339.28125 460.210938 "/>
<path style=" stroke:none;fill-rule:nonzero;fill:rgb(26.666667%,26.666667%,26.666667%);fill-opacity:1;" d="M 339.199219 460.328125 L 339.242188 460.183594 L 339.320313 460.238281 L 339.199219 460.328125 "/>
<path style="fill:none;stroke-width:0.2;stroke-linecap:butt;stroke-linejoin:miter;stroke:rgb(26.666667%,26.666667%,26.666667%);stroke-opacity:1;stroke-miterlimit:10;" d="M 351.210938 443.683594 L 355.390625 426.722656 "/>
<path style=" stroke:none;fill-rule:nonzero;fill:rgb(26.666667%,26.666667%,26.666667%);fill-opacity:1;" d="M 355.425781 426.585938 L 355.4375 426.734375 L 355.347656 426.710938 L 355.425781 426.585938 "/>
<path style="fill:none;stroke-width:0.2;stroke-linecap:butt;stroke-linejoin:miter;stroke:rgb(26.666667%,26.666667%,26.666667%);stroke-opacity:1;stroke-miterlimit:10;" d="M 456.425781 548.257813 C 456.425781 550.257813 453.425781 550.257813 453.425781 548.257813 C 453.425781 546.257813 456.425781 546.257813 456.425781 548.257813 "/>
<path style="fill:none;stroke-width:0.2;stroke-linecap:butt;stroke-linejoin:miter;stroke:rgb(26.666667%,26.666667%,26.666667%);stroke-opacity:1;stroke-miterlimit:10;" d="M 577.832031 282.65625 L 579.839844 296.824219 "/>
<path style=" stroke:none;fill-rule:nonzero;fill:rgb(26.666667%,26.666667%,26.666667%);fill-opacity:1;" d="M 579.859375 296.964844 L 579.792969 296.832031 L 579.886719 296.816406 L 579.859375 296.964844 "/>
<path style="fill:none;stroke-width:0.2;stroke-linecap:butt;stroke-linejoin:miter;stroke:rgb(26.666667%,26.666667%,26.666667%);stroke-opacity:1;stroke-miterlimit:10;" d="M 264.511719 40.320313 L 278.140625 45.726563 "/>
<path style=" stroke:none;fill-rule:nonzero;fill:rgb(26.666667%,26.666667%,26.666667%);fill-opacity:1;" d="M 278.273438 45.777344 L 278.125 45.769531 L 278.15625 45.679688 L 278.273438 45.777344 "/>
<path style="fill:none;stroke-width:0.2;stroke-linecap:butt;stroke-linejoin:miter;stroke:rgb(26.666667%,26.666667%,26.666667%);stroke-opacity:1;stroke-miterlimit:10;" d="M 515.898438 315.652344 L 513.746094 329.667969 "/>
<path style=" stroke:none;fill-rule:nonzero;fill:rgb(26.666667%,26.666667%,26.666667%);fill-opacity:1;" d="M 513.726563 329.808594 L 513.699219 329.660156 L 513.792969 329.671875 L 513.726563 329.808594 "/>
<path style="fill:none;stroke-width:0.2;stroke-linecap:butt;stroke-linejoin:miter;stroke:rgb(26.666667%,26.666667%,26.666667%);stroke-opacity:1;stroke-miterlimit:10;" d="M 494.28125 217.132813 L 479.570313 219.046875 "/>
<path style=" stroke:none;fill-rule:nonzero;fill:rgb(26.666667%,26.666667%,26.666667%);fill-opacity:1;" d="M 479.429688 219.066406 L 479.566406 219.003906 L 479.578125 219.09375 L 479.429688 219.066406 "/>
<path style="fill:none;stroke-width:0.2;stroke-linecap:butt;stroke-linejoin:miter;stroke:rgb(26.666667%,26.666667%,26.666667%);stroke-opacity:1;stroke-miterlimit:10;" d="M 178.132813 366.660156 L 193.070313 349.34375 "/>
<path style=" stroke:none;fill-rule:nonzero;fill:rgb(26.666667%,26.666667%,26.666667%);fill-opacity:1;" d="M 193.164063 349.234375 L 193.105469 349.375 L 193.035156 349.3125 L 193.164063 349.234375 "/>
<path style="fill:none;stroke-width:0.2;stroke-linecap:butt;stroke-linejoin:miter;stroke:rgb(26.666667%,26.666667%,26.666667%);stroke-opacity:1;stroke-miterlimit:10;" d="M 512.355469 109.527344 C 512.355469 111.527344 509.355469 111.527344 509.355469 109.527344 C 509.355469 107.527344 512.355469 107.527344 512.355469 109.527344 "/>
<path style="fill:none;stroke-width:0.2;stroke-linecap:butt;stroke-linejoin:miter;stroke:rgb(26.666667%,26.666667%,26.666667%);stroke-opacity:1;stroke-miterlimit:10;" d="M 61.746094 284.480469 C 61.746094 286.480469 58.746094 286.480469 58.746094 284.480469 C 58.746094 282.480469 61.746094 282.480469 61.746094 284.480469 "/>
<path style="fill:none;stroke-width:0.2;stroke-linecap:butt;stroke-linejoin:miter;stroke:rgb(26.666667%,26.666667%,26.666667%);stroke-opacity:1;stroke-miterlimit:10;" d="M 168.542969 35.164063 C 168.542969 37.164063 165.542969 37.164063 165.542969 35.164063 C 165.542969 33.164063 168.542969 33.164063 168.542969 35.164063 "/>
<path style="fill:none;stroke-width:0.2;stroke-linecap:butt;stroke-linejoin:miter;stroke:rgb(26.666667%,26.666667%,26.666667%);stroke-opacity:1;stroke-miterlimit:10;" d="M 500.179688 265.527344 C 500.179688 267.527344 497.179688 267.527344 497.179688 265.527344 C 497.179688 263.527344 500.179688 263.527344 500.179688 265.527344 "/>
<path style="fill:none;stroke-width:0.2;stroke-linecap:butt;stroke-linejoin:miter;stroke:rgb(26.666667%,26.666667%,26.666667%);stroke-opacity:1;stroke-miterlimit:10;" d="M 230.308594 300.222656 C 230.308594 302.222656 227.308594 302.222656 227.308594 300.222656 C 227.308594 298.222656 230.308594 298.222656 230.308594 300.222656 "/>
<path style="fill:none;stroke-width:0.2;stroke-linecap:butt;stroke-linejoin:miter;stroke:rgb(26.666667%,26.666667%,26.666667%);stroke-opacity:1;stroke-miterlimit:10;" d="M 485.773438 466.011719 C 485.773438 468.011719 482.773438 468.011719 482.773438 466.011719 C 482.773438 464.011719 485.773438 464.011719 485.773438 466.011719 "/>
<path style="fill:none;stroke-width:0.2;stroke-linecap:butt;stroke-linejoin:miter;stroke:rgb(26.666667%,26.666667%,26.666667%);stroke-opacity:1;stroke-miterlimit:10;" d="M 365.304688 331.363281 C 365.304688 333.363281 362.304688 333.363281 362.304688 331.363281 C 362.304688 329.363281 365.304688 329.363281 365.304688 331.363281 "/>
<path style="fill:none;stroke-width:0.2;stroke-linecap:butt;stroke-linejoin:miter;stroke:rgb(26.666667%,26.666667%,26.666667%);stroke-opacity:1;stroke-miterlimit:10;" d="M 215.542969 205.925781 L 216.410156 191.917969 "/>
<path style=" stroke:none;fill-rule:nonzero;fill:rgb(26.666667%,26.666667%,26.666667%);fill-opacity:1;" d="M 216.421875 191.777344 L 216.457031 191.921875 L 216.367188 191.914063 L 216.421875 191.777344 "/>
<path style="fill:none;stroke-width:0.2;stroke-linecap:butt;stroke-linejoin:miter;stroke:rgb(26.666667%,26.666667%,26.666667%);stroke-opacity:1;stroke-miterlimit:10;" d="M 115.496094 296.121094 L 130.042969 294.894531 "/>
<path style=" stroke:none;fill-rule:nonzero;fill:rgb(26.666667%,26.666667%,26.666667%);fill-opacity:1;" d="M 130.1875 294.882813 L 130.046875 294.9375 L 130.039063 294.847656 L 130.1875 294.882813 "/>
<path style="fill:none;stroke-width:0.2;stroke-linecap:butt;stroke-linejoin:miter;stroke:rgb(26.666667%,26.666667%,26.666667%);stroke-opacity:1;stroke-miterlimit:10;" d="M 449.902344 95.515625 C 449.902344 97.515625 446.902344 97.515625 446.902344 95.515625 C 446.902344 93.515625 449.902344 93.515625 449.902344 95.515625 "/>
<path style="fill:none;stroke-width:0.2;stroke-linecap:butt;stroke-linejoin:miter;stroke:rgb(26.666667%,26.666667%,26.666667%);stroke-opacity:1;stroke-miterlimit:10;" d="M 310.765625 184.96875 L 324.933594 181.292969 "/>
<path style=" stroke:none;fill-rule:nonzero;fill:rgb(26.666667%,26.666667%,26.666667%);fill-opacity:1;" d="M 325.070313 181.257813 L 324.945313 181.339844 L 324.921875 181.25 L 325.070313 181.257813 "/>
<path style="fill:none;stroke-width:0.2;stroke-linecap:butt;stroke-linejoin:miter;stroke:rgb(26.666667%,26.666667%,26.666667%);stroke-opacity:1;stroke-miterlimit:10;" d="M 153.28125 470.125 C 153.28125 472.125 150.28125 472.125 150.28125 470.125 C 150.28125 468.125 153.28125 468.125 153.28125 470.125 "/>
<path style="fill:none;stroke-width:0.2;stroke-linecap:butt;stroke-linejoin:miter;stroke:rgb(26.666667%,26.666667%,26.666667%);stroke-opacity:1;stroke-miterlimit:10;" d="M 350.730469 245.984375 L 341.585938 258.558594 "/>
<path style=" stroke:none;fill-rule:nonzero;fill:rgb(26.666667%,26.666667%,26.666667%);fill-opacity:1;" d="M 341.503906 258.675781 L 341.550781 258.53125 L 341.625 258.585938 L 341.503906 258.675781 "/>
<path style="fill:none;stroke-width:0.2;stroke-linecap:butt;stroke-linejoin:miter;stroke:rgb(26.666667%,26.666667%,26.666667%);stroke-opacity:1;stroke-miterlimit:10;" d="M 350.730469 245.984375 L 360.546875 233.832031 "/>
<path style=" stroke:none;fill-rule:nonzero;fill:rgb(26.666667%,26.666667%,26.666667%);fill-opacity:1;" d="M 360.636719 233.722656 L 360.582031 233.863281 L 360.511719 233.804688 L 360.636719 233.722656 "/>
<path style="fill:none;stroke-width:0.2;stroke-linecap:butt;stroke-linejoin:miter;stroke:rgb(26.666667%,26.666667%,26.666667%);stroke-opacity:1;stroke-miterlimit:10;" d="M 86.191406 474.359375 C 86.191406 476.359375 83.191406 476.359375 83.191406 474.359375 C 83.191406 472.359375 86.191406 472.359375 86.191406 474.359375 "/>
<path style="fill:none;stroke-width:0.2;stroke-linecap:butt;stroke-linejoin:miter;stroke:rgb(26.666667%,26.666667%,26.666667%);stroke-opacity:1;stroke-miterlimit:10;" d="M 384.914063 79.234375 L 373.003906 70.785156 "/>
<path style=" stroke:none;fill-rule:nonzero;fill:rgb(26.666667%,26.666667%,26.666667%);fill-opacity:1;" d="M 372.886719 70.703125 L 373.03125 70.746094 L 372.976563 70.820313 L 372.886719 70.703125 "/>
<path style="fill:none;stroke-width:0.2;stroke-linecap:butt;stroke-linejoin:miter;stroke:rgb(26.666667%,26.666667%,26.666667%);stroke-opacity:1;stroke-miterlimit:10;" d="M 275.683594 533.515625 C 275.683594 535.515625 272.683594 535.515625 272.683594 533.515625 C 272.683594 531.515625 275.683594 531.515625 275.683594 533.515625 "/>
<path style="fill:none;stroke-width:0.2;stroke-linecap:butt;stroke-linejoin:miter;stroke:rgb(26.666667%,26.666667%,26.666667%);stroke-opacity:1;stroke-miterlimit:10;" d="M 140.078125 532.796875 C 140.078125 534.796875 137.078125 534.796875 137.078125 532.796875 C 137.078125 530.796875 140.078125 530.796875 140.078125 532.796875 "/>
<path style="fill:none;stroke-width:0.2;stroke-linecap:butt;stroke-linejoin:miter;stroke:rgb(26.666667%,26.666667%,26.666667%);stroke-opacity:1;stroke-miterlimit:10;" d="M 308.476563 332.199219 L 293.824219 332.574219 "/>
<path style=" stroke:none;fill-rule:nonzero;fill:rgb(26.666667%,26.666667%,26.666667%);fill-opacity:1;" d="M 293.679688 332.578125 L 293.820313 332.53125 L 293.824219 332.621094 L 293.679688 332.578125 "/>
<path style="fill:none;stroke-width:0.2;stroke-linecap:butt;stroke-linejoin:miter;stroke:rgb(26.666667%,26.666667%,26.666667%);stroke-opacity:1;stroke-miterlimit:10;" d="M 397.203125 285.144531 L 403.351563 272.136719 "/>
<path style=" stroke:none;fill-rule:nonzero;fill:rgb(26.666667%,26.666667%,26.666667%);fill-opacity:1;" d="M 403.410156 272.007813 L 403.394531 272.15625 L 403.308594 272.117188 L 403.410156 272.007813 "/>
<path style="fill:none;stroke-width:0.2;stroke-linecap:butt;stroke-linejoin:miter;stroke:rgb(26.666667%,26.666667%,26.666667%);stroke-opacity:1;stroke-miterlimit:10;" d="M 318.105469 468.933594 L 337.542969 461.542969 "/>
<path style=" stroke:none;fill-rule:nonzero;fill:rgb(26.666667%,26.666667%,26.666667%);fill-opacity:1;" d="M 337.679688 461.492188 L 337.5625 461.585938 L 337.527344 461.5 L 337.679688 461.492188 "/>
<path style="fill:none;stroke-width:0.2;stroke-linecap:butt;stroke-linejoin:miter;stroke:rgb(26.666667%,26.666667%,26.666667%);stroke-opacity:1;stroke-miterlimit:10;" d="M 318.105469 468.933594 L 298.753906 460.890625 "/>
<path style=" stroke:none;fill-rule:nonzero;fill:rgb(26.666667%,26.666667%,26.666667%);fill-opacity:1;" d="M 298.621094 460.835938 L 298.769531 460.847656 L 298.734375 460.933594 L 298.621094 460.835938 "/>
<path style="fill:none;stroke-width:0.2;stroke-linecap:butt;stroke-linejoin:miter;stroke:rgb(26.666667%,26.666667%,26.666667%);stroke-opacity:1;stroke-miterlimit:10;" d="M 72.941406 206.15625 L 69.066406 192.359375 "/>
<path style=" stroke:none;fill-rule:nonzero;fill:rgb(26.666667%,26.666667%,26.666667%);fill-opacity:1;" d="M 69.027344 192.222656 L 69.109375 192.347656 L 69.023438 192.371094 L 69.027344 192.222656 "/>
<path style="fill:none;stroke-width:0.2;stroke-linecap:butt;stroke-linejoin:miter;stroke:rgb(26.666667%,26.666667%,26.666667%);stroke-opacity:1;stroke-miterlimit:10;" d="M 279.03125 137.347656 L 285.847656 124.804688 "/>
<path style=" stroke:none;fill-rule:nonzero;fill:rgb(26.666667%,26.666667%,26.666667%);fill-opacity:1;" d="M 285.914063 124.679688 L 285.886719 124.828125 L 285.808594 124.785156 L 285.914063 124.679688 "/>
<path style="fill:none;stroke-width:0.2;stroke-linecap:butt;stroke-linejoin:miter;stroke:rgb(26.666667%,26.666667%,26.666667%);stroke-opacity:1;stroke-miterlimit:10;" d="M 452.679688 280.25 C 452.679688 282.25 449.679688 282.25 449.679688 280.25 C 449.679688 278.25 452.679688 278.25 452.679688 280.25 "/>
<path style="fill:none;stroke-width:0.2;stroke-linecap:butt;stroke-linejoin:miter;stroke:rgb(26.666667%,26.666667%,26.666667%);stroke-opacity:1;stroke-miterlimit:10;" d="M 176.960938 253.871094 L 189.996094 260.359375 "/>
<path style=" stroke:none;fill-rule:nonzero;fill:rgb(26.666667%,26.666667%,26.666667%);fill-opacity:1;" d="M 190.125 260.421875 L 189.976563 260.402344 L 190.019531 260.320313 L 190.125 260.421875 "/>
<path style="fill:none;stroke-width:0.2;stroke-linecap:butt;stroke-linejoin:miter;stroke:rgb(26.666667%,26.666667%,26.666667%);stroke-opacity:1;stroke-miterlimit:10;" d="M 257.316406 387.234375 L 271.382813 383.113281 "/>
<path style=" stroke:none;fill-rule:nonzero;fill:rgb(26.666667%,26.666667%,26.666667%);fill-opacity:1;" d="M 271.519531 383.074219 L 271.394531 383.160156 L 271.371094 383.070313 L 271.519531 383.074219 "/>
<path style="fill:none;stroke-width:0.2;stroke-linecap:butt;stroke-linejoin:miter;stroke:rgb(26.666667%,26.666667%,26.666667%);stroke-opacity:1;stroke-miterlimit:10;" d="M 280.164063 235.617188 L 265.609375 236.792969 "/>
<path style=" stroke:none;fill-rule:nonzero;fill:rgb(26.666667%,26.666667%,26.666667%);fill-opacity:1;" d="M 265.464844 236.804688 L 265.605469 236.746094 L 265.613281 236.839844 L 265.464844 236.804688 "/>
<path style="fill:none;stroke-width:0.2;stroke-linecap:butt;stroke-linejoin:miter;stroke:rgb(26.666667%,26.666667%,26.666667%);stroke-opacity:1;stroke-miterlimit:10;" d="M 427.816406 479.542969 L 427.75 465.285156 "/>
<path style=" stroke:none;fill-rule:nonzero;fill:rgb(26.666667%,26.666667%,26.666667%);fill-opacity:1;" d="M 427.75 465.140625 L 427.796875 465.28125 L 427.703125 465.285156 L 427.75 465.140625 "/>
<path style="fill:none;stroke-width:0.2;stroke-linecap:butt;stroke-linejoin:miter;stroke:rgb(26.666667%,26.666667%,26.666667%);stroke-opacity:1;stroke-miterlimit:10;" d="M 183.34375 86.933594 L 170.289063 93.765625 "/>
<path style=" stroke:none;fill-rule:nonzero;fill:rgb(26.666667%,26.666667%,26.666667%);fill-opacity:1;" d="M 170.164063 93.832031 L 170.265625 93.722656 L 170.308594 93.804688 L 170.164063 93.832031 "/>
<path style="fill:none;stroke-width:0.2;stroke-linecap:butt;stroke-linejoin:miter;stroke:rgb(26.666667%,26.666667%,26.666667%);stroke-opacity:1;stroke-miterlimit:10;" d="M 136.308594 205.082031 L 140.601563 191.46875 "/>
<path style=" stroke:none;fill-rule:nonzero;fill:rgb(26.666667%,26.666667%,26.666667%);fill-opacity:1;" d="M 140.644531 191.332031 L 140.648438 191.484375 L 140.558594 191.457031 L 140.644531 191.332031 "/>
<path style="fill:none;stroke-width:0.2;stroke-linecap:butt;stroke-linejoin:miter;stroke:rgb(26.666667%,26.666667%,26.666667%);stroke-opacity:1;stroke-miterlimit:10;" d="M 176.304688 349.910156 L 194.605469 364.675781 "/>
<path style=" stroke:none;fill-rule:nonzero;fill:rgb(26.666667%,26.666667%,26.666667%);fill-opacity:1;" d="M 194.714844 364.765625 L 194.574219 364.710938 L 194.632813 364.640625 L 194.714844 364.765625 "/>
<path style="fill:none;stroke-width:0.2;stroke-linecap:butt;stroke-linejoin:miter;stroke:rgb(26.666667%,26.666667%,26.666667%);stroke-opacity:1;stroke-miterlimit:10;" d="M 302.859375 578.9375 C 302.859375 580.9375 299.859375 580.9375 299.859375 578.9375 C 299.859375 576.9375 302.859375 576.9375 302.859375 578.9375 "/>
<path style="fill:none;stroke-width:0.2;stroke-linecap:butt;stroke-linejoin:miter;stroke:rgb(26.666667%,26.666667%,26.666667%);stroke-opacity:1;stroke-miterlimit:10;" d="M 381.839844 154.929688 L 393.800781 163.097656 "/>
<path style=" stroke:none;fill-rule:nonzero;fill:rgb(26.666667%,26.666667%,26.666667%);fill-opacity:1;" d="M 393.917969 163.179688 L 393.773438 163.136719 L 393.828125 163.0625 L 393.917969 163.179688 "/>
<path style="fill:none;stroke-width:0.2;stroke-linecap:butt;stroke-linejoin:miter;stroke:rgb(26.666667%,26.666667%,26.666667%);stroke-opacity:1;stroke-miterlimit:10;" d="M 149.242188 420.90625 L 136.222656 414.214844 "/>
<path style=" stroke:none;fill-rule:nonzero;fill:rgb(26.666667%,26.666667%,26.666667%);fill-opacity:1;" d="M 136.097656 414.148438 L 136.242188 414.171875 L 136.203125 414.253906 L 136.097656 414.148438 "/>
<path style="fill:none;stroke-width:0.2;stroke-linecap:butt;stroke-linejoin:miter;stroke:rgb(26.666667%,26.666667%,26.666667%);stroke-opacity:1;stroke-miterlimit:10;" d="M 561.445313 375.199219 C 561.445313 377.199219 558.445313 377.199219 558.445313 375.199219 C 558.445313 373.199219 561.445313 373.199219 561.445313 375.199219 "/>
<path style="fill:none;stroke-width:0.2;stroke-linecap:butt;stroke-linejoin:miter;stroke:rgb(26.666667%,26.666667%,26.666667%);stroke-opacity:1;stroke-miterlimit:10;" d="M 229.003906 481.691406 C 229.003906 483.691406 226.003906 483.691406 226.003906 481.691406 C 226.003906 479.691406 229.003906 479.691406 229.003906 481.691406 "/>
<path style="fill:none;stroke-width:0.2;stroke-linecap:butt;stroke-linejoin:miter;stroke:rgb(26.666667%,26.666667%,26.666667%);stroke-opacity:1;stroke-miterlimit:10;" d="M 189.972656 504.6875 C 189.972656 506.6875 186.972656 506.6875 186.972656 504.6875 C 186.972656 502.6875 189.972656 502.6875 189.972656 504.6875 "/>
<path style="fill:none;stroke-width:0.2;stroke-linecap:butt;stroke-linejoin:miter;stroke:rgb(26.666667%,26.666667%,26.666667%);stroke-opacity:1;stroke-miterlimit:10;" d="M 22.5625 238.855469 C 22.5625 240.855469 19.5625 240.855469 19.5625 238.855469 C 19.5625 236.855469 22.5625 236.855469 22.5625 238.855469 "/>
<path style="fill:none;stroke-width:0.2;stroke-linecap:butt;stroke-linejoin:miter;stroke:rgb(26.666667%,26.666667%,26.666667%);stroke-opacity:1;stroke-miterlimit:10;" d="M 397.867188 379.378906 L 408.085938 389.671875 "/>
<path style=" stroke:none;fill-rule:nonzero;fill:rgb(26.666667%,26.666667%,26.666667%);fill-opacity:1;" d="M 408.1875 389.773438 L 408.054688 389.707031 L 408.121094 389.640625 L 408.1875 389.773438 "/>
<path style="fill:none;stroke-width:0.2;stroke-linecap:butt;stroke-linejoin:miter;stroke:rgb(26.666667%,26.666667%,26.666667%);stroke-opacity:1;stroke-miterlimit:10;" d="M 467.714844 161.75 L 453.351563 164.800781 "/>
<path style=" stroke:none;fill-rule:nonzero;fill:rgb(26.666667%,26.666667%,26.666667%);fill-opacity:1;" d="M 453.210938 164.828125 L 453.34375 164.753906 L 453.359375 164.84375 L 453.210938 164.828125 "/>
<path style="fill:none;stroke-width:0.2;stroke-linecap:butt;stroke-linejoin:miter;stroke:rgb(26.666667%,26.666667%,26.666667%);stroke-opacity:1;stroke-miterlimit:10;" d="M 43.578125 335.421875 C 43.578125 337.421875 40.578125 337.421875 40.578125 335.421875 C 40.578125 333.421875 43.578125 333.421875 43.578125 335.421875 "/>
<path style="fill-rule:nonzero;fill:rgb(100%,0%,0%);fill-opacity:1;stroke-width:0.01;stroke-linecap:butt;stroke-linejoin:miter;stroke:rgb(0%,0%,0%);stroke-opacity:1;stroke-miterlimit:10;" d="M 304.863281 443.101563 C 304.863281 444.433594 302.863281 444.433594 302.863281 443.101563 C 302.863281 441.769531 304.863281 441.769531 304.863281 443.101563 "/>
<path style="fill-rule:nonzero;fill:rgb(100%,0%,0%);fill-opacity:1;stroke-width:0.01;stroke-linecap:butt;stroke-linejoin:miter;stroke:rgb(0%,0%,0%);stroke-opacity:1;stroke-miterlimit:10;" d="M 298.699219 460.449219 C 298.699219 461.785156 296.699219 461.785156 296.699219 460.449219 C 296.699219 459.117188 298.699219 459.117188 298.699219 460.449219 "/>
<path style="fill-rule:nonzero;fill:rgb(100%,0%,0%);fill-opacity:1;stroke-width:0.01;stroke-linecap:butt;stroke-linejoin:miter;stroke:rgb(0%,0%,0%);stroke-opacity:1;stroke-miterlimit:10;" d="M 318.640625 433.285156 C 318.640625 434.621094 316.640625 434.621094 316.640625 433.285156 C 316.640625 431.953125 318.640625 431.953125 318.640625 433.285156 "/>
<path style="fill-rule:nonzero;fill:rgb(100%,0%,0%);fill-opacity:1;stroke-width:0.01;stroke-linecap:butt;stroke-linejoin:miter;stroke:rgb(0%,0%,0%);stroke-opacity:1;stroke-miterlimit:10;" d="M 538.523438 452.476563 C 538.523438 453.8125 536.523438 453.8125 536.523438 452.476563 C 536.523438 451.144531 538.523438 451.144531 538.523438 452.476563 "/>
<path style="fill-rule:nonzero;fill:rgb(100%,0%,0%);fill-opacity:1;stroke-width:0.01;stroke-linecap:butt;stroke-linejoin:miter;stroke:rgb(0%,0%,0%);stroke-opacity:1;stroke-miterlimit:10;" d="M 542.789063 437.667969 C 542.789063 439.003906 540.789063 439.003906 540.789063 437.667969 C 540.789063 436.335938 542.789063 436.335938 542.789063 437.667969 "/>
<path style="fill-rule:nonzero;fill:rgb(100%,0%,0%);fill-opacity:1;stroke-width:0.01;stroke-linecap:butt;stroke-linejoin:miter;stroke:rgb(0%,0%,0%);stroke-opacity:1;stroke-miterlimit:10;" d="M 442.011719 339.730469 C 442.011719 341.0625 440.011719 341.0625 440.011719 339.730469 C 440.011719 338.398438 442.011719 338.398438 442.011719 339.730469 "/>
<path style="fill-rule:nonzero;fill:rgb(100%,0%,0%);fill-opacity:1;stroke-width:0.01;stroke-linecap:butt;stroke-linejoin:miter;stroke:rgb(0%,0%,0%);stroke-opacity:1;stroke-miterlimit:10;" d="M 455 348.527344 C 455 349.859375 453 349.859375 453 348.527344 C 453 347.195313 455 347.195313 455 348.527344 "/>
<path style="fill-rule:nonzero;fill:rgb(100%,0%,0%);fill-opacity:1;stroke-width:0.01;stroke-linecap:butt;stroke-linejoin:miter;stroke:rgb(0%,0%,0%);stroke-opacity:1;stroke-miterlimit:10;" d="M 372.804688 550.769531 C 372.804688 552.105469 370.804688 552.105469 370.804688 550.769531 C 370.804688 549.4375 372.804688 549.4375 372.804688 550.769531 "/>
<path style="fill-rule:nonzero;fill:rgb(100%,0%,0%);fill-opacity:1;stroke-width:0.01;stroke-linecap:butt;stroke-linejoin:miter;stroke:rgb(0%,0%,0%);stroke-opacity:1;stroke-miterlimit:10;" d="M 385.464844 541.5 C 385.464844 542.832031 383.464844 542.832031 383.464844 541.5 C 383.464844 540.167969 385.464844 540.167969 385.464844 541.5 "/>
<path style="fill-rule:nonzero;fill:rgb(100%,0%,0%);fill-opacity:1;stroke-width:0.01;stroke-linecap:butt;stroke-linejoin:miter;stroke:rgb(0%,0%,0%);stroke-opacity:1;stroke-miterlimit:10;" d="M 215.894531 563.746094 C 215.894531 565.082031 213.894531 565.082031 213.894531 563.746094 C 213.894531 562.414063 215.894531 562.414063 215.894531 563.746094 "/>
<path style="fill-rule:nonzero;fill:rgb(100%,0%,0%);fill-opacity:1;stroke-width:0.01;stroke-linecap:butt;stroke-linejoin:miter;stroke:rgb(0%,0%,0%);stroke-opacity:1;stroke-miterlimit:10;" d="M 397.535156 20 C 397.535156 21.332031 395.535156 21.332031 395.535156 20 C 395.535156 18.667969 397.535156 18.667969 397.535156 20 "/>
<path style="fill-rule:nonzero;fill:rgb(100%,0%,0%);fill-opacity:1;stroke-width:0.01;stroke-linecap:butt;stroke-linejoin:miter;stroke:rgb(0%,0%,0%);stroke-opacity:1;stroke-miterlimit:10;" d="M 332.863281 101.875 C 332.863281 103.207031 330.863281 103.207031 330.863281 101.875 C 330.863281 100.542969 332.863281 100.542969 332.863281 101.875 "/>
<path style="fill-rule:nonzero;fill:rgb(100%,0%,0%);fill-opacity:1;stroke-width:0.01;stroke-linecap:butt;stroke-linejoin:miter;stroke:rgb(0%,0%,0%);stroke-opacity:1;stroke-miterlimit:10;" d="M 279.191406 458.816406 C 279.191406 460.148438 277.191406 460.148438 277.191406 458.816406 C 277.191406 457.480469 279.191406 457.480469 279.191406 458.816406 "/>
<path style="fill-rule:nonzero;fill:rgb(100%,0%,0%);fill-opacity:1;stroke-width:0.01;stroke-linecap:butt;stroke-linejoin:miter;stroke:rgb(0%,0%,0%);stroke-opacity:1;stroke-miterlimit:10;" d="M 276.53125 287.390625 C 276.53125 288.722656 274.53125 288.722656 274.53125 287.390625 C 274.53125 286.058594 276.53125 286.058594 276.53125 287.390625 "/>
<path style="fill-rule:nonzero;fill:rgb(100%,0%,0%);fill-opacity:1;stroke-width:0.01;stroke-linecap:butt;stroke-linejoin:miter;stroke:rgb(0%,0%,0%);stroke-opacity:1;stroke-miterlimit:10;" d="M 106.648438 128.394531 C 106.648438 129.730469 104.648438 129.730469 104.648438 128.394531 C 104.648438 127.0625 106.648438 127.0625 106.648438 128.394531 "/>
<path style="fill-rule:nonzero;fill:rgb(100%,0%,0%);fill-opacity:1;stroke-width:0.01;stroke-linecap:butt;stroke-linejoin:miter;stroke:rgb(0%,0%,0%);stroke-opacity:1;stroke-miterlimit:10;" d="M 72.953125 387.003906 C 72.953125 388.335938 70.953125 388.335938 70.953125 387.003906 C 70.953125 385.671875 72.953125 385.671875 72.953125 387.003906 "/>
<path style="fill-rule:nonzero;fill:rgb(100%,0%,0%);fill-opacity:1;stroke-width:0.01;stroke-linecap:butt;stroke-linejoin:miter;stroke:rgb(0%,0%,0%);stroke-opacity:1;stroke-miterlimit:10;" d="M 67.917969 401.597656 C 67.917969 402.929688 65.917969 402.929688 65.917969 401.597656 C 65.917969 400.265625 67.917969 400.265625 67.917969 401.597656 "/>
<path style="fill-rule:nonzero;fill:rgb(100%,0%,0%);fill-opacity:1;stroke-width:0.01;stroke-linecap:butt;stroke-linejoin:miter;stroke:rgb(0%,0%,0%);stroke-opacity:1;stroke-miterlimit:10;" d="M 551.0625 176.957031 C 551.0625 178.292969 549.0625 178.292969 549.0625 176.957031 C 549.0625 175.625 551.0625 175.625 551.0625 176.957031 "/>
<path style="fill-rule:nonzero;fill:rgb(100%,0%,0%);fill-opacity:1;stroke-width:0.01;stroke-linecap:butt;stroke-linejoin:miter;stroke:rgb(0%,0%,0%);stroke-opacity:1;stroke-miterlimit:10;" d="M 482.703125 401.207031 C 482.703125 402.542969 480.703125 402.542969 480.703125 401.207031 C 480.703125 399.875 482.703125 399.875 482.703125 401.207031 "/>
<path style="fill-rule:nonzero;fill:rgb(100%,0%,0%);fill-opacity:1;stroke-width:0.01;stroke-linecap:butt;stroke-linejoin:miter;stroke:rgb(0%,0%,0%);stroke-opacity:1;stroke-miterlimit:10;" d="M 209.292969 139.269531 C 209.292969 140.601563 207.292969 140.601563 207.292969 139.269531 C 207.292969 137.933594 209.292969 137.933594 209.292969 139.269531 "/>
<path style="fill-rule:nonzero;fill:rgb(100%,0%,0%);fill-opacity:1;stroke-width:0.01;stroke-linecap:butt;stroke-linejoin:miter;stroke:rgb(0%,0%,0%);stroke-opacity:1;stroke-miterlimit:10;" d="M 222.6875 131.011719 C 222.6875 132.34375 220.6875 132.34375 220.6875 131.011719 C 220.6875 129.679688 222.6875 129.679688 222.6875 131.011719 "/>
<path style="fill-rule:nonzero;fill:rgb(100%,0%,0%);fill-opacity:1;stroke-width:0.01;stroke-linecap:butt;stroke-linejoin:miter;stroke:rgb(0%,0%,0%);stroke-opacity:1;stroke-miterlimit:10;" d="M 352.210938 443.683594 C 352.210938 445.019531 350.210938 445.019531 350.210938 443.683594 C 350.210938 442.351563 352.210938 442.351563 352.210938 443.683594 "/>
<path style="fill-rule:nonzero;fill:rgb(100%,0%,0%);fill-opacity:1;stroke-width:0.01;stroke-linecap:butt;stroke-linejoin:miter;stroke:rgb(0%,0%,0%);stroke-opacity:1;stroke-miterlimit:10;" d="M 339.613281 461.136719 C 339.613281 462.472656 337.613281 462.472656 337.613281 461.136719 C 337.613281 459.804688 339.613281 459.804688 339.613281 461.136719 "/>
<path style="fill-rule:nonzero;fill:rgb(100%,0%,0%);fill-opacity:1;stroke-width:0.01;stroke-linecap:butt;stroke-linejoin:miter;stroke:rgb(0%,0%,0%);stroke-opacity:1;stroke-miterlimit:10;" d="M 356.664063 425.613281 C 356.664063 426.945313 354.664063 426.945313 354.664063 425.613281 C 354.664063 424.28125 356.664063 424.28125 356.664063 425.613281 "/>
<path style="fill-rule:nonzero;fill:rgb(100%,0%,0%);fill-opacity:1;stroke-width:0.01;stroke-linecap:butt;stroke-linejoin:miter;stroke:rgb(0%,0%,0%);stroke-opacity:1;stroke-miterlimit:10;" d="M 454.867188 549.320313 C 454.867188 550.652344 452.867188 550.652344 452.867188 549.320313 C 452.867188 547.988281 454.867188 547.988281 454.867188 549.320313 "/>
<path style="fill-rule:nonzero;fill:rgb(100%,0%,0%);fill-opacity:1;stroke-width:0.01;stroke-linecap:butt;stroke-linejoin:miter;stroke:rgb(0%,0%,0%);stroke-opacity:1;stroke-miterlimit:10;" d="M 578.832031 282.65625 C 578.832031 283.992188 576.832031 283.992188 576.832031 282.65625 C 576.832031 281.324219 578.832031 281.324219 578.832031 282.65625 "/>
<path style="fill-rule:nonzero;fill:rgb(100%,0%,0%);fill-opacity:1;stroke-width:0.01;stroke-linecap:butt;stroke-linejoin:miter;stroke:rgb(0%,0%,0%);stroke-opacity:1;stroke-miterlimit:10;" d="M 581 297.957031 C 581 299.289063 579 299.289063 579 297.957031 C 579 296.621094 581 296.621094 581 297.957031 "/>
<path style="fill-rule:nonzero;fill:rgb(100%,0%,0%);fill-opacity:1;stroke-width:0.01;stroke-linecap:butt;stroke-linejoin:miter;stroke:rgb(0%,0%,0%);stroke-opacity:1;stroke-miterlimit:10;" d="M 265.511719 40.320313 C 265.511719 41.65625 263.511719 41.65625 263.511719 40.320313 C 263.511719 38.988281 265.511719 38.988281 265.511719 40.320313 "/>
<path style="fill-rule:nonzero;fill:rgb(100%,0%,0%);fill-opacity:1;stroke-width:0.01;stroke-linecap:butt;stroke-linejoin:miter;stroke:rgb(0%,0%,0%);stroke-opacity:1;stroke-miterlimit:10;" d="M 280.203125 46.144531 C 280.203125 47.480469 278.203125 47.480469 278.203125 46.144531 C 278.203125 44.8125 280.203125 44.8125 280.203125 46.144531 "/>
<path style="fill-rule:nonzero;fill:rgb(100%,0%,0%);fill-opacity:1;stroke-width:0.01;stroke-linecap:butt;stroke-linejoin:miter;stroke:rgb(0%,0%,0%);stroke-opacity:1;stroke-miterlimit:10;" d="M 516.898438 315.652344 C 516.898438 316.988281 514.898438 316.988281 514.898438 315.652344 C 514.898438 314.320313 516.898438 314.320313 516.898438 315.652344 "/>
<path style="fill-rule:nonzero;fill:rgb(100%,0%,0%);fill-opacity:1;stroke-width:0.01;stroke-linecap:butt;stroke-linejoin:miter;stroke:rgb(0%,0%,0%);stroke-opacity:1;stroke-miterlimit:10;" d="M 514.574219 330.796875 C 514.574219 332.128906 512.574219 332.128906 512.574219 330.796875 C 512.574219 329.460938 514.574219 329.460938 514.574219 330.796875 "/>
<path style="fill-rule:nonzero;fill:rgb(100%,0%,0%);fill-opacity:1;stroke-width:0.01;stroke-linecap:butt;stroke-linejoin:miter;stroke:rgb(0%,0%,0%);stroke-opacity:1;stroke-miterlimit:10;" d="M 495.28125 217.132813 C 495.28125 218.464844 493.28125 218.464844 493.28125 217.132813 C 493.28125 215.800781 495.28125 215.800781 495.28125 217.132813 "/>
<path style="fill-rule:nonzero;fill:rgb(100%,0%,0%);fill-opacity:1;stroke-width:0.01;stroke-linecap:butt;stroke-linejoin:miter;stroke:rgb(0%,0%,0%);stroke-opacity:1;stroke-miterlimit:10;" d="M 479.4375 219.195313 C 479.4375 220.53125 477.4375 220.53125 477.4375 219.195313 C 477.4375 217.863281 479.4375 217.863281 479.4375 219.195313 "/>
<path style="fill-rule:nonzero;fill:rgb(100%,0%,0%);fill-opacity:1;stroke-width:0.01;stroke-linecap:butt;stroke-linejoin:miter;stroke:rgb(0%,0%,0%);stroke-opacity:1;stroke-miterlimit:10;" d="M 179.132813 366.660156 C 179.132813 367.992188 177.132813 367.992188 177.132813 366.660156 C 177.132813 365.328125 179.132813 365.328125 179.132813 366.660156 "/>
<path style="fill-rule:nonzero;fill:rgb(100%,0%,0%);fill-opacity:1;stroke-width:0.01;stroke-linecap:butt;stroke-linejoin:miter;stroke:rgb(0%,0%,0%);stroke-opacity:1;stroke-miterlimit:10;" d="M 194.816406 348.476563 C 194.816406 349.8125 192.816406 349.8125 192.816406 348.476563 C 192.816406 347.144531 194.816406 347.144531 194.816406 348.476563 "/>
<path style="fill-rule:nonzero;fill:rgb(100%,0%,0%);fill-opacity:1;stroke-width:0.01;stroke-linecap:butt;stroke-linejoin:miter;stroke:rgb(0%,0%,0%);stroke-opacity:1;stroke-miterlimit:10;" d="M 510.796875 110.585938 C 510.796875 111.917969 508.796875 111.917969 508.796875 110.585938 C 508.796875 109.253906 510.796875 109.253906 510.796875 110.585938 "/>
<path style="fill-rule:nonzero;fill:rgb(100%,0%,0%);fill-opacity:1;stroke-width:0.01;stroke-linecap:butt;stroke-linejoin:miter;stroke:rgb(0%,0%,0%);stroke-opacity:1;stroke-miterlimit:10;" d="M 60.183594 285.542969 C 60.183594 286.875 58.183594 286.875 58.183594 285.542969 C 58.183594 284.210938 60.183594 284.210938 60.183594 285.542969 "/>
<path style="fill-rule:nonzero;fill:rgb(100%,0%,0%);fill-opacity:1;stroke-width:0.01;stroke-linecap:butt;stroke-linejoin:miter;stroke:rgb(0%,0%,0%);stroke-opacity:1;stroke-miterlimit:10;" d="M 166.980469 36.226563 C 166.980469 37.558594 164.980469 37.558594 164.980469 36.226563 C 164.980469 34.890625 166.980469 34.890625 166.980469 36.226563 "/>
<path style="fill-rule:nonzero;fill:rgb(100%,0%,0%);fill-opacity:1;stroke-width:0.01;stroke-linecap:butt;stroke-linejoin:miter;stroke:rgb(0%,0%,0%);stroke-opacity:1;stroke-miterlimit:10;" d="M 498.621094 266.589844 C 498.621094 267.921875 496.621094 267.921875 496.621094 266.589844 C 496.621094 265.257813 498.621094 265.257813 498.621094 266.589844 "/>
<path style="fill-rule:nonzero;fill:rgb(100%,0%,0%);fill-opacity:1;stroke-width:0.01;stroke-linecap:butt;stroke-linejoin:miter;stroke:rgb(0%,0%,0%);stroke-opacity:1;stroke-miterlimit:10;" d="M 228.746094 301.285156 C 228.746094 302.617188 226.746094 302.617188 226.746094 301.285156 C 226.746094 299.953125 228.746094 299.953125 228.746094 301.285156 "/>
<path style="fill-rule:nonzero;fill:rgb(100%,0%,0%);fill-opacity:1;stroke-width:0.01;stroke-linecap:butt;stroke-linejoin:miter;stroke:rgb(0%,0%,0%);stroke-opacity:1;stroke-miterlimit:10;" d="M 484.210938 467.070313 C 484.210938 468.40625 482.210938 468.40625 482.210938 467.070313 C 482.210938 465.738281 484.210938 465.738281 484.210938 467.070313 "/>
<path style="fill-rule:nonzero;fill:rgb(100%,0%,0%);fill-opacity:1;stroke-width:0.01;stroke-linecap:butt;stroke-linejoin:miter;stroke:rgb(0%,0%,0%);stroke-opacity:1;stroke-miterlimit:10;" d="M 363.746094 332.421875 C 363.746094 333.757813 361.746094 333.757813 361.746094 332.421875 C 361.746094 331.089844 363.746094 331.089844 363.746094 332.421875 "/>
<path style="fill-rule:nonzero;fill:rgb(100%,0%,0%);fill-opacity:1;stroke-width:0.01;stroke-linecap:butt;stroke-linejoin:miter;stroke:rgb(0%,0%,0%);stroke-opacity:1;stroke-miterlimit:10;" d="M 216.542969 205.925781 C 216.542969 207.257813 214.542969 207.257813 214.542969 205.925781 C 214.542969 204.59375 216.542969 204.59375 216.542969 205.925781 "/>
<path style="fill-rule:nonzero;fill:rgb(100%,0%,0%);fill-opacity:1;stroke-width:0.01;stroke-linecap:butt;stroke-linejoin:miter;stroke:rgb(0%,0%,0%);stroke-opacity:1;stroke-miterlimit:10;" d="M 217.480469 190.777344 C 217.480469 192.109375 215.480469 192.109375 215.480469 190.777344 C 215.480469 189.445313 217.480469 189.445313 217.480469 190.777344 "/>
<path style="fill-rule:nonzero;fill:rgb(100%,0%,0%);fill-opacity:1;stroke-width:0.01;stroke-linecap:butt;stroke-linejoin:miter;stroke:rgb(0%,0%,0%);stroke-opacity:1;stroke-miterlimit:10;" d="M 116.496094 296.121094 C 116.496094 297.453125 114.496094 297.453125 114.496094 296.121094 C 114.496094 294.789063 116.496094 294.789063 116.496094 296.121094 "/>
<path style="fill-rule:nonzero;fill:rgb(100%,0%,0%);fill-opacity:1;stroke-width:0.01;stroke-linecap:butt;stroke-linejoin:miter;stroke:rgb(0%,0%,0%);stroke-opacity:1;stroke-miterlimit:10;" d="M 132.183594 294.796875 C 132.183594 296.128906 130.183594 296.128906 130.183594 294.796875 C 130.183594 293.464844 132.183594 293.464844 132.183594 294.796875 "/>
<path style="fill-rule:nonzero;fill:rgb(100%,0%,0%);fill-opacity:1;stroke-width:0.01;stroke-linecap:butt;stroke-linejoin:miter;stroke:rgb(0%,0%,0%);stroke-opacity:1;stroke-miterlimit:10;" d="M 448.339844 96.574219 C 448.339844 97.910156 446.339844 97.910156 446.339844 96.574219 C 446.339844 95.242188 448.339844 95.242188 448.339844 96.574219 "/>
<path style="fill-rule:nonzero;fill:rgb(100%,0%,0%);fill-opacity:1;stroke-width:0.01;stroke-linecap:butt;stroke-linejoin:miter;stroke:rgb(0%,0%,0%);stroke-opacity:1;stroke-miterlimit:10;" d="M 311.765625 184.96875 C 311.765625 186.304688 309.765625 186.304688 309.765625 184.96875 C 309.765625 183.636719 311.765625 183.636719 311.765625 184.96875 "/>
<path style="fill-rule:nonzero;fill:rgb(100%,0%,0%);fill-opacity:1;stroke-width:0.01;stroke-linecap:butt;stroke-linejoin:miter;stroke:rgb(0%,0%,0%);stroke-opacity:1;stroke-miterlimit:10;" d="M 327.039063 181.007813 C 327.039063 182.339844 325.039063 182.339844 325.039063 181.007813 C 325.039063 179.671875 327.039063 179.671875 327.039063 181.007813 "/>
<path style="fill-rule:nonzero;fill:rgb(100%,0%,0%);fill-opacity:1;stroke-width:0.01;stroke-linecap:butt;stroke-linejoin:miter;stroke:rgb(0%,0%,0%);stroke-opacity:1;stroke-miterlimit:10;" d="M 151.722656 471.183594 C 151.722656 472.519531 149.722656 472.519531 149.722656 471.183594 C 149.722656 469.851563 151.722656 469.851563 151.722656 471.183594 "/>
<path style="fill-rule:nonzero;fill:rgb(100%,0%,0%);fill-opacity:1;stroke-width:0.01;stroke-linecap:butt;stroke-linejoin:miter;stroke:rgb(0%,0%,0%);stroke-opacity:1;stroke-miterlimit:10;" d="M 351.730469 245.984375 C 351.730469 247.316406 349.730469 247.316406 349.730469 245.984375 C 349.730469 244.652344 351.730469 244.652344 351.730469 245.984375 "/>
<path style="fill-rule:nonzero;fill:rgb(100%,0%,0%);fill-opacity:1;stroke-width:0.01;stroke-linecap:butt;stroke-linejoin:miter;stroke:rgb(0%,0%,0%);stroke-opacity:1;stroke-miterlimit:10;" d="M 341.914063 259.484375 C 341.914063 260.816406 339.914063 260.816406 339.914063 259.484375 C 339.914063 258.148438 341.914063 258.148438 341.914063 259.484375 "/>
<path style="fill-rule:nonzero;fill:rgb(100%,0%,0%);fill-opacity:1;stroke-width:0.01;stroke-linecap:butt;stroke-linejoin:miter;stroke:rgb(0%,0%,0%);stroke-opacity:1;stroke-miterlimit:10;" d="M 362.265625 232.945313 C 362.265625 234.277344 360.265625 234.277344 360.265625 232.945313 C 360.265625 231.609375 362.265625 231.609375 362.265625 232.945313 "/>
<path style="fill-rule:nonzero;fill:rgb(100%,0%,0%);fill-opacity:1;stroke-width:0.01;stroke-linecap:butt;stroke-linejoin:miter;stroke:rgb(0%,0%,0%);stroke-opacity:1;stroke-miterlimit:10;" d="M 84.628906 475.421875 C 84.628906 476.753906 82.628906 476.753906 82.628906 475.421875 C 82.628906 474.085938 84.628906 474.085938 84.628906 475.421875 "/>
<path style="fill-rule:nonzero;fill:rgb(100%,0%,0%);fill-opacity:1;stroke-width:0.01;stroke-linecap:butt;stroke-linejoin:miter;stroke:rgb(0%,0%,0%);stroke-opacity:1;stroke-miterlimit:10;" d="M 385.914063 79.234375 C 385.914063 80.570313 383.914063 80.570313 383.914063 79.234375 C 383.914063 77.902344 385.914063 77.902344 385.914063 79.234375 "/>
<path style="fill-rule:nonzero;fill:rgb(100%,0%,0%);fill-opacity:1;stroke-width:0.01;stroke-linecap:butt;stroke-linejoin:miter;stroke:rgb(0%,0%,0%);stroke-opacity:1;stroke-miterlimit:10;" d="M 373.070313 70.121094 C 373.070313 71.457031 371.070313 71.457031 371.070313 70.121094 C 371.070313 68.789063 373.070313 68.789063 373.070313 70.121094 "/>
<path style="fill-rule:nonzero;fill:rgb(100%,0%,0%);fill-opacity:1;stroke-width:0.01;stroke-linecap:butt;stroke-linejoin:miter;stroke:rgb(0%,0%,0%);stroke-opacity:1;stroke-miterlimit:10;" d="M 274.121094 534.574219 C 274.121094 535.910156 272.121094 535.910156 272.121094 534.574219 C 272.121094 533.242188 274.121094 533.242188 274.121094 534.574219 "/>
<path style="fill-rule:nonzero;fill:rgb(100%,0%,0%);fill-opacity:1;stroke-width:0.01;stroke-linecap:butt;stroke-linejoin:miter;stroke:rgb(0%,0%,0%);stroke-opacity:1;stroke-miterlimit:10;" d="M 138.515625 533.855469 C 138.515625 535.191406 136.515625 535.191406 136.515625 533.855469 C 136.515625 532.523438 138.515625 532.523438 138.515625 533.855469 "/>
<path style="fill-rule:nonzero;fill:rgb(100%,0%,0%);fill-opacity:1;stroke-width:0.01;stroke-linecap:butt;stroke-linejoin:miter;stroke:rgb(0%,0%,0%);stroke-opacity:1;stroke-miterlimit:10;" d="M 309.476563 332.199219 C 309.476563 333.53125 307.476563 333.53125 307.476563 332.199219 C 307.476563 330.863281 309.476563 330.863281 309.476563 332.199219 "/>
<path style="fill-rule:nonzero;fill:rgb(100%,0%,0%);fill-opacity:1;stroke-width:0.01;stroke-linecap:butt;stroke-linejoin:miter;stroke:rgb(0%,0%,0%);stroke-opacity:1;stroke-miterlimit:10;" d="M 293.679688 332.605469 C 293.679688 333.9375 291.679688 333.9375 291.679688 332.605469 C 291.679688 331.273438 293.679688 331.273438 293.679688 332.605469 "/>
<path style="fill-rule:nonzero;fill:rgb(100%,0%,0%);fill-opacity:1;stroke-width:0.01;stroke-linecap:butt;stroke-linejoin:miter;stroke:rgb(0%,0%,0%);stroke-opacity:1;stroke-miterlimit:10;" d="M 398.203125 285.144531 C 398.203125 286.476563 396.203125 286.476563 396.203125 285.144531 C 396.203125 283.808594 398.203125 283.808594 398.203125 285.144531 "/>
<path style="fill-rule:nonzero;fill:rgb(100%,0%,0%);fill-opacity:1;stroke-width:0.01;stroke-linecap:butt;stroke-linejoin:miter;stroke:rgb(0%,0%,0%);stroke-opacity:1;stroke-miterlimit:10;" d="M 404.839844 271.105469 C 404.839844 272.4375 402.839844 272.4375 402.839844 271.105469 C 402.839844 269.769531 404.839844 269.769531 404.839844 271.105469 "/>
<path style="fill-rule:nonzero;fill:rgb(100%,0%,0%);fill-opacity:1;stroke-width:0.01;stroke-linecap:butt;stroke-linejoin:miter;stroke:rgb(0%,0%,0%);stroke-opacity:1;stroke-miterlimit:10;" d="M 319.105469 468.933594 C 319.105469 470.269531 317.105469 470.269531 317.105469 468.933594 C 317.105469 467.601563 319.105469 467.601563 319.105469 468.933594 "/>
<path style="fill-rule:nonzero;fill:rgb(100%,0%,0%);fill-opacity:1;stroke-width:0.01;stroke-linecap:butt;stroke-linejoin:miter;stroke:rgb(0%,0%,0%);stroke-opacity:1;stroke-miterlimit:10;" d="M 73.941406 206.15625 C 73.941406 207.488281 71.941406 207.488281 71.941406 206.15625 C 71.941406 204.824219 73.941406 204.824219 73.941406 206.15625 "/>
<path style="fill-rule:nonzero;fill:rgb(100%,0%,0%);fill-opacity:1;stroke-width:0.01;stroke-linecap:butt;stroke-linejoin:miter;stroke:rgb(0%,0%,0%);stroke-opacity:1;stroke-miterlimit:10;" d="M 69.757813 191.257813 C 69.757813 192.59375 67.757813 192.59375 67.757813 191.257813 C 67.757813 189.925781 69.757813 189.925781 69.757813 191.257813 "/>
<path style="fill-rule:nonzero;fill:rgb(100%,0%,0%);fill-opacity:1;stroke-width:0.01;stroke-linecap:butt;stroke-linejoin:miter;stroke:rgb(0%,0%,0%);stroke-opacity:1;stroke-miterlimit:10;" d="M 280.03125 137.347656 C 280.03125 138.679688 278.03125 138.679688 278.03125 137.347656 C 278.03125 136.015625 280.03125 136.015625 280.03125 137.347656 "/>
<path style="fill-rule:nonzero;fill:rgb(100%,0%,0%);fill-opacity:1;stroke-width:0.01;stroke-linecap:butt;stroke-linejoin:miter;stroke:rgb(0%,0%,0%);stroke-opacity:1;stroke-miterlimit:10;" d="M 287.394531 123.800781 C 287.394531 125.136719 285.394531 125.136719 285.394531 123.800781 C 285.394531 122.46875 287.394531 122.46875 287.394531 123.800781 "/>
<path style="fill-rule:nonzero;fill:rgb(100%,0%,0%);fill-opacity:1;stroke-width:0.01;stroke-linecap:butt;stroke-linejoin:miter;stroke:rgb(0%,0%,0%);stroke-opacity:1;stroke-miterlimit:10;" d="M 451.117188 281.3125 C 451.117188 282.644531 449.117188 282.644531 449.117188 281.3125 C 449.117188 279.980469 451.117188 279.980469 451.117188 281.3125 "/>
<path style="fill-rule:nonzero;fill:rgb(100%,0%,0%);fill-opacity:1;stroke-width:0.01;stroke-linecap:butt;stroke-linejoin:miter;stroke:rgb(0%,0%,0%);stroke-opacity:1;stroke-miterlimit:10;" d="M 177.960938 253.871094 C 177.960938 255.207031 175.960938 255.207031 175.960938 253.871094 C 175.960938 252.539063 177.960938 252.539063 177.960938 253.871094 "/>
<path style="fill-rule:nonzero;fill:rgb(100%,0%,0%);fill-opacity:1;stroke-width:0.01;stroke-linecap:butt;stroke-linejoin:miter;stroke:rgb(0%,0%,0%);stroke-opacity:1;stroke-miterlimit:10;" d="M 192.019531 260.871094 C 192.019531 262.203125 190.019531 262.203125 190.019531 260.871094 C 190.019531 259.535156 192.019531 259.535156 192.019531 260.871094 "/>
<path style="fill-rule:nonzero;fill:rgb(100%,0%,0%);fill-opacity:1;stroke-width:0.01;stroke-linecap:butt;stroke-linejoin:miter;stroke:rgb(0%,0%,0%);stroke-opacity:1;stroke-miterlimit:10;" d="M 258.316406 387.234375 C 258.316406 388.570313 256.316406 388.570313 256.316406 387.234375 C 256.316406 385.902344 258.316406 385.902344 258.316406 387.234375 "/>
<path style="fill-rule:nonzero;fill:rgb(100%,0%,0%);fill-opacity:1;stroke-width:0.01;stroke-linecap:butt;stroke-linejoin:miter;stroke:rgb(0%,0%,0%);stroke-opacity:1;stroke-miterlimit:10;" d="M 273.480469 382.792969 C 273.480469 384.125 271.480469 384.125 271.480469 382.792969 C 271.480469 381.460938 273.480469 381.460938 273.480469 382.792969 "/>
<path style="fill-rule:nonzero;fill:rgb(100%,0%,0%);fill-opacity:1;stroke-width:0.01;stroke-linecap:butt;stroke-linejoin:miter;stroke:rgb(0%,0%,0%);stroke-opacity:1;stroke-miterlimit:10;" d="M 281.164063 235.617188 C 281.164063 236.953125 279.164063 236.953125 279.164063 235.617188 C 279.164063 234.285156 281.164063 234.285156 281.164063 235.617188 "/>
<path style="fill-rule:nonzero;fill:rgb(100%,0%,0%);fill-opacity:1;stroke-width:0.01;stroke-linecap:butt;stroke-linejoin:miter;stroke:rgb(0%,0%,0%);stroke-opacity:1;stroke-miterlimit:10;" d="M 265.46875 236.886719 C 265.46875 238.21875 263.46875 238.21875 263.46875 236.886719 C 263.46875 235.554688 265.46875 235.554688 265.46875 236.886719 "/>
<path style="fill-rule:nonzero;fill:rgb(100%,0%,0%);fill-opacity:1;stroke-width:0.01;stroke-linecap:butt;stroke-linejoin:miter;stroke:rgb(0%,0%,0%);stroke-opacity:1;stroke-miterlimit:10;" d="M 428.816406 479.542969 C 428.816406 480.875 426.816406 480.875 426.816406 479.542969 C 426.816406 478.207031 428.816406 478.207031 428.816406 479.542969 "/>
<path style="fill-rule:nonzero;fill:rgb(100%,0%,0%);fill-opacity:1;stroke-width:0.01;stroke-linecap:butt;stroke-linejoin:miter;stroke:rgb(0%,0%,0%);stroke-opacity:1;stroke-miterlimit:10;" d="M 428.742188 464.140625 C 428.742188 465.472656 426.742188 465.472656 426.742188 464.140625 C 426.742188 462.808594 428.742188 462.808594 428.742188 464.140625 "/>
<path style="fill-rule:nonzero;fill:rgb(100%,0%,0%);fill-opacity:1;stroke-width:0.01;stroke-linecap:butt;stroke-linejoin:miter;stroke:rgb(0%,0%,0%);stroke-opacity:1;stroke-miterlimit:10;" d="M 184.34375 86.933594 C 184.34375 88.269531 182.34375 88.269531 182.34375 86.933594 C 182.34375 85.601563 184.34375 85.601563 184.34375 86.933594 "/>
<path style="fill-rule:nonzero;fill:rgb(100%,0%,0%);fill-opacity:1;stroke-width:0.01;stroke-linecap:butt;stroke-linejoin:miter;stroke:rgb(0%,0%,0%);stroke-opacity:1;stroke-miterlimit:10;" d="M 170.277344 94.292969 C 170.277344 95.628906 168.277344 95.628906 168.277344 94.292969 C 168.277344 92.960938 170.277344 92.960938 170.277344 94.292969 "/>
<path style="fill-rule:nonzero;fill:rgb(100%,0%,0%);fill-opacity:1;stroke-width:0.01;stroke-linecap:butt;stroke-linejoin:miter;stroke:rgb(0%,0%,0%);stroke-opacity:1;stroke-miterlimit:10;" d="M 137.308594 205.082031 C 137.308594 206.414063 135.308594 206.414063 135.308594 205.082031 C 135.308594 203.746094 137.308594 203.746094 137.308594 205.082031 "/>
<path style="fill-rule:nonzero;fill:rgb(100%,0%,0%);fill-opacity:1;stroke-width:0.01;stroke-linecap:butt;stroke-linejoin:miter;stroke:rgb(0%,0%,0%);stroke-opacity:1;stroke-miterlimit:10;" d="M 141.945313 190.378906 C 141.945313 191.714844 139.945313 191.714844 139.945313 190.378906 C 139.945313 189.046875 141.945313 189.046875 141.945313 190.378906 "/>
<path style="fill-rule:nonzero;fill:rgb(100%,0%,0%);fill-opacity:1;stroke-width:0.01;stroke-linecap:butt;stroke-linejoin:miter;stroke:rgb(0%,0%,0%);stroke-opacity:1;stroke-miterlimit:10;" d="M 177.304688 349.910156 C 177.304688 351.242188 175.304688 351.242188 175.304688 349.910156 C 175.304688 348.578125 177.304688 348.578125 177.304688 349.910156 "/>
<path style="fill-rule:nonzero;fill:rgb(100%,0%,0%);fill-opacity:1;stroke-width:0.01;stroke-linecap:butt;stroke-linejoin:miter;stroke:rgb(0%,0%,0%);stroke-opacity:1;stroke-miterlimit:10;" d="M 196.492188 365.394531 C 196.492188 366.726563 194.492188 366.726563 194.492188 365.394531 C 194.492188 364.058594 196.492188 364.058594 196.492188 365.394531 "/>
<path style="fill-rule:nonzero;fill:rgb(100%,0%,0%);fill-opacity:1;stroke-width:0.01;stroke-linecap:butt;stroke-linejoin:miter;stroke:rgb(0%,0%,0%);stroke-opacity:1;stroke-miterlimit:10;" d="M 301.296875 580 C 301.296875 581.332031 299.296875 581.332031 299.296875 580 C 299.296875 578.667969 301.296875 578.667969 301.296875 580 "/>
<path style="fill-rule:nonzero;fill:rgb(100%,0%,0%);fill-opacity:1;stroke-width:0.01;stroke-linecap:butt;stroke-linejoin:miter;stroke:rgb(0%,0%,0%);stroke-opacity:1;stroke-miterlimit:10;" d="M 382.839844 154.929688 C 382.839844 156.261719 380.839844 156.261719 380.839844 154.929688 C 380.839844 153.59375 382.839844 153.59375 382.839844 154.929688 "/>
<path style="fill-rule:nonzero;fill:rgb(100%,0%,0%);fill-opacity:1;stroke-width:0.01;stroke-linecap:butt;stroke-linejoin:miter;stroke:rgb(0%,0%,0%);stroke-opacity:1;stroke-miterlimit:10;" d="M 395.742188 163.742188 C 395.742188 165.078125 393.742188 165.078125 393.742188 163.742188 C 393.742188 162.410156 395.742188 162.410156 395.742188 163.742188 "/>
<path style="fill-rule:nonzero;fill:rgb(100%,0%,0%);fill-opacity:1;stroke-width:0.01;stroke-linecap:butt;stroke-linejoin:miter;stroke:rgb(0%,0%,0%);stroke-opacity:1;stroke-miterlimit:10;" d="M 150.242188 420.90625 C 150.242188 422.242188 148.242188 422.242188 148.242188 420.90625 C 148.242188 419.574219 150.242188 419.574219 150.242188 420.90625 "/>
<path style="fill-rule:nonzero;fill:rgb(100%,0%,0%);fill-opacity:1;stroke-width:0.01;stroke-linecap:butt;stroke-linejoin:miter;stroke:rgb(0%,0%,0%);stroke-opacity:1;stroke-miterlimit:10;" d="M 136.207031 413.691406 C 136.207031 415.023438 134.207031 415.023438 134.207031 413.691406 C 134.207031 412.355469 136.207031 412.355469 136.207031 413.691406 "/>
<path style="fill-rule:nonzero;fill:rgb(100%,0%,0%);fill-opacity:1;stroke-width:0.01;stroke-linecap:butt;stroke-linejoin:miter;stroke:rgb(0%,0%,0%);stroke-opacity:1;stroke-miterlimit:10;" d="M 559.882813 376.257813 C 559.882813 377.59375 557.882813 377.59375 557.882813 376.257813 C 557.882813 374.925781 559.882813 374.925781 559.882813 376.257813 "/>
<path style="fill-rule:nonzero;fill:rgb(100%,0%,0%);fill-opacity:1;stroke-width:0.01;stroke-linecap:butt;stroke-linejoin:miter;stroke:rgb(0%,0%,0%);stroke-opacity:1;stroke-miterlimit:10;" d="M 227.445313 482.753906 C 227.445313 484.085938 225.445313 484.085938 225.445313 482.753906 C 225.445313 481.421875 227.445313 481.421875 227.445313 482.753906 "/>
<path style="fill-rule:nonzero;fill:rgb(100%,0%,0%);fill-opacity:1;stroke-width:0.01;stroke-linecap:butt;stroke-linejoin:miter;stroke:rgb(0%,0%,0%);stroke-opacity:1;stroke-miterlimit:10;" d="M 188.410156 505.746094 C 188.410156 507.082031 186.410156 507.082031 186.410156 505.746094 C 186.410156 504.414063 188.410156 504.414063 188.410156 505.746094 "/>
<path style="fill-rule:nonzero;fill:rgb(100%,0%,0%);fill-opacity:1;stroke-width:0.01;stroke-linecap:butt;stroke-linejoin:miter;stroke:rgb(0%,0%,0%);stroke-opacity:1;stroke-miterlimit:10;" d="M 21 239.917969 C 21 241.25 19 241.25 19 239.917969 C 19 238.585938 21 238.585938 21 239.917969 "/>
<path style="fill-rule:nonzero;fill:rgb(100%,0%,0%);fill-opacity:1;stroke-width:0.01;stroke-linecap:butt;stroke-linejoin:miter;stroke:rgb(0%,0%,0%);stroke-opacity:1;stroke-miterlimit:10;" d="M 398.867188 379.378906 C 398.867188 380.710938 396.867188 380.710938 396.867188 379.378906 C 396.867188 378.042969 398.867188 378.042969 398.867188 379.378906 "/>
<path style="fill-rule:nonzero;fill:rgb(100%,0%,0%);fill-opacity:1;stroke-width:0.01;stroke-linecap:butt;stroke-linejoin:miter;stroke:rgb(0%,0%,0%);stroke-opacity:1;stroke-miterlimit:10;" d="M 409.894531 390.484375 C 409.894531 391.816406 407.894531 391.816406 407.894531 390.484375 C 407.894531 389.152344 409.894531 389.152344 409.894531 390.484375 "/>
<path style="fill-rule:nonzero;fill:rgb(100%,0%,0%);fill-opacity:1;stroke-width:0.01;stroke-linecap:butt;stroke-linejoin:miter;stroke:rgb(0%,0%,0%);stroke-opacity:1;stroke-miterlimit:10;" d="M 468.714844 161.75 C 468.714844 163.082031 466.714844 163.082031 466.714844 161.75 C 466.714844 160.414063 468.714844 160.414063 468.714844 161.75 "/>
<path style="fill-rule:nonzero;fill:rgb(100%,0%,0%);fill-opacity:1;stroke-width:0.01;stroke-linecap:butt;stroke-linejoin:miter;stroke:rgb(0%,0%,0%);stroke-opacity:1;stroke-miterlimit:10;" d="M 453.234375 165.035156 C 453.234375 166.371094 451.234375 166.371094 451.234375 165.035156 C 451.234375 163.703125 453.234375 163.703125 453.234375 165.035156 "/>
<path style="fill-rule:nonzero;fill:rgb(100%,0%,0%);fill-opacity:1;stroke-width:0.01;stroke-linecap:butt;stroke-linejoin:miter;stroke:rgb(0%,0%,0%);stroke-opacity:1;stroke-miterlimit:10;" d="M 42.015625 336.484375 C 42.015625 337.816406 40.015625 337.816406 40.015625 336.484375 C 40.015625 335.148438 42.015625 335.148438 42.015625 336.484375 "/>
</g>
</svg>
