<?xml version="1.0" encoding="UTF-8"?>
<svg xmlns="http://www.w3.org/2000/svg" xmlns:xlink="http://www.w3.org/1999/xlink" width="600" height="600" viewBox="0 0 600 600">
<rect x="-60" y="-60" width="720" height="720" fill="rgb(100%, 100%, 100%)" fill-opacity="1"/>
<path fill="none" stroke-width="0.2" stroke-linecap="butt" stroke-linejoin="miter" stroke="rgb(26.666667%, 26.666667%, 26.666667%)" stroke-opacity="1" stroke-miterlimit="10" d="M 367.097656 309.148438 C 367.097656 311.148438 364.097656 311.148438 364.097656 309.148438 C 364.097656 307.148438 367.097656 307.148438 367.097656 309.148438 "/>
<path fill="none" stroke-width="0.2" stroke-linecap="butt" stroke-linejoin="miter" stroke="rgb(26.666667%, 26.666667%, 26.666667%)" stroke-opacity="1" stroke-miterlimit="10" d="M 364.535156 310.210938 L 346.410156 302.117188 "/>
<path fill-rule="nonzero" fill="rgb(26.666667%, 26.666667%, 26.666667%)" fill-opacity="1" d="M 346.277344 302.0625 L 346.425781 302.078125 L 346.390625 302.160156 L 346.277344 302.0625 "/>
<path fill="none" stroke-width="0.2" stroke-linecap="butt" stroke-linejoin="miter" stroke="rgb(26.666667%, 26.666667%, 26.666667%)" stroke-opacity="1" stroke-miterlimit="10" d="M 364.535156 310.210938 L 380.429688 315.148438 "/>
<path fill-rule="nonzero" fill="rgb(26.666667%, 26.666667%, 26.666667%)" fill-opacity="1" d="M 380.566406 315.191406 L 380.417969 315.191406 L 380.445312 315.105469 L 380.566406 315.191406 "/>
<path fill="none" stroke-width="0.2" stroke-linecap="butt" stroke-linejoin="miter" stroke="rgb(26.666667%, 26.666667%, 26.666667%)" stroke-opacity="1" stroke-miterlimit="10" d="M 520.589844 372.25 L 522.800781 357.75 "/>
<path fill-rule="nonzero" fill="rgb(26.666667%, 26.666667%, 26.666667%)" fill-opacity="1" d="M 522.820312 357.609375 L 522.84375 357.757812 L 522.753906 357.742188 L 522.820312 357.609375 "/>
<path fill="none" stroke-width="0.2" stroke-linecap="butt" stroke-linejoin="miter" stroke="rgb(26.666667%, 26.666667%, 26.666667%)" stroke-opacity="1" stroke-miterlimit="10" d="M 54.402344 454.683594 L 44.722656 443.648438 "/>
<path fill-rule="nonzero" fill="rgb(26.666667%, 26.666667%, 26.666667%)" fill-opacity="1" d="M 44.628906 443.539062 L 44.757812 443.617188 L 44.6875 443.675781 L 44.628906 443.539062 "/>
<path fill="none" stroke-width="0.2" stroke-linecap="butt" stroke-linejoin="miter" stroke="rgb(26.666667%, 26.666667%, 26.666667%)" stroke-opacity="1" stroke-miterlimit="10" d="M 301.539062 235.238281 L 301.011719 212.324219 "/>
<path fill-rule="nonzero" fill="rgb(26.666667%, 26.666667%, 26.666667%)" fill-opacity="1" d="M 301.007812 212.179688 L 301.058594 212.320312 L 300.964844 212.324219 L 301.007812 212.179688 "/>
<path fill="none" stroke-width="0.2" stroke-linecap="butt" stroke-linejoin="miter" stroke="rgb(26.666667%, 26.666667%, 26.666667%)" stroke-opacity="1" stroke-miterlimit="10" d="M 44.203125 157.484375 C 44.203125 159.484375 41.203125 159.484375 41.203125 157.484375 C 41.203125 155.484375 44.203125 155.484375 44.203125 157.484375 "/>
<path fill="none" stroke-width="0.2" stroke-linecap="butt" stroke-linejoin="miter" stroke="rgb(26.666667%, 26.666667%, 26.666667%)" stroke-opacity="1" stroke-miterlimit="10" d="M 162.761719 405.75 C 162.761719 407.75 159.761719 407.75 159.761719 405.75 C 159.761719 403.75 162.761719 403.75 162.761719 405.75 "/>
<path fill="none" stroke-width="0.2" stroke-linecap="butt" stroke-linejoin="miter" stroke="rgb(26.666667%, 26.666667%, 26.666667%)" stroke-opacity="1" stroke-miterlimit="10" d="M 260.261719 578.9375 C 260.261719 580.9375 257.261719 580.9375 257.261719 578.9375 C 257.261719 576.9375 260.261719 576.9375 260.261719 578.9375 "/>
<path fill="none" stroke-width="0.2" stroke-linecap="butt" stroke-linejoin="miter" stroke="rgb(26.666667%, 26.666667%, 26.666667%)" stroke-opacity="1" stroke-miterlimit="10" d="M 350.375 283.605469 L 345.671875 300.550781 "/>
<path fill-rule="nonzero" fill="rgb(26.666667%, 26.666667%, 26.666667%)" fill-opacity="1" d="M 345.632812 300.691406 L 345.625 300.539062 L 345.714844 300.566406 L 345.632812 300.691406 "/>
<path fill="none" stroke-width="0.2" stroke-linecap="butt" stroke-linejoin="miter" stroke="rgb(26.666667%, 26.666667%, 26.666667%)" stroke-opacity="1" stroke-miterlimit="10" d="M 79.898438 265.441406 C 79.898438 267.441406 76.898438 267.441406 76.898438 265.441406 C 76.898438 263.441406 79.898438 263.441406 79.898438 265.441406 "/>
<path fill="none" stroke-width="0.2" stroke-linecap="butt" stroke-linejoin="miter" stroke="rgb(26.666667%, 26.666667%, 26.666667%)" stroke-opacity="1" stroke-miterlimit="10" d="M 227.414062 263.65625 C 227.414062 265.65625 224.414062 265.65625 224.414062 263.65625 C 224.414062 261.65625 227.414062 261.65625 227.414062 263.65625 "/>
<path fill="none" stroke-width="0.2" stroke-linecap="butt" stroke-linejoin="miter" stroke="rgb(26.666667%, 26.666667%, 26.666667%)" stroke-opacity="1" stroke-miterlimit="10" d="M 300.699219 434.726562 C 300.699219 436.726562 297.699219 436.726562 297.699219 434.726562 C 297.699219 432.726562 300.699219 432.726562 300.699219 434.726562 "/>
<path fill="none" stroke-width="0.2" stroke-linecap="butt" stroke-linejoin="miter" stroke="rgb(26.666667%, 26.666667%, 26.666667%)" stroke-opacity="1" stroke-miterlimit="10" d="M 298.136719 435.789062 L 313.921875 418.863281 "/>
<path fill-rule="nonzero" fill="rgb(26.666667%, 26.666667%, 26.666667%)" fill-opacity="1" d="M 314.019531 418.761719 L 313.957031 418.898438 L 313.886719 418.832031 L 314.019531 418.761719 "/>
<path fill="none" stroke-width="0.2" stroke-linecap="butt" stroke-linejoin="miter" stroke="rgb(26.666667%, 26.666667%, 26.666667%)" stroke-opacity="1" stroke-miterlimit="10" d="M 335.449219 490.136719 C 335.449219 492.136719 332.449219 492.136719 332.449219 490.136719 C 332.449219 488.136719 335.449219 488.136719 335.449219 490.136719 "/>
<path fill="none" stroke-width="0.2" stroke-linecap="butt" stroke-linejoin="miter" stroke="rgb(26.666667%, 26.666667%, 26.666667%)" stroke-opacity="1" stroke-miterlimit="10" d="M 109.566406 521.417969 C 109.566406 523.417969 106.566406 523.417969 106.566406 521.417969 C 106.566406 519.417969 109.566406 519.417969 109.566406 521.417969 "/>
<path fill="none" stroke-width="0.2" stroke-linecap="butt" stroke-linejoin="miter" stroke="rgb(26.666667%, 26.666667%, 26.666667%)" stroke-opacity="1" stroke-miterlimit="10" d="M 385.585938 197.96875 L 382.992188 183.464844 "/>
<path fill-rule="nonzero" fill="rgb(26.666667%, 26.666667%, 26.666667%)" fill-opacity="1" d="M 382.96875 183.324219 L 383.039062 183.457031 L 382.945312 183.472656 L 382.96875 183.324219 "/>
<path fill="none" stroke-width="0.2" stroke-linecap="butt" stroke-linejoin="miter" stroke="rgb(26.666667%, 26.666667%, 26.666667%)" stroke-opacity="1" stroke-miterlimit="10" d="M 283.394531 311.484375 L 301.910156 310.011719 "/>
<path fill-rule="nonzero" fill="rgb(26.666667%, 26.666667%, 26.666667%)" fill-opacity="1" d="M 302.054688 310 L 301.914062 310.058594 L 301.90625 309.964844 L 302.054688 310 "/>
<path fill="none" stroke-width="0.2" stroke-linecap="butt" stroke-linejoin="miter" stroke="rgb(26.666667%, 26.666667%, 26.666667%)" stroke-opacity="1" stroke-miterlimit="10" d="M 283.394531 311.484375 L 266.972656 311.765625 "/>
<path fill-rule="nonzero" fill="rgb(26.666667%, 26.666667%, 26.666667%)" fill-opacity="1" d="M 266.832031 311.769531 L 266.972656 311.71875 L 266.972656 311.8125 L 266.832031 311.769531 "/>
<path fill="none" stroke-width="0.2" stroke-linecap="butt" stroke-linejoin="miter" stroke="rgb(26.666667%, 26.666667%, 26.666667%)" stroke-opacity="1" stroke-miterlimit="10" d="M 469.230469 510.308594 C 469.230469 512.308594 466.230469 512.308594 466.230469 510.308594 C 466.230469 508.308594 469.230469 508.308594 469.230469 510.308594 "/>
<path fill="none" stroke-width="0.2" stroke-linecap="butt" stroke-linejoin="miter" stroke="rgb(26.666667%, 26.666667%, 26.666667%)" stroke-opacity="1" stroke-miterlimit="10" d="M 125.238281 446.394531 L 130.652344 460.050781 "/>
<path fill-rule="nonzero" fill="rgb(26.666667%, 26.666667%, 26.666667%)" fill-opacity="1" d="M 130.707031 460.183594 L 130.609375 460.066406 L 130.695312 460.035156 L 130.707031 460.183594 "/>
<path fill="none" stroke-width="0.2" stroke-linecap="butt" stroke-linejoin="miter" stroke="rgb(26.666667%, 26.666667%, 26.666667%)" stroke-opacity="1" stroke-miterlimit="10" d="M 355.363281 375.847656 L 368.3125 382.363281 "/>
<path fill-rule="nonzero" fill="rgb(26.666667%, 26.666667%, 26.666667%)" fill-opacity="1" d="M 368.4375 382.429688 L 368.289062 382.40625 L 368.332031 382.324219 L 368.4375 382.429688 "/>
<path fill="none" stroke-width="0.2" stroke-linecap="butt" stroke-linejoin="miter" stroke="rgb(26.666667%, 26.666667%, 26.666667%)" stroke-opacity="1" stroke-miterlimit="10" d="M 426.289062 70.039062 L 439.53125 75.96875 "/>
<path fill-rule="nonzero" fill="rgb(26.666667%, 26.666667%, 26.666667%)" fill-opacity="1" d="M 439.660156 76.027344 L 439.511719 76.011719 L 439.550781 75.925781 L 439.660156 76.027344 "/>
<path fill="none" stroke-width="0.2" stroke-linecap="butt" stroke-linejoin="miter" stroke="rgb(26.666667%, 26.666667%, 26.666667%)" stroke-opacity="1" stroke-miterlimit="10" d="M 299.894531 80.550781 L 307.257812 93.179688 "/>
<path fill-rule="nonzero" fill="rgb(26.666667%, 26.666667%, 26.666667%)" fill-opacity="1" d="M 307.328125 93.300781 L 307.21875 93.203125 L 307.296875 93.15625 L 307.328125 93.300781 "/>
<path fill="none" stroke-width="0.2" stroke-linecap="butt" stroke-linejoin="miter" stroke="rgb(26.666667%, 26.666667%, 26.666667%)" stroke-opacity="1" stroke-miterlimit="10" d="M 356.898438 36.84375 L 344.046875 29.921875 "/>
<path fill-rule="nonzero" fill="rgb(26.666667%, 26.666667%, 26.666667%)" fill-opacity="1" d="M 343.921875 29.851562 L 344.070312 29.878906 L 344.027344 29.960938 L 343.921875 29.851562 "/>
<path fill="none" stroke-width="0.2" stroke-linecap="butt" stroke-linejoin="miter" stroke="rgb(26.666667%, 26.666667%, 26.666667%)" stroke-opacity="1" stroke-miterlimit="10" d="M 22.5625 260.648438 C 22.5625 262.648438 19.5625 262.648438 19.5625 260.648438 C 19.5625 258.648438 22.5625 258.648438 22.5625 260.648438 "/>
<path fill="none" stroke-width="0.2" stroke-linecap="butt" stroke-linejoin="miter" stroke="rgb(26.666667%, 26.666667%, 26.666667%)" stroke-opacity="1" stroke-miterlimit="10" d="M 374.269531 110.132812 C 374.269531 112.132812 371.269531 112.132812 371.269531 110.132812 C 371.269531 108.132812 374.269531 108.132812 374.269531 110.132812 "/>
<path fill="none" stroke-width="0.2" stroke-linecap="butt" stroke-linejoin="miter" stroke="rgb(26.666667%, 26.666667%, 26.666667%)" stroke-opacity="1" stroke-miterlimit="10" d="M 196.871094 463.183594 C 196.871094 465.183594 193.871094 465.183594 193.871094 463.183594 C 193.871094 461.183594 196.871094 461.183594 196.871094 463.183594 "/>
<path fill="none" stroke-width="0.2" stroke-linecap="butt" stroke-linejoin="miter" stroke="rgb(26.666667%, 26.666667%, 26.666667%)" stroke-opacity="1" stroke-miterlimit="10" d="M 491.375 120.855469 C 491.375 122.855469 488.375 122.855469 488.375 120.855469 C 488.375 118.855469 491.375 118.855469 491.375 120.855469 "/>
<path fill="none" stroke-width="0.2" stroke-linecap="butt" stroke-linejoin="miter" stroke="rgb(26.666667%, 26.666667%, 26.666667%)" stroke-opacity="1" stroke-miterlimit="10" d="M 179.5 561.332031 C 179.5 563.332031 176.5 563.332031 176.5 561.332031 C 176.5 559.332031 179.5 559.332031 179.5 561.332031 "/>
<path fill="none" stroke-width="0.2" stroke-linecap="butt" stroke-linejoin="miter" stroke="rgb(26.666667%, 26.666667%, 26.666667%)" stroke-opacity="1" stroke-miterlimit="10" d="M 528.910156 163.019531 C 528.910156 165.019531 525.910156 165.019531 525.910156 163.019531 C 525.910156 161.019531 528.910156 161.019531 528.910156 163.019531 "/>
<path fill="none" stroke-width="0.2" stroke-linecap="butt" stroke-linejoin="miter" stroke="rgb(26.666667%, 26.666667%, 26.666667%)" stroke-opacity="1" stroke-miterlimit="10" d="M 252.601562 473.679688 C 252.601562 475.679688 249.601562 475.679688 249.601562 473.679688 C 249.601562 471.679688 252.601562 471.679688 252.601562 473.679688 "/>
<path fill="none" stroke-width="0.2" stroke-linecap="butt" stroke-linejoin="miter" stroke="rgb(26.666667%, 26.666667%, 26.666667%)" stroke-opacity="1" stroke-miterlimit="10" d="M 219.886719 365.742188 L 217.816406 389.441406 "/>
<path fill-rule="nonzero" fill="rgb(26.666667%, 26.666667%, 26.666667%)" fill-opacity="1" d="M 217.804688 389.585938 L 217.769531 389.4375 L 217.863281 389.445312 L 217.804688 389.585938 "/>
<path fill="none" stroke-width="0.2" stroke-linecap="butt" stroke-linejoin="miter" stroke="rgb(26.666667%, 26.666667%, 26.666667%)" stroke-opacity="1" stroke-miterlimit="10" d="M 541.457031 242.289062 L 544.066406 227.828125 "/>
<path fill-rule="nonzero" fill="rgb(26.666667%, 26.666667%, 26.666667%)" fill-opacity="1" d="M 544.09375 227.6875 L 544.113281 227.835938 L 544.023438 227.820312 L 544.09375 227.6875 "/>
<path fill="none" stroke-width="0.2" stroke-linecap="butt" stroke-linejoin="miter" stroke="rgb(26.666667%, 26.666667%, 26.666667%)" stroke-opacity="1" stroke-miterlimit="10" d="M 429.816406 268.023438 C 429.816406 270.023438 426.816406 270.023438 426.816406 268.023438 C 426.816406 266.023438 429.816406 266.023438 429.816406 268.023438 "/>
<path fill="none" stroke-width="0.2" stroke-linecap="butt" stroke-linejoin="miter" stroke="rgb(26.666667%, 26.666667%, 26.666667%)" stroke-opacity="1" stroke-miterlimit="10" d="M 313.492188 151.6875 L 298.917969 151.710938 "/>
<path fill-rule="nonzero" fill="rgb(26.666667%, 26.666667%, 26.666667%)" fill-opacity="1" d="M 298.777344 151.710938 L 298.917969 151.664062 L 298.917969 151.757812 L 298.777344 151.710938 "/>
<path fill="none" stroke-width="0.2" stroke-linecap="butt" stroke-linejoin="miter" stroke="rgb(26.666667%, 26.666667%, 26.666667%)" stroke-opacity="1" stroke-miterlimit="10" d="M 429.574219 377.722656 C 429.574219 379.722656 426.574219 379.722656 426.574219 377.722656 C 426.574219 375.722656 429.574219 375.722656 429.574219 377.722656 "/>
<path fill="none" stroke-width="0.2" stroke-linecap="butt" stroke-linejoin="miter" stroke="rgb(26.666667%, 26.666667%, 26.666667%)" stroke-opacity="1" stroke-miterlimit="10" d="M 166.011719 244.605469 L 178.828125 235.882812 "/>
<path fill-rule="nonzero" fill="rgb(26.666667%, 26.666667%, 26.666667%)" fill-opacity="1" d="M 178.945312 235.800781 L 178.851562 235.917969 L 178.800781 235.84375 L 178.945312 235.800781 "/>
<path fill="none" stroke-width="0.2" stroke-linecap="butt" stroke-linejoin="miter" stroke="rgb(26.666667%, 26.666667%, 26.666667%)" stroke-opacity="1" stroke-miterlimit="10" d="M 166.011719 244.605469 L 152.765625 252.640625 "/>
<path fill-rule="nonzero" fill="rgb(26.666667%, 26.666667%, 26.666667%)" fill-opacity="1" d="M 152.644531 252.714844 L 152.742188 252.601562 L 152.789062 252.683594 L 152.644531 252.714844 "/>
<path fill="none" stroke-width="0.2" stroke-linecap="butt" stroke-linejoin="miter" stroke="rgb(26.666667%, 26.666667%, 26.666667%)" stroke-opacity="1" stroke-miterlimit="10" d="M 266.988281 524.40625 C 266.988281 526.40625 263.988281 526.40625 263.988281 524.40625 C 263.988281 522.40625 266.988281 522.40625 266.988281 524.40625 "/>
<path fill="none" stroke-width="0.2" stroke-linecap="butt" stroke-linejoin="miter" stroke="rgb(26.666667%, 26.666667%, 26.666667%)" stroke-opacity="1" stroke-miterlimit="10" d="M 235.796875 92.597656 L 240.652344 78.699219 "/>
<path fill-rule="nonzero" fill="rgb(26.666667%, 26.666667%, 26.666667%)" fill-opacity="1" d="M 240.699219 78.5625 L 240.695312 78.714844 L 240.609375 78.683594 L 240.699219 78.5625 "/>
<path fill="none" stroke-width="0.2" stroke-linecap="butt" stroke-linejoin="miter" stroke="rgb(26.666667%, 26.666667%, 26.666667%)" stroke-opacity="1" stroke-miterlimit="10" d="M 546.910156 433.824219 C 546.910156 435.824219 543.910156 435.824219 543.910156 433.824219 C 543.910156 431.824219 546.910156 431.824219 546.910156 433.824219 "/>
<path fill="none" stroke-width="0.2" stroke-linecap="butt" stroke-linejoin="miter" stroke="rgb(26.666667%, 26.666667%, 26.666667%)" stroke-opacity="1" stroke-miterlimit="10" d="M 80.617188 389.796875 C 80.617188 391.796875 77.617188 391.796875 77.617188 389.796875 C 77.617188 387.796875 80.617188 387.796875 80.617188 389.796875 "/>
<path fill="none" stroke-width="0.2" stroke-linecap="butt" stroke-linejoin="miter" stroke="rgb(26.666667%, 26.666667%, 26.666667%)" stroke-opacity="1" stroke-miterlimit="10" d="M 206.84375 376.902344 L 229.703125 379.222656 "/>
<path fill-rule="nonzero" fill="rgb(26.666667%, 26.666667%, 26.666667%)" fill-opacity="1" d="M 229.847656 379.238281 L 229.699219 379.269531 L 229.710938 379.175781 L 229.847656 379.238281 "/>
<path fill="none" stroke-width="0.2" stroke-linecap="butt" stroke-linejoin="miter" stroke="rgb(26.666667%, 26.666667%, 26.666667%)" stroke-opacity="1" stroke-miterlimit="10" d="M 495.945312 290.992188 L 488.25 278.519531 "/>
<path fill-rule="nonzero" fill="rgb(26.666667%, 26.666667%, 26.666667%)" fill-opacity="1" d="M 488.171875 278.398438 L 488.289062 278.496094 L 488.210938 278.546875 L 488.171875 278.398438 "/>
<path fill="none" stroke-width="0.2" stroke-linecap="butt" stroke-linejoin="miter" stroke="rgb(26.666667%, 26.666667%, 26.666667%)" stroke-opacity="1" stroke-miterlimit="10" d="M 323.636719 306.75 L 304.179688 309.746094 "/>
<path fill-rule="nonzero" fill="rgb(26.666667%, 26.666667%, 26.666667%)" fill-opacity="1" d="M 304.039062 309.769531 L 304.171875 309.703125 L 304.1875 309.792969 L 304.039062 309.769531 "/>
<path fill="none" stroke-width="0.2" stroke-linecap="butt" stroke-linejoin="miter" stroke="rgb(26.666667%, 26.666667%, 26.666667%)" stroke-opacity="1" stroke-miterlimit="10" d="M 323.636719 306.75 L 344.253906 301.914062 "/>
<path fill-rule="nonzero" fill="rgb(26.666667%, 26.666667%, 26.666667%)" fill-opacity="1" d="M 344.390625 301.882812 L 344.261719 301.960938 L 344.242188 301.867188 L 344.390625 301.882812 "/>
<path fill="none" stroke-width="0.2" stroke-linecap="butt" stroke-linejoin="miter" stroke="rgb(26.666667%, 26.666667%, 26.666667%)" stroke-opacity="1" stroke-miterlimit="10" d="M 119.796875 140.625 L 106.460938 134.699219 "/>
<path fill-rule="nonzero" fill="rgb(26.666667%, 26.666667%, 26.666667%)" fill-opacity="1" d="M 106.332031 134.640625 L 106.480469 134.65625 L 106.441406 134.738281 L 106.332031 134.640625 "/>
<path fill="none" stroke-width="0.2" stroke-linecap="butt" stroke-linejoin="miter" stroke="rgb(26.666667%, 26.666667%, 26.666667%)" stroke-opacity="1" stroke-miterlimit="10" d="M 146.441406 80.8125 L 158.878906 88.484375 "/>
<path fill-rule="nonzero" fill="rgb(26.666667%, 26.666667%, 26.666667%)" fill-opacity="1" d="M 159 88.558594 L 158.855469 88.523438 L 158.902344 88.445312 L 159 88.558594 "/>
<path fill="none" stroke-width="0.2" stroke-linecap="butt" stroke-linejoin="miter" stroke="rgb(26.666667%, 26.666667%, 26.666667%)" stroke-opacity="1" stroke-miterlimit="10" d="M 235.707031 199.394531 C 235.707031 201.394531 232.707031 201.394531 232.707031 199.394531 C 232.707031 197.394531 235.707031 197.394531 235.707031 199.394531 "/>
<path fill="none" stroke-width="0.2" stroke-linecap="butt" stroke-linejoin="miter" stroke="rgb(26.666667%, 26.666667%, 26.666667%)" stroke-opacity="1" stroke-miterlimit="10" d="M 453.300781 216.179688 L 455.378906 201.675781 "/>
<path fill-rule="nonzero" fill="rgb(26.666667%, 26.666667%, 26.666667%)" fill-opacity="1" d="M 455.398438 201.535156 L 455.421875 201.683594 L 455.332031 201.667969 L 455.398438 201.535156 "/>
<path fill="none" stroke-width="0.2" stroke-linecap="butt" stroke-linejoin="miter" stroke="rgb(26.666667%, 26.666667%, 26.666667%)" stroke-opacity="1" stroke-miterlimit="10" d="M 297.597656 418.207031 L 314.601562 434.601562 "/>
<path fill-rule="nonzero" fill="rgb(26.666667%, 26.666667%, 26.666667%)" fill-opacity="1" d="M 314.703125 434.699219 L 314.566406 434.632812 L 314.632812 434.566406 L 314.703125 434.699219 "/>
<path fill="none" stroke-width="0.2" stroke-linecap="butt" stroke-linejoin="miter" stroke="rgb(26.666667%, 26.666667%, 26.666667%)" stroke-opacity="1" stroke-miterlimit="10" d="M 405.929688 452.179688 L 409.207031 466.527344 "/>
<path fill-rule="nonzero" fill="rgb(26.666667%, 26.666667%, 26.666667%)" fill-opacity="1" d="M 409.238281 466.667969 L 409.160156 466.539062 L 409.25 466.515625 L 409.238281 466.667969 "/>
<path fill="none" stroke-width="0.2" stroke-linecap="butt" stroke-linejoin="miter" stroke="rgb(26.666667%, 26.666667%, 26.666667%)" stroke-opacity="1" stroke-miterlimit="10" d="M 145.167969 314.324219 L 130.832031 311.84375 "/>
<path fill-rule="nonzero" fill="rgb(26.666667%, 26.666667%, 26.666667%)" fill-opacity="1" d="M 130.691406 311.820312 L 130.839844 311.796875 L 130.824219 311.890625 L 130.691406 311.820312 "/>
<path fill="none" stroke-width="0.2" stroke-linecap="butt" stroke-linejoin="miter" stroke="rgb(26.666667%, 26.666667%, 26.666667%)" stroke-opacity="1" stroke-miterlimit="10" d="M 313.800781 222.863281 L 290.046875 223.554688 "/>
<path fill-rule="nonzero" fill="rgb(26.666667%, 26.666667%, 26.666667%)" fill-opacity="1" d="M 289.902344 223.558594 L 290.042969 223.507812 L 290.046875 223.601562 L 289.902344 223.558594 "/>
<path fill="none" stroke-width="0.2" stroke-linecap="butt" stroke-linejoin="miter" stroke="rgb(26.666667%, 26.666667%, 26.666667%)" stroke-opacity="1" stroke-miterlimit="10" d="M 208.695312 152.765625 L 195.421875 158.652344 "/>
<path fill-rule="nonzero" fill="rgb(26.666667%, 26.666667%, 26.666667%)" fill-opacity="1" d="M 195.289062 158.710938 L 195.402344 158.609375 L 195.4375 158.695312 L 195.289062 158.710938 "/>
<path fill="none" stroke-width="0.2" stroke-linecap="butt" stroke-linejoin="miter" stroke="rgb(26.666667%, 26.666667%, 26.666667%)" stroke-opacity="1" stroke-miterlimit="10" d="M 46.71875 328.863281 L 39.691406 341.75 "/>
<path fill-rule="nonzero" fill="rgb(26.666667%, 26.666667%, 26.666667%)" fill-opacity="1" d="M 39.625 341.875 L 39.652344 341.730469 L 39.734375 341.773438 L 39.625 341.875 "/>
<path fill="none" stroke-width="0.2" stroke-linecap="butt" stroke-linejoin="miter" stroke="rgb(26.666667%, 26.666667%, 26.666667%)" stroke-opacity="1" stroke-miterlimit="10" d="M 582.5625 298.480469 C 582.5625 300.480469 579.5625 300.480469 579.5625 298.480469 C 579.5625 296.480469 582.5625 296.480469 582.5625 298.480469 "/>
<path fill="none" stroke-width="0.2" stroke-linecap="butt" stroke-linejoin="miter" stroke="rgb(26.666667%, 26.666667%, 26.666667%)" stroke-opacity="1" stroke-miterlimit="10" d="M 206.679688 20 L 192.285156 22.105469 "/>
<path fill-rule="nonzero" fill="rgb(26.666667%, 26.666667%, 26.666667%)" fill-opacity="1" d="M 192.144531 22.128906 L 192.277344 22.0625 L 192.292969 22.152344 L 192.144531 22.128906 "/>
<path fill="none" stroke-width="0.2" stroke-linecap="butt" stroke-linejoin="miter" stroke="rgb(26.666667%, 26.666667%, 26.666667%)" stroke-opacity="1" stroke-miterlimit="10" d="M 366.1875 533.214844 L 380.632812 534.058594 "/>
<path fill-rule="nonzero" fill="rgb(26.666667%, 26.666667%, 26.666667%)" fill-opacity="1" d="M 380.773438 534.070312 L 380.628906 534.105469 L 380.632812 534.015625 L 380.773438 534.070312 "/>
<path fill="none" stroke-width="0.2" stroke-linecap="butt" stroke-linejoin="miter" stroke="rgb(26.666667%, 26.666667%, 26.666667%)" stroke-opacity="1" stroke-miterlimit="10" d="M 126.785156 364.273438 C 126.785156 366.273438 123.785156 366.273438 123.785156 364.273438 C 123.785156 362.273438 126.785156 362.273438 126.785156 364.273438 "/>
<path fill="none" stroke-width="0.2" stroke-linecap="butt" stroke-linejoin="miter" stroke="rgb(26.666667%, 26.666667%, 26.666667%)" stroke-opacity="1" stroke-miterlimit="10" d="M 201.800781 514.644531 C 201.800781 516.644531 198.800781 516.644531 198.800781 514.644531 C 198.800781 512.644531 201.800781 512.644531 201.800781 514.644531 "/>
<path fill="none" stroke-width="0.2" stroke-linecap="butt" stroke-linejoin="miter" stroke="rgb(26.666667%, 26.666667%, 26.666667%)" stroke-opacity="1" stroke-miterlimit="10" d="M 456.210938 331.378906 C 456.210938 333.378906 453.210938 333.378906 453.210938 331.378906 C 453.210938 329.378906 456.210938 329.378906 456.210938 331.378906 "/>
<path fill="none" stroke-width="0.2" stroke-linecap="butt" stroke-linejoin="miter" stroke="rgb(26.666667%, 26.666667%, 26.666667%)" stroke-opacity="1" stroke-miterlimit="10" d="M 434.453125 143.660156 C 434.453125 145.660156 431.453125 145.660156 431.453125 143.660156 C 431.453125 141.660156 434.453125 141.660156 434.453125 143.660156 "/>
<path fill="none" stroke-width="0.2" stroke-linecap="butt" stroke-linejoin="miter" stroke="rgb(26.666667%, 26.666667%, 26.666667%)" stroke-opacity="1" stroke-miterlimit="10" d="M 108.476562 203.007812 L 94.328125 206.109375 "/>
<path fill-rule="nonzero" fill="rgb(26.666667%, 26.666667%, 26.666667%)" fill-opacity="1" d="M 94.1875 206.140625 L 94.316406 206.066406 L 94.335938 206.15625 L 94.1875 206.140625 "/>
<path fill="none" stroke-width="0.2" stroke-linecap="butt" stroke-linejoin="miter" stroke="rgb(26.666667%, 26.666667%, 26.666667%)" stroke-opacity="1" stroke-miterlimit="10" d="M 473.53125 434.722656 L 468.890625 420.746094 "/>
<path fill-rule="nonzero" fill="rgb(26.666667%, 26.666667%, 26.666667%)" fill-opacity="1" d="M 468.84375 420.609375 L 468.933594 420.730469 L 468.847656 420.757812 L 468.84375 420.609375 "/>
<path fill="none" stroke-width="0.2" stroke-linecap="butt" stroke-linejoin="miter" stroke="rgb(26.666667%, 26.666667%, 26.666667%)" stroke-opacity="1" stroke-miterlimit="10" d="M 323.835938 573.84375 C 323.835938 575.84375 320.835938 575.84375 320.835938 573.84375 C 320.835938 571.84375 323.835938 571.84375 323.835938 573.84375 "/>
<path fill-rule="nonzero" fill="rgb(100%, 0%, 0%)" fill-opacity="1" stroke-width="0.01" stroke-linecap="butt" stroke-linejoin="miter" stroke="rgb(0%, 0%, 0%)" stroke-opacity="1" stroke-miterlimit="10" d="M 365.535156 310.210938 C 365.535156 311.542969 363.535156 311.542969 363.535156 310.210938 C 363.535156 308.875 365.535156 308.875 365.535156 310.210938 "/>
<path fill-rule="nonzero" fill="rgb(100%, 0%, 0%)" fill-opacity="1" stroke-width="0.01" stroke-linecap="butt" stroke-linejoin="miter" stroke="rgb(0%, 0%, 0%)" stroke-opacity="1" stroke-miterlimit="10" d="M 346.363281 301.652344 C 346.363281 302.988281 344.363281 302.988281 344.363281 301.652344 C 344.363281 300.320312 346.363281 300.320312 346.363281 301.652344 "/>
<path fill-rule="nonzero" fill="rgb(100%, 0%, 0%)" fill-opacity="1" stroke-width="0.01" stroke-linecap="butt" stroke-linejoin="miter" stroke="rgb(0%, 0%, 0%)" stroke-opacity="1" stroke-miterlimit="10" d="M 382.519531 315.488281 C 382.519531 316.820312 380.519531 316.820312 380.519531 315.488281 C 380.519531 314.152344 382.519531 314.152344 382.519531 315.488281 "/>
<path fill-rule="nonzero" fill="rgb(100%, 0%, 0%)" fill-opacity="1" stroke-width="0.01" stroke-linecap="butt" stroke-linejoin="miter" stroke="rgb(0%, 0%, 0%)" stroke-opacity="1" stroke-miterlimit="10" d="M 521.589844 372.25 C 521.589844 373.582031 519.589844 373.582031 519.589844 372.25 C 519.589844 370.917969 521.589844 370.917969 521.589844 372.25 "/>
<path fill-rule="nonzero" fill="rgb(100%, 0%, 0%)" fill-opacity="1" stroke-width="0.01" stroke-linecap="butt" stroke-linejoin="miter" stroke="rgb(0%, 0%, 0%)" stroke-opacity="1" stroke-miterlimit="10" d="M 523.972656 356.621094 C 523.972656 357.953125 521.972656 357.953125 521.972656 356.621094 C 521.972656 355.285156 523.972656 355.285156 523.972656 356.621094 "/>
<path fill-rule="nonzero" fill="rgb(100%, 0%, 0%)" fill-opacity="1" stroke-width="0.01" stroke-linecap="butt" stroke-linejoin="miter" stroke="rgb(0%, 0%, 0%)" stroke-opacity="1" stroke-miterlimit="10" d="M 55.402344 454.683594 C 55.402344 456.019531 53.402344 456.019531 53.402344 454.683594 C 53.402344 453.351562 55.402344 453.351562 55.402344 454.683594 "/>
<path fill-rule="nonzero" fill="rgb(100%, 0%, 0%)" fill-opacity="1" stroke-width="0.01" stroke-linecap="butt" stroke-linejoin="miter" stroke="rgb(0%, 0%, 0%)" stroke-opacity="1" stroke-miterlimit="10" d="M 44.96875 442.789062 C 44.96875 444.121094 42.96875 444.121094 42.96875 442.789062 C 42.96875 441.453125 44.96875 441.453125 44.96875 442.789062 "/>
<path fill-rule="nonzero" fill="rgb(100%, 0%, 0%)" fill-opacity="1" stroke-width="0.01" stroke-linecap="butt" stroke-linejoin="miter" stroke="rgb(0%, 0%, 0%)" stroke-opacity="1" stroke-miterlimit="10" d="M 302.539062 235.238281 C 302.539062 236.570312 300.539062 236.570312 300.539062 235.238281 C 300.539062 233.902344 302.539062 233.902344 302.539062 235.238281 "/>
<path fill-rule="nonzero" fill="rgb(100%, 0%, 0%)" fill-opacity="1" stroke-width="0.01" stroke-linecap="butt" stroke-linejoin="miter" stroke="rgb(0%, 0%, 0%)" stroke-opacity="1" stroke-miterlimit="10" d="M 301.984375 211.179688 C 301.984375 212.515625 299.984375 212.515625 299.984375 211.179688 C 299.984375 209.847656 301.984375 209.847656 301.984375 211.179688 "/>
<path fill-rule="nonzero" fill="rgb(100%, 0%, 0%)" fill-opacity="1" stroke-width="0.01" stroke-linecap="butt" stroke-linejoin="miter" stroke="rgb(0%, 0%, 0%)" stroke-opacity="1" stroke-miterlimit="10" d="M 42.640625 158.542969 C 42.640625 159.875 40.640625 159.875 40.640625 158.542969 C 40.640625 157.210938 42.640625 157.210938 42.640625 158.542969 "/>
<path fill-rule="nonzero" fill="rgb(100%, 0%, 0%)" fill-opacity="1" stroke-width="0.01" stroke-linecap="butt" stroke-linejoin="miter" stroke="rgb(0%, 0%, 0%)" stroke-opacity="1" stroke-miterlimit="10" d="M 161.199219 406.8125 C 161.199219 408.144531 159.199219 408.144531 159.199219 406.8125 C 159.199219 405.476562 161.199219 405.476562 161.199219 406.8125 "/>
<path fill-rule="nonzero" fill="rgb(100%, 0%, 0%)" fill-opacity="1" stroke-width="0.01" stroke-linecap="butt" stroke-linejoin="miter" stroke="rgb(0%, 0%, 0%)" stroke-opacity="1" stroke-miterlimit="10" d="M 258.699219 580 C 258.699219 581.332031 256.699219 581.332031 256.699219 580 C 256.699219 578.667969 258.699219 578.667969 258.699219 580 "/>
<path fill-rule="nonzero" fill="rgb(100%, 0%, 0%)" fill-opacity="1" stroke-width="0.01" stroke-linecap="butt" stroke-linejoin="miter" stroke="rgb(0%, 0%, 0%)" stroke-opacity="1" stroke-miterlimit="10" d="M 351.375 283.605469 C 351.375 284.9375 349.375 284.9375 349.375 283.605469 C 349.375 282.273438 351.375 282.273438 351.375 283.605469 "/>
<path fill-rule="nonzero" fill="rgb(100%, 0%, 0%)" fill-opacity="1" stroke-width="0.01" stroke-linecap="butt" stroke-linejoin="miter" stroke="rgb(0%, 0%, 0%)" stroke-opacity="1" stroke-miterlimit="10" d="M 78.335938 266.503906 C 78.335938 267.835938 76.335938 267.835938 76.335938 266.503906 C 76.335938 265.167969 78.335938 265.167969 78.335938 266.503906 "/>
<path fill-rule="nonzero" fill="rgb(100%, 0%, 0%)" fill-opacity="1" stroke-width="0.01" stroke-linecap="butt" stroke-linejoin="miter" stroke="rgb(0%, 0%, 0%)" stroke-opacity="1" stroke-miterlimit="10" d="M 225.855469 264.71875 C 225.855469 266.050781 223.855469 266.050781 223.855469 264.71875 C 223.855469 263.386719 225.855469 263.386719 225.855469 264.71875 "/>
<path fill-rule="nonzero" fill="rgb(100%, 0%, 0%)" fill-opacity="1" stroke-width="0.01" stroke-linecap="butt" stroke-linejoin="miter" stroke="rgb(0%, 0%, 0%)" stroke-opacity="1" stroke-miterlimit="10" d="M 299.136719 435.789062 C 299.136719 437.121094 297.136719 437.121094 297.136719 435.789062 C 297.136719 434.453125 299.136719 434.453125 299.136719 435.789062 "/>
<path fill-rule="nonzero" fill="rgb(100%, 0%, 0%)" fill-opacity="1" stroke-width="0.01" stroke-linecap="butt" stroke-linejoin="miter" stroke="rgb(0%, 0%, 0%)" stroke-opacity="1" stroke-miterlimit="10" d="M 315.699219 418.03125 C 315.699219 419.363281 313.699219 419.363281 313.699219 418.03125 C 313.699219 416.695312 315.699219 416.695312 315.699219 418.03125 "/>
<path fill-rule="nonzero" fill="rgb(100%, 0%, 0%)" fill-opacity="1" stroke-width="0.01" stroke-linecap="butt" stroke-linejoin="miter" stroke="rgb(0%, 0%, 0%)" stroke-opacity="1" stroke-miterlimit="10" d="M 333.886719 491.195312 C 333.886719 492.53125 331.886719 492.53125 331.886719 491.195312 C 331.886719 489.863281 333.886719 489.863281 333.886719 491.195312 "/>
<path fill-rule="nonzero" fill="rgb(100%, 0%, 0%)" fill-opacity="1" stroke-width="0.01" stroke-linecap="butt" stroke-linejoin="miter" stroke="rgb(0%, 0%, 0%)" stroke-opacity="1" stroke-miterlimit="10" d="M 108.007812 522.476562 C 108.007812 523.8125 106.007812 523.8125 106.007812 522.476562 C 106.007812 521.144531 108.007812 521.144531 108.007812 522.476562 "/>
<path fill-rule="nonzero" fill="rgb(100%, 0%, 0%)" fill-opacity="1" stroke-width="0.01" stroke-linecap="butt" stroke-linejoin="miter" stroke="rgb(0%, 0%, 0%)" stroke-opacity="1" stroke-miterlimit="10" d="M 386.585938 197.96875 C 386.585938 199.304688 384.585938 199.304688 384.585938 197.96875 C 384.585938 196.636719 386.585938 196.636719 386.585938 197.96875 "/>
<path fill-rule="nonzero" fill="rgb(100%, 0%, 0%)" fill-opacity="1" stroke-width="0.01" stroke-linecap="butt" stroke-linejoin="miter" stroke="rgb(0%, 0%, 0%)" stroke-opacity="1" stroke-miterlimit="10" d="M 383.792969 182.339844 C 383.792969 183.675781 381.792969 183.675781 381.792969 182.339844 C 381.792969 181.007812 383.792969 181.007812 383.792969 182.339844 "/>
<path fill-rule="nonzero" fill="rgb(100%, 0%, 0%)" fill-opacity="1" stroke-width="0.01" stroke-linecap="butt" stroke-linejoin="miter" stroke="rgb(0%, 0%, 0%)" stroke-opacity="1" stroke-miterlimit="10" d="M 284.394531 311.484375 C 284.394531 312.820312 282.394531 312.820312 282.394531 311.484375 C 282.394531 310.152344 284.394531 310.152344 284.394531 311.484375 "/>
<path fill-rule="nonzero" fill="rgb(100%, 0%, 0%)" fill-opacity="1" stroke-width="0.01" stroke-linecap="butt" stroke-linejoin="miter" stroke="rgb(0%, 0%, 0%)" stroke-opacity="1" stroke-miterlimit="10" d="M 304.050781 309.921875 C 304.050781 311.253906 302.050781 311.253906 302.050781 309.921875 C 302.050781 308.589844 304.050781 308.589844 304.050781 309.921875 "/>
<path fill-rule="nonzero" fill="rgb(100%, 0%, 0%)" fill-opacity="1" stroke-width="0.01" stroke-linecap="butt" stroke-linejoin="miter" stroke="rgb(0%, 0%, 0%)" stroke-opacity="1" stroke-miterlimit="10" d="M 266.832031 311.785156 C 266.832031 313.121094 264.832031 313.121094 264.832031 311.785156 C 264.832031 310.453125 266.832031 310.453125 266.832031 311.785156 "/>
<path fill-rule="nonzero" fill="rgb(100%, 0%, 0%)" fill-opacity="1" stroke-width="0.01" stroke-linecap="butt" stroke-linejoin="miter" stroke="rgb(0%, 0%, 0%)" stroke-opacity="1" stroke-miterlimit="10" d="M 467.671875 511.367188 C 467.671875 512.703125 465.671875 512.703125 465.671875 511.367188 C 465.671875 510.035156 467.671875 510.035156 467.671875 511.367188 "/>
<path fill-rule="nonzero" fill="rgb(100%, 0%, 0%)" fill-opacity="1" stroke-width="0.01" stroke-linecap="butt" stroke-linejoin="miter" stroke="rgb(0%, 0%, 0%)" stroke-opacity="1" stroke-miterlimit="10" d="M 126.238281 446.394531 C 126.238281 447.726562 124.238281 447.726562 124.238281 446.394531 C 124.238281 445.0625 126.238281 445.0625 126.238281 446.394531 "/>
<path fill-rule="nonzero" fill="rgb(100%, 0%, 0%)" fill-opacity="1" stroke-width="0.01" stroke-linecap="butt" stroke-linejoin="miter" stroke="rgb(0%, 0%, 0%)" stroke-opacity="1" stroke-miterlimit="10" d="M 132.074219 461.113281 C 132.074219 462.445312 130.074219 462.445312 130.074219 461.113281 C 130.074219 459.777344 132.074219 459.777344 132.074219 461.113281 "/>
<path fill-rule="nonzero" fill="rgb(100%, 0%, 0%)" fill-opacity="1" stroke-width="0.01" stroke-linecap="butt" stroke-linejoin="miter" stroke="rgb(0%, 0%, 0%)" stroke-opacity="1" stroke-miterlimit="10" d="M 356.363281 375.847656 C 356.363281 377.179688 354.363281 377.179688 354.363281 375.847656 C 354.363281 374.511719 356.363281 374.511719 356.363281 375.847656 "/>
<path fill-rule="nonzero" fill="rgb(100%, 0%, 0%)" fill-opacity="1" stroke-width="0.01" stroke-linecap="butt" stroke-linejoin="miter" stroke="rgb(0%, 0%, 0%)" stroke-opacity="1" stroke-miterlimit="10" d="M 370.332031 382.878906 C 370.332031 384.210938 368.332031 384.210938 368.332031 382.878906 C 368.332031 381.542969 370.332031 381.542969 370.332031 382.878906 "/>
<path fill-rule="nonzero" fill="rgb(100%, 0%, 0%)" fill-opacity="1" stroke-width="0.01" stroke-linecap="butt" stroke-linejoin="miter" stroke="rgb(0%, 0%, 0%)" stroke-opacity="1" stroke-miterlimit="10" d="M 427.289062 70.039062 C 427.289062 71.371094 425.289062 71.371094 425.289062 70.039062 C 425.289062 68.703125 427.289062 68.703125 427.289062 70.039062 "/>
<path fill-rule="nonzero" fill="rgb(100%, 0%, 0%)" fill-opacity="1" stroke-width="0.01" stroke-linecap="butt" stroke-linejoin="miter" stroke="rgb(0%, 0%, 0%)" stroke-opacity="1" stroke-miterlimit="10" d="M 441.574219 76.433594 C 441.574219 77.769531 439.574219 77.769531 439.574219 76.433594 C 439.574219 75.101562 441.574219 75.101562 441.574219 76.433594 "/>
<path fill-rule="nonzero" fill="rgb(100%, 0%, 0%)" fill-opacity="1" stroke-width="0.01" stroke-linecap="butt" stroke-linejoin="miter" stroke="rgb(0%, 0%, 0%)" stroke-opacity="1" stroke-miterlimit="10" d="M 300.894531 80.550781 C 300.894531 81.882812 298.894531 81.882812 298.894531 80.550781 C 298.894531 79.21875 300.894531 79.21875 300.894531 80.550781 "/>
<path fill-rule="nonzero" fill="rgb(100%, 0%, 0%)" fill-opacity="1" stroke-width="0.01" stroke-linecap="butt" stroke-linejoin="miter" stroke="rgb(0%, 0%, 0%)" stroke-opacity="1" stroke-miterlimit="10" d="M 308.832031 94.164062 C 308.832031 95.5 306.832031 95.5 306.832031 94.164062 C 306.832031 92.832031 308.832031 92.832031 308.832031 94.164062 "/>
<path fill-rule="nonzero" fill="rgb(100%, 0%, 0%)" fill-opacity="1" stroke-width="0.01" stroke-linecap="butt" stroke-linejoin="miter" stroke="rgb(0%, 0%, 0%)" stroke-opacity="1" stroke-miterlimit="10" d="M 357.898438 36.84375 C 357.898438 38.175781 355.898438 38.175781 355.898438 36.84375 C 355.898438 35.507812 357.898438 35.507812 357.898438 36.84375 "/>
<path fill-rule="nonzero" fill="rgb(100%, 0%, 0%)" fill-opacity="1" stroke-width="0.01" stroke-linecap="butt" stroke-linejoin="miter" stroke="rgb(0%, 0%, 0%)" stroke-opacity="1" stroke-miterlimit="10" d="M 344.042969 29.378906 C 344.042969 30.710938 342.042969 30.710938 342.042969 29.378906 C 342.042969 28.046875 344.042969 28.046875 344.042969 29.378906 "/>
<path fill-rule="nonzero" fill="rgb(100%, 0%, 0%)" fill-opacity="1" stroke-width="0.01" stroke-linecap="butt" stroke-linejoin="miter" stroke="rgb(0%, 0%, 0%)" stroke-opacity="1" stroke-miterlimit="10" d="M 21 261.710938 C 21 263.042969 19 263.042969 19 261.710938 C 19 260.378906 21 260.378906 21 261.710938 "/>
<path fill-rule="nonzero" fill="rgb(100%, 0%, 0%)" fill-opacity="1" stroke-width="0.01" stroke-linecap="butt" stroke-linejoin="miter" stroke="rgb(0%, 0%, 0%)" stroke-opacity="1" stroke-miterlimit="10" d="M 372.710938 111.191406 C 372.710938 112.523438 370.710938 112.523438 370.710938 111.191406 C 370.710938 109.859375 372.710938 109.859375 372.710938 111.191406 "/>
<path fill-rule="nonzero" fill="rgb(100%, 0%, 0%)" fill-opacity="1" stroke-width="0.01" stroke-linecap="butt" stroke-linejoin="miter" stroke="rgb(0%, 0%, 0%)" stroke-opacity="1" stroke-miterlimit="10" d="M 195.308594 464.246094 C 195.308594 465.578125 193.308594 465.578125 193.308594 464.246094 C 193.308594 462.910156 195.308594 462.910156 195.308594 464.246094 "/>
<path fill-rule="nonzero" fill="rgb(100%, 0%, 0%)" fill-opacity="1" stroke-width="0.01" stroke-linecap="butt" stroke-linejoin="miter" stroke="rgb(0%, 0%, 0%)" stroke-opacity="1" stroke-miterlimit="10" d="M 489.816406 121.914062 C 489.816406 123.25 487.816406 123.25 487.816406 121.914062 C 487.816406 120.582031 489.816406 120.582031 489.816406 121.914062 "/>
<path fill-rule="nonzero" fill="rgb(100%, 0%, 0%)" fill-opacity="1" stroke-width="0.01" stroke-linecap="butt" stroke-linejoin="miter" stroke="rgb(0%, 0%, 0%)" stroke-opacity="1" stroke-miterlimit="10" d="M 177.9375 562.394531 C 177.9375 563.726562 175.9375 563.726562 175.9375 562.394531 C 175.9375 561.058594 177.9375 561.058594 177.9375 562.394531 "/>
<path fill-rule="nonzero" fill="rgb(100%, 0%, 0%)" fill-opacity="1" stroke-width="0.01" stroke-linecap="butt" stroke-linejoin="miter" stroke="rgb(0%, 0%, 0%)" stroke-opacity="1" stroke-miterlimit="10" d="M 527.347656 164.082031 C 527.347656 165.414062 525.347656 165.414062 525.347656 164.082031 C 525.347656 162.746094 527.347656 162.746094 527.347656 164.082031 "/>
<path fill-rule="nonzero" fill="rgb(100%, 0%, 0%)" fill-opacity="1" stroke-width="0.01" stroke-linecap="butt" stroke-linejoin="miter" stroke="rgb(0%, 0%, 0%)" stroke-opacity="1" stroke-miterlimit="10" d="M 251.039062 474.742188 C 251.039062 476.074219 249.039062 476.074219 249.039062 474.742188 C 249.039062 473.40625 251.039062 473.40625 251.039062 474.742188 "/>
<path fill-rule="nonzero" fill="rgb(100%, 0%, 0%)" fill-opacity="1" stroke-width="0.01" stroke-linecap="butt" stroke-linejoin="miter" stroke="rgb(0%, 0%, 0%)" stroke-opacity="1" stroke-miterlimit="10" d="M 220.886719 365.742188 C 220.886719 367.074219 218.886719 367.074219 218.886719 365.742188 C 218.886719 364.410156 220.886719 364.410156 220.886719 365.742188 "/>
<path fill-rule="nonzero" fill="rgb(100%, 0%, 0%)" fill-opacity="1" stroke-width="0.01" stroke-linecap="butt" stroke-linejoin="miter" stroke="rgb(0%, 0%, 0%)" stroke-opacity="1" stroke-miterlimit="10" d="M 218.714844 390.582031 C 218.714844 391.914062 216.714844 391.914062 216.714844 390.582031 C 216.714844 389.246094 218.714844 389.246094 218.714844 390.582031 "/>
<path fill-rule="nonzero" fill="rgb(100%, 0%, 0%)" fill-opacity="1" stroke-width="0.01" stroke-linecap="butt" stroke-linejoin="miter" stroke="rgb(0%, 0%, 0%)" stroke-opacity="1" stroke-miterlimit="10" d="M 542.457031 242.289062 C 542.457031 243.625 540.457031 243.625 540.457031 242.289062 C 540.457031 240.957031 542.457031 240.957031 542.457031 242.289062 "/>
<path fill-rule="nonzero" fill="rgb(100%, 0%, 0%)" fill-opacity="1" stroke-width="0.01" stroke-linecap="butt" stroke-linejoin="miter" stroke="rgb(0%, 0%, 0%)" stroke-opacity="1" stroke-miterlimit="10" d="M 545.269531 226.703125 C 545.269531 228.035156 543.269531 228.035156 543.269531 226.703125 C 543.269531 225.371094 545.269531 225.371094 545.269531 226.703125 "/>
<path fill-rule="nonzero" fill="rgb(100%, 0%, 0%)" fill-opacity="1" stroke-width="0.01" stroke-linecap="butt" stroke-linejoin="miter" stroke="rgb(0%, 0%, 0%)" stroke-opacity="1" stroke-miterlimit="10" d="M 428.257812 269.085938 C 428.257812 270.417969 426.257812 270.417969 426.257812 269.085938 C 426.257812 267.75 428.257812 267.75 428.257812 269.085938 "/>
<path fill-rule="nonzero" fill="rgb(100%, 0%, 0%)" fill-opacity="1" stroke-width="0.01" stroke-linecap="butt" stroke-linejoin="miter" stroke="rgb(0%, 0%, 0%)" stroke-opacity="1" stroke-miterlimit="10" d="M 314.492188 151.6875 C 314.492188 153.023438 312.492188 153.023438 312.492188 151.6875 C 312.492188 150.355469 314.492188 150.355469 314.492188 151.6875 "/>
<path fill-rule="nonzero" fill="rgb(100%, 0%, 0%)" fill-opacity="1" stroke-width="0.01" stroke-linecap="butt" stroke-linejoin="miter" stroke="rgb(0%, 0%, 0%)" stroke-opacity="1" stroke-miterlimit="10" d="M 298.777344 151.714844 C 298.777344 153.046875 296.777344 153.046875 296.777344 151.714844 C 296.777344 150.378906 298.777344 150.378906 298.777344 151.714844 "/>
<path fill-rule="nonzero" fill="rgb(100%, 0%, 0%)" fill-opacity="1" stroke-width="0.01" stroke-linecap="butt" stroke-linejoin="miter" stroke="rgb(0%, 0%, 0%)" stroke-opacity="1" stroke-miterlimit="10" d="M 428.011719 378.78125 C 428.011719 380.113281 426.011719 380.113281 426.011719 378.78125 C 426.011719 377.449219 428.011719 377.449219 428.011719 378.78125 "/>
<path fill-rule="nonzero" fill="rgb(100%, 0%, 0%)" fill-opacity="1" stroke-width="0.01" stroke-linecap="butt" stroke-linejoin="miter" stroke="rgb(0%, 0%, 0%)" stroke-opacity="1" stroke-miterlimit="10" d="M 167.011719 244.605469 C 167.011719 245.941406 165.011719 245.941406 165.011719 244.605469 C 165.011719 243.273438 167.011719 243.273438 167.011719 244.605469 "/>
<path fill-rule="nonzero" fill="rgb(100%, 0%, 0%)" fill-opacity="1" stroke-width="0.01" stroke-linecap="butt" stroke-linejoin="miter" stroke="rgb(0%, 0%, 0%)" stroke-opacity="1" stroke-miterlimit="10" d="M 180.773438 235.238281 C 180.773438 236.570312 178.773438 236.570312 178.773438 235.238281 C 178.773438 233.90625 180.773438 233.90625 180.773438 235.238281 "/>
<path fill-rule="nonzero" fill="rgb(100%, 0%, 0%)" fill-opacity="1" stroke-width="0.01" stroke-linecap="butt" stroke-linejoin="miter" stroke="rgb(0%, 0%, 0%)" stroke-opacity="1" stroke-miterlimit="10" d="M 152.789062 253.234375 C 152.789062 254.566406 150.789062 254.566406 150.789062 253.234375 C 150.789062 251.902344 152.789062 251.902344 152.789062 253.234375 "/>
<path fill-rule="nonzero" fill="rgb(100%, 0%, 0%)" fill-opacity="1" stroke-width="0.01" stroke-linecap="butt" stroke-linejoin="miter" stroke="rgb(0%, 0%, 0%)" stroke-opacity="1" stroke-miterlimit="10" d="M 265.429688 525.46875 C 265.429688 526.800781 263.429688 526.800781 263.429688 525.46875 C 263.429688 524.132812 265.429688 524.132812 265.429688 525.46875 "/>
<path fill-rule="nonzero" fill="rgb(100%, 0%, 0%)" fill-opacity="1" stroke-width="0.01" stroke-linecap="butt" stroke-linejoin="miter" stroke="rgb(0%, 0%, 0%)" stroke-opacity="1" stroke-miterlimit="10" d="M 236.796875 92.597656 C 236.796875 93.929688 234.796875 93.929688 234.796875 92.597656 C 234.796875 91.261719 236.796875 91.261719 236.796875 92.597656 "/>
<path fill-rule="nonzero" fill="rgb(100%, 0%, 0%)" fill-opacity="1" stroke-width="0.01" stroke-linecap="butt" stroke-linejoin="miter" stroke="rgb(0%, 0%, 0%)" stroke-opacity="1" stroke-miterlimit="10" d="M 242.03125 77.621094 C 242.03125 78.953125 240.03125 78.953125 240.03125 77.621094 C 240.03125 76.285156 242.03125 76.285156 242.03125 77.621094 "/>
<path fill-rule="nonzero" fill="rgb(100%, 0%, 0%)" fill-opacity="1" stroke-width="0.01" stroke-linecap="butt" stroke-linejoin="miter" stroke="rgb(0%, 0%, 0%)" stroke-opacity="1" stroke-miterlimit="10" d="M 545.347656 434.886719 C 545.347656 436.21875 543.347656 436.21875 543.347656 434.886719 C 543.347656 433.550781 545.347656 433.550781 545.347656 434.886719 "/>
<path fill-rule="nonzero" fill="rgb(100%, 0%, 0%)" fill-opacity="1" stroke-width="0.01" stroke-linecap="butt" stroke-linejoin="miter" stroke="rgb(0%, 0%, 0%)" stroke-opacity="1" stroke-miterlimit="10" d="M 79.054688 390.859375 C 79.054688 392.191406 77.054688 392.191406 77.054688 390.859375 C 77.054688 389.523438 79.054688 389.523438 79.054688 390.859375 "/>
<path fill-rule="nonzero" fill="rgb(100%, 0%, 0%)" fill-opacity="1" stroke-width="0.01" stroke-linecap="butt" stroke-linejoin="miter" stroke="rgb(0%, 0%, 0%)" stroke-opacity="1" stroke-miterlimit="10" d="M 207.84375 376.902344 C 207.84375 378.234375 205.84375 378.234375 205.84375 376.902344 C 205.84375 375.566406 207.84375 375.566406 207.84375 376.902344 "/>
<path fill-rule="nonzero" fill="rgb(100%, 0%, 0%)" fill-opacity="1" stroke-width="0.01" stroke-linecap="butt" stroke-linejoin="miter" stroke="rgb(0%, 0%, 0%)" stroke-opacity="1" stroke-miterlimit="10" d="M 231.839844 379.339844 C 231.839844 380.671875 229.839844 380.671875 229.839844 379.339844 C 229.839844 378.003906 231.839844 378.003906 231.839844 379.339844 "/>
<path fill-rule="nonzero" fill="rgb(100%, 0%, 0%)" fill-opacity="1" stroke-width="0.01" stroke-linecap="butt" stroke-linejoin="miter" stroke="rgb(0%, 0%, 0%)" stroke-opacity="1" stroke-miterlimit="10" d="M 496.945312 290.992188 C 496.945312 292.328125 494.945312 292.328125 494.945312 290.992188 C 494.945312 289.660156 496.945312 289.660156 496.945312 290.992188 "/>
<path fill-rule="nonzero" fill="rgb(100%, 0%, 0%)" fill-opacity="1" stroke-width="0.01" stroke-linecap="butt" stroke-linejoin="miter" stroke="rgb(0%, 0%, 0%)" stroke-opacity="1" stroke-miterlimit="10" d="M 488.648438 277.550781 C 488.648438 278.882812 486.648438 278.882812 486.648438 277.550781 C 486.648438 276.214844 488.648438 276.214844 488.648438 277.550781 "/>
<path fill-rule="nonzero" fill="rgb(100%, 0%, 0%)" fill-opacity="1" stroke-width="0.01" stroke-linecap="butt" stroke-linejoin="miter" stroke="rgb(0%, 0%, 0%)" stroke-opacity="1" stroke-miterlimit="10" d="M 324.636719 306.75 C 324.636719 308.082031 322.636719 308.082031 322.636719 306.75 C 322.636719 305.414062 324.636719 305.414062 324.636719 306.75 "/>
<path fill-rule="nonzero" fill="rgb(100%, 0%, 0%)" fill-opacity="1" stroke-width="0.01" stroke-linecap="butt" stroke-linejoin="miter" stroke="rgb(0%, 0%, 0%)" stroke-opacity="1" stroke-miterlimit="10" d="M 120.796875 140.625 C 120.796875 141.957031 118.796875 141.957031 118.796875 140.625 C 118.796875 139.289062 120.796875 139.289062 120.796875 140.625 "/>
<path fill-rule="nonzero" fill="rgb(100%, 0%, 0%)" fill-opacity="1" stroke-width="0.01" stroke-linecap="butt" stroke-linejoin="miter" stroke="rgb(0%, 0%, 0%)" stroke-opacity="1" stroke-miterlimit="10" d="M 106.417969 134.234375 C 106.417969 135.566406 104.417969 135.566406 104.417969 134.234375 C 104.417969 132.898438 106.417969 132.898438 106.417969 134.234375 "/>
<path fill-rule="nonzero" fill="rgb(100%, 0%, 0%)" fill-opacity="1" stroke-width="0.01" stroke-linecap="butt" stroke-linejoin="miter" stroke="rgb(0%, 0%, 0%)" stroke-opacity="1" stroke-miterlimit="10" d="M 147.441406 80.8125 C 147.441406 82.144531 145.441406 82.144531 145.441406 80.8125 C 145.441406 79.476562 147.441406 79.476562 147.441406 80.8125 "/>
<path fill-rule="nonzero" fill="rgb(100%, 0%, 0%)" fill-opacity="1" stroke-width="0.01" stroke-linecap="butt" stroke-linejoin="miter" stroke="rgb(0%, 0%, 0%)" stroke-opacity="1" stroke-miterlimit="10" d="M 160.851562 89.085938 C 160.851562 90.417969 158.851562 90.417969 158.851562 89.085938 C 158.851562 87.75 160.851562 87.75 160.851562 89.085938 "/>
<path fill-rule="nonzero" fill="rgb(100%, 0%, 0%)" fill-opacity="1" stroke-width="0.01" stroke-linecap="butt" stroke-linejoin="miter" stroke="rgb(0%, 0%, 0%)" stroke-opacity="1" stroke-miterlimit="10" d="M 234.148438 200.457031 C 234.148438 201.789062 232.148438 201.789062 232.148438 200.457031 C 232.148438 199.121094 234.148438 199.121094 234.148438 200.457031 "/>
<path fill-rule="nonzero" fill="rgb(100%, 0%, 0%)" fill-opacity="1" stroke-width="0.01" stroke-linecap="butt" stroke-linejoin="miter" stroke="rgb(0%, 0%, 0%)" stroke-opacity="1" stroke-miterlimit="10" d="M 454.300781 216.179688 C 454.300781 217.511719 452.300781 217.511719 452.300781 216.179688 C 452.300781 214.84375 454.300781 214.84375 454.300781 216.179688 "/>
<path fill-rule="nonzero" fill="rgb(100%, 0%, 0%)" fill-opacity="1" stroke-width="0.01" stroke-linecap="butt" stroke-linejoin="miter" stroke="rgb(0%, 0%, 0%)" stroke-opacity="1" stroke-miterlimit="10" d="M 456.539062 200.546875 C 456.539062 201.878906 454.539062 201.878906 454.539062 200.546875 C 454.539062 199.210938 456.539062 199.210938 456.539062 200.546875 "/>
<path fill-rule="nonzero" fill="rgb(100%, 0%, 0%)" fill-opacity="1" stroke-width="0.01" stroke-linecap="butt" stroke-linejoin="miter" stroke="rgb(0%, 0%, 0%)" stroke-opacity="1" stroke-miterlimit="10" d="M 298.597656 418.207031 C 298.597656 419.542969 296.597656 419.542969 296.597656 418.207031 C 296.597656 416.875 298.597656 416.875 298.597656 418.207031 "/>
<path fill-rule="nonzero" fill="rgb(100%, 0%, 0%)" fill-opacity="1" stroke-width="0.01" stroke-linecap="butt" stroke-linejoin="miter" stroke="rgb(0%, 0%, 0%)" stroke-opacity="1" stroke-miterlimit="10" d="M 316.421875 435.394531 C 316.421875 436.726562 314.421875 436.726562 314.421875 435.394531 C 314.421875 434.0625 316.421875 434.0625 316.421875 435.394531 "/>
<path fill-rule="nonzero" fill="rgb(100%, 0%, 0%)" fill-opacity="1" stroke-width="0.01" stroke-linecap="butt" stroke-linejoin="miter" stroke="rgb(0%, 0%, 0%)" stroke-opacity="1" stroke-miterlimit="10" d="M 406.929688 452.179688 C 406.929688 453.511719 404.929688 453.511719 404.929688 452.179688 C 404.929688 450.847656 406.929688 450.847656 406.929688 452.179688 "/>
<path fill-rule="nonzero" fill="rgb(100%, 0%, 0%)" fill-opacity="1" stroke-width="0.01" stroke-linecap="butt" stroke-linejoin="miter" stroke="rgb(0%, 0%, 0%)" stroke-opacity="1" stroke-miterlimit="10" d="M 410.460938 467.640625 C 410.460938 468.976562 408.460938 468.976562 408.460938 467.640625 C 408.460938 466.308594 410.460938 466.308594 410.460938 467.640625 "/>
<path fill-rule="nonzero" fill="rgb(100%, 0%, 0%)" fill-opacity="1" stroke-width="0.01" stroke-linecap="butt" stroke-linejoin="miter" stroke="rgb(0%, 0%, 0%)" stroke-opacity="1" stroke-miterlimit="10" d="M 146.167969 314.324219 C 146.167969 315.65625 144.167969 315.65625 144.167969 314.324219 C 144.167969 312.988281 146.167969 312.988281 146.167969 314.324219 "/>
<path fill-rule="nonzero" fill="rgb(100%, 0%, 0%)" fill-opacity="1" stroke-width="0.01" stroke-linecap="butt" stroke-linejoin="miter" stroke="rgb(0%, 0%, 0%)" stroke-opacity="1" stroke-miterlimit="10" d="M 130.707031 311.648438 C 130.707031 312.984375 128.707031 312.984375 128.707031 311.648438 C 128.707031 310.316406 130.707031 310.316406 130.707031 311.648438 "/>
<path fill-rule="nonzero" fill="rgb(100%, 0%, 0%)" fill-opacity="1" stroke-width="0.01" stroke-linecap="butt" stroke-linejoin="miter" stroke="rgb(0%, 0%, 0%)" stroke-opacity="1" stroke-miterlimit="10" d="M 314.800781 222.863281 C 314.800781 224.195312 312.800781 224.195312 312.800781 222.863281 C 312.800781 221.53125 314.800781 221.53125 314.800781 222.863281 "/>
<path fill-rule="nonzero" fill="rgb(100%, 0%, 0%)" fill-opacity="1" stroke-width="0.01" stroke-linecap="butt" stroke-linejoin="miter" stroke="rgb(0%, 0%, 0%)" stroke-opacity="1" stroke-miterlimit="10" d="M 289.902344 223.585938 C 289.902344 224.917969 287.902344 224.917969 287.902344 223.585938 C 287.902344 222.253906 289.902344 222.253906 289.902344 223.585938 "/>
<path fill-rule="nonzero" fill="rgb(100%, 0%, 0%)" fill-opacity="1" stroke-width="0.01" stroke-linecap="butt" stroke-linejoin="miter" stroke="rgb(0%, 0%, 0%)" stroke-opacity="1" stroke-miterlimit="10" d="M 209.695312 152.765625 C 209.695312 154.101562 207.695312 154.101562 207.695312 152.765625 C 207.695312 151.433594 209.695312 151.433594 209.695312 152.765625 "/>
<path fill-rule="nonzero" fill="rgb(100%, 0%, 0%)" fill-opacity="1" stroke-width="0.01" stroke-linecap="butt" stroke-linejoin="miter" stroke="rgb(0%, 0%, 0%)" stroke-opacity="1" stroke-miterlimit="10" d="M 195.375 159.117188 C 195.375 160.449219 193.375 160.449219 193.375 159.117188 C 193.375 157.78125 195.375 157.78125 195.375 159.117188 "/>
<path fill-rule="nonzero" fill="rgb(100%, 0%, 0%)" fill-opacity="1" stroke-width="0.01" stroke-linecap="butt" stroke-linejoin="miter" stroke="rgb(0%, 0%, 0%)" stroke-opacity="1" stroke-miterlimit="10" d="M 47.71875 328.863281 C 47.71875 330.195312 45.71875 330.195312 45.71875 328.863281 C 45.71875 327.53125 47.71875 327.53125 47.71875 328.863281 "/>
<path fill-rule="nonzero" fill="rgb(100%, 0%, 0%)" fill-opacity="1" stroke-width="0.01" stroke-linecap="butt" stroke-linejoin="miter" stroke="rgb(0%, 0%, 0%)" stroke-opacity="1" stroke-miterlimit="10" d="M 40.144531 342.753906 C 40.144531 344.085938 38.144531 344.085938 38.144531 342.753906 C 38.144531 341.421875 40.144531 341.421875 40.144531 342.753906 "/>
<path fill-rule="nonzero" fill="rgb(100%, 0%, 0%)" fill-opacity="1" stroke-width="0.01" stroke-linecap="butt" stroke-linejoin="miter" stroke="rgb(0%, 0%, 0%)" stroke-opacity="1" stroke-miterlimit="10" d="M 581 299.542969 C 581 300.875 579 300.875 579 299.542969 C 579 298.207031 581 298.207031 581 299.542969 "/>
<path fill-rule="nonzero" fill="rgb(100%, 0%, 0%)" fill-opacity="1" stroke-width="0.01" stroke-linecap="butt" stroke-linejoin="miter" stroke="rgb(0%, 0%, 0%)" stroke-opacity="1" stroke-miterlimit="10" d="M 207.679688 20 C 207.679688 21.332031 205.679688 21.332031 205.679688 20 C 205.679688 18.667969 207.679688 18.667969 207.679688 20 "/>
<path fill-rule="nonzero" fill="rgb(100%, 0%, 0%)" fill-opacity="1" stroke-width="0.01" stroke-linecap="butt" stroke-linejoin="miter" stroke="rgb(0%, 0%, 0%)" stroke-opacity="1" stroke-miterlimit="10" d="M 192.15625 22.273438 C 192.15625 23.605469 190.15625 23.605469 190.15625 22.273438 C 190.15625 20.941406 192.15625 20.941406 192.15625 22.273438 "/>
<path fill-rule="nonzero" fill="rgb(100%, 0%, 0%)" fill-opacity="1" stroke-width="0.01" stroke-linecap="butt" stroke-linejoin="miter" stroke="rgb(0%, 0%, 0%)" stroke-opacity="1" stroke-miterlimit="10" d="M 367.1875 533.214844 C 367.1875 534.550781 365.1875 534.550781 365.1875 533.214844 C 365.1875 531.882812 367.1875 531.882812 367.1875 533.214844 "/>
<path fill-rule="nonzero" fill="rgb(100%, 0%, 0%)" fill-opacity="1" stroke-width="0.01" stroke-linecap="butt" stroke-linejoin="miter" stroke="rgb(0%, 0%, 0%)" stroke-opacity="1" stroke-miterlimit="10" d="M 382.773438 534.125 C 382.773438 535.460938 380.773438 535.460938 380.773438 534.125 C 380.773438 532.792969 382.773438 532.792969 382.773438 534.125 "/>
<path fill-rule="nonzero" fill="rgb(100%, 0%, 0%)" fill-opacity="1" stroke-width="0.01" stroke-linecap="butt" stroke-linejoin="miter" stroke="rgb(0%, 0%, 0%)" stroke-opacity="1" stroke-miterlimit="10" d="M 125.226562 365.332031 C 125.226562 366.667969 123.226562 366.667969 123.226562 365.332031 C 123.226562 364 125.226562 364 125.226562 365.332031 "/>
<path fill-rule="nonzero" fill="rgb(100%, 0%, 0%)" fill-opacity="1" stroke-width="0.01" stroke-linecap="butt" stroke-linejoin="miter" stroke="rgb(0%, 0%, 0%)" stroke-opacity="1" stroke-miterlimit="10" d="M 200.242188 515.707031 C 200.242188 517.039062 198.242188 517.039062 198.242188 515.707031 C 198.242188 514.371094 200.242188 514.371094 200.242188 515.707031 "/>
<path fill-rule="nonzero" fill="rgb(100%, 0%, 0%)" fill-opacity="1" stroke-width="0.01" stroke-linecap="butt" stroke-linejoin="miter" stroke="rgb(0%, 0%, 0%)" stroke-opacity="1" stroke-miterlimit="10" d="M 454.648438 332.441406 C 454.648438 333.773438 452.648438 333.773438 452.648438 332.441406 C 452.648438 331.105469 454.648438 331.105469 454.648438 332.441406 "/>
<path fill-rule="nonzero" fill="rgb(100%, 0%, 0%)" fill-opacity="1" stroke-width="0.01" stroke-linecap="butt" stroke-linejoin="miter" stroke="rgb(0%, 0%, 0%)" stroke-opacity="1" stroke-miterlimit="10" d="M 432.894531 144.722656 C 432.894531 146.054688 430.894531 146.054688 430.894531 144.722656 C 430.894531 143.386719 432.894531 143.386719 432.894531 144.722656 "/>
<path fill-rule="nonzero" fill="rgb(100%, 0%, 0%)" fill-opacity="1" stroke-width="0.01" stroke-linecap="butt" stroke-linejoin="miter" stroke="rgb(0%, 0%, 0%)" stroke-opacity="1" stroke-miterlimit="10" d="M 109.476562 203.007812 C 109.476562 204.34375 107.476562 204.34375 107.476562 203.007812 C 107.476562 201.675781 109.476562 201.675781 109.476562 203.007812 "/>
<path fill-rule="nonzero" fill="rgb(100%, 0%, 0%)" fill-opacity="1" stroke-width="0.01" stroke-linecap="butt" stroke-linejoin="miter" stroke="rgb(0%, 0%, 0%)" stroke-opacity="1" stroke-miterlimit="10" d="M 94.210938 206.355469 C 94.210938 207.6875 92.210938 207.6875 92.210938 206.355469 C 92.210938 205.023438 94.210938 205.023438 94.210938 206.355469 "/>
<path fill-rule="nonzero" fill="rgb(100%, 0%, 0%)" fill-opacity="1" stroke-width="0.01" stroke-linecap="butt" stroke-linejoin="miter" stroke="rgb(0%, 0%, 0%)" stroke-opacity="1" stroke-miterlimit="10" d="M 474.53125 434.722656 C 474.53125 436.054688 472.53125 436.054688 472.53125 434.722656 C 472.53125 433.386719 474.53125 433.386719 474.53125 434.722656 "/>
<path fill-rule="nonzero" fill="rgb(100%, 0%, 0%)" fill-opacity="1" stroke-width="0.01" stroke-linecap="butt" stroke-linejoin="miter" stroke="rgb(0%, 0%, 0%)" stroke-opacity="1" stroke-miterlimit="10" d="M 469.53125 419.660156 C 469.53125 420.992188 467.53125 420.992188 467.53125 419.660156 C 467.53125 418.328125 469.53125 418.328125 469.53125 419.660156 "/>
<path fill-rule="nonzero" fill="rgb(100%, 0%, 0%)" fill-opacity="1" stroke-width="0.01" stroke-linecap="butt" stroke-linejoin="miter" stroke="rgb(0%, 0%, 0%)" stroke-opacity="1" stroke-miterlimit="10" d="M 322.273438 574.902344 C 322.273438 576.238281 320.273438 576.238281 320.273438 574.902344 C 320.273438 573.570312 322.273438 573.570312 322.273438 574.902344 "/>
</svg>
