<?xml version="1.0" encoding="UTF-8"?>
<svg xmlns="http://www.w3.org/2000/svg" xmlns:xlink="http://www.w3.org/1999/xlink" width="600" height="600" viewBox="0 0 600 600">
<rect x="-60" y="-60" width="720" height="720" fill="rgb(100%, 100%, 100%)" fill-opacity="1"/>
<path fill="none" stroke-width="0.2" stroke-linecap="butt" stroke-linejoin="miter" stroke="rgb(26.666667%, 26.666667%, 26.666667%)" stroke-opacity="1" stroke-miterlimit="10" d="M 359.066406 235.464844 C 359.066406 237.464844 356.066406 237.464844 356.066406 235.464844 C 356.066406 233.464844 359.066406 233.464844 359.066406 235.464844 "/>
<path fill="none" stroke-width="0.2" stroke-linecap="butt" stroke-linejoin="miter" stroke="rgb(26.666667%, 26.666667%, 26.666667%)" stroke-opacity="1" stroke-miterlimit="10" d="M 356.507812 236.527344 L 372.175781 233.484375 "/>
<path fill-rule="nonzero" fill="rgb(26.666667%, 26.666667%, 26.666667%)" fill-opacity="1" d="M 374.277344 233.074219 L 372.308594 234.164062 L 372.046875 232.800781 L 374.277344 233.074219 "/>
<path fill="none" stroke-width="0.2" stroke-linecap="butt" stroke-linejoin="miter" stroke="rgb(26.666667%, 26.666667%, 26.666667%)" stroke-opacity="1" stroke-miterlimit="10" d="M 356.507812 236.527344 L 343.25 237.117188 "/>
<path fill-rule="nonzero" fill="rgb(26.666667%, 26.666667%, 26.666667%)" fill-opacity="1" d="M 341.113281 237.214844 L 343.21875 236.421875 L 343.28125 237.8125 L 341.113281 237.214844 "/>
<path fill="none" stroke-width="0.2" stroke-linecap="butt" stroke-linejoin="miter" stroke="rgb(26.666667%, 26.666667%, 26.666667%)" stroke-opacity="1" stroke-miterlimit="10" d="M 175.851562 88.710938 L 187.554688 87.515625 "/>
<path fill-rule="nonzero" fill="rgb(26.666667%, 26.666667%, 26.666667%)" fill-opacity="1" d="M 189.683594 87.296875 L 187.625 88.207031 L 187.480469 86.824219 L 189.683594 87.296875 "/>
<path fill="none" stroke-width="0.2" stroke-linecap="butt" stroke-linejoin="miter" stroke="rgb(26.666667%, 26.666667%, 26.666667%)" stroke-opacity="1" stroke-miterlimit="10" d="M 453.496094 250.523438 L 452.65625 238.105469 "/>
<path fill-rule="nonzero" fill="rgb(26.666667%, 26.666667%, 26.666667%)" fill-opacity="1" d="M 452.511719 235.96875 L 453.351562 238.058594 L 451.964844 238.152344 L 452.511719 235.96875 "/>
<path fill="none" stroke-width="0.2" stroke-linecap="butt" stroke-linejoin="miter" stroke="rgb(26.666667%, 26.666667%, 26.666667%)" stroke-opacity="1" stroke-miterlimit="10" d="M 103.652344 409.011719 L 115.339844 409.742188 "/>
<path fill-rule="nonzero" fill="rgb(26.666667%, 26.666667%, 26.666667%)" fill-opacity="1" d="M 117.476562 409.875 L 115.296875 410.433594 L 115.382812 409.046875 L 117.476562 409.875 "/>
<path fill="none" stroke-width="0.2" stroke-linecap="butt" stroke-linejoin="miter" stroke="rgb(26.666667%, 26.666667%, 26.666667%)" stroke-opacity="1" stroke-miterlimit="10" d="M 495.582031 485.441406 C 495.582031 487.441406 492.582031 487.441406 492.582031 485.441406 C 492.582031 483.441406 495.582031 483.441406 495.582031 485.441406 "/>
<path fill="none" stroke-width="0.2" stroke-linecap="butt" stroke-linejoin="miter" stroke="rgb(26.666667%, 26.666667%, 26.666667%)" stroke-opacity="1" stroke-miterlimit="10" d="M 444 450.632812 C 444 452.632812 441 452.632812 441 450.632812 C 441 448.632812 444 448.632812 444 450.632812 "/>
<path fill="none" stroke-width="0.2" stroke-linecap="butt" stroke-linejoin="miter" stroke="rgb(26.666667%, 26.666667%, 26.666667%)" stroke-opacity="1" stroke-miterlimit="10" d="M 312.445312 525.121094 C 312.445312 527.121094 309.445312 527.121094 309.445312 525.121094 C 309.445312 523.121094 312.445312 523.121094 312.445312 525.121094 "/>
<path fill="none" stroke-width="0.2" stroke-linecap="butt" stroke-linejoin="miter" stroke="rgb(26.666667%, 26.666667%, 26.666667%)" stroke-opacity="1" stroke-miterlimit="10" d="M 384.769531 248.695312 L 376.878906 235.574219 "/>
<path fill-rule="nonzero" fill="rgb(26.666667%, 26.666667%, 26.666667%)" fill-opacity="1" d="M 375.773438 233.742188 L 377.472656 235.214844 L 376.28125 235.933594 L 375.773438 233.742188 "/>
<path fill="none" stroke-width="0.2" stroke-linecap="butt" stroke-linejoin="miter" stroke="rgb(26.666667%, 26.666667%, 26.666667%)" stroke-opacity="1" stroke-miterlimit="10" d="M 582.5625 258.914062 C 582.5625 260.914062 579.5625 260.914062 579.5625 258.914062 C 579.5625 256.914062 582.5625 256.914062 582.5625 258.914062 "/>
<path fill="none" stroke-width="0.2" stroke-linecap="butt" stroke-linejoin="miter" stroke="rgb(26.666667%, 26.666667%, 26.666667%)" stroke-opacity="1" stroke-miterlimit="10" d="M 408.542969 60.804688 C 408.542969 62.804688 405.542969 62.804688 405.542969 60.804688 C 405.542969 58.804688 408.542969 58.804688 408.542969 60.804688 "/>
<path fill="none" stroke-width="0.2" stroke-linecap="butt" stroke-linejoin="miter" stroke="rgb(26.666667%, 26.666667%, 26.666667%)" stroke-opacity="1" stroke-miterlimit="10" d="M 335.433594 456.632812 C 335.433594 458.632812 332.433594 458.632812 332.433594 456.632812 C 332.433594 454.632812 335.433594 454.632812 335.433594 456.632812 "/>
<path fill="none" stroke-width="0.2" stroke-linecap="butt" stroke-linejoin="miter" stroke="rgb(26.666667%, 26.666667%, 26.666667%)" stroke-opacity="1" stroke-miterlimit="10" d="M 332.875 457.691406 L 332.75 445.289062 "/>
<path fill-rule="nonzero" fill="rgb(26.666667%, 26.666667%, 26.666667%)" fill-opacity="1" d="M 332.726562 443.152344 L 333.445312 445.285156 L 332.054688 445.296875 L 332.726562 443.152344 "/>
<path fill="none" stroke-width="0.2" stroke-linecap="butt" stroke-linejoin="miter" stroke="rgb(26.666667%, 26.666667%, 26.666667%)" stroke-opacity="1" stroke-miterlimit="10" d="M 255.757812 522.125 C 255.757812 524.125 252.757812 524.125 252.757812 522.125 C 252.757812 520.125 255.757812 520.125 255.757812 522.125 "/>
<path fill="none" stroke-width="0.2" stroke-linecap="butt" stroke-linejoin="miter" stroke="rgb(26.666667%, 26.666667%, 26.666667%)" stroke-opacity="1" stroke-miterlimit="10" d="M 215.167969 138.078125 C 215.167969 140.078125 212.167969 140.078125 212.167969 138.078125 C 212.167969 136.078125 215.167969 136.078125 215.167969 138.078125 "/>
<path fill="none" stroke-width="0.2" stroke-linecap="butt" stroke-linejoin="miter" stroke="rgb(26.666667%, 26.666667%, 26.666667%)" stroke-opacity="1" stroke-miterlimit="10" d="M 124.636719 465.863281 L 136.398438 465.773438 "/>
<path fill-rule="nonzero" fill="rgb(26.666667%, 26.666667%, 26.666667%)" fill-opacity="1" d="M 138.539062 465.757812 L 136.40625 466.46875 L 136.394531 465.078125 L 138.539062 465.757812 "/>
<path fill="none" stroke-width="0.2" stroke-linecap="butt" stroke-linejoin="miter" stroke="rgb(26.666667%, 26.666667%, 26.666667%)" stroke-opacity="1" stroke-miterlimit="10" d="M 393.789062 176.226562 L 389.464844 191.445312 "/>
<path fill-rule="nonzero" fill="rgb(26.666667%, 26.666667%, 26.666667%)" fill-opacity="1" d="M 388.878906 193.503906 L 388.796875 191.257812 L 390.132812 191.636719 L 388.878906 193.503906 "/>
<path fill="none" stroke-width="0.2" stroke-linecap="butt" stroke-linejoin="miter" stroke="rgb(26.666667%, 26.666667%, 26.666667%)" stroke-opacity="1" stroke-miterlimit="10" d="M 393.789062 176.226562 L 397.890625 162.808594 "/>
<path fill-rule="nonzero" fill="rgb(26.666667%, 26.666667%, 26.666667%)" fill-opacity="1" d="M 398.519531 160.765625 L 398.558594 163.011719 L 397.226562 162.605469 L 398.519531 160.765625 "/>
<path fill="none" stroke-width="0.2" stroke-linecap="butt" stroke-linejoin="miter" stroke="rgb(26.666667%, 26.666667%, 26.666667%)" stroke-opacity="1" stroke-miterlimit="10" d="M 214.484375 557.546875 C 214.484375 559.546875 211.484375 559.546875 211.484375 557.546875 C 211.484375 555.546875 214.484375 555.546875 214.484375 557.546875 "/>
<path fill="none" stroke-width="0.2" stroke-linecap="butt" stroke-linejoin="miter" stroke="rgb(26.666667%, 26.666667%, 26.666667%)" stroke-opacity="1" stroke-miterlimit="10" d="M 385.367188 494.933594 L 380.367188 506.128906 "/>
<path fill-rule="nonzero" fill="rgb(26.666667%, 26.666667%, 26.666667%)" fill-opacity="1" d="M 379.492188 508.085938 L 379.730469 505.847656 L 381 506.414062 L 379.492188 508.085938 "/>
<path fill="none" stroke-width="0.2" stroke-linecap="butt" stroke-linejoin="miter" stroke="rgb(26.666667%, 26.666667%, 26.666667%)" stroke-opacity="1" stroke-miterlimit="10" d="M 460.941406 139.472656 L 468.828125 148.675781 "/>
<path fill-rule="nonzero" fill="rgb(26.666667%, 26.666667%, 26.666667%)" fill-opacity="1" d="M 470.21875 150.300781 L 468.296875 149.128906 L 469.355469 148.222656 L 470.21875 150.300781 "/>
<path fill="none" stroke-width="0.2" stroke-linecap="butt" stroke-linejoin="miter" stroke="rgb(26.666667%, 26.666667%, 26.666667%)" stroke-opacity="1" stroke-miterlimit="10" d="M 121.789062 306.710938 L 110.585938 303.480469 "/>
<path fill-rule="nonzero" fill="rgb(26.666667%, 26.666667%, 26.666667%)" fill-opacity="1" d="M 108.527344 302.886719 L 110.777344 302.8125 L 110.390625 304.148438 L 108.527344 302.886719 "/>
<path fill="none" stroke-width="0.2" stroke-linecap="butt" stroke-linejoin="miter" stroke="rgb(26.666667%, 26.666667%, 26.666667%)" stroke-opacity="1" stroke-miterlimit="10" d="M 287.40625 251.964844 L 288.199219 239.566406 "/>
<path fill-rule="nonzero" fill="rgb(26.666667%, 26.666667%, 26.666667%)" fill-opacity="1" d="M 288.335938 237.429688 L 288.894531 239.613281 L 287.507812 239.523438 L 288.335938 237.429688 "/>
<path fill="none" stroke-width="0.2" stroke-linecap="butt" stroke-linejoin="miter" stroke="rgb(26.666667%, 26.666667%, 26.666667%)" stroke-opacity="1" stroke-miterlimit="10" d="M 348.578125 122.871094 L 356.375 113.484375 "/>
<path fill-rule="nonzero" fill="rgb(26.666667%, 26.666667%, 26.666667%)" fill-opacity="1" d="M 357.742188 111.839844 L 356.910156 113.929688 L 355.839844 113.039062 L 357.742188 111.839844 "/>
<path fill="none" stroke-width="0.2" stroke-linecap="butt" stroke-linejoin="miter" stroke="rgb(26.666667%, 26.666667%, 26.666667%)" stroke-opacity="1" stroke-miterlimit="10" d="M 67.050781 163.761719 C 67.050781 165.761719 64.050781 165.761719 64.050781 163.761719 C 64.050781 161.761719 67.050781 161.761719 67.050781 163.761719 "/>
<path fill="none" stroke-width="0.2" stroke-linecap="butt" stroke-linejoin="miter" stroke="rgb(26.666667%, 26.666667%, 26.666667%)" stroke-opacity="1" stroke-miterlimit="10" d="M 279.246094 578.9375 C 279.246094 580.9375 276.246094 580.9375 276.246094 578.9375 C 276.246094 576.9375 279.246094 576.9375 279.246094 578.9375 "/>
<path fill="none" stroke-width="0.2" stroke-linecap="butt" stroke-linejoin="miter" stroke="rgb(26.666667%, 26.666667%, 26.666667%)" stroke-opacity="1" stroke-miterlimit="10" d="M 195.21875 27.605469 C 195.21875 29.605469 192.21875 29.605469 192.21875 27.605469 C 192.21875 25.605469 195.21875 25.605469 195.21875 27.605469 "/>
<path fill="none" stroke-width="0.2" stroke-linecap="butt" stroke-linejoin="miter" stroke="rgb(26.666667%, 26.666667%, 26.666667%)" stroke-opacity="1" stroke-miterlimit="10" d="M 493.527344 331.613281 C 493.527344 333.613281 490.527344 333.613281 490.527344 331.613281 C 490.527344 329.613281 493.527344 329.613281 493.527344 331.613281 "/>
<path fill="none" stroke-width="0.2" stroke-linecap="butt" stroke-linejoin="miter" stroke="rgb(26.666667%, 26.666667%, 26.666667%)" stroke-opacity="1" stroke-miterlimit="10" d="M 88.972656 247.367188 C 88.972656 249.367188 85.972656 249.367188 85.972656 247.367188 C 85.972656 245.367188 88.972656 245.367188 88.972656 247.367188 "/>
<path fill="none" stroke-width="0.2" stroke-linecap="butt" stroke-linejoin="miter" stroke="rgb(26.666667%, 26.666667%, 26.666667%)" stroke-opacity="1" stroke-miterlimit="10" d="M 358.097656 565.546875 C 358.097656 567.546875 355.097656 567.546875 355.097656 565.546875 C 355.097656 563.546875 358.097656 563.546875 358.097656 565.546875 "/>
<path fill="none" stroke-width="0.2" stroke-linecap="butt" stroke-linejoin="miter" stroke="rgb(26.666667%, 26.666667%, 26.666667%)" stroke-opacity="1" stroke-miterlimit="10" d="M 442.9375 518.554688 C 442.9375 520.554688 439.9375 520.554688 439.9375 518.554688 C 439.9375 516.554688 442.9375 516.554688 442.9375 518.554688 "/>
<path fill="none" stroke-width="0.2" stroke-linecap="butt" stroke-linejoin="miter" stroke="rgb(26.666667%, 26.666667%, 26.666667%)" stroke-opacity="1" stroke-miterlimit="10" d="M 270.167969 443.4375 L 274.855469 454.78125 "/>
<path fill-rule="nonzero" fill="rgb(26.666667%, 26.666667%, 26.666667%)" fill-opacity="1" d="M 275.671875 456.757812 L 274.210938 455.046875 L 275.496094 454.515625 L 275.671875 456.757812 "/>
<path fill="none" stroke-width="0.2" stroke-linecap="butt" stroke-linejoin="miter" stroke="rgb(26.666667%, 26.666667%, 26.666667%)" stroke-opacity="1" stroke-miterlimit="10" d="M 173.761719 277.386719 L 167.890625 266.714844 "/>
<path fill-rule="nonzero" fill="rgb(26.666667%, 26.666667%, 26.666667%)" fill-opacity="1" d="M 166.859375 264.839844 L 168.5 266.378906 L 167.28125 267.050781 L 166.859375 264.839844 "/>
<path fill="none" stroke-width="0.2" stroke-linecap="butt" stroke-linejoin="miter" stroke="rgb(26.666667%, 26.666667%, 26.666667%)" stroke-opacity="1" stroke-miterlimit="10" d="M 392.945312 431.898438 C 392.945312 433.898438 389.945312 433.898438 389.945312 431.898438 C 389.945312 429.898438 392.945312 429.898438 392.945312 431.898438 "/>
<path fill="none" stroke-width="0.2" stroke-linecap="butt" stroke-linejoin="miter" stroke="rgb(26.666667%, 26.666667%, 26.666667%)" stroke-opacity="1" stroke-miterlimit="10" d="M 206.457031 339.4375 L 216.210938 332.832031 "/>
<path fill-rule="nonzero" fill="rgb(26.666667%, 26.666667%, 26.666667%)" fill-opacity="1" d="M 217.984375 331.632812 L 216.601562 333.410156 L 215.824219 332.257812 L 217.984375 331.632812 "/>
<path fill="none" stroke-width="0.2" stroke-linecap="butt" stroke-linejoin="miter" stroke="rgb(26.666667%, 26.666667%, 26.666667%)" stroke-opacity="1" stroke-miterlimit="10" d="M 125.800781 219.796875 C 125.800781 221.796875 122.800781 221.796875 122.800781 219.796875 C 122.800781 217.796875 125.800781 217.796875 125.800781 219.796875 "/>
<path fill="none" stroke-width="0.2" stroke-linecap="butt" stroke-linejoin="miter" stroke="rgb(26.666667%, 26.666667%, 26.666667%)" stroke-opacity="1" stroke-miterlimit="10" d="M 139.796875 158.375 L 127.40625 155.148438 "/>
<path fill-rule="nonzero" fill="rgb(26.666667%, 26.666667%, 26.666667%)" fill-opacity="1" d="M 125.335938 154.609375 L 127.582031 154.476562 L 127.230469 155.820312 L 125.335938 154.609375 "/>
<path fill="none" stroke-width="0.2" stroke-linecap="butt" stroke-linejoin="miter" stroke="rgb(26.666667%, 26.666667%, 26.666667%)" stroke-opacity="1" stroke-miterlimit="10" d="M 139.796875 158.375 L 152.199219 161.53125 "/>
<path fill-rule="nonzero" fill="rgb(26.666667%, 26.666667%, 26.666667%)" fill-opacity="1" d="M 154.273438 162.058594 L 152.027344 162.203125 L 152.371094 160.855469 L 154.273438 162.058594 "/>
<path fill="none" stroke-width="0.2" stroke-linecap="butt" stroke-linejoin="miter" stroke="rgb(26.666667%, 26.666667%, 26.666667%)" stroke-opacity="1" stroke-miterlimit="10" d="M 259.757812 63.433594 C 259.757812 65.433594 256.757812 65.433594 256.757812 63.433594 C 256.757812 61.433594 259.757812 61.433594 259.757812 63.433594 "/>
<path fill="none" stroke-width="0.2" stroke-linecap="butt" stroke-linejoin="miter" stroke="rgb(26.666667%, 26.666667%, 26.666667%)" stroke-opacity="1" stroke-miterlimit="10" d="M 401.761719 318.648438 L 413.238281 316.257812 "/>
<path fill-rule="nonzero" fill="rgb(26.666667%, 26.666667%, 26.666667%)" fill-opacity="1" d="M 415.332031 315.820312 L 413.378906 316.9375 L 413.09375 315.574219 L 415.332031 315.820312 "/>
<path fill="none" stroke-width="0.2" stroke-linecap="butt" stroke-linejoin="miter" stroke="rgb(26.666667%, 26.666667%, 26.666667%)" stroke-opacity="1" stroke-miterlimit="10" d="M 316.457031 81.105469 C 316.457031 83.105469 313.457031 83.105469 313.457031 81.105469 C 313.457031 79.105469 316.457031 79.105469 316.457031 81.105469 "/>
<path fill="none" stroke-width="0.2" stroke-linecap="butt" stroke-linejoin="miter" stroke="rgb(26.666667%, 26.666667%, 26.666667%)" stroke-opacity="1" stroke-miterlimit="10" d="M 192.664062 209.429688 C 192.664062 211.429688 189.664062 211.429688 189.664062 209.429688 C 189.664062 207.429688 192.664062 207.429688 192.664062 209.429688 "/>
<path fill="none" stroke-width="0.2" stroke-linecap="butt" stroke-linejoin="miter" stroke="rgb(26.666667%, 26.666667%, 26.666667%)" stroke-opacity="1" stroke-miterlimit="10" d="M 217.464844 476.589844 L 207.445312 470.320312 "/>
<path fill-rule="nonzero" fill="rgb(26.666667%, 26.666667%, 26.666667%)" fill-opacity="1" d="M 205.628906 469.183594 L 207.8125 469.730469 L 207.074219 470.910156 L 205.628906 469.183594 "/>
<path fill="none" stroke-width="0.2" stroke-linecap="butt" stroke-linejoin="miter" stroke="rgb(26.666667%, 26.666667%, 26.666667%)" stroke-opacity="1" stroke-miterlimit="10" d="M 305.273438 20 L 316.828125 22.449219 "/>
<path fill-rule="nonzero" fill="rgb(26.666667%, 26.666667%, 26.666667%)" fill-opacity="1" d="M 318.921875 22.894531 L 316.683594 23.128906 L 316.972656 21.769531 L 318.921875 22.894531 "/>
<path fill="none" stroke-width="0.2" stroke-linecap="butt" stroke-linejoin="miter" stroke="rgb(26.666667%, 26.666667%, 26.666667%)" stroke-opacity="1" stroke-miterlimit="10" d="M 382.917969 213.390625 L 387.703125 197.472656 "/>
<path fill-rule="nonzero" fill="rgb(26.666667%, 26.666667%, 26.666667%)" fill-opacity="1" d="M 388.320312 195.425781 L 388.367188 197.671875 L 387.035156 197.273438 L 388.320312 195.425781 "/>
<path fill="none" stroke-width="0.2" stroke-linecap="butt" stroke-linejoin="miter" stroke="rgb(26.666667%, 26.666667%, 26.666667%)" stroke-opacity="1" stroke-miterlimit="10" d="M 382.917969 213.390625 L 376.40625 229.960938 "/>
<path fill-rule="nonzero" fill="rgb(26.666667%, 26.666667%, 26.666667%)" fill-opacity="1" d="M 375.625 231.953125 L 375.761719 229.707031 L 377.054688 230.214844 L 375.625 231.953125 "/>
<path fill="none" stroke-width="0.2" stroke-linecap="butt" stroke-linejoin="miter" stroke="rgb(26.666667%, 26.666667%, 26.666667%)" stroke-opacity="1" stroke-miterlimit="10" d="M 284.449219 138.9375 L 275.027344 131.554688 "/>
<path fill-rule="nonzero" fill="rgb(26.666667%, 26.666667%, 26.666667%)" fill-opacity="1" d="M 273.34375 130.234375 L 275.457031 131.007812 L 274.601562 132.101562 L 273.34375 130.234375 "/>
<path fill="none" stroke-width="0.2" stroke-linecap="butt" stroke-linejoin="miter" stroke="rgb(26.666667%, 26.666667%, 26.666667%)" stroke-opacity="1" stroke-miterlimit="10" d="M 320.804688 319.742188 L 328.644531 310.710938 "/>
<path fill-rule="nonzero" fill="rgb(26.666667%, 26.666667%, 26.666667%)" fill-opacity="1" d="M 330.046875 309.09375 L 329.167969 311.164062 L 328.117188 310.253906 L 330.046875 309.09375 "/>
<path fill="none" stroke-width="0.2" stroke-linecap="butt" stroke-linejoin="miter" stroke="rgb(26.666667%, 26.666667%, 26.666667%)" stroke-opacity="1" stroke-miterlimit="10" d="M 22.5625 345.5625 C 22.5625 347.5625 19.5625 347.5625 19.5625 345.5625 C 19.5625 343.5625 22.5625 343.5625 22.5625 345.5625 "/>
<path fill="none" stroke-width="0.2" stroke-linecap="butt" stroke-linejoin="miter" stroke="rgb(26.666667%, 26.666667%, 26.666667%)" stroke-opacity="1" stroke-miterlimit="10" d="M 359.179688 369.152344 L 366.375 378.773438 "/>
<path fill-rule="nonzero" fill="rgb(26.666667%, 26.666667%, 26.666667%)" fill-opacity="1" d="M 367.65625 380.488281 L 365.816406 379.191406 L 366.933594 378.355469 L 367.65625 380.488281 "/>
<path fill="none" stroke-width="0.2" stroke-linecap="butt" stroke-linejoin="miter" stroke="rgb(26.666667%, 26.666667%, 26.666667%)" stroke-opacity="1" stroke-miterlimit="10" d="M 213.265625 403 L 223.660156 397.371094 "/>
<path fill-rule="nonzero" fill="rgb(26.666667%, 26.666667%, 26.666667%)" fill-opacity="1" d="M 225.539062 396.351562 L 223.988281 397.984375 L 223.328125 396.761719 L 225.539062 396.351562 "/>
<path fill="none" stroke-width="0.2" stroke-linecap="butt" stroke-linejoin="miter" stroke="rgb(26.666667%, 26.666667%, 26.666667%)" stroke-opacity="1" stroke-miterlimit="10" d="M 299.585938 375.695312 L 288.855469 380.265625 "/>
<path fill-rule="nonzero" fill="rgb(26.666667%, 26.666667%, 26.666667%)" fill-opacity="1" d="M 286.890625 381.105469 L 288.585938 379.625 L 289.128906 380.90625 L 286.890625 381.105469 "/>
<path fill="none" stroke-width="0.2" stroke-linecap="butt" stroke-linejoin="miter" stroke="rgb(26.666667%, 26.666667%, 26.666667%)" stroke-opacity="1" stroke-miterlimit="10" d="M 508.09375 217.46875 L 514.109375 206.839844 "/>
<path fill-rule="nonzero" fill="rgb(26.666667%, 26.666667%, 26.666667%)" fill-opacity="1" d="M 515.160156 204.976562 L 514.710938 207.183594 L 513.503906 206.496094 L 515.160156 204.976562 "/>
<path fill="none" stroke-width="0.2" stroke-linecap="butt" stroke-linejoin="miter" stroke="rgb(26.666667%, 26.666667%, 26.666667%)" stroke-opacity="1" stroke-miterlimit="10" d="M 525.707031 280.089844 L 526.339844 292.4375 "/>
<path fill-rule="nonzero" fill="rgb(26.666667%, 26.666667%, 26.666667%)" fill-opacity="1" d="M 526.449219 294.574219 L 525.644531 292.472656 L 527.035156 292.398438 L 526.449219 294.574219 "/>
<path fill="none" stroke-width="0.2" stroke-linecap="butt" stroke-linejoin="miter" stroke="rgb(26.666667%, 26.666667%, 26.666667%)" stroke-opacity="1" stroke-miterlimit="10" d="M 230.039062 255.503906 L 232.050781 267.667969 "/>
<path fill-rule="nonzero" fill="rgb(26.666667%, 26.666667%, 26.666667%)" fill-opacity="1" d="M 232.398438 269.78125 L 231.363281 267.78125 L 232.734375 267.554688 L 232.398438 269.78125 "/>
<path fill="none" stroke-width="0.2" stroke-linecap="butt" stroke-linejoin="miter" stroke="rgb(26.666667%, 26.666667%, 26.666667%)" stroke-opacity="1" stroke-miterlimit="10" d="M 242.335938 186.851562 L 253.53125 190.246094 "/>
<path fill-rule="nonzero" fill="rgb(26.666667%, 26.666667%, 26.666667%)" fill-opacity="1" d="M 255.582031 190.867188 L 253.332031 190.910156 L 253.734375 189.582031 L 255.582031 190.867188 "/>
<path fill="none" stroke-width="0.2" stroke-linecap="butt" stroke-linejoin="miter" stroke="rgb(26.666667%, 26.666667%, 26.666667%)" stroke-opacity="1" stroke-miterlimit="10" d="M 166.078125 538.265625 C 166.078125 540.265625 163.078125 540.265625 163.078125 538.265625 C 163.078125 536.265625 166.078125 536.265625 166.078125 538.265625 "/>
<path fill="none" stroke-width="0.2" stroke-linecap="butt" stroke-linejoin="miter" stroke="rgb(26.666667%, 26.666667%, 26.666667%)" stroke-opacity="1" stroke-miterlimit="10" d="M 34.546875 259.582031 L 35.96875 271.96875 "/>
<path fill-rule="nonzero" fill="rgb(26.666667%, 26.666667%, 26.666667%)" fill-opacity="1" d="M 36.210938 274.09375 L 35.277344 272.046875 L 36.660156 271.890625 L 36.210938 274.09375 "/>
<path fill="none" stroke-width="0.2" stroke-linecap="butt" stroke-linejoin="miter" stroke="rgb(26.666667%, 26.666667%, 26.666667%)" stroke-opacity="1" stroke-miterlimit="10" d="M 142.191406 358.832031 L 152.9375 363.566406 "/>
<path fill-rule="nonzero" fill="rgb(26.666667%, 26.666667%, 26.666667%)" fill-opacity="1" d="M 154.894531 364.429688 L 152.65625 364.203125 L 153.214844 362.929688 L 154.894531 364.429688 "/>
<path fill="none" stroke-width="0.2" stroke-linecap="butt" stroke-linejoin="miter" stroke="rgb(26.666667%, 26.666667%, 26.666667%)" stroke-opacity="1" stroke-miterlimit="10" d="M 271.050781 316.554688 C 271.050781 318.554688 268.050781 318.554688 268.050781 316.554688 C 268.050781 314.554688 271.050781 314.554688 271.050781 316.554688 "/>
<path fill="none" stroke-width="0.2" stroke-linecap="butt" stroke-linejoin="miter" stroke="rgb(26.666667%, 26.666667%, 26.666667%)" stroke-opacity="1" stroke-miterlimit="10" d="M 553.792969 381.417969 C 553.792969 383.417969 550.792969 383.417969 550.792969 381.417969 C 550.792969 379.417969 553.792969 379.417969 553.792969 381.417969 "/>
<path fill="none" stroke-width="0.2" stroke-linecap="butt" stroke-linejoin="miter" stroke="rgb(26.666667%, 26.666667%, 26.666667%)" stroke-opacity="1" stroke-miterlimit="10" d="M 66.648438 368.476562 C 66.648438 370.476562 63.648438 370.476562 63.648438 368.476562 C 63.648438 366.476562 66.648438 366.476562 66.648438 368.476562 "/>
<path fill="none" stroke-width="0.2" stroke-linecap="butt" stroke-linejoin="miter" stroke="rgb(26.666667%, 26.666667%, 26.666667%)" stroke-opacity="1" stroke-miterlimit="10" d="M 490.644531 90.320312 C 490.644531 92.320312 487.644531 92.320312 487.644531 90.320312 C 487.644531 88.320312 490.644531 88.320312 490.644531 90.320312 "/>
<path fill="none" stroke-width="0.2" stroke-linecap="butt" stroke-linejoin="miter" stroke="rgb(26.666667%, 26.666667%, 26.666667%)" stroke-opacity="1" stroke-miterlimit="10" d="M 437.886719 370.277344 L 433.546875 381.761719 "/>
<path fill-rule="nonzero" fill="rgb(26.666667%, 26.666667%, 26.666667%)" fill-opacity="1" d="M 432.789062 383.761719 L 432.894531 381.515625 L 434.195312 382.007812 L 432.789062 383.761719 "/>
<path fill="none" stroke-width="0.2" stroke-linecap="butt" stroke-linejoin="miter" stroke="rgb(26.666667%, 26.666667%, 26.666667%)" stroke-opacity="1" stroke-miterlimit="10" d="M 495.042969 412.964844 L 494.25 400.574219 "/>
<path fill-rule="nonzero" fill="rgb(26.666667%, 26.666667%, 26.666667%)" fill-opacity="1" d="M 494.113281 398.4375 L 494.945312 400.53125 L 493.554688 400.621094 L 494.113281 398.4375 "/>
<path fill="none" stroke-width="0.2" stroke-linecap="butt" stroke-linejoin="miter" stroke="rgb(26.666667%, 26.666667%, 26.666667%)" stroke-opacity="1" stroke-miterlimit="10" d="M 108.597656 517.261719 C 108.597656 519.261719 105.597656 519.261719 105.597656 517.261719 C 105.597656 515.261719 108.597656 515.261719 108.597656 517.261719 "/>
<path fill-rule="nonzero" fill="rgb(100%, 0%, 0%)" fill-opacity="1" stroke-width="0.01" stroke-linecap="butt" stroke-linejoin="miter" stroke="rgb(0%, 0%, 0%)" stroke-opacity="1" stroke-miterlimit="10" d="M 357.507812 236.527344 C 357.507812 237.859375 355.507812 237.859375 355.507812 236.527344 C 355.507812 235.191406 357.507812 235.191406 357.507812 236.527344 "/>
<path fill-rule="nonzero" fill="rgb(100%, 0%, 0%)" fill-opacity="1" stroke-width="0.01" stroke-linecap="butt" stroke-linejoin="miter" stroke="rgb(0%, 0%, 0%)" stroke-opacity="1" stroke-miterlimit="10" d="M 376.261719 232.882812 C 376.261719 234.21875 374.261719 234.21875 374.261719 232.882812 C 374.261719 231.550781 376.261719 231.550781 376.261719 232.882812 "/>
<path fill-rule="nonzero" fill="rgb(100%, 0%, 0%)" fill-opacity="1" stroke-width="0.01" stroke-linecap="butt" stroke-linejoin="miter" stroke="rgb(0%, 0%, 0%)" stroke-opacity="1" stroke-miterlimit="10" d="M 341.113281 237.257812 C 341.113281 238.589844 339.113281 238.589844 339.113281 237.257812 C 339.113281 235.925781 341.113281 235.925781 341.113281 237.257812 "/>
<path fill-rule="nonzero" fill="rgb(100%, 0%, 0%)" fill-opacity="1" stroke-width="0.01" stroke-linecap="butt" stroke-linejoin="miter" stroke="rgb(0%, 0%, 0%)" stroke-opacity="1" stroke-miterlimit="10" d="M 176.851562 88.710938 C 176.851562 90.046875 174.851562 90.046875 174.851562 88.710938 C 174.851562 87.378906 176.851562 87.378906 176.851562 88.710938 "/>
<path fill-rule="nonzero" fill="rgb(100%, 0%, 0%)" fill-opacity="1" stroke-width="0.01" stroke-linecap="butt" stroke-linejoin="miter" stroke="rgb(0%, 0%, 0%)" stroke-opacity="1" stroke-miterlimit="10" d="M 191.675781 87.195312 C 191.675781 88.527344 189.675781 88.527344 189.675781 87.195312 C 189.675781 85.859375 191.675781 85.859375 191.675781 87.195312 "/>
<path fill-rule="nonzero" fill="rgb(100%, 0%, 0%)" fill-opacity="1" stroke-width="0.01" stroke-linecap="butt" stroke-linejoin="miter" stroke="rgb(0%, 0%, 0%)" stroke-opacity="1" stroke-miterlimit="10" d="M 454.496094 250.523438 C 454.496094 251.855469 452.496094 251.855469 452.496094 250.523438 C 452.496094 249.1875 454.496094 249.1875 454.496094 250.523438 "/>
<path fill-rule="nonzero" fill="rgb(100%, 0%, 0%)" fill-opacity="1" stroke-width="0.01" stroke-linecap="butt" stroke-linejoin="miter" stroke="rgb(0%, 0%, 0%)" stroke-opacity="1" stroke-miterlimit="10" d="M 453.445312 234.972656 C 453.445312 236.304688 451.445312 236.304688 451.445312 234.972656 C 451.445312 233.636719 453.445312 233.636719 453.445312 234.972656 "/>
<path fill-rule="nonzero" fill="rgb(100%, 0%, 0%)" fill-opacity="1" stroke-width="0.01" stroke-linecap="butt" stroke-linejoin="miter" stroke="rgb(0%, 0%, 0%)" stroke-opacity="1" stroke-miterlimit="10" d="M 104.652344 409.011719 C 104.652344 410.34375 102.652344 410.34375 102.652344 409.011719 C 102.652344 407.675781 104.652344 407.675781 104.652344 409.011719 "/>
<path fill-rule="nonzero" fill="rgb(100%, 0%, 0%)" fill-opacity="1" stroke-width="0.01" stroke-linecap="butt" stroke-linejoin="miter" stroke="rgb(0%, 0%, 0%)" stroke-opacity="1" stroke-miterlimit="10" d="M 119.476562 409.9375 C 119.476562 411.269531 117.476562 411.269531 117.476562 409.9375 C 117.476562 408.601562 119.476562 408.601562 119.476562 409.9375 "/>
<path fill-rule="nonzero" fill="rgb(100%, 0%, 0%)" fill-opacity="1" stroke-width="0.01" stroke-linecap="butt" stroke-linejoin="miter" stroke="rgb(0%, 0%, 0%)" stroke-opacity="1" stroke-miterlimit="10" d="M 494.019531 486.503906 C 494.019531 487.835938 492.019531 487.835938 492.019531 486.503906 C 492.019531 485.171875 494.019531 485.171875 494.019531 486.503906 "/>
<path fill-rule="nonzero" fill="rgb(100%, 0%, 0%)" fill-opacity="1" stroke-width="0.01" stroke-linecap="butt" stroke-linejoin="miter" stroke="rgb(0%, 0%, 0%)" stroke-opacity="1" stroke-miterlimit="10" d="M 442.4375 451.695312 C 442.4375 453.027344 440.4375 453.027344 440.4375 451.695312 C 440.4375 450.359375 442.4375 450.359375 442.4375 451.695312 "/>
<path fill-rule="nonzero" fill="rgb(100%, 0%, 0%)" fill-opacity="1" stroke-width="0.01" stroke-linecap="butt" stroke-linejoin="miter" stroke="rgb(0%, 0%, 0%)" stroke-opacity="1" stroke-miterlimit="10" d="M 310.886719 526.179688 C 310.886719 527.515625 308.886719 527.515625 308.886719 526.179688 C 308.886719 524.847656 310.886719 524.847656 310.886719 526.179688 "/>
<path fill-rule="nonzero" fill="rgb(100%, 0%, 0%)" fill-opacity="1" stroke-width="0.01" stroke-linecap="butt" stroke-linejoin="miter" stroke="rgb(0%, 0%, 0%)" stroke-opacity="1" stroke-miterlimit="10" d="M 385.769531 248.695312 C 385.769531 250.027344 383.769531 250.027344 383.769531 248.695312 C 383.769531 247.363281 385.769531 247.363281 385.769531 248.695312 "/>
<path fill-rule="nonzero" fill="rgb(100%, 0%, 0%)" fill-opacity="1" stroke-width="0.01" stroke-linecap="butt" stroke-linejoin="miter" stroke="rgb(0%, 0%, 0%)" stroke-opacity="1" stroke-miterlimit="10" d="M 581 259.976562 C 581 261.308594 579 261.308594 579 259.976562 C 579 258.640625 581 258.640625 581 259.976562 "/>
<path fill-rule="nonzero" fill="rgb(100%, 0%, 0%)" fill-opacity="1" stroke-width="0.01" stroke-linecap="butt" stroke-linejoin="miter" stroke="rgb(0%, 0%, 0%)" stroke-opacity="1" stroke-miterlimit="10" d="M 406.980469 61.867188 C 406.980469 63.199219 404.980469 63.199219 404.980469 61.867188 C 404.980469 60.535156 406.980469 60.535156 406.980469 61.867188 "/>
<path fill-rule="nonzero" fill="rgb(100%, 0%, 0%)" fill-opacity="1" stroke-width="0.01" stroke-linecap="butt" stroke-linejoin="miter" stroke="rgb(0%, 0%, 0%)" stroke-opacity="1" stroke-miterlimit="10" d="M 333.875 457.691406 C 333.875 459.027344 331.875 459.027344 331.875 457.691406 C 331.875 456.359375 333.875 456.359375 333.875 457.691406 "/>
<path fill-rule="nonzero" fill="rgb(100%, 0%, 0%)" fill-opacity="1" stroke-width="0.01" stroke-linecap="butt" stroke-linejoin="miter" stroke="rgb(0%, 0%, 0%)" stroke-opacity="1" stroke-miterlimit="10" d="M 333.71875 442.152344 C 333.71875 443.484375 331.71875 443.484375 331.71875 442.152344 C 331.71875 440.816406 333.71875 440.816406 333.71875 442.152344 "/>
<path fill-rule="nonzero" fill="rgb(100%, 0%, 0%)" fill-opacity="1" stroke-width="0.01" stroke-linecap="butt" stroke-linejoin="miter" stroke="rgb(0%, 0%, 0%)" stroke-opacity="1" stroke-miterlimit="10" d="M 254.199219 523.1875 C 254.199219 524.519531 252.199219 524.519531 252.199219 523.1875 C 252.199219 521.851562 254.199219 521.851562 254.199219 523.1875 "/>
<path fill-rule="nonzero" fill="rgb(100%, 0%, 0%)" fill-opacity="1" stroke-width="0.01" stroke-linecap="butt" stroke-linejoin="miter" stroke="rgb(0%, 0%, 0%)" stroke-opacity="1" stroke-miterlimit="10" d="M 213.609375 139.140625 C 213.609375 140.472656 211.609375 140.472656 211.609375 139.140625 C 211.609375 137.804688 213.609375 137.804688 213.609375 139.140625 "/>
<path fill-rule="nonzero" fill="rgb(100%, 0%, 0%)" fill-opacity="1" stroke-width="0.01" stroke-linecap="butt" stroke-linejoin="miter" stroke="rgb(0%, 0%, 0%)" stroke-opacity="1" stroke-miterlimit="10" d="M 125.636719 465.863281 C 125.636719 467.195312 123.636719 467.195312 123.636719 465.863281 C 123.636719 464.527344 125.636719 464.527344 125.636719 465.863281 "/>
<path fill-rule="nonzero" fill="rgb(100%, 0%, 0%)" fill-opacity="1" stroke-width="0.01" stroke-linecap="butt" stroke-linejoin="miter" stroke="rgb(0%, 0%, 0%)" stroke-opacity="1" stroke-miterlimit="10" d="M 140.539062 465.75 C 140.539062 467.082031 138.539062 467.082031 138.539062 465.75 C 138.539062 464.417969 140.539062 464.417969 140.539062 465.75 "/>
<path fill-rule="nonzero" fill="rgb(100%, 0%, 0%)" fill-opacity="1" stroke-width="0.01" stroke-linecap="butt" stroke-linejoin="miter" stroke="rgb(0%, 0%, 0%)" stroke-opacity="1" stroke-miterlimit="10" d="M 394.789062 176.226562 C 394.789062 177.558594 392.789062 177.558594 392.789062 176.226562 C 392.789062 174.894531 394.789062 174.894531 394.789062 176.226562 "/>
<path fill-rule="nonzero" fill="rgb(100%, 0%, 0%)" fill-opacity="1" stroke-width="0.01" stroke-linecap="butt" stroke-linejoin="miter" stroke="rgb(0%, 0%, 0%)" stroke-opacity="1" stroke-miterlimit="10" d="M 389.605469 194.464844 C 389.605469 195.800781 387.605469 195.800781 387.605469 194.464844 C 387.605469 193.132812 389.605469 193.132812 389.605469 194.464844 "/>
<path fill-rule="nonzero" fill="rgb(100%, 0%, 0%)" fill-opacity="1" stroke-width="0.01" stroke-linecap="butt" stroke-linejoin="miter" stroke="rgb(0%, 0%, 0%)" stroke-opacity="1" stroke-miterlimit="10" d="M 399.808594 159.808594 C 399.808594 161.140625 397.808594 161.140625 397.808594 159.808594 C 397.808594 158.472656 399.808594 158.472656 399.808594 159.808594 "/>
<path fill-rule="nonzero" fill="rgb(100%, 0%, 0%)" fill-opacity="1" stroke-width="0.01" stroke-linecap="butt" stroke-linejoin="miter" stroke="rgb(0%, 0%, 0%)" stroke-opacity="1" stroke-miterlimit="10" d="M 212.921875 558.605469 C 212.921875 559.941406 210.921875 559.941406 210.921875 558.605469 C 210.921875 557.273438 212.921875 557.273438 212.921875 558.605469 "/>
<path fill-rule="nonzero" fill="rgb(100%, 0%, 0%)" fill-opacity="1" stroke-width="0.01" stroke-linecap="butt" stroke-linejoin="miter" stroke="rgb(0%, 0%, 0%)" stroke-opacity="1" stroke-miterlimit="10" d="M 386.367188 494.933594 C 386.367188 496.269531 384.367188 496.269531 384.367188 494.933594 C 384.367188 493.601562 386.367188 493.601562 386.367188 494.933594 "/>
<path fill-rule="nonzero" fill="rgb(100%, 0%, 0%)" fill-opacity="1" stroke-width="0.01" stroke-linecap="butt" stroke-linejoin="miter" stroke="rgb(0%, 0%, 0%)" stroke-opacity="1" stroke-miterlimit="10" d="M 380.085938 508.996094 C 380.085938 510.332031 378.085938 510.332031 378.085938 508.996094 C 378.085938 507.664062 380.085938 507.664062 380.085938 508.996094 "/>
<path fill-rule="nonzero" fill="rgb(100%, 0%, 0%)" fill-opacity="1" stroke-width="0.01" stroke-linecap="butt" stroke-linejoin="miter" stroke="rgb(0%, 0%, 0%)" stroke-opacity="1" stroke-miterlimit="10" d="M 461.941406 139.472656 C 461.941406 140.808594 459.941406 140.808594 459.941406 139.472656 C 459.941406 138.140625 461.941406 138.140625 461.941406 139.472656 "/>
<path fill-rule="nonzero" fill="rgb(100%, 0%, 0%)" fill-opacity="1" stroke-width="0.01" stroke-linecap="butt" stroke-linejoin="miter" stroke="rgb(0%, 0%, 0%)" stroke-opacity="1" stroke-miterlimit="10" d="M 471.871094 151.058594 C 471.871094 152.390625 469.871094 152.390625 469.871094 151.058594 C 469.871094 149.726562 471.871094 149.726562 471.871094 151.058594 "/>
<path fill-rule="nonzero" fill="rgb(100%, 0%, 0%)" fill-opacity="1" stroke-width="0.01" stroke-linecap="butt" stroke-linejoin="miter" stroke="rgb(0%, 0%, 0%)" stroke-opacity="1" stroke-miterlimit="10" d="M 122.789062 306.710938 C 122.789062 308.046875 120.789062 308.046875 120.789062 306.710938 C 120.789062 305.378906 122.789062 305.378906 122.789062 306.710938 "/>
<path fill-rule="nonzero" fill="rgb(100%, 0%, 0%)" fill-opacity="1" stroke-width="0.01" stroke-linecap="butt" stroke-linejoin="miter" stroke="rgb(0%, 0%, 0%)" stroke-opacity="1" stroke-miterlimit="10" d="M 108.570312 302.609375 C 108.570312 303.941406 106.570312 303.941406 106.570312 302.609375 C 106.570312 301.273438 108.570312 301.273438 108.570312 302.609375 "/>
<path fill-rule="nonzero" fill="rgb(100%, 0%, 0%)" fill-opacity="1" stroke-width="0.01" stroke-linecap="butt" stroke-linejoin="miter" stroke="rgb(0%, 0%, 0%)" stroke-opacity="1" stroke-miterlimit="10" d="M 288.40625 251.964844 C 288.40625 253.300781 286.40625 253.300781 286.40625 251.964844 C 286.40625 250.632812 288.40625 250.632812 288.40625 251.964844 "/>
<path fill-rule="nonzero" fill="rgb(100%, 0%, 0%)" fill-opacity="1" stroke-width="0.01" stroke-linecap="butt" stroke-linejoin="miter" stroke="rgb(0%, 0%, 0%)" stroke-opacity="1" stroke-miterlimit="10" d="M 289.402344 236.433594 C 289.402344 237.765625 287.402344 237.765625 287.402344 236.433594 C 287.402344 235.101562 289.402344 235.101562 289.402344 236.433594 "/>
<path fill-rule="nonzero" fill="rgb(100%, 0%, 0%)" fill-opacity="1" stroke-width="0.01" stroke-linecap="butt" stroke-linejoin="miter" stroke="rgb(0%, 0%, 0%)" stroke-opacity="1" stroke-miterlimit="10" d="M 349.578125 122.871094 C 349.578125 124.203125 347.578125 124.203125 347.578125 122.871094 C 347.578125 121.539062 349.578125 121.539062 349.578125 122.871094 "/>
<path fill-rule="nonzero" fill="rgb(100%, 0%, 0%)" fill-opacity="1" stroke-width="0.01" stroke-linecap="butt" stroke-linejoin="miter" stroke="rgb(0%, 0%, 0%)" stroke-opacity="1" stroke-miterlimit="10" d="M 359.382812 111.070312 C 359.382812 112.402344 357.382812 112.402344 357.382812 111.070312 C 357.382812 109.734375 359.382812 109.734375 359.382812 111.070312 "/>
<path fill-rule="nonzero" fill="rgb(100%, 0%, 0%)" fill-opacity="1" stroke-width="0.01" stroke-linecap="butt" stroke-linejoin="miter" stroke="rgb(0%, 0%, 0%)" stroke-opacity="1" stroke-miterlimit="10" d="M 65.488281 164.820312 C 65.488281 166.152344 63.488281 166.152344 63.488281 164.820312 C 63.488281 163.488281 65.488281 163.488281 65.488281 164.820312 "/>
<path fill-rule="nonzero" fill="rgb(100%, 0%, 0%)" fill-opacity="1" stroke-width="0.01" stroke-linecap="butt" stroke-linejoin="miter" stroke="rgb(0%, 0%, 0%)" stroke-opacity="1" stroke-miterlimit="10" d="M 277.6875 580 C 277.6875 581.332031 275.6875 581.332031 275.6875 580 C 275.6875 578.667969 277.6875 578.667969 277.6875 580 "/>
<path fill-rule="nonzero" fill="rgb(100%, 0%, 0%)" fill-opacity="1" stroke-width="0.01" stroke-linecap="butt" stroke-linejoin="miter" stroke="rgb(0%, 0%, 0%)" stroke-opacity="1" stroke-miterlimit="10" d="M 193.660156 28.667969 C 193.660156 30 191.660156 30 191.660156 28.667969 C 191.660156 27.332031 193.660156 27.332031 193.660156 28.667969 "/>
<path fill-rule="nonzero" fill="rgb(100%, 0%, 0%)" fill-opacity="1" stroke-width="0.01" stroke-linecap="butt" stroke-linejoin="miter" stroke="rgb(0%, 0%, 0%)" stroke-opacity="1" stroke-miterlimit="10" d="M 491.96875 332.671875 C 491.96875 334.003906 489.96875 334.003906 489.96875 332.671875 C 489.96875 331.339844 491.96875 331.339844 491.96875 332.671875 "/>
<path fill-rule="nonzero" fill="rgb(100%, 0%, 0%)" fill-opacity="1" stroke-width="0.01" stroke-linecap="butt" stroke-linejoin="miter" stroke="rgb(0%, 0%, 0%)" stroke-opacity="1" stroke-miterlimit="10" d="M 87.410156 248.425781 C 87.410156 249.761719 85.410156 249.761719 85.410156 248.425781 C 85.410156 247.09375 87.410156 247.09375 87.410156 248.425781 "/>
<path fill-rule="nonzero" fill="rgb(100%, 0%, 0%)" fill-opacity="1" stroke-width="0.01" stroke-linecap="butt" stroke-linejoin="miter" stroke="rgb(0%, 0%, 0%)" stroke-opacity="1" stroke-miterlimit="10" d="M 356.535156 566.605469 C 356.535156 567.941406 354.535156 567.941406 354.535156 566.605469 C 354.535156 565.273438 356.535156 565.273438 356.535156 566.605469 "/>
<path fill-rule="nonzero" fill="rgb(100%, 0%, 0%)" fill-opacity="1" stroke-width="0.01" stroke-linecap="butt" stroke-linejoin="miter" stroke="rgb(0%, 0%, 0%)" stroke-opacity="1" stroke-miterlimit="10" d="M 441.375 519.613281 C 441.375 520.949219 439.375 520.949219 439.375 519.613281 C 439.375 518.28125 441.375 518.28125 441.375 519.613281 "/>
<path fill-rule="nonzero" fill="rgb(100%, 0%, 0%)" fill-opacity="1" stroke-width="0.01" stroke-linecap="butt" stroke-linejoin="miter" stroke="rgb(0%, 0%, 0%)" stroke-opacity="1" stroke-miterlimit="10" d="M 271.167969 443.4375 C 271.167969 444.769531 269.167969 444.769531 269.167969 443.4375 C 269.167969 442.105469 271.167969 442.105469 271.167969 443.4375 "/>
<path fill-rule="nonzero" fill="rgb(100%, 0%, 0%)" fill-opacity="1" stroke-width="0.01" stroke-linecap="butt" stroke-linejoin="miter" stroke="rgb(0%, 0%, 0%)" stroke-opacity="1" stroke-miterlimit="10" d="M 277.054688 457.679688 C 277.054688 459.015625 275.054688 459.015625 275.054688 457.679688 C 275.054688 456.347656 277.054688 456.347656 277.054688 457.679688 "/>
<path fill-rule="nonzero" fill="rgb(100%, 0%, 0%)" fill-opacity="1" stroke-width="0.01" stroke-linecap="butt" stroke-linejoin="miter" stroke="rgb(0%, 0%, 0%)" stroke-opacity="1" stroke-miterlimit="10" d="M 174.761719 277.386719 C 174.761719 278.71875 172.761719 278.71875 172.761719 277.386719 C 172.761719 276.054688 174.761719 276.054688 174.761719 277.386719 "/>
<path fill-rule="nonzero" fill="rgb(100%, 0%, 0%)" fill-opacity="1" stroke-width="0.01" stroke-linecap="butt" stroke-linejoin="miter" stroke="rgb(0%, 0%, 0%)" stroke-opacity="1" stroke-miterlimit="10" d="M 167.378906 263.964844 C 167.378906 265.296875 165.378906 265.296875 165.378906 263.964844 C 165.378906 262.628906 167.378906 262.628906 167.378906 263.964844 "/>
<path fill-rule="nonzero" fill="rgb(100%, 0%, 0%)" fill-opacity="1" stroke-width="0.01" stroke-linecap="butt" stroke-linejoin="miter" stroke="rgb(0%, 0%, 0%)" stroke-opacity="1" stroke-miterlimit="10" d="M 391.386719 432.957031 C 391.386719 434.292969 389.386719 434.292969 389.386719 432.957031 C 389.386719 431.625 391.386719 431.625 391.386719 432.957031 "/>
<path fill-rule="nonzero" fill="rgb(100%, 0%, 0%)" fill-opacity="1" stroke-width="0.01" stroke-linecap="butt" stroke-linejoin="miter" stroke="rgb(0%, 0%, 0%)" stroke-opacity="1" stroke-miterlimit="10" d="M 207.457031 339.4375 C 207.457031 340.769531 205.457031 340.769531 205.457031 339.4375 C 205.457031 338.105469 207.457031 338.105469 207.457031 339.4375 "/>
<path fill-rule="nonzero" fill="rgb(100%, 0%, 0%)" fill-opacity="1" stroke-width="0.01" stroke-linecap="butt" stroke-linejoin="miter" stroke="rgb(0%, 0%, 0%)" stroke-opacity="1" stroke-miterlimit="10" d="M 219.8125 331.074219 C 219.8125 332.40625 217.8125 332.40625 217.8125 331.074219 C 217.8125 329.742188 219.8125 329.742188 219.8125 331.074219 "/>
<path fill-rule="nonzero" fill="rgb(100%, 0%, 0%)" fill-opacity="1" stroke-width="0.01" stroke-linecap="butt" stroke-linejoin="miter" stroke="rgb(0%, 0%, 0%)" stroke-opacity="1" stroke-miterlimit="10" d="M 124.238281 220.855469 C 124.238281 222.191406 122.238281 222.191406 122.238281 220.855469 C 122.238281 219.523438 124.238281 219.523438 124.238281 220.855469 "/>
<path fill-rule="nonzero" fill="rgb(100%, 0%, 0%)" fill-opacity="1" stroke-width="0.01" stroke-linecap="butt" stroke-linejoin="miter" stroke="rgb(0%, 0%, 0%)" stroke-opacity="1" stroke-miterlimit="10" d="M 140.796875 158.375 C 140.796875 159.710938 138.796875 159.710938 138.796875 158.375 C 138.796875 157.042969 140.796875 157.042969 140.796875 158.375 "/>
<path fill-rule="nonzero" fill="rgb(100%, 0%, 0%)" fill-opacity="1" stroke-width="0.01" stroke-linecap="butt" stroke-linejoin="miter" stroke="rgb(0%, 0%, 0%)" stroke-opacity="1" stroke-miterlimit="10" d="M 125.367188 154.359375 C 125.367188 155.691406 123.367188 155.691406 123.367188 154.359375 C 123.367188 153.023438 125.367188 153.023438 125.367188 154.359375 "/>
<path fill-rule="nonzero" fill="rgb(100%, 0%, 0%)" fill-opacity="1" stroke-width="0.01" stroke-linecap="butt" stroke-linejoin="miter" stroke="rgb(0%, 0%, 0%)" stroke-opacity="1" stroke-miterlimit="10" d="M 156.242188 162.304688 C 156.242188 163.636719 154.242188 163.636719 154.242188 162.304688 C 154.242188 160.96875 156.242188 160.96875 156.242188 162.304688 "/>
<path fill-rule="nonzero" fill="rgb(100%, 0%, 0%)" fill-opacity="1" stroke-width="0.01" stroke-linecap="butt" stroke-linejoin="miter" stroke="rgb(0%, 0%, 0%)" stroke-opacity="1" stroke-miterlimit="10" d="M 258.195312 64.496094 C 258.195312 65.828125 256.195312 65.828125 256.195312 64.496094 C 256.195312 63.164062 258.195312 63.164062 258.195312 64.496094 "/>
<path fill-rule="nonzero" fill="rgb(100%, 0%, 0%)" fill-opacity="1" stroke-width="0.01" stroke-linecap="butt" stroke-linejoin="miter" stroke="rgb(0%, 0%, 0%)" stroke-opacity="1" stroke-miterlimit="10" d="M 402.761719 318.648438 C 402.761719 319.980469 400.761719 319.980469 400.761719 318.648438 C 400.761719 317.3125 402.761719 317.3125 402.761719 318.648438 "/>
<path fill-rule="nonzero" fill="rgb(100%, 0%, 0%)" fill-opacity="1" stroke-width="0.01" stroke-linecap="butt" stroke-linejoin="miter" stroke="rgb(0%, 0%, 0%)" stroke-opacity="1" stroke-miterlimit="10" d="M 417.3125 315.617188 C 417.3125 316.949219 415.3125 316.949219 415.3125 315.617188 C 415.3125 314.28125 417.3125 314.28125 417.3125 315.617188 "/>
<path fill-rule="nonzero" fill="rgb(100%, 0%, 0%)" fill-opacity="1" stroke-width="0.01" stroke-linecap="butt" stroke-linejoin="miter" stroke="rgb(0%, 0%, 0%)" stroke-opacity="1" stroke-miterlimit="10" d="M 314.894531 82.167969 C 314.894531 83.5 312.894531 83.5 312.894531 82.167969 C 312.894531 80.832031 314.894531 80.832031 314.894531 82.167969 "/>
<path fill-rule="nonzero" fill="rgb(100%, 0%, 0%)" fill-opacity="1" stroke-width="0.01" stroke-linecap="butt" stroke-linejoin="miter" stroke="rgb(0%, 0%, 0%)" stroke-opacity="1" stroke-miterlimit="10" d="M 191.105469 210.492188 C 191.105469 211.824219 189.105469 211.824219 189.105469 210.492188 C 189.105469 209.15625 191.105469 209.15625 191.105469 210.492188 "/>
<path fill-rule="nonzero" fill="rgb(100%, 0%, 0%)" fill-opacity="1" stroke-width="0.01" stroke-linecap="butt" stroke-linejoin="miter" stroke="rgb(0%, 0%, 0%)" stroke-opacity="1" stroke-miterlimit="10" d="M 218.464844 476.589844 C 218.464844 477.925781 216.464844 477.925781 216.464844 476.589844 C 216.464844 475.257812 218.464844 475.257812 218.464844 476.589844 "/>
<path fill-rule="nonzero" fill="rgb(100%, 0%, 0%)" fill-opacity="1" stroke-width="0.01" stroke-linecap="butt" stroke-linejoin="miter" stroke="rgb(0%, 0%, 0%)" stroke-opacity="1" stroke-miterlimit="10" d="M 205.78125 468.652344 C 205.78125 469.988281 203.78125 469.988281 203.78125 468.652344 C 203.78125 467.320312 205.78125 467.320312 205.78125 468.652344 "/>
<path fill-rule="nonzero" fill="rgb(100%, 0%, 0%)" fill-opacity="1" stroke-width="0.01" stroke-linecap="butt" stroke-linejoin="miter" stroke="rgb(0%, 0%, 0%)" stroke-opacity="1" stroke-miterlimit="10" d="M 306.273438 20 C 306.273438 21.332031 304.273438 21.332031 304.273438 20 C 304.273438 18.667969 306.273438 18.667969 306.273438 20 "/>
<path fill-rule="nonzero" fill="rgb(100%, 0%, 0%)" fill-opacity="1" stroke-width="0.01" stroke-linecap="butt" stroke-linejoin="miter" stroke="rgb(0%, 0%, 0%)" stroke-opacity="1" stroke-miterlimit="10" d="M 320.902344 23.101562 C 320.902344 24.433594 318.902344 24.433594 318.902344 23.101562 C 318.902344 21.769531 320.902344 21.769531 320.902344 23.101562 "/>
<path fill-rule="nonzero" fill="rgb(100%, 0%, 0%)" fill-opacity="1" stroke-width="0.01" stroke-linecap="butt" stroke-linejoin="miter" stroke="rgb(0%, 0%, 0%)" stroke-opacity="1" stroke-miterlimit="10" d="M 383.917969 213.390625 C 383.917969 214.722656 381.917969 214.722656 381.917969 213.390625 C 381.917969 212.058594 383.917969 212.058594 383.917969 213.390625 "/>
<path fill-rule="nonzero" fill="rgb(100%, 0%, 0%)" fill-opacity="1" stroke-width="0.01" stroke-linecap="butt" stroke-linejoin="miter" stroke="rgb(0%, 0%, 0%)" stroke-opacity="1" stroke-miterlimit="10" d="M 285.449219 138.9375 C 285.449219 140.273438 283.449219 140.273438 283.449219 138.9375 C 283.449219 137.605469 285.449219 137.605469 285.449219 138.9375 "/>
<path fill-rule="nonzero" fill="rgb(100%, 0%, 0%)" fill-opacity="1" stroke-width="0.01" stroke-linecap="butt" stroke-linejoin="miter" stroke="rgb(0%, 0%, 0%)" stroke-opacity="1" stroke-miterlimit="10" d="M 273.558594 129.621094 C 273.558594 130.953125 271.558594 130.953125 271.558594 129.621094 C 271.558594 128.285156 273.558594 128.285156 273.558594 129.621094 "/>
<path fill-rule="nonzero" fill="rgb(100%, 0%, 0%)" fill-opacity="1" stroke-width="0.01" stroke-linecap="butt" stroke-linejoin="miter" stroke="rgb(0%, 0%, 0%)" stroke-opacity="1" stroke-miterlimit="10" d="M 321.804688 319.742188 C 321.804688 321.074219 319.804688 321.074219 319.804688 319.742188 C 319.804688 318.410156 321.804688 318.410156 321.804688 319.742188 "/>
<path fill-rule="nonzero" fill="rgb(100%, 0%, 0%)" fill-opacity="1" stroke-width="0.01" stroke-linecap="butt" stroke-linejoin="miter" stroke="rgb(0%, 0%, 0%)" stroke-opacity="1" stroke-miterlimit="10" d="M 331.703125 308.339844 C 331.703125 309.671875 329.703125 309.671875 329.703125 308.339844 C 329.703125 307.003906 331.703125 307.003906 331.703125 308.339844 "/>
<path fill-rule="nonzero" fill="rgb(100%, 0%, 0%)" fill-opacity="1" stroke-width="0.01" stroke-linecap="butt" stroke-linejoin="miter" stroke="rgb(0%, 0%, 0%)" stroke-opacity="1" stroke-miterlimit="10" d="M 21 346.625 C 21 347.957031 19 347.957031 19 346.625 C 19 345.289062 21 345.289062 21 346.625 "/>
<path fill-rule="nonzero" fill="rgb(100%, 0%, 0%)" fill-opacity="1" stroke-width="0.01" stroke-linecap="butt" stroke-linejoin="miter" stroke="rgb(0%, 0%, 0%)" stroke-opacity="1" stroke-miterlimit="10" d="M 360.179688 369.152344 C 360.179688 370.488281 358.179688 370.488281 358.179688 369.152344 C 358.179688 367.820312 360.179688 367.820312 360.179688 369.152344 "/>
<path fill-rule="nonzero" fill="rgb(100%, 0%, 0%)" fill-opacity="1" stroke-width="0.01" stroke-linecap="butt" stroke-linejoin="miter" stroke="rgb(0%, 0%, 0%)" stroke-opacity="1" stroke-miterlimit="10" d="M 369.257812 381.289062 C 369.257812 382.621094 367.257812 382.621094 367.257812 381.289062 C 367.257812 379.953125 369.257812 379.953125 369.257812 381.289062 "/>
<path fill-rule="nonzero" fill="rgb(100%, 0%, 0%)" fill-opacity="1" stroke-width="0.01" stroke-linecap="butt" stroke-linejoin="miter" stroke="rgb(0%, 0%, 0%)" stroke-opacity="1" stroke-miterlimit="10" d="M 214.265625 403 C 214.265625 404.332031 212.265625 404.332031 212.265625 403 C 212.265625 401.664062 214.265625 401.664062 214.265625 403 "/>
<path fill-rule="nonzero" fill="rgb(100%, 0%, 0%)" fill-opacity="1" stroke-width="0.01" stroke-linecap="butt" stroke-linejoin="miter" stroke="rgb(0%, 0%, 0%)" stroke-opacity="1" stroke-miterlimit="10" d="M 227.421875 395.878906 C 227.421875 397.210938 225.421875 397.210938 225.421875 395.878906 C 225.421875 394.542969 227.421875 394.542969 227.421875 395.878906 "/>
<path fill-rule="nonzero" fill="rgb(100%, 0%, 0%)" fill-opacity="1" stroke-width="0.01" stroke-linecap="butt" stroke-linejoin="miter" stroke="rgb(0%, 0%, 0%)" stroke-opacity="1" stroke-miterlimit="10" d="M 300.585938 375.695312 C 300.585938 377.03125 298.585938 377.03125 298.585938 375.695312 C 298.585938 374.363281 300.585938 374.363281 300.585938 375.695312 "/>
<path fill-rule="nonzero" fill="rgb(100%, 0%, 0%)" fill-opacity="1" stroke-width="0.01" stroke-linecap="butt" stroke-linejoin="miter" stroke="rgb(0%, 0%, 0%)" stroke-opacity="1" stroke-miterlimit="10" d="M 286.96875 381.496094 C 286.96875 382.828125 284.96875 382.828125 284.96875 381.496094 C 284.96875 380.164062 286.96875 380.164062 286.96875 381.496094 "/>
<path fill-rule="nonzero" fill="rgb(100%, 0%, 0%)" fill-opacity="1" stroke-width="0.01" stroke-linecap="butt" stroke-linejoin="miter" stroke="rgb(0%, 0%, 0%)" stroke-opacity="1" stroke-miterlimit="10" d="M 509.09375 217.46875 C 509.09375 218.800781 507.09375 218.800781 507.09375 217.46875 C 507.09375 216.132812 509.09375 216.132812 509.09375 217.46875 "/>
<path fill-rule="nonzero" fill="rgb(100%, 0%, 0%)" fill-opacity="1" stroke-width="0.01" stroke-linecap="butt" stroke-linejoin="miter" stroke="rgb(0%, 0%, 0%)" stroke-opacity="1" stroke-miterlimit="10" d="M 516.652344 204.109375 C 516.652344 205.441406 514.652344 205.441406 514.652344 204.109375 C 514.652344 202.773438 516.652344 202.773438 516.652344 204.109375 "/>
<path fill-rule="nonzero" fill="rgb(100%, 0%, 0%)" fill-opacity="1" stroke-width="0.01" stroke-linecap="butt" stroke-linejoin="miter" stroke="rgb(0%, 0%, 0%)" stroke-opacity="1" stroke-miterlimit="10" d="M 526.707031 280.089844 C 526.707031 281.425781 524.707031 281.425781 524.707031 280.089844 C 524.707031 278.757812 526.707031 278.757812 526.707031 280.089844 "/>
<path fill-rule="nonzero" fill="rgb(100%, 0%, 0%)" fill-opacity="1" stroke-width="0.01" stroke-linecap="butt" stroke-linejoin="miter" stroke="rgb(0%, 0%, 0%)" stroke-opacity="1" stroke-miterlimit="10" d="M 527.5 295.570312 C 527.5 296.90625 525.5 296.90625 525.5 295.570312 C 525.5 294.238281 527.5 294.238281 527.5 295.570312 "/>
<path fill-rule="nonzero" fill="rgb(100%, 0%, 0%)" fill-opacity="1" stroke-width="0.01" stroke-linecap="butt" stroke-linejoin="miter" stroke="rgb(0%, 0%, 0%)" stroke-opacity="1" stroke-miterlimit="10" d="M 231.039062 255.503906 C 231.039062 256.839844 229.039062 256.839844 229.039062 255.503906 C 229.039062 254.171875 231.039062 254.171875 231.039062 255.503906 "/>
<path fill-rule="nonzero" fill="rgb(100%, 0%, 0%)" fill-opacity="1" stroke-width="0.01" stroke-linecap="butt" stroke-linejoin="miter" stroke="rgb(0%, 0%, 0%)" stroke-opacity="1" stroke-miterlimit="10" d="M 233.5625 270.765625 C 233.5625 272.101562 231.5625 272.101562 231.5625 270.765625 C 231.5625 269.433594 233.5625 269.433594 233.5625 270.765625 "/>
<path fill-rule="nonzero" fill="rgb(100%, 0%, 0%)" fill-opacity="1" stroke-width="0.01" stroke-linecap="butt" stroke-linejoin="miter" stroke="rgb(0%, 0%, 0%)" stroke-opacity="1" stroke-miterlimit="10" d="M 243.335938 186.851562 C 243.335938 188.183594 241.335938 188.183594 241.335938 186.851562 C 241.335938 185.519531 243.335938 185.519531 243.335938 186.851562 "/>
<path fill-rule="nonzero" fill="rgb(100%, 0%, 0%)" fill-opacity="1" stroke-width="0.01" stroke-linecap="butt" stroke-linejoin="miter" stroke="rgb(0%, 0%, 0%)" stroke-opacity="1" stroke-miterlimit="10" d="M 257.539062 191.15625 C 257.539062 192.492188 255.539062 192.492188 255.539062 191.15625 C 255.539062 189.824219 257.539062 189.824219 257.539062 191.15625 "/>
<path fill-rule="nonzero" fill="rgb(100%, 0%, 0%)" fill-opacity="1" stroke-width="0.01" stroke-linecap="butt" stroke-linejoin="miter" stroke="rgb(0%, 0%, 0%)" stroke-opacity="1" stroke-miterlimit="10" d="M 164.515625 539.324219 C 164.515625 540.660156 162.515625 540.660156 162.515625 539.324219 C 162.515625 537.992188 164.515625 537.992188 164.515625 539.324219 "/>
<path fill-rule="nonzero" fill="rgb(100%, 0%, 0%)" fill-opacity="1" stroke-width="0.01" stroke-linecap="butt" stroke-linejoin="miter" stroke="rgb(0%, 0%, 0%)" stroke-opacity="1" stroke-miterlimit="10" d="M 35.546875 259.582031 C 35.546875 260.914062 33.546875 260.914062 33.546875 259.582031 C 33.546875 258.246094 35.546875 258.246094 35.546875 259.582031 "/>
<path fill-rule="nonzero" fill="rgb(100%, 0%, 0%)" fill-opacity="1" stroke-width="0.01" stroke-linecap="butt" stroke-linejoin="miter" stroke="rgb(0%, 0%, 0%)" stroke-opacity="1" stroke-miterlimit="10" d="M 37.324219 275.089844 C 37.324219 276.421875 35.324219 276.421875 35.324219 275.089844 C 35.324219 273.753906 37.324219 273.753906 37.324219 275.089844 "/>
<path fill-rule="nonzero" fill="rgb(100%, 0%, 0%)" fill-opacity="1" stroke-width="0.01" stroke-linecap="butt" stroke-linejoin="miter" stroke="rgb(0%, 0%, 0%)" stroke-opacity="1" stroke-miterlimit="10" d="M 143.191406 358.832031 C 143.191406 360.167969 141.191406 360.167969 141.191406 358.832031 C 141.191406 357.5 143.191406 357.5 143.191406 358.832031 "/>
<path fill-rule="nonzero" fill="rgb(100%, 0%, 0%)" fill-opacity="1" stroke-width="0.01" stroke-linecap="butt" stroke-linejoin="miter" stroke="rgb(0%, 0%, 0%)" stroke-opacity="1" stroke-miterlimit="10" d="M 156.808594 364.832031 C 156.808594 366.167969 154.808594 366.167969 154.808594 364.832031 C 154.808594 363.5 156.808594 363.5 156.808594 364.832031 "/>
<path fill-rule="nonzero" fill="rgb(100%, 0%, 0%)" fill-opacity="1" stroke-width="0.01" stroke-linecap="butt" stroke-linejoin="miter" stroke="rgb(0%, 0%, 0%)" stroke-opacity="1" stroke-miterlimit="10" d="M 269.492188 317.617188 C 269.492188 318.949219 267.492188 318.949219 267.492188 317.617188 C 267.492188 316.285156 269.492188 316.285156 269.492188 317.617188 "/>
<path fill-rule="nonzero" fill="rgb(100%, 0%, 0%)" fill-opacity="1" stroke-width="0.01" stroke-linecap="butt" stroke-linejoin="miter" stroke="rgb(0%, 0%, 0%)" stroke-opacity="1" stroke-miterlimit="10" d="M 552.230469 382.480469 C 552.230469 383.8125 550.230469 383.8125 550.230469 382.480469 C 550.230469 381.144531 552.230469 381.144531 552.230469 382.480469 "/>
<path fill-rule="nonzero" fill="rgb(100%, 0%, 0%)" fill-opacity="1" stroke-width="0.01" stroke-linecap="butt" stroke-linejoin="miter" stroke="rgb(0%, 0%, 0%)" stroke-opacity="1" stroke-miterlimit="10" d="M 65.089844 369.535156 C 65.089844 370.867188 63.089844 370.867188 63.089844 369.535156 C 63.089844 368.203125 65.089844 368.203125 65.089844 369.535156 "/>
<path fill-rule="nonzero" fill="rgb(100%, 0%, 0%)" fill-opacity="1" stroke-width="0.01" stroke-linecap="butt" stroke-linejoin="miter" stroke="rgb(0%, 0%, 0%)" stroke-opacity="1" stroke-miterlimit="10" d="M 489.082031 91.378906 C 489.082031 92.710938 487.082031 92.710938 487.082031 91.378906 C 487.082031 90.046875 489.082031 90.046875 489.082031 91.378906 "/>
<path fill-rule="nonzero" fill="rgb(100%, 0%, 0%)" fill-opacity="1" stroke-width="0.01" stroke-linecap="butt" stroke-linejoin="miter" stroke="rgb(0%, 0%, 0%)" stroke-opacity="1" stroke-miterlimit="10" d="M 438.886719 370.277344 C 438.886719 371.609375 436.886719 371.609375 436.886719 370.277344 C 436.886719 368.945312 438.886719 368.945312 438.886719 370.277344 "/>
<path fill-rule="nonzero" fill="rgb(100%, 0%, 0%)" fill-opacity="1" stroke-width="0.01" stroke-linecap="butt" stroke-linejoin="miter" stroke="rgb(0%, 0%, 0%)" stroke-opacity="1" stroke-miterlimit="10" d="M 433.4375 384.695312 C 433.4375 386.03125 431.4375 386.03125 431.4375 384.695312 C 431.4375 383.363281 433.4375 383.363281 433.4375 384.695312 "/>
<path fill-rule="nonzero" fill="rgb(100%, 0%, 0%)" fill-opacity="1" stroke-width="0.01" stroke-linecap="butt" stroke-linejoin="miter" stroke="rgb(0%, 0%, 0%)" stroke-opacity="1" stroke-miterlimit="10" d="M 496.042969 412.964844 C 496.042969 414.296875 494.042969 414.296875 494.042969 412.964844 C 494.042969 411.628906 496.042969 411.628906 496.042969 412.964844 "/>
<path fill-rule="nonzero" fill="rgb(100%, 0%, 0%)" fill-opacity="1" stroke-width="0.01" stroke-linecap="butt" stroke-linejoin="miter" stroke="rgb(0%, 0%, 0%)" stroke-opacity="1" stroke-miterlimit="10" d="M 495.046875 397.441406 C 495.046875 398.773438 493.046875 398.773438 493.046875 397.441406 C 493.046875 396.109375 495.046875 396.109375 495.046875 397.441406 "/>
<path fill-rule="nonzero" fill="rgb(100%, 0%, 0%)" fill-opacity="1" stroke-width="0.01" stroke-linecap="butt" stroke-linejoin="miter" stroke="rgb(0%, 0%, 0%)" stroke-opacity="1" stroke-miterlimit="10" d="M 107.035156 518.324219 C 107.035156 519.65625 105.035156 519.65625 105.035156 518.324219 C 105.035156 516.988281 107.035156 516.988281 107.035156 518.324219 "/>
</svg>
