<?xml version="1.0" encoding="UTF-8"?>
<svg xmlns="http://www.w3.org/2000/svg" xmlns:xlink="http://www.w3.org/1999/xlink" width="600pt" height="600pt" viewBox="0 0 600 600" version="1.1">
<g id="surface6">
<rect x="0" y="0" width="600" height="600" style="fill:rgb(100%,100%,100%);fill-opacity:1;stroke:none;"/>
<path style="fill:none;stroke-width:0.2;stroke-linecap:butt;stroke-linejoin:miter;stroke:rgb(26.666667%,26.666667%,26.666667%);stroke-opacity:1;stroke-miterlimit:10;" d="M 134.964844 493.78125 L 123.207031 487.375 "/>
<path style="fill:none;stroke-width:0.2;stroke-linecap:butt;stroke-linejoin:miter;stroke:rgb(26.666667%,26.666667%,26.666667%);stroke-opacity:1;stroke-miterlimit:10;" d="M 358.019531 227.910156 L 351.03125 239.214844 "/>
<path style="fill:none;stroke-width:0.2;stroke-linecap:butt;stroke-linejoin:miter;stroke:rgb(26.666667%,26.666667%,26.666667%);stroke-opacity:1;stroke-miterlimit:10;" d="M 371.882812 408.679688 L 377.335938 422.066406 "/>
<path style="fill:none;stroke-width:0.2;stroke-linecap:butt;stroke-linejoin:miter;stroke:rgb(26.666667%,26.666667%,26.666667%);stroke-opacity:1;stroke-miterlimit:10;" d="M 108.191406 165.601562 L 92.503906 166.433594 "/>
<path style="fill:none;stroke-width:0.2;stroke-linecap:butt;stroke-linejoin:miter;stroke:rgb(26.666667%,26.666667%,26.666667%);stroke-opacity:1;stroke-miterlimit:10;" d="M 108.191406 165.601562 L 115.773438 151.949219 "/>
<path style="fill:none;stroke-width:0.2;stroke-linecap:butt;stroke-linejoin:miter;stroke:rgb(26.666667%,26.666667%,26.666667%);stroke-opacity:1;stroke-miterlimit:10;" d="M 108.191406 165.601562 L 116.765625 178.59375 "/>
<path style="fill:none;stroke-width:0.2;stroke-linecap:butt;stroke-linejoin:miter;stroke:rgb(26.666667%,26.666667%,26.666667%);stroke-opacity:1;stroke-miterlimit:10;" d="M 471.722656 229.714844 L 458.496094 228.140625 "/>
<path style="fill:none;stroke-width:0.2;stroke-linecap:butt;stroke-linejoin:miter;stroke:rgb(26.666667%,26.666667%,26.666667%);stroke-opacity:1;stroke-miterlimit:10;" d="M 199.464844 269.445312 L 203.839844 282.054688 "/>
<path style="fill:none;stroke-width:0.2;stroke-linecap:butt;stroke-linejoin:miter;stroke:rgb(26.666667%,26.666667%,26.666667%);stroke-opacity:1;stroke-miterlimit:10;" d="M 173.445312 343.023438 L 163.664062 352.164062 "/>
<path style="fill:none;stroke-width:0.2;stroke-linecap:butt;stroke-linejoin:miter;stroke:rgb(26.666667%,26.666667%,26.666667%);stroke-opacity:1;stroke-miterlimit:10;" d="M 80.363281 365.050781 L 93.828125 365.15625 "/>
<path style="fill:none;stroke-width:0.2;stroke-linecap:butt;stroke-linejoin:miter;stroke:rgb(26.666667%,26.666667%,26.666667%);stroke-opacity:1;stroke-miterlimit:10;" d="M 384.027344 281.699219 L 382.003906 294.980469 "/>
<path style="fill:none;stroke-width:0.2;stroke-linecap:butt;stroke-linejoin:miter;stroke:rgb(26.666667%,26.666667%,26.666667%);stroke-opacity:1;stroke-miterlimit:10;" d="M 508.167969 351.765625 L 519.019531 340.566406 "/>
<path style="fill:none;stroke-width:0.2;stroke-linecap:butt;stroke-linejoin:miter;stroke:rgb(26.666667%,26.666667%,26.666667%);stroke-opacity:1;stroke-miterlimit:10;" d="M 508.167969 351.765625 L 493.375 347.144531 "/>
<path style="fill:none;stroke-width:0.2;stroke-linecap:butt;stroke-linejoin:miter;stroke:rgb(26.666667%,26.666667%,26.666667%);stroke-opacity:1;stroke-miterlimit:10;" d="M 508.167969 351.765625 L 511.652344 367.042969 "/>
<path style="fill:none;stroke-width:0.2;stroke-linecap:butt;stroke-linejoin:miter;stroke:rgb(26.666667%,26.666667%,26.666667%);stroke-opacity:1;stroke-miterlimit:10;" d="M 459.261719 497.796875 L 455.960938 484.808594 "/>
<path style="fill:none;stroke-width:0.2;stroke-linecap:butt;stroke-linejoin:miter;stroke:rgb(26.666667%,26.666667%,26.666667%);stroke-opacity:1;stroke-miterlimit:10;" d="M 550.792969 236.300781 C 550.792969 238.300781 547.792969 238.300781 547.792969 236.300781 C 547.792969 234.300781 550.792969 234.300781 550.792969 236.300781 "/>
<path style="fill:none;stroke-width:0.2;stroke-linecap:butt;stroke-linejoin:miter;stroke:rgb(26.666667%,26.666667%,26.666667%);stroke-opacity:1;stroke-miterlimit:10;" d="M 230.964844 345.953125 L 244.1875 345.480469 "/>
<path style="fill:none;stroke-width:0.2;stroke-linecap:butt;stroke-linejoin:miter;stroke:rgb(26.666667%,26.666667%,26.666667%);stroke-opacity:1;stroke-miterlimit:10;" d="M 304.492188 214.796875 L 307.835938 201.96875 "/>
<path style="fill:none;stroke-width:0.2;stroke-linecap:butt;stroke-linejoin:miter;stroke:rgb(26.666667%,26.666667%,26.666667%);stroke-opacity:1;stroke-miterlimit:10;" d="M 346.589844 578.835938 L 359.453125 574.828125 "/>
<path style="fill:none;stroke-width:0.2;stroke-linecap:butt;stroke-linejoin:miter;stroke:rgb(26.666667%,26.666667%,26.666667%);stroke-opacity:1;stroke-miterlimit:10;" d="M 515.527344 281.421875 L 505.296875 272.898438 "/>
<path style="fill:none;stroke-width:0.2;stroke-linecap:butt;stroke-linejoin:miter;stroke:rgb(26.666667%,26.666667%,26.666667%);stroke-opacity:1;stroke-miterlimit:10;" d="M 342.765625 28.605469 L 354.050781 35.8125 "/>
<path style="fill:none;stroke-width:0.2;stroke-linecap:butt;stroke-linejoin:miter;stroke:rgb(26.666667%,26.666667%,26.666667%);stroke-opacity:1;stroke-miterlimit:10;" d="M 434.625 301.652344 L 439.835938 288.28125 "/>
<path style="fill:none;stroke-width:0.2;stroke-linecap:butt;stroke-linejoin:miter;stroke:rgb(26.666667%,26.666667%,26.666667%);stroke-opacity:1;stroke-miterlimit:10;" d="M 434.625 301.652344 L 428.578125 314.695312 "/>
<path style="fill:none;stroke-width:0.2;stroke-linecap:butt;stroke-linejoin:miter;stroke:rgb(26.666667%,26.666667%,26.666667%);stroke-opacity:1;stroke-miterlimit:10;" d="M 20.035156 277.679688 L 20.003906 291.191406 "/>
<path style="fill:none;stroke-width:0.2;stroke-linecap:butt;stroke-linejoin:miter;stroke:rgb(26.666667%,26.666667%,26.666667%);stroke-opacity:1;stroke-miterlimit:10;" d="M 508.878906 446.035156 L 522.167969 444.4375 "/>
<path style="fill:none;stroke-width:0.2;stroke-linecap:butt;stroke-linejoin:miter;stroke:rgb(26.666667%,26.666667%,26.666667%);stroke-opacity:1;stroke-miterlimit:10;" d="M 255.769531 186.179688 C 255.769531 188.179688 252.769531 188.179688 252.769531 186.179688 C 252.769531 184.179688 255.769531 184.179688 255.769531 186.179688 "/>
<path style="fill:none;stroke-width:0.2;stroke-linecap:butt;stroke-linejoin:miter;stroke:rgb(26.666667%,26.666667%,26.666667%);stroke-opacity:1;stroke-miterlimit:10;" d="M 201.507812 551.355469 L 214.957031 551.21875 "/>
<path style="fill:none;stroke-width:0.2;stroke-linecap:butt;stroke-linejoin:miter;stroke:rgb(26.666667%,26.666667%,26.666667%);stroke-opacity:1;stroke-miterlimit:10;" d="M 434.964844 390.113281 L 441.863281 376.414062 "/>
<path style="fill:none;stroke-width:0.2;stroke-linecap:butt;stroke-linejoin:miter;stroke:rgb(26.666667%,26.666667%,26.666667%);stroke-opacity:1;stroke-miterlimit:10;" d="M 434.964844 390.113281 L 442.78125 403.773438 "/>
<path style="fill:none;stroke-width:0.2;stroke-linecap:butt;stroke-linejoin:miter;stroke:rgb(26.666667%,26.666667%,26.666667%);stroke-opacity:1;stroke-miterlimit:10;" d="M 434.964844 390.113281 L 419.640625 387.90625 "/>
<path style="fill:none;stroke-width:0.2;stroke-linecap:butt;stroke-linejoin:miter;stroke:rgb(26.666667%,26.666667%,26.666667%);stroke-opacity:1;stroke-miterlimit:10;" d="M 393.035156 504.386719 L 382.328125 496.382812 "/>
<path style="fill:none;stroke-width:0.2;stroke-linecap:butt;stroke-linejoin:miter;stroke:rgb(26.666667%,26.666667%,26.666667%);stroke-opacity:1;stroke-miterlimit:10;" d="M 384.511719 436.84375 L 378.15625 423.890625 "/>
<path style="fill:none;stroke-width:0.2;stroke-linecap:butt;stroke-linejoin:miter;stroke:rgb(26.666667%,26.666667%,26.666667%);stroke-opacity:1;stroke-miterlimit:10;" d="M 271.097656 251.589844 L 257.636719 246.835938 "/>
<path style="fill:none;stroke-width:0.2;stroke-linecap:butt;stroke-linejoin:miter;stroke:rgb(26.666667%,26.666667%,26.666667%);stroke-opacity:1;stroke-miterlimit:10;" d="M 242.441406 241.019531 L 255.757812 246.144531 "/>
<path style="fill:none;stroke-width:0.2;stroke-linecap:butt;stroke-linejoin:miter;stroke:rgb(26.666667%,26.666667%,26.666667%);stroke-opacity:1;stroke-miterlimit:10;" d="M 269.191406 68.632812 L 282.304688 65.519531 "/>
<path style="fill:none;stroke-width:0.2;stroke-linecap:butt;stroke-linejoin:miter;stroke:rgb(26.666667%,26.666667%,26.666667%);stroke-opacity:1;stroke-miterlimit:10;" d="M 295.144531 459.644531 L 310.742188 459.023438 "/>
<path style="fill:none;stroke-width:0.2;stroke-linecap:butt;stroke-linejoin:miter;stroke:rgb(26.666667%,26.666667%,26.666667%);stroke-opacity:1;stroke-miterlimit:10;" d="M 295.144531 459.644531 L 288.007812 473.359375 "/>
<path style="fill:none;stroke-width:0.2;stroke-linecap:butt;stroke-linejoin:miter;stroke:rgb(26.666667%,26.666667%,26.666667%);stroke-opacity:1;stroke-miterlimit:10;" d="M 295.144531 459.644531 L 285.9375 447.125 "/>
<path style="fill:none;stroke-width:0.2;stroke-linecap:butt;stroke-linejoin:miter;stroke:rgb(26.666667%,26.666667%,26.666667%);stroke-opacity:1;stroke-miterlimit:10;" d="M 112.792969 275.871094 L 132.28125 270.457031 "/>
<path style="fill:none;stroke-width:0.2;stroke-linecap:butt;stroke-linejoin:miter;stroke:rgb(26.666667%,26.666667%,26.666667%);stroke-opacity:1;stroke-miterlimit:10;" d="M 112.792969 275.871094 L 92.949219 272.285156 "/>
<path style="fill:none;stroke-width:0.2;stroke-linecap:butt;stroke-linejoin:miter;stroke:rgb(26.666667%,26.666667%,26.666667%);stroke-opacity:1;stroke-miterlimit:10;" d="M 112.792969 275.871094 L 103.078125 257.972656 "/>
<path style="fill:none;stroke-width:0.2;stroke-linecap:butt;stroke-linejoin:miter;stroke:rgb(26.666667%,26.666667%,26.666667%);stroke-opacity:1;stroke-miterlimit:10;" d="M 112.792969 275.871094 L 129.21875 287.730469 "/>
<path style="fill:none;stroke-width:0.2;stroke-linecap:butt;stroke-linejoin:miter;stroke:rgb(26.666667%,26.666667%,26.666667%);stroke-opacity:1;stroke-miterlimit:10;" d="M 112.792969 275.871094 L 97.597656 289.269531 "/>
<path style="fill:none;stroke-width:0.2;stroke-linecap:butt;stroke-linejoin:miter;stroke:rgb(26.666667%,26.666667%,26.666667%);stroke-opacity:1;stroke-miterlimit:10;" d="M 112.792969 275.871094 L 120.667969 257.304688 "/>
<path style="fill:none;stroke-width:0.2;stroke-linecap:butt;stroke-linejoin:miter;stroke:rgb(26.666667%,26.666667%,26.666667%);stroke-opacity:1;stroke-miterlimit:10;" d="M 112.792969 275.871094 L 113.777344 296.074219 "/>
<path style="fill:none;stroke-width:0.2;stroke-linecap:butt;stroke-linejoin:miter;stroke:rgb(26.666667%,26.666667%,26.666667%);stroke-opacity:1;stroke-miterlimit:10;" d="M 305.648438 399.511719 L 319.042969 399.96875 "/>
<path style="fill:none;stroke-width:0.2;stroke-linecap:butt;stroke-linejoin:miter;stroke:rgb(26.666667%,26.666667%,26.666667%);stroke-opacity:1;stroke-miterlimit:10;" d="M 417.90625 132.507812 L 404.050781 135.726562 "/>
<path style="fill:none;stroke-width:0.2;stroke-linecap:butt;stroke-linejoin:miter;stroke:rgb(26.666667%,26.666667%,26.666667%);stroke-opacity:1;stroke-miterlimit:10;" d="M 417.90625 132.507812 L 431.773438 129.046875 "/>
<path style="fill:none;stroke-width:0.2;stroke-linecap:butt;stroke-linejoin:miter;stroke:rgb(26.666667%,26.666667%,26.666667%);stroke-opacity:1;stroke-miterlimit:10;" d="M 536.6875 152.503906 L 543.125 165.617188 "/>
<path style="fill:none;stroke-width:0.2;stroke-linecap:butt;stroke-linejoin:miter;stroke:rgb(26.666667%,26.666667%,26.666667%);stroke-opacity:1;stroke-miterlimit:10;" d="M 536.6875 152.503906 L 530.058594 139.464844 "/>
<path style="fill:none;stroke-width:0.2;stroke-linecap:butt;stroke-linejoin:miter;stroke:rgb(26.666667%,26.666667%,26.666667%);stroke-opacity:1;stroke-miterlimit:10;" d="M 404.035156 199.875 L 406.742188 212.90625 "/>
<path style="fill:none;stroke-width:0.2;stroke-linecap:butt;stroke-linejoin:miter;stroke:rgb(26.666667%,26.666667%,26.666667%);stroke-opacity:1;stroke-miterlimit:10;" d="M 201.183594 418.558594 L 183.058594 417.140625 "/>
<path style="fill:none;stroke-width:0.2;stroke-linecap:butt;stroke-linejoin:miter;stroke:rgb(26.666667%,26.666667%,26.666667%);stroke-opacity:1;stroke-miterlimit:10;" d="M 201.183594 418.558594 L 216.925781 409.277344 "/>
<path style="fill:none;stroke-width:0.2;stroke-linecap:butt;stroke-linejoin:miter;stroke:rgb(26.666667%,26.666667%,26.666667%);stroke-opacity:1;stroke-miterlimit:10;" d="M 201.183594 418.558594 L 214.789062 430.011719 "/>
<path style="fill:none;stroke-width:0.2;stroke-linecap:butt;stroke-linejoin:miter;stroke:rgb(26.666667%,26.666667%,26.666667%);stroke-opacity:1;stroke-miterlimit:10;" d="M 201.183594 418.558594 L 193.871094 434.953125 "/>
<path style="fill:none;stroke-width:0.2;stroke-linecap:butt;stroke-linejoin:miter;stroke:rgb(26.666667%,26.666667%,26.666667%);stroke-opacity:1;stroke-miterlimit:10;" d="M 201.183594 418.558594 L 197.300781 401.371094 "/>
<path style="fill:none;stroke-width:0.2;stroke-linecap:butt;stroke-linejoin:miter;stroke:rgb(26.666667%,26.666667%,26.666667%);stroke-opacity:1;stroke-miterlimit:10;" d="M 341.140625 139.378906 L 347.058594 124.878906 "/>
<path style="fill:none;stroke-width:0.2;stroke-linecap:butt;stroke-linejoin:miter;stroke:rgb(26.666667%,26.666667%,26.666667%);stroke-opacity:1;stroke-miterlimit:10;" d="M 341.140625 139.378906 L 348.9375 152.851562 "/>
<path style="fill:none;stroke-width:0.2;stroke-linecap:butt;stroke-linejoin:miter;stroke:rgb(26.666667%,26.666667%,26.666667%);stroke-opacity:1;stroke-miterlimit:10;" d="M 341.140625 139.378906 L 325.933594 141.128906 "/>
<path style="fill:none;stroke-width:0.2;stroke-linecap:butt;stroke-linejoin:miter;stroke:rgb(26.666667%,26.666667%,26.666667%);stroke-opacity:1;stroke-miterlimit:10;" d="M 473.835938 164.617188 L 481.011719 175.839844 "/>
<path style="fill:none;stroke-width:0.2;stroke-linecap:butt;stroke-linejoin:miter;stroke:rgb(26.666667%,26.666667%,26.666667%);stroke-opacity:1;stroke-miterlimit:10;" d="M 197.734375 135.632812 L 204.183594 147.304688 "/>
<path style="fill:none;stroke-width:0.2;stroke-linecap:butt;stroke-linejoin:miter;stroke:rgb(26.666667%,26.666667%,26.666667%);stroke-opacity:1;stroke-miterlimit:10;" d="M 88.203125 424.511719 L 101.285156 421.398438 "/>
<path style="fill:none;stroke-width:0.2;stroke-linecap:butt;stroke-linejoin:miter;stroke:rgb(26.666667%,26.666667%,26.666667%);stroke-opacity:1;stroke-miterlimit:10;" d="M 225.628906 494.210938 L 212.425781 496.679688 "/>
<path style="fill:none;stroke-width:0.2;stroke-linecap:butt;stroke-linejoin:miter;stroke:rgb(26.666667%,26.666667%,26.666667%);stroke-opacity:1;stroke-miterlimit:10;" d="M 236.523438 26.148438 L 248.761719 20.421875 "/>
<path style="fill:none;stroke-width:0.2;stroke-linecap:butt;stroke-linejoin:miter;stroke:rgb(26.666667%,26.666667%,26.666667%);stroke-opacity:1;stroke-miterlimit:10;" d="M 310.863281 528.207031 L 323.890625 524.964844 "/>
<path style="fill:none;stroke-width:0.2;stroke-linecap:butt;stroke-linejoin:miter;stroke:rgb(26.666667%,26.666667%,26.666667%);stroke-opacity:1;stroke-miterlimit:10;" d="M 327.738281 353.023438 L 314.273438 352.269531 "/>
<path style="fill:none;stroke-width:0.2;stroke-linecap:butt;stroke-linejoin:miter;stroke:rgb(26.666667%,26.666667%,26.666667%);stroke-opacity:1;stroke-miterlimit:10;" d="M 580 354.582031 L 577.585938 367.867188 "/>
<path style="fill:none;stroke-width:0.2;stroke-linecap:butt;stroke-linejoin:miter;stroke:rgb(26.666667%,26.666667%,26.666667%);stroke-opacity:1;stroke-miterlimit:10;" d="M 189.277344 206.542969 L 181.582031 195.707031 "/>
<path style="fill:none;stroke-width:0.2;stroke-linecap:butt;stroke-linejoin:miter;stroke:rgb(26.666667%,26.666667%,26.666667%);stroke-opacity:1;stroke-miterlimit:10;" d="M 337.558594 307.167969 L 332.191406 294.964844 "/>
<path style="fill:none;stroke-width:0.2;stroke-linecap:butt;stroke-linejoin:miter;stroke:rgb(26.666667%,26.666667%,26.666667%);stroke-opacity:1;stroke-miterlimit:10;" d="M 266.019531 126.523438 L 253.941406 133.839844 "/>
<path style="fill:none;stroke-width:0.2;stroke-linecap:butt;stroke-linejoin:miter;stroke:rgb(26.666667%,26.666667%,26.666667%);stroke-opacity:1;stroke-miterlimit:10;" d="M 266.019531 126.523438 L 278.140625 119.140625 "/>
<path style="fill:none;stroke-width:0.2;stroke-linecap:butt;stroke-linejoin:miter;stroke:rgb(26.666667%,26.666667%,26.666667%);stroke-opacity:1;stroke-miterlimit:10;" d="M 149.257812 88.273438 L 160.722656 81.332031 "/>
<path style="fill:none;stroke-width:0.2;stroke-linecap:butt;stroke-linejoin:miter;stroke:rgb(26.666667%,26.666667%,26.666667%);stroke-opacity:1;stroke-miterlimit:10;" d="M 433.277344 57.867188 L 425.355469 68.585938 "/>
<path style="fill:none;stroke-width:0.2;stroke-linecap:butt;stroke-linejoin:miter;stroke:rgb(26.666667%,26.666667%,26.666667%);stroke-opacity:1;stroke-miterlimit:10;" d="M 270.261719 578.9375 C 270.261719 580.9375 267.261719 580.9375 267.261719 578.9375 C 267.261719 576.9375 270.261719 576.9375 270.261719 578.9375 "/>
<path style="fill:none;stroke-width:0.2;stroke-linecap:butt;stroke-linejoin:miter;stroke:rgb(26.666667%,26.666667%,26.666667%);stroke-opacity:1;stroke-miterlimit:10;" d="M 283.042969 303.308594 L 270.175781 306.324219 "/>
<path style=" stroke:none;fill-rule:nonzero;fill:rgb(100%,0%,0%);fill-opacity:1;" d="M 135.964844 493.78125 C 135.964844 495.113281 133.964844 495.113281 133.964844 493.78125 C 133.964844 492.449219 135.964844 492.449219 135.964844 493.78125 "/>
<path style=" stroke:none;fill-rule:nonzero;fill:rgb(100%,0%,0%);fill-opacity:1;" d="M 123.328125 486.894531 C 123.328125 488.230469 121.328125 488.230469 121.328125 486.894531 C 121.328125 485.5625 123.328125 485.5625 123.328125 486.894531 "/>
<path style=" stroke:none;fill-rule:nonzero;fill:rgb(100%,0%,0%);fill-opacity:1;" d="M 359.019531 227.910156 C 359.019531 229.242188 357.019531 229.242188 357.019531 227.910156 C 357.019531 226.578125 359.019531 226.578125 359.019531 227.910156 "/>
<path style=" stroke:none;fill-rule:nonzero;fill:rgb(100%,0%,0%);fill-opacity:1;" d="M 351.503906 240.066406 C 351.503906 241.398438 349.503906 241.398438 349.503906 240.066406 C 349.503906 238.734375 351.503906 238.734375 351.503906 240.066406 "/>
<path style=" stroke:none;fill-rule:nonzero;fill:rgb(100%,0%,0%);fill-opacity:1;" d="M 372.882812 408.679688 C 372.882812 410.011719 370.882812 410.011719 370.882812 408.679688 C 370.882812 407.34375 372.882812 407.34375 372.882812 408.679688 "/>
<path style=" stroke:none;fill-rule:nonzero;fill:rgb(100%,0%,0%);fill-opacity:1;" d="M 378.714844 422.992188 C 378.714844 424.328125 376.714844 424.328125 376.714844 422.992188 C 376.714844 421.660156 378.714844 421.660156 378.714844 422.992188 "/>
<path style=" stroke:none;fill-rule:nonzero;fill:rgb(100%,0%,0%);fill-opacity:1;" d="M 109.191406 165.601562 C 109.191406 166.933594 107.191406 166.933594 107.191406 165.601562 C 107.191406 164.269531 109.191406 164.269531 109.191406 165.601562 "/>
<path style=" stroke:none;fill-rule:nonzero;fill:rgb(100%,0%,0%);fill-opacity:1;" d="M 92.503906 166.484375 C 92.503906 167.820312 90.503906 167.820312 90.503906 166.484375 C 90.503906 165.152344 92.503906 165.152344 92.503906 166.484375 "/>
<path style=" stroke:none;fill-rule:nonzero;fill:rgb(100%,0%,0%);fill-opacity:1;" d="M 117.257812 151.074219 C 117.257812 152.40625 115.257812 152.40625 115.257812 151.074219 C 115.257812 149.738281 117.257812 149.738281 117.257812 151.074219 "/>
<path style=" stroke:none;fill-rule:nonzero;fill:rgb(100%,0%,0%);fill-opacity:1;" d="M 118.316406 179.429688 C 118.316406 180.761719 116.316406 180.761719 116.316406 179.429688 C 116.316406 178.09375 118.316406 178.09375 118.316406 179.429688 "/>
<path style=" stroke:none;fill-rule:nonzero;fill:rgb(100%,0%,0%);fill-opacity:1;" d="M 472.722656 229.714844 C 472.722656 231.046875 470.722656 231.046875 470.722656 229.714844 C 470.722656 228.378906 472.722656 228.378906 472.722656 229.714844 "/>
<path style=" stroke:none;fill-rule:nonzero;fill:rgb(100%,0%,0%);fill-opacity:1;" d="M 458.503906 228.023438 C 458.503906 229.355469 456.503906 229.355469 456.503906 228.023438 C 456.503906 226.6875 458.503906 226.6875 458.503906 228.023438 "/>
<path style=" stroke:none;fill-rule:nonzero;fill:rgb(100%,0%,0%);fill-opacity:1;" d="M 200.464844 269.445312 C 200.464844 270.777344 198.464844 270.777344 198.464844 269.445312 C 198.464844 268.113281 200.464844 268.113281 200.464844 269.445312 "/>
<path style=" stroke:none;fill-rule:nonzero;fill:rgb(100%,0%,0%);fill-opacity:1;" d="M 205.167969 282.996094 C 205.167969 284.332031 203.167969 284.332031 203.167969 282.996094 C 203.167969 281.664062 205.167969 281.664062 205.167969 282.996094 "/>
<path style=" stroke:none;fill-rule:nonzero;fill:rgb(100%,0%,0%);fill-opacity:1;" d="M 174.445312 343.023438 C 174.445312 344.355469 172.445312 344.355469 172.445312 343.023438 C 172.445312 341.6875 174.445312 341.6875 174.445312 343.023438 "/>
<path style=" stroke:none;fill-rule:nonzero;fill:rgb(100%,0%,0%);fill-opacity:1;" d="M 163.933594 352.84375 C 163.933594 354.179688 161.933594 354.179688 161.933594 352.84375 C 161.933594 351.511719 163.933594 351.511719 163.933594 352.84375 "/>
<path style=" stroke:none;fill-rule:nonzero;fill:rgb(100%,0%,0%);fill-opacity:1;" d="M 81.363281 365.050781 C 81.363281 366.386719 79.363281 366.386719 79.363281 365.050781 C 79.363281 363.71875 81.363281 363.71875 81.363281 365.050781 "/>
<path style=" stroke:none;fill-rule:nonzero;fill:rgb(100%,0%,0%);fill-opacity:1;" d="M 95.828125 365.164062 C 95.828125 366.5 93.828125 366.5 93.828125 365.164062 C 93.828125 363.832031 95.828125 363.832031 95.828125 365.164062 "/>
<path style=" stroke:none;fill-rule:nonzero;fill:rgb(100%,0%,0%);fill-opacity:1;" d="M 385.027344 281.699219 C 385.027344 283.03125 383.027344 283.03125 383.027344 281.699219 C 383.027344 280.363281 385.027344 280.363281 385.027344 281.699219 "/>
<path style=" stroke:none;fill-rule:nonzero;fill:rgb(100%,0%,0%);fill-opacity:1;" d="M 382.851562 295.96875 C 382.851562 297.300781 380.851562 297.300781 380.851562 295.96875 C 380.851562 294.636719 382.851562 294.636719 382.851562 295.96875 "/>
<path style=" stroke:none;fill-rule:nonzero;fill:rgb(100%,0%,0%);fill-opacity:1;" d="M 509.167969 351.765625 C 509.167969 353.097656 507.167969 353.097656 507.167969 351.765625 C 507.167969 350.433594 509.167969 350.433594 509.167969 351.765625 "/>
<path style=" stroke:none;fill-rule:nonzero;fill:rgb(100%,0%,0%);fill-opacity:1;" d="M 520.714844 339.847656 C 520.714844 341.179688 518.714844 341.179688 518.714844 339.847656 C 518.714844 338.515625 520.714844 338.515625 520.714844 339.847656 "/>
<path style=" stroke:none;fill-rule:nonzero;fill:rgb(100%,0%,0%);fill-opacity:1;" d="M 493.417969 346.847656 C 493.417969 348.179688 491.417969 348.179688 491.417969 346.847656 C 491.417969 345.515625 493.417969 345.515625 493.417969 346.847656 "/>
<path style=" stroke:none;fill-rule:nonzero;fill:rgb(100%,0%,0%);fill-opacity:1;" d="M 512.875 368.019531 C 512.875 369.351562 510.875 369.351562 510.875 368.019531 C 510.875 366.6875 512.875 366.6875 512.875 368.019531 "/>
<path style=" stroke:none;fill-rule:nonzero;fill:rgb(100%,0%,0%);fill-opacity:1;" d="M 460.261719 497.796875 C 460.261719 499.128906 458.261719 499.128906 458.261719 497.796875 C 458.261719 496.464844 460.261719 496.464844 460.261719 497.796875 "/>
<path style=" stroke:none;fill-rule:nonzero;fill:rgb(100%,0%,0%);fill-opacity:1;" d="M 456.714844 483.839844 C 456.714844 485.171875 454.714844 485.171875 454.714844 483.839844 C 454.714844 482.503906 456.714844 482.503906 456.714844 483.839844 "/>
<path style=" stroke:none;fill-rule:nonzero;fill:rgb(100%,0%,0%);fill-opacity:1;" d="M 549.230469 237.359375 C 549.230469 238.695312 547.230469 238.695312 547.230469 237.359375 C 547.230469 236.027344 549.230469 236.027344 549.230469 237.359375 "/>
<path style=" stroke:none;fill-rule:nonzero;fill:rgb(100%,0%,0%);fill-opacity:1;" d="M 231.964844 345.953125 C 231.964844 347.285156 229.964844 347.285156 229.964844 345.953125 C 229.964844 344.621094 231.964844 344.621094 231.964844 345.953125 "/>
<path style=" stroke:none;fill-rule:nonzero;fill:rgb(100%,0%,0%);fill-opacity:1;" d="M 246.1875 345.445312 C 246.1875 346.777344 244.1875 346.777344 244.1875 345.445312 C 244.1875 344.109375 246.1875 344.109375 246.1875 345.445312 "/>
<path style=" stroke:none;fill-rule:nonzero;fill:rgb(100%,0%,0%);fill-opacity:1;" d="M 305.492188 214.796875 C 305.492188 216.128906 303.492188 216.128906 303.492188 214.796875 C 303.492188 213.464844 305.492188 213.464844 305.492188 214.796875 "/>
<path style=" stroke:none;fill-rule:nonzero;fill:rgb(100%,0%,0%);fill-opacity:1;" d="M 309.085938 201.003906 C 309.085938 202.335938 307.085938 202.335938 307.085938 201.003906 C 307.085938 199.667969 309.085938 199.667969 309.085938 201.003906 "/>
<path style=" stroke:none;fill-rule:nonzero;fill:rgb(100%,0%,0%);fill-opacity:1;" d="M 347.589844 578.835938 C 347.589844 580.167969 345.589844 580.167969 345.589844 578.835938 C 345.589844 577.503906 347.589844 577.503906 347.589844 578.835938 "/>
<path style=" stroke:none;fill-rule:nonzero;fill:rgb(100%,0%,0%);fill-opacity:1;" d="M 361.410156 574.527344 C 361.410156 575.863281 359.410156 575.863281 359.410156 574.527344 C 359.410156 573.195312 361.410156 573.195312 361.410156 574.527344 "/>
<path style=" stroke:none;fill-rule:nonzero;fill:rgb(100%,0%,0%);fill-opacity:1;" d="M 516.527344 281.421875 C 516.527344 282.757812 514.527344 282.757812 514.527344 281.421875 C 514.527344 280.089844 516.527344 280.089844 516.527344 281.421875 "/>
<path style=" stroke:none;fill-rule:nonzero;fill:rgb(100%,0%,0%);fill-opacity:1;" d="M 505.527344 272.257812 C 505.527344 273.59375 503.527344 273.59375 503.527344 272.257812 C 503.527344 270.925781 505.527344 270.925781 505.527344 272.257812 "/>
<path style=" stroke:none;fill-rule:nonzero;fill:rgb(100%,0%,0%);fill-opacity:1;" d="M 343.765625 28.605469 C 343.765625 29.9375 341.765625 29.9375 341.765625 28.605469 C 341.765625 27.273438 343.765625 27.273438 343.765625 28.605469 "/>
<path style=" stroke:none;fill-rule:nonzero;fill:rgb(100%,0%,0%);fill-opacity:1;" d="M 355.894531 36.351562 C 355.894531 37.683594 353.894531 37.683594 353.894531 36.351562 C 353.894531 35.015625 355.894531 35.015625 355.894531 36.351562 "/>
<path style=" stroke:none;fill-rule:nonzero;fill:rgb(100%,0%,0%);fill-opacity:1;" d="M 435.625 301.652344 C 435.625 302.984375 433.625 302.984375 433.625 301.652344 C 433.625 300.320312 435.625 300.320312 435.625 301.652344 "/>
<path style=" stroke:none;fill-rule:nonzero;fill:rgb(100%,0%,0%);fill-opacity:1;" d="M 441.199219 287.351562 C 441.199219 288.683594 439.199219 288.683594 439.199219 287.351562 C 439.199219 286.015625 441.199219 286.015625 441.199219 287.351562 "/>
<path style=" stroke:none;fill-rule:nonzero;fill:rgb(100%,0%,0%);fill-opacity:1;" d="M 429.160156 315.601562 C 429.160156 316.9375 427.160156 316.9375 427.160156 315.601562 C 427.160156 314.269531 429.160156 314.269531 429.160156 315.601562 "/>
<path style=" stroke:none;fill-rule:nonzero;fill:rgb(100%,0%,0%);fill-opacity:1;" d="M 21.035156 277.679688 C 21.035156 279.011719 19.035156 279.011719 19.035156 277.679688 C 19.035156 276.347656 21.035156 276.347656 21.035156 277.679688 "/>
<path style=" stroke:none;fill-rule:nonzero;fill:rgb(100%,0%,0%);fill-opacity:1;" d="M 21 292.191406 C 21 293.523438 19 293.523438 19 292.191406 C 19 290.859375 21 290.859375 21 292.191406 "/>
<path style=" stroke:none;fill-rule:nonzero;fill:rgb(100%,0%,0%);fill-opacity:1;" d="M 509.878906 446.035156 C 509.878906 447.367188 507.878906 447.367188 507.878906 446.035156 C 507.878906 444.699219 509.878906 444.699219 509.878906 446.035156 "/>
<path style=" stroke:none;fill-rule:nonzero;fill:rgb(100%,0%,0%);fill-opacity:1;" d="M 524.160156 444.316406 C 524.160156 445.652344 522.160156 445.652344 522.160156 444.316406 C 522.160156 442.984375 524.160156 442.984375 524.160156 444.316406 "/>
<path style=" stroke:none;fill-rule:nonzero;fill:rgb(100%,0%,0%);fill-opacity:1;" d="M 254.210938 187.238281 C 254.210938 188.574219 252.210938 188.574219 252.210938 187.238281 C 252.210938 185.90625 254.210938 185.90625 254.210938 187.238281 "/>
<path style=" stroke:none;fill-rule:nonzero;fill:rgb(100%,0%,0%);fill-opacity:1;" d="M 202.507812 551.355469 C 202.507812 552.6875 200.507812 552.6875 200.507812 551.355469 C 200.507812 550.023438 202.507812 550.023438 202.507812 551.355469 "/>
<path style=" stroke:none;fill-rule:nonzero;fill:rgb(100%,0%,0%);fill-opacity:1;" d="M 216.957031 551.207031 C 216.957031 552.542969 214.957031 552.542969 214.957031 551.207031 C 214.957031 549.875 216.957031 549.875 216.957031 551.207031 "/>
<path style=" stroke:none;fill-rule:nonzero;fill:rgb(100%,0%,0%);fill-opacity:1;" d="M 435.964844 390.113281 C 435.964844 391.445312 433.964844 391.445312 433.964844 390.113281 C 433.964844 388.78125 435.964844 388.78125 435.964844 390.113281 "/>
<path style=" stroke:none;fill-rule:nonzero;fill:rgb(100%,0%,0%);fill-opacity:1;" d="M 443.3125 375.519531 C 443.3125 376.855469 441.3125 376.855469 441.3125 375.519531 C 441.3125 374.1875 443.3125 374.1875 443.3125 375.519531 "/>
<path style=" stroke:none;fill-rule:nonzero;fill:rgb(100%,0%,0%);fill-opacity:1;" d="M 444.277344 404.640625 C 444.277344 405.976562 442.277344 405.976562 442.277344 404.640625 C 442.277344 403.308594 444.277344 403.308594 444.277344 404.640625 "/>
<path style=" stroke:none;fill-rule:nonzero;fill:rgb(100%,0%,0%);fill-opacity:1;" d="M 419.648438 387.765625 C 419.648438 389.097656 417.648438 389.097656 417.648438 387.765625 C 417.648438 386.433594 419.648438 386.433594 419.648438 387.765625 "/>
<path style=" stroke:none;fill-rule:nonzero;fill:rgb(100%,0%,0%);fill-opacity:1;" d="M 394.035156 504.386719 C 394.035156 505.722656 392.035156 505.722656 392.035156 504.386719 C 392.035156 503.054688 394.035156 503.054688 394.035156 504.386719 "/>
<path style=" stroke:none;fill-rule:nonzero;fill:rgb(100%,0%,0%);fill-opacity:1;" d="M 382.527344 495.785156 C 382.527344 497.117188 380.527344 497.117188 380.527344 495.785156 C 380.527344 494.453125 382.527344 494.453125 382.527344 495.785156 "/>
<path style=" stroke:none;fill-rule:nonzero;fill:rgb(100%,0%,0%);fill-opacity:1;" d="M 385.511719 436.84375 C 385.511719 438.175781 383.511719 438.175781 383.511719 436.84375 C 383.511719 435.507812 385.511719 435.507812 385.511719 436.84375 "/>
<path style=" stroke:none;fill-rule:nonzero;fill:rgb(100%,0%,0%);fill-opacity:1;" d="M 272.097656 251.589844 C 272.097656 252.925781 270.097656 252.925781 270.097656 251.589844 C 270.097656 250.257812 272.097656 250.257812 272.097656 251.589844 "/>
<path style=" stroke:none;fill-rule:nonzero;fill:rgb(100%,0%,0%);fill-opacity:1;" d="M 257.691406 246.503906 C 257.691406 247.835938 255.691406 247.835938 255.691406 246.503906 C 255.691406 245.171875 257.691406 245.171875 257.691406 246.503906 "/>
<path style=" stroke:none;fill-rule:nonzero;fill:rgb(100%,0%,0%);fill-opacity:1;" d="M 243.441406 241.019531 C 243.441406 242.355469 241.441406 242.355469 241.441406 241.019531 C 241.441406 239.6875 243.441406 239.6875 243.441406 241.019531 "/>
<path style=" stroke:none;fill-rule:nonzero;fill:rgb(100%,0%,0%);fill-opacity:1;" d="M 270.191406 68.632812 C 270.191406 69.96875 268.191406 69.96875 268.191406 68.632812 C 268.191406 67.300781 270.191406 67.300781 270.191406 68.632812 "/>
<path style=" stroke:none;fill-rule:nonzero;fill:rgb(100%,0%,0%);fill-opacity:1;" d="M 284.277344 65.289062 C 284.277344 66.621094 282.277344 66.621094 282.277344 65.289062 C 282.277344 63.953125 284.277344 63.953125 284.277344 65.289062 "/>
<path style=" stroke:none;fill-rule:nonzero;fill:rgb(100%,0%,0%);fill-opacity:1;" d="M 296.144531 459.644531 C 296.144531 460.980469 294.144531 460.980469 294.144531 459.644531 C 294.144531 458.3125 296.144531 458.3125 296.144531 459.644531 "/>
<path style=" stroke:none;fill-rule:nonzero;fill:rgb(100%,0%,0%);fill-opacity:1;" d="M 312.742188 458.984375 C 312.742188 460.316406 310.742188 460.316406 310.742188 458.984375 C 310.742188 457.648438 312.742188 457.648438 312.742188 458.984375 "/>
<path style=" stroke:none;fill-rule:nonzero;fill:rgb(100%,0%,0%);fill-opacity:1;" d="M 288.546875 474.246094 C 288.546875 475.578125 286.546875 475.578125 286.546875 474.246094 C 286.546875 472.914062 288.546875 472.914062 288.546875 474.246094 "/>
<path style=" stroke:none;fill-rule:nonzero;fill:rgb(100%,0%,0%);fill-opacity:1;" d="M 286.34375 446.320312 C 286.34375 447.652344 284.34375 447.652344 284.34375 446.320312 C 284.34375 444.988281 286.34375 444.988281 286.34375 446.320312 "/>
<path style=" stroke:none;fill-rule:nonzero;fill:rgb(100%,0%,0%);fill-opacity:1;" d="M 113.792969 275.871094 C 113.792969 277.203125 111.792969 277.203125 111.792969 275.871094 C 111.792969 274.539062 113.792969 274.539062 113.792969 275.871094 "/>
<path style=" stroke:none;fill-rule:nonzero;fill:rgb(100%,0%,0%);fill-opacity:1;" d="M 134.246094 270.1875 C 134.246094 271.523438 132.246094 271.523438 132.246094 270.1875 C 132.246094 268.855469 134.246094 268.855469 134.246094 270.1875 "/>
<path style=" stroke:none;fill-rule:nonzero;fill:rgb(100%,0%,0%);fill-opacity:1;" d="M 92.96875 272.105469 C 92.96875 273.441406 90.96875 273.441406 90.96875 272.105469 C 90.96875 270.773438 92.96875 270.773438 92.96875 272.105469 "/>
<path style=" stroke:none;fill-rule:nonzero;fill:rgb(100%,0%,0%);fill-opacity:1;" d="M 103.601562 257.09375 C 103.601562 258.429688 101.601562 258.429688 101.601562 257.09375 C 101.601562 255.761719 103.601562 255.761719 103.601562 257.09375 "/>
<path style=" stroke:none;fill-rule:nonzero;fill:rgb(100%,0%,0%);fill-opacity:1;" d="M 131.027344 288.316406 C 131.027344 289.648438 129.027344 289.648438 129.027344 288.316406 C 129.027344 286.980469 131.027344 286.980469 131.027344 288.316406 "/>
<path style=" stroke:none;fill-rule:nonzero;fill:rgb(100%,0%,0%);fill-opacity:1;" d="M 97.847656 289.933594 C 97.847656 291.265625 95.847656 291.265625 95.847656 289.933594 C 95.847656 288.597656 97.847656 288.597656 97.847656 289.933594 "/>
<path style=" stroke:none;fill-rule:nonzero;fill:rgb(100%,0%,0%);fill-opacity:1;" d="M 122.058594 256.382812 C 122.058594 257.714844 120.058594 257.714844 120.058594 256.382812 C 120.058594 255.050781 122.058594 255.050781 122.058594 256.382812 "/>
<path style=" stroke:none;fill-rule:nonzero;fill:rgb(100%,0%,0%);fill-opacity:1;" d="M 114.824219 297.074219 C 114.824219 298.40625 112.824219 298.40625 112.824219 297.074219 C 112.824219 295.742188 114.824219 295.742188 114.824219 297.074219 "/>
<path style=" stroke:none;fill-rule:nonzero;fill:rgb(100%,0%,0%);fill-opacity:1;" d="M 306.648438 399.511719 C 306.648438 400.84375 304.648438 400.84375 304.648438 399.511719 C 304.648438 398.175781 306.648438 398.175781 306.648438 399.511719 "/>
<path style=" stroke:none;fill-rule:nonzero;fill:rgb(100%,0%,0%);fill-opacity:1;" d="M 321.042969 400 C 321.042969 401.335938 319.042969 401.335938 319.042969 400 C 319.042969 398.667969 321.042969 398.667969 321.042969 400 "/>
<path style=" stroke:none;fill-rule:nonzero;fill:rgb(100%,0%,0%);fill-opacity:1;" d="M 418.90625 132.507812 C 418.90625 133.839844 416.90625 133.839844 416.90625 132.507812 C 416.90625 131.175781 418.90625 131.175781 418.90625 132.507812 "/>
<path style=" stroke:none;fill-rule:nonzero;fill:rgb(100%,0%,0%);fill-opacity:1;" d="M 404.074219 135.953125 C 404.074219 137.289062 402.074219 137.289062 402.074219 135.953125 C 402.074219 134.621094 404.074219 134.621094 404.074219 135.953125 "/>
<path style=" stroke:none;fill-rule:nonzero;fill:rgb(100%,0%,0%);fill-opacity:1;" d="M 433.746094 128.804688 C 433.746094 130.136719 431.746094 130.136719 431.746094 128.804688 C 431.746094 127.46875 433.746094 127.46875 433.746094 128.804688 "/>
<path style=" stroke:none;fill-rule:nonzero;fill:rgb(100%,0%,0%);fill-opacity:1;" d="M 537.6875 152.503906 C 537.6875 153.835938 535.6875 153.835938 535.6875 152.503906 C 535.6875 151.167969 537.6875 151.167969 537.6875 152.503906 "/>
<path style=" stroke:none;fill-rule:nonzero;fill:rgb(100%,0%,0%);fill-opacity:1;" d="M 544.566406 166.515625 C 544.566406 167.847656 542.566406 167.847656 542.566406 166.515625 C 542.566406 165.179688 544.566406 165.179688 544.566406 166.515625 "/>
<path style=" stroke:none;fill-rule:nonzero;fill:rgb(100%,0%,0%);fill-opacity:1;" d="M 530.605469 138.574219 C 530.605469 139.90625 528.605469 139.90625 528.605469 138.574219 C 528.605469 137.238281 530.605469 137.238281 530.605469 138.574219 "/>
<path style=" stroke:none;fill-rule:nonzero;fill:rgb(100%,0%,0%);fill-opacity:1;" d="M 405.035156 199.875 C 405.035156 201.207031 403.035156 201.207031 403.035156 199.875 C 403.035156 198.542969 405.035156 198.542969 405.035156 199.875 "/>
<path style=" stroke:none;fill-rule:nonzero;fill:rgb(100%,0%,0%);fill-opacity:1;" d="M 407.945312 213.882812 C 407.945312 215.21875 405.945312 215.21875 405.945312 213.882812 C 405.945312 212.550781 407.945312 212.550781 407.945312 213.882812 "/>
<path style=" stroke:none;fill-rule:nonzero;fill:rgb(100%,0%,0%);fill-opacity:1;" d="M 202.183594 418.558594 C 202.183594 419.890625 200.183594 419.890625 200.183594 418.558594 C 200.183594 417.226562 202.183594 417.226562 202.183594 418.558594 "/>
<path style=" stroke:none;fill-rule:nonzero;fill:rgb(100%,0%,0%);fill-opacity:1;" d="M 183.0625 417.0625 C 183.0625 418.398438 181.0625 418.398438 181.0625 417.0625 C 181.0625 415.730469 183.0625 415.730469 183.0625 417.0625 "/>
<path style=" stroke:none;fill-rule:nonzero;fill:rgb(100%,0%,0%);fill-opacity:1;" d="M 218.785156 408.769531 C 218.785156 410.105469 216.785156 410.105469 216.785156 408.769531 C 216.785156 407.4375 218.785156 407.4375 218.785156 408.769531 "/>
<path style=" stroke:none;fill-rule:nonzero;fill:rgb(100%,0%,0%);fill-opacity:1;" d="M 216.554688 430.652344 C 216.554688 431.988281 214.554688 431.988281 214.554688 430.652344 C 214.554688 429.320312 216.554688 429.320312 216.554688 430.652344 "/>
<path style=" stroke:none;fill-rule:nonzero;fill:rgb(100%,0%,0%);fill-opacity:1;" d="M 194.460938 435.867188 C 194.460938 437.199219 192.460938 437.199219 192.460938 435.867188 C 192.460938 434.53125 194.460938 434.53125 194.460938 435.867188 "/>
<path style=" stroke:none;fill-rule:nonzero;fill:rgb(100%,0%,0%);fill-opacity:1;" d="M 198.082031 400.394531 C 198.082031 401.730469 196.082031 401.730469 196.082031 400.394531 C 196.082031 399.0625 198.082031 399.0625 198.082031 400.394531 "/>
<path style=" stroke:none;fill-rule:nonzero;fill:rgb(100%,0%,0%);fill-opacity:1;" d="M 342.140625 139.378906 C 342.140625 140.710938 340.140625 140.710938 340.140625 139.378906 C 340.140625 138.042969 342.140625 138.042969 342.140625 139.378906 "/>
<path style=" stroke:none;fill-rule:nonzero;fill:rgb(100%,0%,0%);fill-opacity:1;" d="M 348.4375 123.953125 C 348.4375 125.285156 346.4375 125.285156 346.4375 123.953125 C 346.4375 122.621094 348.4375 122.621094 348.4375 123.953125 "/>
<path style=" stroke:none;fill-rule:nonzero;fill:rgb(100%,0%,0%);fill-opacity:1;" d="M 350.441406 153.71875 C 350.441406 155.050781 348.441406 155.050781 348.441406 153.71875 C 348.441406 152.386719 350.441406 152.386719 350.441406 153.71875 "/>
<path style=" stroke:none;fill-rule:nonzero;fill:rgb(100%,0%,0%);fill-opacity:1;" d="M 325.941406 141.242188 C 325.941406 142.574219 323.941406 142.574219 323.941406 141.242188 C 323.941406 139.90625 325.941406 139.90625 325.941406 141.242188 "/>
<path style=" stroke:none;fill-rule:nonzero;fill:rgb(100%,0%,0%);fill-opacity:1;" d="M 474.835938 164.617188 C 474.835938 165.949219 472.835938 165.949219 472.835938 164.617188 C 472.835938 163.28125 474.835938 163.28125 474.835938 164.617188 "/>
<path style=" stroke:none;fill-rule:nonzero;fill:rgb(100%,0%,0%);fill-opacity:1;" d="M 482.550781 176.679688 C 482.550781 178.015625 480.550781 178.015625 480.550781 176.679688 C 480.550781 175.347656 482.550781 175.347656 482.550781 176.679688 "/>
<path style=" stroke:none;fill-rule:nonzero;fill:rgb(100%,0%,0%);fill-opacity:1;" d="M 198.734375 135.632812 C 198.734375 136.964844 196.734375 136.964844 196.734375 135.632812 C 196.734375 134.296875 198.734375 134.296875 198.734375 135.632812 "/>
<path style=" stroke:none;fill-rule:nonzero;fill:rgb(100%,0%,0%);fill-opacity:1;" d="M 205.667969 148.179688 C 205.667969 149.511719 203.667969 149.511719 203.667969 148.179688 C 203.667969 146.847656 205.667969 146.847656 205.667969 148.179688 "/>
<path style=" stroke:none;fill-rule:nonzero;fill:rgb(100%,0%,0%);fill-opacity:1;" d="M 89.203125 424.511719 C 89.203125 425.847656 87.203125 425.847656 87.203125 424.511719 C 87.203125 423.179688 89.203125 423.179688 89.203125 424.511719 "/>
<path style=" stroke:none;fill-rule:nonzero;fill:rgb(100%,0%,0%);fill-opacity:1;" d="M 103.257812 421.164062 C 103.257812 422.5 101.257812 422.5 101.257812 421.164062 C 101.257812 419.832031 103.257812 419.832031 103.257812 421.164062 "/>
<path style=" stroke:none;fill-rule:nonzero;fill:rgb(100%,0%,0%);fill-opacity:1;" d="M 226.628906 494.210938 C 226.628906 495.542969 224.628906 495.542969 224.628906 494.210938 C 224.628906 492.878906 226.628906 492.878906 226.628906 494.210938 "/>
<path style=" stroke:none;fill-rule:nonzero;fill:rgb(100%,0%,0%);fill-opacity:1;" d="M 212.441406 496.863281 C 212.441406 498.199219 210.441406 498.199219 210.441406 496.863281 C 210.441406 495.53125 212.441406 495.53125 212.441406 496.863281 "/>
<path style=" stroke:none;fill-rule:nonzero;fill:rgb(100%,0%,0%);fill-opacity:1;" d="M 237.523438 26.148438 C 237.523438 27.480469 235.523438 27.480469 235.523438 26.148438 C 235.523438 24.8125 237.523438 24.8125 237.523438 26.148438 "/>
<path style=" stroke:none;fill-rule:nonzero;fill:rgb(100%,0%,0%);fill-opacity:1;" d="M 250.667969 20 C 250.667969 21.332031 248.667969 21.332031 248.667969 20 C 248.667969 18.667969 250.667969 18.667969 250.667969 20 "/>
<path style=" stroke:none;fill-rule:nonzero;fill:rgb(100%,0%,0%);fill-opacity:1;" d="M 311.863281 528.207031 C 311.863281 529.542969 309.863281 529.542969 309.863281 528.207031 C 309.863281 526.875 311.863281 526.875 311.863281 528.207031 "/>
<path style=" stroke:none;fill-rule:nonzero;fill:rgb(100%,0%,0%);fill-opacity:1;" d="M 325.859375 524.726562 C 325.859375 526.058594 323.859375 526.058594 323.859375 524.726562 C 323.859375 523.390625 325.859375 523.390625 325.859375 524.726562 "/>
<path style=" stroke:none;fill-rule:nonzero;fill:rgb(100%,0%,0%);fill-opacity:1;" d="M 328.738281 353.023438 C 328.738281 354.359375 326.738281 354.359375 326.738281 353.023438 C 326.738281 351.691406 328.738281 351.691406 328.738281 353.023438 "/>
<path style=" stroke:none;fill-rule:nonzero;fill:rgb(100%,0%,0%);fill-opacity:1;" d="M 314.277344 352.214844 C 314.277344 353.546875 312.277344 353.546875 312.277344 352.214844 C 312.277344 350.878906 314.277344 350.878906 314.277344 352.214844 "/>
<path style=" stroke:none;fill-rule:nonzero;fill:rgb(100%,0%,0%);fill-opacity:1;" d="M 581 354.582031 C 581 355.914062 579 355.914062 579 354.582031 C 579 353.25 581 353.25 581 354.582031 "/>
<path style=" stroke:none;fill-rule:nonzero;fill:rgb(100%,0%,0%);fill-opacity:1;" d="M 578.40625 368.851562 C 578.40625 370.1875 576.40625 370.1875 576.40625 368.851562 C 576.40625 367.519531 578.40625 367.519531 578.40625 368.851562 "/>
<path style=" stroke:none;fill-rule:nonzero;fill:rgb(100%,0%,0%);fill-opacity:1;" d="M 190.277344 206.542969 C 190.277344 207.878906 188.277344 207.878906 188.277344 206.542969 C 188.277344 205.210938 190.277344 205.210938 190.277344 206.542969 "/>
<path style=" stroke:none;fill-rule:nonzero;fill:rgb(100%,0%,0%);fill-opacity:1;" d="M 182 194.890625 C 182 196.222656 180 196.222656 180 194.890625 C 180 193.558594 182 193.558594 182 194.890625 "/>
<path style=" stroke:none;fill-rule:nonzero;fill:rgb(100%,0%,0%);fill-opacity:1;" d="M 338.558594 307.167969 C 338.558594 308.503906 336.558594 308.503906 336.558594 307.167969 C 336.558594 305.835938 338.558594 305.835938 338.558594 307.167969 "/>
<path style=" stroke:none;fill-rule:nonzero;fill:rgb(100%,0%,0%);fill-opacity:1;" d="M 332.789062 294.050781 C 332.789062 295.382812 330.789062 295.382812 330.789062 294.050781 C 330.789062 292.71875 332.789062 292.71875 332.789062 294.050781 "/>
<path style=" stroke:none;fill-rule:nonzero;fill:rgb(100%,0%,0%);fill-opacity:1;" d="M 267.019531 126.523438 C 267.019531 127.855469 265.019531 127.855469 265.019531 126.523438 C 265.019531 125.191406 267.019531 125.191406 267.019531 126.523438 "/>
<path style=" stroke:none;fill-rule:nonzero;fill:rgb(100%,0%,0%);fill-opacity:1;" d="M 254.085938 134.359375 C 254.085938 135.691406 252.085938 135.691406 252.085938 134.359375 C 252.085938 133.023438 254.085938 133.023438 254.085938 134.359375 "/>
<path style=" stroke:none;fill-rule:nonzero;fill:rgb(100%,0%,0%);fill-opacity:1;" d="M 279.996094 118.617188 C 279.996094 119.953125 277.996094 119.953125 277.996094 118.617188 C 277.996094 117.285156 279.996094 117.285156 279.996094 118.617188 "/>
<path style=" stroke:none;fill-rule:nonzero;fill:rgb(100%,0%,0%);fill-opacity:1;" d="M 150.257812 88.273438 C 150.257812 89.609375 148.257812 89.609375 148.257812 88.273438 C 148.257812 86.941406 150.257812 86.941406 150.257812 88.273438 "/>
<path style=" stroke:none;fill-rule:nonzero;fill:rgb(100%,0%,0%);fill-opacity:1;" d="M 162.578125 80.8125 C 162.578125 82.144531 160.578125 82.144531 160.578125 80.8125 C 160.578125 79.480469 162.578125 79.480469 162.578125 80.8125 "/>
<path style=" stroke:none;fill-rule:nonzero;fill:rgb(100%,0%,0%);fill-opacity:1;" d="M 434.277344 57.867188 C 434.277344 59.203125 432.277344 59.203125 432.277344 57.867188 C 432.277344 56.535156 434.277344 56.535156 434.277344 57.867188 "/>
<path style=" stroke:none;fill-rule:nonzero;fill:rgb(100%,0%,0%);fill-opacity:1;" d="M 425.761719 69.390625 C 425.761719 70.722656 423.761719 70.722656 423.761719 69.390625 C 423.761719 68.054688 425.761719 68.054688 425.761719 69.390625 "/>
<path style=" stroke:none;fill-rule:nonzero;fill:rgb(100%,0%,0%);fill-opacity:1;" d="M 268.703125 580 C 268.703125 581.332031 266.703125 581.332031 266.703125 580 C 266.703125 578.667969 268.703125 578.667969 268.703125 580 "/>
<path style=" stroke:none;fill-rule:nonzero;fill:rgb(100%,0%,0%);fill-opacity:1;" d="M 284.042969 303.308594 C 284.042969 304.640625 282.042969 304.640625 282.042969 303.308594 C 282.042969 301.976562 284.042969 301.976562 284.042969 303.308594 "/>
<path style=" stroke:none;fill-rule:nonzero;fill:rgb(100%,0%,0%);fill-opacity:1;" d="M 270.203125 306.554688 C 270.203125 307.886719 268.203125 307.886719 268.203125 306.554688 C 268.203125 305.21875 270.203125 305.21875 270.203125 306.554688 "/>
</g>
</svg>
