<?xml version="1.0" encoding="UTF-8"?>
<svg xmlns="http://www.w3.org/2000/svg" xmlns:xlink="http://www.w3.org/1999/xlink" width="600" height="600" viewBox="0 0 600 600">
<rect x="-60" y="-60" width="720" height="720" fill="rgb(100%, 100%, 100%)" fill-opacity="1"/>
<path fill="none" stroke-width="0.2" stroke-linecap="butt" stroke-linejoin="miter" stroke="rgb(26.666667%, 26.666667%, 26.666667%)" stroke-opacity="1" stroke-miterlimit="10" d="M 263.171875 274.132812 L 253.90625 285.070312 "/>
<path fill="none" stroke-width="0.2" stroke-linecap="butt" stroke-linejoin="miter" stroke="rgb(26.666667%, 26.666667%, 26.666667%)" stroke-opacity="1" stroke-miterlimit="10" d="M 377.84375 404.484375 L 368.164062 415.125 "/>
<path fill-rule="nonzero" fill="rgb(100%, 0%, 0%)" fill-opacity="1" stroke-width="0.01" stroke-linecap="butt" stroke-linejoin="miter" stroke="rgb(0%, 0%, 0%)" stroke-opacity="1" stroke-miterlimit="10" d="M 409.519531 550.609375 C 409.519531 551.941406 407.519531 551.941406 407.519531 550.609375 C 407.519531 549.273438 409.519531 549.273438 409.519531 550.609375 "/>
<path fill-rule="nonzero" fill="rgb(100%, 0%, 0%)" fill-opacity="1" stroke-width="0.01" stroke-linecap="butt" stroke-linejoin="miter" stroke="rgb(0%, 0%, 0%)" stroke-opacity="1" stroke-miterlimit="10" d="M 480.367188 410.019531 C 480.367188 411.351562 478.367188 411.351562 478.367188 410.019531 C 478.367188 408.683594 480.367188 408.683594 480.367188 410.019531 "/>
<path fill-rule="nonzero" fill="rgb(100%, 0%, 0%)" fill-opacity="1" stroke-width="0.01" stroke-linecap="butt" stroke-linejoin="miter" stroke="rgb(0%, 0%, 0%)" stroke-opacity="1" stroke-miterlimit="10" d="M 260.871094 20 C 260.871094 21.332031 258.871094 21.332031 258.871094 20 C 258.871094 18.667969 260.871094 18.667969 260.871094 20 "/>
<path fill-rule="nonzero" fill="rgb(100%, 0%, 0%)" fill-opacity="1" stroke-width="0.01" stroke-linecap="butt" stroke-linejoin="miter" stroke="rgb(0%, 0%, 0%)" stroke-opacity="1" stroke-miterlimit="10" d="M 483.453125 457.105469 C 483.453125 458.4375 481.453125 458.4375 481.453125 457.105469 C 481.453125 455.773438 483.453125 455.773438 483.453125 457.105469 "/>
<path fill-rule="nonzero" fill="rgb(100%, 0%, 0%)" fill-opacity="1" stroke-width="0.01" stroke-linecap="butt" stroke-linejoin="miter" stroke="rgb(0%, 0%, 0%)" stroke-opacity="1" stroke-miterlimit="10" d="M 264.171875 274.132812 C 264.171875 275.46875 262.171875 275.46875 262.171875 274.132812 C 262.171875 272.800781 264.171875 272.800781 264.171875 274.132812 "/>
<path fill-rule="nonzero" fill="rgb(100%, 0%, 0%)" fill-opacity="1" stroke-width="0.01" stroke-linecap="butt" stroke-linejoin="miter" stroke="rgb(0%, 0%, 0%)" stroke-opacity="1" stroke-miterlimit="10" d="M 357.742188 308.574219 C 357.742188 309.910156 355.742188 309.910156 355.742188 308.574219 C 355.742188 307.242188 357.742188 307.242188 357.742188 308.574219 "/>
<path fill-rule="nonzero" fill="rgb(100%, 0%, 0%)" fill-opacity="1" stroke-width="0.01" stroke-linecap="butt" stroke-linejoin="miter" stroke="rgb(0%, 0%, 0%)" stroke-opacity="1" stroke-miterlimit="10" d="M 484.179688 337.449219 C 484.179688 338.78125 482.179688 338.78125 482.179688 337.449219 C 482.179688 336.113281 484.179688 336.113281 484.179688 337.449219 "/>
<path fill-rule="nonzero" fill="rgb(100%, 0%, 0%)" fill-opacity="1" stroke-width="0.01" stroke-linecap="butt" stroke-linejoin="miter" stroke="rgb(0%, 0%, 0%)" stroke-opacity="1" stroke-miterlimit="10" d="M 408.957031 281.601562 C 408.957031 282.933594 406.957031 282.933594 406.957031 281.601562 C 406.957031 280.269531 408.957031 280.269531 408.957031 281.601562 "/>
<path fill-rule="nonzero" fill="rgb(100%, 0%, 0%)" fill-opacity="1" stroke-width="0.01" stroke-linecap="butt" stroke-linejoin="miter" stroke="rgb(0%, 0%, 0%)" stroke-opacity="1" stroke-miterlimit="10" d="M 262.898438 333.804688 C 262.898438 335.140625 260.898438 335.140625 260.898438 333.804688 C 260.898438 332.472656 262.898438 332.472656 262.898438 333.804688 "/>
<path fill-rule="nonzero" fill="rgb(100%, 0%, 0%)" fill-opacity="1" stroke-width="0.01" stroke-linecap="butt" stroke-linejoin="miter" stroke="rgb(0%, 0%, 0%)" stroke-opacity="1" stroke-miterlimit="10" d="M 555.410156 340.59375 C 555.410156 341.925781 553.410156 341.925781 553.410156 340.59375 C 553.410156 339.261719 555.410156 339.261719 555.410156 340.59375 "/>
<path fill-rule="nonzero" fill="rgb(100%, 0%, 0%)" fill-opacity="1" stroke-width="0.01" stroke-linecap="butt" stroke-linejoin="miter" stroke="rgb(0%, 0%, 0%)" stroke-opacity="1" stroke-miterlimit="10" d="M 311.65625 551.613281 C 311.65625 552.945312 309.65625 552.945312 309.65625 551.613281 C 309.65625 550.28125 311.65625 550.28125 311.65625 551.613281 "/>
<path fill-rule="nonzero" fill="rgb(100%, 0%, 0%)" fill-opacity="1" stroke-width="0.01" stroke-linecap="butt" stroke-linejoin="miter" stroke="rgb(0%, 0%, 0%)" stroke-opacity="1" stroke-miterlimit="10" d="M 296.628906 507.199219 C 296.628906 508.53125 294.628906 508.53125 294.628906 507.199219 C 294.628906 505.867188 296.628906 505.867188 296.628906 507.199219 "/>
<path fill-rule="nonzero" fill="rgb(100%, 0%, 0%)" fill-opacity="1" stroke-width="0.01" stroke-linecap="butt" stroke-linejoin="miter" stroke="rgb(0%, 0%, 0%)" stroke-opacity="1" stroke-miterlimit="10" d="M 341.191406 81.648438 C 341.191406 82.984375 339.191406 82.984375 339.191406 81.648438 C 339.191406 80.316406 341.191406 80.316406 341.191406 81.648438 "/>
<path fill-rule="nonzero" fill="rgb(100%, 0%, 0%)" fill-opacity="1" stroke-width="0.01" stroke-linecap="butt" stroke-linejoin="miter" stroke="rgb(0%, 0%, 0%)" stroke-opacity="1" stroke-miterlimit="10" d="M 279.0625 465.523438 C 279.0625 466.855469 277.0625 466.855469 277.0625 465.523438 C 277.0625 464.1875 279.0625 464.1875 279.0625 465.523438 "/>
<path fill-rule="nonzero" fill="rgb(100%, 0%, 0%)" fill-opacity="1" stroke-width="0.01" stroke-linecap="butt" stroke-linejoin="miter" stroke="rgb(0%, 0%, 0%)" stroke-opacity="1" stroke-miterlimit="10" d="M 424.640625 168.984375 C 424.640625 170.316406 422.640625 170.316406 422.640625 168.984375 C 422.640625 167.648438 424.640625 167.648438 424.640625 168.984375 "/>
<path fill-rule="nonzero" fill="rgb(100%, 0%, 0%)" fill-opacity="1" stroke-width="0.01" stroke-linecap="butt" stroke-linejoin="miter" stroke="rgb(0%, 0%, 0%)" stroke-opacity="1" stroke-miterlimit="10" d="M 202.972656 36.578125 C 202.972656 37.914062 200.972656 37.914062 200.972656 36.578125 C 200.972656 35.246094 202.972656 35.246094 202.972656 36.578125 "/>
<path fill-rule="nonzero" fill="rgb(100%, 0%, 0%)" fill-opacity="1" stroke-width="0.01" stroke-linecap="butt" stroke-linejoin="miter" stroke="rgb(0%, 0%, 0%)" stroke-opacity="1" stroke-miterlimit="10" d="M 437.675781 479.128906 C 437.675781 480.464844 435.675781 480.464844 435.675781 479.128906 C 435.675781 477.796875 437.675781 477.796875 437.675781 479.128906 "/>
<path fill-rule="nonzero" fill="rgb(100%, 0%, 0%)" fill-opacity="1" stroke-width="0.01" stroke-linecap="butt" stroke-linejoin="miter" stroke="rgb(0%, 0%, 0%)" stroke-opacity="1" stroke-miterlimit="10" d="M 185.425781 233.777344 C 185.425781 235.109375 183.425781 235.109375 183.425781 233.777344 C 183.425781 232.441406 185.425781 232.441406 185.425781 233.777344 "/>
<path fill-rule="nonzero" fill="rgb(100%, 0%, 0%)" fill-opacity="1" stroke-width="0.01" stroke-linecap="butt" stroke-linejoin="miter" stroke="rgb(0%, 0%, 0%)" stroke-opacity="1" stroke-miterlimit="10" d="M 148.6875 408.605469 C 148.6875 409.9375 146.6875 409.9375 146.6875 408.605469 C 146.6875 407.273438 148.6875 407.273438 148.6875 408.605469 "/>
<path fill-rule="nonzero" fill="rgb(100%, 0%, 0%)" fill-opacity="1" stroke-width="0.01" stroke-linecap="butt" stroke-linejoin="miter" stroke="rgb(0%, 0%, 0%)" stroke-opacity="1" stroke-miterlimit="10" d="M 426.746094 111.074219 C 426.746094 112.40625 424.746094 112.40625 424.746094 111.074219 C 424.746094 109.742188 426.746094 109.742188 426.746094 111.074219 "/>
<path fill-rule="nonzero" fill="rgb(100%, 0%, 0%)" fill-opacity="1" stroke-width="0.01" stroke-linecap="butt" stroke-linejoin="miter" stroke="rgb(0%, 0%, 0%)" stroke-opacity="1" stroke-miterlimit="10" d="M 315.527344 119.460938 C 315.527344 120.792969 313.527344 120.792969 313.527344 119.460938 C 313.527344 118.128906 315.527344 118.128906 315.527344 119.460938 "/>
<path fill-rule="nonzero" fill="rgb(100%, 0%, 0%)" fill-opacity="1" stroke-width="0.01" stroke-linecap="butt" stroke-linejoin="miter" stroke="rgb(0%, 0%, 0%)" stroke-opacity="1" stroke-miterlimit="10" d="M 287.429688 76.367188 C 287.429688 77.703125 285.429688 77.703125 285.429688 76.367188 C 285.429688 75.035156 287.429688 75.035156 287.429688 76.367188 "/>
<path fill-rule="nonzero" fill="rgb(100%, 0%, 0%)" fill-opacity="1" stroke-width="0.01" stroke-linecap="butt" stroke-linejoin="miter" stroke="rgb(0%, 0%, 0%)" stroke-opacity="1" stroke-miterlimit="10" d="M 327.367188 273.023438 C 327.367188 274.359375 325.367188 274.359375 325.367188 273.023438 C 325.367188 271.691406 327.367188 271.691406 327.367188 273.023438 "/>
<path fill-rule="nonzero" fill="rgb(100%, 0%, 0%)" fill-opacity="1" stroke-width="0.01" stroke-linecap="butt" stroke-linejoin="miter" stroke="rgb(0%, 0%, 0%)" stroke-opacity="1" stroke-miterlimit="10" d="M 383.414062 179.21875 C 383.414062 180.550781 381.414062 180.550781 381.414062 179.21875 C 381.414062 177.886719 383.414062 177.886719 383.414062 179.21875 "/>
<path fill-rule="nonzero" fill="rgb(100%, 0%, 0%)" fill-opacity="1" stroke-width="0.01" stroke-linecap="butt" stroke-linejoin="miter" stroke="rgb(0%, 0%, 0%)" stroke-opacity="1" stroke-miterlimit="10" d="M 310.996094 342.027344 C 310.996094 343.359375 308.996094 343.359375 308.996094 342.027344 C 308.996094 340.691406 310.996094 340.691406 310.996094 342.027344 "/>
<path fill-rule="nonzero" fill="rgb(100%, 0%, 0%)" fill-opacity="1" stroke-width="0.01" stroke-linecap="butt" stroke-linejoin="miter" stroke="rgb(0%, 0%, 0%)" stroke-opacity="1" stroke-miterlimit="10" d="M 362.09375 215.636719 C 362.09375 216.96875 360.09375 216.96875 360.09375 215.636719 C 360.09375 214.304688 362.09375 214.304688 362.09375 215.636719 "/>
<path fill-rule="nonzero" fill="rgb(100%, 0%, 0%)" fill-opacity="1" stroke-width="0.01" stroke-linecap="butt" stroke-linejoin="miter" stroke="rgb(0%, 0%, 0%)" stroke-opacity="1" stroke-miterlimit="10" d="M 458.453125 268.382812 C 458.453125 269.71875 456.453125 269.71875 456.453125 268.382812 C 456.453125 267.050781 458.453125 267.050781 458.453125 268.382812 "/>
<path fill-rule="nonzero" fill="rgb(100%, 0%, 0%)" fill-opacity="1" stroke-width="0.01" stroke-linecap="butt" stroke-linejoin="miter" stroke="rgb(0%, 0%, 0%)" stroke-opacity="1" stroke-miterlimit="10" d="M 341.09375 154.078125 C 341.09375 155.414062 339.09375 155.414062 339.09375 154.078125 C 339.09375 152.746094 341.09375 152.746094 341.09375 154.078125 "/>
<path fill-rule="nonzero" fill="rgb(100%, 0%, 0%)" fill-opacity="1" stroke-width="0.01" stroke-linecap="butt" stroke-linejoin="miter" stroke="rgb(0%, 0%, 0%)" stroke-opacity="1" stroke-miterlimit="10" d="M 72.023438 334.980469 C 72.023438 336.3125 70.023438 336.3125 70.023438 334.980469 C 70.023438 333.644531 72.023438 333.644531 72.023438 334.980469 "/>
<path fill-rule="nonzero" fill="rgb(100%, 0%, 0%)" fill-opacity="1" stroke-width="0.01" stroke-linecap="butt" stroke-linejoin="miter" stroke="rgb(0%, 0%, 0%)" stroke-opacity="1" stroke-miterlimit="10" d="M 45.089844 241.019531 C 45.089844 242.351562 43.089844 242.351562 43.089844 241.019531 C 43.089844 239.683594 45.089844 239.683594 45.089844 241.019531 "/>
<path fill-rule="nonzero" fill="rgb(100%, 0%, 0%)" fill-opacity="1" stroke-width="0.01" stroke-linecap="butt" stroke-linejoin="miter" stroke="rgb(0%, 0%, 0%)" stroke-opacity="1" stroke-miterlimit="10" d="M 291.425781 383.5625 C 291.425781 384.898438 289.425781 384.898438 289.425781 383.5625 C 289.425781 382.230469 291.425781 382.230469 291.425781 383.5625 "/>
<path fill-rule="nonzero" fill="rgb(100%, 0%, 0%)" fill-opacity="1" stroke-width="0.01" stroke-linecap="butt" stroke-linejoin="miter" stroke="rgb(0%, 0%, 0%)" stroke-opacity="1" stroke-miterlimit="10" d="M 154.8125 203.703125 C 154.8125 205.035156 152.8125 205.035156 152.8125 203.703125 C 152.8125 202.371094 154.8125 202.371094 154.8125 203.703125 "/>
<path fill-rule="nonzero" fill="rgb(100%, 0%, 0%)" fill-opacity="1" stroke-width="0.01" stroke-linecap="butt" stroke-linejoin="miter" stroke="rgb(0%, 0%, 0%)" stroke-opacity="1" stroke-miterlimit="10" d="M 276.167969 133.640625 C 276.167969 134.972656 274.167969 134.972656 274.167969 133.640625 C 274.167969 132.304688 276.167969 132.304688 276.167969 133.640625 "/>
<path fill-rule="nonzero" fill="rgb(100%, 0%, 0%)" fill-opacity="1" stroke-width="0.01" stroke-linecap="butt" stroke-linejoin="miter" stroke="rgb(0%, 0%, 0%)" stroke-opacity="1" stroke-miterlimit="10" d="M 234.570312 463.402344 C 234.570312 464.734375 232.570312 464.734375 232.570312 463.402344 C 232.570312 462.070312 234.570312 462.070312 234.570312 463.402344 "/>
<path fill-rule="nonzero" fill="rgb(100%, 0%, 0%)" fill-opacity="1" stroke-width="0.01" stroke-linecap="butt" stroke-linejoin="miter" stroke="rgb(0%, 0%, 0%)" stroke-opacity="1" stroke-miterlimit="10" d="M 225.546875 119.867188 C 225.546875 121.199219 223.546875 121.199219 223.546875 119.867188 C 223.546875 118.53125 225.546875 118.53125 225.546875 119.867188 "/>
<path fill-rule="nonzero" fill="rgb(100%, 0%, 0%)" fill-opacity="1" stroke-width="0.01" stroke-linecap="butt" stroke-linejoin="miter" stroke="rgb(0%, 0%, 0%)" stroke-opacity="1" stroke-miterlimit="10" d="M 229.226562 236.433594 C 229.226562 237.765625 227.226562 237.765625 227.226562 236.433594 C 227.226562 235.101562 229.226562 235.101562 229.226562 236.433594 "/>
<path fill-rule="nonzero" fill="rgb(100%, 0%, 0%)" fill-opacity="1" stroke-width="0.01" stroke-linecap="butt" stroke-linejoin="miter" stroke="rgb(0%, 0%, 0%)" stroke-opacity="1" stroke-miterlimit="10" d="M 188.320312 155.734375 C 188.320312 157.070312 186.320312 157.070312 186.320312 155.734375 C 186.320312 154.402344 188.320312 154.402344 188.320312 155.734375 "/>
<path fill-rule="nonzero" fill="rgb(100%, 0%, 0%)" fill-opacity="1" stroke-width="0.01" stroke-linecap="butt" stroke-linejoin="miter" stroke="rgb(0%, 0%, 0%)" stroke-opacity="1" stroke-miterlimit="10" d="M 558.203125 232.515625 C 558.203125 233.847656 556.203125 233.847656 556.203125 232.515625 C 556.203125 231.179688 558.203125 231.179688 558.203125 232.515625 "/>
<path fill-rule="nonzero" fill="rgb(100%, 0%, 0%)" fill-opacity="1" stroke-width="0.01" stroke-linecap="butt" stroke-linejoin="miter" stroke="rgb(0%, 0%, 0%)" stroke-opacity="1" stroke-miterlimit="10" d="M 207.402344 284.3125 C 207.402344 285.648438 205.402344 285.648438 205.402344 284.3125 C 205.402344 282.980469 207.402344 282.980469 207.402344 284.3125 "/>
<path fill-rule="nonzero" fill="rgb(100%, 0%, 0%)" fill-opacity="1" stroke-width="0.01" stroke-linecap="butt" stroke-linejoin="miter" stroke="rgb(0%, 0%, 0%)" stroke-opacity="1" stroke-miterlimit="10" d="M 80.136719 103.859375 C 80.136719 105.191406 78.136719 105.191406 78.136719 103.859375 C 78.136719 102.527344 80.136719 102.527344 80.136719 103.859375 "/>
<path fill-rule="nonzero" fill="rgb(100%, 0%, 0%)" fill-opacity="1" stroke-width="0.01" stroke-linecap="butt" stroke-linejoin="miter" stroke="rgb(0%, 0%, 0%)" stroke-opacity="1" stroke-miterlimit="10" d="M 539.066406 438.78125 C 539.066406 440.113281 537.066406 440.113281 537.066406 438.78125 C 537.066406 437.449219 539.066406 437.449219 539.066406 438.78125 "/>
<path fill-rule="nonzero" fill="rgb(100%, 0%, 0%)" fill-opacity="1" stroke-width="0.01" stroke-linecap="butt" stroke-linejoin="miter" stroke="rgb(0%, 0%, 0%)" stroke-opacity="1" stroke-miterlimit="10" d="M 321.144531 190.230469 C 321.144531 191.5625 319.144531 191.5625 319.144531 190.230469 C 319.144531 188.894531 321.144531 188.894531 321.144531 190.230469 "/>
<path fill-rule="nonzero" fill="rgb(100%, 0%, 0%)" fill-opacity="1" stroke-width="0.01" stroke-linecap="butt" stroke-linejoin="miter" stroke="rgb(0%, 0%, 0%)" stroke-opacity="1" stroke-miterlimit="10" d="M 213.703125 195.203125 C 213.703125 196.539062 211.703125 196.539062 211.703125 195.203125 C 211.703125 193.871094 213.703125 193.871094 213.703125 195.203125 "/>
<path fill-rule="nonzero" fill="rgb(100%, 0%, 0%)" fill-opacity="1" stroke-width="0.01" stroke-linecap="butt" stroke-linejoin="miter" stroke="rgb(0%, 0%, 0%)" stroke-opacity="1" stroke-miterlimit="10" d="M 435.027344 412.648438 C 435.027344 413.984375 433.027344 413.984375 433.027344 412.648438 C 433.027344 411.316406 435.027344 411.316406 435.027344 412.648438 "/>
<path fill-rule="nonzero" fill="rgb(100%, 0%, 0%)" fill-opacity="1" stroke-width="0.01" stroke-linecap="butt" stroke-linejoin="miter" stroke="rgb(0%, 0%, 0%)" stroke-opacity="1" stroke-miterlimit="10" d="M 167.011719 499.078125 C 167.011719 500.414062 165.011719 500.414062 165.011719 499.078125 C 165.011719 497.746094 167.011719 497.746094 167.011719 499.078125 "/>
<path fill-rule="nonzero" fill="rgb(100%, 0%, 0%)" fill-opacity="1" stroke-width="0.01" stroke-linecap="butt" stroke-linejoin="miter" stroke="rgb(0%, 0%, 0%)" stroke-opacity="1" stroke-miterlimit="10" d="M 89.289062 451.960938 C 89.289062 453.292969 87.289062 453.292969 87.289062 451.960938 C 87.289062 450.625 89.289062 450.625 89.289062 451.960938 "/>
<path fill-rule="nonzero" fill="rgb(100%, 0%, 0%)" fill-opacity="1" stroke-width="0.01" stroke-linecap="butt" stroke-linejoin="miter" stroke="rgb(0%, 0%, 0%)" stroke-opacity="1" stroke-miterlimit="10" d="M 79.28125 155.09375 C 79.28125 156.425781 77.28125 156.425781 77.28125 155.09375 C 77.28125 153.757812 79.28125 153.757812 79.28125 155.09375 "/>
<path fill-rule="nonzero" fill="rgb(100%, 0%, 0%)" fill-opacity="1" stroke-width="0.01" stroke-linecap="butt" stroke-linejoin="miter" stroke="rgb(0%, 0%, 0%)" stroke-opacity="1" stroke-miterlimit="10" d="M 26.480469 361.347656 C 26.480469 362.679688 24.480469 362.679688 24.480469 361.347656 C 24.480469 360.015625 26.480469 360.015625 26.480469 361.347656 "/>
<path fill-rule="nonzero" fill="rgb(100%, 0%, 0%)" fill-opacity="1" stroke-width="0.01" stroke-linecap="butt" stroke-linejoin="miter" stroke="rgb(0%, 0%, 0%)" stroke-opacity="1" stroke-miterlimit="10" d="M 400.8125 363.421875 C 400.8125 364.753906 398.8125 364.753906 398.8125 363.421875 C 398.8125 362.089844 400.8125 362.089844 400.8125 363.421875 "/>
<path fill-rule="nonzero" fill="rgb(100%, 0%, 0%)" fill-opacity="1" stroke-width="0.01" stroke-linecap="butt" stroke-linejoin="miter" stroke="rgb(0%, 0%, 0%)" stroke-opacity="1" stroke-miterlimit="10" d="M 272.25 226.851562 C 272.25 228.183594 270.25 228.183594 270.25 226.851562 C 270.25 225.515625 272.25 225.515625 272.25 226.851562 "/>
<path fill-rule="nonzero" fill="rgb(100%, 0%, 0%)" fill-opacity="1" stroke-width="0.01" stroke-linecap="butt" stroke-linejoin="miter" stroke="rgb(0%, 0%, 0%)" stroke-opacity="1" stroke-miterlimit="10" d="M 301.855469 302.539062 C 301.855469 303.875 299.855469 303.875 299.855469 302.539062 C 299.855469 301.207031 301.855469 301.207031 301.855469 302.539062 "/>
<path fill-rule="nonzero" fill="rgb(100%, 0%, 0%)" fill-opacity="1" stroke-width="0.01" stroke-linecap="butt" stroke-linejoin="miter" stroke="rgb(0%, 0%, 0%)" stroke-opacity="1" stroke-miterlimit="10" d="M 315.917969 233.855469 C 315.917969 235.1875 313.917969 235.1875 313.917969 233.855469 C 313.917969 232.523438 315.917969 232.523438 315.917969 233.855469 "/>
<path fill-rule="nonzero" fill="rgb(100%, 0%, 0%)" fill-opacity="1" stroke-width="0.01" stroke-linecap="butt" stroke-linejoin="miter" stroke="rgb(0%, 0%, 0%)" stroke-opacity="1" stroke-miterlimit="10" d="M 73.578125 281.496094 C 73.578125 282.828125 71.578125 282.828125 71.578125 281.496094 C 71.578125 280.160156 73.578125 280.160156 73.578125 281.496094 "/>
<path fill-rule="nonzero" fill="rgb(100%, 0%, 0%)" fill-opacity="1" stroke-width="0.01" stroke-linecap="butt" stroke-linejoin="miter" stroke="rgb(0%, 0%, 0%)" stroke-opacity="1" stroke-miterlimit="10" d="M 254.90625 285.070312 C 254.90625 286.402344 252.90625 286.402344 252.90625 285.070312 C 252.90625 283.734375 254.90625 283.734375 254.90625 285.070312 "/>
<path fill-rule="nonzero" fill="rgb(100%, 0%, 0%)" fill-opacity="1" stroke-width="0.01" stroke-linecap="butt" stroke-linejoin="miter" stroke="rgb(0%, 0%, 0%)" stroke-opacity="1" stroke-miterlimit="10" d="M 378.84375 404.484375 C 378.84375 405.816406 376.84375 405.816406 376.84375 404.484375 C 376.84375 403.148438 378.84375 403.148438 378.84375 404.484375 "/>
<path fill-rule="nonzero" fill="rgb(100%, 0%, 0%)" fill-opacity="1" stroke-width="0.01" stroke-linecap="butt" stroke-linejoin="miter" stroke="rgb(0%, 0%, 0%)" stroke-opacity="1" stroke-miterlimit="10" d="M 432.296875 51.351562 C 432.296875 52.683594 430.296875 52.683594 430.296875 51.351562 C 430.296875 50.015625 432.296875 50.015625 432.296875 51.351562 "/>
<path fill-rule="nonzero" fill="rgb(100%, 0%, 0%)" fill-opacity="1" stroke-width="0.01" stroke-linecap="butt" stroke-linejoin="miter" stroke="rgb(0%, 0%, 0%)" stroke-opacity="1" stroke-miterlimit="10" d="M 369.164062 415.125 C 369.164062 416.460938 367.164062 416.460938 367.164062 415.125 C 367.164062 413.792969 369.164062 413.792969 369.164062 415.125 "/>
<path fill-rule="nonzero" fill="rgb(100%, 0%, 0%)" fill-opacity="1" stroke-width="0.01" stroke-linecap="butt" stroke-linejoin="miter" stroke="rgb(0%, 0%, 0%)" stroke-opacity="1" stroke-miterlimit="10" d="M 355.078125 580 C 355.078125 581.332031 353.078125 581.332031 353.078125 580 C 353.078125 578.667969 355.078125 578.667969 355.078125 580 "/>
<path fill-rule="nonzero" fill="rgb(100%, 0%, 0%)" fill-opacity="1" stroke-width="0.01" stroke-linecap="butt" stroke-linejoin="miter" stroke="rgb(0%, 0%, 0%)" stroke-opacity="1" stroke-miterlimit="10" d="M 516.738281 309.121094 C 516.738281 310.453125 514.738281 310.453125 514.738281 309.121094 C 514.738281 307.785156 516.738281 307.785156 516.738281 309.121094 "/>
<path fill-rule="nonzero" fill="rgb(100%, 0%, 0%)" fill-opacity="1" stroke-width="0.01" stroke-linecap="butt" stroke-linejoin="miter" stroke="rgb(0%, 0%, 0%)" stroke-opacity="1" stroke-miterlimit="10" d="M 111.742188 237.320312 C 111.742188 238.652344 109.742188 238.652344 109.742188 237.320312 C 109.742188 235.988281 111.742188 235.988281 111.742188 237.320312 "/>
<path fill-rule="nonzero" fill="rgb(100%, 0%, 0%)" fill-opacity="1" stroke-width="0.01" stroke-linecap="butt" stroke-linejoin="miter" stroke="rgb(0%, 0%, 0%)" stroke-opacity="1" stroke-miterlimit="10" d="M 483.363281 73.765625 C 483.363281 75.097656 481.363281 75.097656 481.363281 73.765625 C 481.363281 72.429688 483.363281 72.429688 483.363281 73.765625 "/>
<path fill-rule="nonzero" fill="rgb(100%, 0%, 0%)" fill-opacity="1" stroke-width="0.01" stroke-linecap="butt" stroke-linejoin="miter" stroke="rgb(0%, 0%, 0%)" stroke-opacity="1" stroke-miterlimit="10" d="M 463.683594 141.519531 C 463.683594 142.851562 461.683594 142.851562 461.683594 141.519531 C 461.683594 140.1875 463.683594 140.1875 463.683594 141.519531 "/>
<path fill-rule="nonzero" fill="rgb(100%, 0%, 0%)" fill-opacity="1" stroke-width="0.01" stroke-linecap="butt" stroke-linejoin="miter" stroke="rgb(0%, 0%, 0%)" stroke-opacity="1" stroke-miterlimit="10" d="M 21 296.882812 C 21 298.214844 19 298.214844 19 296.882812 C 19 295.546875 21 295.546875 21 296.882812 "/>
<path fill-rule="nonzero" fill="rgb(100%, 0%, 0%)" fill-opacity="1" stroke-width="0.01" stroke-linecap="butt" stroke-linejoin="miter" stroke="rgb(0%, 0%, 0%)" stroke-opacity="1" stroke-miterlimit="10" d="M 158.457031 547.472656 C 158.457031 548.804688 156.457031 548.804688 156.457031 547.472656 C 156.457031 546.140625 158.457031 546.140625 158.457031 547.472656 "/>
<path fill-rule="nonzero" fill="rgb(100%, 0%, 0%)" fill-opacity="1" stroke-width="0.01" stroke-linecap="butt" stroke-linejoin="miter" stroke="rgb(0%, 0%, 0%)" stroke-opacity="1" stroke-miterlimit="10" d="M 242.464844 511.96875 C 242.464844 513.304688 240.464844 513.304688 240.464844 511.96875 C 240.464844 510.636719 242.464844 510.636719 242.464844 511.96875 "/>
<path fill-rule="nonzero" fill="rgb(100%, 0%, 0%)" fill-opacity="1" stroke-width="0.01" stroke-linecap="butt" stroke-linejoin="miter" stroke="rgb(0%, 0%, 0%)" stroke-opacity="1" stroke-miterlimit="10" d="M 263.980469 570.9375 C 263.980469 572.273438 261.980469 572.273438 261.980469 570.9375 C 261.980469 569.605469 263.980469 569.605469 263.980469 570.9375 "/>
<path fill-rule="nonzero" fill="rgb(100%, 0%, 0%)" fill-opacity="1" stroke-width="0.01" stroke-linecap="butt" stroke-linejoin="miter" stroke="rgb(0%, 0%, 0%)" stroke-opacity="1" stroke-miterlimit="10" d="M 216.820312 331.238281 C 216.820312 332.570312 214.820312 332.570312 214.820312 331.238281 C 214.820312 329.902344 216.820312 329.902344 216.820312 331.238281 "/>
<path fill-rule="nonzero" fill="rgb(100%, 0%, 0%)" fill-opacity="1" stroke-width="0.01" stroke-linecap="butt" stroke-linejoin="miter" stroke="rgb(0%, 0%, 0%)" stroke-opacity="1" stroke-miterlimit="10" d="M 383.976562 486.621094 C 383.976562 487.957031 381.976562 487.957031 381.976562 486.621094 C 381.976562 485.289062 383.976562 485.289062 383.976562 486.621094 "/>
<path fill-rule="nonzero" fill="rgb(100%, 0%, 0%)" fill-opacity="1" stroke-width="0.01" stroke-linecap="butt" stroke-linejoin="miter" stroke="rgb(0%, 0%, 0%)" stroke-opacity="1" stroke-miterlimit="10" d="M 379.898438 128.851562 C 379.898438 130.183594 377.898438 130.183594 377.898438 128.851562 C 377.898438 127.515625 379.898438 127.515625 379.898438 128.851562 "/>
<path fill-rule="nonzero" fill="rgb(100%, 0%, 0%)" fill-opacity="1" stroke-width="0.01" stroke-linecap="butt" stroke-linejoin="miter" stroke="rgb(0%, 0%, 0%)" stroke-opacity="1" stroke-miterlimit="10" d="M 367.261719 261.082031 C 367.261719 262.417969 365.261719 262.417969 365.261719 261.082031 C 365.261719 259.75 367.261719 259.75 367.261719 261.082031 "/>
<path fill-rule="nonzero" fill="rgb(100%, 0%, 0%)" fill-opacity="1" stroke-width="0.01" stroke-linecap="butt" stroke-linejoin="miter" stroke="rgb(0%, 0%, 0%)" stroke-opacity="1" stroke-miterlimit="10" d="M 121.582031 325.257812 C 121.582031 326.589844 119.582031 326.589844 119.582031 325.257812 C 119.582031 323.925781 121.582031 323.925781 121.582031 325.257812 "/>
<path fill-rule="nonzero" fill="rgb(100%, 0%, 0%)" fill-opacity="1" stroke-width="0.01" stroke-linecap="butt" stroke-linejoin="miter" stroke="rgb(0%, 0%, 0%)" stroke-opacity="1" stroke-miterlimit="10" d="M 581 289.707031 C 581 291.039062 579 291.039062 579 289.707031 C 579 288.375 581 288.375 581 289.707031 "/>
<path fill-rule="nonzero" fill="rgb(100%, 0%, 0%)" fill-opacity="1" stroke-width="0.01" stroke-linecap="butt" stroke-linejoin="miter" stroke="rgb(0%, 0%, 0%)" stroke-opacity="1" stroke-miterlimit="10" d="M 511.617188 119.382812 C 511.617188 120.71875 509.617188 120.71875 509.617188 119.382812 C 509.617188 118.050781 511.617188 118.050781 511.617188 119.382812 "/>
<path fill-rule="nonzero" fill="rgb(100%, 0%, 0%)" fill-opacity="1" stroke-width="0.01" stroke-linecap="butt" stroke-linejoin="miter" stroke="rgb(0%, 0%, 0%)" stroke-opacity="1" stroke-miterlimit="10" d="M 448.269531 311.628906 C 448.269531 312.960938 446.269531 312.960938 446.269531 311.628906 C 446.269531 310.296875 448.269531 310.296875 448.269531 311.628906 "/>
<path fill-rule="nonzero" fill="rgb(100%, 0%, 0%)" fill-opacity="1" stroke-width="0.01" stroke-linecap="butt" stroke-linejoin="miter" stroke="rgb(0%, 0%, 0%)" stroke-opacity="1" stroke-miterlimit="10" d="M 476.492188 193.628906 C 476.492188 194.960938 474.492188 194.960938 474.492188 193.628906 C 474.492188 192.292969 476.492188 192.292969 476.492188 193.628906 "/>
<path fill-rule="nonzero" fill="rgb(100%, 0%, 0%)" fill-opacity="1" stroke-width="0.01" stroke-linecap="butt" stroke-linejoin="miter" stroke="rgb(0%, 0%, 0%)" stroke-opacity="1" stroke-miterlimit="10" d="M 522.925781 266.824219 C 522.925781 268.15625 520.925781 268.15625 520.925781 266.824219 C 520.925781 265.488281 522.925781 265.488281 522.925781 266.824219 "/>
<path fill-rule="nonzero" fill="rgb(100%, 0%, 0%)" fill-opacity="1" stroke-width="0.01" stroke-linecap="butt" stroke-linejoin="miter" stroke="rgb(0%, 0%, 0%)" stroke-opacity="1" stroke-miterlimit="10" d="M 104.667969 505.449219 C 104.667969 506.78125 102.667969 506.78125 102.667969 505.449219 C 102.667969 504.113281 104.667969 504.113281 104.667969 505.449219 "/>
<path fill-rule="nonzero" fill="rgb(100%, 0%, 0%)" fill-opacity="1" stroke-width="0.01" stroke-linecap="butt" stroke-linejoin="miter" stroke="rgb(0%, 0%, 0%)" stroke-opacity="1" stroke-miterlimit="10" d="M 402.410156 323.226562 C 402.410156 324.5625 400.410156 324.5625 400.410156 323.226562 C 400.410156 321.894531 402.410156 321.894531 402.410156 323.226562 "/>
<path fill-rule="nonzero" fill="rgb(100%, 0%, 0%)" fill-opacity="1" stroke-width="0.01" stroke-linecap="butt" stroke-linejoin="miter" stroke="rgb(0%, 0%, 0%)" stroke-opacity="1" stroke-miterlimit="10" d="M 120.804688 281.074219 C 120.804688 282.410156 118.804688 282.410156 118.804688 281.074219 C 118.804688 279.742188 120.804688 279.742188 120.804688 281.074219 "/>
<path fill-rule="nonzero" fill="rgb(100%, 0%, 0%)" fill-opacity="1" stroke-width="0.01" stroke-linecap="butt" stroke-linejoin="miter" stroke="rgb(0%, 0%, 0%)" stroke-opacity="1" stroke-miterlimit="10" d="M 86.234375 390.289062 C 86.234375 391.621094 84.234375 391.621094 84.234375 390.289062 C 84.234375 388.957031 86.234375 388.957031 86.234375 390.289062 "/>
<path fill-rule="nonzero" fill="rgb(100%, 0%, 0%)" fill-opacity="1" stroke-width="0.01" stroke-linecap="butt" stroke-linejoin="miter" stroke="rgb(0%, 0%, 0%)" stroke-opacity="1" stroke-miterlimit="10" d="M 309.757812 435.035156 C 309.757812 436.367188 307.757812 436.367188 307.757812 435.035156 C 307.757812 433.699219 309.757812 433.699219 309.757812 435.035156 "/>
<path fill-rule="nonzero" fill="rgb(100%, 0%, 0%)" fill-opacity="1" stroke-width="0.01" stroke-linecap="butt" stroke-linejoin="miter" stroke="rgb(0%, 0%, 0%)" stroke-opacity="1" stroke-miterlimit="10" d="M 516.910156 172.175781 C 516.910156 173.511719 514.910156 173.511719 514.910156 172.175781 C 514.910156 170.84375 516.910156 170.84375 516.910156 172.175781 "/>
<path fill-rule="nonzero" fill="rgb(100%, 0%, 0%)" fill-opacity="1" stroke-width="0.01" stroke-linecap="butt" stroke-linejoin="miter" stroke="rgb(0%, 0%, 0%)" stroke-opacity="1" stroke-miterlimit="10" d="M 564.753906 180.121094 C 564.753906 181.453125 562.753906 181.453125 562.753906 180.121094 C 562.753906 178.789062 564.753906 178.789062 564.753906 180.121094 "/>
<path fill-rule="nonzero" fill="rgb(100%, 0%, 0%)" fill-opacity="1" stroke-width="0.01" stroke-linecap="butt" stroke-linejoin="miter" stroke="rgb(0%, 0%, 0%)" stroke-opacity="1" stroke-miterlimit="10" d="M 141.921875 157.703125 C 141.921875 159.035156 139.921875 159.035156 139.921875 157.703125 C 139.921875 156.371094 141.921875 156.371094 141.921875 157.703125 "/>
<path fill-rule="nonzero" fill="rgb(100%, 0%, 0%)" fill-opacity="1" stroke-width="0.01" stroke-linecap="butt" stroke-linejoin="miter" stroke="rgb(0%, 0%, 0%)" stroke-opacity="1" stroke-miterlimit="10" d="M 336.980469 472.8125 C 336.980469 474.144531 334.980469 474.144531 334.980469 472.8125 C 334.980469 471.476562 336.980469 471.476562 336.980469 472.8125 "/>
<path fill-rule="nonzero" fill="rgb(100%, 0%, 0%)" fill-opacity="1" stroke-width="0.01" stroke-linecap="butt" stroke-linejoin="miter" stroke="rgb(0%, 0%, 0%)" stroke-opacity="1" stroke-miterlimit="10" d="M 37.050781 191.714844 C 37.050781 193.046875 35.050781 193.046875 35.050781 191.714844 C 35.050781 190.382812 37.050781 190.382812 37.050781 191.714844 "/>
<path fill-rule="nonzero" fill="rgb(100%, 0%, 0%)" fill-opacity="1" stroke-width="0.01" stroke-linecap="butt" stroke-linejoin="miter" stroke="rgb(0%, 0%, 0%)" stroke-opacity="1" stroke-miterlimit="10" d="M 403.820312 447.796875 C 403.820312 449.128906 401.820312 449.128906 401.820312 447.796875 C 401.820312 446.460938 403.820312 446.460938 403.820312 447.796875 "/>
<path fill-rule="nonzero" fill="rgb(100%, 0%, 0%)" fill-opacity="1" stroke-width="0.01" stroke-linecap="butt" stroke-linejoin="miter" stroke="rgb(0%, 0%, 0%)" stroke-opacity="1" stroke-miterlimit="10" d="M 212.082031 550.574219 C 212.082031 551.90625 210.082031 551.90625 210.082031 550.574219 C 210.082031 549.242188 212.082031 549.242188 212.082031 550.574219 "/>
<path fill-rule="nonzero" fill="rgb(100%, 0%, 0%)" fill-opacity="1" stroke-width="0.01" stroke-linecap="butt" stroke-linejoin="miter" stroke="rgb(0%, 0%, 0%)" stroke-opacity="1" stroke-miterlimit="10" d="M 251.714844 375.820312 C 251.714844 377.152344 249.714844 377.152344 249.714844 375.820312 C 249.714844 374.484375 251.714844 374.484375 251.714844 375.820312 "/>
<path fill-rule="nonzero" fill="rgb(100%, 0%, 0%)" fill-opacity="1" stroke-width="0.01" stroke-linecap="butt" stroke-linejoin="miter" stroke="rgb(0%, 0%, 0%)" stroke-opacity="1" stroke-miterlimit="10" d="M 254.863281 420.75 C 254.863281 422.082031 252.863281 422.082031 252.863281 420.75 C 252.863281 419.417969 254.863281 419.417969 254.863281 420.75 "/>
<path fill-rule="nonzero" fill="rgb(100%, 0%, 0%)" fill-opacity="1" stroke-width="0.01" stroke-linecap="butt" stroke-linejoin="miter" stroke="rgb(0%, 0%, 0%)" stroke-opacity="1" stroke-miterlimit="10" d="M 329.214844 395.277344 C 329.214844 396.613281 327.214844 396.613281 327.214844 395.277344 C 327.214844 393.945312 329.214844 393.945312 329.214844 395.277344 "/>
<path fill-rule="nonzero" fill="rgb(100%, 0%, 0%)" fill-opacity="1" stroke-width="0.01" stroke-linecap="butt" stroke-linejoin="miter" stroke="rgb(0%, 0%, 0%)" stroke-opacity="1" stroke-miterlimit="10" d="M 126.359375 369.367188 C 126.359375 370.699219 124.359375 370.699219 124.359375 369.367188 C 124.359375 368.03125 126.359375 368.03125 126.359375 369.367188 "/>
<path fill-rule="nonzero" fill="rgb(100%, 0%, 0%)" fill-opacity="1" stroke-width="0.01" stroke-linecap="butt" stroke-linejoin="miter" stroke="rgb(0%, 0%, 0%)" stroke-opacity="1" stroke-miterlimit="10" d="M 491.398438 236.335938 C 491.398438 237.671875 489.398438 237.671875 489.398438 236.335938 C 489.398438 235.003906 491.398438 235.003906 491.398438 236.335938 "/>
<path fill-rule="nonzero" fill="rgb(100%, 0%, 0%)" fill-opacity="1" stroke-width="0.01" stroke-linecap="butt" stroke-linejoin="miter" stroke="rgb(0%, 0%, 0%)" stroke-opacity="1" stroke-miterlimit="10" d="M 571.0625 389.605469 C 571.0625 390.9375 569.0625 390.9375 569.0625 389.605469 C 569.0625 388.269531 571.0625 388.269531 571.0625 389.605469 "/>
<path fill-rule="nonzero" fill="rgb(100%, 0%, 0%)" fill-opacity="1" stroke-width="0.01" stroke-linecap="butt" stroke-linejoin="miter" stroke="rgb(0%, 0%, 0%)" stroke-opacity="1" stroke-miterlimit="10" d="M 211.0625 379.082031 C 211.0625 380.414062 209.0625 380.414062 209.0625 379.082031 C 209.0625 377.746094 211.0625 377.746094 211.0625 379.082031 "/>
<path fill-rule="nonzero" fill="rgb(100%, 0%, 0%)" fill-opacity="1" stroke-width="0.01" stroke-linecap="butt" stroke-linejoin="miter" stroke="rgb(0%, 0%, 0%)" stroke-opacity="1" stroke-miterlimit="10" d="M 405.28125 237.734375 C 405.28125 239.066406 403.28125 239.066406 403.28125 237.734375 C 403.28125 236.398438 405.28125 236.398438 405.28125 237.734375 "/>
<path fill-rule="nonzero" fill="rgb(100%, 0%, 0%)" fill-opacity="1" stroke-width="0.01" stroke-linecap="butt" stroke-linejoin="miter" stroke="rgb(0%, 0%, 0%)" stroke-opacity="1" stroke-miterlimit="10" d="M 101.96875 195.628906 C 101.96875 196.960938 99.96875 196.960938 99.96875 195.628906 C 99.96875 194.296875 101.96875 194.296875 101.96875 195.628906 "/>
<path fill-rule="nonzero" fill="rgb(100%, 0%, 0%)" fill-opacity="1" stroke-width="0.01" stroke-linecap="butt" stroke-linejoin="miter" stroke="rgb(0%, 0%, 0%)" stroke-opacity="1" stroke-miterlimit="10" d="M 139.070312 452.769531 C 139.070312 454.101562 137.070312 454.101562 137.070312 452.769531 C 137.070312 451.4375 139.070312 451.4375 139.070312 452.769531 "/>
<path fill-rule="nonzero" fill="rgb(100%, 0%, 0%)" fill-opacity="1" stroke-width="0.01" stroke-linecap="butt" stroke-linejoin="miter" stroke="rgb(0%, 0%, 0%)" stroke-opacity="1" stroke-miterlimit="10" d="M 513.765625 379.144531 C 513.765625 380.480469 511.765625 380.480469 511.765625 379.144531 C 511.765625 377.8125 513.765625 377.8125 513.765625 379.144531 "/>
<path fill-rule="nonzero" fill="rgb(100%, 0%, 0%)" fill-opacity="1" stroke-width="0.01" stroke-linecap="butt" stroke-linejoin="miter" stroke="rgb(0%, 0%, 0%)" stroke-opacity="1" stroke-miterlimit="10" d="M 170.4375 314.761719 C 170.4375 316.09375 168.4375 316.09375 168.4375 314.761719 C 168.4375 313.429688 170.4375 313.429688 170.4375 314.761719 "/>
<path fill-rule="nonzero" fill="rgb(100%, 0%, 0%)" fill-opacity="1" stroke-width="0.01" stroke-linecap="butt" stroke-linejoin="miter" stroke="rgb(0%, 0%, 0%)" stroke-opacity="1" stroke-miterlimit="10" d="M 455.828125 526.765625 C 455.828125 528.097656 453.828125 528.097656 453.828125 526.765625 C 453.828125 525.433594 455.828125 525.433594 455.828125 526.765625 "/>
<path fill-rule="nonzero" fill="rgb(100%, 0%, 0%)" fill-opacity="1" stroke-width="0.01" stroke-linecap="butt" stroke-linejoin="miter" stroke="rgb(0%, 0%, 0%)" stroke-opacity="1" stroke-miterlimit="10" d="M 278.988281 184.589844 C 278.988281 185.921875 276.988281 185.921875 276.988281 184.589844 C 276.988281 183.253906 278.988281 183.253906 278.988281 184.589844 "/>
<path fill-rule="nonzero" fill="rgb(100%, 0%, 0%)" fill-opacity="1" stroke-width="0.01" stroke-linecap="butt" stroke-linejoin="miter" stroke="rgb(0%, 0%, 0%)" stroke-opacity="1" stroke-miterlimit="10" d="M 146.839844 55.082031 C 146.839844 56.414062 144.839844 56.414062 144.839844 55.082031 C 144.839844 53.75 146.839844 53.75 146.839844 55.082031 "/>
<path fill-rule="nonzero" fill="rgb(100%, 0%, 0%)" fill-opacity="1" stroke-width="0.01" stroke-linecap="butt" stroke-linejoin="miter" stroke="rgb(0%, 0%, 0%)" stroke-opacity="1" stroke-miterlimit="10" d="M 241.667969 163.265625 C 241.667969 164.601562 239.667969 164.601562 239.667969 163.265625 C 239.667969 161.933594 241.667969 161.933594 241.667969 163.265625 "/>
<path fill-rule="nonzero" fill="rgb(100%, 0%, 0%)" fill-opacity="1" stroke-width="0.01" stroke-linecap="butt" stroke-linejoin="miter" stroke="rgb(0%, 0%, 0%)" stroke-opacity="1" stroke-miterlimit="10" d="M 239.8125 75.519531 C 239.8125 76.855469 237.8125 76.855469 237.8125 75.519531 C 237.8125 74.1875 239.8125 74.1875 239.8125 75.519531 "/>
<path fill-rule="nonzero" fill="rgb(100%, 0%, 0%)" fill-opacity="1" stroke-width="0.01" stroke-linecap="butt" stroke-linejoin="miter" stroke="rgb(0%, 0%, 0%)" stroke-opacity="1" stroke-miterlimit="10" d="M 172.097656 360.277344 C 172.097656 361.609375 170.097656 361.609375 170.097656 360.277344 C 170.097656 358.945312 172.097656 358.945312 172.097656 360.277344 "/>
<path fill-rule="nonzero" fill="rgb(100%, 0%, 0%)" fill-opacity="1" stroke-width="0.01" stroke-linecap="butt" stroke-linejoin="miter" stroke="rgb(0%, 0%, 0%)" stroke-opacity="1" stroke-miterlimit="10" d="M 46.023438 421.992188 C 46.023438 423.328125 44.023438 423.328125 44.023438 421.992188 C 44.023438 420.660156 46.023438 420.660156 46.023438 421.992188 "/>
<path fill-rule="nonzero" fill="rgb(100%, 0%, 0%)" fill-opacity="1" stroke-width="0.01" stroke-linecap="butt" stroke-linejoin="miter" stroke="rgb(0%, 0%, 0%)" stroke-opacity="1" stroke-miterlimit="10" d="M 192.246094 463.15625 C 192.246094 464.488281 190.246094 464.488281 190.246094 463.15625 C 190.246094 461.824219 192.246094 461.824219 192.246094 463.15625 "/>
<path fill-rule="nonzero" fill="rgb(100%, 0%, 0%)" fill-opacity="1" stroke-width="0.01" stroke-linecap="butt" stroke-linejoin="miter" stroke="rgb(0%, 0%, 0%)" stroke-opacity="1" stroke-miterlimit="10" d="M 447.863281 365.558594 C 447.863281 366.894531 445.863281 366.894531 445.863281 365.558594 C 445.863281 364.226562 447.863281 364.226562 447.863281 365.558594 "/>
<path fill-rule="nonzero" fill="rgb(100%, 0%, 0%)" fill-opacity="1" stroke-width="0.01" stroke-linecap="butt" stroke-linejoin="miter" stroke="rgb(0%, 0%, 0%)" stroke-opacity="1" stroke-miterlimit="10" d="M 438.066406 216.023438 C 438.066406 217.355469 436.066406 217.355469 436.066406 216.023438 C 436.066406 214.6875 438.066406 214.6875 438.066406 216.023438 "/>
<path fill-rule="nonzero" fill="rgb(100%, 0%, 0%)" fill-opacity="1" stroke-width="0.01" stroke-linecap="butt" stroke-linejoin="miter" stroke="rgb(0%, 0%, 0%)" stroke-opacity="1" stroke-miterlimit="10" d="M 316.292969 27.988281 C 316.292969 29.320312 314.292969 29.320312 314.292969 27.988281 C 314.292969 26.652344 316.292969 26.652344 316.292969 27.988281 "/>
<path fill-rule="nonzero" fill="rgb(100%, 0%, 0%)" fill-opacity="1" stroke-width="0.01" stroke-linecap="butt" stroke-linejoin="miter" stroke="rgb(0%, 0%, 0%)" stroke-opacity="1" stroke-miterlimit="10" d="M 371.1875 22.464844 C 371.1875 23.800781 369.1875 23.800781 369.1875 22.464844 C 369.1875 21.132812 371.1875 21.132812 371.1875 22.464844 "/>
<path fill-rule="nonzero" fill="rgb(100%, 0%, 0%)" fill-opacity="1" stroke-width="0.01" stroke-linecap="butt" stroke-linejoin="miter" stroke="rgb(0%, 0%, 0%)" stroke-opacity="1" stroke-miterlimit="10" d="M 509.828125 501.257812 C 509.828125 502.59375 507.828125 502.59375 507.828125 501.257812 C 507.828125 499.925781 509.828125 499.925781 509.828125 501.257812 "/>
<path fill-rule="nonzero" fill="rgb(100%, 0%, 0%)" fill-opacity="1" stroke-width="0.01" stroke-linecap="butt" stroke-linejoin="miter" stroke="rgb(0%, 0%, 0%)" stroke-opacity="1" stroke-miterlimit="10" d="M 359.9375 523.996094 C 359.9375 525.328125 357.9375 525.328125 357.9375 523.996094 C 357.9375 522.664062 359.9375 522.664062 359.9375 523.996094 "/>
<path fill-rule="nonzero" fill="rgb(100%, 0%, 0%)" fill-opacity="1" stroke-width="0.01" stroke-linecap="butt" stroke-linejoin="miter" stroke="rgb(0%, 0%, 0%)" stroke-opacity="1" stroke-miterlimit="10" d="M 162.09375 268.171875 C 162.09375 269.507812 160.09375 269.507812 160.09375 268.171875 C 160.09375 266.839844 162.09375 266.839844 162.09375 268.171875 "/>
<path fill-rule="nonzero" fill="rgb(100%, 0%, 0%)" fill-opacity="1" stroke-width="0.01" stroke-linecap="butt" stroke-linejoin="miter" stroke="rgb(0%, 0%, 0%)" stroke-opacity="1" stroke-miterlimit="10" d="M 197.273438 418.722656 C 197.273438 420.058594 195.273438 420.058594 195.273438 418.722656 C 195.273438 417.390625 197.273438 417.390625 197.273438 418.722656 "/>
<path fill-rule="nonzero" fill="rgb(100%, 0%, 0%)" fill-opacity="1" stroke-width="0.01" stroke-linecap="butt" stroke-linejoin="miter" stroke="rgb(0%, 0%, 0%)" stroke-opacity="1" stroke-miterlimit="10" d="M 352.878906 352.347656 C 352.878906 353.679688 350.878906 353.679688 350.878906 352.347656 C 350.878906 351.015625 352.878906 351.015625 352.878906 352.347656 "/>
<path fill-rule="nonzero" fill="rgb(100%, 0%, 0%)" fill-opacity="1" stroke-width="0.01" stroke-linecap="butt" stroke-linejoin="miter" stroke="rgb(0%, 0%, 0%)" stroke-opacity="1" stroke-miterlimit="10" d="M 387.078125 76.53125 C 387.078125 77.867188 385.078125 77.867188 385.078125 76.53125 C 385.078125 75.199219 387.078125 75.199219 387.078125 76.53125 "/>
<path fill-rule="nonzero" fill="rgb(100%, 0%, 0%)" fill-opacity="1" stroke-width="0.01" stroke-linecap="butt" stroke-linejoin="miter" stroke="rgb(0%, 0%, 0%)" stroke-opacity="1" stroke-miterlimit="10" d="M 182.925781 98.527344 C 182.925781 99.859375 180.925781 99.859375 180.925781 98.527344 C 180.925781 97.191406 182.925781 97.191406 182.925781 98.527344 "/>
<path fill-rule="nonzero" fill="rgb(100%, 0%, 0%)" fill-opacity="1" stroke-width="0.01" stroke-linecap="butt" stroke-linejoin="miter" stroke="rgb(0%, 0%, 0%)" stroke-opacity="1" stroke-miterlimit="10" d="M 132.910156 109.976562 C 132.910156 111.308594 130.910156 111.308594 130.910156 109.976562 C 130.910156 108.640625 132.910156 108.640625 132.910156 109.976562 "/>
</svg>
