<?xml version="1.0" encoding="UTF-8"?>
<svg xmlns="http://www.w3.org/2000/svg" xmlns:xlink="http://www.w3.org/1999/xlink" width="600pt" height="600pt" viewBox="0 0 600 600" version="1.1">
<g id="surface26">
<rect x="0" y="0" width="600" height="600" style="fill:rgb(100%,100%,100%);fill-opacity:1;stroke:none;"/>
<path style="fill:none;stroke-width:0.2;stroke-linecap:butt;stroke-linejoin:miter;stroke:rgb(26.666667%,26.666667%,26.666667%);stroke-opacity:1;stroke-miterlimit:10;" d="M 197.867188 555.742188 L 219.625 579.164063 "/>
<path style=" stroke:none;fill-rule:nonzero;fill:rgb(26.666667%,26.666667%,26.666667%);fill-opacity:1;" d="M 219.722656 579.265625 L 219.589844 579.195313 L 219.660156 579.132813 L 219.722656 579.265625 "/>
<path style="fill:none;stroke-width:0.2;stroke-linecap:butt;stroke-linejoin:miter;stroke:rgb(26.666667%,26.666667%,26.666667%);stroke-opacity:1;stroke-miterlimit:10;" d="M 197.867188 555.742188 L 176.019531 532.394531 "/>
<path style=" stroke:none;fill-rule:nonzero;fill:rgb(26.666667%,26.666667%,26.666667%);fill-opacity:1;" d="M 175.921875 532.289063 L 176.054688 532.363281 L 175.984375 532.425781 L 175.921875 532.289063 "/>
<path style="fill:none;stroke-width:0.2;stroke-linecap:butt;stroke-linejoin:miter;stroke:rgb(26.666667%,26.666667%,26.666667%);stroke-opacity:1;stroke-miterlimit:10;" d="M 87.015625 153.769531 L 112.574219 134.628906 "/>
<path style=" stroke:none;fill-rule:nonzero;fill:rgb(26.666667%,26.666667%,26.666667%);fill-opacity:1;" d="M 112.6875 134.542969 L 112.601563 134.667969 L 112.546875 134.59375 L 112.6875 134.542969 "/>
<path style="fill:none;stroke-width:0.2;stroke-linecap:butt;stroke-linejoin:miter;stroke:rgb(26.666667%,26.666667%,26.666667%);stroke-opacity:1;stroke-miterlimit:10;" d="M 87.015625 153.769531 L 61.300781 172.71875 "/>
<path style=" stroke:none;fill-rule:nonzero;fill:rgb(26.666667%,26.666667%,26.666667%);fill-opacity:1;" d="M 61.1875 172.804688 L 61.273438 172.683594 L 61.328125 172.757813 L 61.1875 172.804688 "/>
<path style="fill:none;stroke-width:0.2;stroke-linecap:butt;stroke-linejoin:miter;stroke:rgb(26.666667%,26.666667%,26.666667%);stroke-opacity:1;stroke-miterlimit:10;" d="M 309.816406 31.042969 L 279.644531 41.746094 "/>
<path style=" stroke:none;fill-rule:nonzero;fill:rgb(26.666667%,26.666667%,26.666667%);fill-opacity:1;" d="M 279.507813 41.792969 L 279.628906 41.703125 L 279.660156 41.789063 L 279.507813 41.792969 "/>
<path style="fill:none;stroke-width:0.2;stroke-linecap:butt;stroke-linejoin:miter;stroke:rgb(26.666667%,26.666667%,26.666667%);stroke-opacity:1;stroke-miterlimit:10;" d="M 309.816406 31.042969 L 340.019531 20.378906 "/>
<path style=" stroke:none;fill-rule:nonzero;fill:rgb(26.666667%,26.666667%,26.666667%);fill-opacity:1;" d="M 340.152344 20.332031 L 340.03125 20.425781 L 340.003906 20.335938 L 340.152344 20.332031 "/>
<path style="fill:none;stroke-width:0.2;stroke-linecap:butt;stroke-linejoin:miter;stroke:rgb(26.666667%,26.666667%,26.666667%);stroke-opacity:1;stroke-miterlimit:10;" d="M 562.851563 135.90625 L 579.410156 163.503906 "/>
<path style=" stroke:none;fill-rule:nonzero;fill:rgb(26.666667%,26.666667%,26.666667%);fill-opacity:1;" d="M 579.484375 163.625 L 579.371094 163.527344 L 579.453125 163.480469 L 579.484375 163.625 "/>
<path style="fill:none;stroke-width:0.2;stroke-linecap:butt;stroke-linejoin:miter;stroke:rgb(26.666667%,26.666667%,26.666667%);stroke-opacity:1;stroke-miterlimit:10;" d="M 562.851563 135.90625 L 546.117188 108.425781 "/>
<path style=" stroke:none;fill-rule:nonzero;fill:rgb(26.666667%,26.666667%,26.666667%);fill-opacity:1;" d="M 546.042969 108.304688 L 546.15625 108.402344 L 546.078125 108.453125 L 546.042969 108.304688 "/>
<path style="fill:none;stroke-width:0.2;stroke-linecap:butt;stroke-linejoin:miter;stroke:rgb(26.666667%,26.666667%,26.666667%);stroke-opacity:1;stroke-miterlimit:10;" d="M 385.289063 269.179688 L 402.261719 233.585938 "/>
<path style=" stroke:none;fill-rule:nonzero;fill:rgb(26.666667%,26.666667%,26.666667%);fill-opacity:1;" d="M 402.320313 233.457031 L 402.300781 233.605469 L 402.21875 233.566406 L 402.320313 233.457031 "/>
<path style="fill:none;stroke-width:0.2;stroke-linecap:butt;stroke-linejoin:miter;stroke:rgb(26.666667%,26.666667%,26.666667%);stroke-opacity:1;stroke-miterlimit:10;" d="M 385.289063 269.179688 L 424.578125 275.074219 "/>
<path style=" stroke:none;fill-rule:nonzero;fill:rgb(26.666667%,26.666667%,26.666667%);fill-opacity:1;" d="M 424.722656 275.09375 L 424.574219 275.117188 L 424.585938 275.027344 L 424.722656 275.09375 "/>
<path style="fill:none;stroke-width:0.2;stroke-linecap:butt;stroke-linejoin:miter;stroke:rgb(26.666667%,26.666667%,26.666667%);stroke-opacity:1;stroke-miterlimit:10;" d="M 385.289063 269.179688 L 392.460938 308.585938 "/>
<path style=" stroke:none;fill-rule:nonzero;fill:rgb(26.666667%,26.666667%,26.666667%);fill-opacity:1;" d="M 392.484375 308.726563 L 392.414063 308.59375 L 392.507813 308.578125 L 392.484375 308.726563 "/>
<path style="fill:none;stroke-width:0.2;stroke-linecap:butt;stroke-linejoin:miter;stroke:rgb(26.666667%,26.666667%,26.666667%);stroke-opacity:1;stroke-miterlimit:10;" d="M 385.289063 269.179688 L 350.613281 287.367188 "/>
<path style=" stroke:none;fill-rule:nonzero;fill:rgb(26.666667%,26.666667%,26.666667%);fill-opacity:1;" d="M 350.488281 287.433594 L 350.59375 287.328125 L 350.636719 287.410156 L 350.488281 287.433594 "/>
<path style="fill:none;stroke-width:0.2;stroke-linecap:butt;stroke-linejoin:miter;stroke:rgb(26.666667%,26.666667%,26.666667%);stroke-opacity:1;stroke-miterlimit:10;" d="M 385.289063 269.179688 L 356.34375 241.269531 "/>
<path style=" stroke:none;fill-rule:nonzero;fill:rgb(26.666667%,26.666667%,26.666667%);fill-opacity:1;" d="M 356.238281 241.171875 L 356.375 241.238281 L 356.308594 241.304688 L 356.238281 241.171875 "/>
<path style="fill:none;stroke-width:0.2;stroke-linecap:butt;stroke-linejoin:miter;stroke:rgb(26.666667%,26.666667%,26.666667%);stroke-opacity:1;stroke-miterlimit:10;" d="M 532.496094 451.488281 L 513.488281 477.417969 "/>
<path style=" stroke:none;fill-rule:nonzero;fill:rgb(26.666667%,26.666667%,26.666667%);fill-opacity:1;" d="M 513.402344 477.53125 L 513.449219 477.390625 L 513.523438 477.445313 L 513.402344 477.53125 "/>
<path style="fill:none;stroke-width:0.2;stroke-linecap:butt;stroke-linejoin:miter;stroke:rgb(26.666667%,26.666667%,26.666667%);stroke-opacity:1;stroke-miterlimit:10;" d="M 532.496094 451.488281 L 551.414063 425.480469 "/>
<path style=" stroke:none;fill-rule:nonzero;fill:rgb(26.666667%,26.666667%,26.666667%);fill-opacity:1;" d="M 551.496094 425.363281 L 551.449219 425.507813 L 551.375 425.453125 L 551.496094 425.363281 "/>
<path style="fill:none;stroke-width:0.2;stroke-linecap:butt;stroke-linejoin:miter;stroke:rgb(26.666667%,26.666667%,26.666667%);stroke-opacity:1;stroke-miterlimit:10;" d="M 232.871094 383.585938 L 211.980469 359.09375 "/>
<path style=" stroke:none;fill-rule:nonzero;fill:rgb(26.666667%,26.666667%,26.666667%);fill-opacity:1;" d="M 211.886719 358.984375 L 212.015625 359.0625 L 211.945313 359.121094 L 211.886719 358.984375 "/>
<path style="fill:none;stroke-width:0.2;stroke-linecap:butt;stroke-linejoin:miter;stroke:rgb(26.666667%,26.666667%,26.666667%);stroke-opacity:1;stroke-miterlimit:10;" d="M 232.871094 383.585938 L 254.492188 407.492188 "/>
<path style=" stroke:none;fill-rule:nonzero;fill:rgb(26.666667%,26.666667%,26.666667%);fill-opacity:1;" d="M 254.589844 407.597656 L 254.457031 407.523438 L 254.527344 407.460938 L 254.589844 407.597656 "/>
<path style="fill:none;stroke-width:0.2;stroke-linecap:butt;stroke-linejoin:miter;stroke:rgb(26.666667%,26.666667%,26.666667%);stroke-opacity:1;stroke-miterlimit:10;" d="M 28.796875 388.890625 L 37.503906 358.125 "/>
<path style=" stroke:none;fill-rule:nonzero;fill:rgb(26.666667%,26.666667%,26.666667%);fill-opacity:1;" d="M 37.542969 357.984375 L 37.546875 358.136719 L 37.460938 358.109375 L 37.542969 357.984375 "/>
<path style="fill:none;stroke-width:0.2;stroke-linecap:butt;stroke-linejoin:miter;stroke:rgb(26.666667%,26.666667%,26.666667%);stroke-opacity:1;stroke-miterlimit:10;" d="M 28.796875 388.890625 L 20.304688 419.738281 "/>
<path style=" stroke:none;fill-rule:nonzero;fill:rgb(26.666667%,26.666667%,26.666667%);fill-opacity:1;" d="M 20.265625 419.875 L 20.257813 419.722656 L 20.347656 419.75 L 20.265625 419.875 "/>
<path style="fill-rule:nonzero;fill:rgb(100%,0%,0%);fill-opacity:1;stroke-width:0.01;stroke-linecap:butt;stroke-linejoin:miter;stroke:rgb(0%,0%,0%);stroke-opacity:1;stroke-miterlimit:10;" d="M 198.867188 555.742188 C 198.867188 557.074219 196.867188 557.074219 196.867188 555.742188 C 196.867188 554.410156 198.867188 554.410156 198.867188 555.742188 "/>
<path style="fill-rule:nonzero;fill:rgb(100%,0%,0%);fill-opacity:1;stroke-width:0.01;stroke-linecap:butt;stroke-linejoin:miter;stroke:rgb(0%,0%,0%);stroke-opacity:1;stroke-miterlimit:10;" d="M 221.402344 580 C 221.402344 581.332031 219.402344 581.332031 219.402344 580 C 219.402344 578.667969 221.402344 578.667969 221.402344 580 "/>
<path style="fill-rule:nonzero;fill:rgb(100%,0%,0%);fill-opacity:1;stroke-width:0.01;stroke-linecap:butt;stroke-linejoin:miter;stroke:rgb(0%,0%,0%);stroke-opacity:1;stroke-miterlimit:10;" d="M 176.238281 531.558594 C 176.238281 532.894531 174.238281 532.894531 174.238281 531.558594 C 174.238281 530.226563 176.238281 530.226563 176.238281 531.558594 "/>
<path style="fill-rule:nonzero;fill:rgb(100%,0%,0%);fill-opacity:1;stroke-width:0.01;stroke-linecap:butt;stroke-linejoin:miter;stroke:rgb(0%,0%,0%);stroke-opacity:1;stroke-miterlimit:10;" d="M 88.015625 153.769531 C 88.015625 155.101563 86.015625 155.101563 86.015625 153.769531 C 86.015625 152.433594 88.015625 152.433594 88.015625 153.769531 "/>
<path style="fill-rule:nonzero;fill:rgb(100%,0%,0%);fill-opacity:1;stroke-width:0.01;stroke-linecap:butt;stroke-linejoin:miter;stroke:rgb(0%,0%,0%);stroke-opacity:1;stroke-miterlimit:10;" d="M 114.488281 133.945313 C 114.488281 135.277344 112.488281 135.277344 112.488281 133.945313 C 112.488281 132.613281 114.488281 132.613281 114.488281 133.945313 "/>
<path style="fill-rule:nonzero;fill:rgb(100%,0%,0%);fill-opacity:1;stroke-width:0.01;stroke-linecap:butt;stroke-linejoin:miter;stroke:rgb(0%,0%,0%);stroke-opacity:1;stroke-miterlimit:10;" d="M 61.382813 173.398438 C 61.382813 174.730469 59.382813 174.730469 59.382813 173.398438 C 59.382813 172.066406 61.382813 172.066406 61.382813 173.398438 "/>
<path style="fill-rule:nonzero;fill:rgb(100%,0%,0%);fill-opacity:1;stroke-width:0.01;stroke-linecap:butt;stroke-linejoin:miter;stroke:rgb(0%,0%,0%);stroke-opacity:1;stroke-miterlimit:10;" d="M 310.816406 31.042969 C 310.816406 32.378906 308.816406 32.378906 308.816406 31.042969 C 308.816406 29.710938 310.816406 29.710938 310.816406 31.042969 "/>
<path style="fill-rule:nonzero;fill:rgb(100%,0%,0%);fill-opacity:1;stroke-width:0.01;stroke-linecap:butt;stroke-linejoin:miter;stroke:rgb(0%,0%,0%);stroke-opacity:1;stroke-miterlimit:10;" d="M 279.566406 42.128906 C 279.566406 43.460938 277.566406 43.460938 277.566406 42.128906 C 277.566406 40.796875 279.566406 40.796875 279.566406 42.128906 "/>
<path style="fill-rule:nonzero;fill:rgb(100%,0%,0%);fill-opacity:1;stroke-width:0.01;stroke-linecap:butt;stroke-linejoin:miter;stroke:rgb(0%,0%,0%);stroke-opacity:1;stroke-miterlimit:10;" d="M 342.09375 20 C 342.09375 21.332031 340.09375 21.332031 340.09375 20 C 340.09375 18.667969 342.09375 18.667969 342.09375 20 "/>
<path style="fill-rule:nonzero;fill:rgb(100%,0%,0%);fill-opacity:1;stroke-width:0.01;stroke-linecap:butt;stroke-linejoin:miter;stroke:rgb(0%,0%,0%);stroke-opacity:1;stroke-miterlimit:10;" d="M 563.851563 135.90625 C 563.851563 137.242188 561.851563 137.242188 561.851563 135.90625 C 561.851563 134.574219 563.851563 134.574219 563.851563 135.90625 "/>
<path style="fill-rule:nonzero;fill:rgb(100%,0%,0%);fill-opacity:1;stroke-width:0.01;stroke-linecap:butt;stroke-linejoin:miter;stroke:rgb(0%,0%,0%);stroke-opacity:1;stroke-miterlimit:10;" d="M 581 164.484375 C 581 165.816406 579 165.816406 579 164.484375 C 579 163.152344 581 163.152344 581 164.484375 "/>
<path style="fill-rule:nonzero;fill:rgb(100%,0%,0%);fill-opacity:1;stroke-width:0.01;stroke-linecap:butt;stroke-linejoin:miter;stroke:rgb(0%,0%,0%);stroke-opacity:1;stroke-miterlimit:10;" d="M 546.523438 107.453125 C 546.523438 108.785156 544.523438 108.785156 544.523438 107.453125 C 544.523438 106.117188 546.523438 106.117188 546.523438 107.453125 "/>
<path style="fill-rule:nonzero;fill:rgb(100%,0%,0%);fill-opacity:1;stroke-width:0.01;stroke-linecap:butt;stroke-linejoin:miter;stroke:rgb(0%,0%,0%);stroke-opacity:1;stroke-miterlimit:10;" d="M 386.289063 269.179688 C 386.289063 270.511719 384.289063 270.511719 384.289063 269.179688 C 384.289063 267.847656 386.289063 267.847656 386.289063 269.179688 "/>
<path style="fill-rule:nonzero;fill:rgb(100%,0%,0%);fill-opacity:1;stroke-width:0.01;stroke-linecap:butt;stroke-linejoin:miter;stroke:rgb(0%,0%,0%);stroke-opacity:1;stroke-miterlimit:10;" d="M 403.75 232.554688 C 403.75 233.886719 401.75 233.886719 401.75 232.554688 C 401.75 231.222656 403.75 231.222656 403.75 232.554688 "/>
<path style="fill-rule:nonzero;fill:rgb(100%,0%,0%);fill-opacity:1;stroke-width:0.01;stroke-linecap:butt;stroke-linejoin:miter;stroke:rgb(0%,0%,0%);stroke-opacity:1;stroke-miterlimit:10;" d="M 426.710938 275.242188 C 426.710938 276.574219 424.710938 276.574219 424.710938 275.242188 C 424.710938 273.910156 426.710938 273.910156 426.710938 275.242188 "/>
<path style="fill-rule:nonzero;fill:rgb(100%,0%,0%);fill-opacity:1;stroke-width:0.01;stroke-linecap:butt;stroke-linejoin:miter;stroke:rgb(0%,0%,0%);stroke-opacity:1;stroke-miterlimit:10;" d="M 393.664063 309.710938 C 393.664063 311.042969 391.664063 311.042969 391.664063 309.710938 C 391.664063 308.378906 393.664063 308.378906 393.664063 309.710938 "/>
<path style="fill-rule:nonzero;fill:rgb(100%,0%,0%);fill-opacity:1;stroke-width:0.01;stroke-linecap:butt;stroke-linejoin:miter;stroke:rgb(0%,0%,0%);stroke-opacity:1;stroke-miterlimit:10;" d="M 350.601563 287.898438 C 350.601563 289.234375 348.601563 289.234375 348.601563 287.898438 C 348.601563 286.566406 350.601563 286.566406 350.601563 287.898438 "/>
<path style="fill-rule:nonzero;fill:rgb(100%,0%,0%);fill-opacity:1;stroke-width:0.01;stroke-linecap:butt;stroke-linejoin:miter;stroke:rgb(0%,0%,0%);stroke-opacity:1;stroke-miterlimit:10;" d="M 356.519531 240.476563 C 356.519531 241.8125 354.519531 241.8125 354.519531 240.476563 C 354.519531 239.144531 356.519531 239.144531 356.519531 240.476563 "/>
<path style="fill-rule:nonzero;fill:rgb(100%,0%,0%);fill-opacity:1;stroke-width:0.01;stroke-linecap:butt;stroke-linejoin:miter;stroke:rgb(0%,0%,0%);stroke-opacity:1;stroke-miterlimit:10;" d="M 533.496094 451.488281 C 533.496094 452.820313 531.496094 452.820313 531.496094 451.488281 C 531.496094 450.15625 533.496094 450.15625 533.496094 451.488281 "/>
<path style="fill-rule:nonzero;fill:rgb(100%,0%,0%);fill-opacity:1;stroke-width:0.01;stroke-linecap:butt;stroke-linejoin:miter;stroke:rgb(0%,0%,0%);stroke-opacity:1;stroke-miterlimit:10;" d="M 513.8125 478.339844 C 513.8125 479.671875 511.8125 479.671875 511.8125 478.339844 C 511.8125 477.003906 513.8125 477.003906 513.8125 478.339844 "/>
<path style="fill-rule:nonzero;fill:rgb(100%,0%,0%);fill-opacity:1;stroke-width:0.01;stroke-linecap:butt;stroke-linejoin:miter;stroke:rgb(0%,0%,0%);stroke-opacity:1;stroke-miterlimit:10;" d="M 553.085938 424.554688 C 553.085938 425.890625 551.085938 425.890625 551.085938 424.554688 C 551.085938 423.222656 553.085938 423.222656 553.085938 424.554688 "/>
<path style="fill-rule:nonzero;fill:rgb(100%,0%,0%);fill-opacity:1;stroke-width:0.01;stroke-linecap:butt;stroke-linejoin:miter;stroke:rgb(0%,0%,0%);stroke-opacity:1;stroke-miterlimit:10;" d="M 233.871094 383.585938 C 233.871094 384.917969 231.871094 384.917969 231.871094 383.585938 C 231.871094 382.253906 233.871094 382.253906 233.871094 383.585938 "/>
<path style="fill-rule:nonzero;fill:rgb(100%,0%,0%);fill-opacity:1;stroke-width:0.01;stroke-linecap:butt;stroke-linejoin:miter;stroke:rgb(0%,0%,0%);stroke-opacity:1;stroke-miterlimit:10;" d="M 212.238281 358.222656 C 212.238281 359.554688 210.238281 359.554688 210.238281 358.222656 C 210.238281 356.890625 212.238281 356.890625 212.238281 358.222656 "/>
<path style="fill-rule:nonzero;fill:rgb(100%,0%,0%);fill-opacity:1;stroke-width:0.01;stroke-linecap:butt;stroke-linejoin:miter;stroke:rgb(0%,0%,0%);stroke-opacity:1;stroke-miterlimit:10;" d="M 256.257813 408.339844 C 256.257813 409.671875 254.257813 409.671875 254.257813 408.339844 C 254.257813 407.007813 256.257813 407.007813 256.257813 408.339844 "/>
<path style="fill-rule:nonzero;fill:rgb(100%,0%,0%);fill-opacity:1;stroke-width:0.01;stroke-linecap:butt;stroke-linejoin:miter;stroke:rgb(0%,0%,0%);stroke-opacity:1;stroke-miterlimit:10;" d="M 29.796875 388.890625 C 29.796875 390.222656 27.796875 390.222656 27.796875 388.890625 C 27.796875 387.558594 29.796875 387.558594 29.796875 388.890625 "/>
<path style="fill-rule:nonzero;fill:rgb(100%,0%,0%);fill-opacity:1;stroke-width:0.01;stroke-linecap:butt;stroke-linejoin:miter;stroke:rgb(0%,0%,0%);stroke-opacity:1;stroke-miterlimit:10;" d="M 38.816406 357.023438 C 38.816406 358.355469 36.816406 358.355469 36.816406 357.023438 C 36.816406 355.691406 38.816406 355.691406 38.816406 357.023438 "/>
<path style="fill-rule:nonzero;fill:rgb(100%,0%,0%);fill-opacity:1;stroke-width:0.01;stroke-linecap:butt;stroke-linejoin:miter;stroke:rgb(0%,0%,0%);stroke-opacity:1;stroke-miterlimit:10;" d="M 21 420.839844 C 21 422.171875 19 422.171875 19 420.839844 C 19 419.503906 21 419.503906 21 420.839844 "/>
</g>
</svg>
