<?xml version="1.0" encoding="UTF-8"?>
<svg xmlns="http://www.w3.org/2000/svg" xmlns:xlink="http://www.w3.org/1999/xlink" width="600" height="600" viewBox="0 0 600 600">
<rect x="-60" y="-60" width="720" height="720" fill="rgb(100%, 100%, 100%)" fill-opacity="1"/>
<path fill="none" stroke-width="0.2" stroke-linecap="butt" stroke-linejoin="miter" stroke="rgb(26.666667%, 26.666667%, 26.666667%)" stroke-opacity="1" stroke-miterlimit="10" d="M 206.984375 239.710938 L 176.011719 239.167969 "/>
<path fill-rule="nonzero" fill="rgb(26.666667%, 26.666667%, 26.666667%)" fill-opacity="1" d="M 173.871094 239.128906 L 176.023438 238.472656 L 176 239.863281 L 173.871094 239.128906 "/>
<path fill="none" stroke-width="0.2" stroke-linecap="butt" stroke-linejoin="miter" stroke="rgb(26.666667%, 26.666667%, 26.666667%)" stroke-opacity="1" stroke-miterlimit="10" d="M 206.984375 239.710938 L 238.0625 239.628906 "/>
<path fill-rule="nonzero" fill="rgb(26.666667%, 26.666667%, 26.666667%)" fill-opacity="1" d="M 240.199219 239.625 L 238.0625 240.324219 L 238.058594 238.933594 L 240.199219 239.625 "/>
<path fill="none" stroke-width="0.2" stroke-linecap="butt" stroke-linejoin="miter" stroke="rgb(26.666667%, 26.666667%, 26.666667%)" stroke-opacity="1" stroke-miterlimit="10" d="M 300.066406 383.636719 L 279.273438 407.296875 "/>
<path fill-rule="nonzero" fill="rgb(26.666667%, 26.666667%, 26.666667%)" fill-opacity="1" d="M 277.863281 408.90625 L 278.75 406.839844 L 279.796875 407.757812 L 277.863281 408.90625 "/>
<path fill="none" stroke-width="0.2" stroke-linecap="butt" stroke-linejoin="miter" stroke="rgb(26.666667%, 26.666667%, 26.666667%)" stroke-opacity="1" stroke-miterlimit="10" d="M 300.066406 383.636719 L 320.453125 359.589844 "/>
<path fill-rule="nonzero" fill="rgb(26.666667%, 26.666667%, 26.666667%)" fill-opacity="1" d="M 321.835938 357.957031 L 320.984375 360.039062 L 319.921875 359.140625 L 321.835938 357.957031 "/>
<path fill="none" stroke-width="0.2" stroke-linecap="butt" stroke-linejoin="miter" stroke="rgb(26.666667%, 26.666667%, 26.666667%)" stroke-opacity="1" stroke-miterlimit="10" d="M 362.039062 558.175781 L 393.175781 556.476562 "/>
<path fill-rule="nonzero" fill="rgb(26.666667%, 26.666667%, 26.666667%)" fill-opacity="1" d="M 395.3125 556.359375 L 393.214844 557.171875 L 393.140625 555.78125 L 395.3125 556.359375 "/>
<path fill="none" stroke-width="0.2" stroke-linecap="butt" stroke-linejoin="miter" stroke="rgb(26.666667%, 26.666667%, 26.666667%)" stroke-opacity="1" stroke-miterlimit="10" d="M 362.039062 558.175781 L 330.894531 559.78125 "/>
<path fill-rule="nonzero" fill="rgb(26.666667%, 26.666667%, 26.666667%)" fill-opacity="1" d="M 328.757812 559.890625 L 330.859375 559.085938 L 330.929688 560.476562 L 328.757812 559.890625 "/>
<path fill="none" stroke-width="0.2" stroke-linecap="butt" stroke-linejoin="miter" stroke="rgb(26.666667%, 26.666667%, 26.666667%)" stroke-opacity="1" stroke-miterlimit="10" d="M 566.101562 133.296875 L 578.75 162.441406 "/>
<path fill-rule="nonzero" fill="rgb(26.666667%, 26.666667%, 26.666667%)" fill-opacity="1" d="M 579.601562 164.40625 L 578.113281 162.71875 L 579.386719 162.164062 L 579.601562 164.40625 "/>
<path fill="none" stroke-width="0.2" stroke-linecap="butt" stroke-linejoin="miter" stroke="rgb(26.666667%, 26.666667%, 26.666667%)" stroke-opacity="1" stroke-miterlimit="10" d="M 566.101562 133.296875 L 553.757812 104 "/>
<path fill-rule="nonzero" fill="rgb(26.666667%, 26.666667%, 26.666667%)" fill-opacity="1" d="M 552.925781 102.027344 L 554.398438 103.730469 L 553.117188 104.269531 L 552.925781 102.027344 "/>
<path fill="none" stroke-width="0.2" stroke-linecap="butt" stroke-linejoin="miter" stroke="rgb(26.666667%, 26.666667%, 26.666667%)" stroke-opacity="1" stroke-miterlimit="10" d="M 306.058594 59.125 L 276.570312 32.210938 "/>
<path fill-rule="nonzero" fill="rgb(26.666667%, 26.666667%, 26.666667%)" fill-opacity="1" d="M 274.992188 30.765625 L 277.039062 31.695312 L 276.101562 32.722656 L 274.992188 30.765625 "/>
<path fill="none" stroke-width="0.2" stroke-linecap="butt" stroke-linejoin="miter" stroke="rgb(26.666667%, 26.666667%, 26.666667%)" stroke-opacity="1" stroke-miterlimit="10" d="M 306.058594 59.125 L 271.796875 78.492188 "/>
<path fill-rule="nonzero" fill="rgb(26.666667%, 26.666667%, 26.666667%)" fill-opacity="1" d="M 269.933594 79.546875 L 271.453125 77.886719 L 272.136719 79.097656 L 269.933594 79.546875 "/>
<path fill="none" stroke-width="0.2" stroke-linecap="butt" stroke-linejoin="miter" stroke="rgb(26.666667%, 26.666667%, 26.666667%)" stroke-opacity="1" stroke-miterlimit="10" d="M 306.058594 59.125 L 314.53125 98.195312 "/>
<path fill-rule="nonzero" fill="rgb(26.666667%, 26.666667%, 26.666667%)" fill-opacity="1" d="M 314.984375 100.289062 L 313.851562 98.34375 L 315.210938 98.050781 L 314.984375 100.289062 "/>
<path fill="none" stroke-width="0.2" stroke-linecap="butt" stroke-linejoin="miter" stroke="rgb(26.666667%, 26.666667%, 26.666667%)" stroke-opacity="1" stroke-miterlimit="10" d="M 306.058594 59.125 L 322.148438 22.871094 "/>
<path fill-rule="nonzero" fill="rgb(26.666667%, 26.666667%, 26.666667%)" fill-opacity="1" d="M 323.015625 20.914062 L 322.78125 23.152344 L 321.511719 22.589844 L 323.015625 20.914062 "/>
<path fill="none" stroke-width="0.2" stroke-linecap="butt" stroke-linejoin="miter" stroke="rgb(26.666667%, 26.666667%, 26.666667%)" stroke-opacity="1" stroke-miterlimit="10" d="M 306.058594 59.125 L 345.300781 63.765625 "/>
<path fill-rule="nonzero" fill="rgb(26.666667%, 26.666667%, 26.666667%)" fill-opacity="1" d="M 347.425781 64.019531 L 345.21875 64.457031 L 345.382812 63.078125 L 347.425781 64.019531 "/>
<path fill="none" stroke-width="0.2" stroke-linecap="butt" stroke-linejoin="miter" stroke="rgb(26.666667%, 26.666667%, 26.666667%)" stroke-opacity="1" stroke-miterlimit="10" d="M 504.304688 357.945312 L 530.425781 375.207031 "/>
<path fill-rule="nonzero" fill="rgb(26.666667%, 26.666667%, 26.666667%)" fill-opacity="1" d="M 532.210938 376.386719 L 530.042969 375.785156 L 530.808594 374.625 L 532.210938 376.386719 "/>
<path fill="none" stroke-width="0.2" stroke-linecap="butt" stroke-linejoin="miter" stroke="rgb(26.666667%, 26.666667%, 26.666667%)" stroke-opacity="1" stroke-miterlimit="10" d="M 504.304688 357.945312 L 478.429688 340.304688 "/>
<path fill-rule="nonzero" fill="rgb(26.666667%, 26.666667%, 26.666667%)" fill-opacity="1" d="M 476.660156 339.097656 L 478.820312 339.730469 L 478.035156 340.878906 L 476.660156 339.097656 "/>
<path fill="none" stroke-width="0.2" stroke-linecap="butt" stroke-linejoin="miter" stroke="rgb(26.666667%, 26.666667%, 26.666667%)" stroke-opacity="1" stroke-miterlimit="10" d="M 34.117188 325.796875 L 21.265625 296.644531 "/>
<path fill-rule="nonzero" fill="rgb(26.666667%, 26.666667%, 26.666667%)" fill-opacity="1" d="M 20.402344 294.6875 L 21.902344 296.363281 L 20.628906 296.925781 L 20.402344 294.6875 "/>
<path fill="none" stroke-width="0.2" stroke-linecap="butt" stroke-linejoin="miter" stroke="rgb(26.666667%, 26.666667%, 26.666667%)" stroke-opacity="1" stroke-miterlimit="10" d="M 34.117188 325.796875 L 47.390625 354.714844 "/>
<path fill-rule="nonzero" fill="rgb(26.666667%, 26.666667%, 26.666667%)" fill-opacity="1" d="M 48.285156 356.660156 L 46.757812 355.003906 L 48.023438 354.421875 L 48.285156 356.660156 "/>
<path fill="none" stroke-width="0.2" stroke-linecap="butt" stroke-linejoin="miter" stroke="rgb(26.666667%, 26.666667%, 26.666667%)" stroke-opacity="1" stroke-miterlimit="10" d="M 111.488281 562.273438 L 84.449219 546.4375 "/>
<path fill-rule="nonzero" fill="rgb(26.666667%, 26.666667%, 26.666667%)" fill-opacity="1" d="M 82.601562 545.355469 L 84.800781 545.835938 L 84.097656 547.039062 L 82.601562 545.355469 "/>
<path fill="none" stroke-width="0.2" stroke-linecap="butt" stroke-linejoin="miter" stroke="rgb(26.666667%, 26.666667%, 26.666667%)" stroke-opacity="1" stroke-miterlimit="10" d="M 111.488281 562.273438 L 138.375 578.386719 "/>
<path fill-rule="nonzero" fill="rgb(26.666667%, 26.666667%, 26.666667%)" fill-opacity="1" d="M 140.210938 579.484375 L 138.015625 578.980469 L 138.730469 577.789062 L 140.210938 579.484375 "/>
<path fill-rule="nonzero" fill="rgb(100%, 0%, 0%)" fill-opacity="1" stroke-width="0.01" stroke-linecap="butt" stroke-linejoin="miter" stroke="rgb(0%, 0%, 0%)" stroke-opacity="1" stroke-miterlimit="10" d="M 207.984375 239.710938 C 207.984375 241.042969 205.984375 241.042969 205.984375 239.710938 C 205.984375 238.375 207.984375 238.375 207.984375 239.710938 "/>
<path fill-rule="nonzero" fill="rgb(100%, 0%, 0%)" fill-opacity="1" stroke-width="0.01" stroke-linecap="butt" stroke-linejoin="miter" stroke="rgb(0%, 0%, 0%)" stroke-opacity="1" stroke-miterlimit="10" d="M 173.871094 239.113281 C 173.871094 240.445312 171.871094 240.445312 171.871094 239.113281 C 171.871094 237.777344 173.871094 237.777344 173.871094 239.113281 "/>
<path fill-rule="nonzero" fill="rgb(100%, 0%, 0%)" fill-opacity="1" stroke-width="0.01" stroke-linecap="butt" stroke-linejoin="miter" stroke="rgb(0%, 0%, 0%)" stroke-opacity="1" stroke-miterlimit="10" d="M 242.199219 239.621094 C 242.199219 240.953125 240.199219 240.953125 240.199219 239.621094 C 240.199219 238.289062 242.199219 238.289062 242.199219 239.621094 "/>
<path fill-rule="nonzero" fill="rgb(100%, 0%, 0%)" fill-opacity="1" stroke-width="0.01" stroke-linecap="butt" stroke-linejoin="miter" stroke="rgb(0%, 0%, 0%)" stroke-opacity="1" stroke-miterlimit="10" d="M 301.066406 383.636719 C 301.066406 384.96875 299.066406 384.96875 299.066406 383.636719 C 299.066406 382.304688 301.066406 382.304688 301.066406 383.636719 "/>
<path fill-rule="nonzero" fill="rgb(100%, 0%, 0%)" fill-opacity="1" stroke-width="0.01" stroke-linecap="butt" stroke-linejoin="miter" stroke="rgb(0%, 0%, 0%)" stroke-opacity="1" stroke-miterlimit="10" d="M 278.203125 409.65625 C 278.203125 410.988281 276.203125 410.988281 276.203125 409.65625 C 276.203125 408.324219 278.203125 408.324219 278.203125 409.65625 "/>
<path fill-rule="nonzero" fill="rgb(100%, 0%, 0%)" fill-opacity="1" stroke-width="0.01" stroke-linecap="butt" stroke-linejoin="miter" stroke="rgb(0%, 0%, 0%)" stroke-opacity="1" stroke-miterlimit="10" d="M 323.484375 357.195312 C 323.484375 358.527344 321.484375 358.527344 321.484375 357.195312 C 321.484375 355.863281 323.484375 355.863281 323.484375 357.195312 "/>
<path fill-rule="nonzero" fill="rgb(100%, 0%, 0%)" fill-opacity="1" stroke-width="0.01" stroke-linecap="butt" stroke-linejoin="miter" stroke="rgb(0%, 0%, 0%)" stroke-opacity="1" stroke-miterlimit="10" d="M 363.039062 558.175781 C 363.039062 559.511719 361.039062 559.511719 361.039062 558.175781 C 361.039062 556.84375 363.039062 556.84375 363.039062 558.175781 "/>
<path fill-rule="nonzero" fill="rgb(100%, 0%, 0%)" fill-opacity="1" stroke-width="0.01" stroke-linecap="butt" stroke-linejoin="miter" stroke="rgb(0%, 0%, 0%)" stroke-opacity="1" stroke-miterlimit="10" d="M 397.3125 556.304688 C 397.3125 557.636719 395.3125 557.636719 395.3125 556.304688 C 395.3125 554.972656 397.3125 554.972656 397.3125 556.304688 "/>
<path fill-rule="nonzero" fill="rgb(100%, 0%, 0%)" fill-opacity="1" stroke-width="0.01" stroke-linecap="butt" stroke-linejoin="miter" stroke="rgb(0%, 0%, 0%)" stroke-opacity="1" stroke-miterlimit="10" d="M 328.757812 559.945312 C 328.757812 561.277344 326.757812 561.277344 326.757812 559.945312 C 326.757812 558.609375 328.757812 558.609375 328.757812 559.945312 "/>
<path fill-rule="nonzero" fill="rgb(100%, 0%, 0%)" fill-opacity="1" stroke-width="0.01" stroke-linecap="butt" stroke-linejoin="miter" stroke="rgb(0%, 0%, 0%)" stroke-opacity="1" stroke-miterlimit="10" d="M 567.101562 133.296875 C 567.101562 134.628906 565.101562 134.628906 565.101562 133.296875 C 565.101562 131.960938 567.101562 131.960938 567.101562 133.296875 "/>
<path fill-rule="nonzero" fill="rgb(100%, 0%, 0%)" fill-opacity="1" stroke-width="0.01" stroke-linecap="butt" stroke-linejoin="miter" stroke="rgb(0%, 0%, 0%)" stroke-opacity="1" stroke-miterlimit="10" d="M 581 165.324219 C 581 166.65625 579 166.65625 579 165.324219 C 579 163.988281 581 163.988281 581 165.324219 "/>
<path fill-rule="nonzero" fill="rgb(100%, 0%, 0%)" fill-opacity="1" stroke-width="0.01" stroke-linecap="butt" stroke-linejoin="miter" stroke="rgb(0%, 0%, 0%)" stroke-opacity="1" stroke-miterlimit="10" d="M 553.539062 101.105469 C 553.539062 102.4375 551.539062 102.4375 551.539062 101.105469 C 551.539062 99.773438 553.539062 99.773438 553.539062 101.105469 "/>
<path fill-rule="nonzero" fill="rgb(100%, 0%, 0%)" fill-opacity="1" stroke-width="0.01" stroke-linecap="butt" stroke-linejoin="miter" stroke="rgb(0%, 0%, 0%)" stroke-opacity="1" stroke-miterlimit="10" d="M 307.058594 59.125 C 307.058594 60.460938 305.058594 60.460938 305.058594 59.125 C 305.058594 57.792969 307.058594 57.792969 307.058594 59.125 "/>
<path fill-rule="nonzero" fill="rgb(100%, 0%, 0%)" fill-opacity="1" stroke-width="0.01" stroke-linecap="butt" stroke-linejoin="miter" stroke="rgb(0%, 0%, 0%)" stroke-opacity="1" stroke-miterlimit="10" d="M 275.25 30.09375 C 275.25 31.425781 273.25 31.425781 273.25 30.09375 C 273.25 28.757812 275.25 28.757812 275.25 30.09375 "/>
<path fill-rule="nonzero" fill="rgb(100%, 0%, 0%)" fill-opacity="1" stroke-width="0.01" stroke-linecap="butt" stroke-linejoin="miter" stroke="rgb(0%, 0%, 0%)" stroke-opacity="1" stroke-miterlimit="10" d="M 270.0625 80.039062 C 270.0625 81.371094 268.0625 81.371094 268.0625 80.039062 C 268.0625 78.707031 270.0625 78.707031 270.0625 80.039062 "/>
<path fill-rule="nonzero" fill="rgb(100%, 0%, 0%)" fill-opacity="1" stroke-width="0.01" stroke-linecap="butt" stroke-linejoin="miter" stroke="rgb(0%, 0%, 0%)" stroke-opacity="1" stroke-miterlimit="10" d="M 316.195312 101.265625 C 316.195312 102.597656 314.195312 102.597656 314.195312 101.265625 C 314.195312 99.929688 316.195312 99.929688 316.195312 101.265625 "/>
<path fill-rule="nonzero" fill="rgb(100%, 0%, 0%)" fill-opacity="1" stroke-width="0.01" stroke-linecap="butt" stroke-linejoin="miter" stroke="rgb(0%, 0%, 0%)" stroke-opacity="1" stroke-miterlimit="10" d="M 324.421875 20 C 324.421875 21.332031 322.421875 21.332031 322.421875 20 C 322.421875 18.667969 324.421875 18.667969 324.421875 20 "/>
<path fill-rule="nonzero" fill="rgb(100%, 0%, 0%)" fill-opacity="1" stroke-width="0.01" stroke-linecap="butt" stroke-linejoin="miter" stroke="rgb(0%, 0%, 0%)" stroke-opacity="1" stroke-miterlimit="10" d="M 349.417969 64.136719 C 349.417969 65.46875 347.417969 65.46875 347.417969 64.136719 C 347.417969 62.804688 349.417969 62.804688 349.417969 64.136719 "/>
<path fill-rule="nonzero" fill="rgb(100%, 0%, 0%)" fill-opacity="1" stroke-width="0.01" stroke-linecap="butt" stroke-linejoin="miter" stroke="rgb(0%, 0%, 0%)" stroke-opacity="1" stroke-miterlimit="10" d="M 505.304688 357.945312 C 505.304688 359.277344 503.304688 359.277344 503.304688 357.945312 C 503.304688 356.609375 505.304688 356.609375 505.304688 357.945312 "/>
<path fill-rule="nonzero" fill="rgb(100%, 0%, 0%)" fill-opacity="1" stroke-width="0.01" stroke-linecap="butt" stroke-linejoin="miter" stroke="rgb(0%, 0%, 0%)" stroke-opacity="1" stroke-miterlimit="10" d="M 534.042969 376.9375 C 534.042969 378.269531 532.042969 378.269531 532.042969 376.9375 C 532.042969 375.605469 534.042969 375.605469 534.042969 376.9375 "/>
<path fill-rule="nonzero" fill="rgb(100%, 0%, 0%)" fill-opacity="1" stroke-width="0.01" stroke-linecap="butt" stroke-linejoin="miter" stroke="rgb(0%, 0%, 0%)" stroke-opacity="1" stroke-miterlimit="10" d="M 476.832031 338.535156 C 476.832031 339.871094 474.832031 339.871094 474.832031 338.535156 C 474.832031 337.203125 476.832031 337.203125 476.832031 338.535156 "/>
<path fill-rule="nonzero" fill="rgb(100%, 0%, 0%)" fill-opacity="1" stroke-width="0.01" stroke-linecap="butt" stroke-linejoin="miter" stroke="rgb(0%, 0%, 0%)" stroke-opacity="1" stroke-miterlimit="10" d="M 35.117188 325.796875 C 35.117188 327.128906 33.117188 327.128906 33.117188 325.796875 C 33.117188 324.460938 35.117188 324.460938 35.117188 325.796875 "/>
<path fill-rule="nonzero" fill="rgb(100%, 0%, 0%)" fill-opacity="1" stroke-width="0.01" stroke-linecap="butt" stroke-linejoin="miter" stroke="rgb(0%, 0%, 0%)" stroke-opacity="1" stroke-miterlimit="10" d="M 21 293.769531 C 21 295.105469 19 295.105469 19 293.769531 C 19 292.4375 21 292.4375 21 293.769531 "/>
<path fill-rule="nonzero" fill="rgb(100%, 0%, 0%)" fill-opacity="1" stroke-width="0.01" stroke-linecap="butt" stroke-linejoin="miter" stroke="rgb(0%, 0%, 0%)" stroke-opacity="1" stroke-miterlimit="10" d="M 49.703125 357.566406 C 49.703125 358.902344 47.703125 358.902344 47.703125 357.566406 C 47.703125 356.234375 49.703125 356.234375 49.703125 357.566406 "/>
<path fill-rule="nonzero" fill="rgb(100%, 0%, 0%)" fill-opacity="1" stroke-width="0.01" stroke-linecap="butt" stroke-linejoin="miter" stroke="rgb(0%, 0%, 0%)" stroke-opacity="1" stroke-miterlimit="10" d="M 112.488281 562.273438 C 112.488281 563.605469 110.488281 563.605469 110.488281 562.273438 C 110.488281 560.941406 112.488281 560.941406 112.488281 562.273438 "/>
<path fill-rule="nonzero" fill="rgb(100%, 0%, 0%)" fill-opacity="1" stroke-width="0.01" stroke-linecap="butt" stroke-linejoin="miter" stroke="rgb(0%, 0%, 0%)" stroke-opacity="1" stroke-miterlimit="10" d="M 82.738281 544.851562 C 82.738281 546.183594 80.738281 546.183594 80.738281 544.851562 C 80.738281 543.519531 82.738281 543.519531 82.738281 544.851562 "/>
<path fill-rule="nonzero" fill="rgb(100%, 0%, 0%)" fill-opacity="1" stroke-width="0.01" stroke-linecap="butt" stroke-linejoin="miter" stroke="rgb(0%, 0%, 0%)" stroke-opacity="1" stroke-miterlimit="10" d="M 142.066406 580 C 142.066406 581.332031 140.066406 581.332031 140.066406 580 C 140.066406 578.667969 142.066406 578.667969 142.066406 580 "/>
</svg>
