<?xml version="1.0" encoding="UTF-8"?>
<svg xmlns="http://www.w3.org/2000/svg" xmlns:xlink="http://www.w3.org/1999/xlink" width="600" height="600" viewBox="0 0 600 600">
<rect x="-60" y="-60" width="720" height="720" fill="rgb(100%, 100%, 100%)" fill-opacity="1"/>
<path fill="none" stroke-width="0.2" stroke-linecap="butt" stroke-linejoin="miter" stroke="rgb(26.666667%, 26.666667%, 26.666667%)" stroke-opacity="1" stroke-miterlimit="10" d="M 495.582031 406.863281 L 525.601562 419.039062 "/>
<path fill-rule="nonzero" fill="rgb(26.666667%, 26.666667%, 26.666667%)" fill-opacity="1" d="M 525.730469 419.089844 L 525.582031 419.082031 L 525.617188 418.996094 L 525.730469 419.089844 "/>
<path fill="none" stroke-width="0.2" stroke-linecap="butt" stroke-linejoin="miter" stroke="rgb(26.666667%, 26.666667%, 26.666667%)" stroke-opacity="1" stroke-miterlimit="10" d="M 495.582031 406.863281 L 465.414062 395.144531 "/>
<path fill-rule="nonzero" fill="rgb(26.666667%, 26.666667%, 26.666667%)" fill-opacity="1" d="M 465.277344 395.089844 L 465.429688 395.101562 L 465.394531 395.1875 L 465.277344 395.089844 "/>
<path fill="none" stroke-width="0.2" stroke-linecap="butt" stroke-linejoin="miter" stroke="rgb(26.666667%, 26.666667%, 26.666667%)" stroke-opacity="1" stroke-miterlimit="10" d="M 163.769531 477.457031 L 182.128906 503.992188 "/>
<path fill-rule="nonzero" fill="rgb(26.666667%, 26.666667%, 26.666667%)" fill-opacity="1" d="M 182.210938 504.109375 L 182.089844 504.019531 L 182.167969 503.964844 L 182.210938 504.109375 "/>
<path fill="none" stroke-width="0.2" stroke-linecap="butt" stroke-linejoin="miter" stroke="rgb(26.666667%, 26.666667%, 26.666667%)" stroke-opacity="1" stroke-miterlimit="10" d="M 163.769531 477.457031 L 145.097656 451.152344 "/>
<path fill-rule="nonzero" fill="rgb(26.666667%, 26.666667%, 26.666667%)" fill-opacity="1" d="M 145.015625 451.035156 L 145.136719 451.125 L 145.058594 451.179688 L 145.015625 451.035156 "/>
<path fill="none" stroke-width="0.2" stroke-linecap="butt" stroke-linejoin="miter" stroke="rgb(26.666667%, 26.666667%, 26.666667%)" stroke-opacity="1" stroke-miterlimit="10" d="M 218.714844 27.128906 L 186.867188 34.09375 "/>
<path fill-rule="nonzero" fill="rgb(26.666667%, 26.666667%, 26.666667%)" fill-opacity="1" d="M 186.726562 34.125 L 186.855469 34.050781 L 186.875 34.140625 L 186.726562 34.125 "/>
<path fill="none" stroke-width="0.2" stroke-linecap="butt" stroke-linejoin="miter" stroke="rgb(26.666667%, 26.666667%, 26.666667%)" stroke-opacity="1" stroke-miterlimit="10" d="M 218.714844 27.128906 L 250.5625 20.242188 "/>
<path fill-rule="nonzero" fill="rgb(26.666667%, 26.666667%, 26.666667%)" fill-opacity="1" d="M 250.703125 20.210938 L 250.574219 20.285156 L 250.554688 20.195312 L 250.703125 20.210938 "/>
<path fill="none" stroke-width="0.2" stroke-linecap="butt" stroke-linejoin="miter" stroke="rgb(26.666667%, 26.666667%, 26.666667%)" stroke-opacity="1" stroke-miterlimit="10" d="M 349.9375 278.386719 L 356.679688 246.558594 "/>
<path fill-rule="nonzero" fill="rgb(26.666667%, 26.666667%, 26.666667%)" fill-opacity="1" d="M 356.707031 246.417969 L 356.722656 246.570312 L 356.632812 246.550781 L 356.707031 246.417969 "/>
<path fill="none" stroke-width="0.2" stroke-linecap="butt" stroke-linejoin="miter" stroke="rgb(26.666667%, 26.666667%, 26.666667%)" stroke-opacity="1" stroke-miterlimit="10" d="M 349.9375 278.386719 L 342.125 309.972656 "/>
<path fill-rule="nonzero" fill="rgb(26.666667%, 26.666667%, 26.666667%)" fill-opacity="1" d="M 342.09375 310.109375 L 342.082031 309.960938 L 342.171875 309.984375 L 342.09375 310.109375 "/>
<path fill="none" stroke-width="0.2" stroke-linecap="butt" stroke-linejoin="miter" stroke="rgb(26.666667%, 26.666667%, 26.666667%)" stroke-opacity="1" stroke-miterlimit="10" d="M 538.90625 154.523438 L 578.863281 149.835938 "/>
<path fill-rule="nonzero" fill="rgb(26.666667%, 26.666667%, 26.666667%)" fill-opacity="1" d="M 579.007812 149.820312 L 578.871094 149.882812 L 578.859375 149.789062 L 579.007812 149.820312 "/>
<path fill="none" stroke-width="0.2" stroke-linecap="butt" stroke-linejoin="miter" stroke="rgb(26.666667%, 26.666667%, 26.666667%)" stroke-opacity="1" stroke-miterlimit="10" d="M 538.90625 154.523438 L 546.035156 114.851562 "/>
<path fill-rule="nonzero" fill="rgb(26.666667%, 26.666667%, 26.666667%)" fill-opacity="1" d="M 546.058594 114.710938 L 546.082031 114.859375 L 545.988281 114.84375 L 546.058594 114.710938 "/>
<path fill="none" stroke-width="0.2" stroke-linecap="butt" stroke-linejoin="miter" stroke="rgb(26.666667%, 26.666667%, 26.666667%)" stroke-opacity="1" stroke-miterlimit="10" d="M 538.90625 154.523438 L 503.273438 134.699219 "/>
<path fill-rule="nonzero" fill="rgb(26.666667%, 26.666667%, 26.666667%)" fill-opacity="1" d="M 503.152344 134.632812 L 503.296875 134.660156 L 503.253906 134.742188 L 503.152344 134.632812 "/>
<path fill="none" stroke-width="0.2" stroke-linecap="butt" stroke-linejoin="miter" stroke="rgb(26.666667%, 26.666667%, 26.666667%)" stroke-opacity="1" stroke-miterlimit="10" d="M 538.90625 154.523438 L 556.449219 191.375 "/>
<path fill-rule="nonzero" fill="rgb(26.666667%, 26.666667%, 26.666667%)" fill-opacity="1" d="M 556.511719 191.503906 L 556.40625 191.398438 L 556.492188 191.355469 L 556.511719 191.503906 "/>
<path fill="none" stroke-width="0.2" stroke-linecap="butt" stroke-linejoin="miter" stroke="rgb(26.666667%, 26.666667%, 26.666667%)" stroke-opacity="1" stroke-miterlimit="10" d="M 538.90625 154.523438 L 509.902344 181.898438 "/>
<path fill-rule="nonzero" fill="rgb(26.666667%, 26.666667%, 26.666667%)" fill-opacity="1" d="M 509.796875 181.996094 L 509.871094 181.863281 L 509.933594 181.929688 L 509.796875 181.996094 "/>
<path fill="none" stroke-width="0.2" stroke-linecap="butt" stroke-linejoin="miter" stroke="rgb(26.666667%, 26.666667%, 26.666667%)" stroke-opacity="1" stroke-miterlimit="10" d="M 375.207031 570.296875 L 406.410156 561.515625 "/>
<path fill-rule="nonzero" fill="rgb(26.666667%, 26.666667%, 26.666667%)" fill-opacity="1" d="M 406.546875 561.480469 L 406.421875 561.5625 L 406.398438 561.472656 L 406.546875 561.480469 "/>
<path fill="none" stroke-width="0.2" stroke-linecap="butt" stroke-linejoin="miter" stroke="rgb(26.666667%, 26.666667%, 26.666667%)" stroke-opacity="1" stroke-miterlimit="10" d="M 375.207031 570.296875 L 344.179688 579.667969 "/>
<path fill-rule="nonzero" fill="rgb(26.666667%, 26.666667%, 26.666667%)" fill-opacity="1" d="M 344.042969 579.710938 L 344.164062 579.625 L 344.191406 579.714844 L 344.042969 579.710938 "/>
<path fill="none" stroke-width="0.2" stroke-linecap="butt" stroke-linejoin="miter" stroke="rgb(26.666667%, 26.666667%, 26.666667%)" stroke-opacity="1" stroke-miterlimit="10" d="M 26.121094 283.945312 L 20.207031 315.929688 "/>
<path fill-rule="nonzero" fill="rgb(26.666667%, 26.666667%, 26.666667%)" fill-opacity="1" d="M 20.183594 316.070312 L 20.164062 315.921875 L 20.253906 315.9375 L 20.183594 316.070312 "/>
<path fill="none" stroke-width="0.2" stroke-linecap="butt" stroke-linejoin="miter" stroke="rgb(26.666667%, 26.666667%, 26.666667%)" stroke-opacity="1" stroke-miterlimit="10" d="M 26.121094 283.945312 L 31.878906 251.914062 "/>
<path fill-rule="nonzero" fill="rgb(26.666667%, 26.666667%, 26.666667%)" fill-opacity="1" d="M 31.902344 251.773438 L 31.925781 251.921875 L 31.832031 251.90625 L 31.902344 251.773438 "/>
<path fill="none" stroke-width="0.2" stroke-linecap="butt" stroke-linejoin="miter" stroke="rgb(26.666667%, 26.666667%, 26.666667%)" stroke-opacity="1" stroke-miterlimit="10" d="M 200.636719 234.722656 L 198.734375 267.160156 "/>
<path fill-rule="nonzero" fill="rgb(26.666667%, 26.666667%, 26.666667%)" fill-opacity="1" d="M 198.726562 267.304688 L 198.6875 267.160156 L 198.78125 267.164062 L 198.726562 267.304688 "/>
<path fill="none" stroke-width="0.2" stroke-linecap="butt" stroke-linejoin="miter" stroke="rgb(26.666667%, 26.666667%, 26.666667%)" stroke-opacity="1" stroke-miterlimit="10" d="M 200.636719 234.722656 L 202.941406 202.378906 "/>
<path fill-rule="nonzero" fill="rgb(26.666667%, 26.666667%, 26.666667%)" fill-opacity="1" d="M 202.949219 202.238281 L 202.984375 202.382812 L 202.894531 202.375 L 202.949219 202.238281 "/>
<path fill-rule="nonzero" fill="rgb(100%, 0%, 0%)" fill-opacity="1" stroke-width="0.01" stroke-linecap="butt" stroke-linejoin="miter" stroke="rgb(0%, 0%, 0%)" stroke-opacity="1" stroke-miterlimit="10" d="M 496.582031 406.863281 C 496.582031 408.195312 494.582031 408.195312 494.582031 406.863281 C 494.582031 405.53125 496.582031 405.53125 496.582031 406.863281 "/>
<path fill-rule="nonzero" fill="rgb(100%, 0%, 0%)" fill-opacity="1" stroke-width="0.01" stroke-linecap="butt" stroke-linejoin="miter" stroke="rgb(0%, 0%, 0%)" stroke-opacity="1" stroke-miterlimit="10" d="M 527.660156 419.46875 C 527.660156 420.800781 525.660156 420.800781 525.660156 419.46875 C 525.660156 418.132812 527.660156 418.132812 527.660156 419.46875 "/>
<path fill-rule="nonzero" fill="rgb(100%, 0%, 0%)" fill-opacity="1" stroke-width="0.01" stroke-linecap="butt" stroke-linejoin="miter" stroke="rgb(0%, 0%, 0%)" stroke-opacity="1" stroke-miterlimit="10" d="M 465.347656 394.730469 C 465.347656 396.0625 463.347656 396.0625 463.347656 394.730469 C 463.347656 393.394531 465.347656 393.394531 465.347656 394.730469 "/>
<path fill-rule="nonzero" fill="rgb(100%, 0%, 0%)" fill-opacity="1" stroke-width="0.01" stroke-linecap="butt" stroke-linejoin="miter" stroke="rgb(0%, 0%, 0%)" stroke-opacity="1" stroke-miterlimit="10" d="M 164.769531 477.457031 C 164.769531 478.792969 162.769531 478.792969 162.769531 477.457031 C 162.769531 476.125 164.769531 476.125 164.769531 477.457031 "/>
<path fill-rule="nonzero" fill="rgb(100%, 0%, 0%)" fill-opacity="1" stroke-width="0.01" stroke-linecap="butt" stroke-linejoin="miter" stroke="rgb(0%, 0%, 0%)" stroke-opacity="1" stroke-miterlimit="10" d="M 183.777344 504.933594 C 183.777344 506.265625 181.777344 506.265625 181.777344 504.933594 C 181.777344 503.597656 183.777344 503.597656 183.777344 504.933594 "/>
<path fill-rule="nonzero" fill="rgb(100%, 0%, 0%)" fill-opacity="1" stroke-width="0.01" stroke-linecap="butt" stroke-linejoin="miter" stroke="rgb(0%, 0%, 0%)" stroke-opacity="1" stroke-miterlimit="10" d="M 145.4375 450.222656 C 145.4375 451.554688 143.4375 451.554688 143.4375 450.222656 C 143.4375 448.886719 145.4375 448.886719 145.4375 450.222656 "/>
<path fill-rule="nonzero" fill="rgb(100%, 0%, 0%)" fill-opacity="1" stroke-width="0.01" stroke-linecap="butt" stroke-linejoin="miter" stroke="rgb(0%, 0%, 0%)" stroke-opacity="1" stroke-miterlimit="10" d="M 219.714844 27.128906 C 219.714844 28.460938 217.714844 28.460938 217.714844 27.128906 C 217.714844 25.796875 219.714844 25.796875 219.714844 27.128906 "/>
<path fill-rule="nonzero" fill="rgb(100%, 0%, 0%)" fill-opacity="1" stroke-width="0.01" stroke-linecap="butt" stroke-linejoin="miter" stroke="rgb(0%, 0%, 0%)" stroke-opacity="1" stroke-miterlimit="10" d="M 186.75 34.339844 C 186.75 35.671875 184.75 35.671875 184.75 34.339844 C 184.75 33.003906 186.75 33.003906 186.75 34.339844 "/>
<path fill-rule="nonzero" fill="rgb(100%, 0%, 0%)" fill-opacity="1" stroke-width="0.01" stroke-linecap="butt" stroke-linejoin="miter" stroke="rgb(0%, 0%, 0%)" stroke-opacity="1" stroke-miterlimit="10" d="M 252.679688 20 C 252.679688 21.332031 250.679688 21.332031 250.679688 20 C 250.679688 18.667969 252.679688 18.667969 252.679688 20 "/>
<path fill-rule="nonzero" fill="rgb(100%, 0%, 0%)" fill-opacity="1" stroke-width="0.01" stroke-linecap="butt" stroke-linejoin="miter" stroke="rgb(0%, 0%, 0%)" stroke-opacity="1" stroke-miterlimit="10" d="M 350.9375 278.386719 C 350.9375 279.71875 348.9375 279.71875 348.9375 278.386719 C 348.9375 277.054688 350.9375 277.054688 350.9375 278.386719 "/>
<path fill-rule="nonzero" fill="rgb(100%, 0%, 0%)" fill-opacity="1" stroke-width="0.01" stroke-linecap="butt" stroke-linejoin="miter" stroke="rgb(0%, 0%, 0%)" stroke-opacity="1" stroke-miterlimit="10" d="M 357.914062 245.441406 C 357.914062 246.773438 355.914062 246.773438 355.914062 245.441406 C 355.914062 244.109375 357.914062 244.109375 357.914062 245.441406 "/>
<path fill-rule="nonzero" fill="rgb(100%, 0%, 0%)" fill-opacity="1" stroke-width="0.01" stroke-linecap="butt" stroke-linejoin="miter" stroke="rgb(0%, 0%, 0%)" stroke-opacity="1" stroke-miterlimit="10" d="M 342.851562 311.082031 C 342.851562 312.414062 340.851562 312.414062 340.851562 311.082031 C 340.851562 309.75 342.851562 309.75 342.851562 311.082031 "/>
<path fill-rule="nonzero" fill="rgb(100%, 0%, 0%)" fill-opacity="1" stroke-width="0.01" stroke-linecap="butt" stroke-linejoin="miter" stroke="rgb(0%, 0%, 0%)" stroke-opacity="1" stroke-miterlimit="10" d="M 539.90625 154.523438 C 539.90625 155.855469 537.90625 155.855469 537.90625 154.523438 C 537.90625 153.1875 539.90625 153.1875 539.90625 154.523438 "/>
<path fill-rule="nonzero" fill="rgb(100%, 0%, 0%)" fill-opacity="1" stroke-width="0.01" stroke-linecap="butt" stroke-linejoin="miter" stroke="rgb(0%, 0%, 0%)" stroke-opacity="1" stroke-miterlimit="10" d="M 581 149.703125 C 581 151.035156 579 151.035156 579 149.703125 C 579 148.367188 581 148.367188 581 149.703125 "/>
<path fill-rule="nonzero" fill="rgb(100%, 0%, 0%)" fill-opacity="1" stroke-width="0.01" stroke-linecap="butt" stroke-linejoin="miter" stroke="rgb(0%, 0%, 0%)" stroke-opacity="1" stroke-miterlimit="10" d="M 547.238281 113.726562 C 547.238281 115.058594 545.238281 115.058594 545.238281 113.726562 C 545.238281 112.390625 547.238281 112.390625 547.238281 113.726562 "/>
<path fill-rule="nonzero" fill="rgb(100%, 0%, 0%)" fill-opacity="1" stroke-width="0.01" stroke-linecap="butt" stroke-linejoin="miter" stroke="rgb(0%, 0%, 0%)" stroke-opacity="1" stroke-miterlimit="10" d="M 503.277344 134.144531 C 503.277344 135.480469 501.277344 135.480469 501.277344 134.144531 C 501.277344 132.8125 503.277344 132.8125 503.277344 134.144531 "/>
<path fill-rule="nonzero" fill="rgb(100%, 0%, 0%)" fill-opacity="1" stroke-width="0.01" stroke-linecap="butt" stroke-linejoin="miter" stroke="rgb(0%, 0%, 0%)" stroke-opacity="1" stroke-miterlimit="10" d="M 557.941406 192.410156 C 557.941406 193.742188 555.941406 193.742188 555.941406 192.410156 C 555.941406 191.074219 557.941406 191.074219 557.941406 192.410156 "/>
<path fill-rule="nonzero" fill="rgb(100%, 0%, 0%)" fill-opacity="1" stroke-width="0.01" stroke-linecap="butt" stroke-linejoin="miter" stroke="rgb(0%, 0%, 0%)" stroke-opacity="1" stroke-miterlimit="10" d="M 510.070312 182.683594 C 510.070312 184.015625 508.070312 184.015625 508.070312 182.683594 C 508.070312 181.347656 510.070312 181.347656 510.070312 182.683594 "/>
<path fill-rule="nonzero" fill="rgb(100%, 0%, 0%)" fill-opacity="1" stroke-width="0.01" stroke-linecap="butt" stroke-linejoin="miter" stroke="rgb(0%, 0%, 0%)" stroke-opacity="1" stroke-miterlimit="10" d="M 376.207031 570.296875 C 376.207031 571.628906 374.207031 571.628906 374.207031 570.296875 C 374.207031 568.964844 376.207031 568.964844 376.207031 570.296875 "/>
<path fill-rule="nonzero" fill="rgb(100%, 0%, 0%)" fill-opacity="1" stroke-width="0.01" stroke-linecap="butt" stroke-linejoin="miter" stroke="rgb(0%, 0%, 0%)" stroke-opacity="1" stroke-miterlimit="10" d="M 408.507812 561.207031 C 408.507812 562.542969 406.507812 562.542969 406.507812 561.207031 C 406.507812 559.875 408.507812 559.875 408.507812 561.207031 "/>
<path fill-rule="nonzero" fill="rgb(100%, 0%, 0%)" fill-opacity="1" stroke-width="0.01" stroke-linecap="butt" stroke-linejoin="miter" stroke="rgb(0%, 0%, 0%)" stroke-opacity="1" stroke-miterlimit="10" d="M 344.085938 580 C 344.085938 581.332031 342.085938 581.332031 342.085938 580 C 342.085938 578.667969 344.085938 578.667969 344.085938 580 "/>
<path fill-rule="nonzero" fill="rgb(100%, 0%, 0%)" fill-opacity="1" stroke-width="0.01" stroke-linecap="butt" stroke-linejoin="miter" stroke="rgb(0%, 0%, 0%)" stroke-opacity="1" stroke-miterlimit="10" d="M 27.121094 283.945312 C 27.121094 285.28125 25.121094 285.28125 25.121094 283.945312 C 25.121094 282.613281 27.121094 282.613281 27.121094 283.945312 "/>
<path fill-rule="nonzero" fill="rgb(100%, 0%, 0%)" fill-opacity="1" stroke-width="0.01" stroke-linecap="butt" stroke-linejoin="miter" stroke="rgb(0%, 0%, 0%)" stroke-opacity="1" stroke-miterlimit="10" d="M 21 317.054688 C 21 318.386719 19 318.386719 19 317.054688 C 19 315.71875 21 315.71875 21 317.054688 "/>
<path fill-rule="nonzero" fill="rgb(100%, 0%, 0%)" fill-opacity="1" stroke-width="0.01" stroke-linecap="butt" stroke-linejoin="miter" stroke="rgb(0%, 0%, 0%)" stroke-opacity="1" stroke-miterlimit="10" d="M 33.082031 250.789062 C 33.082031 252.125 31.082031 252.125 31.082031 250.789062 C 31.082031 249.457031 33.082031 249.457031 33.082031 250.789062 "/>
<path fill-rule="nonzero" fill="rgb(100%, 0%, 0%)" fill-opacity="1" stroke-width="0.01" stroke-linecap="butt" stroke-linejoin="miter" stroke="rgb(0%, 0%, 0%)" stroke-opacity="1" stroke-miterlimit="10" d="M 201.636719 234.722656 C 201.636719 236.054688 199.636719 236.054688 199.636719 234.722656 C 199.636719 233.386719 201.636719 233.386719 201.636719 234.722656 "/>
<path fill-rule="nonzero" fill="rgb(100%, 0%, 0%)" fill-opacity="1" stroke-width="0.01" stroke-linecap="butt" stroke-linejoin="miter" stroke="rgb(0%, 0%, 0%)" stroke-opacity="1" stroke-miterlimit="10" d="M 199.667969 268.300781 C 199.667969 269.636719 197.667969 269.636719 197.667969 268.300781 C 197.667969 266.96875 199.667969 266.96875 199.667969 268.300781 "/>
<path fill-rule="nonzero" fill="rgb(100%, 0%, 0%)" fill-opacity="1" stroke-width="0.01" stroke-linecap="butt" stroke-linejoin="miter" stroke="rgb(0%, 0%, 0%)" stroke-opacity="1" stroke-miterlimit="10" d="M 204.019531 201.238281 C 204.019531 202.574219 202.019531 202.574219 202.019531 201.238281 C 202.019531 199.90625 204.019531 199.90625 204.019531 201.238281 "/>
</svg>
