<?xml version="1.0" encoding="UTF-8"?>
<svg xmlns="http://www.w3.org/2000/svg" xmlns:xlink="http://www.w3.org/1999/xlink" width="600pt" height="600pt" viewBox="0 0 600 600" version="1.1">
<g id="surface11">
<rect x="0" y="0" width="600" height="600" style="fill:rgb(100%,100%,100%);fill-opacity:1;stroke:none;"/>
<path style="fill:none;stroke-width:0.2;stroke-linecap:butt;stroke-linejoin:miter;stroke:rgb(26.666667%,26.666667%,26.666667%);stroke-opacity:1;stroke-miterlimit:10;" d="M 189.332031 152.4375 L 210.933594 175.6875 "/>
<path style="fill:none;stroke-width:0.2;stroke-linecap:butt;stroke-linejoin:miter;stroke:rgb(26.666667%,26.666667%,26.666667%);stroke-opacity:1;stroke-miterlimit:10;" d="M 189.332031 152.4375 L 168.035156 128.824219 "/>
<path style="fill:none;stroke-width:0.2;stroke-linecap:butt;stroke-linejoin:miter;stroke:rgb(26.666667%,26.666667%,26.666667%);stroke-opacity:1;stroke-miterlimit:10;" d="M 27.746094 322.289062 L 35.039062 355.90625 "/>
<path style="fill:none;stroke-width:0.2;stroke-linecap:butt;stroke-linejoin:miter;stroke:rgb(26.666667%,26.666667%,26.666667%);stroke-opacity:1;stroke-miterlimit:10;" d="M 27.746094 322.289062 L 20.21875 288.765625 "/>
<path style="fill:none;stroke-width:0.2;stroke-linecap:butt;stroke-linejoin:miter;stroke:rgb(26.666667%,26.666667%,26.666667%);stroke-opacity:1;stroke-miterlimit:10;" d="M 360.808594 513.769531 L 375.175781 483.148438 "/>
<path style="fill:none;stroke-width:0.2;stroke-linecap:butt;stroke-linejoin:miter;stroke:rgb(26.666667%,26.666667%,26.666667%);stroke-opacity:1;stroke-miterlimit:10;" d="M 360.808594 513.769531 L 346.265625 544.226562 "/>
<path style="fill:none;stroke-width:0.2;stroke-linecap:butt;stroke-linejoin:miter;stroke:rgb(26.666667%,26.666667%,26.666667%);stroke-opacity:1;stroke-miterlimit:10;" d="M 502.191406 548.355469 L 488.347656 579.089844 "/>
<path style="fill:none;stroke-width:0.2;stroke-linecap:butt;stroke-linejoin:miter;stroke:rgb(26.666667%,26.666667%,26.666667%);stroke-opacity:1;stroke-miterlimit:10;" d="M 502.191406 548.355469 L 515.679688 517.4375 "/>
<path style="fill:none;stroke-width:0.2;stroke-linecap:butt;stroke-linejoin:miter;stroke:rgb(26.666667%,26.666667%,26.666667%);stroke-opacity:1;stroke-miterlimit:10;" d="M 214.730469 405.007812 L 227.84375 364.484375 "/>
<path style="fill:none;stroke-width:0.2;stroke-linecap:butt;stroke-linejoin:miter;stroke:rgb(26.666667%,26.666667%,26.666667%);stroke-opacity:1;stroke-miterlimit:10;" d="M 214.730469 405.007812 L 186.933594 378.507812 "/>
<path style="fill:none;stroke-width:0.2;stroke-linecap:butt;stroke-linejoin:miter;stroke:rgb(26.666667%,26.666667%,26.666667%);stroke-opacity:1;stroke-miterlimit:10;" d="M 214.730469 405.007812 L 250.542969 406.132812 "/>
<path style="fill:none;stroke-width:0.2;stroke-linecap:butt;stroke-linejoin:miter;stroke:rgb(26.666667%,26.666667%,26.666667%);stroke-opacity:1;stroke-miterlimit:10;" d="M 214.730469 405.007812 L 184.523438 429.21875 "/>
<path style="fill:none;stroke-width:0.2;stroke-linecap:butt;stroke-linejoin:miter;stroke:rgb(26.666667%,26.666667%,26.666667%);stroke-opacity:1;stroke-miterlimit:10;" d="M 214.730469 405.007812 L 223.800781 446.53125 "/>
<path style="fill:none;stroke-width:0.2;stroke-linecap:butt;stroke-linejoin:miter;stroke:rgb(26.666667%,26.666667%,26.666667%);stroke-opacity:1;stroke-miterlimit:10;" d="M 433.425781 197.613281 L 436.792969 163.066406 "/>
<path style="fill:none;stroke-width:0.2;stroke-linecap:butt;stroke-linejoin:miter;stroke:rgb(26.666667%,26.666667%,26.666667%);stroke-opacity:1;stroke-miterlimit:10;" d="M 433.425781 197.613281 L 430.761719 232.179688 "/>
<path style="fill:none;stroke-width:0.2;stroke-linecap:butt;stroke-linejoin:miter;stroke:rgb(26.666667%,26.666667%,26.666667%);stroke-opacity:1;stroke-miterlimit:10;" d="M 320.257812 54.207031 L 312.5 20.972656 "/>
<path style="fill:none;stroke-width:0.2;stroke-linecap:butt;stroke-linejoin:miter;stroke:rgb(26.666667%,26.666667%,26.666667%);stroke-opacity:1;stroke-miterlimit:10;" d="M 320.257812 54.207031 L 327.214844 87.699219 "/>
<path style="fill:none;stroke-width:0.2;stroke-linecap:butt;stroke-linejoin:miter;stroke:rgb(26.666667%,26.666667%,26.666667%);stroke-opacity:1;stroke-miterlimit:10;" d="M 576.492188 180.730469 L 579.902344 215.367188 "/>
<path style="fill:none;stroke-width:0.2;stroke-linecap:butt;stroke-linejoin:miter;stroke:rgb(26.666667%,26.666667%,26.666667%);stroke-opacity:1;stroke-miterlimit:10;" d="M 576.492188 180.730469 L 572.589844 146.15625 "/>
<path style=" stroke:none;fill-rule:nonzero;fill:rgb(100%,0%,0%);fill-opacity:1;" d="M 190.332031 152.4375 C 190.332031 153.773438 188.332031 153.773438 188.332031 152.4375 C 188.332031 151.105469 190.332031 151.105469 190.332031 152.4375 "/>
<path style=" stroke:none;fill-rule:nonzero;fill:rgb(100%,0%,0%);fill-opacity:1;" d="M 212.613281 176.421875 C 212.613281 177.753906 210.613281 177.753906 210.613281 176.421875 C 210.613281 175.089844 212.613281 175.089844 212.613281 176.421875 "/>
<path style=" stroke:none;fill-rule:nonzero;fill:rgb(100%,0%,0%);fill-opacity:1;" d="M 168.367188 128.082031 C 168.367188 129.414062 166.367188 129.414062 166.367188 128.082031 C 166.367188 126.746094 168.367188 126.746094 168.367188 128.082031 "/>
<path style=" stroke:none;fill-rule:nonzero;fill:rgb(100%,0%,0%);fill-opacity:1;" d="M 28.746094 322.289062 C 28.746094 323.625 26.746094 323.625 26.746094 322.289062 C 26.746094 320.957031 28.746094 320.957031 28.746094 322.289062 "/>
<path style=" stroke:none;fill-rule:nonzero;fill:rgb(100%,0%,0%);fill-opacity:1;" d="M 36.25 356.882812 C 36.25 358.21875 34.25 358.21875 34.25 356.882812 C 34.25 355.550781 36.25 355.550781 36.25 356.882812 "/>
<path style=" stroke:none;fill-rule:nonzero;fill:rgb(100%,0%,0%);fill-opacity:1;" d="M 21 287.789062 C 21 289.121094 19 289.121094 19 287.789062 C 19 286.457031 21 286.457031 21 287.789062 "/>
<path style=" stroke:none;fill-rule:nonzero;fill:rgb(100%,0%,0%);fill-opacity:1;" d="M 361.808594 513.769531 C 361.808594 515.101562 359.808594 515.101562 359.808594 513.769531 C 359.808594 512.433594 361.808594 512.433594 361.808594 513.769531 "/>
<path style=" stroke:none;fill-rule:nonzero;fill:rgb(100%,0%,0%);fill-opacity:1;" d="M 376.601562 482.246094 C 376.601562 483.578125 374.601562 483.578125 374.601562 482.246094 C 374.601562 480.910156 376.601562 480.910156 376.601562 482.246094 "/>
<path style=" stroke:none;fill-rule:nonzero;fill:rgb(100%,0%,0%);fill-opacity:1;" d="M 346.835938 545.128906 C 346.835938 546.464844 344.835938 546.464844 344.835938 545.128906 C 344.835938 543.796875 346.835938 543.796875 346.835938 545.128906 "/>
<path style=" stroke:none;fill-rule:nonzero;fill:rgb(100%,0%,0%);fill-opacity:1;" d="M 503.191406 548.355469 C 503.191406 549.6875 501.191406 549.6875 501.191406 548.355469 C 501.191406 547.019531 503.191406 547.019531 503.191406 548.355469 "/>
<path style=" stroke:none;fill-rule:nonzero;fill:rgb(100%,0%,0%);fill-opacity:1;" d="M 488.9375 580 C 488.9375 581.332031 486.9375 581.332031 486.9375 580 C 486.9375 578.667969 488.9375 578.667969 488.9375 580 "/>
<path style=" stroke:none;fill-rule:nonzero;fill:rgb(100%,0%,0%);fill-opacity:1;" d="M 517.082031 516.523438 C 517.082031 517.855469 515.082031 517.855469 515.082031 516.523438 C 515.082031 515.191406 517.082031 515.191406 517.082031 516.523438 "/>
<path style=" stroke:none;fill-rule:nonzero;fill:rgb(100%,0%,0%);fill-opacity:1;" d="M 215.730469 405.007812 C 215.730469 406.339844 213.730469 406.339844 213.730469 405.007812 C 213.730469 403.671875 215.730469 403.671875 215.730469 405.007812 "/>
<path style=" stroke:none;fill-rule:nonzero;fill:rgb(100%,0%,0%);fill-opacity:1;" d="M 229.152344 363.53125 C 229.152344 364.867188 227.152344 364.867188 227.152344 363.53125 C 227.152344 362.199219 229.152344 362.199219 229.152344 363.53125 "/>
<path style=" stroke:none;fill-rule:nonzero;fill:rgb(100%,0%,0%);fill-opacity:1;" d="M 187.207031 377.820312 C 187.207031 379.152344 185.207031 379.152344 185.207031 377.820312 C 185.207031 376.484375 187.207031 376.484375 187.207031 377.820312 "/>
<path style=" stroke:none;fill-rule:nonzero;fill:rgb(100%,0%,0%);fill-opacity:1;" d="M 252.542969 406.167969 C 252.542969 407.5 250.542969 407.5 250.542969 406.167969 C 250.542969 404.832031 252.542969 404.832031 252.542969 406.167969 "/>
<path style=" stroke:none;fill-rule:nonzero;fill:rgb(100%,0%,0%);fill-opacity:1;" d="M 184.746094 429.84375 C 184.746094 431.175781 182.746094 431.175781 182.746094 429.84375 C 182.746094 428.511719 184.746094 428.511719 184.746094 429.84375 "/>
<path style=" stroke:none;fill-rule:nonzero;fill:rgb(100%,0%,0%);fill-opacity:1;" d="M 225.015625 447.507812 C 225.015625 448.839844 223.015625 448.839844 223.015625 447.507812 C 223.015625 446.175781 225.015625 446.175781 225.015625 447.507812 "/>
<path style=" stroke:none;fill-rule:nonzero;fill:rgb(100%,0%,0%);fill-opacity:1;" d="M 434.425781 197.613281 C 434.425781 198.945312 432.425781 198.945312 432.425781 197.613281 C 432.425781 196.28125 434.425781 196.28125 434.425781 197.613281 "/>
<path style=" stroke:none;fill-rule:nonzero;fill:rgb(100%,0%,0%);fill-opacity:1;" d="M 437.890625 162.074219 C 437.890625 163.40625 435.890625 163.40625 435.890625 162.074219 C 435.890625 160.738281 437.890625 160.738281 437.890625 162.074219 "/>
<path style=" stroke:none;fill-rule:nonzero;fill:rgb(100%,0%,0%);fill-opacity:1;" d="M 431.683594 233.175781 C 431.683594 234.507812 429.683594 234.507812 429.683594 233.175781 C 429.683594 231.839844 431.683594 231.839844 431.683594 233.175781 "/>
<path style=" stroke:none;fill-rule:nonzero;fill:rgb(100%,0%,0%);fill-opacity:1;" d="M 321.257812 54.207031 C 321.257812 55.539062 319.257812 55.539062 319.257812 54.207031 C 319.257812 52.871094 321.257812 52.871094 321.257812 54.207031 "/>
<path style=" stroke:none;fill-rule:nonzero;fill:rgb(100%,0%,0%);fill-opacity:1;" d="M 313.273438 20 C 313.273438 21.332031 311.273438 21.332031 311.273438 20 C 311.273438 18.667969 313.273438 18.667969 313.273438 20 "/>
<path style=" stroke:none;fill-rule:nonzero;fill:rgb(100%,0%,0%);fill-opacity:1;" d="M 328.417969 88.679688 C 328.417969 90.011719 326.417969 90.011719 326.417969 88.679688 C 326.417969 87.34375 328.417969 87.34375 328.417969 88.679688 "/>
<path style=" stroke:none;fill-rule:nonzero;fill:rgb(100%,0%,0%);fill-opacity:1;" d="M 577.492188 180.730469 C 577.492188 182.0625 575.492188 182.0625 575.492188 180.730469 C 575.492188 179.398438 577.492188 179.398438 577.492188 180.730469 "/>
<path style=" stroke:none;fill-rule:nonzero;fill:rgb(100%,0%,0%);fill-opacity:1;" d="M 581 216.363281 C 581 217.695312 579 217.695312 579 216.363281 C 579 215.027344 581 215.027344 581 216.363281 "/>
<path style=" stroke:none;fill-rule:nonzero;fill:rgb(100%,0%,0%);fill-opacity:1;" d="M 573.476562 145.160156 C 573.476562 146.496094 571.476562 146.496094 571.476562 145.160156 C 571.476562 143.828125 573.476562 143.828125 573.476562 145.160156 "/>
</g>
</svg>
