<?xml version="1.0" encoding="UTF-8"?>
<svg xmlns="http://www.w3.org/2000/svg" xmlns:xlink="http://www.w3.org/1999/xlink" width="600" height="600" viewBox="0 0 600 600">
<rect x="-60" y="-60" width="720" height="720" fill="rgb(100%, 100%, 100%)" fill-opacity="1"/>
<path fill="none" stroke-width="0.2" stroke-linecap="butt" stroke-linejoin="miter" stroke="rgb(26.666667%, 26.666667%, 26.666667%)" stroke-opacity="1" stroke-miterlimit="10" d="M 579.835938 276.535156 L 579.480469 314.21875 "/>
<path fill-rule="nonzero" fill="rgb(26.666667%, 26.666667%, 26.666667%)" fill-opacity="1" d="M 579.480469 314.359375 L 579.433594 314.214844 L 579.527344 314.21875 L 579.480469 314.359375 "/>
<path fill="none" stroke-width="0.2" stroke-linecap="butt" stroke-linejoin="miter" stroke="rgb(26.666667%, 26.666667%, 26.666667%)" stroke-opacity="1" stroke-miterlimit="10" d="M 579.835938 276.535156 L 579.996094 238.84375 "/>
<path fill-rule="nonzero" fill="rgb(26.666667%, 26.666667%, 26.666667%)" fill-opacity="1" d="M 579.996094 238.699219 L 580.042969 238.84375 L 579.949219 238.84375 L 579.996094 238.699219 "/>
<path fill="none" stroke-width="0.2" stroke-linecap="butt" stroke-linejoin="miter" stroke="rgb(26.666667%, 26.666667%, 26.666667%)" stroke-opacity="1" stroke-miterlimit="10" d="M 430.75 510.097656 L 450.910156 483.105469 "/>
<path fill-rule="nonzero" fill="rgb(26.666667%, 26.666667%, 26.666667%)" fill-opacity="1" d="M 450.992188 482.988281 L 450.945312 483.132812 L 450.871094 483.074219 L 450.992188 482.988281 "/>
<path fill="none" stroke-width="0.2" stroke-linecap="butt" stroke-linejoin="miter" stroke="rgb(26.666667%, 26.666667%, 26.666667%)" stroke-opacity="1" stroke-miterlimit="10" d="M 430.75 510.097656 L 410.867188 537.421875 "/>
<path fill-rule="nonzero" fill="rgb(26.666667%, 26.666667%, 26.666667%)" fill-opacity="1" d="M 410.78125 537.535156 L 410.828125 537.394531 L 410.902344 537.449219 L 410.78125 537.535156 "/>
<path fill="none" stroke-width="0.2" stroke-linecap="butt" stroke-linejoin="miter" stroke="rgb(26.666667%, 26.666667%, 26.666667%)" stroke-opacity="1" stroke-miterlimit="10" d="M 204.410156 576.574219 L 233.472656 573.300781 "/>
<path fill-rule="nonzero" fill="rgb(26.666667%, 26.666667%, 26.666667%)" fill-opacity="1" d="M 233.613281 573.285156 L 233.476562 573.347656 L 233.46875 573.253906 L 233.613281 573.285156 "/>
<path fill="none" stroke-width="0.2" stroke-linecap="butt" stroke-linejoin="miter" stroke="rgb(26.666667%, 26.666667%, 26.666667%)" stroke-opacity="1" stroke-miterlimit="10" d="M 204.410156 576.574219 L 175.335938 579.871094 "/>
<path fill-rule="nonzero" fill="rgb(26.666667%, 26.666667%, 26.666667%)" fill-opacity="1" d="M 175.195312 579.886719 L 175.332031 579.824219 L 175.34375 579.917969 L 175.195312 579.886719 "/>
<path fill="none" stroke-width="0.2" stroke-linecap="butt" stroke-linejoin="miter" stroke="rgb(26.666667%, 26.666667%, 26.666667%)" stroke-opacity="1" stroke-miterlimit="10" d="M 207.949219 335.890625 L 180.273438 324.507812 "/>
<path fill-rule="nonzero" fill="rgb(26.666667%, 26.666667%, 26.666667%)" fill-opacity="1" d="M 180.140625 324.453125 L 180.292969 324.464844 L 180.257812 324.550781 L 180.140625 324.453125 "/>
<path fill="none" stroke-width="0.2" stroke-linecap="butt" stroke-linejoin="miter" stroke="rgb(26.666667%, 26.666667%, 26.666667%)" stroke-opacity="1" stroke-miterlimit="10" d="M 207.949219 335.890625 L 235.660156 347.085938 "/>
<path fill-rule="nonzero" fill="rgb(26.666667%, 26.666667%, 26.666667%)" fill-opacity="1" d="M 235.792969 347.136719 L 235.640625 347.128906 L 235.675781 347.042969 L 235.792969 347.136719 "/>
<path fill="none" stroke-width="0.2" stroke-linecap="butt" stroke-linejoin="miter" stroke="rgb(26.666667%, 26.666667%, 26.666667%)" stroke-opacity="1" stroke-miterlimit="10" d="M 176.847656 67.269531 L 182.539062 21.132812 "/>
<path fill-rule="nonzero" fill="rgb(26.666667%, 26.666667%, 26.666667%)" fill-opacity="1" d="M 182.554688 20.992188 L 182.582031 21.140625 L 182.492188 21.128906 L 182.554688 20.992188 "/>
<path fill="none" stroke-width="0.2" stroke-linecap="butt" stroke-linejoin="miter" stroke="rgb(26.666667%, 26.666667%, 26.666667%)" stroke-opacity="1" stroke-miterlimit="10" d="M 176.847656 67.269531 L 193.613281 108.480469 "/>
<path fill-rule="nonzero" fill="rgb(26.666667%, 26.666667%, 26.666667%)" fill-opacity="1" d="M 193.664062 108.613281 L 193.570312 108.5 L 193.65625 108.464844 L 193.664062 108.613281 "/>
<path fill="none" stroke-width="0.2" stroke-linecap="butt" stroke-linejoin="miter" stroke="rgb(26.666667%, 26.666667%, 26.666667%)" stroke-opacity="1" stroke-miterlimit="10" d="M 176.847656 67.269531 L 212.675781 59.542969 "/>
<path fill-rule="nonzero" fill="rgb(26.666667%, 26.666667%, 26.666667%)" fill-opacity="1" d="M 212.816406 59.511719 L 212.683594 59.589844 L 212.664062 59.496094 L 212.816406 59.511719 "/>
<path fill="none" stroke-width="0.2" stroke-linecap="butt" stroke-linejoin="miter" stroke="rgb(26.666667%, 26.666667%, 26.666667%)" stroke-opacity="1" stroke-miterlimit="10" d="M 176.847656 67.269531 L 144.34375 46.710938 "/>
<path fill-rule="nonzero" fill="rgb(26.666667%, 26.666667%, 26.666667%)" fill-opacity="1" d="M 144.222656 46.632812 L 144.367188 46.671875 L 144.316406 46.75 L 144.222656 46.632812 "/>
<path fill="none" stroke-width="0.2" stroke-linecap="butt" stroke-linejoin="miter" stroke="rgb(26.666667%, 26.666667%, 26.666667%)" stroke-opacity="1" stroke-miterlimit="10" d="M 176.847656 67.269531 L 151.097656 100.457031 "/>
<path fill-rule="nonzero" fill="rgb(26.666667%, 26.666667%, 26.666667%)" fill-opacity="1" d="M 151.011719 100.570312 L 151.0625 100.425781 L 151.136719 100.484375 L 151.011719 100.570312 "/>
<path fill="none" stroke-width="0.2" stroke-linecap="butt" stroke-linejoin="miter" stroke="rgb(26.666667%, 26.666667%, 26.666667%)" stroke-opacity="1" stroke-miterlimit="10" d="M 385.859375 69.726562 L 368.636719 99.933594 "/>
<path fill-rule="nonzero" fill="rgb(26.666667%, 26.666667%, 26.666667%)" fill-opacity="1" d="M 368.566406 100.058594 L 368.597656 99.910156 L 368.675781 99.957031 L 368.566406 100.058594 "/>
<path fill="none" stroke-width="0.2" stroke-linecap="butt" stroke-linejoin="miter" stroke="rgb(26.666667%, 26.666667%, 26.666667%)" stroke-opacity="1" stroke-miterlimit="10" d="M 385.859375 69.726562 L 402.957031 39.4375 "/>
<path fill-rule="nonzero" fill="rgb(26.666667%, 26.666667%, 26.666667%)" fill-opacity="1" d="M 403.027344 39.3125 L 402.996094 39.460938 L 402.917969 39.414062 L 403.027344 39.3125 "/>
<path fill="none" stroke-width="0.2" stroke-linecap="butt" stroke-linejoin="miter" stroke="rgb(26.666667%, 26.666667%, 26.666667%)" stroke-opacity="1" stroke-miterlimit="10" d="M 33.867188 382.230469 L 20.425781 348.824219 "/>
<path fill-rule="nonzero" fill="rgb(26.666667%, 26.666667%, 26.666667%)" fill-opacity="1" d="M 20.375 348.691406 L 20.46875 348.808594 L 20.382812 348.84375 L 20.375 348.691406 "/>
<path fill="none" stroke-width="0.2" stroke-linecap="butt" stroke-linejoin="miter" stroke="rgb(26.666667%, 26.666667%, 26.666667%)" stroke-opacity="1" stroke-miterlimit="10" d="M 33.867188 382.230469 L 47.355469 415.597656 "/>
<path fill-rule="nonzero" fill="rgb(26.666667%, 26.666667%, 26.666667%)" fill-opacity="1" d="M 47.410156 415.726562 L 47.3125 415.613281 L 47.398438 415.578125 L 47.410156 415.726562 "/>
<path fill="none" stroke-width="0.2" stroke-linecap="butt" stroke-linejoin="miter" stroke="rgb(26.666667%, 26.666667%, 26.666667%)" stroke-opacity="1" stroke-miterlimit="10" d="M 410.203125 279.890625 L 431.160156 253.9375 "/>
<path fill-rule="nonzero" fill="rgb(26.666667%, 26.666667%, 26.666667%)" fill-opacity="1" d="M 431.25 253.828125 L 431.199219 253.964844 L 431.125 253.910156 L 431.25 253.828125 "/>
<path fill="none" stroke-width="0.2" stroke-linecap="butt" stroke-linejoin="miter" stroke="rgb(26.666667%, 26.666667%, 26.666667%)" stroke-opacity="1" stroke-miterlimit="10" d="M 410.203125 279.890625 L 389.09375 305.59375 "/>
<path fill-rule="nonzero" fill="rgb(26.666667%, 26.666667%, 26.666667%)" fill-opacity="1" d="M 389.003906 305.703125 L 389.058594 305.5625 L 389.128906 305.621094 L 389.003906 305.703125 "/>
<path fill-rule="nonzero" fill="rgb(100%, 0%, 0%)" fill-opacity="1" stroke-width="0.01" stroke-linecap="butt" stroke-linejoin="miter" stroke="rgb(0%, 0%, 0%)" stroke-opacity="1" stroke-miterlimit="10" d="M 580.835938 276.535156 C 580.835938 277.871094 578.835938 277.871094 578.835938 276.535156 C 578.835938 275.203125 580.835938 275.203125 580.835938 276.535156 "/>
<path fill-rule="nonzero" fill="rgb(100%, 0%, 0%)" fill-opacity="1" stroke-width="0.01" stroke-linecap="butt" stroke-linejoin="miter" stroke="rgb(0%, 0%, 0%)" stroke-opacity="1" stroke-miterlimit="10" d="M 580.46875 315.359375 C 580.46875 316.691406 578.46875 316.691406 578.46875 315.359375 C 578.46875 314.027344 580.46875 314.027344 580.46875 315.359375 "/>
<path fill-rule="nonzero" fill="rgb(100%, 0%, 0%)" fill-opacity="1" stroke-width="0.01" stroke-linecap="butt" stroke-linejoin="miter" stroke="rgb(0%, 0%, 0%)" stroke-opacity="1" stroke-miterlimit="10" d="M 581 237.699219 C 581 239.035156 579 239.035156 579 237.699219 C 579 236.367188 581 236.367188 581 237.699219 "/>
<path fill-rule="nonzero" fill="rgb(100%, 0%, 0%)" fill-opacity="1" stroke-width="0.01" stroke-linecap="butt" stroke-linejoin="miter" stroke="rgb(0%, 0%, 0%)" stroke-opacity="1" stroke-miterlimit="10" d="M 431.75 510.097656 C 431.75 511.429688 429.75 511.429688 429.75 510.097656 C 429.75 508.765625 431.75 508.765625 431.75 510.097656 "/>
<path fill-rule="nonzero" fill="rgb(100%, 0%, 0%)" fill-opacity="1" stroke-width="0.01" stroke-linecap="butt" stroke-linejoin="miter" stroke="rgb(0%, 0%, 0%)" stroke-opacity="1" stroke-miterlimit="10" d="M 452.59375 482.1875 C 452.59375 483.519531 450.59375 483.519531 450.59375 482.1875 C 450.59375 480.855469 452.59375 480.855469 452.59375 482.1875 "/>
<path fill-rule="nonzero" fill="rgb(100%, 0%, 0%)" fill-opacity="1" stroke-width="0.01" stroke-linecap="butt" stroke-linejoin="miter" stroke="rgb(0%, 0%, 0%)" stroke-opacity="1" stroke-miterlimit="10" d="M 411.195312 538.34375 C 411.195312 539.679688 409.195312 539.679688 409.195312 538.34375 C 409.195312 537.011719 411.195312 537.011719 411.195312 538.34375 "/>
<path fill-rule="nonzero" fill="rgb(100%, 0%, 0%)" fill-opacity="1" stroke-width="0.01" stroke-linecap="butt" stroke-linejoin="miter" stroke="rgb(0%, 0%, 0%)" stroke-opacity="1" stroke-miterlimit="10" d="M 205.410156 576.574219 C 205.410156 577.90625 203.410156 577.90625 203.410156 576.574219 C 203.410156 575.238281 205.410156 575.238281 205.410156 576.574219 "/>
<path fill-rule="nonzero" fill="rgb(100%, 0%, 0%)" fill-opacity="1" stroke-width="0.01" stroke-linecap="butt" stroke-linejoin="miter" stroke="rgb(0%, 0%, 0%)" stroke-opacity="1" stroke-miterlimit="10" d="M 235.609375 573.175781 C 235.609375 574.507812 233.609375 574.507812 233.609375 573.175781 C 233.609375 571.839844 235.609375 571.839844 235.609375 573.175781 "/>
<path fill-rule="nonzero" fill="rgb(100%, 0%, 0%)" fill-opacity="1" stroke-width="0.01" stroke-linecap="butt" stroke-linejoin="miter" stroke="rgb(0%, 0%, 0%)" stroke-opacity="1" stroke-miterlimit="10" d="M 175.203125 580 C 175.203125 581.332031 173.203125 581.332031 173.203125 580 C 173.203125 578.667969 175.203125 578.667969 175.203125 580 "/>
<path fill-rule="nonzero" fill="rgb(100%, 0%, 0%)" fill-opacity="1" stroke-width="0.01" stroke-linecap="butt" stroke-linejoin="miter" stroke="rgb(0%, 0%, 0%)" stroke-opacity="1" stroke-miterlimit="10" d="M 208.949219 335.890625 C 208.949219 337.222656 206.949219 337.222656 206.949219 335.890625 C 206.949219 334.554688 208.949219 334.554688 208.949219 335.890625 "/>
<path fill-rule="nonzero" fill="rgb(100%, 0%, 0%)" fill-opacity="1" stroke-width="0.01" stroke-linecap="butt" stroke-linejoin="miter" stroke="rgb(0%, 0%, 0%)" stroke-opacity="1" stroke-miterlimit="10" d="M 180.21875 324.074219 C 180.21875 325.40625 178.21875 325.40625 178.21875 324.074219 C 178.21875 322.742188 180.21875 322.742188 180.21875 324.074219 "/>
<path fill-rule="nonzero" fill="rgb(100%, 0%, 0%)" fill-opacity="1" stroke-width="0.01" stroke-linecap="butt" stroke-linejoin="miter" stroke="rgb(0%, 0%, 0%)" stroke-opacity="1" stroke-miterlimit="10" d="M 237.71875 347.511719 C 237.71875 348.847656 235.71875 348.847656 235.71875 347.511719 C 235.71875 346.179688 237.71875 346.179688 237.71875 347.511719 "/>
<path fill-rule="nonzero" fill="rgb(100%, 0%, 0%)" fill-opacity="1" stroke-width="0.01" stroke-linecap="butt" stroke-linejoin="miter" stroke="rgb(0%, 0%, 0%)" stroke-opacity="1" stroke-miterlimit="10" d="M 177.847656 67.269531 C 177.847656 68.601562 175.847656 68.601562 175.847656 67.269531 C 175.847656 65.9375 177.847656 65.9375 177.847656 67.269531 "/>
<path fill-rule="nonzero" fill="rgb(100%, 0%, 0%)" fill-opacity="1" stroke-width="0.01" stroke-linecap="butt" stroke-linejoin="miter" stroke="rgb(0%, 0%, 0%)" stroke-opacity="1" stroke-miterlimit="10" d="M 183.675781 20 C 183.675781 21.332031 181.675781 21.332031 181.675781 20 C 181.675781 18.667969 183.675781 18.667969 183.675781 20 "/>
<path fill-rule="nonzero" fill="rgb(100%, 0%, 0%)" fill-opacity="1" stroke-width="0.01" stroke-linecap="butt" stroke-linejoin="miter" stroke="rgb(0%, 0%, 0%)" stroke-opacity="1" stroke-miterlimit="10" d="M 195.042969 109.539062 C 195.042969 110.871094 193.042969 110.871094 193.042969 109.539062 C 193.042969 108.207031 195.042969 108.207031 195.042969 109.539062 "/>
<path fill-rule="nonzero" fill="rgb(100%, 0%, 0%)" fill-opacity="1" stroke-width="0.01" stroke-linecap="butt" stroke-linejoin="miter" stroke="rgb(0%, 0%, 0%)" stroke-opacity="1" stroke-miterlimit="10" d="M 214.792969 59.300781 C 214.792969 60.636719 212.792969 60.636719 212.792969 59.300781 C 212.792969 57.96875 214.792969 57.96875 214.792969 59.300781 "/>
<path fill-rule="nonzero" fill="rgb(100%, 0%, 0%)" fill-opacity="1" stroke-width="0.01" stroke-linecap="butt" stroke-linejoin="miter" stroke="rgb(0%, 0%, 0%)" stroke-opacity="1" stroke-miterlimit="10" d="M 144.375 46.101562 C 144.375 47.433594 142.375 47.433594 142.375 46.101562 C 142.375 44.765625 144.375 44.765625 144.375 46.101562 "/>
<path fill-rule="nonzero" fill="rgb(100%, 0%, 0%)" fill-opacity="1" stroke-width="0.01" stroke-linecap="butt" stroke-linejoin="miter" stroke="rgb(0%, 0%, 0%)" stroke-opacity="1" stroke-miterlimit="10" d="M 151.398438 101.359375 C 151.398438 102.691406 149.398438 102.691406 149.398438 101.359375 C 149.398438 100.023438 151.398438 100.023438 151.398438 101.359375 "/>
<path fill-rule="nonzero" fill="rgb(100%, 0%, 0%)" fill-opacity="1" stroke-width="0.01" stroke-linecap="butt" stroke-linejoin="miter" stroke="rgb(0%, 0%, 0%)" stroke-opacity="1" stroke-miterlimit="10" d="M 386.859375 69.726562 C 386.859375 71.058594 384.859375 71.058594 384.859375 69.726562 C 384.859375 68.390625 386.859375 68.390625 386.859375 69.726562 "/>
<path fill-rule="nonzero" fill="rgb(100%, 0%, 0%)" fill-opacity="1" stroke-width="0.01" stroke-linecap="butt" stroke-linejoin="miter" stroke="rgb(0%, 0%, 0%)" stroke-opacity="1" stroke-miterlimit="10" d="M 369.070312 100.925781 C 369.070312 102.257812 367.070312 102.257812 367.070312 100.925781 C 367.070312 99.59375 369.070312 99.59375 369.070312 100.925781 "/>
<path fill-rule="nonzero" fill="rgb(100%, 0%, 0%)" fill-opacity="1" stroke-width="0.01" stroke-linecap="butt" stroke-linejoin="miter" stroke="rgb(0%, 0%, 0%)" stroke-opacity="1" stroke-miterlimit="10" d="M 404.519531 38.441406 C 404.519531 39.773438 402.519531 39.773438 402.519531 38.441406 C 402.519531 37.109375 404.519531 37.109375 404.519531 38.441406 "/>
<path fill-rule="nonzero" fill="rgb(100%, 0%, 0%)" fill-opacity="1" stroke-width="0.01" stroke-linecap="butt" stroke-linejoin="miter" stroke="rgb(0%, 0%, 0%)" stroke-opacity="1" stroke-miterlimit="10" d="M 34.867188 382.230469 C 34.867188 383.566406 32.867188 383.566406 32.867188 382.230469 C 32.867188 380.898438 34.867188 380.898438 34.867188 382.230469 "/>
<path fill-rule="nonzero" fill="rgb(100%, 0%, 0%)" fill-opacity="1" stroke-width="0.01" stroke-linecap="butt" stroke-linejoin="miter" stroke="rgb(0%, 0%, 0%)" stroke-opacity="1" stroke-miterlimit="10" d="M 21 347.765625 C 21 349.097656 19 349.097656 19 347.765625 C 19 346.433594 21 346.433594 21 347.765625 "/>
<path fill-rule="nonzero" fill="rgb(100%, 0%, 0%)" fill-opacity="1" stroke-width="0.01" stroke-linecap="butt" stroke-linejoin="miter" stroke="rgb(0%, 0%, 0%)" stroke-opacity="1" stroke-miterlimit="10" d="M 48.785156 416.65625 C 48.785156 417.988281 46.785156 417.988281 46.785156 416.65625 C 46.785156 415.320312 48.785156 415.320312 48.785156 416.65625 "/>
<path fill-rule="nonzero" fill="rgb(100%, 0%, 0%)" fill-opacity="1" stroke-width="0.01" stroke-linecap="butt" stroke-linejoin="miter" stroke="rgb(0%, 0%, 0%)" stroke-opacity="1" stroke-miterlimit="10" d="M 411.203125 279.890625 C 411.203125 281.226562 409.203125 281.226562 409.203125 279.890625 C 409.203125 278.558594 411.203125 278.558594 411.203125 279.890625 "/>
<path fill-rule="nonzero" fill="rgb(100%, 0%, 0%)" fill-opacity="1" stroke-width="0.01" stroke-linecap="butt" stroke-linejoin="miter" stroke="rgb(0%, 0%, 0%)" stroke-opacity="1" stroke-miterlimit="10" d="M 432.878906 253.046875 C 432.878906 254.382812 430.878906 254.382812 430.878906 253.046875 C 430.878906 251.714844 432.878906 251.714844 432.878906 253.046875 "/>
<path fill-rule="nonzero" fill="rgb(100%, 0%, 0%)" fill-opacity="1" stroke-width="0.01" stroke-linecap="butt" stroke-linejoin="miter" stroke="rgb(0%, 0%, 0%)" stroke-opacity="1" stroke-miterlimit="10" d="M 389.367188 306.476562 C 389.367188 307.808594 387.367188 307.808594 387.367188 306.476562 C 387.367188 305.140625 389.367188 305.140625 389.367188 306.476562 "/>
</svg>
