<?xml version="1.0" encoding="UTF-8"?>
<svg xmlns="http://www.w3.org/2000/svg" xmlns:xlink="http://www.w3.org/1999/xlink" width="600pt" height="600pt" viewBox="0 0 600 600" version="1.1">
<g id="surface11">
<rect x="0" y="0" width="600" height="600" style="fill:rgb(100%,100%,100%);fill-opacity:1;stroke:none;"/>
<path style="fill:none;stroke-width:0.2;stroke-linecap:butt;stroke-linejoin:miter;stroke:rgb(26.666667%,26.666667%,26.666667%);stroke-opacity:1;stroke-miterlimit:10;" d="M 268.25 194.871094 L 250.769531 203.503906 "/>
<path style="fill:none;stroke-width:0.2;stroke-linecap:butt;stroke-linejoin:miter;stroke:rgb(26.666667%,26.666667%,26.666667%);stroke-opacity:1;stroke-miterlimit:10;" d="M 555.820312 298.335938 L 529.160156 289.683594 "/>
<path style="fill:none;stroke-width:0.2;stroke-linecap:butt;stroke-linejoin:miter;stroke:rgb(26.666667%,26.666667%,26.666667%);stroke-opacity:1;stroke-miterlimit:10;" d="M 555.820312 298.335938 L 537.160156 323.027344 "/>
<path style="fill:none;stroke-width:0.2;stroke-linecap:butt;stroke-linejoin:miter;stroke:rgb(26.666667%,26.666667%,26.666667%);stroke-opacity:1;stroke-miterlimit:10;" d="M 555.820312 298.335938 L 577.222656 316.433594 "/>
<path style="fill:none;stroke-width:0.2;stroke-linecap:butt;stroke-linejoin:miter;stroke:rgb(26.666667%,26.666667%,26.666667%);stroke-opacity:1;stroke-miterlimit:10;" d="M 555.820312 298.335938 L 578.917969 279.242188 "/>
<path style="fill:none;stroke-width:0.2;stroke-linecap:butt;stroke-linejoin:miter;stroke:rgb(26.666667%,26.666667%,26.666667%);stroke-opacity:1;stroke-miterlimit:10;" d="M 555.820312 298.335938 L 579 298.257812 "/>
<path style="fill:none;stroke-width:0.2;stroke-linecap:butt;stroke-linejoin:miter;stroke:rgb(26.666667%,26.666667%,26.666667%);stroke-opacity:1;stroke-miterlimit:10;" d="M 555.820312 298.335938 L 559.429688 278.285156 "/>
<path style="fill:none;stroke-width:0.2;stroke-linecap:butt;stroke-linejoin:miter;stroke:rgb(26.666667%,26.666667%,26.666667%);stroke-opacity:1;stroke-miterlimit:10;" d="M 555.820312 298.335938 L 541.265625 273.132812 "/>
<path style="fill:none;stroke-width:0.2;stroke-linecap:butt;stroke-linejoin:miter;stroke:rgb(26.666667%,26.666667%,26.666667%);stroke-opacity:1;stroke-miterlimit:10;" d="M 555.820312 298.335938 L 538.375 305.078125 "/>
<path style="fill:none;stroke-width:0.2;stroke-linecap:butt;stroke-linejoin:miter;stroke:rgb(26.666667%,26.666667%,26.666667%);stroke-opacity:1;stroke-miterlimit:10;" d="M 555.820312 298.335938 L 558.351562 322.175781 "/>
<path style="fill:none;stroke-width:0.2;stroke-linecap:butt;stroke-linejoin:miter;stroke:rgb(26.666667%,26.666667%,26.666667%);stroke-opacity:1;stroke-miterlimit:10;" d="M 148.242188 317.511719 L 171.167969 313.609375 "/>
<path style="fill:none;stroke-width:0.2;stroke-linecap:butt;stroke-linejoin:miter;stroke:rgb(26.666667%,26.666667%,26.666667%);stroke-opacity:1;stroke-miterlimit:10;" d="M 389.402344 326.851562 L 386.296875 308.433594 "/>
<path style="fill:none;stroke-width:0.2;stroke-linecap:butt;stroke-linejoin:miter;stroke:rgb(26.666667%,26.666667%,26.666667%);stroke-opacity:1;stroke-miterlimit:10;" d="M 427.714844 283.636719 L 450.238281 284.183594 "/>
<path style="fill:none;stroke-width:0.2;stroke-linecap:butt;stroke-linejoin:miter;stroke:rgb(26.666667%,26.666667%,26.666667%);stroke-opacity:1;stroke-miterlimit:10;" d="M 427.714844 283.636719 L 438.652344 263.8125 "/>
<path style="fill:none;stroke-width:0.2;stroke-linecap:butt;stroke-linejoin:miter;stroke:rgb(26.666667%,26.666667%,26.666667%);stroke-opacity:1;stroke-miterlimit:10;" d="M 427.714844 283.636719 L 387 306.949219 "/>
<path style="fill:none;stroke-width:0.2;stroke-linecap:butt;stroke-linejoin:miter;stroke:rgb(26.666667%,26.666667%,26.666667%);stroke-opacity:1;stroke-miterlimit:10;" d="M 350.648438 277.386719 L 331.066406 259.386719 "/>
<path style="fill:none;stroke-width:0.2;stroke-linecap:butt;stroke-linejoin:miter;stroke:rgb(26.666667%,26.666667%,26.666667%);stroke-opacity:1;stroke-miterlimit:10;" d="M 318.621094 439.695312 L 310.320312 419.75 "/>
<path style="fill:none;stroke-width:0.2;stroke-linecap:butt;stroke-linejoin:miter;stroke:rgb(26.666667%,26.666667%,26.666667%);stroke-opacity:1;stroke-miterlimit:10;" d="M 401.898438 295.011719 L 386.917969 306.828125 "/>
<path style="fill:none;stroke-width:0.2;stroke-linecap:butt;stroke-linejoin:miter;stroke:rgb(26.666667%,26.666667%,26.666667%);stroke-opacity:1;stroke-miterlimit:10;" d="M 158.992188 296.257812 L 171.546875 312.648438 "/>
<path style="fill:none;stroke-width:0.2;stroke-linecap:butt;stroke-linejoin:miter;stroke:rgb(26.666667%,26.666667%,26.666667%);stroke-opacity:1;stroke-miterlimit:10;" d="M 253.960938 470.042969 L 259.660156 446.117188 "/>
<path style="fill:none;stroke-width:0.2;stroke-linecap:butt;stroke-linejoin:miter;stroke:rgb(26.666667%,26.666667%,26.666667%);stroke-opacity:1;stroke-miterlimit:10;" d="M 263.015625 575.167969 L 280.746094 577.492188 "/>
<path style="fill:none;stroke-width:0.2;stroke-linecap:butt;stroke-linejoin:miter;stroke:rgb(26.666667%,26.666667%,26.666667%);stroke-opacity:1;stroke-miterlimit:10;" d="M 292.613281 22.75 L 310.238281 20.144531 "/>
<path style="fill:none;stroke-width:0.2;stroke-linecap:butt;stroke-linejoin:miter;stroke:rgb(26.666667%,26.666667%,26.666667%);stroke-opacity:1;stroke-miterlimit:10;" d="M 292.613281 22.75 L 274.96875 25.179688 "/>
<path style="fill:none;stroke-width:0.2;stroke-linecap:butt;stroke-linejoin:miter;stroke:rgb(26.666667%,26.666667%,26.666667%);stroke-opacity:1;stroke-miterlimit:10;" d="M 332.710938 336.667969 L 319.339844 326.867188 "/>
<path style="fill:none;stroke-width:0.2;stroke-linecap:butt;stroke-linejoin:miter;stroke:rgb(26.666667%,26.666667%,26.666667%);stroke-opacity:1;stroke-miterlimit:10;" d="M 332.710938 336.667969 L 385.253906 307.925781 "/>
<path style="fill:none;stroke-width:0.2;stroke-linecap:butt;stroke-linejoin:miter;stroke:rgb(26.666667%,26.666667%,26.666667%);stroke-opacity:1;stroke-miterlimit:10;" d="M 332.710938 336.667969 L 297.972656 360.898438 "/>
<path style="fill:none;stroke-width:0.2;stroke-linecap:butt;stroke-linejoin:miter;stroke:rgb(26.666667%,26.666667%,26.666667%);stroke-opacity:1;stroke-miterlimit:10;" d="M 396.851562 194 L 373.710938 216.105469 "/>
<path style="fill:none;stroke-width:0.2;stroke-linecap:butt;stroke-linejoin:miter;stroke:rgb(26.666667%,26.666667%,26.666667%);stroke-opacity:1;stroke-miterlimit:10;" d="M 396.851562 194 L 412.847656 179.582031 "/>
<path style="fill:none;stroke-width:0.2;stroke-linecap:butt;stroke-linejoin:miter;stroke:rgb(26.666667%,26.666667%,26.666667%);stroke-opacity:1;stroke-miterlimit:10;" d="M 423.101562 493.535156 L 443.25 493.847656 "/>
<path style="fill:none;stroke-width:0.2;stroke-linecap:butt;stroke-linejoin:miter;stroke:rgb(26.666667%,26.666667%,26.666667%);stroke-opacity:1;stroke-miterlimit:10;" d="M 423.101562 493.535156 L 402.796875 493.445312 "/>
<path style="fill:none;stroke-width:0.2;stroke-linecap:butt;stroke-linejoin:miter;stroke:rgb(26.666667%,26.666667%,26.666667%);stroke-opacity:1;stroke-miterlimit:10;" d="M 423.101562 493.535156 L 424.671875 474.261719 "/>
<path style="fill:none;stroke-width:0.2;stroke-linecap:butt;stroke-linejoin:miter;stroke:rgb(26.666667%,26.666667%,26.666667%);stroke-opacity:1;stroke-miterlimit:10;" d="M 423.101562 493.535156 L 422.15625 512.820312 "/>
<path style="fill:none;stroke-width:0.2;stroke-linecap:butt;stroke-linejoin:miter;stroke:rgb(26.666667%,26.666667%,26.666667%);stroke-opacity:1;stroke-miterlimit:10;" d="M 200.53125 299.007812 L 173.046875 312.988281 "/>
<path style="fill:none;stroke-width:0.2;stroke-linecap:butt;stroke-linejoin:miter;stroke:rgb(26.666667%,26.666667%,26.666667%);stroke-opacity:1;stroke-miterlimit:10;" d="M 200.53125 299.007812 L 212.019531 283.1875 "/>
<path style="fill:none;stroke-width:0.2;stroke-linecap:butt;stroke-linejoin:miter;stroke:rgb(26.666667%,26.666667%,26.666667%);stroke-opacity:1;stroke-miterlimit:10;" d="M 200.53125 299.007812 L 220.574219 303.742188 "/>
<path style="fill:none;stroke-width:0.2;stroke-linecap:butt;stroke-linejoin:miter;stroke:rgb(26.666667%,26.666667%,26.666667%);stroke-opacity:1;stroke-miterlimit:10;" d="M 346.488281 306.808594 L 352.960938 338.328125 "/>
<path style="fill:none;stroke-width:0.2;stroke-linecap:butt;stroke-linejoin:miter;stroke:rgb(26.666667%,26.666667%,26.666667%);stroke-opacity:1;stroke-miterlimit:10;" d="M 346.488281 306.808594 L 358.707031 320.257812 "/>
<path style="fill:none;stroke-width:0.2;stroke-linecap:butt;stroke-linejoin:miter;stroke:rgb(26.666667%,26.666667%,26.666667%);stroke-opacity:1;stroke-miterlimit:10;" d="M 346.488281 306.808594 L 330.648438 259.65625 "/>
<path style="fill:none;stroke-width:0.2;stroke-linecap:butt;stroke-linejoin:miter;stroke:rgb(26.666667%,26.666667%,26.666667%);stroke-opacity:1;stroke-miterlimit:10;" d="M 274.910156 393.441406 L 259.160156 399.398438 "/>
<path style="fill:none;stroke-width:0.2;stroke-linecap:butt;stroke-linejoin:miter;stroke:rgb(26.666667%,26.666667%,26.666667%);stroke-opacity:1;stroke-miterlimit:10;" d="M 274.910156 393.441406 L 260.171875 444.183594 "/>
<path style="fill:none;stroke-width:0.2;stroke-linecap:butt;stroke-linejoin:miter;stroke:rgb(26.666667%,26.666667%,26.666667%);stroke-opacity:1;stroke-miterlimit:10;" d="M 274.910156 393.441406 L 240.769531 389.453125 "/>
<path style="fill:none;stroke-width:0.2;stroke-linecap:butt;stroke-linejoin:miter;stroke:rgb(26.666667%,26.666667%,26.666667%);stroke-opacity:1;stroke-miterlimit:10;" d="M 274.910156 393.441406 L 309.128906 418.242188 "/>
<path style="fill:none;stroke-width:0.2;stroke-linecap:butt;stroke-linejoin:miter;stroke:rgb(26.666667%,26.666667%,26.666667%);stroke-opacity:1;stroke-miterlimit:10;" d="M 274.910156 393.441406 L 249.625 414.054688 "/>
<path style="fill:none;stroke-width:0.2;stroke-linecap:butt;stroke-linejoin:miter;stroke:rgb(26.666667%,26.666667%,26.666667%);stroke-opacity:1;stroke-miterlimit:10;" d="M 274.910156 393.441406 L 261.40625 377.847656 "/>
<path style="fill:none;stroke-width:0.2;stroke-linecap:butt;stroke-linejoin:miter;stroke:rgb(26.666667%,26.666667%,26.666667%);stroke-opacity:1;stroke-miterlimit:10;" d="M 274.910156 393.441406 L 294.386719 326.429688 "/>
<path style="fill:none;stroke-width:0.2;stroke-linecap:butt;stroke-linejoin:miter;stroke:rgb(26.666667%,26.666667%,26.666667%);stroke-opacity:1;stroke-miterlimit:10;" d="M 274.910156 393.441406 L 296.582031 362.292969 "/>
<path style="fill:none;stroke-width:0.2;stroke-linecap:butt;stroke-linejoin:miter;stroke:rgb(26.666667%,26.666667%,26.666667%);stroke-opacity:1;stroke-miterlimit:10;" d="M 274.910156 393.441406 L 279.199219 413.117188 "/>
<path style="fill:none;stroke-width:0.2;stroke-linecap:butt;stroke-linejoin:miter;stroke:rgb(26.666667%,26.666667%,26.666667%);stroke-opacity:1;stroke-miterlimit:10;" d="M 274.910156 393.441406 L 294.046875 391.925781 "/>
<path style="fill:none;stroke-width:0.2;stroke-linecap:butt;stroke-linejoin:miter;stroke:rgb(26.666667%,26.666667%,26.666667%);stroke-opacity:1;stroke-miterlimit:10;" d="M 411.09375 340.382812 L 424.039062 357.808594 "/>
<path style="fill:none;stroke-width:0.2;stroke-linecap:butt;stroke-linejoin:miter;stroke:rgb(26.666667%,26.666667%,26.666667%);stroke-opacity:1;stroke-miterlimit:10;" d="M 411.09375 340.382812 L 386.734375 308.242188 "/>
<path style="fill:none;stroke-width:0.2;stroke-linecap:butt;stroke-linejoin:miter;stroke:rgb(26.666667%,26.666667%,26.666667%);stroke-opacity:1;stroke-miterlimit:10;" d="M 413.65625 339.324219 C 413.65625 341.324219 410.65625 341.324219 410.65625 339.324219 C 410.65625 337.324219 413.65625 337.324219 413.65625 339.324219 "/>
<path style="fill:none;stroke-width:0.2;stroke-linecap:butt;stroke-linejoin:miter;stroke:rgb(26.666667%,26.666667%,26.666667%);stroke-opacity:1;stroke-miterlimit:10;" d="M 72.101562 424.726562 L 82.003906 438.386719 "/>
<path style="fill:none;stroke-width:0.2;stroke-linecap:butt;stroke-linejoin:miter;stroke:rgb(26.666667%,26.666667%,26.666667%);stroke-opacity:1;stroke-miterlimit:10;" d="M 21.011719 293.542969 L 22.027344 277.097656 "/>
<path style="fill:none;stroke-width:0.2;stroke-linecap:butt;stroke-linejoin:miter;stroke:rgb(26.666667%,26.666667%,26.666667%);stroke-opacity:1;stroke-miterlimit:10;" d="M 21.011719 293.542969 L 20.058594 309.984375 "/>
<path style="fill:none;stroke-width:0.2;stroke-linecap:butt;stroke-linejoin:miter;stroke:rgb(26.666667%,26.666667%,26.666667%);stroke-opacity:1;stroke-miterlimit:10;" d="M 227.949219 139.347656 L 230.304688 121.019531 "/>
<path style="fill:none;stroke-width:0.2;stroke-linecap:butt;stroke-linejoin:miter;stroke:rgb(26.666667%,26.666667%,26.666667%);stroke-opacity:1;stroke-miterlimit:10;" d="M 227.949219 139.347656 L 225.828125 164.0625 "/>
<path style="fill:none;stroke-width:0.2;stroke-linecap:butt;stroke-linejoin:miter;stroke:rgb(26.666667%,26.666667%,26.666667%);stroke-opacity:1;stroke-miterlimit:10;" d="M 411.519531 315.125 L 387.089844 307.734375 "/>
<path style="fill:none;stroke-width:0.2;stroke-linecap:butt;stroke-linejoin:miter;stroke:rgb(26.666667%,26.666667%,26.666667%);stroke-opacity:1;stroke-miterlimit:10;" d="M 375.28125 83.597656 L 357.488281 84.09375 "/>
<path style="fill:none;stroke-width:0.2;stroke-linecap:butt;stroke-linejoin:miter;stroke:rgb(26.666667%,26.666667%,26.666667%);stroke-opacity:1;stroke-miterlimit:10;" d="M 375.28125 83.597656 L 393.09375 83.328125 "/>
<path style="fill:none;stroke-width:0.2;stroke-linecap:butt;stroke-linejoin:miter;stroke:rgb(26.666667%,26.666667%,26.666667%);stroke-opacity:1;stroke-miterlimit:10;" d="M 188.109375 325.699219 L 172.949219 314.050781 "/>
<path style="fill:none;stroke-width:0.2;stroke-linecap:butt;stroke-linejoin:miter;stroke:rgb(26.666667%,26.666667%,26.666667%);stroke-opacity:1;stroke-miterlimit:10;" d="M 236.9375 453.515625 L 258.953125 445.488281 "/>
<path style="fill:none;stroke-width:0.2;stroke-linecap:butt;stroke-linejoin:miter;stroke:rgb(26.666667%,26.666667%,26.666667%);stroke-opacity:1;stroke-miterlimit:10;" d="M 165.308594 334.660156 L 171.847656 314.390625 "/>
<path style="fill:none;stroke-width:0.2;stroke-linecap:butt;stroke-linejoin:miter;stroke:rgb(26.666667%,26.666667%,26.666667%);stroke-opacity:1;stroke-miterlimit:10;" d="M 220.289062 209.191406 L 207.90625 221.902344 "/>
<path style="fill:none;stroke-width:0.2;stroke-linecap:butt;stroke-linejoin:miter;stroke:rgb(26.666667%,26.666667%,26.666667%);stroke-opacity:1;stroke-miterlimit:10;" d="M 220.289062 209.191406 L 248.890625 204.121094 "/>
<path style="fill:none;stroke-width:0.2;stroke-linecap:butt;stroke-linejoin:miter;stroke:rgb(26.666667%,26.666667%,26.666667%);stroke-opacity:1;stroke-miterlimit:10;" d="M 220.289062 209.191406 L 225.617188 166.050781 "/>
<path style="fill:none;stroke-width:0.2;stroke-linecap:butt;stroke-linejoin:miter;stroke:rgb(26.666667%,26.666667%,26.666667%);stroke-opacity:1;stroke-miterlimit:10;" d="M 220.289062 209.191406 L 213.070312 194.210938 "/>
<path style="fill:none;stroke-width:0.2;stroke-linecap:butt;stroke-linejoin:miter;stroke:rgb(26.666667%,26.666667%,26.666667%);stroke-opacity:1;stroke-miterlimit:10;" d="M 220.289062 209.191406 L 184.132812 190.894531 "/>
<path style="fill:none;stroke-width:0.2;stroke-linecap:butt;stroke-linejoin:miter;stroke:rgb(26.666667%,26.666667%,26.666667%);stroke-opacity:1;stroke-miterlimit:10;" d="M 220.289062 209.191406 L 234.5 224.300781 "/>
<path style="fill:none;stroke-width:0.2;stroke-linecap:butt;stroke-linejoin:miter;stroke:rgb(26.666667%,26.666667%,26.666667%);stroke-opacity:1;stroke-miterlimit:10;" d="M 220.289062 209.191406 L 176.90625 212.59375 "/>
<path style="fill:none;stroke-width:0.2;stroke-linecap:butt;stroke-linejoin:miter;stroke:rgb(26.666667%,26.666667%,26.666667%);stroke-opacity:1;stroke-miterlimit:10;" d="M 220.289062 209.191406 L 232.765625 190.863281 "/>
<path style="fill:none;stroke-width:0.2;stroke-linecap:butt;stroke-linejoin:miter;stroke:rgb(26.666667%,26.666667%,26.666667%);stroke-opacity:1;stroke-miterlimit:10;" d="M 220.289062 209.191406 L 216.511719 237.550781 "/>
<path style="fill:none;stroke-width:0.2;stroke-linecap:butt;stroke-linejoin:miter;stroke:rgb(26.666667%,26.666667%,26.666667%);stroke-opacity:1;stroke-miterlimit:10;" d="M 220.289062 209.191406 L 197.148438 206.785156 "/>
<path style="fill:none;stroke-width:0.2;stroke-linecap:butt;stroke-linejoin:miter;stroke:rgb(26.666667%,26.666667%,26.666667%);stroke-opacity:1;stroke-miterlimit:10;" d="M 220.289062 209.191406 L 329.417969 258.300781 "/>
<path style="fill:none;stroke-width:0.2;stroke-linecap:butt;stroke-linejoin:miter;stroke:rgb(26.666667%,26.666667%,26.666667%);stroke-opacity:1;stroke-miterlimit:10;" d="M 220.289062 209.191406 L 202.367188 179.199219 "/>
<path style="fill:none;stroke-width:0.2;stroke-linecap:butt;stroke-linejoin:miter;stroke:rgb(26.666667%,26.666667%,26.666667%);stroke-opacity:1;stroke-miterlimit:10;" d="M 220.289062 209.191406 L 189.269531 231.171875 "/>
<path style="fill:none;stroke-width:0.2;stroke-linecap:butt;stroke-linejoin:miter;stroke:rgb(26.666667%,26.666667%,26.666667%);stroke-opacity:1;stroke-miterlimit:10;" d="M 330.332031 258.710938 L 372.273438 217.496094 "/>
<path style="fill:none;stroke-width:0.2;stroke-linecap:butt;stroke-linejoin:miter;stroke:rgb(26.666667%,26.666667%,26.666667%);stroke-opacity:1;stroke-miterlimit:10;" d="M 330.332031 258.710938 L 362.140625 241.640625 "/>
<path style="fill:none;stroke-width:0.2;stroke-linecap:butt;stroke-linejoin:miter;stroke:rgb(26.666667%,26.666667%,26.666667%);stroke-opacity:1;stroke-miterlimit:10;" d="M 330.332031 258.710938 L 343.957031 224.03125 "/>
<path style="fill:none;stroke-width:0.2;stroke-linecap:butt;stroke-linejoin:miter;stroke:rgb(26.666667%,26.666667%,26.666667%);stroke-opacity:1;stroke-miterlimit:10;" d="M 330.332031 258.710938 L 328.921875 278.152344 "/>
<path style="fill:none;stroke-width:0.2;stroke-linecap:butt;stroke-linejoin:miter;stroke:rgb(26.666667%,26.666667%,26.666667%);stroke-opacity:1;stroke-miterlimit:10;" d="M 330.332031 258.710938 L 309.867188 275.6875 "/>
<path style="fill:none;stroke-width:0.2;stroke-linecap:butt;stroke-linejoin:miter;stroke:rgb(26.666667%,26.666667%,26.666667%);stroke-opacity:1;stroke-miterlimit:10;" d="M 330.332031 258.710938 L 368.359375 260.9375 "/>
<path style="fill:none;stroke-width:0.2;stroke-linecap:butt;stroke-linejoin:miter;stroke:rgb(26.666667%,26.666667%,26.666667%);stroke-opacity:1;stroke-miterlimit:10;" d="M 330.332031 258.710938 L 322.582031 224.859375 "/>
<path style="fill:none;stroke-width:0.2;stroke-linecap:butt;stroke-linejoin:miter;stroke:rgb(26.666667%,26.666667%,26.666667%);stroke-opacity:1;stroke-miterlimit:10;" d="M 330.332031 258.710938 L 301.917969 259.519531 "/>
<path style="fill:none;stroke-width:0.2;stroke-linecap:butt;stroke-linejoin:miter;stroke:rgb(26.666667%,26.666667%,26.666667%);stroke-opacity:1;stroke-miterlimit:10;" d="M 330.332031 258.710938 L 295.136719 324.585938 "/>
<path style="fill:none;stroke-width:0.2;stroke-linecap:butt;stroke-linejoin:miter;stroke:rgb(26.666667%,26.666667%,26.666667%);stroke-opacity:1;stroke-miterlimit:10;" d="M 330.332031 258.710938 L 385.378906 306.789062 "/>
<path style="fill:none;stroke-width:0.2;stroke-linecap:butt;stroke-linejoin:miter;stroke:rgb(26.666667%,26.666667%,26.666667%);stroke-opacity:1;stroke-miterlimit:10;" d="M 330.332031 258.710938 L 320.242188 246.316406 "/>
<path style="fill:none;stroke-width:0.2;stroke-linecap:butt;stroke-linejoin:miter;stroke:rgb(26.666667%,26.666667%,26.666667%);stroke-opacity:1;stroke-miterlimit:10;" d="M 330.332031 258.710938 L 303.390625 238.628906 "/>
<path style="fill:none;stroke-width:0.2;stroke-linecap:butt;stroke-linejoin:miter;stroke:rgb(26.666667%,26.666667%,26.666667%);stroke-opacity:1;stroke-miterlimit:10;" d="M 330.332031 258.710938 L 340.054688 242 "/>
<path style="fill:none;stroke-width:0.2;stroke-linecap:butt;stroke-linejoin:miter;stroke:rgb(26.666667%,26.666667%,26.666667%);stroke-opacity:1;stroke-miterlimit:10;" d="M 330.332031 258.710938 L 348.074219 258.925781 "/>
<path style="fill:none;stroke-width:0.2;stroke-linecap:butt;stroke-linejoin:miter;stroke:rgb(26.666667%,26.666667%,26.666667%);stroke-opacity:1;stroke-miterlimit:10;" d="M 275.910156 461.125 L 260.597656 445.851562 "/>
<path style="fill:none;stroke-width:0.2;stroke-linecap:butt;stroke-linejoin:miter;stroke:rgb(26.666667%,26.666667%,26.666667%);stroke-opacity:1;stroke-miterlimit:10;" d="M 300.453125 580 L 282.730469 577.746094 "/>
<path style="fill:none;stroke-width:0.2;stroke-linecap:butt;stroke-linejoin:miter;stroke:rgb(26.666667%,26.666667%,26.666667%);stroke-opacity:1;stroke-miterlimit:10;" d="M 93.035156 453.695312 L 83.175781 440.007812 "/>
<path style="fill:none;stroke-width:0.2;stroke-linecap:butt;stroke-linejoin:miter;stroke:rgb(26.666667%,26.666667%,26.666667%);stroke-opacity:1;stroke-miterlimit:10;" d="M 333.039062 419.789062 L 310.9375 418.871094 "/>
<path style="fill:none;stroke-width:0.2;stroke-linecap:butt;stroke-linejoin:miter;stroke:rgb(26.666667%,26.666667%,26.666667%);stroke-opacity:1;stroke-miterlimit:10;" d="M 541.90625 489.339844 L 547.183594 510.597656 "/>
<path style="fill:none;stroke-width:0.2;stroke-linecap:butt;stroke-linejoin:miter;stroke:rgb(26.666667%,26.666667%,26.666667%);stroke-opacity:1;stroke-miterlimit:10;" d="M 541.90625 489.339844 L 519.929688 483.398438 "/>
<path style="fill:none;stroke-width:0.2;stroke-linecap:butt;stroke-linejoin:miter;stroke:rgb(26.666667%,26.666667%,26.666667%);stroke-opacity:1;stroke-miterlimit:10;" d="M 541.90625 489.339844 L 558.917969 473.964844 "/>
<path style="fill:none;stroke-width:0.2;stroke-linecap:butt;stroke-linejoin:miter;stroke:rgb(26.666667%,26.666667%,26.666667%);stroke-opacity:1;stroke-miterlimit:10;" d="M 541.90625 489.339844 L 564.105469 495.230469 "/>
<path style="fill:none;stroke-width:0.2;stroke-linecap:butt;stroke-linejoin:miter;stroke:rgb(26.666667%,26.666667%,26.666667%);stroke-opacity:1;stroke-miterlimit:10;" d="M 541.90625 489.339844 L 524.824219 504.835938 "/>
<path style="fill:none;stroke-width:0.2;stroke-linecap:butt;stroke-linejoin:miter;stroke:rgb(26.666667%,26.666667%,26.666667%);stroke-opacity:1;stroke-miterlimit:10;" d="M 541.90625 489.339844 L 536.472656 468.003906 "/>
<path style="fill:none;stroke-width:0.2;stroke-linecap:butt;stroke-linejoin:miter;stroke:rgb(26.666667%,26.666667%,26.666667%);stroke-opacity:1;stroke-miterlimit:10;" d="M 277.433594 352.257812 L 296.246094 361.046875 "/>
<path style="fill:none;stroke-width:0.2;stroke-linecap:butt;stroke-linejoin:miter;stroke:rgb(26.666667%,26.666667%,26.666667%);stroke-opacity:1;stroke-miterlimit:10;" d="M 112.070312 104.15625 L 100.71875 116.984375 "/>
<path style="fill:none;stroke-width:0.2;stroke-linecap:butt;stroke-linejoin:miter;stroke:rgb(26.666667%,26.666667%,26.666667%);stroke-opacity:1;stroke-miterlimit:10;" d="M 112.070312 104.15625 L 123.582031 91.453125 "/>
<path style=" stroke:none;fill-rule:nonzero;fill:rgb(100%,0%,0%);fill-opacity:1;" d="M 269.25 194.871094 C 269.25 196.207031 267.25 196.207031 267.25 194.871094 C 267.25 193.539062 269.25 193.539062 269.25 194.871094 "/>
<path style=" stroke:none;fill-rule:nonzero;fill:rgb(100%,0%,0%);fill-opacity:1;" d="M 250.875 203.945312 C 250.875 205.28125 248.875 205.28125 248.875 203.945312 C 248.875 202.613281 250.875 202.613281 250.875 203.945312 "/>
<path style=" stroke:none;fill-rule:nonzero;fill:rgb(100%,0%,0%);fill-opacity:1;" d="M 556.820312 298.335938 C 556.820312 299.667969 554.820312 299.667969 554.820312 298.335938 C 554.820312 297.003906 556.820312 297.003906 556.820312 298.335938 "/>
<path style=" stroke:none;fill-rule:nonzero;fill:rgb(100%,0%,0%);fill-opacity:1;" d="M 529.207031 289.375 C 529.207031 290.707031 527.207031 290.707031 527.207031 289.375 C 527.207031 288.042969 529.207031 288.042969 529.207031 289.375 "/>
<path style=" stroke:none;fill-rule:nonzero;fill:rgb(100%,0%,0%);fill-opacity:1;" d="M 537.558594 323.824219 C 537.558594 325.15625 535.558594 325.15625 535.558594 323.824219 C 535.558594 322.492188 537.558594 322.492188 537.558594 323.824219 "/>
<path style=" stroke:none;fill-rule:nonzero;fill:rgb(100%,0%,0%);fill-opacity:1;" d="M 578.988281 317.078125 C 578.988281 318.410156 576.988281 318.410156 576.988281 317.078125 C 576.988281 315.746094 578.988281 315.746094 578.988281 317.078125 "/>
<path style=" stroke:none;fill-rule:nonzero;fill:rgb(100%,0%,0%);fill-opacity:1;" d="M 580.6875 278.605469 C 580.6875 279.941406 578.6875 279.941406 578.6875 278.605469 C 578.6875 277.273438 580.6875 277.273438 580.6875 278.605469 "/>
<path style=" stroke:none;fill-rule:nonzero;fill:rgb(100%,0%,0%);fill-opacity:1;" d="M 581 298.253906 C 581 299.589844 579 299.589844 579 298.253906 C 579 296.921875 581 296.921875 581 298.253906 "/>
<path style=" stroke:none;fill-rule:nonzero;fill:rgb(100%,0%,0%);fill-opacity:1;" d="M 560.605469 277.300781 C 560.605469 278.632812 558.605469 278.632812 558.605469 277.300781 C 558.605469 275.96875 560.605469 275.96875 560.605469 277.300781 "/>
<path style=" stroke:none;fill-rule:nonzero;fill:rgb(100%,0%,0%);fill-opacity:1;" d="M 541.765625 272.265625 C 541.765625 273.597656 539.765625 273.597656 539.765625 272.265625 C 539.765625 270.933594 541.765625 270.933594 541.765625 272.265625 "/>
<path style=" stroke:none;fill-rule:nonzero;fill:rgb(100%,0%,0%);fill-opacity:1;" d="M 538.441406 305.4375 C 538.441406 306.769531 536.441406 306.769531 536.441406 305.4375 C 536.441406 304.101562 538.441406 304.101562 538.441406 305.4375 "/>
<path style=" stroke:none;fill-rule:nonzero;fill:rgb(100%,0%,0%);fill-opacity:1;" d="M 559.457031 323.171875 C 559.457031 324.503906 557.457031 324.503906 557.457031 323.171875 C 557.457031 321.835938 559.457031 321.835938 559.457031 323.171875 "/>
<path style=" stroke:none;fill-rule:nonzero;fill:rgb(100%,0%,0%);fill-opacity:1;" d="M 149.242188 317.511719 C 149.242188 318.84375 147.242188 318.84375 147.242188 317.511719 C 147.242188 316.175781 149.242188 316.175781 149.242188 317.511719 "/>
<path style=" stroke:none;fill-rule:nonzero;fill:rgb(100%,0%,0%);fill-opacity:1;" d="M 173.15625 313.441406 C 173.15625 314.773438 171.15625 314.773438 171.15625 313.441406 C 171.15625 312.109375 173.15625 312.109375 173.15625 313.441406 "/>
<path style=" stroke:none;fill-rule:nonzero;fill:rgb(100%,0%,0%);fill-opacity:1;" d="M 390.402344 326.851562 C 390.402344 328.183594 388.402344 328.183594 388.402344 326.851562 C 388.402344 325.519531 390.402344 325.519531 390.402344 326.851562 "/>
<path style=" stroke:none;fill-rule:nonzero;fill:rgb(100%,0%,0%);fill-opacity:1;" d="M 387.132812 307.445312 C 387.132812 308.78125 385.132812 308.78125 385.132812 307.445312 C 385.132812 306.113281 387.132812 306.113281 387.132812 307.445312 "/>
<path style=" stroke:none;fill-rule:nonzero;fill:rgb(100%,0%,0%);fill-opacity:1;" d="M 428.714844 283.636719 C 428.714844 284.96875 426.714844 284.96875 426.714844 283.636719 C 426.714844 282.304688 428.714844 282.304688 428.714844 283.636719 "/>
<path style=" stroke:none;fill-rule:nonzero;fill:rgb(100%,0%,0%);fill-opacity:1;" d="M 452.238281 284.207031 C 452.238281 285.539062 450.238281 285.539062 450.238281 284.207031 C 450.238281 282.875 452.238281 282.875 452.238281 284.207031 "/>
<path style=" stroke:none;fill-rule:nonzero;fill:rgb(100%,0%,0%);fill-opacity:1;" d="M 440.136719 262.9375 C 440.136719 264.269531 438.136719 264.269531 438.136719 262.9375 C 438.136719 261.605469 440.136719 261.605469 440.136719 262.9375 "/>
<path style=" stroke:none;fill-rule:nonzero;fill:rgb(100%,0%,0%);fill-opacity:1;" d="M 351.648438 277.386719 C 351.648438 278.71875 349.648438 278.71875 349.648438 277.386719 C 349.648438 276.050781 351.648438 276.050781 351.648438 277.386719 "/>
<path style=" stroke:none;fill-rule:nonzero;fill:rgb(100%,0%,0%);fill-opacity:1;" d="M 331.332031 258.710938 C 331.332031 260.042969 329.332031 260.042969 329.332031 258.710938 C 329.332031 257.375 331.332031 257.375 331.332031 258.710938 "/>
<path style=" stroke:none;fill-rule:nonzero;fill:rgb(100%,0%,0%);fill-opacity:1;" d="M 319.621094 439.695312 C 319.621094 441.027344 317.621094 441.027344 317.621094 439.695312 C 317.621094 438.363281 319.621094 438.363281 319.621094 439.695312 "/>
<path style=" stroke:none;fill-rule:nonzero;fill:rgb(100%,0%,0%);fill-opacity:1;" d="M 310.9375 418.828125 C 310.9375 420.160156 308.9375 420.160156 308.9375 418.828125 C 308.9375 417.496094 310.9375 417.496094 310.9375 418.828125 "/>
<path style=" stroke:none;fill-rule:nonzero;fill:rgb(100%,0%,0%);fill-opacity:1;" d="M 402.898438 295.011719 C 402.898438 296.34375 400.898438 296.34375 400.898438 295.011719 C 400.898438 293.675781 402.898438 293.675781 402.898438 295.011719 "/>
<path style=" stroke:none;fill-rule:nonzero;fill:rgb(100%,0%,0%);fill-opacity:1;" d="M 159.992188 296.257812 C 159.992188 297.59375 157.992188 297.59375 157.992188 296.257812 C 157.992188 294.925781 159.992188 294.925781 159.992188 296.257812 "/>
<path style=" stroke:none;fill-rule:nonzero;fill:rgb(100%,0%,0%);fill-opacity:1;" d="M 254.960938 470.042969 C 254.960938 471.375 252.960938 471.375 252.960938 470.042969 C 252.960938 468.707031 254.960938 468.707031 254.960938 470.042969 "/>
<path style=" stroke:none;fill-rule:nonzero;fill:rgb(100%,0%,0%);fill-opacity:1;" d="M 260.890625 445.144531 C 260.890625 446.476562 258.890625 446.476562 258.890625 445.144531 C 258.890625 443.8125 260.890625 443.8125 260.890625 445.144531 "/>
<path style=" stroke:none;fill-rule:nonzero;fill:rgb(100%,0%,0%);fill-opacity:1;" d="M 264.015625 575.167969 C 264.015625 576.503906 262.015625 576.503906 262.015625 575.167969 C 262.015625 573.835938 264.015625 573.835938 264.015625 575.167969 "/>
<path style=" stroke:none;fill-rule:nonzero;fill:rgb(100%,0%,0%);fill-opacity:1;" d="M 282.738281 577.621094 C 282.738281 578.953125 280.738281 578.953125 280.738281 577.621094 C 280.738281 576.289062 282.738281 576.289062 282.738281 577.621094 "/>
<path style=" stroke:none;fill-rule:nonzero;fill:rgb(100%,0%,0%);fill-opacity:1;" d="M 293.613281 22.75 C 293.613281 24.082031 291.613281 24.082031 291.613281 22.75 C 291.613281 21.417969 293.613281 21.417969 293.613281 22.75 "/>
<path style=" stroke:none;fill-rule:nonzero;fill:rgb(100%,0%,0%);fill-opacity:1;" d="M 312.226562 20 C 312.226562 21.332031 310.226562 21.332031 310.226562 20 C 310.226562 18.667969 312.226562 18.667969 312.226562 20 "/>
<path style=" stroke:none;fill-rule:nonzero;fill:rgb(100%,0%,0%);fill-opacity:1;" d="M 274.980469 25.316406 C 274.980469 26.652344 272.980469 26.652344 272.980469 25.316406 C 272.980469 23.984375 274.980469 23.984375 274.980469 25.316406 "/>
<path style=" stroke:none;fill-rule:nonzero;fill:rgb(100%,0%,0%);fill-opacity:1;" d="M 333.710938 336.667969 C 333.710938 338.003906 331.710938 338.003906 331.710938 336.667969 C 331.710938 335.335938 333.710938 335.335938 333.710938 336.667969 "/>
<path style=" stroke:none;fill-rule:nonzero;fill:rgb(100%,0%,0%);fill-opacity:1;" d="M 319.535156 326.277344 C 319.535156 327.609375 317.535156 327.609375 317.535156 326.277344 C 317.535156 324.941406 319.535156 324.941406 319.535156 326.277344 "/>
<path style=" stroke:none;fill-rule:nonzero;fill:rgb(100%,0%,0%);fill-opacity:1;" d="M 298.152344 361.472656 C 298.152344 362.804688 296.152344 362.804688 296.152344 361.472656 C 296.152344 360.136719 298.152344 360.136719 298.152344 361.472656 "/>
<path style=" stroke:none;fill-rule:nonzero;fill:rgb(100%,0%,0%);fill-opacity:1;" d="M 397.851562 194 C 397.851562 195.335938 395.851562 195.335938 395.851562 194 C 395.851562 192.667969 397.851562 192.667969 397.851562 194 "/>
<path style=" stroke:none;fill-rule:nonzero;fill:rgb(100%,0%,0%);fill-opacity:1;" d="M 373.984375 216.792969 C 373.984375 218.128906 371.984375 218.128906 371.984375 216.792969 C 371.984375 215.460938 373.984375 215.460938 373.984375 216.792969 "/>
<path style=" stroke:none;fill-rule:nonzero;fill:rgb(100%,0%,0%);fill-opacity:1;" d="M 414.589844 178.914062 C 414.589844 180.246094 412.589844 180.246094 412.589844 178.914062 C 412.589844 177.578125 414.589844 177.578125 414.589844 178.914062 "/>
<path style=" stroke:none;fill-rule:nonzero;fill:rgb(100%,0%,0%);fill-opacity:1;" d="M 424.101562 493.535156 C 424.101562 494.871094 422.101562 494.871094 422.101562 493.535156 C 422.101562 492.203125 424.101562 492.203125 424.101562 493.535156 "/>
<path style=" stroke:none;fill-rule:nonzero;fill:rgb(100%,0%,0%);fill-opacity:1;" d="M 445.25 493.859375 C 445.25 495.195312 443.25 495.195312 443.25 493.859375 C 443.25 492.527344 445.25 492.527344 445.25 493.859375 "/>
<path style=" stroke:none;fill-rule:nonzero;fill:rgb(100%,0%,0%);fill-opacity:1;" d="M 402.796875 493.4375 C 402.796875 494.773438 400.796875 494.773438 400.796875 493.4375 C 400.796875 492.105469 402.796875 492.105469 402.796875 493.4375 "/>
<path style=" stroke:none;fill-rule:nonzero;fill:rgb(100%,0%,0%);fill-opacity:1;" d="M 425.75 473.265625 C 425.75 474.597656 423.75 474.597656 423.75 473.265625 C 423.75 471.933594 425.75 471.933594 425.75 473.265625 "/>
<path style=" stroke:none;fill-rule:nonzero;fill:rgb(100%,0%,0%);fill-opacity:1;" d="M 423.105469 513.816406 C 423.105469 515.152344 421.105469 515.152344 421.105469 513.816406 C 421.105469 512.484375 423.105469 512.484375 423.105469 513.816406 "/>
<path style=" stroke:none;fill-rule:nonzero;fill:rgb(100%,0%,0%);fill-opacity:1;" d="M 201.53125 299.007812 C 201.53125 300.34375 199.53125 300.34375 199.53125 299.007812 C 199.53125 297.675781 201.53125 297.675781 201.53125 299.007812 "/>
<path style=" stroke:none;fill-rule:nonzero;fill:rgb(100%,0%,0%);fill-opacity:1;" d="M 213.609375 282.378906 C 213.609375 283.710938 211.609375 283.710938 211.609375 282.378906 C 211.609375 281.042969 213.609375 281.042969 213.609375 282.378906 "/>
<path style=" stroke:none;fill-rule:nonzero;fill:rgb(100%,0%,0%);fill-opacity:1;" d="M 222.546875 303.96875 C 222.546875 305.304688 220.546875 305.304688 220.546875 303.96875 C 220.546875 302.636719 222.546875 302.636719 222.546875 303.96875 "/>
<path style=" stroke:none;fill-rule:nonzero;fill:rgb(100%,0%,0%);fill-opacity:1;" d="M 347.488281 306.808594 C 347.488281 308.140625 345.488281 308.140625 345.488281 306.808594 C 345.488281 305.472656 347.488281 305.472656 347.488281 306.808594 "/>
<path style=" stroke:none;fill-rule:nonzero;fill:rgb(100%,0%,0%);fill-opacity:1;" d="M 354.164062 339.308594 C 354.164062 340.644531 352.164062 340.644531 352.164062 339.308594 C 352.164062 337.976562 354.164062 337.976562 354.164062 339.308594 "/>
<path style=" stroke:none;fill-rule:nonzero;fill:rgb(100%,0%,0%);fill-opacity:1;" d="M 360.378906 321 C 360.378906 322.332031 358.378906 322.332031 358.378906 321 C 358.378906 319.667969 360.378906 319.667969 360.378906 321 "/>
<path style=" stroke:none;fill-rule:nonzero;fill:rgb(100%,0%,0%);fill-opacity:1;" d="M 275.910156 393.441406 C 275.910156 394.777344 273.910156 394.777344 273.910156 393.441406 C 273.910156 392.109375 275.910156 392.109375 275.910156 393.441406 "/>
<path style=" stroke:none;fill-rule:nonzero;fill:rgb(100%,0%,0%);fill-opacity:1;" d="M 259.222656 399.753906 C 259.222656 401.085938 257.222656 401.085938 257.222656 399.753906 C 257.222656 398.417969 259.222656 398.417969 259.222656 399.753906 "/>
<path style=" stroke:none;fill-rule:nonzero;fill:rgb(100%,0%,0%);fill-opacity:1;" d="M 240.773438 389.339844 C 240.773438 390.671875 238.773438 390.671875 238.773438 389.339844 C 238.773438 388.003906 240.773438 388.003906 240.773438 389.339844 "/>
<path style=" stroke:none;fill-rule:nonzero;fill:rgb(100%,0%,0%);fill-opacity:1;" d="M 249.847656 414.683594 C 249.847656 416.019531 247.847656 416.019531 247.847656 414.683594 C 247.847656 413.351562 249.847656 413.351562 249.847656 414.683594 "/>
<path style=" stroke:none;fill-rule:nonzero;fill:rgb(100%,0%,0%);fill-opacity:1;" d="M 261.75 377.09375 C 261.75 378.425781 259.75 378.425781 259.75 377.09375 C 259.75 375.757812 261.75 375.757812 261.75 377.09375 "/>
<path style=" stroke:none;fill-rule:nonzero;fill:rgb(100%,0%,0%);fill-opacity:1;" d="M 295.664062 325.46875 C 295.664062 326.800781 293.664062 326.800781 293.664062 325.46875 C 293.664062 324.132812 295.664062 324.132812 295.664062 325.46875 "/>
<path style=" stroke:none;fill-rule:nonzero;fill:rgb(100%,0%,0%);fill-opacity:1;" d="M 280.414062 414.09375 C 280.414062 415.425781 278.414062 415.425781 278.414062 414.09375 C 278.414062 412.757812 280.414062 412.757812 280.414062 414.09375 "/>
<path style=" stroke:none;fill-rule:nonzero;fill:rgb(100%,0%,0%);fill-opacity:1;" d="M 296.042969 391.847656 C 296.042969 393.179688 294.042969 393.179688 294.042969 391.847656 C 294.042969 390.515625 296.042969 390.515625 296.042969 391.847656 "/>
<path style=" stroke:none;fill-rule:nonzero;fill:rgb(100%,0%,0%);fill-opacity:1;" d="M 412.09375 340.382812 C 412.09375 341.714844 410.09375 341.714844 410.09375 340.382812 C 410.09375 339.050781 412.09375 339.050781 412.09375 340.382812 "/>
<path style=" stroke:none;fill-rule:nonzero;fill:rgb(100%,0%,0%);fill-opacity:1;" d="M 425.636719 358.609375 C 425.636719 359.945312 423.636719 359.945312 423.636719 358.609375 C 423.636719 357.277344 425.636719 357.277344 425.636719 358.609375 "/>
<path style=" stroke:none;fill-rule:nonzero;fill:rgb(100%,0%,0%);fill-opacity:1;" d="M 73.101562 424.726562 C 73.101562 426.058594 71.101562 426.058594 71.101562 424.726562 C 71.101562 423.394531 73.101562 423.394531 73.101562 424.726562 "/>
<path style=" stroke:none;fill-rule:nonzero;fill:rgb(100%,0%,0%);fill-opacity:1;" d="M 83.59375 439.195312 C 83.59375 440.527344 81.59375 440.527344 81.59375 439.195312 C 81.59375 437.863281 83.59375 437.863281 83.59375 439.195312 "/>
<path style=" stroke:none;fill-rule:nonzero;fill:rgb(100%,0%,0%);fill-opacity:1;" d="M 22.011719 293.542969 C 22.011719 294.875 20.011719 294.875 20.011719 293.542969 C 20.011719 292.207031 22.011719 292.207031 22.011719 293.542969 "/>
<path style=" stroke:none;fill-rule:nonzero;fill:rgb(100%,0%,0%);fill-opacity:1;" d="M 23.089844 276.097656 C 23.089844 277.433594 21.089844 277.433594 21.089844 276.097656 C 21.089844 274.765625 23.089844 274.765625 23.089844 276.097656 "/>
<path style=" stroke:none;fill-rule:nonzero;fill:rgb(100%,0%,0%);fill-opacity:1;" d="M 21 310.980469 C 21 312.3125 19 312.3125 19 310.980469 C 19 309.648438 21 309.648438 21 310.980469 "/>
<path style=" stroke:none;fill-rule:nonzero;fill:rgb(100%,0%,0%);fill-opacity:1;" d="M 228.949219 139.347656 C 228.949219 140.679688 226.949219 140.679688 226.949219 139.347656 C 226.949219 138.015625 228.949219 138.015625 228.949219 139.347656 "/>
<path style=" stroke:none;fill-rule:nonzero;fill:rgb(100%,0%,0%);fill-opacity:1;" d="M 231.433594 120.027344 C 231.433594 121.363281 229.433594 121.363281 229.433594 120.027344 C 229.433594 118.695312 231.433594 118.695312 231.433594 120.027344 "/>
<path style=" stroke:none;fill-rule:nonzero;fill:rgb(100%,0%,0%);fill-opacity:1;" d="M 226.742188 165.058594 C 226.742188 166.390625 224.742188 166.390625 224.742188 165.058594 C 224.742188 163.722656 226.742188 163.722656 226.742188 165.058594 "/>
<path style=" stroke:none;fill-rule:nonzero;fill:rgb(100%,0%,0%);fill-opacity:1;" d="M 412.519531 315.125 C 412.519531 316.457031 410.519531 316.457031 410.519531 315.125 C 410.519531 313.792969 412.519531 313.792969 412.519531 315.125 "/>
<path style=" stroke:none;fill-rule:nonzero;fill:rgb(100%,0%,0%);fill-opacity:1;" d="M 376.28125 83.597656 C 376.28125 84.933594 374.28125 84.933594 374.28125 83.597656 C 374.28125 82.265625 376.28125 82.265625 376.28125 83.597656 "/>
<path style=" stroke:none;fill-rule:nonzero;fill:rgb(100%,0%,0%);fill-opacity:1;" d="M 357.488281 84.125 C 357.488281 85.457031 355.488281 85.457031 355.488281 84.125 C 355.488281 82.789062 357.488281 82.789062 357.488281 84.125 "/>
<path style=" stroke:none;fill-rule:nonzero;fill:rgb(100%,0%,0%);fill-opacity:1;" d="M 395.09375 83.3125 C 395.09375 84.644531 393.09375 84.644531 393.09375 83.3125 C 393.09375 81.980469 395.09375 81.980469 395.09375 83.3125 "/>
<path style=" stroke:none;fill-rule:nonzero;fill:rgb(100%,0%,0%);fill-opacity:1;" d="M 189.109375 325.699219 C 189.109375 327.035156 187.109375 327.035156 187.109375 325.699219 C 187.109375 324.367188 189.109375 324.367188 189.109375 325.699219 "/>
<path style=" stroke:none;fill-rule:nonzero;fill:rgb(100%,0%,0%);fill-opacity:1;" d="M 237.9375 453.515625 C 237.9375 454.847656 235.9375 454.847656 235.9375 453.515625 C 235.9375 452.183594 237.9375 452.183594 237.9375 453.515625 "/>
<path style=" stroke:none;fill-rule:nonzero;fill:rgb(100%,0%,0%);fill-opacity:1;" d="M 166.308594 334.660156 C 166.308594 335.992188 164.308594 335.992188 164.308594 334.660156 C 164.308594 333.324219 166.308594 333.324219 166.308594 334.660156 "/>
<path style=" stroke:none;fill-rule:nonzero;fill:rgb(100%,0%,0%);fill-opacity:1;" d="M 221.289062 209.191406 C 221.289062 210.527344 219.289062 210.527344 219.289062 209.191406 C 219.289062 207.859375 221.289062 207.859375 221.289062 209.191406 "/>
<path style=" stroke:none;fill-rule:nonzero;fill:rgb(100%,0%,0%);fill-opacity:1;" d="M 208.207031 222.617188 C 208.207031 223.949219 206.207031 223.949219 206.207031 222.617188 C 206.207031 221.285156 208.207031 221.285156 208.207031 222.617188 "/>
<path style=" stroke:none;fill-rule:nonzero;fill:rgb(100%,0%,0%);fill-opacity:1;" d="M 213.632812 193.3125 C 213.632812 194.644531 211.632812 194.644531 211.632812 193.3125 C 211.632812 191.976562 213.632812 191.976562 213.632812 193.3125 "/>
<path style=" stroke:none;fill-rule:nonzero;fill:rgb(100%,0%,0%);fill-opacity:1;" d="M 184.242188 190.445312 C 184.242188 191.777344 182.242188 191.777344 182.242188 190.445312 C 182.242188 189.109375 184.242188 189.109375 184.242188 190.445312 "/>
<path style=" stroke:none;fill-rule:nonzero;fill:rgb(100%,0%,0%);fill-opacity:1;" d="M 236.183594 225.03125 C 236.183594 226.363281 234.183594 226.363281 234.183594 225.03125 C 234.183594 223.695312 236.183594 223.695312 236.183594 225.03125 "/>
<path style=" stroke:none;fill-rule:nonzero;fill:rgb(100%,0%,0%);fill-opacity:1;" d="M 176.910156 212.671875 C 176.910156 214.003906 174.910156 214.003906 174.910156 212.671875 C 174.910156 211.335938 176.910156 211.335938 176.910156 212.671875 "/>
<path style=" stroke:none;fill-rule:nonzero;fill:rgb(100%,0%,0%);fill-opacity:1;" d="M 234.332031 190.039062 C 234.332031 191.371094 232.332031 191.371094 232.332031 190.039062 C 232.332031 188.703125 234.332031 188.703125 234.332031 190.039062 "/>
<path style=" stroke:none;fill-rule:nonzero;fill:rgb(100%,0%,0%);fill-opacity:1;" d="M 217.382812 238.542969 C 217.382812 239.875 215.382812 239.875 215.382812 238.542969 C 215.382812 237.210938 217.382812 237.210938 217.382812 238.542969 "/>
<path style=" stroke:none;fill-rule:nonzero;fill:rgb(100%,0%,0%);fill-opacity:1;" d="M 197.152344 206.679688 C 197.152344 208.015625 195.152344 208.015625 195.152344 206.679688 C 195.152344 205.347656 197.152344 205.347656 197.152344 206.679688 "/>
<path style=" stroke:none;fill-rule:nonzero;fill:rgb(100%,0%,0%);fill-opacity:1;" d="M 202.851562 178.339844 C 202.851562 179.675781 200.851562 179.675781 200.851562 178.339844 C 200.851562 177.007812 202.851562 177.007812 202.851562 178.339844 "/>
<path style=" stroke:none;fill-rule:nonzero;fill:rgb(100%,0%,0%);fill-opacity:1;" d="M 189.453125 231.75 C 189.453125 233.082031 187.453125 233.082031 187.453125 231.75 C 187.453125 230.414062 189.453125 230.414062 189.453125 231.75 "/>
<path style=" stroke:none;fill-rule:nonzero;fill:rgb(100%,0%,0%);fill-opacity:1;" d="M 364.023438 241.167969 C 364.023438 242.5 362.023438 242.5 362.023438 241.167969 C 362.023438 239.832031 364.023438 239.832031 364.023438 241.167969 "/>
<path style=" stroke:none;fill-rule:nonzero;fill:rgb(100%,0%,0%);fill-opacity:1;" d="M 345.320312 223.097656 C 345.320312 224.433594 343.320312 224.433594 343.320312 223.097656 C 343.320312 221.765625 345.320312 221.765625 345.320312 223.097656 "/>
<path style=" stroke:none;fill-rule:nonzero;fill:rgb(100%,0%,0%);fill-opacity:1;" d="M 329.851562 279.152344 C 329.851562 280.484375 327.851562 280.484375 327.851562 279.152344 C 327.851562 277.816406 329.851562 277.816406 329.851562 279.152344 "/>
<path style=" stroke:none;fill-rule:nonzero;fill:rgb(100%,0%,0%);fill-opacity:1;" d="M 310.097656 276.324219 C 310.097656 277.660156 308.097656 277.660156 308.097656 276.324219 C 308.097656 274.992188 310.097656 274.992188 310.097656 276.324219 "/>
<path style=" stroke:none;fill-rule:nonzero;fill:rgb(100%,0%,0%);fill-opacity:1;" d="M 370.359375 260.996094 C 370.359375 262.328125 368.359375 262.328125 368.359375 260.996094 C 368.359375 259.664062 370.359375 259.664062 370.359375 260.996094 "/>
<path style=" stroke:none;fill-rule:nonzero;fill:rgb(100%,0%,0%);fill-opacity:1;" d="M 323.359375 223.882812 C 323.359375 225.214844 321.359375 225.214844 321.359375 223.882812 C 321.359375 222.550781 323.359375 222.550781 323.359375 223.882812 "/>
<path style=" stroke:none;fill-rule:nonzero;fill:rgb(100%,0%,0%);fill-opacity:1;" d="M 301.917969 259.546875 C 301.917969 260.882812 299.917969 260.882812 299.917969 259.546875 C 299.917969 258.214844 301.917969 258.214844 301.917969 259.546875 "/>
<path style=" stroke:none;fill-rule:nonzero;fill:rgb(100%,0%,0%);fill-opacity:1;" d="M 320.609375 245.539062 C 320.609375 246.871094 318.609375 246.871094 318.609375 245.539062 C 318.609375 244.207031 320.609375 244.207031 320.609375 245.539062 "/>
<path style=" stroke:none;fill-rule:nonzero;fill:rgb(100%,0%,0%);fill-opacity:1;" d="M 303.589844 238.03125 C 303.589844 239.363281 301.589844 239.363281 301.589844 238.03125 C 301.589844 236.695312 303.589844 236.695312 303.589844 238.03125 "/>
<path style=" stroke:none;fill-rule:nonzero;fill:rgb(100%,0%,0%);fill-opacity:1;" d="M 341.554688 241.136719 C 341.554688 242.46875 339.554688 242.46875 339.554688 241.136719 C 339.554688 239.804688 341.554688 239.804688 341.554688 241.136719 "/>
<path style=" stroke:none;fill-rule:nonzero;fill:rgb(100%,0%,0%);fill-opacity:1;" d="M 350.074219 258.9375 C 350.074219 260.269531 348.074219 260.269531 348.074219 258.9375 C 348.074219 257.601562 350.074219 257.601562 350.074219 258.9375 "/>
<path style=" stroke:none;fill-rule:nonzero;fill:rgb(100%,0%,0%);fill-opacity:1;" d="M 276.910156 461.125 C 276.910156 462.457031 274.910156 462.457031 274.910156 461.125 C 274.910156 459.792969 276.910156 459.792969 276.910156 461.125 "/>
<path style=" stroke:none;fill-rule:nonzero;fill:rgb(100%,0%,0%);fill-opacity:1;" d="M 301.453125 580 C 301.453125 581.332031 299.453125 581.332031 299.453125 580 C 299.453125 578.667969 301.453125 578.667969 301.453125 580 "/>
<path style=" stroke:none;fill-rule:nonzero;fill:rgb(100%,0%,0%);fill-opacity:1;" d="M 94.035156 453.695312 C 94.035156 455.03125 92.035156 455.03125 92.035156 453.695312 C 92.035156 452.363281 94.035156 452.363281 94.035156 453.695312 "/>
<path style=" stroke:none;fill-rule:nonzero;fill:rgb(100%,0%,0%);fill-opacity:1;" d="M 334.039062 419.789062 C 334.039062 421.125 332.039062 421.125 332.039062 419.789062 C 332.039062 418.457031 334.039062 418.457031 334.039062 419.789062 "/>
<path style=" stroke:none;fill-rule:nonzero;fill:rgb(100%,0%,0%);fill-opacity:1;" d="M 542.90625 489.339844 C 542.90625 490.671875 540.90625 490.671875 540.90625 489.339844 C 540.90625 488.003906 542.90625 488.003906 542.90625 489.339844 "/>
<path style=" stroke:none;fill-rule:nonzero;fill:rgb(100%,0%,0%);fill-opacity:1;" d="M 548.425781 511.566406 C 548.425781 512.902344 546.425781 512.902344 546.425781 511.566406 C 546.425781 510.234375 548.425781 510.234375 548.425781 511.566406 "/>
<path style=" stroke:none;fill-rule:nonzero;fill:rgb(100%,0%,0%);fill-opacity:1;" d="M 519.964844 483.136719 C 519.964844 484.472656 517.964844 484.472656 517.964844 483.136719 C 517.964844 481.804688 519.964844 481.804688 519.964844 483.136719 "/>
<path style=" stroke:none;fill-rule:nonzero;fill:rgb(100%,0%,0%);fill-opacity:1;" d="M 560.660156 473.292969 C 560.660156 474.625 558.660156 474.625 558.660156 473.292969 C 558.660156 471.960938 560.660156 471.960938 560.660156 473.292969 "/>
<path style=" stroke:none;fill-rule:nonzero;fill:rgb(100%,0%,0%);fill-opacity:1;" d="M 566.070312 495.488281 C 566.070312 496.824219 564.070312 496.824219 564.070312 495.488281 C 564.070312 494.15625 566.070312 494.15625 566.070312 495.488281 "/>
<path style=" stroke:none;fill-rule:nonzero;fill:rgb(100%,0%,0%);fill-opacity:1;" d="M 525.085938 505.507812 C 525.085938 506.839844 523.085938 506.839844 523.085938 505.507812 C 523.085938 504.171875 525.085938 504.171875 525.085938 505.507812 "/>
<path style=" stroke:none;fill-rule:nonzero;fill:rgb(100%,0%,0%);fill-opacity:1;" d="M 537.226562 467.035156 C 537.226562 468.367188 535.226562 468.367188 535.226562 467.035156 C 535.226562 465.699219 537.226562 465.699219 537.226562 467.035156 "/>
<path style=" stroke:none;fill-rule:nonzero;fill:rgb(100%,0%,0%);fill-opacity:1;" d="M 278.433594 352.257812 C 278.433594 353.589844 276.433594 353.589844 276.433594 352.257812 C 276.433594 350.925781 278.433594 350.925781 278.433594 352.257812 "/>
<path style=" stroke:none;fill-rule:nonzero;fill:rgb(100%,0%,0%);fill-opacity:1;" d="M 113.070312 104.15625 C 113.070312 105.488281 111.070312 105.488281 111.070312 104.15625 C 111.070312 102.820312 113.070312 102.820312 113.070312 104.15625 "/>
<path style=" stroke:none;fill-rule:nonzero;fill:rgb(100%,0%,0%);fill-opacity:1;" d="M 101.054688 117.734375 C 101.054688 119.066406 99.054688 119.066406 99.054688 117.734375 C 99.054688 116.402344 101.054688 116.402344 101.054688 117.734375 "/>
<path style=" stroke:none;fill-rule:nonzero;fill:rgb(100%,0%,0%);fill-opacity:1;" d="M 125.253906 90.710938 C 125.253906 92.042969 123.253906 92.042969 123.253906 90.710938 C 123.253906 89.378906 125.253906 89.378906 125.253906 90.710938 "/>
</g>
</svg>
