<?xml version="1.0" encoding="UTF-8"?>
<svg xmlns="http://www.w3.org/2000/svg" xmlns:xlink="http://www.w3.org/1999/xlink" width="600pt" height="600pt" viewBox="0 0 600 600" version="1.1">
<g id="surface11">
<rect x="0" y="0" width="600" height="600" style="fill:rgb(100%,100%,100%);fill-opacity:1;stroke:none;"/>
<path style="fill:none;stroke-width:0.2;stroke-linecap:butt;stroke-linejoin:miter;stroke:rgb(26.666667%,26.666667%,26.666667%);stroke-opacity:1;stroke-miterlimit:10;" d="M 97.351562 411.886719 L 104.574219 396 "/>
<path style="fill:none;stroke-width:0.2;stroke-linecap:butt;stroke-linejoin:miter;stroke:rgb(26.666667%,26.666667%,26.666667%);stroke-opacity:1;stroke-miterlimit:10;" d="M 110.855469 374.515625 L 105.261719 394.125 "/>
<path style="fill:none;stroke-width:0.2;stroke-linecap:butt;stroke-linejoin:miter;stroke:rgb(26.666667%,26.666667%,26.666667%);stroke-opacity:1;stroke-miterlimit:10;" d="M 110.855469 374.515625 L 113.632812 358.773438 "/>
<path style="fill:none;stroke-width:0.2;stroke-linecap:butt;stroke-linejoin:miter;stroke:rgb(26.666667%,26.666667%,26.666667%);stroke-opacity:1;stroke-miterlimit:10;" d="M 209.46875 240.105469 L 209.261719 254.382812 "/>
<path style="fill:none;stroke-width:0.2;stroke-linecap:butt;stroke-linejoin:miter;stroke:rgb(26.666667%,26.666667%,26.666667%);stroke-opacity:1;stroke-miterlimit:10;" d="M 209.46875 240.105469 L 219.40625 229.46875 "/>
<path style="fill:none;stroke-width:0.2;stroke-linecap:butt;stroke-linejoin:miter;stroke:rgb(26.666667%,26.666667%,26.666667%);stroke-opacity:1;stroke-miterlimit:10;" d="M 209.46875 240.105469 L 202.546875 217.769531 "/>
<path style="fill:none;stroke-width:0.2;stroke-linecap:butt;stroke-linejoin:miter;stroke:rgb(26.666667%,26.666667%,26.666667%);stroke-opacity:1;stroke-miterlimit:10;" d="M 209.46875 240.105469 L 189.367188 255.164062 "/>
<path style="fill:none;stroke-width:0.2;stroke-linecap:butt;stroke-linejoin:miter;stroke:rgb(26.666667%,26.666667%,26.666667%);stroke-opacity:1;stroke-miterlimit:10;" d="M 209.46875 240.105469 L 233.199219 245.796875 "/>
<path style="fill:none;stroke-width:0.2;stroke-linecap:butt;stroke-linejoin:miter;stroke:rgb(26.666667%,26.666667%,26.666667%);stroke-opacity:1;stroke-miterlimit:10;" d="M 288.859375 51.84375 L 276.832031 46.488281 "/>
<path style="fill:none;stroke-width:0.2;stroke-linecap:butt;stroke-linejoin:miter;stroke:rgb(26.666667%,26.666667%,26.666667%);stroke-opacity:1;stroke-miterlimit:10;" d="M 291.742188 152.246094 L 299.171875 138.140625 "/>
<path style="fill:none;stroke-width:0.2;stroke-linecap:butt;stroke-linejoin:miter;stroke:rgb(26.666667%,26.666667%,26.666667%);stroke-opacity:1;stroke-miterlimit:10;" d="M 435.621094 220.078125 L 418.257812 214.222656 "/>
<path style="fill:none;stroke-width:0.2;stroke-linecap:butt;stroke-linejoin:miter;stroke:rgb(26.666667%,26.666667%,26.666667%);stroke-opacity:1;stroke-miterlimit:10;" d="M 435.621094 220.078125 L 428.914062 201.769531 "/>
<path style="fill:none;stroke-width:0.2;stroke-linecap:butt;stroke-linejoin:miter;stroke:rgb(26.666667%,26.666667%,26.666667%);stroke-opacity:1;stroke-miterlimit:10;" d="M 435.621094 220.078125 L 434.070312 236.210938 "/>
<path style="fill:none;stroke-width:0.2;stroke-linecap:butt;stroke-linejoin:miter;stroke:rgb(26.666667%,26.666667%,26.666667%);stroke-opacity:1;stroke-miterlimit:10;" d="M 435.621094 220.078125 L 419.128906 231.347656 "/>
<path style="fill:none;stroke-width:0.2;stroke-linecap:butt;stroke-linejoin:miter;stroke:rgb(26.666667%,26.666667%,26.666667%);stroke-opacity:1;stroke-miterlimit:10;" d="M 435.621094 220.078125 L 444.859375 201.460938 "/>
<path style="fill:none;stroke-width:0.2;stroke-linecap:butt;stroke-linejoin:miter;stroke:rgb(26.666667%,26.666667%,26.666667%);stroke-opacity:1;stroke-miterlimit:10;" d="M 435.621094 220.078125 L 452.902344 240.640625 "/>
<path style="fill:none;stroke-width:0.2;stroke-linecap:butt;stroke-linejoin:miter;stroke:rgb(26.666667%,26.666667%,26.666667%);stroke-opacity:1;stroke-miterlimit:10;" d="M 435.621094 220.078125 L 451.398438 217.167969 "/>
<path style="fill:none;stroke-width:0.2;stroke-linecap:butt;stroke-linejoin:miter;stroke:rgb(26.666667%,26.666667%,26.666667%);stroke-opacity:1;stroke-miterlimit:10;" d="M 467.410156 259.542969 L 454.15625 242.203125 "/>
<path style="fill:none;stroke-width:0.2;stroke-linecap:butt;stroke-linejoin:miter;stroke:rgb(26.666667%,26.666667%,26.666667%);stroke-opacity:1;stroke-miterlimit:10;" d="M 467.410156 259.542969 L 480.109375 250.859375 "/>
<path style="fill:none;stroke-width:0.2;stroke-linecap:butt;stroke-linejoin:miter;stroke:rgb(26.666667%,26.666667%,26.666667%);stroke-opacity:1;stroke-miterlimit:10;" d="M 467.410156 259.542969 L 459.027344 273.609375 "/>
<path style="fill:none;stroke-width:0.2;stroke-linecap:butt;stroke-linejoin:miter;stroke:rgb(26.666667%,26.666667%,26.666667%);stroke-opacity:1;stroke-miterlimit:10;" d="M 467.410156 259.542969 L 478.476562 272.207031 "/>
<path style="fill:none;stroke-width:0.2;stroke-linecap:butt;stroke-linejoin:miter;stroke:rgb(26.666667%,26.666667%,26.666667%);stroke-opacity:1;stroke-miterlimit:10;" d="M 439.328125 97.808594 L 447.09375 109.054688 "/>
<path style="fill:none;stroke-width:0.2;stroke-linecap:butt;stroke-linejoin:miter;stroke:rgb(26.666667%,26.666667%,26.666667%);stroke-opacity:1;stroke-miterlimit:10;" d="M 485.765625 512.851562 L 480.996094 525.867188 "/>
<path style="fill:none;stroke-width:0.2;stroke-linecap:butt;stroke-linejoin:miter;stroke:rgb(26.666667%,26.666667%,26.666667%);stroke-opacity:1;stroke-miterlimit:10;" d="M 143.753906 187.953125 L 132.695312 204.730469 "/>
<path style="fill:none;stroke-width:0.2;stroke-linecap:butt;stroke-linejoin:miter;stroke:rgb(26.666667%,26.666667%,26.666667%);stroke-opacity:1;stroke-miterlimit:10;" d="M 143.753906 187.953125 L 153.074219 171.617188 "/>
<path style="fill:none;stroke-width:0.2;stroke-linecap:butt;stroke-linejoin:miter;stroke:rgb(26.666667%,26.666667%,26.666667%);stroke-opacity:1;stroke-miterlimit:10;" d="M 307.074219 122.003906 L 300.078125 136.359375 "/>
<path style="fill:none;stroke-width:0.2;stroke-linecap:butt;stroke-linejoin:miter;stroke:rgb(26.666667%,26.666667%,26.666667%);stroke-opacity:1;stroke-miterlimit:10;" d="M 518.65625 348.125 L 522.234375 361.683594 "/>
<path style="fill:none;stroke-width:0.2;stroke-linecap:butt;stroke-linejoin:miter;stroke:rgb(26.666667%,26.666667%,26.666667%);stroke-opacity:1;stroke-miterlimit:10;" d="M 518.65625 348.125 L 515.273438 334.511719 "/>
<path style="fill:none;stroke-width:0.2;stroke-linecap:butt;stroke-linejoin:miter;stroke:rgb(26.666667%,26.666667%,26.666667%);stroke-opacity:1;stroke-miterlimit:10;" d="M 326.125 205.734375 L 313.269531 203.152344 "/>
<path style="fill:none;stroke-width:0.2;stroke-linecap:butt;stroke-linejoin:miter;stroke:rgb(26.666667%,26.666667%,26.666667%);stroke-opacity:1;stroke-miterlimit:10;" d="M 188.785156 208.867188 L 201.390625 216.308594 "/>
<path style="fill:none;stroke-width:0.2;stroke-linecap:butt;stroke-linejoin:miter;stroke:rgb(26.666667%,26.666667%,26.666667%);stroke-opacity:1;stroke-miterlimit:10;" d="M 397.59375 566.8125 L 407.714844 557.898438 "/>
<path style="fill:none;stroke-width:0.2;stroke-linecap:butt;stroke-linejoin:miter;stroke:rgb(26.666667%,26.666667%,26.666667%);stroke-opacity:1;stroke-miterlimit:10;" d="M 532.117188 232.6875 L 537.886719 245.222656 "/>
<path style="fill:none;stroke-width:0.2;stroke-linecap:butt;stroke-linejoin:miter;stroke:rgb(26.666667%,26.666667%,26.666667%);stroke-opacity:1;stroke-miterlimit:10;" d="M 285.535156 129.300781 L 298.769531 136.765625 "/>
<path style="fill:none;stroke-width:0.2;stroke-linecap:butt;stroke-linejoin:miter;stroke:rgb(26.666667%,26.666667%,26.666667%);stroke-opacity:1;stroke-miterlimit:10;" d="M 456.210938 121.773438 L 448.246094 110.6875 "/>
<path style="fill:none;stroke-width:0.2;stroke-linecap:butt;stroke-linejoin:miter;stroke:rgb(26.666667%,26.666667%,26.666667%);stroke-opacity:1;stroke-miterlimit:10;" d="M 384.011719 326.5625 L 369.078125 321.554688 "/>
<path style="fill:none;stroke-width:0.2;stroke-linecap:butt;stroke-linejoin:miter;stroke:rgb(26.666667%,26.666667%,26.666667%);stroke-opacity:1;stroke-miterlimit:10;" d="M 347.75 20 L 360.785156 21.832031 "/>
<path style="fill:none;stroke-width:0.2;stroke-linecap:butt;stroke-linejoin:miter;stroke:rgb(26.666667%,26.666667%,26.666667%);stroke-opacity:1;stroke-miterlimit:10;" d="M 539.472656 170.332031 L 528.714844 162.269531 "/>
<path style="fill:none;stroke-width:0.2;stroke-linecap:butt;stroke-linejoin:miter;stroke:rgb(26.666667%,26.666667%,26.666667%);stroke-opacity:1;stroke-miterlimit:10;" d="M 539.472656 170.332031 L 550.269531 178.34375 "/>
<path style="fill:none;stroke-width:0.2;stroke-linecap:butt;stroke-linejoin:miter;stroke:rgb(26.666667%,26.666667%,26.666667%);stroke-opacity:1;stroke-miterlimit:10;" d="M 360.621094 303.875 L 344.765625 309.078125 "/>
<path style="fill:none;stroke-width:0.2;stroke-linecap:butt;stroke-linejoin:miter;stroke:rgb(26.666667%,26.666667%,26.666667%);stroke-opacity:1;stroke-miterlimit:10;" d="M 343.8125 309.390625 L 367.230469 320.796875 "/>
<path style="fill:none;stroke-width:0.2;stroke-linecap:butt;stroke-linejoin:miter;stroke:rgb(26.666667%,26.666667%,26.666667%);stroke-opacity:1;stroke-miterlimit:10;" d="M 346.375 308.328125 C 346.375 310.328125 343.375 310.328125 343.375 308.328125 C 343.375 306.328125 346.375 306.328125 346.375 308.328125 "/>
<path style="fill:none;stroke-width:0.2;stroke-linecap:butt;stroke-linejoin:miter;stroke:rgb(26.666667%,26.666667%,26.666667%);stroke-opacity:1;stroke-miterlimit:10;" d="M 343.8125 309.390625 L 301.257812 315.816406 "/>
<path style="fill:none;stroke-width:0.2;stroke-linecap:butt;stroke-linejoin:miter;stroke:rgb(26.666667%,26.666667%,26.666667%);stroke-opacity:1;stroke-miterlimit:10;" d="M 343.8125 309.390625 L 336.472656 297.734375 "/>
<path style="fill:none;stroke-width:0.2;stroke-linecap:butt;stroke-linejoin:miter;stroke:rgb(26.666667%,26.666667%,26.666667%);stroke-opacity:1;stroke-miterlimit:10;" d="M 343.8125 309.390625 L 352.34375 289.554688 "/>
<path style="fill:none;stroke-width:0.2;stroke-linecap:butt;stroke-linejoin:miter;stroke:rgb(26.666667%,26.666667%,26.666667%);stroke-opacity:1;stroke-miterlimit:10;" d="M 343.8125 309.390625 L 345.226562 324.667969 "/>
<path style="fill:none;stroke-width:0.2;stroke-linecap:butt;stroke-linejoin:miter;stroke:rgb(26.666667%,26.666667%,26.666667%);stroke-opacity:1;stroke-miterlimit:10;" d="M 394.140625 484.882812 L 396.699219 500.6875 "/>
<path style="fill:none;stroke-width:0.2;stroke-linecap:butt;stroke-linejoin:miter;stroke:rgb(26.666667%,26.666667%,26.666667%);stroke-opacity:1;stroke-miterlimit:10;" d="M 394.140625 484.882812 L 379.335938 489.292969 "/>
<path style="fill:none;stroke-width:0.2;stroke-linecap:butt;stroke-linejoin:miter;stroke:rgb(26.666667%,26.666667%,26.666667%);stroke-opacity:1;stroke-miterlimit:10;" d="M 394.140625 484.882812 L 391.90625 468.855469 "/>
<path style="fill:none;stroke-width:0.2;stroke-linecap:butt;stroke-linejoin:miter;stroke:rgb(26.666667%,26.666667%,26.666667%);stroke-opacity:1;stroke-miterlimit:10;" d="M 394.140625 484.882812 L 408.988281 481.101562 "/>
<path style="fill:none;stroke-width:0.2;stroke-linecap:butt;stroke-linejoin:miter;stroke:rgb(26.666667%,26.666667%,26.666667%);stroke-opacity:1;stroke-miterlimit:10;" d="M 419.171875 547.441406 L 409.203125 556.5625 "/>
<path style="fill:none;stroke-width:0.2;stroke-linecap:butt;stroke-linejoin:miter;stroke:rgb(26.666667%,26.666667%,26.666667%);stroke-opacity:1;stroke-miterlimit:10;" d="M 222.40625 92.472656 L 224.851562 106.539062 "/>
<path style="fill:none;stroke-width:0.2;stroke-linecap:butt;stroke-linejoin:miter;stroke:rgb(26.666667%,26.666667%,26.666667%);stroke-opacity:1;stroke-miterlimit:10;" d="M 293.695312 280.460938 L 292.421875 262.820312 "/>
<path style="fill:none;stroke-width:0.2;stroke-linecap:butt;stroke-linejoin:miter;stroke:rgb(26.666667%,26.666667%,26.666667%);stroke-opacity:1;stroke-miterlimit:10;" d="M 293.695312 280.460938 L 306.585938 286.234375 "/>
<path style="fill:none;stroke-width:0.2;stroke-linecap:butt;stroke-linejoin:miter;stroke:rgb(26.666667%,26.666667%,26.666667%);stroke-opacity:1;stroke-miterlimit:10;" d="M 293.695312 280.460938 L 308.121094 267.171875 "/>
<path style="fill:none;stroke-width:0.2;stroke-linecap:butt;stroke-linejoin:miter;stroke:rgb(26.666667%,26.666667%,26.666667%);stroke-opacity:1;stroke-miterlimit:10;" d="M 293.695312 280.460938 L 282.992188 289.203125 "/>
<path style="fill:none;stroke-width:0.2;stroke-linecap:butt;stroke-linejoin:miter;stroke:rgb(26.666667%,26.666667%,26.666667%);stroke-opacity:1;stroke-miterlimit:10;" d="M 293.695312 280.460938 L 300.085938 314.984375 "/>
<path style="fill:none;stroke-width:0.2;stroke-linecap:butt;stroke-linejoin:miter;stroke:rgb(26.666667%,26.666667%,26.666667%);stroke-opacity:1;stroke-miterlimit:10;" d="M 293.695312 280.460938 L 272.710938 265.070312 "/>
<path style="fill:none;stroke-width:0.2;stroke-linecap:butt;stroke-linejoin:miter;stroke:rgb(26.666667%,26.666667%,26.666667%);stroke-opacity:1;stroke-miterlimit:10;" d="M 280.925781 571.109375 L 291.402344 579.378906 "/>
<path style="fill:none;stroke-width:0.2;stroke-linecap:butt;stroke-linejoin:miter;stroke:rgb(26.666667%,26.666667%,26.666667%);stroke-opacity:1;stroke-miterlimit:10;" d="M 280.925781 571.109375 L 270.429688 562.867188 "/>
<path style="fill:none;stroke-width:0.2;stroke-linecap:butt;stroke-linejoin:miter;stroke:rgb(26.666667%,26.666667%,26.666667%);stroke-opacity:1;stroke-miterlimit:10;" d="M 375.808594 24.050781 L 362.765625 22.117188 "/>
<path style="fill:none;stroke-width:0.2;stroke-linecap:butt;stroke-linejoin:miter;stroke:rgb(26.666667%,26.666667%,26.666667%);stroke-opacity:1;stroke-miterlimit:10;" d="M 116.679688 209.746094 L 131.179688 205.828125 "/>
<path style="fill:none;stroke-width:0.2;stroke-linecap:butt;stroke-linejoin:miter;stroke:rgb(26.666667%,26.666667%,26.666667%);stroke-opacity:1;stroke-miterlimit:10;" d="M 175.929688 268.589844 L 187.863281 256.476562 "/>
<path style="fill:none;stroke-width:0.2;stroke-linecap:butt;stroke-linejoin:miter;stroke:rgb(26.666667%,26.666667%,26.666667%);stroke-opacity:1;stroke-miterlimit:10;" d="M 372.492188 176.246094 L 376.640625 161.699219 "/>
<path style="fill:none;stroke-width:0.2;stroke-linecap:butt;stroke-linejoin:miter;stroke:rgb(26.666667%,26.666667%,26.666667%);stroke-opacity:1;stroke-miterlimit:10;" d="M 360.960938 406.257812 L 346.847656 394.324219 "/>
<path style="fill:none;stroke-width:0.2;stroke-linecap:butt;stroke-linejoin:miter;stroke:rgb(26.666667%,26.666667%,26.666667%);stroke-opacity:1;stroke-miterlimit:10;" d="M 262.910156 40.410156 L 275.003906 45.683594 "/>
<path style="fill:none;stroke-width:0.2;stroke-linecap:butt;stroke-linejoin:miter;stroke:rgb(26.666667%,26.666667%,26.666667%);stroke-opacity:1;stroke-miterlimit:10;" d="M 346.652344 416.96875 L 346.109375 394.679688 "/>
<path style="fill:none;stroke-width:0.2;stroke-linecap:butt;stroke-linejoin:miter;stroke:rgb(26.666667%,26.666667%,26.666667%);stroke-opacity:1;stroke-miterlimit:10;" d="M 133.273438 222.597656 L 132.210938 206.5625 "/>
<path style="fill:none;stroke-width:0.2;stroke-linecap:butt;stroke-linejoin:miter;stroke:rgb(26.666667%,26.666667%,26.666667%);stroke-opacity:1;stroke-miterlimit:10;" d="M 209.816406 200.726562 L 202.675781 215.910156 "/>
<path style="fill:none;stroke-width:0.2;stroke-linecap:butt;stroke-linejoin:miter;stroke:rgb(26.666667%,26.666667%,26.666667%);stroke-opacity:1;stroke-miterlimit:10;" d="M 546.820312 457.144531 L 553.113281 444.714844 "/>
<path style="fill:none;stroke-width:0.2;stroke-linecap:butt;stroke-linejoin:miter;stroke:rgb(26.666667%,26.666667%,26.666667%);stroke-opacity:1;stroke-miterlimit:10;" d="M 546.820312 457.144531 L 540.546875 469.585938 "/>
<path style="fill:none;stroke-width:0.2;stroke-linecap:butt;stroke-linejoin:miter;stroke:rgb(26.666667%,26.666667%,26.666667%);stroke-opacity:1;stroke-miterlimit:10;" d="M 57.058594 170.28125 L 55.769531 154.746094 "/>
<path style="fill:none;stroke-width:0.2;stroke-linecap:butt;stroke-linejoin:miter;stroke:rgb(26.666667%,26.666667%,26.666667%);stroke-opacity:1;stroke-miterlimit:10;" d="M 57.058594 170.28125 L 47.820312 181.917969 "/>
<path style="fill:none;stroke-width:0.2;stroke-linecap:butt;stroke-linejoin:miter;stroke:rgb(26.666667%,26.666667%,26.666667%);stroke-opacity:1;stroke-miterlimit:10;" d="M 57.058594 170.28125 L 69.621094 176.410156 "/>
<path style="fill:none;stroke-width:0.2;stroke-linecap:butt;stroke-linejoin:miter;stroke:rgb(26.666667%,26.666667%,26.666667%);stroke-opacity:1;stroke-miterlimit:10;" d="M 543.953125 259.804688 L 538.6875 247.054688 "/>
<path style="fill:none;stroke-width:0.2;stroke-linecap:butt;stroke-linejoin:miter;stroke:rgb(26.666667%,26.666667%,26.666667%);stroke-opacity:1;stroke-miterlimit:10;" d="M 160.828125 155.574219 L 154.003906 169.847656 "/>
<path style="fill:none;stroke-width:0.2;stroke-linecap:butt;stroke-linejoin:miter;stroke:rgb(26.666667%,26.666667%,26.666667%);stroke-opacity:1;stroke-miterlimit:10;" d="M 194.835938 555.488281 L 186.308594 544.695312 "/>
<path style="fill:none;stroke-width:0.2;stroke-linecap:butt;stroke-linejoin:miter;stroke:rgb(26.666667%,26.666667%,26.666667%);stroke-opacity:1;stroke-miterlimit:10;" d="M 194.835938 555.488281 L 203.261719 566.359375 "/>
<path style="fill:none;stroke-width:0.2;stroke-linecap:butt;stroke-linejoin:miter;stroke:rgb(26.666667%,26.666667%,26.666667%);stroke-opacity:1;stroke-miterlimit:10;" d="M 475.757812 540.902344 L 480.324219 527.75 "/>
<path style="fill:none;stroke-width:0.2;stroke-linecap:butt;stroke-linejoin:miter;stroke:rgb(26.666667%,26.666667%,26.666667%);stroke-opacity:1;stroke-miterlimit:10;" d="M 448.964844 366.550781 L 456.550781 353.820312 "/>
<path style="fill:none;stroke-width:0.2;stroke-linecap:butt;stroke-linejoin:miter;stroke:rgb(26.666667%,26.666667%,26.666667%);stroke-opacity:1;stroke-miterlimit:10;" d="M 448.964844 366.550781 L 455.433594 379.730469 "/>
<path style="fill:none;stroke-width:0.2;stroke-linecap:butt;stroke-linejoin:miter;stroke:rgb(26.666667%,26.666667%,26.666667%);stroke-opacity:1;stroke-miterlimit:10;" d="M 448.964844 366.550781 L 435.070312 367.074219 "/>
<path style="fill:none;stroke-width:0.2;stroke-linecap:butt;stroke-linejoin:miter;stroke:rgb(26.666667%,26.666667%,26.666667%);stroke-opacity:1;stroke-miterlimit:10;" d="M 313.851562 145.140625 L 300.515625 137.742188 "/>
<path style="fill:none;stroke-width:0.2;stroke-linecap:butt;stroke-linejoin:miter;stroke:rgb(26.666667%,26.666667%,26.666667%);stroke-opacity:1;stroke-miterlimit:10;" d="M 36.800781 356.742188 L 49.703125 366.230469 "/>
<path style="fill:none;stroke-width:0.2;stroke-linecap:butt;stroke-linejoin:miter;stroke:rgb(26.666667%,26.666667%,26.666667%);stroke-opacity:1;stroke-miterlimit:10;" d="M 36.800781 356.742188 L 20.996094 358.097656 "/>
<path style="fill:none;stroke-width:0.2;stroke-linecap:butt;stroke-linejoin:miter;stroke:rgb(26.666667%,26.666667%,26.666667%);stroke-opacity:1;stroke-miterlimit:10;" d="M 36.800781 356.742188 L 49.441406 344.972656 "/>
<path style="fill:none;stroke-width:0.2;stroke-linecap:butt;stroke-linejoin:miter;stroke:rgb(26.666667%,26.666667%,26.666667%);stroke-opacity:1;stroke-miterlimit:10;" d="M 36.800781 356.742188 L 31.34375 340.003906 "/>
<path style="fill:none;stroke-width:0.2;stroke-linecap:butt;stroke-linejoin:miter;stroke:rgb(26.666667%,26.666667%,26.666667%);stroke-opacity:1;stroke-miterlimit:10;" d="M 36.800781 356.742188 L 32.585938 374.609375 "/>
<path style="fill:none;stroke-width:0.2;stroke-linecap:butt;stroke-linejoin:miter;stroke:rgb(26.666667%,26.666667%,26.666667%);stroke-opacity:1;stroke-miterlimit:10;" d="M 240.722656 310.84375 L 299.273438 315.882812 "/>
<path style="fill:none;stroke-width:0.2;stroke-linecap:butt;stroke-linejoin:miter;stroke:rgb(26.666667%,26.666667%,26.666667%);stroke-opacity:1;stroke-miterlimit:10;" d="M 240.722656 310.84375 L 217.515625 313.910156 "/>
<path style="fill:none;stroke-width:0.2;stroke-linecap:butt;stroke-linejoin:miter;stroke:rgb(26.666667%,26.666667%,26.666667%);stroke-opacity:1;stroke-miterlimit:10;" d="M 240.722656 310.84375 L 245.492188 323.007812 "/>
<path style="fill:none;stroke-width:0.2;stroke-linecap:butt;stroke-linejoin:miter;stroke:rgb(26.666667%,26.666667%,26.666667%);stroke-opacity:1;stroke-miterlimit:10;" d="M 240.722656 310.84375 L 237.082031 295.515625 "/>
<path style="fill:none;stroke-width:0.2;stroke-linecap:butt;stroke-linejoin:miter;stroke:rgb(26.666667%,26.666667%,26.666667%);stroke-opacity:1;stroke-miterlimit:10;" d="M 240.722656 310.84375 L 220.425781 298.296875 "/>
<path style="fill:none;stroke-width:0.2;stroke-linecap:butt;stroke-linejoin:miter;stroke:rgb(26.666667%,26.666667%,26.666667%);stroke-opacity:1;stroke-miterlimit:10;" d="M 240.722656 310.84375 L 227.785156 325.285156 "/>
<path style="fill:none;stroke-width:0.2;stroke-linecap:butt;stroke-linejoin:miter;stroke:rgb(26.666667%,26.666667%,26.666667%);stroke-opacity:1;stroke-miterlimit:10;" d="M 325.859375 355.609375 L 300.8125 316.808594 "/>
<path style="fill:none;stroke-width:0.2;stroke-linecap:butt;stroke-linejoin:miter;stroke:rgb(26.666667%,26.666667%,26.666667%);stroke-opacity:1;stroke-miterlimit:10;" d="M 325.859375 355.609375 L 345.613281 392.796875 "/>
<path style="fill:none;stroke-width:0.2;stroke-linecap:butt;stroke-linejoin:miter;stroke:rgb(26.666667%,26.666667%,26.666667%);stroke-opacity:1;stroke-miterlimit:10;" d="M 390.953125 155.042969 L 377.84375 160.363281 "/>
<path style="fill:none;stroke-width:0.2;stroke-linecap:butt;stroke-linejoin:miter;stroke:rgb(26.666667%,26.666667%,26.666667%);stroke-opacity:1;stroke-miterlimit:10;" d="M 288.933594 324.417969 L 299.46875 316.566406 "/>
<path style="fill:none;stroke-width:0.2;stroke-linecap:butt;stroke-linejoin:miter;stroke:rgb(26.666667%,26.666667%,26.666667%);stroke-opacity:1;stroke-miterlimit:10;" d="M 476.824219 439.117188 L 467.902344 450.808594 "/>
<path style="fill:none;stroke-width:0.2;stroke-linecap:butt;stroke-linejoin:miter;stroke:rgb(26.666667%,26.666667%,26.666667%);stroke-opacity:1;stroke-miterlimit:10;" d="M 476.824219 439.117188 L 471.484375 425.40625 "/>
<path style="fill:none;stroke-width:0.2;stroke-linecap:butt;stroke-linejoin:miter;stroke:rgb(26.666667%,26.666667%,26.666667%);stroke-opacity:1;stroke-miterlimit:10;" d="M 476.824219 439.117188 L 490.757812 439.855469 "/>
<path style="fill:none;stroke-width:0.2;stroke-linecap:butt;stroke-linejoin:miter;stroke:rgb(26.666667%,26.666667%,26.666667%);stroke-opacity:1;stroke-miterlimit:10;" d="M 297.40625 398.703125 L 293.363281 411.929688 "/>
<path style="fill:none;stroke-width:0.2;stroke-linecap:butt;stroke-linejoin:miter;stroke:rgb(26.666667%,26.666667%,26.666667%);stroke-opacity:1;stroke-miterlimit:10;" d="M 297.40625 398.703125 L 316.371094 395.019531 "/>
<path style="fill:none;stroke-width:0.2;stroke-linecap:butt;stroke-linejoin:miter;stroke:rgb(26.666667%,26.666667%,26.666667%);stroke-opacity:1;stroke-miterlimit:10;" d="M 297.40625 398.703125 L 284.96875 398.652344 "/>
<path style="fill:none;stroke-width:0.2;stroke-linecap:butt;stroke-linejoin:miter;stroke:rgb(26.666667%,26.666667%,26.666667%);stroke-opacity:1;stroke-miterlimit:10;" d="M 297.40625 398.703125 L 304.605469 379.566406 "/>
<path style="fill:none;stroke-width:0.2;stroke-linecap:butt;stroke-linejoin:miter;stroke:rgb(26.666667%,26.666667%,26.666667%);stroke-opacity:1;stroke-miterlimit:10;" d="M 253.960938 252.863281 L 235.117188 246.355469 "/>
<path style="fill:none;stroke-width:0.2;stroke-linecap:butt;stroke-linejoin:miter;stroke:rgb(26.666667%,26.666667%,26.666667%);stroke-opacity:1;stroke-miterlimit:10;" d="M 253.960938 252.863281 L 271.066406 263.933594 "/>
<path style="fill:none;stroke-width:0.2;stroke-linecap:butt;stroke-linejoin:miter;stroke:rgb(26.666667%,26.666667%,26.666667%);stroke-opacity:1;stroke-miterlimit:10;" d="M 298.367188 200.457031 L 311.304688 202.777344 "/>
<path style="fill:none;stroke-width:0.2;stroke-linecap:butt;stroke-linejoin:miter;stroke:rgb(26.666667%,26.666667%,26.666667%);stroke-opacity:1;stroke-miterlimit:10;" d="M 366.667969 85.890625 L 353.652344 86.347656 "/>
<path style="fill:none;stroke-width:0.2;stroke-linecap:butt;stroke-linejoin:miter;stroke:rgb(26.666667%,26.666667%,26.666667%);stroke-opacity:1;stroke-miterlimit:10;" d="M 366.667969 85.890625 L 379.683594 84.882812 "/>
<path style="fill:none;stroke-width:0.2;stroke-linecap:butt;stroke-linejoin:miter;stroke:rgb(26.666667%,26.666667%,26.666667%);stroke-opacity:1;stroke-miterlimit:10;" d="M 160.449219 388.894531 L 158.429688 403.3125 "/>
<path style="fill:none;stroke-width:0.2;stroke-linecap:butt;stroke-linejoin:miter;stroke:rgb(26.666667%,26.666667%,26.666667%);stroke-opacity:1;stroke-miterlimit:10;" d="M 160.449219 388.894531 L 162.261719 374.515625 "/>
<path style="fill:none;stroke-width:0.2;stroke-linecap:butt;stroke-linejoin:miter;stroke:rgb(26.666667%,26.666667%,26.666667%);stroke-opacity:1;stroke-miterlimit:10;" d="M 114.75 147.039062 L 112.738281 161.027344 "/>
<path style="fill:none;stroke-width:0.2;stroke-linecap:butt;stroke-linejoin:miter;stroke:rgb(26.666667%,26.666667%,26.666667%);stroke-opacity:1;stroke-miterlimit:10;" d="M 114.75 147.039062 L 116.371094 133.046875 "/>
<path style="fill:none;stroke-width:0.2;stroke-linecap:butt;stroke-linejoin:miter;stroke:rgb(26.666667%,26.666667%,26.666667%);stroke-opacity:1;stroke-miterlimit:10;" d="M 366.628906 149.332031 L 376.246094 159.996094 "/>
<path style="fill:none;stroke-width:0.2;stroke-linecap:butt;stroke-linejoin:miter;stroke:rgb(26.666667%,26.666667%,26.666667%);stroke-opacity:1;stroke-miterlimit:10;" d="M 261.742188 426.878906 L 296.625 399.324219 "/>
<path style="fill:none;stroke-width:0.2;stroke-linecap:butt;stroke-linejoin:miter;stroke:rgb(26.666667%,26.666667%,26.666667%);stroke-opacity:1;stroke-miterlimit:10;" d="M 261.742188 426.878906 L 292.160156 413.296875 "/>
<path style="fill:none;stroke-width:0.2;stroke-linecap:butt;stroke-linejoin:miter;stroke:rgb(26.666667%,26.666667%,26.666667%);stroke-opacity:1;stroke-miterlimit:10;" d="M 261.742188 426.878906 L 283.347656 399.433594 "/>
<path style="fill:none;stroke-width:0.2;stroke-linecap:butt;stroke-linejoin:miter;stroke:rgb(26.666667%,26.666667%,26.666667%);stroke-opacity:1;stroke-miterlimit:10;" d="M 261.742188 426.878906 L 239.863281 460.011719 "/>
<path style="fill:none;stroke-width:0.2;stroke-linecap:butt;stroke-linejoin:miter;stroke:rgb(26.666667%,26.666667%,26.666667%);stroke-opacity:1;stroke-miterlimit:10;" d="M 261.742188 426.878906 L 276.363281 426.222656 "/>
<path style="fill:none;stroke-width:0.2;stroke-linecap:butt;stroke-linejoin:miter;stroke:rgb(26.666667%,26.666667%,26.666667%);stroke-opacity:1;stroke-miterlimit:10;" d="M 261.742188 426.878906 L 275.929688 465.246094 "/>
<path style="fill:none;stroke-width:0.2;stroke-linecap:butt;stroke-linejoin:miter;stroke:rgb(26.666667%,26.666667%,26.666667%);stroke-opacity:1;stroke-miterlimit:10;" d="M 261.742188 426.878906 L 296.25 442.863281 "/>
<path style="fill:none;stroke-width:0.2;stroke-linecap:butt;stroke-linejoin:miter;stroke:rgb(26.666667%,26.666667%,26.666667%);stroke-opacity:1;stroke-miterlimit:10;" d="M 261.742188 426.878906 L 275.832031 439.476562 "/>
<path style="fill:none;stroke-width:0.2;stroke-linecap:butt;stroke-linejoin:miter;stroke:rgb(26.666667%,26.666667%,26.666667%);stroke-opacity:1;stroke-miterlimit:10;" d="M 261.742188 426.878906 L 291.308594 429.070312 "/>
<path style="fill:none;stroke-width:0.2;stroke-linecap:butt;stroke-linejoin:miter;stroke:rgb(26.666667%,26.666667%,26.666667%);stroke-opacity:1;stroke-miterlimit:10;" d="M 261.742188 426.878906 L 258.261719 466.789062 "/>
<path style="fill:none;stroke-width:0.2;stroke-linecap:butt;stroke-linejoin:miter;stroke:rgb(26.666667%,26.666667%,26.666667%);stroke-opacity:1;stroke-miterlimit:10;" d="M 261.742188 426.878906 L 259.769531 439.175781 "/>
<path style="fill:none;stroke-width:0.2;stroke-linecap:butt;stroke-linejoin:miter;stroke:rgb(26.666667%,26.666667%,26.666667%);stroke-opacity:1;stroke-miterlimit:10;" d="M 261.742188 426.878906 L 269.082031 393.863281 "/>
<path style="fill:none;stroke-width:0.2;stroke-linecap:butt;stroke-linejoin:miter;stroke:rgb(26.666667%,26.666667%,26.666667%);stroke-opacity:1;stroke-miterlimit:10;" d="M 261.742188 426.878906 L 255.039062 401.832031 "/>
<path style="fill:none;stroke-width:0.2;stroke-linecap:butt;stroke-linejoin:miter;stroke:rgb(26.666667%,26.666667%,26.666667%);stroke-opacity:1;stroke-miterlimit:10;" d="M 261.742188 426.878906 L 250.246094 424.785156 "/>
<path style="fill:none;stroke-width:0.2;stroke-linecap:butt;stroke-linejoin:miter;stroke:rgb(26.666667%,26.666667%,26.666667%);stroke-opacity:1;stroke-miterlimit:10;" d="M 261.742188 426.878906 L 230.222656 445.863281 "/>
<path style="fill:none;stroke-width:0.2;stroke-linecap:butt;stroke-linejoin:miter;stroke:rgb(26.666667%,26.666667%,26.666667%);stroke-opacity:1;stroke-miterlimit:10;" d="M 261.742188 426.878906 L 252.058594 451.769531 "/>
<path style="fill:none;stroke-width:0.2;stroke-linecap:butt;stroke-linejoin:miter;stroke:rgb(26.666667%,26.666667%,26.666667%);stroke-opacity:1;stroke-miterlimit:10;" d="M 261.742188 426.878906 L 261.847656 413.589844 "/>
<path style="fill:none;stroke-width:0.2;stroke-linecap:butt;stroke-linejoin:miter;stroke:rgb(26.666667%,26.666667%,26.666667%);stroke-opacity:1;stroke-miterlimit:10;" d="M 261.742188 426.878906 L 243.992188 438.960938 "/>
<path style="fill:none;stroke-width:0.2;stroke-linecap:butt;stroke-linejoin:miter;stroke:rgb(26.666667%,26.666667%,26.666667%);stroke-opacity:1;stroke-miterlimit:10;" d="M 261.742188 426.878906 L 285.285156 452.59375 "/>
<path style="fill:none;stroke-width:0.2;stroke-linecap:butt;stroke-linejoin:miter;stroke:rgb(26.666667%,26.666667%,26.666667%);stroke-opacity:1;stroke-miterlimit:10;" d="M 261.742188 426.878906 L 267.699219 451.71875 "/>
<path style="fill:none;stroke-width:0.2;stroke-linecap:butt;stroke-linejoin:miter;stroke:rgb(26.666667%,26.666667%,26.666667%);stroke-opacity:1;stroke-miterlimit:10;" d="M 261.742188 426.878906 L 255.089844 386.398438 "/>
<path style="fill:none;stroke-width:0.2;stroke-linecap:butt;stroke-linejoin:miter;stroke:rgb(26.666667%,26.666667%,26.666667%);stroke-opacity:1;stroke-miterlimit:10;" d="M 261.742188 426.878906 L 244.171875 411 "/>
<path style="fill:none;stroke-width:0.2;stroke-linecap:butt;stroke-linejoin:miter;stroke:rgb(26.666667%,26.666667%,26.666667%);stroke-opacity:1;stroke-miterlimit:10;" d="M 261.742188 426.878906 L 274.441406 412.550781 "/>
<path style="fill:none;stroke-width:0.2;stroke-linecap:butt;stroke-linejoin:miter;stroke:rgb(26.666667%,26.666667%,26.666667%);stroke-opacity:1;stroke-miterlimit:10;" d="M 261.742188 426.878906 L 236.492188 424.878906 "/>
<path style="fill:none;stroke-width:0.2;stroke-linecap:butt;stroke-linejoin:miter;stroke:rgb(26.666667%,26.666667%,26.666667%);stroke-opacity:1;stroke-miterlimit:10;" d="M 261.742188 426.878906 L 238.9375 395.210938 "/>
<path style="fill:none;stroke-width:0.2;stroke-linecap:butt;stroke-linejoin:miter;stroke:rgb(26.666667%,26.666667%,26.666667%);stroke-opacity:1;stroke-miterlimit:10;" d="M 261.742188 426.878906 L 228.070312 409.785156 "/>
<path style="fill:none;stroke-width:0.2;stroke-linecap:butt;stroke-linejoin:miter;stroke:rgb(26.666667%,26.666667%,26.666667%);stroke-opacity:1;stroke-miterlimit:10;" d="M 261.742188 426.878906 L 223.378906 429.738281 "/>
<path style="fill:none;stroke-width:0.2;stroke-linecap:butt;stroke-linejoin:miter;stroke:rgb(26.666667%,26.666667%,26.666667%);stroke-opacity:1;stroke-miterlimit:10;" d="M 90.871094 389.273438 L 104.0625 394.707031 "/>
<path style="fill:none;stroke-width:0.2;stroke-linecap:butt;stroke-linejoin:miter;stroke:rgb(26.666667%,26.666667%,26.666667%);stroke-opacity:1;stroke-miterlimit:10;" d="M 577.753906 310.292969 L 578.804688 324.375 "/>
<path style="fill:none;stroke-width:0.2;stroke-linecap:butt;stroke-linejoin:miter;stroke:rgb(26.666667%,26.666667%,26.666667%);stroke-opacity:1;stroke-miterlimit:10;" d="M 117.15625 406.242188 L 105.722656 395.765625 "/>
<path style="fill:none;stroke-width:0.2;stroke-linecap:butt;stroke-linejoin:miter;stroke:rgb(26.666667%,26.666667%,26.666667%);stroke-opacity:1;stroke-miterlimit:10;" d="M 580 340.472656 L 578.953125 326.367188 "/>
<path style="fill:none;stroke-width:0.2;stroke-linecap:butt;stroke-linejoin:miter;stroke:rgb(26.666667%,26.666667%,26.666667%);stroke-opacity:1;stroke-miterlimit:10;" d="M 227.722656 123.585938 L 225.1875 108.507812 "/>
<path style="fill:none;stroke-width:0.2;stroke-linecap:butt;stroke-linejoin:miter;stroke:rgb(26.666667%,26.666667%,26.666667%);stroke-opacity:1;stroke-miterlimit:10;" d="M 227.722656 123.585938 L 230.207031 137.617188 "/>
<path style=" stroke:none;fill-rule:nonzero;fill:rgb(100%,0%,0%);fill-opacity:1;" d="M 98.351562 411.886719 C 98.351562 413.222656 96.351562 413.222656 96.351562 411.886719 C 96.351562 410.554688 98.351562 410.554688 98.351562 411.886719 "/>
<path style=" stroke:none;fill-rule:nonzero;fill:rgb(100%,0%,0%);fill-opacity:1;" d="M 105.984375 395.089844 C 105.984375 396.421875 103.984375 396.421875 103.984375 395.089844 C 103.984375 393.753906 105.984375 393.753906 105.984375 395.089844 "/>
<path style=" stroke:none;fill-rule:nonzero;fill:rgb(100%,0%,0%);fill-opacity:1;" d="M 111.855469 374.515625 C 111.855469 375.847656 109.855469 375.847656 109.855469 374.515625 C 109.855469 373.179688 111.855469 373.179688 111.855469 374.515625 "/>
<path style=" stroke:none;fill-rule:nonzero;fill:rgb(100%,0%,0%);fill-opacity:1;" d="M 114.804688 357.785156 C 114.804688 359.121094 112.804688 359.121094 112.804688 357.785156 C 112.804688 356.453125 114.804688 356.453125 114.804688 357.785156 "/>
<path style=" stroke:none;fill-rule:nonzero;fill:rgb(100%,0%,0%);fill-opacity:1;" d="M 210.46875 240.105469 C 210.46875 241.441406 208.46875 241.441406 208.46875 240.105469 C 208.46875 238.773438 210.46875 238.773438 210.46875 240.105469 "/>
<path style=" stroke:none;fill-rule:nonzero;fill:rgb(100%,0%,0%);fill-opacity:1;" d="M 210.246094 255.382812 C 210.246094 256.714844 208.246094 256.714844 208.246094 255.382812 C 208.246094 254.046875 210.246094 254.046875 210.246094 255.382812 "/>
<path style=" stroke:none;fill-rule:nonzero;fill:rgb(100%,0%,0%);fill-opacity:1;" d="M 221.089844 228.738281 C 221.089844 230.074219 219.089844 230.074219 219.089844 228.738281 C 219.089844 227.40625 221.089844 227.40625 221.089844 228.738281 "/>
<path style=" stroke:none;fill-rule:nonzero;fill:rgb(100%,0%,0%);fill-opacity:1;" d="M 203.253906 216.816406 C 203.253906 218.148438 201.253906 218.148438 201.253906 216.816406 C 201.253906 215.480469 203.253906 215.480469 203.253906 216.816406 "/>
<path style=" stroke:none;fill-rule:nonzero;fill:rgb(100%,0%,0%);fill-opacity:1;" d="M 189.566406 255.765625 C 189.566406 257.097656 187.566406 257.097656 187.566406 255.765625 C 187.566406 254.429688 189.566406 254.429688 189.566406 255.765625 "/>
<path style=" stroke:none;fill-rule:nonzero;fill:rgb(100%,0%,0%);fill-opacity:1;" d="M 235.171875 246.03125 C 235.171875 247.363281 233.171875 247.363281 233.171875 246.03125 C 233.171875 244.695312 235.171875 244.695312 235.171875 246.03125 "/>
<path style=" stroke:none;fill-rule:nonzero;fill:rgb(100%,0%,0%);fill-opacity:1;" d="M 289.859375 51.84375 C 289.859375 53.175781 287.859375 53.175781 287.859375 51.84375 C 287.859375 50.507812 289.859375 50.507812 289.859375 51.84375 "/>
<path style=" stroke:none;fill-rule:nonzero;fill:rgb(100%,0%,0%);fill-opacity:1;" d="M 276.917969 46.082031 C 276.917969 47.417969 274.917969 47.417969 274.917969 46.082031 C 274.917969 44.75 276.917969 44.75 276.917969 46.082031 "/>
<path style=" stroke:none;fill-rule:nonzero;fill:rgb(100%,0%,0%);fill-opacity:1;" d="M 292.742188 152.246094 C 292.742188 153.582031 290.742188 153.582031 290.742188 152.246094 C 290.742188 150.914062 292.742188 150.914062 292.742188 152.246094 "/>
<path style=" stroke:none;fill-rule:nonzero;fill:rgb(100%,0%,0%);fill-opacity:1;" d="M 300.640625 137.257812 C 300.640625 138.589844 298.640625 138.589844 298.640625 137.257812 C 298.640625 135.921875 300.640625 135.921875 300.640625 137.257812 "/>
<path style=" stroke:none;fill-rule:nonzero;fill:rgb(100%,0%,0%);fill-opacity:1;" d="M 436.621094 220.078125 C 436.621094 221.414062 434.621094 221.414062 434.621094 220.078125 C 434.621094 218.746094 436.621094 218.746094 436.621094 220.078125 "/>
<path style=" stroke:none;fill-rule:nonzero;fill:rgb(100%,0%,0%);fill-opacity:1;" d="M 418.3125 213.902344 C 418.3125 215.234375 416.3125 215.234375 416.3125 213.902344 C 416.3125 212.570312 418.3125 212.570312 418.3125 213.902344 "/>
<path style=" stroke:none;fill-rule:nonzero;fill:rgb(100%,0%,0%);fill-opacity:1;" d="M 429.570312 200.828125 C 429.570312 202.164062 427.570312 202.164062 427.570312 200.828125 C 427.570312 199.496094 429.570312 199.496094 429.570312 200.828125 "/>
<path style=" stroke:none;fill-rule:nonzero;fill:rgb(100%,0%,0%);fill-opacity:1;" d="M 434.976562 237.207031 C 434.976562 238.542969 432.976562 238.542969 432.976562 237.207031 C 432.976562 235.875 434.976562 235.875 434.976562 237.207031 "/>
<path style=" stroke:none;fill-rule:nonzero;fill:rgb(100%,0%,0%);fill-opacity:1;" d="M 419.304688 231.914062 C 419.304688 233.246094 417.304688 233.246094 417.304688 231.914062 C 417.304688 230.578125 419.304688 230.578125 419.304688 231.914062 "/>
<path style=" stroke:none;fill-rule:nonzero;fill:rgb(100%,0%,0%);fill-opacity:1;" d="M 446.304688 200.566406 C 446.304688 201.902344 444.304688 201.902344 444.304688 200.566406 C 444.304688 199.234375 446.304688 199.234375 446.304688 200.566406 "/>
<path style=" stroke:none;fill-rule:nonzero;fill:rgb(100%,0%,0%);fill-opacity:1;" d="M 454.546875 241.40625 C 454.546875 242.742188 452.546875 242.742188 452.546875 241.40625 C 452.546875 240.074219 454.546875 240.074219 454.546875 241.40625 "/>
<path style=" stroke:none;fill-rule:nonzero;fill:rgb(100%,0%,0%);fill-opacity:1;" d="M 453.382812 216.988281 C 453.382812 218.320312 451.382812 218.320312 451.382812 216.988281 C 451.382812 215.652344 453.382812 215.652344 453.382812 216.988281 "/>
<path style=" stroke:none;fill-rule:nonzero;fill:rgb(100%,0%,0%);fill-opacity:1;" d="M 468.410156 259.542969 C 468.410156 260.875 466.410156 260.875 466.410156 259.542969 C 466.410156 258.207031 468.410156 258.207031 468.410156 259.542969 "/>
<path style=" stroke:none;fill-rule:nonzero;fill:rgb(100%,0%,0%);fill-opacity:1;" d="M 481.9375 250.292969 C 481.9375 251.628906 479.9375 251.628906 479.9375 250.292969 C 479.9375 248.960938 481.9375 248.960938 481.9375 250.292969 "/>
<path style=" stroke:none;fill-rule:nonzero;fill:rgb(100%,0%,0%);fill-opacity:1;" d="M 459.511719 274.46875 C 459.511719 275.800781 457.511719 275.800781 457.511719 274.46875 C 457.511719 273.136719 459.511719 273.136719 459.511719 274.46875 "/>
<path style=" stroke:none;fill-rule:nonzero;fill:rgb(100%,0%,0%);fill-opacity:1;" d="M 480.136719 272.957031 C 480.136719 274.292969 478.136719 274.292969 478.136719 272.957031 C 478.136719 271.625 480.136719 271.625 480.136719 272.957031 "/>
<path style=" stroke:none;fill-rule:nonzero;fill:rgb(100%,0%,0%);fill-opacity:1;" d="M 440.328125 97.808594 C 440.328125 99.140625 438.328125 99.140625 438.328125 97.808594 C 438.328125 96.476562 440.328125 96.476562 440.328125 97.808594 "/>
<path style=" stroke:none;fill-rule:nonzero;fill:rgb(100%,0%,0%);fill-opacity:1;" d="M 448.660156 109.875 C 448.660156 111.210938 446.660156 111.210938 446.660156 109.875 C 446.660156 108.542969 448.660156 108.542969 448.660156 109.875 "/>
<path style=" stroke:none;fill-rule:nonzero;fill:rgb(100%,0%,0%);fill-opacity:1;" d="M 486.765625 512.851562 C 486.765625 514.183594 484.765625 514.183594 484.765625 512.851562 C 484.765625 511.515625 486.765625 511.515625 486.765625 512.851562 "/>
<path style=" stroke:none;fill-rule:nonzero;fill:rgb(100%,0%,0%);fill-opacity:1;" d="M 481.652344 526.804688 C 481.652344 528.140625 479.652344 528.140625 479.652344 526.804688 C 479.652344 525.472656 481.652344 525.472656 481.652344 526.804688 "/>
<path style=" stroke:none;fill-rule:nonzero;fill:rgb(100%,0%,0%);fill-opacity:1;" d="M 144.753906 187.953125 C 144.753906 189.289062 142.753906 189.289062 142.753906 187.953125 C 142.753906 186.621094 144.753906 186.621094 144.753906 187.953125 "/>
<path style=" stroke:none;fill-rule:nonzero;fill:rgb(100%,0%,0%);fill-opacity:1;" d="M 133.148438 205.566406 C 133.148438 206.898438 131.148438 206.898438 131.148438 205.566406 C 131.148438 204.230469 133.148438 204.230469 133.148438 205.566406 "/>
<path style=" stroke:none;fill-rule:nonzero;fill:rgb(100%,0%,0%);fill-opacity:1;" d="M 154.570312 170.75 C 154.570312 172.082031 152.570312 172.082031 152.570312 170.75 C 152.570312 169.414062 154.570312 169.414062 154.570312 170.75 "/>
<path style=" stroke:none;fill-rule:nonzero;fill:rgb(100%,0%,0%);fill-opacity:1;" d="M 308.074219 122.003906 C 308.074219 123.339844 306.074219 123.339844 306.074219 122.003906 C 306.074219 120.671875 308.074219 120.671875 308.074219 122.003906 "/>
<path style=" stroke:none;fill-rule:nonzero;fill:rgb(100%,0%,0%);fill-opacity:1;" d="M 519.65625 348.125 C 519.65625 349.457031 517.65625 349.457031 517.65625 348.125 C 517.65625 346.792969 519.65625 346.792969 519.65625 348.125 "/>
<path style=" stroke:none;fill-rule:nonzero;fill:rgb(100%,0%,0%);fill-opacity:1;" d="M 523.492188 362.652344 C 523.492188 363.984375 521.492188 363.984375 521.492188 362.652344 C 521.492188 361.316406 523.492188 361.316406 523.492188 362.652344 "/>
<path style=" stroke:none;fill-rule:nonzero;fill:rgb(100%,0%,0%);fill-opacity:1;" d="M 516.035156 333.542969 C 516.035156 334.875 514.035156 334.875 514.035156 333.542969 C 514.035156 332.207031 516.035156 332.207031 516.035156 333.542969 "/>
<path style=" stroke:none;fill-rule:nonzero;fill:rgb(100%,0%,0%);fill-opacity:1;" d="M 327.125 205.734375 C 327.125 207.070312 325.125 207.070312 325.125 205.734375 C 325.125 204.402344 327.125 204.402344 327.125 205.734375 "/>
<path style=" stroke:none;fill-rule:nonzero;fill:rgb(100%,0%,0%);fill-opacity:1;" d="M 313.289062 202.957031 C 313.289062 204.289062 311.289062 204.289062 311.289062 202.957031 C 311.289062 201.621094 313.289062 201.621094 313.289062 202.957031 "/>
<path style=" stroke:none;fill-rule:nonzero;fill:rgb(100%,0%,0%);fill-opacity:1;" d="M 189.785156 208.867188 C 189.785156 210.199219 187.785156 210.199219 187.785156 208.867188 C 187.785156 207.53125 189.785156 207.53125 189.785156 208.867188 "/>
<path style=" stroke:none;fill-rule:nonzero;fill:rgb(100%,0%,0%);fill-opacity:1;" d="M 398.59375 566.8125 C 398.59375 568.148438 396.59375 568.148438 396.59375 566.8125 C 396.59375 565.480469 398.59375 565.480469 398.59375 566.8125 "/>
<path style=" stroke:none;fill-rule:nonzero;fill:rgb(100%,0%,0%);fill-opacity:1;" d="M 409.464844 557.238281 C 409.464844 558.570312 407.464844 558.570312 407.464844 557.238281 C 407.464844 555.90625 409.464844 555.90625 409.464844 557.238281 "/>
<path style=" stroke:none;fill-rule:nonzero;fill:rgb(100%,0%,0%);fill-opacity:1;" d="M 533.117188 232.6875 C 533.117188 234.019531 531.117188 234.019531 531.117188 232.6875 C 531.117188 231.355469 533.117188 231.355469 533.117188 232.6875 "/>
<path style=" stroke:none;fill-rule:nonzero;fill:rgb(100%,0%,0%);fill-opacity:1;" d="M 539.304688 246.132812 C 539.304688 247.464844 537.304688 247.464844 537.304688 246.132812 C 537.304688 244.796875 539.304688 244.796875 539.304688 246.132812 "/>
<path style=" stroke:none;fill-rule:nonzero;fill:rgb(100%,0%,0%);fill-opacity:1;" d="M 286.535156 129.300781 C 286.535156 130.632812 284.535156 130.632812 284.535156 129.300781 C 284.535156 127.96875 286.535156 127.96875 286.535156 129.300781 "/>
<path style=" stroke:none;fill-rule:nonzero;fill:rgb(100%,0%,0%);fill-opacity:1;" d="M 457.210938 121.773438 C 457.210938 123.105469 455.210938 123.105469 455.210938 121.773438 C 455.210938 120.4375 457.210938 120.4375 457.210938 121.773438 "/>
<path style=" stroke:none;fill-rule:nonzero;fill:rgb(100%,0%,0%);fill-opacity:1;" d="M 385.011719 326.5625 C 385.011719 327.894531 383.011719 327.894531 383.011719 326.5625 C 383.011719 325.226562 385.011719 325.226562 385.011719 326.5625 "/>
<path style=" stroke:none;fill-rule:nonzero;fill:rgb(100%,0%,0%);fill-opacity:1;" d="M 369.128906 321.234375 C 369.128906 322.570312 367.128906 322.570312 367.128906 321.234375 C 367.128906 319.902344 369.128906 319.902344 369.128906 321.234375 "/>
<path style=" stroke:none;fill-rule:nonzero;fill:rgb(100%,0%,0%);fill-opacity:1;" d="M 348.75 20 C 348.75 21.332031 346.75 21.332031 346.75 20 C 346.75 18.667969 348.75 18.667969 348.75 20 "/>
<path style=" stroke:none;fill-rule:nonzero;fill:rgb(100%,0%,0%);fill-opacity:1;" d="M 362.773438 21.96875 C 362.773438 23.304688 360.773438 23.304688 360.773438 21.96875 C 360.773438 20.636719 362.773438 20.636719 362.773438 21.96875 "/>
<path style=" stroke:none;fill-rule:nonzero;fill:rgb(100%,0%,0%);fill-opacity:1;" d="M 540.472656 170.332031 C 540.472656 171.664062 538.472656 171.664062 538.472656 170.332031 C 538.472656 168.996094 540.472656 168.996094 540.472656 170.332031 "/>
<path style=" stroke:none;fill-rule:nonzero;fill:rgb(100%,0%,0%);fill-opacity:1;" d="M 528.917969 161.667969 C 528.917969 163.003906 526.917969 163.003906 526.917969 161.667969 C 526.917969 160.335938 528.917969 160.335938 528.917969 161.667969 "/>
<path style=" stroke:none;fill-rule:nonzero;fill:rgb(100%,0%,0%);fill-opacity:1;" d="M 552.070312 178.941406 C 552.070312 180.273438 550.070312 180.273438 550.070312 178.941406 C 550.070312 177.605469 552.070312 177.605469 552.070312 178.941406 "/>
<path style=" stroke:none;fill-rule:nonzero;fill:rgb(100%,0%,0%);fill-opacity:1;" d="M 361.621094 303.875 C 361.621094 305.207031 359.621094 305.207031 359.621094 303.875 C 359.621094 302.539062 361.621094 302.539062 361.621094 303.875 "/>
<path style=" stroke:none;fill-rule:nonzero;fill:rgb(100%,0%,0%);fill-opacity:1;" d="M 344.8125 309.390625 C 344.8125 310.722656 342.8125 310.722656 342.8125 309.390625 C 342.8125 308.058594 344.8125 308.058594 344.8125 309.390625 "/>
<path style=" stroke:none;fill-rule:nonzero;fill:rgb(100%,0%,0%);fill-opacity:1;" d="M 395.140625 484.882812 C 395.140625 486.214844 393.140625 486.214844 393.140625 484.882812 C 393.140625 483.546875 395.140625 483.546875 395.140625 484.882812 "/>
<path style=" stroke:none;fill-rule:nonzero;fill:rgb(100%,0%,0%);fill-opacity:1;" d="M 397.859375 501.675781 C 397.859375 503.007812 395.859375 503.007812 395.859375 501.675781 C 395.859375 500.339844 397.859375 500.339844 397.859375 501.675781 "/>
<path style=" stroke:none;fill-rule:nonzero;fill:rgb(100%,0%,0%);fill-opacity:1;" d="M 379.378906 489.578125 C 379.378906 490.910156 377.378906 490.910156 377.378906 489.578125 C 377.378906 488.242188 379.378906 488.242188 379.378906 489.578125 "/>
<path style=" stroke:none;fill-rule:nonzero;fill:rgb(100%,0%,0%);fill-opacity:1;" d="M 392.765625 467.863281 C 392.765625 469.195312 390.765625 469.195312 390.765625 467.863281 C 390.765625 466.53125 392.765625 466.53125 392.765625 467.863281 "/>
<path style=" stroke:none;fill-rule:nonzero;fill:rgb(100%,0%,0%);fill-opacity:1;" d="M 410.960938 480.855469 C 410.960938 482.1875 408.960938 482.1875 408.960938 480.855469 C 408.960938 479.519531 410.960938 479.519531 410.960938 480.855469 "/>
<path style=" stroke:none;fill-rule:nonzero;fill:rgb(100%,0%,0%);fill-opacity:1;" d="M 420.171875 547.441406 C 420.171875 548.777344 418.171875 548.777344 418.171875 547.441406 C 418.171875 546.109375 420.171875 546.109375 420.171875 547.441406 "/>
<path style=" stroke:none;fill-rule:nonzero;fill:rgb(100%,0%,0%);fill-opacity:1;" d="M 223.40625 92.472656 C 223.40625 93.808594 221.40625 93.808594 221.40625 92.472656 C 221.40625 91.140625 223.40625 91.140625 223.40625 92.472656 "/>
<path style=" stroke:none;fill-rule:nonzero;fill:rgb(100%,0%,0%);fill-opacity:1;" d="M 226.019531 107.523438 C 226.019531 108.855469 224.019531 108.855469 224.019531 107.523438 C 224.019531 106.191406 226.019531 106.191406 226.019531 107.523438 "/>
<path style=" stroke:none;fill-rule:nonzero;fill:rgb(100%,0%,0%);fill-opacity:1;" d="M 294.695312 280.460938 C 294.695312 281.792969 292.695312 281.792969 292.695312 280.460938 C 292.695312 279.125 294.695312 279.125 294.695312 280.460938 "/>
<path style=" stroke:none;fill-rule:nonzero;fill:rgb(100%,0%,0%);fill-opacity:1;" d="M 293.351562 261.824219 C 293.351562 263.15625 291.351562 263.15625 291.351562 261.824219 C 291.351562 260.492188 293.351562 260.492188 293.351562 261.824219 "/>
<path style=" stroke:none;fill-rule:nonzero;fill:rgb(100%,0%,0%);fill-opacity:1;" d="M 308.496094 286.644531 C 308.496094 287.976562 306.496094 287.976562 306.496094 286.644531 C 306.496094 285.3125 308.496094 285.3125 308.496094 286.644531 "/>
<path style=" stroke:none;fill-rule:nonzero;fill:rgb(100%,0%,0%);fill-opacity:1;" d="M 309.855469 266.496094 C 309.855469 267.828125 307.855469 267.828125 307.855469 266.496094 C 307.855469 265.160156 309.855469 265.160156 309.855469 266.496094 "/>
<path style=" stroke:none;fill-rule:nonzero;fill:rgb(100%,0%,0%);fill-opacity:1;" d="M 283.214844 289.835938 C 283.214844 291.171875 281.214844 291.171875 281.214844 289.835938 C 281.214844 288.503906 283.214844 288.503906 283.214844 289.835938 "/>
<path style=" stroke:none;fill-rule:nonzero;fill:rgb(100%,0%,0%);fill-opacity:1;" d="M 301.269531 315.96875 C 301.269531 317.300781 299.269531 317.300781 299.269531 315.96875 C 299.269531 314.632812 301.269531 314.632812 301.269531 315.96875 "/>
<path style=" stroke:none;fill-rule:nonzero;fill:rgb(100%,0%,0%);fill-opacity:1;" d="M 272.90625 264.476562 C 272.90625 265.8125 270.90625 265.8125 270.90625 264.476562 C 270.90625 263.144531 272.90625 263.144531 272.90625 264.476562 "/>
<path style=" stroke:none;fill-rule:nonzero;fill:rgb(100%,0%,0%);fill-opacity:1;" d="M 281.925781 571.109375 C 281.925781 572.445312 279.925781 572.445312 279.925781 571.109375 C 279.925781 569.777344 281.925781 569.777344 281.925781 571.109375 "/>
<path style=" stroke:none;fill-rule:nonzero;fill:rgb(100%,0%,0%);fill-opacity:1;" d="M 293.1875 580 C 293.1875 581.332031 291.1875 581.332031 291.1875 580 C 291.1875 578.667969 293.1875 578.667969 293.1875 580 "/>
<path style=" stroke:none;fill-rule:nonzero;fill:rgb(100%,0%,0%);fill-opacity:1;" d="M 270.644531 562.25 C 270.644531 563.582031 268.644531 563.582031 268.644531 562.25 C 268.644531 560.917969 270.644531 560.917969 270.644531 562.25 "/>
<path style=" stroke:none;fill-rule:nonzero;fill:rgb(100%,0%,0%);fill-opacity:1;" d="M 376.808594 24.050781 C 376.808594 25.382812 374.808594 25.382812 374.808594 24.050781 C 374.808594 22.714844 376.808594 22.714844 376.808594 24.050781 "/>
<path style=" stroke:none;fill-rule:nonzero;fill:rgb(100%,0%,0%);fill-opacity:1;" d="M 117.679688 209.746094 C 117.679688 211.082031 115.679688 211.082031 115.679688 209.746094 C 115.679688 208.414062 117.679688 208.414062 117.679688 209.746094 "/>
<path style=" stroke:none;fill-rule:nonzero;fill:rgb(100%,0%,0%);fill-opacity:1;" d="M 176.929688 268.589844 C 176.929688 269.921875 174.929688 269.921875 174.929688 268.589844 C 174.929688 267.253906 176.929688 267.253906 176.929688 268.589844 "/>
<path style=" stroke:none;fill-rule:nonzero;fill:rgb(100%,0%,0%);fill-opacity:1;" d="M 373.492188 176.246094 C 373.492188 177.578125 371.492188 177.578125 371.492188 176.246094 C 371.492188 174.914062 373.492188 174.914062 373.492188 176.246094 "/>
<path style=" stroke:none;fill-rule:nonzero;fill:rgb(100%,0%,0%);fill-opacity:1;" d="M 377.914062 160.738281 C 377.914062 162.070312 375.914062 162.070312 375.914062 160.738281 C 375.914062 159.402344 377.914062 159.402344 377.914062 160.738281 "/>
<path style=" stroke:none;fill-rule:nonzero;fill:rgb(100%,0%,0%);fill-opacity:1;" d="M 361.960938 406.257812 C 361.960938 407.589844 359.960938 407.589844 359.960938 406.257812 C 359.960938 404.925781 361.960938 404.925781 361.960938 406.257812 "/>
<path style=" stroke:none;fill-rule:nonzero;fill:rgb(100%,0%,0%);fill-opacity:1;" d="M 347.085938 393.679688 C 347.085938 395.011719 345.085938 395.011719 345.085938 393.679688 C 345.085938 392.34375 347.085938 392.34375 347.085938 393.679688 "/>
<path style=" stroke:none;fill-rule:nonzero;fill:rgb(100%,0%,0%);fill-opacity:1;" d="M 263.910156 40.410156 C 263.910156 41.746094 261.910156 41.746094 261.910156 40.410156 C 261.910156 39.078125 263.910156 39.078125 263.910156 40.410156 "/>
<path style=" stroke:none;fill-rule:nonzero;fill:rgb(100%,0%,0%);fill-opacity:1;" d="M 347.652344 416.96875 C 347.652344 418.300781 345.652344 418.300781 345.652344 416.96875 C 345.652344 415.636719 347.652344 415.636719 347.652344 416.96875 "/>
<path style=" stroke:none;fill-rule:nonzero;fill:rgb(100%,0%,0%);fill-opacity:1;" d="M 134.273438 222.597656 C 134.273438 223.929688 132.273438 223.929688 132.273438 222.597656 C 132.273438 221.261719 134.273438 221.261719 134.273438 222.597656 "/>
<path style=" stroke:none;fill-rule:nonzero;fill:rgb(100%,0%,0%);fill-opacity:1;" d="M 210.816406 200.726562 C 210.816406 202.058594 208.816406 202.058594 208.816406 200.726562 C 208.816406 199.390625 210.816406 199.390625 210.816406 200.726562 "/>
<path style=" stroke:none;fill-rule:nonzero;fill:rgb(100%,0%,0%);fill-opacity:1;" d="M 547.820312 457.144531 C 547.820312 458.476562 545.820312 458.476562 545.820312 457.144531 C 545.820312 455.808594 547.820312 455.808594 547.820312 457.144531 "/>
<path style=" stroke:none;fill-rule:nonzero;fill:rgb(100%,0%,0%);fill-opacity:1;" d="M 554.5625 443.824219 C 554.5625 445.15625 552.5625 445.15625 552.5625 443.824219 C 552.5625 442.492188 554.5625 442.492188 554.5625 443.824219 "/>
<path style=" stroke:none;fill-rule:nonzero;fill:rgb(100%,0%,0%);fill-opacity:1;" d="M 541.09375 470.480469 C 541.09375 471.8125 539.09375 471.8125 539.09375 470.480469 C 539.09375 469.148438 541.09375 469.148438 541.09375 470.480469 "/>
<path style=" stroke:none;fill-rule:nonzero;fill:rgb(100%,0%,0%);fill-opacity:1;" d="M 58.058594 170.28125 C 58.058594 171.613281 56.058594 171.613281 56.058594 170.28125 C 56.058594 168.945312 58.058594 168.945312 58.058594 170.28125 "/>
<path style=" stroke:none;fill-rule:nonzero;fill:rgb(100%,0%,0%);fill-opacity:1;" d="M 56.6875 153.75 C 56.6875 155.085938 54.6875 155.085938 54.6875 153.75 C 54.6875 152.417969 56.6875 152.417969 56.6875 153.75 "/>
<path style=" stroke:none;fill-rule:nonzero;fill:rgb(100%,0%,0%);fill-opacity:1;" d="M 48.195312 182.703125 C 48.195312 184.035156 46.195312 184.035156 46.195312 182.703125 C 46.195312 181.367188 48.195312 181.367188 48.195312 182.703125 "/>
<path style=" stroke:none;fill-rule:nonzero;fill:rgb(100%,0%,0%);fill-opacity:1;" d="M 71.519531 176.847656 C 71.519531 178.179688 69.519531 178.179688 69.519531 176.847656 C 69.519531 175.515625 71.519531 175.515625 71.519531 176.847656 "/>
<path style=" stroke:none;fill-rule:nonzero;fill:rgb(100%,0%,0%);fill-opacity:1;" d="M 544.953125 259.804688 C 544.953125 261.140625 542.953125 261.140625 542.953125 259.804688 C 542.953125 258.472656 544.953125 258.472656 544.953125 259.804688 "/>
<path style=" stroke:none;fill-rule:nonzero;fill:rgb(100%,0%,0%);fill-opacity:1;" d="M 161.828125 155.574219 C 161.828125 156.90625 159.828125 156.90625 159.828125 155.574219 C 159.828125 154.238281 161.828125 154.238281 161.828125 155.574219 "/>
<path style=" stroke:none;fill-rule:nonzero;fill:rgb(100%,0%,0%);fill-opacity:1;" d="M 195.835938 555.488281 C 195.835938 556.820312 193.835938 556.820312 193.835938 555.488281 C 193.835938 554.152344 195.835938 554.152344 195.835938 555.488281 "/>
<path style=" stroke:none;fill-rule:nonzero;fill:rgb(100%,0%,0%);fill-opacity:1;" d="M 186.6875 543.910156 C 186.6875 545.246094 184.6875 545.246094 184.6875 543.910156 C 184.6875 542.578125 186.6875 542.578125 186.6875 543.910156 "/>
<path style=" stroke:none;fill-rule:nonzero;fill:rgb(100%,0%,0%);fill-opacity:1;" d="M 204.871094 567.148438 C 204.871094 568.484375 202.871094 568.484375 202.871094 567.148438 C 202.871094 565.816406 204.871094 565.816406 204.871094 567.148438 "/>
<path style=" stroke:none;fill-rule:nonzero;fill:rgb(100%,0%,0%);fill-opacity:1;" d="M 476.757812 540.902344 C 476.757812 542.234375 474.757812 542.234375 474.757812 540.902344 C 474.757812 539.566406 476.757812 539.566406 476.757812 540.902344 "/>
<path style=" stroke:none;fill-rule:nonzero;fill:rgb(100%,0%,0%);fill-opacity:1;" d="M 449.964844 366.550781 C 449.964844 367.882812 447.964844 367.882812 447.964844 366.550781 C 447.964844 365.214844 449.964844 365.214844 449.964844 366.550781 "/>
<path style=" stroke:none;fill-rule:nonzero;fill:rgb(100%,0%,0%);fill-opacity:1;" d="M 458.0625 352.960938 C 458.0625 354.292969 456.0625 354.292969 456.0625 352.960938 C 456.0625 351.628906 458.0625 351.628906 458.0625 352.960938 "/>
<path style=" stroke:none;fill-rule:nonzero;fill:rgb(100%,0%,0%);fill-opacity:1;" d="M 456.875 380.628906 C 456.875 381.960938 454.875 381.960938 454.875 380.628906 C 454.875 379.296875 456.875 379.296875 456.875 380.628906 "/>
<path style=" stroke:none;fill-rule:nonzero;fill:rgb(100%,0%,0%);fill-opacity:1;" d="M 435.074219 367.113281 C 435.074219 368.445312 433.074219 368.445312 433.074219 367.113281 C 433.074219 365.78125 435.074219 365.78125 435.074219 367.113281 "/>
<path style=" stroke:none;fill-rule:nonzero;fill:rgb(100%,0%,0%);fill-opacity:1;" d="M 314.851562 145.140625 C 314.851562 146.472656 312.851562 146.472656 312.851562 145.140625 C 312.851562 143.804688 314.851562 143.804688 314.851562 145.140625 "/>
<path style=" stroke:none;fill-rule:nonzero;fill:rgb(100%,0%,0%);fill-opacity:1;" d="M 37.800781 356.742188 C 37.800781 358.078125 35.800781 358.078125 35.800781 356.742188 C 35.800781 355.410156 37.800781 355.410156 37.800781 356.742188 "/>
<path style=" stroke:none;fill-rule:nonzero;fill:rgb(100%,0%,0%);fill-opacity:1;" d="M 51.511719 366.824219 C 51.511719 368.15625 49.511719 368.15625 49.511719 366.824219 C 49.511719 365.488281 51.511719 365.488281 51.511719 366.824219 "/>
<path style=" stroke:none;fill-rule:nonzero;fill:rgb(100%,0%,0%);fill-opacity:1;" d="M 21 358.179688 C 21 359.515625 19 359.515625 19 358.179688 C 19 356.847656 21 356.847656 21 358.179688 "/>
<path style=" stroke:none;fill-rule:nonzero;fill:rgb(100%,0%,0%);fill-opacity:1;" d="M 51.175781 344.292969 C 51.175781 345.625 49.175781 345.625 49.175781 344.292969 C 49.175781 342.957031 51.175781 342.957031 51.175781 344.292969 "/>
<path style=" stroke:none;fill-rule:nonzero;fill:rgb(100%,0%,0%);fill-opacity:1;" d="M 32.03125 339.050781 C 32.03125 340.386719 30.03125 340.386719 30.03125 339.050781 C 30.03125 337.71875 32.03125 337.71875 32.03125 339.050781 "/>
<path style=" stroke:none;fill-rule:nonzero;fill:rgb(100%,0%,0%);fill-opacity:1;" d="M 33.355469 375.582031 C 33.355469 376.914062 31.355469 376.914062 31.355469 375.582031 C 31.355469 374.25 33.355469 374.25 33.355469 375.582031 "/>
<path style=" stroke:none;fill-rule:nonzero;fill:rgb(100%,0%,0%);fill-opacity:1;" d="M 241.722656 310.84375 C 241.722656 312.175781 239.722656 312.175781 239.722656 310.84375 C 239.722656 309.507812 241.722656 309.507812 241.722656 310.84375 "/>
<path style=" stroke:none;fill-rule:nonzero;fill:rgb(100%,0%,0%);fill-opacity:1;" d="M 217.527344 314.039062 C 217.527344 315.375 215.527344 315.375 215.527344 314.039062 C 215.527344 312.707031 217.527344 312.707031 217.527344 314.039062 "/>
<path style=" stroke:none;fill-rule:nonzero;fill:rgb(100%,0%,0%);fill-opacity:1;" d="M 246.855469 323.941406 C 246.855469 325.273438 244.855469 325.273438 244.855469 323.941406 C 244.855469 322.605469 246.855469 322.605469 246.855469 323.941406 "/>
<path style=" stroke:none;fill-rule:nonzero;fill:rgb(100%,0%,0%);fill-opacity:1;" d="M 237.851562 294.542969 C 237.851562 295.875 235.851562 295.875 235.851562 294.542969 C 235.851562 293.207031 237.851562 293.207031 237.851562 294.542969 "/>
<path style=" stroke:none;fill-rule:nonzero;fill:rgb(100%,0%,0%);fill-opacity:1;" d="M 220.578125 297.769531 C 220.578125 299.105469 218.578125 299.105469 218.578125 297.769531 C 218.578125 296.4375 220.578125 296.4375 220.578125 297.769531 "/>
<path style=" stroke:none;fill-rule:nonzero;fill:rgb(100%,0%,0%);fill-opacity:1;" d="M 228.117188 326.03125 C 228.117188 327.363281 226.117188 327.363281 226.117188 326.03125 C 226.117188 324.699219 228.117188 324.699219 228.117188 326.03125 "/>
<path style=" stroke:none;fill-rule:nonzero;fill:rgb(100%,0%,0%);fill-opacity:1;" d="M 326.859375 355.609375 C 326.859375 356.941406 324.859375 356.941406 324.859375 355.609375 C 324.859375 354.277344 326.859375 354.277344 326.859375 355.609375 "/>
<path style=" stroke:none;fill-rule:nonzero;fill:rgb(100%,0%,0%);fill-opacity:1;" d="M 391.953125 155.042969 C 391.953125 156.375 389.953125 156.375 389.953125 155.042969 C 389.953125 153.710938 391.953125 153.710938 391.953125 155.042969 "/>
<path style=" stroke:none;fill-rule:nonzero;fill:rgb(100%,0%,0%);fill-opacity:1;" d="M 289.933594 324.417969 C 289.933594 325.75 287.933594 325.75 287.933594 324.417969 C 287.933594 323.082031 289.933594 323.082031 289.933594 324.417969 "/>
<path style=" stroke:none;fill-rule:nonzero;fill:rgb(100%,0%,0%);fill-opacity:1;" d="M 477.824219 439.117188 C 477.824219 440.453125 475.824219 440.453125 475.824219 439.117188 C 475.824219 437.785156 477.824219 437.785156 477.824219 439.117188 "/>
<path style=" stroke:none;fill-rule:nonzero;fill:rgb(100%,0%,0%);fill-opacity:1;" d="M 468.292969 451.605469 C 468.292969 452.9375 466.292969 452.9375 466.292969 451.605469 C 466.292969 450.273438 468.292969 450.273438 468.292969 451.605469 "/>
<path style=" stroke:none;fill-rule:nonzero;fill:rgb(100%,0%,0%);fill-opacity:1;" d="M 472.121094 424.476562 C 472.121094 425.808594 470.121094 425.808594 470.121094 424.476562 C 470.121094 423.140625 472.121094 423.140625 472.121094 424.476562 "/>
<path style=" stroke:none;fill-rule:nonzero;fill:rgb(100%,0%,0%);fill-opacity:1;" d="M 492.757812 439.90625 C 492.757812 441.242188 490.757812 441.242188 490.757812 439.90625 C 490.757812 438.574219 492.757812 438.574219 492.757812 439.90625 "/>
<path style=" stroke:none;fill-rule:nonzero;fill:rgb(100%,0%,0%);fill-opacity:1;" d="M 298.40625 398.703125 C 298.40625 400.039062 296.40625 400.039062 296.40625 398.703125 C 296.40625 397.371094 298.40625 397.371094 298.40625 398.703125 "/>
<path style=" stroke:none;fill-rule:nonzero;fill:rgb(100%,0%,0%);fill-opacity:1;" d="M 294.074219 412.886719 C 294.074219 414.21875 292.074219 414.21875 292.074219 412.886719 C 292.074219 411.554688 294.074219 411.554688 294.074219 412.886719 "/>
<path style=" stroke:none;fill-rule:nonzero;fill:rgb(100%,0%,0%);fill-opacity:1;" d="M 318.351562 394.828125 C 318.351562 396.160156 316.351562 396.160156 316.351562 394.828125 C 316.351562 393.492188 318.351562 393.492188 318.351562 394.828125 "/>
<path style=" stroke:none;fill-rule:nonzero;fill:rgb(100%,0%,0%);fill-opacity:1;" d="M 284.96875 398.644531 C 284.96875 399.980469 282.96875 399.980469 282.96875 398.644531 C 282.96875 397.3125 284.96875 397.3125 284.96875 398.644531 "/>
<path style=" stroke:none;fill-rule:nonzero;fill:rgb(100%,0%,0%);fill-opacity:1;" d="M 305.957031 378.628906 C 305.957031 379.960938 303.957031 379.960938 303.957031 378.628906 C 303.957031 377.296875 305.957031 377.296875 305.957031 378.628906 "/>
<path style=" stroke:none;fill-rule:nonzero;fill:rgb(100%,0%,0%);fill-opacity:1;" d="M 254.960938 252.863281 C 254.960938 254.199219 252.960938 254.199219 252.960938 252.863281 C 252.960938 251.53125 254.960938 251.53125 254.960938 252.863281 "/>
<path style=" stroke:none;fill-rule:nonzero;fill:rgb(100%,0%,0%);fill-opacity:1;" d="M 299.367188 200.457031 C 299.367188 201.789062 297.367188 201.789062 297.367188 200.457031 C 297.367188 199.121094 299.367188 199.121094 299.367188 200.457031 "/>
<path style=" stroke:none;fill-rule:nonzero;fill:rgb(100%,0%,0%);fill-opacity:1;" d="M 367.667969 85.890625 C 367.667969 87.222656 365.667969 87.222656 365.667969 85.890625 C 365.667969 84.558594 367.667969 84.558594 367.667969 85.890625 "/>
<path style=" stroke:none;fill-rule:nonzero;fill:rgb(100%,0%,0%);fill-opacity:1;" d="M 353.652344 86.382812 C 353.652344 87.71875 351.652344 87.71875 351.652344 86.382812 C 351.652344 85.050781 353.652344 85.050781 353.652344 86.382812 "/>
<path style=" stroke:none;fill-rule:nonzero;fill:rgb(100%,0%,0%);fill-opacity:1;" d="M 381.679688 84.808594 C 381.679688 86.140625 379.679688 86.140625 379.679688 84.808594 C 379.679688 83.472656 381.679688 83.472656 381.679688 84.808594 "/>
<path style=" stroke:none;fill-rule:nonzero;fill:rgb(100%,0%,0%);fill-opacity:1;" d="M 161.449219 388.894531 C 161.449219 390.230469 159.449219 390.230469 159.449219 388.894531 C 159.449219 387.5625 161.449219 387.5625 161.449219 388.894531 "/>
<path style=" stroke:none;fill-rule:nonzero;fill:rgb(100%,0%,0%);fill-opacity:1;" d="M 159.292969 404.304688 C 159.292969 405.636719 157.292969 405.636719 157.292969 404.304688 C 157.292969 402.96875 159.292969 402.96875 159.292969 404.304688 "/>
<path style=" stroke:none;fill-rule:nonzero;fill:rgb(100%,0%,0%);fill-opacity:1;" d="M 163.386719 373.523438 C 163.386719 374.855469 161.386719 374.855469 161.386719 373.523438 C 161.386719 372.191406 163.386719 372.191406 163.386719 373.523438 "/>
<path style=" stroke:none;fill-rule:nonzero;fill:rgb(100%,0%,0%);fill-opacity:1;" d="M 115.75 147.039062 C 115.75 148.371094 113.75 148.371094 113.75 147.039062 C 113.75 145.707031 115.75 145.707031 115.75 147.039062 "/>
<path style=" stroke:none;fill-rule:nonzero;fill:rgb(100%,0%,0%);fill-opacity:1;" d="M 113.59375 162.015625 C 113.59375 163.351562 111.59375 163.351562 111.59375 162.015625 C 111.59375 160.683594 113.59375 160.683594 113.59375 162.015625 "/>
<path style=" stroke:none;fill-rule:nonzero;fill:rgb(100%,0%,0%);fill-opacity:1;" d="M 117.488281 132.054688 C 117.488281 133.386719 115.488281 133.386719 115.488281 132.054688 C 115.488281 130.71875 117.488281 130.71875 117.488281 132.054688 "/>
<path style=" stroke:none;fill-rule:nonzero;fill:rgb(100%,0%,0%);fill-opacity:1;" d="M 367.628906 149.332031 C 367.628906 150.664062 365.628906 150.664062 365.628906 149.332031 C 365.628906 147.996094 367.628906 147.996094 367.628906 149.332031 "/>
<path style=" stroke:none;fill-rule:nonzero;fill:rgb(100%,0%,0%);fill-opacity:1;" d="M 262.742188 426.878906 C 262.742188 428.214844 260.742188 428.214844 260.742188 426.878906 C 260.742188 425.546875 262.742188 425.546875 262.742188 426.878906 "/>
<path style=" stroke:none;fill-rule:nonzero;fill:rgb(100%,0%,0%);fill-opacity:1;" d="M 240.3125 460.847656 C 240.3125 462.179688 238.3125 462.179688 238.3125 460.847656 C 238.3125 459.511719 240.3125 459.511719 240.3125 460.847656 "/>
<path style=" stroke:none;fill-rule:nonzero;fill:rgb(100%,0%,0%);fill-opacity:1;" d="M 278.363281 426.179688 C 278.363281 427.511719 276.363281 427.511719 276.363281 426.179688 C 276.363281 424.84375 278.363281 424.84375 278.363281 426.179688 "/>
<path style=" stroke:none;fill-rule:nonzero;fill:rgb(100%,0%,0%);fill-opacity:1;" d="M 277.277344 466.183594 C 277.277344 467.515625 275.277344 467.515625 275.277344 466.183594 C 275.277344 464.851562 277.277344 464.851562 277.277344 466.183594 "/>
<path style=" stroke:none;fill-rule:nonzero;fill:rgb(100%,0%,0%);fill-opacity:1;" d="M 298.15625 443.285156 C 298.15625 444.617188 296.15625 444.617188 296.15625 443.285156 C 296.15625 441.953125 298.15625 441.953125 298.15625 443.285156 "/>
<path style=" stroke:none;fill-rule:nonzero;fill:rgb(100%,0%,0%);fill-opacity:1;" d="M 277.578125 440.140625 C 277.578125 441.476562 275.578125 441.476562 275.578125 440.140625 C 275.578125 438.808594 277.578125 438.808594 277.578125 440.140625 "/>
<path style=" stroke:none;fill-rule:nonzero;fill:rgb(100%,0%,0%);fill-opacity:1;" d="M 293.304688 429.144531 C 293.304688 430.476562 291.304688 430.476562 291.304688 429.144531 C 291.304688 427.808594 293.304688 427.808594 293.304688 429.144531 "/>
<path style=" stroke:none;fill-rule:nonzero;fill:rgb(100%,0%,0%);fill-opacity:1;" d="M 259.171875 467.785156 C 259.171875 469.117188 257.171875 469.117188 257.171875 467.785156 C 257.171875 466.449219 259.171875 466.449219 259.171875 467.785156 "/>
<path style=" stroke:none;fill-rule:nonzero;fill:rgb(100%,0%,0%);fill-opacity:1;" d="M 260.609375 440.164062 C 260.609375 441.496094 258.609375 441.496094 258.609375 440.164062 C 258.609375 438.832031 260.609375 438.832031 260.609375 440.164062 "/>
<path style=" stroke:none;fill-rule:nonzero;fill:rgb(100%,0%,0%);fill-opacity:1;" d="M 270.300781 392.886719 C 270.300781 394.21875 268.300781 394.21875 268.300781 392.886719 C 268.300781 391.550781 270.300781 391.550781 270.300781 392.886719 "/>
<path style=" stroke:none;fill-rule:nonzero;fill:rgb(100%,0%,0%);fill-opacity:1;" d="M 255.78125 400.863281 C 255.78125 402.199219 253.78125 402.199219 253.78125 400.863281 C 253.78125 399.53125 255.78125 399.53125 255.78125 400.863281 "/>
<path style=" stroke:none;fill-rule:nonzero;fill:rgb(100%,0%,0%);fill-opacity:1;" d="M 250.261719 424.605469 C 250.261719 425.941406 248.261719 425.941406 248.261719 424.605469 C 248.261719 423.273438 250.261719 423.273438 250.261719 424.605469 "/>
<path style=" stroke:none;fill-rule:nonzero;fill:rgb(100%,0%,0%);fill-opacity:1;" d="M 230.367188 446.378906 C 230.367188 447.710938 228.367188 447.710938 228.367188 446.378906 C 228.367188 445.042969 230.367188 445.042969 230.367188 446.378906 "/>
<path style=" stroke:none;fill-rule:nonzero;fill:rgb(100%,0%,0%);fill-opacity:1;" d="M 252.695312 452.699219 C 252.695312 454.035156 250.695312 454.035156 250.695312 452.699219 C 250.695312 451.367188 252.695312 451.367188 252.695312 452.699219 "/>
<path style=" stroke:none;fill-rule:nonzero;fill:rgb(100%,0%,0%);fill-opacity:1;" d="M 262.855469 412.589844 C 262.855469 413.921875 260.855469 413.921875 260.855469 412.589844 C 260.855469 411.253906 262.855469 411.253906 262.855469 412.589844 "/>
<path style=" stroke:none;fill-rule:nonzero;fill:rgb(100%,0%,0%);fill-opacity:1;" d="M 244.164062 439.523438 C 244.164062 440.859375 242.164062 440.859375 242.164062 439.523438 C 242.164062 438.191406 244.164062 438.191406 244.164062 439.523438 "/>
<path style=" stroke:none;fill-rule:nonzero;fill:rgb(100%,0%,0%);fill-opacity:1;" d="M 286.960938 453.332031 C 286.960938 454.667969 284.960938 454.667969 284.960938 453.332031 C 284.960938 452 286.960938 452 286.960938 453.332031 "/>
<path style=" stroke:none;fill-rule:nonzero;fill:rgb(100%,0%,0%);fill-opacity:1;" d="M 268.933594 452.691406 C 268.933594 454.027344 266.933594 454.027344 266.933594 452.691406 C 266.933594 451.359375 268.933594 451.359375 268.933594 452.691406 "/>
<path style=" stroke:none;fill-rule:nonzero;fill:rgb(100%,0%,0%);fill-opacity:1;" d="M 255.925781 385.410156 C 255.925781 386.742188 253.925781 386.742188 253.925781 385.410156 C 253.925781 384.078125 255.925781 384.078125 255.925781 385.410156 "/>
<path style=" stroke:none;fill-rule:nonzero;fill:rgb(100%,0%,0%);fill-opacity:1;" d="M 244.429688 410.328125 C 244.429688 411.660156 242.429688 411.660156 242.429688 410.328125 C 242.429688 408.996094 244.429688 408.996094 244.429688 410.328125 "/>
<path style=" stroke:none;fill-rule:nonzero;fill:rgb(100%,0%,0%);fill-opacity:1;" d="M 276.105469 411.804688 C 276.105469 413.136719 274.105469 413.136719 274.105469 411.804688 C 274.105469 410.46875 276.105469 410.46875 276.105469 411.804688 "/>
<path style=" stroke:none;fill-rule:nonzero;fill:rgb(100%,0%,0%);fill-opacity:1;" d="M 236.496094 424.800781 C 236.496094 426.132812 234.496094 426.132812 234.496094 424.800781 C 234.496094 423.464844 236.496094 423.464844 236.496094 424.800781 "/>
<path style=" stroke:none;fill-rule:nonzero;fill:rgb(100%,0%,0%);fill-opacity:1;" d="M 239.351562 394.398438 C 239.351562 395.730469 237.351562 395.730469 237.351562 394.398438 C 237.351562 393.066406 239.351562 393.066406 239.351562 394.398438 "/>
<path style=" stroke:none;fill-rule:nonzero;fill:rgb(100%,0%,0%);fill-opacity:1;" d="M 228.179688 409.335938 C 228.179688 410.667969 226.179688 410.667969 226.179688 409.335938 C 226.179688 408 228.179688 408 228.179688 409.335938 "/>
<path style=" stroke:none;fill-rule:nonzero;fill:rgb(100%,0%,0%);fill-opacity:1;" d="M 223.382812 429.8125 C 223.382812 431.148438 221.382812 431.148438 221.382812 429.8125 C 221.382812 428.480469 223.382812 428.480469 223.382812 429.8125 "/>
<path style=" stroke:none;fill-rule:nonzero;fill:rgb(100%,0%,0%);fill-opacity:1;" d="M 91.871094 389.273438 C 91.871094 390.609375 89.871094 390.609375 89.871094 389.273438 C 89.871094 387.941406 91.871094 387.941406 91.871094 389.273438 "/>
<path style=" stroke:none;fill-rule:nonzero;fill:rgb(100%,0%,0%);fill-opacity:1;" d="M 578.753906 310.292969 C 578.753906 311.625 576.753906 311.625 576.753906 310.292969 C 576.753906 308.957031 578.753906 308.957031 578.753906 310.292969 "/>
<path style=" stroke:none;fill-rule:nonzero;fill:rgb(100%,0%,0%);fill-opacity:1;" d="M 579.878906 325.371094 C 579.878906 326.703125 577.878906 326.703125 577.878906 325.371094 C 577.878906 324.039062 579.878906 324.039062 579.878906 325.371094 "/>
<path style=" stroke:none;fill-rule:nonzero;fill:rgb(100%,0%,0%);fill-opacity:1;" d="M 336.941406 296.886719 C 336.941406 298.222656 334.941406 298.222656 334.941406 296.886719 C 334.941406 295.554688 336.941406 295.554688 336.941406 296.886719 "/>
<path style=" stroke:none;fill-rule:nonzero;fill:rgb(100%,0%,0%);fill-opacity:1;" d="M 353.738281 288.636719 C 353.738281 289.96875 351.738281 289.96875 351.738281 288.636719 C 351.738281 287.304688 353.738281 287.304688 353.738281 288.636719 "/>
<path style=" stroke:none;fill-rule:nonzero;fill:rgb(100%,0%,0%);fill-opacity:1;" d="M 346.316406 325.664062 C 346.316406 327 344.316406 327 344.316406 325.664062 C 344.316406 324.332031 346.316406 324.332031 346.316406 325.664062 "/>
<path style=" stroke:none;fill-rule:nonzero;fill:rgb(100%,0%,0%);fill-opacity:1;" d="M 118.15625 406.242188 C 118.15625 407.574219 116.15625 407.574219 116.15625 406.242188 C 116.15625 404.90625 118.15625 404.90625 118.15625 406.242188 "/>
<path style=" stroke:none;fill-rule:nonzero;fill:rgb(100%,0%,0%);fill-opacity:1;" d="M 581 340.472656 C 581 341.808594 579 341.808594 579 340.472656 C 579 339.140625 581 339.140625 581 340.472656 "/>
<path style=" stroke:none;fill-rule:nonzero;fill:rgb(100%,0%,0%);fill-opacity:1;" d="M 228.722656 123.585938 C 228.722656 124.917969 226.722656 124.917969 226.722656 123.585938 C 226.722656 122.253906 228.722656 122.253906 228.722656 123.585938 "/>
<path style=" stroke:none;fill-rule:nonzero;fill:rgb(100%,0%,0%);fill-opacity:1;" d="M 231.378906 138.601562 C 231.378906 139.933594 229.378906 139.933594 229.378906 138.601562 C 229.378906 137.265625 231.378906 137.265625 231.378906 138.601562 "/>
</g>
</svg>
