<?xml version="1.0" encoding="UTF-8"?>
<svg xmlns="http://www.w3.org/2000/svg" xmlns:xlink="http://www.w3.org/1999/xlink" width="600pt" height="600pt" viewBox="0 0 600 600" version="1.1">
<g id="surface11">
<rect x="0" y="0" width="600" height="600" style="fill:rgb(100%,100%,100%);fill-opacity:1;stroke:none;"/>
<path style="fill:none;stroke-width:0.2;stroke-linecap:butt;stroke-linejoin:miter;stroke:rgb(26.666667%,26.666667%,26.666667%);stroke-opacity:1;stroke-miterlimit:10;" d="M 317.25 110.484375 L 296.609375 98.988281 "/>
<path style="fill:none;stroke-width:0.2;stroke-linecap:butt;stroke-linejoin:miter;stroke:rgb(26.666667%,26.666667%,26.666667%);stroke-opacity:1;stroke-miterlimit:10;" d="M 302.882812 264.3125 L 320.136719 289.8125 "/>
<path style="fill:none;stroke-width:0.2;stroke-linecap:butt;stroke-linejoin:miter;stroke:rgb(26.666667%,26.666667%,26.666667%);stroke-opacity:1;stroke-miterlimit:10;" d="M 302.882812 264.3125 L 289.675781 241.75 "/>
<path style="fill:none;stroke-width:0.2;stroke-linecap:butt;stroke-linejoin:miter;stroke:rgb(26.666667%,26.666667%,26.666667%);stroke-opacity:1;stroke-miterlimit:10;" d="M 403.347656 351.890625 L 395.332031 372.03125 "/>
<path style="fill:none;stroke-width:0.2;stroke-linecap:butt;stroke-linejoin:miter;stroke:rgb(26.666667%,26.666667%,26.666667%);stroke-opacity:1;stroke-miterlimit:10;" d="M 191.804688 416.734375 L 186.925781 401.660156 "/>
<path style="fill:none;stroke-width:0.2;stroke-linecap:butt;stroke-linejoin:miter;stroke:rgb(26.666667%,26.666667%,26.666667%);stroke-opacity:1;stroke-miterlimit:10;" d="M 25.320312 379.464844 L 30.417969 395.050781 "/>
<path style="fill:none;stroke-width:0.2;stroke-linecap:butt;stroke-linejoin:miter;stroke:rgb(26.666667%,26.666667%,26.666667%);stroke-opacity:1;stroke-miterlimit:10;" d="M 25.320312 379.464844 L 20.304688 363.875 "/>
<path style="fill:none;stroke-width:0.2;stroke-linecap:butt;stroke-linejoin:miter;stroke:rgb(26.666667%,26.666667%,26.666667%);stroke-opacity:1;stroke-miterlimit:10;" d="M 65.042969 137.367188 L 61.710938 153.300781 "/>
<path style="fill:none;stroke-width:0.2;stroke-linecap:butt;stroke-linejoin:miter;stroke:rgb(26.666667%,26.666667%,26.666667%);stroke-opacity:1;stroke-miterlimit:10;" d="M 65.042969 137.367188 L 67.984375 121.300781 "/>
<path style="fill:none;stroke-width:0.2;stroke-linecap:butt;stroke-linejoin:miter;stroke:rgb(26.666667%,26.666667%,26.666667%);stroke-opacity:1;stroke-miterlimit:10;" d="M 386.652344 43.011719 L 404.765625 38.710938 "/>
<path style="fill:none;stroke-width:0.2;stroke-linecap:butt;stroke-linejoin:miter;stroke:rgb(26.666667%,26.666667%,26.666667%);stroke-opacity:1;stroke-miterlimit:10;" d="M 533.605469 314.925781 L 549.480469 314.355469 "/>
<path style="fill:none;stroke-width:0.2;stroke-linecap:butt;stroke-linejoin:miter;stroke:rgb(26.666667%,26.666667%,26.666667%);stroke-opacity:1;stroke-miterlimit:10;" d="M 258.167969 283.351562 L 249.824219 297.992188 "/>
<path style="fill:none;stroke-width:0.2;stroke-linecap:butt;stroke-linejoin:miter;stroke:rgb(26.666667%,26.666667%,26.666667%);stroke-opacity:1;stroke-miterlimit:10;" d="M 275.902344 105.980469 L 294.800781 98.855469 "/>
<path style="fill:none;stroke-width:0.2;stroke-linecap:butt;stroke-linejoin:miter;stroke:rgb(26.666667%,26.666667%,26.666667%);stroke-opacity:1;stroke-miterlimit:10;" d="M 176.207031 477.949219 L 170.125 492.730469 "/>
<path style="fill:none;stroke-width:0.2;stroke-linecap:butt;stroke-linejoin:miter;stroke:rgb(26.666667%,26.666667%,26.666667%);stroke-opacity:1;stroke-miterlimit:10;" d="M 475.777344 329.609375 L 470.144531 314.457031 "/>
<path style="fill:none;stroke-width:0.2;stroke-linecap:butt;stroke-linejoin:miter;stroke:rgb(26.666667%,26.666667%,26.666667%);stroke-opacity:1;stroke-miterlimit:10;" d="M 475.777344 329.609375 L 481.425781 344.832031 "/>
<path style="fill:none;stroke-width:0.2;stroke-linecap:butt;stroke-linejoin:miter;stroke:rgb(26.666667%,26.666667%,26.666667%);stroke-opacity:1;stroke-miterlimit:10;" d="M 355.105469 580 L 363.039062 563.660156 "/>
<path style="fill:none;stroke-width:0.2;stroke-linecap:butt;stroke-linejoin:miter;stroke:rgb(26.666667%,26.666667%,26.666667%);stroke-opacity:1;stroke-miterlimit:10;" d="M 551.015625 188.714844 L 563.414062 200.039062 "/>
<path style="fill:none;stroke-width:0.2;stroke-linecap:butt;stroke-linejoin:miter;stroke:rgb(26.666667%,26.666667%,26.666667%);stroke-opacity:1;stroke-miterlimit:10;" d="M 302.511719 120.96875 L 296.027344 99.460938 "/>
<path style="fill:none;stroke-width:0.2;stroke-linecap:butt;stroke-linejoin:miter;stroke:rgb(26.666667%,26.666667%,26.666667%);stroke-opacity:1;stroke-miterlimit:10;" d="M 236.160156 316.667969 L 248.734375 299.667969 "/>
<path style="fill:none;stroke-width:0.2;stroke-linecap:butt;stroke-linejoin:miter;stroke:rgb(26.666667%,26.666667%,26.666667%);stroke-opacity:1;stroke-miterlimit:10;" d="M 236.160156 316.667969 L 223.257812 296.144531 "/>
<path style="fill:none;stroke-width:0.2;stroke-linecap:butt;stroke-linejoin:miter;stroke:rgb(26.666667%,26.666667%,26.666667%);stroke-opacity:1;stroke-miterlimit:10;" d="M 236.160156 316.667969 L 236.554688 338.613281 "/>
<path style="fill:none;stroke-width:0.2;stroke-linecap:butt;stroke-linejoin:miter;stroke:rgb(26.666667%,26.666667%,26.666667%);stroke-opacity:1;stroke-miterlimit:10;" d="M 236.160156 316.667969 L 220.089844 324.34375 "/>
<path style="fill:none;stroke-width:0.2;stroke-linecap:butt;stroke-linejoin:miter;stroke:rgb(26.666667%,26.666667%,26.666667%);stroke-opacity:1;stroke-miterlimit:10;" d="M 236.160156 316.667969 L 252.683594 325.679688 "/>
<path style="fill:none;stroke-width:0.2;stroke-linecap:butt;stroke-linejoin:miter;stroke:rgb(26.666667%,26.666667%,26.666667%);stroke-opacity:1;stroke-miterlimit:10;" d="M 559.234375 330.417969 L 550.957031 315.199219 "/>
<path style="fill:none;stroke-width:0.2;stroke-linecap:butt;stroke-linejoin:miter;stroke:rgb(26.666667%,26.666667%,26.666667%);stroke-opacity:1;stroke-miterlimit:10;" d="M 282.519531 481.027344 L 299.320312 497.757812 "/>
<path style="fill:none;stroke-width:0.2;stroke-linecap:butt;stroke-linejoin:miter;stroke:rgb(26.666667%,26.666667%,26.666667%);stroke-opacity:1;stroke-miterlimit:10;" d="M 282.519531 481.027344 L 282.035156 458.472656 "/>
<path style="fill:none;stroke-width:0.2;stroke-linecap:butt;stroke-linejoin:miter;stroke:rgb(26.666667%,26.666667%,26.666667%);stroke-opacity:1;stroke-miterlimit:10;" d="M 282.519531 481.027344 L 283.234375 503.984375 "/>
<path style="fill:none;stroke-width:0.2;stroke-linecap:butt;stroke-linejoin:miter;stroke:rgb(26.666667%,26.666667%,26.666667%);stroke-opacity:1;stroke-miterlimit:10;" d="M 282.519531 481.027344 L 298.839844 461.808594 "/>
<path style="fill:none;stroke-width:0.2;stroke-linecap:butt;stroke-linejoin:miter;stroke:rgb(26.666667%,26.666667%,26.666667%);stroke-opacity:1;stroke-miterlimit:10;" d="M 282.519531 481.027344 L 261.734375 482.152344 "/>
<path style="fill:none;stroke-width:0.2;stroke-linecap:butt;stroke-linejoin:miter;stroke:rgb(26.666667%,26.666667%,26.666667%);stroke-opacity:1;stroke-miterlimit:10;" d="M 282.519531 481.027344 L 302.679688 479.777344 "/>
<path style="fill:none;stroke-width:0.2;stroke-linecap:butt;stroke-linejoin:miter;stroke:rgb(26.666667%,26.666667%,26.666667%);stroke-opacity:1;stroke-miterlimit:10;" d="M 282.519531 481.027344 L 265.96875 464.175781 "/>
<path style="fill:none;stroke-width:0.2;stroke-linecap:butt;stroke-linejoin:miter;stroke:rgb(26.666667%,26.666667%,26.666667%);stroke-opacity:1;stroke-miterlimit:10;" d="M 282.519531 481.027344 L 266.679688 499.902344 "/>
<path style="fill:none;stroke-width:0.2;stroke-linecap:butt;stroke-linejoin:miter;stroke:rgb(26.666667%,26.666667%,26.666667%);stroke-opacity:1;stroke-miterlimit:10;" d="M 341.539062 287.449219 L 321.6875 290.492188 "/>
<path style="fill:none;stroke-width:0.2;stroke-linecap:butt;stroke-linejoin:miter;stroke:rgb(26.666667%,26.666667%,26.666667%);stroke-opacity:1;stroke-miterlimit:10;" d="M 134.566406 69.503906 L 129.710938 85.0625 "/>
<path style="fill:none;stroke-width:0.2;stroke-linecap:butt;stroke-linejoin:miter;stroke:rgb(26.666667%,26.666667%,26.666667%);stroke-opacity:1;stroke-miterlimit:10;" d="M 214.746094 277.648438 L 222.3125 294.386719 "/>
<path style="fill:none;stroke-width:0.2;stroke-linecap:butt;stroke-linejoin:miter;stroke:rgb(26.666667%,26.666667%,26.666667%);stroke-opacity:1;stroke-miterlimit:10;" d="M 331.65625 306.46875 L 321.265625 291.464844 "/>
<path style="fill:none;stroke-width:0.2;stroke-linecap:butt;stroke-linejoin:miter;stroke:rgb(26.666667%,26.666667%,26.666667%);stroke-opacity:1;stroke-miterlimit:10;" d="M 426.285156 476.15625 L 433.910156 460.722656 "/>
<path style="fill:none;stroke-width:0.2;stroke-linecap:butt;stroke-linejoin:miter;stroke:rgb(26.666667%,26.666667%,26.666667%);stroke-opacity:1;stroke-miterlimit:10;" d="M 76.582031 238.550781 L 70.242188 253.605469 "/>
<path style="fill:none;stroke-width:0.2;stroke-linecap:butt;stroke-linejoin:miter;stroke:rgb(26.666667%,26.666667%,26.666667%);stroke-opacity:1;stroke-miterlimit:10;" d="M 504.238281 493.832031 L 510.6875 478.863281 "/>
<path style="fill:none;stroke-width:0.2;stroke-linecap:butt;stroke-linejoin:miter;stroke:rgb(26.666667%,26.666667%,26.666667%);stroke-opacity:1;stroke-miterlimit:10;" d="M 453.648438 145.347656 L 448.660156 164.546875 "/>
<path style="fill:none;stroke-width:0.2;stroke-linecap:butt;stroke-linejoin:miter;stroke:rgb(26.666667%,26.666667%,26.666667%);stroke-opacity:1;stroke-miterlimit:10;" d="M 453.648438 145.347656 L 434.839844 145.847656 "/>
<path style="fill:none;stroke-width:0.2;stroke-linecap:butt;stroke-linejoin:miter;stroke:rgb(26.666667%,26.666667%,26.666667%);stroke-opacity:1;stroke-miterlimit:10;" d="M 453.648438 145.347656 L 447.082031 126.554688 "/>
<path style="fill:none;stroke-width:0.2;stroke-linecap:butt;stroke-linejoin:miter;stroke:rgb(26.666667%,26.666667%,26.666667%);stroke-opacity:1;stroke-miterlimit:10;" d="M 453.648438 145.347656 L 469.304688 156.625 "/>
<path style="fill:none;stroke-width:0.2;stroke-linecap:butt;stroke-linejoin:miter;stroke:rgb(26.666667%,26.666667%,26.666667%);stroke-opacity:1;stroke-miterlimit:10;" d="M 453.648438 145.347656 L 468.371094 133.105469 "/>
<path style="fill:none;stroke-width:0.2;stroke-linecap:butt;stroke-linejoin:miter;stroke:rgb(26.666667%,26.666667%,26.666667%);stroke-opacity:1;stroke-miterlimit:10;" d="M 374.421875 376.242188 L 393.972656 373.117188 "/>
<path style="fill:none;stroke-width:0.2;stroke-linecap:butt;stroke-linejoin:miter;stroke:rgb(26.666667%,26.666667%,26.666667%);stroke-opacity:1;stroke-miterlimit:10;" d="M 271.570312 234.261719 L 288.234375 240.535156 "/>
<path style="fill:none;stroke-width:0.2;stroke-linecap:butt;stroke-linejoin:miter;stroke:rgb(26.666667%,26.666667%,26.666667%);stroke-opacity:1;stroke-miterlimit:10;" d="M 453.667969 243.121094 L 468.378906 241.4375 "/>
<path style="fill:none;stroke-width:0.2;stroke-linecap:butt;stroke-linejoin:miter;stroke:rgb(26.666667%,26.666667%,26.666667%);stroke-opacity:1;stroke-miterlimit:10;" d="M 580 193.8125 L 565.070312 200.316406 "/>
<path style="fill:none;stroke-width:0.2;stroke-linecap:butt;stroke-linejoin:miter;stroke:rgb(26.666667%,26.666667%,26.666667%);stroke-opacity:1;stroke-miterlimit:10;" d="M 451.117188 456.1875 L 435.328125 459.617188 "/>
<path style="fill:none;stroke-width:0.2;stroke-linecap:butt;stroke-linejoin:miter;stroke:rgb(26.666667%,26.666667%,26.666667%);stroke-opacity:1;stroke-miterlimit:10;" d="M 166.613281 307.839844 L 161.878906 292.242188 "/>
<path style="fill:none;stroke-width:0.2;stroke-linecap:butt;stroke-linejoin:miter;stroke:rgb(26.666667%,26.666667%,26.666667%);stroke-opacity:1;stroke-miterlimit:10;" d="M 415.585938 369.90625 L 395.949219 372.816406 "/>
<path style="fill:none;stroke-width:0.2;stroke-linecap:butt;stroke-linejoin:miter;stroke:rgb(26.666667%,26.666667%,26.666667%);stroke-opacity:1;stroke-miterlimit:10;" d="M 312.527344 319.054688 L 320.421875 291.601562 "/>
<path style="fill:none;stroke-width:0.2;stroke-linecap:butt;stroke-linejoin:miter;stroke:rgb(26.666667%,26.666667%,26.666667%);stroke-opacity:1;stroke-miterlimit:10;" d="M 312.527344 319.054688 L 309.382812 341.300781 "/>
<path style="fill:none;stroke-width:0.2;stroke-linecap:butt;stroke-linejoin:miter;stroke:rgb(26.666667%,26.666667%,26.666667%);stroke-opacity:1;stroke-miterlimit:10;" d="M 306.136719 75.324219 L 296.148438 97.589844 "/>
<path style="fill:none;stroke-width:0.2;stroke-linecap:butt;stroke-linejoin:miter;stroke:rgb(26.666667%,26.666667%,26.666667%);stroke-opacity:1;stroke-miterlimit:10;" d="M 557.453125 297.300781 L 550.859375 313.394531 "/>
<path style="fill:none;stroke-width:0.2;stroke-linecap:butt;stroke-linejoin:miter;stroke:rgb(26.666667%,26.666667%,26.666667%);stroke-opacity:1;stroke-miterlimit:10;" d="M 386.375 394.023438 L 394.585938 373.886719 "/>
<path style="fill:none;stroke-width:0.2;stroke-linecap:butt;stroke-linejoin:miter;stroke:rgb(26.666667%,26.666667%,26.666667%);stroke-opacity:1;stroke-miterlimit:10;" d="M 102.398438 407.078125 L 105.082031 389.53125 "/>
<path style="fill:none;stroke-width:0.2;stroke-linecap:butt;stroke-linejoin:miter;stroke:rgb(26.666667%,26.666667%,26.666667%);stroke-opacity:1;stroke-miterlimit:10;" d="M 561.9375 219.253906 L 564.035156 201.707031 "/>
<path style="fill:none;stroke-width:0.2;stroke-linecap:butt;stroke-linejoin:miter;stroke:rgb(26.666667%,26.666667%,26.666667%);stroke-opacity:1;stroke-miterlimit:10;" d="M 284.929688 122.578125 L 295.328125 99.414062 "/>
<path style="fill:none;stroke-width:0.2;stroke-linecap:butt;stroke-linejoin:miter;stroke:rgb(26.666667%,26.666667%,26.666667%);stroke-opacity:1;stroke-miterlimit:10;" d="M 403.875 59.753906 L 405.652344 39.472656 "/>
<path style="fill:none;stroke-width:0.2;stroke-linecap:butt;stroke-linejoin:miter;stroke:rgb(26.666667%,26.666667%,26.666667%);stroke-opacity:1;stroke-miterlimit:10;" d="M 517.714844 461.984375 L 511.46875 477.023438 "/>
<path style="fill:none;stroke-width:0.2;stroke-linecap:butt;stroke-linejoin:miter;stroke:rgb(26.666667%,26.666667%,26.666667%);stroke-opacity:1;stroke-miterlimit:10;" d="M 306.039062 361.261719 L 309.078125 343.277344 "/>
<path style="fill:none;stroke-width:0.2;stroke-linecap:butt;stroke-linejoin:miter;stroke:rgb(26.666667%,26.666667%,26.666667%);stroke-opacity:1;stroke-miterlimit:10;" d="M 110.429688 366.066406 L 105.457031 387.570312 "/>
<path style="fill:none;stroke-width:0.2;stroke-linecap:butt;stroke-linejoin:miter;stroke:rgb(26.666667%,26.666667%,26.666667%);stroke-opacity:1;stroke-miterlimit:10;" d="M 110.429688 366.066406 L 116.019531 347.351562 "/>
<path style="fill:none;stroke-width:0.2;stroke-linecap:butt;stroke-linejoin:miter;stroke:rgb(26.666667%,26.666667%,26.666667%);stroke-opacity:1;stroke-miterlimit:10;" d="M 110.429688 366.066406 L 126.863281 370.472656 "/>
<path style="fill:none;stroke-width:0.2;stroke-linecap:butt;stroke-linejoin:miter;stroke:rgb(26.666667%,26.666667%,26.666667%);stroke-opacity:1;stroke-miterlimit:10;" d="M 110.429688 366.066406 L 95.011719 357.527344 "/>
<path style="fill:none;stroke-width:0.2;stroke-linecap:butt;stroke-linejoin:miter;stroke:rgb(26.666667%,26.666667%,26.666667%);stroke-opacity:1;stroke-miterlimit:10;" d="M 485.117188 239.785156 L 470.367188 241.226562 "/>
<path style="fill:none;stroke-width:0.2;stroke-linecap:butt;stroke-linejoin:miter;stroke:rgb(26.666667%,26.666667%,26.666667%);stroke-opacity:1;stroke-miterlimit:10;" d="M 62.636719 271.585938 L 69.464844 255.445312 "/>
<path style="fill:none;stroke-width:0.2;stroke-linecap:butt;stroke-linejoin:miter;stroke:rgb(26.666667%,26.666667%,26.666667%);stroke-opacity:1;stroke-miterlimit:10;" d="M 62.636719 271.585938 L 56.152344 286.574219 "/>
<path style="fill:none;stroke-width:0.2;stroke-linecap:butt;stroke-linejoin:miter;stroke:rgb(26.666667%,26.666667%,26.666667%);stroke-opacity:1;stroke-miterlimit:10;" d="M 290.769531 220.902344 L 289.25 239.890625 "/>
<path style="fill:none;stroke-width:0.2;stroke-linecap:butt;stroke-linejoin:miter;stroke:rgb(26.666667%,26.666667%,26.666667%);stroke-opacity:1;stroke-miterlimit:10;" d="M 349.066406 551.796875 L 362.679688 562.152344 "/>
<path style="fill:none;stroke-width:0.2;stroke-linecap:butt;stroke-linejoin:miter;stroke:rgb(26.666667%,26.666667%,26.666667%);stroke-opacity:1;stroke-miterlimit:10;" d="M 423.75 47.046875 L 406.644531 38.90625 "/>
<path style="fill:none;stroke-width:0.2;stroke-linecap:butt;stroke-linejoin:miter;stroke:rgb(26.666667%,26.666667%,26.666667%);stroke-opacity:1;stroke-miterlimit:10;" d="M 383.109375 355.425781 L 394.402344 372.132812 "/>
<path style="fill:none;stroke-width:0.2;stroke-linecap:butt;stroke-linejoin:miter;stroke:rgb(26.666667%,26.666667%,26.666667%);stroke-opacity:1;stroke-miterlimit:10;" d="M 156.785156 274.714844 L 161.3125 290.324219 "/>
<path style="fill:none;stroke-width:0.2;stroke-linecap:butt;stroke-linejoin:miter;stroke:rgb(26.666667%,26.666667%,26.666667%);stroke-opacity:1;stroke-miterlimit:10;" d="M 379.703125 212.898438 L 384.144531 194.792969 "/>
<path style="fill:none;stroke-width:0.2;stroke-linecap:butt;stroke-linejoin:miter;stroke:rgb(26.666667%,26.666667%,26.666667%);stroke-opacity:1;stroke-miterlimit:10;" d="M 379.703125 212.898438 L 396.777344 217.277344 "/>
<path style="fill:none;stroke-width:0.2;stroke-linecap:butt;stroke-linejoin:miter;stroke:rgb(26.666667%,26.666667%,26.666667%);stroke-opacity:1;stroke-miterlimit:10;" d="M 379.703125 212.898438 L 361.066406 206.199219 "/>
<path style="fill:none;stroke-width:0.2;stroke-linecap:butt;stroke-linejoin:miter;stroke:rgb(26.666667%,26.666667%,26.666667%);stroke-opacity:1;stroke-miterlimit:10;" d="M 379.703125 212.898438 L 378.742188 232.003906 "/>
<path style="fill:none;stroke-width:0.2;stroke-linecap:butt;stroke-linejoin:miter;stroke:rgb(26.666667%,26.666667%,26.666667%);stroke-opacity:1;stroke-miterlimit:10;" d="M 325.4375 272.753906 L 320.953125 289.675781 "/>
<path style="fill:none;stroke-width:0.2;stroke-linecap:butt;stroke-linejoin:miter;stroke:rgb(26.666667%,26.666667%,26.666667%);stroke-opacity:1;stroke-miterlimit:10;" d="M 288.460938 75.007812 L 295.441406 97.546875 "/>
<path style="fill:none;stroke-width:0.2;stroke-linecap:butt;stroke-linejoin:miter;stroke:rgb(26.666667%,26.666667%,26.666667%);stroke-opacity:1;stroke-miterlimit:10;" d="M 206.789062 140.859375 L 191.066406 136.589844 "/>
<path style="fill:none;stroke-width:0.2;stroke-linecap:butt;stroke-linejoin:miter;stroke:rgb(26.666667%,26.666667%,26.666667%);stroke-opacity:1;stroke-miterlimit:10;" d="M 274.453125 86.847656 L 294.859375 98.023438 "/>
<path style="fill:none;stroke-width:0.2;stroke-linecap:butt;stroke-linejoin:miter;stroke:rgb(26.666667%,26.666667%,26.666667%);stroke-opacity:1;stroke-miterlimit:10;" d="M 384.027344 556.171875 L 364.429688 562.453125 "/>
<path style="fill:none;stroke-width:0.2;stroke-linecap:butt;stroke-linejoin:miter;stroke:rgb(26.666667%,26.666667%,26.666667%);stroke-opacity:1;stroke-miterlimit:10;" d="M 384.027344 556.171875 L 398.152344 566.089844 "/>
<path style="fill:none;stroke-width:0.2;stroke-linecap:butt;stroke-linejoin:miter;stroke:rgb(26.666667%,26.666667%,26.666667%);stroke-opacity:1;stroke-miterlimit:10;" d="M 384.027344 556.171875 L 390.9375 539.457031 "/>
<path style="fill:none;stroke-width:0.2;stroke-linecap:butt;stroke-linejoin:miter;stroke:rgb(26.666667%,26.666667%,26.666667%);stroke-opacity:1;stroke-miterlimit:10;" d="M 163.621094 509.546875 L 169.386719 494.589844 "/>
<path style="fill:none;stroke-width:0.2;stroke-linecap:butt;stroke-linejoin:miter;stroke:rgb(26.666667%,26.666667%,26.666667%);stroke-opacity:1;stroke-miterlimit:10;" d="M 424.035156 445.507812 L 433.765625 459.015625 "/>
<path style="fill:none;stroke-width:0.2;stroke-linecap:butt;stroke-linejoin:miter;stroke:rgb(26.666667%,26.666667%,26.666667%);stroke-opacity:1;stroke-miterlimit:10;" d="M 418.738281 22.546875 L 406.371094 37.703125 "/>
<path style="fill:none;stroke-width:0.2;stroke-linecap:butt;stroke-linejoin:miter;stroke:rgb(26.666667%,26.666667%,26.666667%);stroke-opacity:1;stroke-miterlimit:10;" d="M 345.011719 197.644531 L 359.246094 205.382812 "/>
<path style="fill:none;stroke-width:0.2;stroke-linecap:butt;stroke-linejoin:miter;stroke:rgb(26.666667%,26.666667%,26.666667%);stroke-opacity:1;stroke-miterlimit:10;" d="M 513.429688 51.347656 L 521.769531 65.066406 "/>
<path style="fill:none;stroke-width:0.2;stroke-linecap:butt;stroke-linejoin:miter;stroke:rgb(26.666667%,26.666667%,26.666667%);stroke-opacity:1;stroke-miterlimit:10;" d="M 513.429688 51.347656 L 505.207031 37.542969 "/>
<path style="fill:none;stroke-width:0.2;stroke-linecap:butt;stroke-linejoin:miter;stroke:rgb(26.666667%,26.666667%,26.666667%);stroke-opacity:1;stroke-miterlimit:10;" d="M 177.746094 156.964844 L 189.585938 137.183594 "/>
<path style="fill:none;stroke-width:0.2;stroke-linecap:butt;stroke-linejoin:miter;stroke:rgb(26.666667%,26.666667%,26.666667%);stroke-opacity:1;stroke-miterlimit:10;" d="M 177.746094 156.964844 L 182.144531 174.871094 "/>
<path style="fill:none;stroke-width:0.2;stroke-linecap:butt;stroke-linejoin:miter;stroke:rgb(26.666667%,26.666667%,26.666667%);stroke-opacity:1;stroke-miterlimit:10;" d="M 177.746094 156.964844 L 161.355469 161.464844 "/>
<path style="fill:none;stroke-width:0.2;stroke-linecap:butt;stroke-linejoin:miter;stroke:rgb(26.666667%,26.666667%,26.666667%);stroke-opacity:1;stroke-miterlimit:10;" d="M 191.871094 113.433594 L 190.175781 135.332031 "/>
<path style="fill:none;stroke-width:0.2;stroke-linecap:butt;stroke-linejoin:miter;stroke:rgb(26.666667%,26.666667%,26.666667%);stroke-opacity:1;stroke-miterlimit:10;" d="M 191.871094 113.433594 L 194.917969 95.675781 "/>
<path style="fill:none;stroke-width:0.2;stroke-linecap:butt;stroke-linejoin:miter;stroke:rgb(26.666667%,26.666667%,26.666667%);stroke-opacity:1;stroke-miterlimit:10;" d="M 316.144531 91.175781 L 296.679688 98.164062 "/>
<path style="fill:none;stroke-width:0.2;stroke-linecap:butt;stroke-linejoin:miter;stroke:rgb(26.666667%,26.666667%,26.666667%);stroke-opacity:1;stroke-miterlimit:10;" d="M 124.835938 102.738281 L 129.148438 86.980469 "/>
<path style="fill:none;stroke-width:0.2;stroke-linecap:butt;stroke-linejoin:miter;stroke:rgb(26.666667%,26.666667%,26.666667%);stroke-opacity:1;stroke-miterlimit:10;" d="M 395.65625 20 L 405.261719 37.601562 "/>
<path style="fill:none;stroke-width:0.2;stroke-linecap:butt;stroke-linejoin:miter;stroke:rgb(26.666667%,26.666667%,26.666667%);stroke-opacity:1;stroke-miterlimit:10;" d="M 406.984375 390.296875 L 395.53125 373.78125 "/>
<path style="fill:none;stroke-width:0.2;stroke-linecap:butt;stroke-linejoin:miter;stroke:rgb(26.666667%,26.666667%,26.666667%);stroke-opacity:1;stroke-miterlimit:10;" d="M 181.71875 384.511719 L 186.328125 399.753906 "/>
<path style=" stroke:none;fill-rule:nonzero;fill:rgb(100%,0%,0%);fill-opacity:1;" d="M 318.25 110.484375 C 318.25 111.820312 316.25 111.820312 316.25 110.484375 C 316.25 109.152344 318.25 109.152344 318.25 110.484375 "/>
<path style=" stroke:none;fill-rule:nonzero;fill:rgb(100%,0%,0%);fill-opacity:1;" d="M 296.738281 98.503906 C 296.738281 99.835938 294.738281 99.835938 294.738281 98.503906 C 294.738281 97.171875 296.738281 97.171875 296.738281 98.503906 "/>
<path style=" stroke:none;fill-rule:nonzero;fill:rgb(100%,0%,0%);fill-opacity:1;" d="M 303.882812 264.3125 C 303.882812 265.648438 301.882812 265.648438 301.882812 264.3125 C 301.882812 262.980469 303.882812 262.980469 303.882812 264.3125 "/>
<path style=" stroke:none;fill-rule:nonzero;fill:rgb(100%,0%,0%);fill-opacity:1;" d="M 321.699219 290.640625 C 321.699219 291.976562 319.699219 291.976562 319.699219 290.640625 C 319.699219 289.308594 321.699219 289.308594 321.699219 290.640625 "/>
<path style=" stroke:none;fill-rule:nonzero;fill:rgb(100%,0%,0%);fill-opacity:1;" d="M 290.171875 240.886719 C 290.171875 242.222656 288.171875 242.222656 288.171875 240.886719 C 288.171875 239.554688 290.171875 239.554688 290.171875 240.886719 "/>
<path style=" stroke:none;fill-rule:nonzero;fill:rgb(100%,0%,0%);fill-opacity:1;" d="M 404.347656 351.890625 C 404.347656 353.226562 402.347656 353.226562 402.347656 351.890625 C 402.347656 350.558594 404.347656 350.558594 404.347656 351.890625 "/>
<path style=" stroke:none;fill-rule:nonzero;fill:rgb(100%,0%,0%);fill-opacity:1;" d="M 395.960938 372.960938 C 395.960938 374.292969 393.960938 374.292969 393.960938 372.960938 C 393.960938 371.628906 395.960938 371.628906 395.960938 372.960938 "/>
<path style=" stroke:none;fill-rule:nonzero;fill:rgb(100%,0%,0%);fill-opacity:1;" d="M 192.804688 416.734375 C 192.804688 418.070312 190.804688 418.070312 190.804688 416.734375 C 190.804688 415.402344 192.804688 415.402344 192.804688 416.734375 "/>
<path style=" stroke:none;fill-rule:nonzero;fill:rgb(100%,0%,0%);fill-opacity:1;" d="M 187.617188 400.710938 C 187.617188 402.042969 185.617188 402.042969 185.617188 400.710938 C 185.617188 399.375 187.617188 399.375 187.617188 400.710938 "/>
<path style=" stroke:none;fill-rule:nonzero;fill:rgb(100%,0%,0%);fill-opacity:1;" d="M 26.320312 379.464844 C 26.320312 380.800781 24.320312 380.800781 24.320312 379.464844 C 24.320312 378.132812 26.320312 378.132812 26.320312 379.464844 "/>
<path style=" stroke:none;fill-rule:nonzero;fill:rgb(100%,0%,0%);fill-opacity:1;" d="M 31.730469 396 C 31.730469 397.332031 29.730469 397.332031 29.730469 396 C 29.730469 394.667969 31.730469 394.667969 31.730469 396 "/>
<path style=" stroke:none;fill-rule:nonzero;fill:rgb(100%,0%,0%);fill-opacity:1;" d="M 21 362.921875 C 21 364.253906 19 364.253906 19 362.921875 C 19 361.589844 21 361.589844 21 362.921875 "/>
<path style=" stroke:none;fill-rule:nonzero;fill:rgb(100%,0%,0%);fill-opacity:1;" d="M 66.042969 137.367188 C 66.042969 138.699219 64.042969 138.699219 64.042969 137.367188 C 64.042969 136.035156 66.042969 136.035156 66.042969 137.367188 "/>
<path style=" stroke:none;fill-rule:nonzero;fill:rgb(100%,0%,0%);fill-opacity:1;" d="M 62.503906 154.277344 C 62.503906 155.613281 60.503906 155.613281 60.503906 154.277344 C 60.503906 152.945312 62.503906 152.945312 62.503906 154.277344 "/>
<path style=" stroke:none;fill-rule:nonzero;fill:rgb(100%,0%,0%);fill-opacity:1;" d="M 69.167969 120.316406 C 69.167969 121.652344 67.167969 121.652344 67.167969 120.316406 C 67.167969 118.984375 69.167969 118.984375 69.167969 120.316406 "/>
<path style=" stroke:none;fill-rule:nonzero;fill:rgb(100%,0%,0%);fill-opacity:1;" d="M 387.652344 43.011719 C 387.652344 44.34375 385.652344 44.34375 385.652344 43.011719 C 385.652344 41.679688 387.652344 41.679688 387.652344 43.011719 "/>
<path style=" stroke:none;fill-rule:nonzero;fill:rgb(100%,0%,0%);fill-opacity:1;" d="M 406.738281 38.476562 C 406.738281 39.8125 404.738281 39.8125 404.738281 38.476562 C 404.738281 37.144531 406.738281 37.144531 406.738281 38.476562 "/>
<path style=" stroke:none;fill-rule:nonzero;fill:rgb(100%,0%,0%);fill-opacity:1;" d="M 534.605469 314.925781 C 534.605469 316.257812 532.605469 316.257812 532.605469 314.925781 C 532.605469 313.589844 534.605469 313.589844 534.605469 314.925781 "/>
<path style=" stroke:none;fill-rule:nonzero;fill:rgb(100%,0%,0%);fill-opacity:1;" d="M 551.476562 314.320312 C 551.476562 315.652344 549.476562 315.652344 549.476562 314.320312 C 549.476562 312.984375 551.476562 312.984375 551.476562 314.320312 "/>
<path style=" stroke:none;fill-rule:nonzero;fill:rgb(100%,0%,0%);fill-opacity:1;" d="M 259.167969 283.351562 C 259.167969 284.683594 257.167969 284.683594 257.167969 283.351562 C 257.167969 282.019531 259.167969 282.019531 259.167969 283.351562 "/>
<path style=" stroke:none;fill-rule:nonzero;fill:rgb(100%,0%,0%);fill-opacity:1;" d="M 250.328125 298.863281 C 250.328125 300.195312 248.328125 300.195312 248.328125 298.863281 C 248.328125 297.527344 250.328125 297.527344 250.328125 298.863281 "/>
<path style=" stroke:none;fill-rule:nonzero;fill:rgb(100%,0%,0%);fill-opacity:1;" d="M 276.902344 105.980469 C 276.902344 107.3125 274.902344 107.3125 274.902344 105.980469 C 274.902344 104.648438 276.902344 104.648438 276.902344 105.980469 "/>
<path style=" stroke:none;fill-rule:nonzero;fill:rgb(100%,0%,0%);fill-opacity:1;" d="M 177.207031 477.949219 C 177.207031 479.28125 175.207031 479.28125 175.207031 477.949219 C 175.207031 476.617188 177.207031 476.617188 177.207031 477.949219 "/>
<path style=" stroke:none;fill-rule:nonzero;fill:rgb(100%,0%,0%);fill-opacity:1;" d="M 170.746094 493.65625 C 170.746094 494.988281 168.746094 494.988281 168.746094 493.65625 C 168.746094 492.324219 170.746094 492.324219 170.746094 493.65625 "/>
<path style=" stroke:none;fill-rule:nonzero;fill:rgb(100%,0%,0%);fill-opacity:1;" d="M 476.777344 329.609375 C 476.777344 330.941406 474.777344 330.941406 474.777344 329.609375 C 474.777344 328.277344 476.777344 328.277344 476.777344 329.609375 "/>
<path style=" stroke:none;fill-rule:nonzero;fill:rgb(100%,0%,0%);fill-opacity:1;" d="M 470.796875 313.519531 C 470.796875 314.851562 468.796875 314.851562 468.796875 313.519531 C 468.796875 312.183594 470.796875 312.183594 470.796875 313.519531 "/>
<path style=" stroke:none;fill-rule:nonzero;fill:rgb(100%,0%,0%);fill-opacity:1;" d="M 482.773438 345.769531 C 482.773438 347.105469 480.773438 347.105469 480.773438 345.769531 C 480.773438 344.4375 482.773438 344.4375 482.773438 345.769531 "/>
<path style=" stroke:none;fill-rule:nonzero;fill:rgb(100%,0%,0%);fill-opacity:1;" d="M 356.105469 580 C 356.105469 581.332031 354.105469 581.332031 354.105469 580 C 354.105469 578.667969 356.105469 578.667969 356.105469 580 "/>
<path style=" stroke:none;fill-rule:nonzero;fill:rgb(100%,0%,0%);fill-opacity:1;" d="M 364.476562 562.757812 C 364.476562 564.09375 362.476562 564.09375 362.476562 562.757812 C 362.476562 561.425781 364.476562 561.425781 364.476562 562.757812 "/>
<path style=" stroke:none;fill-rule:nonzero;fill:rgb(100%,0%,0%);fill-opacity:1;" d="M 552.015625 188.714844 C 552.015625 190.046875 550.015625 190.046875 550.015625 188.714844 C 550.015625 187.382812 552.015625 187.382812 552.015625 188.714844 "/>
<path style=" stroke:none;fill-rule:nonzero;fill:rgb(100%,0%,0%);fill-opacity:1;" d="M 565.152344 200.714844 C 565.152344 202.046875 563.152344 202.046875 563.152344 200.714844 C 563.152344 199.378906 565.152344 199.378906 565.152344 200.714844 "/>
<path style=" stroke:none;fill-rule:nonzero;fill:rgb(100%,0%,0%);fill-opacity:1;" d="M 303.511719 120.96875 C 303.511719 122.300781 301.511719 122.300781 301.511719 120.96875 C 301.511719 119.636719 303.511719 119.636719 303.511719 120.96875 "/>
<path style=" stroke:none;fill-rule:nonzero;fill:rgb(100%,0%,0%);fill-opacity:1;" d="M 237.160156 316.667969 C 237.160156 318.003906 235.160156 318.003906 235.160156 316.667969 C 235.160156 315.335938 237.160156 315.335938 237.160156 316.667969 "/>
<path style=" stroke:none;fill-rule:nonzero;fill:rgb(100%,0%,0%);fill-opacity:1;" d="M 223.726562 295.296875 C 223.726562 296.628906 221.726562 296.628906 221.726562 295.296875 C 221.726562 293.960938 223.726562 293.960938 223.726562 295.296875 "/>
<path style=" stroke:none;fill-rule:nonzero;fill:rgb(100%,0%,0%);fill-opacity:1;" d="M 237.570312 339.613281 C 237.570312 340.945312 235.570312 340.945312 235.570312 339.613281 C 235.570312 338.28125 237.570312 338.28125 237.570312 339.613281 "/>
<path style=" stroke:none;fill-rule:nonzero;fill:rgb(100%,0%,0%);fill-opacity:1;" d="M 220.1875 324.773438 C 220.1875 326.105469 218.1875 326.105469 218.1875 324.773438 C 218.1875 323.4375 220.1875 323.4375 220.1875 324.773438 "/>
<path style=" stroke:none;fill-rule:nonzero;fill:rgb(100%,0%,0%);fill-opacity:1;" d="M 254.5625 326.15625 C 254.5625 327.492188 252.5625 327.492188 252.5625 326.15625 C 252.5625 324.824219 254.5625 324.824219 254.5625 326.15625 "/>
<path style=" stroke:none;fill-rule:nonzero;fill:rgb(100%,0%,0%);fill-opacity:1;" d="M 560.234375 330.417969 C 560.234375 331.75 558.234375 331.75 558.234375 330.417969 C 558.234375 329.082031 560.234375 329.082031 560.234375 330.417969 "/>
<path style=" stroke:none;fill-rule:nonzero;fill:rgb(100%,0%,0%);fill-opacity:1;" d="M 283.519531 481.027344 C 283.519531 482.359375 281.519531 482.359375 281.519531 481.027344 C 281.519531 479.691406 283.519531 479.691406 283.519531 481.027344 "/>
<path style=" stroke:none;fill-rule:nonzero;fill:rgb(100%,0%,0%);fill-opacity:1;" d="M 301.03125 498.464844 C 301.03125 499.796875 299.03125 499.796875 299.03125 498.464844 C 299.03125 497.128906 301.03125 497.128906 301.03125 498.464844 "/>
<path style=" stroke:none;fill-rule:nonzero;fill:rgb(100%,0%,0%);fill-opacity:1;" d="M 283.011719 457.472656 C 283.011719 458.804688 281.011719 458.804688 281.011719 457.472656 C 281.011719 456.136719 283.011719 456.136719 283.011719 457.472656 "/>
<path style=" stroke:none;fill-rule:nonzero;fill:rgb(100%,0%,0%);fill-opacity:1;" d="M 284.265625 504.984375 C 284.265625 506.316406 282.265625 506.316406 282.265625 504.984375 C 282.265625 503.652344 284.265625 503.652344 284.265625 504.984375 "/>
<path style=" stroke:none;fill-rule:nonzero;fill:rgb(100%,0%,0%);fill-opacity:1;" d="M 300.488281 461.042969 C 300.488281 462.378906 298.488281 462.378906 298.488281 461.042969 C 298.488281 459.710938 300.488281 459.710938 300.488281 461.042969 "/>
<path style=" stroke:none;fill-rule:nonzero;fill:rgb(100%,0%,0%);fill-opacity:1;" d="M 261.734375 482.207031 C 261.734375 483.542969 259.734375 483.542969 259.734375 482.207031 C 259.734375 480.875 261.734375 480.875 261.734375 482.207031 "/>
<path style=" stroke:none;fill-rule:nonzero;fill:rgb(100%,0%,0%);fill-opacity:1;" d="M 304.675781 479.714844 C 304.675781 481.046875 302.675781 481.046875 302.675781 479.714844 C 302.675781 478.378906 304.675781 478.378906 304.675781 479.714844 "/>
<path style=" stroke:none;fill-rule:nonzero;fill:rgb(100%,0%,0%);fill-opacity:1;" d="M 266.269531 463.464844 C 266.269531 464.796875 264.269531 464.796875 264.269531 463.464844 C 264.269531 462.128906 266.269531 462.128906 266.269531 463.464844 "/>
<path style=" stroke:none;fill-rule:nonzero;fill:rgb(100%,0%,0%);fill-opacity:1;" d="M 267.035156 500.667969 C 267.035156 502.003906 265.035156 502.003906 265.035156 500.667969 C 265.035156 499.335938 267.035156 499.335938 267.035156 500.667969 "/>
<path style=" stroke:none;fill-rule:nonzero;fill:rgb(100%,0%,0%);fill-opacity:1;" d="M 342.539062 287.449219 C 342.539062 288.78125 340.539062 288.78125 340.539062 287.449219 C 340.539062 286.113281 342.539062 286.113281 342.539062 287.449219 "/>
<path style=" stroke:none;fill-rule:nonzero;fill:rgb(100%,0%,0%);fill-opacity:1;" d="M 135.566406 69.503906 C 135.566406 70.835938 133.566406 70.835938 133.566406 69.503906 C 133.566406 68.167969 135.566406 68.167969 135.566406 69.503906 "/>
<path style=" stroke:none;fill-rule:nonzero;fill:rgb(100%,0%,0%);fill-opacity:1;" d="M 130.414062 86.015625 C 130.414062 87.347656 128.414062 87.347656 128.414062 86.015625 C 128.414062 84.683594 130.414062 84.683594 130.414062 86.015625 "/>
<path style=" stroke:none;fill-rule:nonzero;fill:rgb(100%,0%,0%);fill-opacity:1;" d="M 215.746094 277.648438 C 215.746094 278.980469 213.746094 278.980469 213.746094 277.648438 C 213.746094 276.3125 215.746094 276.3125 215.746094 277.648438 "/>
<path style=" stroke:none;fill-rule:nonzero;fill:rgb(100%,0%,0%);fill-opacity:1;" d="M 332.65625 306.46875 C 332.65625 307.804688 330.65625 307.804688 330.65625 306.46875 C 330.65625 305.136719 332.65625 305.136719 332.65625 306.46875 "/>
<path style=" stroke:none;fill-rule:nonzero;fill:rgb(100%,0%,0%);fill-opacity:1;" d="M 427.285156 476.15625 C 427.285156 477.488281 425.285156 477.488281 425.285156 476.15625 C 425.285156 474.824219 427.285156 474.824219 427.285156 476.15625 "/>
<path style=" stroke:none;fill-rule:nonzero;fill:rgb(100%,0%,0%);fill-opacity:1;" d="M 435.351562 459.828125 C 435.351562 461.160156 433.351562 461.160156 433.351562 459.828125 C 433.351562 458.496094 435.351562 458.496094 435.351562 459.828125 "/>
<path style=" stroke:none;fill-rule:nonzero;fill:rgb(100%,0%,0%);fill-opacity:1;" d="M 77.582031 238.550781 C 77.582031 239.886719 75.582031 239.886719 75.582031 238.550781 C 75.582031 237.21875 77.582031 237.21875 77.582031 238.550781 "/>
<path style=" stroke:none;fill-rule:nonzero;fill:rgb(100%,0%,0%);fill-opacity:1;" d="M 70.851562 254.527344 C 70.851562 255.859375 68.851562 255.859375 68.851562 254.527344 C 68.851562 253.191406 70.851562 253.191406 70.851562 254.527344 "/>
<path style=" stroke:none;fill-rule:nonzero;fill:rgb(100%,0%,0%);fill-opacity:1;" d="M 505.238281 493.832031 C 505.238281 495.164062 503.238281 495.164062 503.238281 493.832031 C 503.238281 492.496094 505.238281 492.496094 505.238281 493.832031 "/>
<path style=" stroke:none;fill-rule:nonzero;fill:rgb(100%,0%,0%);fill-opacity:1;" d="M 512.082031 477.945312 C 512.082031 479.277344 510.082031 479.277344 510.082031 477.945312 C 510.082031 476.613281 512.082031 476.613281 512.082031 477.945312 "/>
<path style=" stroke:none;fill-rule:nonzero;fill:rgb(100%,0%,0%);fill-opacity:1;" d="M 454.648438 145.347656 C 454.648438 146.683594 452.648438 146.683594 452.648438 145.347656 C 452.648438 144.015625 454.648438 144.015625 454.648438 145.347656 "/>
<path style=" stroke:none;fill-rule:nonzero;fill:rgb(100%,0%,0%);fill-opacity:1;" d="M 449.410156 165.515625 C 449.410156 166.847656 447.410156 166.847656 447.410156 165.515625 C 447.410156 164.179688 449.410156 164.179688 449.410156 165.515625 "/>
<path style=" stroke:none;fill-rule:nonzero;fill:rgb(100%,0%,0%);fill-opacity:1;" d="M 434.839844 145.871094 C 434.839844 147.207031 432.839844 147.207031 432.839844 145.871094 C 432.839844 144.539062 434.839844 144.539062 434.839844 145.871094 "/>
<path style=" stroke:none;fill-rule:nonzero;fill:rgb(100%,0%,0%);fill-opacity:1;" d="M 447.753906 125.609375 C 447.753906 126.945312 445.753906 126.945312 445.753906 125.609375 C 445.753906 124.277344 447.753906 124.277344 447.753906 125.609375 "/>
<path style=" stroke:none;fill-rule:nonzero;fill:rgb(100%,0%,0%);fill-opacity:1;" d="M 471.113281 157.207031 C 471.113281 158.542969 469.113281 158.542969 469.113281 157.207031 C 469.113281 155.875 471.113281 155.875 471.113281 157.207031 "/>
<path style=" stroke:none;fill-rule:nonzero;fill:rgb(100%,0%,0%);fill-opacity:1;" d="M 470.140625 132.46875 C 470.140625 133.800781 468.140625 133.800781 468.140625 132.46875 C 468.140625 131.132812 470.140625 131.132812 470.140625 132.46875 "/>
<path style=" stroke:none;fill-rule:nonzero;fill:rgb(100%,0%,0%);fill-opacity:1;" d="M 375.421875 376.242188 C 375.421875 377.578125 373.421875 377.578125 373.421875 376.242188 C 373.421875 374.910156 375.421875 374.910156 375.421875 376.242188 "/>
<path style=" stroke:none;fill-rule:nonzero;fill:rgb(100%,0%,0%);fill-opacity:1;" d="M 272.570312 234.261719 C 272.570312 235.59375 270.570312 235.59375 270.570312 234.261719 C 270.570312 232.929688 272.570312 232.929688 272.570312 234.261719 "/>
<path style=" stroke:none;fill-rule:nonzero;fill:rgb(100%,0%,0%);fill-opacity:1;" d="M 454.667969 243.121094 C 454.667969 244.453125 452.667969 244.453125 452.667969 243.121094 C 452.667969 241.785156 454.667969 241.785156 454.667969 243.121094 "/>
<path style=" stroke:none;fill-rule:nonzero;fill:rgb(100%,0%,0%);fill-opacity:1;" d="M 470.371094 241.324219 C 470.371094 242.65625 468.371094 242.65625 468.371094 241.324219 C 468.371094 239.988281 470.371094 239.988281 470.371094 241.324219 "/>
<path style=" stroke:none;fill-rule:nonzero;fill:rgb(100%,0%,0%);fill-opacity:1;" d="M 581 193.8125 C 581 195.144531 579 195.144531 579 193.8125 C 579 192.480469 581 192.480469 581 193.8125 "/>
<path style=" stroke:none;fill-rule:nonzero;fill:rgb(100%,0%,0%);fill-opacity:1;" d="M 452.117188 456.1875 C 452.117188 457.523438 450.117188 457.523438 450.117188 456.1875 C 450.117188 454.855469 452.117188 454.855469 452.117188 456.1875 "/>
<path style=" stroke:none;fill-rule:nonzero;fill:rgb(100%,0%,0%);fill-opacity:1;" d="M 167.613281 307.839844 C 167.613281 309.175781 165.613281 309.175781 165.613281 307.839844 C 165.613281 306.507812 167.613281 306.507812 167.613281 307.839844 "/>
<path style=" stroke:none;fill-rule:nonzero;fill:rgb(100%,0%,0%);fill-opacity:1;" d="M 162.589844 291.285156 C 162.589844 292.617188 160.589844 292.617188 160.589844 291.285156 C 160.589844 289.953125 162.589844 289.953125 162.589844 291.285156 "/>
<path style=" stroke:none;fill-rule:nonzero;fill:rgb(100%,0%,0%);fill-opacity:1;" d="M 416.585938 369.90625 C 416.585938 371.238281 414.585938 371.238281 414.585938 369.90625 C 414.585938 368.570312 416.585938 368.570312 416.585938 369.90625 "/>
<path style=" stroke:none;fill-rule:nonzero;fill:rgb(100%,0%,0%);fill-opacity:1;" d="M 313.527344 319.054688 C 313.527344 320.386719 311.527344 320.386719 311.527344 319.054688 C 311.527344 317.722656 313.527344 317.722656 313.527344 319.054688 "/>
<path style=" stroke:none;fill-rule:nonzero;fill:rgb(100%,0%,0%);fill-opacity:1;" d="M 310.242188 342.289062 C 310.242188 343.625 308.242188 343.625 308.242188 342.289062 C 308.242188 340.957031 310.242188 340.957031 310.242188 342.289062 "/>
<path style=" stroke:none;fill-rule:nonzero;fill:rgb(100%,0%,0%);fill-opacity:1;" d="M 307.136719 75.324219 C 307.136719 76.65625 305.136719 76.65625 305.136719 75.324219 C 305.136719 73.988281 307.136719 73.988281 307.136719 75.324219 "/>
<path style=" stroke:none;fill-rule:nonzero;fill:rgb(100%,0%,0%);fill-opacity:1;" d="M 558.453125 297.300781 C 558.453125 298.632812 556.453125 298.632812 556.453125 297.300781 C 556.453125 295.96875 558.453125 295.96875 558.453125 297.300781 "/>
<path style=" stroke:none;fill-rule:nonzero;fill:rgb(100%,0%,0%);fill-opacity:1;" d="M 387.375 394.023438 C 387.375 395.355469 385.375 395.355469 385.375 394.023438 C 385.375 392.691406 387.375 392.691406 387.375 394.023438 "/>
<path style=" stroke:none;fill-rule:nonzero;fill:rgb(100%,0%,0%);fill-opacity:1;" d="M 103.398438 407.078125 C 103.398438 408.410156 101.398438 408.410156 101.398438 407.078125 C 101.398438 405.746094 103.398438 405.746094 103.398438 407.078125 "/>
<path style=" stroke:none;fill-rule:nonzero;fill:rgb(100%,0%,0%);fill-opacity:1;" d="M 106.230469 388.542969 C 106.230469 389.875 104.230469 389.875 104.230469 388.542969 C 104.230469 387.210938 106.230469 387.210938 106.230469 388.542969 "/>
<path style=" stroke:none;fill-rule:nonzero;fill:rgb(100%,0%,0%);fill-opacity:1;" d="M 562.9375 219.253906 C 562.9375 220.585938 560.9375 220.585938 560.9375 219.253906 C 560.9375 217.921875 562.9375 217.921875 562.9375 219.253906 "/>
<path style=" stroke:none;fill-rule:nonzero;fill:rgb(100%,0%,0%);fill-opacity:1;" d="M 285.929688 122.578125 C 285.929688 123.910156 283.929688 123.910156 283.929688 122.578125 C 283.929688 121.246094 285.929688 121.246094 285.929688 122.578125 "/>
<path style=" stroke:none;fill-rule:nonzero;fill:rgb(100%,0%,0%);fill-opacity:1;" d="M 404.875 59.753906 C 404.875 61.085938 402.875 61.085938 402.875 59.753906 C 402.875 58.417969 404.875 58.417969 404.875 59.753906 "/>
<path style=" stroke:none;fill-rule:nonzero;fill:rgb(100%,0%,0%);fill-opacity:1;" d="M 518.714844 461.984375 C 518.714844 463.316406 516.714844 463.316406 516.714844 461.984375 C 516.714844 460.652344 518.714844 460.652344 518.714844 461.984375 "/>
<path style=" stroke:none;fill-rule:nonzero;fill:rgb(100%,0%,0%);fill-opacity:1;" d="M 307.039062 361.261719 C 307.039062 362.59375 305.039062 362.59375 305.039062 361.261719 C 305.039062 359.929688 307.039062 359.929688 307.039062 361.261719 "/>
<path style=" stroke:none;fill-rule:nonzero;fill:rgb(100%,0%,0%);fill-opacity:1;" d="M 111.429688 366.066406 C 111.429688 367.398438 109.429688 367.398438 109.429688 366.066406 C 109.429688 364.734375 111.429688 364.734375 111.429688 366.066406 "/>
<path style=" stroke:none;fill-rule:nonzero;fill:rgb(100%,0%,0%);fill-opacity:1;" d="M 117.304688 346.390625 C 117.304688 347.726562 115.304688 347.726562 115.304688 346.390625 C 115.304688 345.058594 117.304688 345.058594 117.304688 346.390625 "/>
<path style=" stroke:none;fill-rule:nonzero;fill:rgb(100%,0%,0%);fill-opacity:1;" d="M 128.828125 370.734375 C 128.828125 372.066406 126.828125 372.066406 126.828125 370.734375 C 126.828125 369.398438 128.828125 369.398438 128.828125 370.734375 "/>
<path style=" stroke:none;fill-rule:nonzero;fill:rgb(100%,0%,0%);fill-opacity:1;" d="M 95.136719 357.042969 C 95.136719 358.375 93.136719 358.375 93.136719 357.042969 C 93.136719 355.707031 95.136719 355.707031 95.136719 357.042969 "/>
<path style=" stroke:none;fill-rule:nonzero;fill:rgb(100%,0%,0%);fill-opacity:1;" d="M 486.117188 239.785156 C 486.117188 241.117188 484.117188 241.117188 484.117188 239.785156 C 484.117188 238.453125 486.117188 238.453125 486.117188 239.785156 "/>
<path style=" stroke:none;fill-rule:nonzero;fill:rgb(100%,0%,0%);fill-opacity:1;" d="M 63.636719 271.585938 C 63.636719 272.917969 61.636719 272.917969 61.636719 271.585938 C 61.636719 270.253906 63.636719 270.253906 63.636719 271.585938 "/>
<path style=" stroke:none;fill-rule:nonzero;fill:rgb(100%,0%,0%);fill-opacity:1;" d="M 56.753906 287.492188 C 56.753906 288.824219 54.753906 288.824219 54.753906 287.492188 C 54.753906 286.160156 56.753906 286.160156 56.753906 287.492188 "/>
<path style=" stroke:none;fill-rule:nonzero;fill:rgb(100%,0%,0%);fill-opacity:1;" d="M 291.769531 220.902344 C 291.769531 222.238281 289.769531 222.238281 289.769531 220.902344 C 289.769531 219.570312 291.769531 219.570312 291.769531 220.902344 "/>
<path style=" stroke:none;fill-rule:nonzero;fill:rgb(100%,0%,0%);fill-opacity:1;" d="M 350.066406 551.796875 C 350.066406 553.132812 348.066406 553.132812 348.066406 551.796875 C 348.066406 550.464844 350.066406 550.464844 350.066406 551.796875 "/>
<path style=" stroke:none;fill-rule:nonzero;fill:rgb(100%,0%,0%);fill-opacity:1;" d="M 424.75 47.046875 C 424.75 48.378906 422.75 48.378906 422.75 47.046875 C 422.75 45.714844 424.75 45.714844 424.75 47.046875 "/>
<path style=" stroke:none;fill-rule:nonzero;fill:rgb(100%,0%,0%);fill-opacity:1;" d="M 384.109375 355.425781 C 384.109375 356.757812 382.109375 356.757812 382.109375 355.425781 C 382.109375 354.09375 384.109375 354.09375 384.109375 355.425781 "/>
<path style=" stroke:none;fill-rule:nonzero;fill:rgb(100%,0%,0%);fill-opacity:1;" d="M 157.785156 274.714844 C 157.785156 276.046875 155.785156 276.046875 155.785156 274.714844 C 155.785156 273.378906 157.785156 273.378906 157.785156 274.714844 "/>
<path style=" stroke:none;fill-rule:nonzero;fill:rgb(100%,0%,0%);fill-opacity:1;" d="M 380.703125 212.898438 C 380.703125 214.230469 378.703125 214.230469 378.703125 212.898438 C 378.703125 211.566406 380.703125 211.566406 380.703125 212.898438 "/>
<path style=" stroke:none;fill-rule:nonzero;fill:rgb(100%,0%,0%);fill-opacity:1;" d="M 385.382812 193.820312 C 385.382812 195.152344 383.382812 195.152344 383.382812 193.820312 C 383.382812 192.488281 385.382812 192.488281 385.382812 193.820312 "/>
<path style=" stroke:none;fill-rule:nonzero;fill:rgb(100%,0%,0%);fill-opacity:1;" d="M 398.746094 217.523438 C 398.746094 218.859375 396.746094 218.859375 396.746094 217.523438 C 396.746094 216.191406 398.746094 216.191406 398.746094 217.523438 "/>
<path style=" stroke:none;fill-rule:nonzero;fill:rgb(100%,0%,0%);fill-opacity:1;" d="M 361.125 205.859375 C 361.125 207.191406 359.125 207.191406 359.125 205.859375 C 359.125 204.527344 361.125 204.527344 361.125 205.859375 "/>
<path style=" stroke:none;fill-rule:nonzero;fill:rgb(100%,0%,0%);fill-opacity:1;" d="M 379.691406 233.003906 C 379.691406 234.335938 377.691406 234.335938 377.691406 233.003906 C 377.691406 231.667969 379.691406 231.667969 379.691406 233.003906 "/>
<path style=" stroke:none;fill-rule:nonzero;fill:rgb(100%,0%,0%);fill-opacity:1;" d="M 326.4375 272.753906 C 326.4375 274.089844 324.4375 274.089844 324.4375 272.753906 C 324.4375 271.421875 326.4375 271.421875 326.4375 272.753906 "/>
<path style=" stroke:none;fill-rule:nonzero;fill:rgb(100%,0%,0%);fill-opacity:1;" d="M 289.460938 75.007812 C 289.460938 76.339844 287.460938 76.339844 287.460938 75.007812 C 287.460938 73.671875 289.460938 73.671875 289.460938 75.007812 "/>
<path style=" stroke:none;fill-rule:nonzero;fill:rgb(100%,0%,0%);fill-opacity:1;" d="M 207.789062 140.859375 C 207.789062 142.191406 205.789062 142.191406 205.789062 140.859375 C 205.789062 139.527344 207.789062 139.527344 207.789062 140.859375 "/>
<path style=" stroke:none;fill-rule:nonzero;fill:rgb(100%,0%,0%);fill-opacity:1;" d="M 191.101562 136.328125 C 191.101562 137.660156 189.101562 137.660156 189.101562 136.328125 C 189.101562 134.992188 191.101562 134.992188 191.101562 136.328125 "/>
<path style=" stroke:none;fill-rule:nonzero;fill:rgb(100%,0%,0%);fill-opacity:1;" d="M 275.453125 86.847656 C 275.453125 88.183594 273.453125 88.183594 273.453125 86.847656 C 273.453125 85.515625 275.453125 85.515625 275.453125 86.847656 "/>
<path style=" stroke:none;fill-rule:nonzero;fill:rgb(100%,0%,0%);fill-opacity:1;" d="M 385.027344 556.171875 C 385.027344 557.507812 383.027344 557.507812 383.027344 556.171875 C 383.027344 554.839844 385.027344 554.839844 385.027344 556.171875 "/>
<path style=" stroke:none;fill-rule:nonzero;fill:rgb(100%,0%,0%);fill-opacity:1;" d="M 399.972656 566.664062 C 399.972656 568 397.972656 568 397.972656 566.664062 C 397.972656 565.332031 399.972656 565.332031 399.972656 566.664062 "/>
<path style=" stroke:none;fill-rule:nonzero;fill:rgb(100%,0%,0%);fill-opacity:1;" d="M 392.320312 538.535156 C 392.320312 539.867188 390.320312 539.867188 390.320312 538.535156 C 390.320312 537.199219 392.320312 537.199219 392.320312 538.535156 "/>
<path style=" stroke:none;fill-rule:nonzero;fill:rgb(100%,0%,0%);fill-opacity:1;" d="M 164.621094 509.546875 C 164.621094 510.878906 162.621094 510.878906 162.621094 509.546875 C 162.621094 508.210938 164.621094 508.210938 164.621094 509.546875 "/>
<path style=" stroke:none;fill-rule:nonzero;fill:rgb(100%,0%,0%);fill-opacity:1;" d="M 425.035156 445.507812 C 425.035156 446.839844 423.035156 446.839844 423.035156 445.507812 C 423.035156 444.171875 425.035156 444.171875 425.035156 445.507812 "/>
<path style=" stroke:none;fill-rule:nonzero;fill:rgb(100%,0%,0%);fill-opacity:1;" d="M 419.738281 22.546875 C 419.738281 23.882812 417.738281 23.882812 417.738281 22.546875 C 417.738281 21.214844 419.738281 21.214844 419.738281 22.546875 "/>
<path style=" stroke:none;fill-rule:nonzero;fill:rgb(100%,0%,0%);fill-opacity:1;" d="M 346.011719 197.644531 C 346.011719 198.976562 344.011719 198.976562 344.011719 197.644531 C 344.011719 196.308594 346.011719 196.308594 346.011719 197.644531 "/>
<path style=" stroke:none;fill-rule:nonzero;fill:rgb(100%,0%,0%);fill-opacity:1;" d="M 514.429688 51.347656 C 514.429688 52.679688 512.429688 52.679688 512.429688 51.347656 C 512.429688 50.015625 514.429688 50.015625 514.429688 51.347656 "/>
<path style=" stroke:none;fill-rule:nonzero;fill:rgb(100%,0%,0%);fill-opacity:1;" d="M 523.289062 65.921875 C 523.289062 67.253906 521.289062 67.253906 521.289062 65.921875 C 521.289062 64.585938 523.289062 64.585938 523.289062 65.921875 "/>
<path style=" stroke:none;fill-rule:nonzero;fill:rgb(100%,0%,0%);fill-opacity:1;" d="M 505.695312 36.683594 C 505.695312 38.019531 503.695312 38.019531 503.695312 36.683594 C 503.695312 35.351562 505.695312 35.351562 505.695312 36.683594 "/>
<path style=" stroke:none;fill-rule:nonzero;fill:rgb(100%,0%,0%);fill-opacity:1;" d="M 178.746094 156.964844 C 178.746094 158.296875 176.746094 158.296875 176.746094 156.964844 C 176.746094 155.632812 178.746094 155.632812 178.746094 156.964844 "/>
<path style=" stroke:none;fill-rule:nonzero;fill:rgb(100%,0%,0%);fill-opacity:1;" d="M 183.382812 175.839844 C 183.382812 177.175781 181.382812 177.175781 181.382812 175.839844 C 181.382812 174.507812 183.382812 174.507812 183.382812 175.839844 "/>
<path style=" stroke:none;fill-rule:nonzero;fill:rgb(100%,0%,0%);fill-opacity:1;" d="M 161.390625 161.730469 C 161.390625 163.0625 159.390625 163.0625 159.390625 161.730469 C 159.390625 160.394531 161.390625 160.394531 161.390625 161.730469 "/>
<path style=" stroke:none;fill-rule:nonzero;fill:rgb(100%,0%,0%);fill-opacity:1;" d="M 192.871094 113.433594 C 192.871094 114.765625 190.871094 114.765625 190.871094 113.433594 C 190.871094 112.101562 192.871094 112.101562 192.871094 113.433594 "/>
<path style=" stroke:none;fill-rule:nonzero;fill:rgb(100%,0%,0%);fill-opacity:1;" d="M 196.089844 94.6875 C 196.089844 96.023438 194.089844 96.023438 194.089844 94.6875 C 194.089844 93.355469 196.089844 93.355469 196.089844 94.6875 "/>
<path style=" stroke:none;fill-rule:nonzero;fill:rgb(100%,0%,0%);fill-opacity:1;" d="M 317.144531 91.175781 C 317.144531 92.507812 315.144531 92.507812 315.144531 91.175781 C 315.144531 89.84375 317.144531 89.84375 317.144531 91.175781 "/>
<path style=" stroke:none;fill-rule:nonzero;fill:rgb(100%,0%,0%);fill-opacity:1;" d="M 125.835938 102.738281 C 125.835938 104.074219 123.835938 104.074219 123.835938 102.738281 C 123.835938 101.40625 125.835938 101.40625 125.835938 102.738281 "/>
<path style=" stroke:none;fill-rule:nonzero;fill:rgb(100%,0%,0%);fill-opacity:1;" d="M 396.65625 20 C 396.65625 21.332031 394.65625 21.332031 394.65625 20 C 394.65625 18.667969 396.65625 18.667969 396.65625 20 "/>
<path style=" stroke:none;fill-rule:nonzero;fill:rgb(100%,0%,0%);fill-opacity:1;" d="M 407.984375 390.296875 C 407.984375 391.632812 405.984375 391.632812 405.984375 390.296875 C 405.984375 388.964844 407.984375 388.964844 407.984375 390.296875 "/>
<path style=" stroke:none;fill-rule:nonzero;fill:rgb(100%,0%,0%);fill-opacity:1;" d="M 182.71875 384.511719 C 182.71875 385.84375 180.71875 385.84375 180.71875 384.511719 C 180.71875 383.175781 182.71875 383.175781 182.71875 384.511719 "/>
</g>
</svg>
