<?xml version="1.0" encoding="UTF-8"?>
<svg xmlns="http://www.w3.org/2000/svg" xmlns:xlink="http://www.w3.org/1999/xlink" width="600" height="600" viewBox="0 0 600 600">
<rect x="-60" y="-60" width="720" height="720" fill="rgb(100%, 100%, 100%)" fill-opacity="1"/>
<path fill="none" stroke-width="0.2" stroke-linecap="butt" stroke-linejoin="miter" stroke="rgb(26.666667%, 26.666667%, 26.666667%)" stroke-opacity="1" stroke-miterlimit="10" d="M 311.578125 204.183594 L 259.554688 203.589844 "/>
<path fill-rule="nonzero" fill="rgb(26.666667%, 26.666667%, 26.666667%)" fill-opacity="1" d="M 257.414062 203.566406 L 259.5625 202.894531 L 259.546875 204.285156 L 257.414062 203.566406 "/>
<path fill="none" stroke-width="0.2" stroke-linecap="butt" stroke-linejoin="miter" stroke="rgb(26.666667%, 26.666667%, 26.666667%)" stroke-opacity="1" stroke-miterlimit="10" d="M 227.308594 160.5 L 254.65625 200.953125 "/>
<path fill-rule="nonzero" fill="rgb(26.666667%, 26.666667%, 26.666667%)" fill-opacity="1" d="M 255.855469 202.726562 L 254.082031 201.34375 L 255.234375 200.5625 L 255.855469 202.726562 "/>
<path fill="none" stroke-width="0.2" stroke-linecap="butt" stroke-linejoin="miter" stroke="rgb(26.666667%, 26.666667%, 26.666667%)" stroke-opacity="1" stroke-miterlimit="10" d="M 381.894531 40.09375 L 359.699219 31.046875 "/>
<path fill-rule="nonzero" fill="rgb(26.666667%, 26.666667%, 26.666667%)" fill-opacity="1" d="M 357.71875 30.238281 L 359.960938 30.402344 L 359.4375 31.691406 L 357.71875 30.238281 "/>
<path fill="none" stroke-width="0.2" stroke-linecap="butt" stroke-linejoin="miter" stroke="rgb(26.666667%, 26.666667%, 26.666667%)" stroke-opacity="1" stroke-miterlimit="10" d="M 260.34375 228.988281 L 256.894531 206.65625 "/>
<path fill-rule="nonzero" fill="rgb(26.666667%, 26.666667%, 26.666667%)" fill-opacity="1" d="M 256.570312 204.542969 L 257.582031 206.550781 L 256.207031 206.765625 L 256.570312 204.542969 "/>
<path fill="none" stroke-width="0.2" stroke-linecap="butt" stroke-linejoin="miter" stroke="rgb(26.666667%, 26.666667%, 26.666667%)" stroke-opacity="1" stroke-miterlimit="10" d="M 103.726562 430.242188 L 79.746094 434.664062 "/>
<path fill-rule="nonzero" fill="rgb(26.666667%, 26.666667%, 26.666667%)" fill-opacity="1" d="M 77.640625 435.054688 L 79.621094 433.980469 L 79.871094 435.351562 L 77.640625 435.054688 "/>
<path fill="none" stroke-width="0.2" stroke-linecap="butt" stroke-linejoin="miter" stroke="rgb(26.666667%, 26.666667%, 26.666667%)" stroke-opacity="1" stroke-miterlimit="10" d="M 294.910156 232.664062 L 258.921875 205.449219 "/>
<path fill-rule="nonzero" fill="rgb(26.666667%, 26.666667%, 26.666667%)" fill-opacity="1" d="M 257.214844 204.15625 L 259.339844 204.894531 L 258.5 206.003906 L 257.214844 204.15625 "/>
<path fill="none" stroke-width="0.2" stroke-linecap="butt" stroke-linejoin="miter" stroke="rgb(26.666667%, 26.666667%, 26.666667%)" stroke-opacity="1" stroke-miterlimit="10" d="M 250.65625 177.980469 L 255.726562 200.492188 "/>
<path fill-rule="nonzero" fill="rgb(26.666667%, 26.666667%, 26.666667%)" fill-opacity="1" d="M 256.195312 202.578125 L 255.046875 200.644531 L 256.40625 200.339844 L 256.195312 202.578125 "/>
<path fill="none" stroke-width="0.2" stroke-linecap="butt" stroke-linejoin="miter" stroke="rgb(26.666667%, 26.666667%, 26.666667%)" stroke-opacity="1" stroke-miterlimit="10" d="M 556.476562 220.96875 L 566.847656 241.574219 "/>
<path fill-rule="nonzero" fill="rgb(26.666667%, 26.666667%, 26.666667%)" fill-opacity="1" d="M 567.8125 243.484375 L 566.226562 241.886719 L 567.46875 241.261719 L 567.8125 243.484375 "/>
<path fill="none" stroke-width="0.2" stroke-linecap="butt" stroke-linejoin="miter" stroke="rgb(26.666667%, 26.666667%, 26.666667%)" stroke-opacity="1" stroke-miterlimit="10" d="M 519.472656 569.328125 L 495.410156 561.226562 "/>
<path fill-rule="nonzero" fill="rgb(26.666667%, 26.666667%, 26.666667%)" fill-opacity="1" d="M 493.382812 560.542969 L 495.632812 560.566406 L 495.1875 561.886719 L 493.382812 560.542969 "/>
<path fill="none" stroke-width="0.2" stroke-linecap="butt" stroke-linejoin="miter" stroke="rgb(26.666667%, 26.666667%, 26.666667%)" stroke-opacity="1" stroke-miterlimit="10" d="M 103.933594 318.960938 L 82.292969 309.210938 "/>
<path fill-rule="nonzero" fill="rgb(26.666667%, 26.666667%, 26.666667%)" fill-opacity="1" d="M 80.34375 308.332031 L 82.578125 308.578125 L 82.007812 309.84375 L 80.34375 308.332031 "/>
<path fill="none" stroke-width="0.2" stroke-linecap="butt" stroke-linejoin="miter" stroke="rgb(26.666667%, 26.666667%, 26.666667%)" stroke-opacity="1" stroke-miterlimit="10" d="M 229.257812 206.484375 L 253.292969 203.890625 "/>
<path fill-rule="nonzero" fill="rgb(26.666667%, 26.666667%, 26.666667%)" fill-opacity="1" d="M 255.421875 203.660156 L 253.367188 204.582031 L 253.21875 203.199219 L 255.421875 203.660156 "/>
<path fill="none" stroke-width="0.2" stroke-linecap="butt" stroke-linejoin="miter" stroke="rgb(26.666667%, 26.666667%, 26.666667%)" stroke-opacity="1" stroke-miterlimit="10" d="M 207.015625 186.523438 L 253.449219 202.53125 "/>
<path fill-rule="nonzero" fill="rgb(26.666667%, 26.666667%, 26.666667%)" fill-opacity="1" d="M 255.46875 203.230469 L 253.222656 203.1875 L 253.675781 201.875 L 255.46875 203.230469 "/>
<path fill="none" stroke-width="0.2" stroke-linecap="butt" stroke-linejoin="miter" stroke="rgb(26.666667%, 26.666667%, 26.666667%)" stroke-opacity="1" stroke-miterlimit="10" d="M 331.519531 20 L 353.867188 28.71875 "/>
<path fill-rule="nonzero" fill="rgb(26.666667%, 26.666667%, 26.666667%)" fill-opacity="1" d="M 355.859375 29.5 L 353.613281 29.367188 L 354.121094 28.074219 L 355.859375 29.5 "/>
<path fill="none" stroke-width="0.2" stroke-linecap="butt" stroke-linejoin="miter" stroke="rgb(26.666667%, 26.666667%, 26.666667%)" stroke-opacity="1" stroke-miterlimit="10" d="M 459.492188 324.695312 L 469.503906 345.269531 "/>
<path fill-rule="nonzero" fill="rgb(26.666667%, 26.666667%, 26.666667%)" fill-opacity="1" d="M 470.441406 347.195312 L 468.878906 345.574219 L 470.128906 344.964844 L 470.441406 347.195312 "/>
<path fill="none" stroke-width="0.2" stroke-linecap="butt" stroke-linejoin="miter" stroke="rgb(26.666667%, 26.666667%, 26.666667%)" stroke-opacity="1" stroke-miterlimit="10" d="M 471.398438 580 L 490.144531 562.375 "/>
<path fill-rule="nonzero" fill="rgb(26.666667%, 26.666667%, 26.666667%)" fill-opacity="1" d="M 491.703125 560.910156 L 490.621094 562.882812 L 489.667969 561.871094 L 491.703125 560.910156 "/>
<path fill="none" stroke-width="0.2" stroke-linecap="butt" stroke-linejoin="miter" stroke="rgb(26.666667%, 26.666667%, 26.666667%)" stroke-opacity="1" stroke-miterlimit="10" d="M 47.417969 438.820312 L 73.542969 435.617188 "/>
<path fill-rule="nonzero" fill="rgb(26.666667%, 26.666667%, 26.666667%)" fill-opacity="1" d="M 75.667969 435.355469 L 73.625 436.308594 L 73.457031 434.925781 L 75.667969 435.355469 "/>
<path fill="none" stroke-width="0.2" stroke-linecap="butt" stroke-linejoin="miter" stroke="rgb(26.666667%, 26.666667%, 26.666667%)" stroke-opacity="1" stroke-miterlimit="10" d="M 47.417969 438.820312 L 23.132812 440.394531 "/>
<path fill-rule="nonzero" fill="rgb(26.666667%, 26.666667%, 26.666667%)" fill-opacity="1" d="M 20.996094 440.53125 L 23.089844 439.699219 L 23.179688 441.085938 L 20.996094 440.53125 "/>
<path fill="none" stroke-width="0.2" stroke-linecap="butt" stroke-linejoin="miter" stroke="rgb(26.666667%, 26.666667%, 26.666667%)" stroke-opacity="1" stroke-miterlimit="10" d="M 580 267.828125 L 569.667969 247.1875 "/>
<path fill-rule="nonzero" fill="rgb(26.666667%, 26.666667%, 26.666667%)" fill-opacity="1" d="M 568.707031 245.273438 L 570.289062 246.875 L 569.042969 247.5 L 568.707031 245.273438 "/>
<path fill="none" stroke-width="0.2" stroke-linecap="butt" stroke-linejoin="miter" stroke="rgb(26.666667%, 26.666667%, 26.666667%)" stroke-opacity="1" stroke-miterlimit="10" d="M 232.855469 245.003906 L 254.863281 206.285156 "/>
<path fill-rule="nonzero" fill="rgb(26.666667%, 26.666667%, 26.666667%)" fill-opacity="1" d="M 255.921875 204.425781 L 255.46875 206.628906 L 254.261719 205.941406 L 255.921875 204.425781 "/>
<path fill="none" stroke-width="0.2" stroke-linecap="butt" stroke-linejoin="miter" stroke="rgb(26.666667%, 26.666667%, 26.666667%)" stroke-opacity="1" stroke-miterlimit="10" d="M 282.949219 198.984375 L 259.511719 203.023438 "/>
<path fill-rule="nonzero" fill="rgb(26.666667%, 26.666667%, 26.666667%)" fill-opacity="1" d="M 257.402344 203.386719 L 259.390625 202.335938 L 259.628906 203.707031 L 257.402344 203.386719 "/>
<path fill="none" stroke-width="0.2" stroke-linecap="butt" stroke-linejoin="miter" stroke="rgb(26.666667%, 26.666667%, 26.666667%)" stroke-opacity="1" stroke-miterlimit="10" d="M 383.980469 513.839844 L 380.164062 536.769531 "/>
<path fill-rule="nonzero" fill="rgb(26.666667%, 26.666667%, 26.666667%)" fill-opacity="1" d="M 379.8125 538.882812 L 379.480469 536.65625 L 380.851562 536.886719 L 379.8125 538.882812 "/>
<path fill="none" stroke-width="0.2" stroke-linecap="butt" stroke-linejoin="miter" stroke="rgb(26.666667%, 26.666667%, 26.666667%)" stroke-opacity="1" stroke-miterlimit="10" d="M 383.980469 513.839844 L 387.757812 491.039062 "/>
<path fill-rule="nonzero" fill="rgb(26.666667%, 26.666667%, 26.666667%)" fill-opacity="1" d="M 388.109375 488.925781 L 388.445312 491.152344 L 387.070312 490.925781 L 388.109375 488.925781 "/>
<path fill="none" stroke-width="0.2" stroke-linecap="butt" stroke-linejoin="miter" stroke="rgb(26.666667%, 26.666667%, 26.666667%)" stroke-opacity="1" stroke-miterlimit="10" d="M 206.9375 224.128906 L 253.515625 204.761719 "/>
<path fill-rule="nonzero" fill="rgb(26.666667%, 26.666667%, 26.666667%)" fill-opacity="1" d="M 255.492188 203.9375 L 253.785156 205.402344 L 253.25 204.117188 L 255.492188 203.9375 "/>
<path fill="none" stroke-width="0.2" stroke-linecap="butt" stroke-linejoin="miter" stroke="rgb(26.666667%, 26.666667%, 26.666667%)" stroke-opacity="1" stroke-miterlimit="10" d="M 54.824219 297.152344 L 76.554688 306.660156 "/>
<path fill-rule="nonzero" fill="rgb(26.666667%, 26.666667%, 26.666667%)" fill-opacity="1" d="M 78.515625 307.519531 L 76.273438 307.296875 L 76.832031 306.023438 L 78.515625 307.519531 "/>
<path fill="none" stroke-width="0.2" stroke-linecap="butt" stroke-linejoin="miter" stroke="rgb(26.666667%, 26.666667%, 26.666667%)" stroke-opacity="1" stroke-miterlimit="10" d="M 231.441406 531.191406 L 199.597656 519.234375 "/>
<path fill-rule="nonzero" fill="rgb(26.666667%, 26.666667%, 26.666667%)" fill-opacity="1" d="M 197.59375 518.480469 L 199.839844 518.582031 L 199.351562 519.882812 L 197.59375 518.480469 "/>
<path fill="none" stroke-width="0.2" stroke-linecap="butt" stroke-linejoin="miter" stroke="rgb(26.666667%, 26.666667%, 26.666667%)" stroke-opacity="1" stroke-miterlimit="10" d="M 231.441406 531.191406 L 262.796875 543.699219 "/>
<path fill-rule="nonzero" fill="rgb(26.666667%, 26.666667%, 26.666667%)" fill-opacity="1" d="M 264.785156 544.492188 L 262.539062 544.347656 L 263.054688 543.054688 L 264.785156 544.492188 "/>
<path fill="none" stroke-width="0.2" stroke-linecap="butt" stroke-linejoin="miter" stroke="rgb(26.666667%, 26.666667%, 26.666667%)" stroke-opacity="1" stroke-miterlimit="10" d="M 231.441406 531.191406 L 218.046875 500.0625 "/>
<path fill-rule="nonzero" fill="rgb(26.666667%, 26.666667%, 26.666667%)" fill-opacity="1" d="M 217.203125 498.097656 L 218.6875 499.789062 L 217.410156 500.339844 L 217.203125 498.097656 "/>
<path fill="none" stroke-width="0.2" stroke-linecap="butt" stroke-linejoin="miter" stroke="rgb(26.666667%, 26.666667%, 26.666667%)" stroke-opacity="1" stroke-miterlimit="10" d="M 231.441406 531.191406 L 246.363281 565.3125 "/>
<path fill-rule="nonzero" fill="rgb(26.666667%, 26.666667%, 26.666667%)" fill-opacity="1" d="M 247.222656 567.273438 L 245.726562 565.589844 L 247 565.035156 L 247.222656 567.273438 "/>
<path fill="none" stroke-width="0.2" stroke-linecap="butt" stroke-linejoin="miter" stroke="rgb(26.666667%, 26.666667%, 26.666667%)" stroke-opacity="1" stroke-miterlimit="10" d="M 231.441406 531.191406 L 262.992188 517.613281 "/>
<path fill-rule="nonzero" fill="rgb(26.666667%, 26.666667%, 26.666667%)" fill-opacity="1" d="M 264.960938 516.765625 L 263.269531 518.25 L 262.71875 516.972656 L 264.960938 516.765625 "/>
<path fill="none" stroke-width="0.2" stroke-linecap="butt" stroke-linejoin="miter" stroke="rgb(26.666667%, 26.666667%, 26.666667%)" stroke-opacity="1" stroke-miterlimit="10" d="M 231.441406 531.191406 L 245.539062 497.039062 "/>
<path fill-rule="nonzero" fill="rgb(26.666667%, 26.666667%, 26.666667%)" fill-opacity="1" d="M 246.355469 495.0625 L 246.179688 497.304688 L 244.894531 496.773438 L 246.355469 495.0625 "/>
<path fill="none" stroke-width="0.2" stroke-linecap="butt" stroke-linejoin="miter" stroke="rgb(26.666667%, 26.666667%, 26.666667%)" stroke-opacity="1" stroke-miterlimit="10" d="M 231.441406 531.191406 L 196.945312 545.859375 "/>
<path fill-rule="nonzero" fill="rgb(26.666667%, 26.666667%, 26.666667%)" fill-opacity="1" d="M 194.976562 546.699219 L 196.675781 545.222656 L 197.21875 546.5 L 194.976562 546.699219 "/>
<path fill="none" stroke-width="0.2" stroke-linecap="butt" stroke-linejoin="miter" stroke="rgb(26.666667%, 26.666667%, 26.666667%)" stroke-opacity="1" stroke-miterlimit="10" d="M 231.441406 531.191406 L 219.265625 561.074219 "/>
<path fill-rule="nonzero" fill="rgb(26.666667%, 26.666667%, 26.666667%)" fill-opacity="1" d="M 218.457031 563.054688 L 218.621094 560.8125 L 219.910156 561.335938 L 218.457031 563.054688 "/>
<path fill="none" stroke-width="0.2" stroke-linecap="butt" stroke-linejoin="miter" stroke="rgb(26.666667%, 26.666667%, 26.666667%)" stroke-opacity="1" stroke-miterlimit="10" d="M 482.816406 371.230469 L 472.320312 350.882812 "/>
<path fill-rule="nonzero" fill="rgb(26.666667%, 26.666667%, 26.666667%)" fill-opacity="1" d="M 471.335938 348.980469 L 472.9375 350.566406 L 471.699219 351.203125 L 471.335938 348.980469 "/>
<path fill="none" stroke-width="0.2" stroke-linecap="butt" stroke-linejoin="miter" stroke="rgb(26.666667%, 26.666667%, 26.666667%)" stroke-opacity="1" stroke-miterlimit="10" d="M 294.296875 171.476562 L 258.8125 201.527344 "/>
<path fill-rule="nonzero" fill="rgb(26.666667%, 26.666667%, 26.666667%)" fill-opacity="1" d="M 257.179688 202.910156 L 258.363281 200.996094 L 259.261719 202.054688 L 257.179688 202.910156 "/>
<path fill="none" stroke-width="0.2" stroke-linecap="butt" stroke-linejoin="miter" stroke="rgb(26.666667%, 26.666667%, 26.666667%)" stroke-opacity="1" stroke-miterlimit="10" d="M 268.757812 255.332031 L 257.144531 206.609375 "/>
<path fill-rule="nonzero" fill="rgb(26.666667%, 26.666667%, 26.666667%)" fill-opacity="1" d="M 256.648438 204.527344 L 257.820312 206.449219 L 256.46875 206.769531 L 256.648438 204.527344 "/>
<path fill="none" stroke-width="0.2" stroke-linecap="butt" stroke-linejoin="miter" stroke="rgb(26.666667%, 26.666667%, 26.666667%)" stroke-opacity="1" stroke-miterlimit="10" d="M 490.375 532.1875 L 492.203125 557.09375 "/>
<path fill-rule="nonzero" fill="rgb(26.666667%, 26.666667%, 26.666667%)" fill-opacity="1" d="M 492.359375 559.226562 L 491.511719 557.144531 L 492.898438 557.042969 L 492.359375 559.226562 "/>
<path fill="none" stroke-width="0.2" stroke-linecap="butt" stroke-linejoin="miter" stroke="rgb(26.666667%, 26.666667%, 26.666667%)" stroke-opacity="1" stroke-miterlimit="10" d="M 266.410156 154.203125 L 257.039062 200.476562 "/>
<path fill-rule="nonzero" fill="rgb(26.666667%, 26.666667%, 26.666667%)" fill-opacity="1" d="M 256.613281 202.574219 L 256.359375 200.339844 L 257.71875 200.613281 L 256.613281 202.574219 "/>
<path fill-rule="nonzero" fill="rgb(100%, 0%, 0%)" fill-opacity="1" stroke-width="0.01" stroke-linecap="butt" stroke-linejoin="miter" stroke="rgb(0%, 0%, 0%)" stroke-opacity="1" stroke-miterlimit="10" d="M 312.578125 204.183594 C 312.578125 205.515625 310.578125 205.515625 310.578125 204.183594 C 310.578125 202.847656 312.578125 202.847656 312.578125 204.183594 "/>
<path fill-rule="nonzero" fill="rgb(100%, 0%, 0%)" fill-opacity="1" stroke-width="0.01" stroke-linecap="butt" stroke-linejoin="miter" stroke="rgb(0%, 0%, 0%)" stroke-opacity="1" stroke-miterlimit="10" d="M 257.414062 203.554688 C 257.414062 204.886719 255.414062 204.886719 255.414062 203.554688 C 255.414062 202.222656 257.414062 202.222656 257.414062 203.554688 "/>
<path fill-rule="nonzero" fill="rgb(100%, 0%, 0%)" fill-opacity="1" stroke-width="0.01" stroke-linecap="butt" stroke-linejoin="miter" stroke="rgb(0%, 0%, 0%)" stroke-opacity="1" stroke-miterlimit="10" d="M 228.308594 160.5 C 228.308594 161.832031 226.308594 161.832031 226.308594 160.5 C 226.308594 159.164062 228.308594 159.164062 228.308594 160.5 "/>
<path fill-rule="nonzero" fill="rgb(100%, 0%, 0%)" fill-opacity="1" stroke-width="0.01" stroke-linecap="butt" stroke-linejoin="miter" stroke="rgb(0%, 0%, 0%)" stroke-opacity="1" stroke-miterlimit="10" d="M 382.894531 40.09375 C 382.894531 41.425781 380.894531 41.425781 380.894531 40.09375 C 380.894531 38.761719 382.894531 38.761719 382.894531 40.09375 "/>
<path fill-rule="nonzero" fill="rgb(100%, 0%, 0%)" fill-opacity="1" stroke-width="0.01" stroke-linecap="butt" stroke-linejoin="miter" stroke="rgb(0%, 0%, 0%)" stroke-opacity="1" stroke-miterlimit="10" d="M 357.792969 29.863281 C 357.792969 31.195312 355.792969 31.195312 355.792969 29.863281 C 355.792969 28.527344 357.792969 28.527344 357.792969 29.863281 "/>
<path fill-rule="nonzero" fill="rgb(100%, 0%, 0%)" fill-opacity="1" stroke-width="0.01" stroke-linecap="butt" stroke-linejoin="miter" stroke="rgb(0%, 0%, 0%)" stroke-opacity="1" stroke-miterlimit="10" d="M 261.34375 228.988281 C 261.34375 230.320312 259.34375 230.320312 259.34375 228.988281 C 259.34375 227.652344 261.34375 227.652344 261.34375 228.988281 "/>
<path fill-rule="nonzero" fill="rgb(100%, 0%, 0%)" fill-opacity="1" stroke-width="0.01" stroke-linecap="butt" stroke-linejoin="miter" stroke="rgb(0%, 0%, 0%)" stroke-opacity="1" stroke-miterlimit="10" d="M 104.726562 430.242188 C 104.726562 431.574219 102.726562 431.574219 102.726562 430.242188 C 102.726562 428.910156 104.726562 428.910156 104.726562 430.242188 "/>
<path fill-rule="nonzero" fill="rgb(100%, 0%, 0%)" fill-opacity="1" stroke-width="0.01" stroke-linecap="butt" stroke-linejoin="miter" stroke="rgb(0%, 0%, 0%)" stroke-opacity="1" stroke-miterlimit="10" d="M 77.660156 435.234375 C 77.660156 436.570312 75.660156 436.570312 75.660156 435.234375 C 75.660156 433.902344 77.660156 433.902344 77.660156 435.234375 "/>
<path fill-rule="nonzero" fill="rgb(100%, 0%, 0%)" fill-opacity="1" stroke-width="0.01" stroke-linecap="butt" stroke-linejoin="miter" stroke="rgb(0%, 0%, 0%)" stroke-opacity="1" stroke-miterlimit="10" d="M 295.910156 232.664062 C 295.910156 233.996094 293.910156 233.996094 293.910156 232.664062 C 293.910156 231.328125 295.910156 231.328125 295.910156 232.664062 "/>
<path fill-rule="nonzero" fill="rgb(100%, 0%, 0%)" fill-opacity="1" stroke-width="0.01" stroke-linecap="butt" stroke-linejoin="miter" stroke="rgb(0%, 0%, 0%)" stroke-opacity="1" stroke-miterlimit="10" d="M 251.65625 177.980469 C 251.65625 179.3125 249.65625 179.3125 249.65625 177.980469 C 249.65625 176.644531 251.65625 176.644531 251.65625 177.980469 "/>
<path fill-rule="nonzero" fill="rgb(100%, 0%, 0%)" fill-opacity="1" stroke-width="0.01" stroke-linecap="butt" stroke-linejoin="miter" stroke="rgb(0%, 0%, 0%)" stroke-opacity="1" stroke-miterlimit="10" d="M 557.476562 220.96875 C 557.476562 222.300781 555.476562 222.300781 555.476562 220.96875 C 555.476562 219.636719 557.476562 219.636719 557.476562 220.96875 "/>
<path fill-rule="nonzero" fill="rgb(100%, 0%, 0%)" fill-opacity="1" stroke-width="0.01" stroke-linecap="butt" stroke-linejoin="miter" stroke="rgb(0%, 0%, 0%)" stroke-opacity="1" stroke-miterlimit="10" d="M 569.261719 244.378906 C 569.261719 245.710938 567.261719 245.710938 567.261719 244.378906 C 567.261719 243.046875 569.261719 243.046875 569.261719 244.378906 "/>
<path fill-rule="nonzero" fill="rgb(100%, 0%, 0%)" fill-opacity="1" stroke-width="0.01" stroke-linecap="butt" stroke-linejoin="miter" stroke="rgb(0%, 0%, 0%)" stroke-opacity="1" stroke-miterlimit="10" d="M 520.472656 569.328125 C 520.472656 570.660156 518.472656 570.660156 518.472656 569.328125 C 518.472656 567.992188 520.472656 567.992188 520.472656 569.328125 "/>
<path fill-rule="nonzero" fill="rgb(100%, 0%, 0%)" fill-opacity="1" stroke-width="0.01" stroke-linecap="butt" stroke-linejoin="miter" stroke="rgb(0%, 0%, 0%)" stroke-opacity="1" stroke-miterlimit="10" d="M 493.433594 560.226562 C 493.433594 561.558594 491.433594 561.558594 491.433594 560.226562 C 491.433594 558.890625 493.433594 558.890625 493.433594 560.226562 "/>
<path fill-rule="nonzero" fill="rgb(100%, 0%, 0%)" fill-opacity="1" stroke-width="0.01" stroke-linecap="butt" stroke-linejoin="miter" stroke="rgb(0%, 0%, 0%)" stroke-opacity="1" stroke-miterlimit="10" d="M 104.933594 318.960938 C 104.933594 320.292969 102.933594 320.292969 102.933594 318.960938 C 102.933594 317.628906 104.933594 317.628906 104.933594 318.960938 "/>
<path fill-rule="nonzero" fill="rgb(100%, 0%, 0%)" fill-opacity="1" stroke-width="0.01" stroke-linecap="butt" stroke-linejoin="miter" stroke="rgb(0%, 0%, 0%)" stroke-opacity="1" stroke-miterlimit="10" d="M 80.429688 307.921875 C 80.429688 309.253906 78.429688 309.253906 78.429688 307.921875 C 78.429688 306.585938 80.429688 306.585938 80.429688 307.921875 "/>
<path fill-rule="nonzero" fill="rgb(100%, 0%, 0%)" fill-opacity="1" stroke-width="0.01" stroke-linecap="butt" stroke-linejoin="miter" stroke="rgb(0%, 0%, 0%)" stroke-opacity="1" stroke-miterlimit="10" d="M 230.257812 206.484375 C 230.257812 207.816406 228.257812 207.816406 228.257812 206.484375 C 228.257812 205.152344 230.257812 205.152344 230.257812 206.484375 "/>
<path fill-rule="nonzero" fill="rgb(100%, 0%, 0%)" fill-opacity="1" stroke-width="0.01" stroke-linecap="butt" stroke-linejoin="miter" stroke="rgb(0%, 0%, 0%)" stroke-opacity="1" stroke-miterlimit="10" d="M 208.015625 186.523438 C 208.015625 187.859375 206.015625 187.859375 206.015625 186.523438 C 206.015625 185.191406 208.015625 185.191406 208.015625 186.523438 "/>
<path fill-rule="nonzero" fill="rgb(100%, 0%, 0%)" fill-opacity="1" stroke-width="0.01" stroke-linecap="butt" stroke-linejoin="miter" stroke="rgb(0%, 0%, 0%)" stroke-opacity="1" stroke-miterlimit="10" d="M 332.519531 20 C 332.519531 21.332031 330.519531 21.332031 330.519531 20 C 330.519531 18.667969 332.519531 18.667969 332.519531 20 "/>
<path fill-rule="nonzero" fill="rgb(100%, 0%, 0%)" fill-opacity="1" stroke-width="0.01" stroke-linecap="butt" stroke-linejoin="miter" stroke="rgb(0%, 0%, 0%)" stroke-opacity="1" stroke-miterlimit="10" d="M 460.492188 324.695312 C 460.492188 326.027344 458.492188 326.027344 458.492188 324.695312 C 458.492188 323.363281 460.492188 323.363281 460.492188 324.695312 "/>
<path fill-rule="nonzero" fill="rgb(100%, 0%, 0%)" fill-opacity="1" stroke-width="0.01" stroke-linecap="butt" stroke-linejoin="miter" stroke="rgb(0%, 0%, 0%)" stroke-opacity="1" stroke-miterlimit="10" d="M 471.878906 348.09375 C 471.878906 349.425781 469.878906 349.425781 469.878906 348.09375 C 469.878906 346.757812 471.878906 346.757812 471.878906 348.09375 "/>
<path fill-rule="nonzero" fill="rgb(100%, 0%, 0%)" fill-opacity="1" stroke-width="0.01" stroke-linecap="butt" stroke-linejoin="miter" stroke="rgb(0%, 0%, 0%)" stroke-opacity="1" stroke-miterlimit="10" d="M 472.398438 580 C 472.398438 581.332031 470.398438 581.332031 470.398438 580 C 470.398438 578.667969 472.398438 578.667969 472.398438 580 "/>
<path fill-rule="nonzero" fill="rgb(100%, 0%, 0%)" fill-opacity="1" stroke-width="0.01" stroke-linecap="butt" stroke-linejoin="miter" stroke="rgb(0%, 0%, 0%)" stroke-opacity="1" stroke-miterlimit="10" d="M 48.417969 438.820312 C 48.417969 440.152344 46.417969 440.152344 46.417969 438.820312 C 46.417969 437.484375 48.417969 437.484375 48.417969 438.820312 "/>
<path fill-rule="nonzero" fill="rgb(100%, 0%, 0%)" fill-opacity="1" stroke-width="0.01" stroke-linecap="butt" stroke-linejoin="miter" stroke="rgb(0%, 0%, 0%)" stroke-opacity="1" stroke-miterlimit="10" d="M 21 440.597656 C 21 441.929688 19 441.929688 19 440.597656 C 19 439.261719 21 439.261719 21 440.597656 "/>
<path fill-rule="nonzero" fill="rgb(100%, 0%, 0%)" fill-opacity="1" stroke-width="0.01" stroke-linecap="butt" stroke-linejoin="miter" stroke="rgb(0%, 0%, 0%)" stroke-opacity="1" stroke-miterlimit="10" d="M 581 267.828125 C 581 269.164062 579 269.164062 579 267.828125 C 579 266.496094 581 266.496094 581 267.828125 "/>
<path fill-rule="nonzero" fill="rgb(100%, 0%, 0%)" fill-opacity="1" stroke-width="0.01" stroke-linecap="butt" stroke-linejoin="miter" stroke="rgb(0%, 0%, 0%)" stroke-opacity="1" stroke-miterlimit="10" d="M 233.855469 245.003906 C 233.855469 246.339844 231.855469 246.339844 231.855469 245.003906 C 231.855469 243.671875 233.855469 243.671875 233.855469 245.003906 "/>
<path fill-rule="nonzero" fill="rgb(100%, 0%, 0%)" fill-opacity="1" stroke-width="0.01" stroke-linecap="butt" stroke-linejoin="miter" stroke="rgb(0%, 0%, 0%)" stroke-opacity="1" stroke-miterlimit="10" d="M 283.949219 198.984375 C 283.949219 200.316406 281.949219 200.316406 281.949219 198.984375 C 281.949219 197.652344 283.949219 197.652344 283.949219 198.984375 "/>
<path fill-rule="nonzero" fill="rgb(100%, 0%, 0%)" fill-opacity="1" stroke-width="0.01" stroke-linecap="butt" stroke-linejoin="miter" stroke="rgb(0%, 0%, 0%)" stroke-opacity="1" stroke-miterlimit="10" d="M 384.980469 513.839844 C 384.980469 515.171875 382.980469 515.171875 382.980469 513.839844 C 382.980469 512.507812 384.980469 512.507812 384.980469 513.839844 "/>
<path fill-rule="nonzero" fill="rgb(100%, 0%, 0%)" fill-opacity="1" stroke-width="0.01" stroke-linecap="butt" stroke-linejoin="miter" stroke="rgb(0%, 0%, 0%)" stroke-opacity="1" stroke-miterlimit="10" d="M 380.648438 539.867188 C 380.648438 541.203125 378.648438 541.203125 378.648438 539.867188 C 378.648438 538.535156 380.648438 538.535156 380.648438 539.867188 "/>
<path fill-rule="nonzero" fill="rgb(100%, 0%, 0%)" fill-opacity="1" stroke-width="0.01" stroke-linecap="butt" stroke-linejoin="miter" stroke="rgb(0%, 0%, 0%)" stroke-opacity="1" stroke-miterlimit="10" d="M 389.269531 487.941406 C 389.269531 489.273438 387.269531 489.273438 387.269531 487.941406 C 387.269531 486.605469 389.269531 486.605469 389.269531 487.941406 "/>
<path fill-rule="nonzero" fill="rgb(100%, 0%, 0%)" fill-opacity="1" stroke-width="0.01" stroke-linecap="butt" stroke-linejoin="miter" stroke="rgb(0%, 0%, 0%)" stroke-opacity="1" stroke-miterlimit="10" d="M 207.9375 224.128906 C 207.9375 225.464844 205.9375 225.464844 205.9375 224.128906 C 205.9375 222.796875 207.9375 222.796875 207.9375 224.128906 "/>
<path fill-rule="nonzero" fill="rgb(100%, 0%, 0%)" fill-opacity="1" stroke-width="0.01" stroke-linecap="butt" stroke-linejoin="miter" stroke="rgb(0%, 0%, 0%)" stroke-opacity="1" stroke-miterlimit="10" d="M 55.824219 297.152344 C 55.824219 298.484375 53.824219 298.484375 53.824219 297.152344 C 53.824219 295.816406 55.824219 295.816406 55.824219 297.152344 "/>
<path fill-rule="nonzero" fill="rgb(100%, 0%, 0%)" fill-opacity="1" stroke-width="0.01" stroke-linecap="butt" stroke-linejoin="miter" stroke="rgb(0%, 0%, 0%)" stroke-opacity="1" stroke-miterlimit="10" d="M 232.441406 531.191406 C 232.441406 532.527344 230.441406 532.527344 230.441406 531.191406 C 230.441406 529.859375 232.441406 529.859375 232.441406 531.191406 "/>
<path fill-rule="nonzero" fill="rgb(100%, 0%, 0%)" fill-opacity="1" stroke-width="0.01" stroke-linecap="butt" stroke-linejoin="miter" stroke="rgb(0%, 0%, 0%)" stroke-opacity="1" stroke-miterlimit="10" d="M 197.65625 518.128906 C 197.65625 519.460938 195.65625 519.460938 195.65625 518.128906 C 195.65625 516.796875 197.65625 516.796875 197.65625 518.128906 "/>
<path fill-rule="nonzero" fill="rgb(100%, 0%, 0%)" fill-opacity="1" stroke-width="0.01" stroke-linecap="butt" stroke-linejoin="miter" stroke="rgb(0%, 0%, 0%)" stroke-opacity="1" stroke-miterlimit="10" d="M 266.714844 544.863281 C 266.714844 546.195312 264.714844 546.195312 264.714844 544.863281 C 264.714844 543.53125 266.714844 543.53125 266.714844 544.863281 "/>
<path fill-rule="nonzero" fill="rgb(100%, 0%, 0%)" fill-opacity="1" stroke-width="0.01" stroke-linecap="butt" stroke-linejoin="miter" stroke="rgb(0%, 0%, 0%)" stroke-opacity="1" stroke-miterlimit="10" d="M 217.804688 497.179688 C 217.804688 498.511719 215.804688 498.511719 215.804688 497.179688 C 215.804688 495.847656 217.804688 495.847656 217.804688 497.179688 "/>
<path fill-rule="nonzero" fill="rgb(100%, 0%, 0%)" fill-opacity="1" stroke-width="0.01" stroke-linecap="butt" stroke-linejoin="miter" stroke="rgb(0%, 0%, 0%)" stroke-opacity="1" stroke-miterlimit="10" d="M 248.621094 568.1875 C 248.621094 569.523438 246.621094 569.523438 246.621094 568.1875 C 246.621094 566.855469 248.621094 566.855469 248.621094 568.1875 "/>
<path fill-rule="nonzero" fill="rgb(100%, 0%, 0%)" fill-opacity="1" stroke-width="0.01" stroke-linecap="butt" stroke-linejoin="miter" stroke="rgb(0%, 0%, 0%)" stroke-opacity="1" stroke-miterlimit="10" d="M 266.878906 516.371094 C 266.878906 517.703125 264.878906 517.703125 264.878906 516.371094 C 264.878906 515.039062 266.878906 515.039062 266.878906 516.371094 "/>
<path fill-rule="nonzero" fill="rgb(100%, 0%, 0%)" fill-opacity="1" stroke-width="0.01" stroke-linecap="butt" stroke-linejoin="miter" stroke="rgb(0%, 0%, 0%)" stroke-opacity="1" stroke-miterlimit="10" d="M 247.734375 494.136719 C 247.734375 495.46875 245.734375 495.46875 245.734375 494.136719 C 245.734375 492.804688 247.734375 492.804688 247.734375 494.136719 "/>
<path fill-rule="nonzero" fill="rgb(100%, 0%, 0%)" fill-opacity="1" stroke-width="0.01" stroke-linecap="butt" stroke-linejoin="miter" stroke="rgb(0%, 0%, 0%)" stroke-opacity="1" stroke-miterlimit="10" d="M 195.058594 547.089844 C 195.058594 548.421875 193.058594 548.421875 193.058594 547.089844 C 193.058594 545.757812 195.058594 545.757812 195.058594 547.089844 "/>
<path fill-rule="nonzero" fill="rgb(100%, 0%, 0%)" fill-opacity="1" stroke-width="0.01" stroke-linecap="butt" stroke-linejoin="miter" stroke="rgb(0%, 0%, 0%)" stroke-opacity="1" stroke-miterlimit="10" d="M 219.078125 563.980469 C 219.078125 565.316406 217.078125 565.316406 217.078125 563.980469 C 217.078125 562.648438 219.078125 562.648438 219.078125 563.980469 "/>
<path fill-rule="nonzero" fill="rgb(100%, 0%, 0%)" fill-opacity="1" stroke-width="0.01" stroke-linecap="butt" stroke-linejoin="miter" stroke="rgb(0%, 0%, 0%)" stroke-opacity="1" stroke-miterlimit="10" d="M 483.816406 371.230469 C 483.816406 372.5625 481.816406 372.5625 481.816406 371.230469 C 481.816406 369.894531 483.816406 369.894531 483.816406 371.230469 "/>
<path fill-rule="nonzero" fill="rgb(100%, 0%, 0%)" fill-opacity="1" stroke-width="0.01" stroke-linecap="butt" stroke-linejoin="miter" stroke="rgb(0%, 0%, 0%)" stroke-opacity="1" stroke-miterlimit="10" d="M 295.296875 171.476562 C 295.296875 172.808594 293.296875 172.808594 293.296875 171.476562 C 293.296875 170.144531 295.296875 170.144531 295.296875 171.476562 "/>
<path fill-rule="nonzero" fill="rgb(100%, 0%, 0%)" fill-opacity="1" stroke-width="0.01" stroke-linecap="butt" stroke-linejoin="miter" stroke="rgb(0%, 0%, 0%)" stroke-opacity="1" stroke-miterlimit="10" d="M 269.757812 255.332031 C 269.757812 256.664062 267.757812 256.664062 267.757812 255.332031 C 267.757812 253.996094 269.757812 253.996094 269.757812 255.332031 "/>
<path fill-rule="nonzero" fill="rgb(100%, 0%, 0%)" fill-opacity="1" stroke-width="0.01" stroke-linecap="butt" stroke-linejoin="miter" stroke="rgb(0%, 0%, 0%)" stroke-opacity="1" stroke-miterlimit="10" d="M 491.375 532.1875 C 491.375 533.519531 489.375 533.519531 489.375 532.1875 C 489.375 530.855469 491.375 530.855469 491.375 532.1875 "/>
<path fill-rule="nonzero" fill="rgb(100%, 0%, 0%)" fill-opacity="1" stroke-width="0.01" stroke-linecap="butt" stroke-linejoin="miter" stroke="rgb(0%, 0%, 0%)" stroke-opacity="1" stroke-miterlimit="10" d="M 267.410156 154.203125 C 267.410156 155.535156 265.410156 155.535156 265.410156 154.203125 C 265.410156 152.871094 267.410156 152.871094 267.410156 154.203125 "/>
</svg>
