<?xml version="1.0" encoding="UTF-8"?>
<svg xmlns="http://www.w3.org/2000/svg" xmlns:xlink="http://www.w3.org/1999/xlink" width="600pt" height="600pt" viewBox="0 0 600 600" version="1.1">
<g id="surface11">
<rect x="0" y="0" width="600" height="600" style="fill:rgb(100%,100%,100%);fill-opacity:1;stroke:none;"/>
<path style="fill:none;stroke-width:0.2;stroke-linecap:butt;stroke-linejoin:miter;stroke:rgb(26.666667%,26.666667%,26.666667%);stroke-opacity:1;stroke-miterlimit:10;" d="M 377.640625 188.355469 L 400.519531 138.5 "/>
<path style="fill:none;stroke-width:0.2;stroke-linecap:butt;stroke-linejoin:miter;stroke:rgb(26.666667%,26.666667%,26.666667%);stroke-opacity:1;stroke-miterlimit:10;" d="M 442.273438 102.890625 L 401.703125 136.949219 "/>
<path style="fill:none;stroke-width:0.2;stroke-linecap:butt;stroke-linejoin:miter;stroke:rgb(26.666667%,26.666667%,26.666667%);stroke-opacity:1;stroke-miterlimit:10;" d="M 59.6875 56.242188 L 40.789062 74.976562 "/>
<path style="fill:none;stroke-width:0.2;stroke-linecap:butt;stroke-linejoin:miter;stroke:rgb(26.666667%,26.666667%,26.666667%);stroke-opacity:1;stroke-miterlimit:10;" d="M 375.625 124.378906 L 400.050781 137.128906 "/>
<path style="fill:none;stroke-width:0.2;stroke-linecap:butt;stroke-linejoin:miter;stroke:rgb(26.666667%,26.666667%,26.666667%);stroke-opacity:1;stroke-miterlimit:10;" d="M 70.871094 208.355469 L 54.925781 230.28125 "/>
<path style="fill:none;stroke-width:0.2;stroke-linecap:butt;stroke-linejoin:miter;stroke:rgb(26.666667%,26.666667%,26.666667%);stroke-opacity:1;stroke-miterlimit:10;" d="M 386.890625 160.632812 L 400.414062 138.445312 "/>
<path style="fill:none;stroke-width:0.2;stroke-linecap:butt;stroke-linejoin:miter;stroke:rgb(26.666667%,26.666667%,26.666667%);stroke-opacity:1;stroke-miterlimit:10;" d="M 413.421875 183.296875 L 401.199219 138.554688 "/>
<path style="fill:none;stroke-width:0.2;stroke-linecap:butt;stroke-linejoin:miter;stroke:rgb(26.666667%,26.666667%,26.666667%);stroke-opacity:1;stroke-miterlimit:10;" d="M 198.609375 20 L 203.484375 45.46875 "/>
<path style="fill:none;stroke-width:0.2;stroke-linecap:butt;stroke-linejoin:miter;stroke:rgb(26.666667%,26.666667%,26.666667%);stroke-opacity:1;stroke-miterlimit:10;" d="M 167.984375 316.917969 L 191.375 299.5 "/>
<path style="fill:none;stroke-width:0.2;stroke-linecap:butt;stroke-linejoin:miter;stroke:rgb(26.666667%,26.666667%,26.666667%);stroke-opacity:1;stroke-miterlimit:10;" d="M 580 268.832031 L 557.03125 282.984375 "/>
<path style="fill:none;stroke-width:0.2;stroke-linecap:butt;stroke-linejoin:miter;stroke:rgb(26.666667%,26.666667%,26.666667%);stroke-opacity:1;stroke-miterlimit:10;" d="M 427.683594 146.457031 L 401.886719 137.90625 "/>
<path style="fill:none;stroke-width:0.2;stroke-linecap:butt;stroke-linejoin:miter;stroke:rgb(26.666667%,26.666667%,26.666667%);stroke-opacity:1;stroke-miterlimit:10;" d="M 345.367188 126.65625 L 399.953125 137.398438 "/>
<path style="fill:none;stroke-width:0.2;stroke-linecap:butt;stroke-linejoin:miter;stroke:rgb(26.666667%,26.666667%,26.666667%);stroke-opacity:1;stroke-miterlimit:10;" d="M 20 94.710938 L 39.351562 76.367188 "/>
<path style="fill:none;stroke-width:0.2;stroke-linecap:butt;stroke-linejoin:miter;stroke:rgb(26.666667%,26.666667%,26.666667%);stroke-opacity:1;stroke-miterlimit:10;" d="M 180.472656 440.566406 L 207.476562 434.773438 "/>
<path style="fill:none;stroke-width:0.2;stroke-linecap:butt;stroke-linejoin:miter;stroke:rgb(26.666667%,26.666667%,26.666667%);stroke-opacity:1;stroke-miterlimit:10;" d="M 221.066406 308.386719 L 193.128906 299.214844 "/>
<path style="fill:none;stroke-width:0.2;stroke-linecap:butt;stroke-linejoin:miter;stroke:rgb(26.666667%,26.666667%,26.666667%);stroke-opacity:1;stroke-miterlimit:10;" d="M 37.859375 256.285156 L 53.789062 231.925781 "/>
<path style="fill:none;stroke-width:0.2;stroke-linecap:butt;stroke-linejoin:miter;stroke:rgb(26.666667%,26.666667%,26.666667%);stroke-opacity:1;stroke-miterlimit:10;" d="M 37.859375 256.285156 L 24.101562 279.476562 "/>
<path style="fill:none;stroke-width:0.2;stroke-linecap:butt;stroke-linejoin:miter;stroke:rgb(26.666667%,26.666667%,26.666667%);stroke-opacity:1;stroke-miterlimit:10;" d="M 208.082031 73.023438 L 203.835938 47.4375 "/>
<path style="fill:none;stroke-width:0.2;stroke-linecap:butt;stroke-linejoin:miter;stroke:rgb(26.666667%,26.666667%,26.666667%);stroke-opacity:1;stroke-miterlimit:10;" d="M 456.300781 133.707031 L 401.933594 137.519531 "/>
<path style="fill:none;stroke-width:0.2;stroke-linecap:butt;stroke-linejoin:miter;stroke:rgb(26.666667%,26.666667%,26.666667%);stroke-opacity:1;stroke-miterlimit:10;" d="M 412.339844 112.339844 L 401.347656 136.679688 "/>
<path style="fill:none;stroke-width:0.2;stroke-linecap:butt;stroke-linejoin:miter;stroke:rgb(26.666667%,26.666667%,26.666667%);stroke-opacity:1;stroke-miterlimit:10;" d="M 237.761719 573.191406 L 264.402344 579.761719 "/>
<path style="fill:none;stroke-width:0.2;stroke-linecap:butt;stroke-linejoin:miter;stroke:rgb(26.666667%,26.666667%,26.666667%);stroke-opacity:1;stroke-miterlimit:10;" d="M 237.761719 573.191406 L 211.050781 566.796875 "/>
<path style="fill:none;stroke-width:0.2;stroke-linecap:butt;stroke-linejoin:miter;stroke:rgb(26.666667%,26.666667%,26.666667%);stroke-opacity:1;stroke-miterlimit:10;" d="M 353.191406 159.4375 L 400.027344 138.007812 "/>
<path style="fill:none;stroke-width:0.2;stroke-linecap:butt;stroke-linejoin:miter;stroke:rgb(26.666667%,26.666667%,26.666667%);stroke-opacity:1;stroke-miterlimit:10;" d="M 531.84375 297.425781 L 555.3125 284.007812 "/>
<path style="fill:none;stroke-width:0.2;stroke-linecap:butt;stroke-linejoin:miter;stroke:rgb(26.666667%,26.666667%,26.666667%);stroke-opacity:1;stroke-miterlimit:10;" d="M 457.621094 462.382812 L 481.550781 432.820312 "/>
<path style="fill:none;stroke-width:0.2;stroke-linecap:butt;stroke-linejoin:miter;stroke:rgb(26.666667%,26.666667%,26.666667%);stroke-opacity:1;stroke-miterlimit:10;" d="M 457.621094 462.382812 L 498.703125 457.035156 "/>
<path style="fill:none;stroke-width:0.2;stroke-linecap:butt;stroke-linejoin:miter;stroke:rgb(26.666667%,26.666667%,26.666667%);stroke-opacity:1;stroke-miterlimit:10;" d="M 457.621094 462.382812 L 488.789062 484.503906 "/>
<path style="fill:none;stroke-width:0.2;stroke-linecap:butt;stroke-linejoin:miter;stroke:rgb(26.666667%,26.666667%,26.666667%);stroke-opacity:1;stroke-miterlimit:10;" d="M 457.621094 462.382812 L 425.300781 439.363281 "/>
<path style="fill:none;stroke-width:0.2;stroke-linecap:butt;stroke-linejoin:miter;stroke:rgb(26.666667%,26.666667%,26.666667%);stroke-opacity:1;stroke-miterlimit:10;" d="M 457.621094 462.382812 L 452.046875 425.089844 "/>
<path style="fill:none;stroke-width:0.2;stroke-linecap:butt;stroke-linejoin:miter;stroke:rgb(26.666667%,26.666667%,26.666667%);stroke-opacity:1;stroke-miterlimit:10;" d="M 457.621094 462.382812 L 417.644531 467.546875 "/>
<path style="fill:none;stroke-width:0.2;stroke-linecap:butt;stroke-linejoin:miter;stroke:rgb(26.666667%,26.666667%,26.666667%);stroke-opacity:1;stroke-miterlimit:10;" d="M 457.621094 462.382812 L 433.773438 492.175781 "/>
<path style="fill:none;stroke-width:0.2;stroke-linecap:butt;stroke-linejoin:miter;stroke:rgb(26.666667%,26.666667%,26.666667%);stroke-opacity:1;stroke-miterlimit:10;" d="M 457.621094 462.382812 L 463.28125 500.597656 "/>
<path style="fill:none;stroke-width:0.2;stroke-linecap:butt;stroke-linejoin:miter;stroke:rgb(26.666667%,26.666667%,26.666667%);stroke-opacity:1;stroke-miterlimit:10;" d="M 236.339844 428.226562 L 209.429688 434.34375 "/>
<path style="fill:none;stroke-width:0.2;stroke-linecap:butt;stroke-linejoin:miter;stroke:rgb(26.666667%,26.666667%,26.666667%);stroke-opacity:1;stroke-miterlimit:10;" d="M 405.367188 84.066406 L 401.019531 136.59375 "/>
<path style="fill:none;stroke-width:0.2;stroke-linecap:butt;stroke-linejoin:miter;stroke:rgb(26.666667%,26.666667%,26.666667%);stroke-opacity:1;stroke-miterlimit:10;" d="M 444.847656 170.988281 L 401.730469 138.195312 "/>
<path style="fill:none;stroke-width:0.2;stroke-linecap:butt;stroke-linejoin:miter;stroke:rgb(26.666667%,26.666667%,26.666667%);stroke-opacity:1;stroke-miterlimit:10;" d="M 188.445312 270.285156 L 192.046875 297.910156 "/>
<path style="fill:none;stroke-width:0.2;stroke-linecap:butt;stroke-linejoin:miter;stroke:rgb(26.666667%,26.666667%,26.666667%);stroke-opacity:1;stroke-miterlimit:10;" d="M 370.765625 94.640625 L 400.359375 136.773438 "/>
<path style=" stroke:none;fill-rule:nonzero;fill:rgb(100%,0%,0%);fill-opacity:1;" d="M 378.640625 188.355469 C 378.640625 189.691406 376.640625 189.691406 376.640625 188.355469 C 376.640625 187.023438 378.640625 187.023438 378.640625 188.355469 "/>
<path style=" stroke:none;fill-rule:nonzero;fill:rgb(100%,0%,0%);fill-opacity:1;" d="M 401.9375 137.589844 C 401.9375 138.921875 399.9375 138.921875 399.9375 137.589844 C 399.9375 136.257812 401.9375 136.257812 401.9375 137.589844 "/>
<path style=" stroke:none;fill-rule:nonzero;fill:rgb(100%,0%,0%);fill-opacity:1;" d="M 443.273438 102.890625 C 443.273438 104.222656 441.273438 104.222656 441.273438 102.890625 C 441.273438 101.554688 443.273438 101.554688 443.273438 102.890625 "/>
<path style=" stroke:none;fill-rule:nonzero;fill:rgb(100%,0%,0%);fill-opacity:1;" d="M 60.6875 56.242188 C 60.6875 57.578125 58.6875 57.578125 58.6875 56.242188 C 58.6875 54.910156 60.6875 54.910156 60.6875 56.242188 "/>
<path style=" stroke:none;fill-rule:nonzero;fill:rgb(100%,0%,0%);fill-opacity:1;" d="M 41.078125 75.679688 C 41.078125 77.011719 39.078125 77.011719 39.078125 75.679688 C 39.078125 74.347656 41.078125 74.347656 41.078125 75.679688 "/>
<path style=" stroke:none;fill-rule:nonzero;fill:rgb(100%,0%,0%);fill-opacity:1;" d="M 376.625 124.378906 C 376.625 125.710938 374.625 125.710938 374.625 124.378906 C 374.625 123.046875 376.625 123.046875 376.625 124.378906 "/>
<path style=" stroke:none;fill-rule:nonzero;fill:rgb(100%,0%,0%);fill-opacity:1;" d="M 71.871094 208.355469 C 71.871094 209.6875 69.871094 209.6875 69.871094 208.355469 C 69.871094 207.019531 71.871094 207.019531 71.871094 208.355469 "/>
<path style=" stroke:none;fill-rule:nonzero;fill:rgb(100%,0%,0%);fill-opacity:1;" d="M 55.335938 231.089844 C 55.335938 232.421875 53.335938 232.421875 53.335938 231.089844 C 53.335938 229.757812 55.335938 229.757812 55.335938 231.089844 "/>
<path style=" stroke:none;fill-rule:nonzero;fill:rgb(100%,0%,0%);fill-opacity:1;" d="M 387.890625 160.632812 C 387.890625 161.964844 385.890625 161.964844 385.890625 160.632812 C 385.890625 159.300781 387.890625 159.300781 387.890625 160.632812 "/>
<path style=" stroke:none;fill-rule:nonzero;fill:rgb(100%,0%,0%);fill-opacity:1;" d="M 414.421875 183.296875 C 414.421875 184.632812 412.421875 184.632812 412.421875 183.296875 C 412.421875 181.964844 414.421875 181.964844 414.421875 183.296875 "/>
<path style=" stroke:none;fill-rule:nonzero;fill:rgb(100%,0%,0%);fill-opacity:1;" d="M 199.609375 20 C 199.609375 21.332031 197.609375 21.332031 197.609375 20 C 197.609375 18.667969 199.609375 18.667969 199.609375 20 "/>
<path style=" stroke:none;fill-rule:nonzero;fill:rgb(100%,0%,0%);fill-opacity:1;" d="M 204.675781 46.453125 C 204.675781 47.785156 202.675781 47.785156 202.675781 46.453125 C 202.675781 45.117188 204.675781 45.117188 204.675781 46.453125 "/>
<path style=" stroke:none;fill-rule:nonzero;fill:rgb(100%,0%,0%);fill-opacity:1;" d="M 168.984375 316.917969 C 168.984375 318.25 166.984375 318.25 166.984375 316.917969 C 166.984375 315.585938 168.984375 315.585938 168.984375 316.917969 "/>
<path style=" stroke:none;fill-rule:nonzero;fill:rgb(100%,0%,0%);fill-opacity:1;" d="M 193.175781 298.902344 C 193.175781 300.234375 191.175781 300.234375 191.175781 298.902344 C 191.175781 297.566406 193.175781 297.566406 193.175781 298.902344 "/>
<path style=" stroke:none;fill-rule:nonzero;fill:rgb(100%,0%,0%);fill-opacity:1;" d="M 581 268.832031 C 581 270.167969 579 270.167969 579 268.832031 C 579 267.5 581 267.5 581 268.832031 "/>
<path style=" stroke:none;fill-rule:nonzero;fill:rgb(100%,0%,0%);fill-opacity:1;" d="M 557.179688 283.511719 C 557.179688 284.84375 555.179688 284.84375 555.179688 283.511719 C 555.179688 282.175781 557.179688 282.175781 557.179688 283.511719 "/>
<path style=" stroke:none;fill-rule:nonzero;fill:rgb(100%,0%,0%);fill-opacity:1;" d="M 428.683594 146.457031 C 428.683594 147.789062 426.683594 147.789062 426.683594 146.457031 C 426.683594 145.121094 428.683594 145.121094 428.683594 146.457031 "/>
<path style=" stroke:none;fill-rule:nonzero;fill:rgb(100%,0%,0%);fill-opacity:1;" d="M 346.367188 126.65625 C 346.367188 127.992188 344.367188 127.992188 344.367188 126.65625 C 344.367188 125.324219 346.367188 125.324219 346.367188 126.65625 "/>
<path style=" stroke:none;fill-rule:nonzero;fill:rgb(100%,0%,0%);fill-opacity:1;" d="M 21 94.710938 C 21 96.046875 19 96.046875 19 94.710938 C 19 93.378906 21 93.378906 21 94.710938 "/>
<path style=" stroke:none;fill-rule:nonzero;fill:rgb(100%,0%,0%);fill-opacity:1;" d="M 181.472656 440.566406 C 181.472656 441.902344 179.472656 441.902344 179.472656 440.566406 C 179.472656 439.234375 181.472656 439.234375 181.472656 440.566406 "/>
<path style=" stroke:none;fill-rule:nonzero;fill:rgb(100%,0%,0%);fill-opacity:1;" d="M 209.453125 434.5625 C 209.453125 435.898438 207.453125 435.898438 207.453125 434.5625 C 207.453125 433.230469 209.453125 433.230469 209.453125 434.5625 "/>
<path style=" stroke:none;fill-rule:nonzero;fill:rgb(100%,0%,0%);fill-opacity:1;" d="M 222.066406 308.386719 C 222.066406 309.71875 220.066406 309.71875 220.066406 308.386719 C 220.066406 307.050781 222.066406 307.050781 222.066406 308.386719 "/>
<path style=" stroke:none;fill-rule:nonzero;fill:rgb(100%,0%,0%);fill-opacity:1;" d="M 38.859375 256.285156 C 38.859375 257.621094 36.859375 257.621094 36.859375 256.285156 C 36.859375 254.953125 38.859375 254.953125 38.859375 256.285156 "/>
<path style=" stroke:none;fill-rule:nonzero;fill:rgb(100%,0%,0%);fill-opacity:1;" d="M 24.59375 280.335938 C 24.59375 281.667969 22.59375 281.667969 22.59375 280.335938 C 22.59375 279.003906 24.59375 279.003906 24.59375 280.335938 "/>
<path style=" stroke:none;fill-rule:nonzero;fill:rgb(100%,0%,0%);fill-opacity:1;" d="M 209.082031 73.023438 C 209.082031 74.355469 207.082031 74.355469 207.082031 73.023438 C 207.082031 71.691406 209.082031 71.691406 209.082031 73.023438 "/>
<path style=" stroke:none;fill-rule:nonzero;fill:rgb(100%,0%,0%);fill-opacity:1;" d="M 457.300781 133.707031 C 457.300781 135.039062 455.300781 135.039062 455.300781 133.707031 C 455.300781 132.371094 457.300781 132.371094 457.300781 133.707031 "/>
<path style=" stroke:none;fill-rule:nonzero;fill:rgb(100%,0%,0%);fill-opacity:1;" d="M 413.339844 112.339844 C 413.339844 113.671875 411.339844 113.671875 411.339844 112.339844 C 411.339844 111.007812 413.339844 111.007812 413.339844 112.339844 "/>
<path style=" stroke:none;fill-rule:nonzero;fill:rgb(100%,0%,0%);fill-opacity:1;" d="M 238.761719 573.191406 C 238.761719 574.523438 236.761719 574.523438 236.761719 573.191406 C 236.761719 571.855469 238.761719 571.855469 238.761719 573.191406 "/>
<path style=" stroke:none;fill-rule:nonzero;fill:rgb(100%,0%,0%);fill-opacity:1;" d="M 266.375 580 C 266.375 581.332031 264.375 581.332031 264.375 580 C 264.375 578.667969 266.375 578.667969 266.375 580 "/>
<path style=" stroke:none;fill-rule:nonzero;fill:rgb(100%,0%,0%);fill-opacity:1;" d="M 211.078125 566.566406 C 211.078125 567.898438 209.078125 567.898438 209.078125 566.566406 C 209.078125 565.230469 211.078125 565.230469 211.078125 566.566406 "/>
<path style=" stroke:none;fill-rule:nonzero;fill:rgb(100%,0%,0%);fill-opacity:1;" d="M 354.191406 159.4375 C 354.191406 160.773438 352.191406 160.773438 352.191406 159.4375 C 352.191406 158.105469 354.191406 158.105469 354.191406 159.4375 "/>
<path style=" stroke:none;fill-rule:nonzero;fill:rgb(100%,0%,0%);fill-opacity:1;" d="M 532.84375 297.425781 C 532.84375 298.757812 530.84375 298.757812 530.84375 297.425781 C 530.84375 296.09375 532.84375 296.09375 532.84375 297.425781 "/>
<path style=" stroke:none;fill-rule:nonzero;fill:rgb(100%,0%,0%);fill-opacity:1;" d="M 458.621094 462.382812 C 458.621094 463.71875 456.621094 463.71875 456.621094 462.382812 C 456.621094 461.050781 458.621094 461.050781 458.621094 462.382812 "/>
<path style=" stroke:none;fill-rule:nonzero;fill:rgb(100%,0%,0%);fill-opacity:1;" d="M 483.179688 432.042969 C 483.179688 433.375 481.179688 433.375 481.179688 432.042969 C 481.179688 430.710938 483.179688 430.710938 483.179688 432.042969 "/>
<path style=" stroke:none;fill-rule:nonzero;fill:rgb(100%,0%,0%);fill-opacity:1;" d="M 500.691406 456.90625 C 500.691406 458.238281 498.691406 458.238281 498.691406 456.90625 C 498.691406 455.574219 500.691406 455.574219 500.691406 456.90625 "/>
<path style=" stroke:none;fill-rule:nonzero;fill:rgb(100%,0%,0%);fill-opacity:1;" d="M 490.605469 485.082031 C 490.605469 486.417969 488.605469 486.417969 488.605469 485.082031 C 488.605469 483.75 490.605469 483.75 490.605469 485.082031 "/>
<path style=" stroke:none;fill-rule:nonzero;fill:rgb(100%,0%,0%);fill-opacity:1;" d="M 425.484375 438.785156 C 425.484375 440.117188 423.484375 440.117188 423.484375 438.785156 C 423.484375 437.449219 425.484375 437.449219 425.484375 438.785156 "/>
<path style=" stroke:none;fill-rule:nonzero;fill:rgb(100%,0%,0%);fill-opacity:1;" d="M 452.898438 424.101562 C 452.898438 425.433594 450.898438 425.433594 450.898438 424.101562 C 450.898438 422.769531 452.898438 422.769531 452.898438 424.101562 "/>
<path style=" stroke:none;fill-rule:nonzero;fill:rgb(100%,0%,0%);fill-opacity:1;" d="M 417.652344 467.675781 C 417.652344 469.007812 415.652344 469.007812 415.652344 467.675781 C 415.652344 466.34375 417.652344 466.34375 417.652344 467.675781 "/>
<path style=" stroke:none;fill-rule:nonzero;fill:rgb(100%,0%,0%);fill-opacity:1;" d="M 434.148438 492.957031 C 434.148438 494.289062 432.148438 494.289062 432.148438 492.957031 C 432.148438 491.625 434.148438 491.625 434.148438 492.957031 "/>
<path style=" stroke:none;fill-rule:nonzero;fill:rgb(100%,0%,0%);fill-opacity:1;" d="M 464.425781 501.585938 C 464.425781 502.917969 462.425781 502.917969 462.425781 501.585938 C 462.425781 500.25 464.425781 500.25 464.425781 501.585938 "/>
<path style=" stroke:none;fill-rule:nonzero;fill:rgb(100%,0%,0%);fill-opacity:1;" d="M 237.339844 428.226562 C 237.339844 429.5625 235.339844 429.5625 235.339844 428.226562 C 235.339844 426.894531 237.339844 426.894531 237.339844 428.226562 "/>
<path style=" stroke:none;fill-rule:nonzero;fill:rgb(100%,0%,0%);fill-opacity:1;" d="M 406.367188 84.066406 C 406.367188 85.402344 404.367188 85.402344 404.367188 84.066406 C 404.367188 82.734375 406.367188 82.734375 406.367188 84.066406 "/>
<path style=" stroke:none;fill-rule:nonzero;fill:rgb(100%,0%,0%);fill-opacity:1;" d="M 445.847656 170.988281 C 445.847656 172.320312 443.847656 172.320312 443.847656 170.988281 C 443.847656 169.65625 445.847656 169.65625 445.847656 170.988281 "/>
<path style=" stroke:none;fill-rule:nonzero;fill:rgb(100%,0%,0%);fill-opacity:1;" d="M 189.445312 270.285156 C 189.445312 271.617188 187.445312 271.617188 187.445312 270.285156 C 187.445312 268.953125 189.445312 268.953125 189.445312 270.285156 "/>
<path style=" stroke:none;fill-rule:nonzero;fill:rgb(100%,0%,0%);fill-opacity:1;" d="M 371.765625 94.640625 C 371.765625 95.976562 369.765625 95.976562 369.765625 94.640625 C 369.765625 93.308594 371.765625 93.308594 371.765625 94.640625 "/>
</g>
</svg>
