<?xml version="1.0" encoding="UTF-8"?>
<svg xmlns="http://www.w3.org/2000/svg" xmlns:xlink="http://www.w3.org/1999/xlink" width="600" height="600" viewBox="0 0 600 600">
<rect x="-60" y="-60" width="720" height="720" fill="rgb(100%, 100%, 100%)" fill-opacity="1"/>
<path fill="none" stroke-width="0.2" stroke-linecap="butt" stroke-linejoin="miter" stroke="rgb(26.666667%, 26.666667%, 26.666667%)" stroke-opacity="1" stroke-miterlimit="10" d="M 327.226562 82.382812 L 272.824219 70.046875 "/>
<path fill-rule="nonzero" fill="rgb(26.666667%, 26.666667%, 26.666667%)" fill-opacity="1" d="M 272.683594 70.015625 L 272.832031 70 L 272.8125 70.09375 L 272.683594 70.015625 "/>
<path fill="none" stroke-width="0.2" stroke-linecap="butt" stroke-linejoin="miter" stroke="rgb(26.666667%, 26.666667%, 26.666667%)" stroke-opacity="1" stroke-miterlimit="10" d="M 269.183594 118.859375 L 271.648438 70.933594 "/>
<path fill-rule="nonzero" fill="rgb(26.666667%, 26.666667%, 26.666667%)" fill-opacity="1" d="M 271.65625 70.792969 L 271.695312 70.9375 L 271.605469 70.933594 L 271.65625 70.792969 "/>
<path fill="none" stroke-width="0.2" stroke-linecap="butt" stroke-linejoin="miter" stroke="rgb(26.666667%, 26.666667%, 26.666667%)" stroke-opacity="1" stroke-miterlimit="10" d="M 28.253906 328.496094 L 24.285156 354.113281 "/>
<path fill-rule="nonzero" fill="rgb(26.666667%, 26.666667%, 26.666667%)" fill-opacity="1" d="M 24.261719 354.253906 L 24.238281 354.105469 L 24.328125 354.121094 L 24.261719 354.253906 "/>
<path fill="none" stroke-width="0.2" stroke-linecap="butt" stroke-linejoin="miter" stroke="rgb(26.666667%, 26.666667%, 26.666667%)" stroke-opacity="1" stroke-miterlimit="10" d="M 218.085938 75.160156 L 270.570312 69.90625 "/>
<path fill-rule="nonzero" fill="rgb(26.666667%, 26.666667%, 26.666667%)" fill-opacity="1" d="M 270.714844 69.894531 L 270.578125 69.953125 L 270.566406 69.863281 L 270.714844 69.894531 "/>
<path fill="none" stroke-width="0.2" stroke-linecap="butt" stroke-linejoin="miter" stroke="rgb(26.666667%, 26.666667%, 26.666667%)" stroke-opacity="1" stroke-miterlimit="10" d="M 580 406.726562 L 553.75 414.644531 "/>
<path fill-rule="nonzero" fill="rgb(26.666667%, 26.666667%, 26.666667%)" fill-opacity="1" d="M 553.613281 414.683594 L 553.738281 414.597656 L 553.765625 414.6875 L 553.613281 414.683594 "/>
<path fill="none" stroke-width="0.2" stroke-linecap="butt" stroke-linejoin="miter" stroke="rgb(26.666667%, 26.666667%, 26.666667%)" stroke-opacity="1" stroke-miterlimit="10" d="M 254.988281 91.796875 L 271.019531 70.703125 "/>
<path fill-rule="nonzero" fill="rgb(26.666667%, 26.666667%, 26.666667%)" fill-opacity="1" d="M 271.105469 70.589844 L 271.054688 70.730469 L 270.980469 70.675781 L 271.105469 70.589844 "/>
<path fill="none" stroke-width="0.2" stroke-linecap="butt" stroke-linejoin="miter" stroke="rgb(26.666667%, 26.666667%, 26.666667%)" stroke-opacity="1" stroke-miterlimit="10" d="M 296.25 83.054688 L 272.714844 70.335938 "/>
<path fill-rule="nonzero" fill="rgb(26.666667%, 26.666667%, 26.666667%)" fill-opacity="1" d="M 272.589844 70.269531 L 272.738281 70.296875 L 272.691406 70.378906 L 272.589844 70.269531 "/>
<path fill="none" stroke-width="0.2" stroke-linecap="butt" stroke-linejoin="miter" stroke="rgb(26.666667%, 26.666667%, 26.666667%)" stroke-opacity="1" stroke-miterlimit="10" d="M 139.644531 423.960938 L 144.121094 449.425781 "/>
<path fill-rule="nonzero" fill="rgb(26.666667%, 26.666667%, 26.666667%)" fill-opacity="1" d="M 144.144531 449.566406 L 144.074219 449.433594 L 144.167969 449.417969 L 144.144531 449.566406 "/>
<path fill="none" stroke-width="0.2" stroke-linecap="butt" stroke-linejoin="miter" stroke="rgb(26.666667%, 26.666667%, 26.666667%)" stroke-opacity="1" stroke-miterlimit="10" d="M 299.675781 449.703125 L 328.957031 451.046875 "/>
<path fill-rule="nonzero" fill="rgb(26.666667%, 26.666667%, 26.666667%)" fill-opacity="1" d="M 329.101562 451.050781 L 328.957031 451.089844 L 328.960938 451 L 329.101562 451.050781 "/>
<path fill="none" stroke-width="0.2" stroke-linecap="butt" stroke-linejoin="miter" stroke="rgb(26.666667%, 26.666667%, 26.666667%)" stroke-opacity="1" stroke-miterlimit="10" d="M 561.363281 246.726562 L 540.304688 262.699219 "/>
<path fill-rule="nonzero" fill="rgb(26.666667%, 26.666667%, 26.666667%)" fill-opacity="1" d="M 540.191406 262.785156 L 540.277344 262.660156 L 540.332031 262.734375 L 540.191406 262.785156 "/>
<path fill="none" stroke-width="0.2" stroke-linecap="butt" stroke-linejoin="miter" stroke="rgb(26.666667%, 26.666667%, 26.666667%)" stroke-opacity="1" stroke-miterlimit="10" d="M 302.515625 112.269531 L 272.378906 70.71875 "/>
<path fill-rule="nonzero" fill="rgb(26.666667%, 26.666667%, 26.666667%)" fill-opacity="1" d="M 272.296875 70.605469 L 272.417969 70.691406 L 272.34375 70.746094 L 272.296875 70.605469 "/>
<path fill="none" stroke-width="0.2" stroke-linecap="butt" stroke-linejoin="miter" stroke="rgb(26.666667%, 26.666667%, 26.666667%)" stroke-opacity="1" stroke-miterlimit="10" d="M 286.503906 47.0625 L 272.332031 68.835938 "/>
<path fill-rule="nonzero" fill="rgb(26.666667%, 26.666667%, 26.666667%)" fill-opacity="1" d="M 272.253906 68.957031 L 272.292969 68.8125 L 272.371094 68.863281 L 272.253906 68.957031 "/>
<path fill="none" stroke-width="0.2" stroke-linecap="butt" stroke-linejoin="miter" stroke="rgb(26.666667%, 26.666667%, 26.666667%)" stroke-opacity="1" stroke-miterlimit="10" d="M 20 382.011719 L 23.933594 356.371094 "/>
<path fill-rule="nonzero" fill="rgb(26.666667%, 26.666667%, 26.666667%)" fill-opacity="1" d="M 23.957031 356.230469 L 23.980469 356.378906 L 23.890625 356.367188 L 23.957031 356.230469 "/>
<path fill="none" stroke-width="0.2" stroke-linecap="butt" stroke-linejoin="miter" stroke="rgb(26.666667%, 26.666667%, 26.666667%)" stroke-opacity="1" stroke-miterlimit="10" d="M 523.332031 25.386719 L 538.339844 46.917969 "/>
<path fill-rule="nonzero" fill="rgb(26.666667%, 26.666667%, 26.666667%)" fill-opacity="1" d="M 538.421875 47.035156 L 538.300781 46.945312 L 538.378906 46.890625 L 538.421875 47.035156 "/>
<path fill="none" stroke-width="0.2" stroke-linecap="butt" stroke-linejoin="miter" stroke="rgb(26.666667%, 26.666667%, 26.666667%)" stroke-opacity="1" stroke-miterlimit="10" d="M 341.414062 477.332031 L 330.550781 452.148438 "/>
<path fill-rule="nonzero" fill="rgb(26.666667%, 26.666667%, 26.666667%)" fill-opacity="1" d="M 330.496094 452.015625 L 330.59375 452.128906 L 330.507812 452.164062 L 330.496094 452.015625 "/>
<path fill="none" stroke-width="0.2" stroke-linecap="butt" stroke-linejoin="miter" stroke="rgb(26.666667%, 26.666667%, 26.666667%)" stroke-opacity="1" stroke-miterlimit="10" d="M 523.226562 423.132812 L 551.554688 415.277344 "/>
<path fill-rule="nonzero" fill="rgb(26.666667%, 26.666667%, 26.666667%)" fill-opacity="1" d="M 551.691406 415.242188 L 551.566406 415.324219 L 551.542969 415.234375 L 551.691406 415.242188 "/>
<path fill="none" stroke-width="0.2" stroke-linecap="butt" stroke-linejoin="miter" stroke="rgb(26.666667%, 26.666667%, 26.666667%)" stroke-opacity="1" stroke-miterlimit="10" d="M 523.226562 423.132812 L 496.75 429.796875 "/>
<path fill-rule="nonzero" fill="rgb(26.666667%, 26.666667%, 26.666667%)" fill-opacity="1" d="M 496.609375 429.832031 L 496.738281 429.753906 L 496.761719 429.84375 L 496.609375 429.832031 "/>
<path fill="none" stroke-width="0.2" stroke-linecap="butt" stroke-linejoin="miter" stroke="rgb(26.666667%, 26.666667%, 26.666667%)" stroke-opacity="1" stroke-miterlimit="10" d="M 149.371094 477.070312 L 144.53125 451.671875 "/>
<path fill-rule="nonzero" fill="rgb(26.666667%, 26.666667%, 26.666667%)" fill-opacity="1" d="M 144.503906 451.535156 L 144.578125 451.664062 L 144.488281 451.683594 L 144.503906 451.535156 "/>
<path fill="none" stroke-width="0.2" stroke-linecap="butt" stroke-linejoin="miter" stroke="rgb(26.666667%, 26.666667%, 26.666667%)" stroke-opacity="1" stroke-miterlimit="10" d="M 246.316406 57.308594 L 270.683594 69.289062 "/>
<path fill-rule="nonzero" fill="rgb(26.666667%, 26.666667%, 26.666667%)" fill-opacity="1" d="M 270.8125 69.351562 L 270.664062 69.332031 L 270.703125 69.25 L 270.8125 69.351562 "/>
<path fill="none" stroke-width="0.2" stroke-linecap="butt" stroke-linejoin="miter" stroke="rgb(26.666667%, 26.666667%, 26.666667%)" stroke-opacity="1" stroke-miterlimit="10" d="M 295.949219 20 L 272.210938 68.765625 "/>
<path fill-rule="nonzero" fill="rgb(26.666667%, 26.666667%, 26.666667%)" fill-opacity="1" d="M 272.148438 68.894531 L 272.167969 68.746094 L 272.25 68.789062 L 272.148438 68.894531 "/>
<path fill="none" stroke-width="0.2" stroke-linecap="butt" stroke-linejoin="miter" stroke="rgb(26.666667%, 26.666667%, 26.666667%)" stroke-opacity="1" stroke-miterlimit="10" d="M 405.011719 573.605469 L 431.402344 567.34375 "/>
<path fill-rule="nonzero" fill="rgb(26.666667%, 26.666667%, 26.666667%)" fill-opacity="1" d="M 431.542969 567.308594 L 431.414062 567.386719 L 431.394531 567.296875 L 431.542969 567.308594 "/>
<path fill="none" stroke-width="0.2" stroke-linecap="butt" stroke-linejoin="miter" stroke="rgb(26.666667%, 26.666667%, 26.666667%)" stroke-opacity="1" stroke-miterlimit="10" d="M 405.011719 573.605469 L 378.546875 579.742188 "/>
<path fill-rule="nonzero" fill="rgb(26.666667%, 26.666667%, 26.666667%)" fill-opacity="1" d="M 378.40625 579.773438 L 378.535156 579.695312 L 378.554688 579.785156 L 378.40625 579.773438 "/>
<path fill="none" stroke-width="0.2" stroke-linecap="butt" stroke-linejoin="miter" stroke="rgb(26.666667%, 26.666667%, 26.666667%)" stroke-opacity="1" stroke-miterlimit="10" d="M 259.179688 23.589844 L 271.410156 68.691406 "/>
<path fill-rule="nonzero" fill="rgb(26.666667%, 26.666667%, 26.666667%)" fill-opacity="1" d="M 271.449219 68.828125 L 271.367188 68.703125 L 271.453125 68.679688 L 271.449219 68.828125 "/>
<path fill="none" stroke-width="0.2" stroke-linecap="butt" stroke-linejoin="miter" stroke="rgb(26.666667%, 26.666667%, 26.666667%)" stroke-opacity="1" stroke-miterlimit="10" d="M 517.496094 280.113281 L 538.484375 264.082031 "/>
<path fill-rule="nonzero" fill="rgb(26.666667%, 26.666667%, 26.666667%)" fill-opacity="1" d="M 538.597656 263.996094 L 538.515625 264.117188 L 538.457031 264.042969 L 538.597656 263.996094 "/>
<path fill="none" stroke-width="0.2" stroke-linecap="butt" stroke-linejoin="miter" stroke="rgb(26.666667%, 26.666667%, 26.666667%)" stroke-opacity="1" stroke-miterlimit="10" d="M 294.457031 285.496094 L 257.734375 300.5625 "/>
<path fill-rule="nonzero" fill="rgb(26.666667%, 26.666667%, 26.666667%)" fill-opacity="1" d="M 257.601562 300.617188 L 257.71875 300.519531 L 257.753906 300.605469 L 257.601562 300.617188 "/>
<path fill="none" stroke-width="0.2" stroke-linecap="butt" stroke-linejoin="miter" stroke="rgb(26.666667%, 26.666667%, 26.666667%)" stroke-opacity="1" stroke-miterlimit="10" d="M 294.457031 285.496094 L 308.683594 252.28125 "/>
<path fill-rule="nonzero" fill="rgb(26.666667%, 26.666667%, 26.666667%)" fill-opacity="1" d="M 308.738281 252.152344 L 308.726562 252.300781 L 308.640625 252.265625 L 308.738281 252.152344 "/>
<path fill="none" stroke-width="0.2" stroke-linecap="butt" stroke-linejoin="miter" stroke="rgb(26.666667%, 26.666667%, 26.666667%)" stroke-opacity="1" stroke-miterlimit="10" d="M 294.457031 285.496094 L 310.34375 318.15625 "/>
<path fill-rule="nonzero" fill="rgb(26.666667%, 26.666667%, 26.666667%)" fill-opacity="1" d="M 310.40625 318.285156 L 310.304688 318.175781 L 310.386719 318.136719 L 310.40625 318.285156 "/>
<path fill="none" stroke-width="0.2" stroke-linecap="butt" stroke-linejoin="miter" stroke="rgb(26.666667%, 26.666667%, 26.666667%)" stroke-opacity="1" stroke-miterlimit="10" d="M 294.457031 285.496094 L 331.945312 298.21875 "/>
<path fill-rule="nonzero" fill="rgb(26.666667%, 26.666667%, 26.666667%)" fill-opacity="1" d="M 332.078125 298.265625 L 331.929688 298.261719 L 331.960938 298.175781 L 332.078125 298.265625 "/>
<path fill="none" stroke-width="0.2" stroke-linecap="butt" stroke-linejoin="miter" stroke="rgb(26.666667%, 26.666667%, 26.666667%)" stroke-opacity="1" stroke-miterlimit="10" d="M 294.457031 285.496094 L 254.847656 271.667969 "/>
<path fill-rule="nonzero" fill="rgb(26.666667%, 26.666667%, 26.666667%)" fill-opacity="1" d="M 254.714844 271.621094 L 254.863281 271.621094 L 254.835938 271.710938 L 254.714844 271.621094 "/>
<path fill="none" stroke-width="0.2" stroke-linecap="butt" stroke-linejoin="miter" stroke="rgb(26.666667%, 26.666667%, 26.666667%)" stroke-opacity="1" stroke-miterlimit="10" d="M 294.457031 285.496094 L 278.691406 253.699219 "/>
<path fill-rule="nonzero" fill="rgb(26.666667%, 26.666667%, 26.666667%)" fill-opacity="1" d="M 278.628906 253.570312 L 278.734375 253.679688 L 278.652344 253.71875 L 278.628906 253.570312 "/>
<path fill="none" stroke-width="0.2" stroke-linecap="butt" stroke-linejoin="miter" stroke="rgb(26.666667%, 26.666667%, 26.666667%)" stroke-opacity="1" stroke-miterlimit="10" d="M 294.457031 285.496094 L 333.335938 269.195312 "/>
<path fill-rule="nonzero" fill="rgb(26.666667%, 26.666667%, 26.666667%)" fill-opacity="1" d="M 333.46875 269.140625 L 333.355469 269.238281 L 333.316406 269.15625 L 333.46875 269.140625 "/>
<path fill="none" stroke-width="0.2" stroke-linecap="butt" stroke-linejoin="miter" stroke="rgb(26.666667%, 26.666667%, 26.666667%)" stroke-opacity="1" stroke-miterlimit="10" d="M 294.457031 285.496094 L 280.058594 319.828125 "/>
<path fill-rule="nonzero" fill="rgb(26.666667%, 26.666667%, 26.666667%)" fill-opacity="1" d="M 280 319.960938 L 280.015625 319.808594 L 280.101562 319.847656 L 280 319.960938 "/>
<path fill="none" stroke-width="0.2" stroke-linecap="butt" stroke-linejoin="miter" stroke="rgb(26.666667%, 26.666667%, 26.666667%)" stroke-opacity="1" stroke-miterlimit="10" d="M 554.734375 70.261719 L 539.648438 48.789062 "/>
<path fill-rule="nonzero" fill="rgb(26.666667%, 26.666667%, 26.666667%)" fill-opacity="1" d="M 539.566406 48.671875 L 539.6875 48.761719 L 539.613281 48.816406 L 539.566406 48.671875 "/>
<path fill="none" stroke-width="0.2" stroke-linecap="butt" stroke-linejoin="miter" stroke="rgb(26.666667%, 26.666667%, 26.666667%)" stroke-opacity="1" stroke-miterlimit="10" d="M 320.039062 49.648438 L 272.765625 69.355469 "/>
<path fill-rule="nonzero" fill="rgb(26.666667%, 26.666667%, 26.666667%)" fill-opacity="1" d="M 272.632812 69.410156 L 272.746094 69.3125 L 272.78125 69.398438 L 272.632812 69.410156 "/>
<path fill="none" stroke-width="0.2" stroke-linecap="butt" stroke-linejoin="miter" stroke="rgb(26.666667%, 26.666667%, 26.666667%)" stroke-opacity="1" stroke-miterlimit="10" d="M 230.289062 108.253906 L 270.871094 70.570312 "/>
<path fill-rule="nonzero" fill="rgb(26.666667%, 26.666667%, 26.666667%)" fill-opacity="1" d="M 270.976562 70.476562 L 270.902344 70.605469 L 270.839844 70.539062 L 270.976562 70.476562 "/>
<path fill="none" stroke-width="0.2" stroke-linecap="butt" stroke-linejoin="miter" stroke="rgb(26.666667%, 26.666667%, 26.666667%)" stroke-opacity="1" stroke-miterlimit="10" d="M 350.855469 429.777344 L 330.894531 450.277344 "/>
<path fill-rule="nonzero" fill="rgb(26.666667%, 26.666667%, 26.666667%)" fill-opacity="1" d="M 330.796875 450.382812 L 330.863281 450.246094 L 330.929688 450.3125 L 330.796875 450.382812 "/>
<path fill="none" stroke-width="0.2" stroke-linecap="butt" stroke-linejoin="miter" stroke="rgb(26.666667%, 26.666667%, 26.666667%)" stroke-opacity="1" stroke-miterlimit="10" d="M 225.378906 37.199219 L 270.773438 69.136719 "/>
<path fill-rule="nonzero" fill="rgb(26.666667%, 26.666667%, 26.666667%)" fill-opacity="1" d="M 270.890625 69.21875 L 270.746094 69.175781 L 270.800781 69.097656 L 270.890625 69.21875 "/>
<path fill-rule="nonzero" fill="rgb(100%, 0%, 0%)" fill-opacity="1" stroke-width="0.01" stroke-linecap="butt" stroke-linejoin="miter" stroke="rgb(0%, 0%, 0%)" stroke-opacity="1" stroke-miterlimit="10" d="M 328.226562 82.382812 C 328.226562 83.714844 326.226562 83.714844 326.226562 82.382812 C 326.226562 81.050781 328.226562 81.050781 328.226562 82.382812 "/>
<path fill-rule="nonzero" fill="rgb(100%, 0%, 0%)" fill-opacity="1" stroke-width="0.01" stroke-linecap="butt" stroke-linejoin="miter" stroke="rgb(0%, 0%, 0%)" stroke-opacity="1" stroke-miterlimit="10" d="M 272.710938 69.792969 C 272.710938 71.128906 270.710938 71.128906 270.710938 69.792969 C 270.710938 68.460938 272.710938 68.460938 272.710938 69.792969 "/>
<path fill-rule="nonzero" fill="rgb(100%, 0%, 0%)" fill-opacity="1" stroke-width="0.01" stroke-linecap="butt" stroke-linejoin="miter" stroke="rgb(0%, 0%, 0%)" stroke-opacity="1" stroke-miterlimit="10" d="M 270.183594 118.859375 C 270.183594 120.191406 268.183594 120.191406 268.183594 118.859375 C 268.183594 117.523438 270.183594 117.523438 270.183594 118.859375 "/>
<path fill-rule="nonzero" fill="rgb(100%, 0%, 0%)" fill-opacity="1" stroke-width="0.01" stroke-linecap="butt" stroke-linejoin="miter" stroke="rgb(0%, 0%, 0%)" stroke-opacity="1" stroke-miterlimit="10" d="M 29.253906 328.496094 C 29.253906 329.828125 27.253906 329.828125 27.253906 328.496094 C 27.253906 327.164062 29.253906 327.164062 29.253906 328.496094 "/>
<path fill-rule="nonzero" fill="rgb(100%, 0%, 0%)" fill-opacity="1" stroke-width="0.01" stroke-linecap="butt" stroke-linejoin="miter" stroke="rgb(0%, 0%, 0%)" stroke-opacity="1" stroke-miterlimit="10" d="M 25.109375 355.242188 C 25.109375 356.578125 23.109375 356.578125 23.109375 355.242188 C 23.109375 353.910156 25.109375 353.910156 25.109375 355.242188 "/>
<path fill-rule="nonzero" fill="rgb(100%, 0%, 0%)" fill-opacity="1" stroke-width="0.01" stroke-linecap="butt" stroke-linejoin="miter" stroke="rgb(0%, 0%, 0%)" stroke-opacity="1" stroke-miterlimit="10" d="M 219.085938 75.160156 C 219.085938 76.492188 217.085938 76.492188 217.085938 75.160156 C 217.085938 73.828125 219.085938 73.828125 219.085938 75.160156 "/>
<path fill-rule="nonzero" fill="rgb(100%, 0%, 0%)" fill-opacity="1" stroke-width="0.01" stroke-linecap="butt" stroke-linejoin="miter" stroke="rgb(0%, 0%, 0%)" stroke-opacity="1" stroke-miterlimit="10" d="M 581 406.726562 C 581 408.058594 579 408.058594 579 406.726562 C 579 405.390625 581 405.390625 581 406.726562 "/>
<path fill-rule="nonzero" fill="rgb(100%, 0%, 0%)" fill-opacity="1" stroke-width="0.01" stroke-linecap="butt" stroke-linejoin="miter" stroke="rgb(0%, 0%, 0%)" stroke-opacity="1" stroke-miterlimit="10" d="M 553.65625 414.972656 C 553.65625 416.304688 551.65625 416.304688 551.65625 414.972656 C 551.65625 413.640625 553.65625 413.640625 553.65625 414.972656 "/>
<path fill-rule="nonzero" fill="rgb(100%, 0%, 0%)" fill-opacity="1" stroke-width="0.01" stroke-linecap="butt" stroke-linejoin="miter" stroke="rgb(0%, 0%, 0%)" stroke-opacity="1" stroke-miterlimit="10" d="M 255.988281 91.796875 C 255.988281 93.128906 253.988281 93.128906 253.988281 91.796875 C 253.988281 90.464844 255.988281 90.464844 255.988281 91.796875 "/>
<path fill-rule="nonzero" fill="rgb(100%, 0%, 0%)" fill-opacity="1" stroke-width="0.01" stroke-linecap="butt" stroke-linejoin="miter" stroke="rgb(0%, 0%, 0%)" stroke-opacity="1" stroke-miterlimit="10" d="M 297.25 83.054688 C 297.25 84.390625 295.25 84.390625 295.25 83.054688 C 295.25 81.722656 297.25 81.722656 297.25 83.054688 "/>
<path fill-rule="nonzero" fill="rgb(100%, 0%, 0%)" fill-opacity="1" stroke-width="0.01" stroke-linecap="butt" stroke-linejoin="miter" stroke="rgb(0%, 0%, 0%)" stroke-opacity="1" stroke-miterlimit="10" d="M 140.644531 423.960938 C 140.644531 425.296875 138.644531 425.296875 138.644531 423.960938 C 138.644531 422.628906 140.644531 422.628906 140.644531 423.960938 "/>
<path fill-rule="nonzero" fill="rgb(100%, 0%, 0%)" fill-opacity="1" stroke-width="0.01" stroke-linecap="butt" stroke-linejoin="miter" stroke="rgb(0%, 0%, 0%)" stroke-opacity="1" stroke-miterlimit="10" d="M 145.320312 450.550781 C 145.320312 451.882812 143.320312 451.882812 143.320312 450.550781 C 143.320312 449.21875 145.320312 449.21875 145.320312 450.550781 "/>
<path fill-rule="nonzero" fill="rgb(100%, 0%, 0%)" fill-opacity="1" stroke-width="0.01" stroke-linecap="butt" stroke-linejoin="miter" stroke="rgb(0%, 0%, 0%)" stroke-opacity="1" stroke-miterlimit="10" d="M 300.675781 449.703125 C 300.675781 451.039062 298.675781 451.039062 298.675781 449.703125 C 298.675781 448.371094 300.675781 448.371094 300.675781 449.703125 "/>
<path fill-rule="nonzero" fill="rgb(100%, 0%, 0%)" fill-opacity="1" stroke-width="0.01" stroke-linecap="butt" stroke-linejoin="miter" stroke="rgb(0%, 0%, 0%)" stroke-opacity="1" stroke-miterlimit="10" d="M 331.097656 451.097656 C 331.097656 452.429688 329.097656 452.429688 329.097656 451.097656 C 329.097656 449.765625 331.097656 449.765625 331.097656 451.097656 "/>
<path fill-rule="nonzero" fill="rgb(100%, 0%, 0%)" fill-opacity="1" stroke-width="0.01" stroke-linecap="butt" stroke-linejoin="miter" stroke="rgb(0%, 0%, 0%)" stroke-opacity="1" stroke-miterlimit="10" d="M 562.363281 246.726562 C 562.363281 248.0625 560.363281 248.0625 560.363281 246.726562 C 560.363281 245.394531 562.363281 245.394531 562.363281 246.726562 "/>
<path fill-rule="nonzero" fill="rgb(100%, 0%, 0%)" fill-opacity="1" stroke-width="0.01" stroke-linecap="butt" stroke-linejoin="miter" stroke="rgb(0%, 0%, 0%)" stroke-opacity="1" stroke-miterlimit="10" d="M 540.394531 263.386719 C 540.394531 264.722656 538.394531 264.722656 538.394531 263.386719 C 538.394531 262.054688 540.394531 262.054688 540.394531 263.386719 "/>
<path fill-rule="nonzero" fill="rgb(100%, 0%, 0%)" fill-opacity="1" stroke-width="0.01" stroke-linecap="butt" stroke-linejoin="miter" stroke="rgb(0%, 0%, 0%)" stroke-opacity="1" stroke-miterlimit="10" d="M 303.515625 112.269531 C 303.515625 113.605469 301.515625 113.605469 301.515625 112.269531 C 301.515625 110.9375 303.515625 110.9375 303.515625 112.269531 "/>
<path fill-rule="nonzero" fill="rgb(100%, 0%, 0%)" fill-opacity="1" stroke-width="0.01" stroke-linecap="butt" stroke-linejoin="miter" stroke="rgb(0%, 0%, 0%)" stroke-opacity="1" stroke-miterlimit="10" d="M 287.503906 47.0625 C 287.503906 48.398438 285.503906 48.398438 285.503906 47.0625 C 285.503906 45.730469 287.503906 45.730469 287.503906 47.0625 "/>
<path fill-rule="nonzero" fill="rgb(100%, 0%, 0%)" fill-opacity="1" stroke-width="0.01" stroke-linecap="butt" stroke-linejoin="miter" stroke="rgb(0%, 0%, 0%)" stroke-opacity="1" stroke-miterlimit="10" d="M 21 382.011719 C 21 383.347656 19 383.347656 19 382.011719 C 19 380.679688 21 380.679688 21 382.011719 "/>
<path fill-rule="nonzero" fill="rgb(100%, 0%, 0%)" fill-opacity="1" stroke-width="0.01" stroke-linecap="butt" stroke-linejoin="miter" stroke="rgb(0%, 0%, 0%)" stroke-opacity="1" stroke-miterlimit="10" d="M 524.332031 25.386719 C 524.332031 26.722656 522.332031 26.722656 522.332031 25.386719 C 522.332031 24.054688 524.332031 24.054688 524.332031 25.386719 "/>
<path fill-rule="nonzero" fill="rgb(100%, 0%, 0%)" fill-opacity="1" stroke-width="0.01" stroke-linecap="butt" stroke-linejoin="miter" stroke="rgb(0%, 0%, 0%)" stroke-opacity="1" stroke-miterlimit="10" d="M 539.992188 47.855469 C 539.992188 49.1875 537.992188 49.1875 537.992188 47.855469 C 537.992188 46.523438 539.992188 46.523438 539.992188 47.855469 "/>
<path fill-rule="nonzero" fill="rgb(100%, 0%, 0%)" fill-opacity="1" stroke-width="0.01" stroke-linecap="butt" stroke-linejoin="miter" stroke="rgb(0%, 0%, 0%)" stroke-opacity="1" stroke-miterlimit="10" d="M 342.414062 477.332031 C 342.414062 478.664062 340.414062 478.664062 340.414062 477.332031 C 340.414062 476 342.414062 476 342.414062 477.332031 "/>
<path fill-rule="nonzero" fill="rgb(100%, 0%, 0%)" fill-opacity="1" stroke-width="0.01" stroke-linecap="butt" stroke-linejoin="miter" stroke="rgb(0%, 0%, 0%)" stroke-opacity="1" stroke-miterlimit="10" d="M 524.226562 423.132812 C 524.226562 424.464844 522.226562 424.464844 522.226562 423.132812 C 522.226562 421.796875 524.226562 421.796875 524.226562 423.132812 "/>
<path fill-rule="nonzero" fill="rgb(100%, 0%, 0%)" fill-opacity="1" stroke-width="0.01" stroke-linecap="butt" stroke-linejoin="miter" stroke="rgb(0%, 0%, 0%)" stroke-opacity="1" stroke-miterlimit="10" d="M 496.640625 430.078125 C 496.640625 431.410156 494.640625 431.410156 494.640625 430.078125 C 494.640625 428.742188 496.640625 428.742188 496.640625 430.078125 "/>
<path fill-rule="nonzero" fill="rgb(100%, 0%, 0%)" fill-opacity="1" stroke-width="0.01" stroke-linecap="butt" stroke-linejoin="miter" stroke="rgb(0%, 0%, 0%)" stroke-opacity="1" stroke-miterlimit="10" d="M 150.371094 477.070312 C 150.371094 478.40625 148.371094 478.40625 148.371094 477.070312 C 148.371094 475.738281 150.371094 475.738281 150.371094 477.070312 "/>
<path fill-rule="nonzero" fill="rgb(100%, 0%, 0%)" fill-opacity="1" stroke-width="0.01" stroke-linecap="butt" stroke-linejoin="miter" stroke="rgb(0%, 0%, 0%)" stroke-opacity="1" stroke-miterlimit="10" d="M 247.316406 57.308594 C 247.316406 58.640625 245.316406 58.640625 245.316406 57.308594 C 245.316406 55.976562 247.316406 55.976562 247.316406 57.308594 "/>
<path fill-rule="nonzero" fill="rgb(100%, 0%, 0%)" fill-opacity="1" stroke-width="0.01" stroke-linecap="butt" stroke-linejoin="miter" stroke="rgb(0%, 0%, 0%)" stroke-opacity="1" stroke-miterlimit="10" d="M 296.949219 20 C 296.949219 21.332031 294.949219 21.332031 294.949219 20 C 294.949219 18.667969 296.949219 18.667969 296.949219 20 "/>
<path fill-rule="nonzero" fill="rgb(100%, 0%, 0%)" fill-opacity="1" stroke-width="0.01" stroke-linecap="butt" stroke-linejoin="miter" stroke="rgb(0%, 0%, 0%)" stroke-opacity="1" stroke-miterlimit="10" d="M 406.011719 573.605469 C 406.011719 574.9375 404.011719 574.9375 404.011719 573.605469 C 404.011719 572.273438 406.011719 572.273438 406.011719 573.605469 "/>
<path fill-rule="nonzero" fill="rgb(100%, 0%, 0%)" fill-opacity="1" stroke-width="0.01" stroke-linecap="butt" stroke-linejoin="miter" stroke="rgb(0%, 0%, 0%)" stroke-opacity="1" stroke-miterlimit="10" d="M 433.515625 567.078125 C 433.515625 568.410156 431.515625 568.410156 431.515625 567.078125 C 431.515625 565.746094 433.515625 565.746094 433.515625 567.078125 "/>
<path fill-rule="nonzero" fill="rgb(100%, 0%, 0%)" fill-opacity="1" stroke-width="0.01" stroke-linecap="butt" stroke-linejoin="miter" stroke="rgb(0%, 0%, 0%)" stroke-opacity="1" stroke-miterlimit="10" d="M 378.433594 580 C 378.433594 581.332031 376.433594 581.332031 376.433594 580 C 376.433594 578.667969 378.433594 578.667969 378.433594 580 "/>
<path fill-rule="nonzero" fill="rgb(100%, 0%, 0%)" fill-opacity="1" stroke-width="0.01" stroke-linecap="butt" stroke-linejoin="miter" stroke="rgb(0%, 0%, 0%)" stroke-opacity="1" stroke-miterlimit="10" d="M 260.179688 23.589844 C 260.179688 24.921875 258.179688 24.921875 258.179688 23.589844 C 258.179688 22.257812 260.179688 22.257812 260.179688 23.589844 "/>
<path fill-rule="nonzero" fill="rgb(100%, 0%, 0%)" fill-opacity="1" stroke-width="0.01" stroke-linecap="butt" stroke-linejoin="miter" stroke="rgb(0%, 0%, 0%)" stroke-opacity="1" stroke-miterlimit="10" d="M 518.496094 280.113281 C 518.496094 281.449219 516.496094 281.449219 516.496094 280.113281 C 516.496094 278.78125 518.496094 278.78125 518.496094 280.113281 "/>
<path fill-rule="nonzero" fill="rgb(100%, 0%, 0%)" fill-opacity="1" stroke-width="0.01" stroke-linecap="butt" stroke-linejoin="miter" stroke="rgb(0%, 0%, 0%)" stroke-opacity="1" stroke-miterlimit="10" d="M 295.457031 285.496094 C 295.457031 286.828125 293.457031 286.828125 293.457031 285.496094 C 293.457031 284.160156 295.457031 284.160156 295.457031 285.496094 "/>
<path fill-rule="nonzero" fill="rgb(100%, 0%, 0%)" fill-opacity="1" stroke-width="0.01" stroke-linecap="butt" stroke-linejoin="miter" stroke="rgb(0%, 0%, 0%)" stroke-opacity="1" stroke-miterlimit="10" d="M 257.679688 300.996094 C 257.679688 302.328125 255.679688 302.328125 255.679688 300.996094 C 255.679688 299.664062 257.679688 299.664062 257.679688 300.996094 "/>
<path fill-rule="nonzero" fill="rgb(100%, 0%, 0%)" fill-opacity="1" stroke-width="0.01" stroke-linecap="butt" stroke-linejoin="miter" stroke="rgb(0%, 0%, 0%)" stroke-opacity="1" stroke-miterlimit="10" d="M 310.132812 251.234375 C 310.132812 252.566406 308.132812 252.566406 308.132812 251.234375 C 308.132812 249.898438 310.132812 249.898438 310.132812 251.234375 "/>
<path fill-rule="nonzero" fill="rgb(100%, 0%, 0%)" fill-opacity="1" stroke-width="0.01" stroke-linecap="butt" stroke-linejoin="miter" stroke="rgb(0%, 0%, 0%)" stroke-opacity="1" stroke-miterlimit="10" d="M 311.84375 319.183594 C 311.84375 320.515625 309.84375 320.515625 309.84375 319.183594 C 309.84375 317.851562 311.84375 317.851562 311.84375 319.183594 "/>
<path fill-rule="nonzero" fill="rgb(100%, 0%, 0%)" fill-opacity="1" stroke-width="0.01" stroke-linecap="butt" stroke-linejoin="miter" stroke="rgb(0%, 0%, 0%)" stroke-opacity="1" stroke-miterlimit="10" d="M 334.027344 298.585938 C 334.027344 299.917969 332.027344 299.917969 332.027344 298.585938 C 332.027344 297.253906 334.027344 297.253906 334.027344 298.585938 "/>
<path fill-rule="nonzero" fill="rgb(100%, 0%, 0%)" fill-opacity="1" stroke-width="0.01" stroke-linecap="butt" stroke-linejoin="miter" stroke="rgb(0%, 0%, 0%)" stroke-opacity="1" stroke-miterlimit="10" d="M 254.769531 271.289062 C 254.769531 272.625 252.769531 272.625 252.769531 271.289062 C 252.769531 269.957031 254.769531 269.957031 254.769531 271.289062 "/>
<path fill-rule="nonzero" fill="rgb(100%, 0%, 0%)" fill-opacity="1" stroke-width="0.01" stroke-linecap="butt" stroke-linejoin="miter" stroke="rgb(0%, 0%, 0%)" stroke-opacity="1" stroke-miterlimit="10" d="M 279.183594 252.675781 C 279.183594 254.007812 277.183594 254.007812 277.183594 252.675781 C 277.183594 251.34375 279.183594 251.34375 279.183594 252.675781 "/>
<path fill-rule="nonzero" fill="rgb(100%, 0%, 0%)" fill-opacity="1" stroke-width="0.01" stroke-linecap="butt" stroke-linejoin="miter" stroke="rgb(0%, 0%, 0%)" stroke-opacity="1" stroke-miterlimit="10" d="M 335.390625 268.753906 C 335.390625 270.089844 333.390625 270.089844 333.390625 268.753906 C 333.390625 267.421875 335.390625 267.421875 335.390625 268.753906 "/>
<path fill-rule="nonzero" fill="rgb(100%, 0%, 0%)" fill-opacity="1" stroke-width="0.01" stroke-linecap="butt" stroke-linejoin="miter" stroke="rgb(0%, 0%, 0%)" stroke-opacity="1" stroke-miterlimit="10" d="M 280.613281 320.882812 C 280.613281 322.214844 278.613281 322.214844 278.613281 320.882812 C 278.613281 319.546875 280.613281 319.546875 280.613281 320.882812 "/>
<path fill-rule="nonzero" fill="rgb(100%, 0%, 0%)" fill-opacity="1" stroke-width="0.01" stroke-linecap="butt" stroke-linejoin="miter" stroke="rgb(0%, 0%, 0%)" stroke-opacity="1" stroke-miterlimit="10" d="M 555.734375 70.261719 C 555.734375 71.59375 553.734375 71.59375 553.734375 70.261719 C 553.734375 68.925781 555.734375 68.925781 555.734375 70.261719 "/>
<path fill-rule="nonzero" fill="rgb(100%, 0%, 0%)" fill-opacity="1" stroke-width="0.01" stroke-linecap="butt" stroke-linejoin="miter" stroke="rgb(0%, 0%, 0%)" stroke-opacity="1" stroke-miterlimit="10" d="M 321.039062 49.648438 C 321.039062 50.984375 319.039062 50.984375 319.039062 49.648438 C 319.039062 48.316406 321.039062 48.316406 321.039062 49.648438 "/>
<path fill-rule="nonzero" fill="rgb(100%, 0%, 0%)" fill-opacity="1" stroke-width="0.01" stroke-linecap="butt" stroke-linejoin="miter" stroke="rgb(0%, 0%, 0%)" stroke-opacity="1" stroke-miterlimit="10" d="M 231.289062 108.253906 C 231.289062 109.585938 229.289062 109.585938 229.289062 108.253906 C 229.289062 106.917969 231.289062 106.917969 231.289062 108.253906 "/>
<path fill-rule="nonzero" fill="rgb(100%, 0%, 0%)" fill-opacity="1" stroke-width="0.01" stroke-linecap="butt" stroke-linejoin="miter" stroke="rgb(0%, 0%, 0%)" stroke-opacity="1" stroke-miterlimit="10" d="M 351.855469 429.777344 C 351.855469 431.109375 349.855469 431.109375 349.855469 429.777344 C 349.855469 428.441406 351.855469 428.441406 351.855469 429.777344 "/>
<path fill-rule="nonzero" fill="rgb(100%, 0%, 0%)" fill-opacity="1" stroke-width="0.01" stroke-linecap="butt" stroke-linejoin="miter" stroke="rgb(0%, 0%, 0%)" stroke-opacity="1" stroke-miterlimit="10" d="M 226.378906 37.199219 C 226.378906 38.535156 224.378906 38.535156 224.378906 37.199219 C 224.378906 35.867188 226.378906 35.867188 226.378906 37.199219 "/>
</svg>
