<?xml version="1.0" encoding="UTF-8"?>
<svg xmlns="http://www.w3.org/2000/svg" xmlns:xlink="http://www.w3.org/1999/xlink" width="600" height="600" viewBox="0 0 600 600">
<rect x="-60" y="-60" width="720" height="720" fill="rgb(100%, 100%, 100%)" fill-opacity="1"/>
<path fill="none" stroke-width="0.2" stroke-linecap="butt" stroke-linejoin="miter" stroke="rgb(26.666667%, 26.666667%, 26.666667%)" stroke-opacity="1" stroke-miterlimit="10" d="M 263.019531 284.898438 L 285.480469 242.234375 "/>
<path fill-rule="nonzero" fill="rgb(26.666667%, 26.666667%, 26.666667%)" fill-opacity="1" d="M 285.546875 242.109375 L 285.523438 242.257812 L 285.441406 242.214844 L 285.546875 242.109375 "/>
<path fill="none" stroke-width="0.2" stroke-linecap="butt" stroke-linejoin="miter" stroke="rgb(26.666667%, 26.666667%, 26.666667%)" stroke-opacity="1" stroke-miterlimit="10" d="M 342.351562 238.355469 L 287.152344 241.167969 "/>
<path fill-rule="nonzero" fill="rgb(26.666667%, 26.666667%, 26.666667%)" fill-opacity="1" d="M 287.011719 241.175781 L 287.152344 241.121094 L 287.15625 241.214844 L 287.011719 241.175781 "/>
<path fill="none" stroke-width="0.2" stroke-linecap="butt" stroke-linejoin="miter" stroke="rgb(26.666667%, 26.666667%, 26.666667%)" stroke-opacity="1" stroke-miterlimit="10" d="M 580 291.878906 L 566.554688 311.960938 "/>
<path fill-rule="nonzero" fill="rgb(26.666667%, 26.666667%, 26.666667%)" fill-opacity="1" d="M 566.472656 312.078125 L 566.515625 311.933594 L 566.59375 311.988281 L 566.472656 312.078125 "/>
<path fill="none" stroke-width="0.2" stroke-linecap="butt" stroke-linejoin="miter" stroke="rgb(26.666667%, 26.666667%, 26.666667%)" stroke-opacity="1" stroke-miterlimit="10" d="M 313.847656 239.648438 L 287.152344 241.160156 "/>
<path fill-rule="nonzero" fill="rgb(26.666667%, 26.666667%, 26.666667%)" fill-opacity="1" d="M 287.011719 241.167969 L 287.152344 241.113281 L 287.15625 241.207031 L 287.011719 241.167969 "/>
<path fill="none" stroke-width="0.2" stroke-linecap="butt" stroke-linejoin="miter" stroke="rgb(26.666667%, 26.666667%, 26.666667%)" stroke-opacity="1" stroke-miterlimit="10" d="M 548.300781 155.433594 L 523.125 163.144531 "/>
<path fill-rule="nonzero" fill="rgb(26.666667%, 26.666667%, 26.666667%)" fill-opacity="1" d="M 522.988281 163.1875 L 523.113281 163.097656 L 523.136719 163.1875 L 522.988281 163.1875 "/>
<path fill="none" stroke-width="0.2" stroke-linecap="butt" stroke-linejoin="miter" stroke="rgb(26.666667%, 26.666667%, 26.666667%)" stroke-opacity="1" stroke-miterlimit="10" d="M 284.820312 190.851562 L 285.984375 240.082031 "/>
<path fill-rule="nonzero" fill="rgb(26.666667%, 26.666667%, 26.666667%)" fill-opacity="1" d="M 285.988281 240.226562 L 285.941406 240.082031 L 286.03125 240.082031 L 285.988281 240.226562 "/>
<path fill="none" stroke-width="0.2" stroke-linecap="butt" stroke-linejoin="miter" stroke="rgb(26.666667%, 26.666667%, 26.666667%)" stroke-opacity="1" stroke-miterlimit="10" d="M 290.839844 215.675781 L 286.226562 240.101562 "/>
<path fill-rule="nonzero" fill="rgb(26.666667%, 26.666667%, 26.666667%)" fill-opacity="1" d="M 286.199219 240.242188 L 286.179688 240.09375 L 286.269531 240.109375 L 286.199219 240.242188 "/>
<path fill="none" stroke-width="0.2" stroke-linecap="butt" stroke-linejoin="miter" stroke="rgb(26.666667%, 26.666667%, 26.666667%)" stroke-opacity="1" stroke-miterlimit="10" d="M 408.296875 39.445312 L 384.066406 30.136719 "/>
<path fill-rule="nonzero" fill="rgb(26.666667%, 26.666667%, 26.666667%)" fill-opacity="1" d="M 383.933594 30.082031 L 384.082031 30.089844 L 384.046875 30.179688 L 383.933594 30.082031 "/>
<path fill="none" stroke-width="0.2" stroke-linecap="butt" stroke-linejoin="miter" stroke="rgb(26.666667%, 26.666667%, 26.666667%)" stroke-opacity="1" stroke-miterlimit="10" d="M 471.96875 451.386719 L 443.601562 448.027344 "/>
<path fill-rule="nonzero" fill="rgb(26.666667%, 26.666667%, 26.666667%)" fill-opacity="1" d="M 443.460938 448.007812 L 443.605469 447.980469 L 443.59375 448.070312 L 443.460938 448.007812 "/>
<path fill="none" stroke-width="0.2" stroke-linecap="butt" stroke-linejoin="miter" stroke="rgb(26.666667%, 26.666667%, 26.666667%)" stroke-opacity="1" stroke-miterlimit="10" d="M 115.945312 80.289062 L 138.050781 67.269531 "/>
<path fill-rule="nonzero" fill="rgb(26.666667%, 26.666667%, 26.666667%)" fill-opacity="1" d="M 138.175781 67.199219 L 138.074219 67.308594 L 138.027344 67.230469 L 138.175781 67.199219 "/>
<path fill="none" stroke-width="0.2" stroke-linecap="butt" stroke-linejoin="miter" stroke="rgb(26.666667%, 26.666667%, 26.666667%)" stroke-opacity="1" stroke-miterlimit="10" d="M 287.476562 265.421875 L 286.082031 242.367188 "/>
<path fill-rule="nonzero" fill="rgb(26.666667%, 26.666667%, 26.666667%)" fill-opacity="1" d="M 286.074219 242.222656 L 286.128906 242.363281 L 286.035156 242.367188 L 286.074219 242.222656 "/>
<path fill="none" stroke-width="0.2" stroke-linecap="butt" stroke-linejoin="miter" stroke="rgb(26.666667%, 26.666667%, 26.666667%)" stroke-opacity="1" stroke-miterlimit="10" d="M 322.476562 207.71875 L 286.855469 240.453125 "/>
<path fill-rule="nonzero" fill="rgb(26.666667%, 26.666667%, 26.666667%)" fill-opacity="1" d="M 286.75 240.546875 L 286.824219 240.417969 L 286.886719 240.484375 L 286.75 240.546875 "/>
<path fill="none" stroke-width="0.2" stroke-linecap="butt" stroke-linejoin="miter" stroke="rgb(26.666667%, 26.666667%, 26.666667%)" stroke-opacity="1" stroke-miterlimit="10" d="M 552.074219 334.039062 L 565.292969 313.867188 "/>
<path fill-rule="nonzero" fill="rgb(26.666667%, 26.666667%, 26.666667%)" fill-opacity="1" d="M 565.371094 313.746094 L 565.332031 313.890625 L 565.253906 313.839844 L 565.371094 313.746094 "/>
<path fill="none" stroke-width="0.2" stroke-linecap="butt" stroke-linejoin="miter" stroke="rgb(26.666667%, 26.666667%, 26.666667%)" stroke-opacity="1" stroke-miterlimit="10" d="M 427.878906 580 L 453.210938 572.796875 "/>
<path fill-rule="nonzero" fill="rgb(26.666667%, 26.666667%, 26.666667%)" fill-opacity="1" d="M 453.347656 572.757812 L 453.226562 572.839844 L 453.199219 572.75 L 453.347656 572.757812 "/>
<path fill="none" stroke-width="0.2" stroke-linecap="butt" stroke-linejoin="miter" stroke="rgb(26.666667%, 26.666667%, 26.666667%)" stroke-opacity="1" stroke-miterlimit="10" d="M 422.035156 467.214844 L 441.636719 448.675781 "/>
<path fill-rule="nonzero" fill="rgb(26.666667%, 26.666667%, 26.666667%)" fill-opacity="1" d="M 441.738281 448.578125 L 441.667969 448.710938 L 441.605469 448.644531 L 441.738281 448.578125 "/>
<path fill="none" stroke-width="0.2" stroke-linecap="butt" stroke-linejoin="miter" stroke="rgb(26.666667%, 26.666667%, 26.666667%)" stroke-opacity="1" stroke-miterlimit="10" d="M 493.523438 170.53125 L 520.921875 163.753906 "/>
<path fill-rule="nonzero" fill="rgb(26.666667%, 26.666667%, 26.666667%)" fill-opacity="1" d="M 521.0625 163.71875 L 520.933594 163.796875 L 520.910156 163.707031 L 521.0625 163.71875 "/>
<path fill="none" stroke-width="0.2" stroke-linecap="butt" stroke-linejoin="miter" stroke="rgb(26.666667%, 26.666667%, 26.666667%)" stroke-opacity="1" stroke-miterlimit="10" d="M 493.523438 170.53125 L 467.5625 175.179688 "/>
<path fill-rule="nonzero" fill="rgb(26.666667%, 26.666667%, 26.666667%)" fill-opacity="1" d="M 467.421875 175.203125 L 467.554688 175.132812 L 467.570312 175.222656 L 467.421875 175.203125 "/>
<path fill="none" stroke-width="0.2" stroke-linecap="butt" stroke-linejoin="miter" stroke="rgb(26.666667%, 26.666667%, 26.666667%)" stroke-opacity="1" stroke-miterlimit="10" d="M 357.703125 20 L 381.933594 29.316406 "/>
<path fill-rule="nonzero" fill="rgb(26.666667%, 26.666667%, 26.666667%)" fill-opacity="1" d="M 382.066406 29.367188 L 381.914062 29.359375 L 381.949219 29.273438 L 382.066406 29.367188 "/>
<path fill="none" stroke-width="0.2" stroke-linecap="butt" stroke-linejoin="miter" stroke="rgb(26.666667%, 26.666667%, 26.666667%)" stroke-opacity="1" stroke-miterlimit="10" d="M 229.925781 237.453125 L 284.871094 241.148438 "/>
<path fill-rule="nonzero" fill="rgb(26.666667%, 26.666667%, 26.666667%)" fill-opacity="1" d="M 285.015625 241.15625 L 284.871094 241.195312 L 284.875 241.101562 L 285.015625 241.15625 "/>
<path fill="none" stroke-width="0.2" stroke-linecap="butt" stroke-linejoin="miter" stroke="rgb(26.666667%, 26.666667%, 26.666667%)" stroke-opacity="1" stroke-miterlimit="10" d="M 249.015625 260.738281 L 285.003906 241.757812 "/>
<path fill-rule="nonzero" fill="rgb(26.666667%, 26.666667%, 26.666667%)" fill-opacity="1" d="M 285.128906 241.691406 L 285.023438 241.800781 L 284.980469 241.71875 L 285.128906 241.691406 "/>
<path fill="none" stroke-width="0.2" stroke-linecap="butt" stroke-linejoin="miter" stroke="rgb(26.666667%, 26.666667%, 26.666667%)" stroke-opacity="1" stroke-miterlimit="10" d="M 268.027344 438.574219 L 281.902344 458.21875 "/>
<path fill-rule="nonzero" fill="rgb(26.666667%, 26.666667%, 26.666667%)" fill-opacity="1" d="M 281.988281 458.335938 L 281.867188 458.246094 L 281.941406 458.195312 L 281.988281 458.335938 "/>
<path fill="none" stroke-width="0.2" stroke-linecap="butt" stroke-linejoin="miter" stroke="rgb(26.666667%, 26.666667%, 26.666667%)" stroke-opacity="1" stroke-miterlimit="10" d="M 268.027344 438.574219 L 253.46875 419.328125 "/>
<path fill-rule="nonzero" fill="rgb(26.666667%, 26.666667%, 26.666667%)" fill-opacity="1" d="M 253.382812 419.214844 L 253.507812 419.300781 L 253.433594 419.355469 L 253.382812 419.214844 "/>
<path fill="none" stroke-width="0.2" stroke-linecap="butt" stroke-linejoin="miter" stroke="rgb(26.666667%, 26.666667%, 26.666667%)" stroke-opacity="1" stroke-miterlimit="10" d="M 301.347656 289.007812 L 286.363281 242.3125 "/>
<path fill-rule="nonzero" fill="rgb(26.666667%, 26.666667%, 26.666667%)" fill-opacity="1" d="M 286.320312 242.175781 L 286.40625 242.296875 L 286.316406 242.328125 L 286.320312 242.175781 "/>
<path fill="none" stroke-width="0.2" stroke-linecap="butt" stroke-linejoin="miter" stroke="rgb(26.666667%, 26.666667%, 26.666667%)" stroke-opacity="1" stroke-miterlimit="10" d="M 162.183594 53.171875 L 140.023438 66.113281 "/>
<path fill-rule="nonzero" fill="rgb(26.666667%, 26.666667%, 26.666667%)" fill-opacity="1" d="M 139.902344 66.183594 L 140 66.074219 L 140.046875 66.152344 L 139.902344 66.183594 "/>
<path fill="none" stroke-width="0.2" stroke-linecap="butt" stroke-linejoin="miter" stroke="rgb(26.666667%, 26.666667%, 26.666667%)" stroke-opacity="1" stroke-miterlimit="10" d="M 56.703125 367.539062 L 62.066406 334.925781 "/>
<path fill-rule="nonzero" fill="rgb(26.666667%, 26.666667%, 26.666667%)" fill-opacity="1" d="M 62.089844 334.785156 L 62.113281 334.933594 L 62.023438 334.917969 L 62.089844 334.785156 "/>
<path fill="none" stroke-width="0.2" stroke-linecap="butt" stroke-linejoin="miter" stroke="rgb(26.666667%, 26.666667%, 26.666667%)" stroke-opacity="1" stroke-miterlimit="10" d="M 56.703125 367.539062 L 80.929688 397.585938 "/>
<path fill-rule="nonzero" fill="rgb(26.666667%, 26.666667%, 26.666667%)" fill-opacity="1" d="M 81.019531 397.695312 L 80.894531 397.613281 L 80.964844 397.554688 L 81.019531 397.695312 "/>
<path fill="none" stroke-width="0.2" stroke-linecap="butt" stroke-linejoin="miter" stroke="rgb(26.666667%, 26.666667%, 26.666667%)" stroke-opacity="1" stroke-miterlimit="10" d="M 56.703125 367.539062 L 51.332031 400.539062 "/>
<path fill-rule="nonzero" fill="rgb(26.666667%, 26.666667%, 26.666667%)" fill-opacity="1" d="M 51.308594 400.679688 L 51.289062 400.53125 L 51.378906 400.546875 L 51.308594 400.679688 "/>
<path fill="none" stroke-width="0.2" stroke-linecap="butt" stroke-linejoin="miter" stroke="rgb(26.666667%, 26.666667%, 26.666667%)" stroke-opacity="1" stroke-miterlimit="10" d="M 56.703125 367.539062 L 24.949219 388.320312 "/>
<path fill-rule="nonzero" fill="rgb(26.666667%, 26.666667%, 26.666667%)" fill-opacity="1" d="M 24.828125 388.398438 L 24.921875 388.28125 L 24.972656 388.359375 L 24.828125 388.398438 "/>
<path fill="none" stroke-width="0.2" stroke-linecap="butt" stroke-linejoin="miter" stroke="rgb(26.666667%, 26.666667%, 26.666667%)" stroke-opacity="1" stroke-miterlimit="10" d="M 56.703125 367.539062 L 92.089844 373.023438 "/>
<path fill-rule="nonzero" fill="rgb(26.666667%, 26.666667%, 26.666667%)" fill-opacity="1" d="M 92.230469 373.042969 L 92.082031 373.066406 L 92.097656 372.976562 L 92.230469 373.042969 "/>
<path fill="none" stroke-width="0.2" stroke-linecap="butt" stroke-linejoin="miter" stroke="rgb(26.666667%, 26.666667%, 26.666667%)" stroke-opacity="1" stroke-miterlimit="10" d="M 56.703125 367.539062 L 88.59375 346.605469 "/>
<path fill-rule="nonzero" fill="rgb(26.666667%, 26.666667%, 26.666667%)" fill-opacity="1" d="M 88.714844 346.527344 L 88.621094 346.644531 L 88.570312 346.566406 L 88.714844 346.527344 "/>
<path fill="none" stroke-width="0.2" stroke-linecap="butt" stroke-linejoin="miter" stroke="rgb(26.666667%, 26.666667%, 26.666667%)" stroke-opacity="1" stroke-miterlimit="10" d="M 56.703125 367.539062 L 21.128906 361.949219 "/>
<path fill-rule="nonzero" fill="rgb(26.666667%, 26.666667%, 26.666667%)" fill-opacity="1" d="M 20.988281 361.925781 L 21.136719 361.902344 L 21.121094 361.996094 L 20.988281 361.925781 "/>
<path fill="none" stroke-width="0.2" stroke-linecap="butt" stroke-linejoin="miter" stroke="rgb(26.666667%, 26.666667%, 26.666667%)" stroke-opacity="1" stroke-miterlimit="10" d="M 56.703125 367.539062 L 32.578125 337.285156 "/>
<path fill-rule="nonzero" fill="rgb(26.666667%, 26.666667%, 26.666667%)" fill-opacity="1" d="M 32.492188 337.175781 L 32.617188 337.257812 L 32.542969 337.316406 L 32.492188 337.175781 "/>
<path fill="none" stroke-width="0.2" stroke-linecap="butt" stroke-linejoin="miter" stroke="rgb(26.666667%, 26.666667%, 26.666667%)" stroke-opacity="1" stroke-miterlimit="10" d="M 480.613281 564.542969 L 455.40625 572.152344 "/>
<path fill-rule="nonzero" fill="rgb(26.666667%, 26.666667%, 26.666667%)" fill-opacity="1" d="M 455.269531 572.195312 L 455.390625 572.109375 L 455.417969 572.195312 L 455.269531 572.195312 "/>
<path fill="none" stroke-width="0.2" stroke-linecap="butt" stroke-linejoin="miter" stroke="rgb(26.666667%, 26.666667%, 26.666667%)" stroke-opacity="1" stroke-miterlimit="10" d="M 250.886719 204.871094 L 285.21875 240.402344 "/>
<path fill-rule="nonzero" fill="rgb(26.666667%, 26.666667%, 26.666667%)" fill-opacity="1" d="M 285.316406 240.503906 L 285.1875 240.433594 L 285.253906 240.371094 L 285.316406 240.503906 "/>
<path fill="none" stroke-width="0.2" stroke-linecap="butt" stroke-linejoin="miter" stroke="rgb(26.666667%, 26.666667%, 26.666667%)" stroke-opacity="1" stroke-miterlimit="10" d="M 326.402344 268.1875 L 286.964844 241.859375 "/>
<path fill-rule="nonzero" fill="rgb(26.666667%, 26.666667%, 26.666667%)" fill-opacity="1" d="M 286.84375 241.78125 L 286.988281 241.820312 L 286.9375 241.898438 L 286.84375 241.78125 "/>
<path fill="none" stroke-width="0.2" stroke-linecap="butt" stroke-linejoin="miter" stroke="rgb(26.666667%, 26.666667%, 26.666667%)" stroke-opacity="1" stroke-miterlimit="10" d="M 432.488281 423.175781 L 442.039062 446.832031 "/>
<path fill-rule="nonzero" fill="rgb(26.666667%, 26.666667%, 26.666667%)" fill-opacity="1" d="M 442.089844 446.964844 L 441.996094 446.847656 L 442.082031 446.816406 L 442.089844 446.964844 "/>
<path fill="none" stroke-width="0.2" stroke-linecap="butt" stroke-linejoin="miter" stroke="rgb(26.666667%, 26.666667%, 26.666667%)" stroke-opacity="1" stroke-miterlimit="10" d="M 259.746094 231.222656 L 284.945312 240.816406 "/>
<path fill-rule="nonzero" fill="rgb(26.666667%, 26.666667%, 26.666667%)" fill-opacity="1" d="M 285.078125 240.867188 L 284.929688 240.863281 L 284.960938 240.773438 L 285.078125 240.867188 "/>
<path fill-rule="nonzero" fill="rgb(100%, 0%, 0%)" fill-opacity="1" stroke-width="0.01" stroke-linecap="butt" stroke-linejoin="miter" stroke="rgb(0%, 0%, 0%)" stroke-opacity="1" stroke-miterlimit="10" d="M 264.019531 284.898438 C 264.019531 286.230469 262.019531 286.230469 262.019531 284.898438 C 262.019531 283.5625 264.019531 283.5625 264.019531 284.898438 "/>
<path fill-rule="nonzero" fill="rgb(100%, 0%, 0%)" fill-opacity="1" stroke-width="0.01" stroke-linecap="butt" stroke-linejoin="miter" stroke="rgb(0%, 0%, 0%)" stroke-opacity="1" stroke-miterlimit="10" d="M 287.011719 241.226562 C 287.011719 242.558594 285.011719 242.558594 285.011719 241.226562 C 285.011719 239.890625 287.011719 239.890625 287.011719 241.226562 "/>
<path fill-rule="nonzero" fill="rgb(100%, 0%, 0%)" fill-opacity="1" stroke-width="0.01" stroke-linecap="butt" stroke-linejoin="miter" stroke="rgb(0%, 0%, 0%)" stroke-opacity="1" stroke-miterlimit="10" d="M 343.351562 238.355469 C 343.351562 239.6875 341.351562 239.6875 341.351562 238.355469 C 341.351562 237.023438 343.351562 237.023438 343.351562 238.355469 "/>
<path fill-rule="nonzero" fill="rgb(100%, 0%, 0%)" fill-opacity="1" stroke-width="0.01" stroke-linecap="butt" stroke-linejoin="miter" stroke="rgb(0%, 0%, 0%)" stroke-opacity="1" stroke-miterlimit="10" d="M 581 291.878906 C 581 293.210938 579 293.210938 579 291.878906 C 579 290.546875 581 290.546875 581 291.878906 "/>
<path fill-rule="nonzero" fill="rgb(100%, 0%, 0%)" fill-opacity="1" stroke-width="0.01" stroke-linecap="butt" stroke-linejoin="miter" stroke="rgb(0%, 0%, 0%)" stroke-opacity="1" stroke-miterlimit="10" d="M 566.917969 312.910156 C 566.917969 314.242188 564.917969 314.242188 564.917969 312.910156 C 564.917969 311.578125 566.917969 311.578125 566.917969 312.910156 "/>
<path fill-rule="nonzero" fill="rgb(100%, 0%, 0%)" fill-opacity="1" stroke-width="0.01" stroke-linecap="butt" stroke-linejoin="miter" stroke="rgb(0%, 0%, 0%)" stroke-opacity="1" stroke-miterlimit="10" d="M 314.847656 239.648438 C 314.847656 240.980469 312.847656 240.980469 312.847656 239.648438 C 312.847656 238.316406 314.847656 238.316406 314.847656 239.648438 "/>
<path fill-rule="nonzero" fill="rgb(100%, 0%, 0%)" fill-opacity="1" stroke-width="0.01" stroke-linecap="butt" stroke-linejoin="miter" stroke="rgb(0%, 0%, 0%)" stroke-opacity="1" stroke-miterlimit="10" d="M 549.300781 155.433594 C 549.300781 156.769531 547.300781 156.769531 547.300781 155.433594 C 547.300781 154.101562 549.300781 154.101562 549.300781 155.433594 "/>
<path fill-rule="nonzero" fill="rgb(100%, 0%, 0%)" fill-opacity="1" stroke-width="0.01" stroke-linecap="butt" stroke-linejoin="miter" stroke="rgb(0%, 0%, 0%)" stroke-opacity="1" stroke-miterlimit="10" d="M 523.03125 163.476562 C 523.03125 164.8125 521.03125 164.8125 521.03125 163.476562 C 521.03125 162.144531 523.03125 162.144531 523.03125 163.476562 "/>
<path fill-rule="nonzero" fill="rgb(100%, 0%, 0%)" fill-opacity="1" stroke-width="0.01" stroke-linecap="butt" stroke-linejoin="miter" stroke="rgb(0%, 0%, 0%)" stroke-opacity="1" stroke-miterlimit="10" d="M 285.820312 190.851562 C 285.820312 192.1875 283.820312 192.1875 283.820312 190.851562 C 283.820312 189.519531 285.820312 189.519531 285.820312 190.851562 "/>
<path fill-rule="nonzero" fill="rgb(100%, 0%, 0%)" fill-opacity="1" stroke-width="0.01" stroke-linecap="butt" stroke-linejoin="miter" stroke="rgb(0%, 0%, 0%)" stroke-opacity="1" stroke-miterlimit="10" d="M 291.839844 215.675781 C 291.839844 217.007812 289.839844 217.007812 289.839844 215.675781 C 289.839844 214.34375 291.839844 214.34375 291.839844 215.675781 "/>
<path fill-rule="nonzero" fill="rgb(100%, 0%, 0%)" fill-opacity="1" stroke-width="0.01" stroke-linecap="butt" stroke-linejoin="miter" stroke="rgb(0%, 0%, 0%)" stroke-opacity="1" stroke-miterlimit="10" d="M 409.296875 39.445312 C 409.296875 40.777344 407.296875 40.777344 407.296875 39.445312 C 407.296875 38.109375 409.296875 38.109375 409.296875 39.445312 "/>
<path fill-rule="nonzero" fill="rgb(100%, 0%, 0%)" fill-opacity="1" stroke-width="0.01" stroke-linecap="butt" stroke-linejoin="miter" stroke="rgb(0%, 0%, 0%)" stroke-opacity="1" stroke-miterlimit="10" d="M 384 29.726562 C 384 31.058594 382 31.058594 382 29.726562 C 382 28.390625 384 28.390625 384 29.726562 "/>
<path fill-rule="nonzero" fill="rgb(100%, 0%, 0%)" fill-opacity="1" stroke-width="0.01" stroke-linecap="butt" stroke-linejoin="miter" stroke="rgb(0%, 0%, 0%)" stroke-opacity="1" stroke-miterlimit="10" d="M 472.96875 451.386719 C 472.96875 452.71875 470.96875 452.71875 470.96875 451.386719 C 470.96875 450.050781 472.96875 450.050781 472.96875 451.386719 "/>
<path fill-rule="nonzero" fill="rgb(100%, 0%, 0%)" fill-opacity="1" stroke-width="0.01" stroke-linecap="butt" stroke-linejoin="miter" stroke="rgb(0%, 0%, 0%)" stroke-opacity="1" stroke-miterlimit="10" d="M 443.464844 447.890625 C 443.464844 449.226562 441.464844 449.226562 441.464844 447.890625 C 441.464844 446.558594 443.464844 446.558594 443.464844 447.890625 "/>
<path fill-rule="nonzero" fill="rgb(100%, 0%, 0%)" fill-opacity="1" stroke-width="0.01" stroke-linecap="butt" stroke-linejoin="miter" stroke="rgb(0%, 0%, 0%)" stroke-opacity="1" stroke-miterlimit="10" d="M 116.945312 80.289062 C 116.945312 81.625 114.945312 81.625 114.945312 80.289062 C 114.945312 78.957031 116.945312 78.957031 116.945312 80.289062 "/>
<path fill-rule="nonzero" fill="rgb(100%, 0%, 0%)" fill-opacity="1" stroke-width="0.01" stroke-linecap="butt" stroke-linejoin="miter" stroke="rgb(0%, 0%, 0%)" stroke-opacity="1" stroke-miterlimit="10" d="M 140.035156 66.691406 C 140.035156 68.023438 138.035156 68.023438 138.035156 66.691406 C 138.035156 65.355469 140.035156 65.355469 140.035156 66.691406 "/>
<path fill-rule="nonzero" fill="rgb(100%, 0%, 0%)" fill-opacity="1" stroke-width="0.01" stroke-linecap="butt" stroke-linejoin="miter" stroke="rgb(0%, 0%, 0%)" stroke-opacity="1" stroke-miterlimit="10" d="M 288.476562 265.421875 C 288.476562 266.753906 286.476562 266.753906 286.476562 265.421875 C 286.476562 264.089844 288.476562 264.089844 288.476562 265.421875 "/>
<path fill-rule="nonzero" fill="rgb(100%, 0%, 0%)" fill-opacity="1" stroke-width="0.01" stroke-linecap="butt" stroke-linejoin="miter" stroke="rgb(0%, 0%, 0%)" stroke-opacity="1" stroke-miterlimit="10" d="M 323.476562 207.71875 C 323.476562 209.050781 321.476562 209.050781 321.476562 207.71875 C 321.476562 206.382812 323.476562 206.382812 323.476562 207.71875 "/>
<path fill-rule="nonzero" fill="rgb(100%, 0%, 0%)" fill-opacity="1" stroke-width="0.01" stroke-linecap="butt" stroke-linejoin="miter" stroke="rgb(0%, 0%, 0%)" stroke-opacity="1" stroke-miterlimit="10" d="M 553.074219 334.039062 C 553.074219 335.371094 551.074219 335.371094 551.074219 334.039062 C 551.074219 332.707031 553.074219 332.707031 553.074219 334.039062 "/>
<path fill-rule="nonzero" fill="rgb(100%, 0%, 0%)" fill-opacity="1" stroke-width="0.01" stroke-linecap="butt" stroke-linejoin="miter" stroke="rgb(0%, 0%, 0%)" stroke-opacity="1" stroke-miterlimit="10" d="M 428.878906 580 C 428.878906 581.332031 426.878906 581.332031 426.878906 580 C 426.878906 578.667969 428.878906 578.667969 428.878906 580 "/>
<path fill-rule="nonzero" fill="rgb(100%, 0%, 0%)" fill-opacity="1" stroke-width="0.01" stroke-linecap="butt" stroke-linejoin="miter" stroke="rgb(0%, 0%, 0%)" stroke-opacity="1" stroke-miterlimit="10" d="M 455.3125 572.484375 C 455.3125 573.816406 453.3125 573.816406 453.3125 572.484375 C 453.3125 571.148438 455.3125 571.148438 455.3125 572.484375 "/>
<path fill-rule="nonzero" fill="rgb(100%, 0%, 0%)" fill-opacity="1" stroke-width="0.01" stroke-linecap="butt" stroke-linejoin="miter" stroke="rgb(0%, 0%, 0%)" stroke-opacity="1" stroke-miterlimit="10" d="M 423.035156 467.214844 C 423.035156 468.546875 421.035156 468.546875 421.035156 467.214844 C 421.035156 465.882812 423.035156 465.882812 423.035156 467.214844 "/>
<path fill-rule="nonzero" fill="rgb(100%, 0%, 0%)" fill-opacity="1" stroke-width="0.01" stroke-linecap="butt" stroke-linejoin="miter" stroke="rgb(0%, 0%, 0%)" stroke-opacity="1" stroke-miterlimit="10" d="M 494.523438 170.53125 C 494.523438 171.867188 492.523438 171.867188 492.523438 170.53125 C 492.523438 169.199219 494.523438 169.199219 494.523438 170.53125 "/>
<path fill-rule="nonzero" fill="rgb(100%, 0%, 0%)" fill-opacity="1" stroke-width="0.01" stroke-linecap="butt" stroke-linejoin="miter" stroke="rgb(0%, 0%, 0%)" stroke-opacity="1" stroke-miterlimit="10" d="M 467.4375 175.378906 C 467.4375 176.714844 465.4375 176.714844 465.4375 175.378906 C 465.4375 174.046875 467.4375 174.046875 467.4375 175.378906 "/>
<path fill-rule="nonzero" fill="rgb(100%, 0%, 0%)" fill-opacity="1" stroke-width="0.01" stroke-linecap="butt" stroke-linejoin="miter" stroke="rgb(0%, 0%, 0%)" stroke-opacity="1" stroke-miterlimit="10" d="M 358.703125 20 C 358.703125 21.332031 356.703125 21.332031 356.703125 20 C 356.703125 18.667969 358.703125 18.667969 358.703125 20 "/>
<path fill-rule="nonzero" fill="rgb(100%, 0%, 0%)" fill-opacity="1" stroke-width="0.01" stroke-linecap="butt" stroke-linejoin="miter" stroke="rgb(0%, 0%, 0%)" stroke-opacity="1" stroke-miterlimit="10" d="M 230.925781 237.453125 C 230.925781 238.789062 228.925781 238.789062 228.925781 237.453125 C 228.925781 236.121094 230.925781 236.121094 230.925781 237.453125 "/>
<path fill-rule="nonzero" fill="rgb(100%, 0%, 0%)" fill-opacity="1" stroke-width="0.01" stroke-linecap="butt" stroke-linejoin="miter" stroke="rgb(0%, 0%, 0%)" stroke-opacity="1" stroke-miterlimit="10" d="M 250.015625 260.738281 C 250.015625 262.070312 248.015625 262.070312 248.015625 260.738281 C 248.015625 259.402344 250.015625 259.402344 250.015625 260.738281 "/>
<path fill-rule="nonzero" fill="rgb(100%, 0%, 0%)" fill-opacity="1" stroke-width="0.01" stroke-linecap="butt" stroke-linejoin="miter" stroke="rgb(0%, 0%, 0%)" stroke-opacity="1" stroke-miterlimit="10" d="M 269.027344 438.574219 C 269.027344 439.90625 267.027344 439.90625 267.027344 438.574219 C 267.027344 437.242188 269.027344 437.242188 269.027344 438.574219 "/>
<path fill-rule="nonzero" fill="rgb(100%, 0%, 0%)" fill-opacity="1" stroke-width="0.01" stroke-linecap="butt" stroke-linejoin="miter" stroke="rgb(0%, 0%, 0%)" stroke-opacity="1" stroke-miterlimit="10" d="M 283.5625 459.152344 C 283.5625 460.488281 281.5625 460.488281 281.5625 459.152344 C 281.5625 457.820312 283.5625 457.820312 283.5625 459.152344 "/>
<path fill-rule="nonzero" fill="rgb(100%, 0%, 0%)" fill-opacity="1" stroke-width="0.01" stroke-linecap="butt" stroke-linejoin="miter" stroke="rgb(0%, 0%, 0%)" stroke-opacity="1" stroke-miterlimit="10" d="M 253.78125 418.417969 C 253.78125 419.75 251.78125 419.75 251.78125 418.417969 C 251.78125 417.082031 253.78125 417.082031 253.78125 418.417969 "/>
<path fill-rule="nonzero" fill="rgb(100%, 0%, 0%)" fill-opacity="1" stroke-width="0.01" stroke-linecap="butt" stroke-linejoin="miter" stroke="rgb(0%, 0%, 0%)" stroke-opacity="1" stroke-miterlimit="10" d="M 302.347656 289.007812 C 302.347656 290.339844 300.347656 290.339844 300.347656 289.007812 C 300.347656 287.671875 302.347656 287.671875 302.347656 289.007812 "/>
<path fill-rule="nonzero" fill="rgb(100%, 0%, 0%)" fill-opacity="1" stroke-width="0.01" stroke-linecap="butt" stroke-linejoin="miter" stroke="rgb(0%, 0%, 0%)" stroke-opacity="1" stroke-miterlimit="10" d="M 163.183594 53.171875 C 163.183594 54.503906 161.183594 54.503906 161.183594 53.171875 C 161.183594 51.835938 163.183594 51.835938 163.183594 53.171875 "/>
<path fill-rule="nonzero" fill="rgb(100%, 0%, 0%)" fill-opacity="1" stroke-width="0.01" stroke-linecap="butt" stroke-linejoin="miter" stroke="rgb(0%, 0%, 0%)" stroke-opacity="1" stroke-miterlimit="10" d="M 57.703125 367.539062 C 57.703125 368.871094 55.703125 368.871094 55.703125 367.539062 C 55.703125 366.203125 57.703125 366.203125 57.703125 367.539062 "/>
<path fill-rule="nonzero" fill="rgb(100%, 0%, 0%)" fill-opacity="1" stroke-width="0.01" stroke-linecap="butt" stroke-linejoin="miter" stroke="rgb(0%, 0%, 0%)" stroke-opacity="1" stroke-miterlimit="10" d="M 63.253906 333.800781 C 63.253906 335.132812 61.253906 335.132812 61.253906 333.800781 C 61.253906 332.464844 63.253906 332.464844 63.253906 333.800781 "/>
<path fill-rule="nonzero" fill="rgb(100%, 0%, 0%)" fill-opacity="1" stroke-width="0.01" stroke-linecap="butt" stroke-linejoin="miter" stroke="rgb(0%, 0%, 0%)" stroke-opacity="1" stroke-miterlimit="10" d="M 82.648438 398.472656 C 82.648438 399.808594 80.648438 399.808594 80.648438 398.472656 C 80.648438 397.140625 82.648438 397.140625 82.648438 398.472656 "/>
<path fill-rule="nonzero" fill="rgb(100%, 0%, 0%)" fill-opacity="1" stroke-width="0.01" stroke-linecap="butt" stroke-linejoin="miter" stroke="rgb(0%, 0%, 0%)" stroke-opacity="1" stroke-miterlimit="10" d="M 52.148438 401.667969 C 52.148438 403 50.148438 403 50.148438 401.667969 C 50.148438 400.332031 52.148438 400.332031 52.148438 401.667969 "/>
<path fill-rule="nonzero" fill="rgb(100%, 0%, 0%)" fill-opacity="1" stroke-width="0.01" stroke-linecap="butt" stroke-linejoin="miter" stroke="rgb(0%, 0%, 0%)" stroke-opacity="1" stroke-miterlimit="10" d="M 24.992188 388.945312 C 24.992188 390.28125 22.992188 390.28125 22.992188 388.945312 C 22.992188 387.613281 24.992188 387.613281 24.992188 388.945312 "/>
<path fill-rule="nonzero" fill="rgb(100%, 0%, 0%)" fill-opacity="1" stroke-width="0.01" stroke-linecap="butt" stroke-linejoin="miter" stroke="rgb(0%, 0%, 0%)" stroke-opacity="1" stroke-miterlimit="10" d="M 94.21875 373.199219 C 94.21875 374.53125 92.21875 374.53125 92.21875 373.199219 C 92.21875 371.863281 94.21875 371.863281 94.21875 373.199219 "/>
<path fill-rule="nonzero" fill="rgb(100%, 0%, 0%)" fill-opacity="1" stroke-width="0.01" stroke-linecap="butt" stroke-linejoin="miter" stroke="rgb(0%, 0%, 0%)" stroke-opacity="1" stroke-miterlimit="10" d="M 90.550781 345.976562 C 90.550781 347.3125 88.550781 347.3125 88.550781 345.976562 C 88.550781 344.644531 90.550781 344.644531 90.550781 345.976562 "/>
<path fill-rule="nonzero" fill="rgb(100%, 0%, 0%)" fill-opacity="1" stroke-width="0.01" stroke-linecap="butt" stroke-linejoin="miter" stroke="rgb(0%, 0%, 0%)" stroke-opacity="1" stroke-miterlimit="10" d="M 21 361.769531 C 21 363.105469 19 363.105469 19 361.769531 C 19 360.4375 21 360.4375 21 361.769531 "/>
<path fill-rule="nonzero" fill="rgb(100%, 0%, 0%)" fill-opacity="1" stroke-width="0.01" stroke-linecap="butt" stroke-linejoin="miter" stroke="rgb(0%, 0%, 0%)" stroke-opacity="1" stroke-miterlimit="10" d="M 32.867188 336.390625 C 32.867188 337.726562 30.867188 337.726562 30.867188 336.390625 C 30.867188 335.058594 32.867188 335.058594 32.867188 336.390625 "/>
<path fill-rule="nonzero" fill="rgb(100%, 0%, 0%)" fill-opacity="1" stroke-width="0.01" stroke-linecap="butt" stroke-linejoin="miter" stroke="rgb(0%, 0%, 0%)" stroke-opacity="1" stroke-miterlimit="10" d="M 481.613281 564.542969 C 481.613281 565.878906 479.613281 565.878906 479.613281 564.542969 C 479.613281 563.210938 481.613281 563.210938 481.613281 564.542969 "/>
<path fill-rule="nonzero" fill="rgb(100%, 0%, 0%)" fill-opacity="1" stroke-width="0.01" stroke-linecap="butt" stroke-linejoin="miter" stroke="rgb(0%, 0%, 0%)" stroke-opacity="1" stroke-miterlimit="10" d="M 251.886719 204.871094 C 251.886719 206.203125 249.886719 206.203125 249.886719 204.871094 C 249.886719 203.535156 251.886719 203.535156 251.886719 204.871094 "/>
<path fill-rule="nonzero" fill="rgb(100%, 0%, 0%)" fill-opacity="1" stroke-width="0.01" stroke-linecap="butt" stroke-linejoin="miter" stroke="rgb(0%, 0%, 0%)" stroke-opacity="1" stroke-miterlimit="10" d="M 327.402344 268.1875 C 327.402344 269.523438 325.402344 269.523438 325.402344 268.1875 C 325.402344 266.855469 327.402344 266.855469 327.402344 268.1875 "/>
<path fill-rule="nonzero" fill="rgb(100%, 0%, 0%)" fill-opacity="1" stroke-width="0.01" stroke-linecap="butt" stroke-linejoin="miter" stroke="rgb(0%, 0%, 0%)" stroke-opacity="1" stroke-miterlimit="10" d="M 433.488281 423.175781 C 433.488281 424.511719 431.488281 424.511719 431.488281 423.175781 C 431.488281 421.84375 433.488281 421.84375 433.488281 423.175781 "/>
<path fill-rule="nonzero" fill="rgb(100%, 0%, 0%)" fill-opacity="1" stroke-width="0.01" stroke-linecap="butt" stroke-linejoin="miter" stroke="rgb(0%, 0%, 0%)" stroke-opacity="1" stroke-miterlimit="10" d="M 260.746094 231.222656 C 260.746094 232.558594 258.746094 232.558594 258.746094 231.222656 C 258.746094 229.890625 260.746094 229.890625 260.746094 231.222656 "/>
</svg>
