<?xml version="1.0" encoding="UTF-8"?>
<svg xmlns="http://www.w3.org/2000/svg" xmlns:xlink="http://www.w3.org/1999/xlink" width="600pt" height="600pt" viewBox="0 0 600 600" version="1.1">
<g id="surface311">
<rect x="0" y="0" width="600" height="600" style="fill:rgb(100%,100%,100%);fill-opacity:1;stroke:none;"/>
<path style="fill:none;stroke-width:0.2;stroke-linecap:butt;stroke-linejoin:miter;stroke:rgb(26.666667%,26.666667%,26.666667%);stroke-opacity:1;stroke-miterlimit:10;" d="M 447.261719 486.65625 L 412.867188 525.222656 "/>
<path style=" stroke:none;fill-rule:nonzero;fill:rgb(26.666667%,26.666667%,26.666667%);fill-opacity:1;" d="M 412.769531 525.328125 L 412.832031 525.191406 L 412.902344 525.253906 L 412.769531 525.328125 "/>
<path style="fill:none;stroke-width:0.2;stroke-linecap:butt;stroke-linejoin:miter;stroke:rgb(26.666667%,26.666667%,26.666667%);stroke-opacity:1;stroke-miterlimit:10;" d="M 416.507813 496.953125 L 412.277344 524.945313 "/>
<path style=" stroke:none;fill-rule:nonzero;fill:rgb(26.666667%,26.666667%,26.666667%);fill-opacity:1;" d="M 412.253906 525.085938 L 412.230469 524.9375 L 412.320313 524.953125 L 412.253906 525.085938 "/>
<path style="fill:none;stroke-width:0.2;stroke-linecap:butt;stroke-linejoin:miter;stroke:rgb(26.666667%,26.666667%,26.666667%);stroke-opacity:1;stroke-miterlimit:10;" d="M 580 354.265625 L 571.542969 327.625 "/>
<path style=" stroke:none;fill-rule:nonzero;fill:rgb(26.666667%,26.666667%,26.666667%);fill-opacity:1;" d="M 571.5 327.488281 L 571.585938 327.609375 L 571.5 327.636719 L 571.5 327.488281 "/>
<path style="fill:none;stroke-width:0.2;stroke-linecap:butt;stroke-linejoin:miter;stroke:rgb(26.666667%,26.666667%,26.666667%);stroke-opacity:1;stroke-miterlimit:10;" d="M 367.078125 551.859375 L 411.113281 526.640625 "/>
<path style=" stroke:none;fill-rule:nonzero;fill:rgb(26.666667%,26.666667%,26.666667%);fill-opacity:1;" d="M 411.238281 526.570313 L 411.136719 526.683594 L 411.089844 526.601563 L 411.238281 526.570313 "/>
<path style="fill:none;stroke-width:0.2;stroke-linecap:butt;stroke-linejoin:miter;stroke:rgb(26.666667%,26.666667%,26.666667%);stroke-opacity:1;stroke-miterlimit:10;" d="M 225.339844 441.785156 L 246.683594 425.101563 "/>
<path style=" stroke:none;fill-rule:nonzero;fill:rgb(26.666667%,26.666667%,26.666667%);fill-opacity:1;" d="M 246.796875 425.011719 L 246.714844 425.136719 L 246.65625 425.066406 L 246.796875 425.011719 "/>
<path style="fill:none;stroke-width:0.2;stroke-linecap:butt;stroke-linejoin:miter;stroke:rgb(26.666667%,26.666667%,26.666667%);stroke-opacity:1;stroke-miterlimit:10;" d="M 384.042969 484.085938 L 411.46875 525.125 "/>
<path style=" stroke:none;fill-rule:nonzero;fill:rgb(26.666667%,26.666667%,26.666667%);fill-opacity:1;" d="M 411.550781 525.242188 L 411.433594 525.148438 L 411.507813 525.097656 L 411.550781 525.242188 "/>
<path style="fill:none;stroke-width:0.2;stroke-linecap:butt;stroke-linejoin:miter;stroke:rgb(26.666667%,26.666667%,26.666667%);stroke-opacity:1;stroke-miterlimit:10;" d="M 427.65625 578.78125 L 412.429688 527.171875 "/>
<path style=" stroke:none;fill-rule:nonzero;fill:rgb(26.666667%,26.666667%,26.666667%);fill-opacity:1;" d="M 412.386719 527.035156 L 412.472656 527.15625 L 412.382813 527.183594 L 412.386719 527.035156 "/>
<path style="fill:none;stroke-width:0.2;stroke-linecap:butt;stroke-linejoin:miter;stroke:rgb(26.666667%,26.666667%,26.666667%);stroke-opacity:1;stroke-miterlimit:10;" d="M 516.753906 130.726563 L 491.292969 128.789063 "/>
<path style=" stroke:none;fill-rule:nonzero;fill:rgb(26.666667%,26.666667%,26.666667%);fill-opacity:1;" d="M 491.152344 128.78125 L 491.296875 128.746094 L 491.289063 128.835938 L 491.152344 128.78125 "/>
<path style="fill:none;stroke-width:0.2;stroke-linecap:butt;stroke-linejoin:miter;stroke:rgb(26.666667%,26.666667%,26.666667%);stroke-opacity:1;stroke-miterlimit:10;" d="M 95.847656 453.390625 L 79.058594 477.480469 "/>
<path style=" stroke:none;fill-rule:nonzero;fill:rgb(26.666667%,26.666667%,26.666667%);fill-opacity:1;" d="M 78.976563 477.597656 L 79.019531 477.457031 L 79.097656 477.507813 L 78.976563 477.597656 "/>
<path style="fill:none;stroke-width:0.2;stroke-linecap:butt;stroke-linejoin:miter;stroke:rgb(26.666667%,26.666667%,26.666667%);stroke-opacity:1;stroke-miterlimit:10;" d="M 141.046875 67.117188 L 121.0625 84.914063 "/>
<path style=" stroke:none;fill-rule:nonzero;fill:rgb(26.666667%,26.666667%,26.666667%);fill-opacity:1;" d="M 120.953125 85.011719 L 121.03125 84.882813 L 121.09375 84.949219 L 120.953125 85.011719 "/>
<path style="fill:none;stroke-width:0.2;stroke-linecap:butt;stroke-linejoin:miter;stroke:rgb(26.666667%,26.666667%,26.666667%);stroke-opacity:1;stroke-miterlimit:10;" d="M 415.539063 465.792969 L 412.171875 524.933594 "/>
<path style=" stroke:none;fill-rule:nonzero;fill:rgb(26.666667%,26.666667%,26.666667%);fill-opacity:1;" d="M 412.164063 525.074219 L 412.125 524.929688 L 412.214844 524.9375 L 412.164063 525.074219 "/>
<path style="fill:none;stroke-width:0.2;stroke-linecap:butt;stroke-linejoin:miter;stroke:rgb(26.666667%,26.666667%,26.666667%);stroke-opacity:1;stroke-miterlimit:10;" d="M 389.136719 580 L 411.65625 527.125 "/>
<path style=" stroke:none;fill-rule:nonzero;fill:rgb(26.666667%,26.666667%,26.666667%);fill-opacity:1;" d="M 411.714844 526.992188 L 411.699219 527.144531 L 411.613281 527.105469 L 411.714844 526.992188 "/>
<path style="fill:none;stroke-width:0.2;stroke-linecap:butt;stroke-linejoin:miter;stroke:rgb(26.666667%,26.666667%,26.666667%);stroke-opacity:1;stroke-miterlimit:10;" d="M 562.59375 298.773438 L 570.859375 325.445313 "/>
<path style=" stroke:none;fill-rule:nonzero;fill:rgb(26.666667%,26.666667%,26.666667%);fill-opacity:1;" d="M 570.902344 325.582031 L 570.8125 325.457031 L 570.902344 325.429688 L 570.902344 325.582031 "/>
<path style="fill:none;stroke-width:0.2;stroke-linecap:butt;stroke-linejoin:miter;stroke:rgb(26.666667%,26.666667%,26.666667%);stroke-opacity:1;stroke-miterlimit:10;" d="M 358.878906 20 L 334.820313 29.679688 "/>
<path style=" stroke:none;fill-rule:nonzero;fill:rgb(26.666667%,26.666667%,26.666667%);fill-opacity:1;" d="M 334.6875 29.730469 L 334.804688 29.636719 L 334.835938 29.722656 L 334.6875 29.730469 "/>
<path style="fill:none;stroke-width:0.2;stroke-linecap:butt;stroke-linejoin:miter;stroke:rgb(26.666667%,26.666667%,26.666667%);stroke-opacity:1;stroke-miterlimit:10;" d="M 50.066406 472.355469 L 77.289063 478.179688 "/>
<path style=" stroke:none;fill-rule:nonzero;fill:rgb(26.666667%,26.666667%,26.666667%);fill-opacity:1;" d="M 77.429688 478.210938 L 77.277344 478.226563 L 77.296875 478.136719 L 77.429688 478.210938 "/>
<path style="fill:none;stroke-width:0.2;stroke-linecap:butt;stroke-linejoin:miter;stroke:rgb(26.666667%,26.666667%,26.666667%);stroke-opacity:1;stroke-miterlimit:10;" d="M 272.46875 407.03125 L 248.523438 423.742188 "/>
<path style=" stroke:none;fill-rule:nonzero;fill:rgb(26.666667%,26.666667%,26.666667%);fill-opacity:1;" d="M 248.40625 423.824219 L 248.496094 423.707031 L 248.546875 423.78125 L 248.40625 423.824219 "/>
<path style="fill:none;stroke-width:0.2;stroke-linecap:butt;stroke-linejoin:miter;stroke:rgb(26.666667%,26.666667%,26.666667%);stroke-opacity:1;stroke-miterlimit:10;" d="M 272.46875 407.03125 L 295.46875 392.523438 "/>
<path style=" stroke:none;fill-rule:nonzero;fill:rgb(26.666667%,26.666667%,26.666667%);fill-opacity:1;" d="M 295.589844 392.445313 L 295.492188 392.5625 L 295.445313 392.484375 L 295.589844 392.445313 "/>
<path style="fill:none;stroke-width:0.2;stroke-linecap:butt;stroke-linejoin:miter;stroke:rgb(26.666667%,26.666667%,26.666667%);stroke-opacity:1;stroke-miterlimit:10;" d="M 463.589844 126.660156 L 489.015625 128.617188 "/>
<path style=" stroke:none;fill-rule:nonzero;fill:rgb(26.666667%,26.666667%,26.666667%);fill-opacity:1;" d="M 489.15625 128.628906 L 489.011719 128.664063 L 489.019531 128.570313 L 489.15625 128.628906 "/>
<path style="fill:none;stroke-width:0.2;stroke-linecap:butt;stroke-linejoin:miter;stroke:rgb(26.666667%,26.666667%,26.666667%);stroke-opacity:1;stroke-miterlimit:10;" d="M 359.152344 512.039063 L 411 525.78125 "/>
<path style=" stroke:none;fill-rule:nonzero;fill:rgb(26.666667%,26.666667%,26.666667%);fill-opacity:1;" d="M 411.140625 525.816406 L 410.988281 525.824219 L 411.011719 525.738281 L 411.140625 525.816406 "/>
<path style="fill:none;stroke-width:0.2;stroke-linecap:butt;stroke-linejoin:miter;stroke:rgb(26.666667%,26.666667%,26.666667%);stroke-opacity:1;stroke-miterlimit:10;" d="M 453.789063 557.769531 L 413.015625 526.765625 "/>
<path style=" stroke:none;fill-rule:nonzero;fill:rgb(26.666667%,26.666667%,26.666667%);fill-opacity:1;" d="M 412.902344 526.679688 L 413.042969 526.730469 L 412.988281 526.800781 L 412.902344 526.679688 "/>
<path style="fill:none;stroke-width:0.2;stroke-linecap:butt;stroke-linejoin:miter;stroke:rgb(26.666667%,26.666667%,26.666667%);stroke-opacity:1;stroke-miterlimit:10;" d="M 46.425781 275.300781 L 71.699219 279.101563 "/>
<path style=" stroke:none;fill-rule:nonzero;fill:rgb(26.666667%,26.666667%,26.666667%);fill-opacity:1;" d="M 71.839844 279.125 L 71.691406 279.148438 L 71.703125 279.054688 L 71.839844 279.125 "/>
<path style="fill:none;stroke-width:0.2;stroke-linecap:butt;stroke-linejoin:miter;stroke:rgb(26.666667%,26.666667%,26.666667%);stroke-opacity:1;stroke-miterlimit:10;" d="M 46.425781 275.300781 L 21.132813 271.679688 "/>
<path style=" stroke:none;fill-rule:nonzero;fill:rgb(26.666667%,26.666667%,26.666667%);fill-opacity:1;" d="M 20.988281 271.660156 L 21.136719 271.636719 L 21.125 271.726563 L 20.988281 271.660156 "/>
<path style="fill:none;stroke-width:0.2;stroke-linecap:butt;stroke-linejoin:miter;stroke:rgb(26.666667%,26.666667%,26.666667%);stroke-opacity:1;stroke-miterlimit:10;" d="M 385.472656 522.808594 L 410.972656 525.933594 "/>
<path style=" stroke:none;fill-rule:nonzero;fill:rgb(26.666667%,26.666667%,26.666667%);fill-opacity:1;" d="M 411.113281 525.953125 L 410.964844 525.980469 L 410.976563 525.890625 L 411.113281 525.953125 "/>
<path style="fill:none;stroke-width:0.2;stroke-linecap:butt;stroke-linejoin:miter;stroke:rgb(26.666667%,26.666667%,26.666667%);stroke-opacity:1;stroke-miterlimit:10;" d="M 99.324219 104.160156 L 119.351563 86.433594 "/>
<path style=" stroke:none;fill-rule:nonzero;fill:rgb(26.666667%,26.666667%,26.666667%);fill-opacity:1;" d="M 119.457031 86.339844 L 119.382813 86.46875 L 119.320313 86.398438 L 119.457031 86.339844 "/>
<path style="fill:none;stroke-width:0.2;stroke-linecap:butt;stroke-linejoin:miter;stroke:rgb(26.666667%,26.666667%,26.666667%);stroke-opacity:1;stroke-miterlimit:10;" d="M 278.558594 236.433594 L 317.832031 250.003906 "/>
<path style=" stroke:none;fill-rule:nonzero;fill:rgb(26.666667%,26.666667%,26.666667%);fill-opacity:1;" d="M 317.96875 250.050781 L 317.816406 250.046875 L 317.847656 249.957031 L 317.96875 250.050781 "/>
<path style="fill:none;stroke-width:0.2;stroke-linecap:butt;stroke-linejoin:miter;stroke:rgb(26.666667%,26.666667%,26.666667%);stroke-opacity:1;stroke-miterlimit:10;" d="M 278.558594 236.433594 L 242.53125 224.164063 "/>
<path style=" stroke:none;fill-rule:nonzero;fill:rgb(26.666667%,26.666667%,26.666667%);fill-opacity:1;" d="M 242.394531 224.117188 L 242.546875 224.121094 L 242.515625 224.207031 L 242.394531 224.117188 "/>
<path style="fill:none;stroke-width:0.2;stroke-linecap:butt;stroke-linejoin:miter;stroke:rgb(26.666667%,26.666667%,26.666667%);stroke-opacity:1;stroke-miterlimit:10;" d="M 278.558594 236.433594 L 295.1875 270.011719 "/>
<path style=" stroke:none;fill-rule:nonzero;fill:rgb(26.666667%,26.666667%,26.666667%);fill-opacity:1;" d="M 295.253906 270.140625 L 295.148438 270.035156 L 295.230469 269.992188 L 295.253906 270.140625 "/>
<path style="fill:none;stroke-width:0.2;stroke-linecap:butt;stroke-linejoin:miter;stroke:rgb(26.666667%,26.666667%,26.666667%);stroke-opacity:1;stroke-miterlimit:10;" d="M 278.558594 236.433594 L 310.5 219.390625 "/>
<path style=" stroke:none;fill-rule:nonzero;fill:rgb(26.666667%,26.666667%,26.666667%);fill-opacity:1;" d="M 310.625 219.324219 L 310.519531 219.429688 L 310.476563 219.347656 L 310.625 219.324219 "/>
<path style="fill:none;stroke-width:0.2;stroke-linecap:butt;stroke-linejoin:miter;stroke:rgb(26.666667%,26.666667%,26.666667%);stroke-opacity:1;stroke-miterlimit:10;" d="M 278.558594 236.433594 L 290.769531 196.613281 "/>
<path style=" stroke:none;fill-rule:nonzero;fill:rgb(26.666667%,26.666667%,26.666667%);fill-opacity:1;" d="M 290.8125 196.476563 L 290.816406 196.628906 L 290.726563 196.601563 L 290.8125 196.476563 "/>
<path style="fill:none;stroke-width:0.2;stroke-linecap:butt;stroke-linejoin:miter;stroke:rgb(26.666667%,26.666667%,26.666667%);stroke-opacity:1;stroke-miterlimit:10;" d="M 278.558594 236.433594 L 261.851563 201.003906 "/>
<path style=" stroke:none;fill-rule:nonzero;fill:rgb(26.666667%,26.666667%,26.666667%);fill-opacity:1;" d="M 261.792969 200.875 L 261.894531 200.984375 L 261.8125 201.023438 L 261.792969 200.875 "/>
<path style="fill:none;stroke-width:0.2;stroke-linecap:butt;stroke-linejoin:miter;stroke:rgb(26.666667%,26.666667%,26.666667%);stroke-opacity:1;stroke-miterlimit:10;" d="M 278.558594 236.433594 L 266.875 274.753906 "/>
<path style=" stroke:none;fill-rule:nonzero;fill:rgb(26.666667%,26.666667%,26.666667%);fill-opacity:1;" d="M 266.832031 274.886719 L 266.832031 274.738281 L 266.917969 274.765625 L 266.832031 274.886719 "/>
<path style="fill:none;stroke-width:0.2;stroke-linecap:butt;stroke-linejoin:miter;stroke:rgb(26.666667%,26.666667%,26.666667%);stroke-opacity:1;stroke-miterlimit:10;" d="M 278.558594 236.433594 L 243.613281 255.773438 "/>
<path style=" stroke:none;fill-rule:nonzero;fill:rgb(26.666667%,26.666667%,26.666667%);fill-opacity:1;" d="M 243.488281 255.84375 L 243.589844 255.734375 L 243.632813 255.8125 L 243.488281 255.84375 "/>
<path style="fill:none;stroke-width:0.2;stroke-linecap:butt;stroke-linejoin:miter;stroke:rgb(26.666667%,26.666667%,26.666667%);stroke-opacity:1;stroke-miterlimit:10;" d="M 308.53125 39.828125 L 332.695313 30.515625 "/>
<path style=" stroke:none;fill-rule:nonzero;fill:rgb(26.666667%,26.666667%,26.666667%);fill-opacity:1;" d="M 332.828125 30.464844 L 332.710938 30.558594 L 332.675781 30.472656 L 332.828125 30.464844 "/>
<path style="fill:none;stroke-width:0.2;stroke-linecap:butt;stroke-linejoin:miter;stroke:rgb(26.666667%,26.666667%,26.666667%);stroke-opacity:1;stroke-miterlimit:10;" d="M 465.578125 517.632813 L 413.234375 525.894531 "/>
<path style=" stroke:none;fill-rule:nonzero;fill:rgb(26.666667%,26.666667%,26.666667%);fill-opacity:1;" d="M 413.09375 525.917969 L 413.226563 525.851563 L 413.242188 525.941406 L 413.09375 525.917969 "/>
<path style="fill:none;stroke-width:0.2;stroke-linecap:butt;stroke-linejoin:miter;stroke:rgb(26.666667%,26.666667%,26.666667%);stroke-opacity:1;stroke-miterlimit:10;" d="M 406.894531 554.980469 L 411.902344 527.199219 "/>
<path style=" stroke:none;fill-rule:nonzero;fill:rgb(26.666667%,26.666667%,26.666667%);fill-opacity:1;" d="M 411.929688 527.058594 L 411.949219 527.207031 L 411.855469 527.191406 L 411.929688 527.058594 "/>
<path style="fill:none;stroke-width:0.2;stroke-linecap:butt;stroke-linejoin:miter;stroke:rgb(26.666667%,26.666667%,26.666667%);stroke-opacity:1;stroke-miterlimit:10;" d="M 89.15625 507.976563 L 78.796875 479.492188 "/>
<path style=" stroke:none;fill-rule:nonzero;fill:rgb(26.666667%,26.666667%,26.666667%);fill-opacity:1;" d="M 78.746094 479.359375 L 78.839844 479.476563 L 78.753906 479.507813 L 78.746094 479.359375 "/>
<path style="fill:none;stroke-width:0.2;stroke-linecap:butt;stroke-linejoin:miter;stroke:rgb(26.666667%,26.666667%,26.666667%);stroke-opacity:1;stroke-miterlimit:10;" d="M 438.699219 529.417969 L 413.238281 526.214844 "/>
<path style=" stroke:none;fill-rule:nonzero;fill:rgb(26.666667%,26.666667%,26.666667%);fill-opacity:1;" d="M 413.097656 526.199219 L 413.246094 526.171875 L 413.234375 526.261719 L 413.097656 526.199219 "/>
<path style="fill-rule:nonzero;fill:rgb(100%,0%,0%);fill-opacity:1;stroke-width:0.01;stroke-linecap:butt;stroke-linejoin:miter;stroke:rgb(0%,0%,0%);stroke-opacity:1;stroke-miterlimit:10;" d="M 448.261719 486.65625 C 448.261719 487.988281 446.261719 487.988281 446.261719 486.65625 C 446.261719 485.324219 448.261719 485.324219 448.261719 486.65625 "/>
<path style="fill-rule:nonzero;fill:rgb(100%,0%,0%);fill-opacity:1;stroke-width:0.01;stroke-linecap:butt;stroke-linejoin:miter;stroke:rgb(0%,0%,0%);stroke-opacity:1;stroke-miterlimit:10;" d="M 413.105469 526.074219 C 413.105469 527.40625 411.105469 527.40625 411.105469 526.074219 C 411.105469 524.742188 413.105469 524.742188 413.105469 526.074219 "/>
<path style="fill-rule:nonzero;fill:rgb(100%,0%,0%);fill-opacity:1;stroke-width:0.01;stroke-linecap:butt;stroke-linejoin:miter;stroke:rgb(0%,0%,0%);stroke-opacity:1;stroke-miterlimit:10;" d="M 417.507813 496.953125 C 417.507813 498.285156 415.507813 498.285156 415.507813 496.953125 C 415.507813 495.621094 417.507813 495.621094 417.507813 496.953125 "/>
<path style="fill-rule:nonzero;fill:rgb(100%,0%,0%);fill-opacity:1;stroke-width:0.01;stroke-linecap:butt;stroke-linejoin:miter;stroke:rgb(0%,0%,0%);stroke-opacity:1;stroke-miterlimit:10;" d="M 581 354.265625 C 581 355.597656 579 355.597656 579 354.265625 C 579 352.929688 581 352.929688 581 354.265625 "/>
<path style="fill-rule:nonzero;fill:rgb(100%,0%,0%);fill-opacity:1;stroke-width:0.01;stroke-linecap:butt;stroke-linejoin:miter;stroke:rgb(0%,0%,0%);stroke-opacity:1;stroke-miterlimit:10;" d="M 572.195313 326.535156 C 572.195313 327.867188 570.195313 327.867188 570.195313 326.535156 C 570.195313 325.203125 572.195313 325.203125 572.195313 326.535156 "/>
<path style="fill-rule:nonzero;fill:rgb(100%,0%,0%);fill-opacity:1;stroke-width:0.01;stroke-linecap:butt;stroke-linejoin:miter;stroke:rgb(0%,0%,0%);stroke-opacity:1;stroke-miterlimit:10;" d="M 368.078125 551.859375 C 368.078125 553.191406 366.078125 553.191406 366.078125 551.859375 C 366.078125 550.523438 368.078125 550.523438 368.078125 551.859375 "/>
<path style="fill-rule:nonzero;fill:rgb(100%,0%,0%);fill-opacity:1;stroke-width:0.01;stroke-linecap:butt;stroke-linejoin:miter;stroke:rgb(0%,0%,0%);stroke-opacity:1;stroke-miterlimit:10;" d="M 226.339844 441.785156 C 226.339844 443.121094 224.339844 443.121094 224.339844 441.785156 C 224.339844 440.453125 226.339844 440.453125 226.339844 441.785156 "/>
<path style="fill-rule:nonzero;fill:rgb(100%,0%,0%);fill-opacity:1;stroke-width:0.01;stroke-linecap:butt;stroke-linejoin:miter;stroke:rgb(0%,0%,0%);stroke-opacity:1;stroke-miterlimit:10;" d="M 248.585938 424.398438 C 248.585938 425.730469 246.585938 425.730469 246.585938 424.398438 C 246.585938 423.0625 248.585938 423.0625 248.585938 424.398438 "/>
<path style="fill-rule:nonzero;fill:rgb(100%,0%,0%);fill-opacity:1;stroke-width:0.01;stroke-linecap:butt;stroke-linejoin:miter;stroke:rgb(0%,0%,0%);stroke-opacity:1;stroke-miterlimit:10;" d="M 385.042969 484.085938 C 385.042969 485.421875 383.042969 485.421875 383.042969 484.085938 C 383.042969 482.753906 385.042969 482.753906 385.042969 484.085938 "/>
<path style="fill-rule:nonzero;fill:rgb(100%,0%,0%);fill-opacity:1;stroke-width:0.01;stroke-linecap:butt;stroke-linejoin:miter;stroke:rgb(0%,0%,0%);stroke-opacity:1;stroke-miterlimit:10;" d="M 428.65625 578.78125 C 428.65625 580.117188 426.65625 580.117188 426.65625 578.78125 C 426.65625 577.449219 428.65625 577.449219 428.65625 578.78125 "/>
<path style="fill-rule:nonzero;fill:rgb(100%,0%,0%);fill-opacity:1;stroke-width:0.01;stroke-linecap:butt;stroke-linejoin:miter;stroke:rgb(0%,0%,0%);stroke-opacity:1;stroke-miterlimit:10;" d="M 517.753906 130.726563 C 517.753906 132.058594 515.753906 132.058594 515.753906 130.726563 C 515.753906 129.390625 517.753906 129.390625 517.753906 130.726563 "/>
<path style="fill-rule:nonzero;fill:rgb(100%,0%,0%);fill-opacity:1;stroke-width:0.01;stroke-linecap:butt;stroke-linejoin:miter;stroke:rgb(0%,0%,0%);stroke-opacity:1;stroke-miterlimit:10;" d="M 491.152344 128.703125 C 491.152344 130.039063 489.152344 130.039063 489.152344 128.703125 C 489.152344 127.371094 491.152344 127.371094 491.152344 128.703125 "/>
<path style="fill-rule:nonzero;fill:rgb(100%,0%,0%);fill-opacity:1;stroke-width:0.01;stroke-linecap:butt;stroke-linejoin:miter;stroke:rgb(0%,0%,0%);stroke-opacity:1;stroke-miterlimit:10;" d="M 96.847656 453.390625 C 96.847656 454.722656 94.847656 454.722656 94.847656 453.390625 C 94.847656 452.054688 96.847656 452.054688 96.847656 453.390625 "/>
<path style="fill-rule:nonzero;fill:rgb(100%,0%,0%);fill-opacity:1;stroke-width:0.01;stroke-linecap:butt;stroke-linejoin:miter;stroke:rgb(0%,0%,0%);stroke-opacity:1;stroke-miterlimit:10;" d="M 79.40625 478.417969 C 79.40625 479.753906 77.40625 479.753906 77.40625 478.417969 C 77.40625 477.085938 79.40625 477.085938 79.40625 478.417969 "/>
<path style="fill-rule:nonzero;fill:rgb(100%,0%,0%);fill-opacity:1;stroke-width:0.01;stroke-linecap:butt;stroke-linejoin:miter;stroke:rgb(0%,0%,0%);stroke-opacity:1;stroke-miterlimit:10;" d="M 142.046875 67.117188 C 142.046875 68.453125 140.046875 68.453125 140.046875 67.117188 C 140.046875 65.785156 142.046875 65.785156 142.046875 67.117188 "/>
<path style="fill-rule:nonzero;fill:rgb(100%,0%,0%);fill-opacity:1;stroke-width:0.01;stroke-linecap:butt;stroke-linejoin:miter;stroke:rgb(0%,0%,0%);stroke-opacity:1;stroke-miterlimit:10;" d="M 121.207031 85.675781 C 121.207031 87.007813 119.207031 87.007813 119.207031 85.675781 C 119.207031 84.34375 121.207031 84.34375 121.207031 85.675781 "/>
<path style="fill-rule:nonzero;fill:rgb(100%,0%,0%);fill-opacity:1;stroke-width:0.01;stroke-linecap:butt;stroke-linejoin:miter;stroke:rgb(0%,0%,0%);stroke-opacity:1;stroke-miterlimit:10;" d="M 416.539063 465.792969 C 416.539063 467.125 414.539063 467.125 414.539063 465.792969 C 414.539063 464.460938 416.539063 464.460938 416.539063 465.792969 "/>
<path style="fill-rule:nonzero;fill:rgb(100%,0%,0%);fill-opacity:1;stroke-width:0.01;stroke-linecap:butt;stroke-linejoin:miter;stroke:rgb(0%,0%,0%);stroke-opacity:1;stroke-miterlimit:10;" d="M 390.136719 580 C 390.136719 581.332031 388.136719 581.332031 388.136719 580 C 388.136719 578.667969 390.136719 578.667969 390.136719 580 "/>
<path style="fill-rule:nonzero;fill:rgb(100%,0%,0%);fill-opacity:1;stroke-width:0.01;stroke-linecap:butt;stroke-linejoin:miter;stroke:rgb(0%,0%,0%);stroke-opacity:1;stroke-miterlimit:10;" d="M 563.59375 298.773438 C 563.59375 300.105469 561.59375 300.105469 561.59375 298.773438 C 561.59375 297.441406 563.59375 297.441406 563.59375 298.773438 "/>
<path style="fill-rule:nonzero;fill:rgb(100%,0%,0%);fill-opacity:1;stroke-width:0.01;stroke-linecap:butt;stroke-linejoin:miter;stroke:rgb(0%,0%,0%);stroke-opacity:1;stroke-miterlimit:10;" d="M 359.878906 20 C 359.878906 21.332031 357.878906 21.332031 357.878906 20 C 357.878906 18.667969 359.878906 18.667969 359.878906 20 "/>
<path style="fill-rule:nonzero;fill:rgb(100%,0%,0%);fill-opacity:1;stroke-width:0.01;stroke-linecap:butt;stroke-linejoin:miter;stroke:rgb(0%,0%,0%);stroke-opacity:1;stroke-miterlimit:10;" d="M 334.761719 30.105469 C 334.761719 31.4375 332.761719 31.4375 332.761719 30.105469 C 332.761719 28.773438 334.761719 28.773438 334.761719 30.105469 "/>
<path style="fill-rule:nonzero;fill:rgb(100%,0%,0%);fill-opacity:1;stroke-width:0.01;stroke-linecap:butt;stroke-linejoin:miter;stroke:rgb(0%,0%,0%);stroke-opacity:1;stroke-miterlimit:10;" d="M 51.066406 472.355469 C 51.066406 473.6875 49.066406 473.6875 49.066406 472.355469 C 49.066406 471.023438 51.066406 471.023438 51.066406 472.355469 "/>
<path style="fill-rule:nonzero;fill:rgb(100%,0%,0%);fill-opacity:1;stroke-width:0.01;stroke-linecap:butt;stroke-linejoin:miter;stroke:rgb(0%,0%,0%);stroke-opacity:1;stroke-miterlimit:10;" d="M 273.46875 407.03125 C 273.46875 408.363281 271.46875 408.363281 271.46875 407.03125 C 271.46875 405.699219 273.46875 405.699219 273.46875 407.03125 "/>
<path style="fill-rule:nonzero;fill:rgb(100%,0%,0%);fill-opacity:1;stroke-width:0.01;stroke-linecap:butt;stroke-linejoin:miter;stroke:rgb(0%,0%,0%);stroke-opacity:1;stroke-miterlimit:10;" d="M 297.433594 391.914063 C 297.433594 393.246094 295.433594 393.246094 295.433594 391.914063 C 295.433594 390.582031 297.433594 390.582031 297.433594 391.914063 "/>
<path style="fill-rule:nonzero;fill:rgb(100%,0%,0%);fill-opacity:1;stroke-width:0.01;stroke-linecap:butt;stroke-linejoin:miter;stroke:rgb(0%,0%,0%);stroke-opacity:1;stroke-miterlimit:10;" d="M 464.589844 126.660156 C 464.589844 127.996094 462.589844 127.996094 462.589844 126.660156 C 462.589844 125.328125 464.589844 125.328125 464.589844 126.660156 "/>
<path style="fill-rule:nonzero;fill:rgb(100%,0%,0%);fill-opacity:1;stroke-width:0.01;stroke-linecap:butt;stroke-linejoin:miter;stroke:rgb(0%,0%,0%);stroke-opacity:1;stroke-miterlimit:10;" d="M 360.152344 512.039063 C 360.152344 513.371094 358.152344 513.371094 358.152344 512.039063 C 358.152344 510.703125 360.152344 510.703125 360.152344 512.039063 "/>
<path style="fill-rule:nonzero;fill:rgb(100%,0%,0%);fill-opacity:1;stroke-width:0.01;stroke-linecap:butt;stroke-linejoin:miter;stroke:rgb(0%,0%,0%);stroke-opacity:1;stroke-miterlimit:10;" d="M 454.789063 557.769531 C 454.789063 559.101563 452.789063 559.101563 452.789063 557.769531 C 452.789063 556.4375 454.789063 556.4375 454.789063 557.769531 "/>
<path style="fill-rule:nonzero;fill:rgb(100%,0%,0%);fill-opacity:1;stroke-width:0.01;stroke-linecap:butt;stroke-linejoin:miter;stroke:rgb(0%,0%,0%);stroke-opacity:1;stroke-miterlimit:10;" d="M 47.425781 275.300781 C 47.425781 276.632813 45.425781 276.632813 45.425781 275.300781 C 45.425781 273.96875 47.425781 273.96875 47.425781 275.300781 "/>
<path style="fill-rule:nonzero;fill:rgb(100%,0%,0%);fill-opacity:1;stroke-width:0.01;stroke-linecap:butt;stroke-linejoin:miter;stroke:rgb(0%,0%,0%);stroke-opacity:1;stroke-miterlimit:10;" d="M 73.828125 279.273438 C 73.828125 280.605469 71.828125 280.605469 71.828125 279.273438 C 71.828125 277.9375 73.828125 277.9375 73.828125 279.273438 "/>
<path style="fill-rule:nonzero;fill:rgb(100%,0%,0%);fill-opacity:1;stroke-width:0.01;stroke-linecap:butt;stroke-linejoin:miter;stroke:rgb(0%,0%,0%);stroke-opacity:1;stroke-miterlimit:10;" d="M 21 271.519531 C 21 272.851563 19 272.851563 19 271.519531 C 19 270.1875 21 270.1875 21 271.519531 "/>
<path style="fill-rule:nonzero;fill:rgb(100%,0%,0%);fill-opacity:1;stroke-width:0.01;stroke-linecap:butt;stroke-linejoin:miter;stroke:rgb(0%,0%,0%);stroke-opacity:1;stroke-miterlimit:10;" d="M 386.472656 522.808594 C 386.472656 524.140625 384.472656 524.140625 384.472656 522.808594 C 384.472656 521.472656 386.472656 521.472656 386.472656 522.808594 "/>
<path style="fill-rule:nonzero;fill:rgb(100%,0%,0%);fill-opacity:1;stroke-width:0.01;stroke-linecap:butt;stroke-linejoin:miter;stroke:rgb(0%,0%,0%);stroke-opacity:1;stroke-miterlimit:10;" d="M 100.324219 104.160156 C 100.324219 105.492188 98.324219 105.492188 98.324219 104.160156 C 98.324219 102.824219 100.324219 102.824219 100.324219 104.160156 "/>
<path style="fill-rule:nonzero;fill:rgb(100%,0%,0%);fill-opacity:1;stroke-width:0.01;stroke-linecap:butt;stroke-linejoin:miter;stroke:rgb(0%,0%,0%);stroke-opacity:1;stroke-miterlimit:10;" d="M 279.558594 236.433594 C 279.558594 237.765625 277.558594 237.765625 277.558594 236.433594 C 277.558594 235.097656 279.558594 235.097656 279.558594 236.433594 "/>
<path style="fill-rule:nonzero;fill:rgb(100%,0%,0%);fill-opacity:1;stroke-width:0.01;stroke-linecap:butt;stroke-linejoin:miter;stroke:rgb(0%,0%,0%);stroke-opacity:1;stroke-miterlimit:10;" d="M 319.914063 250.375 C 319.914063 251.707031 317.914063 251.707031 317.914063 250.375 C 317.914063 249.042969 319.914063 249.042969 319.914063 250.375 "/>
<path style="fill-rule:nonzero;fill:rgb(100%,0%,0%);fill-opacity:1;stroke-width:0.01;stroke-linecap:butt;stroke-linejoin:miter;stroke:rgb(0%,0%,0%);stroke-opacity:1;stroke-miterlimit:10;" d="M 242.449219 223.796875 C 242.449219 225.128906 240.449219 225.128906 240.449219 223.796875 C 240.449219 222.460938 242.449219 222.460938 242.449219 223.796875 "/>
<path style="fill-rule:nonzero;fill:rgb(100%,0%,0%);fill-opacity:1;stroke-width:0.01;stroke-linecap:butt;stroke-linejoin:miter;stroke:rgb(0%,0%,0%);stroke-opacity:1;stroke-miterlimit:10;" d="M 296.695313 271.035156 C 296.695313 272.371094 294.695313 272.371094 294.695313 271.035156 C 294.695313 269.703125 296.695313 269.703125 296.695313 271.035156 "/>
<path style="fill-rule:nonzero;fill:rgb(100%,0%,0%);fill-opacity:1;stroke-width:0.01;stroke-linecap:butt;stroke-linejoin:miter;stroke:rgb(0%,0%,0%);stroke-opacity:1;stroke-miterlimit:10;" d="M 312.507813 218.851563 C 312.507813 220.183594 310.507813 220.183594 310.507813 218.851563 C 310.507813 217.519531 312.507813 217.519531 312.507813 218.851563 "/>
<path style="fill-rule:nonzero;fill:rgb(100%,0%,0%);fill-opacity:1;stroke-width:0.01;stroke-linecap:butt;stroke-linejoin:miter;stroke:rgb(0%,0%,0%);stroke-opacity:1;stroke-miterlimit:10;" d="M 292.105469 195.523438 C 292.105469 196.855469 290.105469 196.855469 290.105469 195.523438 C 290.105469 194.1875 292.105469 194.1875 292.105469 195.523438 "/>
<path style="fill-rule:nonzero;fill:rgb(100%,0%,0%);fill-opacity:1;stroke-width:0.01;stroke-linecap:butt;stroke-linejoin:miter;stroke:rgb(0%,0%,0%);stroke-opacity:1;stroke-miterlimit:10;" d="M 262.367188 199.972656 C 262.367188 201.304688 260.367188 201.304688 260.367188 199.972656 C 260.367188 198.636719 262.367188 198.636719 262.367188 199.972656 "/>
<path style="fill-rule:nonzero;fill:rgb(100%,0%,0%);fill-opacity:1;stroke-width:0.01;stroke-linecap:butt;stroke-linejoin:miter;stroke:rgb(0%,0%,0%);stroke-opacity:1;stroke-miterlimit:10;" d="M 267.542969 275.84375 C 267.542969 277.179688 265.542969 277.179688 265.542969 275.84375 C 265.542969 274.511719 267.542969 274.511719 267.542969 275.84375 "/>
<path style="fill-rule:nonzero;fill:rgb(100%,0%,0%);fill-opacity:1;stroke-width:0.01;stroke-linecap:butt;stroke-linejoin:miter;stroke:rgb(0%,0%,0%);stroke-opacity:1;stroke-miterlimit:10;" d="M 243.613281 256.328125 C 243.613281 257.660156 241.613281 257.660156 241.613281 256.328125 C 241.613281 254.992188 243.613281 254.992188 243.613281 256.328125 "/>
<path style="fill-rule:nonzero;fill:rgb(100%,0%,0%);fill-opacity:1;stroke-width:0.01;stroke-linecap:butt;stroke-linejoin:miter;stroke:rgb(0%,0%,0%);stroke-opacity:1;stroke-miterlimit:10;" d="M 309.53125 39.828125 C 309.53125 41.160156 307.53125 41.160156 307.53125 39.828125 C 307.53125 38.492188 309.53125 38.492188 309.53125 39.828125 "/>
<path style="fill-rule:nonzero;fill:rgb(100%,0%,0%);fill-opacity:1;stroke-width:0.01;stroke-linecap:butt;stroke-linejoin:miter;stroke:rgb(0%,0%,0%);stroke-opacity:1;stroke-miterlimit:10;" d="M 466.578125 517.632813 C 466.578125 518.964844 464.578125 518.964844 464.578125 517.632813 C 464.578125 516.296875 466.578125 516.296875 466.578125 517.632813 "/>
<path style="fill-rule:nonzero;fill:rgb(100%,0%,0%);fill-opacity:1;stroke-width:0.01;stroke-linecap:butt;stroke-linejoin:miter;stroke:rgb(0%,0%,0%);stroke-opacity:1;stroke-miterlimit:10;" d="M 407.894531 554.980469 C 407.894531 556.3125 405.894531 556.3125 405.894531 554.980469 C 405.894531 553.644531 407.894531 553.644531 407.894531 554.980469 "/>
<path style="fill-rule:nonzero;fill:rgb(100%,0%,0%);fill-opacity:1;stroke-width:0.01;stroke-linecap:butt;stroke-linejoin:miter;stroke:rgb(0%,0%,0%);stroke-opacity:1;stroke-miterlimit:10;" d="M 90.15625 507.976563 C 90.15625 509.308594 88.15625 509.308594 88.15625 507.976563 C 88.15625 506.644531 90.15625 506.644531 90.15625 507.976563 "/>
<path style="fill-rule:nonzero;fill:rgb(100%,0%,0%);fill-opacity:1;stroke-width:0.01;stroke-linecap:butt;stroke-linejoin:miter;stroke:rgb(0%,0%,0%);stroke-opacity:1;stroke-miterlimit:10;" d="M 439.699219 529.417969 C 439.699219 530.753906 437.699219 530.753906 437.699219 529.417969 C 437.699219 528.085938 439.699219 528.085938 439.699219 529.417969 "/>
</g>
</svg>
