<?xml version="1.0" encoding="UTF-8"?>
<svg xmlns="http://www.w3.org/2000/svg" xmlns:xlink="http://www.w3.org/1999/xlink" width="600" height="600" viewBox="0 0 600 600">
<rect x="-60" y="-60" width="720" height="720" fill="rgb(100%, 100%, 100%)" fill-opacity="1"/>
<path fill="none" stroke-width="0.2" stroke-linecap="butt" stroke-linejoin="miter" stroke="rgb(26.666667%, 26.666667%, 26.666667%)" stroke-opacity="1" stroke-miterlimit="10" d="M 523.90625 211.8125 C 523.90625 213.8125 520.90625 213.8125 520.90625 211.8125 C 520.90625 209.8125 523.90625 209.8125 523.90625 211.8125 "/>
<path fill="none" stroke-width="0.2" stroke-linecap="butt" stroke-linejoin="miter" stroke="rgb(26.666667%, 26.666667%, 26.666667%)" stroke-opacity="1" stroke-miterlimit="10" d="M 521.34375 212.875 L 453.28125 215.859375 "/>
<path fill-rule="nonzero" fill="rgb(26.666667%, 26.666667%, 26.666667%)" fill-opacity="1" d="M 453.140625 215.863281 L 453.28125 215.8125 L 453.285156 215.90625 L 453.140625 215.863281 "/>
<path fill="none" stroke-width="0.2" stroke-linecap="butt" stroke-linejoin="miter" stroke="rgb(26.666667%, 26.666667%, 26.666667%)" stroke-opacity="1" stroke-miterlimit="10" d="M 521.34375 212.875 L 578.859375 214.929688 "/>
<path fill-rule="nonzero" fill="rgb(26.666667%, 26.666667%, 26.666667%)" fill-opacity="1" d="M 579 214.933594 L 578.855469 214.976562 L 578.859375 214.882812 L 579 214.933594 "/>
<path fill="none" stroke-width="0.2" stroke-linecap="butt" stroke-linejoin="miter" stroke="rgb(26.666667%, 26.666667%, 26.666667%)" stroke-opacity="1" stroke-miterlimit="10" d="M 432.324219 120.039062 L 451.910156 214.789062 "/>
<path fill-rule="nonzero" fill="rgb(26.666667%, 26.666667%, 26.666667%)" fill-opacity="1" d="M 451.9375 214.929688 L 451.863281 214.800781 L 451.953125 214.78125 L 451.9375 214.929688 "/>
<path fill="none" stroke-width="0.2" stroke-linecap="butt" stroke-linejoin="miter" stroke="rgb(26.666667%, 26.666667%, 26.666667%)" stroke-opacity="1" stroke-miterlimit="10" d="M 335.601562 495.949219 L 367.574219 404.238281 "/>
<path fill-rule="nonzero" fill="rgb(26.666667%, 26.666667%, 26.666667%)" fill-opacity="1" d="M 367.621094 404.105469 L 367.617188 404.253906 L 367.53125 404.222656 L 367.621094 404.105469 "/>
<path fill="none" stroke-width="0.2" stroke-linecap="butt" stroke-linejoin="miter" stroke="rgb(26.666667%, 26.666667%, 26.666667%)" stroke-opacity="1" stroke-miterlimit="10" d="M 335.601562 495.949219 L 309.597656 578.910156 "/>
<path fill-rule="nonzero" fill="rgb(26.666667%, 26.666667%, 26.666667%)" fill-opacity="1" d="M 309.554688 579.046875 L 309.554688 578.894531 L 309.640625 578.921875 L 309.554688 579.046875 "/>
<path fill="none" stroke-width="0.2" stroke-linecap="butt" stroke-linejoin="miter" stroke="rgb(26.666667%, 26.666667%, 26.666667%)" stroke-opacity="1" stroke-miterlimit="10" d="M 58.6875 82.664062 L 96.25 145.09375 "/>
<path fill-rule="nonzero" fill="rgb(26.666667%, 26.666667%, 26.666667%)" fill-opacity="1" d="M 96.324219 145.21875 L 96.210938 145.117188 L 96.289062 145.070312 L 96.324219 145.21875 "/>
<path fill="none" stroke-width="0.2" stroke-linecap="butt" stroke-linejoin="miter" stroke="rgb(26.666667%, 26.666667%, 26.666667%)" stroke-opacity="1" stroke-miterlimit="10" d="M 58.6875 82.664062 L 20.601562 20.972656 "/>
<path fill-rule="nonzero" fill="rgb(26.666667%, 26.666667%, 26.666667%)" fill-opacity="1" d="M 20.523438 20.851562 L 20.640625 20.949219 L 20.5625 20.996094 L 20.523438 20.851562 "/>
<path fill="none" stroke-width="0.2" stroke-linecap="butt" stroke-linejoin="miter" stroke="rgb(26.666667%, 26.666667%, 26.666667%)" stroke-opacity="1" stroke-miterlimit="10" d="M 406.3125 309.417969 L 451.636719 216.933594 "/>
<path fill-rule="nonzero" fill="rgb(26.666667%, 26.666667%, 26.666667%)" fill-opacity="1" d="M 451.699219 216.804688 L 451.679688 216.953125 L 451.597656 216.914062 L 451.699219 216.804688 "/>
<path fill="none" stroke-width="0.2" stroke-linecap="butt" stroke-linejoin="miter" stroke="rgb(26.666667%, 26.666667%, 26.666667%)" stroke-opacity="1" stroke-miterlimit="10" d="M 406.3125 309.417969 L 368.382812 402.101562 "/>
<path fill-rule="nonzero" fill="rgb(26.666667%, 26.666667%, 26.666667%)" fill-opacity="1" d="M 368.328125 402.234375 L 368.339844 402.085938 L 368.425781 402.121094 L 368.328125 402.234375 "/>
<path fill-rule="nonzero" fill="rgb(100%, 0%, 0%)" fill-opacity="1" stroke-width="0.01" stroke-linecap="butt" stroke-linejoin="miter" stroke="rgb(0%, 0%, 0%)" stroke-opacity="1" stroke-miterlimit="10" d="M 522.34375 212.875 C 522.34375 214.207031 520.34375 214.207031 520.34375 212.875 C 520.34375 211.542969 522.34375 211.542969 522.34375 212.875 "/>
<path fill-rule="nonzero" fill="rgb(100%, 0%, 0%)" fill-opacity="1" stroke-width="0.01" stroke-linecap="butt" stroke-linejoin="miter" stroke="rgb(0%, 0%, 0%)" stroke-opacity="1" stroke-miterlimit="10" d="M 453.140625 215.910156 C 453.140625 217.242188 451.140625 217.242188 451.140625 215.910156 C 451.140625 214.574219 453.140625 214.574219 453.140625 215.910156 "/>
<path fill-rule="nonzero" fill="rgb(100%, 0%, 0%)" fill-opacity="1" stroke-width="0.01" stroke-linecap="butt" stroke-linejoin="miter" stroke="rgb(0%, 0%, 0%)" stroke-opacity="1" stroke-miterlimit="10" d="M 581 214.96875 C 581 216.304688 579 216.304688 579 214.96875 C 579 213.636719 581 213.636719 581 214.96875 "/>
<path fill-rule="nonzero" fill="rgb(100%, 0%, 0%)" fill-opacity="1" stroke-width="0.01" stroke-linecap="butt" stroke-linejoin="miter" stroke="rgb(0%, 0%, 0%)" stroke-opacity="1" stroke-miterlimit="10" d="M 433.324219 120.039062 C 433.324219 121.371094 431.324219 121.371094 431.324219 120.039062 C 431.324219 118.707031 433.324219 118.707031 433.324219 120.039062 "/>
<path fill-rule="nonzero" fill="rgb(100%, 0%, 0%)" fill-opacity="1" stroke-width="0.01" stroke-linecap="butt" stroke-linejoin="miter" stroke="rgb(0%, 0%, 0%)" stroke-opacity="1" stroke-miterlimit="10" d="M 336.601562 495.949219 C 336.601562 497.28125 334.601562 497.28125 334.601562 495.949219 C 334.601562 494.617188 336.601562 494.617188 336.601562 495.949219 "/>
<path fill-rule="nonzero" fill="rgb(100%, 0%, 0%)" fill-opacity="1" stroke-width="0.01" stroke-linecap="butt" stroke-linejoin="miter" stroke="rgb(0%, 0%, 0%)" stroke-opacity="1" stroke-miterlimit="10" d="M 368.949219 403.160156 C 368.949219 404.492188 366.949219 404.492188 366.949219 403.160156 C 366.949219 401.828125 368.949219 401.828125 368.949219 403.160156 "/>
<path fill-rule="nonzero" fill="rgb(100%, 0%, 0%)" fill-opacity="1" stroke-width="0.01" stroke-linecap="butt" stroke-linejoin="miter" stroke="rgb(0%, 0%, 0%)" stroke-opacity="1" stroke-miterlimit="10" d="M 310.253906 580 C 310.253906 581.332031 308.253906 581.332031 308.253906 580 C 308.253906 578.667969 310.253906 578.667969 310.253906 580 "/>
<path fill-rule="nonzero" fill="rgb(100%, 0%, 0%)" fill-opacity="1" stroke-width="0.01" stroke-linecap="butt" stroke-linejoin="miter" stroke="rgb(0%, 0%, 0%)" stroke-opacity="1" stroke-miterlimit="10" d="M 59.6875 82.664062 C 59.6875 83.996094 57.6875 83.996094 57.6875 82.664062 C 57.6875 81.332031 59.6875 81.332031 59.6875 82.664062 "/>
<path fill-rule="nonzero" fill="rgb(100%, 0%, 0%)" fill-opacity="1" stroke-width="0.01" stroke-linecap="butt" stroke-linejoin="miter" stroke="rgb(0%, 0%, 0%)" stroke-opacity="1" stroke-miterlimit="10" d="M 97.839844 146.074219 C 97.839844 147.40625 95.839844 147.40625 95.839844 146.074219 C 95.839844 144.742188 97.839844 144.742188 97.839844 146.074219 "/>
<path fill-rule="nonzero" fill="rgb(100%, 0%, 0%)" fill-opacity="1" stroke-width="0.01" stroke-linecap="butt" stroke-linejoin="miter" stroke="rgb(0%, 0%, 0%)" stroke-opacity="1" stroke-miterlimit="10" d="M 21 20 C 21 21.332031 19 21.332031 19 20 C 19 18.667969 21 18.667969 21 20 "/>
<path fill-rule="nonzero" fill="rgb(100%, 0%, 0%)" fill-opacity="1" stroke-width="0.01" stroke-linecap="butt" stroke-linejoin="miter" stroke="rgb(0%, 0%, 0%)" stroke-opacity="1" stroke-miterlimit="10" d="M 407.3125 309.417969 C 407.3125 310.75 405.3125 310.75 405.3125 309.417969 C 405.3125 308.085938 407.3125 308.085938 407.3125 309.417969 "/>
</svg>
