<?xml version="1.0" encoding="UTF-8"?>
<svg xmlns="http://www.w3.org/2000/svg" xmlns:xlink="http://www.w3.org/1999/xlink" width="600" height="600" viewBox="0 0 600 600">
<rect x="-60" y="-60" width="720" height="720" fill="rgb(100%, 100%, 100%)" fill-opacity="1"/>
<path fill="none" stroke-width="0.2" stroke-linecap="butt" stroke-linejoin="miter" stroke="rgb(26.666667%, 26.666667%, 26.666667%)" stroke-opacity="1" stroke-miterlimit="10" d="M 304.894531 261.152344 C 304.894531 263.152344 301.894531 263.152344 301.894531 261.152344 C 301.894531 259.152344 304.894531 259.152344 304.894531 261.152344 "/>
<path fill="none" stroke-width="0.2" stroke-linecap="butt" stroke-linejoin="miter" stroke="rgb(26.666667%, 26.666667%, 26.666667%)" stroke-opacity="1" stroke-miterlimit="10" d="M 302.335938 262.210938 L 370.644531 203.652344 "/>
<path fill-rule="nonzero" fill="rgb(26.666667%, 26.666667%, 26.666667%)" fill-opacity="1" d="M 372.269531 202.261719 L 371.097656 204.183594 L 370.191406 203.125 L 372.269531 202.261719 "/>
<path fill="none" stroke-width="0.2" stroke-linecap="butt" stroke-linejoin="miter" stroke="rgb(26.666667%, 26.666667%, 26.666667%)" stroke-opacity="1" stroke-miterlimit="10" d="M 302.335938 262.210938 L 230.8125 306.953125 "/>
<path fill-rule="nonzero" fill="rgb(26.666667%, 26.666667%, 26.666667%)" fill-opacity="1" d="M 229 308.089844 L 230.445312 306.363281 L 231.183594 307.542969 L 229 308.089844 "/>
<path fill="none" stroke-width="0.2" stroke-linecap="butt" stroke-linejoin="miter" stroke="rgb(26.666667%, 26.666667%, 26.666667%)" stroke-opacity="1" stroke-miterlimit="10" d="M 494.585938 208.203125 L 376.164062 201.78125 "/>
<path fill-rule="nonzero" fill="rgb(26.666667%, 26.666667%, 26.666667%)" fill-opacity="1" d="M 374.027344 201.664062 L 376.203125 201.085938 L 376.128906 202.476562 L 374.027344 201.664062 "/>
<path fill="none" stroke-width="0.2" stroke-linecap="butt" stroke-linejoin="miter" stroke="rgb(26.666667%, 26.666667%, 26.666667%)" stroke-opacity="1" stroke-miterlimit="10" d="M 121.640625 45.292969 L 221.433594 82.300781 "/>
<path fill-rule="nonzero" fill="rgb(26.666667%, 26.666667%, 26.666667%)" fill-opacity="1" d="M 223.441406 83.042969 L 221.191406 82.953125 L 221.675781 81.648438 L 223.441406 83.042969 "/>
<path fill="none" stroke-width="0.2" stroke-linecap="butt" stroke-linejoin="miter" stroke="rgb(26.666667%, 26.666667%, 26.666667%)" stroke-opacity="1" stroke-miterlimit="10" d="M 121.640625 45.292969 L 23.046875 20.757812 "/>
<path fill-rule="nonzero" fill="rgb(26.666667%, 26.666667%, 26.666667%)" fill-opacity="1" d="M 20.96875 20.242188 L 23.214844 20.082031 L 22.878906 21.433594 L 20.96875 20.242188 "/>
<path fill="none" stroke-width="0.2" stroke-linecap="butt" stroke-linejoin="miter" stroke="rgb(26.666667%, 26.666667%, 26.666667%)" stroke-opacity="1" stroke-miterlimit="10" d="M 474.75 567.480469 L 372.257812 579.628906 "/>
<path fill-rule="nonzero" fill="rgb(26.666667%, 26.666667%, 26.666667%)" fill-opacity="1" d="M 370.132812 579.882812 L 372.175781 578.941406 L 372.339844 580.320312 L 370.132812 579.882812 "/>
<path fill="none" stroke-width="0.2" stroke-linecap="butt" stroke-linejoin="miter" stroke="rgb(26.666667%, 26.666667%, 26.666667%)" stroke-opacity="1" stroke-miterlimit="10" d="M 474.75 567.480469 L 576.886719 554.574219 "/>
<path fill-rule="nonzero" fill="rgb(26.666667%, 26.666667%, 26.666667%)" fill-opacity="1" d="M 579.007812 554.308594 L 576.972656 555.265625 L 576.796875 553.886719 L 579.007812 554.308594 "/>
<path fill="none" stroke-width="0.2" stroke-linecap="butt" stroke-linejoin="miter" stroke="rgb(26.666667%, 26.666667%, 26.666667%)" stroke-opacity="1" stroke-miterlimit="10" d="M 310.269531 135.894531 L 370.859375 199.339844 "/>
<path fill-rule="nonzero" fill="rgb(26.666667%, 26.666667%, 26.666667%)" fill-opacity="1" d="M 372.339844 200.886719 L 370.359375 199.820312 L 371.363281 198.859375 L 372.339844 200.886719 "/>
<path fill="none" stroke-width="0.2" stroke-linecap="butt" stroke-linejoin="miter" stroke="rgb(26.666667%, 26.666667%, 26.666667%)" stroke-opacity="1" stroke-miterlimit="10" d="M 310.269531 135.894531 L 227.054688 85.027344 "/>
<path fill-rule="nonzero" fill="rgb(26.666667%, 26.666667%, 26.666667%)" fill-opacity="1" d="M 225.230469 83.914062 L 227.417969 84.4375 L 226.695312 85.621094 L 225.230469 83.914062 "/>
<path fill-rule="nonzero" fill="rgb(100%, 0%, 0%)" fill-opacity="1" stroke-width="0.01" stroke-linecap="butt" stroke-linejoin="miter" stroke="rgb(0%, 0%, 0%)" stroke-opacity="1" stroke-miterlimit="10" d="M 303.335938 262.210938 C 303.335938 263.546875 301.335938 263.546875 301.335938 262.210938 C 301.335938 260.878906 303.335938 260.878906 303.335938 262.210938 "/>
<path fill-rule="nonzero" fill="rgb(100%, 0%, 0%)" fill-opacity="1" stroke-width="0.01" stroke-linecap="butt" stroke-linejoin="miter" stroke="rgb(0%, 0%, 0%)" stroke-opacity="1" stroke-miterlimit="10" d="M 374.03125 201.609375 C 374.03125 202.945312 372.03125 202.945312 372.03125 201.609375 C 372.03125 200.277344 374.03125 200.277344 374.03125 201.609375 "/>
<path fill-rule="nonzero" fill="rgb(100%, 0%, 0%)" fill-opacity="1" stroke-width="0.01" stroke-linecap="butt" stroke-linejoin="miter" stroke="rgb(0%, 0%, 0%)" stroke-opacity="1" stroke-miterlimit="10" d="M 229.152344 308.621094 C 229.152344 309.953125 227.152344 309.953125 227.152344 308.621094 C 227.152344 307.285156 229.152344 307.285156 229.152344 308.621094 "/>
<path fill-rule="nonzero" fill="rgb(100%, 0%, 0%)" fill-opacity="1" stroke-width="0.01" stroke-linecap="butt" stroke-linejoin="miter" stroke="rgb(0%, 0%, 0%)" stroke-opacity="1" stroke-miterlimit="10" d="M 495.585938 208.203125 C 495.585938 209.535156 493.585938 209.535156 493.585938 208.203125 C 493.585938 206.867188 495.585938 206.867188 495.585938 208.203125 "/>
<path fill-rule="nonzero" fill="rgb(100%, 0%, 0%)" fill-opacity="1" stroke-width="0.01" stroke-linecap="butt" stroke-linejoin="miter" stroke="rgb(0%, 0%, 0%)" stroke-opacity="1" stroke-miterlimit="10" d="M 122.640625 45.292969 C 122.640625 46.628906 120.640625 46.628906 120.640625 45.292969 C 120.640625 43.960938 122.640625 43.960938 122.640625 45.292969 "/>
<path fill-rule="nonzero" fill="rgb(100%, 0%, 0%)" fill-opacity="1" stroke-width="0.01" stroke-linecap="butt" stroke-linejoin="miter" stroke="rgb(0%, 0%, 0%)" stroke-opacity="1" stroke-miterlimit="10" d="M 225.378906 83.390625 C 225.378906 84.726562 223.378906 84.726562 223.378906 83.390625 C 223.378906 82.058594 225.378906 82.058594 225.378906 83.390625 "/>
<path fill-rule="nonzero" fill="rgb(100%, 0%, 0%)" fill-opacity="1" stroke-width="0.01" stroke-linecap="butt" stroke-linejoin="miter" stroke="rgb(0%, 0%, 0%)" stroke-opacity="1" stroke-miterlimit="10" d="M 21 20 C 21 21.332031 19 21.332031 19 20 C 19 18.667969 21 18.667969 21 20 "/>
<path fill-rule="nonzero" fill="rgb(100%, 0%, 0%)" fill-opacity="1" stroke-width="0.01" stroke-linecap="butt" stroke-linejoin="miter" stroke="rgb(0%, 0%, 0%)" stroke-opacity="1" stroke-miterlimit="10" d="M 475.75 567.480469 C 475.75 568.8125 473.75 568.8125 473.75 567.480469 C 473.75 566.144531 475.75 566.144531 475.75 567.480469 "/>
<path fill-rule="nonzero" fill="rgb(100%, 0%, 0%)" fill-opacity="1" stroke-width="0.01" stroke-linecap="butt" stroke-linejoin="miter" stroke="rgb(0%, 0%, 0%)" stroke-opacity="1" stroke-miterlimit="10" d="M 370.140625 580 C 370.140625 581.332031 368.140625 581.332031 368.140625 580 C 368.140625 578.667969 370.140625 578.667969 370.140625 580 "/>
<path fill-rule="nonzero" fill="rgb(100%, 0%, 0%)" fill-opacity="1" stroke-width="0.01" stroke-linecap="butt" stroke-linejoin="miter" stroke="rgb(0%, 0%, 0%)" stroke-opacity="1" stroke-miterlimit="10" d="M 581 554.179688 C 581 555.515625 579 555.515625 579 554.179688 C 579 552.847656 581 552.847656 581 554.179688 "/>
<path fill-rule="nonzero" fill="rgb(100%, 0%, 0%)" fill-opacity="1" stroke-width="0.01" stroke-linecap="butt" stroke-linejoin="miter" stroke="rgb(0%, 0%, 0%)" stroke-opacity="1" stroke-miterlimit="10" d="M 311.269531 135.894531 C 311.269531 137.230469 309.269531 137.230469 309.269531 135.894531 C 309.269531 134.5625 311.269531 134.5625 311.269531 135.894531 "/>
</svg>
