<?xml version="1.0" encoding="UTF-8"?>
<svg xmlns="http://www.w3.org/2000/svg" xmlns:xlink="http://www.w3.org/1999/xlink" width="600" height="600" viewBox="0 0 600 600">
<rect x="-60" y="-60" width="720" height="720" fill="rgb(100%, 100%, 100%)" fill-opacity="1"/>
<path fill="none" stroke-width="0.2" stroke-linecap="butt" stroke-linejoin="miter" stroke="rgb(26.666667%, 26.666667%, 26.666667%)" stroke-opacity="1" stroke-miterlimit="10" d="M 314.621094 70.511719 C 314.621094 72.511719 311.621094 72.511719 311.621094 70.511719 C 311.621094 68.511719 314.621094 68.511719 314.621094 70.511719 "/>
<path fill="none" stroke-width="0.2" stroke-linecap="butt" stroke-linejoin="miter" stroke="rgb(26.666667%, 26.666667%, 26.666667%)" stroke-opacity="1" stroke-miterlimit="10" d="M 312.058594 71.570312 L 274.457031 136.78125 "/>
<path fill-rule="nonzero" fill="rgb(26.666667%, 26.666667%, 26.666667%)" fill-opacity="1" d="M 274.386719 136.90625 L 274.417969 136.761719 L 274.496094 136.804688 L 274.386719 136.90625 "/>
<path fill="none" stroke-width="0.2" stroke-linecap="butt" stroke-linejoin="miter" stroke="rgb(26.666667%, 26.666667%, 26.666667%)" stroke-opacity="1" stroke-miterlimit="10" d="M 312.058594 71.570312 L 357.507812 20.851562 "/>
<path fill-rule="nonzero" fill="rgb(26.666667%, 26.666667%, 26.666667%)" fill-opacity="1" d="M 357.605469 20.746094 L 357.542969 20.882812 L 357.472656 20.820312 L 357.605469 20.746094 "/>
<path fill="none" stroke-width="0.2" stroke-linecap="butt" stroke-linejoin="miter" stroke="rgb(26.666667%, 26.666667%, 26.666667%)" stroke-opacity="1" stroke-miterlimit="10" d="M 359.253906 167.914062 L 274.964844 138.152344 "/>
<path fill-rule="nonzero" fill="rgb(26.666667%, 26.666667%, 26.666667%)" fill-opacity="1" d="M 274.828125 138.105469 L 274.976562 138.109375 L 274.949219 138.195312 L 274.828125 138.105469 "/>
<path fill="none" stroke-width="0.2" stroke-linecap="butt" stroke-linejoin="miter" stroke="rgb(26.666667%, 26.666667%, 26.666667%)" stroke-opacity="1" stroke-miterlimit="10" d="M 55.070312 293.824219 L 106.785156 237.867188 "/>
<path fill-rule="nonzero" fill="rgb(26.666667%, 26.666667%, 26.666667%)" fill-opacity="1" d="M 106.878906 237.761719 L 106.816406 237.898438 L 106.75 237.835938 L 106.878906 237.761719 "/>
<path fill="none" stroke-width="0.2" stroke-linecap="butt" stroke-linejoin="miter" stroke="rgb(26.666667%, 26.666667%, 26.666667%)" stroke-opacity="1" stroke-miterlimit="10" d="M 55.070312 293.824219 L 20.625 346.566406 "/>
<path fill-rule="nonzero" fill="rgb(26.666667%, 26.666667%, 26.666667%)" fill-opacity="1" d="M 20.546875 346.683594 L 20.585938 346.539062 L 20.664062 346.589844 L 20.546875 346.683594 "/>
<path fill="none" stroke-width="0.2" stroke-linecap="butt" stroke-linejoin="miter" stroke="rgb(26.666667%, 26.666667%, 26.666667%)" stroke-opacity="1" stroke-miterlimit="10" d="M 508.886719 546.386719 L 578.96875 512.996094 "/>
<path fill-rule="nonzero" fill="rgb(26.666667%, 26.666667%, 26.666667%)" fill-opacity="1" d="M 579.097656 512.933594 L 578.988281 513.039062 L 578.949219 512.953125 L 579.097656 512.933594 "/>
<path fill="none" stroke-width="0.2" stroke-linecap="butt" stroke-linejoin="miter" stroke="rgb(26.666667%, 26.666667%, 26.666667%)" stroke-opacity="1" stroke-miterlimit="10" d="M 508.886719 546.386719 L 438.472656 579.511719 "/>
<path fill-rule="nonzero" fill="rgb(26.666667%, 26.666667%, 26.666667%)" fill-opacity="1" d="M 438.34375 579.574219 L 438.453125 579.472656 L 438.492188 579.554688 L 438.34375 579.574219 "/>
<path fill="none" stroke-width="0.2" stroke-linecap="butt" stroke-linejoin="miter" stroke="rgb(26.666667%, 26.666667%, 26.666667%)" stroke-opacity="1" stroke-miterlimit="10" d="M 179.78125 184.082031 L 272.859375 138.277344 "/>
<path fill-rule="nonzero" fill="rgb(26.666667%, 26.666667%, 26.666667%)" fill-opacity="1" d="M 272.988281 138.214844 L 272.878906 138.320312 L 272.839844 138.234375 L 272.988281 138.214844 "/>
<path fill="none" stroke-width="0.2" stroke-linecap="butt" stroke-linejoin="miter" stroke="rgb(26.666667%, 26.666667%, 26.666667%)" stroke-opacity="1" stroke-miterlimit="10" d="M 179.78125 184.082031 L 108.480469 236.351562 "/>
<path fill-rule="nonzero" fill="rgb(26.666667%, 26.666667%, 26.666667%)" fill-opacity="1" d="M 108.367188 236.4375 L 108.453125 236.316406 L 108.507812 236.390625 L 108.367188 236.4375 "/>
<path fill-rule="nonzero" fill="rgb(100%, 0%, 0%)" fill-opacity="1" stroke-width="0.01" stroke-linecap="butt" stroke-linejoin="miter" stroke="rgb(0%, 0%, 0%)" stroke-opacity="1" stroke-miterlimit="10" d="M 313.058594 71.570312 C 313.058594 72.90625 311.058594 72.90625 311.058594 71.570312 C 311.058594 70.238281 313.058594 70.238281 313.058594 71.570312 "/>
<path fill-rule="nonzero" fill="rgb(100%, 0%, 0%)" fill-opacity="1" stroke-width="0.01" stroke-linecap="butt" stroke-linejoin="miter" stroke="rgb(0%, 0%, 0%)" stroke-opacity="1" stroke-miterlimit="10" d="M 274.886719 137.773438 C 274.886719 139.105469 272.886719 139.105469 272.886719 137.773438 C 272.886719 136.441406 274.886719 136.441406 274.886719 137.773438 "/>
<path fill-rule="nonzero" fill="rgb(100%, 0%, 0%)" fill-opacity="1" stroke-width="0.01" stroke-linecap="butt" stroke-linejoin="miter" stroke="rgb(0%, 0%, 0%)" stroke-opacity="1" stroke-miterlimit="10" d="M 359.269531 20 C 359.269531 21.332031 357.269531 21.332031 357.269531 20 C 357.269531 18.667969 359.269531 18.667969 359.269531 20 "/>
<path fill-rule="nonzero" fill="rgb(100%, 0%, 0%)" fill-opacity="1" stroke-width="0.01" stroke-linecap="butt" stroke-linejoin="miter" stroke="rgb(0%, 0%, 0%)" stroke-opacity="1" stroke-miterlimit="10" d="M 360.253906 167.914062 C 360.253906 169.25 358.253906 169.25 358.253906 167.914062 C 358.253906 166.582031 360.253906 166.582031 360.253906 167.914062 "/>
<path fill-rule="nonzero" fill="rgb(100%, 0%, 0%)" fill-opacity="1" stroke-width="0.01" stroke-linecap="butt" stroke-linejoin="miter" stroke="rgb(0%, 0%, 0%)" stroke-opacity="1" stroke-miterlimit="10" d="M 56.070312 293.824219 C 56.070312 295.15625 54.070312 295.15625 54.070312 293.824219 C 54.070312 292.488281 56.070312 292.488281 56.070312 293.824219 "/>
<path fill-rule="nonzero" fill="rgb(100%, 0%, 0%)" fill-opacity="1" stroke-width="0.01" stroke-linecap="butt" stroke-linejoin="miter" stroke="rgb(0%, 0%, 0%)" stroke-opacity="1" stroke-miterlimit="10" d="M 108.558594 237.027344 C 108.558594 238.363281 106.558594 238.363281 106.558594 237.027344 C 106.558594 235.695312 108.558594 235.695312 108.558594 237.027344 "/>
<path fill-rule="nonzero" fill="rgb(100%, 0%, 0%)" fill-opacity="1" stroke-width="0.01" stroke-linecap="butt" stroke-linejoin="miter" stroke="rgb(0%, 0%, 0%)" stroke-opacity="1" stroke-miterlimit="10" d="M 21 347.523438 C 21 348.855469 19 348.855469 19 347.523438 C 19 346.1875 21 346.1875 21 347.523438 "/>
<path fill-rule="nonzero" fill="rgb(100%, 0%, 0%)" fill-opacity="1" stroke-width="0.01" stroke-linecap="butt" stroke-linejoin="miter" stroke="rgb(0%, 0%, 0%)" stroke-opacity="1" stroke-miterlimit="10" d="M 509.886719 546.386719 C 509.886719 547.722656 507.886719 547.722656 507.886719 546.386719 C 507.886719 545.054688 509.886719 545.054688 509.886719 546.386719 "/>
<path fill-rule="nonzero" fill="rgb(100%, 0%, 0%)" fill-opacity="1" stroke-width="0.01" stroke-linecap="butt" stroke-linejoin="miter" stroke="rgb(0%, 0%, 0%)" stroke-opacity="1" stroke-miterlimit="10" d="M 581 512.503906 C 581 513.835938 579 513.835938 579 512.503906 C 579 511.171875 581 511.171875 581 512.503906 "/>
<path fill-rule="nonzero" fill="rgb(100%, 0%, 0%)" fill-opacity="1" stroke-width="0.01" stroke-linecap="butt" stroke-linejoin="miter" stroke="rgb(0%, 0%, 0%)" stroke-opacity="1" stroke-miterlimit="10" d="M 438.4375 580 C 438.4375 581.332031 436.4375 581.332031 436.4375 580 C 436.4375 578.667969 438.4375 578.667969 438.4375 580 "/>
<path fill-rule="nonzero" fill="rgb(100%, 0%, 0%)" fill-opacity="1" stroke-width="0.01" stroke-linecap="butt" stroke-linejoin="miter" stroke="rgb(0%, 0%, 0%)" stroke-opacity="1" stroke-miterlimit="10" d="M 180.78125 184.082031 C 180.78125 185.414062 178.78125 185.414062 178.78125 184.082031 C 178.78125 182.746094 180.78125 182.746094 180.78125 184.082031 "/>
</svg>
