<?xml version="1.0" encoding="UTF-8"?>
<svg xmlns="http://www.w3.org/2000/svg" xmlns:xlink="http://www.w3.org/1999/xlink" width="600pt" height="600pt" viewBox="0 0 600 600" version="1.1">
<g id="surface371">
<rect x="0" y="0" width="600" height="600" style="fill:rgb(100%,100%,100%);fill-opacity:1;stroke:none;"/>
<path style="fill:none;stroke-width:0.2;stroke-linecap:butt;stroke-linejoin:miter;stroke:rgb(26.666667%,26.666667%,26.666667%);stroke-opacity:1;stroke-miterlimit:10;" d="M 498.90625 475.355469 C 498.90625 477.355469 495.90625 477.355469 495.90625 475.355469 C 495.90625 473.355469 498.90625 473.355469 498.90625 475.355469 "/>
<path style="fill:none;stroke-width:0.2;stroke-linecap:butt;stroke-linejoin:miter;stroke:rgb(26.666667%,26.666667%,26.666667%);stroke-opacity:1;stroke-miterlimit:10;" d="M 496.347656 476.414063 L 398.179688 439.878906 "/>
<path style=" stroke:none;fill-rule:nonzero;fill:rgb(26.666667%,26.666667%,26.666667%);fill-opacity:1;" d="M 398.046875 439.828125 L 398.195313 439.835938 L 398.164063 439.921875 L 398.046875 439.828125 "/>
<path style="fill:none;stroke-width:0.2;stroke-linecap:butt;stroke-linejoin:miter;stroke:rgb(26.666667%,26.666667%,26.666667%);stroke-opacity:1;stroke-miterlimit:10;" d="M 496.347656 476.414063 L 578.929688 507.335938 "/>
<path style=" stroke:none;fill-rule:nonzero;fill:rgb(26.666667%,26.666667%,26.666667%);fill-opacity:1;" d="M 579.0625 507.386719 L 578.914063 507.378906 L 578.945313 507.292969 L 579.0625 507.386719 "/>
<path style="fill:none;stroke-width:0.2;stroke-linecap:butt;stroke-linejoin:miter;stroke:rgb(26.666667%,26.666667%,26.666667%);stroke-opacity:1;stroke-miterlimit:10;" d="M 416.25 367.441406 L 397.402344 438.375 "/>
<path style=" stroke:none;fill-rule:nonzero;fill:rgb(26.666667%,26.666667%,26.666667%);fill-opacity:1;" d="M 397.367188 438.515625 L 397.355469 438.363281 L 397.445313 438.386719 L 397.367188 438.515625 "/>
<path style="fill:none;stroke-width:0.2;stroke-linecap:butt;stroke-linejoin:miter;stroke:rgb(26.666667%,26.666667%,26.666667%);stroke-opacity:1;stroke-miterlimit:10;" d="M 95.367188 540.261719 L 184.515625 501.960938 "/>
<path style=" stroke:none;fill-rule:nonzero;fill:rgb(26.666667%,26.666667%,26.666667%);fill-opacity:1;" d="M 184.648438 501.90625 L 184.535156 502.003906 L 184.5 501.917969 L 184.648438 501.90625 "/>
<path style="fill:none;stroke-width:0.2;stroke-linecap:butt;stroke-linejoin:miter;stroke:rgb(26.666667%,26.666667%,26.666667%);stroke-opacity:1;stroke-miterlimit:10;" d="M 95.367188 540.261719 L 21.011719 579.46875 "/>
<path style=" stroke:none;fill-rule:nonzero;fill:rgb(26.666667%,26.666667%,26.666667%);fill-opacity:1;" d="M 20.882813 579.535156 L 20.988281 579.425781 L 21.03125 579.507813 L 20.882813 579.535156 "/>
<path style="fill:none;stroke-width:0.2;stroke-linecap:butt;stroke-linejoin:miter;stroke:rgb(26.666667%,26.666667%,26.666667%);stroke-opacity:1;stroke-miterlimit:10;" d="M 170.488281 28.710938 L 84.335938 37.761719 "/>
<path style=" stroke:none;fill-rule:nonzero;fill:rgb(26.666667%,26.666667%,26.666667%);fill-opacity:1;" d="M 84.191406 37.777344 L 84.328125 37.71875 L 84.339844 37.808594 L 84.191406 37.777344 "/>
<path style="fill:none;stroke-width:0.2;stroke-linecap:butt;stroke-linejoin:miter;stroke:rgb(26.666667%,26.666667%,26.666667%);stroke-opacity:1;stroke-miterlimit:10;" d="M 170.488281 28.710938 L 256.753906 20.113281 "/>
<path style=" stroke:none;fill-rule:nonzero;fill:rgb(26.666667%,26.666667%,26.666667%);fill-opacity:1;" d="M 256.894531 20.097656 L 256.757813 20.160156 L 256.75 20.066406 L 256.894531 20.097656 "/>
<path style="fill:none;stroke-width:0.2;stroke-linecap:butt;stroke-linejoin:miter;stroke:rgb(26.666667%,26.666667%,26.666667%);stroke-opacity:1;stroke-miterlimit:10;" d="M 286.28125 468.429688 L 396.003906 439.769531 "/>
<path style=" stroke:none;fill-rule:nonzero;fill:rgb(26.666667%,26.666667%,26.666667%);fill-opacity:1;" d="M 396.140625 439.734375 L 396.015625 439.8125 L 395.992188 439.722656 L 396.140625 439.734375 "/>
<path style="fill:none;stroke-width:0.2;stroke-linecap:butt;stroke-linejoin:miter;stroke:rgb(26.666667%,26.666667%,26.666667%);stroke-opacity:1;stroke-miterlimit:10;" d="M 286.28125 468.429688 L 186.652344 501.152344 "/>
<path style=" stroke:none;fill-rule:nonzero;fill:rgb(26.666667%,26.666667%,26.666667%);fill-opacity:1;" d="M 186.515625 501.199219 L 186.636719 501.109375 L 186.667969 501.199219 L 186.515625 501.199219 "/>
<path style="fill-rule:nonzero;fill:rgb(100%,0%,0%);fill-opacity:1;stroke-width:0.01;stroke-linecap:butt;stroke-linejoin:miter;stroke:rgb(0%,0%,0%);stroke-opacity:1;stroke-miterlimit:10;" d="M 497.347656 476.414063 C 497.347656 477.75 495.347656 477.75 495.347656 476.414063 C 495.347656 475.082031 497.347656 475.082031 497.347656 476.414063 "/>
<path style="fill-rule:nonzero;fill:rgb(100%,0%,0%);fill-opacity:1;stroke-width:0.01;stroke-linecap:butt;stroke-linejoin:miter;stroke:rgb(0%,0%,0%);stroke-opacity:1;stroke-miterlimit:10;" d="M 398.109375 439.480469 C 398.109375 440.8125 396.109375 440.8125 396.109375 439.480469 C 396.109375 438.148438 398.109375 438.148438 398.109375 439.480469 "/>
<path style="fill-rule:nonzero;fill:rgb(100%,0%,0%);fill-opacity:1;stroke-width:0.01;stroke-linecap:butt;stroke-linejoin:miter;stroke:rgb(0%,0%,0%);stroke-opacity:1;stroke-miterlimit:10;" d="M 581 507.738281 C 581 509.070313 579 509.070313 579 507.738281 C 579 506.40625 581 506.40625 581 507.738281 "/>
<path style="fill-rule:nonzero;fill:rgb(100%,0%,0%);fill-opacity:1;stroke-width:0.01;stroke-linecap:butt;stroke-linejoin:miter;stroke:rgb(0%,0%,0%);stroke-opacity:1;stroke-miterlimit:10;" d="M 417.25 367.441406 C 417.25 368.777344 415.25 368.777344 415.25 367.441406 C 415.25 366.109375 417.25 366.109375 417.25 367.441406 "/>
<path style="fill-rule:nonzero;fill:rgb(100%,0%,0%);fill-opacity:1;stroke-width:0.01;stroke-linecap:butt;stroke-linejoin:miter;stroke:rgb(0%,0%,0%);stroke-opacity:1;stroke-miterlimit:10;" d="M 96.367188 540.261719 C 96.367188 541.597656 94.367188 541.597656 94.367188 540.261719 C 94.367188 538.929688 96.367188 538.929688 96.367188 540.261719 "/>
<path style="fill-rule:nonzero;fill:rgb(100%,0%,0%);fill-opacity:1;stroke-width:0.01;stroke-linecap:butt;stroke-linejoin:miter;stroke:rgb(0%,0%,0%);stroke-opacity:1;stroke-miterlimit:10;" d="M 186.566406 501.511719 C 186.566406 502.84375 184.566406 502.84375 184.566406 501.511719 C 184.566406 500.175781 186.566406 500.175781 186.566406 501.511719 "/>
<path style="fill-rule:nonzero;fill:rgb(100%,0%,0%);fill-opacity:1;stroke-width:0.01;stroke-linecap:butt;stroke-linejoin:miter;stroke:rgb(0%,0%,0%);stroke-opacity:1;stroke-miterlimit:10;" d="M 21 580 C 21 581.332031 19 581.332031 19 580 C 19 578.667969 21 578.667969 21 580 "/>
<path style="fill-rule:nonzero;fill:rgb(100%,0%,0%);fill-opacity:1;stroke-width:0.01;stroke-linecap:butt;stroke-linejoin:miter;stroke:rgb(0%,0%,0%);stroke-opacity:1;stroke-miterlimit:10;" d="M 171.488281 28.710938 C 171.488281 30.046875 169.488281 30.046875 169.488281 28.710938 C 169.488281 27.378906 171.488281 27.378906 171.488281 28.710938 "/>
<path style="fill-rule:nonzero;fill:rgb(100%,0%,0%);fill-opacity:1;stroke-width:0.01;stroke-linecap:butt;stroke-linejoin:miter;stroke:rgb(0%,0%,0%);stroke-opacity:1;stroke-miterlimit:10;" d="M 84.199219 37.882813 C 84.199219 39.214844 82.199219 39.214844 82.199219 37.882813 C 82.199219 36.550781 84.199219 36.550781 84.199219 37.882813 "/>
<path style="fill-rule:nonzero;fill:rgb(100%,0%,0%);fill-opacity:1;stroke-width:0.01;stroke-linecap:butt;stroke-linejoin:miter;stroke:rgb(0%,0%,0%);stroke-opacity:1;stroke-miterlimit:10;" d="M 258.890625 20 C 258.890625 21.332031 256.890625 21.332031 256.890625 20 C 256.890625 18.667969 258.890625 18.667969 258.890625 20 "/>
<path style="fill-rule:nonzero;fill:rgb(100%,0%,0%);fill-opacity:1;stroke-width:0.01;stroke-linecap:butt;stroke-linejoin:miter;stroke:rgb(0%,0%,0%);stroke-opacity:1;stroke-miterlimit:10;" d="M 287.28125 468.429688 C 287.28125 469.765625 285.28125 469.765625 285.28125 468.429688 C 285.28125 467.097656 287.28125 467.097656 287.28125 468.429688 "/>
</g>
</svg>
