<?xml version="1.0" encoding="UTF-8"?>
<svg xmlns="http://www.w3.org/2000/svg" xmlns:xlink="http://www.w3.org/1999/xlink" width="600pt" height="600pt" viewBox="0 0 600 600" version="1.1">
<g id="surface11">
<rect x="0" y="0" width="600" height="600" style="fill:rgb(100%,100%,100%);fill-opacity:1;stroke:none;"/>
<path style="fill:none;stroke-width:0.2;stroke-linecap:butt;stroke-linejoin:miter;stroke:rgb(26.666667%,26.666667%,26.666667%);stroke-opacity:1;stroke-miterlimit:10;" d="M 66.351562 292.023438 C 66.351562 294.023438 63.351562 294.023438 63.351562 292.023438 C 63.351562 290.023438 66.351562 290.023438 66.351562 292.023438 "/>
<path style="fill:none;stroke-width:0.2;stroke-linecap:butt;stroke-linejoin:miter;stroke:rgb(26.666667%,26.666667%,26.666667%);stroke-opacity:1;stroke-miterlimit:10;" d="M 63.789062 293.082031 L 114.90625 305.226562 "/>
<path style="fill:none;stroke-width:0.2;stroke-linecap:butt;stroke-linejoin:miter;stroke:rgb(26.666667%,26.666667%,26.666667%);stroke-opacity:1;stroke-miterlimit:10;" d="M 63.789062 293.082031 L 20.964844 281.273438 "/>
<path style="fill:none;stroke-width:0.2;stroke-linecap:butt;stroke-linejoin:miter;stroke:rgb(26.666667%,26.666667%,26.666667%);stroke-opacity:1;stroke-miterlimit:10;" d="M 131.515625 231.292969 L 116.082031 304.480469 "/>
<path style="fill:none;stroke-width:0.2;stroke-linecap:butt;stroke-linejoin:miter;stroke:rgb(26.666667%,26.666667%,26.666667%);stroke-opacity:1;stroke-miterlimit:10;" d="M 212.539062 519.839844 L 183.253906 452.722656 "/>
<path style="fill:none;stroke-width:0.2;stroke-linecap:butt;stroke-linejoin:miter;stroke:rgb(26.666667%,26.666667%,26.666667%);stroke-opacity:1;stroke-miterlimit:10;" d="M 212.539062 519.839844 L 238.070312 579.082031 "/>
<path style="fill:none;stroke-width:0.2;stroke-linecap:butt;stroke-linejoin:miter;stroke:rgb(26.666667%,26.666667%,26.666667%);stroke-opacity:1;stroke-miterlimit:10;" d="M 570.320312 257.917969 L 579.859375 190.34375 "/>
<path style="fill:none;stroke-width:0.2;stroke-linecap:butt;stroke-linejoin:miter;stroke:rgb(26.666667%,26.666667%,26.666667%);stroke-opacity:1;stroke-miterlimit:10;" d="M 570.320312 257.917969 L 560.207031 325.222656 "/>
<path style="fill:none;stroke-width:0.2;stroke-linecap:butt;stroke-linejoin:miter;stroke:rgb(26.666667%,26.666667%,26.666667%);stroke-opacity:1;stroke-miterlimit:10;" d="M 150.796875 380.425781 L 116.300781 306.363281 "/>
<path style="fill:none;stroke-width:0.2;stroke-linecap:butt;stroke-linejoin:miter;stroke:rgb(26.666667%,26.666667%,26.666667%);stroke-opacity:1;stroke-miterlimit:10;" d="M 150.796875 380.425781 L 182.445312 450.894531 "/>
<path style="fill:none;stroke-width:0.2;stroke-linecap:butt;stroke-linejoin:miter;stroke:rgb(26.666667%,26.666667%,26.666667%);stroke-opacity:1;stroke-miterlimit:10;" d="M 356.269531 92.230469 L 369.261719 20.984375 "/>
<path style="fill:none;stroke-width:0.2;stroke-linecap:butt;stroke-linejoin:miter;stroke:rgb(26.666667%,26.666667%,26.666667%);stroke-opacity:1;stroke-miterlimit:10;" d="M 356.269531 92.230469 L 313.445312 104.445312 "/>
<path style="fill:none;stroke-width:0.2;stroke-linecap:butt;stroke-linejoin:miter;stroke:rgb(26.666667%,26.666667%,26.666667%);stroke-opacity:1;stroke-miterlimit:10;" d="M 356.269531 92.230469 L 383.035156 151.597656 "/>
<path style=" stroke:none;fill-rule:nonzero;fill:rgb(100%,0%,0%);fill-opacity:1;" d="M 64.789062 293.082031 C 64.789062 294.414062 62.789062 294.414062 62.789062 293.082031 C 62.789062 291.75 64.789062 291.75 64.789062 293.082031 "/>
<path style=" stroke:none;fill-rule:nonzero;fill:rgb(100%,0%,0%);fill-opacity:1;" d="M 116.878906 305.457031 C 116.878906 306.792969 114.878906 306.792969 114.878906 305.457031 C 114.878906 304.125 116.878906 304.125 116.878906 305.457031 "/>
<path style=" stroke:none;fill-rule:nonzero;fill:rgb(100%,0%,0%);fill-opacity:1;" d="M 21 281.007812 C 21 282.34375 19 282.34375 19 281.007812 C 19 279.675781 21 279.675781 21 281.007812 "/>
<path style=" stroke:none;fill-rule:nonzero;fill:rgb(100%,0%,0%);fill-opacity:1;" d="M 132.515625 231.292969 C 132.515625 232.628906 130.515625 232.628906 130.515625 231.292969 C 130.515625 229.960938 132.515625 229.960938 132.515625 231.292969 "/>
<path style=" stroke:none;fill-rule:nonzero;fill:rgb(100%,0%,0%);fill-opacity:1;" d="M 213.539062 519.839844 C 213.539062 521.175781 211.539062 521.175781 211.539062 519.839844 C 211.539062 518.507812 213.539062 518.507812 213.539062 519.839844 "/>
<path style=" stroke:none;fill-rule:nonzero;fill:rgb(100%,0%,0%);fill-opacity:1;" d="M 183.855469 451.808594 C 183.855469 453.140625 181.855469 453.140625 181.855469 451.808594 C 181.855469 450.472656 183.855469 450.472656 183.855469 451.808594 "/>
<path style=" stroke:none;fill-rule:nonzero;fill:rgb(100%,0%,0%);fill-opacity:1;" d="M 239.46875 580 C 239.46875 581.332031 237.46875 581.332031 237.46875 580 C 237.46875 578.667969 239.46875 578.667969 239.46875 580 "/>
<path style=" stroke:none;fill-rule:nonzero;fill:rgb(100%,0%,0%);fill-opacity:1;" d="M 571.320312 257.917969 C 571.320312 259.25 569.320312 259.25 569.320312 257.917969 C 569.320312 256.585938 571.320312 256.585938 571.320312 257.917969 "/>
<path style=" stroke:none;fill-rule:nonzero;fill:rgb(100%,0%,0%);fill-opacity:1;" d="M 581 189.351562 C 581 190.6875 579 190.6875 579 189.351562 C 579 188.019531 581 188.019531 581 189.351562 "/>
<path style=" stroke:none;fill-rule:nonzero;fill:rgb(100%,0%,0%);fill-opacity:1;" d="M 561.058594 326.214844 C 561.058594 327.546875 559.058594 327.546875 559.058594 326.214844 C 559.058594 324.878906 561.058594 324.878906 561.058594 326.214844 "/>
<path style=" stroke:none;fill-rule:nonzero;fill:rgb(100%,0%,0%);fill-opacity:1;" d="M 151.796875 380.425781 C 151.796875 381.757812 149.796875 381.757812 149.796875 380.425781 C 149.796875 379.09375 151.796875 379.09375 151.796875 380.425781 "/>
<path style=" stroke:none;fill-rule:nonzero;fill:rgb(100%,0%,0%);fill-opacity:1;" d="M 357.269531 92.230469 C 357.269531 93.5625 355.269531 93.5625 355.269531 92.230469 C 355.269531 90.894531 357.269531 90.894531 357.269531 92.230469 "/>
<path style=" stroke:none;fill-rule:nonzero;fill:rgb(100%,0%,0%);fill-opacity:1;" d="M 370.441406 20 C 370.441406 21.332031 368.441406 21.332031 368.441406 20 C 368.441406 18.667969 370.441406 18.667969 370.441406 20 "/>
<path style=" stroke:none;fill-rule:nonzero;fill:rgb(100%,0%,0%);fill-opacity:1;" d="M 313.484375 104.71875 C 313.484375 106.054688 311.484375 106.054688 311.484375 104.71875 C 311.484375 103.386719 313.484375 103.386719 313.484375 104.71875 "/>
<path style=" stroke:none;fill-rule:nonzero;fill:rgb(100%,0%,0%);fill-opacity:1;" d="M 384.449219 152.511719 C 384.449219 153.84375 382.449219 153.84375 382.449219 152.511719 C 382.449219 151.175781 384.449219 151.175781 384.449219 152.511719 "/>
</g>
</svg>
