<?xml version="1.0" encoding="UTF-8"?>
<svg xmlns="http://www.w3.org/2000/svg" xmlns:xlink="http://www.w3.org/1999/xlink" width="600" height="600" viewBox="0 0 600 600">
<rect x="-60" y="-60" width="720" height="720" fill="rgb(100%, 100%, 100%)" fill-opacity="1"/>
<path fill="none" stroke-width="0.2" stroke-linecap="butt" stroke-linejoin="miter" stroke="rgb(26.666667%, 26.666667%, 26.666667%)" stroke-opacity="1" stroke-miterlimit="10" d="M 201.039062 272.816406 L 209.644531 250.195312 "/>
<path fill-rule="nonzero" fill="rgb(26.666667%, 26.666667%, 26.666667%)" fill-opacity="1" d="M 209.695312 250.0625 L 209.6875 250.210938 L 209.601562 250.179688 L 209.695312 250.0625 "/>
<path fill="none" stroke-width="0.2" stroke-linecap="butt" stroke-linejoin="miter" stroke="rgb(26.666667%, 26.666667%, 26.666667%)" stroke-opacity="1" stroke-miterlimit="10" d="M 524.386719 505.222656 L 541.324219 484.871094 "/>
<path fill-rule="nonzero" fill="rgb(26.666667%, 26.666667%, 26.666667%)" fill-opacity="1" d="M 541.414062 484.761719 L 541.359375 484.902344 L 541.289062 484.84375 L 541.414062 484.761719 "/>
<path fill="none" stroke-width="0.2" stroke-linecap="butt" stroke-linejoin="miter" stroke="rgb(26.666667%, 26.666667%, 26.666667%)" stroke-opacity="1" stroke-miterlimit="10" d="M 524.386719 505.222656 L 533.066406 529.949219 "/>
<path fill-rule="nonzero" fill="rgb(26.666667%, 26.666667%, 26.666667%)" fill-opacity="1" d="M 533.113281 530.082031 L 533.019531 529.964844 L 533.109375 529.933594 L 533.113281 530.082031 "/>
<path fill="none" stroke-width="0.2" stroke-linecap="butt" stroke-linejoin="miter" stroke="rgb(26.666667%, 26.666667%, 26.666667%)" stroke-opacity="1" stroke-miterlimit="10" d="M 524.386719 505.222656 L 498.304688 502.214844 "/>
<path fill-rule="nonzero" fill="rgb(26.666667%, 26.666667%, 26.666667%)" fill-opacity="1" d="M 498.164062 502.199219 L 498.308594 502.167969 L 498.300781 502.261719 L 498.164062 502.199219 "/>
<path fill="none" stroke-width="0.2" stroke-linecap="butt" stroke-linejoin="miter" stroke="rgb(26.666667%, 26.666667%, 26.666667%)" stroke-opacity="1" stroke-miterlimit="10" d="M 147.757812 108.527344 L 148.519531 134.746094 "/>
<path fill-rule="nonzero" fill="rgb(26.666667%, 26.666667%, 26.666667%)" fill-opacity="1" d="M 148.523438 134.886719 L 148.472656 134.746094 L 148.566406 134.746094 L 148.523438 134.886719 "/>
<path fill="none" stroke-width="0.2" stroke-linecap="butt" stroke-linejoin="miter" stroke="rgb(26.666667%, 26.666667%, 26.666667%)" stroke-opacity="1" stroke-miterlimit="10" d="M 147.757812 108.527344 L 169.878906 94.546875 "/>
<path fill-rule="nonzero" fill="rgb(26.666667%, 26.666667%, 26.666667%)" fill-opacity="1" d="M 170 94.472656 L 169.90625 94.585938 L 169.855469 94.507812 L 170 94.472656 "/>
<path fill="none" stroke-width="0.2" stroke-linecap="butt" stroke-linejoin="miter" stroke="rgb(26.666667%, 26.666667%, 26.666667%)" stroke-opacity="1" stroke-miterlimit="10" d="M 147.757812 108.527344 L 124.820312 95.886719 "/>
<path fill-rule="nonzero" fill="rgb(26.666667%, 26.666667%, 26.666667%)" fill-opacity="1" d="M 124.695312 95.820312 L 124.839844 95.847656 L 124.796875 95.929688 L 124.695312 95.820312 "/>
<path fill="none" stroke-width="0.2" stroke-linecap="butt" stroke-linejoin="miter" stroke="rgb(26.666667%, 26.666667%, 26.666667%)" stroke-opacity="1" stroke-miterlimit="10" d="M 186.164062 421.585938 L 181.75 445.527344 "/>
<path fill-rule="nonzero" fill="rgb(26.666667%, 26.666667%, 26.666667%)" fill-opacity="1" d="M 181.722656 445.667969 L 181.703125 445.519531 L 181.792969 445.535156 L 181.722656 445.667969 "/>
<path fill="none" stroke-width="0.2" stroke-linecap="butt" stroke-linejoin="miter" stroke="rgb(26.666667%, 26.666667%, 26.666667%)" stroke-opacity="1" stroke-miterlimit="10" d="M 186.164062 421.585938 L 189.574219 397.5 "/>
<path fill-rule="nonzero" fill="rgb(26.666667%, 26.666667%, 26.666667%)" fill-opacity="1" d="M 189.59375 397.359375 L 189.621094 397.507812 L 189.527344 397.496094 L 189.59375 397.359375 "/>
<path fill="none" stroke-width="0.2" stroke-linecap="butt" stroke-linejoin="miter" stroke="rgb(26.666667%, 26.666667%, 26.666667%)" stroke-opacity="1" stroke-miterlimit="10" d="M 422.828125 378.605469 L 417.855469 352.824219 "/>
<path fill-rule="nonzero" fill="rgb(26.666667%, 26.666667%, 26.666667%)" fill-opacity="1" d="M 417.828125 352.683594 L 417.902344 352.816406 L 417.808594 352.832031 L 417.828125 352.683594 "/>
<path fill="none" stroke-width="0.2" stroke-linecap="butt" stroke-linejoin="miter" stroke="rgb(26.666667%, 26.666667%, 26.666667%)" stroke-opacity="1" stroke-miterlimit="10" d="M 422.828125 378.605469 L 447.554688 387.0625 "/>
<path fill-rule="nonzero" fill="rgb(26.666667%, 26.666667%, 26.666667%)" fill-opacity="1" d="M 447.6875 387.109375 L 447.539062 387.105469 L 447.566406 387.019531 L 447.6875 387.109375 "/>
<path fill="none" stroke-width="0.2" stroke-linecap="butt" stroke-linejoin="miter" stroke="rgb(26.666667%, 26.666667%, 26.666667%)" stroke-opacity="1" stroke-miterlimit="10" d="M 422.828125 378.605469 L 403.511719 396.320312 "/>
<path fill-rule="nonzero" fill="rgb(26.666667%, 26.666667%, 26.666667%)" fill-opacity="1" d="M 403.410156 396.417969 L 403.480469 396.285156 L 403.542969 396.355469 L 403.410156 396.417969 "/>
<path fill="none" stroke-width="0.2" stroke-linecap="butt" stroke-linejoin="miter" stroke="rgb(26.666667%, 26.666667%, 26.666667%)" stroke-opacity="1" stroke-miterlimit="10" d="M 219.433594 225.582031 L 210.476562 248.066406 "/>
<path fill-rule="nonzero" fill="rgb(26.666667%, 26.666667%, 26.666667%)" fill-opacity="1" d="M 210.421875 248.199219 L 210.433594 248.050781 L 210.519531 248.085938 L 210.421875 248.199219 "/>
<path fill="none" stroke-width="0.2" stroke-linecap="butt" stroke-linejoin="miter" stroke="rgb(26.666667%, 26.666667%, 26.666667%)" stroke-opacity="1" stroke-miterlimit="10" d="M 490.136719 43.394531 L 468.441406 32.347656 "/>
<path fill-rule="nonzero" fill="rgb(26.666667%, 26.666667%, 26.666667%)" fill-opacity="1" d="M 468.316406 32.28125 L 468.464844 32.304688 L 468.421875 32.386719 L 468.316406 32.28125 "/>
<path fill="none" stroke-width="0.2" stroke-linecap="butt" stroke-linejoin="miter" stroke="rgb(26.666667%, 26.666667%, 26.666667%)" stroke-opacity="1" stroke-miterlimit="10" d="M 444.84375 20 L 466.410156 31.296875 "/>
<path fill-rule="nonzero" fill="rgb(26.666667%, 26.666667%, 26.666667%)" fill-opacity="1" d="M 466.539062 31.363281 L 466.390625 31.339844 L 466.433594 31.257812 L 466.539062 31.363281 "/>
<path fill="none" stroke-width="0.2" stroke-linecap="butt" stroke-linejoin="miter" stroke="rgb(26.666667%, 26.666667%, 26.666667%)" stroke-opacity="1" stroke-miterlimit="10" d="M 303.085938 66.011719 L 324.636719 55.199219 "/>
<path fill-rule="nonzero" fill="rgb(26.666667%, 26.666667%, 26.666667%)" fill-opacity="1" d="M 324.761719 55.132812 L 324.65625 55.238281 L 324.613281 55.15625 L 324.761719 55.132812 "/>
<path fill="none" stroke-width="0.2" stroke-linecap="butt" stroke-linejoin="miter" stroke="rgb(26.666667%, 26.666667%, 26.666667%)" stroke-opacity="1" stroke-miterlimit="10" d="M 303.085938 66.011719 L 281.75 77.203125 "/>
<path fill-rule="nonzero" fill="rgb(26.666667%, 26.666667%, 26.666667%)" fill-opacity="1" d="M 281.625 77.269531 L 281.730469 77.160156 L 281.773438 77.242188 L 281.625 77.269531 "/>
<path fill="none" stroke-width="0.2" stroke-linecap="butt" stroke-linejoin="miter" stroke="rgb(26.666667%, 26.666667%, 26.666667%)" stroke-opacity="1" stroke-miterlimit="10" d="M 546.636719 247.515625 L 559.078125 279.644531 "/>
<path fill-rule="nonzero" fill="rgb(26.666667%, 26.666667%, 26.666667%)" fill-opacity="1" d="M 559.128906 279.777344 L 559.035156 279.660156 L 559.121094 279.625 L 559.128906 279.777344 "/>
<path fill="none" stroke-width="0.2" stroke-linecap="butt" stroke-linejoin="miter" stroke="rgb(26.666667%, 26.666667%, 26.666667%)" stroke-opacity="1" stroke-miterlimit="10" d="M 546.636719 247.515625 L 513.078125 252.292969 "/>
<path fill-rule="nonzero" fill="rgb(26.666667%, 26.666667%, 26.666667%)" fill-opacity="1" d="M 512.9375 252.3125 L 513.070312 252.246094 L 513.085938 252.339844 L 512.9375 252.3125 "/>
<path fill="none" stroke-width="0.2" stroke-linecap="butt" stroke-linejoin="miter" stroke="rgb(26.666667%, 26.666667%, 26.666667%)" stroke-opacity="1" stroke-miterlimit="10" d="M 546.636719 247.515625 L 549.234375 213.472656 "/>
<path fill-rule="nonzero" fill="rgb(26.666667%, 26.666667%, 26.666667%)" fill-opacity="1" d="M 549.246094 213.332031 L 549.28125 213.476562 L 549.1875 213.46875 L 549.246094 213.332031 "/>
<path fill="none" stroke-width="0.2" stroke-linecap="butt" stroke-linejoin="miter" stroke="rgb(26.666667%, 26.666667%, 26.666667%)" stroke-opacity="1" stroke-miterlimit="10" d="M 546.636719 247.515625 L 578.910156 257.832031 "/>
<path fill-rule="nonzero" fill="rgb(26.666667%, 26.666667%, 26.666667%)" fill-opacity="1" d="M 579.046875 257.875 L 578.898438 257.878906 L 578.925781 257.789062 L 579.046875 257.875 "/>
<path fill="none" stroke-width="0.2" stroke-linecap="butt" stroke-linejoin="miter" stroke="rgb(26.666667%, 26.666667%, 26.666667%)" stroke-opacity="1" stroke-miterlimit="10" d="M 546.636719 247.515625 L 574.582031 228.597656 "/>
<path fill-rule="nonzero" fill="rgb(26.666667%, 26.666667%, 26.666667%)" fill-opacity="1" d="M 574.699219 228.515625 L 574.609375 228.636719 L 574.554688 228.558594 L 574.699219 228.515625 "/>
<path fill="none" stroke-width="0.2" stroke-linecap="butt" stroke-linejoin="miter" stroke="rgb(26.666667%, 26.666667%, 26.666667%)" stroke-opacity="1" stroke-miterlimit="10" d="M 546.636719 247.515625 L 521.78125 224.171875 "/>
<path fill-rule="nonzero" fill="rgb(26.666667%, 26.666667%, 26.666667%)" fill-opacity="1" d="M 521.675781 224.074219 L 521.8125 224.136719 L 521.746094 224.207031 L 521.675781 224.074219 "/>
<path fill="none" stroke-width="0.2" stroke-linecap="butt" stroke-linejoin="miter" stroke="rgb(26.666667%, 26.666667%, 26.666667%)" stroke-opacity="1" stroke-miterlimit="10" d="M 546.636719 247.515625 L 529.792969 276.597656 "/>
<path fill-rule="nonzero" fill="rgb(26.666667%, 26.666667%, 26.666667%)" fill-opacity="1" d="M 529.71875 276.71875 L 529.753906 276.574219 L 529.832031 276.621094 L 529.71875 276.71875 "/>
<path fill="none" stroke-width="0.2" stroke-linecap="butt" stroke-linejoin="miter" stroke="rgb(26.666667%, 26.666667%, 26.666667%)" stroke-opacity="1" stroke-miterlimit="10" d="M 304.25 329.484375 L 311.65625 306.328125 "/>
<path fill-rule="nonzero" fill="rgb(26.666667%, 26.666667%, 26.666667%)" fill-opacity="1" d="M 311.699219 306.191406 L 311.699219 306.339844 L 311.613281 306.3125 L 311.699219 306.191406 "/>
<path fill="none" stroke-width="0.2" stroke-linecap="butt" stroke-linejoin="miter" stroke="rgb(26.666667%, 26.666667%, 26.666667%)" stroke-opacity="1" stroke-miterlimit="10" d="M 304.25 329.484375 L 297.347656 352.796875 "/>
<path fill-rule="nonzero" fill="rgb(26.666667%, 26.666667%, 26.666667%)" fill-opacity="1" d="M 297.308594 352.933594 L 297.304688 352.78125 L 297.390625 352.808594 L 297.308594 352.933594 "/>
<path fill="none" stroke-width="0.2" stroke-linecap="butt" stroke-linejoin="miter" stroke="rgb(26.666667%, 26.666667%, 26.666667%)" stroke-opacity="1" stroke-miterlimit="10" d="M 374.863281 175.15625 L 353.507812 186.535156 "/>
<path fill-rule="nonzero" fill="rgb(26.666667%, 26.666667%, 26.666667%)" fill-opacity="1" d="M 353.382812 186.605469 L 353.488281 186.496094 L 353.53125 186.578125 L 353.382812 186.605469 "/>
<path fill="none" stroke-width="0.2" stroke-linecap="butt" stroke-linejoin="miter" stroke="rgb(26.666667%, 26.666667%, 26.666667%)" stroke-opacity="1" stroke-miterlimit="10" d="M 374.863281 175.15625 L 395.980469 163.296875 "/>
<path fill-rule="nonzero" fill="rgb(26.666667%, 26.666667%, 26.666667%)" fill-opacity="1" d="M 396.101562 163.226562 L 396 163.335938 L 395.957031 163.253906 L 396.101562 163.226562 "/>
<path fill="none" stroke-width="0.2" stroke-linecap="butt" stroke-linejoin="miter" stroke="rgb(26.666667%, 26.666667%, 26.666667%)" stroke-opacity="1" stroke-miterlimit="10" d="M 303.835938 550.332031 L 313.09375 521.5625 "/>
<path fill-rule="nonzero" fill="rgb(26.666667%, 26.666667%, 26.666667%)" fill-opacity="1" d="M 313.136719 521.425781 L 313.136719 521.578125 L 313.046875 521.550781 L 313.136719 521.425781 "/>
<path fill="none" stroke-width="0.2" stroke-linecap="butt" stroke-linejoin="miter" stroke="rgb(26.666667%, 26.666667%, 26.666667%)" stroke-opacity="1" stroke-miterlimit="10" d="M 303.835938 550.332031 L 279.164062 532.867188 "/>
<path fill-rule="nonzero" fill="rgb(26.666667%, 26.666667%, 26.666667%)" fill-opacity="1" d="M 279.050781 532.785156 L 279.191406 532.828125 L 279.136719 532.902344 L 279.050781 532.785156 "/>
<path fill="none" stroke-width="0.2" stroke-linecap="butt" stroke-linejoin="miter" stroke="rgb(26.666667%, 26.666667%, 26.666667%)" stroke-opacity="1" stroke-miterlimit="10" d="M 303.835938 550.332031 L 279.210938 568.265625 "/>
<path fill-rule="nonzero" fill="rgb(26.666667%, 26.666667%, 26.666667%)" fill-opacity="1" d="M 279.097656 568.351562 L 279.183594 568.226562 L 279.238281 568.304688 L 279.097656 568.351562 "/>
<path fill="none" stroke-width="0.2" stroke-linecap="butt" stroke-linejoin="miter" stroke="rgb(26.666667%, 26.666667%, 26.666667%)" stroke-opacity="1" stroke-miterlimit="10" d="M 303.835938 550.332031 L 334.28125 550.046875 "/>
<path fill-rule="nonzero" fill="rgb(26.666667%, 26.666667%, 26.666667%)" fill-opacity="1" d="M 334.421875 550.046875 L 334.28125 550.09375 L 334.28125 550 L 334.421875 550.046875 "/>
<path fill="none" stroke-width="0.2" stroke-linecap="butt" stroke-linejoin="miter" stroke="rgb(26.666667%, 26.666667%, 26.666667%)" stroke-opacity="1" stroke-miterlimit="10" d="M 303.835938 550.332031 L 313.402344 578.917969 "/>
<path fill-rule="nonzero" fill="rgb(26.666667%, 26.666667%, 26.666667%)" fill-opacity="1" d="M 313.449219 579.050781 L 313.359375 578.929688 L 313.445312 578.902344 L 313.449219 579.050781 "/>
<path fill="none" stroke-width="0.2" stroke-linecap="butt" stroke-linejoin="miter" stroke="rgb(26.666667%, 26.666667%, 26.666667%)" stroke-opacity="1" stroke-miterlimit="10" d="M 56.722656 393.308594 L 36.53125 376.597656 "/>
<path fill-rule="nonzero" fill="rgb(26.666667%, 26.666667%, 26.666667%)" fill-opacity="1" d="M 36.421875 376.507812 L 36.5625 376.5625 L 36.503906 376.632812 L 36.421875 376.507812 "/>
<path fill="none" stroke-width="0.2" stroke-linecap="butt" stroke-linejoin="miter" stroke="rgb(26.666667%, 26.666667%, 26.666667%)" stroke-opacity="1" stroke-miterlimit="10" d="M 56.722656 393.308594 L 80.457031 382.261719 "/>
<path fill-rule="nonzero" fill="rgb(26.666667%, 26.666667%, 26.666667%)" fill-opacity="1" d="M 80.585938 382.203125 L 80.476562 382.304688 L 80.4375 382.21875 L 80.585938 382.203125 "/>
<path fill="none" stroke-width="0.2" stroke-linecap="butt" stroke-linejoin="miter" stroke="rgb(26.666667%, 26.666667%, 26.666667%)" stroke-opacity="1" stroke-miterlimit="10" d="M 56.722656 393.308594 L 53.347656 419.550781 "/>
<path fill-rule="nonzero" fill="rgb(26.666667%, 26.666667%, 26.666667%)" fill-opacity="1" d="M 53.332031 419.691406 L 53.304688 419.546875 L 53.394531 419.558594 L 53.332031 419.691406 "/>
<path fill="none" stroke-width="0.2" stroke-linecap="butt" stroke-linejoin="miter" stroke="rgb(26.666667%, 26.666667%, 26.666667%)" stroke-opacity="1" stroke-miterlimit="10" d="M 33.039062 222.054688 L 44.902344 201.035156 "/>
<path fill-rule="nonzero" fill="rgb(26.666667%, 26.666667%, 26.666667%)" fill-opacity="1" d="M 44.972656 200.910156 L 44.945312 201.058594 L 44.863281 201.011719 L 44.972656 200.910156 "/>
<path fill="none" stroke-width="0.2" stroke-linecap="butt" stroke-linejoin="miter" stroke="rgb(26.666667%, 26.666667%, 26.666667%)" stroke-opacity="1" stroke-miterlimit="10" d="M 33.039062 222.054688 L 20.589844 242.769531 "/>
<path fill-rule="nonzero" fill="rgb(26.666667%, 26.666667%, 26.666667%)" fill-opacity="1" d="M 20.515625 242.894531 L 20.550781 242.746094 L 20.628906 242.796875 L 20.515625 242.894531 "/>
<path fill-rule="nonzero" fill="rgb(100%, 0%, 0%)" fill-opacity="1" stroke-width="0.01" stroke-linecap="butt" stroke-linejoin="miter" stroke="rgb(0%, 0%, 0%)" stroke-opacity="1" stroke-miterlimit="10" d="M 202.039062 272.816406 C 202.039062 274.148438 200.039062 274.148438 200.039062 272.816406 C 200.039062 271.480469 202.039062 271.480469 202.039062 272.816406 "/>
<path fill-rule="nonzero" fill="rgb(100%, 0%, 0%)" fill-opacity="1" stroke-width="0.01" stroke-linecap="butt" stroke-linejoin="miter" stroke="rgb(0%, 0%, 0%)" stroke-opacity="1" stroke-miterlimit="10" d="M 211.050781 249.128906 C 211.050781 250.460938 209.050781 250.460938 209.050781 249.128906 C 209.050781 247.796875 211.050781 247.796875 211.050781 249.128906 "/>
<path fill-rule="nonzero" fill="rgb(100%, 0%, 0%)" fill-opacity="1" stroke-width="0.01" stroke-linecap="butt" stroke-linejoin="miter" stroke="rgb(0%, 0%, 0%)" stroke-opacity="1" stroke-miterlimit="10" d="M 525.386719 505.222656 C 525.386719 506.554688 523.386719 506.554688 523.386719 505.222656 C 523.386719 503.886719 525.386719 503.886719 525.386719 505.222656 "/>
<path fill-rule="nonzero" fill="rgb(100%, 0%, 0%)" fill-opacity="1" stroke-width="0.01" stroke-linecap="butt" stroke-linejoin="miter" stroke="rgb(0%, 0%, 0%)" stroke-opacity="1" stroke-miterlimit="10" d="M 543.054688 483.996094 C 543.054688 485.328125 541.054688 485.328125 541.054688 483.996094 C 541.054688 482.660156 543.054688 482.660156 543.054688 483.996094 "/>
<path fill-rule="nonzero" fill="rgb(100%, 0%, 0%)" fill-opacity="1" stroke-width="0.01" stroke-linecap="butt" stroke-linejoin="miter" stroke="rgb(0%, 0%, 0%)" stroke-opacity="1" stroke-miterlimit="10" d="M 534.445312 531.027344 C 534.445312 532.359375 532.445312 532.359375 532.445312 531.027344 C 532.445312 529.691406 534.445312 529.691406 534.445312 531.027344 "/>
<path fill-rule="nonzero" fill="rgb(100%, 0%, 0%)" fill-opacity="1" stroke-width="0.01" stroke-linecap="butt" stroke-linejoin="miter" stroke="rgb(0%, 0%, 0%)" stroke-opacity="1" stroke-miterlimit="10" d="M 498.171875 502.082031 C 498.171875 503.417969 496.171875 503.417969 496.171875 502.082031 C 496.171875 500.75 498.171875 500.75 498.171875 502.082031 "/>
<path fill-rule="nonzero" fill="rgb(100%, 0%, 0%)" fill-opacity="1" stroke-width="0.01" stroke-linecap="butt" stroke-linejoin="miter" stroke="rgb(0%, 0%, 0%)" stroke-opacity="1" stroke-miterlimit="10" d="M 148.757812 108.527344 C 148.757812 109.859375 146.757812 109.859375 146.757812 108.527344 C 146.757812 107.195312 148.757812 107.195312 148.757812 108.527344 "/>
<path fill-rule="nonzero" fill="rgb(100%, 0%, 0%)" fill-opacity="1" stroke-width="0.01" stroke-linecap="butt" stroke-linejoin="miter" stroke="rgb(0%, 0%, 0%)" stroke-opacity="1" stroke-miterlimit="10" d="M 149.550781 135.886719 C 149.550781 137.222656 147.550781 137.222656 147.550781 135.886719 C 147.550781 134.554688 149.550781 134.554688 149.550781 135.886719 "/>
<path fill-rule="nonzero" fill="rgb(100%, 0%, 0%)" fill-opacity="1" stroke-width="0.01" stroke-linecap="butt" stroke-linejoin="miter" stroke="rgb(0%, 0%, 0%)" stroke-opacity="1" stroke-miterlimit="10" d="M 171.847656 93.9375 C 171.847656 95.269531 169.847656 95.269531 169.847656 93.9375 C 169.847656 92.605469 171.847656 92.605469 171.847656 93.9375 "/>
<path fill-rule="nonzero" fill="rgb(100%, 0%, 0%)" fill-opacity="1" stroke-width="0.01" stroke-linecap="butt" stroke-linejoin="miter" stroke="rgb(0%, 0%, 0%)" stroke-opacity="1" stroke-miterlimit="10" d="M 124.816406 95.335938 C 124.816406 96.671875 122.816406 96.671875 122.816406 95.335938 C 122.816406 94.003906 124.816406 94.003906 124.816406 95.335938 "/>
<path fill-rule="nonzero" fill="rgb(100%, 0%, 0%)" fill-opacity="1" stroke-width="0.01" stroke-linecap="butt" stroke-linejoin="miter" stroke="rgb(0%, 0%, 0%)" stroke-opacity="1" stroke-miterlimit="10" d="M 187.164062 421.585938 C 187.164062 422.917969 185.164062 422.917969 185.164062 421.585938 C 185.164062 420.25 187.164062 420.25 187.164062 421.585938 "/>
<path fill-rule="nonzero" fill="rgb(100%, 0%, 0%)" fill-opacity="1" stroke-width="0.01" stroke-linecap="butt" stroke-linejoin="miter" stroke="rgb(0%, 0%, 0%)" stroke-opacity="1" stroke-miterlimit="10" d="M 182.542969 446.652344 C 182.542969 447.984375 180.542969 447.984375 180.542969 446.652344 C 180.542969 445.316406 182.542969 445.316406 182.542969 446.652344 "/>
<path fill-rule="nonzero" fill="rgb(100%, 0%, 0%)" fill-opacity="1" stroke-width="0.01" stroke-linecap="butt" stroke-linejoin="miter" stroke="rgb(0%, 0%, 0%)" stroke-opacity="1" stroke-miterlimit="10" d="M 190.734375 396.371094 C 190.734375 397.703125 188.734375 397.703125 188.734375 396.371094 C 188.734375 395.035156 190.734375 395.035156 190.734375 396.371094 "/>
<path fill-rule="nonzero" fill="rgb(100%, 0%, 0%)" fill-opacity="1" stroke-width="0.01" stroke-linecap="butt" stroke-linejoin="miter" stroke="rgb(0%, 0%, 0%)" stroke-opacity="1" stroke-miterlimit="10" d="M 423.828125 378.605469 C 423.828125 379.941406 421.828125 379.941406 421.828125 378.605469 C 421.828125 377.273438 423.828125 377.273438 423.828125 378.605469 "/>
<path fill-rule="nonzero" fill="rgb(100%, 0%, 0%)" fill-opacity="1" stroke-width="0.01" stroke-linecap="butt" stroke-linejoin="miter" stroke="rgb(0%, 0%, 0%)" stroke-opacity="1" stroke-miterlimit="10" d="M 418.636719 351.703125 C 418.636719 353.035156 416.636719 353.035156 416.636719 351.703125 C 416.636719 350.367188 418.636719 350.367188 418.636719 351.703125 "/>
<path fill-rule="nonzero" fill="rgb(100%, 0%, 0%)" fill-opacity="1" stroke-width="0.01" stroke-linecap="butt" stroke-linejoin="miter" stroke="rgb(0%, 0%, 0%)" stroke-opacity="1" stroke-miterlimit="10" d="M 449.632812 387.429688 C 449.632812 388.765625 447.632812 388.765625 447.632812 387.429688 C 447.632812 386.097656 449.632812 386.097656 449.632812 387.429688 "/>
<path fill-rule="nonzero" fill="rgb(100%, 0%, 0%)" fill-opacity="1" stroke-width="0.01" stroke-linecap="butt" stroke-linejoin="miter" stroke="rgb(0%, 0%, 0%)" stroke-opacity="1" stroke-miterlimit="10" d="M 403.671875 397.09375 C 403.671875 398.425781 401.671875 398.425781 401.671875 397.09375 C 401.671875 395.757812 403.671875 395.757812 403.671875 397.09375 "/>
<path fill-rule="nonzero" fill="rgb(100%, 0%, 0%)" fill-opacity="1" stroke-width="0.01" stroke-linecap="butt" stroke-linejoin="miter" stroke="rgb(0%, 0%, 0%)" stroke-opacity="1" stroke-miterlimit="10" d="M 220.433594 225.582031 C 220.433594 226.914062 218.433594 226.914062 218.433594 225.582031 C 218.433594 224.25 220.433594 224.25 220.433594 225.582031 "/>
<path fill-rule="nonzero" fill="rgb(100%, 0%, 0%)" fill-opacity="1" stroke-width="0.01" stroke-linecap="butt" stroke-linejoin="miter" stroke="rgb(0%, 0%, 0%)" stroke-opacity="1" stroke-miterlimit="10" d="M 491.136719 43.394531 C 491.136719 44.730469 489.136719 44.730469 489.136719 43.394531 C 489.136719 42.0625 491.136719 42.0625 491.136719 43.394531 "/>
<path fill-rule="nonzero" fill="rgb(100%, 0%, 0%)" fill-opacity="1" stroke-width="0.01" stroke-linecap="butt" stroke-linejoin="miter" stroke="rgb(0%, 0%, 0%)" stroke-opacity="1" stroke-miterlimit="10" d="M 468.425781 31.828125 C 468.425781 33.160156 466.425781 33.160156 466.425781 31.828125 C 466.425781 30.496094 468.425781 30.496094 468.425781 31.828125 "/>
<path fill-rule="nonzero" fill="rgb(100%, 0%, 0%)" fill-opacity="1" stroke-width="0.01" stroke-linecap="butt" stroke-linejoin="miter" stroke="rgb(0%, 0%, 0%)" stroke-opacity="1" stroke-miterlimit="10" d="M 445.84375 20 C 445.84375 21.332031 443.84375 21.332031 443.84375 20 C 443.84375 18.667969 445.84375 18.667969 445.84375 20 "/>
<path fill-rule="nonzero" fill="rgb(100%, 0%, 0%)" fill-opacity="1" stroke-width="0.01" stroke-linecap="butt" stroke-linejoin="miter" stroke="rgb(0%, 0%, 0%)" stroke-opacity="1" stroke-miterlimit="10" d="M 304.085938 66.011719 C 304.085938 67.34375 302.085938 67.34375 302.085938 66.011719 C 302.085938 64.679688 304.085938 64.679688 304.085938 66.011719 "/>
<path fill-rule="nonzero" fill="rgb(100%, 0%, 0%)" fill-opacity="1" stroke-width="0.01" stroke-linecap="butt" stroke-linejoin="miter" stroke="rgb(0%, 0%, 0%)" stroke-opacity="1" stroke-miterlimit="10" d="M 326.65625 54.683594 C 326.65625 56.019531 324.65625 56.019531 324.65625 54.683594 C 324.65625 53.351562 326.65625 53.351562 326.65625 54.683594 "/>
<path fill-rule="nonzero" fill="rgb(100%, 0%, 0%)" fill-opacity="1" stroke-width="0.01" stroke-linecap="butt" stroke-linejoin="miter" stroke="rgb(0%, 0%, 0%)" stroke-opacity="1" stroke-miterlimit="10" d="M 281.738281 77.734375 C 281.738281 79.066406 279.738281 79.066406 279.738281 77.734375 C 279.738281 76.398438 281.738281 76.398438 281.738281 77.734375 "/>
<path fill-rule="nonzero" fill="rgb(100%, 0%, 0%)" fill-opacity="1" stroke-width="0.01" stroke-linecap="butt" stroke-linejoin="miter" stroke="rgb(0%, 0%, 0%)" stroke-opacity="1" stroke-miterlimit="10" d="M 547.636719 247.515625 C 547.636719 248.847656 545.636719 248.847656 545.636719 247.515625 C 545.636719 246.179688 547.636719 246.179688 547.636719 247.515625 "/>
<path fill-rule="nonzero" fill="rgb(100%, 0%, 0%)" fill-opacity="1" stroke-width="0.01" stroke-linecap="butt" stroke-linejoin="miter" stroke="rgb(0%, 0%, 0%)" stroke-opacity="1" stroke-miterlimit="10" d="M 560.492188 280.710938 C 560.492188 282.042969 558.492188 282.042969 558.492188 280.710938 C 558.492188 279.375 560.492188 279.375 560.492188 280.710938 "/>
<path fill-rule="nonzero" fill="rgb(100%, 0%, 0%)" fill-opacity="1" stroke-width="0.01" stroke-linecap="butt" stroke-linejoin="miter" stroke="rgb(0%, 0%, 0%)" stroke-opacity="1" stroke-miterlimit="10" d="M 512.945312 252.453125 C 512.945312 253.789062 510.945312 253.789062 510.945312 252.453125 C 510.945312 251.121094 512.945312 251.121094 512.945312 252.453125 "/>
<path fill-rule="nonzero" fill="rgb(100%, 0%, 0%)" fill-opacity="1" stroke-width="0.01" stroke-linecap="butt" stroke-linejoin="miter" stroke="rgb(0%, 0%, 0%)" stroke-opacity="1" stroke-miterlimit="10" d="M 550.320312 212.335938 C 550.320312 213.667969 548.320312 213.667969 548.320312 212.335938 C 548.320312 211 550.320312 211 550.320312 212.335938 "/>
<path fill-rule="nonzero" fill="rgb(100%, 0%, 0%)" fill-opacity="1" stroke-width="0.01" stroke-linecap="butt" stroke-linejoin="miter" stroke="rgb(0%, 0%, 0%)" stroke-opacity="1" stroke-miterlimit="10" d="M 581 258.179688 C 581 259.515625 579 259.515625 579 258.179688 C 579 256.847656 581 256.847656 581 258.179688 "/>
<path fill-rule="nonzero" fill="rgb(100%, 0%, 0%)" fill-opacity="1" stroke-width="0.01" stroke-linecap="butt" stroke-linejoin="miter" stroke="rgb(0%, 0%, 0%)" stroke-opacity="1" stroke-miterlimit="10" d="M 576.527344 227.957031 C 576.527344 229.289062 574.527344 229.289062 574.527344 227.957031 C 574.527344 226.625 576.527344 226.625 576.527344 227.957031 "/>
<path fill-rule="nonzero" fill="rgb(100%, 0%, 0%)" fill-opacity="1" stroke-width="0.01" stroke-linecap="butt" stroke-linejoin="miter" stroke="rgb(0%, 0%, 0%)" stroke-opacity="1" stroke-miterlimit="10" d="M 521.945312 223.390625 C 521.945312 224.722656 519.945312 224.722656 519.945312 223.390625 C 519.945312 222.058594 521.945312 222.058594 521.945312 223.390625 "/>
<path fill-rule="nonzero" fill="rgb(100%, 0%, 0%)" fill-opacity="1" stroke-width="0.01" stroke-linecap="butt" stroke-linejoin="miter" stroke="rgb(0%, 0%, 0%)" stroke-opacity="1" stroke-miterlimit="10" d="M 530.21875 277.585938 C 530.21875 278.917969 528.21875 278.917969 528.21875 277.585938 C 528.21875 276.253906 530.21875 276.253906 530.21875 277.585938 "/>
<path fill-rule="nonzero" fill="rgb(100%, 0%, 0%)" fill-opacity="1" stroke-width="0.01" stroke-linecap="butt" stroke-linejoin="miter" stroke="rgb(0%, 0%, 0%)" stroke-opacity="1" stroke-miterlimit="10" d="M 305.25 329.484375 C 305.25 330.820312 303.25 330.820312 303.25 329.484375 C 303.25 328.152344 305.25 328.152344 305.25 329.484375 "/>
<path fill-rule="nonzero" fill="rgb(100%, 0%, 0%)" fill-opacity="1" stroke-width="0.01" stroke-linecap="butt" stroke-linejoin="miter" stroke="rgb(0%, 0%, 0%)" stroke-opacity="1" stroke-miterlimit="10" d="M 313.003906 305.238281 C 313.003906 306.570312 311.003906 306.570312 311.003906 305.238281 C 311.003906 303.90625 313.003906 303.90625 313.003906 305.238281 "/>
<path fill-rule="nonzero" fill="rgb(100%, 0%, 0%)" fill-opacity="1" stroke-width="0.01" stroke-linecap="butt" stroke-linejoin="miter" stroke="rgb(0%, 0%, 0%)" stroke-opacity="1" stroke-miterlimit="10" d="M 298.023438 353.890625 C 298.023438 355.222656 296.023438 355.222656 296.023438 353.890625 C 296.023438 352.558594 298.023438 352.558594 298.023438 353.890625 "/>
<path fill-rule="nonzero" fill="rgb(100%, 0%, 0%)" fill-opacity="1" stroke-width="0.01" stroke-linecap="butt" stroke-linejoin="miter" stroke="rgb(0%, 0%, 0%)" stroke-opacity="1" stroke-miterlimit="10" d="M 375.863281 175.15625 C 375.863281 176.488281 373.863281 176.488281 373.863281 175.15625 C 373.863281 173.824219 375.863281 173.824219 375.863281 175.15625 "/>
<path fill-rule="nonzero" fill="rgb(100%, 0%, 0%)" fill-opacity="1" stroke-width="0.01" stroke-linecap="butt" stroke-linejoin="miter" stroke="rgb(0%, 0%, 0%)" stroke-opacity="1" stroke-miterlimit="10" d="M 353.5 187.074219 C 353.5 188.40625 351.5 188.40625 351.5 187.074219 C 351.5 185.742188 353.5 185.742188 353.5 187.074219 "/>
<path fill-rule="nonzero" fill="rgb(100%, 0%, 0%)" fill-opacity="1" stroke-width="0.01" stroke-linecap="butt" stroke-linejoin="miter" stroke="rgb(0%, 0%, 0%)" stroke-opacity="1" stroke-miterlimit="10" d="M 397.976562 162.734375 C 397.976562 164.070312 395.976562 164.070312 395.976562 162.734375 C 395.976562 161.402344 397.976562 161.402344 397.976562 162.734375 "/>
<path fill-rule="nonzero" fill="rgb(100%, 0%, 0%)" fill-opacity="1" stroke-width="0.01" stroke-linecap="butt" stroke-linejoin="miter" stroke="rgb(0%, 0%, 0%)" stroke-opacity="1" stroke-miterlimit="10" d="M 304.835938 550.332031 C 304.835938 551.664062 302.835938 551.664062 302.835938 550.332031 C 302.835938 549 304.835938 549 304.835938 550.332031 "/>
<path fill-rule="nonzero" fill="rgb(100%, 0%, 0%)" fill-opacity="1" stroke-width="0.01" stroke-linecap="butt" stroke-linejoin="miter" stroke="rgb(0%, 0%, 0%)" stroke-opacity="1" stroke-miterlimit="10" d="M 314.441406 520.476562 C 314.441406 521.808594 312.441406 521.808594 312.441406 520.476562 C 312.441406 519.140625 314.441406 519.140625 314.441406 520.476562 "/>
<path fill-rule="nonzero" fill="rgb(100%, 0%, 0%)" fill-opacity="1" stroke-width="0.01" stroke-linecap="butt" stroke-linejoin="miter" stroke="rgb(0%, 0%, 0%)" stroke-opacity="1" stroke-miterlimit="10" d="M 279.234375 532.207031 C 279.234375 533.539062 277.234375 533.539062 277.234375 532.207031 C 277.234375 530.871094 279.234375 530.871094 279.234375 532.207031 "/>
<path fill-rule="nonzero" fill="rgb(100%, 0%, 0%)" fill-opacity="1" stroke-width="0.01" stroke-linecap="butt" stroke-linejoin="miter" stroke="rgb(0%, 0%, 0%)" stroke-opacity="1" stroke-miterlimit="10" d="M 279.289062 568.9375 C 279.289062 570.273438 277.289062 570.273438 277.289062 568.9375 C 277.289062 567.605469 279.289062 567.605469 279.289062 568.9375 "/>
<path fill-rule="nonzero" fill="rgb(100%, 0%, 0%)" fill-opacity="1" stroke-width="0.01" stroke-linecap="butt" stroke-linejoin="miter" stroke="rgb(0%, 0%, 0%)" stroke-opacity="1" stroke-miterlimit="10" d="M 336.421875 550.035156 C 336.421875 551.371094 334.421875 551.371094 334.421875 550.035156 C 334.421875 548.703125 336.421875 548.703125 336.421875 550.035156 "/>
<path fill-rule="nonzero" fill="rgb(100%, 0%, 0%)" fill-opacity="1" stroke-width="0.01" stroke-linecap="butt" stroke-linejoin="miter" stroke="rgb(0%, 0%, 0%)" stroke-opacity="1" stroke-miterlimit="10" d="M 314.765625 580 C 314.765625 581.332031 312.765625 581.332031 312.765625 580 C 312.765625 578.667969 314.765625 578.667969 314.765625 580 "/>
<path fill-rule="nonzero" fill="rgb(100%, 0%, 0%)" fill-opacity="1" stroke-width="0.01" stroke-linecap="butt" stroke-linejoin="miter" stroke="rgb(0%, 0%, 0%)" stroke-opacity="1" stroke-miterlimit="10" d="M 57.722656 393.308594 C 57.722656 394.640625 55.722656 394.640625 55.722656 393.308594 C 55.722656 391.972656 57.722656 391.972656 57.722656 393.308594 "/>
<path fill-rule="nonzero" fill="rgb(100%, 0%, 0%)" fill-opacity="1" stroke-width="0.01" stroke-linecap="butt" stroke-linejoin="miter" stroke="rgb(0%, 0%, 0%)" stroke-opacity="1" stroke-miterlimit="10" d="M 36.652344 375.871094 C 36.652344 377.203125 34.652344 377.203125 34.652344 375.871094 C 34.652344 374.535156 36.652344 374.535156 36.652344 375.871094 "/>
<path fill-rule="nonzero" fill="rgb(100%, 0%, 0%)" fill-opacity="1" stroke-width="0.01" stroke-linecap="butt" stroke-linejoin="miter" stroke="rgb(0%, 0%, 0%)" stroke-opacity="1" stroke-miterlimit="10" d="M 82.492188 381.78125 C 82.492188 383.113281 80.492188 383.113281 80.492188 381.78125 C 80.492188 380.445312 82.492188 380.445312 82.492188 381.78125 "/>
<path fill-rule="nonzero" fill="rgb(100%, 0%, 0%)" fill-opacity="1" stroke-width="0.01" stroke-linecap="butt" stroke-linejoin="miter" stroke="rgb(0%, 0%, 0%)" stroke-opacity="1" stroke-miterlimit="10" d="M 54.203125 420.683594 C 54.203125 422.019531 52.203125 422.019531 52.203125 420.683594 C 52.203125 419.351562 54.203125 419.351562 54.203125 420.683594 "/>
<path fill-rule="nonzero" fill="rgb(100%, 0%, 0%)" fill-opacity="1" stroke-width="0.01" stroke-linecap="butt" stroke-linejoin="miter" stroke="rgb(0%, 0%, 0%)" stroke-opacity="1" stroke-miterlimit="10" d="M 34.039062 222.054688 C 34.039062 223.386719 32.039062 223.386719 32.039062 222.054688 C 32.039062 220.722656 34.039062 220.722656 34.039062 222.054688 "/>
<path fill-rule="nonzero" fill="rgb(100%, 0%, 0%)" fill-opacity="1" stroke-width="0.01" stroke-linecap="butt" stroke-linejoin="miter" stroke="rgb(0%, 0%, 0%)" stroke-opacity="1" stroke-miterlimit="10" d="M 46.464844 200.039062 C 46.464844 201.375 44.464844 201.375 44.464844 200.039062 C 44.464844 198.707031 46.464844 198.707031 46.464844 200.039062 "/>
<path fill-rule="nonzero" fill="rgb(100%, 0%, 0%)" fill-opacity="1" stroke-width="0.01" stroke-linecap="butt" stroke-linejoin="miter" stroke="rgb(0%, 0%, 0%)" stroke-opacity="1" stroke-miterlimit="10" d="M 21 243.75 C 21 245.085938 19 245.085938 19 243.75 C 19 242.417969 21 242.417969 21 243.75 "/>
</svg>
