<?xml version="1.0" encoding="UTF-8"?>
<svg xmlns="http://www.w3.org/2000/svg" xmlns:xlink="http://www.w3.org/1999/xlink" width="600pt" height="600pt" viewBox="0 0 600 600" version="1.1">
<g id="surface11">
<rect x="0" y="0" width="600" height="600" style="fill:rgb(100%,100%,100%);fill-opacity:1;stroke:none;"/>
<path style="fill:none;stroke-width:0.2;stroke-linecap:butt;stroke-linejoin:miter;stroke:rgb(26.666667%,26.666667%,26.666667%);stroke-opacity:1;stroke-miterlimit:10;" d="M 507.609375 169.285156 L 490.496094 153.664062 "/>
<path style="fill:none;stroke-width:0.2;stroke-linecap:butt;stroke-linejoin:miter;stroke:rgb(26.666667%,26.666667%,26.666667%);stroke-opacity:1;stroke-miterlimit:10;" d="M 340.671875 44.925781 L 363.476562 55.632812 "/>
<path style="fill:none;stroke-width:0.2;stroke-linecap:butt;stroke-linejoin:miter;stroke:rgb(26.666667%,26.666667%,26.666667%);stroke-opacity:1;stroke-miterlimit:10;" d="M 340.671875 44.925781 L 318.574219 56.945312 "/>
<path style="fill:none;stroke-width:0.2;stroke-linecap:butt;stroke-linejoin:miter;stroke:rgb(26.666667%,26.666667%,26.666667%);stroke-opacity:1;stroke-miterlimit:10;" d="M 340.671875 44.925781 L 340.003906 21 "/>
<path style="fill:none;stroke-width:0.2;stroke-linecap:butt;stroke-linejoin:miter;stroke:rgb(26.666667%,26.666667%,26.666667%);stroke-opacity:1;stroke-miterlimit:10;" d="M 341.800781 191.121094 L 362.648438 178.101562 "/>
<path style="fill:none;stroke-width:0.2;stroke-linecap:butt;stroke-linejoin:miter;stroke:rgb(26.666667%,26.666667%,26.666667%);stroke-opacity:1;stroke-miterlimit:10;" d="M 341.800781 191.121094 L 320.734375 177.699219 "/>
<path style="fill:none;stroke-width:0.2;stroke-linecap:butt;stroke-linejoin:miter;stroke:rgb(26.666667%,26.666667%,26.666667%);stroke-opacity:1;stroke-miterlimit:10;" d="M 341.800781 191.121094 L 343.621094 215.3125 "/>
<path style="fill:none;stroke-width:0.2;stroke-linecap:butt;stroke-linejoin:miter;stroke:rgb(26.666667%,26.666667%,26.666667%);stroke-opacity:1;stroke-miterlimit:10;" d="M 109.132812 79.40625 L 88.890625 90.828125 "/>
<path style="fill:none;stroke-width:0.2;stroke-linecap:butt;stroke-linejoin:miter;stroke:rgb(26.666667%,26.666667%,26.666667%);stroke-opacity:1;stroke-miterlimit:10;" d="M 109.132812 79.40625 L 129.355469 67.980469 "/>
<path style="fill:none;stroke-width:0.2;stroke-linecap:butt;stroke-linejoin:miter;stroke:rgb(26.666667%,26.666667%,26.666667%);stroke-opacity:1;stroke-miterlimit:10;" d="M 90.109375 448.96875 L 115.273438 452.507812 "/>
<path style="fill:none;stroke-width:0.2;stroke-linecap:butt;stroke-linejoin:miter;stroke:rgb(26.666667%,26.666667%,26.666667%);stroke-opacity:1;stroke-miterlimit:10;" d="M 90.109375 448.96875 L 73.792969 467.335938 "/>
<path style="fill:none;stroke-width:0.2;stroke-linecap:butt;stroke-linejoin:miter;stroke:rgb(26.666667%,26.666667%,26.666667%);stroke-opacity:1;stroke-miterlimit:10;" d="M 90.109375 448.96875 L 80.429688 426.828125 "/>
<path style="fill:none;stroke-width:0.2;stroke-linecap:butt;stroke-linejoin:miter;stroke:rgb(26.666667%,26.666667%,26.666667%);stroke-opacity:1;stroke-miterlimit:10;" d="M 472.527344 136.160156 L 489.042969 152.289062 "/>
<path style="fill:none;stroke-width:0.2;stroke-linecap:butt;stroke-linejoin:miter;stroke:rgb(26.666667%,26.666667%,26.666667%);stroke-opacity:1;stroke-miterlimit:10;" d="M 580 105.632812 L 565.4375 87.773438 "/>
<path style="fill:none;stroke-width:0.2;stroke-linecap:butt;stroke-linejoin:miter;stroke:rgb(26.666667%,26.666667%,26.666667%);stroke-opacity:1;stroke-miterlimit:10;" d="M 549.140625 68.726562 L 564.152344 86.238281 "/>
<path style="fill:none;stroke-width:0.2;stroke-linecap:butt;stroke-linejoin:miter;stroke:rgb(26.666667%,26.666667%,26.666667%);stroke-opacity:1;stroke-miterlimit:10;" d="M 319.542969 385.070312 L 337.160156 401.886719 "/>
<path style="fill:none;stroke-width:0.2;stroke-linecap:butt;stroke-linejoin:miter;stroke:rgb(26.666667%,26.666667%,26.666667%);stroke-opacity:1;stroke-miterlimit:10;" d="M 319.542969 385.070312 L 329.753906 363.171875 "/>
<path style="fill:none;stroke-width:0.2;stroke-linecap:butt;stroke-linejoin:miter;stroke:rgb(26.666667%,26.666667%,26.666667%);stroke-opacity:1;stroke-miterlimit:10;" d="M 319.542969 385.070312 L 294.617188 390.523438 "/>
<path style="fill:none;stroke-width:0.2;stroke-linecap:butt;stroke-linejoin:miter;stroke:rgb(26.666667%,26.666667%,26.666667%);stroke-opacity:1;stroke-miterlimit:10;" d="M 209.203125 247.117188 L 182.933594 228.394531 "/>
<path style="fill:none;stroke-width:0.2;stroke-linecap:butt;stroke-linejoin:miter;stroke:rgb(26.666667%,26.666667%,26.666667%);stroke-opacity:1;stroke-miterlimit:10;" d="M 209.203125 247.117188 L 179.261719 255.207031 "/>
<path style="fill:none;stroke-width:0.2;stroke-linecap:butt;stroke-linejoin:miter;stroke:rgb(26.666667%,26.666667%,26.666667%);stroke-opacity:1;stroke-miterlimit:10;" d="M 209.203125 247.117188 L 232.46875 226.90625 "/>
<path style="fill:none;stroke-width:0.2;stroke-linecap:butt;stroke-linejoin:miter;stroke:rgb(26.666667%,26.666667%,26.666667%);stroke-opacity:1;stroke-miterlimit:10;" d="M 209.203125 247.117188 L 196.816406 276.433594 "/>
<path style="fill:none;stroke-width:0.2;stroke-linecap:butt;stroke-linejoin:miter;stroke:rgb(26.666667%,26.666667%,26.666667%);stroke-opacity:1;stroke-miterlimit:10;" d="M 209.203125 247.117188 L 240.699219 252.859375 "/>
<path style="fill:none;stroke-width:0.2;stroke-linecap:butt;stroke-linejoin:miter;stroke:rgb(26.666667%,26.666667%,26.666667%);stroke-opacity:1;stroke-miterlimit:10;" d="M 209.203125 247.117188 L 207.273438 214.851562 "/>
<path style="fill:none;stroke-width:0.2;stroke-linecap:butt;stroke-linejoin:miter;stroke:rgb(26.666667%,26.666667%,26.666667%);stroke-opacity:1;stroke-miterlimit:10;" d="M 209.203125 247.117188 L 224.933594 275.117188 "/>
<path style="fill:none;stroke-width:0.2;stroke-linecap:butt;stroke-linejoin:miter;stroke:rgb(26.666667%,26.666667%,26.666667%);stroke-opacity:1;stroke-miterlimit:10;" d="M 268.796875 560.527344 L 280.667969 541.632812 "/>
<path style="fill:none;stroke-width:0.2;stroke-linecap:butt;stroke-linejoin:miter;stroke:rgb(26.666667%,26.666667%,26.666667%);stroke-opacity:1;stroke-miterlimit:10;" d="M 268.796875 560.527344 L 256.398438 579.167969 "/>
<path style="fill:none;stroke-width:0.2;stroke-linecap:butt;stroke-linejoin:miter;stroke:rgb(26.666667%,26.666667%,26.666667%);stroke-opacity:1;stroke-miterlimit:10;" d="M 532.984375 391.339844 L 521.582031 410.8125 "/>
<path style="fill:none;stroke-width:0.2;stroke-linecap:butt;stroke-linejoin:miter;stroke:rgb(26.666667%,26.666667%,26.666667%);stroke-opacity:1;stroke-miterlimit:10;" d="M 532.984375 391.339844 L 544.648438 371.980469 "/>
<path style="fill:none;stroke-width:0.2;stroke-linecap:butt;stroke-linejoin:miter;stroke:rgb(26.666667%,26.666667%,26.666667%);stroke-opacity:1;stroke-miterlimit:10;" d="M 45.886719 280.433594 L 20.871094 266.394531 "/>
<path style="fill:none;stroke-width:0.2;stroke-linecap:butt;stroke-linejoin:miter;stroke:rgb(26.666667%,26.666667%,26.666667%);stroke-opacity:1;stroke-miterlimit:10;" d="M 45.886719 280.433594 L 74.277344 277.65625 "/>
<path style="fill:none;stroke-width:0.2;stroke-linecap:butt;stroke-linejoin:miter;stroke:rgb(26.666667%,26.666667%,26.666667%);stroke-opacity:1;stroke-miterlimit:10;" d="M 45.886719 280.433594 L 58.089844 306.074219 "/>
<path style="fill:none;stroke-width:0.2;stroke-linecap:butt;stroke-linejoin:miter;stroke:rgb(26.666667%,26.666667%,26.666667%);stroke-opacity:1;stroke-miterlimit:10;" d="M 45.886719 280.433594 L 51.671875 252.835938 "/>
<path style="fill:none;stroke-width:0.2;stroke-linecap:butt;stroke-linejoin:miter;stroke:rgb(26.666667%,26.666667%,26.666667%);stroke-opacity:1;stroke-miterlimit:10;" d="M 45.886719 280.433594 L 24.675781 299.230469 "/>
<path style="fill:none;stroke-width:0.2;stroke-linecap:butt;stroke-linejoin:miter;stroke:rgb(26.666667%,26.666667%,26.666667%);stroke-opacity:1;stroke-miterlimit:10;" d="M 462.046875 269.898438 L 446.113281 288.507812 "/>
<path style="fill:none;stroke-width:0.2;stroke-linecap:butt;stroke-linejoin:miter;stroke:rgb(26.666667%,26.666667%,26.666667%);stroke-opacity:1;stroke-miterlimit:10;" d="M 462.046875 269.898438 L 487.25 272.394531 "/>
<path style="fill:none;stroke-width:0.2;stroke-linecap:butt;stroke-linejoin:miter;stroke:rgb(26.666667%,26.666667%,26.666667%);stroke-opacity:1;stroke-miterlimit:10;" d="M 462.046875 269.898438 L 452.160156 248.015625 "/>
<path style="fill:none;stroke-width:0.2;stroke-linecap:butt;stroke-linejoin:miter;stroke:rgb(26.666667%,26.666667%,26.666667%);stroke-opacity:1;stroke-miterlimit:10;" d="M 376.777344 490.359375 L 353.648438 486.777344 "/>
<path style="fill:none;stroke-width:0.2;stroke-linecap:butt;stroke-linejoin:miter;stroke:rgb(26.666667%,26.666667%,26.666667%);stroke-opacity:1;stroke-miterlimit:10;" d="M 376.777344 490.359375 L 399.890625 493.785156 "/>
<path style=" stroke:none;fill-rule:nonzero;fill:rgb(100%,0%,0%);fill-opacity:1;" d="M 508.609375 169.285156 C 508.609375 170.621094 506.609375 170.621094 506.609375 169.285156 C 506.609375 167.953125 508.609375 167.953125 508.609375 169.285156 "/>
<path style=" stroke:none;fill-rule:nonzero;fill:rgb(100%,0%,0%);fill-opacity:1;" d="M 490.757812 152.988281 C 490.757812 154.324219 488.757812 154.324219 488.757812 152.988281 C 488.757812 151.65625 490.757812 151.65625 490.757812 152.988281 "/>
<path style=" stroke:none;fill-rule:nonzero;fill:rgb(100%,0%,0%);fill-opacity:1;" d="M 341.671875 44.925781 C 341.671875 46.257812 339.671875 46.257812 339.671875 44.925781 C 339.671875 43.589844 341.671875 43.589844 341.671875 44.925781 "/>
<path style=" stroke:none;fill-rule:nonzero;fill:rgb(100%,0%,0%);fill-opacity:1;" d="M 365.382812 56.058594 C 365.382812 57.390625 363.382812 57.390625 363.382812 56.058594 C 363.382812 54.722656 365.382812 54.722656 365.382812 56.058594 "/>
<path style=" stroke:none;fill-rule:nonzero;fill:rgb(100%,0%,0%);fill-opacity:1;" d="M 318.695312 57.421875 C 318.695312 58.753906 316.695312 58.753906 316.695312 57.421875 C 316.695312 56.089844 318.695312 56.089844 318.695312 57.421875 "/>
<path style=" stroke:none;fill-rule:nonzero;fill:rgb(100%,0%,0%);fill-opacity:1;" d="M 340.976562 20 C 340.976562 21.332031 338.976562 21.332031 338.976562 20 C 338.976562 18.667969 340.976562 18.667969 340.976562 20 "/>
<path style=" stroke:none;fill-rule:nonzero;fill:rgb(100%,0%,0%);fill-opacity:1;" d="M 342.800781 191.121094 C 342.800781 192.453125 340.800781 192.453125 340.800781 191.121094 C 340.800781 189.789062 342.800781 189.789062 342.800781 191.121094 "/>
<path style=" stroke:none;fill-rule:nonzero;fill:rgb(100%,0%,0%);fill-opacity:1;" d="M 364.496094 177.570312 C 364.496094 178.90625 362.496094 178.90625 362.496094 177.570312 C 362.496094 176.238281 364.496094 176.238281 364.496094 177.570312 "/>
<path style=" stroke:none;fill-rule:nonzero;fill:rgb(100%,0%,0%);fill-opacity:1;" d="M 320.890625 177.164062 C 320.890625 178.496094 318.890625 178.496094 318.890625 177.164062 C 318.890625 175.832031 320.890625 175.832031 320.890625 177.164062 "/>
<path style=" stroke:none;fill-rule:nonzero;fill:rgb(100%,0%,0%);fill-opacity:1;" d="M 344.695312 216.308594 C 344.695312 217.644531 342.695312 217.644531 342.695312 216.308594 C 342.695312 214.976562 344.695312 214.976562 344.695312 216.308594 "/>
<path style=" stroke:none;fill-rule:nonzero;fill:rgb(100%,0%,0%);fill-opacity:1;" d="M 110.132812 79.40625 C 110.132812 80.738281 108.132812 80.738281 108.132812 79.40625 C 108.132812 78.074219 110.132812 78.074219 110.132812 79.40625 "/>
<path style=" stroke:none;fill-rule:nonzero;fill:rgb(100%,0%,0%);fill-opacity:1;" d="M 89.019531 91.316406 C 89.019531 92.652344 87.019531 92.652344 87.019531 91.316406 C 87.019531 89.984375 89.019531 89.984375 89.019531 91.316406 "/>
<path style=" stroke:none;fill-rule:nonzero;fill:rgb(100%,0%,0%);fill-opacity:1;" d="M 131.226562 67.488281 C 131.226562 68.820312 129.226562 68.820312 129.226562 67.488281 C 129.226562 66.152344 131.226562 66.152344 131.226562 67.488281 "/>
<path style=" stroke:none;fill-rule:nonzero;fill:rgb(100%,0%,0%);fill-opacity:1;" d="M 91.109375 448.96875 C 91.109375 450.304688 89.109375 450.304688 89.109375 448.96875 C 89.109375 447.636719 91.109375 447.636719 91.109375 448.96875 "/>
<path style=" stroke:none;fill-rule:nonzero;fill:rgb(100%,0%,0%);fill-opacity:1;" d="M 117.265625 452.644531 C 117.265625 453.976562 115.265625 453.976562 115.265625 452.644531 C 115.265625 451.3125 117.265625 451.3125 117.265625 452.644531 "/>
<path style=" stroke:none;fill-rule:nonzero;fill:rgb(100%,0%,0%);fill-opacity:1;" d="M 74.128906 468.085938 C 74.128906 469.417969 72.128906 469.417969 72.128906 468.085938 C 72.128906 466.75 74.128906 466.75 74.128906 468.085938 "/>
<path style=" stroke:none;fill-rule:nonzero;fill:rgb(100%,0%,0%);fill-opacity:1;" d="M 81.03125 425.910156 C 81.03125 427.246094 79.03125 427.246094 79.03125 425.910156 C 79.03125 424.578125 81.03125 424.578125 81.03125 425.910156 "/>
<path style=" stroke:none;fill-rule:nonzero;fill:rgb(100%,0%,0%);fill-opacity:1;" d="M 473.527344 136.160156 C 473.527344 137.492188 471.527344 137.492188 471.527344 136.160156 C 471.527344 134.828125 473.527344 134.828125 473.527344 136.160156 "/>
<path style=" stroke:none;fill-rule:nonzero;fill:rgb(100%,0%,0%);fill-opacity:1;" d="M 581 105.632812 C 581 106.964844 579 106.964844 579 105.632812 C 579 104.300781 581 104.300781 581 105.632812 "/>
<path style=" stroke:none;fill-rule:nonzero;fill:rgb(100%,0%,0%);fill-opacity:1;" d="M 565.804688 86.996094 C 565.804688 88.332031 563.804688 88.332031 563.804688 86.996094 C 563.804688 85.664062 565.804688 85.664062 565.804688 86.996094 "/>
<path style=" stroke:none;fill-rule:nonzero;fill:rgb(100%,0%,0%);fill-opacity:1;" d="M 550.140625 68.726562 C 550.140625 70.058594 548.140625 70.058594 548.140625 68.726562 C 548.140625 67.394531 550.140625 67.394531 550.140625 68.726562 "/>
<path style=" stroke:none;fill-rule:nonzero;fill:rgb(100%,0%,0%);fill-opacity:1;" d="M 320.542969 385.070312 C 320.542969 386.402344 318.542969 386.402344 318.542969 385.070312 C 318.542969 383.734375 320.542969 383.734375 320.542969 385.070312 "/>
<path style=" stroke:none;fill-rule:nonzero;fill:rgb(100%,0%,0%);fill-opacity:1;" d="M 338.882812 402.578125 C 338.882812 403.910156 336.882812 403.910156 336.882812 402.578125 C 336.882812 401.246094 338.882812 401.246094 338.882812 402.578125 "/>
<path style=" stroke:none;fill-rule:nonzero;fill:rgb(100%,0%,0%);fill-opacity:1;" d="M 331.175781 362.265625 C 331.175781 363.597656 329.175781 363.597656 329.175781 362.265625 C 329.175781 360.933594 331.175781 360.933594 331.175781 362.265625 "/>
<path style=" stroke:none;fill-rule:nonzero;fill:rgb(100%,0%,0%);fill-opacity:1;" d="M 294.640625 390.738281 C 294.640625 392.070312 292.640625 392.070312 292.640625 390.738281 C 292.640625 389.40625 294.640625 389.40625 294.640625 390.738281 "/>
<path style=" stroke:none;fill-rule:nonzero;fill:rgb(100%,0%,0%);fill-opacity:1;" d="M 210.203125 247.117188 C 210.203125 248.449219 208.203125 248.449219 208.203125 247.117188 C 208.203125 245.78125 210.203125 245.78125 210.203125 247.117188 "/>
<path style=" stroke:none;fill-rule:nonzero;fill:rgb(100%,0%,0%);fill-opacity:1;" d="M 183.121094 227.816406 C 183.121094 229.148438 181.121094 229.148438 181.121094 227.816406 C 181.121094 226.480469 183.121094 226.480469 183.121094 227.816406 "/>
<path style=" stroke:none;fill-rule:nonzero;fill:rgb(100%,0%,0%);fill-opacity:1;" d="M 179.296875 255.46875 C 179.296875 256.800781 177.296875 256.800781 177.296875 255.46875 C 177.296875 254.136719 179.296875 254.136719 179.296875 255.46875 "/>
<path style=" stroke:none;fill-rule:nonzero;fill:rgb(100%,0%,0%);fill-opacity:1;" d="M 234.222656 226.25 C 234.222656 227.585938 232.222656 227.585938 232.222656 226.25 C 232.222656 224.917969 234.222656 224.917969 234.222656 226.25 "/>
<path style=" stroke:none;fill-rule:nonzero;fill:rgb(100%,0%,0%);fill-opacity:1;" d="M 197.425781 277.355469 C 197.425781 278.6875 195.425781 278.6875 195.425781 277.355469 C 195.425781 276.023438 197.425781 276.023438 197.425781 277.355469 "/>
<path style=" stroke:none;fill-rule:nonzero;fill:rgb(100%,0%,0%);fill-opacity:1;" d="M 242.683594 253.039062 C 242.683594 254.375 240.683594 254.375 240.683594 253.039062 C 240.683594 251.707031 242.683594 251.707031 242.683594 253.039062 "/>
<path style=" stroke:none;fill-rule:nonzero;fill:rgb(100%,0%,0%);fill-opacity:1;" d="M 208.214844 213.855469 C 208.214844 215.1875 206.214844 215.1875 206.214844 213.855469 C 206.214844 212.519531 208.214844 212.519531 208.214844 213.855469 "/>
<path style=" stroke:none;fill-rule:nonzero;fill:rgb(100%,0%,0%);fill-opacity:1;" d="M 226.425781 275.988281 C 226.425781 277.320312 224.425781 277.320312 224.425781 275.988281 C 224.425781 274.65625 226.425781 274.65625 226.425781 275.988281 "/>
<path style=" stroke:none;fill-rule:nonzero;fill:rgb(100%,0%,0%);fill-opacity:1;" d="M 269.796875 560.527344 C 269.796875 561.859375 267.796875 561.859375 267.796875 560.527344 C 267.796875 559.195312 269.796875 559.195312 269.796875 560.527344 "/>
<path style=" stroke:none;fill-rule:nonzero;fill:rgb(100%,0%,0%);fill-opacity:1;" d="M 282.199219 540.785156 C 282.199219 542.117188 280.199219 542.117188 280.199219 540.785156 C 280.199219 539.453125 282.199219 539.453125 282.199219 540.785156 "/>
<path style=" stroke:none;fill-rule:nonzero;fill:rgb(100%,0%,0%);fill-opacity:1;" d="M 256.847656 580 C 256.847656 581.332031 254.847656 581.332031 254.847656 580 C 254.847656 578.667969 256.847656 578.667969 256.847656 580 "/>
<path style=" stroke:none;fill-rule:nonzero;fill:rgb(100%,0%,0%);fill-opacity:1;" d="M 533.984375 391.339844 C 533.984375 392.671875 531.984375 392.671875 531.984375 391.339844 C 531.984375 390.007812 533.984375 390.007812 533.984375 391.339844 "/>
<path style=" stroke:none;fill-rule:nonzero;fill:rgb(100%,0%,0%);fill-opacity:1;" d="M 522.078125 411.675781 C 522.078125 413.011719 520.078125 413.011719 520.078125 411.675781 C 520.078125 410.34375 522.078125 410.34375 522.078125 411.675781 "/>
<path style=" stroke:none;fill-rule:nonzero;fill:rgb(100%,0%,0%);fill-opacity:1;" d="M 546.167969 371.125 C 546.167969 372.457031 544.167969 372.457031 544.167969 371.125 C 544.167969 369.792969 546.167969 369.792969 546.167969 371.125 "/>
<path style=" stroke:none;fill-rule:nonzero;fill:rgb(100%,0%,0%);fill-opacity:1;" d="M 46.886719 280.433594 C 46.886719 281.765625 44.886719 281.765625 44.886719 280.433594 C 44.886719 279.097656 46.886719 279.097656 46.886719 280.433594 "/>
<path style=" stroke:none;fill-rule:nonzero;fill:rgb(100%,0%,0%);fill-opacity:1;" d="M 21 265.90625 C 21 267.238281 19 267.238281 19 265.90625 C 19 264.570312 21 264.570312 21 265.90625 "/>
<path style=" stroke:none;fill-rule:nonzero;fill:rgb(100%,0%,0%);fill-opacity:1;" d="M 76.273438 277.558594 C 76.273438 278.894531 74.273438 278.894531 74.273438 277.558594 C 74.273438 276.226562 76.273438 276.226562 76.273438 277.558594 "/>
<path style=" stroke:none;fill-rule:nonzero;fill:rgb(100%,0%,0%);fill-opacity:1;" d="M 59.519531 306.980469 C 59.519531 308.3125 57.519531 308.3125 57.519531 306.980469 C 57.519531 305.644531 59.519531 305.644531 59.519531 306.980469 "/>
<path style=" stroke:none;fill-rule:nonzero;fill:rgb(100%,0%,0%);fill-opacity:1;" d="M 52.875 251.859375 C 52.875 253.191406 50.875 253.191406 50.875 251.859375 C 50.875 250.527344 52.875 250.527344 52.875 251.859375 "/>
<path style=" stroke:none;fill-rule:nonzero;fill:rgb(100%,0%,0%);fill-opacity:1;" d="M 24.925781 299.894531 C 24.925781 301.226562 22.925781 301.226562 22.925781 299.894531 C 22.925781 298.558594 24.925781 298.558594 24.925781 299.894531 "/>
<path style=" stroke:none;fill-rule:nonzero;fill:rgb(100%,0%,0%);fill-opacity:1;" d="M 463.046875 269.898438 C 463.046875 271.230469 461.046875 271.230469 461.046875 269.898438 C 461.046875 268.5625 463.046875 268.5625 463.046875 269.898438 "/>
<path style=" stroke:none;fill-rule:nonzero;fill:rgb(100%,0%,0%);fill-opacity:1;" d="M 446.464844 289.269531 C 446.464844 290.601562 444.464844 290.601562 444.464844 289.269531 C 444.464844 287.933594 446.464844 287.933594 446.464844 289.269531 "/>
<path style=" stroke:none;fill-rule:nonzero;fill:rgb(100%,0%,0%);fill-opacity:1;" d="M 489.242188 272.492188 C 489.242188 273.824219 487.242188 273.824219 487.242188 272.492188 C 487.242188 271.160156 489.242188 271.160156 489.242188 272.492188 "/>
<path style=" stroke:none;fill-rule:nonzero;fill:rgb(100%,0%,0%);fill-opacity:1;" d="M 452.746094 247.105469 C 452.746094 248.4375 450.746094 248.4375 450.746094 247.105469 C 450.746094 245.769531 452.746094 245.769531 452.746094 247.105469 "/>
<path style=" stroke:none;fill-rule:nonzero;fill:rgb(100%,0%,0%);fill-opacity:1;" d="M 377.777344 490.359375 C 377.777344 491.695312 375.777344 491.695312 375.777344 490.359375 C 375.777344 489.027344 377.777344 489.027344 377.777344 490.359375 "/>
<path style=" stroke:none;fill-rule:nonzero;fill:rgb(100%,0%,0%);fill-opacity:1;" d="M 353.660156 486.621094 C 353.660156 487.957031 351.660156 487.957031 351.660156 486.621094 C 351.660156 485.289062 353.660156 485.289062 353.660156 486.621094 "/>
<path style=" stroke:none;fill-rule:nonzero;fill:rgb(100%,0%,0%);fill-opacity:1;" d="M 401.878906 493.929688 C 401.878906 495.265625 399.878906 495.265625 399.878906 493.929688 C 399.878906 492.597656 401.878906 492.597656 401.878906 493.929688 "/>
</g>
</svg>
