<?xml version="1.0" encoding="UTF-8"?>
<svg xmlns="http://www.w3.org/2000/svg" xmlns:xlink="http://www.w3.org/1999/xlink" width="600" height="600" viewBox="0 0 600 600">
<rect x="-60" y="-60" width="720" height="720" fill="rgb(100%, 100%, 100%)" fill-opacity="1"/>
<path fill="none" stroke-width="0.2" stroke-linecap="butt" stroke-linejoin="miter" stroke="rgb(26.666667%, 26.666667%, 26.666667%)" stroke-opacity="1" stroke-miterlimit="10" d="M 218.894531 530.304688 L 213.050781 554.066406 "/>
<path fill-rule="nonzero" fill="rgb(26.666667%, 26.666667%, 26.666667%)" fill-opacity="1" d="M 213.019531 554.207031 L 213.007812 554.054688 L 213.097656 554.078125 L 213.019531 554.207031 "/>
<path fill="none" stroke-width="0.2" stroke-linecap="butt" stroke-linejoin="miter" stroke="rgb(26.666667%, 26.666667%, 26.666667%)" stroke-opacity="1" stroke-miterlimit="10" d="M 371.355469 130.851562 L 347.007812 133.46875 "/>
<path fill-rule="nonzero" fill="rgb(26.666667%, 26.666667%, 26.666667%)" fill-opacity="1" d="M 346.867188 133.480469 L 347.003906 133.421875 L 347.011719 133.511719 L 346.867188 133.480469 "/>
<path fill="none" stroke-width="0.2" stroke-linecap="butt" stroke-linejoin="miter" stroke="rgb(26.666667%, 26.666667%, 26.666667%)" stroke-opacity="1" stroke-miterlimit="10" d="M 371.355469 130.851562 L 378.804688 105.398438 "/>
<path fill-rule="nonzero" fill="rgb(26.666667%, 26.666667%, 26.666667%)" fill-opacity="1" d="M 378.84375 105.261719 L 378.847656 105.410156 L 378.757812 105.386719 L 378.84375 105.261719 "/>
<path fill="none" stroke-width="0.2" stroke-linecap="butt" stroke-linejoin="miter" stroke="rgb(26.666667%, 26.666667%, 26.666667%)" stroke-opacity="1" stroke-miterlimit="10" d="M 371.355469 130.851562 L 386.589844 152.238281 "/>
<path fill-rule="nonzero" fill="rgb(26.666667%, 26.666667%, 26.666667%)" fill-opacity="1" d="M 386.671875 152.351562 L 386.550781 152.265625 L 386.628906 152.210938 L 386.671875 152.351562 "/>
<path fill="none" stroke-width="0.2" stroke-linecap="butt" stroke-linejoin="miter" stroke="rgb(26.666667%, 26.666667%, 26.666667%)" stroke-opacity="1" stroke-miterlimit="10" d="M 239.792969 343.5 L 235.328125 369.78125 "/>
<path fill-rule="nonzero" fill="rgb(26.666667%, 26.666667%, 26.666667%)" fill-opacity="1" d="M 235.304688 369.921875 L 235.285156 369.773438 L 235.375 369.789062 L 235.304688 369.921875 "/>
<path fill="none" stroke-width="0.2" stroke-linecap="butt" stroke-linejoin="miter" stroke="rgb(26.666667%, 26.666667%, 26.666667%)" stroke-opacity="1" stroke-miterlimit="10" d="M 239.792969 343.5 L 262.953125 334.535156 "/>
<path fill-rule="nonzero" fill="rgb(26.666667%, 26.666667%, 26.666667%)" fill-opacity="1" d="M 263.085938 334.484375 L 262.96875 334.578125 L 262.9375 334.492188 L 263.085938 334.484375 "/>
<path fill="none" stroke-width="0.2" stroke-linecap="butt" stroke-linejoin="miter" stroke="rgb(26.666667%, 26.666667%, 26.666667%)" stroke-opacity="1" stroke-miterlimit="10" d="M 239.792969 343.5 L 221.144531 326.082031 "/>
<path fill-rule="nonzero" fill="rgb(26.666667%, 26.666667%, 26.666667%)" fill-opacity="1" d="M 221.042969 325.984375 L 221.175781 326.046875 L 221.113281 326.117188 L 221.042969 325.984375 "/>
<path fill="none" stroke-width="0.2" stroke-linecap="butt" stroke-linejoin="miter" stroke="rgb(26.666667%, 26.666667%, 26.666667%)" stroke-opacity="1" stroke-miterlimit="10" d="M 573.714844 233.824219 L 579.722656 257.699219 "/>
<path fill-rule="nonzero" fill="rgb(26.666667%, 26.666667%, 26.666667%)" fill-opacity="1" d="M 579.757812 257.835938 L 579.675781 257.707031 L 579.765625 257.6875 L 579.757812 257.835938 "/>
<path fill="none" stroke-width="0.2" stroke-linecap="butt" stroke-linejoin="miter" stroke="rgb(26.666667%, 26.666667%, 26.666667%)" stroke-opacity="1" stroke-miterlimit="10" d="M 573.714844 233.824219 L 568.386719 209.804688 "/>
<path fill-rule="nonzero" fill="rgb(26.666667%, 26.666667%, 26.666667%)" fill-opacity="1" d="M 568.355469 209.664062 L 568.433594 209.792969 L 568.34375 209.8125 L 568.355469 209.664062 "/>
<path fill="none" stroke-width="0.2" stroke-linecap="butt" stroke-linejoin="miter" stroke="rgb(26.666667%, 26.666667%, 26.666667%)" stroke-opacity="1" stroke-miterlimit="10" d="M 482.300781 537.730469 L 489.316406 563.246094 "/>
<path fill-rule="nonzero" fill="rgb(26.666667%, 26.666667%, 26.666667%)" fill-opacity="1" d="M 489.351562 563.386719 L 489.269531 563.261719 L 489.359375 563.234375 L 489.351562 563.386719 "/>
<path fill="none" stroke-width="0.2" stroke-linecap="butt" stroke-linejoin="miter" stroke="rgb(26.666667%, 26.666667%, 26.666667%)" stroke-opacity="1" stroke-miterlimit="10" d="M 482.300781 537.730469 L 457.84375 534.351562 "/>
<path fill-rule="nonzero" fill="rgb(26.666667%, 26.666667%, 26.666667%)" fill-opacity="1" d="M 457.699219 534.332031 L 457.847656 534.304688 L 457.835938 534.398438 L 457.699219 534.332031 "/>
<path fill="none" stroke-width="0.2" stroke-linecap="butt" stroke-linejoin="miter" stroke="rgb(26.666667%, 26.666667%, 26.666667%)" stroke-opacity="1" stroke-miterlimit="10" d="M 482.300781 537.730469 L 499.007812 517.644531 "/>
<path fill-rule="nonzero" fill="rgb(26.666667%, 26.666667%, 26.666667%)" fill-opacity="1" d="M 499.097656 517.535156 L 499.042969 517.675781 L 498.96875 517.613281 L 499.097656 517.535156 "/>
<path fill="none" stroke-width="0.2" stroke-linecap="butt" stroke-linejoin="miter" stroke="rgb(26.666667%, 26.666667%, 26.666667%)" stroke-opacity="1" stroke-miterlimit="10" d="M 206.523438 580 L 212.5 556.285156 "/>
<path fill-rule="nonzero" fill="rgb(26.666667%, 26.666667%, 26.666667%)" fill-opacity="1" d="M 212.535156 556.144531 L 212.546875 556.296875 L 212.457031 556.273438 L 212.535156 556.144531 "/>
<path fill="none" stroke-width="0.2" stroke-linecap="butt" stroke-linejoin="miter" stroke="rgb(26.666667%, 26.666667%, 26.666667%)" stroke-opacity="1" stroke-miterlimit="10" d="M 496.488281 113.992188 L 489.300781 90.40625 "/>
<path fill-rule="nonzero" fill="rgb(26.666667%, 26.666667%, 26.666667%)" fill-opacity="1" d="M 489.261719 90.269531 L 489.347656 90.390625 L 489.257812 90.417969 L 489.261719 90.269531 "/>
<path fill="none" stroke-width="0.2" stroke-linecap="butt" stroke-linejoin="miter" stroke="rgb(26.666667%, 26.666667%, 26.666667%)" stroke-opacity="1" stroke-miterlimit="10" d="M 480.824219 64.835938 L 488.609375 88.226562 "/>
<path fill-rule="nonzero" fill="rgb(26.666667%, 26.666667%, 26.666667%)" fill-opacity="1" d="M 488.652344 88.363281 L 488.5625 88.242188 L 488.652344 88.210938 L 488.652344 88.363281 "/>
<path fill="none" stroke-width="0.2" stroke-linecap="butt" stroke-linejoin="miter" stroke="rgb(26.666667%, 26.666667%, 26.666667%)" stroke-opacity="1" stroke-miterlimit="10" d="M 263.371094 22.28125 L 286.101562 23.859375 "/>
<path fill-rule="nonzero" fill="rgb(26.666667%, 26.666667%, 26.666667%)" fill-opacity="1" d="M 286.246094 23.867188 L 286.101562 23.902344 L 286.105469 23.8125 L 286.246094 23.867188 "/>
<path fill="none" stroke-width="0.2" stroke-linecap="butt" stroke-linejoin="miter" stroke="rgb(26.666667%, 26.666667%, 26.666667%)" stroke-opacity="1" stroke-miterlimit="10" d="M 263.371094 22.28125 L 240.675781 20.109375 "/>
<path fill-rule="nonzero" fill="rgb(26.666667%, 26.666667%, 26.666667%)" fill-opacity="1" d="M 240.535156 20.09375 L 240.679688 20.0625 L 240.671875 20.15625 L 240.535156 20.09375 "/>
<path fill="none" stroke-width="0.2" stroke-linecap="butt" stroke-linejoin="miter" stroke="rgb(26.666667%, 26.666667%, 26.666667%)" stroke-opacity="1" stroke-miterlimit="10" d="M 106.472656 166.699219 L 74.761719 164.160156 "/>
<path fill-rule="nonzero" fill="rgb(26.666667%, 26.666667%, 26.666667%)" fill-opacity="1" d="M 74.621094 164.148438 L 74.765625 164.113281 L 74.757812 164.203125 L 74.621094 164.148438 "/>
<path fill="none" stroke-width="0.2" stroke-linecap="butt" stroke-linejoin="miter" stroke="rgb(26.666667%, 26.666667%, 26.666667%)" stroke-opacity="1" stroke-miterlimit="10" d="M 106.472656 166.699219 L 84.476562 192.300781 "/>
<path fill-rule="nonzero" fill="rgb(26.666667%, 26.666667%, 26.666667%)" fill-opacity="1" d="M 84.382812 192.410156 L 84.441406 192.269531 L 84.511719 192.332031 L 84.382812 192.410156 "/>
<path fill="none" stroke-width="0.2" stroke-linecap="butt" stroke-linejoin="miter" stroke="rgb(26.666667%, 26.666667%, 26.666667%)" stroke-opacity="1" stroke-miterlimit="10" d="M 106.472656 166.699219 L 116.175781 133.355469 "/>
<path fill-rule="nonzero" fill="rgb(26.666667%, 26.666667%, 26.666667%)" fill-opacity="1" d="M 116.214844 133.21875 L 116.222656 133.367188 L 116.132812 133.34375 L 116.214844 133.21875 "/>
<path fill="none" stroke-width="0.2" stroke-linecap="butt" stroke-linejoin="miter" stroke="rgb(26.666667%, 26.666667%, 26.666667%)" stroke-opacity="1" stroke-miterlimit="10" d="M 106.472656 166.699219 L 88.714844 138.109375 "/>
<path fill-rule="nonzero" fill="rgb(26.666667%, 26.666667%, 26.666667%)" fill-opacity="1" d="M 88.640625 137.988281 L 88.753906 138.085938 L 88.675781 138.136719 L 88.640625 137.988281 "/>
<path fill="none" stroke-width="0.2" stroke-linecap="butt" stroke-linejoin="miter" stroke="rgb(26.666667%, 26.666667%, 26.666667%)" stroke-opacity="1" stroke-miterlimit="10" d="M 106.472656 166.699219 L 136.300781 154.019531 "/>
<path fill-rule="nonzero" fill="rgb(26.666667%, 26.666667%, 26.666667%)" fill-opacity="1" d="M 136.429688 153.964844 L 136.316406 154.0625 L 136.28125 153.976562 L 136.429688 153.964844 "/>
<path fill="none" stroke-width="0.2" stroke-linecap="butt" stroke-linejoin="miter" stroke="rgb(26.666667%, 26.666667%, 26.666667%)" stroke-opacity="1" stroke-miterlimit="10" d="M 106.472656 166.699219 L 111.015625 201.046875 "/>
<path fill-rule="nonzero" fill="rgb(26.666667%, 26.666667%, 26.666667%)" fill-opacity="1" d="M 111.035156 201.1875 L 110.972656 201.054688 L 111.0625 201.042969 L 111.035156 201.1875 "/>
<path fill="none" stroke-width="0.2" stroke-linecap="butt" stroke-linejoin="miter" stroke="rgb(26.666667%, 26.666667%, 26.666667%)" stroke-opacity="1" stroke-miterlimit="10" d="M 106.472656 166.699219 L 133.871094 183.917969 "/>
<path fill-rule="nonzero" fill="rgb(26.666667%, 26.666667%, 26.666667%)" fill-opacity="1" d="M 133.988281 183.996094 L 133.84375 183.957031 L 133.894531 183.878906 L 133.988281 183.996094 "/>
<path fill="none" stroke-width="0.2" stroke-linecap="butt" stroke-linejoin="miter" stroke="rgb(26.666667%, 26.666667%, 26.666667%)" stroke-opacity="1" stroke-miterlimit="10" d="M 292.179688 224.714844 L 313.007812 235.332031 "/>
<path fill-rule="nonzero" fill="rgb(26.666667%, 26.666667%, 26.666667%)" fill-opacity="1" d="M 313.136719 235.394531 L 312.988281 235.371094 L 313.03125 235.289062 L 313.136719 235.394531 "/>
<path fill="none" stroke-width="0.2" stroke-linecap="butt" stroke-linejoin="miter" stroke="rgb(26.666667%, 26.666667%, 26.666667%)" stroke-opacity="1" stroke-miterlimit="10" d="M 292.179688 224.714844 L 271.386719 214.148438 "/>
<path fill-rule="nonzero" fill="rgb(26.666667%, 26.666667%, 26.666667%)" fill-opacity="1" d="M 271.261719 214.082031 L 271.410156 214.105469 L 271.367188 214.1875 L 271.261719 214.082031 "/>
<path fill="none" stroke-width="0.2" stroke-linecap="butt" stroke-linejoin="miter" stroke="rgb(26.666667%, 26.666667%, 26.666667%)" stroke-opacity="1" stroke-miterlimit="10" d="M 24.800781 418.734375 L 20.210938 394.242188 "/>
<path fill-rule="nonzero" fill="rgb(26.666667%, 26.666667%, 26.666667%)" fill-opacity="1" d="M 20.183594 394.101562 L 20.257812 394.234375 L 20.164062 394.25 L 20.183594 394.101562 "/>
<path fill="none" stroke-width="0.2" stroke-linecap="butt" stroke-linejoin="miter" stroke="rgb(26.666667%, 26.666667%, 26.666667%)" stroke-opacity="1" stroke-miterlimit="10" d="M 24.800781 418.734375 L 29.691406 443.1875 "/>
<path fill-rule="nonzero" fill="rgb(26.666667%, 26.666667%, 26.666667%)" fill-opacity="1" d="M 29.71875 443.328125 L 29.644531 443.195312 L 29.738281 443.179688 L 29.71875 443.328125 "/>
<path fill="none" stroke-width="0.2" stroke-linecap="butt" stroke-linejoin="miter" stroke="rgb(26.666667%, 26.666667%, 26.666667%)" stroke-opacity="1" stroke-miterlimit="10" d="M 353.128906 438.792969 L 326.316406 430.753906 "/>
<path fill-rule="nonzero" fill="rgb(26.666667%, 26.666667%, 26.666667%)" fill-opacity="1" d="M 326.179688 430.714844 L 326.328125 430.710938 L 326.300781 430.796875 L 326.179688 430.714844 "/>
<path fill="none" stroke-width="0.2" stroke-linecap="butt" stroke-linejoin="miter" stroke="rgb(26.666667%, 26.666667%, 26.666667%)" stroke-opacity="1" stroke-miterlimit="10" d="M 353.128906 438.792969 L 337.074219 464.835938 "/>
<path fill-rule="nonzero" fill="rgb(26.666667%, 26.666667%, 26.666667%)" fill-opacity="1" d="M 337 464.957031 L 337.035156 464.8125 L 337.113281 464.859375 L 337 464.957031 "/>
<path fill="none" stroke-width="0.2" stroke-linecap="butt" stroke-linejoin="miter" stroke="rgb(26.666667%, 26.666667%, 26.666667%)" stroke-opacity="1" stroke-miterlimit="10" d="M 353.128906 438.792969 L 352.554688 407.589844 "/>
<path fill-rule="nonzero" fill="rgb(26.666667%, 26.666667%, 26.666667%)" fill-opacity="1" d="M 352.550781 407.445312 L 352.601562 407.589844 L 352.507812 407.589844 L 352.550781 407.445312 "/>
<path fill="none" stroke-width="0.2" stroke-linecap="butt" stroke-linejoin="miter" stroke="rgb(26.666667%, 26.666667%, 26.666667%)" stroke-opacity="1" stroke-miterlimit="10" d="M 353.128906 438.792969 L 379.578125 427.894531 "/>
<path fill-rule="nonzero" fill="rgb(26.666667%, 26.666667%, 26.666667%)" fill-opacity="1" d="M 379.707031 427.839844 L 379.59375 427.9375 L 379.558594 427.851562 L 379.707031 427.839844 "/>
<path fill="none" stroke-width="0.2" stroke-linecap="butt" stroke-linejoin="miter" stroke="rgb(26.666667%, 26.666667%, 26.666667%)" stroke-opacity="1" stroke-miterlimit="10" d="M 353.128906 438.792969 L 370.101562 463.054688 "/>
<path fill-rule="nonzero" fill="rgb(26.666667%, 26.666667%, 26.666667%)" fill-opacity="1" d="M 370.183594 463.171875 L 370.066406 463.082031 L 370.140625 463.027344 L 370.183594 463.171875 "/>
<path fill="none" stroke-width="0.2" stroke-linecap="butt" stroke-linejoin="miter" stroke="rgb(26.666667%, 26.666667%, 26.666667%)" stroke-opacity="1" stroke-miterlimit="10" d="M 489.855469 345.644531 L 473.914062 324.894531 "/>
<path fill-rule="nonzero" fill="rgb(26.666667%, 26.666667%, 26.666667%)" fill-opacity="1" d="M 473.828125 324.78125 L 473.953125 324.863281 L 473.878906 324.921875 L 473.828125 324.78125 "/>
<path fill="none" stroke-width="0.2" stroke-linecap="butt" stroke-linejoin="miter" stroke="rgb(26.666667%, 26.666667%, 26.666667%)" stroke-opacity="1" stroke-miterlimit="10" d="M 489.855469 345.644531 L 514.347656 343.375 "/>
<path fill-rule="nonzero" fill="rgb(26.666667%, 26.666667%, 26.666667%)" fill-opacity="1" d="M 514.492188 343.363281 L 514.351562 343.421875 L 514.34375 343.332031 L 514.492188 343.363281 "/>
<path fill="none" stroke-width="0.2" stroke-linecap="butt" stroke-linejoin="miter" stroke="rgb(26.666667%, 26.666667%, 26.666667%)" stroke-opacity="1" stroke-miterlimit="10" d="M 489.855469 345.644531 L 482.378906 370.914062 "/>
<path fill-rule="nonzero" fill="rgb(26.666667%, 26.666667%, 26.666667%)" fill-opacity="1" d="M 482.339844 371.050781 L 482.335938 370.902344 L 482.425781 370.925781 L 482.339844 371.050781 "/>
<path fill="none" stroke-width="0.2" stroke-linecap="butt" stroke-linejoin="miter" stroke="rgb(26.666667%, 26.666667%, 26.666667%)" stroke-opacity="1" stroke-miterlimit="10" d="M 133.449219 412.382812 L 136.253906 437.136719 "/>
<path fill-rule="nonzero" fill="rgb(26.666667%, 26.666667%, 26.666667%)" fill-opacity="1" d="M 136.273438 437.28125 L 136.210938 437.144531 L 136.300781 437.132812 L 136.273438 437.28125 "/>
<path fill="none" stroke-width="0.2" stroke-linecap="butt" stroke-linejoin="miter" stroke="rgb(26.666667%, 26.666667%, 26.666667%)" stroke-opacity="1" stroke-miterlimit="10" d="M 133.449219 412.382812 L 130.078125 387.675781 "/>
<path fill-rule="nonzero" fill="rgb(26.666667%, 26.666667%, 26.666667%)" fill-opacity="1" d="M 130.058594 387.535156 L 130.121094 387.667969 L 130.03125 387.679688 L 130.058594 387.535156 "/>
<path fill-rule="nonzero" fill="rgb(100%, 0%, 0%)" fill-opacity="1" stroke-width="0.01" stroke-linecap="butt" stroke-linejoin="miter" stroke="rgb(0%, 0%, 0%)" stroke-opacity="1" stroke-miterlimit="10" d="M 219.894531 530.304688 C 219.894531 531.636719 217.894531 531.636719 217.894531 530.304688 C 217.894531 528.972656 219.894531 528.972656 219.894531 530.304688 "/>
<path fill-rule="nonzero" fill="rgb(100%, 0%, 0%)" fill-opacity="1" stroke-width="0.01" stroke-linecap="butt" stroke-linejoin="miter" stroke="rgb(0%, 0%, 0%)" stroke-opacity="1" stroke-miterlimit="10" d="M 213.78125 555.175781 C 213.78125 556.511719 211.78125 556.511719 211.78125 555.175781 C 211.78125 553.84375 213.78125 553.84375 213.78125 555.175781 "/>
<path fill-rule="nonzero" fill="rgb(100%, 0%, 0%)" fill-opacity="1" stroke-width="0.01" stroke-linecap="butt" stroke-linejoin="miter" stroke="rgb(0%, 0%, 0%)" stroke-opacity="1" stroke-miterlimit="10" d="M 372.355469 130.851562 C 372.355469 132.183594 370.355469 132.183594 370.355469 130.851562 C 370.355469 129.519531 372.355469 129.519531 372.355469 130.851562 "/>
<path fill-rule="nonzero" fill="rgb(100%, 0%, 0%)" fill-opacity="1" stroke-width="0.01" stroke-linecap="butt" stroke-linejoin="miter" stroke="rgb(0%, 0%, 0%)" stroke-opacity="1" stroke-miterlimit="10" d="M 346.871094 133.589844 C 346.871094 134.921875 344.871094 134.921875 344.871094 133.589844 C 344.871094 132.253906 346.871094 132.253906 346.871094 133.589844 "/>
<path fill-rule="nonzero" fill="rgb(100%, 0%, 0%)" fill-opacity="1" stroke-width="0.01" stroke-linecap="butt" stroke-linejoin="miter" stroke="rgb(0%, 0%, 0%)" stroke-opacity="1" stroke-miterlimit="10" d="M 380.125 104.300781 C 380.125 105.636719 378.125 105.636719 378.125 104.300781 C 378.125 102.96875 380.125 102.96875 380.125 104.300781 "/>
<path fill-rule="nonzero" fill="rgb(100%, 0%, 0%)" fill-opacity="1" stroke-width="0.01" stroke-linecap="butt" stroke-linejoin="miter" stroke="rgb(0%, 0%, 0%)" stroke-opacity="1" stroke-miterlimit="10" d="M 388.253906 153.167969 C 388.253906 154.5 386.253906 154.5 386.253906 153.167969 C 386.253906 151.835938 388.253906 151.835938 388.253906 153.167969 "/>
<path fill-rule="nonzero" fill="rgb(100%, 0%, 0%)" fill-opacity="1" stroke-width="0.01" stroke-linecap="butt" stroke-linejoin="miter" stroke="rgb(0%, 0%, 0%)" stroke-opacity="1" stroke-miterlimit="10" d="M 240.792969 343.5 C 240.792969 344.835938 238.792969 344.835938 238.792969 343.5 C 238.792969 342.167969 240.792969 342.167969 240.792969 343.5 "/>
<path fill-rule="nonzero" fill="rgb(100%, 0%, 0%)" fill-opacity="1" stroke-width="0.01" stroke-linecap="butt" stroke-linejoin="miter" stroke="rgb(0%, 0%, 0%)" stroke-opacity="1" stroke-miterlimit="10" d="M 236.140625 370.90625 C 236.140625 372.242188 234.140625 372.242188 234.140625 370.90625 C 234.140625 369.574219 236.140625 369.574219 236.140625 370.90625 "/>
<path fill-rule="nonzero" fill="rgb(100%, 0%, 0%)" fill-opacity="1" stroke-width="0.01" stroke-linecap="butt" stroke-linejoin="miter" stroke="rgb(0%, 0%, 0%)" stroke-opacity="1" stroke-miterlimit="10" d="M 265.019531 334.121094 C 265.019531 335.457031 263.019531 335.457031 263.019531 334.121094 C 263.019531 332.789062 265.019531 332.789062 265.019531 334.121094 "/>
<path fill-rule="nonzero" fill="rgb(100%, 0%, 0%)" fill-opacity="1" stroke-width="0.01" stroke-linecap="butt" stroke-linejoin="miter" stroke="rgb(0%, 0%, 0%)" stroke-opacity="1" stroke-miterlimit="10" d="M 221.308594 325.300781 C 221.308594 326.632812 219.308594 326.632812 219.308594 325.300781 C 219.308594 323.96875 221.308594 323.96875 221.308594 325.300781 "/>
<path fill-rule="nonzero" fill="rgb(100%, 0%, 0%)" fill-opacity="1" stroke-width="0.01" stroke-linecap="butt" stroke-linejoin="miter" stroke="rgb(0%, 0%, 0%)" stroke-opacity="1" stroke-miterlimit="10" d="M 574.714844 233.824219 C 574.714844 235.15625 572.714844 235.15625 572.714844 233.824219 C 572.714844 232.488281 574.714844 232.488281 574.714844 233.824219 "/>
<path fill-rule="nonzero" fill="rgb(100%, 0%, 0%)" fill-opacity="1" stroke-width="0.01" stroke-linecap="butt" stroke-linejoin="miter" stroke="rgb(0%, 0%, 0%)" stroke-opacity="1" stroke-miterlimit="10" d="M 581 258.804688 C 581 260.140625 579 260.140625 579 258.804688 C 579 257.472656 581 257.472656 581 258.804688 "/>
<path fill-rule="nonzero" fill="rgb(100%, 0%, 0%)" fill-opacity="1" stroke-width="0.01" stroke-linecap="butt" stroke-linejoin="miter" stroke="rgb(0%, 0%, 0%)" stroke-opacity="1" stroke-miterlimit="10" d="M 569.140625 208.6875 C 569.140625 210.019531 567.140625 210.019531 567.140625 208.6875 C 567.140625 207.355469 569.140625 207.355469 569.140625 208.6875 "/>
<path fill-rule="nonzero" fill="rgb(100%, 0%, 0%)" fill-opacity="1" stroke-width="0.01" stroke-linecap="butt" stroke-linejoin="miter" stroke="rgb(0%, 0%, 0%)" stroke-opacity="1" stroke-miterlimit="10" d="M 483.300781 537.730469 C 483.300781 539.0625 481.300781 539.0625 481.300781 537.730469 C 481.300781 536.398438 483.300781 536.398438 483.300781 537.730469 "/>
<path fill-rule="nonzero" fill="rgb(100%, 0%, 0%)" fill-opacity="1" stroke-width="0.01" stroke-linecap="butt" stroke-linejoin="miter" stroke="rgb(0%, 0%, 0%)" stroke-opacity="1" stroke-miterlimit="10" d="M 490.617188 564.351562 C 490.617188 565.683594 488.617188 565.683594 488.617188 564.351562 C 488.617188 563.015625 490.617188 563.015625 490.617188 564.351562 "/>
<path fill-rule="nonzero" fill="rgb(100%, 0%, 0%)" fill-opacity="1" stroke-width="0.01" stroke-linecap="butt" stroke-linejoin="miter" stroke="rgb(0%, 0%, 0%)" stroke-opacity="1" stroke-miterlimit="10" d="M 457.710938 534.195312 C 457.710938 535.527344 455.710938 535.527344 455.710938 534.195312 C 455.710938 532.859375 457.710938 532.859375 457.710938 534.195312 "/>
<path fill-rule="nonzero" fill="rgb(100%, 0%, 0%)" fill-opacity="1" stroke-width="0.01" stroke-linecap="butt" stroke-linejoin="miter" stroke="rgb(0%, 0%, 0%)" stroke-opacity="1" stroke-miterlimit="10" d="M 500.738281 516.765625 C 500.738281 518.097656 498.738281 518.097656 498.738281 516.765625 C 498.738281 515.433594 500.738281 515.433594 500.738281 516.765625 "/>
<path fill-rule="nonzero" fill="rgb(100%, 0%, 0%)" fill-opacity="1" stroke-width="0.01" stroke-linecap="butt" stroke-linejoin="miter" stroke="rgb(0%, 0%, 0%)" stroke-opacity="1" stroke-miterlimit="10" d="M 207.523438 580 C 207.523438 581.332031 205.523438 581.332031 205.523438 580 C 205.523438 578.667969 207.523438 578.667969 207.523438 580 "/>
<path fill-rule="nonzero" fill="rgb(100%, 0%, 0%)" fill-opacity="1" stroke-width="0.01" stroke-linecap="butt" stroke-linejoin="miter" stroke="rgb(0%, 0%, 0%)" stroke-opacity="1" stroke-miterlimit="10" d="M 497.488281 113.992188 C 497.488281 115.328125 495.488281 115.328125 495.488281 113.992188 C 495.488281 112.660156 497.488281 112.660156 497.488281 113.992188 "/>
<path fill-rule="nonzero" fill="rgb(100%, 0%, 0%)" fill-opacity="1" stroke-width="0.01" stroke-linecap="butt" stroke-linejoin="miter" stroke="rgb(0%, 0%, 0%)" stroke-opacity="1" stroke-miterlimit="10" d="M 489.96875 89.3125 C 489.96875 90.644531 487.96875 90.644531 487.96875 89.3125 C 487.96875 87.976562 489.96875 87.976562 489.96875 89.3125 "/>
<path fill-rule="nonzero" fill="rgb(100%, 0%, 0%)" fill-opacity="1" stroke-width="0.01" stroke-linecap="butt" stroke-linejoin="miter" stroke="rgb(0%, 0%, 0%)" stroke-opacity="1" stroke-miterlimit="10" d="M 481.824219 64.835938 C 481.824219 66.167969 479.824219 66.167969 479.824219 64.835938 C 479.824219 63.503906 481.824219 63.503906 481.824219 64.835938 "/>
<path fill-rule="nonzero" fill="rgb(100%, 0%, 0%)" fill-opacity="1" stroke-width="0.01" stroke-linecap="butt" stroke-linejoin="miter" stroke="rgb(0%, 0%, 0%)" stroke-opacity="1" stroke-miterlimit="10" d="M 264.371094 22.28125 C 264.371094 23.613281 262.371094 23.613281 262.371094 22.28125 C 262.371094 20.945312 264.371094 20.945312 264.371094 22.28125 "/>
<path fill-rule="nonzero" fill="rgb(100%, 0%, 0%)" fill-opacity="1" stroke-width="0.01" stroke-linecap="butt" stroke-linejoin="miter" stroke="rgb(0%, 0%, 0%)" stroke-opacity="1" stroke-miterlimit="10" d="M 288.242188 23.9375 C 288.242188 25.269531 286.242188 25.269531 286.242188 23.9375 C 286.242188 22.605469 288.242188 22.605469 288.242188 23.9375 "/>
<path fill-rule="nonzero" fill="rgb(100%, 0%, 0%)" fill-opacity="1" stroke-width="0.01" stroke-linecap="butt" stroke-linejoin="miter" stroke="rgb(0%, 0%, 0%)" stroke-opacity="1" stroke-miterlimit="10" d="M 240.539062 20 C 240.539062 21.332031 238.539062 21.332031 238.539062 20 C 238.539062 18.667969 240.539062 18.667969 240.539062 20 "/>
<path fill-rule="nonzero" fill="rgb(100%, 0%, 0%)" fill-opacity="1" stroke-width="0.01" stroke-linecap="butt" stroke-linejoin="miter" stroke="rgb(0%, 0%, 0%)" stroke-opacity="1" stroke-miterlimit="10" d="M 107.472656 166.699219 C 107.472656 168.035156 105.472656 168.035156 105.472656 166.699219 C 105.472656 165.367188 107.472656 165.367188 107.472656 166.699219 "/>
<path fill-rule="nonzero" fill="rgb(100%, 0%, 0%)" fill-opacity="1" stroke-width="0.01" stroke-linecap="butt" stroke-linejoin="miter" stroke="rgb(0%, 0%, 0%)" stroke-opacity="1" stroke-miterlimit="10" d="M 74.625 164.066406 C 74.625 165.398438 72.625 165.398438 72.625 164.066406 C 72.625 162.734375 74.625 162.734375 74.625 164.066406 "/>
<path fill-rule="nonzero" fill="rgb(100%, 0%, 0%)" fill-opacity="1" stroke-width="0.01" stroke-linecap="butt" stroke-linejoin="miter" stroke="rgb(0%, 0%, 0%)" stroke-opacity="1" stroke-miterlimit="10" d="M 84.730469 193.167969 C 84.730469 194.5 82.730469 194.5 82.730469 193.167969 C 82.730469 191.835938 84.730469 191.835938 84.730469 193.167969 "/>
<path fill-rule="nonzero" fill="rgb(100%, 0%, 0%)" fill-opacity="1" stroke-width="0.01" stroke-linecap="butt" stroke-linejoin="miter" stroke="rgb(0%, 0%, 0%)" stroke-opacity="1" stroke-miterlimit="10" d="M 117.496094 132.257812 C 117.496094 133.589844 115.496094 133.589844 115.496094 132.257812 C 115.496094 130.925781 117.496094 130.925781 117.496094 132.257812 "/>
<path fill-rule="nonzero" fill="rgb(100%, 0%, 0%)" fill-opacity="1" stroke-width="0.01" stroke-linecap="butt" stroke-linejoin="miter" stroke="rgb(0%, 0%, 0%)" stroke-opacity="1" stroke-miterlimit="10" d="M 89.113281 137.140625 C 89.113281 138.472656 87.113281 138.472656 87.113281 137.140625 C 87.113281 135.808594 89.113281 135.808594 89.113281 137.140625 "/>
<path fill-rule="nonzero" fill="rgb(100%, 0%, 0%)" fill-opacity="1" stroke-width="0.01" stroke-linecap="butt" stroke-linejoin="miter" stroke="rgb(0%, 0%, 0%)" stroke-opacity="1" stroke-miterlimit="10" d="M 138.351562 153.574219 C 138.351562 154.90625 136.351562 154.90625 136.351562 153.574219 C 136.351562 152.238281 138.351562 152.238281 138.351562 153.574219 "/>
<path fill-rule="nonzero" fill="rgb(100%, 0%, 0%)" fill-opacity="1" stroke-width="0.01" stroke-linecap="butt" stroke-linejoin="miter" stroke="rgb(0%, 0%, 0%)" stroke-opacity="1" stroke-miterlimit="10" d="M 112.167969 202.179688 C 112.167969 203.515625 110.167969 203.515625 110.167969 202.179688 C 110.167969 200.847656 112.167969 200.847656 112.167969 202.179688 "/>
<path fill-rule="nonzero" fill="rgb(100%, 0%, 0%)" fill-opacity="1" stroke-width="0.01" stroke-linecap="butt" stroke-linejoin="miter" stroke="rgb(0%, 0%, 0%)" stroke-opacity="1" stroke-miterlimit="10" d="M 135.835938 184.527344 C 135.835938 185.859375 133.835938 185.859375 133.835938 184.527344 C 133.835938 183.195312 135.835938 183.195312 135.835938 184.527344 "/>
<path fill-rule="nonzero" fill="rgb(100%, 0%, 0%)" fill-opacity="1" stroke-width="0.01" stroke-linecap="butt" stroke-linejoin="miter" stroke="rgb(0%, 0%, 0%)" stroke-opacity="1" stroke-miterlimit="10" d="M 293.179688 224.714844 C 293.179688 226.046875 291.179688 226.046875 291.179688 224.714844 C 291.179688 223.378906 293.179688 223.378906 293.179688 224.714844 "/>
<path fill-rule="nonzero" fill="rgb(100%, 0%, 0%)" fill-opacity="1" stroke-width="0.01" stroke-linecap="butt" stroke-linejoin="miter" stroke="rgb(0%, 0%, 0%)" stroke-opacity="1" stroke-miterlimit="10" d="M 315.027344 235.851562 C 315.027344 237.183594 313.027344 237.183594 313.027344 235.851562 C 313.027344 234.515625 315.027344 234.515625 315.027344 235.851562 "/>
<path fill-rule="nonzero" fill="rgb(100%, 0%, 0%)" fill-opacity="1" stroke-width="0.01" stroke-linecap="butt" stroke-linejoin="miter" stroke="rgb(0%, 0%, 0%)" stroke-opacity="1" stroke-miterlimit="10" d="M 271.367188 213.628906 C 271.367188 214.960938 269.367188 214.960938 269.367188 213.628906 C 269.367188 212.296875 271.367188 212.296875 271.367188 213.628906 "/>
<path fill-rule="nonzero" fill="rgb(100%, 0%, 0%)" fill-opacity="1" stroke-width="0.01" stroke-linecap="butt" stroke-linejoin="miter" stroke="rgb(0%, 0%, 0%)" stroke-opacity="1" stroke-miterlimit="10" d="M 25.800781 418.734375 C 25.800781 420.070312 23.800781 420.070312 23.800781 418.734375 C 23.800781 417.402344 25.800781 417.402344 25.800781 418.734375 "/>
<path fill-rule="nonzero" fill="rgb(100%, 0%, 0%)" fill-opacity="1" stroke-width="0.01" stroke-linecap="butt" stroke-linejoin="miter" stroke="rgb(0%, 0%, 0%)" stroke-opacity="1" stroke-miterlimit="10" d="M 21 393.117188 C 21 394.453125 19 394.453125 19 393.117188 C 19 391.785156 21 391.785156 21 393.117188 "/>
<path fill-rule="nonzero" fill="rgb(100%, 0%, 0%)" fill-opacity="1" stroke-width="0.01" stroke-linecap="butt" stroke-linejoin="miter" stroke="rgb(0%, 0%, 0%)" stroke-opacity="1" stroke-miterlimit="10" d="M 30.914062 444.308594 C 30.914062 445.640625 28.914062 445.640625 28.914062 444.308594 C 28.914062 442.972656 30.914062 442.972656 30.914062 444.308594 "/>
<path fill-rule="nonzero" fill="rgb(100%, 0%, 0%)" fill-opacity="1" stroke-width="0.01" stroke-linecap="butt" stroke-linejoin="miter" stroke="rgb(0%, 0%, 0%)" stroke-opacity="1" stroke-miterlimit="10" d="M 354.128906 438.792969 C 354.128906 440.125 352.128906 440.125 352.128906 438.792969 C 352.128906 437.460938 354.128906 437.460938 354.128906 438.792969 "/>
<path fill-rule="nonzero" fill="rgb(100%, 0%, 0%)" fill-opacity="1" stroke-width="0.01" stroke-linecap="butt" stroke-linejoin="miter" stroke="rgb(0%, 0%, 0%)" stroke-opacity="1" stroke-miterlimit="10" d="M 326.222656 430.425781 C 326.222656 431.757812 324.222656 431.757812 324.222656 430.425781 C 324.222656 429.09375 326.222656 429.09375 326.222656 430.425781 "/>
<path fill-rule="nonzero" fill="rgb(100%, 0%, 0%)" fill-opacity="1" stroke-width="0.01" stroke-linecap="butt" stroke-linejoin="miter" stroke="rgb(0%, 0%, 0%)" stroke-opacity="1" stroke-miterlimit="10" d="M 337.476562 465.808594 C 337.476562 467.140625 335.476562 467.140625 335.476562 465.808594 C 335.476562 464.476562 337.476562 464.476562 337.476562 465.808594 "/>
<path fill-rule="nonzero" fill="rgb(100%, 0%, 0%)" fill-opacity="1" stroke-width="0.01" stroke-linecap="butt" stroke-linejoin="miter" stroke="rgb(0%, 0%, 0%)" stroke-opacity="1" stroke-miterlimit="10" d="M 353.535156 406.445312 C 353.535156 407.78125 351.535156 407.78125 351.535156 406.445312 C 351.535156 405.113281 353.535156 405.113281 353.535156 406.445312 "/>
<path fill-rule="nonzero" fill="rgb(100%, 0%, 0%)" fill-opacity="1" stroke-width="0.01" stroke-linecap="butt" stroke-linejoin="miter" stroke="rgb(0%, 0%, 0%)" stroke-opacity="1" stroke-miterlimit="10" d="M 381.632812 427.460938 C 381.632812 428.792969 379.632812 428.792969 379.632812 427.460938 C 379.632812 426.125 381.632812 426.125 381.632812 427.460938 "/>
<path fill-rule="nonzero" fill="rgb(100%, 0%, 0%)" fill-opacity="1" stroke-width="0.01" stroke-linecap="butt" stroke-linejoin="miter" stroke="rgb(0%, 0%, 0%)" stroke-opacity="1" stroke-miterlimit="10" d="M 371.757812 463.992188 C 371.757812 465.324219 369.757812 465.324219 369.757812 463.992188 C 369.757812 462.65625 371.757812 462.65625 371.757812 463.992188 "/>
<path fill-rule="nonzero" fill="rgb(100%, 0%, 0%)" fill-opacity="1" stroke-width="0.01" stroke-linecap="butt" stroke-linejoin="miter" stroke="rgb(0%, 0%, 0%)" stroke-opacity="1" stroke-miterlimit="10" d="M 490.855469 345.644531 C 490.855469 346.980469 488.855469 346.980469 488.855469 345.644531 C 488.855469 344.3125 490.855469 344.3125 490.855469 345.644531 "/>
<path fill-rule="nonzero" fill="rgb(100%, 0%, 0%)" fill-opacity="1" stroke-width="0.01" stroke-linecap="butt" stroke-linejoin="miter" stroke="rgb(0%, 0%, 0%)" stroke-opacity="1" stroke-miterlimit="10" d="M 474.21875 323.988281 C 474.21875 325.320312 472.21875 325.320312 472.21875 323.988281 C 472.21875 322.652344 474.21875 322.652344 474.21875 323.988281 "/>
<path fill-rule="nonzero" fill="rgb(100%, 0%, 0%)" fill-opacity="1" stroke-width="0.01" stroke-linecap="butt" stroke-linejoin="miter" stroke="rgb(0%, 0%, 0%)" stroke-opacity="1" stroke-miterlimit="10" d="M 516.484375 343.269531 C 516.484375 344.605469 514.484375 344.605469 514.484375 343.269531 C 514.484375 341.9375 516.484375 341.9375 516.484375 343.269531 "/>
<path fill-rule="nonzero" fill="rgb(100%, 0%, 0%)" fill-opacity="1" stroke-width="0.01" stroke-linecap="butt" stroke-linejoin="miter" stroke="rgb(0%, 0%, 0%)" stroke-opacity="1" stroke-miterlimit="10" d="M 483.054688 372.007812 C 483.054688 373.34375 481.054688 373.34375 481.054688 372.007812 C 481.054688 370.675781 483.054688 370.675781 483.054688 372.007812 "/>
<path fill-rule="nonzero" fill="rgb(100%, 0%, 0%)" fill-opacity="1" stroke-width="0.01" stroke-linecap="butt" stroke-linejoin="miter" stroke="rgb(0%, 0%, 0%)" stroke-opacity="1" stroke-miterlimit="10" d="M 134.449219 412.382812 C 134.449219 413.71875 132.449219 413.71875 132.449219 412.382812 C 132.449219 411.050781 134.449219 411.050781 134.449219 412.382812 "/>
<path fill-rule="nonzero" fill="rgb(100%, 0%, 0%)" fill-opacity="1" stroke-width="0.01" stroke-linecap="butt" stroke-linejoin="miter" stroke="rgb(0%, 0%, 0%)" stroke-opacity="1" stroke-miterlimit="10" d="M 137.382812 438.273438 C 137.382812 439.605469 135.382812 439.605469 135.382812 438.273438 C 135.382812 436.941406 137.382812 436.941406 137.382812 438.273438 "/>
<path fill-rule="nonzero" fill="rgb(100%, 0%, 0%)" fill-opacity="1" stroke-width="0.01" stroke-linecap="butt" stroke-linejoin="miter" stroke="rgb(0%, 0%, 0%)" stroke-opacity="1" stroke-miterlimit="10" d="M 130.921875 386.542969 C 130.921875 387.875 128.921875 387.875 128.921875 386.542969 C 128.921875 385.210938 130.921875 385.210938 130.921875 386.542969 "/>
</svg>
