<?xml version="1.0" encoding="UTF-8"?>
<svg xmlns="http://www.w3.org/2000/svg" xmlns:xlink="http://www.w3.org/1999/xlink" width="600" height="600" viewBox="0 0 600 600">
<rect x="-60" y="-60" width="720" height="720" fill="rgb(100%, 100%, 100%)" fill-opacity="1"/>
<path fill="none" stroke-width="0.2" stroke-linecap="butt" stroke-linejoin="miter" stroke="rgb(26.666667%, 26.666667%, 26.666667%)" stroke-opacity="1" stroke-miterlimit="10" d="M 569.078125 406.296875 L 573.925781 430.257812 "/>
<path fill-rule="nonzero" fill="rgb(26.666667%, 26.666667%, 26.666667%)" fill-opacity="1" d="M 574.351562 432.355469 L 573.246094 430.394531 L 574.609375 430.121094 L 574.351562 432.355469 "/>
<path fill="none" stroke-width="0.2" stroke-linecap="butt" stroke-linejoin="miter" stroke="rgb(26.666667%, 26.666667%, 26.666667%)" stroke-opacity="1" stroke-miterlimit="10" d="M 121.183594 493.546875 L 138.289062 510.476562 "/>
<path fill-rule="nonzero" fill="rgb(26.666667%, 26.666667%, 26.666667%)" fill-opacity="1" d="M 139.8125 511.984375 L 137.800781 510.972656 L 138.78125 509.984375 L 139.8125 511.984375 "/>
<path fill="none" stroke-width="0.2" stroke-linecap="butt" stroke-linejoin="miter" stroke="rgb(26.666667%, 26.666667%, 26.666667%)" stroke-opacity="1" stroke-miterlimit="10" d="M 121.183594 493.546875 L 124.523438 467.015625 "/>
<path fill-rule="nonzero" fill="rgb(26.666667%, 26.666667%, 26.666667%)" fill-opacity="1" d="M 124.789062 464.894531 L 125.210938 467.105469 L 123.832031 466.929688 L 124.789062 464.894531 "/>
<path fill="none" stroke-width="0.2" stroke-linecap="butt" stroke-linejoin="miter" stroke="rgb(26.666667%, 26.666667%, 26.666667%)" stroke-opacity="1" stroke-miterlimit="10" d="M 121.183594 493.546875 L 100.570312 502.746094 "/>
<path fill-rule="nonzero" fill="rgb(26.666667%, 26.666667%, 26.666667%)" fill-opacity="1" d="M 98.617188 503.617188 L 100.289062 502.113281 L 100.855469 503.382812 L 98.617188 503.617188 "/>
<path fill="none" stroke-width="0.2" stroke-linecap="butt" stroke-linejoin="miter" stroke="rgb(26.666667%, 26.666667%, 26.666667%)" stroke-opacity="1" stroke-miterlimit="10" d="M 276.488281 559.628906 L 255.578125 567.472656 "/>
<path fill-rule="nonzero" fill="rgb(26.666667%, 26.666667%, 26.666667%)" fill-opacity="1" d="M 253.574219 568.222656 L 255.332031 566.820312 L 255.820312 568.121094 L 253.574219 568.222656 "/>
<path fill="none" stroke-width="0.2" stroke-linecap="butt" stroke-linejoin="miter" stroke="rgb(26.666667%, 26.666667%, 26.666667%)" stroke-opacity="1" stroke-miterlimit="10" d="M 276.488281 559.628906 L 280.796875 533.394531 "/>
<path fill-rule="nonzero" fill="rgb(26.666667%, 26.666667%, 26.666667%)" fill-opacity="1" d="M 281.140625 531.28125 L 281.480469 533.503906 L 280.109375 533.28125 L 281.140625 531.28125 "/>
<path fill="none" stroke-width="0.2" stroke-linecap="butt" stroke-linejoin="miter" stroke="rgb(26.666667%, 26.666667%, 26.666667%)" stroke-opacity="1" stroke-miterlimit="10" d="M 276.488281 559.628906 L 292.84375 577.671875 "/>
<path fill-rule="nonzero" fill="rgb(26.666667%, 26.666667%, 26.666667%)" fill-opacity="1" d="M 294.277344 579.257812 L 292.328125 578.140625 L 293.355469 577.207031 L 294.277344 579.257812 "/>
<path fill="none" stroke-width="0.2" stroke-linecap="butt" stroke-linejoin="miter" stroke="rgb(26.666667%, 26.666667%, 26.666667%)" stroke-opacity="1" stroke-miterlimit="10" d="M 22.722656 283.554688 L 20.304688 308.242188 "/>
<path fill-rule="nonzero" fill="rgb(26.666667%, 26.666667%, 26.666667%)" fill-opacity="1" d="M 20.097656 310.371094 L 19.613281 308.175781 L 20.996094 308.308594 L 20.097656 310.371094 "/>
<path fill="none" stroke-width="0.2" stroke-linecap="butt" stroke-linejoin="miter" stroke="rgb(26.666667%, 26.666667%, 26.666667%)" stroke-opacity="1" stroke-miterlimit="10" d="M 22.722656 283.554688 L 25.351562 258.886719 "/>
<path fill-rule="nonzero" fill="rgb(26.666667%, 26.666667%, 26.666667%)" fill-opacity="1" d="M 25.578125 256.761719 L 26.042969 258.960938 L 24.660156 258.816406 L 25.578125 256.761719 "/>
<path fill="none" stroke-width="0.2" stroke-linecap="butt" stroke-linejoin="miter" stroke="rgb(26.666667%, 26.666667%, 26.666667%)" stroke-opacity="1" stroke-miterlimit="10" d="M 145.898438 276.347656 L 124.359375 275.851562 "/>
<path fill-rule="nonzero" fill="rgb(26.666667%, 26.666667%, 26.666667%)" fill-opacity="1" d="M 122.21875 275.804688 L 124.375 275.15625 L 124.34375 276.546875 L 122.21875 275.804688 "/>
<path fill="none" stroke-width="0.2" stroke-linecap="butt" stroke-linejoin="miter" stroke="rgb(26.666667%, 26.666667%, 26.666667%)" stroke-opacity="1" stroke-miterlimit="10" d="M 145.898438 276.347656 L 157.15625 253.019531 "/>
<path fill-rule="nonzero" fill="rgb(26.666667%, 26.666667%, 26.666667%)" fill-opacity="1" d="M 158.085938 251.09375 L 157.78125 253.320312 L 156.53125 252.71875 L 158.085938 251.09375 "/>
<path fill="none" stroke-width="0.2" stroke-linecap="butt" stroke-linejoin="miter" stroke="rgb(26.666667%, 26.666667%, 26.666667%)" stroke-opacity="1" stroke-miterlimit="10" d="M 145.898438 276.347656 L 154.207031 301.21875 "/>
<path fill-rule="nonzero" fill="rgb(26.666667%, 26.666667%, 26.666667%)" fill-opacity="1" d="M 154.886719 303.25 L 153.546875 301.441406 L 154.867188 301 L 154.886719 303.25 "/>
<path fill="none" stroke-width="0.2" stroke-linecap="butt" stroke-linejoin="miter" stroke="rgb(26.666667%, 26.666667%, 26.666667%)" stroke-opacity="1" stroke-miterlimit="10" d="M 580 460.429688 L 575.167969 436.414062 "/>
<path fill-rule="nonzero" fill="rgb(26.666667%, 26.666667%, 26.666667%)" fill-opacity="1" d="M 574.746094 434.316406 L 575.851562 436.277344 L 574.488281 436.550781 L 574.746094 434.316406 "/>
<path fill="none" stroke-width="0.2" stroke-linecap="butt" stroke-linejoin="miter" stroke="rgb(26.666667%, 26.666667%, 26.666667%)" stroke-opacity="1" stroke-miterlimit="10" d="M 504.675781 135.855469 L 524.011719 129.546875 "/>
<path fill-rule="nonzero" fill="rgb(26.666667%, 26.666667%, 26.666667%)" fill-opacity="1" d="M 526.046875 128.886719 L 524.230469 130.210938 L 523.796875 128.886719 L 526.046875 128.886719 "/>
<path fill="none" stroke-width="0.2" stroke-linecap="butt" stroke-linejoin="miter" stroke="rgb(26.666667%, 26.666667%, 26.666667%)" stroke-opacity="1" stroke-miterlimit="10" d="M 549.542969 122.328125 L 530.023438 127.738281 "/>
<path fill-rule="nonzero" fill="rgb(26.666667%, 26.666667%, 26.666667%)" fill-opacity="1" d="M 527.960938 128.308594 L 529.839844 127.066406 L 530.210938 128.40625 L 527.960938 128.308594 "/>
<path fill="none" stroke-width="0.2" stroke-linecap="butt" stroke-linejoin="miter" stroke="rgb(26.666667%, 26.666667%, 26.666667%)" stroke-opacity="1" stroke-miterlimit="10" d="M 95.75 97.410156 L 76.769531 105.640625 "/>
<path fill-rule="nonzero" fill="rgb(26.666667%, 26.666667%, 26.666667%)" fill-opacity="1" d="M 74.808594 106.492188 L 76.492188 105.003906 L 77.046875 106.277344 L 74.808594 106.492188 "/>
<path fill="none" stroke-width="0.2" stroke-linecap="butt" stroke-linejoin="miter" stroke="rgb(26.666667%, 26.666667%, 26.666667%)" stroke-opacity="1" stroke-miterlimit="10" d="M 95.75 97.410156 L 114.664062 89.097656 "/>
<path fill-rule="nonzero" fill="rgb(26.666667%, 26.666667%, 26.666667%)" fill-opacity="1" d="M 116.621094 88.234375 L 114.941406 89.734375 L 114.382812 88.460938 L 116.621094 88.234375 "/>
<path fill="none" stroke-width="0.2" stroke-linecap="butt" stroke-linejoin="miter" stroke="rgb(26.666667%, 26.666667%, 26.666667%)" stroke-opacity="1" stroke-miterlimit="10" d="M 292.503906 334.257812 L 275.066406 305.808594 "/>
<path fill-rule="nonzero" fill="rgb(26.666667%, 26.666667%, 26.666667%)" fill-opacity="1" d="M 273.949219 303.984375 L 275.660156 305.445312 L 274.476562 306.175781 L 273.949219 303.984375 "/>
<path fill="none" stroke-width="0.2" stroke-linecap="butt" stroke-linejoin="miter" stroke="rgb(26.666667%, 26.666667%, 26.666667%)" stroke-opacity="1" stroke-miterlimit="10" d="M 292.503906 334.257812 L 318.148438 350.371094 "/>
<path fill-rule="nonzero" fill="rgb(26.666667%, 26.666667%, 26.666667%)" fill-opacity="1" d="M 319.960938 351.507812 L 317.78125 350.960938 L 318.519531 349.78125 L 319.960938 351.507812 "/>
<path fill="none" stroke-width="0.2" stroke-linecap="butt" stroke-linejoin="miter" stroke="rgb(26.666667%, 26.666667%, 26.666667%)" stroke-opacity="1" stroke-miterlimit="10" d="M 292.503906 334.257812 L 264.03125 333.015625 "/>
<path fill-rule="nonzero" fill="rgb(26.666667%, 26.666667%, 26.666667%)" fill-opacity="1" d="M 261.890625 332.921875 L 264.0625 332.320312 L 264 333.710938 L 261.890625 332.921875 "/>
<path fill="none" stroke-width="0.2" stroke-linecap="butt" stroke-linejoin="miter" stroke="rgb(26.666667%, 26.666667%, 26.666667%)" stroke-opacity="1" stroke-miterlimit="10" d="M 292.503906 334.257812 L 300.105469 300.699219 "/>
<path fill-rule="nonzero" fill="rgb(26.666667%, 26.666667%, 26.666667%)" fill-opacity="1" d="M 300.578125 298.609375 L 300.785156 300.851562 L 299.425781 300.542969 L 300.578125 298.609375 "/>
<path fill="none" stroke-width="0.2" stroke-linecap="butt" stroke-linejoin="miter" stroke="rgb(26.666667%, 26.666667%, 26.666667%)" stroke-opacity="1" stroke-miterlimit="10" d="M 292.503906 334.257812 L 319.40625 320.34375 "/>
<path fill-rule="nonzero" fill="rgb(26.666667%, 26.666667%, 26.666667%)" fill-opacity="1" d="M 321.308594 319.363281 L 319.726562 320.960938 L 319.085938 319.726562 L 321.308594 319.363281 "/>
<path fill="none" stroke-width="0.2" stroke-linecap="butt" stroke-linejoin="miter" stroke="rgb(26.666667%, 26.666667%, 26.666667%)" stroke-opacity="1" stroke-miterlimit="10" d="M 292.503906 334.257812 L 297.738281 368.433594 "/>
<path fill-rule="nonzero" fill="rgb(26.666667%, 26.666667%, 26.666667%)" fill-opacity="1" d="M 298.0625 370.546875 L 297.054688 368.539062 L 298.425781 368.328125 L 298.0625 370.546875 "/>
<path fill="none" stroke-width="0.2" stroke-linecap="butt" stroke-linejoin="miter" stroke="rgb(26.666667%, 26.666667%, 26.666667%)" stroke-opacity="1" stroke-miterlimit="10" d="M 292.503906 334.257812 L 273.023438 361.128906 "/>
<path fill-rule="nonzero" fill="rgb(26.666667%, 26.666667%, 26.666667%)" fill-opacity="1" d="M 271.765625 362.863281 L 272.457031 360.722656 L 273.585938 361.539062 L 271.765625 362.863281 "/>
<path fill="none" stroke-width="0.2" stroke-linecap="butt" stroke-linejoin="miter" stroke="rgb(26.666667%, 26.666667%, 26.666667%)" stroke-opacity="1" stroke-miterlimit="10" d="M 508.773438 290.910156 L 491.078125 302.785156 "/>
<path fill-rule="nonzero" fill="rgb(26.666667%, 26.666667%, 26.666667%)" fill-opacity="1" d="M 489.300781 303.976562 L 490.691406 302.207031 L 491.464844 303.363281 L 489.300781 303.976562 "/>
<path fill="none" stroke-width="0.2" stroke-linecap="butt" stroke-linejoin="miter" stroke="rgb(26.666667%, 26.666667%, 26.666667%)" stroke-opacity="1" stroke-miterlimit="10" d="M 508.773438 290.910156 L 526.640625 279.363281 "/>
<path fill-rule="nonzero" fill="rgb(26.666667%, 26.666667%, 26.666667%)" fill-opacity="1" d="M 528.4375 278.203125 L 527.019531 279.945312 L 526.265625 278.777344 L 528.4375 278.203125 "/>
<path fill="none" stroke-width="0.2" stroke-linecap="butt" stroke-linejoin="miter" stroke="rgb(26.666667%, 26.666667%, 26.666667%)" stroke-opacity="1" stroke-miterlimit="10" d="M 344.71875 170.09375 L 361.441406 184.199219 "/>
<path fill-rule="nonzero" fill="rgb(26.666667%, 26.666667%, 26.666667%)" fill-opacity="1" d="M 363.078125 185.578125 L 360.992188 184.730469 L 361.890625 183.667969 L 363.078125 185.578125 "/>
<path fill="none" stroke-width="0.2" stroke-linecap="butt" stroke-linejoin="miter" stroke="rgb(26.666667%, 26.666667%, 26.666667%)" stroke-opacity="1" stroke-miterlimit="10" d="M 344.71875 170.09375 L 328 156.121094 "/>
<path fill-rule="nonzero" fill="rgb(26.666667%, 26.666667%, 26.666667%)" fill-opacity="1" d="M 326.359375 154.746094 L 328.449219 155.585938 L 327.554688 156.652344 L 326.359375 154.746094 "/>
<path fill="none" stroke-width="0.2" stroke-linecap="butt" stroke-linejoin="miter" stroke="rgb(26.666667%, 26.666667%, 26.666667%)" stroke-opacity="1" stroke-miterlimit="10" d="M 429.960938 501.605469 L 405.085938 495.800781 "/>
<path fill-rule="nonzero" fill="rgb(26.666667%, 26.666667%, 26.666667%)" fill-opacity="1" d="M 403.003906 495.3125 L 405.246094 495.121094 L 404.929688 496.476562 L 403.003906 495.3125 "/>
<path fill="none" stroke-width="0.2" stroke-linecap="butt" stroke-linejoin="miter" stroke="rgb(26.666667%, 26.666667%, 26.666667%)" stroke-opacity="1" stroke-miterlimit="10" d="M 429.960938 501.605469 L 452.96875 488.4375 "/>
<path fill-rule="nonzero" fill="rgb(26.666667%, 26.666667%, 26.666667%)" fill-opacity="1" d="M 454.824219 487.375 L 453.3125 489.042969 L 452.621094 487.835938 L 454.824219 487.375 "/>
<path fill="none" stroke-width="0.2" stroke-linecap="butt" stroke-linejoin="miter" stroke="rgb(26.666667%, 26.666667%, 26.666667%)" stroke-opacity="1" stroke-miterlimit="10" d="M 429.960938 501.605469 L 426.738281 470.289062 "/>
<path fill-rule="nonzero" fill="rgb(26.666667%, 26.666667%, 26.666667%)" fill-opacity="1" d="M 426.519531 468.160156 L 427.429688 470.214844 L 426.046875 470.359375 L 426.519531 468.160156 "/>
<path fill="none" stroke-width="0.2" stroke-linecap="butt" stroke-linejoin="miter" stroke="rgb(26.666667%, 26.666667%, 26.666667%)" stroke-opacity="1" stroke-miterlimit="10" d="M 429.960938 501.605469 L 417.472656 529.105469 "/>
<path fill-rule="nonzero" fill="rgb(26.666667%, 26.666667%, 26.666667%)" fill-opacity="1" d="M 416.585938 531.054688 L 416.835938 528.820312 L 418.105469 529.394531 L 416.585938 531.054688 "/>
<path fill="none" stroke-width="0.2" stroke-linecap="butt" stroke-linejoin="miter" stroke="rgb(26.666667%, 26.666667%, 26.666667%)" stroke-opacity="1" stroke-miterlimit="10" d="M 429.960938 501.605469 L 447.582031 524.441406 "/>
<path fill-rule="nonzero" fill="rgb(26.666667%, 26.666667%, 26.666667%)" fill-opacity="1" d="M 448.886719 526.136719 L 447.03125 524.867188 L 448.128906 524.019531 L 448.886719 526.136719 "/>
<path fill="none" stroke-width="0.2" stroke-linecap="butt" stroke-linejoin="miter" stroke="rgb(26.666667%, 26.666667%, 26.666667%)" stroke-opacity="1" stroke-miterlimit="10" d="M 246.628906 42.742188 L 238.910156 67.992188 "/>
<path fill-rule="nonzero" fill="rgb(26.666667%, 26.666667%, 26.666667%)" fill-opacity="1" d="M 238.285156 70.039062 L 238.246094 67.789062 L 239.578125 68.195312 L 238.285156 70.039062 "/>
<path fill="none" stroke-width="0.2" stroke-linecap="butt" stroke-linejoin="miter" stroke="rgb(26.666667%, 26.666667%, 26.666667%)" stroke-opacity="1" stroke-miterlimit="10" d="M 246.628906 42.742188 L 232.238281 22.558594 "/>
<path fill-rule="nonzero" fill="rgb(26.666667%, 26.666667%, 26.666667%)" fill-opacity="1" d="M 230.996094 20.8125 L 232.804688 22.152344 L 231.671875 22.960938 L 230.996094 20.8125 "/>
<path fill="none" stroke-width="0.2" stroke-linecap="butt" stroke-linejoin="miter" stroke="rgb(26.666667%, 26.666667%, 26.666667%)" stroke-opacity="1" stroke-miterlimit="10" d="M 246.628906 42.742188 L 268.105469 37.050781 "/>
<path fill-rule="nonzero" fill="rgb(26.666667%, 26.666667%, 26.666667%)" fill-opacity="1" d="M 270.171875 36.5 L 268.28125 37.722656 L 267.925781 36.378906 L 270.171875 36.5 "/>
<path fill="none" stroke-width="0.2" stroke-linecap="butt" stroke-linejoin="miter" stroke="rgb(26.666667%, 26.666667%, 26.666667%)" stroke-opacity="1" stroke-miterlimit="10" d="M 416.871094 67.191406 L 419.441406 91.664062 "/>
<path fill-rule="nonzero" fill="rgb(26.666667%, 26.666667%, 26.666667%)" fill-opacity="1" d="M 419.664062 93.792969 L 418.75 91.738281 L 420.132812 91.59375 L 419.664062 93.792969 "/>
<path fill="none" stroke-width="0.2" stroke-linecap="butt" stroke-linejoin="miter" stroke="rgb(26.666667%, 26.666667%, 26.666667%)" stroke-opacity="1" stroke-miterlimit="10" d="M 416.871094 67.191406 L 414.554688 42.710938 "/>
<path fill-rule="nonzero" fill="rgb(26.666667%, 26.666667%, 26.666667%)" fill-opacity="1" d="M 414.355469 40.582031 L 415.246094 42.648438 L 413.863281 42.777344 L 414.355469 40.582031 "/>
<path fill-rule="nonzero" fill="rgb(100%, 0%, 0%)" fill-opacity="1" stroke-width="0.01" stroke-linecap="butt" stroke-linejoin="miter" stroke="rgb(0%, 0%, 0%)" stroke-opacity="1" stroke-miterlimit="10" d="M 570.078125 406.296875 C 570.078125 407.628906 568.078125 407.628906 568.078125 406.296875 C 568.078125 404.964844 570.078125 404.964844 570.078125 406.296875 "/>
<path fill-rule="nonzero" fill="rgb(100%, 0%, 0%)" fill-opacity="1" stroke-width="0.01" stroke-linecap="butt" stroke-linejoin="miter" stroke="rgb(0%, 0%, 0%)" stroke-opacity="1" stroke-miterlimit="10" d="M 575.550781 433.335938 C 575.550781 434.667969 573.550781 434.667969 573.550781 433.335938 C 573.550781 432 575.550781 432 575.550781 433.335938 "/>
<path fill-rule="nonzero" fill="rgb(100%, 0%, 0%)" fill-opacity="1" stroke-width="0.01" stroke-linecap="butt" stroke-linejoin="miter" stroke="rgb(0%, 0%, 0%)" stroke-opacity="1" stroke-miterlimit="10" d="M 122.183594 493.546875 C 122.183594 494.882812 120.183594 494.882812 120.183594 493.546875 C 120.183594 492.214844 122.183594 492.214844 122.183594 493.546875 "/>
<path fill-rule="nonzero" fill="rgb(100%, 0%, 0%)" fill-opacity="1" stroke-width="0.01" stroke-linecap="butt" stroke-linejoin="miter" stroke="rgb(0%, 0%, 0%)" stroke-opacity="1" stroke-miterlimit="10" d="M 141.523438 512.6875 C 141.523438 514.019531 139.523438 514.019531 139.523438 512.6875 C 139.523438 511.351562 141.523438 511.351562 141.523438 512.6875 "/>
<path fill-rule="nonzero" fill="rgb(100%, 0%, 0%)" fill-opacity="1" stroke-width="0.01" stroke-linecap="butt" stroke-linejoin="miter" stroke="rgb(0%, 0%, 0%)" stroke-opacity="1" stroke-miterlimit="10" d="M 125.914062 463.902344 C 125.914062 465.234375 123.914062 465.234375 123.914062 463.902344 C 123.914062 462.570312 125.914062 462.570312 125.914062 463.902344 "/>
<path fill-rule="nonzero" fill="rgb(100%, 0%, 0%)" fill-opacity="1" stroke-width="0.01" stroke-linecap="butt" stroke-linejoin="miter" stroke="rgb(0%, 0%, 0%)" stroke-opacity="1" stroke-miterlimit="10" d="M 98.703125 504.027344 C 98.703125 505.359375 96.703125 505.359375 96.703125 504.027344 C 96.703125 502.691406 98.703125 502.691406 98.703125 504.027344 "/>
<path fill-rule="nonzero" fill="rgb(100%, 0%, 0%)" fill-opacity="1" stroke-width="0.01" stroke-linecap="butt" stroke-linejoin="miter" stroke="rgb(0%, 0%, 0%)" stroke-opacity="1" stroke-miterlimit="10" d="M 277.488281 559.628906 C 277.488281 560.960938 275.488281 560.960938 275.488281 559.628906 C 275.488281 558.292969 277.488281 558.292969 277.488281 559.628906 "/>
<path fill-rule="nonzero" fill="rgb(100%, 0%, 0%)" fill-opacity="1" stroke-width="0.01" stroke-linecap="butt" stroke-linejoin="miter" stroke="rgb(0%, 0%, 0%)" stroke-opacity="1" stroke-miterlimit="10" d="M 253.636719 568.574219 C 253.636719 569.90625 251.636719 569.90625 251.636719 568.574219 C 251.636719 567.242188 253.636719 567.242188 253.636719 568.574219 "/>
<path fill-rule="nonzero" fill="rgb(100%, 0%, 0%)" fill-opacity="1" stroke-width="0.01" stroke-linecap="butt" stroke-linejoin="miter" stroke="rgb(0%, 0%, 0%)" stroke-opacity="1" stroke-miterlimit="10" d="M 282.304688 530.292969 C 282.304688 531.628906 280.304688 531.628906 280.304688 530.292969 C 280.304688 528.960938 282.304688 528.960938 282.304688 530.292969 "/>
<path fill-rule="nonzero" fill="rgb(100%, 0%, 0%)" fill-opacity="1" stroke-width="0.01" stroke-linecap="butt" stroke-linejoin="miter" stroke="rgb(0%, 0%, 0%)" stroke-opacity="1" stroke-miterlimit="10" d="M 295.949219 580 C 295.949219 581.332031 293.949219 581.332031 293.949219 580 C 293.949219 578.667969 295.949219 578.667969 295.949219 580 "/>
<path fill-rule="nonzero" fill="rgb(100%, 0%, 0%)" fill-opacity="1" stroke-width="0.01" stroke-linecap="butt" stroke-linejoin="miter" stroke="rgb(0%, 0%, 0%)" stroke-opacity="1" stroke-miterlimit="10" d="M 23.722656 283.554688 C 23.722656 284.886719 21.722656 284.886719 21.722656 283.554688 C 21.722656 282.222656 23.722656 282.222656 23.722656 283.554688 "/>
<path fill-rule="nonzero" fill="rgb(100%, 0%, 0%)" fill-opacity="1" stroke-width="0.01" stroke-linecap="butt" stroke-linejoin="miter" stroke="rgb(0%, 0%, 0%)" stroke-opacity="1" stroke-miterlimit="10" d="M 21 311.367188 C 21 312.699219 19 312.699219 19 311.367188 C 19 310.035156 21 310.035156 21 311.367188 "/>
<path fill-rule="nonzero" fill="rgb(100%, 0%, 0%)" fill-opacity="1" stroke-width="0.01" stroke-linecap="butt" stroke-linejoin="miter" stroke="rgb(0%, 0%, 0%)" stroke-opacity="1" stroke-miterlimit="10" d="M 26.683594 255.765625 C 26.683594 257.097656 24.683594 257.097656 24.683594 255.765625 C 24.683594 254.433594 26.683594 254.433594 26.683594 255.765625 "/>
<path fill-rule="nonzero" fill="rgb(100%, 0%, 0%)" fill-opacity="1" stroke-width="0.01" stroke-linecap="butt" stroke-linejoin="miter" stroke="rgb(0%, 0%, 0%)" stroke-opacity="1" stroke-miterlimit="10" d="M 146.898438 276.347656 C 146.898438 277.683594 144.898438 277.683594 144.898438 276.347656 C 144.898438 275.015625 146.898438 275.015625 146.898438 276.347656 "/>
<path fill-rule="nonzero" fill="rgb(100%, 0%, 0%)" fill-opacity="1" stroke-width="0.01" stroke-linecap="butt" stroke-linejoin="miter" stroke="rgb(0%, 0%, 0%)" stroke-opacity="1" stroke-miterlimit="10" d="M 122.21875 275.78125 C 122.21875 277.113281 120.21875 277.113281 120.21875 275.78125 C 120.21875 274.449219 122.21875 274.449219 122.21875 275.78125 "/>
<path fill-rule="nonzero" fill="rgb(100%, 0%, 0%)" fill-opacity="1" stroke-width="0.01" stroke-linecap="butt" stroke-linejoin="miter" stroke="rgb(0%, 0%, 0%)" stroke-opacity="1" stroke-miterlimit="10" d="M 159.519531 250.191406 C 159.519531 251.523438 157.519531 251.523438 157.519531 250.191406 C 157.519531 248.859375 159.519531 248.859375 159.519531 250.191406 "/>
<path fill-rule="nonzero" fill="rgb(100%, 0%, 0%)" fill-opacity="1" stroke-width="0.01" stroke-linecap="butt" stroke-linejoin="miter" stroke="rgb(0%, 0%, 0%)" stroke-opacity="1" stroke-miterlimit="10" d="M 156.203125 304.199219 C 156.203125 305.53125 154.203125 305.53125 154.203125 304.199219 C 154.203125 302.867188 156.203125 302.867188 156.203125 304.199219 "/>
<path fill-rule="nonzero" fill="rgb(100%, 0%, 0%)" fill-opacity="1" stroke-width="0.01" stroke-linecap="butt" stroke-linejoin="miter" stroke="rgb(0%, 0%, 0%)" stroke-opacity="1" stroke-miterlimit="10" d="M 581 460.429688 C 581 461.761719 579 461.761719 579 460.429688 C 579 459.09375 581 459.09375 581 460.429688 "/>
<path fill-rule="nonzero" fill="rgb(100%, 0%, 0%)" fill-opacity="1" stroke-width="0.01" stroke-linecap="butt" stroke-linejoin="miter" stroke="rgb(0%, 0%, 0%)" stroke-opacity="1" stroke-miterlimit="10" d="M 505.675781 135.855469 C 505.675781 137.191406 503.675781 137.191406 503.675781 135.855469 C 503.675781 134.523438 505.675781 134.523438 505.675781 135.855469 "/>
<path fill-rule="nonzero" fill="rgb(100%, 0%, 0%)" fill-opacity="1" stroke-width="0.01" stroke-linecap="butt" stroke-linejoin="miter" stroke="rgb(0%, 0%, 0%)" stroke-opacity="1" stroke-miterlimit="10" d="M 528 128.574219 C 528 129.90625 526 129.90625 526 128.574219 C 526 127.242188 528 127.242188 528 128.574219 "/>
<path fill-rule="nonzero" fill="rgb(100%, 0%, 0%)" fill-opacity="1" stroke-width="0.01" stroke-linecap="butt" stroke-linejoin="miter" stroke="rgb(0%, 0%, 0%)" stroke-opacity="1" stroke-miterlimit="10" d="M 550.542969 122.328125 C 550.542969 123.660156 548.542969 123.660156 548.542969 122.328125 C 548.542969 120.996094 550.542969 120.996094 550.542969 122.328125 "/>
<path fill-rule="nonzero" fill="rgb(100%, 0%, 0%)" fill-opacity="1" stroke-width="0.01" stroke-linecap="butt" stroke-linejoin="miter" stroke="rgb(0%, 0%, 0%)" stroke-opacity="1" stroke-miterlimit="10" d="M 96.75 97.410156 C 96.75 98.742188 94.75 98.742188 94.75 97.410156 C 94.75 96.078125 96.75 96.078125 96.75 97.410156 "/>
<path fill-rule="nonzero" fill="rgb(100%, 0%, 0%)" fill-opacity="1" stroke-width="0.01" stroke-linecap="butt" stroke-linejoin="miter" stroke="rgb(0%, 0%, 0%)" stroke-opacity="1" stroke-miterlimit="10" d="M 74.890625 106.890625 C 74.890625 108.222656 72.890625 108.222656 72.890625 106.890625 C 72.890625 105.558594 74.890625 105.558594 74.890625 106.890625 "/>
<path fill-rule="nonzero" fill="rgb(100%, 0%, 0%)" fill-opacity="1" stroke-width="0.01" stroke-linecap="butt" stroke-linejoin="miter" stroke="rgb(0%, 0%, 0%)" stroke-opacity="1" stroke-miterlimit="10" d="M 118.535156 87.832031 C 118.535156 89.167969 116.535156 89.167969 116.535156 87.832031 C 116.535156 86.5 118.535156 86.5 118.535156 87.832031 "/>
<path fill-rule="nonzero" fill="rgb(100%, 0%, 0%)" fill-opacity="1" stroke-width="0.01" stroke-linecap="butt" stroke-linejoin="miter" stroke="rgb(0%, 0%, 0%)" stroke-opacity="1" stroke-miterlimit="10" d="M 293.503906 334.257812 C 293.503906 335.589844 291.503906 335.589844 291.503906 334.257812 C 291.503906 332.921875 293.503906 332.921875 293.503906 334.257812 "/>
<path fill-rule="nonzero" fill="rgb(100%, 0%, 0%)" fill-opacity="1" stroke-width="0.01" stroke-linecap="butt" stroke-linejoin="miter" stroke="rgb(0%, 0%, 0%)" stroke-opacity="1" stroke-miterlimit="10" d="M 274.425781 303.132812 C 274.425781 304.46875 272.425781 304.46875 272.425781 303.132812 C 272.425781 301.800781 274.425781 301.800781 274.425781 303.132812 "/>
<path fill-rule="nonzero" fill="rgb(100%, 0%, 0%)" fill-opacity="1" stroke-width="0.01" stroke-linecap="butt" stroke-linejoin="miter" stroke="rgb(0%, 0%, 0%)" stroke-opacity="1" stroke-miterlimit="10" d="M 321.808594 352.042969 C 321.808594 353.375 319.808594 353.375 319.808594 352.042969 C 319.808594 350.707031 321.808594 350.707031 321.808594 352.042969 "/>
<path fill-rule="nonzero" fill="rgb(100%, 0%, 0%)" fill-opacity="1" stroke-width="0.01" stroke-linecap="butt" stroke-linejoin="miter" stroke="rgb(0%, 0%, 0%)" stroke-opacity="1" stroke-miterlimit="10" d="M 261.894531 332.878906 C 261.894531 334.210938 259.894531 334.210938 259.894531 332.878906 C 259.894531 331.546875 261.894531 331.546875 261.894531 332.878906 "/>
<path fill-rule="nonzero" fill="rgb(100%, 0%, 0%)" fill-opacity="1" stroke-width="0.01" stroke-linecap="butt" stroke-linejoin="miter" stroke="rgb(0%, 0%, 0%)" stroke-opacity="1" stroke-miterlimit="10" d="M 301.800781 297.636719 C 301.800781 298.96875 299.800781 298.96875 299.800781 297.636719 C 299.800781 296.300781 301.800781 296.300781 301.800781 297.636719 "/>
<path fill-rule="nonzero" fill="rgb(100%, 0%, 0%)" fill-opacity="1" stroke-width="0.01" stroke-linecap="butt" stroke-linejoin="miter" stroke="rgb(0%, 0%, 0%)" stroke-opacity="1" stroke-miterlimit="10" d="M 323.195312 318.902344 C 323.195312 320.234375 321.195312 320.234375 321.195312 318.902344 C 321.195312 317.570312 323.195312 317.570312 323.195312 318.902344 "/>
<path fill-rule="nonzero" fill="rgb(100%, 0%, 0%)" fill-opacity="1" stroke-width="0.01" stroke-linecap="butt" stroke-linejoin="miter" stroke="rgb(0%, 0%, 0%)" stroke-opacity="1" stroke-miterlimit="10" d="M 299.214844 371.535156 C 299.214844 372.871094 297.214844 372.871094 297.214844 371.535156 C 297.214844 370.203125 299.214844 370.203125 299.214844 371.535156 "/>
<path fill-rule="nonzero" fill="rgb(100%, 0%, 0%)" fill-opacity="1" stroke-width="0.01" stroke-linecap="butt" stroke-linejoin="miter" stroke="rgb(0%, 0%, 0%)" stroke-opacity="1" stroke-miterlimit="10" d="M 272.179688 363.671875 C 272.179688 365.003906 270.179688 365.003906 270.179688 363.671875 C 270.179688 362.339844 272.179688 362.339844 272.179688 363.671875 "/>
<path fill-rule="nonzero" fill="rgb(100%, 0%, 0%)" fill-opacity="1" stroke-width="0.01" stroke-linecap="butt" stroke-linejoin="miter" stroke="rgb(0%, 0%, 0%)" stroke-opacity="1" stroke-miterlimit="10" d="M 509.773438 290.910156 C 509.773438 292.242188 507.773438 292.242188 507.773438 290.910156 C 507.773438 289.574219 509.773438 289.574219 509.773438 290.910156 "/>
<path fill-rule="nonzero" fill="rgb(100%, 0%, 0%)" fill-opacity="1" stroke-width="0.01" stroke-linecap="butt" stroke-linejoin="miter" stroke="rgb(0%, 0%, 0%)" stroke-opacity="1" stroke-miterlimit="10" d="M 489.46875 304.535156 C 489.46875 305.867188 487.46875 305.867188 487.46875 304.535156 C 487.46875 303.199219 489.46875 303.199219 489.46875 304.535156 "/>
<path fill-rule="nonzero" fill="rgb(100%, 0%, 0%)" fill-opacity="1" stroke-width="0.01" stroke-linecap="butt" stroke-linejoin="miter" stroke="rgb(0%, 0%, 0%)" stroke-opacity="1" stroke-miterlimit="10" d="M 530.277344 277.660156 C 530.277344 278.992188 528.277344 278.992188 528.277344 277.660156 C 528.277344 276.324219 530.277344 276.324219 530.277344 277.660156 "/>
<path fill-rule="nonzero" fill="rgb(100%, 0%, 0%)" fill-opacity="1" stroke-width="0.01" stroke-linecap="butt" stroke-linejoin="miter" stroke="rgb(0%, 0%, 0%)" stroke-opacity="1" stroke-miterlimit="10" d="M 345.71875 170.09375 C 345.71875 171.425781 343.71875 171.425781 343.71875 170.09375 C 343.71875 168.761719 345.71875 168.761719 345.71875 170.09375 "/>
<path fill-rule="nonzero" fill="rgb(100%, 0%, 0%)" fill-opacity="1" stroke-width="0.01" stroke-linecap="butt" stroke-linejoin="miter" stroke="rgb(0%, 0%, 0%)" stroke-opacity="1" stroke-miterlimit="10" d="M 364.84375 186.222656 C 364.84375 187.558594 362.84375 187.558594 362.84375 186.222656 C 362.84375 184.890625 364.84375 184.890625 364.84375 186.222656 "/>
<path fill-rule="nonzero" fill="rgb(100%, 0%, 0%)" fill-opacity="1" stroke-width="0.01" stroke-linecap="butt" stroke-linejoin="miter" stroke="rgb(0%, 0%, 0%)" stroke-opacity="1" stroke-miterlimit="10" d="M 326.59375 154.105469 C 326.59375 155.4375 324.59375 155.4375 324.59375 154.105469 C 324.59375 152.773438 326.59375 152.773438 326.59375 154.105469 "/>
<path fill-rule="nonzero" fill="rgb(100%, 0%, 0%)" fill-opacity="1" stroke-width="0.01" stroke-linecap="butt" stroke-linejoin="miter" stroke="rgb(0%, 0%, 0%)" stroke-opacity="1" stroke-miterlimit="10" d="M 430.960938 501.605469 C 430.960938 502.941406 428.960938 502.941406 428.960938 501.605469 C 428.960938 500.273438 430.960938 500.273438 430.960938 501.605469 "/>
<path fill-rule="nonzero" fill="rgb(100%, 0%, 0%)" fill-opacity="1" stroke-width="0.01" stroke-linecap="butt" stroke-linejoin="miter" stroke="rgb(0%, 0%, 0%)" stroke-opacity="1" stroke-miterlimit="10" d="M 403.027344 495.085938 C 403.027344 496.417969 401.027344 496.417969 401.027344 495.085938 C 401.027344 493.753906 403.027344 493.753906 403.027344 495.085938 "/>
<path fill-rule="nonzero" fill="rgb(100%, 0%, 0%)" fill-opacity="1" stroke-width="0.01" stroke-linecap="butt" stroke-linejoin="miter" stroke="rgb(0%, 0%, 0%)" stroke-opacity="1" stroke-miterlimit="10" d="M 456.691406 486.878906 C 456.691406 488.210938 454.691406 488.210938 454.691406 486.878906 C 454.691406 485.546875 456.691406 485.546875 456.691406 486.878906 "/>
<path fill-rule="nonzero" fill="rgb(100%, 0%, 0%)" fill-opacity="1" stroke-width="0.01" stroke-linecap="butt" stroke-linejoin="miter" stroke="rgb(0%, 0%, 0%)" stroke-opacity="1" stroke-miterlimit="10" d="M 427.414062 467.164062 C 427.414062 468.496094 425.414062 468.496094 425.414062 467.164062 C 425.414062 465.832031 427.414062 465.832031 427.414062 467.164062 "/>
<path fill-rule="nonzero" fill="rgb(100%, 0%, 0%)" fill-opacity="1" stroke-width="0.01" stroke-linecap="butt" stroke-linejoin="miter" stroke="rgb(0%, 0%, 0%)" stroke-opacity="1" stroke-miterlimit="10" d="M 417.171875 531.964844 C 417.171875 533.296875 415.171875 533.296875 415.171875 531.964844 C 415.171875 530.632812 417.171875 530.632812 417.171875 531.964844 "/>
<path fill-rule="nonzero" fill="rgb(100%, 0%, 0%)" fill-opacity="1" stroke-width="0.01" stroke-linecap="butt" stroke-linejoin="miter" stroke="rgb(0%, 0%, 0%)" stroke-opacity="1" stroke-miterlimit="10" d="M 450.5 526.929688 C 450.5 528.261719 448.5 528.261719 448.5 526.929688 C 448.5 525.59375 450.5 525.59375 450.5 526.929688 "/>
<path fill-rule="nonzero" fill="rgb(100%, 0%, 0%)" fill-opacity="1" stroke-width="0.01" stroke-linecap="butt" stroke-linejoin="miter" stroke="rgb(0%, 0%, 0%)" stroke-opacity="1" stroke-miterlimit="10" d="M 247.628906 42.742188 C 247.628906 44.078125 245.628906 44.078125 245.628906 42.742188 C 245.628906 41.410156 247.628906 41.410156 247.628906 42.742188 "/>
<path fill-rule="nonzero" fill="rgb(100%, 0%, 0%)" fill-opacity="1" stroke-width="0.01" stroke-linecap="butt" stroke-linejoin="miter" stroke="rgb(0%, 0%, 0%)" stroke-opacity="1" stroke-miterlimit="10" d="M 238.992188 70.996094 C 238.992188 72.328125 236.992188 72.328125 236.992188 70.996094 C 236.992188 69.660156 238.992188 69.660156 238.992188 70.996094 "/>
<path fill-rule="nonzero" fill="rgb(100%, 0%, 0%)" fill-opacity="1" stroke-width="0.01" stroke-linecap="butt" stroke-linejoin="miter" stroke="rgb(0%, 0%, 0%)" stroke-opacity="1" stroke-miterlimit="10" d="M 231.414062 20 C 231.414062 21.332031 229.414062 21.332031 229.414062 20 C 229.414062 18.667969 231.414062 18.667969 231.414062 20 "/>
<path fill-rule="nonzero" fill="rgb(100%, 0%, 0%)" fill-opacity="1" stroke-width="0.01" stroke-linecap="butt" stroke-linejoin="miter" stroke="rgb(0%, 0%, 0%)" stroke-opacity="1" stroke-miterlimit="10" d="M 272.140625 36.246094 C 272.140625 37.578125 270.140625 37.578125 270.140625 36.246094 C 270.140625 34.910156 272.140625 34.910156 272.140625 36.246094 "/>
<path fill-rule="nonzero" fill="rgb(100%, 0%, 0%)" fill-opacity="1" stroke-width="0.01" stroke-linecap="butt" stroke-linejoin="miter" stroke="rgb(0%, 0%, 0%)" stroke-opacity="1" stroke-miterlimit="10" d="M 417.871094 67.191406 C 417.871094 68.527344 415.871094 68.527344 415.871094 67.191406 C 415.871094 65.859375 417.871094 65.859375 417.871094 67.191406 "/>
<path fill-rule="nonzero" fill="rgb(100%, 0%, 0%)" fill-opacity="1" stroke-width="0.01" stroke-linecap="butt" stroke-linejoin="miter" stroke="rgb(0%, 0%, 0%)" stroke-opacity="1" stroke-miterlimit="10" d="M 420.769531 94.789062 C 420.769531 96.121094 418.769531 96.121094 418.769531 94.789062 C 418.769531 93.453125 420.769531 93.453125 420.769531 94.789062 "/>
<path fill-rule="nonzero" fill="rgb(100%, 0%, 0%)" fill-opacity="1" stroke-width="0.01" stroke-linecap="butt" stroke-linejoin="miter" stroke="rgb(0%, 0%, 0%)" stroke-opacity="1" stroke-miterlimit="10" d="M 415.257812 39.585938 C 415.257812 40.917969 413.257812 40.917969 413.257812 39.585938 C 413.257812 38.253906 415.257812 38.253906 415.257812 39.585938 "/>
</svg>
