<?xml version="1.0" encoding="UTF-8"?>
<svg xmlns="http://www.w3.org/2000/svg" xmlns:xlink="http://www.w3.org/1999/xlink" width="600pt" height="600pt" viewBox="0 0 600 600" version="1.1">
<g id="surface416">
<rect x="0" y="0" width="600" height="600" style="fill:rgb(100%,100%,100%);fill-opacity:1;stroke:none;"/>
<path style="fill:none;stroke-width:0.2;stroke-linecap:butt;stroke-linejoin:miter;stroke:rgb(26.666667%,26.666667%,26.666667%);stroke-opacity:1;stroke-miterlimit:10;" d="M 263.527344 97.761719 L 286.011719 95.992188 "/>
<path style=" stroke:none;fill-rule:nonzero;fill:rgb(26.666667%,26.666667%,26.666667%);fill-opacity:1;" d="M 286.152344 95.980469 L 286.015625 96.035156 L 286.007813 95.945313 L 286.152344 95.980469 "/>
<path style="fill:none;stroke-width:0.2;stroke-linecap:butt;stroke-linejoin:miter;stroke:rgb(26.666667%,26.666667%,26.666667%);stroke-opacity:1;stroke-miterlimit:10;" d="M 44.21875 443.816406 L 21.078125 451.917969 "/>
<path style=" stroke:none;fill-rule:nonzero;fill:rgb(26.666667%,26.666667%,26.666667%);fill-opacity:1;" d="M 20.945313 451.964844 L 21.0625 451.875 L 21.09375 451.964844 L 20.945313 451.964844 "/>
<path style="fill:none;stroke-width:0.2;stroke-linecap:butt;stroke-linejoin:miter;stroke:rgb(26.666667%,26.666667%,26.666667%);stroke-opacity:1;stroke-miterlimit:10;" d="M 44.21875 443.816406 L 47.988281 419.617188 "/>
<path style=" stroke:none;fill-rule:nonzero;fill:rgb(26.666667%,26.666667%,26.666667%);fill-opacity:1;" d="M 48.011719 419.476563 L 48.035156 419.625 L 47.945313 419.609375 L 48.011719 419.476563 "/>
<path style="fill:none;stroke-width:0.2;stroke-linecap:butt;stroke-linejoin:miter;stroke:rgb(26.666667%,26.666667%,26.666667%);stroke-opacity:1;stroke-miterlimit:10;" d="M 44.21875 443.816406 L 62.671875 460.117188 "/>
<path style=" stroke:none;fill-rule:nonzero;fill:rgb(26.666667%,26.666667%,26.666667%);fill-opacity:1;" d="M 62.777344 460.210938 L 62.640625 460.152344 L 62.699219 460.082031 L 62.777344 460.210938 "/>
<path style="fill:none;stroke-width:0.2;stroke-linecap:butt;stroke-linejoin:miter;stroke:rgb(26.666667%,26.666667%,26.666667%);stroke-opacity:1;stroke-miterlimit:10;" d="M 444.652344 446.769531 L 469.265625 449.8125 "/>
<path style=" stroke:none;fill-rule:nonzero;fill:rgb(26.666667%,26.666667%,26.666667%);fill-opacity:1;" d="M 469.410156 449.832031 L 469.261719 449.859375 L 469.273438 449.769531 L 469.410156 449.832031 "/>
<path style="fill:none;stroke-width:0.2;stroke-linecap:butt;stroke-linejoin:miter;stroke:rgb(26.666667%,26.666667%,26.666667%);stroke-opacity:1;stroke-miterlimit:10;" d="M 444.652344 446.769531 L 435.59375 424.230469 "/>
<path style=" stroke:none;fill-rule:nonzero;fill:rgb(26.666667%,26.666667%,26.666667%);fill-opacity:1;" d="M 435.539063 424.097656 L 435.636719 424.214844 L 435.550781 424.25 L 435.539063 424.097656 "/>
<path style="fill:none;stroke-width:0.2;stroke-linecap:butt;stroke-linejoin:miter;stroke:rgb(26.666667%,26.666667%,26.666667%);stroke-opacity:1;stroke-miterlimit:10;" d="M 444.652344 446.769531 L 428.132813 464.980469 "/>
<path style=" stroke:none;fill-rule:nonzero;fill:rgb(26.666667%,26.666667%,26.666667%);fill-opacity:1;" d="M 428.035156 465.085938 L 428.097656 464.949219 L 428.167969 465.011719 L 428.035156 465.085938 "/>
<path style="fill:none;stroke-width:0.2;stroke-linecap:butt;stroke-linejoin:miter;stroke:rgb(26.666667%,26.666667%,26.666667%);stroke-opacity:1;stroke-miterlimit:10;" d="M 171.449219 514.097656 L 175.757813 536.441406 "/>
<path style=" stroke:none;fill-rule:nonzero;fill:rgb(26.666667%,26.666667%,26.666667%);fill-opacity:1;" d="M 175.785156 536.582031 L 175.714844 536.449219 L 175.804688 536.433594 L 175.785156 536.582031 "/>
<path style="fill:none;stroke-width:0.2;stroke-linecap:butt;stroke-linejoin:miter;stroke:rgb(26.666667%,26.666667%,26.666667%);stroke-opacity:1;stroke-miterlimit:10;" d="M 171.449219 514.097656 L 167.777344 491.628906 "/>
<path style=" stroke:none;fill-rule:nonzero;fill:rgb(26.666667%,26.666667%,26.666667%);fill-opacity:1;" d="M 167.753906 491.488281 L 167.824219 491.621094 L 167.730469 491.636719 L 167.753906 491.488281 "/>
<path style="fill:none;stroke-width:0.2;stroke-linecap:butt;stroke-linejoin:miter;stroke:rgb(26.666667%,26.666667%,26.666667%);stroke-opacity:1;stroke-miterlimit:10;" d="M 526.238281 305.535156 L 518.160156 282.464844 "/>
<path style=" stroke:none;fill-rule:nonzero;fill:rgb(26.666667%,26.666667%,26.666667%);fill-opacity:1;" d="M 518.113281 282.332031 L 518.207031 282.449219 L 518.117188 282.480469 L 518.113281 282.332031 "/>
<path style="fill:none;stroke-width:0.2;stroke-linecap:butt;stroke-linejoin:miter;stroke:rgb(26.666667%,26.666667%,26.666667%);stroke-opacity:1;stroke-miterlimit:10;" d="M 526.238281 305.535156 L 509.546875 323.40625 "/>
<path style=" stroke:none;fill-rule:nonzero;fill:rgb(26.666667%,26.666667%,26.666667%);fill-opacity:1;" d="M 509.449219 323.511719 L 509.511719 323.375 L 509.582031 323.4375 L 509.449219 323.511719 "/>
<path style="fill:none;stroke-width:0.2;stroke-linecap:butt;stroke-linejoin:miter;stroke:rgb(26.666667%,26.666667%,26.666667%);stroke-opacity:1;stroke-miterlimit:10;" d="M 526.238281 305.535156 L 550.3125 310.953125 "/>
<path style=" stroke:none;fill-rule:nonzero;fill:rgb(26.666667%,26.666667%,26.666667%);fill-opacity:1;" d="M 550.449219 310.984375 L 550.300781 311 L 550.320313 310.910156 L 550.449219 310.984375 "/>
<path style="fill:none;stroke-width:0.2;stroke-linecap:butt;stroke-linejoin:miter;stroke:rgb(26.666667%,26.666667%,26.666667%);stroke-opacity:1;stroke-miterlimit:10;" d="M 310.839844 94.429688 L 288.289063 95.832031 "/>
<path style=" stroke:none;fill-rule:nonzero;fill:rgb(26.666667%,26.666667%,26.666667%);fill-opacity:1;" d="M 288.148438 95.839844 L 288.285156 95.785156 L 288.292969 95.875 L 288.148438 95.839844 "/>
<path style="fill:none;stroke-width:0.2;stroke-linecap:butt;stroke-linejoin:miter;stroke:rgb(26.666667%,26.666667%,26.666667%);stroke-opacity:1;stroke-miterlimit:10;" d="M 463.617188 565.308594 L 441.746094 572.421875 "/>
<path style=" stroke:none;fill-rule:nonzero;fill:rgb(26.666667%,26.666667%,26.666667%);fill-opacity:1;" d="M 441.609375 572.46875 L 441.734375 572.378906 L 441.761719 572.46875 L 441.609375 572.46875 "/>
<path style="fill:none;stroke-width:0.2;stroke-linecap:butt;stroke-linejoin:miter;stroke:rgb(26.666667%,26.666667%,26.666667%);stroke-opacity:1;stroke-miterlimit:10;" d="M 417.644531 580 L 439.570313 573.117188 "/>
<path style=" stroke:none;fill-rule:nonzero;fill:rgb(26.666667%,26.666667%,26.666667%);fill-opacity:1;" d="M 439.707031 573.074219 L 439.582031 573.164063 L 439.554688 573.074219 L 439.707031 573.074219 "/>
<path style="fill:none;stroke-width:0.2;stroke-linecap:butt;stroke-linejoin:miter;stroke:rgb(26.666667%,26.666667%,26.666667%);stroke-opacity:1;stroke-miterlimit:10;" d="M 561.066406 168.289063 L 542.636719 181.195313 "/>
<path style=" stroke:none;fill-rule:nonzero;fill:rgb(26.666667%,26.666667%,26.666667%);fill-opacity:1;" d="M 542.519531 181.277344 L 542.609375 181.15625 L 542.664063 181.234375 L 542.519531 181.277344 "/>
<path style="fill:none;stroke-width:0.2;stroke-linecap:butt;stroke-linejoin:miter;stroke:rgb(26.666667%,26.666667%,26.666667%);stroke-opacity:1;stroke-miterlimit:10;" d="M 561.066406 168.289063 L 579.085938 154.785156 "/>
<path style=" stroke:none;fill-rule:nonzero;fill:rgb(26.666667%,26.666667%,26.666667%);fill-opacity:1;" d="M 579.199219 154.699219 L 579.113281 154.820313 L 579.058594 154.746094 L 579.199219 154.699219 "/>
<path style="fill:none;stroke-width:0.2;stroke-linecap:butt;stroke-linejoin:miter;stroke:rgb(26.666667%,26.666667%,26.666667%);stroke-opacity:1;stroke-miterlimit:10;" d="M 137.171875 281.316406 L 114.21875 258.941406 "/>
<path style=" stroke:none;fill-rule:nonzero;fill:rgb(26.666667%,26.666667%,26.666667%);fill-opacity:1;" d="M 114.113281 258.839844 L 114.25 258.90625 L 114.183594 258.972656 L 114.113281 258.839844 "/>
<path style="fill:none;stroke-width:0.2;stroke-linecap:butt;stroke-linejoin:miter;stroke:rgb(26.666667%,26.666667%,26.666667%);stroke-opacity:1;stroke-miterlimit:10;" d="M 137.171875 281.316406 L 120.558594 307.871094 "/>
<path style=" stroke:none;fill-rule:nonzero;fill:rgb(26.666667%,26.666667%,26.666667%);fill-opacity:1;" d="M 120.480469 307.992188 L 120.515625 307.847656 L 120.597656 307.894531 L 120.480469 307.992188 "/>
<path style="fill:none;stroke-width:0.2;stroke-linecap:butt;stroke-linejoin:miter;stroke:rgb(26.666667%,26.666667%,26.666667%);stroke-opacity:1;stroke-miterlimit:10;" d="M 137.171875 281.316406 L 167.386719 291.625 "/>
<path style=" stroke:none;fill-rule:nonzero;fill:rgb(26.666667%,26.666667%,26.666667%);fill-opacity:1;" d="M 167.523438 291.671875 L 167.371094 291.667969 L 167.402344 291.582031 L 167.523438 291.671875 "/>
<path style="fill:none;stroke-width:0.2;stroke-linecap:butt;stroke-linejoin:miter;stroke:rgb(26.666667%,26.666667%,26.666667%);stroke-opacity:1;stroke-miterlimit:10;" d="M 137.171875 281.316406 L 105.273438 284.933594 "/>
<path style=" stroke:none;fill-rule:nonzero;fill:rgb(26.666667%,26.666667%,26.666667%);fill-opacity:1;" d="M 105.132813 284.949219 L 105.269531 284.886719 L 105.277344 284.980469 L 105.132813 284.949219 "/>
<path style="fill:none;stroke-width:0.2;stroke-linecap:butt;stroke-linejoin:miter;stroke:rgb(26.666667%,26.666667%,26.666667%);stroke-opacity:1;stroke-miterlimit:10;" d="M 137.171875 281.316406 L 148.054688 311.261719 "/>
<path style=" stroke:none;fill-rule:nonzero;fill:rgb(26.666667%,26.666667%,26.666667%);fill-opacity:1;" d="M 148.101563 311.394531 L 148.007813 311.277344 L 148.097656 311.246094 L 148.101563 311.394531 "/>
<path style="fill:none;stroke-width:0.2;stroke-linecap:butt;stroke-linejoin:miter;stroke:rgb(26.666667%,26.666667%,26.666667%);stroke-opacity:1;stroke-miterlimit:10;" d="M 137.171875 281.316406 L 164.238281 264.34375 "/>
<path style=" stroke:none;fill-rule:nonzero;fill:rgb(26.666667%,26.666667%,26.666667%);fill-opacity:1;" d="M 164.359375 264.265625 L 164.261719 264.382813 L 164.210938 264.300781 L 164.359375 264.265625 "/>
<path style="fill:none;stroke-width:0.2;stroke-linecap:butt;stroke-linejoin:miter;stroke:rgb(26.666667%,26.666667%,26.666667%);stroke-opacity:1;stroke-miterlimit:10;" d="M 137.171875 281.316406 L 140.480469 250.238281 "/>
<path style=" stroke:none;fill-rule:nonzero;fill:rgb(26.666667%,26.666667%,26.666667%);fill-opacity:1;" d="M 140.496094 250.097656 L 140.527344 250.246094 L 140.4375 250.234375 L 140.496094 250.097656 "/>
<path style="fill:none;stroke-width:0.2;stroke-linecap:butt;stroke-linejoin:miter;stroke:rgb(26.666667%,26.666667%,26.666667%);stroke-opacity:1;stroke-miterlimit:10;" d="M 403.074219 32.292969 L 383.386719 20.585938 "/>
<path style=" stroke:none;fill-rule:nonzero;fill:rgb(26.666667%,26.666667%,26.666667%);fill-opacity:1;" d="M 383.261719 20.511719 L 383.410156 20.542969 L 383.363281 20.625 L 383.261719 20.511719 "/>
<path style="fill:none;stroke-width:0.2;stroke-linecap:butt;stroke-linejoin:miter;stroke:rgb(26.666667%,26.666667%,26.666667%);stroke-opacity:1;stroke-miterlimit:10;" d="M 403.074219 32.292969 L 422.730469 44.023438 "/>
<path style=" stroke:none;fill-rule:nonzero;fill:rgb(26.666667%,26.666667%,26.666667%);fill-opacity:1;" d="M 422.855469 44.097656 L 422.707031 44.0625 L 422.753906 43.984375 L 422.855469 44.097656 "/>
<path style="fill:none;stroke-width:0.2;stroke-linecap:butt;stroke-linejoin:miter;stroke:rgb(26.666667%,26.666667%,26.666667%);stroke-opacity:1;stroke-miterlimit:10;" d="M 275.378906 486.957031 L 263.917969 467.242188 "/>
<path style=" stroke:none;fill-rule:nonzero;fill:rgb(26.666667%,26.666667%,26.666667%);fill-opacity:1;" d="M 263.84375 467.121094 L 263.957031 467.21875 L 263.875 467.265625 L 263.84375 467.121094 "/>
<path style="fill:none;stroke-width:0.2;stroke-linecap:butt;stroke-linejoin:miter;stroke:rgb(26.666667%,26.666667%,26.666667%);stroke-opacity:1;stroke-miterlimit:10;" d="M 275.378906 486.957031 L 286.214844 506.96875 "/>
<path style=" stroke:none;fill-rule:nonzero;fill:rgb(26.666667%,26.666667%,26.666667%);fill-opacity:1;" d="M 286.28125 507.09375 L 286.171875 506.988281 L 286.253906 506.945313 L 286.28125 507.09375 "/>
<path style="fill:none;stroke-width:0.2;stroke-linecap:butt;stroke-linejoin:miter;stroke:rgb(26.666667%,26.666667%,26.666667%);stroke-opacity:1;stroke-miterlimit:10;" d="M 372.058594 223.507813 L 343.953125 229.226563 "/>
<path style=" stroke:none;fill-rule:nonzero;fill:rgb(26.666667%,26.666667%,26.666667%);fill-opacity:1;" d="M 343.8125 229.253906 L 343.941406 229.179688 L 343.960938 229.273438 L 343.8125 229.253906 "/>
<path style="fill:none;stroke-width:0.2;stroke-linecap:butt;stroke-linejoin:miter;stroke:rgb(26.666667%,26.666667%,26.666667%);stroke-opacity:1;stroke-miterlimit:10;" d="M 372.058594 223.507813 L 398 235.074219 "/>
<path style=" stroke:none;fill-rule:nonzero;fill:rgb(26.666667%,26.666667%,26.666667%);fill-opacity:1;" d="M 398.132813 235.132813 L 397.980469 235.117188 L 398.019531 235.03125 L 398.132813 235.132813 "/>
<path style="fill:none;stroke-width:0.2;stroke-linecap:butt;stroke-linejoin:miter;stroke:rgb(26.666667%,26.666667%,26.666667%);stroke-opacity:1;stroke-miterlimit:10;" d="M 372.058594 223.507813 L 357.992188 199.332031 "/>
<path style=" stroke:none;fill-rule:nonzero;fill:rgb(26.666667%,26.666667%,26.666667%);fill-opacity:1;" d="M 357.921875 199.210938 L 358.035156 199.308594 L 357.953125 199.355469 L 357.921875 199.210938 "/>
<path style="fill:none;stroke-width:0.2;stroke-linecap:butt;stroke-linejoin:miter;stroke:rgb(26.666667%,26.666667%,26.666667%);stroke-opacity:1;stroke-miterlimit:10;" d="M 372.058594 223.507813 L 391.351563 202.6875 "/>
<path style=" stroke:none;fill-rule:nonzero;fill:rgb(26.666667%,26.666667%,26.666667%);fill-opacity:1;" d="M 391.449219 202.582031 L 391.386719 202.71875 L 391.320313 202.65625 L 391.449219 202.582031 "/>
<path style="fill:none;stroke-width:0.2;stroke-linecap:butt;stroke-linejoin:miter;stroke:rgb(26.666667%,26.666667%,26.666667%);stroke-opacity:1;stroke-miterlimit:10;" d="M 372.058594 223.507813 L 369.019531 251.265625 "/>
<path style=" stroke:none;fill-rule:nonzero;fill:rgb(26.666667%,26.666667%,26.666667%);fill-opacity:1;" d="M 369.003906 251.40625 L 368.972656 251.257813 L 369.066406 251.269531 L 369.003906 251.40625 "/>
<path style="fill:none;stroke-width:0.2;stroke-linecap:butt;stroke-linejoin:miter;stroke:rgb(26.666667%,26.666667%,26.666667%);stroke-opacity:1;stroke-miterlimit:10;" d="M 316.960938 364.960938 L 320.097656 388.996094 "/>
<path style=" stroke:none;fill-rule:nonzero;fill:rgb(26.666667%,26.666667%,26.666667%);fill-opacity:1;" d="M 320.117188 389.136719 L 320.054688 389 L 320.144531 388.988281 L 320.117188 389.136719 "/>
<path style="fill:none;stroke-width:0.2;stroke-linecap:butt;stroke-linejoin:miter;stroke:rgb(26.666667%,26.666667%,26.666667%);stroke-opacity:1;stroke-miterlimit:10;" d="M 316.960938 364.960938 L 294.425781 354.894531 "/>
<path style=" stroke:none;fill-rule:nonzero;fill:rgb(26.666667%,26.666667%,26.666667%);fill-opacity:1;" d="M 294.296875 354.835938 L 294.445313 354.851563 L 294.40625 354.9375 L 294.296875 354.835938 "/>
<path style="fill:none;stroke-width:0.2;stroke-linecap:butt;stroke-linejoin:miter;stroke:rgb(26.666667%,26.666667%,26.666667%);stroke-opacity:1;stroke-miterlimit:10;" d="M 316.960938 364.960938 L 337.640625 351.90625 "/>
<path style=" stroke:none;fill-rule:nonzero;fill:rgb(26.666667%,26.666667%,26.666667%);fill-opacity:1;" d="M 337.761719 351.832031 L 337.667969 351.945313 L 337.617188 351.867188 L 337.761719 351.832031 "/>
<path style="fill:none;stroke-width:0.2;stroke-linecap:butt;stroke-linejoin:miter;stroke:rgb(26.666667%,26.666667%,26.666667%);stroke-opacity:1;stroke-miterlimit:10;" d="M 150.820313 111.238281 L 164.832031 128.964844 "/>
<path style=" stroke:none;fill-rule:nonzero;fill:rgb(26.666667%,26.666667%,26.666667%);fill-opacity:1;" d="M 164.921875 129.078125 L 164.796875 128.996094 L 164.871094 128.9375 L 164.921875 129.078125 "/>
<path style="fill:none;stroke-width:0.2;stroke-linecap:butt;stroke-linejoin:miter;stroke:rgb(26.666667%,26.666667%,26.666667%);stroke-opacity:1;stroke-miterlimit:10;" d="M 150.820313 111.238281 L 137.09375 93.328125 "/>
<path style=" stroke:none;fill-rule:nonzero;fill:rgb(26.666667%,26.666667%,26.666667%);fill-opacity:1;" d="M 137.007813 93.214844 L 137.128906 93.300781 L 137.054688 93.359375 L 137.007813 93.214844 "/>
<path style="fill-rule:nonzero;fill:rgb(100%,0%,0%);fill-opacity:1;stroke-width:0.01;stroke-linecap:butt;stroke-linejoin:miter;stroke:rgb(0%,0%,0%);stroke-opacity:1;stroke-miterlimit:10;" d="M 264.527344 97.761719 C 264.527344 99.09375 262.527344 99.09375 262.527344 97.761719 C 262.527344 96.425781 264.527344 96.425781 264.527344 97.761719 "/>
<path style="fill-rule:nonzero;fill:rgb(100%,0%,0%);fill-opacity:1;stroke-width:0.01;stroke-linecap:butt;stroke-linejoin:miter;stroke:rgb(0%,0%,0%);stroke-opacity:1;stroke-miterlimit:10;" d="M 288.148438 95.902344 C 288.148438 97.234375 286.148438 97.234375 286.148438 95.902344 C 286.148438 94.566406 288.148438 94.566406 288.148438 95.902344 "/>
<path style="fill-rule:nonzero;fill:rgb(100%,0%,0%);fill-opacity:1;stroke-width:0.01;stroke-linecap:butt;stroke-linejoin:miter;stroke:rgb(0%,0%,0%);stroke-opacity:1;stroke-miterlimit:10;" d="M 45.21875 443.816406 C 45.21875 445.152344 43.21875 445.152344 43.21875 443.816406 C 43.21875 442.484375 45.21875 442.484375 45.21875 443.816406 "/>
<path style="fill-rule:nonzero;fill:rgb(100%,0%,0%);fill-opacity:1;stroke-width:0.01;stroke-linecap:butt;stroke-linejoin:miter;stroke:rgb(0%,0%,0%);stroke-opacity:1;stroke-miterlimit:10;" d="M 21 452.296875 C 21 453.628906 19 453.628906 19 452.296875 C 19 450.964844 21 450.964844 21 452.296875 "/>
<path style="fill-rule:nonzero;fill:rgb(100%,0%,0%);fill-opacity:1;stroke-width:0.01;stroke-linecap:butt;stroke-linejoin:miter;stroke:rgb(0%,0%,0%);stroke-opacity:1;stroke-miterlimit:10;" d="M 49.164063 418.488281 C 49.164063 419.820313 47.164063 419.820313 47.164063 418.488281 C 47.164063 417.15625 49.164063 417.15625 49.164063 418.488281 "/>
<path style="fill-rule:nonzero;fill:rgb(100%,0%,0%);fill-opacity:1;stroke-width:0.01;stroke-linecap:butt;stroke-linejoin:miter;stroke:rgb(0%,0%,0%);stroke-opacity:1;stroke-miterlimit:10;" d="M 64.527344 460.871094 C 64.527344 462.207031 62.527344 462.207031 62.527344 460.871094 C 62.527344 459.539063 64.527344 459.539063 64.527344 460.871094 "/>
<path style="fill-rule:nonzero;fill:rgb(100%,0%,0%);fill-opacity:1;stroke-width:0.01;stroke-linecap:butt;stroke-linejoin:miter;stroke:rgb(0%,0%,0%);stroke-opacity:1;stroke-miterlimit:10;" d="M 445.652344 446.769531 C 445.652344 448.101563 443.652344 448.101563 443.652344 446.769531 C 443.652344 445.433594 445.652344 445.433594 445.652344 446.769531 "/>
<path style="fill-rule:nonzero;fill:rgb(100%,0%,0%);fill-opacity:1;stroke-width:0.01;stroke-linecap:butt;stroke-linejoin:miter;stroke:rgb(0%,0%,0%);stroke-opacity:1;stroke-miterlimit:10;" d="M 471.402344 449.953125 C 471.402344 451.289063 469.402344 451.289063 469.402344 449.953125 C 469.402344 448.621094 471.402344 448.621094 471.402344 449.953125 "/>
<path style="fill-rule:nonzero;fill:rgb(100%,0%,0%);fill-opacity:1;stroke-width:0.01;stroke-linecap:butt;stroke-linejoin:miter;stroke:rgb(0%,0%,0%);stroke-opacity:1;stroke-miterlimit:10;" d="M 436.167969 423.171875 C 436.167969 424.503906 434.167969 424.503906 434.167969 423.171875 C 434.167969 421.839844 436.167969 421.839844 436.167969 423.171875 "/>
<path style="fill-rule:nonzero;fill:rgb(100%,0%,0%);fill-opacity:1;stroke-width:0.01;stroke-linecap:butt;stroke-linejoin:miter;stroke:rgb(0%,0%,0%);stroke-opacity:1;stroke-miterlimit:10;" d="M 428.363281 465.824219 C 428.363281 467.160156 426.363281 467.160156 426.363281 465.824219 C 426.363281 464.492188 428.363281 464.492188 428.363281 465.824219 "/>
<path style="fill-rule:nonzero;fill:rgb(100%,0%,0%);fill-opacity:1;stroke-width:0.01;stroke-linecap:butt;stroke-linejoin:miter;stroke:rgb(0%,0%,0%);stroke-opacity:1;stroke-miterlimit:10;" d="M 172.449219 514.097656 C 172.449219 515.433594 170.449219 515.433594 170.449219 514.097656 C 170.449219 512.765625 172.449219 512.765625 172.449219 514.097656 "/>
<path style="fill-rule:nonzero;fill:rgb(100%,0%,0%);fill-opacity:1;stroke-width:0.01;stroke-linecap:butt;stroke-linejoin:miter;stroke:rgb(0%,0%,0%);stroke-opacity:1;stroke-miterlimit:10;" d="M 176.976563 537.5625 C 176.976563 538.898438 174.976563 538.898438 174.976563 537.5625 C 174.976563 536.230469 176.976563 536.230469 176.976563 537.5625 "/>
<path style="fill-rule:nonzero;fill:rgb(100%,0%,0%);fill-opacity:1;stroke-width:0.01;stroke-linecap:butt;stroke-linejoin:miter;stroke:rgb(0%,0%,0%);stroke-opacity:1;stroke-miterlimit:10;" d="M 168.59375 490.5 C 168.59375 491.835938 166.59375 491.835938 166.59375 490.5 C 166.59375 489.167969 168.59375 489.167969 168.59375 490.5 "/>
<path style="fill-rule:nonzero;fill:rgb(100%,0%,0%);fill-opacity:1;stroke-width:0.01;stroke-linecap:butt;stroke-linejoin:miter;stroke:rgb(0%,0%,0%);stroke-opacity:1;stroke-miterlimit:10;" d="M 527.238281 305.535156 C 527.238281 306.871094 525.238281 306.871094 525.238281 305.535156 C 525.238281 304.203125 527.238281 304.203125 527.238281 305.535156 "/>
<path style="fill-rule:nonzero;fill:rgb(100%,0%,0%);fill-opacity:1;stroke-width:0.01;stroke-linecap:butt;stroke-linejoin:miter;stroke:rgb(0%,0%,0%);stroke-opacity:1;stroke-miterlimit:10;" d="M 518.785156 281.386719 C 518.785156 282.71875 516.785156 282.71875 516.785156 281.386719 C 516.785156 280.054688 518.785156 280.054688 518.785156 281.386719 "/>
<path style="fill-rule:nonzero;fill:rgb(100%,0%,0%);fill-opacity:1;stroke-width:0.01;stroke-linecap:butt;stroke-linejoin:miter;stroke:rgb(0%,0%,0%);stroke-opacity:1;stroke-miterlimit:10;" d="M 509.765625 324.242188 C 509.765625 325.574219 507.765625 325.574219 507.765625 324.242188 C 507.765625 322.910156 509.765625 322.910156 509.765625 324.242188 "/>
<path style="fill-rule:nonzero;fill:rgb(100%,0%,0%);fill-opacity:1;stroke-width:0.01;stroke-linecap:butt;stroke-linejoin:miter;stroke:rgb(0%,0%,0%);stroke-opacity:1;stroke-miterlimit:10;" d="M 552.425781 311.207031 C 552.425781 312.539063 550.425781 312.539063 550.425781 311.207031 C 550.425781 309.871094 552.425781 309.871094 552.425781 311.207031 "/>
<path style="fill-rule:nonzero;fill:rgb(100%,0%,0%);fill-opacity:1;stroke-width:0.01;stroke-linecap:butt;stroke-linejoin:miter;stroke:rgb(0%,0%,0%);stroke-opacity:1;stroke-miterlimit:10;" d="M 311.839844 94.429688 C 311.839844 95.761719 309.839844 95.761719 309.839844 94.429688 C 309.839844 93.09375 311.839844 93.09375 311.839844 94.429688 "/>
<path style="fill-rule:nonzero;fill:rgb(100%,0%,0%);fill-opacity:1;stroke-width:0.01;stroke-linecap:butt;stroke-linejoin:miter;stroke:rgb(0%,0%,0%);stroke-opacity:1;stroke-miterlimit:10;" d="M 464.617188 565.308594 C 464.617188 566.644531 462.617188 566.644531 462.617188 565.308594 C 462.617188 563.976563 464.617188 563.976563 464.617188 565.308594 "/>
<path style="fill-rule:nonzero;fill:rgb(100%,0%,0%);fill-opacity:1;stroke-width:0.01;stroke-linecap:butt;stroke-linejoin:miter;stroke:rgb(0%,0%,0%);stroke-opacity:1;stroke-miterlimit:10;" d="M 441.660156 572.777344 C 441.660156 574.109375 439.660156 574.109375 439.660156 572.777344 C 439.660156 571.441406 441.660156 571.441406 441.660156 572.777344 "/>
<path style="fill-rule:nonzero;fill:rgb(100%,0%,0%);fill-opacity:1;stroke-width:0.01;stroke-linecap:butt;stroke-linejoin:miter;stroke:rgb(0%,0%,0%);stroke-opacity:1;stroke-miterlimit:10;" d="M 418.644531 580 C 418.644531 581.332031 416.644531 581.332031 416.644531 580 C 416.644531 578.667969 418.644531 578.667969 418.644531 580 "/>
<path style="fill-rule:nonzero;fill:rgb(100%,0%,0%);fill-opacity:1;stroke-width:0.01;stroke-linecap:butt;stroke-linejoin:miter;stroke:rgb(0%,0%,0%);stroke-opacity:1;stroke-miterlimit:10;" d="M 562.066406 168.289063 C 562.066406 169.621094 560.066406 169.621094 560.066406 168.289063 C 560.066406 166.957031 562.066406 166.957031 562.066406 168.289063 "/>
<path style="fill-rule:nonzero;fill:rgb(100%,0%,0%);fill-opacity:1;stroke-width:0.01;stroke-linecap:butt;stroke-linejoin:miter;stroke:rgb(0%,0%,0%);stroke-opacity:1;stroke-miterlimit:10;" d="M 542.699219 181.851563 C 542.699219 183.183594 540.699219 183.183594 540.699219 181.851563 C 540.699219 180.515625 542.699219 180.515625 542.699219 181.851563 "/>
<path style="fill-rule:nonzero;fill:rgb(100%,0%,0%);fill-opacity:1;stroke-width:0.01;stroke-linecap:butt;stroke-linejoin:miter;stroke:rgb(0%,0%,0%);stroke-opacity:1;stroke-miterlimit:10;" d="M 581 154.097656 C 581 155.433594 579 155.433594 579 154.097656 C 579 152.765625 581 152.765625 581 154.097656 "/>
<path style="fill-rule:nonzero;fill:rgb(100%,0%,0%);fill-opacity:1;stroke-width:0.01;stroke-linecap:butt;stroke-linejoin:miter;stroke:rgb(0%,0%,0%);stroke-opacity:1;stroke-miterlimit:10;" d="M 138.171875 281.316406 C 138.171875 282.652344 136.171875 282.652344 136.171875 281.316406 C 136.171875 279.984375 138.171875 279.984375 138.171875 281.316406 "/>
<path style="fill-rule:nonzero;fill:rgb(100%,0%,0%);fill-opacity:1;stroke-width:0.01;stroke-linecap:butt;stroke-linejoin:miter;stroke:rgb(0%,0%,0%);stroke-opacity:1;stroke-miterlimit:10;" d="M 114.398438 258.144531 C 114.398438 259.476563 112.398438 259.476563 112.398438 258.144531 C 112.398438 256.808594 114.398438 256.808594 114.398438 258.144531 "/>
<path style="fill-rule:nonzero;fill:rgb(100%,0%,0%);fill-opacity:1;stroke-width:0.01;stroke-linecap:butt;stroke-linejoin:miter;stroke:rgb(0%,0%,0%);stroke-opacity:1;stroke-miterlimit:10;" d="M 120.949219 308.839844 C 120.949219 310.171875 118.949219 310.171875 118.949219 308.839844 C 118.949219 307.503906 120.949219 307.503906 120.949219 308.839844 "/>
<path style="fill-rule:nonzero;fill:rgb(100%,0%,0%);fill-opacity:1;stroke-width:0.01;stroke-linecap:butt;stroke-linejoin:miter;stroke:rgb(0%,0%,0%);stroke-opacity:1;stroke-miterlimit:10;" d="M 169.46875 291.992188 C 169.46875 293.328125 167.46875 293.328125 167.46875 291.992188 C 167.46875 290.660156 169.46875 290.660156 169.46875 291.992188 "/>
<path style="fill-rule:nonzero;fill:rgb(100%,0%,0%);fill-opacity:1;stroke-width:0.01;stroke-linecap:butt;stroke-linejoin:miter;stroke:rgb(0%,0%,0%);stroke-opacity:1;stroke-miterlimit:10;" d="M 105.136719 285.0625 C 105.136719 286.394531 103.136719 286.394531 103.136719 285.0625 C 103.136719 283.730469 105.136719 283.730469 105.136719 285.0625 "/>
<path style="fill-rule:nonzero;fill:rgb(100%,0%,0%);fill-opacity:1;stroke-width:0.01;stroke-linecap:butt;stroke-linejoin:miter;stroke:rgb(0%,0%,0%);stroke-opacity:1;stroke-miterlimit:10;" d="M 149.445313 312.335938 C 149.445313 313.667969 147.445313 313.667969 147.445313 312.335938 C 147.445313 311.003906 149.445313 311.003906 149.445313 312.335938 "/>
<path style="fill-rule:nonzero;fill:rgb(100%,0%,0%);fill-opacity:1;stroke-width:0.01;stroke-linecap:butt;stroke-linejoin:miter;stroke:rgb(0%,0%,0%);stroke-opacity:1;stroke-miterlimit:10;" d="M 166.203125 263.734375 C 166.203125 265.066406 164.203125 265.066406 164.203125 263.734375 C 164.203125 262.402344 166.203125 262.402344 166.203125 263.734375 "/>
<path style="fill-rule:nonzero;fill:rgb(100%,0%,0%);fill-opacity:1;stroke-width:0.01;stroke-linecap:butt;stroke-linejoin:miter;stroke:rgb(0%,0%,0%);stroke-opacity:1;stroke-miterlimit:10;" d="M 141.601563 249.101563 C 141.601563 250.4375 139.601563 250.4375 139.601563 249.101563 C 139.601563 247.769531 141.601563 247.769531 141.601563 249.101563 "/>
<path style="fill-rule:nonzero;fill:rgb(100%,0%,0%);fill-opacity:1;stroke-width:0.01;stroke-linecap:butt;stroke-linejoin:miter;stroke:rgb(0%,0%,0%);stroke-opacity:1;stroke-miterlimit:10;" d="M 404.074219 32.292969 C 404.074219 33.628906 402.074219 33.628906 402.074219 32.292969 C 402.074219 30.960938 404.074219 30.960938 404.074219 32.292969 "/>
<path style="fill-rule:nonzero;fill:rgb(100%,0%,0%);fill-opacity:1;stroke-width:0.01;stroke-linecap:butt;stroke-linejoin:miter;stroke:rgb(0%,0%,0%);stroke-opacity:1;stroke-miterlimit:10;" d="M 383.402344 20 C 383.402344 21.332031 381.402344 21.332031 381.402344 20 C 381.402344 18.667969 383.402344 18.667969 383.402344 20 "/>
<path style="fill-rule:nonzero;fill:rgb(100%,0%,0%);fill-opacity:1;stroke-width:0.01;stroke-linecap:butt;stroke-linejoin:miter;stroke:rgb(0%,0%,0%);stroke-opacity:1;stroke-miterlimit:10;" d="M 424.710938 44.609375 C 424.710938 45.941406 422.710938 45.941406 422.710938 44.609375 C 422.710938 43.273438 424.710938 43.273438 424.710938 44.609375 "/>
<path style="fill-rule:nonzero;fill:rgb(100%,0%,0%);fill-opacity:1;stroke-width:0.01;stroke-linecap:butt;stroke-linejoin:miter;stroke:rgb(0%,0%,0%);stroke-opacity:1;stroke-miterlimit:10;" d="M 276.378906 486.957031 C 276.378906 488.289063 274.378906 488.289063 274.378906 486.957031 C 274.378906 485.625 276.378906 485.625 276.378906 486.957031 "/>
<path style="fill-rule:nonzero;fill:rgb(100%,0%,0%);fill-opacity:1;stroke-width:0.01;stroke-linecap:butt;stroke-linejoin:miter;stroke:rgb(0%,0%,0%);stroke-opacity:1;stroke-miterlimit:10;" d="M 264.34375 466.253906 C 264.34375 467.589844 262.34375 467.589844 262.34375 466.253906 C 262.34375 464.921875 264.34375 464.921875 264.34375 466.253906 "/>
<path style="fill-rule:nonzero;fill:rgb(100%,0%,0%);fill-opacity:1;stroke-width:0.01;stroke-linecap:butt;stroke-linejoin:miter;stroke:rgb(0%,0%,0%);stroke-opacity:1;stroke-miterlimit:10;" d="M 287.757813 507.972656 C 287.757813 509.304688 285.757813 509.304688 285.757813 507.972656 C 285.757813 506.640625 287.757813 506.640625 287.757813 507.972656 "/>
<path style="fill-rule:nonzero;fill:rgb(100%,0%,0%);fill-opacity:1;stroke-width:0.01;stroke-linecap:butt;stroke-linejoin:miter;stroke:rgb(0%,0%,0%);stroke-opacity:1;stroke-miterlimit:10;" d="M 373.058594 223.507813 C 373.058594 224.84375 371.058594 224.84375 371.058594 223.507813 C 371.058594 222.175781 373.058594 222.175781 373.058594 223.507813 "/>
<path style="fill-rule:nonzero;fill:rgb(100%,0%,0%);fill-opacity:1;stroke-width:0.01;stroke-linecap:butt;stroke-linejoin:miter;stroke:rgb(0%,0%,0%);stroke-opacity:1;stroke-miterlimit:10;" d="M 343.832031 229.453125 C 343.832031 230.789063 341.832031 230.789063 341.832031 229.453125 C 341.832031 228.121094 343.832031 228.121094 343.832031 229.453125 "/>
<path style="fill-rule:nonzero;fill:rgb(100%,0%,0%);fill-opacity:1;stroke-width:0.01;stroke-linecap:butt;stroke-linejoin:miter;stroke:rgb(0%,0%,0%);stroke-opacity:1;stroke-miterlimit:10;" d="M 400.046875 235.539063 C 400.046875 236.871094 398.046875 236.871094 398.046875 235.539063 C 398.046875 234.207031 400.046875 234.207031 400.046875 235.539063 "/>
<path style="fill-rule:nonzero;fill:rgb(100%,0%,0%);fill-opacity:1;stroke-width:0.01;stroke-linecap:butt;stroke-linejoin:miter;stroke:rgb(0%,0%,0%);stroke-opacity:1;stroke-miterlimit:10;" d="M 358.417969 198.34375 C 358.417969 199.679688 356.417969 199.679688 356.417969 198.34375 C 356.417969 197.011719 358.417969 197.011719 358.417969 198.34375 "/>
<path style="fill-rule:nonzero;fill:rgb(100%,0%,0%);fill-opacity:1;stroke-width:0.01;stroke-linecap:butt;stroke-linejoin:miter;stroke:rgb(0%,0%,0%);stroke-opacity:1;stroke-miterlimit:10;" d="M 393.128906 201.847656 C 393.128906 203.179688 391.128906 203.179688 391.128906 201.847656 C 391.128906 200.515625 393.128906 200.515625 393.128906 201.847656 "/>
<path style="fill-rule:nonzero;fill:rgb(100%,0%,0%);fill-opacity:1;stroke-width:0.01;stroke-linecap:butt;stroke-linejoin:miter;stroke:rgb(0%,0%,0%);stroke-opacity:1;stroke-miterlimit:10;" d="M 369.894531 252.398438 C 369.894531 253.734375 367.894531 253.734375 367.894531 252.398438 C 367.894531 251.066406 369.894531 251.066406 369.894531 252.398438 "/>
<path style="fill-rule:nonzero;fill:rgb(100%,0%,0%);fill-opacity:1;stroke-width:0.01;stroke-linecap:butt;stroke-linejoin:miter;stroke:rgb(0%,0%,0%);stroke-opacity:1;stroke-miterlimit:10;" d="M 317.960938 364.960938 C 317.960938 366.292969 315.960938 366.292969 315.960938 364.960938 C 315.960938 363.628906 317.960938 363.628906 317.960938 364.960938 "/>
<path style="fill-rule:nonzero;fill:rgb(100%,0%,0%);fill-opacity:1;stroke-width:0.01;stroke-linecap:butt;stroke-linejoin:miter;stroke:rgb(0%,0%,0%);stroke-opacity:1;stroke-miterlimit:10;" d="M 321.246094 390.128906 C 321.246094 391.460938 319.246094 391.460938 319.246094 390.128906 C 319.246094 388.796875 321.246094 388.796875 321.246094 390.128906 "/>
<path style="fill-rule:nonzero;fill:rgb(100%,0%,0%);fill-opacity:1;stroke-width:0.01;stroke-linecap:butt;stroke-linejoin:miter;stroke:rgb(0%,0%,0%);stroke-opacity:1;stroke-miterlimit:10;" d="M 294.382813 354.429688 C 294.382813 355.761719 292.382813 355.761719 292.382813 354.429688 C 292.382813 353.097656 294.382813 353.097656 294.382813 354.429688 "/>
<path style="fill-rule:nonzero;fill:rgb(100%,0%,0%);fill-opacity:1;stroke-width:0.01;stroke-linecap:butt;stroke-linejoin:miter;stroke:rgb(0%,0%,0%);stroke-opacity:1;stroke-miterlimit:10;" d="M 339.609375 351.296875 C 339.609375 352.628906 337.609375 352.628906 337.609375 351.296875 C 337.609375 349.964844 339.609375 349.964844 339.609375 351.296875 "/>
<path style="fill-rule:nonzero;fill:rgb(100%,0%,0%);fill-opacity:1;stroke-width:0.01;stroke-linecap:butt;stroke-linejoin:miter;stroke:rgb(0%,0%,0%);stroke-opacity:1;stroke-miterlimit:10;" d="M 151.820313 111.238281 C 151.820313 112.574219 149.820313 112.574219 149.820313 111.238281 C 149.820313 109.90625 151.820313 109.90625 151.820313 111.238281 "/>
<path style="fill-rule:nonzero;fill:rgb(100%,0%,0%);fill-opacity:1;stroke-width:0.01;stroke-linecap:butt;stroke-linejoin:miter;stroke:rgb(0%,0%,0%);stroke-opacity:1;stroke-miterlimit:10;" d="M 166.542969 129.863281 C 166.542969 131.195313 164.542969 131.195313 164.542969 129.863281 C 164.542969 128.527344 166.542969 128.527344 166.542969 129.863281 "/>
<path style="fill-rule:nonzero;fill:rgb(100%,0%,0%);fill-opacity:1;stroke-width:0.01;stroke-linecap:butt;stroke-linejoin:miter;stroke:rgb(0%,0%,0%);stroke-opacity:1;stroke-miterlimit:10;" d="M 137.398438 92.421875 C 137.398438 93.757813 135.398438 93.757813 135.398438 92.421875 C 135.398438 91.089844 137.398438 91.089844 137.398438 92.421875 "/>
</g>
</svg>
