<?xml version="1.0" encoding="UTF-8"?>
<svg xmlns="http://www.w3.org/2000/svg" xmlns:xlink="http://www.w3.org/1999/xlink" width="600pt" height="600pt" viewBox="0 0 600 600" version="1.1">
<g id="surface11">
<rect x="0" y="0" width="600" height="600" style="fill:rgb(100%,100%,100%);fill-opacity:1;stroke:none;"/>
<path style="fill:none;stroke-width:0.2;stroke-linecap:butt;stroke-linejoin:miter;stroke:rgb(26.666667%,26.666667%,26.666667%);stroke-opacity:1;stroke-miterlimit:10;" d="M 240.054688 95.957031 L 252.496094 106.738281 "/>
<path style="fill:none;stroke-width:0.2;stroke-linecap:butt;stroke-linejoin:miter;stroke:rgb(26.666667%,26.666667%,26.666667%);stroke-opacity:1;stroke-miterlimit:10;" d="M 240.054688 95.957031 L 228.128906 84.65625 "/>
<path style="fill:none;stroke-width:0.2;stroke-linecap:butt;stroke-linejoin:miter;stroke:rgb(26.666667%,26.666667%,26.666667%);stroke-opacity:1;stroke-miterlimit:10;" d="M 471.300781 351.871094 L 448.503906 348.074219 "/>
<path style="fill:none;stroke-width:0.2;stroke-linecap:butt;stroke-linejoin:miter;stroke:rgb(26.666667%,26.666667%,26.666667%);stroke-opacity:1;stroke-miterlimit:10;" d="M 536.125 414.0625 L 544.035156 399.53125 "/>
<path style="fill:none;stroke-width:0.2;stroke-linecap:butt;stroke-linejoin:miter;stroke:rgb(26.666667%,26.666667%,26.666667%);stroke-opacity:1;stroke-miterlimit:10;" d="M 240.789062 248.425781 L 229.832031 214.699219 "/>
<path style="fill:none;stroke-width:0.2;stroke-linecap:butt;stroke-linejoin:miter;stroke:rgb(26.666667%,26.666667%,26.666667%);stroke-opacity:1;stroke-miterlimit:10;" d="M 240.789062 248.425781 L 253.539062 277.496094 "/>
<path style="fill:none;stroke-width:0.2;stroke-linecap:butt;stroke-linejoin:miter;stroke:rgb(26.666667%,26.666667%,26.666667%);stroke-opacity:1;stroke-miterlimit:10;" d="M 134.246094 60.304688 L 127.949219 76.222656 "/>
<path style="fill:none;stroke-width:0.2;stroke-linecap:butt;stroke-linejoin:miter;stroke:rgb(26.666667%,26.666667%,26.666667%);stroke-opacity:1;stroke-miterlimit:10;" d="M 309.160156 472.539062 L 301.199219 457.925781 "/>
<path style="fill:none;stroke-width:0.2;stroke-linecap:butt;stroke-linejoin:miter;stroke:rgb(26.666667%,26.666667%,26.666667%);stroke-opacity:1;stroke-miterlimit:10;" d="M 20 378.703125 L 27.351562 393.199219 "/>
<path style="fill:none;stroke-width:0.2;stroke-linecap:butt;stroke-linejoin:miter;stroke:rgb(26.666667%,26.666667%,26.666667%);stroke-opacity:1;stroke-miterlimit:10;" d="M 199.722656 206.902344 L 228.546875 213.523438 "/>
<path style="fill:none;stroke-width:0.2;stroke-linecap:butt;stroke-linejoin:miter;stroke:rgb(26.666667%,26.666667%,26.666667%);stroke-opacity:1;stroke-miterlimit:10;" d="M 199.722656 206.902344 L 180.421875 202.332031 "/>
<path style="fill:none;stroke-width:0.2;stroke-linecap:butt;stroke-linejoin:miter;stroke:rgb(26.666667%,26.666667%,26.666667%);stroke-opacity:1;stroke-miterlimit:10;" d="M 224.507812 541.800781 L 204.269531 540.011719 "/>
<path style="fill:none;stroke-width:0.2;stroke-linecap:butt;stroke-linejoin:miter;stroke:rgb(26.666667%,26.666667%,26.666667%);stroke-opacity:1;stroke-miterlimit:10;" d="M 224.507812 541.800781 L 241.980469 543.015625 "/>
<path style="fill:none;stroke-width:0.2;stroke-linecap:butt;stroke-linejoin:miter;stroke:rgb(26.666667%,26.666667%,26.666667%);stroke-opacity:1;stroke-miterlimit:10;" d="M 459.003906 69.324219 L 474.550781 76.460938 "/>
<path style="fill:none;stroke-width:0.2;stroke-linecap:butt;stroke-linejoin:miter;stroke:rgb(26.666667%,26.666667%,26.666667%);stroke-opacity:1;stroke-miterlimit:10;" d="M 459.003906 69.324219 L 442.507812 61.246094 "/>
<path style="fill:none;stroke-width:0.2;stroke-linecap:butt;stroke-linejoin:miter;stroke:rgb(26.666667%,26.666667%,26.666667%);stroke-opacity:1;stroke-miterlimit:10;" d="M 455.660156 167.675781 L 434.382812 174.503906 "/>
<path style="fill:none;stroke-width:0.2;stroke-linecap:butt;stroke-linejoin:miter;stroke:rgb(26.666667%,26.666667%,26.666667%);stroke-opacity:1;stroke-miterlimit:10;" d="M 455.660156 167.675781 L 465.410156 184.09375 "/>
<path style="fill:none;stroke-width:0.2;stroke-linecap:butt;stroke-linejoin:miter;stroke:rgb(26.666667%,26.666667%,26.666667%);stroke-opacity:1;stroke-miterlimit:10;" d="M 455.660156 167.675781 L 474.199219 160.394531 "/>
<path style="fill:none;stroke-width:0.2;stroke-linecap:butt;stroke-linejoin:miter;stroke:rgb(26.666667%,26.666667%,26.666667%);stroke-opacity:1;stroke-miterlimit:10;" d="M 455.660156 167.675781 L 449.816406 149.953125 "/>
<path style="fill:none;stroke-width:0.2;stroke-linecap:butt;stroke-linejoin:miter;stroke:rgb(26.666667%,26.666667%,26.666667%);stroke-opacity:1;stroke-miterlimit:10;" d="M 443.375 372.109375 L 447.351562 348.898438 "/>
<path style="fill:none;stroke-width:0.2;stroke-linecap:butt;stroke-linejoin:miter;stroke:rgb(26.666667%,26.666667%,26.666667%);stroke-opacity:1;stroke-miterlimit:10;" d="M 134.421875 295.140625 L 135.003906 277.425781 "/>
<path style="fill:none;stroke-width:0.2;stroke-linecap:butt;stroke-linejoin:miter;stroke:rgb(26.666667%,26.666667%,26.666667%);stroke-opacity:1;stroke-miterlimit:10;" d="M 134.421875 295.140625 L 148.636719 305.367188 "/>
<path style="fill:none;stroke-width:0.2;stroke-linecap:butt;stroke-linejoin:miter;stroke:rgb(26.666667%,26.666667%,26.666667%);stroke-opacity:1;stroke-miterlimit:10;" d="M 134.421875 295.140625 L 120.175781 305.589844 "/>
<path style="fill:none;stroke-width:0.2;stroke-linecap:butt;stroke-linejoin:miter;stroke:rgb(26.666667%,26.666667%,26.666667%);stroke-opacity:1;stroke-miterlimit:10;" d="M 34.832031 171.15625 L 43.84375 186.289062 "/>
<path style="fill:none;stroke-width:0.2;stroke-linecap:butt;stroke-linejoin:miter;stroke:rgb(26.666667%,26.666667%,26.666667%);stroke-opacity:1;stroke-miterlimit:10;" d="M 192.949219 524.039062 L 202.730469 539.085938 "/>
<path style="fill:none;stroke-width:0.2;stroke-linecap:butt;stroke-linejoin:miter;stroke:rgb(26.666667%,26.666667%,26.666667%);stroke-opacity:1;stroke-miterlimit:10;" d="M 376.335938 454.34375 L 362.671875 440.476562 "/>
<path style="fill:none;stroke-width:0.2;stroke-linecap:butt;stroke-linejoin:miter;stroke:rgb(26.666667%,26.666667%,26.666667%);stroke-opacity:1;stroke-miterlimit:10;" d="M 376.335938 454.34375 L 388.523438 466.632812 "/>
<path style="fill:none;stroke-width:0.2;stroke-linecap:butt;stroke-linejoin:miter;stroke:rgb(26.666667%,26.666667%,26.666667%);stroke-opacity:1;stroke-miterlimit:10;" d="M 256.902344 300.050781 L 254.078125 279.402344 "/>
<path style="fill:none;stroke-width:0.2;stroke-linecap:butt;stroke-linejoin:miter;stroke:rgb(26.666667%,26.666667%,26.666667%);stroke-opacity:1;stroke-miterlimit:10;" d="M 322.59375 570.890625 L 337 562.523438 "/>
<path style="fill:none;stroke-width:0.2;stroke-linecap:butt;stroke-linejoin:miter;stroke:rgb(26.666667%,26.666667%,26.666667%);stroke-opacity:1;stroke-miterlimit:10;" d="M 322.59375 570.890625 L 308.328125 579.484375 "/>
<path style="fill:none;stroke-width:0.2;stroke-linecap:butt;stroke-linejoin:miter;stroke:rgb(26.666667%,26.666667%,26.666667%);stroke-opacity:1;stroke-miterlimit:10;" d="M 350.355469 129.703125 L 348.175781 146.128906 "/>
<path style="fill:none;stroke-width:0.2;stroke-linecap:butt;stroke-linejoin:miter;stroke:rgb(26.666667%,26.666667%,26.666667%);stroke-opacity:1;stroke-miterlimit:10;" d="M 350.355469 129.703125 L 352.976562 112.089844 "/>
<path style="fill:none;stroke-width:0.2;stroke-linecap:butt;stroke-linejoin:miter;stroke:rgb(26.666667%,26.666667%,26.666667%);stroke-opacity:1;stroke-miterlimit:10;" d="M 347.265625 424.898438 L 361.265625 439.050781 "/>
<path style="fill:none;stroke-width:0.2;stroke-linecap:butt;stroke-linejoin:miter;stroke:rgb(26.666667%,26.666667%,26.666667%);stroke-opacity:1;stroke-miterlimit:10;" d="M 347.265625 424.898438 L 334.59375 412.113281 "/>
<path style="fill:none;stroke-width:0.2;stroke-linecap:butt;stroke-linejoin:miter;stroke:rgb(26.666667%,26.666667%,26.666667%);stroke-opacity:1;stroke-miterlimit:10;" d="M 298.410156 51.441406 L 291.964844 36.582031 "/>
<path style="fill:none;stroke-width:0.2;stroke-linecap:butt;stroke-linejoin:miter;stroke:rgb(26.666667%,26.666667%,26.666667%);stroke-opacity:1;stroke-miterlimit:10;" d="M 534.667969 257.234375 L 546.269531 268.9375 "/>
<path style="fill:none;stroke-width:0.2;stroke-linecap:butt;stroke-linejoin:miter;stroke:rgb(26.666667%,26.666667%,26.666667%);stroke-opacity:1;stroke-miterlimit:10;" d="M 468.824219 332.640625 L 448.332031 347.328125 "/>
<path style="fill:none;stroke-width:0.2;stroke-linecap:butt;stroke-linejoin:miter;stroke:rgb(26.666667%,26.666667%,26.666667%);stroke-opacity:1;stroke-miterlimit:10;" d="M 352.996094 356.769531 L 363.800781 369.367188 "/>
<path style="fill:none;stroke-width:0.2;stroke-linecap:butt;stroke-linejoin:miter;stroke:rgb(26.666667%,26.666667%,26.666667%);stroke-opacity:1;stroke-miterlimit:10;" d="M 552.6875 383.144531 L 544.980469 397.769531 "/>
<path style="fill:none;stroke-width:0.2;stroke-linecap:butt;stroke-linejoin:miter;stroke:rgb(26.666667%,26.666667%,26.666667%);stroke-opacity:1;stroke-miterlimit:10;" d="M 245.167969 220.960938 L 230.429688 214.167969 "/>
<path style="fill:none;stroke-width:0.2;stroke-linecap:butt;stroke-linejoin:miter;stroke:rgb(26.666667%,26.666667%,26.666667%);stroke-opacity:1;stroke-miterlimit:10;" d="M 120.433594 96.695312 L 127.238281 78.089844 "/>
<path style="fill:none;stroke-width:0.2;stroke-linecap:butt;stroke-linejoin:miter;stroke:rgb(26.666667%,26.666667%,26.666667%);stroke-opacity:1;stroke-miterlimit:10;" d="M 120.433594 96.695312 L 131.085938 111.226562 "/>
<path style="fill:none;stroke-width:0.2;stroke-linecap:butt;stroke-linejoin:miter;stroke:rgb(26.666667%,26.666667%,26.666667%);stroke-opacity:1;stroke-miterlimit:10;" d="M 120.433594 96.695312 L 102.835938 101.925781 "/>
<path style="fill:none;stroke-width:0.2;stroke-linecap:butt;stroke-linejoin:miter;stroke:rgb(26.666667%,26.666667%,26.666667%);stroke-opacity:1;stroke-miterlimit:10;" d="M 376.046875 383.625 L 365.101562 370.886719 "/>
<path style="fill:none;stroke-width:0.2;stroke-linecap:butt;stroke-linejoin:miter;stroke:rgb(26.666667%,26.666667%,26.666667%);stroke-opacity:1;stroke-miterlimit:10;" d="M 422.371094 252.074219 L 428.496094 236.289062 "/>
<path style="fill:none;stroke-width:0.2;stroke-linecap:butt;stroke-linejoin:miter;stroke:rgb(26.666667%,26.666667%,26.666667%);stroke-opacity:1;stroke-miterlimit:10;" d="M 422.371094 252.074219 L 404.253906 254.96875 "/>
<path style="fill:none;stroke-width:0.2;stroke-linecap:butt;stroke-linejoin:miter;stroke:rgb(26.666667%,26.666667%,26.666667%);stroke-opacity:1;stroke-miterlimit:10;" d="M 422.371094 252.074219 L 437.558594 261.59375 "/>
<path style="fill:none;stroke-width:0.2;stroke-linecap:butt;stroke-linejoin:miter;stroke:rgb(26.666667%,26.666667%,26.666667%);stroke-opacity:1;stroke-miterlimit:10;" d="M 190.3125 553.824219 L 202.59375 540.65625 "/>
<path style="fill:none;stroke-width:0.2;stroke-linecap:butt;stroke-linejoin:miter;stroke:rgb(26.666667%,26.666667%,26.666667%);stroke-opacity:1;stroke-miterlimit:10;" d="M 192.34375 439.433594 L 175.03125 435.921875 "/>
<path style="fill:none;stroke-width:0.2;stroke-linecap:butt;stroke-linejoin:miter;stroke:rgb(26.666667%,26.666667%,26.666667%);stroke-opacity:1;stroke-miterlimit:10;" d="M 192.34375 439.433594 L 213.011719 441.546875 "/>
<path style="fill:none;stroke-width:0.2;stroke-linecap:butt;stroke-linejoin:miter;stroke:rgb(26.666667%,26.666667%,26.666667%);stroke-opacity:1;stroke-miterlimit:10;" d="M 284.429688 20 L 291.152344 34.753906 "/>
<path style="fill:none;stroke-width:0.2;stroke-linecap:butt;stroke-linejoin:miter;stroke:rgb(26.666667%,26.666667%,26.666667%);stroke-opacity:1;stroke-miterlimit:10;" d="M 196.867188 368.574219 L 213.835938 367.914062 "/>
<path style="fill:none;stroke-width:0.2;stroke-linecap:butt;stroke-linejoin:miter;stroke:rgb(26.666667%,26.666667%,26.666667%);stroke-opacity:1;stroke-miterlimit:10;" d="M 196.867188 368.574219 L 179.957031 369.761719 "/>
<path style="fill:none;stroke-width:0.2;stroke-linecap:butt;stroke-linejoin:miter;stroke:rgb(26.666667%,26.666667%,26.666667%);stroke-opacity:1;stroke-miterlimit:10;" d="M 566.035156 161.222656 L 572.476562 176.257812 "/>
<path style="fill:none;stroke-width:0.2;stroke-linecap:butt;stroke-linejoin:miter;stroke:rgb(26.666667%,26.666667%,26.666667%);stroke-opacity:1;stroke-miterlimit:10;" d="M 580 193 L 573.28125 178.089844 "/>
<path style="fill:none;stroke-width:0.2;stroke-linecap:butt;stroke-linejoin:miter;stroke:rgb(26.666667%,26.666667%,26.666667%);stroke-opacity:1;stroke-miterlimit:10;" d="M 214.699219 227.269531 L 228.78125 214.421875 "/>
<path style="fill:none;stroke-width:0.2;stroke-linecap:butt;stroke-linejoin:miter;stroke:rgb(26.666667%,26.666667%,26.666667%);stroke-opacity:1;stroke-miterlimit:10;" d="M 425.492188 343.53125 L 446.539062 347.714844 "/>
<path style="fill:none;stroke-width:0.2;stroke-linecap:butt;stroke-linejoin:miter;stroke:rgb(26.666667%,26.666667%,26.666667%);stroke-opacity:1;stroke-miterlimit:10;" d="M 292.777344 441.210938 L 300.273438 456.15625 "/>
<path style="fill:none;stroke-width:0.2;stroke-linecap:butt;stroke-linejoin:miter;stroke:rgb(26.666667%,26.666667%,26.666667%);stroke-opacity:1;stroke-miterlimit:10;" d="M 426.4375 362.210938 L 446.691406 348.472656 "/>
<path style="fill:none;stroke-width:0.2;stroke-linecap:butt;stroke-linejoin:miter;stroke:rgb(26.666667%,26.666667%,26.666667%);stroke-opacity:1;stroke-miterlimit:10;" d="M 415.027344 179.578125 L 432.464844 175.058594 "/>
<path style="fill:none;stroke-width:0.2;stroke-linecap:butt;stroke-linejoin:miter;stroke:rgb(26.666667%,26.666667%,26.666667%);stroke-opacity:1;stroke-miterlimit:10;" d="M 269.699219 266.433594 L 254.738281 277.808594 "/>
<path style="fill:none;stroke-width:0.2;stroke-linecap:butt;stroke-linejoin:miter;stroke:rgb(26.666667%,26.666667%,26.666667%);stroke-opacity:1;stroke-miterlimit:10;" d="M 52.003906 284.703125 L 64.691406 272.109375 "/>
<path style="fill:none;stroke-width:0.2;stroke-linecap:butt;stroke-linejoin:miter;stroke:rgb(26.666667%,26.666667%,26.666667%);stroke-opacity:1;stroke-miterlimit:10;" d="M 52.003906 284.703125 L 55.390625 301.980469 "/>
<path style="fill:none;stroke-width:0.2;stroke-linecap:butt;stroke-linejoin:miter;stroke:rgb(26.666667%,26.666667%,26.666667%);stroke-opacity:1;stroke-miterlimit:10;" d="M 52.003906 284.703125 L 34.796875 279.847656 "/>
<path style="fill:none;stroke-width:0.2;stroke-linecap:butt;stroke-linejoin:miter;stroke:rgb(26.666667%,26.666667%,26.666667%);stroke-opacity:1;stroke-miterlimit:10;" d="M 430.289062 325.390625 L 446.910156 347.117188 "/>
<path style="fill:none;stroke-width:0.2;stroke-linecap:butt;stroke-linejoin:miter;stroke:rgb(26.666667%,26.666667%,26.666667%);stroke-opacity:1;stroke-miterlimit:10;" d="M 228.019531 457.390625 L 214.671875 442.398438 "/>
<path style="fill:none;stroke-width:0.2;stroke-linecap:butt;stroke-linejoin:miter;stroke:rgb(26.666667%,26.666667%,26.666667%);stroke-opacity:1;stroke-miterlimit:10;" d="M 228.019531 457.390625 L 240.519531 469.285156 "/>
<path style="fill:none;stroke-width:0.2;stroke-linecap:butt;stroke-linejoin:miter;stroke:rgb(26.666667%,26.666667%,26.666667%);stroke-opacity:1;stroke-miterlimit:10;" d="M 232.472656 290.757812 L 253.074219 278.910156 "/>
<path style="fill:none;stroke-width:0.2;stroke-linecap:butt;stroke-linejoin:miter;stroke:rgb(26.666667%,26.666667%,26.666667%);stroke-opacity:1;stroke-miterlimit:10;" d="M 232.472656 290.757812 L 218.390625 302.203125 "/>
<path style="fill:none;stroke-width:0.2;stroke-linecap:butt;stroke-linejoin:miter;stroke:rgb(26.666667%,26.666667%,26.666667%);stroke-opacity:1;stroke-miterlimit:10;" d="M 355.875 93.738281 L 353.28125 110.113281 "/>
<path style="fill:none;stroke-width:0.2;stroke-linecap:butt;stroke-linejoin:miter;stroke:rgb(26.666667%,26.666667%,26.666667%);stroke-opacity:1;stroke-miterlimit:10;" d="M 559.308594 282.027344 L 547.679688 270.355469 "/>
<path style="fill:none;stroke-width:0.2;stroke-linecap:butt;stroke-linejoin:miter;stroke:rgb(26.666667%,26.666667%,26.666667%);stroke-opacity:1;stroke-miterlimit:10;" d="M 450.527344 325.566406 L 447.652344 346.917969 "/>
<path style="fill:none;stroke-width:0.2;stroke-linecap:butt;stroke-linejoin:miter;stroke:rgb(26.666667%,26.666667%,26.666667%);stroke-opacity:1;stroke-miterlimit:10;" d="M 100.507812 482.238281 L 92.273438 466.574219 "/>
<path style="fill:none;stroke-width:0.2;stroke-linecap:butt;stroke-linejoin:miter;stroke:rgb(26.666667%,26.666667%,26.666667%);stroke-opacity:1;stroke-miterlimit:10;" d="M 100.507812 482.238281 L 92.042969 497.761719 "/>
<path style="fill:none;stroke-width:0.2;stroke-linecap:butt;stroke-linejoin:miter;stroke:rgb(26.666667%,26.666667%,26.666667%);stroke-opacity:1;stroke-miterlimit:10;" d="M 100.507812 482.238281 L 118.382812 482.53125 "/>
<path style="fill:none;stroke-width:0.2;stroke-linecap:butt;stroke-linejoin:miter;stroke:rgb(26.666667%,26.666667%,26.666667%);stroke-opacity:1;stroke-miterlimit:10;" d="M 224.199219 425.640625 L 214.546875 440.808594 "/>
<path style="fill:none;stroke-width:0.2;stroke-linecap:butt;stroke-linejoin:miter;stroke:rgb(26.666667%,26.666667%,26.666667%);stroke-opacity:1;stroke-miterlimit:10;" d="M 425.628906 52.441406 L 440.726562 60.339844 "/>
<path style="fill:none;stroke-width:0.2;stroke-linecap:butt;stroke-linejoin:miter;stroke:rgb(26.666667%,26.666667%,26.666667%);stroke-opacity:1;stroke-miterlimit:10;" d="M 222.707031 187.910156 L 229.265625 212.78125 "/>
<path style="fill:none;stroke-width:0.2;stroke-linecap:butt;stroke-linejoin:miter;stroke:rgb(26.666667%,26.666667%,26.666667%);stroke-opacity:1;stroke-miterlimit:10;" d="M 222.707031 187.910156 L 216.351562 170 "/>
<path style="fill:none;stroke-width:0.2;stroke-linecap:butt;stroke-linejoin:miter;stroke:rgb(26.666667%,26.666667%,26.666667%);stroke-opacity:1;stroke-miterlimit:10;" d="M 35.152344 409.660156 L 28.230469 394.996094 "/>
<path style="fill:none;stroke-width:0.2;stroke-linecap:butt;stroke-linejoin:miter;stroke:rgb(26.666667%,26.666667%,26.666667%);stroke-opacity:1;stroke-miterlimit:10;" d="M 33.636719 202.46875 L 43.78125 187.96875 "/>
<path style="fill:none;stroke-width:0.2;stroke-linecap:butt;stroke-linejoin:miter;stroke:rgb(26.666667%,26.666667%,26.666667%);stroke-opacity:1;stroke-miterlimit:10;" d="M 63.535156 187.546875 L 45.355469 187.167969 "/>
<path style="fill:none;stroke-width:0.2;stroke-linecap:butt;stroke-linejoin:miter;stroke:rgb(26.666667%,26.666667%,26.666667%);stroke-opacity:1;stroke-miterlimit:10;" d="M 462.695312 369.171875 L 448.097656 348.726562 "/>
<path style="fill:none;stroke-width:0.2;stroke-linecap:butt;stroke-linejoin:miter;stroke:rgb(26.666667%,26.666667%,26.666667%);stroke-opacity:1;stroke-miterlimit:10;" d="M 259.855469 198.886719 L 230.417969 213.308594 "/>
<path style="fill:none;stroke-width:0.2;stroke-linecap:butt;stroke-linejoin:miter;stroke:rgb(26.666667%,26.666667%,26.666667%);stroke-opacity:1;stroke-miterlimit:10;" d="M 259.855469 198.886719 L 268.878906 181.691406 "/>
<path style="fill:none;stroke-width:0.2;stroke-linecap:butt;stroke-linejoin:miter;stroke:rgb(26.666667%,26.666667%,26.666667%);stroke-opacity:1;stroke-miterlimit:10;" d="M 259.855469 198.886719 L 279.671875 203.902344 "/>
<path style="fill:none;stroke-width:0.2;stroke-linecap:butt;stroke-linejoin:miter;stroke:rgb(26.666667%,26.666667%,26.666667%);stroke-opacity:1;stroke-miterlimit:10;" d="M 275.964844 288.019531 L 254.859375 278.8125 "/>
<path style=" stroke:none;fill-rule:nonzero;fill:rgb(100%,0%,0%);fill-opacity:1;" d="M 241.054688 95.957031 C 241.054688 97.292969 239.054688 97.292969 239.054688 95.957031 C 239.054688 94.625 241.054688 94.625 241.054688 95.957031 "/>
<path style=" stroke:none;fill-rule:nonzero;fill:rgb(100%,0%,0%);fill-opacity:1;" d="M 254.25 107.390625 C 254.25 108.726562 252.25 108.726562 252.25 107.390625 C 252.25 106.058594 254.25 106.058594 254.25 107.390625 "/>
<path style=" stroke:none;fill-rule:nonzero;fill:rgb(100%,0%,0%);fill-opacity:1;" d="M 228.40625 83.964844 C 228.40625 85.300781 226.40625 85.300781 226.40625 83.964844 C 226.40625 82.632812 228.40625 82.632812 228.40625 83.964844 "/>
<path style=" stroke:none;fill-rule:nonzero;fill:rgb(100%,0%,0%);fill-opacity:1;" d="M 472.300781 351.871094 C 472.300781 353.203125 470.300781 353.203125 470.300781 351.871094 C 470.300781 350.535156 472.300781 350.535156 472.300781 351.871094 "/>
<path style=" stroke:none;fill-rule:nonzero;fill:rgb(100%,0%,0%);fill-opacity:1;" d="M 448.519531 347.910156 C 448.519531 349.246094 446.519531 349.246094 446.519531 347.910156 C 446.519531 346.578125 448.519531 346.578125 448.519531 347.910156 "/>
<path style=" stroke:none;fill-rule:nonzero;fill:rgb(100%,0%,0%);fill-opacity:1;" d="M 537.125 414.0625 C 537.125 415.398438 535.125 415.398438 535.125 414.0625 C 535.125 412.730469 537.125 412.730469 537.125 414.0625 "/>
<path style=" stroke:none;fill-rule:nonzero;fill:rgb(100%,0%,0%);fill-opacity:1;" d="M 545.515625 398.652344 C 545.515625 399.988281 543.515625 399.988281 543.515625 398.652344 C 543.515625 397.320312 545.515625 397.320312 545.515625 398.652344 "/>
<path style=" stroke:none;fill-rule:nonzero;fill:rgb(100%,0%,0%);fill-opacity:1;" d="M 241.789062 248.425781 C 241.789062 249.761719 239.789062 249.761719 239.789062 248.425781 C 239.789062 247.09375 241.789062 247.09375 241.789062 248.425781 "/>
<path style=" stroke:none;fill-rule:nonzero;fill:rgb(100%,0%,0%);fill-opacity:1;" d="M 230.523438 213.746094 C 230.523438 215.082031 228.523438 215.082031 228.523438 213.746094 C 228.523438 212.414062 230.523438 212.414062 230.523438 213.746094 "/>
<path style=" stroke:none;fill-rule:nonzero;fill:rgb(100%,0%,0%);fill-opacity:1;" d="M 254.941406 278.414062 C 254.941406 279.746094 252.941406 279.746094 252.941406 278.414062 C 252.941406 277.078125 254.941406 277.078125 254.941406 278.414062 "/>
<path style=" stroke:none;fill-rule:nonzero;fill:rgb(100%,0%,0%);fill-opacity:1;" d="M 135.246094 60.304688 C 135.246094 61.636719 133.246094 61.636719 133.246094 60.304688 C 133.246094 58.972656 135.246094 58.972656 135.246094 60.304688 "/>
<path style=" stroke:none;fill-rule:nonzero;fill:rgb(100%,0%,0%);fill-opacity:1;" d="M 128.578125 77.152344 C 128.578125 78.484375 126.578125 78.484375 126.578125 77.152344 C 126.578125 75.816406 128.578125 75.816406 128.578125 77.152344 "/>
<path style=" stroke:none;fill-rule:nonzero;fill:rgb(100%,0%,0%);fill-opacity:1;" d="M 310.160156 472.539062 C 310.160156 473.871094 308.160156 473.871094 308.160156 472.539062 C 308.160156 471.203125 310.160156 471.203125 310.160156 472.539062 "/>
<path style=" stroke:none;fill-rule:nonzero;fill:rgb(100%,0%,0%);fill-opacity:1;" d="M 301.71875 457.046875 C 301.71875 458.382812 299.71875 458.382812 299.71875 457.046875 C 299.71875 455.714844 301.71875 455.714844 301.71875 457.046875 "/>
<path style=" stroke:none;fill-rule:nonzero;fill:rgb(100%,0%,0%);fill-opacity:1;" d="M 21 378.703125 C 21 380.035156 19 380.035156 19 378.703125 C 19 377.367188 21 377.367188 21 378.703125 "/>
<path style=" stroke:none;fill-rule:nonzero;fill:rgb(100%,0%,0%);fill-opacity:1;" d="M 28.804688 394.089844 C 28.804688 395.421875 26.804688 395.421875 26.804688 394.089844 C 26.804688 392.757812 28.804688 392.757812 28.804688 394.089844 "/>
<path style=" stroke:none;fill-rule:nonzero;fill:rgb(100%,0%,0%);fill-opacity:1;" d="M 200.722656 206.902344 C 200.722656 208.238281 198.722656 208.238281 198.722656 206.902344 C 198.722656 205.570312 200.722656 205.570312 200.722656 206.902344 "/>
<path style=" stroke:none;fill-rule:nonzero;fill:rgb(100%,0%,0%);fill-opacity:1;" d="M 180.445312 202.101562 C 180.445312 203.4375 178.445312 203.4375 178.445312 202.101562 C 178.445312 200.769531 180.445312 200.769531 180.445312 202.101562 "/>
<path style=" stroke:none;fill-rule:nonzero;fill:rgb(100%,0%,0%);fill-opacity:1;" d="M 225.507812 541.800781 C 225.507812 543.136719 223.507812 543.136719 223.507812 541.800781 C 223.507812 540.46875 225.507812 540.46875 225.507812 541.800781 "/>
<path style=" stroke:none;fill-rule:nonzero;fill:rgb(100%,0%,0%);fill-opacity:1;" d="M 204.273438 539.925781 C 204.273438 541.257812 202.273438 541.257812 202.273438 539.925781 C 202.273438 538.589844 204.273438 538.589844 204.273438 539.925781 "/>
<path style=" stroke:none;fill-rule:nonzero;fill:rgb(100%,0%,0%);fill-opacity:1;" d="M 243.980469 543.085938 C 243.980469 544.417969 241.980469 544.417969 241.980469 543.085938 C 241.980469 541.753906 243.980469 541.753906 243.980469 543.085938 "/>
<path style=" stroke:none;fill-rule:nonzero;fill:rgb(100%,0%,0%);fill-opacity:1;" d="M 460.003906 69.324219 C 460.003906 70.660156 458.003906 70.660156 458.003906 69.324219 C 458.003906 67.992188 460.003906 67.992188 460.003906 69.324219 "/>
<path style=" stroke:none;fill-rule:nonzero;fill:rgb(100%,0%,0%);fill-opacity:1;" d="M 476.460938 76.878906 C 476.460938 78.210938 474.460938 78.210938 474.460938 76.878906 C 474.460938 75.542969 476.460938 75.542969 476.460938 76.878906 "/>
<path style=" stroke:none;fill-rule:nonzero;fill:rgb(100%,0%,0%);fill-opacity:1;" d="M 442.613281 60.804688 C 442.613281 62.136719 440.613281 62.136719 440.613281 60.804688 C 440.613281 59.472656 442.613281 59.472656 442.613281 60.804688 "/>
<path style=" stroke:none;fill-rule:nonzero;fill:rgb(100%,0%,0%);fill-opacity:1;" d="M 456.660156 167.675781 C 456.660156 169.007812 454.660156 169.007812 454.660156 167.675781 C 454.660156 166.339844 456.660156 166.339844 456.660156 167.675781 "/>
<path style=" stroke:none;fill-rule:nonzero;fill:rgb(100%,0%,0%);fill-opacity:1;" d="M 434.433594 174.808594 C 434.433594 176.144531 432.433594 176.144531 432.433594 174.808594 C 432.433594 173.476562 434.433594 173.476562 434.433594 174.808594 "/>
<path style=" stroke:none;fill-rule:nonzero;fill:rgb(100%,0%,0%);fill-opacity:1;" d="M 466.921875 184.953125 C 466.921875 186.285156 464.921875 186.285156 464.921875 184.953125 C 464.921875 183.621094 466.921875 183.621094 466.921875 184.953125 "/>
<path style=" stroke:none;fill-rule:nonzero;fill:rgb(100%,0%,0%);fill-opacity:1;" d="M 476.132812 160.03125 C 476.132812 161.363281 474.132812 161.363281 474.132812 160.03125 C 474.132812 158.699219 476.132812 158.699219 476.132812 160.03125 "/>
<path style=" stroke:none;fill-rule:nonzero;fill:rgb(100%,0%,0%);fill-opacity:1;" d="M 450.503906 149.003906 C 450.503906 150.335938 448.503906 150.335938 448.503906 149.003906 C 448.503906 147.671875 450.503906 147.671875 450.503906 149.003906 "/>
<path style=" stroke:none;fill-rule:nonzero;fill:rgb(100%,0%,0%);fill-opacity:1;" d="M 444.375 372.109375 C 444.375 373.445312 442.375 373.445312 442.375 372.109375 C 442.375 370.777344 444.375 370.777344 444.375 372.109375 "/>
<path style=" stroke:none;fill-rule:nonzero;fill:rgb(100%,0%,0%);fill-opacity:1;" d="M 135.421875 295.140625 C 135.421875 296.476562 133.421875 296.476562 133.421875 295.140625 C 133.421875 293.808594 135.421875 293.808594 135.421875 295.140625 "/>
<path style=" stroke:none;fill-rule:nonzero;fill:rgb(100%,0%,0%);fill-opacity:1;" d="M 136.035156 276.425781 C 136.035156 277.757812 134.035156 277.757812 134.035156 276.425781 C 134.035156 275.09375 136.035156 275.09375 136.035156 276.425781 "/>
<path style=" stroke:none;fill-rule:nonzero;fill:rgb(100%,0%,0%);fill-opacity:1;" d="M 150.449219 305.949219 C 150.449219 307.28125 148.449219 307.28125 148.449219 305.949219 C 148.449219 304.617188 150.449219 304.617188 150.449219 305.949219 "/>
<path style=" stroke:none;fill-rule:nonzero;fill:rgb(100%,0%,0%);fill-opacity:1;" d="M 120.367188 306.179688 C 120.367188 307.515625 118.367188 307.515625 118.367188 306.179688 C 118.367188 304.847656 120.367188 304.847656 120.367188 306.179688 "/>
<path style=" stroke:none;fill-rule:nonzero;fill:rgb(100%,0%,0%);fill-opacity:1;" d="M 35.832031 171.15625 C 35.832031 172.492188 33.832031 172.492188 33.832031 171.15625 C 33.832031 169.824219 35.832031 169.824219 35.832031 171.15625 "/>
<path style=" stroke:none;fill-rule:nonzero;fill:rgb(100%,0%,0%);fill-opacity:1;" d="M 45.355469 187.148438 C 45.355469 188.480469 43.355469 188.480469 43.355469 187.148438 C 43.355469 185.8125 45.355469 185.8125 45.355469 187.148438 "/>
<path style=" stroke:none;fill-rule:nonzero;fill:rgb(100%,0%,0%);fill-opacity:1;" d="M 193.949219 524.039062 C 193.949219 525.371094 191.949219 525.371094 191.949219 524.039062 C 191.949219 522.703125 193.949219 522.703125 193.949219 524.039062 "/>
<path style=" stroke:none;fill-rule:nonzero;fill:rgb(100%,0%,0%);fill-opacity:1;" d="M 377.335938 454.34375 C 377.335938 455.675781 375.335938 455.675781 375.335938 454.34375 C 375.335938 453.007812 377.335938 453.007812 377.335938 454.34375 "/>
<path style=" stroke:none;fill-rule:nonzero;fill:rgb(100%,0%,0%);fill-opacity:1;" d="M 362.96875 439.761719 C 362.96875 441.097656 360.96875 441.097656 360.96875 439.761719 C 360.96875 438.429688 362.96875 438.429688 362.96875 439.761719 "/>
<path style=" stroke:none;fill-rule:nonzero;fill:rgb(100%,0%,0%);fill-opacity:1;" d="M 390.226562 467.34375 C 390.226562 468.675781 388.226562 468.675781 388.226562 467.34375 C 388.226562 466.007812 390.226562 466.007812 390.226562 467.34375 "/>
<path style=" stroke:none;fill-rule:nonzero;fill:rgb(100%,0%,0%);fill-opacity:1;" d="M 257.902344 300.050781 C 257.902344 301.386719 255.902344 301.386719 255.902344 300.050781 C 255.902344 298.71875 257.902344 298.71875 257.902344 300.050781 "/>
<path style=" stroke:none;fill-rule:nonzero;fill:rgb(100%,0%,0%);fill-opacity:1;" d="M 323.59375 570.890625 C 323.59375 572.222656 321.59375 572.222656 321.59375 570.890625 C 321.59375 569.554688 323.59375 569.554688 323.59375 570.890625 "/>
<path style=" stroke:none;fill-rule:nonzero;fill:rgb(100%,0%,0%);fill-opacity:1;" d="M 338.867188 562.023438 C 338.867188 563.355469 336.867188 563.355469 336.867188 562.023438 C 336.867188 560.6875 338.867188 560.6875 338.867188 562.023438 "/>
<path style=" stroke:none;fill-rule:nonzero;fill:rgb(100%,0%,0%);fill-opacity:1;" d="M 308.46875 580 C 308.46875 581.332031 306.46875 581.332031 306.46875 580 C 306.46875 578.667969 308.46875 578.667969 308.46875 580 "/>
<path style=" stroke:none;fill-rule:nonzero;fill:rgb(100%,0%,0%);fill-opacity:1;" d="M 351.355469 129.703125 C 351.355469 131.039062 349.355469 131.039062 349.355469 129.703125 C 349.355469 128.371094 351.355469 128.371094 351.355469 129.703125 "/>
<path style=" stroke:none;fill-rule:nonzero;fill:rgb(100%,0%,0%);fill-opacity:1;" d="M 349.042969 147.121094 C 349.042969 148.453125 347.042969 148.453125 347.042969 147.121094 C 347.042969 145.789062 349.042969 145.789062 349.042969 147.121094 "/>
<path style=" stroke:none;fill-rule:nonzero;fill:rgb(100%,0%,0%);fill-opacity:1;" d="M 354.125 111.101562 C 354.125 112.433594 352.125 112.433594 352.125 111.101562 C 352.125 109.769531 354.125 109.769531 354.125 111.101562 "/>
<path style=" stroke:none;fill-rule:nonzero;fill:rgb(100%,0%,0%);fill-opacity:1;" d="M 348.265625 424.898438 C 348.265625 426.230469 346.265625 426.230469 346.265625 424.898438 C 346.265625 423.5625 348.265625 423.5625 348.265625 424.898438 "/>
<path style=" stroke:none;fill-rule:nonzero;fill:rgb(100%,0%,0%);fill-opacity:1;" d="M 334.890625 411.402344 C 334.890625 412.734375 332.890625 412.734375 332.890625 411.402344 C 332.890625 410.070312 334.890625 410.070312 334.890625 411.402344 "/>
<path style=" stroke:none;fill-rule:nonzero;fill:rgb(100%,0%,0%);fill-opacity:1;" d="M 299.410156 51.441406 C 299.410156 52.777344 297.410156 52.777344 297.410156 51.441406 C 297.410156 50.109375 299.410156 50.109375 299.410156 51.441406 "/>
<path style=" stroke:none;fill-rule:nonzero;fill:rgb(100%,0%,0%);fill-opacity:1;" d="M 292.566406 35.664062 C 292.566406 36.996094 290.566406 36.996094 290.566406 35.664062 C 290.566406 34.332031 292.566406 34.332031 292.566406 35.664062 "/>
<path style=" stroke:none;fill-rule:nonzero;fill:rgb(100%,0%,0%);fill-opacity:1;" d="M 535.667969 257.234375 C 535.667969 258.566406 533.667969 258.566406 533.667969 257.234375 C 533.667969 255.902344 535.667969 255.902344 535.667969 257.234375 "/>
<path style=" stroke:none;fill-rule:nonzero;fill:rgb(100%,0%,0%);fill-opacity:1;" d="M 547.972656 269.648438 C 547.972656 270.980469 545.972656 270.980469 545.972656 269.648438 C 545.972656 268.316406 547.972656 268.316406 547.972656 269.648438 "/>
<path style=" stroke:none;fill-rule:nonzero;fill:rgb(100%,0%,0%);fill-opacity:1;" d="M 469.824219 332.640625 C 469.824219 333.976562 467.824219 333.976562 467.824219 332.640625 C 467.824219 331.308594 469.824219 331.308594 469.824219 332.640625 "/>
<path style=" stroke:none;fill-rule:nonzero;fill:rgb(100%,0%,0%);fill-opacity:1;" d="M 353.996094 356.769531 C 353.996094 358.101562 351.996094 358.101562 351.996094 356.769531 C 351.996094 355.4375 353.996094 355.4375 353.996094 356.769531 "/>
<path style=" stroke:none;fill-rule:nonzero;fill:rgb(100%,0%,0%);fill-opacity:1;" d="M 365.449219 370.128906 C 365.449219 371.460938 363.449219 371.460938 363.449219 370.128906 C 363.449219 368.792969 365.449219 368.792969 365.449219 370.128906 "/>
<path style=" stroke:none;fill-rule:nonzero;fill:rgb(100%,0%,0%);fill-opacity:1;" d="M 553.6875 383.144531 C 553.6875 384.476562 551.6875 384.476562 551.6875 383.144531 C 551.6875 381.808594 553.6875 381.808594 553.6875 383.144531 "/>
<path style=" stroke:none;fill-rule:nonzero;fill:rgb(100%,0%,0%);fill-opacity:1;" d="M 246.167969 220.960938 C 246.167969 222.296875 244.167969 222.296875 244.167969 220.960938 C 244.167969 219.628906 246.167969 219.628906 246.167969 220.960938 "/>
<path style=" stroke:none;fill-rule:nonzero;fill:rgb(100%,0%,0%);fill-opacity:1;" d="M 121.433594 96.695312 C 121.433594 98.027344 119.433594 98.027344 119.433594 96.695312 C 119.433594 95.359375 121.433594 95.359375 121.433594 96.695312 "/>
<path style=" stroke:none;fill-rule:nonzero;fill:rgb(100%,0%,0%);fill-opacity:1;" d="M 132.675781 112.03125 C 132.675781 113.363281 130.675781 113.363281 130.675781 112.03125 C 130.675781 110.699219 132.675781 110.699219 132.675781 112.03125 "/>
<path style=" stroke:none;fill-rule:nonzero;fill:rgb(100%,0%,0%);fill-opacity:1;" d="M 102.875 102.210938 C 102.875 103.542969 100.875 103.542969 100.875 102.210938 C 100.875 100.878906 102.875 100.878906 102.875 102.210938 "/>
<path style=" stroke:none;fill-rule:nonzero;fill:rgb(100%,0%,0%);fill-opacity:1;" d="M 377.046875 383.625 C 377.046875 384.957031 375.046875 384.957031 375.046875 383.625 C 375.046875 382.289062 377.046875 382.289062 377.046875 383.625 "/>
<path style=" stroke:none;fill-rule:nonzero;fill:rgb(100%,0%,0%);fill-opacity:1;" d="M 423.371094 252.074219 C 423.371094 253.410156 421.371094 253.410156 421.371094 252.074219 C 421.371094 250.742188 423.371094 250.742188 423.371094 252.074219 "/>
<path style=" stroke:none;fill-rule:nonzero;fill:rgb(100%,0%,0%);fill-opacity:1;" d="M 429.855469 235.355469 C 429.855469 236.6875 427.855469 236.6875 427.855469 235.355469 C 427.855469 234.023438 429.855469 234.023438 429.855469 235.355469 "/>
<path style=" stroke:none;fill-rule:nonzero;fill:rgb(100%,0%,0%);fill-opacity:1;" d="M 404.265625 255.128906 C 404.265625 256.460938 402.265625 256.460938 402.265625 255.128906 C 402.265625 253.792969 404.265625 253.792969 404.265625 255.128906 "/>
<path style=" stroke:none;fill-rule:nonzero;fill:rgb(100%,0%,0%);fill-opacity:1;" d="M 439.40625 262.125 C 439.40625 263.460938 437.40625 263.460938 437.40625 262.125 C 437.40625 260.792969 439.40625 260.792969 439.40625 262.125 "/>
<path style=" stroke:none;fill-rule:nonzero;fill:rgb(100%,0%,0%);fill-opacity:1;" d="M 191.3125 553.824219 C 191.3125 555.160156 189.3125 555.160156 189.3125 553.824219 C 189.3125 552.492188 191.3125 552.492188 191.3125 553.824219 "/>
<path style=" stroke:none;fill-rule:nonzero;fill:rgb(100%,0%,0%);fill-opacity:1;" d="M 193.34375 439.433594 C 193.34375 440.765625 191.34375 440.765625 191.34375 439.433594 C 191.34375 438.097656 193.34375 438.097656 193.34375 439.433594 "/>
<path style=" stroke:none;fill-rule:nonzero;fill:rgb(100%,0%,0%);fill-opacity:1;" d="M 175.050781 435.722656 C 175.050781 437.054688 173.050781 437.054688 173.050781 435.722656 C 173.050781 434.390625 175.050781 434.390625 175.050781 435.722656 "/>
<path style=" stroke:none;fill-rule:nonzero;fill:rgb(100%,0%,0%);fill-opacity:1;" d="M 215.007812 441.652344 C 215.007812 442.984375 213.007812 442.984375 213.007812 441.652344 C 213.007812 440.316406 215.007812 440.316406 215.007812 441.652344 "/>
<path style=" stroke:none;fill-rule:nonzero;fill:rgb(100%,0%,0%);fill-opacity:1;" d="M 285.429688 20 C 285.429688 21.332031 283.429688 21.332031 283.429688 20 C 283.429688 18.667969 285.429688 18.667969 285.429688 20 "/>
<path style=" stroke:none;fill-rule:nonzero;fill:rgb(100%,0%,0%);fill-opacity:1;" d="M 197.867188 368.574219 C 197.867188 369.910156 195.867188 369.910156 195.867188 368.574219 C 195.867188 367.242188 197.867188 367.242188 197.867188 368.574219 "/>
<path style=" stroke:none;fill-rule:nonzero;fill:rgb(100%,0%,0%);fill-opacity:1;" d="M 215.835938 367.875 C 215.835938 369.207031 213.835938 369.207031 213.835938 367.875 C 213.835938 366.539062 215.835938 366.539062 215.835938 367.875 "/>
<path style=" stroke:none;fill-rule:nonzero;fill:rgb(100%,0%,0%);fill-opacity:1;" d="M 179.960938 369.832031 C 179.960938 371.164062 177.960938 371.164062 177.960938 369.832031 C 177.960938 368.5 179.960938 368.5 179.960938 369.832031 "/>
<path style=" stroke:none;fill-rule:nonzero;fill:rgb(100%,0%,0%);fill-opacity:1;" d="M 567.035156 161.222656 C 567.035156 162.554688 565.035156 162.554688 565.035156 161.222656 C 565.035156 159.890625 567.035156 159.890625 567.035156 161.222656 "/>
<path style=" stroke:none;fill-rule:nonzero;fill:rgb(100%,0%,0%);fill-opacity:1;" d="M 573.871094 177.179688 C 573.871094 178.511719 571.871094 178.511719 571.871094 177.179688 C 571.871094 175.84375 573.871094 175.84375 573.871094 177.179688 "/>
<path style=" stroke:none;fill-rule:nonzero;fill:rgb(100%,0%,0%);fill-opacity:1;" d="M 581 193 C 581 194.335938 579 194.335938 579 193 C 579 191.667969 581 191.667969 581 193 "/>
<path style=" stroke:none;fill-rule:nonzero;fill:rgb(100%,0%,0%);fill-opacity:1;" d="M 215.699219 227.269531 C 215.699219 228.601562 213.699219 228.601562 213.699219 227.269531 C 213.699219 225.9375 215.699219 225.9375 215.699219 227.269531 "/>
<path style=" stroke:none;fill-rule:nonzero;fill:rgb(100%,0%,0%);fill-opacity:1;" d="M 426.492188 343.53125 C 426.492188 344.863281 424.492188 344.863281 424.492188 343.53125 C 424.492188 342.199219 426.492188 342.199219 426.492188 343.53125 "/>
<path style=" stroke:none;fill-rule:nonzero;fill:rgb(100%,0%,0%);fill-opacity:1;" d="M 293.777344 441.210938 C 293.777344 442.546875 291.777344 442.546875 291.777344 441.210938 C 291.777344 439.878906 293.777344 439.878906 293.777344 441.210938 "/>
<path style=" stroke:none;fill-rule:nonzero;fill:rgb(100%,0%,0%);fill-opacity:1;" d="M 427.4375 362.210938 C 427.4375 363.542969 425.4375 363.542969 425.4375 362.210938 C 425.4375 360.878906 427.4375 360.878906 427.4375 362.210938 "/>
<path style=" stroke:none;fill-rule:nonzero;fill:rgb(100%,0%,0%);fill-opacity:1;" d="M 416.027344 179.578125 C 416.027344 180.910156 414.027344 180.910156 414.027344 179.578125 C 414.027344 178.246094 416.027344 178.246094 416.027344 179.578125 "/>
<path style=" stroke:none;fill-rule:nonzero;fill:rgb(100%,0%,0%);fill-opacity:1;" d="M 270.699219 266.433594 C 270.699219 267.765625 268.699219 267.765625 268.699219 266.433594 C 268.699219 265.097656 270.699219 265.097656 270.699219 266.433594 "/>
<path style=" stroke:none;fill-rule:nonzero;fill:rgb(100%,0%,0%);fill-opacity:1;" d="M 53.003906 284.703125 C 53.003906 286.035156 51.003906 286.035156 51.003906 284.703125 C 51.003906 283.367188 53.003906 283.367188 53.003906 284.703125 "/>
<path style=" stroke:none;fill-rule:nonzero;fill:rgb(100%,0%,0%);fill-opacity:1;" d="M 66.402344 271.402344 C 66.402344 272.738281 64.402344 272.738281 64.402344 271.402344 C 64.402344 270.070312 66.402344 270.070312 66.402344 271.402344 "/>
<path style=" stroke:none;fill-rule:nonzero;fill:rgb(100%,0%,0%);fill-opacity:1;" d="M 56.585938 302.964844 C 56.585938 304.296875 54.585938 304.296875 54.585938 302.964844 C 54.585938 301.628906 56.585938 301.628906 56.585938 302.964844 "/>
<path style=" stroke:none;fill-rule:nonzero;fill:rgb(100%,0%,0%);fill-opacity:1;" d="M 34.832031 279.578125 C 34.832031 280.910156 32.832031 280.910156 32.832031 279.578125 C 32.832031 278.242188 34.832031 278.242188 34.832031 279.578125 "/>
<path style=" stroke:none;fill-rule:nonzero;fill:rgb(100%,0%,0%);fill-opacity:1;" d="M 431.289062 325.390625 C 431.289062 326.722656 429.289062 326.722656 429.289062 325.390625 C 429.289062 324.058594 431.289062 324.058594 431.289062 325.390625 "/>
<path style=" stroke:none;fill-rule:nonzero;fill:rgb(100%,0%,0%);fill-opacity:1;" d="M 229.019531 457.390625 C 229.019531 458.722656 227.019531 458.722656 227.019531 457.390625 C 227.019531 456.054688 229.019531 456.054688 229.019531 457.390625 "/>
<path style=" stroke:none;fill-rule:nonzero;fill:rgb(100%,0%,0%);fill-opacity:1;" d="M 242.242188 469.972656 C 242.242188 471.304688 240.242188 471.304688 240.242188 469.972656 C 240.242188 468.640625 242.242188 468.640625 242.242188 469.972656 "/>
<path style=" stroke:none;fill-rule:nonzero;fill:rgb(100%,0%,0%);fill-opacity:1;" d="M 233.472656 290.757812 C 233.472656 292.09375 231.472656 292.09375 231.472656 290.757812 C 231.472656 289.425781 233.472656 289.425781 233.472656 290.757812 "/>
<path style=" stroke:none;fill-rule:nonzero;fill:rgb(100%,0%,0%);fill-opacity:1;" d="M 218.613281 302.835938 C 218.613281 304.167969 216.613281 304.167969 216.613281 302.835938 C 216.613281 301.5 218.613281 301.5 218.613281 302.835938 "/>
<path style=" stroke:none;fill-rule:nonzero;fill:rgb(100%,0%,0%);fill-opacity:1;" d="M 356.875 93.738281 C 356.875 95.074219 354.875 95.074219 354.875 93.738281 C 354.875 92.40625 356.875 92.40625 356.875 93.738281 "/>
<path style=" stroke:none;fill-rule:nonzero;fill:rgb(100%,0%,0%);fill-opacity:1;" d="M 560.308594 282.027344 C 560.308594 283.359375 558.308594 283.359375 558.308594 282.027344 C 558.308594 280.695312 560.308594 280.695312 560.308594 282.027344 "/>
<path style=" stroke:none;fill-rule:nonzero;fill:rgb(100%,0%,0%);fill-opacity:1;" d="M 451.527344 325.566406 C 451.527344 326.898438 449.527344 326.898438 449.527344 325.566406 C 449.527344 324.230469 451.527344 324.230469 451.527344 325.566406 "/>
<path style=" stroke:none;fill-rule:nonzero;fill:rgb(100%,0%,0%);fill-opacity:1;" d="M 101.507812 482.238281 C 101.507812 483.574219 99.507812 483.574219 99.507812 482.238281 C 99.507812 480.90625 101.507812 480.90625 101.507812 482.238281 "/>
<path style=" stroke:none;fill-rule:nonzero;fill:rgb(100%,0%,0%);fill-opacity:1;" d="M 92.808594 465.6875 C 92.808594 467.023438 90.808594 467.023438 90.808594 465.6875 C 90.808594 464.355469 92.808594 464.355469 92.808594 465.6875 "/>
<path style=" stroke:none;fill-rule:nonzero;fill:rgb(100%,0%,0%);fill-opacity:1;" d="M 92.5625 498.636719 C 92.5625 499.972656 90.5625 499.972656 90.5625 498.636719 C 90.5625 497.304688 92.5625 497.304688 92.5625 498.636719 "/>
<path style=" stroke:none;fill-rule:nonzero;fill:rgb(100%,0%,0%);fill-opacity:1;" d="M 120.382812 482.546875 C 120.382812 483.878906 118.382812 483.878906 118.382812 482.546875 C 118.382812 481.210938 120.382812 481.210938 120.382812 482.546875 "/>
<path style=" stroke:none;fill-rule:nonzero;fill:rgb(100%,0%,0%);fill-opacity:1;" d="M 225.199219 425.640625 C 225.199219 426.972656 223.199219 426.972656 223.199219 425.640625 C 223.199219 424.304688 225.199219 424.304688 225.199219 425.640625 "/>
<path style=" stroke:none;fill-rule:nonzero;fill:rgb(100%,0%,0%);fill-opacity:1;" d="M 426.628906 52.441406 C 426.628906 53.777344 424.628906 53.777344 424.628906 52.441406 C 424.628906 51.109375 426.628906 51.109375 426.628906 52.441406 "/>
<path style=" stroke:none;fill-rule:nonzero;fill:rgb(100%,0%,0%);fill-opacity:1;" d="M 223.707031 187.910156 C 223.707031 189.242188 221.707031 189.242188 221.707031 187.910156 C 221.707031 186.578125 223.707031 186.578125 223.707031 187.910156 "/>
<path style=" stroke:none;fill-rule:nonzero;fill:rgb(100%,0%,0%);fill-opacity:1;" d="M 217.019531 169.058594 C 217.019531 170.390625 215.019531 170.390625 215.019531 169.058594 C 215.019531 167.726562 217.019531 167.726562 217.019531 169.058594 "/>
<path style=" stroke:none;fill-rule:nonzero;fill:rgb(100%,0%,0%);fill-opacity:1;" d="M 36.152344 409.660156 C 36.152344 410.992188 34.152344 410.992188 34.152344 409.660156 C 34.152344 408.324219 36.152344 408.324219 36.152344 409.660156 "/>
<path style=" stroke:none;fill-rule:nonzero;fill:rgb(100%,0%,0%);fill-opacity:1;" d="M 34.636719 202.46875 C 34.636719 203.800781 32.636719 203.800781 32.636719 202.46875 C 32.636719 201.132812 34.636719 201.132812 34.636719 202.46875 "/>
<path style=" stroke:none;fill-rule:nonzero;fill:rgb(100%,0%,0%);fill-opacity:1;" d="M 64.535156 187.546875 C 64.535156 188.882812 62.535156 188.882812 62.535156 187.546875 C 62.535156 186.214844 64.535156 186.214844 64.535156 187.546875 "/>
<path style=" stroke:none;fill-rule:nonzero;fill:rgb(100%,0%,0%);fill-opacity:1;" d="M 463.695312 369.171875 C 463.695312 370.503906 461.695312 370.503906 461.695312 369.171875 C 461.695312 367.835938 463.695312 367.835938 463.695312 369.171875 "/>
<path style=" stroke:none;fill-rule:nonzero;fill:rgb(100%,0%,0%);fill-opacity:1;" d="M 260.855469 198.886719 C 260.855469 200.21875 258.855469 200.21875 258.855469 198.886719 C 258.855469 197.554688 260.855469 197.554688 260.855469 198.886719 "/>
<path style=" stroke:none;fill-rule:nonzero;fill:rgb(100%,0%,0%);fill-opacity:1;" d="M 270.34375 180.808594 C 270.34375 182.140625 268.34375 182.140625 268.34375 180.808594 C 268.34375 179.472656 270.34375 179.472656 270.34375 180.808594 "/>
<path style=" stroke:none;fill-rule:nonzero;fill:rgb(100%,0%,0%);fill-opacity:1;" d="M 281.640625 204.148438 C 281.640625 205.480469 279.640625 205.480469 279.640625 204.148438 C 279.640625 202.8125 281.640625 202.8125 281.640625 204.148438 "/>
<path style=" stroke:none;fill-rule:nonzero;fill:rgb(100%,0%,0%);fill-opacity:1;" d="M 276.964844 288.019531 C 276.964844 289.355469 274.964844 289.355469 274.964844 288.019531 C 274.964844 286.6875 276.964844 286.6875 276.964844 288.019531 "/>
</g>
</svg>
