<?xml version="1.0" encoding="utf-8" standalone="no"?>
<!DOCTYPE svg PUBLIC "-//W3C//DTD SVG 1.1//EN"
  "http://www.w3.org/Graphics/SVG/1.1/DTD/svg11.dtd">
<svg xmlns:xlink="http://www.w3.org/1999/xlink" width="345.6pt" height="259.2pt" viewBox="0 0 345.6 259.2" xmlns="http://www.w3.org/2000/svg" version="1.1">
 <metadata>
  <rdf:RDF xmlns:dc="http://purl.org/dc/elements/1.1/" xmlns:cc="http://creativecommons.org/ns#" xmlns:rdf="http://www.w3.org/1999/02/22-rdf-syntax-ns#">
   <cc:Work>
    <dc:type rdf:resource="http://purl.org/dc/dcmitype/StillImage"/>
    <dc:date>2024-10-23T12:37:56.995867</dc:date>
    <dc:format>image/svg+xml</dc:format>
    <dc:creator>
     <cc:Agent>
      <dc:title>Matplotlib v3.9.2, https://matplotlib.org/</dc:title>
     </cc:Agent>
    </dc:creator>
   </cc:Work>
  </rdf:RDF>
 </metadata>
 <defs>
  <style type="text/css">*{stroke-linejoin: round; stroke-linecap: butt}</style>
 </defs>
 <g id="figure_1">
  <g id="patch_1">
   <path d="M 0 259.2 
L 345.6 259.2 
L 345.6 0 
L 0 0 
z
" style="fill: #ffffff"/>
  </g>
  <g id="axes_1">
   <g id="patch_2">
    <path d="M 56.735346 213.208 
L 334.8 213.208 
L 334.8 13.234267 
L 56.735346 13.234267 
z
" style="fill: #e5e5e5"/>
   </g>
   <g id="matplotlib.axis_1">
    <g id="xtick_1">
     <g id="line2d_1">
      <path d="M 62.492317 213.208 
L 62.492317 13.234267 
" clip-path="url(#p94dbe5edbb)" style="fill: none; stroke: #ffffff; stroke-width: 0.8; stroke-linecap: square"/>
     </g>
     <g id="line2d_2">
      <defs>
       <path id="m04b7beddf9" d="M 0 0 
L 0 3.5 
" style="stroke: #555555; stroke-width: 0.8"/>
      </defs>
      <g>
       <use xlink:href="#m04b7beddf9" x="62.492317" y="213.208" style="fill: #555555; stroke: #555555; stroke-width: 0.8"/>
      </g>
     </g>
     <g id="text_1">
      <!-- $\mathdefault{10^{0}}$ -->
      <g style="fill: #555555" transform="translate(53.692317 227.806437) scale(0.1 -0.1)">
       <defs>
        <path id="DejaVuSans-31" d="M 794 531 
L 1825 531 
L 1825 4091 
L 703 3866 
L 703 4441 
L 1819 4666 
L 2450 4666 
L 2450 531 
L 3481 531 
L 3481 0 
L 794 0 
L 794 531 
z
" transform="scale(0.015625)"/>
        <path id="DejaVuSans-30" d="M 2034 4250 
Q 1547 4250 1301 3770 
Q 1056 3291 1056 2328 
Q 1056 1369 1301 889 
Q 1547 409 2034 409 
Q 2525 409 2770 889 
Q 3016 1369 3016 2328 
Q 3016 3291 2770 3770 
Q 2525 4250 2034 4250 
z
M 2034 4750 
Q 2819 4750 3233 4129 
Q 3647 3509 3647 2328 
Q 3647 1150 3233 529 
Q 2819 -91 2034 -91 
Q 1250 -91 836 529 
Q 422 1150 422 2328 
Q 422 3509 836 4129 
Q 1250 4750 2034 4750 
z
" transform="scale(0.015625)"/>
       </defs>
       <use xlink:href="#DejaVuSans-31" transform="translate(0 0.765625)"/>
       <use xlink:href="#DejaVuSans-30" transform="translate(63.623047 0.765625)"/>
       <use xlink:href="#DejaVuSans-30" transform="translate(128.203125 39.046875) scale(0.7)"/>
      </g>
     </g>
    </g>
    <g id="xtick_2">
     <g id="line2d_3">
      <path d="M 188.307145 213.208 
L 188.307145 13.234267 
" clip-path="url(#p94dbe5edbb)" style="fill: none; stroke: #ffffff; stroke-width: 0.8; stroke-linecap: square"/>
     </g>
     <g id="line2d_4">
      <g>
       <use xlink:href="#m04b7beddf9" x="188.307145" y="213.208" style="fill: #555555; stroke: #555555; stroke-width: 0.8"/>
      </g>
     </g>
     <g id="text_2">
      <!-- $\mathdefault{10^{1}}$ -->
      <g style="fill: #555555" transform="translate(179.507145 227.806437) scale(0.1 -0.1)">
       <use xlink:href="#DejaVuSans-31" transform="translate(0 0.684375)"/>
       <use xlink:href="#DejaVuSans-30" transform="translate(63.623047 0.684375)"/>
       <use xlink:href="#DejaVuSans-31" transform="translate(128.203125 38.965625) scale(0.7)"/>
      </g>
     </g>
    </g>
    <g id="xtick_3">
     <g id="line2d_5">
      <path d="M 314.121974 213.208 
L 314.121974 13.234267 
" clip-path="url(#p94dbe5edbb)" style="fill: none; stroke: #ffffff; stroke-width: 0.8; stroke-linecap: square"/>
     </g>
     <g id="line2d_6">
      <g>
       <use xlink:href="#m04b7beddf9" x="314.121974" y="213.208" style="fill: #555555; stroke: #555555; stroke-width: 0.8"/>
      </g>
     </g>
     <g id="text_3">
      <!-- $\mathdefault{10^{2}}$ -->
      <g style="fill: #555555" transform="translate(305.321974 227.806437) scale(0.1 -0.1)">
       <defs>
        <path id="DejaVuSans-32" d="M 1228 531 
L 3431 531 
L 3431 0 
L 469 0 
L 469 531 
Q 828 903 1448 1529 
Q 2069 2156 2228 2338 
Q 2531 2678 2651 2914 
Q 2772 3150 2772 3378 
Q 2772 3750 2511 3984 
Q 2250 4219 1831 4219 
Q 1534 4219 1204 4116 
Q 875 4013 500 3803 
L 500 4441 
Q 881 4594 1212 4672 
Q 1544 4750 1819 4750 
Q 2544 4750 2975 4387 
Q 3406 4025 3406 3419 
Q 3406 3131 3298 2873 
Q 3191 2616 2906 2266 
Q 2828 2175 2409 1742 
Q 1991 1309 1228 531 
z
" transform="scale(0.015625)"/>
       </defs>
       <use xlink:href="#DejaVuSans-31" transform="translate(0 0.765625)"/>
       <use xlink:href="#DejaVuSans-30" transform="translate(63.623047 0.765625)"/>
       <use xlink:href="#DejaVuSans-32" transform="translate(128.203125 39.046875) scale(0.7)"/>
      </g>
     </g>
    </g>
    <g id="xtick_4">
     <g id="line2d_7">
      <defs>
       <path id="m3515bd8f55" d="M 0 0 
L 0 2 
" style="stroke: #555555; stroke-width: 0.6"/>
      </defs>
      <g>
       <use xlink:href="#m3515bd8f55" x="56.735346" y="213.208" style="fill: #555555; stroke: #555555; stroke-width: 0.6"/>
      </g>
     </g>
    </g>
    <g id="xtick_5">
     <g id="line2d_8">
      <g>
       <use xlink:href="#m3515bd8f55" x="100.366354" y="213.208" style="fill: #555555; stroke: #555555; stroke-width: 0.6"/>
      </g>
     </g>
    </g>
    <g id="xtick_6">
     <g id="line2d_9">
      <g>
       <use xlink:href="#m3515bd8f55" x="122.521246" y="213.208" style="fill: #555555; stroke: #555555; stroke-width: 0.6"/>
      </g>
     </g>
    </g>
    <g id="xtick_7">
     <g id="line2d_10">
      <g>
       <use xlink:href="#m3515bd8f55" x="138.240391" y="213.208" style="fill: #555555; stroke: #555555; stroke-width: 0.6"/>
      </g>
     </g>
    </g>
    <g id="xtick_8">
     <g id="line2d_11">
      <g>
       <use xlink:href="#m3515bd8f55" x="150.433108" y="213.208" style="fill: #555555; stroke: #555555; stroke-width: 0.6"/>
      </g>
     </g>
    </g>
    <g id="xtick_9">
     <g id="line2d_12">
      <g>
       <use xlink:href="#m3515bd8f55" x="160.395283" y="213.208" style="fill: #555555; stroke: #555555; stroke-width: 0.6"/>
      </g>
     </g>
    </g>
    <g id="xtick_10">
     <g id="line2d_13">
      <g>
       <use xlink:href="#m3515bd8f55" x="168.818182" y="213.208" style="fill: #555555; stroke: #555555; stroke-width: 0.6"/>
      </g>
     </g>
    </g>
    <g id="xtick_11">
     <g id="line2d_14">
      <g>
       <use xlink:href="#m3515bd8f55" x="176.114429" y="213.208" style="fill: #555555; stroke: #555555; stroke-width: 0.6"/>
      </g>
     </g>
    </g>
    <g id="xtick_12">
     <g id="line2d_15">
      <g>
       <use xlink:href="#m3515bd8f55" x="182.550174" y="213.208" style="fill: #555555; stroke: #555555; stroke-width: 0.6"/>
      </g>
     </g>
    </g>
    <g id="xtick_13">
     <g id="line2d_16">
      <g>
       <use xlink:href="#m3515bd8f55" x="226.181183" y="213.208" style="fill: #555555; stroke: #555555; stroke-width: 0.6"/>
      </g>
     </g>
    </g>
    <g id="xtick_14">
     <g id="line2d_17">
      <g>
       <use xlink:href="#m3515bd8f55" x="248.336074" y="213.208" style="fill: #555555; stroke: #555555; stroke-width: 0.6"/>
      </g>
     </g>
    </g>
    <g id="xtick_15">
     <g id="line2d_18">
      <g>
       <use xlink:href="#m3515bd8f55" x="264.05522" y="213.208" style="fill: #555555; stroke: #555555; stroke-width: 0.6"/>
      </g>
     </g>
    </g>
    <g id="xtick_16">
     <g id="line2d_19">
      <g>
       <use xlink:href="#m3515bd8f55" x="276.247936" y="213.208" style="fill: #555555; stroke: #555555; stroke-width: 0.6"/>
      </g>
     </g>
    </g>
    <g id="xtick_17">
     <g id="line2d_20">
      <g>
       <use xlink:href="#m3515bd8f55" x="286.210111" y="213.208" style="fill: #555555; stroke: #555555; stroke-width: 0.6"/>
      </g>
     </g>
    </g>
    <g id="xtick_18">
     <g id="line2d_21">
      <g>
       <use xlink:href="#m3515bd8f55" x="294.63301" y="213.208" style="fill: #555555; stroke: #555555; stroke-width: 0.6"/>
      </g>
     </g>
    </g>
    <g id="xtick_19">
     <g id="line2d_22">
      <g>
       <use xlink:href="#m3515bd8f55" x="301.929257" y="213.208" style="fill: #555555; stroke: #555555; stroke-width: 0.6"/>
      </g>
     </g>
    </g>
    <g id="xtick_20">
     <g id="line2d_23">
      <g>
       <use xlink:href="#m3515bd8f55" x="308.365003" y="213.208" style="fill: #555555; stroke: #555555; stroke-width: 0.6"/>
      </g>
     </g>
    </g>
    <g id="text_4">
     <!-- k -->
     <g style="fill: #555555" transform="translate(192.293298 243.00425) scale(0.12 -0.12)">
      <defs>
       <path id="DejaVuSans-6b" d="M 581 4863 
L 1159 4863 
L 1159 1991 
L 2875 3500 
L 3609 3500 
L 1753 1863 
L 3688 0 
L 2938 0 
L 1159 1709 
L 1159 0 
L 581 0 
L 581 4863 
z
" transform="scale(0.015625)"/>
      </defs>
      <use xlink:href="#DejaVuSans-6b"/>
     </g>
    </g>
   </g>
   <g id="matplotlib.axis_2">
    <g id="ytick_1">
     <g id="line2d_24">
      <path d="M 56.735346 213.208 
L 334.8 213.208 
" clip-path="url(#p94dbe5edbb)" style="fill: none; stroke: #ffffff; stroke-width: 0.8; stroke-linecap: square"/>
     </g>
     <g id="line2d_25">
      <defs>
       <path id="m2c38d14836" d="M 0 0 
L -3.5 0 
" style="stroke: #555555; stroke-width: 0.8"/>
      </defs>
      <g>
       <use xlink:href="#m2c38d14836" x="56.735346" y="213.208" style="fill: #555555; stroke: #555555; stroke-width: 0.8"/>
      </g>
     </g>
     <g id="text_5">
      <!-- $\mathdefault{10^{-4}}$ -->
      <g style="fill: #555555" transform="translate(26.235346 217.007219) scale(0.1 -0.1)">
       <defs>
        <path id="DejaVuSans-2212" d="M 678 2272 
L 4684 2272 
L 4684 1741 
L 678 1741 
L 678 2272 
z
" transform="scale(0.015625)"/>
        <path id="DejaVuSans-34" d="M 2419 4116 
L 825 1625 
L 2419 1625 
L 2419 4116 
z
M 2253 4666 
L 3047 4666 
L 3047 1625 
L 3713 1625 
L 3713 1100 
L 3047 1100 
L 3047 0 
L 2419 0 
L 2419 1100 
L 313 1100 
L 313 1709 
L 2253 4666 
z
" transform="scale(0.015625)"/>
       </defs>
       <use xlink:href="#DejaVuSans-31" transform="translate(0 0.684375)"/>
       <use xlink:href="#DejaVuSans-30" transform="translate(63.623047 0.684375)"/>
       <use xlink:href="#DejaVuSans-2212" transform="translate(128.203125 38.965625) scale(0.7)"/>
       <use xlink:href="#DejaVuSans-34" transform="translate(186.855469 38.965625) scale(0.7)"/>
      </g>
     </g>
    </g>
    <g id="ytick_2">
     <g id="line2d_26">
      <path d="M 56.735346 164.011553 
L 334.8 164.011553 
" clip-path="url(#p94dbe5edbb)" style="fill: none; stroke: #ffffff; stroke-width: 0.8; stroke-linecap: square"/>
     </g>
     <g id="line2d_27">
      <g>
       <use xlink:href="#m2c38d14836" x="56.735346" y="164.011553" style="fill: #555555; stroke: #555555; stroke-width: 0.8"/>
      </g>
     </g>
     <g id="text_6">
      <!-- $\mathdefault{10^{-3}}$ -->
      <g style="fill: #555555" transform="translate(26.235346 167.810772) scale(0.1 -0.1)">
       <defs>
        <path id="DejaVuSans-33" d="M 2597 2516 
Q 3050 2419 3304 2112 
Q 3559 1806 3559 1356 
Q 3559 666 3084 287 
Q 2609 -91 1734 -91 
Q 1441 -91 1130 -33 
Q 819 25 488 141 
L 488 750 
Q 750 597 1062 519 
Q 1375 441 1716 441 
Q 2309 441 2620 675 
Q 2931 909 2931 1356 
Q 2931 1769 2642 2001 
Q 2353 2234 1838 2234 
L 1294 2234 
L 1294 2753 
L 1863 2753 
Q 2328 2753 2575 2939 
Q 2822 3125 2822 3475 
Q 2822 3834 2567 4026 
Q 2313 4219 1838 4219 
Q 1578 4219 1281 4162 
Q 984 4106 628 3988 
L 628 4550 
Q 988 4650 1302 4700 
Q 1616 4750 1894 4750 
Q 2613 4750 3031 4423 
Q 3450 4097 3450 3541 
Q 3450 3153 3228 2886 
Q 3006 2619 2597 2516 
z
" transform="scale(0.015625)"/>
       </defs>
       <use xlink:href="#DejaVuSans-31" transform="translate(0 0.765625)"/>
       <use xlink:href="#DejaVuSans-30" transform="translate(63.623047 0.765625)"/>
       <use xlink:href="#DejaVuSans-2212" transform="translate(128.203125 39.046875) scale(0.7)"/>
       <use xlink:href="#DejaVuSans-33" transform="translate(186.855469 39.046875) scale(0.7)"/>
      </g>
     </g>
    </g>
    <g id="ytick_3">
     <g id="line2d_28">
      <path d="M 56.735346 114.815107 
L 334.8 114.815107 
" clip-path="url(#p94dbe5edbb)" style="fill: none; stroke: #ffffff; stroke-width: 0.8; stroke-linecap: square"/>
     </g>
     <g id="line2d_29">
      <g>
       <use xlink:href="#m2c38d14836" x="56.735346" y="114.815107" style="fill: #555555; stroke: #555555; stroke-width: 0.8"/>
      </g>
     </g>
     <g id="text_7">
      <!-- $\mathdefault{10^{-2}}$ -->
      <g style="fill: #555555" transform="translate(26.235346 118.614325) scale(0.1 -0.1)">
       <use xlink:href="#DejaVuSans-31" transform="translate(0 0.765625)"/>
       <use xlink:href="#DejaVuSans-30" transform="translate(63.623047 0.765625)"/>
       <use xlink:href="#DejaVuSans-2212" transform="translate(128.203125 39.046875) scale(0.7)"/>
       <use xlink:href="#DejaVuSans-32" transform="translate(186.855469 39.046875) scale(0.7)"/>
      </g>
     </g>
    </g>
    <g id="ytick_4">
     <g id="line2d_30">
      <path d="M 56.735346 65.61866 
L 334.8 65.61866 
" clip-path="url(#p94dbe5edbb)" style="fill: none; stroke: #ffffff; stroke-width: 0.8; stroke-linecap: square"/>
     </g>
     <g id="line2d_31">
      <g>
       <use xlink:href="#m2c38d14836" x="56.735346" y="65.61866" style="fill: #555555; stroke: #555555; stroke-width: 0.8"/>
      </g>
     </g>
     <g id="text_8">
      <!-- $\mathdefault{10^{-1}}$ -->
      <g style="fill: #555555" transform="translate(26.235346 69.417879) scale(0.1 -0.1)">
       <use xlink:href="#DejaVuSans-31" transform="translate(0 0.684375)"/>
       <use xlink:href="#DejaVuSans-30" transform="translate(63.623047 0.684375)"/>
       <use xlink:href="#DejaVuSans-2212" transform="translate(128.203125 38.965625) scale(0.7)"/>
       <use xlink:href="#DejaVuSans-31" transform="translate(186.855469 38.965625) scale(0.7)"/>
      </g>
     </g>
    </g>
    <g id="ytick_5">
     <g id="line2d_32">
      <path d="M 56.735346 16.422213 
L 334.8 16.422213 
" clip-path="url(#p94dbe5edbb)" style="fill: none; stroke: #ffffff; stroke-width: 0.8; stroke-linecap: square"/>
     </g>
     <g id="line2d_33">
      <g>
       <use xlink:href="#m2c38d14836" x="56.735346" y="16.422213" style="fill: #555555; stroke: #555555; stroke-width: 0.8"/>
      </g>
     </g>
     <g id="text_9">
      <!-- $\mathdefault{10^{0}}$ -->
      <g style="fill: #555555" transform="translate(32.135346 20.221432) scale(0.1 -0.1)">
       <use xlink:href="#DejaVuSans-31" transform="translate(0 0.765625)"/>
       <use xlink:href="#DejaVuSans-30" transform="translate(63.623047 0.765625)"/>
       <use xlink:href="#DejaVuSans-30" transform="translate(128.203125 39.046875) scale(0.7)"/>
      </g>
     </g>
    </g>
    <g id="ytick_6">
     <g id="line2d_34">
      <defs>
       <path id="mee1d681f73" d="M 0 0 
L -2 0 
" style="stroke: #555555; stroke-width: 0.6"/>
      </defs>
      <g>
       <use xlink:href="#mee1d681f73" x="56.735346" y="198.398394" style="fill: #555555; stroke: #555555; stroke-width: 0.6"/>
      </g>
     </g>
    </g>
    <g id="ytick_7">
     <g id="line2d_35">
      <g>
       <use xlink:href="#mee1d681f73" x="56.735346" y="189.73533" style="fill: #555555; stroke: #555555; stroke-width: 0.6"/>
      </g>
     </g>
    </g>
    <g id="ytick_8">
     <g id="line2d_36">
      <g>
       <use xlink:href="#mee1d681f73" x="56.735346" y="183.588788" style="fill: #555555; stroke: #555555; stroke-width: 0.6"/>
      </g>
     </g>
    </g>
    <g id="ytick_9">
     <g id="line2d_37">
      <g>
       <use xlink:href="#mee1d681f73" x="56.735346" y="178.821159" style="fill: #555555; stroke: #555555; stroke-width: 0.6"/>
      </g>
     </g>
    </g>
    <g id="ytick_10">
     <g id="line2d_38">
      <g>
       <use xlink:href="#mee1d681f73" x="56.735346" y="174.925723" style="fill: #555555; stroke: #555555; stroke-width: 0.6"/>
      </g>
     </g>
    </g>
    <g id="ytick_11">
     <g id="line2d_39">
      <g>
       <use xlink:href="#mee1d681f73" x="56.735346" y="171.632179" style="fill: #555555; stroke: #555555; stroke-width: 0.6"/>
      </g>
     </g>
    </g>
    <g id="ytick_12">
     <g id="line2d_40">
      <g>
       <use xlink:href="#mee1d681f73" x="56.735346" y="168.779182" style="fill: #555555; stroke: #555555; stroke-width: 0.6"/>
      </g>
     </g>
    </g>
    <g id="ytick_13">
     <g id="line2d_41">
      <g>
       <use xlink:href="#mee1d681f73" x="56.735346" y="166.262659" style="fill: #555555; stroke: #555555; stroke-width: 0.6"/>
      </g>
     </g>
    </g>
    <g id="ytick_14">
     <g id="line2d_42">
      <g>
       <use xlink:href="#mee1d681f73" x="56.735346" y="149.201947" style="fill: #555555; stroke: #555555; stroke-width: 0.6"/>
      </g>
     </g>
    </g>
    <g id="ytick_15">
     <g id="line2d_43">
      <g>
       <use xlink:href="#mee1d681f73" x="56.735346" y="140.538883" style="fill: #555555; stroke: #555555; stroke-width: 0.6"/>
      </g>
     </g>
    </g>
    <g id="ytick_16">
     <g id="line2d_44">
      <g>
       <use xlink:href="#mee1d681f73" x="56.735346" y="134.392341" style="fill: #555555; stroke: #555555; stroke-width: 0.6"/>
      </g>
     </g>
    </g>
    <g id="ytick_17">
     <g id="line2d_45">
      <g>
       <use xlink:href="#mee1d681f73" x="56.735346" y="129.624713" style="fill: #555555; stroke: #555555; stroke-width: 0.6"/>
      </g>
     </g>
    </g>
    <g id="ytick_18">
     <g id="line2d_46">
      <g>
       <use xlink:href="#mee1d681f73" x="56.735346" y="125.729277" style="fill: #555555; stroke: #555555; stroke-width: 0.6"/>
      </g>
     </g>
    </g>
    <g id="ytick_19">
     <g id="line2d_47">
      <g>
       <use xlink:href="#mee1d681f73" x="56.735346" y="122.435733" style="fill: #555555; stroke: #555555; stroke-width: 0.6"/>
      </g>
     </g>
    </g>
    <g id="ytick_20">
     <g id="line2d_48">
      <g>
       <use xlink:href="#mee1d681f73" x="56.735346" y="119.582735" style="fill: #555555; stroke: #555555; stroke-width: 0.6"/>
      </g>
     </g>
    </g>
    <g id="ytick_21">
     <g id="line2d_49">
      <g>
       <use xlink:href="#mee1d681f73" x="56.735346" y="117.066212" style="fill: #555555; stroke: #555555; stroke-width: 0.6"/>
      </g>
     </g>
    </g>
    <g id="ytick_22">
     <g id="line2d_50">
      <g>
       <use xlink:href="#mee1d681f73" x="56.735346" y="100.0055" style="fill: #555555; stroke: #555555; stroke-width: 0.6"/>
      </g>
     </g>
    </g>
    <g id="ytick_23">
     <g id="line2d_51">
      <g>
       <use xlink:href="#mee1d681f73" x="56.735346" y="91.342436" style="fill: #555555; stroke: #555555; stroke-width: 0.6"/>
      </g>
     </g>
    </g>
    <g id="ytick_24">
     <g id="line2d_52">
      <g>
       <use xlink:href="#mee1d681f73" x="56.735346" y="85.195894" style="fill: #555555; stroke: #555555; stroke-width: 0.6"/>
      </g>
     </g>
    </g>
    <g id="ytick_25">
     <g id="line2d_53">
      <g>
       <use xlink:href="#mee1d681f73" x="56.735346" y="80.428266" style="fill: #555555; stroke: #555555; stroke-width: 0.6"/>
      </g>
     </g>
    </g>
    <g id="ytick_26">
     <g id="line2d_54">
      <g>
       <use xlink:href="#mee1d681f73" x="56.735346" y="76.53283" style="fill: #555555; stroke: #555555; stroke-width: 0.6"/>
      </g>
     </g>
    </g>
    <g id="ytick_27">
     <g id="line2d_55">
      <g>
       <use xlink:href="#mee1d681f73" x="56.735346" y="73.239286" style="fill: #555555; stroke: #555555; stroke-width: 0.6"/>
      </g>
     </g>
    </g>
    <g id="ytick_28">
     <g id="line2d_56">
      <g>
       <use xlink:href="#mee1d681f73" x="56.735346" y="70.386288" style="fill: #555555; stroke: #555555; stroke-width: 0.6"/>
      </g>
     </g>
    </g>
    <g id="ytick_29">
     <g id="line2d_57">
      <g>
       <use xlink:href="#mee1d681f73" x="56.735346" y="67.869766" style="fill: #555555; stroke: #555555; stroke-width: 0.6"/>
      </g>
     </g>
    </g>
    <g id="ytick_30">
     <g id="line2d_58">
      <g>
       <use xlink:href="#mee1d681f73" x="56.735346" y="50.809054" style="fill: #555555; stroke: #555555; stroke-width: 0.6"/>
      </g>
     </g>
    </g>
    <g id="ytick_31">
     <g id="line2d_59">
      <g>
       <use xlink:href="#mee1d681f73" x="56.735346" y="42.145989" style="fill: #555555; stroke: #555555; stroke-width: 0.6"/>
      </g>
     </g>
    </g>
    <g id="ytick_32">
     <g id="line2d_60">
      <g>
       <use xlink:href="#mee1d681f73" x="56.735346" y="35.999447" style="fill: #555555; stroke: #555555; stroke-width: 0.6"/>
      </g>
     </g>
    </g>
    <g id="ytick_33">
     <g id="line2d_61">
      <g>
       <use xlink:href="#mee1d681f73" x="56.735346" y="31.231819" style="fill: #555555; stroke: #555555; stroke-width: 0.6"/>
      </g>
     </g>
    </g>
    <g id="ytick_34">
     <g id="line2d_62">
      <g>
       <use xlink:href="#mee1d681f73" x="56.735346" y="27.336383" style="fill: #555555; stroke: #555555; stroke-width: 0.6"/>
      </g>
     </g>
    </g>
    <g id="ytick_35">
     <g id="line2d_63">
      <g>
       <use xlink:href="#mee1d681f73" x="56.735346" y="24.042839" style="fill: #555555; stroke: #555555; stroke-width: 0.6"/>
      </g>
     </g>
    </g>
    <g id="ytick_36">
     <g id="line2d_64">
      <g>
       <use xlink:href="#mee1d681f73" x="56.735346" y="21.189841" style="fill: #555555; stroke: #555555; stroke-width: 0.6"/>
      </g>
     </g>
    </g>
    <g id="ytick_37">
     <g id="line2d_65">
      <g>
       <use xlink:href="#mee1d681f73" x="56.735346" y="18.673319" style="fill: #555555; stroke: #555555; stroke-width: 0.6"/>
      </g>
     </g>
    </g>
    <g id="text_10">
     <!-- p(k) -->
     <g style="fill: #555555" transform="translate(19.739721 125.186446) rotate(-90) scale(0.12 -0.12)">
      <defs>
       <path id="DejaVuSans-70" d="M 1159 525 
L 1159 -1331 
L 581 -1331 
L 581 3500 
L 1159 3500 
L 1159 2969 
Q 1341 3281 1617 3432 
Q 1894 3584 2278 3584 
Q 2916 3584 3314 3078 
Q 3713 2572 3713 1747 
Q 3713 922 3314 415 
Q 2916 -91 2278 -91 
Q 1894 -91 1617 61 
Q 1341 213 1159 525 
z
M 3116 1747 
Q 3116 2381 2855 2742 
Q 2594 3103 2138 3103 
Q 1681 3103 1420 2742 
Q 1159 2381 1159 1747 
Q 1159 1113 1420 752 
Q 1681 391 2138 391 
Q 2594 391 2855 752 
Q 3116 1113 3116 1747 
z
" transform="scale(0.015625)"/>
       <path id="DejaVuSans-28" d="M 1984 4856 
Q 1566 4138 1362 3434 
Q 1159 2731 1159 2009 
Q 1159 1288 1364 580 
Q 1569 -128 1984 -844 
L 1484 -844 
Q 1016 -109 783 600 
Q 550 1309 550 2009 
Q 550 2706 781 3412 
Q 1013 4119 1484 4856 
L 1984 4856 
z
" transform="scale(0.015625)"/>
       <path id="DejaVuSans-29" d="M 513 4856 
L 1013 4856 
Q 1481 4119 1714 3412 
Q 1947 2706 1947 2009 
Q 1947 1309 1714 600 
Q 1481 -109 1013 -844 
L 513 -844 
Q 928 -128 1133 580 
Q 1338 1288 1338 2009 
Q 1338 2731 1133 3434 
Q 928 4138 513 4856 
z
" transform="scale(0.015625)"/>
      </defs>
      <use xlink:href="#DejaVuSans-70"/>
      <use xlink:href="#DejaVuSans-28" x="63.476562"/>
      <use xlink:href="#DejaVuSans-6b" x="102.490234"/>
      <use xlink:href="#DejaVuSans-29" x="160.400391"/>
     </g>
    </g>
   </g>
   <g id="PathCollection_1">
    <defs>
     <path id="mad72125453" d="M 0 1.936492 
C 0.513564 1.936492 1.006162 1.732451 1.369306 1.369306 
C 1.732451 1.006162 1.936492 0.513564 1.936492 0 
C 1.936492 -0.513564 1.732451 -1.006162 1.369306 -1.369306 
C 1.006162 -1.732451 0.513564 -1.936492 0 -1.936492 
C -0.513564 -1.936492 -1.006162 -1.732451 -1.369306 -1.369306 
C -1.732451 -1.006162 -1.936492 -0.513564 -1.936492 0 
C -1.936492 0.513564 -1.732451 1.006162 -1.369306 1.369306 
C -1.006162 1.732451 -0.513564 1.936492 0 1.936492 
z
" style="stroke: #e24a33; stroke-width: 0.5"/>
    </defs>
    <g clip-path="url(#p94dbe5edbb)">
     <use xlink:href="#mad72125453" x="62.492317" y="37.685573" style="fill: #e24a33; stroke: #e24a33; stroke-width: 0.5"/>
     <use xlink:href="#mad72125453" x="100.366354" y="92.924669" style="fill: #e24a33; stroke: #e24a33; stroke-width: 0.5"/>
     <use xlink:href="#mad72125453" x="122.521246" y="118.227432" style="fill: #e24a33; stroke: #e24a33; stroke-width: 0.5"/>
     <use xlink:href="#mad72125453" x="138.240391" y="135.81572" style="fill: #e24a33; stroke: #e24a33; stroke-width: 0.5"/>
     <use xlink:href="#mad72125453" x="150.433108" y="144.478784" style="fill: #e24a33; stroke: #e24a33; stroke-width: 0.5"/>
     <use xlink:href="#mad72125453" x="160.395283" y="155.994846" style="fill: #e24a33; stroke: #e24a33; stroke-width: 0.5"/>
     <use xlink:href="#mad72125453" x="168.818182" y="163.183827" style="fill: #e24a33; stroke: #e24a33; stroke-width: 0.5"/>
     <use xlink:href="#mad72125453" x="176.114429" y="167.951455" style="fill: #e24a33; stroke: #e24a33; stroke-width: 0.5"/>
     <use xlink:href="#mad72125453" x="182.550174" y="174.097997" style="fill: #e24a33; stroke: #e24a33; stroke-width: 0.5"/>
     <use xlink:href="#mad72125453" x="188.307145" y="174.097997" style="fill: #e24a33; stroke: #e24a33; stroke-width: 0.5"/>
     <use xlink:href="#mad72125453" x="193.514959" y="182.761061" style="fill: #e24a33; stroke: #e24a33; stroke-width: 0.5"/>
     <use xlink:href="#mad72125453" x="198.26932" y="197.570667" style="fill: #e24a33; stroke: #e24a33; stroke-width: 0.5"/>
     <use xlink:href="#mad72125453" x="202.642909" y="197.570667" style="fill: #e24a33; stroke: #e24a33; stroke-width: 0.5"/>
     <use xlink:href="#mad72125453" x="210.462037" y="182.761061" style="fill: #e24a33; stroke: #e24a33; stroke-width: 0.5"/>
     <use xlink:href="#mad72125453" x="213.988466" y="197.570667" style="fill: #e24a33; stroke: #e24a33; stroke-width: 0.5"/>
     <use xlink:href="#mad72125453" x="223.378482" y="197.570667" style="fill: #e24a33; stroke: #e24a33; stroke-width: 0.5"/>
     <use xlink:href="#mad72125453" x="228.847111" y="197.570667" style="fill: #e24a33; stroke: #e24a33; stroke-width: 0.5"/>
     <use xlink:href="#mad72125453" x="231.388996" y="197.570667" style="fill: #e24a33; stroke: #e24a33; stroke-width: 0.5"/>
     <use xlink:href="#mad72125453" x="274.017395" y="197.570667" style="fill: #e24a33; stroke: #e24a33; stroke-width: 0.5"/>
     <use xlink:href="#mad72125453" x="275.144047" y="197.570667" style="fill: #e24a33; stroke: #e24a33; stroke-width: 0.5"/>
     <use xlink:href="#mad72125453" x="296.925963" y="197.570667" style="fill: #e24a33; stroke: #e24a33; stroke-width: 0.5"/>
    </g>
   </g>
   <g id="patch_3">
    <path d="M 56.735346 213.208 
L 56.735346 13.234267 
" style="fill: none; stroke: #ffffff; stroke-linejoin: miter; stroke-linecap: square"/>
   </g>
   <g id="patch_4">
    <path d="M 334.8 213.208 
L 334.8 13.234267 
" style="fill: none; stroke: #ffffff; stroke-linejoin: miter; stroke-linecap: square"/>
   </g>
   <g id="patch_5">
    <path d="M 56.735346 213.208 
L 334.8 213.208 
" style="fill: none; stroke: #ffffff; stroke-linejoin: miter; stroke-linecap: square"/>
   </g>
   <g id="patch_6">
    <path d="M 56.735346 13.234267 
L 334.8 13.234267 
" style="fill: none; stroke: #ffffff; stroke-linejoin: miter; stroke-linecap: square"/>
   </g>
  </g>
 </g>
 <defs>
  <clipPath id="p94dbe5edbb">
   <rect x="56.735346" y="13.234267" width="278.064654" height="199.973733"/>
  </clipPath>
 </defs>
</svg>
